<svg id="Capa_1" enable-background="new 0 0 512.001 512.001" height="512" viewBox="0 0 512.001 512.001" width="512" xmlns="http://www.w3.org/2000/svg"><g><g><path d="m405.631 504.5h-299.261v-145.447l113.081-20.786h73.099l113.081 20.786z" fill="#f7f9fa"/><path d="m292.55 338.267h-21.94l113.081 20.786v145.447h21.94v-145.447z" fill="#e9edf1"/><path d="m106.37 359.053-25.951 8.286c-22.265 7.109-38.504 26.323-41.803 49.462l-12.506 87.699h80.26z" fill="#a2aee6"/><path d="m84.429 366.059v138.441h21.941v-145.447z" fill="#8795de"/><path d="m405.631 359.053 25.951 8.286c22.265 7.109 38.504 26.323 41.803 49.462l12.505 87.699h-80.26v-145.447z" fill="#a2aee6"/><path d="m473.386 416.801c-3.299-23.138-19.539-42.352-41.803-49.462l-25.951-8.286v7.006l4.011 1.281c22.265 7.109 38.504 26.323 41.803 49.462l12.505 87.699h21.94z" fill="#8795de"/><path d="m388.867 163.636h-265.733v-94.878c0-33.832 27.426-61.258 61.258-61.258h143.218c33.832 0 61.258 27.426 61.258 61.258v94.878z" fill="#5d5360"/><path d="m327.609 7.5h-17.94c33.832 0 61.258 27.426 61.258 61.258v94.878h17.94v-94.878c0-33.832-27.426-61.258-61.258-61.258z" fill="#4b3f4e"/><path d="m358.752 104.201v119.388c0 28.816-23.36 52.176-52.176 52.176h-101.151c-28.816 0-52.176-23.36-52.176-52.176v-119.388c0-10.291 8.342-18.633 18.633-18.633h22.884c10.858 15.106 28.323 24.061 46.926 24.061h28.615c18.603 0 36.069-8.955 46.926-24.061h22.884c10.292 0 18.635 8.342 18.635 18.633z" fill="#fed2a4"/><g fill="#ffbd86"><path d="m340.118 85.568h-21.94c10.291 0 18.633 8.343 18.633 18.633v119.388c0 28.816-23.36 52.176-52.176 52.176h21.94c28.816 0 52.176-23.36 52.176-52.176v-119.388c.001-10.291-8.342-18.633-18.633-18.633z"/><path d="m219.753 109.629h21.94c-18.603 0-36.069-8.955-46.926-24.061h-21.94c10.857 15.106 28.323 24.061 46.926 24.061z"/></g><path d="m153.244 209.697h-23.792c-11.606 0-21.014-9.408-21.014-21.014v-20.034c0-11.606 9.408-21.014 21.014-21.014h23.792z" fill="#fed2a4"/><path d="m131.304 147.635h21.94v62.063h-21.94z" fill="#ffbd86"/><path d="m382.549 209.697h-23.792v-62.063h23.792c11.606 0 21.014 9.408 21.014 21.014v20.034c0 11.607-9.408 21.015-21.014 21.015z" fill="#fed2a4"/><path d="m382.549 147.635h-21.94c11.606 0 21.014 9.408 21.014 21.014v20.034c0 11.606-9.408 21.014-21.014 21.014h21.94c11.606 0 21.014-9.408 21.014-21.014v-20.034c0-11.606-9.408-21.014-21.014-21.014z" fill="#ffbd86"/><path d="m219.451 275.765h73.099v62.502l-36.55 25.422-36.549-25.422z" fill="#fed2a4"/><path d="m270.61 275.765v62.502l-25.58 17.792 10.97 7.63 36.55-25.422v-62.502z" fill="#ffbd86"/><path d="m256 363.689 20.753 20.726c4.803 4.797 12.71 4.354 16.947-.95l31.335-39.227-32.486-5.971z" fill="#a6e7f0"/><path d="m292.55 338.267-4.586 3.19 15.132 2.781-23.014 30.762c-2.17 2.716-5.302 4.148-8.487 4.264l5.158 5.151c4.803 4.797 12.71 4.354 16.947-.95l31.335-39.227z" fill="#6bd9e7"/><path d="m256 363.689-20.753 20.726c-4.803 4.797-12.71 4.354-16.947-.95l-31.335-39.227 32.486-5.971z" fill="#a6e7f0"/><path d="m219.451 338.267-17.354 3.19 31.964 22.232-10.791 11.018c-2.581 2.578-6.057 3.628-9.379 3.239l4.409 5.52c4.237 5.304 12.144 5.748 16.948.95l20.752-20.727z" fill="#6bd9e7"/></g><g><path d="m493.316 503.441-12.505-87.699c-3.681-25.813-22.108-47.617-46.947-55.547-.794-.196-25.712-8.324-26.876-8.519l-106.938-19.656v-21.048c0-4.142-3.358-7.5-7.5-7.5s-7.5 3.358-7.5 7.5v23.376l-29.05 20.205-29.05-20.206v-51.083h65.6 14.026c32.905 0 59.676-26.77 59.676-59.675v-6.392h16.297c15.723 0 28.514-12.792 28.514-28.514v-20.034c0-10.71-5.938-20.056-14.692-24.929v-39.931c0-4.142-3.358-7.5-7.5-7.5s-7.5 3.358-7.5 7.5v36.345h-15.119v-35.933c0-14.41-11.724-26.133-26.134-26.133h-22.884c-2.415 0-4.681 1.162-6.09 3.123-9.423 13.111-24.689 20.938-40.836 20.938h-28.614c-16.147 0-31.413-7.827-40.836-20.938-1.409-1.96-3.676-3.123-6.09-3.123h-22.884c-14.41 0-26.134 11.723-26.134 26.133v35.933h-15.12v-71.374c0-29.643 24.117-53.76 53.76-53.76h143.22c29.644 0 53.76 24.117 53.76 53.76 0 4.142 3.358 7.5 7.5 7.5s7.5-3.358 7.5-7.5c0-37.914-30.846-68.76-68.76-68.76h-143.22c-37.915 0-68.76 30.846-68.76 68.76v74.96c-8.754 4.873-14.692 14.219-14.692 24.929v20.034c0 15.723 12.792 28.514 28.514 28.514h16.297v6.392c0 32.905 26.771 59.675 59.676 59.675h6.526v48.755l-106.937 19.657c-.773.073-25.662 8.186-26.876 8.519-24.838 7.931-43.266 29.734-46.947 55.547l-12.505 87.699c-.585 4.101 2.266 7.899 6.366 8.483.359.051.715.076 1.068.076 3.673 0 6.882-2.701 7.416-6.442l12.504-87.698c2.875-20.157 17.264-37.183 36.66-43.375l16.17-5.163v135.178c0 4.142 3.358 7.5 7.5 7.5s7.5-3.358 7.5-7.5v-139.2l70.037-12.874 28.534 35.72c2.632 3.315 8.598 7.151 14.756 7.1 4.987 0 9.804-1.981 13.352-5.524l7.953-7.943v55.531c0 4.142 3.358 7.5 7.5 7.5s7.5-3.358 7.5-7.5v-55.531l7.953 7.943c6.924 7.1 20.729 7.687 28.107-1.576l28.534-35.72 70.037 12.874v139.2c0 4.142 3.358 7.5 7.5 7.5s7.5-3.358 7.5-7.5v-135.179l16.17 5.163c19.396 6.193 33.785 23.219 36.66 43.375l12.505 87.699c.534 3.742 3.742 6.442 7.416 6.442.352 0 .709-.025 1.068-.076 4.098-.584 6.949-4.382 6.364-8.483zm-127.059-348.307h16.292c7.452 0 13.514 6.062 13.514 13.515v20.034c0 7.452-6.062 13.514-13.514 13.514h-16.292zm-220.513 47.063h-16.292c-7.452 0-13.514-6.062-13.514-13.514v-20.034c0-7.452 6.062-13.515 13.514-13.515h16.292zm15.005 21.392v-119.388c0-6.139 4.995-11.133 11.134-11.133h19.186c12.335 15.135 30.978 24.061 50.625 24.061h28.614c19.647 0 38.29-8.926 50.625-24.061h19.186c6.139 0 11.134 4.994 11.134 11.133v119.388c0 24.634-20.042 44.675-44.676 44.675h-101.152c-24.634.001-44.676-20.041-44.676-44.675zm69.199 155.52c-1.07 1.069-2.316 1.17-2.967 1.131-.648-.036-1.877-.274-2.821-1.456l-23.513-29.435c2.2-.404 15.934-2.929 17.087-3.141l26.619 18.515zm57.893-.325c-.944 1.182-2.173 1.42-2.821 1.456-.652.039-1.896-.062-2.967-1.131l-14.404-14.385 26.619-18.515c1.342.247 15.712 2.888 17.087 3.141z"/><path d="m353.258 462.872h-28.222c-4.142 0-7.5 3.358-7.5 7.5s3.358 7.5 7.5 7.5h28.222c4.142 0 7.5-3.358 7.5-7.5s-3.358-7.5-7.5-7.5z"/><path d="m256 200.43h6.891c4.142 0 7.5-3.358 7.5-7.5 0-3.937-3.033-7.166-6.891-7.476v-11.929c0-4.142-3.358-7.5-7.5-7.5s-7.5 3.358-7.5 7.5v19.404c0 4.143 3.358 7.501 7.5 7.501z"/><path d="m196.56 151.789c-4.142 0-7.5 3.358-7.5 7.5v13.242c0 4.142 3.358 7.5 7.5 7.5s7.5-3.358 7.5-7.5v-13.242c0-4.142-3.358-7.5-7.5-7.5z"/><path d="m315.441 180.031c4.142 0 7.5-3.358 7.5-7.5v-13.242c0-4.142-3.358-7.5-7.5-7.5s-7.5 3.358-7.5 7.5v13.242c0 4.142 3.358 7.5 7.5 7.5z"/><path d="m256 242.2c15.447 0 29.459-7.892 37.483-21.11 2.149-3.541 1.021-8.153-2.52-10.303-3.54-2.149-8.152-1.021-10.303 2.52-5.281 8.699-14.5 13.893-24.661 13.893s-19.38-5.194-24.661-13.893c-2.149-3.541-6.763-4.669-10.303-2.52-3.541 2.149-4.669 6.762-2.52 10.303 8.026 13.219 22.038 21.11 37.485 21.11z"/></g></g></svg>