<svg id="Capa_1" enable-background="new 0 0 512.006 512.006" height="512" viewBox="0 0 512.006 512.006" width="512" xmlns="http://www.w3.org/2000/svg"><g><g><g><path d="m256.021 140.657c0 7.905 6.408 14.313 14.314 14.313h21.159 10.763c1.952 0 3.887-1.074 5.802-1.221 32.936-2.514 59.033-25.245 66.612-56.518 2.194-9.051-3.577-16.791-12.89-16.791h-.107c-2.297 0-4.476-.445-6.407.547-3.64 1.871-6.402 5.3-7.422 9.508-4.983 20.545-23.531 35.847-45.587 35.847h-31.922c-7.907.002-14.315 6.41-14.315 14.315z" fill="#f8f7f7"/><path d="m329.661 365.217c0 .207.168.374.374.374h62.021l14.469-1c35.522 0 64.395-23.649 72.414-56.74 2.193-9.051-3.576-16.789-12.889-16.789-2.927 0-5.661-.108-7.944 1.44-2.935 1.991-5.124 5.065-6.02 8.721-5.021 20.492-23.544 35.741-45.561 35.741h-76.49c-.206 0-.374.168-.374.374z" fill="#e1e1e1"/><path d="m256.021 206.927c0 7.905 6.408 14.314 14.314 14.314h51.604 12.845c4.775 0 9.453-1.37 14.01-2.084 37.673-5.901 67.058-34.261 74.183-71.692 1.681-8.829-4.075-16.016-13.063-16.016h-.003c-2.971 0-5.759-.087-8.072 1.495-3.038 2.078-5.254 5.311-5.983 9.145-5.465 28.734-30.772 50.525-61.073 50.525h-64.449c-7.905-.001-14.313 6.408-14.313 14.313z" fill="#f8f7f7"/><path d="m256.021 273.213c0 7.905 6.408 14.313 14.314 14.313h88.171 12.683c2.993 0 5.955-1.123 8.881-1.365 49.53-4.087 88.808-41.076 96.246-89.695 1.315-8.596-4.479-15.303-13.175-15.303h-.01c-2.936 0-5.697-.111-7.994 1.432-3.204 2.15-5.508 5.569-6.132 9.614-5.815 37.718-38.496 66.69-77.815 66.69h-100.856c-7.905.001-14.313 6.409-14.313 14.314z" fill="#f8f7f7"/><path d="m490.035 380.819c9.316-.083 15.336 7.657 13.009 16.678-7.725 29.943-33.425 51.537-65.627 51.879-2.78.03-5.537.897-8.259.608-15.768-1.677-30.378-8.632-41.747-20.002l-64.153-64.153c-7.704-7.704-18.152-12.032-29.047-12.032h-38.129c-.034 0-.061-.027-.061-.061v-28.505c0-.034.027-.061.061-.061h38.154c18.603 0 36.092 7.244 49.246 20.398l64.171 64.171c7.326 7.326 16.938 11.54 27.227 11.976 19.921.843 36.793-12.826 41.492-31.332.921-3.627 3.239-6.6 6.284-8.458 2.171-1.324 4.711-1.082 7.379-1.106z" fill="#f8f7f7"/><path d="m423.973 147.469c-7.98 41.95-44.94 73.77-89.19 73.77h-16c44.25 0 81.21-31.82 89.19-73.77 1.12-5.89-1.51-11.5-6.06-14.57 2.3-1.56 5.06-2.45 8-2.45 8.99 0 15.74 8.19 14.06 17.02z" fill="#e1e1e1"/><path d="m477.313 196.469c-7.88 51.49-52.47 91.06-106.12 91.06h-16c53.65 0 98.24-39.57 106.12-91.06.87-5.66-1.78-10.94-6.18-13.87 2.3-1.54 5.06-2.43 8-2.43h.01c8.69 0 15.49 7.7 14.17 16.3z" fill="#e1e1e1"/><path d="m479.943 307.849c-8.02 33.09-37.9 57.74-73.42 57.74h-16c35.52 0 65.4-24.65 73.42-57.74 1.48-6.12-1.13-12.09-5.86-15.32 2.29-1.57 5.04-2.47 7.97-2.47 9.31 0 16.08 8.74 13.89 17.79z" fill="#cdcdcd"/><path d="m504.043 397.499c-7.72 29.94-34.42 52.53-66.63 52.88-2.78.03-5.53-.1-8.26-.4 29.15-3.18 52.72-24.66 59.89-52.48 1.63-6.29-1.3-12.45-6.39-15.57 2.17-1.32 4.71-2.09 7.38-2.11 9.32-.08 16.34 8.66 14.01 17.68z" fill="#e1e1e1"/><path d="m255.966 140.657c0 7.905-6.408 14.313-14.314 14.313l-31.922-10c-.574 0-1.145 9.994-1.716 9.981-34.764-.779-63.807-25.163-71.698-57.719-2.194-9.051 4.577-17.791 13.89-17.791h.107c6.627 0 12.267 4.615 13.829 11.055 4.867 20.067 22.676 35.133 44.054 35.823.509.016 1.02 10.025 1.533 10.025l31.922-10c7.906 0 14.315 6.408 14.315 14.313z" fill="#f8f7f7"/><path d="m182.326 365.217c0 .207-.167.374-.374.374h-76.49c-35.522 0-65.395-24.649-73.414-57.74-2.193-9.051 4.576-17.789 13.889-17.789 6.691 0 12.372 4.662 13.964 11.161 5.021 20.492 23.544 35.741 45.561 35.741h76.49c.206 0 .374.168.374.374z" fill="#e1e1e1"/><path d="m255.966 206.927c0 7.905-6.408 14.314-14.314 14.314l-18.639-10-14.999 10h-30.81c-44.249 0-81.206-31.818-89.194-73.776-1.681-8.829 5.075-17.016 14.063-17.016h.003c6.874 0 12.771 4.888 14.055 11.641 5.465 28.734 30.772 50.525 61.073 50.525h30.81l13.876 10 19.763-10c7.904-.002 14.313 6.407 14.313 14.312z" fill="#f8f7f7"/><path d="m255.966 273.213c0 7.905-6.408 14.313-14.314 14.313l-17.655-10-15.984 10h-67.215c-53.659 0-98.25-39.569-106.127-91.06-1.315-8.596 5.479-16.303 14.175-16.303h.011c7.029 0 13.055 5.099 14.126 12.046 5.815 37.718 38.496 66.69 77.816 66.69h67.215l16.604 10 17.035-10c7.904.001 14.313 6.409 14.313 14.314z" fill="#f8f7f7"/><path d="m21.952 379.819c-9.316-.083-16.336 8.657-14.009 17.678 7.725 29.943 34.425 52.537 66.627 52.879 18.887.2 36.674-7.061 50.007-20.394l64.153-64.153c5.354-5.354 12.033-9.077 19.267-10.85 3.175-.779 6.457-1.181 9.781-11.181h38.129c.034 10 .061 9.973.061 9.939v-28.505c0-.034-.027-.061-.061-.061l-38.154 10c-3.286 0-6.538-9.774-9.738-9.329-14.91 2.073-28.678 8.897-39.508 19.727l-64.171 64.171c-7.326 7.326-16.938 11.54-27.227 11.976-19.921.843-36.793-12.826-41.492-31.332-1.579-6.213-7.256-10.508-13.665-10.565z" fill="#f8f7f7"/><path d="m255.993 380.534c-3.006 0-5.84.262-8.33-1.042-5.735-3.004-9.649-9.013-9.649-15.937v-283.95c0-6.854 3.836-12.813 9.478-15.846 2.531-1.361 5.426-1.133 8.501-1.133 9.929 0 16.979 7.049 16.979 16.979v283.95c0 9.93-7.049 16.979-16.979 16.979z" fill="#f8f7f7"/><g fill="#e1e1e1"><path d="m238.013 325.169v28.63h-20.24c-3.31 0-6.59.4-9.76 1.18v-29.13c3.2-.45 6.45-.68 9.74-.68z"/><path d="m208.013 258.899h30v28.63h-30z"/><path d="m208.013 192.609h30v28.63h-30z"/><path d="m238.013 126.339v28.63h-28.28c-.58 0-1.15-.01-1.72-.02v-28.64c.57.02 1.14.03 1.72.03z"/><path d="m273.973 79.609v283.95c0 9.93-8.05 17.98-17.98 17.98-3.07 0-5.97-.77-8.5-2.13 5.64-3.04 9.48-9 9.48-15.85v-283.95c0-4.96-2.01-9.46-5.27-12.71-1.24-1.24-2.66-2.3-4.21-3.14 2.53-1.36 5.43-2.13 8.5-2.13 4.96 0 9.46 2.01 12.71 5.27 3.26 3.25 5.27 7.75 5.27 12.71z"/><path d="m375.673 97.229c-8.02 33.09-37.9 57.74-73.42 57.74h-13c35.52 0 65.4-24.65 73.42-57.74 1.64-6.76-1.73-13.34-7.41-16.24 1.93-1 4.11-1.55 6.41-1.55h.11c9.31 0 16.08 8.74 13.89 17.79z"/></g></g></g><path d="m507.401 380.723c-4.183-5.349-10.45-8.404-17.223-8.404-.067 0-.135 0-.201.001-9.882.089-18.463 6.757-20.866 16.218-3.947 15.546-18.183 26.345-33.906 25.684-8.386-.354-16.284-3.83-22.239-9.785l-31.345-31.345h24.913c38.461 0 71.647-26.102 80.703-63.474 1.599-6.596.116-13.429-4.067-18.747-4.153-5.28-10.39-8.308-17.11-8.308-10.077 0-18.814 6.94-21.248 16.876-4.332 17.679-20.071 30.026-38.277 30.026h-71.283c-12.171-7.669-26.267-11.794-41.005-11.794h-12.765v-22.643h39.176c4.143 0 7.5-3.358 7.5-7.5s-3.357-7.5-7.5-7.5h-39.176v-13.628h89.717c20.693 0 40.716-7.469 56.381-21.03 15.499-13.419 25.744-31.892 28.847-52.017.5-3.243 3.386-5.688 6.725-5.688 2.012 0 3.918.876 5.23 2.405.74.862 1.924 2.693 1.53 5.264-3.567 23.316-15.427 44.733-33.394 60.306-18.145 15.727-41.344 24.388-65.319 24.388h-17.855c-4.143 0-7.5 3.358-7.5 7.5s3.357 7.5 7.5 7.5h17.855c27.584 0 54.27-9.963 75.144-28.053 20.655-17.902 34.292-42.539 38.397-69.373.949-6.208-.865-12.514-4.978-17.304-4.165-4.851-10.22-7.633-16.621-7.633-10.837 0-19.895 7.74-21.538 18.403-2.561 16.612-11.028 31.87-23.841 42.962-12.939 11.202-29.475 17.371-46.563 17.371h-89.717v-22.66h53.312c47.141 0 87.751-33.592 96.561-79.873 1.223-6.417-.464-12.982-4.627-18.013-4.158-5.024-10.283-7.906-16.806-7.906-10.458 0-19.468 7.46-21.423 17.739-4.896 25.742-27.482 44.426-53.705 44.426h-53.312v-22.643h20.785c38.459 0 71.646-26.101 80.702-63.472 1.599-6.596.116-13.43-4.068-18.748-4.153-5.28-10.391-8.309-17.111-8.309h-.107c-10.036 0-18.72 6.903-21.118 16.788-4.3 17.731-20.048 30.115-38.297 30.115h-20.785v-39.24c0-14.049-11.43-25.479-25.478-25.479s-25.479 11.43-25.479 25.479v39.239h-20.785c-18.249 0-33.997-12.384-38.298-30.115-2.397-9.884-11.081-16.788-21.117-16.788h-.107c-6.721 0-12.958 3.028-17.111 8.309-4.184 5.319-5.667 12.152-4.068 18.749 9.057 37.371 42.243 63.472 80.702 63.472h20.785v22.643h-53.311c-26.223 0-48.809-18.684-53.705-44.426-1.955-10.279-10.965-17.739-21.426-17.739-6.521 0-12.645 2.881-16.803 7.906-4.163 5.031-5.85 11.596-4.627 18.013 8.085 42.469 43.767 75.115 86.771 79.389.253.025.503.037.751.037 3.809 0 7.07-2.889 7.454-6.759.41-4.122-2.6-7.795-6.721-8.205-36.438-3.621-66.67-31.283-73.521-67.269-.524-2.754.683-4.718 1.449-5.644.763-.922 2.459-2.469 5.249-2.469 3.264 0 6.076 2.331 6.687 5.542 6.241 32.81 35.025 56.624 68.441 56.624h53.311v13.626h-29.676c-4.143 0-7.5 3.358-7.5 7.5s3.357 7.5 7.5 7.5h29.675v22.66h-89.717c-17.088 0-33.624-6.169-46.563-17.371-12.813-11.092-21.279-26.35-23.841-42.961-1.643-10.664-10.701-18.404-21.549-18.404-6.391 0-12.445 2.782-16.61 7.633-4.113 4.79-5.928 11.096-4.979 17.304 4.105 26.833 17.742 51.47 38.397 69.372 20.873 18.09 47.56 28.053 75.144 28.053h89.717v22.643h-12.764c-14.738 0-28.835 4.125-41.006 11.794h-71.283c-18.206 0-33.945-12.347-38.276-30.025-2.435-9.937-11.172-16.877-21.249-16.877-6.721 0-12.957 3.028-17.11 8.308-4.184 5.318-5.666 12.151-4.067 18.747 9.056 37.373 42.242 63.474 80.703 63.474h24.913l-31.345 31.346c-5.955 5.956-13.854 9.431-22.24 9.785-15.694.663-29.958-10.137-33.905-25.685-2.403-9.46-10.984-16.128-20.867-16.217-6.813-.09-13.198 3.001-17.423 8.403-4.169 5.332-5.597 12.129-3.915 18.648 8.792 34.079 39.144 58.137 73.81 58.504.284.003.564.004.848.004 20.61 0 39.953-8.005 54.543-22.595l15.016-15.016c2.929-2.929 2.929-7.678 0-10.606-2.93-2.929-7.678-2.929-10.607 0l-15.016 15.016c-11.753 11.753-27.334 18.201-43.94 18.201-.228 0-.456-.001-.683-.004-27.899-.296-52.344-19.727-59.444-47.252-.695-2.694.457-4.703 1.206-5.661 1.316-1.683 3.285-2.644 5.41-2.644h.063c3.077.028 5.734 2.047 6.462 4.911 5.519 21.733 25.123 37.023 47.077 37.021.664 0 1.333-.014 2.001-.042 12.152-.514 23.593-5.544 32.214-14.165l44.146-44.147c.001-.001.002-.002.003-.003l20.021-20.021c11.736-11.737 27.343-18.202 43.942-18.202h12.764v13.627h-12.739c-12.976 0-25.175 5.053-34.351 14.228l-25.955 25.956c-2.929 2.929-2.929 7.678 0 10.607 1.465 1.464 3.385 2.197 5.304 2.197s3.839-.732 5.304-2.197l25.954-25.955c6.343-6.342 14.775-9.835 23.744-9.835h12.739v2.258c0 14.049 11.43 25.478 25.479 25.478s25.478-11.43 25.478-25.478v-2.258h12.739c8.969 0 17.401 3.493 23.743 9.835l64.152 64.153c14.59 14.59 33.93 22.595 54.543 22.595.282 0 .564-.001.848-.004 34.666-.368 65.018-24.426 73.81-58.504 1.68-6.52.252-13.317-3.917-18.649zm-401.929-22.632c-31.514 0-58.705-21.386-66.125-52.007-.508-2.096-.042-4.261 1.279-5.94.758-.964 2.458-2.582 5.32-2.582 3.147 0 5.894 2.239 6.68 5.446 5.98 24.409 27.711 41.457 52.846 41.457h53.54l-13.627 13.627h-39.913zm353.909-55.084c.785-3.206 3.531-5.445 6.679-5.445 2.862 0 4.563 1.618 5.32 2.582 1.321 1.679 1.787 3.844 1.279 5.941-7.42 30.621-34.611 52.006-66.125 52.006h-39.913l-13.627-13.627h53.54c25.135 0 46.867-17.047 52.847-41.457zm-124.588-102.893c33.416 0 62.2-23.814 68.441-56.624.61-3.211 3.424-5.542 6.689-5.542 2.788 0 4.484 1.547 5.247 2.469.767.926 1.974 2.89 1.448 5.645-7.465 39.215-41.877 67.678-81.825 67.678h-53.312v-13.626zm-32.526-66.27c25.194 0 46.938-17.098 52.874-41.579.761-3.134 3.45-5.324 6.541-5.324h.107c2.863 0 4.564 1.618 5.322 2.583 1.321 1.68 1.787 3.846 1.279 5.942-7.421 30.62-34.611 52.005-66.124 52.005h-20.785v-13.626h20.786zm-92.528 13.627c-31.513 0-58.703-21.385-66.124-52.004-.508-2.097-.042-4.263 1.279-5.942.759-.964 2.459-2.583 5.322-2.583h.107c3.091 0 5.78 2.189 6.54 5.323 5.938 24.481 27.681 41.58 52.875 41.58h20.785v13.626zm-68.931 132.556c-23.976 0-47.174-8.661-65.319-24.388-17.967-15.572-29.826-36.989-33.394-60.305-.394-2.571.79-4.402 1.53-5.264 1.313-1.528 3.219-2.405 5.241-2.405 3.328 0 6.214 2.445 6.714 5.689 3.103 20.125 13.348 38.598 28.847 52.016 15.665 13.561 35.688 21.03 56.381 21.03h89.717v13.627zm125.674 83.529c0 5.778-4.7 10.478-10.478 10.478s-10.479-4.701-10.479-10.478v-283.951c0-5.778 4.7-10.479 10.479-10.479 5.778 0 10.478 4.701 10.478 10.479zm230.309 32.067c-7.101 27.525-31.545 46.956-59.444 47.252-.229.003-.454.004-.683.004-16.606 0-32.188-6.448-43.94-18.201l-64.153-64.153c-9.175-9.175-21.374-14.228-34.35-14.228h-12.739v-13.627h12.765c12.513 0 24.458 3.677 34.61 10.513.001 0 .001 0 .001.001 3.315 2.233 6.441 4.799 9.33 7.688l20.021 20.021.003.003 44.147 44.147c8.621 8.621 20.061 13.651 32.213 14.165 22.771.966 43.394-14.589 49.079-36.978.728-2.864 3.385-4.884 6.461-4.912 2.153-.012 4.144.945 5.474 2.644.748.958 1.9 2.967 1.205 5.661z"/></g></svg>