<svg id="Capa_1" enable-background="new 0 0 512 512" height="512" viewBox="0 0 512 512" width="512" xmlns="http://www.w3.org/2000/svg"><g><g><g><g><path d="m375.955 159.974v70.301c0 15.363-10.507 28.733-25.435 32.364l-40.064 9.746c-35.783 8.705-73.131 8.705-108.914 0l-40.064-9.746c-14.927-3.631-25.435-17.001-25.435-32.364v-70.301z" fill="#ffdd40"/></g><g><path d="m220.876 272.385-40.064-9.746c-14.927-3.631-25.435-17.001-25.435-32.364v-70.301h-19.333v70.301c0 15.363 10.507 28.733 25.435 32.364l40.064 9.746c21.046 5.12 42.632 7.204 64.123 6.301-15.049-.632-30.053-2.715-44.79-6.301z" fill="#ffc043"/></g><g><path d="m283.905 302.099v-43.819h-55.81v43.819c0 5.779-3.605 10.944-9.03 12.937l-26.289 9.657v86.244h126.448v-86.244l-26.289-9.657c-5.425-1.993-9.03-7.158-9.03-12.937z" fill="#f6a96c"/></g><g><path d="m246.584 311.756v-31.407h-18.488v21.75c0 5.779-3.605 10.945-9.03 12.937l-26.289 9.657v17.327l44.777-17.327c5.424-1.993 9.03-7.158 9.03-12.937z" fill="#ea9b58"/></g><g><path d="m412.365 480.788-18.284-105.917c-2.515-14.567-12.555-26.714-26.39-31.924l-48.468-18.254s-38.301 32.395-55.281 46.757c-4.586 3.879-11.301 3.878-15.887-.001l-55.28-46.756-48.468 18.254c-13.834 5.21-23.875 17.357-26.39 31.924l-18.282 105.917c-2.138 12.387 7.4 23.712 19.97 23.712h272.791c12.57 0 22.108-11.325 19.969-23.712z" fill="#42c3fc"/></g><g><path d="m119.576 480.788 18.284-96.001c2.515-14.567 12.555-26.714 26.39-31.924l42.782-16.113-14.255-12.057-48.468 18.254c-13.834 5.21-23.875 17.357-26.39 31.924l-18.284 105.917c-2.138 12.387 7.4 23.712 19.97 23.712h19.941c-12.571 0-22.109-11.325-19.97-23.712z" fill="#1aa9e8"/></g><g><path d="m257.023 290.562h-2.047c-42.647 0-77.22-34.573-77.22-77.22v-86.417c0-6.627 5.373-12 12-12h132.487c6.627 0 12 5.373 12 12v86.417c0 42.647-34.572 77.22-77.22 77.22z" fill="#fed2a4"/></g><g><path d="m211.314 114.925h-21.558c-6.627 0-12 5.373-12 12v86.417c0 42.647 34.573 77.22 77.22 77.22h2.047c3.071 0 6.094-.199 9.072-.548.196-.101.397-.171.604-.199h.001c-38.147-5.22-67.543-37.915-67.543-77.496v-85.235c0-6.715 5.443-12.158 12.157-12.159z" fill="#ffbd86"/></g><g><path d="m375.955 158.789v4.523h-76.445c-15.984 0-31.459-5.624-43.713-15.888l-26.128-21.884c-3.003-2.515-7.529-1.849-9.679 1.426l-3.7 5.634c-12.586 19.168-33.977 30.711-56.907 30.711h-23.338v-4.523c0-45.378 36.786-82.165 82.165-82.165h75.582c45.377.001 82.163 36.787 82.163 82.166z" fill="#ffdd40"/></g><g><path d="m249.002 125.54c-3.003-2.515-7.529-1.849-9.679 1.426l-2.821 4.297 19.296 16.161c12.254 10.264 27.729 15.888 43.713 15.888h19.333c-15.984 0-31.459-5.624-43.713-15.888z" fill="#ffdd40"/></g><g><path d="m293.791 76.624h-75.582c-45.378 0-82.165 36.786-82.165 82.165v4.523h19.333v-4.523c0-14.819 3.934-28.712 10.804-40.712 3.705-6.472 10.622-10.437 18.08-10.437h173.809c-15.054-18.893-38.244-31.016-64.279-31.016z" fill="#ffc043"/></g><g><path d="m167.105 334.361 45.946 63.733c3.534 4.903 10.548 5.641 15.025 1.581l27.924-25.317c-2.825 0-5.651-.97-7.944-2.909l-55.28-46.756z" fill="#e9efff"/></g><g><path d="m167.105 334.361 9.88 13.705 30.046-11.316v-.001l-14.255-12.056z" fill="#d3dcfb"/></g><g><path d="m344.895 334.361-45.946 63.733c-3.534 4.903-10.548 5.641-15.025 1.581l-27.924-25.317c2.825 0 5.651-.97 7.944-2.909l55.28-46.756z" fill="#e9efff"/></g><g><g><path d="m337.19 88.993 15.969-27.708c4.812-8.349 2.46-18.958-5.385-24.553-16.66-11.882-48.412-29.232-91.774-29.232-43.358 0-75.108 17.347-91.769 29.229-7.848 5.597-10.198 16.209-5.382 24.559l15.982 27.705z" fill="#e9efff"/></g><g><path d="m182.994 37.227c15.224-10.993 43.764-27.06 82.735-29.422-3.178-.192-6.415-.305-9.729-.305-43.358 0-75.108 17.347-91.769 29.229-7.848 5.597-10.198 16.209-5.382 24.559l15.982 27.705h17.244l-14.657-28.003c-4.296-8.21-1.936-18.339 5.576-23.763z" fill="#d3dcfb"/></g></g></g><g><path d="m419.756 479.512-10.075-58.362c-.704-4.082-4.581-6.823-8.667-6.115-4.082.705-6.819 4.584-6.115 8.667l10.075 58.362c.642 3.719-.384 7.508-2.815 10.395-2.431 2.886-5.99 4.542-9.764 4.542h-31.821l-6.907-36.532c-.77-4.07-4.694-6.745-8.763-5.977-4.07.77-6.746 4.693-5.977 8.763l6.38 33.745h-178.616l6.38-33.745c.77-4.07-1.906-7.994-5.977-8.763s-7.993 1.907-8.763 5.977l-6.906 36.531h-31.821c-3.774 0-7.333-1.656-9.764-4.542-2.431-2.887-3.458-6.675-2.815-10.395l18.284-105.917c2.054-11.895 10.347-21.927 21.643-26.182l17.425-6.563 42.59 59.078c2.932 4.066 7.473 6.699 12.458 7.224.615.064 1.229.097 1.84.097 4.355 0 8.592-1.617 11.849-4.57l22.886-20.748 22.886 20.75c3.256 2.953 7.493 4.57 11.849 4.57.612 0 1.226-.032 1.84-.097 4.985-.525 9.526-3.158 12.458-7.225l42.59-59.077 17.425 6.563c11.296 4.254 19.589 14.287 21.643 26.182l3.133 18.152c.704 4.082 4.584 6.822 8.667 6.115 4.082-.705 6.819-4.584 6.115-8.667l-3.133-18.152c-2.955-17.113-14.886-31.546-31.137-37.667l-74.814-27.933c-2.462-.904-4.116-3.274-4.116-5.897v-11.355c29.626-13.212 50.338-42.924 50.338-77.402v-42.53h6.976c4.142 0 7.5-3.358 7.5-7.5s-3.358-7.5-7.5-7.5h-49.21c-14.198 0-28.012-5.021-38.897-14.137l-26.128-21.884c-3.071-2.572-7.105-3.711-11.069-3.129-3.963.584-7.497 2.839-9.695 6.188l-3.7 5.634c-10.513 16.01-28.204 26.192-47.324 27.238-4.136.226-7.305 3.762-7.079 7.898s3.769 7.314 7.898 7.079c2.265-.124 4.514-.352 6.741-.677v43.321c0 34.477 20.713 64.19 50.338 77.402v11.355c0 2.623-1.654 4.993-4.116 5.897l-74.814 27.933c-16.251 6.121-28.183 20.554-31.137 37.667l-18.284 105.915c-1.396 8.089.835 16.33 6.123 22.609 5.288 6.278 13.029 9.879 21.237 9.879h272.791c8.208 0 15.949-3.601 21.237-9.879 5.288-6.279 7.52-14.52 6.124-22.609zm-196.717-85.393c-.759.688-1.607.715-2.044.667-.438-.046-1.261-.247-1.86-1.078l-40.215-55.783 12.376-4.661 51.147 43.261zm69.826-.411c-.599.832-1.422 1.033-1.86 1.079-.438.047-1.285.02-2.044-.667l-19.405-17.594 51.147-43.261 12.376 4.661zm-107.608-180.366v-47.124c15.103-5.528 28.309-15.804 37.302-29.501l3.113-4.741 25.309 21.198c13.581 11.374 30.815 17.638 48.529 17.638h27.233v42.53c0 38.444-31.276 69.72-69.72 69.72h-2.047c-38.443 0-69.719-31.276-69.719-69.72zm36.394 108.734c8.341-3.063 13.944-11.092 13.944-19.977v-6.3c6.229 1.464 12.712 2.263 19.381 2.263h2.047c6.669 0 13.152-.799 19.381-2.263v6.3c0 8.885 5.604 16.914 13.944 19.977l14.192 5.213-45.44 38.434c-.219.185-.451.346-.691.486-.728.422-1.559.649-2.409.649s-1.681-.227-2.408-.648c-.241-.14-.473-.302-.693-.487l-45.44-38.434z"/><path d="m159.706 269.927c.596.145 1.192.214 1.779.214 3.379 0 6.447-2.3 7.282-5.729.979-4.025-1.49-8.082-5.515-9.061-11.604-2.823-19.708-13.135-19.708-25.077v-48.171-23.315c0-26 13.37-48.922 33.585-62.295h157.74c20.216 13.372 33.585 36.295 33.585 62.295v23.315 48.171c0 11.942-8.104 22.254-19.708 25.077-4.024.979-6.494 5.036-5.515 9.061.834 3.429 3.902 5.729 7.282 5.729.586 0 1.183-.07 1.779-.214 18.348-4.463 31.162-20.769 31.162-39.652v-48.171-23.315c0-29.476-14.302-55.668-36.326-72.021l12.528-21.737c6.761-11.73 3.524-26.521-7.529-34.404-6.451-4.601-13.401-8.809-20.657-12.506-3.69-1.88-8.208-.414-10.088 3.277s-.413 8.207 3.277 10.088c6.598 3.362 12.909 7.182 18.758 11.353 4.733 3.376 6.127 9.697 3.243 14.702l-13.806 23.953h-153.692l-13.817-23.953c-2.888-5.006-1.495-11.328 3.24-14.705 14.578-10.396 45.318-27.836 87.415-27.836 13.302 0 26.492 1.733 39.204 5.15 3.999 1.075 8.115-1.295 9.19-5.295 1.076-4-1.295-8.115-5.295-9.19-13.982-3.759-28.483-5.665-43.099-5.665-46.274 0-80.087 19.187-96.124 30.623-11.058 7.886-14.292 22.68-7.524 34.413l12.528 21.718c-22.031 16.352-36.336 42.553-36.336 72.035v23.315 48.171c0 18.883 12.814 35.188 31.162 39.652z"/><path d="m235.119 191.08c0-4.142-3.358-7.5-7.5-7.5h-6.286c-4.142 0-7.5 3.358-7.5 7.5s3.358 7.5 7.5 7.5h6.286c4.142 0 7.5-3.358 7.5-7.5z"/><path d="m284.381 198.58h6.285c4.142 0 7.5-3.358 7.5-7.5s-3.358-7.5-7.5-7.5h-6.285c-4.142 0-7.5 3.358-7.5 7.5s3.358 7.5 7.5 7.5z"/><path d="m256 68.149c4.142 0 7.5-3.358 7.5-7.5v-4.902h4.902c4.142 0 7.5-3.358 7.5-7.5s-3.358-7.5-7.5-7.5h-4.902v-4.902c0-4.142-3.358-7.5-7.5-7.5s-7.5 3.358-7.5 7.5v4.902h-4.902c-4.142 0-7.5 3.358-7.5 7.5s3.358 7.5 7.5 7.5h4.902v4.902c0 4.142 3.358 7.5 7.5 7.5z"/><path d="m263.5 408.128c0-4.142-3.358-7.5-7.5-7.5s-7.5 3.358-7.5 7.5v5.194c0 4.142 3.358 7.5 7.5 7.5s7.5-3.358 7.5-7.5z"/><path d="m263.5 439.37c0-4.142-3.358-7.5-7.5-7.5s-7.5 3.358-7.5 7.5v5.194c0 4.142 3.358 7.5 7.5 7.5s7.5-3.358 7.5-7.5z"/><path d="m256 464.627c-4.142 0-7.5 3.358-7.5 7.5v5.194c0 4.142 3.358 7.5 7.5 7.5s7.5-3.358 7.5-7.5v-5.194c0-4.142-3.358-7.5-7.5-7.5z"/><path d="m277.235 249.918 1.835-.994c3.643-1.973 4.996-6.524 3.023-10.167s-6.525-4.996-10.167-3.023l-1.835.994c-8.823 4.778-19.358 4.778-28.183 0l-1.835-.994c-3.644-1.974-8.194-.62-10.167 3.023-1.973 3.642-.62 8.194 3.023 10.167l1.835.995c6.648 3.6 13.942 5.4 21.235 5.4 7.294 0 14.588-1.8 21.236-5.401z"/></g></g></g></svg>