<svg id="Capa_1" enable-background="new 0 0 511.989 511.989" height="512" viewBox="0 0 511.989 511.989" width="512" xmlns="http://www.w3.org/2000/svg"><g><g><path d="m452.906 174.596-161.69-112.845-186.976 133.424c-6.438 4.594-10.33 12.042-10.33 20.062v289.253h364.971v-317.633z" fill="#6e60b8"/><path d="m95.729 215.746c0-7.946 3.857-15.326 10.235-19.878l186.615-133.166-36.331-25.356-195.842 139.75-6.792 9.76v317.633h42.115z" fill="#6353b2"/><g><path d="m340.823 398.579h-2.529c-14.851 41.822-54.812 71.854-101.663 71.854-59.466 0-107.846-48.38-107.846-107.846 0-48.315 31.936-89.312 75.807-102.989l1.314-3.554v-30.25l-.333-.371v3.669c-53.529 20.71-91.594 72.729-91.594 133.479 0 72.694 54.506 132.883 124.792 141.882 51.446-.766 96.346-29.031 120.607-70.734v-4.092z" fill="#dbedff"/><g><path d="m115.052 362.586c0-60.259 37.758-111.858 90.854-132.401v-4.392l-1.314-1.463c-62.866 14.564-109.864 71.024-109.864 138.256 0 78.246 63.658 141.903 141.903 141.903 3.419 0 6.808-.128 10.167-.367-73.522-5.225-131.746-66.705-131.746-141.536z" fill="#b5dcff"/></g><circle cx="221.441" cy="164.535" fill="#60b9fe" r="25.936"/><path d="m221.441 164.535c0-9.598 5.218-17.973 12.968-22.458-3.816-2.208-8.242-3.479-12.968-3.479-14.324 0-25.936 11.612-25.936 25.936s11.612 25.936 25.936 25.936c4.726 0 9.152-1.27 12.968-3.478-7.75-4.485-12.968-12.859-12.968-22.457z" fill="#1ca8ff"/><path d="m329.219 379.11 58.188 88.684 13.796 1.442c7.685-4.96 10.114-15.147 5.373-23.049l-55.72-92.866c-3.077-5.129-8.62-8.267-14.601-8.267h-97.605v-46.744l-4.118-3.891h-12.285v67.178c0 8.707 6.242 15.946 14.492 17.513h87.622z" fill="#1ca8ff"/><path d="m223.056 362.082v-67.663h-5.212l-11.625-13.137h-1.626v80.8c0 9.405 7.624 17.029 17.029 17.029h18.463c-9.405-.001-17.029-7.625-17.029-17.029z" fill="#0094fd"/><path d="m395.835 463.709-49.601-82.668c-.719-1.198-2.014-1.931-3.411-1.931h-18.463c1.397 0 2.692.733 3.411 1.931l49.601 82.668c4.839 8.064 15.298 10.679 23.363 5.841.163-.098.309-.211.468-.314-2.122-1.369-3.981-3.215-5.368-5.527z" fill="#0094fd"/><path d="m340.632 264.253h-101.983v-48.679c0-6.227-3.354-11.658-8.342-14.627-4.386 3.141-7.251 8.268-7.251 14.073v66.814c0 7.706 5.038 14.229 11.997 16.475h105.58c9.404 0 17.028-7.624 17.028-17.028s-7.624-17.028-17.029-17.028z" fill="#60b9fe"/><path d="m223.343 281.282v-65.707c0-5.939 3.044-11.162 7.654-14.209-2.69-1.778-5.909-2.82-9.375-2.82-9.405 0-17.029 7.624-17.029 17.029v65.707c0 9.404 7.624 17.028 17.029 17.028h18.75c-9.405 0-17.029-7.624-17.029-17.028z" fill="#1ca8ff"/></g><g><path d="m484.245 511.989h-455.996c-4.142 0-7.5-3.358-7.5-7.5s3.358-7.5 7.5-7.5h455.996c4.142 0 7.5 3.358 7.5 7.5s-3.358 7.5-7.5 7.5z" fill="#8479c2"/></g><g><path d="m481.737 162.572-192.616-135.62c-3.753-.115-7.534.95-10.751 3.215l-21.058 14.827c.147.066.29.142.425.237l204.993 144.335c7.479 5.265 17.77 3.436 23-3.994 5.248-7.454 3.461-17.751-3.993-23z" fill="#ff76aa"/></g><g><path d="m257.646 45.177 20.849-14.679c3.447-2.427 7.591-3.376 11.589-2.868l-24.332-17.132c-5.7-4.014-13.307-4.014-19.007 0l-215.987 152.074c-7.454 5.249-9.242 15.546-3.993 23 5.247 7.454 15.544 9.243 23 3.994l204.994-144.335c.864-.608 2.005-.622 2.887-.054z" fill="#ff5595"/></g></g><g><path d="m458.629 313.486c4.143 0 7.5-3.358 7.5-7.5v-106.64c9.352 2.34 19.609-1.115 25.48-9.456 7.639-10.847 5.044-25.811-5.808-33.451l-215.984-152.074c-8.267-5.82-19.374-5.821-27.643 0l-215.987 152.074c-10.846 7.637-13.448 22.6-5.808 33.449 5.935 8.43 16.191 11.803 25.481 9.464v297.636h-17.863c-4.143 0-7.5 3.358-7.5 7.5s3.357 7.5 7.5 7.5h455.996c4.143 0 7.5-3.358 7.5-7.5s-3.357-7.5-7.5-7.5h-17.864v-156.002c0-4.142-3.357-7.5-7.5-7.5s-7.5 3.358-7.5 7.5v156.003h-149.789c22.799-11.061 42.746-27.853 57.569-49.053l11.779 19.632c6.958 11.597 22.054 15.372 33.651 8.413 11.625-6.975 15.389-22.026 8.414-33.653l-55.72-92.866c-4.407-7.346-12.467-11.909-21.033-11.909h-90.105v-31.743h94.482c13.525 0 24.528-11.003 24.528-24.528s-11.003-24.528-24.528-24.528h-94.482v-41.179c0-8.57-4.421-16.123-11.099-20.51 11.671-5.223 19.827-16.938 19.827-30.53 0-18.437-14.999-33.436-33.436-33.436s-33.437 15-33.437 33.436c0 13.673 8.254 25.449 20.039 30.625-6.596 4.401-10.951 11.908-10.951 20.415v2.923c-64.143 17.663-109.862 76.342-109.862 144.088 0 59.016 34.399 110.145 84.197 134.403h-110.312v-306.241l195.134-137.393 195.134 137.394v115.237c0 4.142 3.357 7.5 7.5 7.5zm-220.232 39.067h97.605c3.327 0 6.458 1.772 8.17 4.626l55.72 92.866h.001c2.709 4.517 1.248 10.363-3.269 13.073-4.507 2.704-10.369 1.236-13.072-3.269-31.306-52.177-48.302-80.502-50.76-84.599-1.355-2.259-3.797-3.641-6.432-3.641h-104.991c-5.254 0-9.528-4.274-9.528-9.529v-58.198c3.031 1.283 6.246 1.926 9.528 1.926h9.528v39.243c0 4.144 3.358 7.502 7.5 7.502zm101.983-80.8c5.254 0 9.528 4.274 9.528 9.528s-4.274 9.528-9.528 9.528c-24.781 0-93.19 0-119.011 0-5.254 0-9.528-4.274-9.528-9.528 0-15.949 0-49.842 0-65.707 0-5.254 4.274-9.528 9.528-9.528s9.528 4.274 9.528 9.528v48.679c0 4.142 3.357 7.5 7.5 7.5zm-119.191-125.654c10.165 0 18.436 8.271 18.436 18.436s-8.271 18.436-18.436 18.436c-10.166 0-18.437-8.271-18.437-18.436s8.271-18.436 18.437-18.436zm-119.213 216.487c0-58.717 39.365-111.283 94.864-128.465v20.104c-43.932 16.13-75.808 58.301-75.808 108.361 0 56.441 41.197 104.904 96.965 113.875 4.094.656 7.938-2.124 8.596-6.213.658-4.09-2.123-7.938-6.213-8.596-48.086-7.736-84.348-50.325-84.348-99.065 0-40.671 24.052-76.531 60.808-92.224v91.719c0 13.525 11.003 24.529 24.528 24.529h100.745l7.635 12.725c-12.907 32.715-42.032 56.416-76.794 62.219-4.086.682-6.846 4.546-6.163 8.632.682 4.085 4.548 6.842 8.632 6.163 36.278-6.055 67.215-29.059 83.708-61.376 3.115 5.191 5.569 9.282 11.241 18.734-24.521 39.146-67.797 63.282-113.993 63.282-74.11-.001-134.403-60.294-134.403-134.404zm-69.332-181.333c-2.866-4.07-1.891-9.683 2.179-12.549l215.987-152.074c3.101-2.184 7.268-2.184 10.371 0l215.984 152.074c4.071 2.866 5.046 8.478 2.179 12.55-2.858 4.061-8.487 5.037-12.551 2.178l.001.001-206.482-145.383c-2.59-1.824-6.047-1.823-8.635 0l-206.482 145.383c-4.061 2.859-9.677 1.902-12.551-2.18z"/></g></g></svg>