<svg id="Capa_1" enable-background="new 0 0 512.002 512.002" height="512" viewBox="0 0 512.002 512.002" width="512" xmlns="http://www.w3.org/2000/svg"><g><g><path d="m256.001 82.05c-105.092 0-196.992 67.398-247.073 167.963-1.903 3.822-1.903 8.154 0 11.976 50.081 100.565 141.98 167.963 247.073 167.963s196.992-67.397 247.072-167.963c1.903-3.822 1.903-8.154 0-11.976-50.08-100.565-141.98-167.963-247.072-167.963z" fill="#f47c7c"/><path d="m503.074 250.014c-50.081-100.566-141.981-167.964-247.073-167.964-5.032 0-10.032.157-15 .463 98.795 6.07 184.389 71.75 232.072 167.501 1.903 3.822 1.903 8.154 0 11.976-47.683 95.751-133.277 161.43-232.072 167.5 4.968.305 9.969.462 15 .462 105.092 0 196.992-67.397 247.072-167.963 1.904-3.822 1.904-8.153.001-11.975z" fill="#ee6161"/><path d="m428.951 256.006c0 96.07-76.88 172.951-172.951 172.951-4.695 0-9.346.814-13.948.449-89.549-7.104-160.003-82.024-160.003-173.4 0-91.335 70.392-166.229 159.885-173.39 4.64-.371 9.331.439 14.066.439 96.07 0 172.951 76.88 172.951 172.951z" fill="#f6f6f6"/><path d="m361.33 256.006c0 58.725-46.606 105.33-105.33 105.33-4.811 0-9.546.68-14.188.062-52.017-6.936-92.143-51.478-92.143-105.392 0-53.983 40.229-98.571 92.344-105.419 4.577-.601 9.246.088 13.987.088 58.725.001 105.33 46.606 105.33 105.331z" fill="#8aaadc"/><path d="m303.777 256.006c0 26.939-20.838 47.777-47.777 47.777-5.229 0-10.267.177-14.989-1.346-19.605-6.324-33.788-24.721-33.788-46.431 0-21.707 14.18-40.103 33.782-46.429 4.724-1.525 9.763-1.348 14.995-1.348 26.939 0 47.777 20.838 47.777 47.777z" fill="#7a6d79"/><path d="m429.95 256.008c0 96.07-77.88 173.95-173.95 173.95-5.05 0-10.06-.22-15-.64 89.05-7.6 158.95-82.29 158.95-173.31s-69.9-165.71-158.95-173.31c4.94-.42 9.95-.64 15-.64 96.07 0 173.95 77.88 173.95 173.95z" fill="#e1e1e1"/><path d="m362.33 256.008c0 58.72-47.61 106.33-106.33 106.33-5.09 0-10.1-.36-15-1.06 51.62-7.28 91.33-51.64 91.33-105.27 0-53.64-39.71-97.99-91.33-105.27 4.9-.7 9.91-1.06 15-1.06 58.72 0 106.33 47.6 106.33 106.33z" fill="#7398d4"/><path d="m304.78 256.008c0 26.94-21.84 48.78-48.78 48.78-5.23 0-10.27-.82-15-2.35 19.6-6.33 33.78-24.72 33.78-46.43s-14.18-40.1-33.78-46.43c4.73-1.53 9.77-2.35 15-2.35 26.94 0 48.78 21.84 48.78 48.78z" fill="#685e68"/></g><g><path d="m354.47 247.48c.352 4.126 3.974 7.188 8.11 6.835 4.127-.352 7.188-3.982 6.836-8.11-2.413-28.304-15.281-54.542-36.232-73.878-21.075-19.451-48.486-30.163-77.183-30.163-62.766 0-113.83 51.064-113.83 113.83 0 62.767 51.064 113.831 113.83 113.831 25.983 0 51.395-8.985 71.557-25.299 19.863-16.074 33.885-38.577 39.481-63.365.912-4.04-1.624-8.055-5.665-8.967-4.042-.912-8.055 1.624-8.967 5.665-4.856 21.511-17.032 41.046-34.285 55.007-17.499 14.161-39.561 21.96-62.121 21.96-54.495 0-98.83-44.336-98.83-98.831s44.335-98.83 98.83-98.83c24.915 0 48.713 9.299 67.009 26.186 18.193 16.791 29.366 39.566 31.46 64.129z"/><path d="m199.721 256.007c0 31.033 25.247 56.28 56.28 56.28s56.28-25.247 56.28-56.28-25.247-56.28-56.28-56.28-56.28 25.248-56.28 56.28zm97.56 0c0 22.762-18.518 41.28-41.28 41.28s-41.28-18.518-41.28-41.28 18.518-41.28 41.28-41.28c22.762.001 41.28 18.519 41.28 41.28z"/><path d="m509.787 246.67c-25.579-51.366-62.006-94.421-105.343-124.511-44.857-31.146-96.188-47.609-148.443-47.609s-103.586 16.463-148.443 47.609c-43.336 30.09-79.763 73.145-105.343 124.51-2.954 5.931-2.954 12.733 0 18.663 7.911 15.887 16.96 31.159 26.896 45.392 2.371 3.397 7.047 4.227 10.443 1.857 3.396-2.371 4.228-7.046 1.857-10.443-9.515-13.63-18.185-28.263-25.769-43.493-.85-1.705-.85-3.582 0-5.288 24.458-49.114 59.201-90.221 100.471-118.876 4.486-3.115 9.044-6.065 13.66-8.866-9.774 9.485-18.579 20.143-26.182 31.883-2.251 3.477-1.258 8.121 2.219 10.372s8.12 1.258 10.372-2.219c30.858-47.651 83.127-76.1 139.819-76.1 91.781 0 166.451 74.669 166.451 166.451 0 91.781-74.669 166.45-166.451 166.45-.096 0-.191-.003-.286-.004-1.433-.002-2.861-.034-4.291-.062-89.673-2.434-161.874-76.135-161.874-166.385 0-21.512 4.042-42.443 12.014-62.212 1.549-3.841-.31-8.212-4.151-9.761-3.843-1.551-8.212.31-9.76 4.151-8.694 21.561-13.102 44.379-13.102 67.822 0 51.351 21.447 97.784 55.848 130.824-25.237-15.244-48.65-35.166-69.435-59.42-2.696-3.146-7.431-3.51-10.575-.814-3.145 2.695-3.51 7.43-.814 10.575 54.236 63.287 125.609 98.727 201.454 100.214 1.553.042 3.11.064 4.673.067.101 0 .201.004.301.004 52.255 0 103.586-16.463 148.443-47.609 43.336-30.09 79.763-73.145 105.343-124.51 2.952-5.929 2.952-12.732-.002-18.662zm-13.427 11.976c-24.458 49.114-59.201 90.221-100.471 118.876-4.637 3.219-9.35 6.262-14.125 9.147 34.306-33.031 55.687-79.397 55.687-130.668s-21.381-97.637-55.687-130.668c4.775 2.885 9.488 5.928 14.125 9.147 41.27 28.655 76.012 69.762 100.471 118.877.85 1.706.85 3.583 0 5.289z"/></g></g></svg>