<svg id="Capa_1" enable-background="new 0 0 512 512" height="512" viewBox="0 0 512 512" width="512" xmlns="http://www.w3.org/2000/svg"><g><g><g><path d="m392.04 73.993h-272.08c-16.569 0-30 13.432-30 30v370.507c0 16.569 13.431 30 30 30h272.08c16.568 0 30-13.431 30-30v-370.507c0-16.568-13.431-30-30-30zm-67.68 76.733c0 6.627-5.373 12-12 12h-112.72c-6.627 0-12-5.373-12-12v-27.84c0-6.627 5.373-12 12-12h112.72c6.627 0 12 5.373 12 12z" fill="#42c3fc"/></g><g><path d="m194.72 111.949c1.503-.677 3.165-1.063 4.92-1.063h112.72c1.755 0 3.418.386 4.92 1.063v-37.956h-122.56z" fill="#1aa9e8"/></g><g><path d="m116.56 474.5v-370.507c0-16.569 13.431-30 30-30h-26.6c-16.569 0-30 13.431-30 30v370.507c0 16.569 13.431 30 30 30h26.6c-16.568 0-30-13.431-30-30z" fill="#1aa9e8"/></g><g><circle cx="256" cy="276.137" fill="#1c8ae5" r="76.623"/></g><g><path d="m199.897 276.137c0-38.836 28.9-70.902 66.363-75.919-3.358-.45-6.779-.704-10.26-.704-42.318 0-76.623 34.305-76.623 76.623s34.305 76.623 76.623 76.623c3.481 0 6.902-.254 10.26-.704-37.463-5.017-66.363-37.083-66.363-75.919z" fill="#1e6ee2"/></g><g><circle cx="256" cy="250.92" fill="#deecf1" r="21.36"/></g><g><path d="m270.72 298.68h-29.44c-11.2 0-20.28 9.08-20.28 20.28v25.332c10.494 5.4 22.385 8.468 35 8.468s24.506-3.068 35-8.468v-25.332c0-11.2-9.079-20.28-20.28-20.28z" fill="#deecf1"/></g><g><path d="m340.962 427.44h-169.924c-5.523 0-10-4.477-10-10v-18.16c0-5.523 4.477-10 10-10h169.924c5.523 0 10 4.477 10 10v18.16c0 5.523-4.477 10-10 10z" fill="#1c8ae5"/></g><g><path d="m282.28 132.48h-52.56c-5.523 0-10-4.477-10-10v-104.98c0-5.523 4.477-10 10-10h52.56c5.523 0 10 4.477 10 10v104.98c0 5.523-4.477 10-10 10z" fill="#ffdd40"/></g><g><path d="m239.84 122.48v-104.98c0-5.523 4.477-10 10-10h-20.12c-5.523 0-10 4.477-10 10v104.98c0 5.523 4.477 10 10 10h20.12c-5.523 0-10-4.477-10-10z" fill="#ffc043"/></g></g><g><path d="m89.96 368.38c4.143 0 7.5-3.358 7.5-7.5v-256.887c0-12.407 10.094-22.5 22.5-22.5h72.639c4.143 0 7.5-3.358 7.5-7.5s-3.357-7.5-7.5-7.5h-72.639c-20.678 0-37.5 16.822-37.5 37.5v256.887c0 4.142 3.357 7.5 7.5 7.5z"/><path d="m199.641 103.386c-10.752 0-19.5 8.748-19.5 19.5v27.84c0 10.752 8.748 19.5 19.5 19.5h112.72c10.752 0 19.5-8.748 19.5-19.5v-27.84c0-10.752-8.748-19.5-19.5-19.5h-12.58v-85.886c0-9.649-7.851-17.5-17.5-17.5h-52.56c-9.649 0-17.5 7.851-17.5 17.5v85.886zm100.139 19.094v-4.094h12.58c2.481 0 4.5 2.019 4.5 4.5v27.84c0 2.481-2.019 4.5-4.5 4.5h-112.72c-2.481 0-4.5-2.019-4.5-4.5v-27.84c0-2.481 2.019-4.5 4.5-4.5h12.58v4.094c0 9.649 7.851 17.5 17.5 17.5h52.56c9.65 0 17.5-7.851 17.5-17.5zm-72.559-104.98c0-1.378 1.121-2.5 2.5-2.5h52.56c1.379 0 2.5 1.122 2.5 2.5v104.98c0 1.378-1.121 2.5-2.5 2.5h-52.56c-1.379 0-2.5-1.122-2.5-2.5z"/><path d="m422.04 215.312c-4.143 0-7.5 3.358-7.5 7.5v251.688c0 12.407-10.094 22.5-22.5 22.5h-272.08c-12.406 0-22.5-10.093-22.5-22.5v-80.9c0-4.142-3.357-7.5-7.5-7.5s-7.5 3.358-7.5 7.5v80.9c0 20.678 16.822 37.5 37.5 37.5h272.08c20.678 0 37.5-16.822 37.5-37.5v-251.688c0-4.142-3.357-7.5-7.5-7.5z"/><path d="m392.04 66.493h-72.399c-4.143 0-7.5 3.358-7.5 7.5s3.357 7.5 7.5 7.5h72.399c12.406 0 22.5 10.093 22.5 22.5v87.327c0 4.142 3.357 7.5 7.5 7.5s7.5-3.358 7.5-7.5v-87.327c0-20.678-16.822-37.5-37.5-37.5z"/><path d="m256 192.014c-46.386 0-84.123 37.737-84.123 84.123 0 46.385 37.737 84.123 84.123 84.123s84.123-37.737 84.123-84.123-37.737-84.123-84.123-84.123zm-27.5 147.524v-20.578c0-7.047 5.733-12.78 12.78-12.78h29.44c7.047 0 12.779 5.733 12.779 12.78v20.578c-8.434 3.672-17.73 5.721-27.5 5.721-9.769.001-19.065-2.048-27.499-5.721zm70-8.947v-11.631c0-15.318-12.462-27.78-27.779-27.78h-29.44c-15.318 0-27.78 12.462-27.78 27.78v11.631c-16.188-12.662-26.623-32.356-26.623-54.453 0-38.115 31.009-69.123 69.123-69.123s69.123 31.008 69.123 69.123c-.001 22.097-10.436 41.79-26.624 54.453z"/><path d="m256 222.06c-15.913 0-28.859 12.946-28.859 28.86s12.946 28.86 28.859 28.86c15.914 0 28.86-12.946 28.86-28.86s-12.946-28.86-28.86-28.86zm0 42.72c-7.643 0-13.859-6.217-13.859-13.86s6.217-13.86 13.859-13.86 13.86 6.217 13.86 13.86-6.217 13.86-13.86 13.86z"/><path d="m358.462 399.28c0-9.649-7.851-17.5-17.5-17.5h-169.924c-9.649 0-17.5 7.851-17.5 17.5v18.16c0 9.649 7.851 17.5 17.5 17.5h169.924c9.649 0 17.5-7.851 17.5-17.5zm-15 18.16c0 1.378-1.121 2.5-2.5 2.5h-169.924c-1.379 0-2.5-1.122-2.5-2.5v-18.16c0-1.378 1.121-2.5 2.5-2.5h169.924c1.379 0 2.5 1.122 2.5 2.5z"/><path d="m161.038 452.34c-4.143 0-7.5 3.358-7.5 7.5s3.357 7.5 7.5 7.5h91.322c4.143 0 7.5-3.358 7.5-7.5s-3.357-7.5-7.5-7.5z"/><path d="m283.801 452.34c-4.143 0-7.5 3.358-7.5 7.5s3.357 7.5 7.5 7.5h11.76c4.143 0 7.5-3.358 7.5-7.5s-3.357-7.5-7.5-7.5z"/><path d="m325.32 452.34c-4.143 0-7.5 3.358-7.5 7.5s3.357 7.5 7.5 7.5h25.642c4.143 0 7.5-3.358 7.5-7.5s-3.357-7.5-7.5-7.5z"/></g></g></svg>