<svg id="Capa_1" enable-background="new 0 0 512.002 512.002" height="512" viewBox="0 0 512.002 512.002" width="512" xmlns="http://www.w3.org/2000/svg"><g><g><path d="m475.359 504.5c4.418 0 8-3.582 8-8v-66.29c0-42.16-22.36-81.06-58.57-102.31l-6.809-2.985-317.089.434-6.726 3.964c-36.21 21.25-58.57 60.15-58.57 102.31l-5.163 62.937c0 4.418 3.582 8 8 8l5.209 1.94h98.41l111.978-14.839 115.92 14.839z" fill="#ffe07d"/><path d="m369.949 504.5c39.734-63.242 52.316-112.537 53.78-175.431.189-8.108-4.05-15.676-11.094-19.694l-34.685-19.783-12.178-1.455-10.473-11.052-199.404.979-8.215 8.065-45.083 23.697c-7.044 4.018-11.283 11.587-11.094 19.694.123 5.263-2.91 9.981-2.622 15.07 3.15 55.722 16.761 101.961 53.17 159.91h76.584l37.365-7.243 37.365 7.243z" fill="#c38c66"/><path d="m88.881 344.59c-28.07 19.17-45.24 51.36-45.24 85.62v74.29h-7c-4.42 0-8-3.58-8-8v-66.29c0-42.16 22.36-81.06 58.57-102.31l1.09-.64 3.296 2.591z" fill="#ffd064"/><path d="m367.481 283.62-12.18-6.53-164.874.802.004-.002-34.54.17-11.37 5.56-45.16 25.75c-6.51 3.72-10.63 10.48-11.06 17.89-.03.6-.04 1.2-.03 1.81.12 5.26.32 10.43.61 15.52 1.92-1.31 3.9-2.56 5.92-3.75l3.424-2.019c2.873-1.694 4.711-4.709 4.903-8.038l.153-2.653c.09-1.56.68-3.01 1.64-4.16.52-.62 1.16-1.16 1.88-1.57l33.271-18.97c2.269-1.294 5.099-.954 7.032.803 6.341 5.765 13.469 10.667 21.127 14.487 8.667 4.394 19.255 7.554 29.737 8.975 1.234.167 2.333.872 2.948 1.955 8.772 15.443 29.908 25.78 55.085 25.78 25.135 0 46.249-10.306 55.04-25.708.618-1.083 1.721-1.786 2.958-1.951 24.504-3.266 47.773-16.577 62.513-36.211.49-.65.98-1.31 1.44-1.97z" fill="#b57f5f"/><path d="m337.719 300.021c0 5.382-3.565 9.819-3.654 14.869-.034 1.946 3.398 6.54 3.398 6.54-2.157 86.527-17.861 125.144-44.098 183.07h-29.864l-7.986-3.445-7.014 3.445h-29.866c-26.223-57.894-41.924-96.501-44.094-182.93 0 0 4.628-3.719 4.598-5.31-.103-5.417-4.858-10.436-4.858-16.239z" fill="#f8f7f7"/><path d="m337.721 300.02c0 7.46-.09 14.58-.26 21.41-7.52 3.12-15.42 5.27-23.46 6.34-1.24.17-2.34.87-2.96 1.95-8.79 15.4-29.9 25.71-55.04 25.71-25.18 0-46.31-10.34-55.08-25.78-.62-1.08-1.72-1.79-2.95-1.96-8.06-1.09-16.17-3.21-23.43-6.12-.17-6.87-.26-14.04-.26-21.55z" fill="#e8e8e8"/><path d="m175.658 58.962c0-14.551-11.781-26.346-26.313-26.346-11.391 0-21.087 7.25-24.748 17.391-.389 1.077-1.568 1.61-2.635 1.194-.013-.005-.026-.01-.04-.015 0 0-6.818-.687-10.511-.295-10.368 1.099-17.373 9.961-18.343 20.342-.143 1.534-.13 3.039.026 4.502.119 1.119-.663 2.119-1.782 2.238-13.191 1.412-22.459 11.205-22.459 24.771 0 8.98 4.629 16.236 11.499 20.979.834.576 1.095 1.685.611 2.576-2.354 4.343-4.538 9.415-4.294 14.757.693 15.154 12.098 26.31 27.268 26.298 4.03-.003 11.412.663 11.412.663 9.592-.947 16.237-4.223 16.237-15.516 0-.896-.017-12.98-.023-17.772-.001-1.054.817-1.931 1.869-1.992 16.455-.952 29.024-14.404 29.024-32.11 0-5.364-1.156-10.455-3.222-15.048-.451-1.003-.004-2.171.997-2.627 9.1-4.146 15.427-13.328 15.427-23.99z" fill="#e8e8e8"/><path d="m115.366 168.016c-3.44.34-7.275.384-11.305.384-15.17.01-28.1-11.7-28.79-26.86-.25-5.34 1-10.37 3.35-14.71.49-.89.23-2-.61-2.58-6.87-4.74-11.37-12.67-11.37-21.65 0-13.56 10.27-24.72 23.47-26.13 1.11-.12 1.9-1.12 1.78-2.24-.16-1.46-.17-2.97-.03-4.5.97-10.38 9.29-18.81 19.66-19.91 3.69-.39 7.222.135 10.402 1.365-7.64 2.97-13.272 10.115-14.062 18.545-.14 1.53-.13 3.04.03 4.5.12 1.12-.67 2.12-1.78 2.24-13.2 1.41-23.47 12.57-23.47 26.13 0 8.98 4.5 16.91 11.37 21.65.84.58 1.1 1.69.61 2.58-2.35 4.34-3.6 9.37-3.35 14.71.62 13.56 11.045 24.356 24.095 26.476z" fill="#d8d8d8"/><path d="m339.322 59.807c0-12.309 16.847-26.385 16.847-26.385 2.075-.527 4.249-.807 6.488-.807 11.391 0 21.087 7.25 24.748 17.391.389 1.077 1.568 1.61 2.635 1.194 3.188-1.243 6.732-1.773 10.441-1.38 10.368 1.099 18.69 9.526 19.659 19.907.143 1.534.13 3.039-.026 4.502-.119 1.119.663 2.119 1.782 2.238 13.191 1.412 23.465 12.571 23.465 26.137 0 8.98-4.504 16.904-11.373 21.648-.834.576-1.095 1.685-.611 2.576 2.354 4.343 3.604 9.371 3.359 14.712-.292 6.391-2.76 12.171-6.655 16.717 0 0-13.701 8.345-22.474 8.339-15.263-.012-24.419-.093-24.419-15.438 0-.896.017-12.98.023-17.772.001-1.054-.817-1.931-1.869-1.992-16.455-.952-28.639-13.584-28.639-31.289 0-5.364 1.156-10.455 3.222-15.048.451-1.003.004-2.171-.997-2.627-9.099-4.145-15.606-11.96-15.606-22.623z" fill="#e8e8e8"/><path d="m430.08 158.258c-5.33 6.24-13.359 10.152-22.139 10.142-15.26-.01-27.53-.55-27.53-15.9 0-.9.02-12.98.03-17.77 0-1.06-.82-1.93-1.87-1.99-16.46-.96-29.03-14.41-29.03-32.11 0-5.37 1.16-10.46 3.23-15.05.45-1 0-2.17-1-2.63-9.1-4.14-15.43-13.33-15.43-23.99 0-12.31 8.428-22.647 19.828-25.537-3.65 4.52-5.828 10.267-5.828 16.537 0 10.66 6.33 19.85 15.43 23.99 1 .46 1.45 1.63 1 2.63-2.07 4.59-3.23 9.68-3.23 15.05 0 17.7 12.57 31.15 29.03 32.11 1.05.06 1.87.93 1.87 1.99-.01 4.79-.03 16.87-.03 17.77 0 15.35 12.27 15.89 27.53 15.9 2.81 0 5.549-.392 8.139-1.142z" fill="#d8d8d8"/><path d="m384.746 157.447h16.672c14.228 0 24.325 13.867 19.957 27.408l-4.777 14.809c-3.804 11.791-14.779 19.783-27.168 19.783h-6.213l-253.529.053h-6.213c-12.39 0-23.365-7.992-27.168-19.783l-4.777-14.809c-4.368-13.541 5.73-27.408 19.957-27.408h16.508z" fill="#f2bb88"/><path d="m380.537 141.926v93.304c0 8.53-1.4 16.95-4.08 24.94-2.68 7.98-6.66 15.53-11.81 22.33-14.075 18.76-37.453 30.783-61.426 31.04-1.441.016-2.668 1.076-2.887 2.5-2.099 13.682-21.105 24.39-44.238 24.39-23.145 0-42.153-10.718-44.24-24.404-.217-1.425-1.443-2.473-2.884-2.498-10.929-.191-23.772-3.058-33.906-8.208-10.67-5.31-20.13-13.06-27.52-22.82-10.31-13.6-15.89-30.2-15.89-47.27v-94.848c0-14.577 23.483-13.029 28.048-26.099 2.176-6.228-1.603-22.527.527-31.331 1.965-8.122 9.769-8.809 13.308-13.622 3.925-5.337-4.393-25.935-4.393-25.935 22.39-22.151 53.024-35.884 86.908-35.896 34.377-.011 65.513 13.921 88.032 36.45 4.199 4.198-5.9 8.226-4.765 18.617.736 6.737 9.438 12.557 12.449 20.383 4.087 10.624.997 27.589 3.169 32.42 6.994 15.557 25.598 8.398 25.598 26.557z" fill="#f2d1a5"/><g fill="#f8f7f7"><path d="m222.922 267.059c1.354 2.556 5.191 2.896 6.748 5.033 1.285 1.762 1.662 6.866 1.662 6.866 14.545 15.347 34.792 15.347 49.337 0 0 0 1.289-3.258 2.32-4.596 1.87-2.427 4.497-4.298 6.09-7.304l1.922-3.059-34.5-16.5-36.606 14.181z"/><ellipse cx="202.608" cy="157.447" rx="33.457" ry="38.83"/><ellipse cx="309.395" cy="157.447" rx="33.457" ry="38.83"/></g><path d="m291.001 264-1.92 3.06c-2.47 4.66-5.301 8.628-8.411 11.898-9.68-.54-17.179-3.028-22.799-5.988-1.17-.62-2.57-.62-3.74 0-5.62 2.96-13.119 5.448-22.799 5.988-3.11-3.27-5.941-7.238-8.411-11.898l-3.03-5.38 36.61-14.18z" fill="#e8e8e8"/><path d="m237.387 221.565c-11.253 0-29.205 8.617-45.355 11.426 0 0-1.155.413-2.55.561-2.231.236-3.474 2.719-2.246 4.597 12.021 18.383 26.684 25.979 41.489 25.979 12.761 0 19.482-2.515 24.834-6.957 1.094-.908 2.681-.908 3.775 0 5.352 4.443 14.906 8.128 27.667 8.128 14.805 0 27.523-7.679 39.544-26.063 1.228-1.878-2.246-4.597-2.246-4.597-1.394-.148-2.328-1.647-2.328-1.647-16.151-2.809-34.102-11.426-45.356-11.426h-37.228z" fill="#c38c66"/><path d="m326.451 238.19c-12.02 18.38-27.03 28.87-41.84 28.87-12.76 0-21.37-3.96-26.72-8.4-1.1-.91-2.68-.91-3.78 0-5.35 4.44-13.96 8.4-26.72 8.4-14.81 0-29.82-10.49-41.84-28.87-1.23-1.88.01-4.36 2.24-4.6 1.39-.15 2.81-.349 4.24-.599 10.72 12.89 23.11 20.069 35.36 20.069 12.76 0 21.37-3.96 26.72-8.4 1.1-.91 2.68-.91 3.78 0 5.35 4.44 13.96 8.4 26.72 8.4 12.25 0 24.64-7.179 35.36-20.069 1.43.25 2.85.449 4.24.599 2.23.24 3.47 2.72 2.24 4.6z" fill="#b57f5f"/></g><g><path d="m35.239 390.476c-3.983-1.137-8.133 1.173-9.269 5.156-3.203 11.238-4.828 22.871-4.828 34.578v74.29c0 4.142 3.358 7.5 7.5 7.5s7.5-3.358 7.5-7.5v-74.29c0-10.315 1.431-20.565 4.253-30.465 1.136-3.984-1.173-8.134-5.156-9.269z"/><path d="m309.396 170.703c4.142 0 7.5-3.358 7.5-7.5v-11.405c0-4.142-3.358-7.5-7.5-7.5s-7.5 3.358-7.5 7.5v11.405c0 4.142 3.357 7.5 7.5 7.5z"/><path d="m202.609 170.703c4.142 0 7.5-3.358 7.5-7.5v-11.405c0-4.142-3.358-7.5-7.5-7.5s-7.5 3.358-7.5 7.5v11.405c0 4.142 3.358 7.5 7.5 7.5z"/><path d="m182.864 226.365c-2.692 0-5.178 1.443-6.513 3.781s-1.314 5.212.054 7.531c11.466 19.426 26.194 31.977 41.471 35.708 9.253 15.667 23.003 24.584 38.126 24.584s28.873-8.917 38.126-24.584c15.277-3.731 30.006-16.281 41.471-35.708 1.369-2.318 1.389-5.193.054-7.531s-3.821-3.781-6.513-3.781c-8.537 0-18.867-3.292-28.856-6.476-4.942-1.575-9.737-3.099-14.25-4.195.223-.393.454-.775.67-1.179 1.95-3.654.569-8.197-3.086-10.147-3.654-1.951-8.197-.568-10.147 3.086-4.394 8.233-10.761 12.956-17.468 12.956-6.708 0-13.074-4.723-17.468-12.956-1.951-3.655-6.496-5.037-10.147-3.086-3.655 1.95-5.036 6.493-3.086 10.147.216.404.447.786.67 1.179-4.514 1.096-9.309 2.62-14.251 4.195-9.991 3.184-20.32 6.476-28.857 6.476zm73.138 56.604c-6.927 0-13.564-3.232-19.16-9.116 8.527-1.322 14.797-4.306 19.16-7.263 4.363 2.957 10.634 5.941 19.16 7.263-5.596 5.884-12.233 9.116-19.16 9.116zm-18.614-53.904c.02 0 .04-.003.06-.003 5.529 4.117 11.859 6.347 18.555 6.347s13.025-2.23 18.555-6.347c.02 0 .039.003.059.003 5.06 0 12.857 2.485 21.113 5.116 6.448 2.055 13.42 4.277 20.347 5.697-9.72 12.632-20.836 19.68-31.46 19.68-13.353 0-20.346-4.971-23.326-7.935-2.925-2.909-7.651-2.909-10.576 0-2.98 2.963-9.974 7.935-23.326 7.935-10.624 0-21.74-7.048-31.46-19.68 6.926-1.42 13.898-3.642 20.347-5.697 8.254-2.631 16.052-5.116 21.112-5.116z"/><path d="m201.378 90.783c.788 3.483 3.881 5.848 7.309 5.847 29.759-6.512 62.533-7.367 92.971-.186 4.039.913 8.056-1.621 8.969-5.662.914-4.04-1.621-8.056-5.662-8.969-32.495-7.347-65.442-7.346-97.926 0-4.04.915-6.575 4.93-5.661 8.97z"/><path d="m225.429 67.605c19.441-3.088 41.991-2.938 62.283.086 3.645 0 6.841-2.661 7.406-6.375.622-4.095-2.193-7.919-6.289-8.542-21.782-3.309-43.87-3.309-65.653 0-4.095.622-6.911 4.446-6.289 8.542s4.441 6.905 8.542 6.289z"/><path d="m430.641 322.684c-1.664-8.276-6.791-15.548-14.289-19.824l-40.789-23.264c1.434-2.372 2.76-4.807 3.956-7.3 1.792-3.734.216-8.214-3.519-10.005-3.734-1.792-8.214-.216-10.005 3.519-2.052 4.278-4.549 8.37-7.44 12.188-11.945 15.92-30.856 26.177-50.624 27.81v-3.446c0-4.142-3.358-7.5-7.5-7.5s-7.5 3.358-7.5 7.5v11.157c0 9.18-15.166 19.408-36.929 19.408s-36.929-10.228-36.929-19.408v-11.157c0-4.142-3.358-7.5-7.5-7.5s-7.5 3.358-7.5 7.5v3.376c-8.92-.833-18.424-3.405-25.758-7.133-9.72-4.837-18.325-11.972-24.885-20.636-9.265-12.221-14.367-27.399-14.367-42.739v-70.23h22.519c3.235 21.92 20.397 38.702 41.028 38.702 22.533 0 40.924-20.019 41.554-44.889 8.183-6.559 15.501-6.558 23.679.007.633 24.866 19.023 44.882 41.554 44.882 20.631 0 37.792-16.782 41.028-38.702h22.519v70.23c0 4.142 3.358 7.5 7.5 7.5s7.5-3.358 7.5-7.5v-8.283c15.522.745 30.955-9.672 35.794-24.98l4.777-14.81c1.869-5.792 1.841-11.814.049-17.383 9.627-6.552 15.704-17.629 15.704-29.551 0-4.381-.802-8.692-2.35-12.737 6.873-6.338 10.945-15.376 10.945-24.882 0-15.784-10.579-28.927-25.186-32.699-1.009-15.45-13.9-27.712-29.601-27.712-1.924 0-3.846.19-5.732.562-5.825-10.674-17.137-17.64-29.686-17.64-7.688 0-14.781 2.586-20.466 6.928-23.962-20.703-54.341-32.043-86.19-32.043-8.947 0-17.89.902-26.583 2.681-4.058.83-6.675 4.793-5.844 8.851.831 4.059 4.794 6.676 8.851 5.844 7.705-1.577 15.637-2.376 23.576-2.376 28.306 0 55.301 10.107 76.565 28.554-2.373 4.625-3.722 9.86-3.722 15.407 0 11.528 5.909 22.133 15.271 28.302-1.364 4.311-2.07 8.833-2.07 13.364 0 19.583 13.074 35.43 30.896 38.938v10.435h-22.519c-3.235-21.92-20.397-38.702-41.028-38.702-18.185 0-33.669 13.041-39.304 31.143-9.293-4.789-18.884-4.79-28.18-.003-5.635-18.101-21.119-31.14-39.303-31.14-20.631 0-37.792 16.782-41.028 38.702h-22.519v-10.435c17.822-3.508 30.896-19.355 30.896-38.938 0-4.531-.707-9.053-2.07-13.364 9.362-6.168 15.271-16.773 15.271-28.302 0-5.543-1.347-10.774-3.716-15.396 6.531-5.663 13.65-10.598 21.253-14.687 3.648-1.962 5.015-6.51 3.053-10.158s-6.511-5.014-10.158-3.053c-8.497 4.57-16.458 10.076-23.766 16.387-5.688-4.348-12.785-6.938-20.478-6.938-12.549 0-23.861 6.966-29.686 17.64-1.886-.372-3.809-.562-5.732-.562-15.701 0-28.592 12.262-29.601 27.712-14.606 3.772-25.186 16.916-25.186 32.699 0 9.506 4.073 18.544 10.945 24.882-1.547 4.044-2.35 8.355-2.35 12.737 0 12.333 6.312 23.57 16.465 30.051-1.651 5.443-1.628 11.298.191 16.936l4.777 14.81c4.563 14.607 19.136 25.255 34.893 24.98v8.23c0 15.593 4.365 31.041 12.392 44.358l-40.803 23.271c-7.496 4.275-12.623 11.544-14.288 19.818-16.01 9.818-29.813 23.268-40.01 39.043-2.249 3.479-1.251 8.121 2.227 10.37 1.259.813 2.67 1.202 4.065 1.202 2.46 0 4.871-1.209 6.306-3.43 7.234-11.191 16.532-21.053 27.242-28.989 3.026 62.784 18.756 110.71 54.509 167.616 1.425 2.268 3.863 3.511 6.358 3.511 1.363 0 2.743-.372 3.983-1.15 3.507-2.204 4.564-6.833 2.36-10.341-36.82-58.603-51.085-105.115-52.633-171.615-.125-5.378 2.677-10.361 7.312-13.005l42.277-24.113c6.137 6.99 13.415 12.984 21.425 17.641.124 102.559 16.966 136.371 45.02 198.176 1.254 2.77 3.982 4.408 6.836 4.408 1.035 0 2.086-.215 3.09-.67 3.773-1.709 5.447-6.153 3.738-9.926-27.231-59.984-42.879-91.179-43.652-185.151 7.468 2.515 15.629 4.143 23.41 4.629 4.46 14.061 21.499 24.692 43.274 26.696v156.92c0 4.142 3.358 7.5 7.5 7.5s7.5-3.358 7.5-7.5v-156.92c21.757-2.003 38.785-12.618 43.262-26.661 7.986-.434 15.882-2.036 23.421-4.67-.428 51.589-5.233 86.71-16.267 119.778-1.311 3.929.811 8.177 4.74 9.488.788.263 1.588.388 2.375.388 3.139 0 6.065-1.987 7.113-5.128 12.067-36.161 17.022-74.292 17.071-131.427 8.031-4.65 15.318-10.574 21.441-17.562l42.262 24.105c4.635 2.644 7.437 7.626 7.312 13.004-1.548 66.5-15.813 113.012-52.633 171.615-2.204 3.507-1.147 8.137 2.36 10.341 1.24.779 2.62 1.15 3.983 1.15 2.494 0 4.933-1.243 6.358-3.511 35.754-56.906 51.483-104.833 54.51-167.618 28.039 20.784 45.05 54.033 45.05 89.338v74.29c0 4.142 3.358 7.5 7.5 7.5s7.5-3.358 7.5-7.5v-74.29c.002-43.751-23.017-84.717-60.217-107.526zm-16.403-140.132-4.777 14.81c-2.653 8.583-11.865 15.179-21.519 14.585v-47h13.477c4.356 0 8.325 2.02 10.89 5.541 2.563 3.521 3.267 7.918 1.929 12.064zm-57.192-81.925c0-4.733 1.102-9.257 3.275-13.445.994-1.915 1.115-4.166.332-6.177s-2.395-3.586-4.422-4.325c-7.408-2.698-12.386-9.818-12.386-17.718 0-10.392 8.439-18.846 18.812-18.846 8.485 0 15.953 5.725 18.16 13.921.588 2.182 2.127 3.982 4.191 4.901s4.433.86 6.446-.164c2.067-1.049 4.295-1.582 6.622-1.582 8.086 0 14.664 6.578 14.664 14.664 0 1-.101 1.998-.298 2.963-.445 2.173.094 4.431 1.472 6.168s3.455 2.775 5.672 2.835c10.249.278 18.276 8.527 18.276 18.781 0 6.605-3.54 12.806-9.238 16.182-1.741 1.032-2.992 2.724-3.467 4.691-.476 1.967-.136 4.043.942 5.756 2.072 3.292 3.167 7.091 3.167 10.989 0 6.814-3.429 13.145-8.873 16.962-5.159-4.648-11.816-7.239-18.976-7.239h-13.477v-17.156c0-4.142-3.358-7.5-7.5-7.5-13.336.003-23.394-10.6-23.394-24.661zm-47.65 25.671c14.659 0 26.584 13.997 26.584 31.202s-11.925 31.202-26.584 31.202-26.584-13.997-26.584-31.202 11.925-31.202 26.584-31.202zm-106.788 0c14.659 0 26.584 13.997 26.584 31.202s-11.925 31.202-26.584 31.202-26.584-13.997-26.584-31.202 11.926-31.202 26.584-31.202zm-115.762-2.82c-.475-1.968-1.726-3.659-3.467-4.691-5.698-3.376-9.238-9.577-9.238-16.182 0-10.253 8.028-18.503 18.276-18.781 2.217-.06 4.293-1.098 5.672-2.835 1.378-1.737 1.917-3.995 1.472-6.168-.198-.966-.298-1.963-.298-2.963 0-8.086 6.579-14.664 14.665-14.664 2.326 0 4.554.532 6.621 1.582 2.014 1.023 4.382 1.083 6.447.164 2.063-.919 3.603-2.719 4.191-4.901 2.207-8.197 9.675-13.921 18.16-13.921 10.373 0 18.812 8.454 18.812 18.846 0 7.9-4.978 15.021-12.386 17.718-2.028.739-3.639 2.314-4.422 4.325s-.662 4.262.332 6.177c2.173 4.188 3.275 8.712 3.275 13.445 0 14.061-10.058 24.664-23.396 24.664-4.142 0-7.5 3.358-7.5 7.5v17.207h-12.575c-7.324 0-14.125 2.709-19.331 7.561-5.812-3.77-9.419-10.24-9.419-17.337 0-3.898 1.095-7.698 3.167-10.989 1.078-1.714 1.418-3.79.942-5.757zm36.63 88.522c-9.167 0-17.216-5.861-20.031-14.585l-4.777-14.81c-1.337-4.146-.634-8.542 1.93-12.064 2.564-3.521 6.533-5.541 10.889-5.541h12.575v47z"/><path d="m311.33 464.156c-3.803-1.639-8.216.113-9.857 3.916-3.982 9.254-10.098 22.661-14.939 33.333-1.709 3.773-.036 8.217 3.737 9.927 2.724 1.395 7.637.499 9.927-3.737 4.727-10.427 10.488-23.026 15.048-33.581 1.641-3.804-.113-8.217-3.916-9.858z"/></g></g></svg>