<svg id="Capa_1" enable-background="new 0 0 512.002 512.002" height="512" viewBox="0 0 512.002 512.002" width="512" xmlns="http://www.w3.org/2000/svg"><g><g><path d="m401.881 359.78v144.72h-291.76v-144.72l74.63-11.74 35.62-5.61h71.26l35.62 5.61z" fill="#a6e7f0"/><path d="m327.251 348.04-35.62-5.61h-20.745l35.62 5.61 74.63 11.74v144.72h20.745v-144.72z" fill="#6bd9e7"/><path d="m327.251 348.04c0 18.53-11.278 35.165-28.452 42.123-28.149 11.403-57.458 11.4-85.6-.002-17.172-6.957-28.448-23.593-28.448-42.121l35.62-5.61h71.26z" fill="#a2aee6"/><path d="m291.631 342.43h-20.745l35.62 5.61c0 18.53-11.278 35.165-28.452 42.122-10.684 4.328-21.534 7.009-32.425 8.051 17.799 1.703 35.708-.977 53.17-8.051 17.174-6.957 28.452-23.593 28.452-42.122z" fill="#8795de"/><path d="m214.755 281.5h82.492v63.178c0 8.416-5.116 16.077-12.99 19.048-18.198 6.864-38.313 6.864-56.511 0-7.875-2.97-12.99-10.631-12.99-19.048v-63.178z" fill="#fed2a4"/><path d="m276.502 281.5v63.179c0 8.416-5.116 16.077-12.99 19.047-5.807 2.191-11.81 3.674-17.883 4.467 12.958 1.691 26.237.207 38.628-4.467 7.875-2.97 12.99-10.631 12.99-19.047v-63.179z" fill="#ffbd86"/><path d="m110.122 359.775c-27.886 11.103-48.828 34.808-56.407 63.85l-21.106 80.875h77.513z" fill="#a6e7f0"/><path d="m110.121 359.775c-7.454 2.968-14.406 6.844-20.745 11.474v133.251h20.745z" fill="#6bd9e7"/><path d="m401.88 359.775c27.886 11.103 48.828 34.808 56.407 63.85l21.106 80.874h-77.513z" fill="#a6e7f0"/><path d="m458.287 423.625c-7.579-29.042-28.521-52.748-56.407-63.85v11.474c17.376 12.691 30.109 31.097 35.662 52.376l21.106 80.875h20.745z" fill="#6bd9e7"/><path d="m110.121 426.46h291.76v44.7h-291.76z" fill="#daf3f6"/><path d="m381.136 426.46h20.745v44.7h-20.745z" fill="#a6e7f0"/><path d="m110.121 471.16h291.76v33.34h-291.76z" fill="#a2aee6"/><path d="m381.136 471.16h20.745v33.34h-20.745z" fill="#8795de"/><path d="m122.842 106.605h266.318v79.224h-266.318z" fill="#5d5360"/><path d="m368.415 106.604h20.745v79.224h-20.745z" fill="#4b3f4e"/><path d="m351.67 106.605 13.649 46.209v80.809c0 30.657-24.853 55.51-55.51 55.51h-107.616c-30.657 0-55.51-24.853-55.51-55.51l-.005-80.809 13.654-46.209z" fill="#fed2a4"/><path d="m351.67 106.604h-20.745l13.649 46.209v80.809c0 30.657-24.853 55.51-55.51 55.51h20.745c30.657 0 55.51-24.853 55.51-55.51v-80.809z" fill="#ffbd86"/><path d="m146.677 218.843h-26.656c-11.606 0-21.014-9.408-21.014-21.014v-24.001c0-11.606 9.408-21.014 21.014-21.014h26.656z" fill="#fed2a4"/><path d="m125.932 152.814h20.745v66.03h-20.745z" fill="#ffbd86"/><path d="m391.98 218.843h-26.656v-66.029h26.656c11.606 0 21.014 9.408 21.014 21.014v24.001c.001 11.606-9.408 21.014-21.014 21.014z" fill="#fed2a4"/><path d="m391.98 152.814h-20.745c11.606 0 21.014 9.408 21.014 21.014v24.001c0 11.606-9.408 21.014-21.014 21.014h20.745c11.606 0 21.014-9.408 21.014-21.014v-24.001c.001-11.606-9.408-21.014-21.014-21.014z" fill="#ffbd86"/><path d="m389.161 67.98v38.62h-266.32v-38.62c0-33.4 27.08-60.48 60.49-60.48h145.34c33.41 0 60.49 27.08 60.49 60.48z" fill="#fe5694"/><path d="m282.671 78.31v28.29h-94.83v-28.29c0-11.74 9.52-21.26 21.26-21.26h52.31c11.74 0 21.26 9.52 21.26 21.26z" fill="#fd3581"/><path d="m328.675 7.5h-20.745c33.405 0 60.485 27.08 60.485 60.485v38.62h20.745v-38.62c-.001-33.405-27.08-60.485-60.485-60.485z" fill="#fd3581"/><path d="m303.418 106.605v-28.29c0-11.743-9.519-21.262-21.262-21.262h-52.311c-11.743 0-21.262 9.519-21.262 21.262v28.29s8.43 53.584 85.581 57.57c5.03.26 9.254-3.76 9.254-8.796z" fill="#5d5360"/><path d="m282.156 57.052h-20.745c11.743 0 21.262 9.519 21.262 21.262v28.29 48.774c0 3.014-1.519 5.655-3.812 7.242 4.777.738 9.863 1.273 15.303 1.554 5.03.26 9.254-3.76 9.254-8.796v-48.774-28.29c0-11.742-9.519-21.262-21.262-21.262z" fill="#4b3f4e"/></g><g><path d="m256.001 220.159h6.891c4.143 0 7.5-3.358 7.5-7.5 0-3.937-3.033-7.166-6.891-7.476v-11.929c0-4.142-3.357-7.5-7.5-7.5-4.142 0-7.5 3.358-7.5 7.5v19.404c0 4.143 3.358 7.501 7.5 7.501z"/><path d="m196.56 182.215c-4.142 0-7.5 3.358-7.5 7.5v13.242c0 4.142 3.358 7.5 7.5 7.5s7.5-3.358 7.5-7.5v-13.242c0-4.142-3.358-7.5-7.5-7.5z"/><path d="m315.441 210.457c4.143 0 7.5-3.358 7.5-7.5v-13.242c0-4.142-3.357-7.5-7.5-7.5s-7.5 3.358-7.5 7.5v13.242c0 4.142 3.358 7.5 7.5 7.5z"/><path d="m256.001 263.876c15.446 0 29.459-7.892 37.483-21.109 2.149-3.541 1.021-8.154-2.52-10.303-3.539-2.149-8.153-1.021-10.303 2.519-5.281 8.7-14.5 13.894-24.661 13.894s-19.38-5.194-24.661-13.894c-2.149-3.541-6.762-4.669-10.303-2.519-3.541 2.149-4.668 6.762-2.519 10.303 8.025 13.217 22.037 21.109 37.484 21.109z"/><path d="m486.65 502.606-21.106-80.875c-8.147-31.222-30.91-56.988-60.89-68.924-.395-.125-.85-.319-1.814-.468l-98.089-15.431v-12.668c0-4.142-3.357-7.5-7.5-7.5s-7.5 3.358-7.5 7.5v20.44c0 5.36-3.271 10.196-8.136 12.032-16.517 6.226-34.711 6.227-51.226.001-4.481-1.616-8.62-7.454-8.139-13.403v-46.677h87.559c34.744 0 63.01-28.266 63.01-63.01v-7.28h19.161c15.723 0 28.515-12.792 28.515-28.514v-24.001c0-14.128-10.331-25.883-23.834-28.123v-77.725c0-37.484-30.5-67.98-67.99-67.98h-145.34c-37.49 0-67.99 30.496-67.99 67.98v77.725c-13.503 2.24-23.833 13.995-23.833 28.123v24.001c0 15.723 12.792 28.514 28.514 28.514h19.161v7.28c0 34.744 28.266 63.01 63.01 63.01h5.058v40.274l-98.088 15.431c-.457.074-.852.135-1.815.469-29.979 11.936-52.742 37.702-60.89 68.924l-21.105 80.875c-1.046 4.008 1.355 8.105 5.363 9.151.635.166 1.272.245 1.899.245 3.331 0 6.372-2.235 7.252-5.608l13.462-51.584h49.294v49.69c0 4.142 3.358 7.5 7.5 7.5s0 0 0 0c4.142 0 7.5-3.358 7.5-7.5v-25.84h46.366c4.142 0 7.5-3.358 7.5-7.5s-3.358-7.5-7.5-7.5h-46.366v-29.7h276.757v29.7h-195.201c-4.142 0-7.5 3.358-7.5 7.5s3.358 7.5 7.5 7.5h195.201v25.84c0 4.142 3.357 7.5 7.5 7.5s0 0 0 0c4.143 0 7.5-3.358 7.5-7.5v-49.69h49.294l13.462 51.584c.88 3.373 3.921 5.608 7.252 5.608.627 0 1.264-.079 1.898-.245 4.009-1.046 6.41-5.143 5.364-9.151zm-104.989-357.292h-10.737l-9.219-31.214h19.957v31.214zm23.834 28.514v24.001c0 7.452-6.062 13.514-13.515 13.514h-19.155v-51.029h19.155c7.452 0 13.515 6.062 13.515 13.514zm-23.834-105.848v31.12h-70.74v-20.79c0-15.858-12.901-28.76-28.76-28.76h-18.662v-34.55h65.172c29.218 0 52.99 23.767 52.99 52.98zm-99.5-3.43c7.587 0 13.76 6.173 13.76 13.76v28.29 18.479c-18.886-5.057-33.403-27.206-33.611-27.527-2.236-3.482-6.871-4.495-10.355-2.264-3.488 2.234-4.505 6.873-2.272 10.361.85 1.327 19.516 29.989 46.239 34.773v14.958c0 .46-.221.766-.405.942-.187.177-.519.383-.968.358-66.727-3.442-77.397-45.524-78.467-50.766v-27.604c0-7.587 6.172-13.76 13.76-13.76zm-151.82 3.43c0-29.213 23.771-52.98 52.99-52.98h65.167v34.55h-18.658c-15.858 0-28.76 12.902-28.76 28.76v20.79h-70.74v-31.12zm10.732 77.334h-10.732v-31.214h19.955zm-1.896 66.029h-19.156c-7.452 0-13.514-6.062-13.514-13.514v-24.001c0-7.452 6.062-13.514 13.514-13.514h19.156zm15.005 22.28-.005-79.724 11.76-39.799h36.877c1.928 5.917 5.932 15.216 13.899 24.636 21.158 25.018 53.585 31.713 77.061 32.924.277.014.555.021.831.021 4.156 0 8.214-1.608 11.239-4.482 3.227-3.063 5.077-7.372 5.077-11.819v-41.28h35.144l11.754 39.798v79.725c0 26.473-21.537 48.01-48.01 48.01h-107.616c-26.474 0-48.011-21.537-48.011-48.01zm70.914 137.125c9.964 3.756 20.433 5.634 30.904 5.634s20.942-1.878 30.909-5.635c8.374-3.161 14.574-10.298 16.863-18.809l15.454 2.432c-2.155 12.859-10.802 23.804-23.242 28.84-26.15 10.6-53.802 10.599-79.965 0-12.438-5.042-21.085-15.987-23.242-28.84l15.454-2.432c2.288 8.511 8.488 15.649 16.865 18.81zm-167.854 69.062 3.729-14.291c5.984-22.93 21.209-42.407 41.65-53.874v68.165zm60.379-20.85v-52.768l60.341-9.493c2.958 18.013 15.025 33.36 32.422 40.412 14.927 6.047 30.273 9.07 45.622 9.07 15.345-.001 30.693-3.024 45.608-9.069 17.398-7.043 29.468-22.391 32.424-40.413l60.34 9.493v52.768zm291.76 20.85v-68.164c20.441 11.467 35.665 30.944 41.649 53.874l3.729 14.291h-45.378z"/></g></g></svg>