<svg id="Capa_1" enable-background="new 0 0 512.003 512.003" height="512" viewBox="0 0 512.003 512.003" width="512" xmlns="http://www.w3.org/2000/svg"><g><g><path d="m256.254 271.428c8.535 0 16.726 1.46 24.378 4.093l3.448-11.055-.85-2.669c-8.381-3.229-17.471-5.018-26.976-5.018s-18.595 1.789-26.975 5.017l-.699 2.753 3.139 11.026c7.697-2.666 15.942-4.147 24.535-4.147z" fill="#9790cc"/><path d="m231.459 274.661 3.954 13.888 3.172 1.822c5.432-2.311 11.403-3.592 17.669-3.592s12.238 1.281 17.669 3.592l2.49-1.322 4.502-14.436c-7.733-2.694-16.022-4.185-24.661-4.185-8.689 0-17.025 1.509-24.795 4.233z" fill="#8479c2"/><path d="m61.929 242.832h-19.595c-5.657 2.644-9.582 8.369-9.582 15.026v15.889c0 6.319 3.539 11.798 8.736 14.603l4.05-1.759 17.25-40.25z" fill="#9790cc"/><path d="m33.253 273.422v-15.238c0-7.345 4.98-13.512 11.742-15.351h-21.705c-8.581 0-15.537 6.956-15.537 15.537v14.867c0 8.581 6.957 15.537 15.537 15.537h17.223l2.037-.885c-5.482-2.517-9.297-8.04-9.297-14.467z" fill="#8479c2"/><path d="m489.218 242.832h-12.666c8.742 13.362 14.486 28.845 16.288 45.499 6.831-1.634 11.915-7.764 11.915-15.095v-14.867c0-8.581-6.956-15.537-15.537-15.537z" fill="#9790cc"/><path d="m477.602 242.832h-27.022l-1.75 2.8 20.417 42.083 2.749 1.058h17.223c1.631 0 3.202-.254 4.68-.72-1.718-16.596-7.481-32.006-16.297-45.221z" fill="#8479c2"/><path d="m152.308 207.105c-46.556 9.293-81.754 50.451-81.754 99.698s35.198 90.405 81.754 99.698c49.361-6.349 87.628-48.638 87.628-99.698s-38.267-93.35-87.628-99.698z" fill="#9790cc"/><path d="m71.528 306.803c0-49.872 36.509-91.371 84.204-99.191-5.313-.871-10.763-1.332-16.319-1.332-55.429 0-100.522 45.094-100.522 100.522s45.094 100.522 100.522 100.522c5.556 0 11.005-.46 16.319-1.332-47.695-7.818-84.204-49.317-84.204-99.189z" fill="#8479c2"/><path d="m153.33 237.666c-30.353 8.35-52.724 36.168-52.724 69.137s22.371 60.787 52.724 69.137c32.243-6.48 56.606-35.014 56.606-69.137s-24.363-62.657-56.606-69.137z" fill="#6e60b8"/><path d="m101.528 306.803c0-33.268 23.163-61.211 54.204-68.596-5.242-1.247-10.701-1.927-16.319-1.927-38.887 0-70.522 31.636-70.522 70.522s31.636 70.522 70.522 70.522c5.618 0 11.077-.68 16.319-1.927-31.041-7.383-54.204-35.326-54.204-68.594z" fill="#6353b2"/><path d="m385.99 207.105c-46.556 9.293-81.754 50.451-81.754 99.698s35.198 90.405 81.754 99.698c49.361-6.349 87.628-48.638 87.628-99.698s-38.267-93.35-87.628-99.698z" fill="#9790cc"/><path d="m305.211 306.803c0-49.872 36.509-91.371 84.204-99.191-5.313-.871-10.763-1.332-16.319-1.332-55.429 0-100.522 45.094-100.522 100.522s45.094 100.522 100.522 100.522c5.556 0 11.005-.46 16.319-1.332-47.695-7.818-84.204-49.317-84.204-99.189z" fill="#8479c2"/><path d="m387.012 237.666c-30.353 8.35-52.724 36.168-52.724 69.137s22.371 60.787 52.724 69.137c32.243-6.48 56.606-35.014 56.606-69.137s-24.362-62.657-56.606-69.137z" fill="#6e60b8"/><path d="m335.211 306.803c0-33.268 23.163-61.211 54.204-68.596-5.242-1.247-10.701-1.927-16.319-1.927-38.887 0-70.522 31.636-70.522 70.522s31.636 70.522 70.522 70.522c5.618 0 11.077-.68 16.319-1.927-31.042-7.383-54.204-35.326-54.204-68.594z" fill="#6353b2"/></g><g><path d="m23.037 296.273h8.615c-.337 3.465-.514 6.977-.514 10.529 0 59.564 48.459 108.022 108.022 108.022s108.022-48.458 108.022-108.022c0-3.829-.204-7.61-.594-11.337 6.139-1.583 12.687-1.583 18.826 0-.391 3.727-.594 7.509-.594 11.337 0 52.949 38.422 97.426 89.221 106.381 4.078.719 7.97-2.004 8.688-6.084.72-4.08-2.005-7.969-6.084-8.688-44.515-7.847-76.824-46.375-76.824-91.609 0-51.194 41.643-93.022 93.022-93.022 51.682 0 93.022 42.111 93.022 93.022 0 45.234-32.31 83.762-76.824 91.609-4.079.719-6.804 4.609-6.084 8.688.72 4.085 4.616 6.803 8.688 6.084 50.839-8.962 89.221-53.468 89.221-106.381 0-3.552-.177-7.064-.514-10.529h8.615c12.703 0 23.037-10.334 23.037-23.037v-14.867c0-12.703-10.334-23.037-23.037-23.037h-5.184l-62.215-117.707c-6.666-12.612-19.668-20.447-33.934-20.447h-25.022c-4.143 0-7.5 3.358-7.5 7.5s3.357 7.5 7.5 7.5h25.022c8.69 0 16.611 4.773 20.672 12.457l58.51 110.698h-13.048c-19.807-22.401-48.742-36.552-80.924-36.552-39.854 0-74.733 21.697-93.454 53.897-15.304-4.533-31.47-4.533-46.775 0-18.721-32.2-53.6-53.897-93.454-53.897-32.182 0-61.117 14.151-80.924 36.552h-13.049l58.51-110.698c4.061-7.683 11.981-12.456 20.672-12.456h25.022c4.143 0 7.5-3.358 7.5-7.5s-3.357-7.5-7.5-7.5h-25.022c-14.266 0-27.268 7.835-33.934 20.447l-62.215 117.706h-5.184c-12.703 0-23.037 10.335-23.037 23.037v14.867c0 12.703 10.334 23.037 23.037 23.037zm441.856-45.941h24.073c4.432 0 8.037 3.605 8.037 8.037v14.867c0 4.432-3.605 8.037-8.037 8.037h-11.153c-.012-.048-.026-.095-.038-.142-2.697-11.021-7.086-21.384-12.881-30.796 0-.001-.001-.002-.001-.003zm-225.569 16.035c10.871-2.775 22.481-2.776 33.354.001-.002.005-.004.01-.006.016-1.874 4.627-3.438 9.431-4.646 14.275-7.848-1.839-16.182-1.844-24.05 0-1.286-5.157-3.104-10.595-4.652-14.292zm-100.164-52.587c51.267 0 93.022 41.712 93.022 93.022 0 51.293-41.729 93.022-93.022 93.022s-93.022-41.729-93.022-93.022c0-51.156 41.604-93.022 93.022-93.022zm-124.16 44.589c0-4.432 3.605-8.037 8.037-8.037h24.073c-5.804 9.426-10.198 19.807-12.894 30.847-.008.032-.017.063-.025.094h-11.154c-4.432 0-8.037-3.605-8.037-8.037z"/><path d="m450.865 306.802c0-43.021-35.001-78.022-78.022-78.022s-78.022 35.001-78.022 78.022 35.001 78.022 78.022 78.022 78.022-35 78.022-78.022zm-78.022 63.023c-34.751 0-63.022-28.272-63.022-63.022s28.271-63.022 63.022-63.022 63.022 28.272 63.022 63.022-28.271 63.022-63.022 63.022z"/><path d="m139.16 384.825c36.06 0 67.223-24.47 75.784-59.506.983-4.023-1.481-8.083-5.505-9.066-4.024-.982-8.082 1.481-9.065 5.505-6.916 28.301-32.088 48.066-61.214 48.066-34.751 0-63.022-28.272-63.022-63.022s28.271-63.022 63.022-63.022c28.456 0 53.485 19.205 60.867 46.703 1.073 4.001 5.187 6.374 9.188 5.299 4-1.074 6.373-5.188 5.299-9.188-9.137-34.04-40.123-57.814-75.354-57.814-43.021 0-78.022 35.001-78.022 78.022s35.001 78.023 78.022 78.023z"/></g></g></svg>