<svg id="Layer_1" enable-background="new 0 0 512 512" height="512" viewBox="0 0 512 512" width="512" xmlns="http://www.w3.org/2000/svg"><g><path clip-rule="evenodd" d="m432.199 422.39c0 6.162-.126 11.445-.503 15.721s-1.006 8.049-1.761 11.068c-.629 3.144-1.635 5.785-2.893 8.049-1.258 2.138-3.144 4.653-5.911 7.42-2.641 2.767-7.923 6.414-15.595 10.816-7.798 4.276-17.23 8.552-28.423 12.577-11.194 3.899-23.896 7.294-38.233 9.936-14.338 2.641-29.933 4.024-46.66 4.024-32.573 0-62.003-5.031-88.288-15.092-26.285-10.062-48.672-25.154-67.034-45.151-18.488-19.997-32.574-44.899-42.384-74.957-9.81-29.932-14.715-64.77-14.715-104.512 0-40.497 5.408-76.467 16.224-107.908 10.816-31.442 25.908-57.853 45.276-79.233s42.635-37.478 69.801-48.546c27.041-11.068 56.974-16.602 89.673-16.602 13.205 0 25.908 1.132 38.233 3.396 12.325 2.138 23.644 5.031 34.083 8.678 10.439 3.521 19.745 7.672 28.172 12.325 8.301 4.779 14.211 8.804 17.482 12.074 3.27 3.396 5.534 6.163 6.791 8.301 1.258 2.264 2.264 5.031 2.893 8.426.755 3.521 1.383 7.546 1.76 12.199.378 4.653.503 10.313.503 17.23 0 7.294-.252 13.583-.755 18.739s-1.384 9.307-2.515 12.451c-1.258 3.144-2.767 5.534-4.402 6.917-1.761 1.509-3.773 2.264-5.911 2.264-3.647 0-8.301-2.138-13.96-6.414-5.66-4.276-12.954-9.055-21.884-14.337-8.929-5.282-19.62-10.061-32.071-14.337-12.325-4.276-27.04-6.414-44.27-6.414-18.865 0-35.718 3.899-50.559 11.571-14.84 7.797-27.417 18.739-37.856 33.077-10.439 14.463-18.362 31.819-23.77 52.193-5.408 20.249-8.049 43.264-8.049 68.795 0 27.92 2.893 52.193 8.678 72.693 5.785 20.374 13.96 37.353 24.65 50.558 10.565 13.206 23.518 23.141 38.611 29.555 15.092 6.54 32.07 9.81 50.935 9.81 17.104 0 31.945-2.012 44.522-6.037 12.451-4.024 23.141-8.552 32.071-13.331 9.055-4.905 16.35-9.307 22.135-13.205 5.786-3.899 10.187-5.911 13.457-5.911 2.39 0 4.402.503 5.785 1.509 1.509 1.006 2.767 2.893 3.773 5.911.88 2.893 1.635 7.043 2.138 12.325.505 5.407.756 12.45.756 21.379z" fill="#ff764e" fill-rule="evenodd"/><g><path d="m441.4 400.062c-.551-5.781-1.4-10.588-2.525-14.288-.025-.084-.053-.168-.08-.251-1.682-5.046-4.152-8.633-7.547-10.957-3.056-2.161-7.026-3.301-11.499-3.301-5.353 0-11.227 2.35-19.045 7.618-5.838 3.934-13.007 8.208-21.266 12.681-8.758 4.688-18.995 8.938-30.399 12.624-11.53 3.69-25.484 5.561-41.474 5.561-17.402 0-33.201-3.023-47.024-9.013-13.506-5.739-25.185-14.688-34.75-26.644-9.667-11.941-17.339-27.753-22.799-46.982-2.293-8.129-4.137-17.038-5.478-26.481-.777-5.468-5.842-9.268-11.307-8.495-5.468.777-9.271 5.839-8.495 11.307 1.466 10.324 3.496 20.115 6.036 29.116 6.207 21.858 15.122 40.066 26.461 54.074 11.62 14.524 25.921 25.462 42.443 32.484 16.283 7.056 34.758 10.634 54.912 10.634 18.062 0 34.066-2.191 47.598-6.521 12.563-4.061 23.907-8.782 33.757-14.054 8.866-4.802 16.592-9.414 22.96-13.705 4.791-3.229 7.05-3.987 7.749-4.16.048.124.098.261.15.415.423 1.429 1.172 4.571 1.709 10.213.473 5.079.712 11.961.712 20.454 0 6.533-.147 11.249-.464 14.84-.398 4.5-1.036 7.662-1.501 9.521-.039.154-.073.309-.104.465-.383 1.913-.962 3.565-1.77 5.046-.704 1.177-2.011 3.024-4.3 5.314-.055.054-.108.109-.161.165-.883.925-3.939 3.649-13.255 8.999-7.805 4.274-16.859 8.274-26.82 11.856-11.216 3.906-23.582 7.118-36.756 9.544-13.9 2.561-28.989 3.859-44.848 3.859-31.195 0-59.697-4.855-84.713-14.431-24.71-9.458-45.988-23.783-63.266-42.6-17.394-18.813-30.925-42.792-40.223-71.283-9.434-28.786-14.218-62.9-14.218-101.398 0-39.198 5.276-74.409 15.68-104.655 10.322-30.007 24.867-55.5 43.231-75.772 18.143-20.028 40.403-35.504 66.177-46.005 25.706-10.521 54.602-15.856 85.885-15.856 12.499 0 24.754 1.087 36.524 3.249 11.644 2.02 22.576 4.8 32.494 8.265.033.012.067.023.102.035 9.52 3.211 18.174 6.993 26.453 11.559 9.423 5.43 13.502 8.632 15.266 10.375 3.364 3.501 4.718 5.395 5.242 6.259.769 1.42 1.354 3.195 1.741 5.28.017.09.034.18.054.27.743 3.473 1.257 7.042 1.571 10.916.325 4.011.471 9.076.471 16.42 0 6.976-.238 12.954-.708 17.769-.488 5.009-1.299 8.115-1.914 9.873-.619 1.513-1.135 2.317-1.373 2.648-.898-.229-3.258-1.091-7.52-4.312-5.934-4.482-13.611-9.518-22.82-14.965-9.47-5.601-20.879-10.711-33.885-15.178-13.324-4.623-29.322-6.966-47.548-6.966-20.31 0-38.865 4.269-55.209 12.718-16.17 8.496-30.062 20.623-41.313 36.077-11.125 15.415-19.646 34.081-25.323 55.465-2.106 7.887-3.837 16.297-5.146 24.998-.821 5.461 2.94 10.555 8.401 11.376 5.462.827 10.555-2.939 11.376-8.401 1.198-7.967 2.777-15.642 4.695-22.827 5.05-19.027 12.524-35.481 22.189-48.873 9.54-13.103 20.799-22.952 34.364-30.079 13.418-6.937 28.884-10.454 45.966-10.454 15.989 0 29.781 1.972 41.022 5.872 11.754 4.038 21.924 8.575 30.227 13.487 8.564 5.066 15.612 9.679 20.947 13.709 7.513 5.676 14.051 8.436 19.988 8.436 4.558 0 8.852-1.615 12.371-4.63 2.9-2.454 5.331-6.101 7.227-10.837.043-.108.084-.217.124-.327 1.465-4.069 2.494-9.071 3.06-14.867.532-5.457.802-12.088.802-19.71 0-7.905-.165-13.469-.536-18.038-.381-4.696-1.009-9.066-1.921-13.353-.796-4.217-2.127-8.025-3.959-11.322-.04-.072-.08-.143-.122-.213-1.672-2.842-4.355-6.167-8.206-10.167-.044-.046-.089-.092-.134-.137-3.869-3.868-10.086-8.211-19.563-13.667-.051-.03-.103-.059-.155-.088-9.218-5.091-19.23-9.475-29.761-13.03-10.936-3.817-22.918-6.869-35.521-9.054-12.862-2.363-26.332-3.561-40.04-3.561-33.895 0-65.338 5.836-93.445 17.341-28.559 11.635-53.267 28.825-73.438 51.093-20.192 22.29-36.113 50.112-47.321 82.694-11.126 32.345-16.768 69.745-16.768 111.161 0 40.617 5.118 76.828 15.208 107.615 10.195 31.239 25.183 57.698 44.524 78.618 19.368 21.093 43.197 37.15 70.825 47.727 27.307 10.451 58.215 15.751 91.863 15.751 17.071 0 33.379-1.41 48.471-4.19 14.175-2.611 27.535-6.085 39.806-10.36 11.069-3.98 21.111-8.427 29.848-13.219.057-.03.112-.062.168-.094 8.732-5.01 14.384-8.984 17.768-12.496 3.055-3.066 5.538-6.209 7.382-9.344.042-.07.082-.142.122-.213 1.796-3.232 3.11-6.833 3.908-10.705.89-3.618 1.568-7.895 1.966-12.39.369-4.191.541-9.466.541-16.599-.002-9.237-.262-16.534-.801-22.328z"/><path d="m184.69 247.132c-5.523 0-9.996 4.477-9.996 10s4.48 10 10.003 10 10-4.477 10-10-4.477-10-10-10z"/></g></g></svg>