<svg id="Capa_1" enable-background="new 0 0 512.002 512.002" height="512" viewBox="0 0 512.002 512.002" width="512" xmlns="http://www.w3.org/2000/svg"><g><g><path d="m277.773 105.971c-10.125 5.082-17.082 15.547-17.082 27.648s6.957 22.566 17.082 27.648c10.481-4.796 17.767-15.368 17.767-27.648s-7.286-22.852-17.767-27.648z" fill="#60b9fe"/><path d="m260.995 133.619c0-12.088 7.056-22.526 17.273-27.424-3.973-1.905-8.424-2.973-13.125-2.973-16.788 0-30.398 13.61-30.398 30.398s13.609 30.398 30.398 30.398c4.701 0 9.152-1.068 13.125-2.973-10.218-4.9-17.273-15.339-17.273-27.426z" fill="#1ca8ff"/><path d="m389.084 383.132h-21.725l-1.892 1.977c-9.849 44.171-49.419 76.916-96.027 76.916-54.256 0-98.397-44.141-98.397-98.397 0-24.842 9.281-48.56 26.135-66.786 13.097-14.163 29.84-24.014 48.217-28.628l1.772-.749v-31.877h-.309c-21.488 7.095-40.996 19.539-56.678 36.497-23.102 24.981-35.823 57.487-35.823 91.532 0 68.05 50.671 124.475 116.263 133.556 59.924-.524 111.094-40.914 127.152-96.457v-3.001z" fill="#dbedff"/><g><path d="m155.549 363.628c0-33.719 12.601-65.915 35.482-90.658 15.532-16.796 34.854-29.122 56.136-36.149v-2.356l-1.772-2.228c-28.317 5.15-54.242 19.334-74.031 40.733-22.881 24.743-35.482 56.939-35.482 90.658 0 73.644 59.913 133.558 133.558 133.558 3.296 0 6.563-.128 9.803-.365-69.056-5.066-123.694-62.867-123.694-133.193z" fill="#b5dcff"/></g><path d="m103.919 368.485-32.824-79.833c-.852-2.072-1.249-4.293-1.164-6.531.568-14.982 2.352-59.876 4.047-102.301l-.81-5.272-24.193-52.046-.64.463v165.366l37.208 91.718v114.167l9.75 6.982h2.594c4.445-3.19 7.354-8.386 7.354-14.276v-111.751c-.001-2.294-.45-4.565-1.322-6.686z" fill="#1ca8ff"/><path d="m97.886 501.197c-9.945-3.542-9.886-16.149-9.886-16.149v-105.269c0-2.536-.494-5.048-1.455-7.395l-30.463-74.443c-2.036-4.974-3.083-10.298-3.083-15.673v-151.103l-9.583-20.617 14.906-16.083v-2.633-.02h-13.198c-9.709 0-17.581 7.871-17.581 17.581v162.327c0 2.293.449 4.564 1.321 6.685l40.576 98.685c.421 1.025.638 2.123.638 3.232v106.102c0 9.466 7.275 17.612 16.731 18.057 4.146.196 7.981-1.062 11.077-3.284z" fill="#0094fd"/><path d="m410.834 392.132 60 98.167 4.417.824c.01-.006.02-.01.029-.016 9.452-5.671 12.516-17.93 6.845-27.382l-65.305-108.843c-3.607-6.011-10.103-9.689-17.113-9.689h-111.927c-1.364 0-2.469-1.105-2.469-2.469v-52.316l-3.144-4.36h-16.899v80.237c0 8.415 5.061 15.64 12.3 18.823h110.838z" fill="#1ca8ff"/><path d="m468.378 484.261-56.258-93.763c-2.006-3.344-5.62-5.39-9.52-5.39h-14.193l59.492 99.153c5.665 9.442 17.905 12.508 27.352 6.861-2.735-1.631-5.12-3.939-6.873-6.861z" fill="#0094fd"/><path d="m265.874 365.151v-79.103h-7.957l-10.837-13.913-1.685-1.685v94.7c0 11.022 8.936 19.958 19.958 19.958h20.479c-11.022.001-19.958-8.935-19.958-19.957z" fill="#0094fd"/><path d="m404.36 250.493h-116.58c-1.364 0-2.469-1.105-2.469-2.469v-54.584c0-7.628-4.287-14.246-10.577-17.605-5.348 3.818-8.816 10.158-8.816 17.175v78.36c0 8.68 5.421 16.076 13.054 19.038h125.866c11.264 0 20.349-9.332 19.945-20.686-.385-10.815-9.601-19.229-20.423-19.229z" fill="#60b9fe"/><path d="m188.516 178.546h-74.339c-.935 0-1.79-.528-2.208-1.365l-37.824-75.647c-1.438-2.877-3.567-5.172-6.076-6.818-6.662 5.083-9.011 14.319-5.125 22.09l43.918 87.836c2.218 4.438 6.143 7.666 10.747 9.066h70.447c9.854 0 18.222-8.064 18.038-17.916-.179-9.555-7.981-17.246-17.578-17.246z" fill="#60b9fe"/><path d="m266.395 270.45v-76.533c0-7.248 3.785-13.76 9.527-17.397-3.257-2.039-7.138-3.174-11.297-3.026-10.815.385-19.23 9.602-19.23 20.423v76.533c0 11.022 8.936 19.958 19.958 19.958h21c-11.022 0-19.958-8.935-19.958-19.958z" fill="#1ca8ff"/><path d="m107.062 203.989-43.365-86.73c-3.87-7.739-1.484-16.955 5.224-21.945-5.154-3.837-12.221-4.712-18.362-1.641-8.685 4.343-12.205 14.902-7.862 23.587l43.365 86.73c2.977 5.956 9.065 9.719 15.724 9.719h21c-6.659-.002-12.747-3.764-15.724-9.72z" fill="#1ca8ff"/><path d="m72.223 10.25c-10.125 5.082-17.082 15.547-17.082 27.648s6.957 22.566 17.082 27.648c10.481-4.796 17.767-15.368 17.767-27.648s-7.286-22.852-17.767-27.648z" fill="#60b9fe"/><path d="m55.445 37.898c0-12.088 7.056-22.526 17.273-27.424-3.974-1.906-8.425-2.974-13.126-2.974-16.788 0-30.398 13.61-30.398 30.398s13.609 30.398 30.398 30.398c4.701 0 9.152-1.068 13.125-2.973-10.217-4.899-17.272-15.338-17.272-27.425z" fill="#1ca8ff"/></g><g><path d="m59.34 75.795c20.896 0 37.897-17.001 37.897-37.897 0-20.897-17.001-37.898-37.897-37.898-20.898 0-37.899 17.001-37.899 37.898 0 20.896 17.001 37.897 37.899 37.897zm0-60.795c12.626 0 22.897 10.272 22.897 22.898 0 12.625-10.271 22.897-22.897 22.897s-22.899-10.272-22.899-22.897c0-12.626 10.273-22.898 22.899-22.898z"/><path d="m19.791 271.719c0 3.288.634 6.497 1.884 9.537l40.577 98.688c.049.121.074.248.074.378v106.103c0 13.696 10.488 24.918 23.878 25.549 14.699.684 26.283-11.108 26.283-25.052v-111.752c0-3.287-.634-6.496-1.885-9.538l-32.824-79.832c-.446-1.087-.65-2.229-.606-3.396.467-12.308 1.751-44.688 2.891-73.321 4.523 7.524 12.576 12.124 21.47 12.124h86.73c13.829 0 25.08-11.251 25.08-25.08 0-13.83-11.251-25.081-25.08-25.081h-71.23l-11.82-23.64c-1.853-3.705-6.354-5.207-10.063-3.354-3.704 1.853-5.206 6.357-3.354 10.063l13.894 27.785c1.271 2.541 3.867 4.146 6.708 4.146h75.865c5.559 0 10.08 4.522 10.08 10.081 0 5.558-4.521 10.08-10.08 10.08h-86.73c-3.844 0-7.298-2.135-9.017-5.572-5.028-10.057-38.189-76.378-43.365-86.73-2.484-4.969-.466-11.037 4.509-13.524.013-.007.027-.011.04-.018 4.87-2.407 10.95-.543 13.483 4.526l8.961 17.922c1.852 3.705 6.357 5.208 10.063 3.354 3.704-1.852 5.206-6.357 3.354-10.062l-8.96-17.921c-2.996-5.993-8.146-10.46-14.5-12.579-2.799-.933-5.685-1.36-8.549-1.291h-12.68c-13.829 0-25.08 11.251-25.08 25.081v162.326zm76.939 99.618c.503 1.223.758 2.513.758 3.833v111.751c0 5.703-4.735 10.347-10.578 10.069-5.284-.249-9.583-4.988-9.583-10.565v-106.103c0-2.098-.404-4.146-1.202-6.084l-40.576-98.687c-.502-1.222-.757-2.511-.757-3.833v-153.233c.02.051.047.1.067.151.264.665.552 1.325.877 1.976l30.418 60.837c-1.248 31.258-3.344 83.87-3.971 100.387-.126 3.328.453 6.58 1.723 9.667z"/><path d="m488.305 459.866-65.306-108.843c-4.934-8.222-13.956-13.33-23.545-13.33h-34.522c-4.143 0-7.5 3.358-7.5 7.5s3.357 7.5 7.5 7.5h34.522c4.351 0 8.444 2.317 10.682 6.048l65.306 108.842c3.534 5.891 1.617 13.559-4.272 17.093s-13.557 1.618-17.091-4.273l-59.492-99.153c-1.355-2.259-3.797-3.641-6.432-3.641h-123.054c-6.869 0-12.458-5.589-12.458-12.458v-70.234c3.767 1.924 8.113 2.992 12.458 2.992h12.458v47.285c0 4.142 3.357 7.5 7.5 7.5h44.873c4.143 0 7.5-3.358 7.5-7.5s-3.357-7.5-7.5-7.5h-37.373v-39.785h112.027c15.14 0 27.457-12.318 27.457-27.458s-12.317-27.458-27.457-27.458h-112.028v-49.553c0-10.494-5.92-19.629-14.594-24.249 14.474-5.337 24.824-19.268 24.824-35.572 0-20.896-17.001-37.897-37.897-37.897s-37.897 17.001-37.897 37.897c0 16.397 10.47 30.392 25.073 35.66-8.582 4.648-14.423 13.735-14.423 24.161v32.688c-63.865 14.532-109.513 71.576-109.513 137.501 0 77.78 63.278 141.058 141.058 141.058 56.958 0 108.319-34.848 130.078-86.483l41.95 69.917c7.792 12.987 24.692 17.204 37.67 9.417 12.981-7.789 17.207-24.689 9.418-37.672zm-223.204-67.258h90.218c-12.295 36.377-47.104 61.917-86.131 61.917-50.121 0-90.897-40.776-90.897-90.897 0-38.786 24.396-72.355 59.353-85.255v86.778c-.001 15.14 12.316 27.457 27.457 27.457zm19.957-134.615h119.528c6.869 0 12.457 5.588 12.457 12.458s-5.588 12.458-12.457 12.458c-1.227 0-136.273 0-139.485 0-6.869 0-12.458-5.589-12.458-12.458 0-9.294 0-67.485 0-77.011 0-6.869 5.589-12.458 12.458-12.458s12.457 5.589 12.457 12.458v57.053c0 4.142 3.357 7.5 7.5 7.5zm-43.066-124.374c0-12.625 10.271-22.897 22.897-22.897s22.897 10.272 22.897 22.897c0 12.626-10.271 22.898-22.897 22.898s-22.897-10.272-22.897-22.898zm27.196 356.067c-69.509 0-126.058-56.549-126.058-126.058 0-58.117 39.59-108.01 94.513-122.08v20.985c-43.571 13.55-74.353 54.083-74.353 101.095 0 58.392 47.506 105.897 105.897 105.897 47.412 0 88.974-31.748 101.856-76.916h12.864l5.469 9.115c-16.491 51.952-65.451 87.962-120.188 87.962z"/></g></g></svg>