<svg id="Capa_1" enable-background="new 0 0 512.002 512.002" height="512" viewBox="0 0 512.002 512.002" width="512" xmlns="http://www.w3.org/2000/svg"><g><g><path d="m401.881 359.78v144.72h-291.76v-144.72l57.01-8.97 17.62-2.77 35.62-5.61h71.26l35.62 5.61 17.62 2.77z" fill="#ffe270"/><path d="m344.871 350.81-17.62-2.77-35.62-5.61h-21.434l35.62 5.61 17.62 2.77 57.01 8.97v144.72h21.434v-144.72z" fill="#ffd15b"/><path d="m110.121 359.78v144.72h-77.51l15.2-58.27 5.9-22.6c7.58-29.05 28.52-52.75 56.41-63.85z" fill="#ffe5c2"/><path d="m88.687 371.751v132.749h21.434v-144.72c-7.724 3.074-14.912 7.118-21.434 11.971z" fill="#fed2a4"/><path d="m479.391 504.5h-77.51v-144.72c27.89 11.1 48.83 34.8 56.41 63.85l5.9 22.6z" fill="#ffe5c2"/><path d="m458.291 423.63c-7.58-29.05-28.52-52.75-56.41-63.85v11.971c17.027 12.67 29.496 30.874 34.976 51.879l21.1 80.87h21.434z" fill="#fed2a4"/><path d="m256.001 368.874v55.031s-22.269 40.432-63.926 23.405c-24.188-9.887-17.273-48.596-17.273-48.596s-55.191 11.952-64.681-38.938l110.249-17.345h35.63v26.443z" fill="#f7f9fa"/><g><path d="m234.567 342.43v81.475s-11.497 20.874-33.422 26.309c35.81 8.263 54.856-26.309 54.856-26.309v-81.475z" fill="#e9edf1"/></g><path d="m256.001 368.874v55.031s22.269 40.432 63.926 23.405c24.188-9.887 17.273-48.596 17.273-48.596s55.191 11.952 64.681-38.938l-110.25-17.346h-35.63z" fill="#f7f9fa"/><g fill="#e9edf1"><path d="m315.766 398.714s6.915 38.71-17.273 48.596c-3.134 1.281-6.157 2.231-9.07 2.904 8.589 2.129 18.778 1.889 30.504-2.904 22.156-9.056 18.217-42.276 17.399-47.796-11.916 1.285-21.56-.8-21.56-.8z"/><path d="m291.631 342.43h-21.434l110.249 17.345c-5.236 28.081-24.386 37.025-40.501 39.404 11.252 1.611 53.719 4.657 61.935-39.404z"/></g><path d="m110.121 359.78v111.38l-62.31-24.93 5.9-22.6c7.58-29.05 28.52-52.75 56.41-63.85z" fill="#ffe270"/><path d="m88.687 371.751v90.833l21.434 8.575v-111.379c-7.724 3.074-14.912 7.118-21.434 11.971z" fill="#ffd15b"/><path d="m464.191 446.23-62.31 24.93v-111.38c27.89 11.1 48.83 34.8 56.41 63.85z" fill="#ffe270"/><path d="m458.291 423.63c-7.58-29.05-28.52-52.75-56.41-63.85v11.971c17.027 12.67 29.496 30.874 34.976 51.879l5.9 22.6-40.876 16.354v8.575l62.31-24.93z" fill="#ffd15b"/><g><path d="m193.301 245.2c0 7-2.67 14-8.01 19.33l-13.35 13.35-21.89 21.9c-10.68 10.67-27.98 10.67-38.65 0-10.68-10.68-10.68-27.98 0-38.65l22.9-22.91 12.34-12.34c10.68-10.67 27.98-10.67 38.65 0 5.34 5.34 8.01 12.33 8.01 19.32z" fill="#d19a6e"/><path d="m193.301 245.2c0 7-2.67 14-8.01 19.33l-13.35 13.35c-16.28-8.99-29.48-22.87-37.64-39.66l12.34-12.34c10.68-10.67 27.98-10.67 38.65 0 5.34 5.34 8.01 12.33 8.01 19.32z" fill="#c38c66"/><path d="m185.295 225.88c-8.123-8.123-20.084-10.056-30.042-5.815 3.127 1.332 6.058 3.265 8.608 5.815 10.673 10.673 10.673 27.977 0 38.649l-35.248 35.248c-2.55 2.55-5.481 4.484-8.608 5.815 9.958 4.241 21.919 2.307 30.042-5.815l35.248-35.248c10.673-10.672 10.673-27.976 0-38.649z" fill="#c38c66"/><path d="m400.604 299.778c10.673-10.673 10.673-27.977 0-38.649l-35.248-35.248c-10.673-10.673-27.977-10.673-38.649 0-10.673 10.673-10.673 27.977 0 38.649l35.248 35.248c10.672 10.672 27.976 10.672 38.649 0z" fill="#d19a6e"/><path d="m400.604 261.128-35.248-35.248c-8.123-8.123-20.083-10.056-30.042-5.815 3.126 1.332 6.058 3.265 8.608 5.815l35.248 35.248c10.673 10.673 10.673 27.977 0 38.649-2.55 2.55-5.481 4.484-8.608 5.815 9.958 4.241 21.919 2.307 30.042-5.815 10.673-10.672 10.673-27.976 0-38.649z" fill="#c38c66"/></g><path d="m395.52 183.228h-279.038v-107.611c0-37.62 30.497-68.117 68.117-68.117h142.804c37.62 0 68.117 30.497 68.117 68.117z" fill="#d19a6e"/><path d="m327.403 7.5h-22.433c37.62 0 68.117 30.497 68.117 68.117v107.611h22.434v-107.611c-.001-37.62-30.498-68.117-68.118-68.117z" fill="#c38c66"/><path d="m158.551 218.84h-38.53c-11.61 0-21.01-9.41-21.01-21.01v-24c0-11.61 9.4-21.02 21.01-21.02h26.66z" fill="#ffe5c2"/><path d="m158.551 218.84h-31.06c-1.47-6.46-2.24-13.18-2.24-20.08v-45.95h21.43z" fill="#fed2a4"/><path d="m391.981 218.843h-36.392l9.736-66.029h26.656c11.606 0 21.014 9.408 21.014 21.014v24.001c0 11.606-9.409 21.014-21.014 21.014z" fill="#ffe5c2"/><path d="m391.98 152.814h-21.434c11.606 0 21.014 9.408 21.014 21.014v24.001c0 11.606-9.408 21.014-21.014 21.014h21.434c11.606 0 21.014-9.408 21.014-21.014v-24.001c.001-11.606-9.408-21.014-21.014-21.014z" fill="#fed2a4"/><g fill="#ffe5c2"><path d="m214.755 281.5h82.492v63.178c0 8.416-5.116 16.077-12.99 19.048-18.199 6.864-38.313 6.864-56.511 0-7.875-2.97-12.99-10.631-12.99-19.048v-63.178z"/><path d="m214.755 281.5h82.492v63.178c0 8.416-5.116 16.077-12.99 19.048-18.199 6.864-38.313 6.864-56.511 0-7.875-2.97-12.99-10.631-12.99-19.048v-63.178z"/><path d="m214.755 281.5h82.492v63.178c0 8.416-5.116 16.077-12.99 19.048-18.199 6.864-38.313 6.864-56.511 0-7.875-2.97-12.99-10.631-12.99-19.048v-63.178z"/></g><path d="m275.813 281.5v63.179c0 8.416-5.116 16.077-12.99 19.047-5.698 2.149-11.583 3.625-17.539 4.428 13.067 1.763 26.472.287 38.972-4.428 7.875-2.97 12.99-10.631 12.99-19.047v-63.179z" fill="#fed2a4"/><path d="m365.321 124.6v74.162c0 49.909-40.459 90.368-90.368 90.368h-37.904c-49.909 0-90.368-40.459-90.368-90.368v-74.162z" fill="#ffe5c2"/><path d="m343.887 124.6v74.162c0 49.909-40.459 90.368-90.368 90.368h21.434c49.909 0 90.368-40.459 90.368-90.368v-74.162z" fill="#fed2a4"/><g fill="#ffc8dd"><ellipse cx="314.725" cy="208.872" rx="15.141" ry="8.553"/><ellipse cx="197.277" cy="208.872" rx="15.141" ry="8.553"/></g></g><g><path d="m256.001 205.266h6.891c4.143 0 7.5-3.358 7.5-7.5 0-3.937-3.033-7.166-6.891-7.476v-11.929c0-4.142-3.357-7.5-7.5-7.5s-7.5 3.358-7.5 7.5v19.405c0 4.142 3.357 7.5 7.5 7.5z"/><path d="m196.561 163.624c-4.143 0-7.5 3.358-7.5 7.5v13.242c0 4.142 3.357 7.5 7.5 7.5s7.5-3.358 7.5-7.5v-13.242c0-4.142-3.358-7.5-7.5-7.5z"/><path d="m315.441 191.866c4.143 0 7.5-3.358 7.5-7.5v-13.242c0-4.142-3.357-7.5-7.5-7.5s-7.5 3.358-7.5 7.5v13.242c0 4.142 3.358 7.5 7.5 7.5z"/><path d="m268.023 228.701c-2.575 4.242-7.069 6.775-12.022 6.775s-9.447-2.533-12.022-6.775c-2.149-3.542-6.764-4.668-10.303-2.519-3.541 2.149-4.669 6.762-2.52 10.303 5.318 8.76 14.605 13.991 24.845 13.991s19.526-5.23 24.845-13.991c2.149-3.541 1.021-8.154-2.52-10.303-3.539-2.149-8.153-1.021-10.303 2.519z"/><path d="m486.647 502.607-21.1-80.871c-8.078-30.991-31.775-58.425-62.501-69.365l-69.645-10.963c-4.085-.646-7.931 2.151-8.575 6.243-.644 4.091 2.151 7.931 6.243 8.575l12.553 1.976c.028.005.054.013.082.017l48.872 7.689c-2.837 8.415-7.572 14.875-14.136 19.259-16.414 10.964-39.439 6.258-39.651 6.213-2.441-.53-4.982.198-6.783 1.928s-2.621 4.248-2.191 6.708c.016.089 1.54 8.998.333 18.709-1.417 11.397-5.81 18.68-13.056 21.643-30.95 12.653-49.338-11.943-53.592-18.549v-45.766c7.946-.683 15.824-2.447 23.408-5.305 10.672-4.028 17.842-14.503 17.842-26.067v-52.694c9.341-2.993 18.074-7.353 25.965-12.844l25.934 25.943c6.792 6.787 15.711 10.18 24.629 10.179 8.919 0 17.838-3.395 24.624-10.181 6.583-6.582 10.208-15.33 10.208-24.632 0-9.304-3.626-18.05-10.207-24.624l-29.478-29.487h15.555c15.721 0 28.51-12.79 28.51-28.51v-24c0-11.813-7.217-21.97-17.471-26.294v-71.917c0-41.697-33.923-75.62-75.619-75.62h-142.799c-41.696 0-75.619 33.923-75.619 75.62v71.916c-10.254 4.324-17.471 14.481-17.471 26.294v24c0 15.72 12.789 28.51 28.51 28.51h15.555l-29.475 29.484c-6.584 6.578-10.21 15.324-10.21 24.627s3.625 18.05 10.207 24.632c6.788 6.788 15.703 10.181 24.624 10.181 8.918 0 17.84-3.395 24.633-10.182l25.931-25.94c7.891 5.491 16.624 9.851 25.965 12.844v44.912l-98.296 15.473c-11.631 3.835-24.697 12.349-34.078 21.271-13.595 12.938-23.585 29.553-28.423 48.093l-21.1 80.872c-1.046 4.008 1.355 8.104 5.363 9.15.636.166 1.271.245 1.898.245 3.331 0 6.372-2.236 7.252-5.609l13.056-50.04 49.697 19.884v28.263c0 4.142 3.357 7.5 7.5 7.5s7.5-3.358 7.5-7.5v-113.135c11.045 12.843 36.976 17.518 48.83 15.91-.545 13.887 1.703 38.356 22.782 46.978 20.49 9.137 44.716 4.076 59.268-9.779v60.026c0 4.142 3.357 7.5 7.5 7.5s7.5-3.358 7.5-7.5v-60.026c13.398 12.964 38.242 19.383 59.269 9.778 21.078-8.621 23.326-33.091 22.781-46.978 12.12 1.28 36.227-2.207 48.83-15.91v113.136c0 4.142 3.357 7.5 7.5 7.5s7.5-3.358 7.5-7.5v-28.263l49.697-19.884 13.056 50.04c.88 3.374 3.921 5.609 7.252 5.609.626 0 1.264-.079 1.898-.245 4.009-1.046 6.41-5.142 5.364-9.15zm-85.536-222.156c0 5.295-2.064 10.276-5.814 14.025-7.727 7.729-20.308 7.727-28.042.001l-24.855-24.862c9.761-9.296 17.607-20.584 22.886-33.203l30.014 30.024c3.747 3.743 5.811 8.721 5.811 14.015zm4.38-82.621c0 7.449-6.061 13.51-13.51 13.51h-19.966c.531-4.119.806-8.317.806-12.578v-38.452h19.16c7.449 0 13.51 6.065 13.51 13.52zm-220.89-182.83h142.801c33.426 0 60.619 27.194 60.619 60.62v69.69h-15.199v-67.756c0-4.142-3.357-7.5-7.5-7.5s-7.5 3.358-7.5 7.5v39.546h-45.642v-39.546c0-4.142-3.357-7.5-7.5-7.5s-7.5 3.358-7.5 7.5v47.046c0 4.142 3.357 7.5 7.5 7.5h53.142v66.662c0 45.693-37.175 82.868-82.868 82.868h-37.904c-45.693 0-82.868-37.174-82.868-82.868v-66.662h115.357c4.143 0 7.5-3.358 7.5-7.5s-3.357-7.5-7.5-7.5h-115.358v-39.546c0-4.142-3.357-7.5-7.5-7.5s-7.5 3.358-7.5 7.5v67.756h-15.199v-69.69c-.001-33.426 27.193-60.62 60.619-60.62zm-78.09 182.83v-24c0-7.455 6.061-13.52 13.51-13.52h19.16v38.452c0 4.261.275 8.459.806 12.578h-19.966c-7.45 0-13.51-6.061-13.51-13.51zm38.239 96.644c-7.738 7.729-20.317 7.73-28.046.002-3.749-3.749-5.813-8.729-5.813-14.025 0-5.294 2.064-10.272 5.814-14.019l30.011-30.021c5.279 12.619 13.125 23.906 22.886 33.203zm92.299 2.156h37.904c5.029 0 9.971-.382 14.798-1.118v49.168c0 5.36-3.271 10.196-8.136 12.032-15.667 6.022-34.527 6.255-51.226.001-4.868-1.837-8.139-6.672-8.139-12.033v-49.168c4.828.736 9.77 1.118 14.799 1.118zm-180.308 145.094 4.227-16.201c5.236-20.065 17.549-37.487 34.24-49.209 2.385-1.675 4.858-3.233 7.414-4.666v88.433zm138.169-1.356c-7.247-2.964-11.64-10.246-13.057-21.644-1.207-9.711.317-18.621.33-18.697.44-2.462-.377-4.982-2.178-6.718-1.801-1.735-4.344-2.458-6.794-1.93-.229.051-23.041 4.825-39.581-6.166-6.599-4.386-11.359-10.861-14.206-19.306l88.805-13.97c2.289 8.511 8.489 15.649 16.866 18.81 7.583 2.858 15.459 4.622 23.405 5.305v45.764c-4.278 6.642-22.657 31.198-53.59 18.552zm214.471 19.713v-88.433c5.111 2.866 9.895 6.233 14.291 10.03 13.187 11.39 22.875 26.647 27.362 43.846l4.227 16.2z"/></g></g></svg>