<svg id="Capa_1" enable-background="new 0 0 507.826 507.826" height="512" viewBox="0 0 507.826 507.826" width="512" xmlns="http://www.w3.org/2000/svg"><g><g><g><path d="m12.913 107.712v128.784c0 13.116 8.789 24.644 21.467 28.004 31.381 8.316 79.887 27.013 122.814 70.212 20.508 20.638 34.948 42.042 45.098 60.84 10.859 20.11 31.939 32.573 54.794 32.573 22.829 0 43.89-12.434 54.759-32.51 10.169-18.783 24.602-40.19 45.048-60.904 41.003-41.541 86.837-60.691 117.169-69.682 12.347-3.66 20.851-14.953 20.851-27.831v-129.486z" fill="#8795de"/><g><path d="m18.543 253.66c3.798 5.183 9.292 9.105 15.837 10.84 10.94 2.899 23.966 7.066 38.107 13.087-19.41-11.247-38.051-18.81-53.944-23.927z" fill="#8795de"/><path d="m464.913 107.712v114.487c0 12.878-8.504 24.171-20.851 27.831-30.331 8.991-76.166 28.141-117.169 69.682-20.446 20.714-34.879 42.121-45.048 60.904-10.869 20.075-31.931 32.51-54.759 32.51-4.047 0-8.037-.398-11.926-1.153 11.297 10.244 26.19 16.153 41.926 16.153 22.829 0 43.89-12.434 54.759-32.51 10.169-18.783 24.602-40.19 45.048-60.904 41.003-41.541 86.837-60.691 117.169-69.682 12.347-3.66 20.851-14.953 20.851-27.831v-129.487z" fill="#6c7fd8"/></g><g><path d="m492.512 123.409c-157.015 35.8-320.183 35.8-477.198 0-5.448-1.242-8.841-6.684-7.526-12.115 1.934-7.984 3.867-15.968 5.801-23.952 1.285-5.305 6.589-8.611 11.911-7.399 150.314 34.257 306.512 34.257 456.826 0 5.322-1.213 10.626 2.093 11.911 7.399 1.934 7.984 3.867 15.968 5.801 23.952 1.315 5.43-2.078 10.872-7.526 12.115z" fill="#bec6ed"/></g><path d="m500.038 111.294c-1.933-7.984-3.867-15.968-5.801-23.952-1.285-5.305-6.589-8.611-11.911-7.398-5.136 1.17-10.28 2.292-15.429 3.383 1.047 4.323 2.094 8.645 3.14 12.967 1.315 5.431-2.078 10.872-7.526 12.115-149.628 34.116-304.838 35.695-454.991 4.789-.218 4.745 2.984 9.114 7.793 10.211 157.016 35.8 320.183 35.8 477.198 0 5.449-1.243 8.842-6.685 7.527-12.115z" fill="#a2aee6"/></g><g><g><g><path d="m256.356 269.295-4.886-4.886 16.912-42.549c6.241-15.701 26.514-19.885 38.461-7.938 11.947 11.947 7.763 32.22-7.938 38.461z" fill="#f6a7d2"/><path d="m306.843 213.923c-9.009-9.009-22.75-8.841-31.641-1.483.56.467 1.111.953 1.641 1.483 11.947 11.947 7.763 32.22-7.938 38.461l-15.029 5.973-2.406 6.052 4.886 4.886 42.549-16.912c15.701-6.24 19.885-26.513 7.938-38.46z" fill="#f28cc4"/><path d="m256.356 269.295-4.886-4.886-42.549 16.912c-15.701 6.241-19.885 26.514-7.938 38.461 11.947 11.947 32.22 7.763 38.461-7.938z" fill="#f6a7d2"/></g></g><g><g><path d="m257.368 266.852h-6.91l-18.128-42.045c-6.689-15.515 4.687-32.809 21.583-32.809 16.896 0 28.272 17.294 21.583 32.809z" fill="#bee49d"/><path d="m253.913 191.998c-5.829 0-11 2.06-15 5.393 7.594 6.329 10.964 17.254 6.583 27.416l-6.583 15.268 11.545 26.777h6.91l18.128-42.045c6.689-15.515-4.687-32.809-21.583-32.809z" fill="#a3d8a4"/><path d="m257.368 266.852h-6.91l-18.128 42.045c-6.689 15.515 4.687 32.809 21.583 32.809 16.896 0 28.272-17.294 21.583-32.809z" fill="#bee49d"/><path d="m275.496 308.897-18.128-42.045h-6.91l-11.545 26.777 6.583 15.268c4.382 10.162 1.011 21.087-6.583 27.416 4 3.334 9.171 5.393 15 5.393 16.896 0 28.272-17.294 21.583-32.809z" fill="#a3d8a4"/></g></g><g><g><path d="m256.356 264.409-4.886 4.886-42.549-16.912c-15.701-6.241-19.885-26.514-7.938-38.461 11.947-11.947 32.22-7.763 38.461 7.938z" fill="#f6a7d2"/><path d="m256.356 264.409-4.886 4.886 16.912 42.549c6.241 15.701 26.514 19.885 38.461 7.938 11.947-11.947 7.763-32.22-7.938-38.461z" fill="#f6a7d2"/><path d="m298.905 281.321-42.549-16.912-4.886 4.886 2.406 6.052 15.029 5.974c15.701 6.241 19.885 26.514 7.938 38.461-.53.53-1.081 1.016-1.641 1.483 8.891 7.358 22.632 7.527 31.641-1.483 11.947-11.947 7.763-32.22-7.938-38.461z" fill="#f28cc4"/></g></g><g><g><path d="m253.913 263.397v6.91l-42.045 18.128c-15.515 6.689-32.809-4.687-32.809-21.583 0-16.896 17.294-28.272 32.809-21.583z" fill="#bee49d"/><path d="m253.913 263.397v6.91l42.045 18.128c15.515 6.689 32.809-4.687 32.809-21.583 0-16.896-17.294-28.272-32.809-21.583z" fill="#bee49d"/><path d="m295.958 245.269-6.542 2.821c5.588 4.206 9.351 10.883 9.351 18.762 0 7.879-3.763 14.556-9.351 18.762l6.542 2.821c15.515 6.689 32.809-4.687 32.809-21.583 0-16.895-17.294-28.272-32.809-21.583z" fill="#a3d8a4"/></g></g><circle cx="254.413" cy="266.852" fill="#eaf6ff" r="33.5"/><path d="m254.413 233.352c-5.394 0-10.486 1.282-15 3.547 10.968 5.504 18.5 16.845 18.5 29.952s-7.532 24.449-18.5 29.953c4.514 2.265 9.606 3.547 15 3.547 18.501 0 33.5-14.998 33.5-33.5 0-18.5-14.998-33.499-33.5-33.499z" fill="#d8ecfe"/></g></g><path d="m507.327 109.529-5.801-23.953c-2.24-9.249-11.596-15.059-20.867-12.945-104.237 23.756-211.104 30.975-317.633 21.452-4.115-.366-7.769 2.677-8.138 6.802-.369 4.126 2.677 7.77 6.802 8.138 108.095 9.663 216.532 2.338 322.302-21.767 1.316-.301 2.637.533 2.956 1.851l5.801 23.953c.316 1.528-.308 2.672-1.903 3.036-77.595 17.692-157.311 26.663-236.933 26.663s-159.337-8.971-236.933-26.663c-1.581-.361-2.212-1.537-1.903-3.037l5.801-23.952c.32-1.32 1.646-2.149 2.956-1.851 33.782 7.699 68.347 13.763 102.735 18.022 4.109.511 7.855-2.41 8.365-6.521.509-4.11-2.41-7.856-6.521-8.365-33.889-4.197-67.953-10.174-101.246-17.761-9.266-2.11-18.627 3.695-20.867 12.946l-5.801 23.952c-1.11 4.583-.353 9.316 2.131 13.327.788 1.273 1.733 2.406 2.784 3.417v110.227c0 16.535 11.123 31.03 27.048 35.249 31.956 8.473 78.613 27.191 119.412 68.247 17.282 17.392 32.026 37.282 43.821 59.118 12.164 22.524 35.687 36.516 61.389 36.516 25.211 0 49.336-14.233 61.355-36.44 11.792-21.787 26.526-41.708 43.793-59.212 5.341-5.412 10.988-10.648 16.787-15.564 3.159-2.679 3.549-7.412.87-10.571-2.678-3.159-7.409-3.548-10.571-.871-6.135 5.202-12.111 10.743-17.763 16.47-18.263 18.512-33.843 39.576-46.308 62.607-9.423 17.41-28.39 28.581-48.164 28.581-20.184 0-38.649-10.976-48.191-28.645-12.479-23.102-28.083-44.151-46.379-62.562-43.168-43.439-92.458-63.225-126.208-72.173-9.356-2.479-15.891-11.012-15.891-20.75v-104.286c76.553 16.936 155.068 25.545 233.5 25.545s156.947-8.609 233.5-25.545v104.986c0 9.601-6.222 17.895-15.48 20.639-26.184 7.76-50.923 19.067-73.531 33.606-3.484 2.24-4.492 6.881-2.252 10.365 2.261 3.516 6.923 4.465 10.365 2.251 21.415-13.771 44.858-24.484 69.68-31.841 15.683-4.648 26.219-18.722 26.219-35.021v-110.927c1.051-1.011 1.996-2.145 2.784-3.418 2.483-4.01 3.239-8.742 2.128-13.325zm-171.064 157.32c0-11.814-6.63-22.105-16.358-27.345.875-2.907 1.329-5.944 1.329-9.035 0-8.232-3.228-15.994-9.091-21.857-8.225-8.216-20.174-10.956-30.881-7.749-5.239-9.732-15.531-16.364-27.348-16.364-11.638 0-22.029 6.513-27.328 16.359-2.877-.864-5.914-1.328-9.042-1.328-8.227 0-15.989 3.225-21.863 9.086-8.228 8.228-10.97 20.18-7.757 30.888-9.729 5.24-16.36 15.531-16.36 27.345 0 10.47 5.221 20.156 13.966 25.909.782.515 1.588.978 2.403 1.416-3.229 10.718-.49 22.681 7.748 30.909 5.859 5.859 13.624 9.086 21.863 9.086 3.099 0 6.143-.454 9.053-1.331.438.816.901 1.623 1.416 2.406 5.751 8.744 15.434 13.965 25.901 13.965 11.644 0 22.04-6.524 27.336-16.383.887.268 1.785.51 2.703.7 2.1.434 4.211.646 6.306.646 8.13 0 16-3.201 21.883-9.083 5.863-5.851 9.093-13.614 9.093-21.859 0-3.102-.455-6.147-1.335-9.058.814-.437 1.617-.899 2.398-1.413 8.744-5.754 13.965-15.439 13.965-25.91zm-53.881-39.074c1.7-3.948 2.562-8.082 2.562-12.285 0-.008-.001-.016-.001-.024 5.209-1.776 11.72-1.112 16.596 3.757 3.027 3.027 4.694 7.021 4.694 11.247 0 1.816-.325 3.633-.921 5.351-.013 0-.026-.001-.039-.001-4.205 0-8.338.862-12.292 2.563l-6.595 2.846c-2.022-2.519-4.335-4.792-6.888-6.773zm-28.469-28.276c8.908 0 16.03 7.337 16.03 15.99 0 2.152-.45 4.291-1.336 6.347l-2.474 5.732c-3.716-1.111-7.648-1.716-11.72-1.716-1.755 0-3.481.123-5.178.339l-2.822-7.1c-1.602-4.034-3.98-7.568-6.906-10.496 2.42-4.949 7.498-9.096 14.406-9.096zm-47.633 19.729c3.037-3.03 7.037-4.699 11.263-4.699 6.632 0 12.493 3.964 14.93 10.1l2.448 6.16c-4.948 2.685-9.276 6.366-12.735 10.761l-7.348-3.171c-3.947-1.699-8.081-2.561-12.285-2.561-.01 0-.019.001-.028.001-1.78-5.206-1.118-11.717 3.755-16.591zm-12.507 60.999c-4.582-3.014-7.21-7.89-7.21-13.377 0-9.901 8.3-16.03 15.99-16.03 2.153 0 4.291.45 6.348 1.336l6.301 2.719c-1.16 3.791-1.789 7.812-1.789 11.978 0 4.167.629 8.189 1.79 11.981l-6.3 2.718c-5.078 2.201-10.562 1.68-15.13-1.325zm31.673 25.702c-1.708 3.96-2.535 8.148-2.532 12.316-1.722.598-3.546.924-5.371.924-4.233 0-8.23-1.667-11.26-4.696-4.882-4.877-5.541-11.394-3.753-16.603.007 0 .014.001.021.001 4.16 0 8.34-.841 12.292-2.545l7.345-3.169c1.885 2.396 4.026 4.58 6.39 6.504zm28.467 28.28c-5.483 0-10.356-2.627-13.369-7.208-2.999-4.56-3.508-10.068-1.324-15.133l2.589-6.007c3.974 1.287 8.207 1.99 12.604 1.99 1.426 0 2.835-.074 4.224-.217l2.775 6.973c1.591 4.005 3.964 7.549 6.91 10.493-2.419 4.956-7.498 9.109-14.409 9.109zm.5-41.357c-14.336 0-26-11.664-26-26s11.664-26 26-26c14.337 0 26 11.664 26 26 0 14.337-11.663 26-26 26zm47.126 21.624c-3.879 3.879-9.182 5.469-14.554 4.36-5.373-1.109-9.586-4.579-11.634-9.77l-2.278-5.726c5.167-2.654 9.7-6.368 13.309-10.861l6.602 2.846c3.951 1.704 8.13 2.544 12.289 2.544.016 0 .031-.002.047-.002.595 1.706.913 3.511.913 5.36 0 4.235-1.665 8.227-4.694 11.249zm12.514-34.249c-4.545 2.99-10.061 3.507-15.131 1.325l-5.418-2.336c1.237-3.904 1.909-8.056 1.909-12.364 0-4.306-.671-8.457-1.907-12.359l5.413-2.336c2.062-.888 4.201-1.338 6.354-1.338 7.689 0 15.989 6.128 15.989 16.03.001 5.488-2.627 10.364-7.209 13.378z"/></g></svg>