<svg id="Capa_1" enable-background="new 0 0 512 512" height="512" viewBox="0 0 512 512" width="512" xmlns="http://www.w3.org/2000/svg"><g><g><g><path d="m115.9 27.5v289.909h288.52v-289.909c0-11.046-8.954-20-20-20h-248.52c-11.046 0-20 8.954-20 20z" fill="#e9efff"/></g><g><path d="m156.62 7.5h-20.72c-11.046 0-20 8.954-20 20v289.909h20.72v-289.909c0-11.046 8.954-20 20-20z" fill="#d3dcfb"/></g><g><path d="m433.64 504.5h-355.28c-11.046 0-20-8.954-20-20v-233.5c0-11.046 8.954-20 20-20h89.956c5.092 0 10.1 1.296 14.553 3.766l52.302 29.013c4.453 2.47 9.461 3.766 14.553 3.766h183.916c11.046 0 20 8.954 20 20v196.955c0 11.046-8.955 20-20 20z" fill="#b3e59f"/></g><g><path d="m79.08 484.5v-233.5c0-11.046 8.954-20 20-20h-20.72c-11.046 0-20 8.954-20 20v233.5c0 11.046 8.954 20 20 20h20.72c-11.046 0-20-8.954-20-20z" fill="#95d6a4"/></g><g><g><path d="m295.16 137.15v-11.11c0-11.2-9.08-20.28-20.28-20.28h-29.44c-11.2 0-20.28 9.08-20.28 20.28v11.11c0 5.385 4.365 9.75 9.75 9.75h50.5c5.384 0 9.75-4.365 9.75-9.75z" fill="#e5979d"/></g><g><circle cx="260.16" cy="58" fill="#e5979d" r="21.36"/></g></g><g><circle cx="256" cy="382.433" fill="#deecf1" r="70.564"/></g><path d="m200.916 382.433c0-36.354 27.496-66.277 62.824-70.133-2.543-.278-5.123-.431-7.74-.431-38.971 0-70.564 31.593-70.564 70.564s31.592 70.564 70.564 70.564c2.617 0 5.197-.153 7.74-.431-35.328-3.856-62.824-33.779-62.824-70.133z" fill="#d3dcfb"/><g><path d="m284.2 369.622h-11.435c-2.184 0-3.954-1.77-3.954-3.954v-11.435c0-5.567-4.513-10.08-10.08-10.08h-5.463c-5.567 0-10.08 4.513-10.08 10.08v11.435c0 2.184-1.77 3.954-3.954 3.954h-11.434c-5.567 0-10.08 4.513-10.08 10.08v5.463c0 5.567 4.513 10.08 10.08 10.08h11.435c2.184 0 3.954 1.77 3.954 3.954v11.435c0 5.567 4.513 10.08 10.08 10.08h5.463c5.567 0 10.08-4.513 10.08-10.08v-11.435c0-2.184 1.77-3.954 3.954-3.954h11.434c5.567 0 10.08-4.513 10.08-10.08v-5.463c0-5.567-4.513-10.08-10.08-10.08z" fill="#b3e59f"/></g></g><g><path d="m433.64 260.045h-183.917c-3.81 0-7.583-.977-10.915-2.825l-52.301-29.012c-5.551-3.08-11.842-4.708-18.191-4.708h-44.916v-196c0-6.893 5.607-12.5 12.5-12.5h248.52c6.893 0 12.5 5.607 12.5 12.5v208.14c0 4.142 3.357 7.5 7.5 7.5s7.5-3.358 7.5-7.5v-208.14c0-15.164-12.337-27.5-27.5-27.5h-248.52c-15.163 0-27.5 12.336-27.5 27.5v196h-30.04c-15.163 0-27.5 12.336-27.5 27.5v62.48c0 4.142 3.357 7.5 7.5 7.5s7.5-3.358 7.5-7.5v-62.48c0-6.893 5.607-12.5 12.5-12.5h89.956c3.81 0 7.584.977 10.915 2.825l52.302 29.013c5.552 3.08 11.842 4.708 18.19 4.708h183.917c6.893 0 12.5 5.607 12.5 12.5v196.954c0 6.893-5.607 12.5-12.5 12.5h-355.28c-6.893 0-12.5-5.607-12.5-12.5v-138.74c0-4.142-3.357-7.5-7.5-7.5s-7.5 3.358-7.5 7.5v138.74c0 15.164 12.337 27.5 27.5 27.5h355.28c15.164 0 27.5-12.336 27.5-27.5v-196.955c0-15.164-12.336-27.5-27.5-27.5z"/><path d="m342.28 170.1h-120.4c-4.143 0-7.5 3.358-7.5 7.5s3.357 7.5 7.5 7.5h120.4c4.143 0 7.5-3.358 7.5-7.5s-3.358-7.5-7.5-7.5z"/><path d="m342.28 198.8h-120.4c-4.143 0-7.5 3.358-7.5 7.5s3.357 7.5 7.5 7.5h120.4c4.143 0 7.5-3.358 7.5-7.5s-3.358-7.5-7.5-7.5z"/><path d="m190.12 170.1h-9.6c-4.143 0-7.5 3.358-7.5 7.5s3.357 7.5 7.5 7.5h9.6c4.143 0 7.5-3.358 7.5-7.5s-3.358-7.5-7.5-7.5z"/><path d="m190.12 198.8h-9.6c-4.143 0-7.5 3.358-7.5 7.5s3.357 7.5 7.5 7.5h9.6c4.143 0 7.5-3.358 7.5-7.5s-3.358-7.5-7.5-7.5z"/><path d="m289.02 58c0-15.914-12.946-28.86-28.86-28.86s-28.86 12.946-28.86 28.86 12.946 28.86 28.86 28.86 28.86-12.946 28.86-28.86zm-42.721 0c0-7.643 6.218-13.86 13.86-13.86s13.86 6.217 13.86 13.86-6.218 13.86-13.86 13.86-13.86-6.217-13.86-13.86z"/><path d="m217.66 126.04v11.11c0 9.512 7.738 17.25 17.25 17.25h50.5c9.512 0 17.25-7.738 17.25-17.25v-11.11c0-15.318-12.462-27.78-27.78-27.78h-29.44c-15.318 0-27.78 12.462-27.78 27.78zm15 0c0-7.047 5.733-12.78 12.78-12.78h29.439c7.047 0 12.78 5.733 12.78 12.78v11.11c0 1.241-1.01 2.25-2.25 2.25h-50.5c-1.24 0-2.25-1.009-2.25-2.25v-11.11z"/><path d="m253.268 428.213h5.463c9.693 0 17.58-7.886 17.58-17.58v-7.889h7.889c9.693 0 17.58-7.886 17.58-17.58v-5.463c0-9.694-7.887-17.58-17.58-17.58h-7.889v-7.889c0-9.694-7.887-17.58-17.58-17.58h-5.463c-9.693 0-17.58 7.886-17.58 17.58v7.889h-7.889c-9.693 0-17.58 7.886-17.58 17.58v5.463c0 9.693 7.887 17.58 17.58 17.58h7.889v7.889c0 9.694 7.887 17.58 17.58 17.58zm-25.469-40.469c-1.423 0-2.58-1.157-2.58-2.58v-5.463c0-1.423 1.157-2.58 2.58-2.58h11.435c6.315 0 11.454-5.138 11.454-11.454v-11.435c0-1.423 1.157-2.58 2.58-2.58h5.463c1.423 0 2.58 1.157 2.58 2.58v11.435c0 6.316 5.139 11.454 11.454 11.454h11.435c1.423 0 2.58 1.157 2.58 2.58v5.463c0 1.422-1.157 2.58-2.58 2.58h-11.435c-6.315 0-11.454 5.138-11.454 11.454v11.435c0 1.422-1.157 2.58-2.58 2.58h-5.463c-1.423 0-2.58-1.157-2.58-2.58v-11.435c0-6.316-5.139-11.454-11.454-11.454z"/><path d="m286.388 310.507c-9.63-4.073-19.854-6.138-30.389-6.138-43.044 0-78.063 35.02-78.063 78.064s35.02 78.063 78.063 78.063c43.045 0 78.064-35.019 78.064-78.063 0-20.384-7.81-39.671-21.989-54.31-2.88-2.975-7.629-3.051-10.604-.169s-3.051 7.63-.169 10.605c11.454 11.825 17.763 27.406 17.763 43.874 0 34.773-28.291 63.063-63.064 63.063s-63.063-28.29-63.063-63.063 28.29-63.064 63.063-63.064c8.517 0 16.774 1.667 24.545 4.953 3.817 1.613 8.217-.171 9.829-3.986 1.614-3.815-.171-8.215-3.986-9.829z"/></g></g></svg>