<svg id="Capa_1" enable-background="new 0 0 512 512" height="512" viewBox="0 0 512 512" width="512" xmlns="http://www.w3.org/2000/svg"><g><g><path d="m320.028 41.5h-128.056v-19c0-8.284 6.716-15 15-15h98.056c8.284 0 15 6.716 15 15z" fill="#dbf1d0"/><path d="m305.056 7.5h-31c8.284 0 15 6.716 15 15v19h31v-19c0-8.284-6.716-15-15-15z" fill="#c1e9af"/><g><path d="m428.5 504.5c-11.598 0-21-9.402-21-21v-46c0-11.598 9.402-21 21-21 11.598 0 21 9.402 21 21v46c0 11.598-9.402 21-21 21z" fill="#aee69c"/><path d="m428 416.5c-5.88 0-11.188 2.423-15 6.317 3.708 3.787 6 8.965 6 14.683v46c0 5.718-2.292 10.896-6 14.683 3.812 3.894 9.12 6.317 15 6.317 11.598 0 21-9.402 21-21v-46c0-11.598-9.402-21-21-21z" fill="#89daa4"/><path d="m83.5 504.5c-11.598 0-21-9.402-21-21v-46c0-11.598 9.402-21 21-21 11.598 0 21 9.402 21 21v46c0 11.598-9.402 21-21 21z" fill="#aee69c"/><path d="m83 416.5c-5.88 0-11.188 2.423-15 6.317 3.708 3.787 6 8.965 6 14.683v46c0 5.718-2.292 10.896-6 14.683 3.812 3.894 9.12 6.317 15 6.317 11.598 0 21-9.402 21-21v-46c0-11.598-9.402-21-21-21z" fill="#89daa4"/></g><path d="m346.15 489.5h-180.3c-15.705 0-28.751-12.112-29.917-27.773l-27.933-345.227h296l-27.933 345.227c-1.165 15.661-14.212 27.773-29.917 27.773z" fill="#aee69c"/><path d="m374 116.5-27.933 345.227c-1.166 15.661-14.213 27.773-29.917 27.773h30c15.704 0 28.751-12.112 29.917-27.773l27.933-345.227z" fill="#89daa4"/><path d="m373.384 41.5h-234.768c-9.177 0-17.177 6.246-19.403 15.149l-11.213 44.851h296l-11.213-44.851c-2.226-8.903-10.225-15.149-19.403-15.149z" fill="#aee69c"/><path d="m392.787 56.649c-2.226-8.903-10.226-15.149-19.403-15.149h-30c9.177 0 17.177 6.246 19.403 15.149l11.213 44.851h30z" fill="#89daa4"/><path d="m411.5 101.5h-311c-8.284 0-15 6.716-15 15 0 8.284 6.716 15 15 15h311c8.284 0 15-6.716 15-15 0-8.284-6.716-15-15-15z" fill="#dbf1d0"/><path d="m411 101.5h-30c8.284 0 15 6.716 15 15s-6.716 15-15 15h30c8.284 0 15-6.716 15-15s-6.716-15-15-15z" fill="#c1e9af"/><path d="m331.037 211.183h-150.074c-10.083 0-18.589-7.505-19.844-17.51l-7.802-62.173h205.367l-7.802 62.173c-1.256 10.005-9.762 17.51-19.845 17.51z" fill="#edf9d9"/></g><path d="m428.5 409c-15.715 0-28.5 12.785-28.5 28.5v15.5h-15.699l5.18-64.031c.334-4.129-2.742-7.747-6.871-8.081-4.128-.328-7.746 2.744-8.08 6.871l-5.939 73.412c-.872 11.68-10.73 20.829-22.441 20.829h-180.3c-11.711 0-21.568-9.149-22.444-20.875l-26.065-322.125h29.358l6.978 55.607c1.723 13.726 13.453 24.076 27.286 24.076h34.09c4.143 0 7.5-3.358 7.5-7.5s-3.357-7.5-7.5-7.5h-34.09c-6.288 0-11.62-4.705-12.403-10.943l-6.744-53.74h188.367l-6.743 53.739c-.783 6.239-6.115 10.944-12.403 10.944h-80.984c-4.143 0-7.5 3.358-7.5 7.5s3.357 7.5 7.5 7.5h80.984c13.833 0 25.563-10.35 27.286-24.076l6.978-55.607h29.358l-17.295 213.748c-.334 4.129 2.742 7.747 6.871 8.081.205.017.41.025.613.025 3.867 0 7.149-2.973 7.467-6.896l17.393-214.958c12.846.669 24.292-9.232 24.292-22.5 0-13.175-11.183-23.243-24.144-22.5l-9.792-39.169c-3.067-12.265-14.038-20.831-26.679-20.831h-45.856v-11.5c0-12.407-10.094-22.5-22.5-22.5h-98.057c-12.406 0-22.5 10.093-22.5 22.5v11.5h-45.856c-12.642 0-23.612 8.566-26.679 20.831l-9.793 39.169c-12.975-.732-24.144 9.391-24.144 22.5 0 12.923 11.239 23.525 24.292 22.5l25.406 314h-15.698v-15.5c0-15.715-12.785-28.5-28.5-28.5s-28.5 12.785-28.5 28.5v46c0 15.715 12.785 28.5 28.5 28.5s28.5-12.785 28.5-28.5v-15.5h17.333c3.902 16.653 18.955 29 36.516 29h180.301c17.573 0 32.636-12.363 36.522-29h17.328v15.5c0 15.715 12.785 28.5 28.5 28.5s28.5-12.785 28.5-28.5v-46c0-15.715-12.785-28.5-28.5-28.5zm-229.028-386.5c0-4.136 3.364-7.5 7.5-7.5h98.057c4.136 0 7.5 3.364 7.5 7.5v11.5h-113.057zm-72.983 35.968c1.394-5.575 6.38-9.468 12.126-9.468h234.77c5.746 0 10.732 3.894 12.126 9.468l8.884 35.532h-276.79zm-25.989 65.532c-4.136 0-7.5-3.364-7.5-7.5s3.364-7.5 7.5-7.5h311c4.136 0 7.5 3.364 7.5 7.5s-3.364 7.5-7.5 7.5zm-3.5 359.5c0 7.444-6.056 13.5-13.5 13.5s-13.5-6.056-13.5-13.5v-46c0-7.444 6.056-13.5 13.5-13.5s13.5 6.056 13.5 13.5zm345 0c0 7.444-6.056 13.5-13.5 13.5s-13.5-6.056-13.5-13.5v-46c0-7.444 6.056-13.5 13.5-13.5s13.5 6.056 13.5 13.5z"/></g></svg>