<svg id="Capa_1" enable-background="new 0 0 511.997 511.997" height="512" viewBox="0 0 511.997 511.997" width="512" xmlns="http://www.w3.org/2000/svg"><g><g><g><path d="m499.141 139.551c4.912 3.439 5.81 10.349 1.934 14.925-26.794 31.627-125.805 139.344-245.085 139.344-119.283 0-219.296-107.723-246.088-139.347-3.875-4.574-2.978-11.483 1.932-14.923l149.53-104.769c25.004-17.519 59.095-13.933 79.906 8.406 7.949 8.532 21.471 8.515 29.398-.038 8.587-9.265 19.464-15.312 31.034-17.968 16.321-3.747 34.02 9.25 48.617 19.47z" fill="#e94444"/><path d="m502.079 154.475c-26.8 31.63-126.81 139.34-246.09 139.34-5.04 0-10.04-.19-15-.56 112.59-8.4 205.42-108.49 231.09-138.78 3.87-4.58 2.97-11.49-1.94-14.92l-149.82-104.9c-6.2-4.35-12.97-7.38-19.95-9.15 4.91-1.24 9.96-1.87 15.02-1.87 12.14 0 24.35 3.61 34.93 11.02l149.82 104.9c4.91 3.43 5.81 10.34 1.94 14.92z" fill="#d83131"/><path d="m255.989 487.281c-4.548 0-9.054.818-13.51.461-85.808-6.877-153.298-78.691-153.298-166.268v-126.688c0-49.821 40.388-90.208 90.208-90.208 26.354 0 51.391 11.525 68.529 31.546 1.949 2.277 4.621 13.507 7.352 13.691 3.209.215 6.498-11.015 8.788-13.691 14.074-16.441 33.473-27.152 54.555-30.457 4.591-.72 9.261-.088 13.974-.088 49.821 0 89.208 39.388 89.208 89.208v126.687c.002 92.125-73.681 165.807-165.806 165.807z" fill="#f47c7c"/><path d="m422.799 194.785v126.69c0 92.12-74.68 166.81-166.81 166.81-5.05 0-10.06-.22-15-.66 85.1-7.59 151.81-79.08 151.81-166.15v-126.69c0-24.91-10.1-47.46-26.42-63.79-12.97-12.96-29.87-22-48.75-25.16 4.9-.84 9.91-1.26 14.96-1.26 24.91 0 47.46 10.1 63.79 26.42 16.32 16.33 26.42 38.88 26.42 63.79z" fill="#ee6161"/></g></g><g><path d="m248.499 148.25v121.21c0 4.142 3.358 7.5 7.5 7.5 4.143 0 7.5-3.358 7.5-7.5v-121.21l6.268-7.247c15.734-18.381 38.636-28.923 62.832-28.923 45.605 0 82.708 37.103 82.708 82.709v126.687c0 38.451-13.885 75.578-39.097 104.542-2.72 3.125-2.392 7.862.733 10.582 1.42 1.236 3.175 1.843 4.921 1.843 2.094 0 4.177-.872 5.66-2.576 27.589-31.694 42.782-72.319 42.782-114.39v-88.411c37.191-28.502 64.411-58.286 77.5-73.738 3.207-3.785 4.682-8.776 4.046-13.694-.636-4.921-3.333-9.376-7.399-12.223l-61.513-43.07c-3.393-2.377-8.07-1.55-10.445 1.842-2.376 3.393-1.551 8.07 1.842 10.445l61.513 43.069c.849.594 1.07 1.419 1.127 1.858.057.438.052 1.288-.614 2.075-11.601 13.694-34.647 38.995-66.056 64.348v-19.19c0-53.877-43.832-97.709-97.708-97.709-28.585 0-55.64 12.454-74.227 34.168-.694.811-1.539 1.032-2.106 1.079-.089-.003-.177-.013-.267-.013s-.178.01-.267.013c-.567-.048-1.411-.268-2.105-1.079-18.588-21.714-45.642-34.168-74.226-34.168-53.877 0-97.709 43.832-97.709 97.709v19.188c-31.403-25.35-54.453-50.653-66.056-64.349-.666-.786-.67-1.637-.614-2.074.057-.439.279-1.265 1.126-1.858l149.53-104.769c21.815-15.285 51.958-12.114 70.115 7.376 5.197 5.579 12.546 8.776 20.169 8.775h.036c7.635-.01 14.992-3.228 20.182-8.828 18.058-19.486 48.086-22.69 69.849-7.452l61.536 43.085c3.395 2.377 8.07 1.551 10.445-1.842 2.376-3.393 1.551-8.07-1.842-10.445l-61.536-43.086c-27.871-19.514-66.327-15.412-89.454 9.543-2.4 2.591-5.668 4.02-9.2 4.024-.006 0-.011 0-.017 0-3.525 0-6.789-1.42-9.192-4-23.229-24.934-61.79-28.99-89.698-9.436l-149.531 104.77c-4.065 2.848-6.76 7.303-7.395 12.223-.635 4.917.84 9.906 4.045 13.69 13.092 15.454 40.316 45.241 77.501 73.739v53.909c0 4.142 3.358 7.5 7.5 7.5s7.5-3.358 7.5-7.5v-92.183c0-45.605 37.103-82.709 82.709-82.709 24.196 0 47.097 10.542 62.831 28.923z"/><path d="m353.227 447.682c-28.065 21.655-61.687 33.101-97.229 33.101-87.843 0-159.308-71.465-159.308-159.308v-1.818c0-4.142-3.358-7.5-7.5-7.5s-7.5 3.358-7.5 7.5v1.818c0 96.113 78.194 174.308 174.308 174.308 38.888 0 75.678-12.526 106.393-36.225 3.279-2.53 3.887-7.24 1.355-10.52-2.53-3.279-7.238-3.886-10.519-1.356z"/></g></g></svg>