<svg id="Capa_1" enable-background="new 0 0 512 512" height="512" viewBox="0 0 512 512" width="512" xmlns="http://www.w3.org/2000/svg"><g><g><g><path d="m438.8 86.52h-365.599c-14.006 0-25.361 11.354-25.361 25.361v367.259c0 14.006 11.354 25.361 25.361 25.361h365.599c14.006 0 25.361-11.354 25.361-25.361v-367.259c-.001-14.006-11.355-25.361-25.361-25.361z" fill="#b8f0ff"/></g><g><path d="m130.702 131.521h250.605c1.351-7.804 1.972-15.761 1.848-23.83-.11-7.165-.819-14.241-2.099-21.17h-250.109c-1.387 7.509-2.118 15.246-2.118 23.15 0 7.393.633 14.686 1.873 21.85z" fill="#8ddcff"/></g><g><path d="m70.52 479.14v-367.259c0-14.006 11.354-25.361 25.361-25.361h-22.68c-14.006 0-25.361 11.354-25.361 25.361v367.259c0 14.006 11.354 25.361 25.361 25.361h22.68c-14.007-.001-25.361-11.355-25.361-25.361z" fill="#8ddcff"/></g><g><path d="m92.84 449.501v-307.98c0-5.523 4.477-10 10-10h306.32c5.523 0 10 4.477 10 10v307.98c0 5.523-4.477 10-10 10h-306.32c-5.523 0-10-4.478-10-10z" fill="#42c3fc"/></g><g><path d="m115.52 449.501v-307.98c0-5.523 4.477-10 10-10h-22.68c-5.523 0-10 4.477-10 10v307.98c0 5.523 4.477 10 10 10h22.68c-5.523 0-10-4.478-10-10z" fill="#1aa9e8"/></g><g><path d="m349.736 150.381c5.625-12.932 8.653-27.253 8.422-42.308-.84-54.978-45.738-99.805-100.717-100.563-57.088-.787-103.612 45.254-103.612 102.161 0 14.589 3.059 28.462 8.569 41.016 3.159 7.198 10.37 11.768 18.231 11.768h150.736c7.984 0 15.187-4.754 18.371-12.074z" fill="#e9efff"/></g><g><path d="m185.078 150.688c-5.51-12.554-8.568-26.428-8.568-41.016 0-52.586 39.728-95.889 90.807-101.542-3.25-.362-6.543-.573-9.875-.619-57.088-.787-103.612 45.254-103.612 102.161 0 14.589 3.059 28.462 8.569 41.016 3.159 7.198 10.37 11.768 18.231 11.768h22.68c-7.862-.001-15.073-4.571-18.232-11.768z" fill="#d3dcfb"/></g><g><path d="m281.32 162.455-20.546-66.047c-1.458-4.686-8.091-4.686-9.549 0l-20.546 66.047z" fill="#e5979d"/></g><g><path d="m260.774 96.408c-1.458-4.687-8.091-4.687-9.549 0l-20.546 66.047h15.48l17.58-56.513z" fill="#e17f85"/></g><g><path d="m141.623 399.285v-149.031c0-22.533 18.267-40.8 40.8-40.8h32.34c13.288 0 24.06 10.772 24.06 24.06v28.911c0 11.964-4.309 23.527-12.138 32.574l-6.597 7.623c-7.97 9.209-13.034 20.574-14.55 32.658l-8.266 65.872c-.942 7.503-7.321 13.132-14.883 13.132h-25.765c-8.286.001-15.001-6.715-15.001-14.999z" fill="#1c8ae5"/></g><g><path d="m370.378 399.285v-149.031c0-22.533-18.267-40.8-40.8-40.8h-32.34c-13.288 0-24.06 10.772-24.06 24.06v28.911c0 11.964 4.309 23.527 12.138 32.574l6.597 7.623c7.97 9.209 13.034 20.574 14.55 32.658l8.266 65.872c.942 7.503 7.321 13.132 14.883 13.132h25.765c8.285.001 15.001-6.715 15.001-14.999z" fill="#1c8ae5"/></g><g><path d="m158.8 399.285v-149.031c0-22.533 18.267-40.8 40.8-40.8h-17.177c-22.533 0-40.8 18.267-40.8 40.8v149.031c0 8.284 6.716 15 15 15h17.177c-8.284 0-15-6.716-15-15z" fill="#1e6ee2"/></g><g><path d="m331.907 401.153-8.266-65.872c-1.517-12.085-6.58-23.449-14.55-32.658l-6.597-7.623c-7.829-9.046-12.138-20.61-12.138-32.573v-28.911c0-13.288 10.772-24.06 24.06-24.06h-17.177c-13.288 0-24.06 10.772-24.06 24.06v28.911c0 11.964 4.309 23.527 12.138 32.573l6.597 7.623c7.97 9.209 13.033 20.574 14.55 32.658l8.266 65.872c.942 7.503 7.321 13.132 14.883 13.132h17.177c-7.562 0-13.941-5.629-14.883-13.132z" fill="#1e6ee2"/></g></g><g><path d="m464.16 185.221c-4.143 0-7.5 3.358-7.5 7.5v286.419c0 9.849-8.012 17.861-17.86 17.861h-365.6c-9.849 0-17.86-8.012-17.86-17.861v-367.259c0-9.849 8.012-17.861 17.86-17.861h52.319c4.143 0 7.5-3.358 7.5-7.5s-3.357-7.5-7.5-7.5h-52.319c-18.119 0-32.86 14.741-32.86 32.861v367.259c0 18.119 14.741 32.86 32.86 32.86h365.6c18.119 0 32.86-14.741 32.86-32.861v-286.418c0-4.142-3.357-7.5-7.5-7.5z"/><path d="m438.8 79.021h-49.96c-4.143 0-7.5 3.358-7.5 7.5s3.357 7.5 7.5 7.5h49.96c9.849 0 17.86 8.012 17.86 17.861v50.574c0 4.142 3.357 7.5 7.5 7.5s7.5-3.358 7.5-7.5v-50.574c0-18.12-14.741-32.861-32.86-32.861z"/><path d="m102.84 124.021c-9.649 0-17.5 7.851-17.5 17.5v217.879c0 4.142 3.357 7.5 7.5 7.5s7.5-3.358 7.5-7.5v-217.88c0-1.378 1.121-2.5 2.5-2.5h47.465c1.385 4.989 3.122 9.89 5.225 14.681 4.334 9.874 14.186 16.253 25.1 16.253h150.736c10.957 0 20.867-6.509 25.248-16.583 2.04-4.689 3.731-9.479 5.084-14.352h47.462c1.379 0 2.5 1.122 2.5 2.5v307.981c0 1.378-1.121 2.5-2.5 2.5h-306.32c-1.379 0-2.5-1.122-2.5-2.5v-56.848c0-4.142-3.357-7.5-7.5-7.5s-7.5 3.358-7.5 7.5v56.848c0 9.649 7.851 17.5 17.5 17.5h306.32c9.649 0 17.5-7.851 17.5-17.5v-307.98c0-9.649-7.851-17.5-17.5-17.5h-44.422c.688-5.284 1.002-10.643.919-16.062-.437-28.551-11.893-55.473-32.257-75.806s-47.303-31.748-75.855-32.141c-.52-.007-1.04-.011-1.558-.011-29.019 0-56.309 11.182-76.996 31.587-21.062 20.773-32.661 48.504-32.661 78.084 0 4.837.311 9.624.927 14.35zm138.027 30.934 15.133-48.645 15.133 48.646h-30.266zm-51.343-112.689c17.859-17.615 41.415-27.266 66.468-27.266.446 0 .898.003 1.346.009 50.683.698 92.546 42.498 93.321 93.178.209 13.632-2.416 26.821-7.802 39.202v.001c-1.998 4.595-6.51 7.565-11.492 7.565h-44.524l-18.905-60.775c-1.635-5.256-6.432-8.787-11.936-8.787s-10.301 3.531-11.936 8.787l-18.906 60.775h-44.53c-4.962 0-9.423-2.858-11.363-7.282-5.267-11.999-7.937-24.785-7.937-38.002.001-25.534 10.014-49.472 28.196-67.405z"/><path d="m256 51.13c4.143 0 7.5-3.358 7.5-7.5v-6.17c0-4.142-3.357-7.5-7.5-7.5s-7.5 3.358-7.5 7.5v6.17c0 4.142 3.358 7.5 7.5 7.5z"/><path d="m301.421 69.944c1.919 0 3.839-.732 5.304-2.197l4.362-4.363c2.929-2.929 2.929-7.678-.001-10.607-2.928-2.929-7.677-2.928-10.606 0l-4.362 4.363c-2.929 2.929-2.929 7.678.001 10.607 1.463 1.465 3.383 2.197 5.302 2.197z"/><path d="m320.235 115.365h6.171c4.143 0 7.5-3.358 7.5-7.5s-3.357-7.5-7.5-7.5h-6.171c-4.143 0-7.5 3.358-7.5 7.5s3.357 7.5 7.5 7.5z"/><path d="m185.595 115.365h6.17c4.143 0 7.5-3.358 7.5-7.5s-3.357-7.5-7.5-7.5h-6.17c-4.143 0-7.5 3.358-7.5 7.5s3.357 7.5 7.5 7.5z"/><path d="m205.277 67.748c1.464 1.464 3.384 2.196 5.303 2.196s3.839-.732 5.304-2.197c2.929-2.929 2.929-7.678-.001-10.607l-4.363-4.363c-2.928-2.929-7.677-2.928-10.606 0-2.929 2.929-2.929 7.678.001 10.607z"/><path d="m182.387 421.785c11.318 0 20.916-8.469 22.325-19.699l8.266-65.872c1.337-10.649 5.756-20.568 12.78-28.685l6.597-7.622c9.007-10.406 13.968-23.718 13.968-37.482v-28.912c0-17.402-14.157-31.56-31.56-31.56h-32.341c-26.633 0-48.3 21.667-48.3 48.3v149.031c0 12.407 10.094 22.5 22.5 22.5h25.765zm-33.265-22.5v-149.031c0-18.362 14.938-33.3 33.3-33.3h32.341c9.131 0 16.56 7.429 16.56 16.56v28.912c0 10.159-3.661 19.984-10.31 27.666l-6.597 7.622c-8.971 10.365-14.614 23.032-16.321 36.633l-8.266 65.873c-.47 3.743-3.669 6.566-7.442 6.566h-25.765c-4.135-.001-7.5-3.365-7.5-7.501z"/><path d="m299.022 336.214 8.267 65.872c1.409 11.23 11.006 19.699 22.324 19.699h25.765c12.406 0 22.5-10.093 22.5-22.5v-149.031c0-26.633-21.667-48.3-48.3-48.3h-32.34c-17.402 0-31.56 14.158-31.56 31.56v28.912c0 13.764 4.96 27.075 13.967 37.482l6.598 7.623c7.023 8.115 11.442 18.033 12.779 28.683zm-18.344-102.7c0-9.131 7.429-16.56 16.56-16.56h32.34c18.361 0 33.3 14.938 33.3 33.3v149.031c0 4.136-3.364 7.5-7.5 7.5h-25.765c-3.772 0-6.972-2.823-7.441-6.566l-8.267-65.873c-1.707-13.601-7.351-26.268-16.32-36.632l-6.598-7.623c-6.647-7.681-10.309-17.506-10.309-27.666z"/></g></g></svg>