<svg id="Capa_1" enable-background="new 0 0 512 512" height="512" viewBox="0 0 512 512" width="512" xmlns="http://www.w3.org/2000/svg"><g><g><g><path d="m243.06 278.274-62.932-62.933 194.808-194.807c17.378-17.378 45.554-17.378 62.932 0 17.378 17.378 17.378 45.554 0 62.932z" fill="#a6d6f8"/><path d="m437.868 20.534c-12.565-12.566-30.774-16.04-46.466-10.434 6.01 2.147 11.653 5.621 16.466 10.434 17.378 17.378 17.378 45.554 0 62.932l-179.808 179.808 15 15 194.808-194.808c17.379-17.378 17.379-45.554 0-62.932z" fill="#8ecbfb"/><path d="m158.915 236.555 62.933 62.933c5.858 5.858 15.355 5.858 21.213 0 5.858-5.858 5.858-15.355 0-21.213l-62.933-62.933c-5.858-5.858-15.355-5.858-21.213 0-5.858 5.858-5.858 15.355 0 21.213z" fill="#c1e3f7"/><path d="m126.364 265.038h75v59h-75z" fill="#a6d6f8" transform="matrix(.707 -.707 .707 .707 -160.275 202.138)"/><path d="m169.521 247.161-15 15c14.757 14.757 14.757 38.682 0 53.439l-11.314 11.314 15 15 53.033-53.033z" fill="#8ecbfb"/><path d="m136.994 363.127-41.719-41.719c-5.858-5.858-5.858-15.355 0-21.213 5.858-5.858 15.355-5.858 21.213 0l41.719 41.719c5.858 5.858 5.858 15.355 0 21.213-5.857 5.858-15.355 5.858-21.213 0z" fill="#c1e3f7"/></g><g><path d="m471.915 435.838-2.251.716c-15.753 5.012-28.096 17.355-33.109 33.109l-.716 2.251c-1.097 3.447-5.975 3.447-7.072 0l-.716-2.251c-5.012-15.753-17.355-28.096-33.109-33.109l-2.251-.716c-3.447-1.097-3.447-5.975 0-7.072l2.251-.716c15.753-5.012 28.096-17.355 33.109-33.109l.716-2.251c1.097-3.447 5.975-3.447 7.072 0l.716 2.251c5.012 15.753 17.355 28.096 33.109 33.109l2.251.716c3.447 1.098 3.447 5.975 0 7.072z" fill="#eaf6ff"/><path d="m471.915 428.767-2.251-.716c-15.753-5.012-28.096-17.356-33.109-33.109l-.716-2.251c-1.097-3.447-5.975-3.447-7.072 0l-.716 2.251c-2.237 7.029-5.94 13.372-10.748 18.695 5.966 6.606 13.637 11.638 22.361 14.413 4.146 1.319 4.146 7.185 0 8.504-8.724 2.776-16.394 7.807-22.361 14.413 4.807 5.323 8.511 11.666 10.748 18.695l.716 2.251c1.097 3.447 5.975 3.447 7.072 0l.716-2.251c5.012-15.754 17.355-28.097 33.109-33.109l2.251-.716c3.447-1.096 3.447-5.974 0-7.07z" fill="#d8ecfe"/><path d="m119.31 83.233-2.251.716c-15.753 5.012-28.096 17.355-33.109 33.109l-.716 2.251c-1.097 3.447-5.975 3.447-7.072 0l-.716-2.251c-5.013-15.753-17.356-28.096-33.109-33.108l-2.251-.716c-3.447-1.097-3.447-5.975 0-7.072l2.251-.716c15.753-5.013 28.096-17.356 33.108-33.109l.716-2.251c1.097-3.447 5.975-3.447 7.072 0l.716 2.251c5.012 15.753 17.355 28.096 33.109 33.109l2.251.716c3.448 1.097 3.448 5.974.001 7.071z" fill="#eaf6ff"/><path d="m119.31 76.162-2.251-.716c-15.754-5.013-28.097-17.356-33.109-33.11l-.716-2.25c-1.097-3.447-5.975-3.447-7.072 0l-.716 2.251c-2.237 7.029-5.94 13.372-10.748 18.695 5.966 6.606 13.637 11.638 22.361 14.413 4.146 1.319 4.146 7.185 0 8.504-8.724 2.776-16.394 7.807-22.361 14.413 4.807 5.323 8.511 11.666 10.748 18.695l.716 2.251c1.097 3.447 5.975 3.447 7.072 0l.716-2.251c5.012-15.753 17.355-28.096 33.108-33.108l2.252-.716c3.447-1.096 3.447-5.974 0-7.071z" fill="#d8ecfe"/></g></g><path d="m68.299 119.333.716 2.25c1.487 4.672 5.78 7.812 10.684 7.812 4.902 0 9.195-3.139 10.683-7.813l.715-2.25c4.269-13.413 14.824-23.969 28.237-28.236l2.251-.716c4.672-1.487 7.812-5.78 7.812-10.683 0-4.902-3.14-9.195-7.812-10.683l-2.252-.716c-13.412-4.268-23.968-14.823-28.235-28.234l-.716-2.253c-1.488-4.672-5.781-7.811-10.684-7.811s-9.196 3.139-10.683 7.81l-.717 2.253c-4.268 13.413-14.822 23.968-28.235 28.235l-2.254.717c-4.67 1.487-7.809 5.78-7.809 10.682 0 4.903 3.139 9.196 7.812 10.683l2.251.716c13.412 4.268 23.967 14.823 28.236 28.237zm11.398-67.385c5.773 12.152 15.598 21.976 27.75 27.75-12.152 5.773-21.976 15.596-27.75 27.75-5.773-12.153-15.597-21.977-27.749-27.75 12.152-5.774 21.976-15.598 27.749-27.75zm394.491 369.672-2.251-.716c-13.412-4.268-23.968-14.823-28.236-28.237l-.716-2.25c-1.487-4.672-5.78-7.812-10.684-7.812-4.902 0-9.195 3.139-10.683 7.813l-.715 2.25c-4.269 13.413-14.824 23.969-28.237 28.236l-2.251.716c-4.672 1.487-7.812 5.78-7.812 10.683 0 4.902 3.14 9.195 7.812 10.683l2.252.716c13.412 4.268 23.968 14.823 28.235 28.234l.716 2.253c1.487 4.672 5.78 7.812 10.683 7.812s9.196-3.139 10.683-7.81l.717-2.253c4.269-13.413 14.823-23.968 28.235-28.235l2.252-.716h.002c4.671-1.487 7.81-5.78 7.81-10.682 0-4.905-3.139-9.198-7.812-10.685zm-41.885 38.432c-5.773-12.152-15.598-21.976-27.75-27.75 12.152-5.773 21.976-15.596 27.75-27.75 5.773 12.152 15.598 21.976 27.749 27.75-12.152 5.774-21.976 15.598-27.749 27.75zm-169.542-125.635c-14.01 0-27.18 5.455-37.084 15.359l-24.825 24.825c-2.929 2.929-2.929 7.678 0 10.606 2.929 2.929 7.677 2.929 10.607 0l24.825-24.825c7.071-7.071 16.474-10.966 26.477-10.966 10.002 0 19.404 3.895 26.477 10.966 7.069 7.07 10.963 16.473 10.963 26.477s-3.894 19.407-10.964 26.477l-85.86 85.86c-2.929 2.929-2.929 7.678 0 10.606 1.465 1.464 3.385 2.197 5.304 2.197s3.839-.732 5.304-2.197l85.86-85.86c9.902-9.903 15.356-23.073 15.356-37.083s-5.454-27.181-15.356-37.083c-9.906-9.904-23.075-15.359-37.084-15.359zm-86.707 64.983-43.456 43.457c-14.603 14.599-38.357 14.598-52.954 0l-.08-.08c-14.6-14.6-14.6-38.354 0-52.954l36.76-36.76 15.367 15.367h.001c8.772 8.772 23.049 8.772 31.82 0 6.91-6.911 8.352-17.228 4.375-25.588l43.354-43.355 5.303 5.303c8.575 8.66 23.16 8.661 31.82 0 6.911-6.911 8.352-17.228 4.375-25.588l190.433-190.432c9.821-9.821 15.23-22.88 15.23-36.77s-5.409-26.948-15.23-36.77c-9.821-9.821-22.88-15.23-36.77-15.23s-26.948 5.409-36.771 15.23l-48.657 48.658c-2.929 2.929-2.929 7.678 0 10.606 2.93 2.929 7.678 2.929 10.607 0l48.656-48.658c6.991-6.987 16.283-10.836 26.165-10.836s19.174 3.849 26.162 10.837c6.989 6.989 10.838 16.28 10.838 26.163s-3.849 19.174-10.838 26.163l-189.503 189.505-10.253-10.253 144.706-144.706c2.929-2.929 2.929-7.678 0-10.606-2.93-2.929-7.678-2.929-10.607 0l-144.706 144.705-10.607-10.607 144.706-144.705c2.929-2.929 2.929-7.678 0-10.606-2.93-2.929-7.678-2.929-10.607 0l-144.706 144.704-10.253-10.253 116.016-116.014c2.929-2.929 2.929-7.678 0-10.606-2.93-2.929-7.678-2.929-10.607 0l-116.936 116.935c-8.474-4.078-18.915-2.297-25.594 4.382-8.675 8.675-8.748 23.152-.001 31.82l5.303 5.303-43.348 43.347c-8.474-4.078-18.915-2.297-25.594 4.382-8.674 8.674-8.749 23.152-.001 31.82l15.745 15.745-36.761 36.76c-20.447 20.447-20.447 53.718 0 74.167l.08.08c10.226 10.225 23.652 15.337 37.084 15.335 13.428-.001 26.86-5.113 37.084-15.335l43.457-43.457c2.929-2.929 2.929-7.678 0-10.606-2.93-2.928-7.678-2.928-10.607.001zm-11.835-178.755c2.883-2.884 7.734-2.901 10.605 0l62.933 62.933c2.925 2.924 2.925 7.682.001 10.606-2.887 2.887-7.742 2.894-10.606 0l-62.933-62.933h-.001c-2.899-2.871-2.884-7.72.001-10.606zm5.302 37.123 31.112 31.113-42.426 42.426-31.113-31.113zm-68.943 58.336c-2.899-2.872-2.884-7.721.001-10.606 2.883-2.884 7.734-2.901 10.605 0l41.72 41.719c2.925 2.924 2.925 7.683.001 10.606-2.926 2.924-7.683 2.925-10.608 0h.001z"/></g></svg>