<svg id="Capa_1" enable-background="new 0 0 512.001 512.001" height="512" viewBox="0 0 512.001 512.001" width="512" xmlns="http://www.w3.org/2000/svg"><g><g><path d="m154.361 422.09-7.68 82.41h218.64l-7.79-83.63-11.05-118.64h-47.36-86.24-47.36z" fill="#daf3f6"/><path d="m357.531 420.87-11.05-118.64h-20.597l11.05 118.64 7.79 83.63h20.597z" fill="#a6e7f0"/><path d="m165.521 302.23-13.55 145.46-5.29 56.81h-69.2l25.01-148.94c2.59-15.4 10.54-28.73 21.75-38.21 4.96-4.2 10.55-7.64 16.6-10.17 7.63-3.2 15.98-4.95 24.68-4.95z" fill="#ffe5c2"/><path d="m165.521 302.23-13.55 145.46c-16.39-14.3-25.67-36.36-22.38-59.89l11.25-80.62c7.63-3.2 15.98-4.95 24.68-4.95z" fill="#fed2a4"/><path d="m144.6 305.756-18.516 198.744h20.596l18.844-202.274c-7.298.001-14.341 1.248-20.924 3.53z" fill="#fed2a4"/><path d="m434.518 504.5h-69.197l-18.845-202.274c31.215 0 57.864 22.547 63.033 53.331z" fill="#ffe5c2"/><path d="m409.509 355.558c-5.169-30.784-31.818-53.331-63.033-53.331l.329 3.529c21.571 7.479 38.147 26.216 42.107 49.802l25.009 148.942h20.596z" fill="#fed2a4"/><path d="m346.481 277.98 14.791 110.173c5.404 40.255-25.904 76.047-66.52 76.047h-78.092c-40.758 0-72.108-36.031-66.472-76.397l15.333-109.823h47.36v38.68c0 23.815 19.305 43.12 43.12 43.12 23.815 0 43.12-19.306 43.12-43.12v-38.68z" fill="#6bd9e7"/><g fill="#2ed1e2"><path d="m235.404 359.78c3.551 0 6.997-.438 10.298-1.247-18.84-4.618-32.822-21.609-32.822-41.873v-38.68h-20.596v38.68c0 23.815 19.306 43.12 43.12 43.12z"/><path d="m361.271 388.154-14.79-110.174h-20.596l14.791 110.173c5.404 40.255-25.904 76.047-66.52 76.047h20.596c40.615 0 71.924-35.792 66.519-76.046z"/></g><path d="m273.09 430.14h-34.178c-9.714 0-17.589-7.875-17.589-17.589 0-9.714 7.875-17.589 17.589-17.589h34.178c9.714 0 17.589 7.875 17.589 17.589 0 9.715-7.875 17.589-17.589 17.589z" fill="#ffe270"/><path d="m273.09 394.963h-20.596c9.714 0 17.589 7.875 17.589 17.589 0 9.714-7.875 17.589-17.589 17.589h20.596c9.714 0 17.589-7.875 17.589-17.589 0-9.714-7.875-17.589-17.589-17.589z" fill="#ffd15b"/><path d="m146.681 228.777h-19.659c-11.606 0-21.014-9.408-21.014-21.014v-24.001c0-11.606 9.408-21.014 21.014-21.014h19.656z" fill="#ffe5c2"/><path d="m146.677 162.748h-19.656c-.318 0-.627.034-.941.047l.004 65.935c.313.014.621.047.937.047h19.659z" fill="#fed2a4"/><path d="m384.98 228.777h-19.659l.004-66.029h19.656c11.606 0 21.014 9.408 21.014 21.014v24.001c0 11.606-9.409 21.014-21.015 21.014z" fill="#ffe5c2"/><path d="m384.98 162.748h-19.656v.047c11.166.496 20.074 9.678 20.074 20.967v24.001c0 11.29-8.91 20.473-20.077 20.967v.047h19.659c11.606 0 21.014-9.408 21.014-21.014v-24.001c0-11.606-9.408-21.014-21.014-21.014z" fill="#fed2a4"/><path d="m365.321 150.04v81.59c0 49.91-40.46 90.37-90.37 90.37h-37.9c-49.91 0-90.37-40.46-90.37-90.37v-81.59c0-26.05 13.36-48.98 33.61-62.29 10.6-6.98 23.08-11.32 36.52-12.1 1.45-.09 2.92-.13 4.39-.13h69.6c41.16 0 74.52 33.36 74.52 74.52z" fill="#ffe5c2"/><path d="m216.811 75.65v29.11l-14.14 9.45c-7.42 4.96-17.51.68-19.09-8.12l-3.29-18.34c10.6-6.98 23.08-11.32 36.52-12.1z" fill="#fed2a4"/><path d="m290.802 75.522h-20.596c41.156 0 74.519 33.363 74.519 74.519v81.595c0 49.909-40.459 90.368-90.368 90.368h20.596c49.909 0 90.368-40.459 90.368-90.368v-81.595c0-41.156-33.364-74.519-74.519-74.519z" fill="#fed2a4"/><g fill="#ffc8dd"><ellipse cx="314.724" cy="231.873" rx="15.141" ry="8.553"/><ellipse cx="197.277" cy="231.873" rx="15.141" ry="8.553"/></g><path d="m237.404 75.522h37.193v29.236h-37.193z" fill="#a2aee6"/><path d="m254.001 75.522h20.596v29.236h-20.596z" fill="#8795de"/><path d="m274.597 75.522 21.672-6.256c8.83-2.549 17.267 5.06 15.64 14.106l-4.087 22.723c-1.582 8.794-11.664 13.078-19.092 8.112l-14.133-9.449z" fill="#a2aee6"/><path d="m296.27 69.266-8.986 2.594c3.089 2.711 4.854 6.925 4.029 11.512l-4.087 22.723c-.379 2.105-1.254 3.942-2.454 5.465l3.958 2.646c7.428 4.966 17.51.682 19.092-8.112l4.087-22.723c1.627-9.045-6.809-16.654-15.639-14.105z" fill="#8795de"/><path d="m237.404 75.522-21.672-6.256c-8.83-2.549-17.267 5.06-15.64 14.106l4.087 22.723c1.582 8.794 11.664 13.078 19.092 8.112l14.133-9.449z" fill="#a2aee6"/><path d="m215.732 69.266c-4.353-1.256-8.607-.042-11.61 2.594l12.686 3.662v29.236l-10.175 6.803c3.812 4.84 10.988 6.424 16.638 2.646l14.133-9.449v-29.236z" fill="#8795de"/></g><g><path d="m256.001 206.788c-4.143 0-7.5 3.358-7.5 7.5v10.404c0 4.142 3.357 7.5 7.5 7.5h6.891c4.143 0 7.5-3.358 7.5-7.5 0-3.937-3.033-7.166-6.891-7.476v-2.929c0-4.142-3.358-7.499-7.5-7.499z"/><path d="m196.56 227.792c4.143 0 7.5-3.358 7.5-7.5v-13.242c0-4.142-3.357-7.5-7.5-7.5s-7.5 3.358-7.5 7.5v13.242c0 4.142 3.358 7.5 7.5 7.5z"/><path d="m322.941 220.292v-13.242c0-4.142-3.357-7.5-7.5-7.5s-7.5 3.358-7.5 7.5v13.242c0 4.142 3.357 7.5 7.5 7.5s7.5-3.358 7.5-7.5z"/><path d="m235.562 249.806c-2.149-3.542-6.762-4.668-10.304-2.519-3.54 2.15-4.668 6.763-2.519 10.303 7.12 11.729 19.555 18.73 33.261 18.73s26.141-7.002 33.261-18.73c2.149-3.541 1.021-8.153-2.519-10.303-3.543-2.149-8.154-1.022-10.304 2.519-4.377 7.21-12.018 11.515-20.438 11.515s-16.061-4.305-20.438-11.515z"/><path d="m419.612 415.713c4.085-.686 6.84-4.554 6.154-8.639l-8.859-52.758c-2.8-16.645-11.431-31.807-24.301-42.691-10.27-8.693-22.942-14.322-36.216-16.191l-1.076-8.013c10.2-14.647 16.504-32.199 17.394-51.145h12.272c15.723 0 28.515-12.792 28.515-28.514v-24.001c0-15.723-12.792-28.514-28.515-28.514h-12.159v-5.208c0-18.083-5.768-35.229-16.679-49.584-9.766-12.849-23.329-22.65-38.496-27.916-1.104-2.283-2.653-4.371-4.612-6.138-5.144-4.64-12.188-6.262-18.845-4.341l-20.647 5.96h-9.445c.651-5.894 1.994-14.456 4.741-23.09 6.002-18.869 15.57-28.947 28.438-29.953 4.13-.323 7.216-3.932 6.894-8.062-.322-4.129-3.918-7.217-8.062-6.893-13.439 1.05-31.56 8.905-41.565 40.36-3.375 10.611-4.871 20.979-5.531 27.637h-10.554l-20.647-5.96c-6.657-1.92-13.699-.297-18.845 4.342-5.144 4.639-7.482 11.479-6.257 18.297l4.086 22.724c1.192 6.628 5.605 12.157 11.804 14.791 2.51 1.066 5.156 1.592 7.791 1.592 3.873 0 7.717-1.137 11.049-3.364l12.24-8.184h32.642l12.24 8.184c3.331 2.228 7.175 3.364 11.048 3.364 2.634 0 5.282-.526 7.791-1.592 6.198-2.633 10.611-8.163 11.804-14.792l3.308-18.394c23.535 10.734 39.309 34.628 39.309 61.013v81.59c0 45.695-37.176 82.87-82.87 82.87h-37.9c-45.694 0-82.87-37.175-82.87-82.87v-81.59c0-17.939 6.994-34.791 19.692-47.452 2.934-2.925 2.941-7.673.017-10.607-2.926-2.933-7.675-2.94-10.606-.016-15.543 15.496-24.103 36.12-24.103 58.075v5.208h-12.159c-15.723 0-28.515 12.792-28.515 28.514v24.001c0 15.723 12.792 28.514 28.515 28.514h12.272c.889 18.914 7.173 36.438 17.343 51.071l-1.129 8.09c-13.328 1.849-25.709 7.377-36.109 16.186-12.873 10.886-21.504 26.048-24.304 42.694l-25.01 148.94c-.686 4.085 2.069 7.953 6.154 8.639 3.178.543 7.371-1.418 8.639-6.154l25.01-148.938c2.211-13.15 9.028-25.128 19.201-33.73 7.092-6.007 15.347-10.084 24.24-12.025l-10.565 75.714c-1.732 12.392-.288 24.851 3.973 36.314l-1.83 19.635c-7.026-6.477-14.142-9.252-14.626-9.435-3.86-1.464-8.152.475-9.636 4.324-1.483 3.85.441 8.183 4.282 9.688.214-.173 13.697 6.216 17.822 18.569l-3.229 34.647-.308 3.3c-.361 3.867 2.282 7.321 6.012 8.054 3.466.742 8.11-1.496 8.924-6.662l5.584-59.906c13.448 16.159 35.246 26.56 56.929 26.41h78.09c21.37.03 43.542-9.862 57.462-27.059l5.641 60.554c.362 3.888 3.631 6.805 7.459 6.805.232 0 .468-.011.704-.033 4.125-.384 7.156-4.039 6.772-8.164l-3.644-39.118c4.535-12.177 17.031-17.275 17.333-17.396 3.851-1.48 5.785-5.796 4.322-9.658-1.469-3.875-5.8-5.824-9.671-4.356-.471.178-7.234 2.81-14.079 8.932l-1.903-20.431c3.851-10.979 5.138-22.829 3.556-34.625l-10.224-76.146c8.966 1.927 17.289 6.02 24.438 12.071 10.168 8.599 16.985 20.577 19.196 33.726l8.859 52.756c.615 3.665 3.791 6.259 7.388 6.259.413-.001.831-.035 1.252-.106zm-200.509-307.741c-3.202 1.334-5.46 1.459-7.543-3.204l-4.086-22.724c.027-3.315 1.209-6.175 6.178-5.572l16.252 4.691v19.587zm25.801-24.95h22.193v14.236h-22.193zm59.623-.978-4.086 22.722c-.423 2.352-2.173 3.33-2.905 3.641-.731.311-2.649.892-4.638-.436l-10.801-7.221v-19.587l16.252-4.691c2.358-.682 4.03.52 4.638 1.068.608.549 1.976 2.085 1.54 4.504zm68.298 88.204h12.155c7.452 0 13.515 6.062 13.515 13.514v24.001c0 7.452-6.062 13.514-13.515 13.514h-12.159zm-259.318 37.515v-24.001c0-7.452 6.062-13.514 13.515-13.514h12.155l.004 51.029h-12.159c-7.453 0-13.515-6.062-13.515-13.514zm161.444 121.737c4.988 0 9.889-.377 14.677-1.101-1.75 5.011-4.61 9.611-8.437 13.444-6.739 6.73-15.686 10.437-25.19 10.437-15.544 0-28.805-9.912-33.651-23.884 4.797.726 9.705 1.104 14.701 1.104zm64.668 106.84c-11.319 12.939-27.674 20.36-44.868 20.36h-78.09c-17.258 0-33.651-7.467-44.979-20.486-11.325-13.018-16.451-30.286-14.063-47.378.157-1.126 11.883-85.156 12.042-86.298 10.255 9.75 22.615 17.304 36.319 21.904 3.743 24.412 24.76 42.837 50.02 42.837 13.508 0 26.219-5.264 35.797-14.83 7.642-7.653 12.575-17.447 14.212-28.004 13.657-4.582 25.979-12.099 36.213-21.798l11.614 86.499c2.288 17.05-2.895 34.251-14.217 47.194z"/><path d="m441.917 503.259-10.31-61.401c-.687-4.085-4.557-6.841-8.639-6.155-4.085.686-6.84 4.553-6.154 8.638l10.31 61.401c.615 3.665 3.791 6.259 7.388 6.259.412 0 .831-.034 1.251-.104 4.084-.686 6.839-4.553 6.154-8.638z"/><path d="m273.09 387.463h-34.178c-13.834 0-25.089 11.255-25.089 25.089s11.255 25.089 25.089 25.089h34.178c13.834 0 25.089-11.255 25.089-25.089s-11.255-25.089-25.089-25.089zm0 35.178h-34.178c-5.563 0-10.089-4.526-10.089-10.089s4.525-10.089 10.089-10.089h34.178c5.563 0 10.089 4.526 10.089 10.089s-4.526 10.089-10.089 10.089z"/></g></g></svg>