<svg id="Capa_1" enable-background="new 0 0 512 512" height="512" viewBox="0 0 512 512" width="512" xmlns="http://www.w3.org/2000/svg"><g><g><path d="m72.5 504.5c-8.6 0-15.5-6.9-15.5-15.5v-12.8c0-43 26-80.1 63.2-96.3 5-2.2 10.2 6 15.6 4.6 8.4-2.2 17.1-13.3 26.2-13.3v31c-5.1 0-10.1-9.5-14.9-8.5-5.9 1.2-11.5 13.1-16.8 15.6-25 11.9-42.3 37.4-42.3 66.8v12.9c0 8.6-6.9 15.5-15.5 15.5z" fill="#8aaadc"/><path d="m308.3 160.4h-54.6c-5.4 0-10.7-10.3-16-10.9-6.2-.7-12.3 8.1-18.2 6.6-58.4-15.2-101.7-68.4-101.7-131.5 0-9.4 7.6-17 17-17s17 7.6 17 17c0 51.1 37.8 93.5 86.9 100.7 4.9.7 9.8 11.1 14.9 11.1l54.6-10z" fill="#e94444"/><path d="m156.7 402.4c-9.5.7-18.6 3.1-26.8 7.1-4.7-9.3-8-19.3-9.7-29.6 9.1-4 18.8-6.7 29-7.9.9 10.5 3.5 20.8 7.5 30.4z" fill="#7398d4"/><path d="m267.8 126.3c-8.5 9.4-15.3 20.7-19.9 33.9-9.8-.4-19.3-1.9-28.4-4.2 4.7-11.9 11.3-22.2 19.3-30.8 4.9.7 9.8 1.1 14.9 1.1z" fill="#d83131"/><path d="m329.3 94.1c-39.3 5.6-75.6 33.1-85.1 80-.1.3-.1.6-.1.9-6.4 44.2-27.1 85.3-61.5 113.9-1 .8-1.9 1.6-2.7 2.4-62.9 60.3-23.4 161.5 54.1 173.1 1 .1 2 .3 3 .4.8.1 1.5.2 2.3.2 8.4.8 17.2-.4 26.3-1.9 1.3-.2 2.7-.4 4-.7 121.8-21.2 202.4-136.4 181-258.3-3.1-17.6-8.2-34.4-14.9-50.2-7.8-18.2-18.5-31.2-32.3-41.2-20.2-14.6-45.1-21.5-69.1-19.2-.6.1-1.3.1-1.9.2z" fill="#f47c7c"/><path d="m269.5 463.5c-1.3.2-2.7.5-4 .7-9.2 1.5-18.1 1.7-26.6.8 2.2-.2 4.4-.5 6.6-.8 1.3-.2 2.7-.4 4-.7 121.9-21.3 203.5-137.5 182.1-259.4-3.1-17.6-8.2-34.4-14.9-50.2-16.2-37.6-48.6-57.2-82.4-60.4 40.5-3.8 83 15.4 102.4 60.4 6.8 15.8 11.9 32.5 14.9 50.2 21.4 121.9-60.2 238.1-182.1 259.4z" fill="#ee6161"/><path d="m263.5 428c102-21.4 170.6-115.2 152.6-217.9-2.6-14.6-6.8-28.9-12.6-42.4-14.2-33-43.6-40.9-67.3-38.3l-2 .2c-1.3.2-3-.5-5-.1-14.2 3.1-42.9 14-50.6 50.9-4.1 27.6-12.8 53.6-25.6 76.8-12.4 22.4-27.6 42.2-47 58.4-.5.4-.7.6-.7.6-.1.1-.1.1-.2.2-26.6 25.6-20.9 55.4-17.2 67.1 6.2 19.5 22.2 41 51.2 45.3.1 0 11.9 1.9 24.4-.8z" fill="#e94444"/><path d="m417 270.1c-1 7-2.4 12.8-4.2 19.4-6.1 22.6-15.5 43.3-29.5 62-27.9 37.5-70 66-119.8 76.5-12.5 2.6-24.4.8-24.4.8-1.7-.2-3.3.5-4.9.1-26-6-41.4-27-47.3-45.4-3.7-11.6-9.5-41.5 17.2-67.1.1-.1.1-.1.2-.1 0 0 .2-.2.7-.6 19.4-16.1 35.6-35.9 48-58.4 13.7 1.5 14.8 11.8 30.5 11.8 16.9 0 16.9-12 33.8-12s16.9 12 33.9 12 16.9-12 33.8-12c1.6 0 3 .1 4.3.3 12.6 1.8 13.2 12.3 27.7 12.7z" fill="#f7e365"/><path d="m263.5 428c-12.5 2.6-24.4.8-24.4.8-1.7-.2-3.3.5-4.9.1 11.8-2.5 23.7-5 35.4-9.4 36.6-13.7 71.1-36.9 92.1-64.6 19.1-25.1 24.8-54.8 27.6-86.6.3-3.6-.4-7.2-.1-10.8 1.3-15.4.6-31.2-2.2-47.3-2.6-14.6-6.8-28.9-12.6-42.4-9.9-22.9-27.5-34.2-45.3-38.1 2-.4 3.7-.7 5-.9l2-.2c23.7-2.7 54 6.2 68.3 39.3 5.8 13.5 10 27.7 12.6 42.4 3.5 20.2 3.7 40 .9 59.1-4.6 31.1-18 60-36.5 84.7-27.8 37.1-68.6 63.6-117.9 73.9z" fill="#d83131"/><path d="m418 269.1c-2.7 18.3-8.1 35.9-15.8 52.3-25.3 53.9-75.9 94.5-138.7 107.7-12.5 2.6-24.4.8-24.4.8-1.7-.2-3.3-.5-4.9-.9 85.7-18.4 148.3-88.5 155.1-171.5 12.6 1.7 14.2 11.2 28.7 11.6z" fill="#ecc52e"/></g><g><path d="m335.4 121-2 .2c-.1 0-.1 0-.2 0-12 1.7-52.1 10.9-61.9 57.7 0 .1-.1.3-.1.4-7.7 52.5-32.9 98.9-71 130.5-.8.7-1.1 1-1.1 1l-.1.2c-29.7 28.5-23.3 61.8-19.1 74.8 6.9 21.7 25.8 46.6 58.1 51.4.3 0 4.8.7 11.2.7 4.6 0 10.2-.4 15.9-1.6 107.8-22.6 177.9-122.6 159.5-227.6-2.7-15.2-7.1-30-13.1-44-15.9-36.7-49.7-46.6-76.1-43.7zm-73.4 300.7c-10.9 2.3-21.5.7-21.7.7-25.6-3.8-40.6-23.8-46.1-41.2-3.3-10.3-8.4-36.7 15.3-59.5.1-.1.2-.2.4-.3 18.7-15.5 34.5-34.3 46.9-55.5 1.9.8 3.6 2 5.5 3.3 4.6 3.3 10.4 7.4 21.3 7.4s16.6-4.1 21.3-7.4c3.9-2.8 6.5-4.6 12.6-4.6s8.7 1.8 12.6 4.6c4.6 3.3 10.4 7.4 21.3 7.4s16.6-4.1 21.3-7.4c3.9-2.8 6.5-4.6 12.6-4.6s8.7 1.8 12.6 4.6c3 2.1 6.6 4.6 11.7 6.1-13.8 71-70.2 130.1-147.6 146.4zm149.5-161.5c-1.8-.8-3.3-1.9-5.2-3.2-4.6-3.3-10.4-7.4-21.3-7.4s-16.6 4.1-21.3 7.4c-3.9 2.8-6.5 4.6-12.6 4.6s-8.7-1.8-12.6-4.6c-4.6-3.3-10.4-7.4-21.3-7.4s-16.6 4.1-21.3 7.4c-3.9 2.8-6.5 4.6-12.6 4.6s-8.7-1.8-12.6-4.6c-2-1.4-4.2-3-7-4.3 10.8-21.7 18.4-45.6 22.1-70.8 7.8-36.9 39.5-44.3 49.2-45.7l1.9-.2c21-2.4 47.9 5.5 60.5 34.8 5.6 13 9.7 26.6 12.1 40.7 3.2 16.4 3.7 32.8 2 48.7z"/><path d="m459 202.8c-.2-.9-.3-1.7-.5-2.6-.8-4.1-4.7-6.8-8.7-6-4.1.8-6.8 4.7-6 8.7.1.8.3 1.6.4 2.4 6.7 38.1 3.1 77.3-10.5 113.4-13.1 35-35.2 66.2-63.9 90.2-3.2 2.7-3.6 7.4-.9 10.6 1.5 1.8 3.6 2.7 5.8 2.7 1.7 0 3.4-.6 4.8-1.8 30.6-25.7 54.2-59 68.3-96.4 14.5-38.5 18.3-80.4 11.2-121.2z"/></g></g><g><path d="m335.4 121c-.1 0-2.2.3-2.2.3-12 1.7-52.1 10.9-61.9 57.7 0 .1-.1.3-.1.4-7.7 52.5-32.9 98.9-71 130.5-1 .8-1 .9-1.2 1.1-29.7 28.5-23.3 61.8-19.1 74.8 6.9 21.7 25.8 46.6 58.1 51.4.3 0 4.8.7 11.2.7 4.6 0 10.2-.4 15.9-1.6 107.8-22.6 177.9-122.6 159.5-227.6-2.7-15.2-7.1-30-13.1-44-15.9-36.7-49.7-46.6-76.1-43.7zm-73.4 300.7c-10.9 2.3-21.5.7-21.7.7-25.6-3.8-40.6-23.8-46.1-41.2-3.4-10.2-8.2-37.5 15.7-59.8 18.7-15.5 34.5-34.3 46.9-55.5 1.9.8 3.6 2 5.5 3.3 4.6 3.3 10.4 7.4 21.3 7.4s16.6-4.1 21.3-7.4c3.9-2.8 6.5-4.6 12.6-4.6s8.7 1.8 12.6 4.6c4.6 3.3 10.4 7.4 21.3 7.4s16.6-4.1 21.3-7.4c3.9-2.8 6.5-4.6 12.6-4.6s8.7 1.8 12.6 4.6c3 2.1 6.6 4.6 11.7 6.1-13.8 71-70.2 130.1-147.6 146.4zm149.5-161.5c-1.8-.8-3.3-1.9-5.2-3.2-4.6-3.3-10.4-7.4-21.3-7.4s-16.6 4.1-21.3 7.4c-3.9 2.8-6.5 4.6-12.6 4.6s-8.7-1.8-12.6-4.6c-4.6-3.3-10.4-7.4-21.3-7.4s-16.6 4.1-21.3 7.4c-3.9 2.8-6.5 4.6-12.6 4.6s-8.7-1.8-12.6-4.6c-2-1.4-4.2-3-7-4.3 10.8-21.7 18.4-45.6 22.1-70.8 7.8-36.9 39.5-44.3 49.2-45.7l1.9-.2c21-2.4 47.9 5.5 60.5 34.8 5.6 13 9.7 26.6 12.1 40.7 3.2 16.4 3.7 32.8 2 48.7z"/><path d="m459 202.8c-.2-.9-.3-1.7-.5-2.6-.8-4.1-4.7-6.8-8.7-6-4.1.8-6.8 4.7-6 8.7.1.8.3 1.6.4 2.4 6.7 38.1 3.1 77.3-10.5 113.4-13.1 35-35.2 66.2-63.9 90.2-3.2 2.7-3.6 7.4-.9 10.6 1.5 1.8 3.6 2.7 5.8 2.7 1.7 0 3.4-.6 4.8-1.8 30.6-25.7 54.2-59 68.3-96.4 14.5-38.5 18.3-80.4 11.2-121.2z"/><path d="m344.2 427.4c-23.3 14.3-48.8 23.9-76 28.7-1.3.2-2.6.4-3.9.6-21.2 3.3-41.8-.2-59.5-10.1-16.4-9.2-29.7-23.4-38.5-40.9-8.7-17.6-12-36.8-9.3-55.5 2.8-20.2 12.5-38.8 28-53.7.7-.6 1.4-1.3 2.3-2 34.4-28.6 57.2-70.7 64.1-118.6 0-.2 0-.3.1-.4 4.3-21.2 14.8-39.4 30.4-52.6 14.5-12.3 32.5-19.9 52.1-21.9 19.5-2 38.7 1.7 55.3 10.7 17.9 9.7 31.9 25.3 40.4 45.1 2.2 5 4.2 10.2 6 15.4 1.3 3.9 5.6 6 9.5 4.7s6-5.6 4.7-9.5c-1.9-5.6-4-11.1-6.4-16.5-19.1-44.4-62.7-69.8-111-64.8-27 2.8-50.6 14.6-67.9 32.7h-11c-52 0-94.3-42.3-94.3-94.3 0-13.5-11-24.5-24.5-24.5s-24.5 11-24.5 24.5c0 37.2 14.2 72.4 40.1 99.3 23.5 24.5 54.4 39.6 87.8 43.2-.5 1.8-.9 3.7-1.3 5.5-.1.4-.2.8-.2 1.3-6.4 44.2-27.3 83-58.8 109.2-1.1.9-2.2 1.9-3.1 2.8-22.7 21.8-34.2 50.5-33.5 79.9-17.8 3.3-34.6 11-49 22.3-3.2 2.6-3.8 7.3-1.2 10.5 1.5 1.9 3.7 2.8 5.9 2.8 1.6 0 3.3-.5 4.6-1.6 12.1-9.5 26.1-16.1 41.1-19.1.9 5.2 2.1 10.4 3.8 15.6-37.7 7.3-65.9 40.7-65.9 79.9v12.9c0 4.4-3.6 8-8 8s-8-3.6-8-8v-12.8c0-19.1 5.5-37.6 16-53.5 2.3-3.5 1.3-8.1-2.1-10.4-3.5-2.3-8.1-1.3-10.4 2.1-12.1 18.4-18.5 39.7-18.5 61.7v12.9c0 12.7 10.3 23 23 23s23-10.3 23-23v-12.8c0-33 24.5-60.9 56.6-65.7.3.6.6 1.3.9 1.9 18.9 38 55.4 60.5 96.2 60.5 5.8 0 11.6-.5 17.5-1.4 1.4-.2 2.7-.4 4.1-.7 29-5.1 56.3-15.4 81.2-30.7 3.5-2.2 4.6-6.8 2.5-10.3-2.3-3.4-6.9-4.5-10.4-2.4zm-183-314c-23.1-24-35.9-55.6-35.9-88.9 0-5.3 4.3-9.5 9.5-9.5s9.5 4.3 9.5 9.5c0 59.9 48.5 108.7 108.3 109.3-3.8 5.8-7.1 12-9.8 18.6-30.9-2.6-59.8-16.3-81.6-39z"/></g></svg>