<svg id="Capa_1" enable-background="new 0 0 512.002 512.002" height="512" viewBox="0 0 512.002 512.002" width="512" xmlns="http://www.w3.org/2000/svg"><g><g><path d="m280.662 108.465c-.511 0-1.006.013-1.509.02l.572 6.573-17.813 7.991v52l8.661 9.559v22.58l23.437 19.028v45.964l42.536 42.536c51.55-87.335 9.866-206.251-55.884-206.251z" fill="#ffb1a0"/><path d="m281.162 204.897c-9.364-12.905-14.901-28.767-14.901-45.93 0-19.173 6.901-36.728 18.341-50.341-1.304-.095-2.615-.161-3.94-.161-65.75 0-64.25 54.75-64.25 54.75l64.75 52.569z" fill="#ffa68e"/><path d="m232.588 249.397c1.332 41.06-17.925 53.379-28.983 69.376-7.316 10.585-29.528 46.351 4.807 76.565 2.361 2.077 4.776 3.798 7.23 5.231 23.497-7.843 45.9-29.591 58.477-42.169 11.441-11.441 28.004-18.509 40.424-22.533v-5.404z" fill="#ffcebe"/><path d="m209.119 393.734c-33.333-29.333-11.77-64.057-4.667-74.333 10.98-15.885 30.301-28.016 28.031-70.107l-39.237-38.813h-4.09c18.889 74.357-7.951 88.358-21.703 108.253-7.103 10.277-28.667 45 4.667 74.333 14.166 12.466 30.261 12.477 45.755 6.719-2.983-1.552-5.909-3.546-8.756-6.052z" fill="#ffb1a0"/><path d="m310.988 88.214h-8.84l-27.59 26.752c.686-.032 1.373-.062 2.061-.065 40.589-.201 113.751 83.625 59.85 199.736l.077.077c64.282-90.387 36.008-199.542-25.558-226.5z" fill="#ffcebe"/><path d="m229.955 160.401c-8.5-21 18.688-45.361 46.664-45.5 1.014-.005 2.054.057 3.107.156 7.808-11.508 18.6-20.822 31.262-26.843-3.938-1.724-8.008-3.121-12.203-4.146-57.811-14.131-84 18.667-100 43.333-8.109 12.501-17.926 19.774-25.641 23.912l-1.149 4.901 58.888 57.777 21.923-22.943v-4.229c-6.836-4.376-17.384-12.911-22.851-26.418z" fill="#ffb1a0"/><path d="m301.937 211.918c-7.349-3.517-15.166-4.474-22.337-1.902-14.747 5.289-23.062 16.763-26.679 23.051v3.312l35.241 35.8h5.847c16.821-20.178 16.348-42.921 7.928-60.261z" fill="#ffdecf"/><path d="m253.622 233.124c3.565-6.199 11.762-17.51 26.299-22.723 7.137-2.559 14.923-1.577 22.228 1.972-9.465-19.924-29.411-32.883-45.895-26.972-14.537 5.213-22.734 16.524-26.299 22.723v4.924l23.667 24.042z" fill="#ffcebe"/><path d="m268.802 284.965-17.738-17.784c-.442 2.62-.999 5.197-1.742 7.662-4.965 16.485-7.89 32.144-.719 40.116 8.791-4.772 17.006-13.961 21.17-24.172z" fill="#ffb1a0"/><path d="m249.419 275.276c.771-2.559 1.338-5.24 1.773-7.967l-19.155-19.205h-4.947c.308 8.757-.207 18.615-2.784 27.172-6.325 21-9.18 40.601 10 43 4.922.616 10.296-.933 15.42-3.951-8.05-7.193-5.233-22.696-.307-39.049z" fill="#ffa68e"/><g><path d="m504.755 256.001c0-137.227-111.231-248.474-248.452-248.5-68.458 12.981-127.144 53.54-164.076 109.694 2.256.019 4.517.874 6.253 2.61l293.969 293.97c3.759 3.759 3.439 9.975-.724 13.281-83.718 66.472-204.94 62.626-284.32-11.531 36.894 45.345 89.178 77.653 148.898 88.977 137.221-.027 248.452-111.274 248.452-248.501zm-384.697-157.774c-3.759-3.759-3.439-9.975.724-13.281 85.651-68.007 210.566-62.426 289.759 16.767s84.774 204.108 16.767 289.76c-3.306 4.163-9.521 4.483-13.28.724z" fill="#ff76aa"/><g><path d="m121.713 427.801c-6.843-5.372-13.441-11.207-19.747-17.513-79.192-79.193-84.774-204.107-16.767-289.759 2.374-2.99 6.247-3.986 9.635-2.923 7.141-10.629 15.086-20.671 23.739-30.05.545-.974 1.274-1.868 2.209-2.609.275-.219.556-.428.832-.645 40.386-42.242 95.524-70.246 157.14-75.777-7.413-.665-14.914-1.025-22.5-1.025-137.244 0-248.501 111.258-248.501 248.501s111.257 248.501 248.501 248.501c7.586 0 15.087-.359 22.5-1.025-61.566-5.527-116.664-33.491-157.041-75.676z" fill="#ff5595"/></g></g></g><g><path d="m103.53 114.502c-3.313-3.313-7.898-5.056-12.575-4.792-4.657.267-8.988 2.51-11.883 6.155-27.841 35.065-44.451 77.264-48.035 122.037-.33 4.129 2.749 7.744 6.878 8.075 4.161.33 7.745-2.749 8.074-6.877 3.346-41.794 18.848-81.182 44.83-113.906.31-.39.711-.491.993-.507.299-.017.732.043 1.11.422l89.204 89.204c14.13 57.323-.5 74.876-13.429 90.378-2.608 3.127-5.306 6.36-7.669 9.78-21.591 31.239-19.447 61.939 5.882 84.228 4.354 3.832 9.091 6.813 14.076 8.86.933.383 1.896.564 2.846.564 2.952 0 5.751-1.754 6.941-4.654 1.572-3.832-.259-8.213-4.09-9.786-3.442-1.413-6.761-3.514-9.863-6.245-24.663-21.703-15.49-47.021-3.452-64.438 1.978-2.861 4.344-5.698 6.848-8.701 12.622-15.133 27.908-33.464 20.992-80.903l17.719 17.719c.16 8.902-.675 16.516-2.515 22.625-4.509 14.973-8.159 31.753-1.046 42.684 3.647 5.604 9.467 8.941 17.297 9.92 1.052.132 2.104.195 3.159.195 13.575 0 27.178-10.571 35.365-23.164l29.501 29.501c-10.852 4.48-22.925 11.021-32.127 20.222-9.193 9.194-30.724 30.724-52.462 39.237-3.856 1.51-5.759 5.861-4.248 9.718 1.509 3.857 5.858 5.762 9.719 4.249 21.728-8.509 41.31-26.309 57.599-42.598 9.203-9.203 22.395-15.382 33.12-19.229l74.603 74.603c.381.38.439.814.423 1.112-.017.281-.117.682-.508.992-83.767 66.508-204.05 59.544-279.791-16.197-35.372-35.372-57.044-82.28-61.023-132.082-.331-4.129-3.936-7.209-8.074-6.878-4.129.33-7.208 3.944-6.879 8.074 4.264 53.352 27.479 103.602 65.369 141.493 43.866 43.866 101.669 66.194 159.709 66.191 49.312-.002 98.797-16.125 140.018-48.854 7.674-6.094 8.278-17.541 1.364-24.458-5.959-5.958-246.652-246.651-293.97-293.969zm130.995 196.957c-4.383-.548-5.857-2.1-6.586-3.219-4.273-6.566 1.078-24.337 2.837-30.177 1.091-3.622 1.902-7.595 2.434-11.897l26.794 26.794c-6.177 11.06-17.418 19.508-25.479 18.499z"/><path d="m115.865 79.073c-3.646 2.895-5.889 7.226-6.154 11.883-.268 4.679 1.479 9.263 4.791 12.575 12.06 12.06 281.854 281.855 293.969 293.97 6.94 6.939 18.379 6.292 24.458-1.363 71.251-89.737 63.798-218.592-17.337-299.727-81.137-81.137-209.989-88.589-299.727-17.338zm246.933 153.376c-.78-75.015-51.23-125.048-86.28-125.048-.063 0-.127 0-.188 0-33.138.165-64.293 29.343-53.579 55.814 3.991 9.861 10.247 17.373 16.455 22.89-4.35 3.293-7.854 6.928-10.579 10.336-6.742-6.742-38.896-38.896-43.792-43.792 6.468-4.686 13.713-11.488 19.991-21.167 18.203-28.064 41.937-52.351 91.927-40.129 46.753 11.428 77.298 72.715 66.045 141.096zm-126.144-74.862c-6.092-15.053 16.251-35.07 39.749-35.186h.103c34.9 0 99.778 74.786 57.229 179.151l-30.059-30.059c18.089-26.324 11.437-54.731-.526-71.843-13.079-18.711-33.043-27.273-49.681-21.307h-.001c-.004.001-.007.003-.011.004-6.015-4.403-12.919-11.165-16.803-20.76zm19.004 36.059c.04-.018.075-.043.114-.062.891-.402 1.806-.782 2.76-1.125 10.026-3.589 23.314 2.895 32.324 15.782 9.168 13.115 13.835 33.11 1.984 52.413l-53.519-53.519c3.401-4.557 8.714-10.021 16.337-13.489zm165.523 193.163c-.31.39-.71.491-.991.507-.304.017-.731-.042-1.111-.422l-73.067-73.067c17.356-26.003 28.595-55.167 32.601-84.73 9.768-72.078-23.978-139.038-78.299-152.314h.001c-27.44-6.707-51.44-4.021-71.335 7.981-16.98 10.245-28.101 25.239-36.738 38.556-5.777 8.906-12.509 14.776-18.184 18.553l-48.949-48.949c-.38-.38-.439-.814-.423-1.111.017-.282.117-.683.508-.992 38.482-30.555 84.655-45.6 130.693-45.6 54.173 0 108.152 20.851 149.098 61.796 75.743 75.742 82.705 196.027 16.196 279.792z"/><path d="m256.001 0c-68.38 0-132.668 26.629-181.02 74.981-48.352 48.352-74.981 112.64-74.981 181.02s26.629 132.668 74.981 181.02 112.64 74.981 181.02 74.981 132.668-26.629 181.02-74.981c48.353-48.352 74.981-112.64 74.981-181.02 0-141.492-114.497-256.001-256.001-256.001zm0 497.002c-132.889 0-241.001-108.113-241.001-241.001s108.112-241.001 241.001-241.001 241.001 108.113 241.001 241.001-108.112 241.001-241.001 241.001z"/></g></g></svg>