<svg id="Capa_1" enable-background="new 0 0 512 512" height="512" viewBox="0 0 512 512" width="512" xmlns="http://www.w3.org/2000/svg"><g><g><g><path d="m459.759 212.259v117.209c0 46.104-28.19 84.394-69.092 99.404-4.124 1.513-7.87 6.429-7.87 10.821v32.863c0 17.642-13.302 30.944-30.944 30.944h-.012c-5.428 0-10.539-.353-15.015-2.74-10.074-5.373-16.929-15.986-16.929-28.203 0 17.644-14.299 31.944-31.944 31.944h-.012c-17.644 0-31.944-14.299-31.944-31.944 0 17.644-14.299 31.944-31.944 31.944h-.012c-17.644 0-31.943-14.299-31.943-31.944 0 17.644-14.299 31.944-31.944 31.944h-.012c-17.642 0-31.944-14.302-31.944-31.944v-32.863c0-4.392-2.746-8.308-6.87-9.821-40.902-15.01-70.092-54.3-70.092-100.404v-115.38c0-108.056 84.194-198.414 190.216-206.064 5.312-.383 10.679.441 16.093.481 55.927.414 105.521 22.254 142.238 58.971 37.055 37.043 59.976 88.233 59.976 144.782z" fill="#f8f7f7"/><g fill="#7a6d79"><path d="m232.483 271.314c0 34.004-26.566 60.57-60.57 60.57-5.172 0-10.195.362-14.995-.839-26.757-6.696-46.575-30.899-46.575-59.731 0-28.951 19.981-53.234 46.905-59.813 4.7-1.148 9.611-.757 14.665-.757 34.005 0 60.57 26.566 60.57 60.57z"/><path d="m400.657 271.314c0 34.004-26.566 60.57-60.57 60.57-5.174 0-10.199.362-15.001-.84-26.754-6.698-46.57-30.9-46.57-59.73 0-28.897 19.907-53.145 46.756-59.776 4.745-1.172 9.707-.794 14.814-.794 34.005 0 60.571 26.566 60.571 60.57z"/><path d="m256 403.848c-3.559 0-6.944.25-10.003-1.101-8.707-3.845-14.784-12.556-14.784-22.686v-18.307c0-10.067 6.001-18.732 14.62-22.613 3.102-1.397 6.544-1.174 10.166-1.174 13.69 0 23.787 10.098 23.787 23.787v18.307c.001 13.69-10.096 23.787-23.786 23.787z"/></g><path d="m460.76 212.26v117.21c0 46.1-29.19 85.39-70.09 100.4-4.13 1.51-6.87 5.43-6.87 9.82v32.87c0 17.64-14.3 31.94-31.95 31.94h-.01c-5.42 0-10.52-1.35-14.99-3.74 10.09-5.36 16.95-15.98 16.95-28.2v-32.87c0-4.39 2.74-8.31 6.87-9.82 40.9-15.01 70.09-54.3 70.09-100.4v-117.21c0-56.55-22.92-107.74-59.98-144.78-33.72-33.73-79.16-55.75-129.68-59.43 5.43-.4 10.91-.58 16.45-.54 55.92.41 106.52 23.25 143.23 59.97 37.06 37.04 59.98 88.23 59.98 144.78z" fill="#e1e1e1"/><path d="m401.66 271.31c0 34.01-27.57 61.57-61.57 61.57-5.18 0-10.2-.64-15-1.85 26.75-6.69 46.57-30.88 46.57-59.72 0-28.83-19.82-53.03-46.57-59.72 4.8-1.21 9.82-1.85 15-1.85 34 0 61.57 27.57 61.57 61.57z" fill="#685e68"/><path d="m233.483 271.31c0 34.01-27.57 61.57-61.57 61.57-5.18 0-10.2-.64-15-1.85 26.75-6.69 46.57-30.88 46.57-59.72 0-28.83-19.82-53.03-46.57-59.72 4.8-1.21 9.82-1.85 15-1.85 34.001 0 61.57 27.57 61.57 61.57z" fill="#685e68"/><path d="m280.79 361.75v18.31c0 13.69-11.1 24.79-24.79 24.79-3.56 0-6.94-.75-10-2.11 8.71-3.84 14.79-12.55 14.79-22.68v-18.31c0-6.85-2.77-13.04-7.26-17.52-2.15-2.15-4.7-3.91-7.53-5.15 3.06-1.36 6.44-2.11 10-2.11 6.84 0 13.04 2.77 17.53 7.26 4.49 4.48 7.26 10.67 7.26 17.52z" fill="#685e68"/></g></g><g><path d="m406.086 62.173c-39.674-39.673-92.405-61.751-148.48-62.168-49.758-.36-98.331 17.229-136.837 49.553-3.172 2.663-3.585 7.394-.922 10.566s7.393 3.585 10.566.922c8.124-6.82 16.735-12.925 25.727-18.298l23.486 32.454c7.354 10.159 19.229 16.225 31.77 16.225h7.83l61.052 61.052c1.465 1.464 3.385 2.197 5.304 2.197s3.839-.732 5.304-2.197c2.929-2.929 2.929-7.678 0-10.606l-50.446-50.447h40.35c4.143 0 7.5-3.358 7.5-7.5s-3.357-7.5-7.5-7.5h-69.393c-7.744 0-15.078-3.746-19.618-10.019l-22.375-30.917c26.865-13.377 56.526-20.49 86.669-20.49.474 0 .947.002 1.421.005 52.111.387 101.115 20.905 137.985 57.775 37.261 37.247 57.78 86.782 57.78 139.479v84.179c0 4.142 3.357 7.5 7.5 7.5 4.142 0 7.5-3.358 7.5-7.5v-84.179c.001-56.704-22.08-110.006-62.173-150.086z"/><path d="m460.76 321.625c-4.143 0-7.5 3.358-7.5 7.5v.343c0 41.537-26.192 79.057-65.175 93.363-7.051 2.587-11.787 9.363-11.787 16.863v32.863c0 13.478-10.965 24.443-24.455 24.443-13.478 0-24.444-10.965-24.444-24.443 0-4.142-3.357-7.5-7.5-7.5-4.142 0-7.5 3.358-7.5 7.5 0 13.478-10.965 24.443-24.455 24.443-13.479 0-24.443-10.965-24.443-24.443 0-4.142-3.357-7.5-7.5-7.5s-7.5 3.358-7.5 7.5c0 13.478-10.965 24.443-24.455 24.443-13.479 0-24.443-10.965-24.443-24.443 0-4.142-3.357-7.5-7.5-7.5s-7.5 3.358-7.5 7.5c0 13.478-10.966 24.443-24.456 24.443-13.478 0-24.443-10.965-24.443-24.443v-32.863c0-7.5-4.736-14.276-11.786-16.863-38.983-14.306-65.176-51.826-65.176-93.363v-115.38c0-47.941 17.441-94.413 49.109-130.857 2.717-3.126 2.385-7.864-.742-10.58-3.125-2.716-7.863-2.385-10.58.742-34.04 39.173-52.787 89.14-52.787 140.696v115.379c0 47.802 30.144 90.98 75.009 107.445 1.168.429 1.953 1.546 1.953 2.781v32.863c0 21.749 17.694 39.443 39.455 39.443 13.124 0 24.771-6.441 31.944-16.329 7.176 9.888 18.825 16.329 31.955 16.329 13.123 0 24.77-6.441 31.943-16.329 7.176 9.888 18.825 16.329 31.955 16.329 13.123 0 24.77-6.441 31.943-16.329 7.176 9.888 18.825 16.329 31.956 16.329 21.749 0 39.443-17.694 39.443-39.443v-32.863c0-1.234.785-2.352 1.954-2.781 44.864-16.464 75.008-59.643 75.008-107.445v-.343c0-4.142-3.358-7.5-7.5-7.5z"/><path d="m171.913 202.244c-38.086 0-69.07 30.985-69.07 69.07 0 16.307 5.791 32.137 16.306 44.574 2.676 3.164 7.406 3.56 10.57.885 3.163-2.674 3.559-7.406.885-10.569-8.229-9.732-12.761-22.123-12.761-34.889 0-29.814 24.256-54.07 54.07-54.07s54.07 24.256 54.07 54.07-24.256 54.07-54.07 54.07c-5.912 0-11.721-.946-17.265-2.813-3.927-1.321-8.18.789-9.502 4.715-1.321 3.926.79 8.179 4.715 9.501 7.09 2.387 14.509 3.597 22.052 3.597 38.086 0 69.07-30.985 69.07-69.07 0-38.086-30.984-69.071-69.07-69.071z"/><path d="m340.087 340.384c38.086 0 69.07-30.985 69.07-69.07s-30.984-69.07-69.07-69.07-69.07 30.985-69.07 69.07 30.984 69.07 69.07 69.07zm0-123.14c29.815 0 54.07 24.256 54.07 54.07s-24.256 54.07-54.07 54.07-54.07-24.256-54.07-54.07 24.256-54.07 54.07-54.07z"/><path d="m223.713 361.754v18.308c0 17.803 14.484 32.287 32.287 32.287s32.287-14.484 32.287-32.287v-18.308c0-17.803-14.484-32.287-32.287-32.287s-32.287 14.484-32.287 32.287zm49.574 0v18.308c0 9.532-7.755 17.287-17.287 17.287s-17.287-7.755-17.287-17.287v-18.308c0-9.532 7.755-17.287 17.287-17.287s17.287 7.755 17.287 17.287z"/></g></g></svg>