<svg id="Capa_1" enable-background="new 0 0 512.003 512.003" height="512" viewBox="0 0 512.003 512.003" width="512" xmlns="http://www.w3.org/2000/svg"><g><g><path d="m423.221 234.483-4.518-6.213.634-8.28-1.287-4.805c-6.425-23.98-31.074-38.211-55.055-31.786l-155.934 41.782-64.901-148.64c-8.896-20.378-31.354-31.19-52.832-25.435l-11.047 2.96-13.262 6.242 105.585 241.864z" fill="#f8f7f7"/><path d="m423.408 235.176-148.828 49.114-103.389 19.229-6.659-15.25 58.64-15.71 4.1-1.1 192.07-51.47z" fill="#e8e8e8"/><path d="m428.158 264.889-272.121 70.679-4.508-11.221c-2.356-8.793 2.862-17.831 11.655-20.187l263.415-70.582c8.793-2.356 17.831 2.862 20.187 11.655.194.725.337 1.451.43 2.176 1.041 8.061-10.99 15.318-19.058 17.48z" fill="#c38c66"/><path d="m184.982 298.319-16.696 4.662-75.688-164.422-29.682-80.377 15.366-4.113 105.69 241.67c.37.85.71 1.71 1.01 2.58z" fill="#e8e8e8"/><path d="m62.455 55.311 42.259 96.635 15.957 27.567 4.571 19.375 44.983 102.864c4.426 10.12-.191 21.912-10.311 26.338l-9.542 1.286-114.361-258.689c-3.436-7.858-4.021-19.105 3.336-23.177.45-.249.915-.479 1.395-.689l.014-.006c8.337-3.646 18.053.158 21.699 8.496z" fill="#c38c66"/><path d="m447.352 249.509c0 7.28-4.86 13.93-12.22 15.91l-279.34 74.85-3.76-14.04 295.184-78.821c.09.701.136 1.401.136 2.101z" fill="#b57f5f"/><path d="m161.092 327.529c-.38.2-.78.38-1.18.56l-11.88 5.2-115.79-264.77c-3.43-7.86-.255-16.949 7.105-21.009z" fill="#b57f5f"/><g><g><path d="m141.017 427.469-28.967-7.803 36.695-111.676 22.305-107.324 28.967 7.803-8.749 21.814.683 8.126-41.916 155.588-4.208 7.461z" fill="#b57f5f"/></g><g><path d="m371.05 427.469-23.149-110.341-35.851-108.659 28.967-7.803 3.911 24.315 4.259 6.009 41.211 152.97-.387 8.539 10.006 27.167z" fill="#b57f5f"/></g></g><g fill="#9f6e50"><path d="m171.052 200.669-59 219 28.97 7.8 9.013-33.472c-4.089-1.35-8.143-2.783-12.18-4.289-1.927-.719-2.982-2.798-2.447-4.784l39.494-146.596c.574-2.13 2.761-3.38 4.896-2.823 4.032 1.053 8.083 2.025 12.154 2.904l8.07-29.94z"/><path d="m400.022 419.669-9.624-35.709c-3.726 1.583-7.478 3.093-11.259 4.541-2.222.851-4.693-.392-5.312-2.69l-39.43-146.389c-.576-2.138.699-4.324 2.835-4.906 4.007-1.091 7.99-2.261 11.954-3.527l-8.165-30.321-28.97 7.8 59 219z"/></g><path d="m256.705 463.329c-46.853 0-89.14-7.356-132.756-23.339-39.965-14.646-79.072-33.025-112.451-59.634-2.996-2.388-3.466-6.768-1.029-9.724l15.641-18.22c2.365-2.868 6.588-3.321 9.498-1.009 2.179 1.732 6.496 2.754 6.496 2.754 61.572 46.588 137.266 72.088 214.803 72.088 79.574 0 157.343-26.909 219.759-75.906 2.915-2.288 7.131-1.787 9.472 1.086l11.155 13.692 2.875 7.055c2.42 2.97 1.924 7.347-1.085 9.717-33.226 26.167-67.946 43.051-107.587 57.44-43.277 15.711-88.35 24-134.791 24z" fill="#c38c66"/><path d="m501.882 381.799c-33.23 26.16-70.12 46.7-109.76 61.09-43.28 15.71-88.77 23.68-135.21 23.68-46.86 0-92.73-8.11-136.34-24.09-39.97-14.65-77.1-35.54-110.48-62.15-3-2.39-3.47-6.76-1.03-9.72l16.95-20.56c2.37-2.86 6.59-3.32 9.5-1.01 2.18 1.73 4.374 3.448 6.594 5.118l-11.457 13.861c-2.564 3.103-1.996 7.732 1.252 10.11 28.816 21.107 60.309 37.981 93.831 50.271 41.96 15.37 86.09 23.17 131.18 23.17 44.69 0 88.46-7.66 130.09-22.78 35.52-12.89 68.8-30.95 99.04-53.73l11.253-9.942 5.667 6.962c2.42 2.97 1.93 7.35-1.08 9.72z" fill="#b57f5f"/><path d="m109.206 158.556c7.342 5.266 18.263 7.979 18.263 7.979 39.115 22.292 83.723 34.268 129.197 34.268 58.227 0 115.134-19.674 160.806-55.496 2.133-1.673 5.218-1.307 6.931.794l12.312 15.1c1.771 2.172 1.408 5.371-.794 7.104-24.313 19.131-51.308 34.147-80.315 44.668-31.668 11.486-64.957 17.31-98.94 17.31-34.284 0-67.849-5.925-99.765-17.611-3.755-1.375-7.475-2.825-11.16-4.349 0 0-15.092-10.788-21.792-14.195z" fill="#c38c66"/><path d="m145.74 208.323c-6.97-2.88-13.799-6.023-20.499-9.433l-20.53-46.94c7.34 5.27 14.937 10.136 22.757 14.586z" fill="#b57f5f"/></g><path d="m508.78 367.341-16.825-20.653c-4.9-6.015-13.836-7.024-19.917-2.249-22.333 17.532-46.806 32.237-72.714 43.821l-26.504-98.38 64.252-17.216c11.663-2.955 20.566-16.189 16.958-29.373-3.07-11.454-13.984-18.748-25.417-17.665l-3.318-12.383c-2.072-7.735-5.784-14.734-10.898-20.654 9.015-5.645 17.75-11.773 26.16-18.391 2.663-2.095 4.333-5.101 4.706-8.466.371-3.36-.6-6.652-2.736-9.272l-12.312-15.101c-4.273-5.241-12.067-6.118-17.372-1.956-29.905 23.456-65.467 40.12-102.84 48.191-4.048.875-6.622 4.866-5.748 8.915.875 4.048 4.863 6.624 8.915 5.748 38.764-8.372 75.695-25.479 106.964-49.524l9.156 11.229c-23.16 17.894-48.798 32.004-76.242 41.958-30.846 11.188-63.273 16.86-96.383 16.86-33.4 0-66.099-5.771-97.186-17.154-9.68-3.544-19.237-7.66-28.454-12.237l-9.462-21.638c40.797 23.691 87.917 36.549 135.103 36.549 6.964 0 14.022-.278 20.978-.828 4.129-.326 7.212-3.938 6.886-8.067s-3.937-7.214-8.067-6.886c-6.564.518-13.225.781-19.797.781-19.632 0-39.252-2.357-58.355-6.907l-49.278-112.852c-10.462-23.965-36.388-36.446-61.646-29.68l-19.732 5.287c-6.194-9.862-18.858-14.002-29.85-9.228-11.129 4.643-17.983 19.089-12.43 31.605l106.865 244.369-19.303 71.649c-25.875-11.716-50.363-26.576-72.76-44.371-6.067-4.819-15.017-3.873-19.951 2.11l-16.949 20.555c-2.465 2.989-3.6 6.758-3.198 10.614.404 3.863 2.299 7.324 5.337 9.747 15.566 12.409 32.138 23.732 49.256 33.656 3.584 2.075 8.172.855 10.25-2.727 2.077-3.583.856-8.173-2.727-10.25-16.297-9.447-32.081-20.213-46.925-32.006l16.105-19.531c63.893 50.568 143.958 78.407 225.532 78.407 8.501 0 17.114-.306 25.6-.909 4.132-.293 7.243-3.881 6.949-8.013s-3.896-7.249-8.013-6.949c-8.133.578-16.388.871-24.536.871-34.578 0-68.872-5.225-101.669-15.236l16.065-59.633 158.048-42.349 27.611 102.49c-13.628 4.091-27.521 7.361-41.596 9.764-4.083.697-6.828 4.572-6.131 8.655s4.569 6.825 8.655 6.131c59.351-10.133 115.645-34.987 162.849-71.893l15.99 19.628c-32.459 25.476-68.513 45.506-107.171 59.539-42.457 15.412-87.087 23.227-132.652 23.227-45.969 0-90.972-7.95-133.759-23.63-10.343-3.791-20.633-8.067-30.583-12.712-3.751-1.749-8.216-.129-9.968 3.625-1.751 3.753-.129 8.216 3.625 9.968 10.335 4.824 21.023 9.266 31.766 13.203 44.446 16.288 91.186 24.546 138.92 24.546 47.316 0 93.668-8.118 137.771-24.127 40.365-14.652 77.993-35.597 111.841-62.253 3.052-2.403 4.968-5.853 5.394-9.712.428-3.856-.686-7.633-3.133-10.637zm-69.239-120.167c.864 3.588-.497 9.044-6.351 11l-64.272 17.222-4.673-17.346 64.295-17.228c4.783-1.281 9.719 1.568 11.001 6.352zm-38.348-46.768c4.604 4.609 7.895 10.31 9.613 16.72l3.23 12.054-53.693 14.387-5.984-22.21c14.891-5.068 32.458-12.913 46.834-20.951zm-90.342 32.442 6.026 22.366-83.324 22.327-18.784-42.698c13.808 1.945 27.792 2.94 41.897 2.94 18.304 0 36.409-1.664 54.185-4.935zm-91.958 48.62-33.169 8.888 14.083-52.273zm-64.571-61.753c1.162.425 2.33.826 3.496 1.237l-5.619 20.859-12.134-27.747c4.709 2.005 9.468 3.897 14.257 5.651zm-115.204-154.2c-1.406-3.413-.797-9.132 4.643-11.828 4.534-1.984 9.839.093 11.822 4.628l15.779 36.082c1.66 3.796 6.082 5.526 9.876 3.867 3.795-1.66 5.526-6.082 3.867-9.876l-11.111-25.409 17.275-4.629c18.036-4.835 36.547 4.079 44.017 21.192l44.391 101.664c-24.535-7.834-47.889-19.355-68.93-34.185l-11.647-26.632c-1.66-3.796-6.083-5.527-9.876-3.867-3.795 1.66-5.526 6.082-3.867 9.876l60.601 138.577-7.477 27.753zm87.75 327.979 45.235-167.907c4.798 1.42 9.628 2.715 14.487 3.889l-45.62 169.337c-4.738-1.671-9.439-3.446-14.102-5.319zm48.946-66.356 5.4-20.045 139.564-37.396 4.673 17.346zm149.739-97.381c4.864-1.153 9.701-2.421 14.505-3.821l45.315 168.202c-4.667 1.85-9.375 3.601-14.12 5.25z"/></g></svg>