<svg id="Capa_1" enable-background="new 0 0 512 512" height="512" viewBox="0 0 512 512" width="512" xmlns="http://www.w3.org/2000/svg"><g><g><path d="m112.564 335.568-26.658 8.512c-22.871 7.303-39.553 27.041-42.942 50.809l-12.846 109.606h82.447v-168.927z" fill="#daf3f6"/><path d="m89.999 342.773v161.722h22.565v-168.927z" fill="#a6e7f0"/><path d="m399.436 335.568 26.658 8.512c22.871 7.303 39.553 27.041 42.942 50.809l12.846 109.606h-82.447v-168.927z" fill="#daf3f6"/><path d="m469.036 394.889c-3.389-23.769-20.071-43.506-42.942-50.809l-26.658-8.512v7.205l4.093 1.307c22.871 7.303 39.553 27.041 42.942 50.809l12.846 109.606h22.565z" fill="#a6e7f0"/><path d="m399.435 335.569v168.931h-286.87v-168.931l39.929-8.054 65.96-13.302h75.092l65.959 13.302z" fill="#5d5360"/><path d="m359.505 327.515-65.959-13.302h-22.566l65.96 13.302 39.929 8.054v168.931h22.566v-168.931z" fill="#4b3f4e"/><path d="m359.505 327.515c-5.783 52.051-49.914 92.514-103.505 92.514s-97.722-40.463-103.506-92.514l65.96-13.303h75.092z" fill="#daf3f6"/><path d="m293.546 314.213h-22.566l65.96 13.303c-5.372 48.347-43.831 86.691-92.223 91.903 3.707.399 7.47.611 11.283.611 53.592 0 97.722-40.463 103.505-92.514z" fill="#a6e7f0"/><path d="m218.454 250.01h75.092v64.205l-37.546 26.115-37.546-26.115z" fill="#ffe5c2"/><path d="m270.98 250.01v64.205l-26.263 18.267 11.283 7.848 37.546-26.115v-64.205z" fill="#fed2a4"/><path d="m256 340.33 21.319 21.291c4.934 4.928 13.057 4.473 17.409-.976l31.778-39.785-32.96-6.645z" fill="#a6e7f0"/><path d="m293.546 314.215-5.071 3.527 15.465 3.118-26.104 32.473c-1.397 1.749-3.184 2.976-5.128 3.683l4.61 4.604c4.934 4.928 13.057 4.473 17.409-.976l31.778-39.785z" fill="#6bd9e7"/><path d="m256 340.33-21.319 21.291c-4.934 4.928-13.057 4.473-17.409-.976l-31.778-39.785 32.96-6.645z" fill="#a6e7f0"/><path d="m218.454 314.215-17.494 3.527 32.475 22.588-11.006 10.888c-2.763 2.759-6.525 3.828-10.065 3.281l4.909 6.146c4.352 5.449 12.475 5.904 17.409.976l21.318-21.291z" fill="#6bd9e7"/><path d="m303.16 7.5h-94.32c-40.423 0-73.191 32.769-73.191 73.192v25.643h14.801v110.382c0 29.601 23.996 53.597 53.597 53.597h103.908c29.601 0 53.597-23.996 53.597-53.597v-110.383h14.801v-25.642c-.001-40.423-32.77-73.192-73.193-73.192z" fill="#ffe5c2"/><path d="m376.35 80.69v25.64h-14.8v53.95h-22.56v-63.43c0-6.35 2.57-12.11 6.74-16.28 4.16-4.16 9.91-6.74 16.27-6.74 5.42 0 10.4 1.87 14.33 5.01.01.62.02 1.23.02 1.85z" fill="#fed2a4"/><path d="m376.33 78.84c-.98-39.56-33.37-71.34-73.17-71.34h-22.565c40.423 0 73.191 32.769 73.191 73.192v25.643h-14.801v110.382c0 29.561-23.933 53.53-53.479 53.594h22.443c29.6 0 53.6-23.99 53.6-53.59v-110.391h14.8v-25.64c.001-.62-.009-1.23-.019-1.85z" fill="#fed2a4"/><path d="m150.444 160.278v-63.432c0-12.71-10.304-23.014-23.014-23.014-12.71 0-23.014 10.304-23.014 23.014v63.432z" fill="#e9edf1"/><path d="m127.43 73.833c-4.101 0-7.948 1.078-11.283 2.958 7 3.947 11.731 11.447 11.731 20.056v63.432h22.565v-63.433c.001-12.71-10.303-23.013-23.013-23.013z" fill="#c8d2dc"/><path d="m407.583 160.278v-63.432c0-12.71-10.304-23.014-23.014-23.014-12.71 0-23.014 10.304-23.014 23.014v63.432z" fill="#e9edf1"/><path d="m384.57 73.833c-4.101 0-7.948 1.078-11.283 2.958 7 3.947 11.731 11.447 11.731 20.056v63.432h22.565v-63.433c0-12.71-10.303-23.013-23.013-23.013z" fill="#c8d2dc"/><path d="m150.444 202.445h-25.013c-11.606 0-21.014-9.408-21.014-21.014v-21.725c0-11.606 9.408-21.014 21.014-21.014h25.013z" fill="#ffe5c2"/><path d="m127.878 138.691h22.565v63.754h-22.565z" fill="#fed2a4"/><path d="m386.569 202.445h-25.013v-63.754h25.013c11.606 0 21.014 9.408 21.014 21.014v21.725c0 11.607-9.408 21.015-21.014 21.015z" fill="#ffe5c2"/><path d="m386.569 138.691h-22.565c11.606 0 21.014 9.408 21.014 21.014v21.725c0 11.606-9.408 21.014-21.014 21.014h22.565c11.606 0 21.014-9.408 21.014-21.014v-21.725c0-11.605-9.408-21.014-21.014-21.014z" fill="#fed2a4"/><g><g><path d="m212.208 459.531h36.883v36.883h-36.883z" fill="#d19a6e" transform="matrix(.707 .707 -.707 .707 405.533 -23.099)"/></g><g><path d="m263.754 459.531h36.883v36.883h-36.883z" fill="#c38c66" transform="matrix(.707 .707 -.707 .707 420.631 -59.548)"/></g></g></g><g><path d="m489.332 503.622-12.846-109.606c-.007-.062-.016-.124-.024-.186-3.77-26.439-22.645-48.772-48.086-56.896-1-.259-26.195-8.48-27.547-8.736l-99.778-20.127v-30.261h6.9c33.69 0 61.1-27.405 61.1-61.09v-6.775h17.519c15.723 0 28.515-12.792 28.515-28.514v-21.726c0-.045-.003-.09-.003-.135v-62.72c0-16.829-13.687-30.52-30.51-30.52-8.148 0-15.81 3.173-21.58 8.943-5.758 5.773-8.93 13.436-8.93 21.577l-.01 119.87c0 25.414-20.68 46.09-46.1 46.09h-103.9c-25.419 0-46.1-20.676-46.1-46.09l-.01-119.87c0-10.628-5.387-20.188-14.078-25.709 4.653-31.844 32.297-56.141 64.976-56.141h94.32c22.591 0 43.327 11.397 55.469 30.487 2.223 3.495 6.857 4.526 10.354 2.303 3.495-2.223 4.526-6.858 2.303-10.354-14.91-23.441-40.378-37.436-68.126-37.436h-94.32c-39.257 0-72.607 28.549-79.407 66.402-7.443-.575-17.207 2.389-23.583 8.871-5.759 5.773-8.93 13.436-8.93 21.577l-.003 84.581c0 15.723 12.792 28.514 28.515 28.514h17.519v6.775c0 33.685 27.409 61.09 61.1 61.09h6.9v30.262l-99.783 20.128c-.759.077-26.377 8.416-27.543 8.735-25.441 8.124-44.316 30.457-48.086 56.896-.009.062-.017.124-.024.186l-12.847 109.605c-.482 4.114 2.462 7.84 6.576 8.322.296.035.591.051.882.051 3.752 0 6.992-2.81 7.44-6.627l12.835-109.51c2.994-20.743 17.816-38.257 37.786-44.634l16.877-5.389v158.66c0 .519.053 1.025.153 1.514.698 3.419 3.723 5.991 7.348 5.991 4.142 0 7.5-3.358 7.5-7.5v-162.792l26.169-5.278c9.717 52.475 55.543 91.1 109.766 91.1s100.049-38.625 109.766-91.1l26.169 5.278v162.792c0 4.142 3.358 7.5 7.5 7.5 3.625 0 6.65-2.572 7.348-5.991.1-.489.153-.995.153-1.514v-158.66l16.877 5.389c19.969 6.376 34.792 23.891 37.786 44.634l12.835 109.51c.448 3.818 3.688 6.628 7.44 6.627.291 0 .586-.017.882-.051 4.113-.482 7.057-4.208 6.576-8.322zm-102.763-308.677h-17.513l.004-48.754h17.509c7.429 0 13.474 6.026 13.511 13.447l.003 21.793c0 7.452-6.062 13.514-13.514 13.514zm-12.966-109.071c2.931-2.93 6.825-4.543 10.967-4.543 8.552 0 15.51 6.962 15.51 15.52v37.752c-4.024-2.174-8.625-3.411-13.511-3.411h-17.509v-34.342c0-4.142 1.616-8.042 4.543-10.976zm-257.14-.001c2.93-2.93 6.824-4.543 10.967-4.543 6.633-.561 15.994 7.028 15.51 15.52v34.341h-17.509c-4.886 0-9.487 1.237-13.511 3.411v-37.752c0-4.142 1.616-8.042 4.543-10.977zm8.968 109.072c-7.452 0-13.515-6.062-13.515-13.514l.003-21.793c.037-7.42 6.082-13.447 13.511-13.447h17.509l.004 48.754zm91.368 127.255 27.553 19.164-14.97 14.95c-1.156 1.155-2.511 1.259-3.203 1.222-.7-.039-2.027-.295-3.047-1.572l-24.107-30.181zm96.176 3.583-24.106 30.181c-1.02 1.277-2.347 1.533-3.047 1.572-.693.039-2.047-.066-3.203-1.221l-14.97-14.951 27.553-19.165zm-26.925-47.973v32.481l-30.05 20.903-30.05-20.903v-32.481zm-30.05 134.72c-47.015 0-86.738-33.535-95.061-79.063l21.552-4.349 28.921 36.208c6.296 8.036 20.096 10.103 28.569 1.602l8.519-8.508v26.24c0 4.142 3.358 7.5 7.5 7.5s7.5-3.358 7.5-7.5v-26.24l8.519 8.508c6.932 7.243 21.345 7.749 28.57-1.603l28.921-36.208 21.552 4.349c-8.324 45.529-48.047 79.064-95.062 79.064z"/><path d="m256 143.647c-4.142 0-7.5 3.358-7.5 7.5v19.933c0 4.142 3.358 7.5 7.5 7.5h7.079c4.142 0 7.5-3.358 7.5-7.5 0-4.001-3.132-7.27-7.079-7.488v-12.445c0-4.142-3.358-7.5-7.5-7.5z"/><path d="m201.939 140.246c-4.142 0-7.5 3.358-7.5 7.5v6.801c0 4.142 3.358 7.5 7.5 7.5s7.5-3.358 7.5-7.5v-6.801c0-4.142-3.357-7.5-7.5-7.5z"/><path d="m302.561 147.746v6.801c0 4.142 3.358 7.5 7.5 7.5s7.5-3.358 7.5-7.5v-6.801c0-4.142-3.358-7.5-7.5-7.5s-7.5 3.358-7.5 7.5z"/><path d="m226.219 200.542c-3.541 2.149-4.668 6.762-2.519 10.303 6.914 11.39 18.989 18.19 32.3 18.19s25.386-6.8 32.3-18.19c2.149-3.541 1.021-8.154-2.519-10.303s-8.154-1.021-10.303 2.519c-4.171 6.872-11.453 10.974-19.478 10.974s-15.307-4.103-19.478-10.974c-2.149-3.54-6.762-4.669-10.303-2.519z"/><path d="m281.889 35.095h-51.778c-4.142 0-7.5 3.358-7.5 7.5s3.358 7.5 7.5 7.5h51.778c4.142 0 7.5-3.358 7.5-7.5s-3.358-7.5-7.5-7.5z"/><path d="m278.214 72.892c0-4.142-3.358-7.5-7.5-7.5h-29.429c-4.142 0-7.5 3.358-7.5 7.5s3.358 7.5 7.5 7.5h29.429c4.142 0 7.5-3.358 7.5-7.5z"/><path d="m334.432 470.473h-23.05l-23.883-23.883c-2.929-2.929-7.678-2.929-10.606 0l-20.47 20.47-20.47-20.47c-2.929-2.93-7.678-2.929-10.606 0l-23.884 23.883h-23.895c-4.142 0-7.5 3.358-7.5 7.5s3.358 7.5 7.5 7.5h23.895l23.884 23.883c1.464 1.464 3.384 2.197 5.303 2.197s3.839-.732 5.303-2.197l20.47-20.47 20.47 20.47c1.464 1.464 3.384 2.197 5.303 2.197s3.839-.732 5.303-2.197l23.883-23.883h23.05c4.142 0 7.5-3.358 7.5-7.5s-3.358-7.5-7.5-7.5zm-103.783 22.973-15.474-15.474 15.474-15.474 15.474 15.474zm51.547 0-15.474-15.474 15.474-15.474 15.474 15.474z"/></g></g></svg>