<svg id="Capa_1" enable-background="new 0 0 512 512" height="512" viewBox="0 0 512 512" width="512" xmlns="http://www.w3.org/2000/svg"><g><g><path d="m503.789 118.627-3.079 24.373-51.838 3.681-44.652-3.681-5.781-25.81 15.391-4.19h84.999c3.01 0 5.337 2.64 4.96 5.627z" fill="#ff8086"/><path d="m500.71 143-5.312 42-1.609 1.755c-.95 7.5-8.083 11.615-15.633 11.615l-61.431-.936-12.505-54.434z" fill="#857e87"/><path d="m420.45 143-9.23 3.681-7-3.681-8.358-9.53.441-20.47h17.527z" fill="#e5646e"/><path d="m428.328 178.723-7.878-35.723h-16.23l1.551 28.5 8.67 28.5h18.58 47.26c7.55 0 13.93-5.62 14.88-13.12l.24-1.88h-59.26c-3.755 0-7.005-2.611-7.813-6.277z" fill="#6f6571"/><path d="m153.5 163.525h29v46.95h-29z" fill="#6f6571"/><path d="m34.5 404.5-15.28-1.654c-5.523 0-10-4.477-10-10l-.716-31.211c0-5.523 4.477-10 10-10l.996-1.135h15l4.225 25.5z" fill="#f8f7f7"/><path d="m34.5 392.5 3.61 6.291-3.61 5.709h-17c-5.52 0-10-4.48-10-10v-34c0-5.52 4.48-10 10-10h2v29c0 7.18 5.82 13 13 13z" fill="#e8e8e8"/><path d="m446.485 420.003c-6.885 0-13.089-4.77-14.633-11.772l-62.192-296.449c-4.574-20.733-23.304-35.782-44.536-35.782l-51.505 2.066c-7.948 0-18.572-4.248-19.086-12.066-.022-.331-.033-.664-.033-1 0-8.284 6.716-15 15-15h53.306c17.16 0 33.978 5.919 47.354 16.667s22.78 25.896 26.477 42.652l64.511 292.45c1.785 8.09-3.326 16.094-11.416 17.879-1.089.24-2.176.355-3.247.355z" fill="#f8f7f7"/><path d="m448.15 419.9c-.55.07-1.11.1-1.66.1-6.89 0-13.09-4.77-14.64-11.77l-64.51-292.45c-4.57-20.73-23.3-35.78-44.53-35.78h-53.31c-7.94 0-14.457-6.18-14.967-14h68.277c27.74 0 52.23 19.67 58.2 46.77z" fill="#e8e8e8"/><path d="m480.5 327-97.06 21.142 5.102-55.589c.819-6.187 5.384-11.221 11.462-12.639l5.006-2.765 32.269-7.53c6.617-1.544 13.446 1.553 16.644 7.549l13.75 25.782 2.667 10.126z" fill="#ff8086"/><path d="m163 327.09h-40l5.78-40.042-5.78-37.958h40l-2.294 13.188 2.294 6.812z" fill="#6f6571"/><path d="m163 249.09v20h-19c-3.866 0-7 3.134-7 7v51h-14v-78z" fill="#635a63"/><path d="m141.091 311.89c-27.219-7.194-55.87-6.784-82.842 1.158 0 0-.462 1.794-1.381 2.083-12.492 3.934-20.988 15.518-20.988 28.614l.972 58.734 174.648 2.021v-1.173c0-4.561-4.252-9.066-4.885-13.48-.678-4.727.86-13.848.86-13.848-9.307-30.833-34.015-55.554-66.384-64.109z" fill="#ff8086"/><path d="m58.25 313.05v91.45h-23.75v-62c0-6.55 2.12-12.71 5.81-17.74s8.93-8.91 15.18-10.87c.92-.29 1.84-.57 2.76-.84z" fill="#e5646e"/><path d="m467.673 302.949c-6.69-1.34-13.563-2.019-20.543-2.019-14.892 0-29.056 3.16-41.865 8.842-2.128.944-4.464-.84-4.158-3.148l3.903-29.473-6.41 1.49c-6.08 1.42-10.64 6.46-11.46 12.64l-4.237 32.007c-.001.001-.002.002-.003.003l-3.4 25.709 101-22z" fill="#e5646e"/><path d="m501.558 350.143c4.255-4.255 3.847-11.306-.916-14.983-14.802-11.428-33.361-18.227-53.508-18.227-16.71 0-32.328 4.677-45.616 12.794 0 0-8.257 6.435-12.137 9.877-18.098 16.054-27.042 38.869-27.042 64.963l84.294.501z" fill="#ff8086"/><path d="m401.52 329.73c-16.1 19.36-26.33 46.08-26.98 74.93l-15.04-.09c0-31.69 16.82-59.45 42.02-74.84z" fill="#e5646e"/><path d="m211.5 403.33v1.17h-87v-28.5l82.975-.001c2.63 8.7 4.025 17.881 4.025 27.331z" fill="#e5646e"/><path d="m140.5 392h257v19h-257z" fill="#f8f7f7"/><path d="m140.5 405h257v12h-257z" fill="#e8e8e8"/><g><path d="m149.5 404.5c0-31.756-25.744-57.5-57.5-57.5-12.558 0-24.175 4.026-33.632 10.857 0 0-4.971 5.139-7.514 7.859-9.612 10.277-12.744 23.602-12.744 38.784 0 31.756 22.134 55.172 53.89 55.172 11.568 0 21.807-3.37 30.826-9.248 5.945-3.875 15.809-12.281 15.809-12.281 6.836-9.459 10.865-21.08 10.865-33.643z" fill="#857e87"/><path d="m138.63 438.14c-10.43 14.46-27.43 23.86-46.63 23.86-31.76 0-57.5-25.74-57.5-57.5 0-19.2 9.41-36.21 23.87-46.64-6.84 9.46-10.87 21.08-10.87 33.64 0 31.76 25.74 57.5 57.5 57.5 12.56 0 24.18-4.02 33.63-10.86z" fill="#6f6571"/><circle cx="92" cy="404.5" fill="#f8f7f7" r="27.5"/></g><g><path d="m504.5 404.5c0-31.756-25.744-57.5-57.5-57.5-12.558 0-24.175 4.026-33.632 10.857 0 0-4.971 5.139-7.514 7.859-9.611 10.277-12.743 23.603-12.743 38.784 0 31.756 22.134 55.172 53.89 55.172 11.568 0 21.807-3.37 30.826-9.248 5.945-3.875 15.809-12.281 15.809-12.281 6.835-9.459 10.864-21.08 10.864-33.643z" fill="#857e87"/><path d="m493.63 438.14c-10.43 14.46-27.43 23.86-46.63 23.86-31.76 0-57.5-25.74-57.5-57.5 0-19.2 9.41-36.21 23.87-46.64-6.84 9.46-10.87 21.08-10.87 33.64 0 31.76 25.74 57.5 57.5 57.5 12.56 0 24.18-4.02 33.63-10.86z" fill="#6f6571"/><circle cx="447" cy="404.5" fill="#f8f7f7" r="27.5"/></g><path d="m68.858 117.137-5.469-28.113c-3.125-16.062-18.543-26.657-34.657-23.815l-4.452.785-1.563 1.26c-6.546 1.154-10.906 7.409-9.725 13.95l24.522 123.826 83.78-.22-.661-6.275c0-.433 2.861-6.083 2.849-6.514-.497-17.906-11.264-33.985-27.731-41.23-13.938-6.133-23.985-18.707-26.893-33.654z" fill="#857e87"/><path d="m123.482 192.021.018 14.979-42.28 7.24-46.72-7.24-22.85-126.54c-1.19-6.54 3.18-12.8 9.72-13.95l2.909-.516 21.86 121.072c.516 2.856 3.002 4.934 5.905 4.934z" fill="#6f6571"/><path d="m214.5 137h-113c-.678 0-1.346.045-2.001.132 0 0-11.371 9.127-11.371 16.732v6.771c0 2.761 2.239 5 5 5l129.67-.128c2.761 0 5-2.239 5-5l1.702-6.507v-2c0-8.284-6.716-15-15-15z" fill="#6f6571"/><path d="m229.5 154v8c0 2.761-2.239 5-5 5h-133c-2.761 0-5-2.239-5-5v-10c0-7.6 5.659-13.898 12.999-14.868l.001 9.868c0 3.866 3.134 7 7 7z" fill="#635a63"/><path d="m228.468 254.241-177.908-3.028c-6.627 0-12-5.373-12-12l-4.06-32.213h177c16.569 0 30 13.431 30 30v4l-1.032 1.241c0 6.627-5.373 12-12 12z" fill="#857e87"/><path d="m241.5 241v3c0 6.627-5.373 12-12 12h-183c-6.627 0-12-5.373-12-12v-37l8.05-4.255 6.95 4.255v22c0 6.627 5.373 12 12 12z" fill="#6f6571"/></g><g><path d="m92 369.5c-19.299 0-35 15.701-35 35s15.701 35 35 35 35-15.701 35-35-15.701-35-35-35zm0 55c-11.028 0-20-8.972-20-20s8.972-20 20-20 20 8.972 20 20-8.972 20-20 20z"/><path d="m498.015 364.292 8.845-8.846c3.566-3.565 5.426-8.498 5.104-13.531-.32-5.007-2.777-9.634-6.739-12.692-6.762-5.221-14.07-9.431-21.769-12.618l-22.916-42.968c-4.403-8.255-13.438-12.84-22.564-11.732l-12.001-54.405h54.303c11.308 0 20.904-8.46 22.321-19.678l9.342-73.881c.271-2.136-.391-4.285-1.814-5.9s-3.473-2.541-5.626-2.541h-101.069c-3.819-15.332-11.859-29.167-23.365-40.122-3-2.855-7.747-2.74-10.604.261-2.856 3-2.74 7.747.26 10.604 9.886 9.411 16.66 21.408 19.59 34.692l34.022 154.235-14.607 3.408-34.062-154.413c-5.327-24.143-27.137-41.666-51.86-41.666h-53.306c-4.136 0-7.5-3.364-7.5-7.5s3.364-7.5 7.5-7.5h53.306c6.716 0 13.403 1.003 19.875 2.98 3.958 1.209 8.153-1.019 9.364-4.981 1.21-3.961-1.02-8.154-4.981-9.365-7.894-2.412-16.055-3.635-24.258-3.635h-53.306c-12.406.002-22.5 10.095-22.5 22.502s10.094 22.5 22.5 22.5h53.306c17.74 0 33.391 12.574 37.212 29.897l34.144 154.785c-7.691 2.88-13.363 9.846-14.458 18.116l-7.341 55.472c-8.922 11.339-15.169 24.582-18.215 38.729h-136.905c-4.932-27.191-22.274-53.185-46.743-68.073v-52.926h59c10.752 0 19.5-8.748 19.5-19.5v-7c0-20.678-16.822-37.5-37.5-37.5h-21.5v-25h34.5c6.893 0 12.5-5.607 12.5-12.5v-10c0-12.407-10.093-22.5-22.5-22.5h-46.5c-4.142 0-7.5 3.358-7.5 7.5s3.358 7.5 7.5 7.5h46.5c4.136 0 7.5 3.364 7.5 7.5v7.5h-128v-7.5c0-4.136 3.364-7.5 7.5-7.5h31.5c4.142 0 7.5-3.358 7.5-7.5s-3.358-7.5-7.5-7.5h-31.5c-5.795 0-11.085 2.203-15.078 5.815-5.196-5.374-8.749-12.14-10.203-19.61l-5.469-28.113c-3.88-19.943-23.314-33.294-43.321-29.77l-7.36 1.298c-9.291 1.511-17.914 11.519-15.803 22.67l22.734 125.881v36.329c0 10.752 8.748 19.5 19.5 19.5h69v36.366c-20.912-1.794-42.04.499-62.265 6.87-15.692 4.942-26.235 19.316-26.235 35.768v.496h-9.5c-9.649 0-17.5 7.851-17.5 17.5v34c0 9.649 7.851 17.5 17.5 17.5h9.946c3.732 32.319 31.25 57.5 64.554 57.5 28.864 0 53.382-18.917 61.838-45h72.162c4.142 0 7.5-3.358 7.5-7.5s-3.358-7.5-7.5-7.5h-69.211c.055-1.881.433-3.418 0-10h225.423c-.055 1.881-.433 3.418 0 10h-121.212c-4.142 0-7.5 3.358-7.5 7.5s3.358 7.5 7.5 7.5h124.162c8.457 26.083 32.974 45 61.838 45 35.841 0 65-29.159 65-65 0-15.172-5.24-29.135-13.985-40.208zm-50.71-83.596 16.059 30.11c-5.309-.905-10.729-1.374-16.229-1.374-20.793 0-40.918 6.818-57.383 19.28l4.823-36.446c.407-3.075 2.71-5.615 5.73-6.32l38.678-9.025c3.303-.768 6.726.783 8.322 3.775zm32.972-88.196h-57.612l-9.265-42h78.798l-4.481 35.441c-.472 3.739-3.67 6.559-7.44 6.559zm13.819-57h-84.003l-3.309-15h89.209zm-319.096 64h-14v-25h14zm-44 0v-6.184c0-6.487-1.16-12.837-3.387-18.816h18.387v25zm-111.237-123.749c.689-.989 1.723-1.649 2.91-1.858l7.36-1.298c12.007-2.12 23.666 5.895 25.993 17.861l5.469 28.113c2.329 11.975 8.552 22.65 17.697 30.532-.122.95-.192 1.916-.192 2.899v10c0 6.893 5.607 12.5 12.5 12.5h19.634c3.181 5.752 4.866 12.183 4.866 18.816v6.184h-75.233l-21.741-120.376c-.214-1.186.048-2.384.737-3.373zm22.237 168.249v-29.5h169.5c12.407 0 22.5 10.093 22.5 22.5v7c0 2.481-2.019 4.5-4.5 4.5h-183c-2.481 0-4.5-2.019-4.5-4.5zm88.5 19.5h25v45.329c-7.345-3.004-15.385-5.18-25-6.954zm-115.5 131v-34c0-1.378 1.122-2.5 2.5-2.5h9.5v39h-9.5c-1.378 0-2.5-1.122-2.5-2.5zm77 60c-27.57 0-50-22.43-50-50s22.43-50 50-50 50 22.43 50 50-22.43 50-50 50zm0-115c-20.085 0-38.068 9.16-50 23.518v-20.514c0-9.871 6.326-18.495 15.741-21.461 26.457-8.333 54.615-8.991 81.434-1.902 31.931 8.44 55.819 33.641 62.767 65.359h-48.104c-8.456-26.083-32.974-45-61.838-45zm277.556 45c9.009-34.78 40.943-60.067 77.578-60.067 17.887 0 34.805 5.762 48.925 16.664.753.581.909 1.363.937 1.777.027.43-.032 1.257-.741 1.965l-8.822 8.822c-11.109-8.852-25.158-14.161-40.433-14.161-28.864 0-53.381 18.917-61.838 45zm77.444 70c-27.57 0-50-22.43-50-50s22.43-50 50-50 50 22.43 50 50-22.43 50-50 50z"/><path d="m468.009 385.236c-3.68 1.9-5.123 6.425-3.223 10.105 1.469 2.845 2.214 5.926 2.214 9.159 0 11.028-8.972 20-20 20s-20-8.972-20-20c0-9.26 6.541-17.463 15.554-19.506 4.04-.916 6.572-4.932 5.657-8.972-.916-4.04-4.936-6.572-8.972-5.657-16.038 3.635-27.239 17.671-27.239 34.135 0 19.299 15.701 35 35 35s35-15.701 35-35c0-5.571-1.344-11.118-3.886-16.041-1.9-3.681-6.426-5.122-10.105-3.223z"/></g></g></svg>