<svg id="Capa_1" enable-background="new 0 0 506.605 506.605" height="512" viewBox="0 0 506.605 506.605" width="512" xmlns="http://www.w3.org/2000/svg"><g><g><g><path d="m395.337 181.94-18.08-50.605c-.995-2.786-3.634-4.645-6.592-4.645h-248.488c-13.807 0-25-11.193-25-25 0-13.807 11.193-25 25-25h263.99c14.75 0 27.99 9.33 32.96 23.22l29.31 82.03z" fill="#f4d7c8"/></g><path d="m419.127 99.91c-4.97-13.89-18.21-23.22-32.96-23.22h-30c14.75 0 27.99 9.33 32.96 23.22l29.31 82.03h30z" fill="#ecbba3"/><path d="m396.798 429.914h-27l-7.367-2.354-7.63 2.354h-28.998l-7.31-2.782-7.687 2.782h-28.789l-7.5-2.568-7.5 2.568h-29.21l-6.606-3.425-8.39 3.425h-28.004l-7.485-3.639-7.51 3.639h-28l-6.285-3.211-8.712 3.211h-26.997l-6.942-2.997-8.06 2.997h-32.969l-5.813-4.26-9.188 4.26h-29.336c-6.473 0-11.24-6.056-9.72-12.348l27.214-112.649h436.606l27.214 112.649c1.52 6.292-3.247 12.348-9.72 12.348h-31.298l-7.284-3.211-7.749 3.211h-30.975" fill="#fef0ae"/><path d="m498.824 417.566-27.214-112.649h-30l27.213 112.649c1.52 6.292-3.247 12.348-9.72 12.348h30c6.473 0 11.241-6.056 9.721-12.348z" fill="#fee97d"/><path d="m482.708 304.917h-458.802c-9.723 0-16.877-9.109-14.573-18.555l21.751-89.165c2.185-8.957 10.21-15.26 19.43-15.26h405.585c9.22 0 17.245 6.303 19.43 15.26l21.751 89.165c2.305 9.447-4.849 18.555-14.572 18.555z" fill="#e19974"/><path d="m497.28 286.363-21.751-89.164c-2.185-8.957-10.21-15.26-19.43-15.26h-30c9.22 0 17.245 6.303 19.43 15.26l21.751 89.164c2.304 9.446-4.849 18.555-14.573 18.555h30c9.724-.001 16.878-9.109 14.573-18.555z" fill="#dc8758"/></g><path d="m506.114 415.805-9.396-38.892c-.973-4.027-5.025-6.501-9.051-5.529-4.026.973-6.501 5.025-5.529 9.052l9.396 38.892c.363 1.807-.604 3.014-2.431 3.087h-31.982l-10.56-109.997h19.145l8.22 34.026c.972 4.026 5.027 6.498 9.051 5.529 4.026-.973 6.502-5.025 5.529-9.052l-7.369-30.503c14.532.697 27.182-13.089 23.429-27.832l-21.751-89.165c-3.245-13.277-15.526-21.902-29.095-20.983l-27.532-77.055c-6.034-16.863-22.117-28.193-40.021-28.193h-263.99c-17.92 0-32.5 14.58-32.5 32.5s14.58 32.5 32.5 32.5h71.785c4.142 0 7.5-3.358 7.5-7.5s-3.358-7.5-7.5-7.5h-71.785c-9.649 0-17.5-7.851-17.5-17.5s7.851-17.5 17.5-17.5h263.99c11.586 0 21.994 7.333 25.897 18.243l25.728 72.005h-37.171l-16.302-45.628c-2.057-5.754-7.544-9.62-13.655-9.62h-141.702c-4.142 0-7.5 3.358-7.5 7.5s3.358 7.5 7.5 7.5h141.351l14.38 40.248h-334.179c-12.717 0-23.703 8.628-26.716 20.983l-21.751 89.164c-3.691 14.232 8.382 29.005 23.429 27.832l-24.976 103.388c-2.691 10.735 5.842 21.693 17.011 21.609h471.593c11.04.072 19.688-10.843 17.01-21.609zm-482.208-118.388c-4.78.031-8.447-4.652-7.287-9.277l21.751-89.165c1.37-5.616 6.364-9.538 12.144-9.538h405.585c5.78 0 10.774 3.922 12.144 9.538l21.75 89.165c1.157 4.612-2.521 9.309-7.286 9.277zm23.64 124.998h-30.036c-1.816-.072-2.786-1.305-2.431-3.087l25.828-106.91h18.079zm47.669 0h-32.587l11.44-109.997h27.308zm41.886 0h-26.862l6.16-109.997h25.102zm42.847 0h-27.835l4.4-109.997h25.52zm42.966 0h-27.964l2.085-109.997h27.453zm44.103 0h-29.103l1.575-109.997h27.528zm15 0v-109.998h27.502l1.205 109.997h-28.707zm43.708 0-1.205-109.997h25.581l4.4 109.997zm43.788 0-4.4-109.997h26.045l5.28 109.997zm41.942 0-5.28-109.997h25.317l10.56 109.997z"/></g></svg>