<svg id="Layer_1" enable-background="new 0 0 512 512" height="512" viewBox="0 0 512 512" width="512" xmlns="http://www.w3.org/2000/svg"><g><path clip-rule="evenodd" d="m459.119 92.25c0 7.022-.25 13.165-.878 18.306-.627 5.141-1.505 9.278-2.633 12.287-1.128 3.135-2.382 5.266-4.012 6.394-1.63 1.254-3.511 1.881-5.642 1.881-3.26 0-8.401-2.257-15.422-6.645-7.147-4.388-16.551-9.278-28.336-14.419-11.786-5.141-25.704-10.031-42.003-14.419-16.3-4.388-35.233-6.645-56.798-6.645-22.945 0-43.759 4.012-62.315 11.911-18.682 8.025-34.606 19.309-47.771 33.853-13.165 14.67-23.321 32.098-30.468 52.66-7.147 20.438-10.658 43.006-10.658 67.832 0 27.208 3.636 51.156 10.783 71.969 7.272 20.688 17.428 37.991 30.342 52.034 13.04 13.917 28.713 24.45 46.893 31.596 18.306 7.147 38.492 10.658 60.434 10.658 10.783 0 21.44-1.254 31.973-3.636 10.658-2.508 20.437-6.269 29.465-11.159v-110.837h-89.899c-4.389 0-7.774-2.758-10.282-8.275-2.382-5.517-3.636-14.795-3.636-28.086 0-6.771.251-12.538.878-17.178.627-4.639 1.63-8.4 2.758-11.159 1.254-2.884 2.758-4.89 4.388-6.269 1.755-1.379 3.762-2.006 5.893-2.006h160.489c3.887 0 7.397.627 10.406 2.006 3.135 1.379 5.768 3.385 8.15 6.144 2.257 2.633 4.138 5.893 5.266 9.654 1.254 3.887 1.881 8.275 1.881 13.165v189.578c0 7.398-1.254 13.792-3.887 19.309-2.508 5.517-7.774 9.905-15.798 13.04-7.899 3.26-17.804 6.519-29.59 10.03-11.786 3.385-23.948 6.394-36.612 8.777-12.538 2.508-25.327 4.389-38.242 5.517-12.789 1.254-25.703 1.88-38.743 1.88-37.991 0-71.969-5.517-102.061-16.425-29.966-10.908-55.419-26.706-76.233-47.394-20.813-20.688-36.737-45.89-47.771-75.731-11.031-29.84-16.548-63.567-16.548-101.308 0-38.994 5.893-73.976 17.679-104.945 11.661-31.095 28.336-57.425 49.902-79.116s47.52-38.242 78.113-49.777c30.469-11.535 64.447-17.302 101.811-17.302 20.688 0 39.37 1.379 56.297 4.263 16.801 2.884 31.596 6.269 44.26 10.407 12.538 4.012 23.07 8.401 31.346 13.04 8.4 4.764 14.168 8.777 17.428 12.288 3.385 3.385 5.768 8.275 7.147 14.544 1.504 6.143 2.256 15.421 2.256 27.708z" fill="#cbe558" fill-rule="evenodd"/><g><path d="m458.789 224.513c-3.374-3.906-7.176-6.763-11.624-8.731-4.205-1.913-9.083-2.883-14.501-2.883h-160.49c-4.447 0-8.622 1.433-12.071 4.143-.095.075-.189.151-.281.229-2.927 2.476-5.316 5.813-7.1 9.916-.029.067-.058.134-.085.202-1.538 3.759-2.717 8.464-3.413 13.605-.651 4.817-.967 10.875-.967 18.517 0 14.623 1.457 25.106 4.455 32.049.025.059.051.117.078.175 5.591 12.3 14.545 14.137 19.385 14.137h79.899v94.696c-6.877 3.244-14.157 5.78-21.671 7.548-9.944 2.249-19.959 3.39-29.767 3.39-20.738 0-39.848-3.355-56.776-9.964-16.77-6.592-31.322-16.392-43.191-29.059-12.022-13.072-21.533-29.417-28.245-48.512-2.755-8.023-4.981-16.66-6.619-25.67-.987-5.434-6.193-9.04-11.627-8.051-5.434.987-9.038 6.193-8.051 11.627 1.817 9.998 4.3 19.616 7.405 28.657 7.64 21.738 18.547 40.407 32.479 55.555 13.977 14.918 30.979 26.379 50.554 34.074 19.277 7.526 40.833 11.342 64.071 11.342 11.29 0 22.789-1.306 34.263-3.902 11.26-2.649 22.006-6.72 31.938-12.101 3.227-1.748 5.237-5.123 5.237-8.793v-110.838c0-5.523-4.477-10-10-10h-89.621c-.253-.27-.771-.927-1.415-2.322-1.056-2.497-2.781-8.899-2.781-24.039 0-6.737.257-11.917.788-15.838.61-4.518 1.538-7.303 2.063-8.612.492-1.11.944-1.773 1.277-2.161h160.279c2.553 0 4.652.369 6.239 1.097.047.021.094.042.142.063 1.743.767 3.164 1.854 4.584 3.498 1.484 1.731 2.618 3.813 3.28 6.019.02.066.041.132.062.197.927 2.874 1.397 6.271 1.397 10.095v189.578c0 5.99-.952 10.896-2.912 15.001-.027.057-.053.113-.079.17-1.748 3.845-6.584 6.399-10.333 7.864-.059.023-.117.046-.175.07-6.904 2.849-16.001 5.928-28.537 9.663-12.518 3.596-24.195 6.396-35.699 8.561-.038.007-.075.014-.112.021-12.46 2.492-24.959 4.295-37.152 5.361-.035.003-.07.006-.105.01-12.403 1.216-25.11 1.833-37.768 1.833-36.492 0-69.683-5.325-98.64-15.822-28.519-10.381-52.947-25.552-72.604-45.09-19.702-19.583-34.99-43.843-45.441-72.107-10.57-28.587-15.93-61.506-15.93-97.84 0-37.592 5.728-71.704 17.042-101.434 11.055-29.479 27.08-54.907 47.631-75.577 20.432-20.551 45.514-36.522 74.563-47.475 29.187-11.051 62.25-16.655 98.268-16.655 20.476 0 38.342 1.348 54.605 4.118 17.112 2.938 31.126 6.227 42.904 10.075 11.863 3.796 21.79 7.914 29.46 12.214 7.545 4.28 12.603 7.777 15.033 10.394.084.091.169.18.257.267 1.958 1.958 3.498 5.285 4.452 9.621.017.077.035.154.054.23.898 3.67 1.97 11.043 1.97 25.331 0 7.068-.263 12.66-.804 17.096-.667 5.471-1.494 8.451-2.07 9.987-.016.042-.031.083-.045.124-.253.703-.466 1.198-.627 1.536-1.126-.328-4.024-1.425-9.808-5.041-8.08-4.961-18.029-10.029-29.571-15.063-12.813-5.589-27.415-10.605-43.401-14.91-17.224-4.637-37.208-6.989-59.398-6.989-24.136 0-46.419 4.276-66.262 12.722-19.925 8.559-37.164 20.782-51.266 36.363-14.065 15.673-24.99 34.534-32.465 56.039-2.716 7.766-4.968 15.949-6.692 24.323-1.114 5.41 2.368 10.698 7.777 11.812 5.411 1.115 10.698-2.368 11.812-7.777 1.546-7.506 3.559-14.826 5.989-21.773 6.698-19.271 16.009-35.386 28.436-49.233 12.132-13.403 27.038-23.96 44.273-31.363 17.322-7.373 36.97-11.112 58.399-11.112 20.435 0 38.669 2.12 54.198 6.301 15.034 4.048 28.696 8.734 40.605 13.929 10.693 4.664 19.811 9.298 27.034 13.732 9.035 5.647 15.425 8.166 20.722 8.166 4.237 0 8.226-1.317 11.553-3.813 4.228-3.036 6.296-7.715 7.489-11.017 1.401-3.759 2.439-8.51 3.172-14.522.64-5.247.951-11.631.951-19.517 0-13.184-.823-22.991-2.516-29.973-1.79-8.057-5.047-14.522-9.685-19.219-3.94-4.196-10.208-8.665-19.741-14.072-8.883-4.98-20.049-9.637-33.13-13.823-12.653-4.135-27.593-7.653-45.687-10.759-17.399-2.964-36.363-4.404-57.977-4.404-38.446 0-73.892 6.04-105.338 17.946-31.733 11.964-59.213 29.487-81.677 52.083-22.563 22.694-40.117 50.503-52.157 82.61-12.165 31.965-18.333 68.47-18.333 108.502 0 38.709 5.777 73.961 17.171 104.777 11.466 31.009 28.322 57.708 50.1 79.355 21.729 21.597 48.599 38.318 79.875 49.703 31.161 11.296 66.646 17.024 105.469 17.024 13.287 0 26.632-.647 39.663-1.922 12.887-1.128 26.084-3.031 39.227-5.657 12.106-2.28 24.363-5.219 37.562-9.011 13.245-3.945 22.929-7.231 30.464-10.335 10.386-4.077 17.495-10.163 21.131-18.09 3.247-6.835 4.825-14.536 4.825-23.538v-189.579c0-5.873-.785-11.302-2.333-16.139-1.462-4.822-3.958-9.381-7.245-13.216z"/><path d="m152.176 245.248c-5.523 0-9.996 4.477-9.996 10s4.48 10 10.003 10 10-4.477 10-10-4.477-10-10-10z"/></g></g></svg>