<svg id="Capa_1" enable-background="new 0 0 512.001 512.001" height="512" viewBox="0 0 512.001 512.001" width="512" xmlns="http://www.w3.org/2000/svg"><g><g><path d="m459.044 307.239h-180.298v-173.462c0-42.001 34.049-76.05 76.05-76.05h28.198c42.001 0 76.05 34.049 76.05 76.05z" fill="#d19a6e"/><path d="m382.994 57.727h-19.706c42.001 0 76.05 34.049 76.05 76.05v173.461h19.706v-173.461c0-42.001-34.049-76.05-76.05-76.05z" fill="#c38c66"/><path d="m220.744 123.545h-154.517l.118-65.102c0-15.166 12.294-27.46 27.46-27.46h99.596c15.166 0 27.46 12.294 27.46 27.46z" fill="#5d5360"/><path d="m193.402 30.982h-19.706c15.166 0 27.46 12.294 27.46 27.46l-.118 65.102h19.706l.118-65.102c0-15.165-12.294-27.46-27.46-27.46z" fill="#4b3f4e"/><path d="m233.256 481.018h-180.298v-215.357l66.077-13.973h49.137l65.084 13.973z" fill="#f7f9fa"/><path d="m168.172 251.688h-19.705l65.083 13.973v215.357h19.706v-215.357z" fill="#e9edf1"/><path d="m87.999 97.992-13.465 25.552v51.057c0 19.37 15.702 35.072 35.073 35.072h67.994c19.37 0 35.072-15.702 35.072-35.072v-51.057l-13.31-25.258c-3.906-7.412-12.446-11.104-20.522-8.871l-28.425 7.859c-2.975.823-6.113.859-9.107.104l-33.184-8.362c-7.975-2.009-16.291 1.699-20.126 8.976z" fill="#fed2a4"/><g><path d="m199.363 98.287c-3.906-7.412-12.446-11.104-20.522-8.871l-6.146 1.699c2.88 1.637 5.329 4.074 6.962 7.172l13.31 25.258v51.057c0 19.37-15.703 35.073-35.073 35.073h19.706c19.37 0 35.073-15.702 35.073-35.073v-51.057z" fill="#ffbd86"/></g><path d="m74.531 165.263h-9.26c-11.52 0-20.859-9.339-20.859-20.859 0-11.52 9.339-20.859 20.859-20.859h9.26z" fill="#fed2a4"/><path d="m65.271 123.545c-3.008 0-5.86.649-8.443 1.795v38.129c2.583 1.146 5.435 1.795 8.443 1.795h9.26v-41.719z" fill="#ffbd86"/><path d="m221.936 165.263h-9.26v-41.719h9.26c11.52 0 20.859 9.339 20.859 20.859 0 11.521-9.339 20.86-20.859 20.86z" fill="#fed2a4"/><path d="m221.936 123.545h-9.26v1.795c7.311 3.243 12.417 10.552 12.417 19.064 0 8.513-5.106 15.822-12.417 19.064v1.795h9.26c11.52 0 20.859-9.339 20.859-20.859 0-11.52-9.339-20.859-20.859-20.859z" fill="#ffbd86"/><path d="m119.035 209.674h49.137v42.014l-24.568 17.089-24.569-17.089z" fill="#fed2a4"/><path d="m148.467 209.674v42.014l-14.716 10.236 9.853 6.853 24.568-17.089v-42.014z" fill="#ffbd86"/><path d="m52.958 265.661c-27.296 9.956-45.457 35.911-45.457 64.966v32.804h45.457z" fill="#a2aee6"/><path d="m52.958 265.661c-7.278 2.654-13.898 6.455-19.706 11.14v86.629h19.706z" fill="#8795de"/><path d="m7.501 363.43h45.457v117.588h-45.457z" fill="#fed2a4"/><path d="m33.252 363.43h19.706v117.588h-19.706z" fill="#ffbd86"/><path d="m233.256 265.661c27.296 9.956 45.457 35.911 45.457 64.966v32.804h-45.457z" fill="#8795de"/><path d="m315.042 192.441h-23.983c-11.52 0-20.859-9.339-20.859-20.859 0-11.52 9.339-20.859 20.859-20.859h9.26z" fill="#ffe5c2"/><path d="m300.318 150.722h-9.26c-3.005 0-5.855.648-8.436 1.792l.129 38.197c2.547 1.107 5.353 1.73 8.307 1.73h23.983z" fill="#fed2a4"/><path d="m447.724 192.441h-24.769l15.51-41.719h9.26c11.52 0 20.859 9.339 20.859 20.859-.001 11.521-9.34 20.86-20.86 20.86z" fill="#ffe5c2"/><path d="m447.724 150.722h-9.26l-.575 1.547c7.618 3.107 12.992 10.577 12.992 19.312 0 11.52-9.339 20.859-20.859 20.859h17.702c11.52 0 20.859-9.339 20.859-20.859s-9.339-20.859-20.859-20.859z" fill="#fed2a4"/><path d="m278.746 292.838c-27.296 9.956-45.457 35.911-45.457 64.966v32.804h45.457z" fill="#fe5694"/><path d="m278.746 292.838c-7.278 2.655-13.898 6.456-19.706 11.14v86.629h19.706z" fill="#fd3581"/><path d="m233.288 390.608h45.457v90.41h-45.457z" fill="#ffe5c2"/><path d="m259.04 390.608h19.706v90.41h-19.706z" fill="#fed2a4"/><path d="m459.044 292.838c27.296 9.956 45.457 35.911 45.457 64.966v32.804h-45.457z" fill="#fe5694"/><path d="m459.044 292.838v11.14c15.975 12.886 25.751 32.518 25.751 53.826v32.804h19.706v-32.804c0-29.054-18.162-55.01-45.457-64.966z" fill="#fd3581"/><path d="m459.044 390.608h45.457v90.41h-45.457z" fill="#ffe5c2"/><path d="m484.795 390.608h19.706v90.41h-19.706z" fill="#fed2a4"/><path d="m406.041 281.46 24.53 5.27 28.47 6.11v188.18h-180.3v-188.18l28.52-6.03 25.44-5.38z" fill="#fe5694"/><path d="m430.571 286.73-24.53-5.27-73.34-.03-.038.008 53.672.022 24.53 5.27 28.47 6.11v188.18h19.706v-188.18z" fill="#fd3581"/><path d="m430.571 286.73c-13.2 20.03-35.9 33.25-61.68 33.25-25.75 0-48.42-13.18-61.63-33.17l25.44-5.38c7.06-1.5 12.12-7.73 12.12-14.96v-47.735h49.14v47.775c0 7.21 5.03 13.44 12.08 14.95z" fill="#ffe5c2"/><path d="m406.041 281.46c-7.05-1.51-12.08-7.74-12.08-14.95v-47.775h-19.706v47.775c0 7.21 5.03 13.44 12.08 14.95l24.53 5.27c-11.49 17.434-30.178 29.705-51.828 32.593 3.224.43 6.512.657 9.854.657 25.78 0 48.48-13.22 61.68-33.25z" fill="#fed2a4"/><path d="m143.604 268.777-19.794 21.635c-3.589 3.923-9.952 3.245-12.634-1.346l-18.57-31.789 26.43-5.589z" fill="#a6e7f0"/><path d="m143.604 268.777 19.794 21.635c3.589 3.923 9.952 3.245 12.634-1.346l18.57-31.789-26.43-5.589z" fill="#6bd9e7"/><path d="m438.461 150.722v17.06c0 38.146-30.923 69.07-69.07 69.07-38.146 0-69.07-30.923-69.07-69.07v-17.06s76.906-10.02 98.437-49.235c.001 0 10.475 39.343 39.703 49.235z" fill="#ffe5c2"/><path d="m398.759 101.487c-3.309 6.027-7.929 11.361-13.373 16.078 5.983 12.078 16.582 27.475 33.37 33.157v17.06c0 34.8-25.74 63.575-59.217 68.358 3.219.46 6.506.711 9.853.711 38.146 0 69.069-30.924 69.069-69.07v-17.06c-29.228-9.891-39.702-49.234-39.702-49.234z" fill="#fed2a4"/></g><g><path d="m52.958 420.199c-4.142 0-7.5 3.358-7.5 7.5v53.319c0 4.142 3.358 7.5 7.5 7.5s7.5-3.358 7.5-7.5v-53.319c0-4.142-3.358-7.5-7.5-7.5z"/><path d="m466.541 287.798v-95.008c5.207-4.523 9.602-12.821 9.54-21.209 0-8.421-3.693-15.992-9.54-21.191v-16.61c.193-46.254-38.301-83.628-83.55-83.55h-28.2c-46.069 0-83.55 37.48-83.55 83.55v17.524c-.077.075-.158.147-.234.223-5.356 5.356-8.306 12.478-8.306 20.053 0 15.638 12.722 28.36 28.359 28.36h8.867c7.641 16.439 20.943 29.724 37.394 37.345v29.184c0 3.657-2.599 6.863-6.172 7.623l-44.908 9.496v-58.432c0-4.142-3.357-7.5-7.5-7.5s-7.5 3.358-7.5 7.5v59.986c-8.512-11.66-22.07-22.073-36.411-26.815l-59.158-12.72v-28.434c24.427 1.151 45.566-19.564 44.5-44.411 15.653 1.004 30.202-12.11 30.123-28.359 0-13.464-9.435-24.76-22.039-27.641l.106-58.321c0-19.277-15.683-34.96-34.96-34.96h-99.597c-19.277 0-34.96 15.683-34.96 34.946l-.106 58.384c-12.498 2.959-21.828 14.203-21.828 27.592-.091 15.846 13.843 29.224 30.122 28.359-1.105 24.442 19.652 45.51 44.501 44.411v28.434l-60.129 12.715c-30.148 10.202-51.545 40.038-51.404 72.305v150.392c0 4.142 3.358 7.5 7.5 7.5s7.5-3.358 7.5-7.5v-110.088h30.457v21.545c0 4.142 3.358 7.5 7.5 7.5s7.5-3.358 7.5-7.5v-120.735l28.402-6.006 15.84 27.114c4.471 7.793 17.049 10.86 24.643 2.625l6.761-7.39v44.014c0 4.142 3.358 7.5 7.5 7.5s7.5-3.358 7.5-7.5v-44.013l6.761 7.389c5.106 6.243 19.5 6.972 24.644-2.625l15.786-27.023 27.462 5.896v209.297c0 4.142 3.358 7.5 7.5 7.5.005 0 .011-.001.016-.001s.011.001.016.001c4.142 0 7.5-3.358 7.5-7.5v-82.911h30.458v82.911c0 4.142 3.357 7.5 7.5 7.5s7.5-3.358 7.5-7.5v-131.141c0-4.142-3.357-7.5-7.5-7.5s-7.5 3.358-7.5 7.5v33.23h-30.458v-25.304c1.388-40.203 29.447-58.591 63.201-62.636 12.006 15.901 29.247 26.691 48.47 30.638l-1.982 1.982c-2.929 2.929-2.929 7.678.001 10.606 2.928 2.93 7.677 2.929 10.606 0l7.806-7.807 7.808 7.807c1.464 1.465 3.384 2.197 5.303 2.197s3.839-.732 5.304-2.197c2.929-2.929 2.929-7.678-.001-10.606l-1.981-1.981c19.251-3.952 36.509-14.766 48.519-30.705l23.071 4.954c23.997 8.962 40.089 32.105 40.089 57.75v25.304h-30.457v-33.23c0-4.142-3.357-7.5-7.5-7.5s-7.5 3.358-7.5 7.5v131.141c0 4.142 3.357 7.5 7.5 7.5s7.5-3.358 7.5-7.5v-82.911h30.457v82.911c0 4.142 3.357 7.5 7.5 7.5s7.5-3.358 7.5-7.5v-123.217c-.002-30.297-18.068-57.784-45.462-70.006zm-231.245-143.394c.036 7.341-6.955 14.131-15.119 13.359v-26.719c7.041-.812 15.111 5.074 15.119 13.36zm-141.491-105.922h99.596c11.006 0 19.96 8.954 19.96 19.946l-.091 50.163-7.273-13.801c-5.507-10.45-17.769-15.752-29.155-12.604l-28.425 7.859c-1.72.476-3.544.497-5.276.061l-33.184-8.362c-11.367-2.865-23.127 2.379-28.593 12.751l-7.61 14.442.092-50.495c-.001-11.006 8.954-19.96 19.959-19.96zm-26.775 119.282c-7.088.87-15.149-5.239-15.119-13.359-.023-7.13 6.837-14.224 15.119-13.359zm15.004 16.837v-49.201l12.6-23.911c2.229-4.229 7.025-6.367 11.66-5.2l33.185 8.363c4.246 1.069 8.719 1.017 12.937-.148l28.425-7.859c4.641-1.284 9.643.878 11.888 5.139l12.445 23.616v49.202c0 15.204-12.369 27.573-27.572 27.573h-67.994c-15.205-.001-27.574-12.37-27.574-27.574zm78.639 42.573v30.595l-17.069 11.872-17.069-11.872v-30.595zm-145.672 138.757v-25.304c0-22.04 11.884-42.237 30.457-53.169v78.473zm103.275-70.582c-.05.054-.131.147-.329.125-.196-.021-.258-.127-.295-.191l-13.329-22.817 13.092-2.768 14.869 10.342zm51.28-.066c-.038.063-.1.17-.296.191-.192.024-.279-.069-.329-.124l-14.007-15.31 14.858-10.334 13.076 2.807zm281.985-1.724-43.93-9.432c-3.563-.764-6.15-3.967-6.15-7.617v-29.224c16.451-7.621 29.753-20.906 37.395-37.346h8.865c1.289 0 2.564-.092 3.82-.26zm-3.821-125.339c7.367 0 13.36 5.994 13.36 13.36.23 7.526-7.772 14.857-17.083 13.36 1.838-6.692 2.152-18.679 1.962-26.72zm3.821-24.44v9.705c-1.475-.349-9.254-.259-11.728-.265-22.077-8.282-31.922-37.463-33.554-42.807v-31.11c26.379 9.549 45.282 34.844 45.282 64.477zm-165.3 0c0-37.798 30.751-68.55 68.55-68.55h28.2c2.8 0 5.555.188 8.269.516v33.73c-19.84 32.668-85.353 42.862-91.445 43.743-5.841.142-7.42-.377-13.573.414v-9.853zm4.819 51.16c-7.366 0-13.359-5.993-13.359-13.36-.037-6.568 6.195-14.251 15.121-13.36v9.562c0 5.9.693 11.638 1.962 17.158zm16.762-17.158v-10.654c17.344-3.058 64.348-13.502 88.759-39.99 5.63 12.52 16.378 30.272 34.38 38.646v11.998c0 33.949-27.62 61.569-61.569 61.569s-61.57-27.62-61.57-61.569zm-48.394 126.612c-7.243 4.931-13.541 11.043-18.668 18.012v-34.955c7.311 4.292 13.67 10.062 18.668 16.943m157.833-2.852c-12.434 13.27-29.835 20.938-48.371 20.938-18.482 0-35.843-7.627-48.271-20.829l13.64-2.884c10.466-2.224 18.062-11.601 18.062-22.297v-24.061c5.493 1.256 11.202 1.942 17.07 1.942s11.576-.686 17.069-1.942v24.101c0 10.677 7.574 20.049 18.005 22.283z"/><path d="m143.604 157.192c4.142 0 7.5-3.358 7.5-7.5v-16.916c0-4.142-3.358-7.5-7.5-7.5s-7.5 3.358-7.5 7.5v16.916c0 4.142 3.358 7.5 7.5 7.5z"/><path d="m143.604 189.148c10.585 0 20.187-5.407 25.685-14.464 2.149-3.541 1.021-8.153-2.52-10.303-3.54-2.149-8.153-1.021-10.303 2.52-2.755 4.538-7.563 7.248-12.862 7.248s-10.108-2.709-12.863-7.248c-2.149-3.541-6.762-4.669-10.303-2.52s-4.669 6.762-2.52 10.303c5.498 9.057 15.1 14.464 25.686 14.464z"/><path d="m368.894 181.983c4.143 0 7.5-3.358 7.5-7.5v-9.916c0-4.142-3.357-7.5-7.5-7.5s-7.5 3.358-7.5 7.5v9.916c0 4.142 3.358 7.5 7.5 7.5z"/><path d="m388.902 204.073c2.148-3.541 1.021-8.154-2.521-10.303s-8.154-1.021-10.303 2.521c-1.539 2.535-4.225 4.049-7.185 4.049-2.959 0-5.646-1.514-7.185-4.05-2.149-3.541-6.762-4.668-10.304-2.519-3.54 2.15-4.668 6.763-2.519 10.303 4.283 7.054 11.762 11.266 20.007 11.266 8.248 0 15.728-4.212 20.01-11.267z"/><circle cx="108.571" cy="136.065" r="7.5"/><circle cx="178.64" cy="136.065" r="7.5"/><circle cx="333.859" cy="169.169" r="7.5"/><circle cx="403.929" cy="169.169" r="7.5"/></g></g></svg>