<svg id="Capa_1" enable-background="new 0 0 512.009 512.009" height="512" viewBox="0 0 512.009 512.009" width="512" xmlns="http://www.w3.org/2000/svg"><g><g><g><path d="m398.004 242.996h-357.889c-8.284 0-15-6.716-15-15s6.716-15 15-15h357.889c42.183 0 76.5-34.318 76.5-76.5s-34.317-76.5-76.5-76.5h-360.5c-8.284 0-15-6.716-15-15s6.716-15 15-15h360.5c58.725 0 106.5 47.776 106.5 106.5s-47.775 106.5-106.5 106.5z" fill="#8fd8fa"/></g><g><path d="m112.004 227.508h288v266.102c0 5.338-5.734 8.711-10.4 6.119l-22.194-12.332c-2.114-1.175-4.685-1.175-6.8 0l-29.195 16.222c-2.114 1.175-4.685 1.175-6.799 0l-29.2-16.223c-2.114-1.175-4.685-1.175-6.799 0l-29.201 16.223c-2.114 1.174-4.685 1.175-6.799 0l-29.202-16.223c-2.114-1.174-4.685-1.174-6.799 0l-29.202 16.223c-2.114 1.174-4.685 1.175-6.799 0l-29.207-16.224c-2.114-1.174-4.684-1.174-6.798 0l-22.207 12.335c-4.666 2.592-10.399-.782-10.399-6.119z" fill="#eaf6ff"/><g><path d="m370.004 227.508v261.331l19.6 10.891c4.666 2.593 10.4-.781 10.4-6.119v-266.103z" fill="#d8ecfe"/></g></g><path d="m400.004 316.508h-288c-16.569 0-30-13.431-30-30v-118c0-16.569 13.431-30 30-30h288c16.569 0 30 13.431 30 30v118c0 16.568-13.431 30-30 30z" fill="#d8ecfe"/><path d="m400.004 138.508h-30c16.569 0 30 13.431 30 30v118c0 16.569-13.431 30-30 30h30c16.569 0 30-13.431 30-30v-118c0-16.569-13.431-30-30-30z" fill="#c4e2ff"/><circle cx="44.004" cy="44" fill="#8fd8fa" r="36.5"/><path d="m44.004 7.5c-5.348 0-10.423 1.16-15 3.227 12.675 5.723 21.5 18.463 21.5 33.273s-8.826 27.55-21.5 33.273c4.577 2.067 9.652 3.227 15 3.227 20.158 0 36.5-16.342 36.5-36.5s-16.341-36.5-36.5-36.5z" fill="#6bcdfe"/></g><path d="m398.004 22.5h-315.631c-7.547-13.414-21.913-22.5-38.369-22.5-24.262 0-44 19.738-44 44s19.738 44 44 44c15.624 0 29.362-8.192 37.171-20.5h84.033c4.142 0 7.5-3.358 7.5-7.5s-3.358-7.5-7.5-7.5h-78.035c.541-2.752.832-5.592.832-8.5 0-2.208-.168-4.378-.484-6.5h310.484c54.589 0 99 44.411 99 99 0 38.916-23.876 75.19-59.5 90.74v-16.644c27.182-14.531 44.5-43.095 44.5-74.096 0-46.318-37.683-84-84-84h-197.797c-4.142 0-7.5 3.358-7.5 7.5s3.358 7.5 7.5 7.5h197.796c38.047 0 69 30.953 69 69 0 22.666-11.272 43.753-29.5 56.534v-24.527c0-20.678-16.822-37.5-37.5-37.5h-288c-20.678 0-37.5 16.822-37.5 37.5v36.993h-34.39c-12.407 0-22.5 10.093-22.5 22.5s10.093 22.5 22.5 22.5h34.39v36.007c0 18.11 12.904 33.261 30 36.745v82.251c0 4.142 3.358 7.5 7.5 7.5s7.5-3.358 7.5-7.5v-47.321c4.142 0 7.5-3.358 7.5-7.5s-3.358-7.5-7.5-7.5v-19.175h273v19.175c-4.143 0-7.5 3.358-7.5 7.5s3.357 7.5 7.5 7.5v134.579l-21.443-11.916c-4.425-2.462-9.698-2.458-14.088-.002l-28.958 16.085-28.941-16.076c-4.41-2.465-9.683-2.468-14.101-.01l-28.958 16.085-28.94-16.076c-4.411-2.465-9.684-2.468-14.102-.01l-28.958 16.085-28.95-16.076c-4.352-2.433-9.758-2.433-14.09-.011l-21.47 11.919v-52.258c0-4.142-3.358-7.5-7.5-7.5s-7.5 3.358-7.5 7.5v53.106c0 5.191 2.669 9.862 7.14 12.495 4.472 2.633 9.854 2.703 14.4.182l21.965-12.194 28.981 16.093c4.408 2.433 9.665 2.43 14.066-.01l28.958-16.085 28.976 16.096c4.407 2.432 9.663 2.431 14.065-.01l28.959-16.085 28.976 16.096c4.41 2.433 9.665 2.43 14.065-.01l28.958-16.085 21.952 12.198c4.543 2.519 9.925 2.45 14.397-.185 4.472-2.633 7.141-7.304 7.141-12.495v-170.354c17.096-3.484 30-18.635 30-36.745v-43.093c43.896-16.252 74.5-59.928 74.5-106.915 0-62.86-51.14-114-114-114zm-354 50.5c-15.991 0-29-13.009-29-29s13.009-29 29-29 29 13.009 29 29-13.009 29-29 29zm30.5 162.5h-34.39c-4.136 0-7.5-3.364-7.5-7.5s3.364-7.5 7.5-7.5h34.39zm348 51.007c0 12.407-10.094 22.5-22.5 22.5h-288c-12.407 0-22.5-10.093-22.5-22.5v-118c0-12.407 10.093-22.5 22.5-22.5h288c12.406 0 22.5 10.093 22.5 22.5zm-206.646 71.676c4.142 0 7.5-3.358 7.5-7.5s-3.358-7.5-7.5-7.5h-16.059c-4.142 0-7.5 3.358-7.5 7.5s3.358 7.5 7.5 7.5zm96.352 0c4.143 0 7.5-3.358 7.5-7.5s-3.357-7.5-7.5-7.5h-16.059c-4.143 0-7.5 3.358-7.5 7.5s3.357 7.5 7.5 7.5zm48.177 0c4.143 0 7.5-3.358 7.5-7.5s-3.357-7.5-7.5-7.5h-16.059c-4.143 0-7.5 3.358-7.5 7.5s3.357 7.5 7.5 7.5zm-96.352 0c4.143 0 7.5-3.358 7.5-7.5s-3.357-7.5-7.5-7.5h-16.059c-4.142 0-7.5 3.358-7.5 7.5s3.358 7.5 7.5 7.5zm-96.354 0c4.142 0 7.5-3.358 7.5-7.5s-3.358-7.5-7.5-7.5h-16.059c-4.142 0-7.5 3.358-7.5 7.5s3.358 7.5 7.5 7.5z"/></g></svg>