<svg id="Capa_1" enable-background="new 0 0 512 512" height="512" viewBox="0 0 512 512" width="512" xmlns="http://www.w3.org/2000/svg"><g><g><path d="m102.5 277.5 299 10-7-220h-292z" fill="#eef9fa"/><path d="m409.5 157.5v-90h-15v210l7 10z" fill="#dcf2f6"/><path d="m401.5 489 .5-211.5h-299.5v212l291.5 7c4.142 0 7.5-3.358 7.5-7.5z" fill="#ffe07d"/><path d="m394.5 482c0 4.142-3.358 7.5-7.5 7.5h-284.5c0 8.284 6.716 15 15 15h277c8.284 0 15-6.716 15-15v-45l-8-157-7-10z" fill="#ffc250"/><path d="m409.5 7.5h-307c-8.284 0-15 6.716-15 15v45l329 7z" fill="#bae6ef"/><path d="m409.5 7.5v56.5c0 1.933-1.567 3.5-3.5 3.5h-318.5v15h337v-60c0-8.284-6.716-15-15-15z" fill="#94d8e6"/><path d="m217.624 277.5v167h176.876l7-157-7-130h-176.876z" fill="#dcf2f6"/><path d="m394.5 157.5h15v287h-15z" fill="#bae6ef"/></g><g><path d="m394.5 512h-52.438c-4.143 0-7.5-3.358-7.5-7.5s3.357-7.5 7.5-7.5h52.438c4.136 0 7.5-3.364 7.5-7.5v-37.5h-184.376c-4.142 0-7.5-3.358-7.5-7.5v-159.5h-100.124v18.664c0 4.142-3.358 7.5-7.5 7.5s-7.5-3.358-7.5-7.5v-213.664h-15c-4.142 0-7.5-3.358-7.5-7.5s3.358-7.5 7.5-7.5v-52.5c0-12.407 10.093-22.5 22.5-22.5h30.816c4.142 0 7.5 3.358 7.5 7.5s-3.358 7.5-7.5 7.5h-30.816c-4.136 0-7.5 3.364-7.5 7.5v52.5h322v-52.5c0-4.136-3.364-7.5-7.5-7.5h-246.184c-4.142 0-7.5-3.358-7.5-7.5s3.358-7.5 7.5-7.5h246.184c12.406 0 22.5 10.093 22.5 22.5v52.5c4.143 0 7.5 3.358 7.5 7.5s-3.357 7.5-7.5 7.5h-15v399.5c0 12.407-10.094 22.5-22.5 22.5zm-169.376-75h176.876v-32h-140.376c-4.143 0-7.5-3.358-7.5-7.5s3.357-7.5 7.5-7.5h140.376v-30h-140.376c-4.143 0-7.5-3.358-7.5-7.5s3.357-7.5 7.5-7.5h140.376v-30h-140.376c-4.143 0-7.5-3.358-7.5-7.5s3.357-7.5 7.5-7.5h140.376v-45h-140.376c-4.143 0-7.5-3.358-7.5-7.5s3.357-7.5 7.5-7.5h140.376v-30h-140.376c-4.143 0-7.5-3.358-7.5-7.5s3.357-7.5 7.5-7.5h140.376v-30h-56.316c-4.143 0-7.5-3.358-7.5-7.5s3.357-7.5 7.5-7.5h56.316v-60h-292v180h100.124v-112.5c0-4.142 3.358-7.5 7.5-7.5h98.06c4.143 0 7.5 3.358 7.5 7.5s-3.357 7.5-7.5 7.5h-90.56zm86.938 75h-194.562c-12.407 0-22.5-10.093-22.5-22.5v-155.836c0-4.142 3.358-7.5 7.5-7.5s7.5 3.358 7.5 7.5v155.836c0 4.136 3.364 7.5 7.5 7.5h194.562c4.143 0 7.5 3.358 7.5 7.5s-3.358 7.5-7.5 7.5z"/></g></g></svg>