<svg id="Capa_1" enable-background="new 0 0 512 512" height="512" viewBox="0 0 512 512" width="512" xmlns="http://www.w3.org/2000/svg"><g><g><g><path d="m28.049 309.038h284.8v63.326h-284.8z" fill="#e5979d"/></g><g><path d="m128.685 311.877c-35.554 0-65.07 26.313-70.117 60.487h140.234c-5.046-34.173-34.562-60.487-70.117-60.487z" fill="#e17f85"/></g><g><path d="m28.049 309.038h24.48v63.326h-24.48z" fill="#e17f85"/></g><g><path d="m470.712 265.32-21.9-10.497c-5.247-2.515-9.007-7.349-10.153-13.053l-10.057-50.056c-2.573-12.807-13.823-22.021-26.885-22.021h-88.867v-67.228c0-10.557-8.558-19.115-19.115-19.115h-246.57c-10.557 0-19.115 8.558-19.115 19.115v206.574h455.902v-22.691c-.001-8.974-5.149-17.15-13.24-21.028z" fill="#e9efff"/></g><g><path d="m7.5 392.7v-10.896c0-5.214 4.226-9.44 9.44-9.44h478.12c5.214 0 9.44 4.227 9.44 9.44v10.896c0 5.214-4.227 9.44-9.44 9.44h-478.119c-5.214 0-9.441-4.226-9.441-9.44z" fill="#e9efff"/></g><g><path d="m459.811 372.364h-140.235c-.502 3.396-.77 6.867-.77 10.4 0 6.718.96 13.213 2.714 19.376h136.346c1.754-6.163 2.714-12.658 2.714-19.376 0-3.533-.268-7.004-.769-10.4z" fill="#d3dcfb"/></g><g><path d="m198.803 372.364h-140.234c-.502 3.396-.77 6.867-.77 10.4 0 6.718.96 13.213 2.714 19.376h136.346c1.754-6.163 2.714-12.658 2.714-19.376 0-3.533-.269-7.004-.77-10.4z" fill="#d3dcfb"/></g><g><path d="m28.049 392.7v-10.896c0-5.214 4.227-9.44 9.44-9.44h-20.548c-5.214 0-9.44 4.227-9.44 9.44v10.896c0 5.214 4.227 9.44 9.44 9.44h20.549c-5.214 0-9.441-4.226-9.441-9.44z" fill="#d3dcfb"/></g><g><path d="m352.61 169.693v-22.379c0-9.511 7.71-17.221 17.221-17.221h3.635c9.511 0 17.221 7.71 17.221 17.221v22.379z" fill="#e5979d"/></g><g><path d="m312.85 309.038h171.102v63.326h-171.102z" fill="#e5979d"/></g><g><path d="m312.85 169.693h20.52v139.345h-20.52z" fill="#d3dcfb"/></g><g><path d="m438.658 241.77-10.057-50.056c-2.573-12.807-13.823-22.021-26.885-22.021h-49.106v59.464c0 12.141 9.842 21.983 21.983 21.983h69.053c-2.51-2.539-4.267-5.782-4.988-9.37z" fill="#42c3fc"/></g><g><path d="m371.649 229.157v-59.464h-19.039v59.464c0 12.141 9.842 21.983 21.983 21.983h19.039c-12.141 0-21.983-9.842-21.983-21.983z" fill="#1aa9e8"/></g><g><path d="m459.811 372.364c-5.047-34.173-34.563-60.487-70.117-60.487-16.728 0-32.114 5.83-44.246 15.561-4.867 3.903-12.079.481-12.079-5.758v-12.642h-20.52v63.326z" fill="#e17f85"/></g><g><path d="m71.645 83.349h-24.48c-10.557 0-19.115 8.558-19.115 19.115v206.574h24.48v-206.574c-.001-10.557 8.558-19.115 19.115-19.115z" fill="#d3dcfb"/></g><g><path d="m206.614 165.951h-18.321c-1.633 0-2.956-1.324-2.956-2.956v-18.321c0-5.871-4.76-10.631-10.631-10.631h-10.839c-5.871 0-10.631 4.76-10.631 10.631v18.321c0 1.633-1.324 2.956-2.956 2.956h-18.321c-5.871 0-10.631 4.76-10.631 10.631v10.839c0 5.871 4.76 10.631 10.631 10.631h18.321c1.633 0 2.956 1.324 2.956 2.956v18.321c0 5.871 4.76 10.631 10.631 10.631h10.839c5.871 0 10.631-4.76 10.631-10.631v-18.321c0-1.633 1.324-2.956 2.956-2.956h18.321c5.871 0 10.631-4.76 10.631-10.631v-10.839c0-5.871-4.76-10.631-10.631-10.631z" fill="#b3e59f"/></g><g><circle cx="128.686" cy="382.764" fill="#bac5e2" r="45.887"/></g><g><path d="m99.359 382.764c0-22.514 16.219-41.227 37.607-45.127-2.687-.49-5.451-.759-8.28-.759-25.343 0-45.887 20.544-45.887 45.887s20.544 45.887 45.887 45.887c2.829 0 5.593-.27 8.28-.76-21.388-3.9-37.607-22.614-37.607-45.128z" fill="#a7b4d1"/></g><g><circle cx="128.686" cy="382.764" fill="#e9efff" r="15.952"/></g><g><circle cx="389.693" cy="382.764" fill="#bac5e2" r="45.887"/></g><g><path d="m360.367 382.764c0-22.514 16.219-41.227 37.607-45.127-2.687-.49-5.451-.759-8.28-.759-25.343 0-45.887 20.544-45.887 45.887s20.544 45.887 45.887 45.887c2.829 0 5.593-.27 8.28-.76-21.389-3.9-37.607-22.614-37.607-45.128z" fill="#a7b4d1"/></g><g><circle cx="389.693" cy="382.764" fill="#e9efff" r="15.952"/></g></g><g><path d="m495.061 364.864h-3.609v-78.518c0-11.787-6.868-22.695-17.498-27.79l-21.9-10.497c-3.104-1.488-5.363-4.392-6.041-7.768l-10.057-50.056c-3.266-16.25-17.665-28.043-34.238-28.043h-3.529v-14.879c0-13.631-11.09-24.721-24.722-24.721h-3.635c-13.632 0-24.722 11.09-24.722 24.721v14.879h-24.76v-59.729c0-14.676-11.939-26.615-26.615-26.615h-246.57c-14.676 0-26.615 11.939-26.615 26.615v239.656c0 4.142 3.357 7.5 7.5 7.5s7.5-3.358 7.5-7.5v-25.583h269.8v48.326h-126.374c-7.375-20.658-27.13-35.487-50.29-35.487s-42.915 14.828-50.29 35.487h-61.456c-9.34.002-16.94 7.601-16.94 16.942v10.896c0 9.341 7.6 16.94 16.94 16.94h65.646c9.271 15.841 26.457 26.511 46.099 26.511s36.828-10.67 46.099-26.511h168.81c9.271 15.841 26.458 26.511 46.099 26.511s36.828-10.67 46.099-26.511h59.268c9.341 0 16.939-7.599 16.939-16.94v-10.896c.001-9.341-7.598-16.94-16.938-16.94zm-73.813-171.673 10.058 50.056c.026.132.062.261.091.393h-56.804c-7.986 0-14.483-6.497-14.483-14.483v-51.964h41.607c9.455 0 17.669 6.728 19.531 15.998zm-61.139-45.878c0-5.36 4.361-9.721 9.722-9.721h3.635c5.36 0 9.722 4.361 9.722 9.721v14.879h-23.078v-14.879zm-324.559 154.225v-199.074c0-6.405 5.211-11.615 11.615-11.615h246.569c6.404 0 11.615 5.21 11.615 11.615v94.538c0 4.142 3.357 7.5 7.5 7.5s7.5-3.358 7.5-7.5v-19.809h24.76v51.964c0 16.257 13.227 29.483 29.483 29.483h66.249c1.458 1.14 3.037 2.135 4.729 2.946l21.9 10.497c5.455 2.615 8.98 8.214 8.98 14.264v15.191h-156.1v-72.639c0-4.142-3.357-7.5-7.5-7.5s-7.5 3.358-7.5 7.5v72.639zm284.8 15h156.102v15.098h-9.149c-4.143 0-7.5 3.358-7.5 7.5s3.357 7.5 7.5 7.5h9.149v18.229h-36.468c-7.375-20.658-27.13-35.487-50.29-35.487s-42.915 14.828-50.29 35.487h-19.054zm-303.41 78.102c-1.07 0-1.94-.87-1.94-1.94v-10.896c0-1.07.87-1.94 1.94-1.94h58.44c-.052.96-.082 1.927-.082 2.9 0 4.083.476 8.054 1.348 11.876zm111.746 26.511c-21.166 0-38.387-17.22-38.387-38.387s17.221-38.387 38.387-38.387 38.387 17.22 38.387 38.387-17.221 38.387-38.387 38.387zm52.038-26.511c.872-3.822 1.348-7.793 1.348-11.876 0-.973-.03-1.939-.082-2.9h154.397c-.052.96-.082 1.927-.082 2.9 0 4.083.476 8.054 1.348 11.876zm208.969 26.511c-21.166 0-38.387-17.22-38.387-38.387s17.221-38.387 38.387-38.387 38.387 17.22 38.387 38.387-17.221 38.387-38.387 38.387zm107.307-28.451c0 1.07-.87 1.94-1.939 1.94h-53.329c.872-3.822 1.348-7.793 1.348-11.876 0-.973-.03-1.939-.082-2.9h52.062c1.069 0 1.939.87 1.939 1.94v10.896z"/><path d="m371.648 106.83c4.143 0 7.5-3.358 7.5-7.5v-6.423c0-4.142-3.357-7.5-7.5-7.5s-7.5 3.358-7.5 7.5v6.423c0 4.142 3.358 7.5 7.5 7.5z"/><path d="m391.398 118.252c1.919 0 3.839-.732 5.303-2.196l4.542-4.542c2.93-2.929 2.93-7.678.001-10.607-2.929-2.928-7.678-2.929-10.606 0l-4.542 4.542c-2.93 2.929-2.93 7.678-.001 10.607 1.465 1.464 3.384 2.196 5.303 2.196z"/><path d="m346.596 116.056c1.464 1.464 3.384 2.196 5.303 2.196s3.839-.732 5.304-2.197c2.929-2.929 2.929-7.678-.001-10.607l-4.542-4.542c-2.928-2.929-7.677-2.928-10.606 0-2.929 2.929-2.929 7.678.001 10.607z"/><path d="m206.613 158.451h-13.777v-13.777c0-9.998-8.134-18.131-18.131-18.131h-10.84c-9.997 0-18.131 8.134-18.131 18.131v13.777h-13.777c-9.997 0-18.131 8.134-18.131 18.131v10.839c0 9.998 8.134 18.131 18.131 18.131h13.777v13.777c0 9.998 8.134 18.131 18.131 18.131h10.84c9.997 0 18.131-8.134 18.131-18.131v-13.777h13.777c9.998 0 18.132-8.133 18.132-18.131v-10.839c0-9.997-8.134-18.131-18.132-18.131zm3.132 28.971c0 1.727-1.405 3.131-3.132 3.131h-18.321c-5.766 0-10.456 4.691-10.456 10.457v18.321c0 1.727-1.404 3.131-3.131 3.131h-10.84c-1.727 0-3.131-1.405-3.131-3.131v-18.321c0-5.766-4.69-10.457-10.456-10.457h-18.321c-1.727 0-3.131-1.404-3.131-3.131v-10.839c0-1.727 1.404-3.131 3.131-3.131h18.321c5.766 0 10.456-4.691 10.456-10.457v-18.321c0-1.727 1.404-3.131 3.131-3.131h10.84c1.727 0 3.131 1.405 3.131 3.131v18.321c0 5.766 4.69 10.457 10.456 10.457h18.321c1.727 0 3.132 1.405 3.132 3.131z"/><path d="m128.686 359.312c-12.932 0-23.452 10.521-23.452 23.452s10.521 23.452 23.452 23.452 23.452-10.521 23.452-23.452-10.521-23.452-23.452-23.452zm0 31.904c-4.66 0-8.452-3.792-8.452-8.452s3.792-8.452 8.452-8.452 8.452 3.792 8.452 8.452-3.792 8.452-8.452 8.452z"/><path d="m389.693 359.312c-12.932 0-23.452 10.521-23.452 23.452s10.521 23.452 23.452 23.452 23.452-10.521 23.452-23.452-10.52-23.452-23.452-23.452zm0 31.904c-4.66 0-8.452-3.792-8.452-8.452s3.792-8.452 8.452-8.452 8.452 3.792 8.452 8.452-3.791 8.452-8.452 8.452z"/><path d="m341.721 283.919h12.889c4.143 0 7.5-3.358 7.5-7.5s-3.357-7.5-7.5-7.5h-12.889c-4.143 0-7.5 3.358-7.5 7.5s3.357 7.5 7.5 7.5z"/><path d="m69.601 254.461h31.68c4.143 0 7.5-3.358 7.5-7.5s-3.357-7.5-7.5-7.5h-31.68c-4.143 0-7.5 3.358-7.5 7.5s3.357 7.5 7.5 7.5z"/><path d="m117.326 267.119h-47.725c-4.143 0-7.5 3.358-7.5 7.5s3.357 7.5 7.5 7.5h47.726c4.143 0 7.5-3.358 7.5-7.5s-3.358-7.5-7.501-7.5z"/><path d="m154.2 267.119h-8.64c-4.143 0-7.5 3.358-7.5 7.5s3.357 7.5 7.5 7.5h8.64c4.143 0 7.5-3.358 7.5-7.5s-3.357-7.5-7.5-7.5z"/></g></g></svg>