<svg id="Capa_1" enable-background="new 0 0 512.002 512.002" height="512" viewBox="0 0 512.002 512.002" width="512" xmlns="http://www.w3.org/2000/svg"><g><g><path d="m328.825 88.833c-9.302-10.222-14.782-23.343-14.782-37.164v-36.691c0-4.13-3.348-7.478-7.478-7.478h-81.958c-4.13 0-7.478 3.348-7.478 7.478v36.691c0 13.821-5.479 26.942-14.782 37.164-5.845 6.422-9.413 14.951-9.413 24.3v6.743l4.062 3.071h137.667l3.575-3.071v-6.743c0-9.349-3.568-17.877-9.413-24.3z" fill="#60b9fe"/><path d="m333.288 388.947h-136.668l-3.687 3.178v6.744c0 9.349 3.568 17.878 9.413 24.3 9.303 10.222 14.782 23.343 14.782 37.164v36.691c0 4.13 3.348 7.478 7.478 7.478h81.958c4.13 0 7.478-3.348 7.478-7.478v-36.691c0-13.821 5.48-26.942 14.782-37.164 5.845-6.422 9.413-14.951 9.413-24.3v-6.744z" fill="#60b9fe"/><path d="m194.933 113.133c0-9.349 3.568-17.878 9.413-24.3 9.303-10.222 14.782-23.343 14.782-37.164v-36.691c0-4.13 3.348-7.478 7.478-7.478h-50.333c-4.13 0-7.478 3.348-7.478 7.478v36.691c0 13.821-5.479 26.942-14.782 37.164-5.845 6.422-9.413 14.951-9.413 24.3v6.743l4.062 3.071h50.333l-4.062-3.071z" fill="#1ca8ff"/><path d="m219.128 497.024v-36.691c0-13.821-5.479-26.942-14.782-37.164-5.845-6.422-9.413-14.951-9.413-24.3v-6.744l3.687-3.178h-50.333l-3.687 3.178v6.744c0 9.349 3.568 17.878 9.413 24.3 9.303 10.222 14.782 23.343 14.782 37.164v36.691c0 4.13 3.348 7.478 7.478 7.478h50.333c-4.129 0-7.478-3.348-7.478-7.478z" fill="#1ca8ff"/><path d="m373.627 257.705h18.704c5.297 0 9.858-3.289 11.757-7.923v-12.531c0-6.6-5.4-12-12-12h-17.668l-2.632 2.696v26.749z" fill="#b5dcff"/><path d="m392.088 257.002h-17.668l-2.632-4.304v29.749l2.632 4.304h17.668c6.6 0 12-5.4 12-12v-29.749c0 6.6-5.4 12-12 12z" fill="#8bcaff"/><path d="m324.753 118.001h-144.58c-20.947 6.114-36.3 25.478-36.3 48.374v179.252c0 22.895 15.353 42.26 36.299 48.374h144.58c27.386 0 49.667-22.28 49.667-49.667v-176.666c0-27.387-22.28-49.667-49.666-49.667z" fill="#dbedff"/><path d="m144.601 344.334v-176.666c0-27.387 22.28-49.667 49.667-49.667h-36.181c-27.386 0-49.667 22.28-49.667 49.667v176.666c0 27.387 22.28 49.667 49.667 49.667h36.181c-27.387 0-49.667-22.28-49.667-49.667z" fill="#b5dcff"/><path d="m324.753 148.001h-139.041c-6.766 3.216-11.466 10.098-11.466 18.074v179.851c0 7.977 4.7 14.858 11.466 18.074h139.041c10.844 0 19.667-8.822 19.667-19.667v-176.665c-.001-10.845-8.823-19.667-19.667-19.667z" fill="#6e60b8"/><path d="m174.601 344.334v-176.666c0-10.845 8.822-19.667 19.667-19.667h-36.181c-10.844 0-19.667 8.822-19.667 19.667v176.666c0 10.845 8.822 19.667 19.667 19.667h36.181c-10.845 0-19.667-8.822-19.667-19.667z" fill="#6353b2"/><path d="m284.567 192.502c-10.564-10.973-28.256-10.713-39.026.057-2.276 2.277-5.968 2.277-8.245 0v-.001c-2.307-2.307-4.933-4.128-7.737-5.463-2.103 1.227-4.083 2.739-5.856 4.582-10.437 10.842-10.312 28.092.376 38.779 5.849 5.849 19.083 19.084 30.011 30.011 10.815-10.815 24.256-24.256 30.111-30.111 10.433-10.432 10.555-27.27.366-37.854z" fill="#ff76aa"/><g><path d="m224.804 230.357c-10.433-10.433-10.555-27.271-.367-37.854 1.894-1.967 4.02-3.567 6.291-4.817-10.478-5.608-23.839-4.135-32.458 4.817-10.189 10.583-10.066 27.422.367 37.854 6.626 6.626 22.967 22.968 34.223 34.223 4.729 4.729 12.389 4.729 17.118 0l4.524-4.524c-10.741-10.742-23.917-23.918-29.698-29.699z" fill="#ff5595"/></g></g><g><path d="m265.04 176.877c-8.787 0-17.383 3.346-23.873 9.253-6.49-5.908-15.177-9.332-24.201-9.251-30.627.292-45.215 37.45-23.884 58.782l34.223 34.223c7.664 7.663 20.059 7.665 27.724 0l34.223-34.223c21.49-21.49 6.498-58.784-24.212-58.784zm13.604 48.177-34.223 34.223c-1.8 1.801-4.708 1.802-6.511 0l-34.222-34.223c-12.011-12.01-3.907-33.012 13.418-33.176 5.553-.043 10.838 2.19 14.634 5.985 5.197 5.197 13.654 5.197 18.852 0 3.854-3.855 9.217-6.019 14.633-5.985 17.308.164 25.452 21.143 13.419 33.176z"/><path d="m254.213 306.127c4.143 0 7.5-3.358 7.5-7.5s-3.357-7.5-7.5-7.5h-26.093c-4.143 0-7.5 3.358-7.5 7.5s3.357 7.5 7.5 7.5z"/><path d="m201.728 327.127c0 4.142 3.357 7.5 7.5 7.5h63.877c4.143 0 7.5-3.358 7.5-7.5s-3.357-7.5-7.5-7.5h-63.877c-4.143 0-7.5 3.358-7.5 7.5z"/><path d="m231.167 7.5c0-4.142-3.357-7.5-7.5-7.5h-47.646c-8.259 0-14.978 6.719-14.978 14.978v36.691c0 11.62-4.556 23.025-12.829 32.115-7.329 8.054-11.366 18.477-11.366 29.349v1.375c-21.166 8.385-36.182 29.045-36.182 53.159v176.666c0 24.114 15.015 44.774 36.182 53.159v1.375c0 10.873 4.037 21.295 11.366 29.348 8.273 9.091 12.829 20.497 12.829 32.116v36.691c0 8.259 6.719 14.978 14.978 14.978h130.291c8.259 0 14.979-6.719 14.979-14.978v-36.691c0-11.62 4.556-23.025 12.829-32.116 7.33-8.054 11.366-18.477 11.366-29.348v-1.375c21.166-8.386 36.181-29.045 36.181-53.159v-50.083h10.169c10.752 0 19.5-8.748 19.5-19.5v-37.5c0-10.752-8.748-19.5-19.5-19.5h-10.169v-50.083c0-24.114-15.015-44.774-36.181-53.159v-1.375c0-10.871-4.036-21.293-11.366-29.349-8.273-9.09-12.829-20.496-12.829-32.116v-36.69c0-8.259-6.72-14.978-14.979-14.978h-47.646c-4.143 0-7.5 3.358-7.5 7.5s3.357 7.5 7.5 7.5l47.624-.022v36.691c0 15.363 5.943 30.354 16.735 42.212 4.284 4.707 6.853 10.645 7.365 16.923-1.937-.199-3.902-.302-5.89-.302h-166.667c-1.989 0-3.953.103-5.89.302.512-6.279 3.081-12.216 7.365-16.923 10.792-11.858 16.735-26.849 16.735-42.211l-.022-36.67h47.646c4.142 0 7.5-3.358 7.5-7.5zm91.859 410.621c-10.792 11.858-16.735 26.85-16.735 42.212l.021 36.669-130.269.022v-36.691c0-15.362-5.943-30.354-16.735-42.212-4.284-4.706-6.854-10.643-7.365-16.922 1.937.199 3.902.302 5.89.302h166.667c1.989 0 3.953-.103 5.89-.302-.511 6.277-3.08 12.214-7.364 16.922zm68.809-185.37c2.439 0 4.5 2.061 4.5 4.5v37.5c0 2.439-2.061 4.5-4.5 4.5h-10.169v-46.5zm-67.335-107.25c23.041 0 42.166 18.75 42.166 42.167v57.583 61.5 57.583c0 23.411-19.119 42.167-42.166 42.167h-166.667c-23.043 0-42.167-18.751-42.167-42.167v-176.666c0-23.411 19.119-42.167 42.167-42.167z"/><path d="m130.667 167.668v176.666c0 14.98 12.188 27.167 27.167 27.167h166.666c14.979 0 27.166-12.187 27.166-27.167v-70.833c0-4.142-3.357-7.5-7.5-7.5s-7.5 3.358-7.5 7.5v70.833c0 6.709-5.458 12.167-12.166 12.167h-166.667c-6.709 0-12.167-5.458-12.167-12.167v-176.666c0-6.709 5.458-12.167 12.167-12.167h166.667c6.708 0 12.166 5.458 12.166 12.167v70.833c0 4.142 3.357 7.5 7.5 7.5s7.5-3.358 7.5-7.5v-70.833c0-14.98-12.187-27.167-27.166-27.167h-166.667c-14.979 0-27.166 12.187-27.166 27.167z"/></g></g></svg>