<svg id="Capa_1" enable-background="new 0 0 512.002 512.002" height="512" viewBox="0 0 512.002 512.002" width="512" xmlns="http://www.w3.org/2000/svg"><g><g><path d="m356.414 7.5h-166.057c-10.958 4.537-18.726 15.341-18.726 27.889v55.183h186.698l27.596-39.717v-13.844c0-16.298-13.213-29.511-29.511-29.511z" fill="#6e60b8"/><path d="m173.631 36.389c0-13.575 9.084-25.127 21.473-28.889h-39.009c-16.299 0-29.511 13.213-29.511 29.511v13.844l39.08 39.717h7.968v-54.183z" fill="#6353b2"/><path d="m375.663 446.572h-204.032v30.041c0 12.547 7.769 23.352 18.726 27.889h166.057c16.299 0 29.511-13.213 29.511-29.511v-13.844z" fill="#6e60b8"/><path d="m173.631 475.613v-29.041h-30.635l-16.413 14.574v13.844c0 16.299 13.213 29.511 29.511 29.511h39.009c-12.388-3.761-21.472-15.313-21.472-28.888z" fill="#6353b2"/><path d="m322.316 50.856c-4.92 0-9.147 3.492-10.076 8.323-1.927 10.019-10.693 17.26-20.896 17.26h-70.181c-10.202 0-18.969-7.241-20.896-17.26-.929-4.831-5.156-8.323-10.076-8.323h-18.561v410.291h214.294v-410.291z" fill="#60b9fe"/><path d="m126.583 50.856h47.048v410.291h-47.048z" fill="#1ca8ff"/><path d="m251.7 155.472c-5.092 3.066-8.51 8.629-8.51 15.005 0 6.377 3.418 11.939 8.51 15.005 5.268-2.931 8.837-8.549 8.837-15.005s-3.568-12.074-8.837-15.005z" fill="#dbedff"/><path d="m243.37 170.478c0-6.351 3.457-11.882 8.583-14.852-2.527-1.464-5.453-2.315-8.583-2.315-9.481 0-17.167 7.686-17.167 17.167s7.686 17.167 17.167 17.167c3.13 0 6.056-.851 8.583-2.315-5.126-2.971-8.583-8.502-8.583-14.852z" fill="#b5dcff"/></g><g><path d="m421.338 239.228c-2.929-2.929-7.678-2.931-10.606-.001-2.93 2.929-2.93 7.677-.001 10.606 3.4 3.401 3.4 8.934 0 12.335-2.929 2.929-2.929 7.678.001 10.606 2.929 2.928 7.679 2.929 10.606-.001 9.247-9.248 9.247-24.296 0-33.545z"/><path d="m430.775 292.819c2.928 2.928 7.677 2.93 10.606 0 9.822-9.821 15.23-22.896 15.23-36.818s-5.408-26.997-15.23-36.818c-2.928-2.93-7.677-2.929-10.606 0s-2.929 7.678.001 10.606c6.987 6.988 10.836 16.296 10.836 26.211s-3.849 19.224-10.836 26.211c-2.93 2.93-2.93 7.679-.001 10.608z"/><path d="m461.427 312.863c15.166-15.167 23.519-35.36 23.519-56.862s-8.353-41.696-23.519-56.862c-2.93-2.929-7.678-2.929-10.607 0s-2.929 7.678 0 10.606c25.506 25.505 25.506 67.006 0 92.512-2.929 2.929-2.929 7.678 0 10.606 2.93 2.929 7.677 2.929 10.607 0z"/><path d="m101.272 239.228c-2.93-2.929-7.678-2.929-10.607 0-9.249 9.249-9.249 24.298 0 33.547 2.93 2.929 7.678 2.929 10.607 0s2.929-7.678 0-10.606c-3.4-3.4-3.4-8.934 0-12.334 2.929-2.93 2.929-7.679 0-10.607z"/><path d="m81.227 219.183c-2.93-2.929-7.678-2.929-10.607 0-20.301 20.301-20.301 53.334 0 73.636 2.93 2.929 7.678 2.929 10.607 0s2.929-7.678 0-10.606c-14.453-14.453-14.453-37.97 0-52.423 2.929-2.929 2.929-7.678 0-10.607z"/><path d="m61.182 209.745c2.929-2.929 2.929-7.678 0-10.606-2.93-2.929-7.678-2.929-10.607 0-15.166 15.167-23.519 35.36-23.519 56.862s8.353 41.696 23.519 56.862c2.93 2.929 7.678 2.929 10.607 0s2.929-7.678 0-10.606c-25.506-25.506-25.506-67.007 0-92.512z"/><path d="m243.118 195.145c13.602 0 24.667-11.065 24.667-24.667s-11.065-24.667-24.667-24.667-24.667 11.065-24.667 24.667 11.065 24.667 24.667 24.667zm0-34.334c5.33 0 9.667 4.336 9.667 9.667s-4.337 9.667-9.667 9.667-9.667-4.336-9.667-9.667 4.337-9.667 9.667-9.667z"/><path d="m335.978 345.092c3.513-2.196 4.58-6.823 2.384-10.335l-28.108-44.957c-2.749-4.397-7.487-7.022-12.673-7.022l-50.037.053v-30.565h57.084c4.143 0 7.5-3.358 7.5-7.5s-3.357-7.5-7.5-7.5h-57.084v-25.2c0-4.142-3.357-7.5-7.5-7.5s-7.5 3.358-7.5 7.5v70.765c0 8.242 6.705 14.947 14.947 14.947l50.045-.025 28.106 44.956c2.201 3.518 6.83 4.576 10.336 2.383z"/><path d="m210.5 223.454c-23.439 13.515-38 38.702-38 65.732 0 41.813 34.018 75.83 75.83 75.83 22.367 0 43.484-9.807 57.938-26.906 2.674-3.164 2.276-7.896-.887-10.569-3.166-2.674-7.896-2.276-10.57.887-11.596 13.72-28.537 21.588-46.48 21.588-33.542 0-60.83-27.288-60.83-60.83 0-21.685 11.684-41.892 30.492-52.738 3.589-2.069 4.82-6.655 2.751-10.244-2.071-3.588-6.657-4.818-10.244-2.75z"/><path d="m277.001 33.939h-42c-4.143 0-7.5 3.358-7.5 7.5s3.357 7.5 7.5 7.5h42c4.143 0 7.5-3.358 7.5-7.5s-3.357-7.5-7.5-7.5z"/><path d="m356.161 0h-200.32c-20.408 0-37.012 16.604-37.012 37.012v424.135 13.844c0 20.408 16.604 37.012 37.012 37.012h82.66c4.143 0 7.5-3.358 7.5-7.5s-3.357-7.5-7.5-7.5h-82.66c-12.138 0-22.012-9.875-22.012-22.012v-6.344h244.343v6.344c0 12.137-9.874 22.012-22.012 22.012h-82.659c-4.143 0-7.5 3.358-7.5 7.5s3.357 7.5 7.5 7.5h82.659c20.408 0 37.012-16.604 37.012-37.012v-201.49c0-4.142-3.357-7.5-7.5-7.5s-7.5 3.358-7.5 7.5v180.146h-244.342v-395.291h56.109c1.321 0 2.462.941 2.711 2.24 2.602 13.526 14.486 23.343 28.261 23.343h70.181c13.774 0 25.659-9.817 28.261-23.343.249-1.298 1.39-2.24 2.711-2.24h56.109v180.145c0 4.142 3.357 7.5 7.5 7.5s7.5-3.358 7.5-7.5v-201.489c-.001-20.408-16.604-37.012-37.012-37.012zm-34.098 43.356c-8.5 0-15.835 6.059-17.441 14.407-1.245 6.476-6.936 11.176-13.53 11.176h-70.181c-6.595 0-12.285-4.7-13.53-11.175-1.604-8.349-8.939-14.408-17.441-14.408h-56.11v-6.344c0-12.137 9.874-22.012 22.012-22.012h200.319c12.138 0 22.012 9.875 22.012 22.012v6.344z"/></g></g></svg>