<svg id="Capa_1" enable-background="new 0 0 511.962 511.962" height="512" viewBox="0 0 511.962 511.962" width="512" xmlns="http://www.w3.org/2000/svg"><g><g><path d="m357.905 174.922-131.491 131.491 68.442 68.442 95.641-99.642 38.85-48.849z" fill="#eef9fa"/><path d="m287.856 367.855 7 7 101.248-94.035 33.849-33.85-.606-20.606z" fill="#dcf2f6"/><path d="m115.308 417.519c-18.093 18.093-19.727 46.408-4.911 66.353 18.911 18.911 53.26 18.182 71.353.089l113.106-109.106-9.198-68.442h-59.244z" fill="#df646e"/><path d="m176.75 478.961c-18.094 18.093-46.408 19.727-66.353 4.911 1.476 1.987 3.109 3.893 4.911 5.695 19.896 19.896 52.153 19.896 72.048 0l21.516-21.516 85.983-93.196-7-7z" fill="#ca4646"/><path d="m285.658 306.413-119.212 119.212 31.82 31.82 96.59-82.59 90.641-104.642-31.82-31.819z" fill="#dcf2f6"/><path d="m164.792 361.632h264.785v15h-264.785z" fill="#bae6ef" transform="matrix(.707 -.707 .707 .707 -173.973 318.261)"/><path d="m407.924 124.903-50.019 50.019 61.442 61.442 56.019-44.019c5.858-5.858 4.607-16.607-6-27.213l-40.229-40.229c-5.858-5.858-15.355-5.857-21.213 0z" fill="#ffe07d"/><path d="m479.972 175.738-10.606-10.606c5.858 5.858 5.857 15.355 0 21.213l-50.019 50.019 10.607 10.607 50.019-50.019c5.857-5.858 5.857-15.356-.001-21.214z" fill="#ffc250"/><path d="m285.088 61.901-131.492 131.491 68.442 68.442 95.642-99.642 38.849-48.849z" fill="#eef9fa"/><path d="m215.038 254.834 7 7 101.248-94.035 33.85-33.85-.607-20.606z" fill="#dcf2f6"/><path d="m42.491 304.498c-18.093 18.093-19.727 46.408-4.911 66.353 20.292 20.292 53.26 18.182 71.353.089l113.106-109.106-9.198-68.442h-59.244z" fill="#df646e"/><path d="m103.932 365.94c-18.094 18.093-46.408 19.727-66.353 4.911 1.476 1.987 3.109 3.893 4.911 5.695 19.896 19.896 52.153 19.896 72.048 0l21.516-21.516 85.983-93.196-7-7z" fill="#ca4646"/><path d="m212.84 193.392-119.211 119.212 31.819 31.82 96.59-82.59 90.642-104.642-31.82-31.819z" fill="#dcf2f6"/><path d="m91.975 248.611h264.785v15h-264.785z" fill="#bae6ef" transform="matrix(.707 -.707 .707 .707 -115.383 233.667)"/><path d="m335.106 11.882-50.019 50.019 61.442 61.442 56.019-44.019c5.858-5.858 4.607-16.607-6-27.213l-40.229-40.229c-5.858-5.857-15.355-5.857-21.213 0z" fill="#ffe07d"/><path d="m407.155 62.717-10.606-10.606c5.858 5.858 5.857 15.355 0 21.213l-50.019 50.019 10.607 10.607 50.019-50.019c5.856-5.858 5.857-15.356-.001-21.214z" fill="#ffc250"/></g><g><path d="m151.332 511.962c-14.969.001-29.933-5.696-41.328-17.091-22.787-22.788-22.787-59.867 0-82.654l292.617-292.617c8.773-8.772 23.047-8.772 31.82 0l18.267 18.267c2.929 2.929 2.929 7.678 0 10.606-2.93 2.928-7.678 2.929-10.607 0l-18.267-18.267c-1.416-1.416-3.299-2.196-5.303-2.196s-3.887.78-5.303 2.196l-44.716 44.716 61.441 61.441 44.715-44.715c1.417-1.417 2.197-3.3 2.197-5.303s-.78-3.886-2.196-5.303l-10.569-10.569c-2.929-2.929-2.929-7.678.001-10.606 2.928-2.929 7.677-2.929 10.606 0l10.568 10.569c4.249 4.25 6.59 9.9 6.59 15.91s-2.341 11.66-6.591 15.91l-292.613 292.615c-11.394 11.392-26.364 17.089-41.329 17.091zm78.189-198.049-108.909 108.909c-16.939 16.939-16.939 44.502 0 61.441 16.938 16.939 44.501 16.94 61.442 0l16.212-16.213-37.124-37.124c-1.406-1.406-2.196-3.314-2.196-5.303s.79-3.897 2.196-5.303l106.408-106.407zm-52.469 111.712 31.82 31.82 176.625-176.625-31.82-31.82-12.472 12.471c-2.929 2.93-7.678 2.929-10.606 0-2.929-2.929-2.929-7.678.001-10.606l17.774-17.774c2.929-2.929 7.678-2.929 10.606 0l37.123 37.123 23.243-23.243-61.441-61.442-113.384 113.384h38.029l26.049-26.049c2.93-2.929 7.678-2.929 10.607 0s2.929 7.678 0 10.606zm31.82 7.5c-1.919 0-3.839-.732-5.304-2.197-2.929-2.929-2.929-7.678 0-10.606l144.805-144.805c2.93-2.929 7.678-2.929 10.607 0s2.929 7.678 0 10.606l-144.804 144.805c-1.465 1.464-3.384 2.197-5.304 2.197zm-130.358-34.184c-14.966 0-29.933-5.697-41.327-17.091-22.788-22.788-22.788-59.867 0-82.655l179.125-179.125c2.93-2.929 7.678-2.929 10.607 0s2.929 7.678 0 10.606l-55.217 55.216h38.031l65.822-65.823c2.929-2.928 7.677-2.93 10.607 0l37.123 37.123 23.243-23.243-61.442-61.442-36.168 36.168c-2.93 2.928-7.678 2.929-10.607 0s-2.929-7.678 0-10.606l91.49-91.49c8.772-8.772 23.048-8.772 31.82 0l50.836 50.835c8.771 8.773 8.771 23.047 0 31.82l-198.568 198.568c-2.93 2.929-7.678 2.928-10.607 0-2.929-2.929-2.929-7.678 0-10.606l109.398-109.397-31.82-31.82-176.625 176.625 31.82 31.82 45.227-45.228c2.928-2.928 7.676-2.93 10.607 0 2.929 2.929 2.929 7.678 0 10.606l-72.047 72.047c-11.394 11.395-26.361 17.092-41.328 17.092zm78.189-198.049-108.909 108.909c-8.206 8.206-12.726 19.116-12.726 30.721 0 11.604 4.52 22.515 12.726 30.721 16.939 16.939 44.501 16.94 61.44 0l16.214-16.213-37.124-37.123c-1.406-1.406-2.196-3.314-2.196-5.303s.79-3.897 2.196-5.303l106.409-106.408h-38.03zm138.991-138.991 61.442 61.441 44.715-44.715c2.925-2.924 2.925-7.683 0-10.607l-50.835-50.835c-2.926-2.925-7.684-2.923-10.607 0zm-159.639 258.203c-1.919 0-3.839-.732-5.304-2.197-2.929-2.929-2.929-7.678 0-10.606l144.805-144.805c2.929-2.928 7.677-2.93 10.607 0 2.929 2.929 2.929 7.678 0 10.606l-144.804 144.805c-1.465 1.464-3.385 2.197-5.304 2.197z"/></g></g></svg>