<svg id="Capa_1" enable-background="new 0 0 512 512" height="512" viewBox="0 0 512 512" width="512" xmlns="http://www.w3.org/2000/svg"><g><g><path d="m474.5 306.5v7l5.069 131c0 16.84-19.019 35.073-35.979 34.573-16.32-.49-32.829-18.743-32.829-35.073v-144.5h56.739c3.87 0 7 3.13 7 7z" fill="#e8e8e8"/><path d="m504.5 320.5v124c0 33.14-26.86 60-60 60-16.57 0-31.57-6.72-42.43-17.57-10.85-10.86-17.57-25.86-17.57-42.43v-423l9.156 1.422 6.844-1.422h7c3.87 0 7 3.13 7 7v415.36c0 16.33 12.77 30.14 29.09 30.63 16.96.5 30.91-13.15 30.91-29.99v-131h23c3.87 0 7 3.13 7 7z" fill="#f8f7f7"/><path d="m439.825 488.249c-9.983-1.049-19.237-5.441-26.435-12.629-8.31-8.32-12.89-19.37-12.89-31.12v-423h-21.17l-.716 421.573c0 5.286 2.423 20.478 2.422 20.477 6.081 24.574 35.859 41.357 63.463 40.95 27.56 0 50.77-18.57 57.8-43.88-20.495 21.742-42.849 29.412-62.474 27.629z" fill="#e8e8e8"/><path d="m407.789 504.5-335.45-4.839c-33.14 0-60-26.86-60-60l-2.669-422.56c0-3.87 3.13-7 7-7l5.83-2.601h355c3.87 0 7 3.13 7 7v430c0 16.57 6.72 31.57 17.57 42.43.886.885 1.799 1.743 2.739 2.571z" fill="#f8f7f7"/><path d="m444.5 504.5h-377c-33.14 0-60-26.86-60-60v-430c0-3.87 3.13-7 7-7h8v430c0 28.72 23.28 52 52 52h330.31c10.58 9.33 24.47 15 39.69 15z" fill="#e8e8e8"/><g><path d="m113.497 75.497c0-20.985-17.012-37.997-37.997-37.997-5.668 0-11.046 1.241-15.877 3.466 0 0-8.003 6.586-11.509 10.595-5.843 6.682-9.078 14.363-9.078 23.936 0 20.985 15.478 35.8 36.463 35.8 11.145 0 20.275-4.195 27.226-11.838 3.231-3.553 8.398-10.713 8.398-10.713 1.536-4.125 2.374-8.589 2.374-13.249z" fill="#ffe07d"/><path d="m111.124 88.746c-5.365 14.454-19.3 24.754-35.624 24.754-20.99 0-37.997-17.023-37.997-37.997 0-15.32 9.049-28.548 22.12-34.537-1.535 4.119-2.362 8.592-2.362 13.258 0 20.974 17.008 37.997 37.997 37.997 5.655.001 11.048-1.226 15.866-3.475z" fill="#ffd064"/></g><g><path d="m111.853 319.881h-68.917c-2.209 0-4-1.791-4-4l.257-76.807c0-2.209 1.791-4 4-4l10.307-2.074h59c2.209 0 4 1.791 4 4v68.5l-.647 10.381c0 2.209-1.791 4-4 4z" fill="#bde4ff"/><path d="m116.5 305.5v12c0 2.209-1.791 4-4 4h-71c-2.209 0-4-1.791-4-4v-80.5c0-2.209 1.791-4 4-4h12v62.5c0 5.523 4.477 10 10 10z" fill="#99dbff"/></g><path d="m147.5 62.5h202.917c2.209 0 4 1.791 4 4v18c0 2.209-1.791 4-4 4h-202.917c-2.209 0-4-1.791-4-4v-18c0-2.209 1.791-4 4-4z" fill="#bde4ff"/><path d="m349.11 472.633-117.706-.541c-2.209 0-4-1.791-4-4l-1.073-109.239c0-2.209 1.791-4 4-4l11.17-2.353h108.917c2.209 0 4 1.791 4 4v102l-1.307 10.133c-.001 2.209-1.792 4-4.001 4z" fill="#bde4ff"/><path d="m354.42 458.5v12c0 2.209-1.791 4-4 4h-120.92c-2.209 0-4-1.791-4-4v-114c0-2.209 1.791-4 4-4h12v96c0 5.523 4.477 10 10 10z" fill="#99dbff"/><g><path d="m220.853 319.881h-68.917c-2.209 0-4-1.791-4-4l.257-76.807c0-2.209 1.791-4 4-4l10.307-2.074h59c2.209 0 4 1.791 4 4v68.5l-.647 10.381c0 2.209-1.791 4-4 4z" fill="#ffe07d"/><path d="m225.5 305.5v12c0 2.209-1.791 4-4 4h-71c-2.209 0-4-1.791-4-4v-80.5c0-2.209 1.791-4 4-4h12v62.5c0 5.523 4.477 10 10 10z" fill="#ffd064"/></g></g><g><path d="m497.5 306h-15.525c-.267-7.763-6.648-14-14.475-14h-45.5v-263.5c0-7.995-6.505-14.5-14.5-14.5h-15.525c-.267-7.763-6.648-14-14.475-14h-363c-7.995 0-14.5 6.505-14.5 14.5v430c0 37.22 30.28 67.5 67.5 67.5h377c37.22 0 67.5-30.28 67.5-67.5v-124c0-7.995-6.505-14.5-14.5-14.5zm-.5 138.5c0 28.949-23.552 52.5-52.5 52.5s-52.5-23.551-52.5-52.5v-196.5c0-4.142-3.357-7.5-7.5-7.5s-7.5 3.358-7.5 7.5v196.5c0 21.187 9.82 40.116 25.139 52.5h-334.639c-28.948 0-52.5-23.551-52.5-52.5v-429.5h362v198c0 4.142 3.357 7.5 7.5 7.5s7.5-3.358 7.5-7.5v-184h15v414.862c0 20.425 16.315 37.526 36.369 38.121 19.582 1.095 39.136-16.511 38.631-37.483v-47.627c0-4.142-3.357-7.5-7.5-7.5s-7.5 3.358-7.5 7.5v47.627c.21 11.272-10.13 23.054-23.186 22.49-12.028-.357-21.814-10.733-21.814-23.128v-136.862h45v54.873c0 4.142 3.357 7.5 7.5 7.5s7.5-3.358 7.5-7.5v-40.873h15z"/><path d="m143.5 45h66c4.143 0 7.5-3.358 7.5-7.5s-3.357-7.5-7.5-7.5h-66c-4.143 0-7.5 3.358-7.5 7.5s3.357 7.5 7.5 7.5z"/><path d="m354.417 106h-210.917c-4.143 0-7.5 3.358-7.5 7.5s3.357 7.5 7.5 7.5h210.917c4.143 0 7.5-3.358 7.5-7.5s-3.357-7.5-7.5-7.5z"/><path d="m354.417 55h-210.917c-4.143 0-7.5 3.358-7.5 7.5v26c0 4.142 3.357 7.5 7.5 7.5h47c4.143 0 7.5-3.358 7.5-7.5s-3.357-7.5-7.5-7.5h-39.5v-11h195.917v11h-121.417c-4.143 0-7.5 3.358-7.5 7.5s3.357 7.5 7.5 7.5h128.917c4.143 0 7.5-3.358 7.5-7.5v-26c0-4.142-3.357-7.5-7.5-7.5z"/><path d="m37.5 329h79c4.143 0 7.5-3.358 7.5-7.5v-88.5c0-4.142-3.357-7.5-7.5-7.5h-79c-4.143 0-7.5 3.358-7.5 7.5v88.5c0 4.142 3.357 7.5 7.5 7.5zm7.5-88.5h64v73.5h-64z"/><path d="m354.417 345h-128.917c-4.143 0-7.5 3.358-7.5 7.5v122c0 4.142 3.357 7.5 7.5 7.5h128.917c4.143 0 7.5-3.358 7.5-7.5v-122c0-4.142-3.357-7.5-7.5-7.5zm-7.5 122h-113.917v-107h113.917z"/><path d="m75.5 121c25.089 0 45.5-20.411 45.5-45.5s-20.411-45.5-45.5-45.5-45.5 20.411-45.5 45.5 20.411 45.5 45.5 45.5zm0-76c16.817 0 30.5 13.682 30.5 30.5s-13.683 30.5-30.5 30.5-30.5-13.682-30.5-30.5 13.683-30.5 30.5-30.5z"/><path d="m225.5 225.5h-79c-4.143 0-7.5 3.358-7.5 7.5v88.5c0 4.142 3.357 7.5 7.5 7.5h79c4.143 0 7.5-3.358 7.5-7.5v-88.5c0-4.142-3.357-7.5-7.5-7.5zm-7.5 88.5h-64v-73.5h64z"/><path d="m30 203.5c0 4.142 3.357 7.5 7.5 7.5h188c4.143 0 7.5-3.358 7.5-7.5s-3.357-7.5-7.5-7.5h-188c-4.143 0-7.5 3.358-7.5 7.5z"/><path d="m195.5 345h-158c-4.143 0-7.5 3.358-7.5 7.5s3.357 7.5 7.5 7.5h158c4.143 0 7.5-3.358 7.5-7.5s-3.357-7.5-7.5-7.5z"/><path d="m195.5 375.5h-73.202c-4.143 0-7.5 3.358-7.5 7.5s3.357 7.5 7.5 7.5h73.202c4.143 0 7.5-3.358 7.5-7.5s-3.357-7.5-7.5-7.5z"/><path d="m37.5 390.5h49.798c4.143 0 7.5-3.358 7.5-7.5s-3.357-7.5-7.5-7.5h-49.798c-4.143 0-7.5 3.358-7.5 7.5s3.357 7.5 7.5 7.5z"/><path d="m195.5 406h-158c-4.143 0-7.5 3.358-7.5 7.5s3.357 7.5 7.5 7.5h158c4.143 0 7.5-3.358 7.5-7.5s-3.357-7.5-7.5-7.5z"/><path d="m146.5 436.5h-109c-4.143 0-7.5 3.358-7.5 7.5s3.357 7.5 7.5 7.5h109c4.143 0 7.5-3.358 7.5-7.5s-3.357-7.5-7.5-7.5z"/><path d="m191.5 181c4.143 0 7.5-3.358 7.5-7.5s-3.357-7.5-7.5-7.5h-120c-4.143 0-7.5 3.358-7.5 7.5s3.357 7.5 7.5 7.5z"/><path d="m354.417 196h-68.917c-4.143 0-7.5 3.358-7.5 7.5s3.357 7.5 7.5 7.5h68.917c4.143 0 7.5-3.358 7.5-7.5s-3.357-7.5-7.5-7.5z"/><path d="m354.417 226h-68.917c-4.143 0-7.5 3.358-7.5 7.5s3.357 7.5 7.5 7.5h68.917c4.143 0 7.5-3.358 7.5-7.5s-3.357-7.5-7.5-7.5z"/><path d="m354.417 256h-68.917c-4.143 0-7.5 3.358-7.5 7.5s3.357 7.5 7.5 7.5h68.917c4.143 0 7.5-3.358 7.5-7.5s-3.357-7.5-7.5-7.5z"/><path d="m354.417 286h-68.917c-4.143 0-7.5 3.358-7.5 7.5s3.357 7.5 7.5 7.5h68.917c4.143 0 7.5-3.358 7.5-7.5s-3.357-7.5-7.5-7.5z"/><path d="m354.417 316h-68.917c-4.143 0-7.5 3.358-7.5 7.5s3.357 7.5 7.5 7.5h68.917c4.143 0 7.5-3.358 7.5-7.5s-3.357-7.5-7.5-7.5z"/><path d="m335 181c4.143 0 7.5-3.358 7.5-7.5s-3.357-7.5-7.5-7.5h-30c-4.143 0-7.5 3.358-7.5 7.5s3.357 7.5 7.5 7.5z"/><path d="m354.417 136h-316.917c-4.143 0-7.5 3.358-7.5 7.5s3.357 7.5 7.5 7.5h316.917c4.143 0 7.5-3.358 7.5-7.5s-3.357-7.5-7.5-7.5z"/><path d="m354.417 30h-31.917c-4.143 0-7.5 3.358-7.5 7.5s3.357 7.5 7.5 7.5h31.917c4.143 0 7.5-3.358 7.5-7.5s-3.357-7.5-7.5-7.5z"/><path d="m263 321.5v-148c0-4.142-3.357-7.5-7.5-7.5s-7.5 3.358-7.5 7.5v148c0 4.142 3.357 7.5 7.5 7.5s7.5-3.358 7.5-7.5z"/></g></g></svg>