<svg id="Layer_1" enable-background="new 0 0 512 512" height="512" viewBox="0 0 512 512" width="512" xmlns="http://www.w3.org/2000/svg"><g><path clip-rule="evenodd" d="m305.742 486.191c0 2.442-.771 4.756-2.442 6.812-1.671 1.928-4.37 3.598-8.098 4.884-3.727 1.157-8.868 2.185-15.038 2.956-6.298.771-14.395 1.157-24.163 1.157-9.511 0-17.48-.385-23.906-1.157-6.426-.771-11.567-1.799-15.295-2.956-3.727-1.285-6.426-2.956-8.097-4.884-1.671-2.056-2.442-4.37-2.442-6.812v-460.382c0-2.442.771-4.756 2.442-6.812 1.671-1.928 4.37-3.599 8.354-4.884 3.856-1.285 8.868-2.185 15.166-2.956 6.299-.772 14.268-1.157 23.779-1.157 9.768 0 17.865.385 24.163 1.157 6.169.771 11.311 1.671 15.038 2.956 3.728 1.285 6.427 2.956 8.098 4.884 1.671 2.056 2.442 4.37 2.442 6.812v460.382z" fill="#88df8e" fill-rule="evenodd"/><g><path d="m311.061 12.691c-.067-.083-.136-.164-.205-.244-2.883-3.326-7.054-5.946-12.395-7.788-4.067-1.403-9.328-2.459-17.081-3.428-6.667-.817-15.205-1.231-25.378-1.231-9.917 0-18.325.414-24.992 1.231-7.572.927-12.851 1.974-17.021 3.365-5.56 1.793-9.881 4.435-12.842 7.851-.069.08-.138.162-.205.244-3.062 3.769-4.68 8.305-4.68 13.118v185.191c0 5.523 4.478 10 10 10s10-4.477 10-10v-185.191c0-.134 0-.213.09-.353.282-.257 1.278-1.02 3.868-1.856 2.907-.969 7.107-1.769 13.22-2.517 5.864-.719 13.455-1.083 22.562-1.083 9.362 0 17.083.364 22.923 1.08 6.127.766 10.386 1.579 13.018 2.487 2.437.84 3.422 1.621 3.707 1.885.092.142.092.221.092.356v460.382c0 .135 0 .214-.092.356-.279.259-1.232 1.015-3.564 1.836-3.196.975-7.859 1.874-13.136 2.534-5.864.718-13.585 1.083-22.947 1.083-9.072 0-16.715-.365-22.715-1.085-6.871-.825-11.045-1.822-13.367-2.531-2.334-.821-3.286-1.577-3.565-1.836-.092-.142-.092-.221-.092-.356v-185.191c0-5.523-4.478-10-10-10s-10 4.477-10 10v185.191c0 4.813 1.618 9.349 4.68 13.118.067.083.136.164.205.244 2.882 3.325 7.052 5.945 12.394 7.788.099.034.197.066.297.097 4.484 1.392 10.227 2.514 17.066 3.334 6.787.815 15.231 1.228 25.098 1.228 10.173 0 18.711-.414 25.403-1.234 6.708-.838 12.347-1.958 16.762-3.328.099-.031.197-.063.296-.097 5.342-1.842 9.512-4.462 12.394-7.788.069-.081.138-.162.205-.244 3.062-3.769 4.68-8.305 4.68-13.118v-460.382c-.003-4.813-1.621-9.35-4.683-13.118z"/><path d="m206.262 266c5.522 0 10-4.477 10-10s-4.478-10-10-10h-.008c-5.522 0-9.996 4.477-9.996 10s4.482 10 10.004 10z"/></g></g></svg>