<svg id="Capa_1" enable-background="new 0 0 512 512" height="512" viewBox="0 0 512 512" width="512" xmlns="http://www.w3.org/2000/svg"><g><g><g><path d="m57.82 200.958h-50.32v-161.178c0-7.18 5.82-13 13-13h24.32c7.18 0 13 5.82 13 13z" fill="#1c8ae5"/></g><g><path d="m44.82 26.78h-24.32c-7.18 0-13 5.82-13 13v161.178h25.16v-161.178c0-7.038 5.596-12.755 12.58-12.979-.141-.004-.278-.021-.42-.021z" fill="#1e6ee2"/></g><g><path d="m293.08 304.285h38.64v54h-38.64z" fill="#ffdd40"/></g><g><path d="m180.28 304.285h38.64v54h-38.64z" fill="#ffdd40"/></g><g><path d="m101.705 398.257v30.443h34.56v-32.124c0-6.396 5.185-11.58 11.58-11.58h216.31c6.396 0 11.58 5.185 11.58 11.58v32.124h34.56v-30.444c0-26.41-21.41-47.82-47.82-47.82h-212.95c-26.41 0-47.82 21.41-47.82 47.821z" fill="#1c8ae5"/></g><g><path d="m168.245 350.437h-18.72c-26.41 0-47.82 21.41-47.82 47.82v30.443h18.72v-30.444c0-26.41 21.41-47.819 47.82-47.819z" fill="#1e6ee2"/></g><g><path d="m382.875 384.997h-18.72c6.396 0 11.58 5.185 11.58 11.58v32.123h18.72v-32.124c0-6.395-5.184-11.579-11.58-11.579z" fill="#1e6ee2"/></g><g><circle cx="393.375" cy="451.229" fill="#bac5e2" r="33.991"/></g><g><path d="m378.104 451.229c0-15.525 10.412-28.609 24.631-32.676-2.975-.851-6.112-1.316-9.36-1.316-18.773 0-33.991 15.218-33.991 33.991s15.218 33.991 33.991 33.991c3.248 0 6.385-.465 9.36-1.316-14.219-4.065-24.631-17.149-24.631-32.674z" fill="#a7b4d1"/></g><g><circle cx="118.625" cy="451.229" fill="#bac5e2" r="33.991"/></g><g><path d="m103.354 451.229c0-15.525 10.412-28.609 24.631-32.676-2.975-.851-6.112-1.316-9.36-1.316-18.773 0-33.991 15.218-33.991 33.991s15.219 33.991 33.991 33.991c3.248 0 6.385-.465 9.36-1.316-14.219-4.065-24.631-17.149-24.631-32.674z" fill="#a7b4d1"/></g><g><path d="m434.18 313.688h-356.36c-11.046 0-20-8.954-20-20v-39.146h396.36v39.146c0 11.046-8.954 20-20 20z" fill="#1c8ae5"/></g><g><path d="m454.18 290.556v-36.014h-371.2-25.16v39.146c0 11.046 8.954 20 20 20h25.16c-11.046 0-20-5.998-20-17.044 0-3.363 2.726-6.089 6.089-6.089h365.111z" fill="#1e6ee2"/></g><g><path d="m504.5 200.958v-27.176c0-11.046-8.954-20-20-20h-315.503c-8.129 0-15.91-3.299-21.562-9.141l-49.13-50.787c-9.151-9.46-24.279-9.585-33.586-.278-9.108 9.108-9.211 23.842-.232 33.077l72.25 74.306h367.763z" fill="#e9efff"/></g><g><path d="m87.299 93.575c1.633-1.633 3.453-2.959 5.381-4.012-8.931-4.889-20.377-3.572-27.961 4.012-9.108 9.108-9.211 23.842-.232 33.077l72.25 74.306h22.58l-72.25-74.306c-8.979-9.235-8.876-23.969.232-33.077z" fill="#d3dcfb"/></g><g><path d="m435.37 194.958v-81.758c0-13.807-11.193-25-25-25h-148.18c-13.807 0-25 11.193-25 25v81.758c0 3.314-2.686 6-6 6h-223.69v49.662c0 11.046 8.954 20 20 20h457c11.046 0 20-8.954 20-20v-49.662h-63.13c-3.314 0-6-2.687-6-6zm-122.37 6h-35.25c-3.314 0-6-2.686-6-6v-66.198c0-3.314 2.686-6 6-6h35.25c3.314 0 6 2.686 6 6v66.198c0 3.313-2.686 6-6 6zm81.81 0h-35.25c-3.314 0-6-2.686-6-6v-66.198c0-3.314 2.686-6 6-6h35.25c3.314 0 6 2.686 6 6v66.198c0 3.313-2.686 6-6 6z" fill="#42c3fc"/></g><g><path d="m32.66 250.62v-49.662h-25.16v49.662c0 11.046 8.954 20 20 20h25.16c-11.046 0-20-8.955-20-20z" fill="#1aa9e8"/></g></g><g><path d="m393.375 443.225c-4.42 0-8.004 3.584-8.004 8.004 0 4.421 3.583 8.004 8.004 8.004s8.005-3.584 8.005-8.004c0-4.421-3.584-8.004-8.005-8.004z"/><circle cx="118.625" cy="451.229" r="8.004"/><path d="m484.5 146.282h-41.63v-33.082c0-17.92-14.579-32.5-32.5-32.5h-148.18c-17.921 0-32.5 14.58-32.5 32.5v33.082h-60.693c-6.062 0-11.957-2.499-16.172-6.856l-49.13-50.787c-5.835-6.032-13.671-9.392-22.062-9.461-.089 0-.177-.001-.266-.001-8.293 0-16.08 3.224-21.952 9.096-11.939 11.94-12.076 31.503-.305 43.608l59.873 61.577h-53.663v-33.222c0-4.142-3.357-7.5-7.5-7.5s-7.5 3.358-7.5 7.5v33.222h-35.32v-153.678c0-3.033 2.467-5.5 5.5-5.5h24.32c3.033 0 5.5 2.467 5.5 5.5v23.976c0 4.142 3.357 7.5 7.5 7.5s7.5-3.358 7.5-7.5v-23.976c0-11.304-9.196-20.5-20.5-20.5h-24.32c-11.304 0-20.5 9.196-20.5 20.5v210.84c0 15.164 12.336 27.5 27.5 27.5h22.82v15.568c0 15.164 12.336 27.5 27.5 27.5h35.859c4.143 0 7.5-3.358 7.5-7.5s-3.357-7.5-7.5-7.5h-35.859c-6.893 0-12.5-5.607-12.5-12.5v-15.568h288.24c4.143 0 7.5-3.358 7.5-7.5s-3.357-7.5-7.5-7.5h-326.06c-6.893 0-12.5-5.607-12.5-12.5v-42.162h216.19c7.444 0 13.5-6.056 13.5-13.5v-81.758c0-9.649 7.851-17.5 17.5-17.5h148.18c9.649 0 17.5 7.851 17.5 17.5v81.757c0 7.444 6.056 13.5 13.5 13.5h55.63v42.162c0 6.893-5.607 12.5-12.5 12.5h-96.38c-4.143 0-7.5 3.358-7.5 7.5s3.357 7.5 7.5 7.5h58.56v15.568c0 6.893-5.607 12.5-12.5 12.5h-288.46c-4.143 0-7.5 3.358-7.5 7.5s3.357 7.5 7.5 7.5h27.061v21.749h-23.255c-30.504 0-55.32 24.816-55.32 55.32v19.458c-10.338 7.553-17.071 19.759-17.071 33.514 0 22.878 18.613 41.491 41.491 41.491s41.491-18.613 41.491-41.491c0-13.433-6.422-25.39-16.352-32.978v-21.675c0-2.25 1.83-4.08 4.08-4.08h216.311c2.25 0 4.08 1.831 4.08 4.08v21.675c-9.93 7.588-16.352 19.544-16.352 32.978 0 22.878 18.613 41.491 41.491 41.491s41.491-18.613 41.491-41.491c0-13.755-6.733-25.961-17.071-33.514v-19.458c0-30.503-24.816-55.32-55.319-55.32h-23.256v-21.749h94.96c15.164 0 27.5-12.336 27.5-27.5v-15.567h22.82c15.164 0 27.5-12.336 27.5-27.5v-76.838c0-15.164-12.337-27.5-27.5-27.5zm-344.595 47.176-70.041-72.034c-6.086-6.258-6.015-16.372.157-22.544 3.036-3.036 7.062-4.703 11.35-4.703h.138c4.338.036 8.389 1.773 11.405 4.892l49.13 50.787c7.025 7.262 16.85 11.426 26.953 11.426h60.693v32.176zm86.515 149.479v-21.749h59.16v21.749zm-38.64-21.749h23.64v21.749h-23.64zm-69.155 156.532c-14.607 0-26.491-11.884-26.491-26.491s11.884-26.491 26.491-26.491 26.491 11.884 26.491 26.491-11.884 26.491-26.491 26.491zm274.75 0c-14.607 0-26.491-11.884-26.491-26.491s11.884-26.491 26.491-26.491 26.491 11.884 26.491 26.491-11.884 26.491-26.491 26.491zm9.42-79.464v12.573c-3.029-.706-6.179-1.092-9.42-1.092-3.497 0-6.893.44-10.14 1.258v-14.419c0-10.521-8.56-19.08-19.08-19.08h-216.31c-10.521 0-19.08 8.559-19.08 19.08v14.419c-3.247-.819-6.643-1.258-10.14-1.258-3.241 0-6.391.385-9.42 1.092v-12.573c0-22.232 18.088-40.32 40.32-40.32h212.95c22.233.001 40.32 18.088 40.32 40.32zm-78.575-55.319h-23.64v-21.749h23.64zm118.65-181.655h41.63c6.893 0 12.5 5.607 12.5 12.5v19.676h-54.13z"/><path d="m277.75 115.26c-7.444 0-13.5 6.056-13.5 13.5v66.197c0 7.444 6.056 13.5 13.5 13.5h35.25c7.444 0 13.5-6.056 13.5-13.5v-66.197c0-7.444-6.056-13.5-13.5-13.5zm33.75 15v16.021h-32.25v-16.021zm-32.25 63.198v-32.176h32.25v32.176z"/><path d="m408.311 194.958v-66.198c0-7.444-6.056-13.5-13.5-13.5h-35.25c-7.444 0-13.5 6.056-13.5 13.5v66.197c0 7.444 6.056 13.5 13.5 13.5h35.25c7.444.001 13.5-6.056 13.5-13.499zm-15-64.698v16.021h-32.25v-16.021zm-32.25 63.198v-32.176h32.25v32.176z"/><path d="m93.88 229.22c-4.143 0-7.5 3.358-7.5 7.5s3.357 7.5 7.5 7.5h39.601c4.143 0 7.5-3.358 7.5-7.5s-3.357-7.5-7.5-7.5z"/><path d="m166.12 229.22c-4.143 0-7.5 3.358-7.5 7.5s3.357 7.5 7.5 7.5h10.8c4.143 0 7.5-3.358 7.5-7.5s-3.357-7.5-7.5-7.5z"/></g></g></svg>