<svg id="Capa_1" enable-background="new 0 0 512 512" height="512" viewBox="0 0 512 512" width="512" xmlns="http://www.w3.org/2000/svg"><g><g><path d="m171.75 504.5h-74c-15.888-15.888 16.57-42.968 37-42.968s51.774 28.194 37 42.968z" fill="#edc258"/><path d="m49.11 173.5-1.156 319.206c0 5.52 4.48 10 10 10l36.881-1.596c0-20.43 19.485-36.495 39.915-36.495s39.846 17.387 39.846 37.816l37.596-.22c5.52 0 10-4.48 10-10l2.557-3.711v-315l-97.93-9.436z" fill="#ffe07d"/><path d="m224.75 488.5v6c0 5.523-4.477 10-10 10h-43c0-20.43-16.57-37-37-37s-37 16.57-37 37h-43c-5.523 0-10-4.477-10-10v-321l8.58-7 7.42 7v305c0 5.523 4.477 10 10 10h10.632c1.665 0 3.15-1.034 3.735-2.592 7.546-20.082 26.947-34.408 49.632-34.408s42.086 14.326 49.632 34.408c.586 1.558 2.071 2.592 3.735 2.592z" fill="#ffd064"/><path d="m195.25 264.5v149c0 8.28-6.72 15-15 15h-90c-8.28 0-15-6.72-15-15v-149c0-8.28 6.72-15 15-15h90c8.28 0 15 6.72 15 15z" fill="#f8f7f7"/><path d="m231.128 171.11-194.608-.844c-5.523 0-10-4.477-10-10v-51.193c0-5.523 4.477-10 10-10l2.23-1.573h10.36l6.947 3.977 8.053-3.977h16.35l7.695 3.977 7.305-3.977h16.36l7.695 3.977 7.305-3.977h16.36l7.695 3.977 7.305-3.977h16.36l7.695 3.977 7.305-3.977h16.35l6.553 3.977 8.447-3.977h13.86c5.523 0 10 4.477 10 10v52l-3.622 1.61c0 5.523-4.477 10-10 10z" fill="#f8f7f7"/><path d="m38.75 149.5v-52h-4c-5.523 0-10 4.477-10 10v56c0 5.523 4.477 10 10 10h14.36l7.5-5.142 7.5 5.142h16.35l8.76-5.142 6.24 5.142h16.36l7.5-5.142 7.5 5.142h16.36l7.5-5.142 7.5 5.142h16.36l7.5-5.142 7.5 5.142h16.35l7.5-5.142 7.5 5.142h13.86c5.523 0 10-4.477 10-10v-4h-196c-5.523 0-10-4.477-10-10z" fill="#e8e8e8"/><path d="m414.25 504.5h-74c-15.888-15.888 16.57-42.968 37-42.968s51.774 28.194 37 42.968z" fill="#edc258"/><path d="m291.61 83.5-1.156 409.206c0 5.52 4.48 10 10 10l36.881-1.596c0-20.43 19.485-36.495 39.915-36.495s39.846 17.387 39.846 37.816l37.596-.22c5.52 0 10-4.48 10-10l2.557-3.711v-405l-97.93-9.436z" fill="#ffe07d"/><path d="m467.25 488.5v6c0 5.523-4.477 10-10 10h-43c0-20.43-16.57-37-37-37s-37 16.57-37 37h-43c-5.523 0-10-4.477-10-10v-411l8.58-7 7.42 7v395c0 5.523 4.477 10 10 10h10.632c1.665 0 3.15-1.034 3.735-2.592 7.546-20.082 26.947-34.408 49.632-34.408s42.086 14.326 49.632 34.408c.586 1.558 2.071 2.592 3.735 2.592z" fill="#ffd064"/><path d="m437.75 174.5v239c0 8.28-6.72 15-15 15h-90c-8.28 0-15-6.72-15-15v-239c0-8.28 6.72-15 15-15h90c8.28 0 15 6.72 15 15z" fill="#f8f7f7"/><path d="m473.628 81.11-194.608-.844c-5.523 0-10-4.477-10-10v-51.193c0-5.523 4.477-10 10-10l2.23-1.573h10.36l6.947 3.977 8.053-3.977h16.35l7.695 3.977 7.305-3.977h16.36l7.695 3.977 7.305-3.977h16.36l7.695 3.977 7.305-3.977h16.36l7.695 3.977 7.305-3.977h16.35l6.553 3.977 8.447-3.977h13.86c5.523 0 10 4.477 10 10v52l-3.622 1.61c0 5.523-4.477 10-10 10z" fill="#f8f7f7"/><path d="m281.25 59.5v-52h-4c-5.523 0-10 4.477-10 10v56c0 5.523 4.477 10 10 10h14.36l7.5-5.142 7.5 5.142h16.35l8.76-5.142 6.24 5.142h16.36l7.5-5.142 7.5 5.142h16.36l7.5-5.142 7.5 5.142h16.36l7.5-5.142 7.5 5.142h16.35l7.5-5.142 7.5 5.142h13.86c5.523 0 10-4.477 10-10v-4h-196c-5.523 0-10-4.477-10-10z" fill="#e8e8e8"/></g><g><path d="m477.25 0h-200c-9.649 0-17.5 7.851-17.5 17.5v56c0 9.649 7.851 17.5 17.5 17.5h2.5v10h-4.5c-4.142 0-7.5 3.358-7.5 7.5s3.358 7.5 7.5 7.5h4.5v50.638c0 4.142 3.358 7.5 7.5 7.5s7.5-3.358 7.5-7.5v-50.638h165v378.5c0 1.378-1.122 2.5-2.5 2.5h-36.145c-3.577-20.977-21.874-37-43.855-37s-40.278 16.023-43.855 37h-36.145c-1.378 0-2.5-1.122-2.5-2.5v-292.862c0-4.142-3.358-7.5-7.5-7.5s-7.5 3.358-7.5 7.5v292.862c0 9.649 7.851 17.5 17.5 17.5h160c9.649 0 17.5-7.851 17.5-17.5v-378.5h3.5c4.142 0 7.5-3.358 7.5-7.5s-3.358-7.5-7.5-7.5h-3.5v-10h2.5c9.649 0 17.5-7.851 17.5-17.5v-56c0-9.649-7.851-17.5-17.5-17.5zm-100 475c13.675 0 25.204 9.354 28.531 22h-57.062c3.327-12.646 14.856-22 28.531-22zm54.786-399v-61h16.357v61zm-125.429 0v-61h16.357v61zm31.357-61h16.357v61h-16.357zm31.357 0h16.357v61h-16.357zm31.358 0h16.357v61h-16.357zm-125.929 58.5v-56c0-1.378 1.122-2.5 2.5-2.5h14.357v61h-14.357c-1.378 0-2.5-1.122-2.5-2.5zm185 27.5h-165v-10h165zm20-27.5c0 1.378-1.122 2.5-2.5 2.5h-13.857v-61h13.857c1.378 0 2.5 1.122 2.5 2.5z"/><path d="m392.5 436h30.25c12.407 0 22.5-10.093 22.5-22.5v-239c0-12.407-10.093-22.5-22.5-22.5h-90c-12.407 0-22.5 10.093-22.5 22.5v239c0 12.407 10.093 22.5 22.5 22.5h24.75c4.142 0 7.5-3.358 7.5-7.5s-3.358-7.5-7.5-7.5h-24.75c-4.136 0-7.5-3.364-7.5-7.5v-239c0-4.136 3.364-7.5 7.5-7.5h90c4.136 0 7.5 3.364 7.5 7.5v239c0 4.136-3.364 7.5-7.5 7.5h-30.25c-4.142 0-7.5 3.358-7.5 7.5s3.358 7.5 7.5 7.5z"/><path d="m392.75 197c4.142 0 7.5-3.358 7.5-7.5s-3.358-7.5-7.5-7.5h-30c-4.142 0-7.5 3.358-7.5 7.5s3.358 7.5 7.5 7.5z"/><path d="m340.25 219.5c0 4.142 3.358 7.5 7.5 7.5h60c4.142 0 7.5-3.358 7.5-7.5s-3.358-7.5-7.5-7.5h-60c-4.142 0-7.5 3.358-7.5 7.5z"/><path d="m347.75 257h60c4.142 0 7.5-3.358 7.5-7.5s-3.358-7.5-7.5-7.5h-60c-4.142 0-7.5 3.358-7.5 7.5s3.358 7.5 7.5 7.5z"/><path d="m347.75 287h60c4.142 0 7.5-3.358 7.5-7.5s-3.358-7.5-7.5-7.5h-60c-4.142 0-7.5 3.358-7.5 7.5s3.358 7.5 7.5 7.5z"/><path d="m347.75 317h29c4.142 0 7.5-3.358 7.5-7.5s-3.358-7.5-7.5-7.5h-29c-4.142 0-7.5 3.358-7.5 7.5s3.358 7.5 7.5 7.5z"/><path d="m367.75 407h20c4.142 0 7.5-3.358 7.5-7.5s-3.358-7.5-7.5-7.5h-20c-4.142 0-7.5 3.358-7.5 7.5s3.358 7.5 7.5 7.5z"/><path d="m347.75 377h60c4.142 0 7.5-3.358 7.5-7.5s-3.358-7.5-7.5-7.5h-60c-4.142 0-7.5 3.358-7.5 7.5s3.358 7.5 7.5 7.5z"/><path d="m234.75 90h-200c-9.649 0-17.5 7.851-17.5 17.5v56c0 9.649 7.851 17.5 17.5 17.5h2.5v10h-4.5c-4.142 0-7.5 3.358-7.5 7.5s3.358 7.5 7.5 7.5h4.5v288.5c0 9.649 7.851 17.5 17.5 17.5h160c9.649 0 17.5-7.851 17.5-17.5v-288.5h3.5c4.142 0 7.5-3.358 7.5-7.5s-3.358-7.5-7.5-7.5h-3.5v-10h2.5c9.649 0 17.5-7.851 17.5-17.5v-56c0-9.649-7.851-17.5-17.5-17.5zm-45.214 76v-61h16.357v61zm-125.429 0v-61h16.357v61zm31.357-61h16.357v61h-16.357zm31.357 0h16.357v61h-16.357zm31.358 0h16.357v61h-16.357zm-125.929 58.5v-56c0-1.378 1.122-2.5 2.5-2.5h14.357v61h-14.357c-1.378 0-2.5-1.122-2.5-2.5zm73.969 333.5c3.327-12.646 14.855-22 28.531-22s25.204 9.354 28.531 22zm111.031-306h-47c-4.142 0-7.5 3.358-7.5 7.5s3.358 7.5 7.5 7.5h47v288.5c0 1.378-1.122 2.5-2.5 2.5h-36.145c-3.577-20.977-21.874-37-43.855-37s-40.278 16.023-43.855 37h-36.145c-1.378 0-2.5-1.122-2.5-2.5v-288.5h83c4.142 0 7.5-3.358 7.5-7.5s-3.358-7.5-7.5-7.5h-83v-10h165zm20-27.5c0 1.378-1.122 2.5-2.5 2.5h-13.857v-61h13.857c1.378 0 2.5 1.122 2.5 2.5z"/><path d="m67.75 264.5v84.415c0 4.142 3.358 7.5 7.5 7.5s7.5-3.358 7.5-7.5v-84.415c0-4.136 3.364-7.5 7.5-7.5h90c4.136 0 7.5 3.364 7.5 7.5v149c0 4.136-3.364 7.5-7.5 7.5h-90c-4.136 0-7.5-3.364-7.5-7.5v-29.585c0-4.142-3.358-7.5-7.5-7.5s-7.5 3.358-7.5 7.5v29.585c0 12.407 10.093 22.5 22.5 22.5h90c12.407 0 22.5-10.093 22.5-22.5v-149c0-12.407-10.093-22.5-22.5-22.5h-90c-12.407 0-22.5 10.093-22.5 22.5z"/><path d="m105.25 287h60c4.142 0 7.5-3.358 7.5-7.5s-3.358-7.5-7.5-7.5h-60c-4.142 0-7.5 3.358-7.5 7.5s3.358 7.5 7.5 7.5z"/><path d="m105.25 317h60c4.142 0 7.5-3.358 7.5-7.5s-3.358-7.5-7.5-7.5h-60c-4.142 0-7.5 3.358-7.5 7.5s3.358 7.5 7.5 7.5z"/><path d="m105.25 347h60c4.142 0 7.5-3.358 7.5-7.5s-3.358-7.5-7.5-7.5h-60c-4.142 0-7.5 3.358-7.5 7.5s3.358 7.5 7.5 7.5z"/><path d="m125.25 392c-4.142 0-7.5 3.358-7.5 7.5s3.358 7.5 7.5 7.5h20c4.142 0 7.5-3.358 7.5-7.5s-3.358-7.5-7.5-7.5z"/></g></g></svg>