<svg id="Capa_1" enable-background="new 0 0 512 512" height="512" viewBox="0 0 512 512" width="512" xmlns="http://www.w3.org/2000/svg"><g><g><path d="m423.516 504.5h-335.032c-20.459 0-37.62-15.438-39.777-35.783l-26.207-247.217h467l-26.207 247.217c-2.156 20.345-19.318 35.783-39.777 35.783z" fill="#ffe179"/><path d="m459.5 221.5-26.207 247.217c-2.157 20.345-19.318 35.783-39.777 35.783h30c20.459 0 37.62-15.438 39.777-35.783l26.207-247.217z" fill="#fbd268"/><g fill="#fef0ae"><g><path d="m121 347.735c-8.284 0-15-6.716-15-15v-45c0-8.284 6.716-15 15-15 8.284 0 15 6.716 15 15v45c0 8.284-6.716 15-15 15z"/><path d="m211 347.735c-8.284 0-15-6.716-15-15v-45c0-8.284 6.716-15 15-15 8.284 0 15 6.716 15 15v45c0 8.284-6.716 15-15 15z"/><path d="m301 347.735c-8.284 0-15-6.716-15-15v-45c0-8.284 6.716-15 15-15 8.284 0 15 6.716 15 15v45c0 8.284-6.716 15-15 15z"/><path d="m391 347.735c-8.284 0-15-6.716-15-15v-45c0-8.284 6.716-15 15-15 8.284 0 15 6.716 15 15v45c0 8.284-6.716 15-15 15z"/></g><g><path d="m121 467.735c-8.284 0-15-6.716-15-15v-45c0-8.284 6.716-15 15-15 8.284 0 15 6.716 15 15v45c0 8.284-6.716 15-15 15z"/><path d="m211 467.735c-8.284 0-15-6.716-15-15v-45c0-8.284 6.716-15 15-15 8.284 0 15 6.716 15 15v45c0 8.284-6.716 15-15 15z"/><path d="m301 467.735c-8.284 0-15-6.716-15-15v-45c0-8.284 6.716-15 15-15 8.284 0 15 6.716 15 15v45c0 8.284-6.716 15-15 15z"/><path d="m391 467.735c-8.284 0-15-6.716-15-15v-45c0-8.284 6.716-15 15-15 8.284 0 15 6.716 15 15v45c0 8.284-6.716 15-15 15z"/></g></g><g><path d="m387.379 194.969h-262.758c-12.942 0-23.434-10.492-23.434-23.434 0-12.942 10.492-23.434 23.434-23.434h262.758c12.942 0 23.434 10.492 23.434 23.434 0 12.943-10.492 23.434-23.434 23.434z" fill="#eaf6ff"/><path d="m387.379 148.102h-30c12.942 0 23.434 10.492 23.434 23.434 0 12.942-10.492 23.434-23.434 23.434h30c12.942 0 23.434-10.492 23.434-23.434 0-12.942-10.492-23.434-23.434-23.434z" fill="#d8ecfe"/><path d="m357.379 148.102h-202.758c-12.942 0-23.434-10.492-23.434-23.434 0-12.942 10.492-23.434 23.434-23.434h202.758c12.942 0 23.434 10.492 23.434 23.434 0 12.942-10.492 23.434-23.434 23.434z" fill="#d8ecfe"/><path d="m357.379 101.235h-30c12.942 0 23.434 10.492 23.434 23.434 0 12.942-10.492 23.434-23.434 23.434h30c12.942 0 23.434-10.492 23.434-23.434 0-12.943-10.492-23.434-23.434-23.434z" fill="#c4e2ff"/><path d="m357.379 54.367h-202.758c-12.942 0-23.434-10.492-23.434-23.434 0-12.942 10.492-23.434 23.434-23.434h202.758c12.942 0 23.434 10.492 23.434 23.434 0 12.943-10.492 23.434-23.434 23.434z" fill="#d8ecfe"/><path d="m387.379 101.235h-262.758c-12.942 0-23.434-10.492-23.434-23.434 0-12.942 10.492-23.434 23.434-23.434h262.758c12.942 0 23.434 10.492 23.434 23.434 0 12.942-10.492 23.434-23.434 23.434z" fill="#eaf6ff"/><path d="m387.379 54.367h-30c12.942 0 23.434 10.492 23.434 23.434 0 12.942-10.492 23.434-23.434 23.434h30c12.942 0 23.434-10.492 23.434-23.434 0-12.942-10.492-23.434-23.434-23.434z" fill="#d8ecfe"/><path d="m357.379 7.5h-30c12.942 0 23.434 10.492 23.434 23.434 0 12.942-10.492 23.434-23.434 23.434h30c12.942 0 23.434-10.492 23.434-23.434 0-12.942-10.492-23.434-23.434-23.434z" fill="#c4e2ff"/></g><path d="m494.5 235.969h-477c-5.523 0-10-4.477-10-10v-21c0-5.523 4.477-10 10-10h477c5.523 0 10 4.477 10 10v21c0 5.523-4.477 10-10 10z" fill="#fef0ae"/><path d="m494.5 194.969h-30c5.523 0 10 4.477 10 10v21c0 5.523-4.477 10-10 10h30c5.523 0 10-4.477 10-10v-21c0-5.523-4.477-10-10-10z" fill="#fee97d"/></g><path d="m121 385.234c-12.406 0-22.5 10.093-22.5 22.5v45c0 12.406 10.094 22.5 22.5 22.5s22.5-10.093 22.5-22.5v-45c0-12.406-10.094-22.5-22.5-22.5zm7.5 67.501c0 4.135-3.364 7.5-7.5 7.5s-7.5-3.364-7.5-7.5v-45c0-4.136 3.364-7.5 7.5-7.5s7.5 3.364 7.5 7.5zm366-265.266h-80.618c2.81-4.657 4.43-10.109 4.43-15.934 0-18.8-16.061-32.363-34.43-30.934 2.81-4.657 4.43-10.109 4.43-15.934s-1.62-11.277-4.43-15.934c17.804 1.039 34.43-12.014 34.43-30.934 0-18.8-16.06-32.363-34.43-30.934 2.81-4.657 4.43-10.109 4.43-15.934 0-17.054-13.876-30.931-30.933-30.931h-125.192c-4.143 0-7.5 3.358-7.5 7.5s3.357 7.5 7.5 7.5h125.192c8.786 0 15.934 7.148 15.934 15.934s-7.147 15.934-15.934 15.934h-202.758c-8.786 0-15.934-7.148-15.934-15.934s7.148-15.934 15.934-15.934h42.565c4.143 0 7.5-3.358 7.5-7.5s-3.357-7.5-7.5-7.5h-42.565c-17.057 0-30.934 13.877-30.934 30.934 0 5.824 1.62 11.277 4.43 15.934-18.411-1.698-34.43 12.494-34.43 30.934 0 18.111 16.131 32.827 34.43 30.934-2.81 4.657-4.43 10.109-4.43 15.934 0 5.824 1.62 11.277 4.43 15.934-18.412-1.703-34.43 12.498-34.43 30.934 0 5.824 1.62 11.277 4.43 15.934h-80.617c-9.649 0-17.5 7.851-17.5 17.5v21c0 9.576 7.734 17.371 17.282 17.489l23.969 226.051c2.561 24.221 22.865 42.488 47.229 42.488h335.04c24.364 0 44.668-18.267 47.229-42.489l8.494-80.111c.437-4.119-2.548-7.812-6.667-8.249-4.13-.441-7.812 2.549-8.249 6.667l-8.494 80.113c-1.753 16.572-15.645 29.069-32.313 29.069h-335.04c-16.669 0-30.561-12.497-32.312-29.071l-23.801-224.46h447.266l-11.596 109.353c-.437 4.119 2.548 7.812 6.667 8.249.27.029.535.042.8.042 3.787 0 7.041-2.859 7.449-6.709l11.764-110.946c9.549-.118 17.282-7.913 17.282-17.489v-21c.001-9.649-7.85-17.5-17.499-17.5zm-369.879-93.735c-8.786 0-15.934-7.148-15.934-15.934s7.147-15.934 15.934-15.934h262.758c8.786 0 15.934 7.148 15.934 15.934s-7.147 15.934-15.934 15.934zm248.691 30.934c0 8.786-7.147 15.934-15.934 15.934h-202.757c-8.786 0-15.934-7.148-15.934-15.934s7.147-15.934 15.934-15.934h202.758c8.786 0 15.933 7.148 15.933 15.934zm-248.691 30.934h262.758c8.786 0 15.934 7.148 15.934 15.934s-7.147 15.934-15.934 15.934h-262.758c-8.786 0-15.934-7.148-15.934-15.934s7.148-15.934 15.934-15.934zm372.379 70.367c0 1.378-1.121 2.5-2.5 2.5h-477c-1.379 0-2.5-1.122-2.5-2.5v-21c0-1.378 1.121-2.5 2.5-2.5h477c1.379 0 2.5 1.122 2.5 2.5zm-353.5 61.765c0-12.407-10.094-22.5-22.5-22.5s-22.5 10.093-22.5 22.5v45c0 12.406 10.094 22.5 22.5 22.5s22.5-10.093 22.5-22.5zm-15 45.001c0 4.135-3.364 7.5-7.5 7.5s-7.5-3.364-7.5-7.5v-45c0-4.136 3.364-7.5 7.5-7.5s7.5 3.364 7.5 7.5zm262.5 52.499c-12.406 0-22.5 10.093-22.5 22.5v45c0 12.406 10.094 22.5 22.5 22.5s22.5-10.093 22.5-22.5v-45c0-12.406-10.094-22.5-22.5-22.5zm7.5 67.501c0 4.135-3.364 7.5-7.5 7.5s-7.5-3.364-7.5-7.5v-45c0-4.136 3.364-7.5 7.5-7.5s7.5 3.364 7.5 7.5zm-165-165.001c0-12.407-10.094-22.5-22.5-22.5s-22.5 10.093-22.5 22.5v45c0 12.406 10.094 22.5 22.5 22.5s22.5-10.093 22.5-22.5zm-15 45.001c0 4.135-3.364 7.5-7.5 7.5s-7.5-3.364-7.5-7.5v-45c0-4.136 3.364-7.5 7.5-7.5s7.5 3.364 7.5 7.5zm-7.5 52.499c-12.406 0-22.5 10.093-22.5 22.5v45c0 12.406 10.094 22.5 22.5 22.5s22.5-10.093 22.5-22.5v-45c0-12.406-10.094-22.5-22.5-22.5zm7.5 67.501c0 4.135-3.364 7.5-7.5 7.5s-7.5-3.364-7.5-7.5v-45c0-4.136 3.364-7.5 7.5-7.5s7.5 3.364 7.5 7.5zm105-165.001c0-12.407-10.094-22.5-22.5-22.5s-22.5 10.093-22.5 22.5v45c0 12.406 10.094 22.5 22.5 22.5s22.5-10.093 22.5-22.5zm-15 45.001c0 4.135-3.364 7.5-7.5 7.5s-7.5-3.364-7.5-7.5v-45c0-4.136 3.364-7.5 7.5-7.5s7.5 3.364 7.5 7.5zm-7.5 52.499c-12.406 0-22.5 10.093-22.5 22.5v45c0 12.406 10.094 22.5 22.5 22.5s22.5-10.093 22.5-22.5v-45c0-12.406-10.094-22.5-22.5-22.5zm7.5 67.501c0 4.135-3.364 7.5-7.5 7.5s-7.5-3.364-7.5-7.5v-45c0-4.136 3.364-7.5 7.5-7.5s7.5 3.364 7.5 7.5zm105-165.001c0-12.407-10.094-22.5-22.5-22.5s-22.5 10.093-22.5 22.5v45c0 12.406 10.094 22.5 22.5 22.5s22.5-10.093 22.5-22.5zm-15 45.001c0 4.135-3.364 7.5-7.5 7.5s-7.5-3.364-7.5-7.5v-45c0-4.136 3.364-7.5 7.5-7.5s7.5 3.364 7.5 7.5z"/></g></svg>