<svg id="Capa_1" enable-background="new 0 0 512.002 512.002" height="512" viewBox="0 0 512.002 512.002" width="512" xmlns="http://www.w3.org/2000/svg"><g><g><path d="m356.413 7.5h-166.056c-10.958 4.537-18.726 15.341-18.726 27.889v55.183h186.698l27.596-39.717v-13.844c0-16.298-13.213-29.511-29.512-29.511z" fill="#6e60b8"/><path d="m173.631 36.389c0-13.575 9.084-25.127 21.473-28.889h-39.009c-16.299 0-29.511 13.213-29.511 29.511v13.844l39.08 39.717h7.968v-54.183z" fill="#6353b2"/><path d="m375.662 446.572h-204.031v30.041c0 12.547 7.769 23.352 18.726 27.889h166.057c16.299 0 29.511-13.213 29.511-29.511v-13.844z" fill="#6e60b8"/><path d="m173.631 475.613v-29.041h-30.635l-16.413 14.574v13.844c0 16.299 13.213 29.511 29.511 29.511h39.009c-12.388-3.761-21.472-15.313-21.472-28.888z" fill="#6353b2"/><path d="m322.316 50.856c-4.92 0-9.147 3.492-10.076 8.323-1.927 10.019-10.693 17.26-20.896 17.26h-70.181c-10.202 0-18.969-7.241-20.896-17.26-.929-4.831-5.156-8.323-10.076-8.323h-18.561v410.291h214.294v-410.291z" fill="#dbedff"/><path d="m126.583 50.856h47.048v410.291h-47.048z" fill="#b5dcff"/><path d="m301.754 374.439h-45.739c-5.24 1.373-9.142 6.149-9.142 11.804v22.392c0 5.655 3.901 10.431 9.141 11.804h45.739c6.6 0 12-5.4 12-12v-22c.001-6.6-5.399-12-11.999-12z" fill="#ff76aa"/><path d="m248.087 408.439v-22c0-6.6 5.4-12 12-12h-49.333c-6.6 0-12 5.4-12 12v22c0 6.6 5.4 12 12 12h49.333c-6.6 0-12-5.4-12-12z" fill="#ff5595"/><path d="m274.485 118.896c-38.356 12.58-66.032 49.136-65.446 91.385.561 40.414 26.439 74.691 62.485 87.736 3.179 1.151 5.839 3.364 7.621 6.212l.454-.881c1.704-3.308 4.578-5.877 8.076-7.143 35.51-12.855 60.891-46.855 60.891-86.802 0-44.742-31.831-82.042-74.081-90.507z" fill="#60b9fe"/><path d="m271.733 296.208c-35.127-12.712-60.346-46.115-60.892-85.5-.597-43.042 28.897-80.039 68.924-90.597-8.194-2.152-16.833-3.206-25.75-2.995-50.32 1.191-90.763 43.263-90.065 93.592.546 39.384 25.765 72.787 60.892 85.5 3.495 1.265 6.365 3.835 8.067 7.14l14.573 28.291c3.674 7.132 13.871 7.132 17.545 0l14.573-28.292c.031-.06.069-.115.1-.175-1.713-3.217-4.535-5.722-7.967-6.964z" fill="#1ca8ff"/><path d="m298.344 189.42h-17.306c-2.652 0-4.802-2.15-4.802-4.802v-17.306c0-2.652-2.15-4.802-4.802-4.802h-11.861c-2.652 0-4.802 2.15-4.802 4.802v17.306c0 2.652-2.15 4.802-4.801 4.802h-17.306c-2.652 0-4.802 2.15-4.802 4.802v30.361c0 2.652 2.15 4.802 4.802 4.802h17.306c2.652 0 4.801 2.15 4.801 4.802v17.306c0 2.652 2.15 4.802 4.802 4.802h-18.5 30.361c2.652 0 4.802-2.15 4.802-4.802v-17.306c0-2.652 2.15-4.802 4.802-4.802h17.306c2.652 0 4.802-2.15 4.802-4.802v-30.361c-.001-2.652-2.151-4.802-4.802-4.802z" fill="#dbedff"/><path d="m255.771 251.492v-17.306c0-2.652-2.15-4.802-4.801-4.802h-17.306c-2.652 0-4.802-2.15-4.802-4.802v-30.361c0-2.652 2.15-4.802 4.802-4.802h17.306c2.652 0 4.801-2.15 4.801-4.802v-17.306c0-2.652 2.15-4.802 4.802-4.802h-19.5c-2.652 0-4.802 2.15-4.802 4.802v17.306c0 2.652-2.15 4.802-4.801 4.802h-17.306c-2.652 0-4.802 2.15-4.802 4.802v30.361c0 2.652 2.15 4.802 4.802 4.802h17.306c2.652 0 4.801 2.15 4.801 4.802v17.306c0 2.652 2.15 4.802 4.802 4.802h19.5c-2.652 0-4.802-2.15-4.802-4.802z" fill="#b5dcff"/></g><g><path d="m227.501 41.439c0 4.142 3.357 7.5 7.5 7.5h42c4.143 0 7.5-3.358 7.5-7.5s-3.357-7.5-7.5-7.5h-42c-4.143 0-7.5 3.358-7.5 7.5z"/><path d="m301.501 366.939h-91c-10.752 0-19.5 8.748-19.5 19.5v22c0 10.752 8.748 19.5 19.5 19.5h91c10.752 0 19.5-8.748 19.5-19.5v-22c0-10.752-8.748-19.5-19.5-19.5zm4.5 41.5c0 2.439-2.061 4.5-4.5 4.5h-91c-2.439 0-4.5-2.061-4.5-4.5v-22c0-2.439 2.061-4.5 4.5-4.5h91c2.439 0 4.5 2.061 4.5 4.5z"/><path d="m240.82 263.794h30.361c6.782 0 12.301-5.519 12.301-12.302v-14.608h14.608c6.783 0 12.302-5.519 12.302-12.301v-30.361c0-6.783-5.519-12.301-12.302-12.301h-14.608v-14.608c0-6.783-5.519-12.302-12.301-12.302h-30.361c-6.783 0-12.302 5.519-12.302 12.302v14.608h-14.607c-6.783 0-12.302 5.519-12.302 12.301v30.361c0 6.783 5.519 12.301 12.302 12.301h14.607v14.608c.001 6.783 5.519 12.302 12.302 12.302zm-24.211-41.91v-24.964h14.607c6.783 0 12.302-5.519 12.302-12.302v-14.608h24.964v14.608c0 6.783 5.519 12.302 12.302 12.302h14.608v24.964h-14.608c-6.783 0-12.302 5.519-12.302 12.302v14.608h-24.964v-14.608c0-6.783-5.519-12.302-12.302-12.302z"/><path d="m238.501 0h-82.66c-20.408 0-37.011 16.604-37.011 37.012v437.979c0 20.408 16.603 37.012 37.011 37.012h200.319c20.408 0 37.012-16.604 37.012-37.012 0-21.684 0-416.291 0-437.979 0-20.408-16.604-37.012-37.012-37.012h-82.659c-4.143 0-7.5 3.358-7.5 7.5s3.357 7.5 7.5 7.5h82.659c12.138 0 22.012 9.875 22.012 22.012v6.344h-56.108c-8.5 0-15.836 6.059-17.442 14.407-1.245 6.476-6.936 11.176-13.53 11.176h-70.182c-6.595 0-12.285-4.7-13.53-11.175-1.604-8.349-8.939-14.408-17.441-14.408h-56.109v-6.344c0-12.137 9.874-22.012 22.011-22.012h82.66c4.143 0 7.5-3.358 7.5-7.5s-3.357-7.5-7.5-7.5zm117.659 497.002h-200.319c-12.137 0-22.011-9.875-22.011-22.012v-6.344h244.342v6.344c0 12.137-9.874 22.012-22.012 22.012zm-166.222-438.646c1.321 0 2.462.941 2.711 2.24 2.602 13.526 14.486 23.343 28.261 23.343h70.181c13.774 0 25.659-9.817 28.261-23.343.249-1.298 1.39-2.24 2.712-2.24h56.108v395.291h-244.342v-395.291z"/><path d="m222.038 303.261c1.693.613 3.097 1.863 3.95 3.521l14.573 28.292c6.46 12.541 24.417 12.544 30.88 0l14.571-28.291c.854-1.658 2.262-2.911 3.963-3.526 32.909-11.914 57.446-40.629 64.034-74.939.781-4.068-1.883-7.999-5.951-8.78-4.059-.783-7.997 1.882-8.779 5.951-5.597 29.146-26.445 53.541-54.409 63.664-5.27 1.908-9.6 5.729-12.192 10.762l-14.571 28.291c-.882 1.709-3.32 1.728-4.21 0l-14.572-28.291c-2.593-5.034-6.92-8.854-12.184-10.758-32.975-11.934-55.457-43.501-55.944-78.551-.643-46.32 36.476-84.895 82.743-85.99 41.631-.984 77.516 27.908 85.346 68.702.78 4.068 4.709 6.729 8.779 5.952 4.067-.781 6.732-4.711 5.951-8.779-9.122-47.528-51.43-82.033-100.432-80.871-54.455 1.29-98.143 46.685-97.386 101.194.573 41.25 27.031 78.403 65.84 92.447z"/></g></g></svg>