<svg id="Capa_1" enable-background="new 0 0 512.001 512.001" height="512" viewBox="0 0 512.001 512.001" width="512" xmlns="http://www.w3.org/2000/svg"><g><g><path d="m233.256 486.718h-180.298v-215.357l66.077-13.973h49.137l65.084 13.973z" fill="#a2aee6"/><path d="m168.172 257.388h-20.205l65.084 13.973v215.357h20.205v-215.357z" fill="#8795de"/><path d="m74.534 91.291v89.01c0 19.37 15.702 35.073 35.073 35.073h67.994c19.37 0 35.073-15.702 35.073-35.073v-89.01z" fill="#fed2a4"/><path d="m192.468 91.291v89.01c0 19.37-15.702 35.073-35.073 35.073h20.205c19.37 0 35.073-15.702 35.073-35.073v-89.01z" fill="#ffbd86"/><path d="m74.531 170.963h-9.26c-11.52 0-20.859-9.339-20.859-20.859 0-11.52 9.339-20.859 20.859-20.859h9.26z" fill="#fed2a4"/><path d="m65.271 129.245c-2.25 0-4.412.366-6.443 1.026v39.668c2.03.659 4.192 1.026 6.443 1.026h9.26v-41.719h-9.26z" fill="#ffbd86"/><path d="m221.936 170.963h-9.26v-41.719h9.26c11.52 0 20.859 9.339 20.859 20.859 0 11.521-9.339 20.86-20.859 20.86z" fill="#fed2a4"/><path d="m221.936 129.245h-9.26v1.026c8.365 2.716 14.417 10.564 14.417 19.834 0 9.27-6.052 17.118-14.417 19.834v1.026h9.26c11.52 0 20.859-9.339 20.859-20.859 0-11.522-9.339-20.861-20.859-20.861z" fill="#ffbd86"/><path d="m119.035 215.374h49.138v42.014c-14.769 10.272-34.369 10.272-49.138 0z" fill="#fed2a4"/><path d="m147.967 215.374v42.014c-4.469 3.108-9.381 5.269-14.466 6.497 11.722 2.829 24.371.668 34.671-6.497v-42.014z" fill="#ffbd86"/><path d="m52.958 271.361c-27.296 9.956-45.457 35.911-45.457 64.966v32.804h45.457z" fill="#a2aee6"/><path d="m52.958 271.361c-7.486 2.73-14.279 6.671-20.205 11.542v86.227h20.205z" fill="#8795de"/><path d="m7.501 369.13h45.457v117.588h-45.457z" fill="#fed2a4"/><path d="m278.711 336.33v32.8h-45.45v-97.77c4.47 1.63 8.7 3.7 12.64 6.13 4.63 2.86 8.86 6.23 12.64 10.02 12.64 12.69 20.17 30.11 20.17 48.82z" fill="#8795de"/><path d="m32.752 369.13h20.205v117.588h-20.205z" fill="#ffbd86"/><path d="m233.256 369.13h45.457v117.588h-45.457z" fill="#fed2a4"/><path d="m212.673 91.291h-139.429c-12.573 0-22.765-10.192-22.765-22.765v-20.478c0-12.573 10.192-22.765 22.765-22.765h38.865l70.491 12.238c17.382 3.018 30.074 18.103 30.074 35.745v18.025z" fill="#ffe270"/><path d="m182.6 37.521-70.491-12.239h-20.205l70.491 12.239c17.382 3.018 30.073 18.103 30.073 35.745v18.025h20.205v-18.025c0-17.642-12.691-32.727-30.073-35.745z" fill="#ffd15b"/><path d="m459.044 486.718h-180.299v-215.357l66.078-13.973h49.137l65.084 13.973z" fill="#a6e7f0"/><path d="m393.96 257.388h-20.205l65.083 13.973v215.357h20.206v-215.357z" fill="#6bd9e7"/><path d="m300.322 91.291v89.01c0 19.37 15.703 35.073 35.073 35.073h67.994c19.37 0 35.073-15.702 35.073-35.073v-89.01z" fill="#fed2a4"/><path d="m418.256 91.291v89.01c0 19.37-15.702 35.073-35.073 35.073h20.205c19.37 0 35.073-15.702 35.073-35.073v-89.01z" fill="#ffbd86"/><path d="m300.318 170.963h-9.26c-11.52 0-20.859-9.339-20.859-20.859 0-11.52 9.339-20.859 20.859-20.859h9.26z" fill="#fed2a4"/><path d="m291.059 129.245c-2.25 0-4.412.366-6.442 1.026v39.668c2.03.659 4.192 1.026 6.442 1.026h9.26v-41.719h-9.26z" fill="#ffbd86"/><path d="m447.724 170.963h-9.26v-41.719h9.26c11.52 0 20.859 9.339 20.859 20.859 0 11.521-9.339 20.86-20.859 20.86z" fill="#fed2a4"/><path d="m447.724 129.245h-9.26v1.026c8.365 2.716 14.417 10.564 14.417 19.834 0 9.27-6.052 17.118-14.417 19.834v1.026h9.26c11.521 0 20.859-9.339 20.859-20.859 0-11.522-9.339-20.861-20.859-20.861z" fill="#ffbd86"/><path d="m344.823 215.374h49.138v42.014c-14.769 10.272-34.369 10.272-49.138 0z" fill="#fed2a4"/><path d="m373.755 215.374v42.014c-4.469 3.108-9.381 5.269-14.466 6.497 11.722 2.829 24.371.668 34.671-6.497v-42.014z" fill="#ffbd86"/><path d="m278.713 271.361c-27.296 9.956-45.457 35.911-45.457 64.966v32.804h45.457z" fill="#a6e7f0"/><path d="m258.54 282.877v86.254h20.173v-97.77c-7.473 2.725-14.255 6.657-20.173 11.516z" fill="#6bd9e7"/><path d="m233.288 369.13h45.457v117.588h-45.457z" fill="#fed2a4"/><path d="m258.54 369.13h20.205v117.588h-20.205z" fill="#ffbd86"/><path d="m459.044 271.361c27.296 9.956 45.457 35.911 45.457 64.966v32.804h-45.457z" fill="#a6e7f0"/><path d="m459.044 271.361v11.542c15.68 12.89 25.252 32.338 25.252 53.424v32.804h20.205v-32.804c0-29.055-18.162-55.011-45.457-64.966z" fill="#6bd9e7"/><path d="m459.044 369.13h45.457v117.588h-45.457z" fill="#fed2a4"/><path d="m484.295 369.13h20.205v117.588h-20.205z" fill="#ffbd86"/><path d="m438.461 91.291h-139.429c-12.573 0-22.765-10.192-22.765-22.765v-20.478c0-12.573 10.192-22.765 22.765-22.765h38.865l70.491 12.239c17.382 3.018 30.074 18.103 30.074 35.745v18.024z" fill="#ffe270"/><path d="m408.387 37.521-70.491-12.239h-20.205l70.491 12.239c17.382 3.018 30.073 18.103 30.073 35.745v18.025h20.205v-18.025c.001-17.642-12.69-32.727-30.073-35.745z" fill="#ffd15b"/></g><g><path d="m230.671 270.805c.869-4.05-1.709-8.038-5.759-8.907l-49.239-10.571v-28.453c24.427 1.151 45.566-19.565 44.501-44.411 15.653 1.004 30.202-12.11 30.122-28.359.091-15.846-13.843-29.224-30.122-28.359v-48.479c0-21.343-15.263-39.483-36.291-43.135l-70.49-12.239c-.424-.073-.854-.11-1.283-.11h-38.866c-16.688 0-30.266 13.577-30.266 30.265v20.478c0 14.56 10.336 26.75 24.056 29.622v23.596c-15.653-1.004-30.202 12.11-30.122 28.36-.091 15.846 13.843 29.224 30.122 28.359-1.106 24.443 19.652 45.511 44.501 44.411v28.434l-60.129 12.714c-30.169 10.199-51.539 40.044-51.405 72.306v150.391c0 4.142 3.357 7.5 7.5 7.5s7.5-3.358 7.5-7.5v-110.087h30.457v110.087c0 4.142 3.357 7.5 7.5 7.5s7.5-3.358 7.5-7.5v-153.77c0-4.142-3.357-7.5-7.5-7.5s-7.5 3.358-7.5 7.5v28.683h-30.457v-25.304c0-25.646 16.093-48.791 40.091-57.752l62.484-13.213c7.973 4.785 16.998 7.185 26.027 7.185 9.025 0 18.046-2.397 26.016-7.178l52.144 11.194c.53.114 1.06.168 1.582.168 3.459.002 6.57-2.406 7.326-5.926zm-10.495-134.061c7.088-.87 15.149 5.238 15.119 13.36.036 7.342-6.955 14.131-15.119 13.359zm-153.145 26.719c-7.088.87-15.149-5.238-15.119-13.359-.036-7.341 6.955-14.131 15.119-13.359zm15.003 16.839v-81.51h15.37c4.143 0 7.5-3.358 7.5-7.5s-3.357-7.5-7.5-7.5h-22.87c-7.938.691-16.571-6.184-16.556-15.266v-20.478c0-8.417 6.848-15.265 15.266-15.265h38.219l69.854 12.128c13.824 2.4 23.857 14.325 23.857 28.355v10.525h-72.692c-4.143 0-7.5 3.358-7.5 7.5s3.357 7.5 7.5 7.5h72.692v81.51c0 15.204-12.369 27.573-27.573 27.573h-67.994c-15.204 0-27.573-12.369-27.573-27.572zm44.501 72.919v-30.347h34.138v30.347c-10.59 5.788-23.548 5.787-34.138 0z"/><path d="m142.062 160.833c4.143 0 7.5-3.358 7.5-7.5v-17.916c0-4.142-3.357-7.5-7.5-7.5s-7.5 3.358-7.5 7.5v17.916c0 4.142 3.358 7.5 7.5 7.5z"/><path d="m142.062 191.788c10.586 0 20.188-5.407 25.685-14.464 2.149-3.541 1.021-8.154-2.52-10.303-3.538-2.149-8.153-1.021-10.303 2.52-2.755 4.538-7.562 7.247-12.862 7.247s-10.107-2.709-12.862-7.247c-2.149-3.541-6.764-4.669-10.303-2.52-3.541 2.149-4.669 6.762-2.52 10.303 5.498 9.057 15.099 14.464 25.685 14.464z"/><path d="m461.614 264.315c-.225-.07-.353-.12-.996-.287l-59.157-12.7v-28.453c24.427 1.151 45.565-19.565 44.5-44.411h1.764c15.638 0 28.359-12.722 28.359-28.359.091-15.846-13.843-29.225-30.123-28.359v-48.48c0-21.343-15.263-39.483-36.29-43.135l-70.49-12.239c-.424-.073-.854-.11-1.283-.11h-38.865c-16.688 0-30.266 13.577-30.266 30.265v20.478c0 14.56 10.336 26.75 24.056 29.622v23.596c-15.653-1.004-30.202 12.11-30.122 28.36-.091 15.846 13.843 29.224 30.122 28.359-1.106 24.443 19.652 45.511 44.501 44.411v28.434l-60.129 12.714c-30.169 10.197-51.539 40.043-51.405 72.304l-.033 150.391c0 4.142 3.357 7.5 7.5 7.5.006 0 .011-.001.017-.001s.011.001.017.001c4.143 0 7.5-3.358 7.5-7.5v-110.085h30.424v110.087c0 4.142 3.357 7.5 7.5 7.5.006 0 .011-.001.017-.001s.011.001.017.001c4.143 0 7.5-3.358 7.5-7.5v-150.391c0-4.142-3.357-7.5-7.5-7.5s-7.5 3.358-7.5 7.5v25.303h-30.457v-25.303c0-25.646 16.093-48.791 40.091-57.752l62.484-13.213c7.973 4.785 16.998 7.185 26.028 7.185 9.024 0 18.045-2.397 26.015-7.178l61.491 13.201c24.004 8.958 40.103 32.106 40.103 57.756v25.304h-30.457v-24.624c0-4.142-3.357-7.5-7.5-7.5s-7.5 3.358-7.5 7.5v32.124c0 4.142 3.357 7.5 7.5 7.5h37.957v110.087c0 4.142 3.357 7.5 7.5 7.5s7.5-3.358 7.5-7.5v-150.39c-.003-32.081-20.252-61.02-50.39-72.012zm-15.65-127.571c7.088-.87 15.149 5.238 15.119 13.36.036 7.342-6.955 14.131-15.119 13.359zm-153.146 26.719c-7.088.87-15.148-5.239-15.118-13.359-.036-7.341 6.954-14.131 15.118-13.359zm-9.052-94.937v-20.478c0-8.417 6.848-15.265 15.266-15.265h38.219l69.854 12.128c13.823 2.4 23.856 14.325 23.856 28.355v10.525h-130.639c-8.072.73-16.557-6.342-16.556-15.265zm24.056 111.776v-81.51h123.139v81.51c0 15.204-12.369 27.573-27.572 27.573h-67.994c-15.204-.001-27.573-12.37-27.573-27.573zm44.501 72.919v-30.347h34.138v30.347c-10.589 5.786-23.547 5.787-34.138 0z"/><path d="m459.044 396.873c-4.143 0-7.5 3.358-7.5 7.5v82.345c0 4.142 3.357 7.5 7.5 7.5s7.5-3.358 7.5-7.5v-82.345c0-4.142-3.358-7.5-7.5-7.5z"/><path d="m367.85 160.833c4.143 0 7.5-3.358 7.5-7.5v-17.916c0-4.142-3.357-7.5-7.5-7.5s-7.5 3.358-7.5 7.5v17.916c0 4.142 3.358 7.5 7.5 7.5z"/><path d="m367.85 191.788c10.586 0 20.188-5.407 25.685-14.464 2.149-3.541 1.021-8.154-2.52-10.303-3.539-2.149-8.153-1.021-10.303 2.52-2.755 4.538-7.562 7.247-12.862 7.247s-10.107-2.709-12.862-7.247c-2.149-3.541-6.765-4.669-10.303-2.52-3.541 2.149-4.669 6.762-2.52 10.303 5.498 9.057 15.099 14.464 25.685 14.464z"/><path d="m377.565 334.764c-4.105.123-7.27 3.704-7.27 7.811v44.813c0 1.476-.746 2.808-1.948 3.475-2.241 1.246-5.075-1.396-5.194-1.509-2.778-3.084-7.571-3.216-10.515-.29l-.041.04c-2.953 2.935-2.86 7.774.251 10.541 5.217 4.64 9.455 6.609 14.215 6.609 2.729 0 5.631-.648 8.565-2.277 5.963-3.31 9.667-9.667 9.667-16.589v-45.128c0-4.218-3.483-7.623-7.73-7.496z"/><path d="m158.76 333.859h-31.182c-4.143 0-7.5 3.358-7.5 7.5s3.357 7.5 7.5 7.5h8.028v48.962c0 4.142 3.357 7.5 7.5 7.5s7.5-3.358 7.5-7.5v-48.962h8.153c4.143 0 7.5-3.358 7.5-7.5s-3.356-7.5-7.499-7.5z"/><circle cx="107.02" cy="138.709" r="7.5"/><circle cx="177.1" cy="138.709" r="7.5"/><circle cx="332.81" cy="138.709" r="7.5"/><circle cx="402.89" cy="138.709" r="7.5"/></g></g></svg>