<svg id="Capa_1" enable-background="new 0 0 512.001 512.001" height="512" viewBox="0 0 512.001 512.001" width="512" xmlns="http://www.w3.org/2000/svg"><g><g><g><path d="m122.337 504.501h129c22.091 0 40-17.909 40-40v-183.821c0-40.261-17.967-78.421-49-104.071h-111c-31.033 25.65-49 63.81-49 104.071v183.821c0 22.091 17.909 40 40 40z" fill="#eaf6ff"/><path d="m242.337 176.609h-30c31.033 25.65 49 63.81 49 104.071v183.821c0 22.091-17.909 40-40 40h30c22.091 0 40-17.909 40-40v-183.821c0-40.261-17.967-78.421-49-104.071z" fill="#d8ecfe"/><path d="m291.337 427.602v-146.922c0-4.083-.194-8.143-.559-12.172h-207.882c-.364 4.029-.559 8.089-.559 12.172v146.922z" fill="#8fd8fa"/><path d="m290.778 268.508h-30c.364 4.029.559 8.089.559 12.172v146.922h30v-146.922c0-4.083-.194-8.143-.559-12.172z" fill="#6bcdfe"/></g><path d="m303.786 56.323c1.178 18.361 5.008 43.473 16.406 71.001 3.803 9.185 7.961 17.463 12.167 24.837 3.562 6.245 1.367 14.189-4.937 17.646-.068.037-.135.074-.203.111-5.067 2.779-11.372 1.836-15.381-2.326-4.836-5.021-9.779-10.777-14.574-17.34-18.607-25.468-26.246-51.124-29.658-68.252-.294-9.831 4.611-19.023 12.838-23.926 10.808-6.441 21.98-2.285 23.342-1.751z" fill="#d8ecfe"/><path d="m358.637 27.609v45.85c0 8.284-6.716 15-15 15-8.284 0-15-6.716-15-15v-45.85c0-8.284 6.716-15 15-15 8.284 0 15 6.716 15 15z" fill="#8fd8fa"/><path d="m94.201 27.61c-11.338 0-20.529 9.191-20.529 20.529v5.646c0 9.73 7.888 17.619 17.619 17.619 11.55 0 22.109 6.526 27.275 16.857 5.278 10.555 8.025 22.194 8.025 33.995v24.355h120.492v-29.452c0-8.388 2.414-16.598 6.954-23.651 8.043-12.495 21.884-20.047 36.744-20.047h37.855v-45.851z" fill="#8fd8fa"/><g fill="#6bcdfe"><path d="m298.636 27.61h30v45.85h-30z"/><path d="m224.037 93.506c-4.54 7.053-6.954 15.264-6.954 23.651v29.452h30v-29.452c0-8.388 2.414-16.598 6.954-23.651 8.043-12.495 21.884-20.047 36.744-20.047h-30c-14.86.001-28.701 7.552-36.744 20.047z"/></g><path d="m223.561 351.333-2.087.664c-14.605 4.647-26.047 16.09-30.694 30.694l-.664 2.087c-1.017 3.196-5.539 3.196-6.556 0l-.664-2.087c-4.647-14.605-16.09-26.047-30.694-30.694l-2.087-.664c-3.196-1.017-3.196-5.539 0-6.556l2.087-.664c14.605-4.647 26.047-16.09 30.694-30.694l.664-2.087c1.017-3.196 5.539-3.196 6.556 0l.664 2.087c4.647 14.605 16.09 26.047 30.694 30.694l2.087.664c3.196 1.017 3.196 5.539 0 6.556z" fill="#fff"/><path d="m123.837 146.609h126c12.426 0 22.5 10.074 22.5 22.5 0 12.426-10.074 22.5-22.5 22.5h-126c-12.426 0-22.5-10.074-22.5-22.5 0-12.426 10.074-22.5 22.5-22.5z" fill="#d8ecfe"/><path d="m249.837 146.609h-30c12.426 0 22.5 10.074 22.5 22.5 0 12.426-10.074 22.5-22.5 22.5h30c12.426 0 22.5-10.074 22.5-22.5 0-12.426-10.074-22.5-22.5-22.5z" fill="#c4e2ff"/></g><path d="m343.637 5.11c-9.778 0-18.114 6.271-21.21 15h-136.601c-4.142 0-7.5 3.358-7.5 7.5s3.358 7.5 7.5 7.5h135.311v30.85h-30.355c-17.49 0-33.584 8.78-43.051 23.488-5.33 8.28-8.147 17.863-8.147 27.71v21.952h-105.493v-16.855c0-12.898-3.049-25.813-8.817-37.349-6.477-12.955-19.499-21.002-33.983-21.002-5.58 0-10.119-4.539-10.119-10.119v-5.646c0-7.184 5.845-13.028 13.029-13.028h56.625c4.142 0 7.5-3.358 7.5-7.5s-3.358-7.5-7.5-7.5h-56.625c-15.455 0-28.029 12.573-28.029 28.028v5.646c0 13.851 11.268 25.119 25.119 25.119 8.766 0 16.646 4.871 20.567 12.71 4.732 9.464 7.233 20.06 7.233 30.641v17.234c-14.294 2.282-25.254 14.694-25.254 29.621 0 9.542 4.484 18.052 11.449 23.551-19.664 24.992-30.422 56.157-30.448 88.021v183.82c0 26.191 21.309 47.5 47.5 47.5h129c26.191 0 47.5-21.309 47.5-47.5v-96.518c0-4.142-3.358-7.5-7.5-7.5s-7.5 3.358-7.5 7.5v52.119h-194v-139.42c0-1.557.04-3.115.098-4.673h193.808c.057 1.555.093 3.112.093 4.673v52.302c0 4.142 3.358 7.5 7.5 7.5s7.5-3.358 7.5-7.5v-52.302c0-32.06-10.751-62.972-30.44-88.029 6.959-5.499 11.439-14.005 11.439-23.542 0-14.927-10.96-27.339-25.254-29.621v-22.331c0-6.963 1.992-13.738 5.76-19.592.741-1.151 1.549-2.242 2.4-3.288 5.742 22.076 15.283 42.354 28.463 60.402 4.665 6.375 9.79 12.471 15.232 18.116 6.377 6.615 16.588 8.008 24.586 3.591 9.785-5.403 13.364-18.287 7.846-27.946-4.373-7.655-8.327-15.728-11.751-23.986-5.764-13.936-10.027-28.534-12.752-43.495h8.059c3.096 8.729 11.432 15 21.21 15 12.407 0 22.5-10.093 22.5-22.5v-45.852c.002-12.407-10.092-22.5-22.498-22.5zm-59.798 429.992v29.399c0 17.92-14.58 32.5-32.5 32.5h-129c-17.92 0-32.5-14.58-32.5-32.5v-29.399zm-1.528-174.094h-190.918c3.577-22.89 13.349-44.471 28.209-62.204 1.385.197 133.089.197 134.475 0 14.976 17.881 24.679 39.377 28.234 62.204zm-17.474-91.898c0 8.271-6.729 15-15 15-4.909 0-126.162.753-130.516-.698-.005-.002-.009-.004-.014-.005-6.063-1.926-10.469-7.605-10.469-14.297 0-8.271 6.729-15 15-15h126c8.27 0 14.999 6.729 14.999 15zm61.008-13.232c1.511 2.646.414 5.366-1.588 6.878s-4.91 1.816-7.018-.371c-4.975-5.16-9.66-10.732-13.922-16.558-13.29-18.199-22.546-38.914-27.566-61.611 4.638-2.113 9.742-3.257 15.031-3.257h8.345c2.881 16.944 7.618 33.477 14.134 49.234 3.667 8.845 7.901 17.488 12.584 25.685zm25.292-82.418c0 4.136-3.364 7.5-7.5 7.5s-7.5-3.364-7.5-7.5v-45.85c0-4.136 3.364-7.5 7.5-7.5s7.5 3.364 7.5 7.5zm-127.39 263.506c-12.266-3.902-21.918-13.555-25.821-25.822l-.664-2.087c-1.451-4.559-5.641-7.623-10.425-7.623-4.785 0-8.974 3.063-10.425 7.623l-.664 2.087c-3.903 12.266-13.556 21.919-25.823 25.822l-2.084.664c-4.56 1.45-7.624 5.64-7.624 10.425s3.063 8.975 7.623 10.425l2.087.664c12.266 3.903 21.918 13.556 25.821 25.821l.664 2.088c1.451 4.559 5.641 7.623 10.425 7.623s8.974-3.063 10.425-7.624l.664-2.087c3.903-12.266 13.556-21.918 25.821-25.821l2.087-.664c4.56-1.45 7.624-5.64 7.624-10.425s-3.063-8.975-7.622-10.424zm-36.91 35.568c-5.296-10.577-13.902-19.184-24.479-24.479 10.577-5.295 19.183-13.902 24.479-24.479 5.295 10.577 13.902 19.184 24.479 24.479-10.577 5.296-19.183 13.902-24.479 24.479zm223.314-348.384 17.036-10.216c3.552-2.13 4.705-6.737 2.575-10.29-2.13-3.552-6.735-4.705-10.29-2.575l-17.036 10.216c-3.552 2.13-4.705 6.737-2.575 10.29 2.152 3.587 6.788 4.678 10.29 2.575zm17.035 66.919-17.036-10.216c-3.553-2.129-8.159-.977-10.29 2.575-2.13 3.552-.978 8.159 2.575 10.29l17.036 10.216c3.5 2.103 8.136 1.016 10.29-2.575 2.13-3.553.978-8.16-2.575-10.29zm11.143-46.068h-27.12c-4.142 0-7.5 3.358-7.5 7.5s3.358 7.5 7.5 7.5h27.12c4.142 0 7.5-3.358 7.5-7.5s-3.358-7.5-7.5-7.5z"/></g></svg>