<svg id="Capa_1" enable-background="new 0 0 512.002 512.002" height="512" viewBox="0 0 512.002 512.002" width="512" xmlns="http://www.w3.org/2000/svg"><g><g><path d="m454.318 7.5h-382.344c-15.352 9.01-25.666 25.678-25.666 44.765v407.472c0 19.087 10.314 35.755 25.666 44.765h382.344c27.855 0 50.437-22.582 50.437-50.437v-396.128c0-27.855-22.581-50.437-50.437-50.437z" fill="#dbedff"/><path d="m47.753 454.065v-396.128c0-27.856 22.582-50.437 50.437-50.437h-40c-27.855 0-50.437 22.581-50.437 50.437v396.128c0 27.855 22.582 50.437 50.438 50.437h40c-27.856 0-50.438-22.582-50.438-50.437z" fill="#b5dcff"/><path d="m455.721 37.967h-376.171c-1.412 2.695-2.221 5.756-2.221 9.01v418.05c0 3.253.809 6.314 2.22 9.009h376.171c10.255 0 18.568-8.313 18.568-18.568v-398.934c.001-10.254-8.312-18.567-18.567-18.567z" fill="#60b9fe"/><path d="m78.219 455.468v-398.933c0-10.255 8.313-18.568 18.568-18.568h-40c-10.255 0-18.567 8.313-18.567 18.568v398.933c0 10.255 8.313 18.568 18.567 18.568h40c-10.255-.001-18.568-8.314-18.568-18.568z" fill="#1ca8ff"/><path d="m340.83 333.036h-2.529c-14.851 41.822-54.812 71.854-101.663 71.854-59.466 0-107.846-48.38-107.846-107.846 0-48.315 31.936-89.312 75.807-102.989l1.314-3.554v-30.25l-.333-.371v3.669c-53.529 20.71-91.594 72.729-91.594 133.479 0 72.694 54.506 132.883 124.792 141.882 51.446-.766 96.346-29.031 120.607-70.734v-4.092z" fill="#b5dcff"/><g><path d="m115.059 297.043c0-60.259 37.758-111.858 90.854-132.401v-4.392l-1.314-1.463c-62.866 14.564-109.864 71.024-109.864 138.256 0 78.246 63.658 141.903 141.903 141.903 3.419 0 6.808-.128 10.167-.367-73.522-5.225-131.746-66.705-131.746-141.536z" fill="#8bcaff"/></g><circle cx="221.448" cy="98.992" fill="#dbedff" r="25.936"/><path d="m221.448 98.992c0-9.598 5.218-17.973 12.968-22.458-3.816-2.208-8.242-3.479-12.968-3.479-14.324 0-25.936 11.612-25.936 25.936s11.612 25.936 25.936 25.936c4.726 0 9.152-1.27 12.968-3.478-7.75-4.485-12.968-12.859-12.968-22.457z" fill="#b5dcff"/><path d="m329.226 313.567 58.188 88.684 13.796 1.442c7.685-4.96 10.114-15.147 5.373-23.049l-55.72-92.866c-3.077-5.129-8.62-8.267-14.601-8.267h-97.605v-46.743l-4.118-3.891h-12.285v67.178c0 8.707 6.242 15.946 14.492 17.513h87.622 4.858z" fill="#b5dcff"/><path d="m223.063 296.539v-67.663h-5.212l-11.625-13.137h-1.626v80.8c0 9.405 7.624 17.029 17.029 17.029h18.463c-9.405-.001-17.029-7.625-17.029-17.029z" fill="#8bcaff"/><path d="m395.842 398.166-49.601-82.668c-.719-1.198-2.014-1.931-3.411-1.931h-18.463c1.397 0 2.692.733 3.411 1.931l49.601 82.668c4.839 8.064 15.298 10.679 23.363 5.841.163-.098.309-.211.468-.314-2.123-1.369-3.981-3.215-5.368-5.527z" fill="#8bcaff"/><path d="m340.639 198.71h-101.983v-48.679c0-6.227-3.354-11.658-8.342-14.627-4.386 3.141-7.251 8.268-7.251 14.073v66.814c0 7.706 5.038 14.229 11.997 16.475h105.58c9.404 0 17.028-7.624 17.028-17.028-.001-9.404-7.625-17.028-17.029-17.028z" fill="#dbedff"/><path d="m223.349 215.739v-65.707c0-5.939 3.044-11.162 7.654-14.209-2.69-1.778-5.909-2.82-9.375-2.82-9.405 0-17.029 7.624-17.029 17.029v65.707c0 9.404 7.624 17.028 17.029 17.028h18.75c-9.405 0-17.029-7.624-17.029-17.028z" fill="#b5dcff"/></g><g><path d="m57.938 512.002h396.128c31.946 0 57.937-25.99 57.937-57.937v-396.128c-.001-31.947-25.991-57.937-57.938-57.937h-396.127c-31.948 0-57.938 25.99-57.938 57.937v396.128c0 31.947 25.99 57.937 57.938 57.937zm-42.938-454.065c0-23.675 19.262-42.937 42.938-42.937h396.128c23.676 0 42.937 19.262 42.937 42.937v396.128c0 23.675-19.261 42.937-42.937 42.937h-396.128c-23.676 0-42.938-19.262-42.938-42.937z"/><path d="m196.847 150.032v2.923c-64.145 17.664-109.864 76.341-109.864 144.088 0 82.381 67.022 149.403 149.403 149.403 48.833 0 94.712-24.268 122.531-64.053l11.779 19.631c6.957 11.596 22.054 15.372 33.652 8.413 11.597-6.958 15.371-22.055 8.414-33.652l-55.721-92.866c-4.407-7.346-12.466-11.909-21.032-11.909h-90.105v-31.743h94.483c13.525 0 24.528-11.003 24.528-24.528s-11.003-24.528-24.528-24.528h-94.483v-41.179c0-8.57-4.421-16.123-11.099-20.51 11.671-5.223 19.828-16.938 19.828-30.53 0-18.437-15-33.436-33.437-33.436s-33.436 15-33.436 33.436c0 13.673 8.254 25.449 20.038 30.625-6.597 4.401-10.951 11.908-10.951 20.415zm39.539 281.414c-74.11 0-134.403-60.293-134.403-134.403 0-58.716 39.365-111.282 94.864-128.464v20.104c-43.931 16.129-75.808 58.301-75.808 108.361 0 57.777 42.826 106.125 98.897 114.168 4.091.588 7.901-2.258 8.489-6.359.588-4.1-2.259-7.901-6.358-8.489-49.044-7.036-86.028-49.734-86.028-99.32 0-40.672 24.052-76.531 60.808-92.224v91.72c0 13.525 11.003 24.529 24.528 24.529h100.746l7.634 12.724c-12.662 32.063-41.145 55.644-75.115 61.915-4.073.752-6.766 4.664-6.014 8.737.752 4.074 4.667 6.765 8.736 6.014 35.382-6.531 65.584-29.39 81.771-61.034 11.903 19.838 10.975 18.292 11.246 18.742-24.522 39.144-67.797 63.279-113.993 63.279zm2.017-144.436h97.605c3.327 0 6.457 1.772 8.169 4.626l55.721 92.866c2.703 4.505 1.237 10.37-3.268 13.073-4.504 2.703-10.37 1.237-13.073-3.269-10.579-17.633-41.56-69.268-50.759-84.599-1.355-2.259-3.797-3.641-6.432-3.641h-104.991c-5.254 0-9.528-4.274-9.528-9.529v-58.198c.156.066.316.124.474.187 2.89 1.153 5.903 1.74 9.055 1.74h9.528v39.243c-.001 4.143 3.357 7.501 7.499 7.501zm101.984-80.8c5.254 0 9.528 4.274 9.528 9.528s-4.274 9.528-9.528 9.528c-24.781 0-93.187 0-119.012 0-5.254 0-9.528-4.274-9.528-9.528 0-6.455 0-57.651 0-65.707 0-5.254 4.274-9.528 9.528-9.528s9.528 4.274 9.528 9.528v48.679c0 4.142 3.357 7.5 7.5 7.5zm-119.192-125.654c10.166 0 18.437 8.271 18.437 18.436s-8.271 18.436-18.437 18.436c-10.165 0-18.436-8.271-18.436-18.436s8.271-18.436 18.436-18.436z"/><path d="m56.535 481.535h398.934c14.374 0 26.067-11.694 26.067-26.068v-181.966c0-4.142-3.357-7.5-7.5-7.5s-7.5 3.358-7.5 7.5v181.966c0 6.103-4.965 11.068-11.067 11.068h-398.934c-6.104 0-11.068-4.965-11.068-11.067v-398.933c0-6.103 4.965-11.068 11.068-11.068h398.934c6.103 0 11.067 4.965 11.067 11.067v181.967c0 4.142 3.357 7.5 7.5 7.5s7.5-3.358 7.5-7.5v-181.967c0-14.374-11.693-26.067-26.067-26.067h-398.934c-14.374 0-26.068 11.694-26.068 26.068v398.933c0 14.373 11.694 26.067 26.068 26.067z"/></g></g></svg>