<svg id="Layer_1" enable-background="new 0 0 512 512" height="512" viewBox="0 0 512 512" width="512" xmlns="http://www.w3.org/2000/svg"><g><path clip-rule="evenodd" d="m433.754 485.034c0 2.828-.642 5.27-2.056 7.326-1.414 2.185-3.984 3.856-7.969 5.27-3.856 1.414-9.125 2.442-15.937 3.213s-15.295 1.157-25.577 1.157c-16.323 0-28.019-.643-35.216-1.928-7.197-1.157-12.307-3.124-15.423-5.655-3.053-2.481-5.161-5.742-7.326-8.997l-147.292-221.348v221.348c0 2.699-.782 5.133-2.314 7.197-1.424 1.92-4.113 3.727-7.84 5.013-3.727 1.414-8.74 2.442-15.038 3.213-6.169.771-14.266 1.157-23.905 1.157-9.511 0-17.48-.385-23.906-1.157-6.427-.771-11.439-1.799-15.167-3.213-3.727-1.414-6.426-3.085-8.097-5.013-1.671-2.056-2.442-4.498-2.442-7.197v-459.226c0-2.827.771-5.141 2.442-7.197 1.671-1.928 4.37-3.599 8.097-4.884 3.728-1.285 8.74-2.185 15.167-2.956 6.426-.771 14.395-1.157 23.906-1.157 9.639 0 17.737.385 23.906 1.157 6.298.771 11.31 1.671 15.038 2.956 3.727 1.285 6.416 2.964 7.84 4.884 1.531 2.064 2.314 4.37 2.314 7.197v197.57l142.663-197.184c2.159-2.983 3.883-5.881 6.426-8.097 2.47-2.153 5.784-3.856 9.768-5.141 3.984-1.157 9.126-2.056 15.423-2.57 6.299-.515 14.267-.772 24.036-.772 10.025 0 18.251.385 24.805 1.157 6.555.771 11.696 1.799 15.68 3.213 3.856 1.285 6.555 3.085 7.969 5.012 1.542 2.057 2.314 4.241 2.314 6.812 0 4.241-1.157 8.611-3.342 13.238-2.313 4.499-6.555 11.567-12.853 21.464l-133.41 175.182 145.621 220.295c5.527 10.282 8.868 17.223 10.025 20.564 1.156 3.342 1.67 6.041 1.67 8.097z" fill="#00ccf2" fill-rule="evenodd"/><g><path d="m441.533 473.666c-1.409-4.071-4.998-11.482-10.667-22.027-.144-.267-.299-.527-.466-.779l-141.705-214.373 129.109-169.532c.17-.223.331-.453.481-.69 6.619-10.401 10.848-17.474 13.309-22.259.051-.1.101-.201.149-.303 2.893-6.126 4.299-11.853 4.299-17.508 0-4.669-1.441-8.966-4.284-12.773-2.716-3.677-7.119-6.617-12.744-8.507-4.64-1.636-10.289-2.809-17.766-3.689-7.009-.825-15.505-1.226-25.974-1.226-10.092 0-18.22.263-24.849.804-6.732.55-12.586 1.537-17.398 2.935-.094.027-.188.056-.281.086-5.374 1.733-9.838 4.129-13.268 7.12-2.905 2.532-4.901 5.403-6.663 7.936-.42.604-.848 1.219-1.295 1.838l-124.562 172.164v-166.689c0-4.898-1.44-9.324-4.282-13.155-2.667-3.595-6.91-6.415-12.612-8.38-4.155-1.433-9.423-2.49-17.057-3.425-6.552-.819-15.012-1.234-25.147-1.234-9.862 0-18.306.413-25.097 1.228-7.727.928-13.042 1.986-17.234 3.431-5.342 1.842-9.512 4.462-12.395 7.789-.068.079-.136.16-.202.241-3.107 3.822-4.682 8.366-4.682 13.505v184.613c0 5.523 4.477 10 10 10s10-4.477 10-10v-184.613c0-.453.036-.63.103-.751.297-.273 1.287-1.045 3.696-1.876 2.759-.951 6.921-1.74 13.099-2.481 6.002-.721 13.644-1.086 22.712-1.086 9.308 0 16.934.363 22.69 1.083 6.126.75 10.255 1.54 12.994 2.484 2.082.717 2.95 1.349 3.166 1.524.148.218.247.463.247 1.103v197.57c0 4.336 2.794 8.178 6.919 9.514s8.641-.139 11.183-3.652l142.665-197.184c.522-.722 1.021-1.438 1.512-2.144 1.258-1.809 2.345-3.372 3.385-4.278.934-.814 2.753-2.012 6.127-3.117 3.46-.989 8.057-1.737 13.306-2.166 5.997-.49 13.81-.738 23.221-.738 9.545 0 17.498.366 23.637 1.088 5.92.697 10.337 1.582 13.504 2.706.061.021.122.042.183.063 1.896.632 2.876 1.299 3.145 1.544.299.402.299.503.299.793 0 2.599-.757 5.484-2.314 8.818-2.138 4.13-6.097 10.731-12.091 20.16l-133.156 174.849c-2.577 3.383-2.731 8.025-.387 11.573l145.369 219.914c7.043 13.128 8.797 17.628 9.169 18.703 1.066 3.079 1.121 4.559 1.121 4.825 0 .37-.029 1.271-.296 1.661-.017.024-.034.049-.05.074-.196.159-.964.707-3.022 1.437-.033.012-.066.023-.099.036-2.942 1.079-7.524 1.976-13.619 2.666-6.409.726-14.636 1.093-24.452 1.093-15.616 0-26.874-.596-33.458-1.772-.057-.01-.114-.02-.171-.029-7.337-1.179-10.048-3.01-10.704-3.543-1.747-1.418-3.271-3.712-5.036-6.368l-147.564-221.758c-2.442-3.67-7.002-5.308-11.219-4.032-4.22 1.276-7.106 5.164-7.106 9.572v221.348c0 .617-.136.936-.294 1.168-.271.255-1.248.942-3.119 1.587-.097.033-.192.068-.288.104-2.794 1.06-7.069 1.947-12.731 2.641-5.732.716-13.358 1.08-22.666 1.08-9.068 0-16.71-.365-22.714-1.085-5.693-.683-10.003-1.569-12.811-2.635-2.58-.979-3.635-1.792-3.964-2.091-.061-.121-.121-.335-.121-.769v-184.613c0-5.523-4.477-10-10-10s-10 4.477-10 10v184.613c0 5.066 1.619 9.736 4.681 13.504.067.082.135.163.204.243 2.798 3.229 6.759 5.784 12.107 7.812 4.446 1.687 10.014 2.892 17.522 3.792 6.791.815 15.235 1.228 25.097 1.228 10.134 0 18.595-.415 25.122-1.231 7.354-.9 12.834-2.088 17.227-3.735 5.468-1.91 9.777-4.833 12.468-8.459 2.801-3.776 4.281-8.326 4.281-13.155v-188.268l128.966 193.809.265.397c2.331 3.508 4.973 7.484 9.081 10.821 4.662 3.788 11.224 6.324 20.057 7.753 7.854 1.392 19.921 2.068 36.889 2.068 10.713 0 19.447-.399 26.701-1.22 7.864-.89 13.651-2.08 18.204-3.742 3.886-1.382 9.412-3.83 12.896-9.127 2.48-3.658 3.737-7.99 3.737-12.876-.001-3.287-.749-7.113-2.222-11.368z"/><path d="m78.25 265.807c5.523 0 10-4.477 10-10s-4.477-10-10-10h-.007c-5.523 0-9.996 4.477-9.996 10s4.48 10 10.003 10z"/></g></g></svg>