<svg id="Capa_1" enable-background="new 0 0 512 512" height="512" viewBox="0 0 512 512" width="512" xmlns="http://www.w3.org/2000/svg"><g><g><g><path d="m186.88 203.68h-21.06c-11.432 0-20.7-9.268-20.7-20.7v-9.36c0-11.432 9.268-20.7 20.7-20.7h21.06z" fill="#f6a96c"/></g><g><path d="m325.12 152.92h21.06c11.432 0 20.7 9.268 20.7 20.7v9.36c0 11.432-9.268 20.7-20.7 20.7h-21.06z" fill="#f6a96c"/></g><g><path d="m283.905 302.099v-43.819h-55.81v43.819c0 5.779-3.605 10.944-9.03 12.937l-26.289 9.657v86.244h126.448v-86.244l-26.289-9.657c-5.425-1.993-9.03-7.158-9.03-12.937z" fill="#f6a96c"/></g><g><path d="m246.584 311.756v-31.407h-18.488v21.75c0 5.779-3.605 10.945-9.03 12.937l-26.289 9.657v17.327l44.777-17.327c5.424-1.993 9.03-7.158 9.03-12.937z" fill="#ea9b58"/></g><g><path d="m257.023 290.562h-2.047c-42.647 0-77.22-34.573-77.22-77.22v-86.417c0-6.627 5.373-12 12-12h132.487c6.627 0 12 5.373 12 12v86.417c0 42.647-34.572 77.22-77.22 77.22z" fill="#fed2a4"/></g><g><path d="m211.314 114.925h-21.558c-6.627 0-12 5.373-12 12v86.417c0 42.647 34.573 77.22 77.22 77.22h2.047c3.071 0 6.094-.199 9.072-.548.196-.101.397-.171.604-.199h.001c-38.147-5.22-67.543-37.915-67.543-77.496v-85.235c0-6.715 5.443-12.158 12.157-12.159z" fill="#ffbd86"/></g><g><path d="m412.365 480.788-18.284-105.917c-2.515-14.567-12.555-26.714-26.39-31.924l-48.468-18.254s-38.301 32.395-55.281 46.757c-4.586 3.879-11.301 3.878-15.887-.001l-55.28-46.756-48.468 18.254c-13.834 5.21-23.875 17.357-26.39 31.924l-18.282 105.917c-2.138 12.387 7.4 23.712 19.97 23.712h272.791c12.57 0 22.108-11.325 19.969-23.712z" fill="#b3e59f"/></g><g><path d="m119.576 480.788 18.284-96.001c2.515-14.567 12.555-26.714 26.39-31.924l42.782-16.113-14.255-12.057-48.468 18.254c-13.834 5.21-23.875 17.357-26.39 31.924l-18.284 105.917c-2.138 12.387 7.4 23.712 19.97 23.712h19.941c-12.571 0-22.109-11.325-19.97-23.712z" fill="#95d6a4"/></g><g><path d="m221.145 437.58h-49.443c-3.314 0-6-2.686-6-6v-21.74c0-3.314 2.686-6 6-6h49.443c3.314 0 6 2.686 6 6v21.74c0 3.313-2.686 6-6 6z" fill="#e9efff"/></g><g><path d="m322.38 152.92h-22.623c-17.699 0-35.125-4.36-50.739-12.694l-25.162-13.43c-3.258-1.739-7.309-.489-9.02 2.783l-6.717 12.84c-3.377 6.455-10.059 10.501-17.345 10.501h-13.018l-11.82-18.275c-7.753-11.987-7.704-27.42.126-39.357 8.686-13.244 25.002-19.264 40.209-14.838 2.609.759 5.415.404 7.752-.981l6.016-3.566c28.805-17.073 64.597-17.211 93.533-.361l49.886 29.05c6.114 3.56 7.2 11.945 2.195 16.946l-23.017 22.997c-5.374 5.369-12.66 8.385-20.256 8.385z" fill="#ffdd40"/></g><g><path d="m194.921 104.92h169.03c.01-.037-.001.002.009-.035l-50.388-29.343c-28.936-16.851-64.728-16.713-93.533.361l-6.016 3.566c-2.343 1.389-5.155 1.736-7.771.976-15.202-4.417-31.507 1.604-40.19 14.843-1.983 3.024-3.463 6.273-4.447 9.633h.01c0 .001-.001.002-.002.003-2.905 9.902-1.476 20.771 4.313 29.722l11.82 18.275h13.018c2.724 0 5.363-.566 7.776-1.612l-10.778-16.664c-3.072-4.75-4.916-10.04-5.536-15.439-.873-7.603 5.032-14.286 12.685-14.286z" fill="#ffc043"/></g><g><g><path d="m336.65 88.993 16.012-27.781c4.796-8.321 2.479-18.894-5.316-24.504-16.511-11.882-48.016-29.208-91.348-29.208-43.659 0-77.086 17.589-94.691 29.476-8.112 5.477-10.59 16.3-5.699 24.779l15.712 27.239h165.33z" fill="#e9efff"/></g><g><path d="m181.827 36.976c16.196-10.936 45.791-26.686 84.416-29.138-3.34-.214-6.75-.337-10.245-.337-43.659 0-77.086 17.589-94.691 29.476-8.112 5.477-10.59 16.3-5.699 24.779l15.712 27.239h20.52l-15.712-27.239c-4.891-8.48-2.413-19.303 5.699-24.78z" fill="#d3dcfb"/></g></g></g><g><path d="m419.756 479.512-10.075-58.362c-.704-4.082-4.581-6.822-8.667-6.115-4.082.705-6.819 4.584-6.115 8.667l10.075 58.362c.642 3.719-.384 7.508-2.815 10.395-2.431 2.886-5.99 4.542-9.764 4.542h-31.821l-6.144-32.495c-.77-4.07-4.688-6.744-8.763-5.976-4.07.77-6.746 4.693-5.976 8.763l5.618 29.707h-178.618l5.617-29.708c.77-4.07-1.906-7.994-5.976-8.763-4.072-.769-7.993 1.907-8.763 5.976l-6.144 32.495h-31.821c-3.774 0-7.333-1.656-9.764-4.542-2.431-2.887-3.458-6.675-2.815-10.395l18.284-105.917c2.054-11.895 10.347-21.927 21.643-26.182l44.344-16.701 51.917 43.912c7.411 6.267 18.166 6.266 25.573 0l51.917-43.912 44.344 16.701c11.296 4.254 19.589 14.287 21.643 26.182l3.133 18.152c.704 4.082 4.584 6.824 8.667 6.115 4.082-.705 6.819-4.584 6.115-8.667l-3.133-18.152c-2.955-17.113-14.886-31.546-31.137-37.667l-48.467-18.254c-.01-.004-.021-.006-.031-.009-.009-.003-.017-.009-.026-.012l-26.289-9.657c-2.462-.904-4.116-3.274-4.116-5.897v-11.355c29.626-13.212 50.338-42.924 50.338-77.402v-2.162h4.437c15.549 0 28.2-12.65 28.2-28.2v-9.36c0-13.627-9.715-25.025-22.582-27.637l19.156-19.14c4.045-4.041 5.944-9.611 5.209-15.282-.734-5.67-3.99-10.573-8.931-13.45l-20.351-11.851 12.279-21.304c6.732-11.68 3.536-26.442-7.434-34.337-15.892-11.433-49.46-30.618-95.729-30.618-46.402 0-81.874 19.272-98.888 30.76-11.316 7.64-14.83 22.901-7.999 34.742l12.977 22.497c-.805 1.016-1.574 2.073-2.297 3.175-9.452 14.411-9.511 33.073-.152 47.544l4.376 6.766c-14.711.934-26.395 13.193-26.395 28.136v9.36c0 15.55 12.65 28.2 28.2 28.2h4.437v2.162c0 34.477 20.713 64.19 50.338 77.402v11.355c0 2.623-1.654 4.993-4.116 5.897l-26.289 9.657c-.009.003-.017.009-.026.012-.01.004-.021.006-.031.009l-48.467 18.254c-16.251 6.121-28.183 20.554-31.137 37.667l-18.285 105.917c-1.396 8.089.835 16.33 6.123 22.609 5.288 6.278 13.029 9.879 21.237 9.879h272.791c8.208 0 15.949-3.601 21.237-9.879 5.288-6.279 7.52-14.52 6.124-22.609zm-60.376-305.892v9.36c0 7.279-5.921 13.2-13.2 13.2h-4.437v-35.76h4.437c7.278 0 13.2 5.921 13.2 13.2zm1.908-60.131c.077.598.059 1.75-.936 2.744l-23.017 22.997c-3.996 3.992-9.307 6.19-14.955 6.19h-22.623c-16.408 0-32.732-4.084-47.208-11.81l-25.161-13.43c-2.081-1.111-4.352-1.674-6.644-1.674-1.401 0-2.811.21-4.189.636-3.632 1.121-6.604 3.592-8.366 6.961l-6.717 12.84c-2.09 3.996-6.19 6.478-10.699 6.478h-8.937l-9.604-14.849c-6.136-9.487-6.097-21.723.1-31.171.673-1.026 1.403-1.994 2.18-2.907h160.132l25.038 14.581c1.216.706 1.528 1.815 1.606 2.414zm-195.785-70.297c15.594-10.529 48.086-28.192 90.495-28.192 42.062 0 72.542 17.415 86.967 27.795 4.696 3.38 6.072 9.688 3.199 14.672l-13.848 24.027h-156.664l-13.548-23.486c-2.915-5.053-1.421-11.561 3.399-14.816zm.317 152.988c-7.278 0-13.2-5.921-13.2-13.2v-9.36c0-7.279 5.921-13.2 13.2-13.2h4.437v35.76zm19.437 17.162v-52.922h5.518c10.111 0 19.303-5.565 23.99-14.524l6.318-12.078 24.403 13.026c16.641 8.882 35.408 13.577 54.271 13.577l26.986-.03v52.952c0 38.444-31.276 69.72-69.72 69.72h-2.047c-38.443-.001-69.719-31.277-69.719-69.721zm36.394 108.734c8.341-3.063 13.944-11.092 13.944-19.977v-6.3c6.229 1.464 12.712 2.263 19.381 2.263h2.047c6.669 0 13.152-.799 19.381-2.263v6.3c0 8.885 5.604 16.914 13.944 19.977l14.192 5.213-45.44 38.434c-1.796 1.52-4.403 1.519-6.2 0l-45.44-38.434z"/><path d="m317.942 421.047c4.142 0 7.5-3.358 7.5-7.5v-4.902h4.902c4.142 0 7.5-3.358 7.5-7.5s-3.358-7.5-7.5-7.5h-4.902v-4.902c0-4.142-3.358-7.5-7.5-7.5s-7.5 3.358-7.5 7.5v4.902h-4.902c-4.142 0-7.5 3.358-7.5 7.5s3.358 7.5 7.5 7.5h4.902v4.902c0 4.142 3.358 7.5 7.5 7.5z"/><path d="m196.423 383.02c-4.142 0-7.5 3.358-7.5 7.5v5.82h-17.222c-7.444 0-13.5 6.056-13.5 13.5v21.74c0 7.444 6.056 13.5 13.5 13.5h49.443c7.444 0 13.5-6.056 13.5-13.5v-21.74c0-7.444-6.056-13.5-13.5-13.5h-17.222v-5.82c.001-4.142-3.357-7.5-7.499-7.5zm23.222 47.06h-46.443v-18.74h46.443z"/><path d="m243.596 55.747h4.902v4.902c0 4.142 3.358 7.5 7.5 7.5s7.5-3.358 7.5-7.5v-4.902h4.902c4.142 0 7.5-3.358 7.5-7.5s-3.358-7.5-7.5-7.5h-4.902v-4.902c0-4.142-3.358-7.5-7.5-7.5s-7.5 3.358-7.5 7.5v4.902h-4.902c-4.142 0-7.5 3.358-7.5 7.5s3.358 7.5 7.5 7.5z"/><path d="m235.119 191.08c0-4.142-3.358-7.5-7.5-7.5h-6.286c-4.142 0-7.5 3.358-7.5 7.5s3.358 7.5 7.5 7.5h6.286c4.142 0 7.5-3.358 7.5-7.5z"/><path d="m284.381 198.58h6.285c4.142 0 7.5-3.358 7.5-7.5s-3.358-7.5-7.5-7.5h-6.285c-4.142 0-7.5 3.358-7.5 7.5s3.358 7.5 7.5 7.5z"/><path d="m277.235 249.918 1.835-.994c3.643-1.973 4.996-6.524 3.023-10.167s-6.525-4.996-10.167-3.023l-1.835.994c-8.823 4.778-19.358 4.778-28.183 0l-1.835-.994c-3.644-1.973-8.194-.62-10.167 3.023-1.973 3.642-.62 8.194 3.023 10.167l1.835.995c6.648 3.6 13.942 5.4 21.235 5.4 7.294 0 14.588-1.8 21.236-5.401z"/></g></g></svg>