<svg id="Capa_1" enable-background="new 0 0 512 512" height="512" viewBox="0 0 512 512" width="512" xmlns="http://www.w3.org/2000/svg"><g><g><path d="m117.147 108.5h277.431v337.055h-277.431z" fill="#f8f7f7"/><path d="m117.15 432.56h277.43v16.422h-277.43z" fill="#e8e8e8"/><g><path d="m307.5 452.725-3.527-9.908 3.527-10.257v-279.285h-97.876v299.45z" fill="#c38c66"/></g><g><path d="m307.5 432.56v20.16h-103v-299.44h13v273.28c0 3.314 2.686 6 6 6z" fill="#b57f5f"/></g><g fill="#f8f7f7"><path d="m269.167 186.303h-26.333c-1.105 0-2 .895-2 2v36.197h30.333v-36.197c0-1.105-.896-2-2-2z"/><path d="m269.167 250.376h-26.333c-1.105 0-2 .895-2 2v36.197h30.333v-36.197c0-1.104-.896-2-2-2z"/><path d="m269.167 314.45h-26.333c-1.105 0-2 .895-2 2v36.197l13.598 3.968 16.735-3.968v-36.197c0-1.105-.896-2-2-2z"/></g><path d="m386.873 445.5 1.092-285 51.09-7.225 48.445 7.225v272.74l-4.845 13.26z" fill="#c38c66"/><path d="m487.5 433.24v13.26h-103v-286l8.096-4.142 4.904 4.142v266.068c0 3.295 2.657 5.973 5.952 6z" fill="#b57f5f"/><g><path d="m26.873 445.5 1.092-285 51.09-7.225 48.445 7.225v272.74l-4.845 13.26z" fill="#c38c66"/><path d="m127.5 432.56v13.94l-103-1v-285l8.096-4.142 4.904 4.142v265.388c0 3.295 2.657 5.973 5.952 6z" fill="#b57f5f"/></g><g fill="#f8f7f7"><path d="m449.167 186.303h-26.333c-1.105 0-2 .895-2 2v36.197h30.333v-36.197c0-1.105-.896-2-2-2z"/><path d="m449.167 250.376h-26.333c-1.105 0-2 .895-2 2v36.197h30.333v-36.197c0-1.104-.896-2-2-2z"/><path d="m449.167 314.45h-26.333c-1.105 0-2 .895-2 2v36.197h30.333v-36.197c0-1.105-.896-2-2-2z"/><path d="m449.167 378.523h-26.333c-1.105 0-2 .895-2 2v36.197h30.333v-36.197c0-1.105-.896-2-2-2z"/></g><path d="m273.5 412.5h-35c-2.209 0-4 1.791-4 4v30h43v-30c0-2.209-1.791-4-4-4z" fill="#f8f7f7"/><path d="m234.5 432.56h43v13.94h-43z" fill="#e8e8e8"/><g fill="#f8f7f7"><path d="m89.167 186.303h-26.333c-1.105 0-2 .895-2 2v36.197h30.333v-36.197c0-1.105-.896-2-2-2z"/><path d="m89.167 250.376h-26.333c-1.105 0-2 .895-2 2v36.197h30.333v-36.197c0-1.104-.896-2-2-2z"/><path d="m89.167 314.45h-26.333c-1.105 0-2 .895-2 2v36.197h30.333v-36.197c0-1.105-.896-2-2-2z"/><path d="m89.167 378.523h-26.333c-1.105 0-2 .895-2 2v36.197h30.333v-36.197c0-1.105-.896-2-2-2z"/></g><path d="m123 90.5h266v30h-266z" fill="#e8e8e8"/><g><path d="m131.799 65.5h-100.219l-10.422 1.314c-1.535 0-2.823 1.159-2.984 2.686l-6.672 84.81c-.186 1.771 1.202 3.314 2.984 3.314l124.927 1.651c1.781 0 3.17-1.543 2.984-3.314l.63-9.462-8.244-78.313c-.161-1.527-1.448-2.686-2.984-2.686z" fill="#b57f5f"/><path d="m144.15 157.19c.19 1.77-1.2 3.31-2.98 3.31h-130.34c-1.78 0-3.17-1.54-2.98-3.31l9.37-89c.16-1.53 1.45-2.69 2.98-2.69h11.38l-7.716 73.267c-.435 4.133 2.805 7.733 6.962 7.733l112.2-.001z" fill="#9f6e50"/></g><g><path d="m311.799 65.5h-100.219l-10.422 1.314c-1.535 0-2.823 1.159-2.984 2.686l-6.672 84.81c-.186 1.771 1.202 3.314 2.984 3.314l124.927 1.651c1.781 0 3.17-1.543 2.983-3.314l.63-9.462-8.244-78.313c-.16-1.527-1.447-2.686-2.983-2.686z" fill="#b57f5f"/><path d="m324.15 157.19c.19 1.77-1.2 3.31-2.98 3.31h-130.34c-1.78 0-3.17-1.54-2.98-3.31l9.37-89c.16-1.53 1.45-2.69 2.98-2.69h11.38l-7.716 73.267c-.435 4.133 2.805 7.733 6.962 7.733l112.2-.001z" fill="#9f6e50"/></g><g><path d="m491.799 65.5h-100.219l-10.422 1.314c-1.535 0-2.823 1.159-2.984 2.686l-6.672 84.81c-.186 1.771 1.202 3.314 2.984 3.314l124.927 1.651c1.781 0 3.17-1.543 2.983-3.314l.63-9.462-8.244-78.313c-.16-1.527-1.447-2.686-2.983-2.686z" fill="#b57f5f"/><path d="m504.15 157.19c.19 1.77-1.2 3.31-2.98 3.31h-130.34c-1.78 0-3.17-1.54-2.98-3.31l9.37-89c.16-1.53 1.45-2.69 2.98-2.69h11.38l-7.716 73.267c-.435 4.133 2.805 7.733 6.961 7.733l112.2-.001z" fill="#9f6e50"/></g><g fill="#f8f7f7"><g><path d="m231 95.5c-6.904 0-12.5 5.596-12.5 12.5v20.5c0 1.105.895 2 2 2h21c1.105 0 2-.895 2-2v-20.5c0-6.903-5.596-12.5-12.5-12.5z"/><path d="m281 95.5c-6.904 0-12.5 5.596-12.5 12.5v20.5c0 1.105.895 2 2 2h21c1.105 0 2-.895 2-2v-20.5c0-6.903-5.596-12.5-12.5-12.5z"/></g><g><path d="m411 95.5c-6.904 0-12.5 5.596-12.5 12.5v20.5c0 1.105.895 2 2 2h21c1.105 0 2-.895 2-2v-20.5c0-6.903-5.596-12.5-12.5-12.5z"/><path d="m461 95.5c-6.904 0-12.5 5.596-12.5 12.5v20.5c0 1.105.895 2 2 2h21c1.105 0 2-.895 2-2v-20.5c0-6.903-5.596-12.5-12.5-12.5z"/></g><g><path d="m51 95.5c-6.904 0-12.5 5.596-12.5 12.5v20.5c0 1.105.895 2 2 2h21c1.105 0 2-.895 2-2v-20.5c0-6.903-5.596-12.5-12.5-12.5z"/><path d="m101 95.5c-6.904 0-12.5 5.596-12.5 12.5v20.5c0 1.105.895 2 2 2h21c1.105 0 2-.895 2-2v-20.5c0-6.903-5.596-12.5-12.5-12.5z"/></g></g><path d="m325.422 381.404-138.972-.018c-1.105 0-2-.895-2-2l-.092-22.716c0-1.105.895-2 2-2l10.142-2.17h130c1.105 0 2 .895 2 2v15l-1.078 9.904c0 1.104-.895 2-2 2z" fill="#b57f5f"/><path d="m328.5 369.5v11c0 1.1-.9 2-2 2h-141c-1.1 0-2-.9-2-2v-26c0-1.1.9-2 2-2h11v11c0 3.314 2.686 6 6 6z" fill="#9f6e50"/></g><g><path d="m218.5 138h25c4.142 0 7.5-3.358 7.5-7.5v-22.5c0-11.028-8.972-20-20-20s-20 8.972-20 20v22.5c0 4.142 3.358 7.5 7.5 7.5zm7.5-30c0-2.757 2.243-5 5-5s5 2.243 5 5v15h-10z"/><path d="m268.5 138h25c4.142 0 7.5-3.358 7.5-7.5v-22.5c0-11.028-8.972-20-20-20s-20 8.972-20 20v22.5c0 4.142 3.358 7.5 7.5 7.5zm7.5-30c0-2.757 2.243-5 5-5s5 2.243 5 5v15h-10z"/><path d="m391 108v22.5c0 4.142 3.358 7.5 7.5 7.5h25c4.142 0 7.5-3.358 7.5-7.5v-22.5c0-11.028-8.972-20-20-20s-20 8.972-20 20zm25 0v15h-10v-15c0-2.757 2.243-5 5-5s5 2.243 5 5z"/><path d="m473.5 138c4.142 0 7.5-3.358 7.5-7.5v-22.5c0-11.028-8.972-20-20-20s-20 8.972-20 20v22.5c0 4.142 3.358 7.5 7.5 7.5zm-17.5-30c0-2.757 2.243-5 5-5s5 2.243 5 5v15h-10z"/><path d="m38.5 138h25c4.142 0 7.5-3.358 7.5-7.5v-22.5c0-11.028-8.972-20-20-20s-20 8.972-20 20v22.5c0 4.142 3.358 7.5 7.5 7.5zm7.5-30c0-2.757 2.243-5 5-5s5 2.243 5 5v15h-10z"/><path d="m88.5 138h25c4.142 0 7.5-3.358 7.5-7.5v-22.5c0-11.028-8.972-20-20-20s-20 8.972-20 20v22.5c0 4.142 3.358 7.5 7.5 7.5zm7.5-30c0-2.757 2.243-5 5-5s5 2.243 5 5v15h-10z"/><path d="m89.5 183h-27c-4.142 0-7.5 3.358-7.5 7.5v26.5h-.5c-4.142 0-7.5 3.358-7.5 7.5s3.358 7.5 7.5 7.5h43c4.142 0 7.5-3.358 7.5-7.5s-3.358-7.5-7.5-7.5h-.5v-26.5c0-4.142-3.358-7.5-7.5-7.5zm-19.5 34v-19h12v19z"/><path d="m234.5 232h43c4.142 0 7.5-3.358 7.5-7.5s-3.358-7.5-7.5-7.5h-.5v-26.5c0-4.142-3.358-7.5-7.5-7.5h-27c-4.142 0-7.5 3.358-7.5 7.5v26.5h-.5c-4.142 0-7.5 3.358-7.5 7.5s3.358 7.5 7.5 7.5zm15.5-34h12v19h-12z"/><path d="m457.5 217h-.5v-26.5c0-4.142-3.358-7.5-7.5-7.5h-27c-4.142 0-7.5 3.358-7.5 7.5v26.5h-.5c-4.142 0-7.5 3.358-7.5 7.5s3.358 7.5 7.5 7.5h43c4.142 0 7.5-3.358 7.5-7.5s-3.358-7.5-7.5-7.5zm-27.5 0v-19h12v19z"/><path d="m54.5 296h43c4.142 0 7.5-3.358 7.5-7.5s-3.358-7.5-7.5-7.5h-.5v-26.5c0-4.142-3.358-7.5-7.5-7.5h-27c-4.142 0-7.5 3.358-7.5 7.5v26.5h-.5c-4.142 0-7.5 3.358-7.5 7.5s3.358 7.5 7.5 7.5zm15.5-34h12v19h-12z"/><path d="m234.5 296h43c4.142 0 7.5-3.358 7.5-7.5s-3.358-7.5-7.5-7.5h-.5v-26.5c0-4.142-3.358-7.5-7.5-7.5h-27c-4.142 0-7.5 3.358-7.5 7.5v26.5h-.5c-4.142 0-7.5 3.358-7.5 7.5s3.358 7.5 7.5 7.5zm15.5-34h12v19h-12z"/><path d="m457.5 281h-.5v-26.5c0-4.142-3.358-7.5-7.5-7.5h-27c-4.142 0-7.5 3.358-7.5 7.5v26.5h-.5c-4.142 0-7.5 3.358-7.5 7.5s3.358 7.5 7.5 7.5h43c4.142 0 7.5-3.358 7.5-7.5s-3.358-7.5-7.5-7.5zm-27.5 0v-19h12v19z"/><path d="m54.5 360h43c4.142 0 7.5-3.358 7.5-7.5s-3.358-7.5-7.5-7.5h-.5v-26.5c0-4.142-3.358-7.5-7.5-7.5h-27c-4.142 0-7.5 3.358-7.5 7.5v26.5h-.5c-4.142 0-7.5 3.358-7.5 7.5s3.358 7.5 7.5 7.5zm15.5-34h12v19h-12z"/><path d="m457.5 345h-.5v-26.5c0-4.142-3.358-7.5-7.5-7.5h-27c-4.142 0-7.5 3.358-7.5 7.5v26.5h-.5c-4.142 0-7.5 3.358-7.5 7.5s3.358 7.5 7.5 7.5h43c4.142 0 7.5-3.358 7.5-7.5s-3.358-7.5-7.5-7.5zm-27.5 0v-19h12v19z"/><path d="m54.5 424h43c4.142 0 7.5-3.358 7.5-7.5s-3.358-7.5-7.5-7.5h-.5v-26.5c0-4.142-3.358-7.5-7.5-7.5h-27c-4.142 0-7.5 3.358-7.5 7.5v26.5h-.5c-4.142 0-7.5 3.358-7.5 7.5s3.358 7.5 7.5 7.5zm15.5-34h12v19h-12z"/><path d="m449.5 375h-27c-4.142 0-7.5 3.358-7.5 7.5v26.5h-.5c-4.142 0-7.5 3.358-7.5 7.5s3.358 7.5 7.5 7.5h43c4.142 0 7.5-3.358 7.5-7.5s-3.358-7.5-7.5-7.5h-.5v-26.5c0-4.142-3.358-7.5-7.5-7.5zm-19.5 34v-19h12v19z"/><path d="m157.5 198h17c4.142 0 7.5-3.358 7.5-7.5s-3.358-7.5-7.5-7.5h-17c-4.142 0-7.5 3.358-7.5 7.5s3.358 7.5 7.5 7.5z"/><path d="m354.5 183h-17c-4.142 0-7.5 3.358-7.5 7.5s3.358 7.5 7.5 7.5h17c4.142 0 7.5-3.358 7.5-7.5s-3.358-7.5-7.5-7.5z"/><path d="m157.5 262h17c4.142 0 7.5-3.358 7.5-7.5s-3.358-7.5-7.5-7.5h-17c-4.142 0-7.5 3.358-7.5 7.5s3.358 7.5 7.5 7.5z"/><path d="m337.5 262h17c4.142 0 7.5-3.358 7.5-7.5s-3.358-7.5-7.5-7.5h-17c-4.142 0-7.5 3.358-7.5 7.5s3.358 7.5 7.5 7.5z"/><path d="m174.5 311h-17c-4.142 0-7.5 3.358-7.5 7.5s3.358 7.5 7.5 7.5h17c4.142 0 7.5-3.358 7.5-7.5s-3.358-7.5-7.5-7.5z"/><path d="m337.5 326h17c4.142 0 7.5-3.358 7.5-7.5s-3.358-7.5-7.5-7.5h-17c-4.142 0-7.5 3.358-7.5 7.5s3.358 7.5 7.5 7.5z"/><path d="m504.5 439h-9.5v-68.5c0-4.142-3.358-7.5-7.5-7.5s-7.5 3.358-7.5 7.5v68.5h-88v-271h88v167.5c0 4.142 3.358 7.5 7.5 7.5s7.5-3.358 7.5-7.5v-167.5h9.5c2.126 0 4.152-.902 5.574-2.482s2.107-3.689 1.885-5.803l-10-95c-.402-3.817-3.621-6.715-7.459-6.715h-47c-4.142 0-7.5 3.358-7.5 7.5s3.358 7.5 7.5 7.5h40.248l8.421 80h-120.338l8.421-80h28.248c4.142 0 7.5-3.358 7.5-7.5s-3.358-7.5-7.5-7.5h-35c-3.838 0-7.057 2.898-7.459 6.715l-1.925 18.285h-44.233l-1.925-18.285c-.401-3.817-3.62-6.715-7.458-6.715h-117c-3.838 0-7.057 2.898-7.459 6.715l-1.925 18.285h-44.233l-1.925-18.285c-.401-3.817-3.62-6.715-7.458-6.715h-117c-3.838 0-7.057 2.898-7.459 6.715l-10 95c-.222 2.114.463 4.223 1.885 5.803s3.448 2.482 5.574 2.482h9.5v62.213c0 4.142 3.358 7.5 7.5 7.5s7.5-3.358 7.5-7.5v-62.213h88v271h-88v-173.787c0-4.142-3.358-7.5-7.5-7.5s-7.5 3.358-7.5 7.5v173.787h-9.5c-4.142 0-7.5 3.358-7.5 7.5s3.358 7.5 7.5 7.5h497c4.142 0 7.5-3.358 7.5-7.5s-3.358-7.5-7.5-7.5zm-234.5 0h-28v-19h28zm7.5-34h-43c-4.142 0-7.5 3.358-7.5 7.5v26.5h-15v-49h18c4.142 0 7.5-3.358 7.5-7.5s-3.358-7.5-7.5-7.5h-39v-15h130v15h-56c-4.142 0-7.5 3.358-7.5 7.5s3.358 7.5 7.5 7.5h35v49h-15v-26.5c0-4.142-3.358-7.5-7.5-7.5zm22.5-237v177h-23v-26.5c0-4.142-3.358-7.5-7.5-7.5h-27c-4.142 0-7.5 3.358-7.5 7.5v26.5h-23v-177zm15 222h13.5c4.142 0 7.5-3.358 7.5-7.5v-22.5h41v49h-62zm0-94h62v49c-9.806 0-53.77 0-62 0zm62-15h-62v-49h62zm-127 64v-19h12v19zm-115 0v-49h62v49c-9.279 0-52.202 0-62 0zm62-64h-62v-49h62zm-62 79h41v22.5c0 4.142 3.358 7.5 7.5 7.5h13.5v19h-62zm180 64h62v15h-62zm62-256v49h-62v-49h9.5c2.126 0 4.152-.902 5.574-2.482s2.107-3.689 1.885-5.803l-3.338-31.715h34.759l-3.338 31.715c-.222 2.114.463 4.223 1.885 5.803s3.448 2.482 5.574 2.482zm-10.463-70-1.579 15h-37.917l-1.579-15zm-58.789-25 8.421 80h-120.338l8.421-80zm-121.211 25-1.579 15h-37.917l-1.579-15zm-162.285-25h103.496l8.421 80h-120.338zm120.248 95c2.126 0 4.152-.902 5.574-2.482s2.107-3.689 1.885-5.803l-3.338-31.715h34.759l-3.338 31.715c-.222 2.114.463 4.223 1.885 5.803s3.448 2.482 5.574 2.482h9.5v49h-62v-49zm-9.5 256h62v15h-62z"/></g></g></svg>