<svg id="Capa_1" enable-background="new 0 0 511.995 511.995" height="512" viewBox="0 0 511.995 511.995" width="512" xmlns="http://www.w3.org/2000/svg"><g><g><path d="m486.839 191.698-114.271-184.096c-8.364-.663-17.031 2.133-23.606 8.707l-91.259 91.258c-6.575 6.575-9.371 15.242-8.708 23.607l184.097 114.272c34.861 20.126 73.874-18.887 53.747-53.748z" fill="#607882"/><path d="m493.006 190.141-96.768-167.607c-5.231-9.06-14.259-14.186-23.67-14.932l50.585 87.616-86.542 86.541-87.616-50.585c.746 9.411 5.871 18.439 14.932 23.67l167.608 96.769c39.871 23.019 84.491-21.601 61.471-61.472zm-56.785 49.127-73.482-42.425 75.499-75.498 42.424 73.481c16.643 28.827-15.615 61.085-44.441 44.442z" fill="#495959"/><path d="m104.064 463.764c31.639-31.639 117.083-157.755 117.083-157.755l218.945-218.944c3.923-3.924 4.175-14.176-1.127-19.479-5.001-1.331-10.557-.051-14.48 3.871l-218.945 218.945s-126.116 85.443-157.755 117.083c-34.513 34.513-37.203 69.938-34.23 85.509 13.338 13.339 55.996 5.284 90.509-29.23z" fill="#eef9fa"/><path d="m445.698 71.458c-1.932-1.934-4.266-3.215-6.733-3.872 1.332 5.002.05 10.555-3.873 14.479l-218.945 218.944s-85.444 126.115-117.083 157.755c-34.513 34.513-69.938 37.204-85.509 34.23.754 3.949 1.872 6.622 2.928 7.678 5.219 5.219 49.921 11.965 93.188-31.302 31.639-31.639 117.083-157.755 117.083-157.755l218.944-218.943c5.858-5.858 5.858-15.355 0-21.214z" fill="#dcf2f6"/></g><g><path d="m34.582 511.995c-10.632 0-19.518-2.135-23.402-6.019-5.68-5.679-7.619-22.058-4.612-38.944 2.86-16.061 11.413-40.349 35.914-64.85 2.929-2.929 7.678-2.929 10.606 0 2.929 2.929 2.929 7.678 0 10.606-20.929 20.929-28.601 41.339-31.352 54.776-2.942 14.374-1.082 24.663.164 27.69 3.028 1.247 13.319 3.107 27.69.164 13.437-2.751 33.848-10.423 54.777-31.352 30.774-30.774 115.327-155.403 116.177-156.658.267-.394.57-.761.906-1.097l44.111-44.111c2.929-2.929 7.678-2.929 10.606 0 2.929 2.929 2.929 7.678 0 10.606l-43.607 43.607c-7.151 10.538-86.591 127.264-117.587 158.259-24.501 24.501-48.79 33.054-64.851 35.914-5.336.953-10.625 1.409-15.54 1.409zm-12.389-16.142h.01zm49.086-101.18c-2.202 0-4.382-.965-5.864-2.818-2.586-3.236-2.059-7.955 1.176-10.542 45.296-36.202 126.388-91.443 134.148-96.717l99.898-99.898-40.461-23.36c-10.192-5.884-16.919-15.952-18.455-27.62s2.355-23.133 10.678-31.455l30.621-30.62c2.929-2.929 7.678-2.93 10.606 0 2.929 2.929 2.929 7.678 0 10.606l-30.621 30.62c-4.998 4.998-7.335 11.883-6.413 18.891.923 7.007 4.962 13.053 11.083 16.587l43.941 25.37 103.496-103.493-25.369-43.94c-3.534-6.121-9.58-10.161-16.588-11.083-7.008-.926-13.893 1.415-18.89 6.412l-38.638 38.637c-2.929 2.929-7.678 2.93-10.606 0-2.929-2.929-2.929-7.678 0-10.606l38.638-38.638c8.322-8.321 19.786-12.212 31.455-10.677 11.668 1.536 21.735 8.263 27.62 18.455l24.382 42.23c2.515-.951 5.207-1.448 7.977-1.448h.004c6.012.001 11.661 2.342 15.907 6.591 8.771 8.77 8.772 23.044 0 31.817l-1.615 1.615 50.114 86.801c12.236 21.193 8.961 46.069-8.343 63.373-17.305 17.304-42.181 20.579-63.373 8.343l-86.801-50.114-42.815 42.815c-2.929 2.929-7.678 2.929-10.606 0-2.929-2.929-2.929-7.678 0-10.606l152.83-152.832c2.924-2.924 2.924-7.683 0-10.606-1.416-1.417-3.297-2.195-5.302-2.196 0 0 0 0-.001 0-2.005 0-3.889.779-5.304 2.195l-218.944 218.944c-.336.336-.703.64-1.097.906-.863.585-86.888 58.934-133.791 96.42-1.382 1.104-3.036 1.64-4.677 1.641zm280.686-197.661 83.32 48.105c18.393 10.619 35.881 3.426 45.267-5.959s16.579-26.873 5.959-45.266l-48.105-83.32zm147.334 194.283c-4.142 0-7.5-3.358-7.5-7.5v-59.979c0-4.142 3.358-7.5 7.5-7.5s7.5 3.358 7.5 7.5v59.979c0 4.143-3.358 7.5-7.5 7.5zm-62.277-12.385c-.957 0-1.928-.184-2.867-.573-3.827-1.585-5.644-5.973-4.059-9.799l22.945-55.395c1.585-3.827 5.971-5.645 9.799-4.059 3.827 1.585 5.644 5.973 4.059 9.799l-22.945 55.395c-1.196 2.889-3.989 4.632-6.932 4.632zm-52.789-35.277c-1.919 0-3.839-.732-5.303-2.197-2.929-2.929-2.929-7.678 0-10.606l42.412-42.412c2.929-2.929 7.678-2.929 10.606 0 2.929 2.929 2.929 7.678 0 10.606l-42.412 42.412c-1.464 1.465-3.384 2.197-5.303 2.197z"/></g></g></svg>