<svg id="Capa_1" enable-background="new 0 0 512 512" height="512" viewBox="0 0 512 512" width="512" xmlns="http://www.w3.org/2000/svg"><g><g><g><path d="m396.5 123.5h-26.256l-114.244-15-114.244 15h-26.256c-11.046 0-20-8.954-20-20v-76c0-11.046 8.954-20 20-20h26.256l114.244 15 114.244-15h26.256c11.046 0 20 8.954 20 20v76c0 11.046-8.954 20-20 20z" fill="#8795de"/><path d="m396.5 7.5h-30c11.046 0 20 8.954 20 20v76c0 11.046-8.954 20-20 20h30c11.046 0 20-8.954 20-20v-76c0-11.046-8.954-20-20-20z" fill="#6c7fd8"/><path d="m141.756 7.5h228.488v116h-228.488z" fill="#d5daf3"/></g><path d="m191.064 123.5v27.688c0 4.545 2.568 8.7 6.633 10.733l16.733 8.367c4.065 2.033 6.633 6.188 6.633 10.733v37.584h69.872v-37.584c0-4.545 2.568-8.7 6.633-10.733l16.733-8.367c4.065-2.033 6.633-6.188 6.633-10.733v-27.688z" fill="#f6a7d2"/><path d="m290.936 123.5v27.688c0 4.545-2.568 8.7-6.633 10.733l-16.733 8.367c-4.065 2.033-6.633 6.188-6.633 10.733v37.584h30v-37.584c0-4.545 2.568-8.7 6.633-10.733l16.733-8.367c4.065-2.033 6.633-6.188 6.633-10.733v-27.688z" fill="#f28cc4"/><path d="m256 504.5c-19.295 0-34.936-15.641-34.936-34.936v-250.96h69.872v250.96c0 19.295-15.641 34.936-34.936 34.936z" fill="#8795de"/><path d="m260.936 218.604v250.96c0 13.925-8.148 25.944-19.936 31.557 4.545 2.164 9.63 3.379 15 3.379 19.294 0 34.936-15.641 34.936-34.936v-250.96z" fill="#6c7fd8"/><path d="m221.064 330.139h69.872v62.827h-69.872z" fill="#f6a7d2"/><path d="m260.936 330.139h30v62.827h-30z" fill="#f28cc4"/></g><path d="m396.5 0h-171.84c-4.142 0-7.5 3.358-7.5 7.5s3.358 7.5 7.5 7.5h138.084v13h-213.488v-13h40.404c4.142 0 7.5-3.358 7.5-7.5s-3.358-7.5-7.5-7.5h-74.16c-15.164 0-27.5 12.336-27.5 27.5v76c0 15.164 12.336 27.5 27.5 27.5h68.064v20.188c0 7.434 4.13 14.117 10.779 17.442l16.733 8.366c1.535.768 2.488 2.31 2.488 4.025v288.543c0 23.399 19.037 42.436 42.436 42.436s42.436-19.037 42.436-42.436v-179.837c0-4.142-3.358-7.5-7.5-7.5s-7.5 3.358-7.5 7.5v32.912h-54.871v-96.534h54.871v28.622c0 4.142 3.358 7.5 7.5 7.5s7.5-3.358 7.5-7.5v-73.706c0-1.715.953-3.258 2.488-4.025l16.733-8.367c6.649-3.324 10.779-10.007 10.779-17.441v-20.188h68.064c15.164 0 27.5-12.336 27.5-27.5v-76c0-15.164-12.336-27.5-27.5-27.5zm-262.244 116h-18.756c-6.893 0-12.5-5.607-12.5-12.5v-76c0-6.893 5.607-12.5 12.5-12.5h18.756zm149.18 353.564c0 15.128-12.308 27.436-27.436 27.436s-27.436-12.308-27.436-27.436v-69.099h54.871v69.099zm0-131.925v47.827h-54.871v-47.827zm30-186.451c0 1.716-.953 3.258-2.487 4.025l-16.733 8.366c-6.649 3.324-10.78 10.008-10.78 17.441v30.083h-54.871v-30.083c0-7.434-4.13-14.117-10.78-17.441l-16.733-8.366c-1.534-.768-2.487-2.31-2.487-4.025v-20.188h114.871zm49.308-35.188h-213.488v-13h213.488zm0-28h-213.488v-15h213.488zm0-30h-213.488v-15h213.488zm46.256 45.5c0 6.893-5.607 12.5-12.5 12.5h-18.756v-101h18.756c6.893 0 12.5 5.607 12.5 12.5z"/></g></svg>