<svg id="Capa_1" enable-background="new 0 0 512 512" height="512" viewBox="0 0 512 512" width="512" xmlns="http://www.w3.org/2000/svg"><g><g><path d="m89.74 43.394h332.52v405.46h-332.52z" fill="#d19a6e"/><g><path d="m284.27 446.194c0 .89-.12 1.79-.36 2.66h-96.31c-.23-.87-.35-1.76-.35-2.65 0-4.08 2.44-8.1 6.89-9.57 4.18-1.38 6.89-5.28 6.89-9.52 0-.68-.07-1.36-.21-2.05-.15-.71-.22-1.41-.22-2.09 0-6.84 7.01-11.96 13.77-9.28 1.21.49 2.47.72 3.71.72 3.6 0 7.04-1.94 8.84-5.28 1.9-3.52 5.37-5.28 8.84-5.28s6.94 1.76 8.84 5.28c2.42 4.49 7.81 6.45 12.55 4.56 1.25-.5 2.51-.73 3.73-.73 6.04 0 11.17 5.59 9.82 12.1-.14.69-.21 1.37-.21 2.05 0 4.25 2.71 8.14 6.88 9.52 4.45 1.47 6.9 5.49 6.9 9.56z" fill="#c38c66"/></g><path d="m404.039 43.395h18.221v405.457h-18.221z" fill="#c38c66"/><path d="m120.831 74.486h270.338v343.275h-270.338z" fill="#cdbfba"/><path d="m370.927 74.486h20.241v343.275h-20.241z" fill="#b9acac"/><g><path d="m316.747 417.761h-121.493v-124.754l44.525-9.416h33.111l43.857 9.416z" fill="#6bd9e7"/><path d="m272.89 283.591h-20.241l43.856 9.416v124.754h20.242v-124.754z" fill="#2ed1e2"/><path d="m209.793 186.611v45.036c0 13.052 10.581 23.633 23.633 23.633h45.818c13.052 0 23.633-10.581 23.633-23.633v-45.036z" fill="#fed2a4"/><path d="m282.636 186.611v45.036c0 13.052-10.581 23.633-23.633 23.633h20.241c13.052 0 23.633-10.581 23.633-23.633v-45.036z" fill="#ffbd86"/><path d="m239.779 255.28h33.111v28.311c-9.952 6.922-23.159 6.922-33.111 0z" fill="#ffbd86"/><path d="m195.254 293.007c-18.393 6.709-30.631 24.199-30.631 43.777v22.105h30.631z" fill="#6bd9e7"/><path d="m164.623 358.888h30.631v58.873h-30.631z" fill="#fed2a4"/><path d="m316.747 293.007c18.393 6.709 30.631 24.199 30.631 43.777v22.105h-30.631z" fill="#2ed1e2"/><path d="m316.747 358.888h30.631v58.873h-30.631z" fill="#ffbd86"/></g><path d="m302.877 186.611h-93.084v-3.697c0-17.239 13.975-31.214 31.214-31.214h30.656c17.239 0 31.214 13.975 31.214 31.214z" fill="#e9edf1"/><path d="m271.663 151.699h-20.241c17.239 0 31.214 13.975 31.214 31.214v3.697h20.241v-3.697c0-17.239-13.975-31.214-31.214-31.214z" fill="#c8d2dc"/><path d="m120.828 25.02v49.471h-49.471c-7.02 0-12.711-5.691-12.711-12.711v-36.76c0-7.02 5.691-12.711 12.711-12.711h36.76c7.02 0 12.711 5.691 12.711 12.711z" fill="#d19a6e"/><path d="m108.117 12.309h-18.22c7.02 0 12.711 5.691 12.711 12.711v49.471h18.221v-49.471c-.001-7.02-5.692-12.711-12.712-12.711z" fill="#c38c66"/><path d="m71.357 417.761h49.471v49.471c0 7.02-5.691 12.711-12.711 12.711h-36.76c-7.02 0-12.711-5.691-12.711-12.711v-36.76c.001-7.02 5.691-12.711 12.711-12.711z" fill="#d19a6e"/><path d="m102.607 417.761v49.471c0 7.02-5.691 12.711-12.711 12.711h18.221c7.02 0 12.711-5.691 12.711-12.711v-49.471z" fill="#c38c66"/><path d="m453.353 25.02v36.76c0 7.02-5.691 12.711-12.711 12.711h-49.471v-49.471c0-7.02 5.691-12.711 12.711-12.711h36.76c7.021 0 12.711 5.691 12.711 12.711z" fill="#d19a6e"/><path d="m440.643 12.309h-18.221c7.02 0 12.711 5.691 12.711 12.711v36.76c0 7.02-5.691 12.711-12.711 12.711h18.221c7.02 0 12.711-5.691 12.711-12.711v-36.76c-.001-7.02-5.691-12.711-12.711-12.711z" fill="#c38c66"/><path d="m391.172 417.761h49.471c7.02 0 12.711 5.691 12.711 12.711v36.76c0 7.02-5.691 12.711-12.711 12.711h-36.76c-7.02 0-12.711-5.691-12.711-12.711z" fill="#d19a6e"/><path d="m440.643 417.761h-18.221c7.02 0 12.711 5.691 12.711 12.711v36.76c0 7.02-5.691 12.711-12.711 12.711h18.221c7.02 0 12.711-5.691 12.711-12.711v-36.76c-.001-7.02-5.691-12.711-12.711-12.711z" fill="#c38c66"/><g><path d="m492.321 448.852h-38.968v-164.641c0-6.726 5.453-12.179 12.179-12.179h26.788c6.726 0 12.179 5.453 12.179 12.179v152.462c.001 6.726-5.452 12.179-12.178 12.179z" fill="#e9edf1"/><path d="m492.321 272.032h-20.241c6.726 0 12.179 5.453 12.179 12.179v152.462c0 6.726-5.453 12.179-12.179 12.179h20.241c6.726 0 12.179-5.453 12.179-12.179v-152.462c0-6.727-5.453-12.179-12.179-12.179z" fill="#c8d2dc"/><path d="m484.827 243.265h-11.8c-10.865 0-19.673-8.808-19.673-19.673 0-3.694 1.04-7.313 3-10.443l22.573-36.04 22.573 36.04c1.961 3.13 3 6.749 3 10.443 0 10.865-8.808 19.673-19.673 19.673z" fill="#ffe270"/><path d="m501.5 213.148-22.573-36.04-10.121 16.159 12.452 19.881c1.961 3.13 3 6.749 3 10.443 0 9.415-6.618 17.275-15.453 19.208 1.361.298 2.771.466 4.221.466h11.8c10.865 0 19.673-8.808 19.673-19.673.001-3.694-1.039-7.313-2.999-10.444z" fill="#ffd15b"/></g><g><path d="m19.679 448.852h38.968v-164.641c0-6.726-5.453-12.179-12.179-12.179h-26.789c-6.726 0-12.179 5.453-12.179 12.179v152.462c0 6.726 5.453 12.179 12.179 12.179z" fill="#e9edf1"/><path d="m46.468 272.032h-20.242c6.726 0 12.179 5.453 12.179 12.179v164.641h20.241v-164.641c.001-6.727-5.452-12.179-12.178-12.179z" fill="#c8d2dc"/><path d="m27.173 243.265h11.8c10.865 0 19.673-8.808 19.673-19.673 0-3.694-1.04-7.313-3-10.443l-22.573-36.04-22.573 36.039c-1.961 3.13-3 6.749-3 10.443 0 10.866 8.808 19.674 19.673 19.674z" fill="#ffe270"/><path d="m55.646 213.148-22.573-36.04-10.121 16.159 12.452 19.881c1.961 3.13 3 6.749 3 10.443 0 9.415-6.618 17.275-15.453 19.208 1.361.298 2.77.466 4.221.466h11.8c10.865 0 19.673-8.808 19.673-19.673.002-3.694-1.038-7.313-2.999-10.444z" fill="#ffd15b"/></g><g><path d="m264.84 409.13c2.417 4.489 7.815 6.454 12.553 4.569 7.429-2.957 15.166 3.535 13.544 11.365-1.034 4.993 1.838 9.968 6.679 11.569 7.592 2.51 9.345 12.456 3.07 17.412-4.001 3.16-4.999 8.817-2.32 13.155 4.202 6.803-.847 15.549-8.84 15.311-5.096-.151-9.497 3.541-10.233 8.586-1.154 7.912-10.644 11.366-16.614 6.047-3.807-3.392-9.551-3.392-13.358 0-5.97 5.319-15.46 1.865-16.614-6.047-.736-5.045-5.137-8.738-10.233-8.586-7.993.237-13.042-8.508-8.84-15.311 2.679-4.338 1.682-9.995-2.32-13.155-6.275-4.956-4.522-14.901 3.07-17.412 4.841-1.601 7.713-6.576 6.679-11.569-1.622-7.83 6.114-14.321 13.544-11.365 4.737 1.885 10.136-.079 12.553-4.569 3.791-7.041 13.889-7.041 17.68 0z" fill="#fe5694"/></g><g><path d="m242.438 497.144c-2.373-2.114-5.499-2.91-8.439-2.388 2.39 4.065 7.427 5.926 11.881 4.4-1.214-.416-2.384-1.07-3.442-2.012z" fill="#fe5694"/><path d="m297.616 436.632c-4.841-1.601-7.713-6.576-6.679-11.569 1.622-7.83-6.114-14.321-13.544-11.365-4.737 1.885-10.135-.079-12.553-4.569-3.791-7.041-13.89-7.041-17.68 0-.362.672-.797 1.28-1.281 1.834 2.745 3.149 7.244 4.337 11.272 2.734 7.429-2.957 15.166 3.535 13.544 11.365-1.034 4.993 1.838 9.968 6.679 11.569 7.592 2.51 9.345 12.456 3.07 17.412-4.001 3.16-4.999 8.817-2.32 13.155 4.202 6.803-.847 15.549-8.84 15.312-5.096-.151-9.497 3.541-10.233 8.586-.199 1.363-.659 2.583-1.292 3.659 1.777.315 3.485 1.111 4.919 2.388 5.97 5.319 15.46 1.865 16.614-6.047.736-5.045 5.137-8.738 10.233-8.586 7.993.237 13.042-8.508 8.84-15.312-2.679-4.338-1.682-9.995 2.32-13.155 6.276-4.955 4.523-14.901-3.069-17.411z" fill="#fd3581"/></g></g><g><path d="m256 230.219c4.143 0 7.5-3.358 7.5-7.5v-9.562c0-4.142-3.357-7.5-7.5-7.5-4.142 0-7.5 3.358-7.5 7.5v9.562c0 4.143 3.358 7.5 7.5 7.5z"/><path d="m492.321 264.531h-5.895v-13.818c14.242-.831 25.574-12.676 25.574-27.122 0-5.106-1.433-10.094-4.144-14.424l-22.573-36.04c-1.371-2.189-3.773-3.519-6.356-3.519s-4.985 1.33-6.356 3.519l-22.572 36.04c-2.712 4.328-4.145 9.316-4.145 14.424 0 14.446 11.332 26.291 25.573 27.122v13.818h-5.895c-10.851 0-19.679 8.828-19.679 19.679v101.796c0 4.142 3.357 7.5 7.5 7.5s7.5-3.358 7.5-7.5v-101.795c0-2.58 2.099-4.679 4.679-4.679h26.789c2.58 0 4.679 2.099 4.679 4.679v152.462c0 2.58-2.099 4.679-4.679 4.679h-31.468v-10.88c.091-10.388-9.09-20.228-20.211-20.21h-10.882v-328.271h10.883c11.145 0 20.211-9.066 20.211-20.211v-36.76c0-11.145-9.066-20.211-20.211-20.211h-36.76c-11.145 0-20.211 9.066-20.211 20.211v10.874h-255.344v-10.874c0-11.145-9.066-20.211-20.21-20.211h-36.76c-11.145 0-20.211 9.066-20.211 20.211v36.76c0 11.145 9.066 20.211 20.211 20.211h10.882v328.27h-10.883c-1.804 0-3.545.26-5.211.706v-126.756c0-10.851-8.828-19.679-19.679-19.679h-5.895v-13.818c14.241-.831 25.573-12.676 25.573-27.122 0-5.107-1.433-10.095-4.144-14.424l-22.573-36.04c-1.371-2.189-3.772-3.519-6.356-3.519s-4.985 1.33-6.356 3.519l-22.572 36.04c-2.711 4.327-4.144 9.315-4.144 14.423 0 14.446 11.332 26.291 25.573 27.122v13.818h-5.894c-10.851 0-19.679 8.829-19.679 19.68v152.462c0 10.851 8.828 19.679 19.679 19.679h31.467v10.88c0 11.144 9.066 20.21 20.211 20.21h36.76c11.144 0 20.21-9.066 20.21-20.21v-10.877h43.899c4.142 0 7.5-3.358 7.5-7.5s-3.358-7.5-7.5-7.5h-43.899v-16.09h85.173c.057.441.127.881.218 1.321.262 1.263-.465 2.521-1.689 2.927-6.136 2.028-10.644 7.242-11.767 13.606-1.123 6.365 1.331 12.807 6.403 16.812 1.013.8 1.265 2.23.587 3.328-3.396 5.499-3.498 12.391-.267 17.987 3.231 5.597 9.259 8.97 15.711 8.762 1.277-.029 2.402.896 2.589 2.172.933 6.395 5.284 11.741 11.357 13.951 1.959.713 3.99 1.061 6.006 1.061 4.232 0 8.393-1.535 11.662-4.447.965-.858 2.417-.858 3.379 0 4.826 4.299 11.594 5.595 17.668 3.386 6.072-2.21 10.424-7.556 11.356-13.95.188-1.277 1.299-2.197 2.59-2.173 6.472.189 12.479-3.166 15.711-8.763s3.129-12.489-.268-17.987c-.678-1.098-.426-2.528.587-3.328 1.318-1.041 2.455-2.249 3.403-3.575h74.935v10.877c0 11.144 9.066 20.21 20.211 20.21h36.76c11.145 0 20.211-9.066 20.211-20.21v-10.88h31.468c10.851 0 19.679-8.828 19.679-19.679v-152.462c0-10.851-8.828-19.68-19.679-19.68zm-31.467-40.94c0-2.289.642-4.523 1.856-6.462l16.217-25.892 16.217 25.891c1.215 1.94 1.856 4.175 1.856 6.463 0 6.712-5.461 12.173-12.174 12.173h-11.8c-6.712 0-12.172-5.461-12.172-12.173zm-445.854 0c0-2.289.642-4.522 1.857-6.462l16.216-25.892 16.217 25.892c1.214 1.939 1.856 4.173 1.856 6.462 0 6.712-5.461 12.173-12.173 12.173h-11.8c-6.712 0-12.173-5.461-12.173-12.173zm399.76 186.67h-16.09v-328.27h16.09zm-16.088-385.241c0-2.874 2.338-5.211 5.211-5.211h36.76c2.873 0 5.211 2.337 5.211 5.211v36.76c0 2.874-2.338 5.211-5.211 5.211h-41.971v-16.097h23.588c4.143 0 7.5-3.358 7.5-7.5s-3.357-7.5-7.5-7.5h-23.588zm-332.526 36.76v-36.76c0-2.874 2.337-5.211 5.211-5.211h36.76c2.873 0 5.21 2.337 5.21 5.211v10.874h-23.587c-4.142 0-7.5 3.358-7.5 7.5s3.358 7.5 7.5 7.5h23.588v16.097h-41.971c-2.873 0-5.211-2.337-5.211-5.211zm31.094 20.211h16.09v328.27h-16.09zm-77.561 359.361c-2.58 0-4.679-2.099-4.679-4.679v-152.462c0-2.58 2.099-4.679 4.679-4.679h26.789c2.58 0 4.679 2.099 4.679 4.679v157.141zm70.061 15.002h23.588v10.877c0 2.873-2.337 5.21-5.21 5.21h-36.76c-2.874 0-5.211-2.337-5.211-5.21v-36.76c0-2.873 2.337-5.21 5.211-5.21h41.971v16.093h-23.589c-4.142 0-7.5 3.358-7.5 7.5s3.358 7.5 7.5 7.5zm71.743-389.37h-33.155v-16.09h255.344v16.09h-187.06c-4.142 0-7.5 3.358-7.5 7.5s3.358 7.5 7.5 7.5h187.058v328.28h-28.792v-73.48c.097-22.245-14.807-44.008-36.558-51.11l-37.93-8.143v-14.779c16.637-.607 29.986-14.322 29.986-31.104v-45.036c1.841-22.169-15.93-42.496-38.714-42.412h-30.656c-22.507-.178-40.412 19.841-38.714 42.412v45.036c0 16.783 13.35 30.498 29.987 31.104v14.76l-38.578 8.157c-21.182 6.933-36.723 28.274-36.579 51.115v73.48h-28.792v-328.28h33.153c4.142 0 7.5-3.358 7.5-7.5s-3.358-7.5-7.5-7.5zm131.646 343.28c-3.987-3.83-11.575-6.143-18.51-3.534-1.198.478-2.563-.019-3.176-1.155-3.062-5.69-8.98-9.225-15.443-9.225-6.462 0-12.38 3.535-15.443 9.224-.612 1.136-1.98 1.633-3.176 1.156-4.896-1.995-13.339-1.469-18.509 3.534h-16.118v-111.177l35.646-7.537c5.544 3.123 11.735 4.701 17.935 4.701 6.193 0 12.382-1.577 17.922-4.695l34.989 7.511v111.197zm-121.006-43.876h15.631v43.873h-15.631zm15.63-15h-15.631v-14.604c0-12.459 5.988-23.99 15.631-31.257zm29.539-157.277h78.084v37.536c0 8.896-7.237 16.133-16.134 16.133h-45.817c-8.896 0-16.133-7.237-16.133-16.133zm.305-15c1.824-11.275 11.627-19.912 23.41-19.912h30.656c11.782 0 21.585 8.636 23.409 19.912zm29.682 100.168v-16.498h18.111v16.498c-5.723 2.648-12.387 2.648-18.111 0zm76.967 26.247c9.644 7.268 15.632 18.798 15.632 31.258v14.604h-15.632zm0 60.862h15.632v43.873h-15.632zm-28.209 81.77c-6.992 5.521-8.734 15.402-4.052 22.982.693 1.123.322 2.114.039 2.604-.284.491-.986 1.306-2.275 1.269-8.916-.282-16.591 6.184-17.878 15-.19 1.306-1.111 1.826-1.645 2.02-.531.194-1.572.388-2.559-.49-3.326-2.964-7.496-4.445-11.668-4.445-4.171 0-8.343 1.482-11.668 4.445-.986.879-2.026.684-2.559.49s-1.454-.714-1.645-2.02c-1.286-8.816-8.98-15.272-17.877-15-1.332.044-1.992-.779-2.275-1.269-.283-.491-.655-1.482.039-2.605 4.682-7.581 2.939-17.461-4.053-22.982-1.036-.818-1.026-1.877-.927-2.435s.451-1.556 1.704-1.97c8.459-2.798 13.476-11.486 11.668-20.21-.268-1.293.42-2.097.854-2.461.435-.364 1.348-.901 2.571-.415 8.279 3.295 17.706-.136 21.93-7.981.626-1.162 1.67-1.335 2.236-1.335.566 0 1.61.173 2.236 1.335 4.224 7.845 13.647 11.278 21.93 7.982 1.225-.491 2.138.049 2.572.414.434.364 1.122 1.168.854 2.46-1.808 8.725 3.209 17.414 11.669 20.211 1.253.415 1.604 1.412 1.703 1.97.102.559.112 1.617-.924 2.436zm15.284-6.804c-1.58-5.552-5.794-10.006-11.35-11.843-1.226-.405-1.952-1.664-1.69-2.927.091-.44.161-.88.218-1.321h85.174v16.09h-72.352zm134.533 25.878c0 2.873-2.338 5.21-5.211 5.21h-36.76c-2.873 0-5.211-2.337-5.211-5.21v-10.877h23.588c4.143 0 7.5-3.358 7.5-7.5s-3.357-7.5-7.5-7.5h-23.588v-16.093h41.971c2.873 0 5.211 2.337 5.211 5.21z"/><circle cx="256" cy="451.775" r="7.5"/></g></g></svg>