<svg id="Capa_1" enable-background="new 0 0 512 512" height="512" viewBox="0 0 512 512" width="512" xmlns="http://www.w3.org/2000/svg"><g><g><path d="m433.016 67.5v319.029l-8.481 30.945 8.481 27.026h-354.032l8.197-37.12-8.197-37.371v-302.509z" fill="#8795de"/><path d="m403.016 67.5v377h30l-8.481-27.026 8.481-30.945v-319.029z" fill="#6c7fd8"/><path d="m439.051 7.5h-366.102c-4.554 0-7.896 4.28-6.791 8.698l12.826 51.302h354.032l12.826-51.302c1.104-4.418-2.237-8.698-6.791-8.698z" fill="#a2aee6"/><path d="m439.051 7.5h-30c4.554 0 7.896 4.28 6.791 8.698l-12.826 51.302h30l12.825-51.302c1.105-4.418-2.236-8.698-6.79-8.698z" fill="#8795de"/><path d="m433.016 444.5h-354.032l-12.826 51.302c-1.105 4.418 2.237 8.698 6.791 8.698h366.101c4.554 0 7.896-4.28 6.791-8.698z" fill="#a2aee6"/><path d="m445.842 495.802-12.826-51.302h-30l12.825 51.302c1.104 4.418-2.237 8.698-6.791 8.698h30c4.555 0 7.896-4.28 6.792-8.698z" fill="#8795de"/><path d="m78.984 370.009c26.951-7.384 66.447-14.031 110.918-4.545 53.249 11.358 71.883 36.942 119.371 44.932 28.092 4.726 69.272 3.799 123.744-23.867v57.971h-354.033z" fill="#f6a7d2"/><path d="m403.016 444.5h30v-57.971c-10.495 5.33-20.491 9.659-30 13.154z" fill="#f28cc4"/><g><path d="m298.472 145.576 14.209 79.975-14.209 79.975c-.922 5.192-5.436 8.975-10.71 8.975h-63.524c-5.273 0-9.787-3.783-10.71-8.975l-14.209-79.975 14.209-79.975c.922-5.192 5.436-8.975 10.71-8.975h63.524c5.273 0 9.787 3.783 10.71 8.975z" fill="#d8ecfe"/><path d="m298.472 145.576c-.922-5.192-5.436-8.974-10.71-8.974h-30c5.273 0 9.787 3.782 10.71 8.974l14.209 79.975-14.209 79.975c-.922 5.192-5.436 8.975-10.71 8.975h30c5.273 0 9.787-3.782 10.71-8.975l14.209-79.975z" fill="#c4e2ff"/><path d="m384.147 191.466v68.169c0 14.994-13.109 26.616-27.995 24.819l-59.417-7.173c-27.058-3.267-54.412-3.267-81.47 0l-59.417 7.173c-14.886 1.797-27.995-9.824-27.995-24.819v-68.169c0-14.994 13.109-26.616 27.995-24.819l59.417 7.173c27.058 3.267 54.412 3.267 81.47 0l59.417-7.173c14.886-1.797 27.995 9.824 27.995 24.819z" fill="#a6d6f8"/><g><path d="m356.152 166.647-16.74 2.021c8.619 3.894 14.734 12.557 14.734 22.798v68.169c0 10.24-6.116 18.904-14.735 22.798l16.74 2.021c14.886 1.797 27.995-9.824 27.995-24.818v-68.169c.001-14.996-13.108-26.617-27.994-24.82z" fill="#8ecbfb"/></g><path d="m300.027 250.01c-29.213-3.527-58.84-3.527-88.055-.001l-52.549 6.344c-2.181.263-4.102-1.439-4.101-3.636v-54.334c0-2.197 1.92-3.899 4.101-3.636l52.549 6.343c29.215 3.528 58.841 3.527 88.054 0l52.55-6.343c2.181-.263 4.101 1.439 4.101 3.636v54.334c0 2.197-1.92 3.899-4.101 3.636z" fill="#eaf6ff"/></g></g><path d="m440.516 443.576v-375.152l12.603-50.408c1.09-4.362.129-8.896-2.639-12.44-2.767-3.543-6.933-5.576-11.429-5.576h-366.102c-4.496 0-8.662 2.033-11.429 5.577s-3.729 8.078-2.638 12.44l12.602 50.406v62.63c0 4.142 3.358 7.5 7.5 7.5s7.5-3.358 7.5-7.5v-56.053h339.032v306.885c-40.876 19.976-79.543 27.079-114.999 21.115-22.761-3.83-38.76-12.005-55.698-20.66-17.667-9.027-35.936-18.362-63.352-24.21-33.466-7.138-68.739-6.365-104.982 2.243v-194.32c0-4.142-3.358-7.5-7.5-7.5s-7.5 3.358-7.5 7.5v277.525l-12.602 50.406c-1.091 4.362-.129 8.896 2.638 12.44s6.933 5.577 11.429 5.577h366.102c4.496 0 8.662-2.033 11.429-5.577 2.768-3.544 3.729-8.078 2.639-12.44zm-366.927 53.424 11.25-45h261.892c4.143 0 7.5-3.358 7.5-7.5s-3.357-7.5-7.5-7.5h-260.247v-61.191c35.288-8.879 69.528-9.904 101.854-3.01 25.481 5.436 42.854 14.313 59.656 22.898 17.996 9.196 34.995 17.882 60.035 22.095 8.945 1.505 18.057 2.256 27.324 2.256 28.711 0 58.903-7.237 90.163-21.585v38.537h-43.784c-4.143 0-7.5 3.358-7.5 7.5s3.357 7.5 7.5 7.5h45.428l11.25 45zm353.571-437h-342.32l-11.25-45h364.82zm-279.338 138.384v54.334c0 3.191 1.37 6.235 3.757 8.353 2.388 2.117 5.596 3.11 8.743 2.729l52.549-6.344c28.618-3.454 57.64-3.455 86.256 0h.001l52.549 6.343c3.166.384 6.355-.612 8.743-2.729s3.757-5.161 3.757-8.353v-54.331c.001-3.191-1.367-6.237-3.755-8.354-2.389-2.118-5.57-3.113-8.744-2.731l-52.551 6.343c-28.618 3.456-57.64 3.456-86.256 0l-52.549-6.343c-3.171-.386-6.355.612-8.743 2.729s-3.757 5.163-3.757 8.354zm15 4.328 48.251 5.824c29.81 3.6 60.042 3.6 89.852 0l48.252-5.824v45.677l-48.251-5.824c-29.812-3.599-60.042-3.6-89.853 0l-48.252 5.825zm-31.529-35.565c-6.953 6.164-10.94 15.027-10.94 24.318v68.169c0 9.291 3.987 18.155 10.94 24.318 6.952 6.164 16.229 9.062 25.454 7.946l45.76-5.524 3.638 20.464c1.558 8.785 9.168 15.161 18.095 15.161h63.52c8.928 0 16.538-6.376 18.094-15.158l3.639-20.467 45.761 5.524c9.153 1.105 18.496-1.776 25.454-7.945 6.952-6.164 10.939-15.027 10.939-24.319v-68.169c0-9.292-3.987-18.155-10.939-24.319-6.952-6.163-16.234-9.057-25.453-7.945l-45.762 5.524-3.637-20.453c-1.556-8.792-9.166-15.173-18.096-15.173h-63.52c-8.929 0-16.54 6.381-18.095 15.167l-3.638 20.459-45.76-5.524c-9.224-1.113-18.502 1.783-25.454 7.946zm159.792 137.074c-.285 1.61-1.684 2.779-3.325 2.779h-63.52c-1.642 0-3.04-1.169-3.326-2.783l-3.49-19.633c25.604-2.991 51.547-2.991 77.152 0zm-70.17-157.334c.286-1.615 1.684-2.787 3.325-2.787h63.52c1.641 0 3.039 1.172 3.326 2.793l3.49 19.624c-25.605 2.991-51.547 2.991-77.152 0zm-6.549 34.379c27.626 3.335 55.643 3.335 83.268 0l59.418-7.173c5.036-.609 9.906.912 13.704 4.278 3.743 3.319 5.891 8.091 5.891 13.094v68.169c0 5.003-2.147 9.775-5.891 13.094-3.797 3.367-8.66 4.886-13.705 4.278l-59.417-7.173c-13.812-1.667-27.724-2.501-41.634-2.501s-27.821.834-41.634 2.501l-59.417 7.173c-4.967.598-9.962-.959-13.706-4.279-3.799-3.367-5.891-8.018-5.891-13.094v-68.169c0-5.076 2.092-9.727 5.891-13.094 3.744-3.318 8.739-4.878 13.706-4.279z"/></g></svg>