<svg id="Capa_1" enable-background="new 0 0 512 512" height="512" viewBox="0 0 512 512" width="512" xmlns="http://www.w3.org/2000/svg"><g><g><g><path d="m333.356 63.347h-196.472l-35.028 44.653c-11.05 14.087-17.056 31.473-17.056 49.376v322.124c0 13.807 11.193 25 25 25h275.639v-347.124c0-17.904-6.006-35.29-17.056-49.376z" fill="#e9efff"/></g><g><path d="m385.439 411.627h-66.76v51.113c0 15.794 5.525 30.316 14.728 41.76h52.032z" fill="#d3dcfb"/></g><g><path d="m114.681 479.5v-322.124c0-17.903 6.006-35.29 17.056-49.376 4.14-5.278 10.476-8.36 17.183-8.36h212.907l-28.47-36.293h-196.473l-35.028 44.653c-11.05 14.087-17.056 31.473-17.056 49.376v322.124c0 13.807 11.193 25 25 25h29.88c-13.807 0-24.999-11.193-24.999-25z" fill="#d3dcfb"/></g><g><path d="m84.801 201.98h300.639v209.648h-300.639z" fill="#e5979d"/></g><g><path d="m84.801 201.979h29.88v209.648h-29.88z" fill="#e17f85"/></g><g><path d="m318.679 393.04v18.587h66.76v-85.347c-36.811.001-66.76 29.949-66.76 66.76z" fill="#e17f85"/></g><g><path d="m365.439 78.967h-260.638c-11.046 0-20-8.954-20-20v-31.467c0-11.046 8.954-20 20-20h260.639c11.046 0 20 8.954 20 20v31.467c-.001 11.045-8.955 20-20.001 20z" fill="#bac5e2"/></g><g><path d="m110.681 58.967v-31.467c0-11.046 8.954-20 20-20h-25.88c-11.046 0-20 8.954-20 20v31.467c0 11.046 8.954 20 20 20h25.88c-11.046 0-20-8.954-20-20z" fill="#a7b4d1"/></g><g><circle cx="235.12" cy="306.803" fill="#deecf1" r="70.564"/></g><path d="m179.676 306.803c0-36.417 27.589-66.382 63.004-70.156-2.485-.265-5.005-.408-7.56-.408-38.971 0-70.564 31.592-70.564 70.564s31.592 70.564 70.564 70.564c2.555 0 5.075-.143 7.56-.408-35.415-3.773-63.004-33.739-63.004-70.156z" fill="#d3dcfb"/><g><path d="m263.32 293.992h-11.435c-2.184 0-3.954-1.77-3.954-3.954v-11.435c0-5.567-4.513-10.08-10.08-10.08h-5.463c-5.567 0-10.08 4.513-10.08 10.08v11.435c0 2.184-1.77 3.954-3.954 3.954h-11.434c-5.567 0-10.08 4.513-10.08 10.08v5.463c0 5.567 4.513 10.08 10.08 10.08h11.435c2.184 0 3.954 1.77 3.954 3.954v11.435c0 5.567 4.513 10.08 10.08 10.08h5.463c5.567 0 10.08-4.513 10.08-10.08v-11.435c0-2.184 1.77-3.954 3.954-3.954h11.435c5.567 0 10.08-4.513 10.08-10.08v-5.463c-.001-5.567-4.514-10.08-10.081-10.08z" fill="#b3e59f"/></g><g><path d="m385.44 351.28c-23.063 0-41.76 18.697-41.76 41.76v34.85h83.52v-34.85c-.001-23.063-18.697-41.76-41.76-41.76z" fill="#b8f0ff"/></g><g><path d="m427.199 427.89h-83.52v34.85c0 23.063 18.697 41.76 41.76 41.76 23.063 0 41.76-18.697 41.76-41.76z" fill="#42c3fc"/></g><g><path d="m362.039 393.04v34.85h-18.36v-34.85c0-23.063 18.697-41.76 41.76-41.76 3.155 0 6.225.361 9.18 1.025-18.644 4.184-32.58 20.827-32.58 40.735z" fill="#8ddcff"/></g><g><path d="m394.62 503.475c-2.955.663-6.025 1.025-9.18 1.025-23.063 0-41.76-18.697-41.76-41.76v-34.85h18.36v34.85c-.001 19.908 13.935 36.551 32.58 40.735z" fill="#1aa9e8"/></g></g><g><path d="m318.679 497h-208.878c-9.649 0-17.5-7.851-17.5-17.5v-60.373h216.383c4.142 0 7.5-3.358 7.5-7.5s-3.358-7.5-7.5-7.5h-216.383v-110.087c0-4.142-3.358-7.5-7.5-7.5s-7.5 3.358-7.5 7.5v185.46c0 17.92 14.58 32.5 32.5 32.5h208.879c4.142 0 7.5-3.358 7.5-7.5s-3.358-7.5-7.501-7.5z"/><path d="m84.801 269.023c4.142 0 7.5-3.358 7.5-7.5v-52.044h285.639v107.241c0 4.142 3.358 7.5 7.5 7.5s7.5-3.358 7.5-7.5v-159.344c0-19.49-6.625-38.669-18.655-54.005l-13.26-16.904h4.415c15.164 0 27.5-12.336 27.5-27.5v-31.467c0-15.164-12.336-27.5-27.5-27.5h-260.639c-15.164 0-27.5 12.336-27.5 27.5v31.467c0 15.164 12.336 27.5 27.5 27.5h4.415l-13.26 16.904c-12.03 15.334-18.655 34.514-18.655 54.005v104.147c0 4.143 3.357 7.5 7.5 7.5zm7.5-210.056v-31.467c0-6.893 5.607-12.5 12.5-12.5h17.52v23.647c0 4.142 3.358 7.5 7.5 7.5s7.5-3.358 7.5-7.5v-23.647h27.12v23.647c0 4.142 3.358 7.5 7.5 7.5s7.5-3.358 7.5-7.5v-23.647h27.12v23.647c0 4.142 3.358 7.5 7.5 7.5s7.5-3.358 7.5-7.5v-23.647h27.12v23.647c0 4.142 3.358 7.5 7.5 7.5s7.5-3.358 7.5-7.5v-23.647h27.12v23.647c0 4.142 3.358 7.5 7.5 7.5s7.5-3.358 7.5-7.5v-23.647h27.12v23.647c0 4.142 3.358 7.5 7.5 7.5s7.5-3.358 7.5-7.5v-23.647h17.519c6.893 0 12.5 5.607 12.5 12.5v31.467c0 6.893-5.607 12.5-12.5 12.5h-260.639c-6.893 0-12.5-5.608-12.5-12.5zm15.456 53.662 20.523-26.162h213.68l20.523 26.162c9.967 12.707 15.457 28.598 15.457 44.747v37.104h-285.639v-37.104c0-16.149 5.489-32.041 15.456-44.747z"/><path d="m232.388 352.583h5.463c9.694 0 17.58-7.886 17.58-17.58v-7.889h7.889c9.694 0 17.58-7.886 17.58-17.58v-5.463c0-9.693-7.886-17.58-17.58-17.58h-7.889v-7.889c0-9.693-7.886-17.58-17.58-17.58h-5.463c-9.693 0-17.58 7.886-17.58 17.58v7.889h-7.889c-9.693 0-17.58 7.886-17.58 17.58v5.463c0 9.694 7.886 17.58 17.58 17.58h7.889v7.889c.001 9.694 7.887 17.58 17.58 17.58zm-25.468-40.468c-1.422 0-2.58-1.157-2.58-2.58v-5.463c0-1.422 1.157-2.58 2.58-2.58h11.435c6.316 0 11.454-5.138 11.454-11.454v-11.435c0-1.422 1.157-2.58 2.58-2.58h5.463c1.423 0 2.58 1.157 2.58 2.58v11.435c0 6.316 5.138 11.454 11.454 11.454h11.435c1.423 0 2.58 1.157 2.58 2.58v5.463c0 1.423-1.157 2.58-2.58 2.58h-11.435c-6.316 0-11.454 5.138-11.454 11.454v11.435c0 1.423-1.157 2.58-2.58 2.58h-5.463c-1.422 0-2.58-1.157-2.58-2.58v-11.435c0-6.316-5.138-11.454-11.454-11.454z"/><path d="m265.508 234.877c-9.63-4.072-19.854-6.137-30.388-6.137-43.044 0-78.063 35.019-78.063 78.063s35.019 78.064 78.063 78.064 78.064-35.02 78.064-78.064c0-20.384-7.809-39.671-21.989-54.31-2.882-2.975-7.629-3.05-10.605-.169-2.975 2.882-3.051 7.63-.169 10.605 11.455 11.825 17.763 27.406 17.763 43.874 0 34.773-28.291 63.064-63.064 63.064s-63.063-28.291-63.063-63.064 28.29-63.063 63.063-63.063c8.517 0 16.775 1.667 24.545 4.953 3.815 1.613 8.216-.171 9.829-3.986 1.614-3.816-.171-8.217-3.986-9.83z"/><path d="m385.44 343.78c-27.162 0-49.26 22.098-49.26 49.26v69.7c0 27.162 22.098 49.26 49.26 49.26s49.26-22.098 49.26-49.26v-69.7c-.001-27.162-22.098-49.26-49.26-49.26zm0 15c18.891 0 34.26 15.369 34.26 34.26v27.35h-68.52v-27.35c-.001-18.891 15.369-34.26 34.26-34.26zm0 138.22c-18.891 0-34.26-15.369-34.26-34.26v-27.35h68.52v27.35c-.001 18.891-15.369 34.26-34.26 34.26z"/></g></g></svg>