<svg id="Capa_1" enable-background="new 0 0 512.003 512.003" height="512" viewBox="0 0 512.003 512.003" width="512" xmlns="http://www.w3.org/2000/svg"><g><g><path d="m218.267 10.315c-10.382 5.238-17.51 15.983-17.51 28.406 0 12.422 7.128 23.167 17.51 28.406 10.776-4.922 18.268-15.785 18.268-28.406s-7.492-23.484-18.268-28.406z" fill="#60b9fe"/><path d="m201.094 38.721c0-12.407 7.238-23.123 17.721-28.158-4.086-1.963-8.665-3.063-13.501-3.063-17.243 0-31.221 13.978-31.221 31.221s13.978 31.221 31.221 31.221c4.836 0 9.414-1.1 13.5-3.063-10.483-5.035-17.72-15.751-17.72-28.158z" fill="#1ca8ff"/><path d="m311.463 175.005-20.126-43.161c-9.124-19.566-28.969-32.208-50.558-32.208h-22.133s-35.484 3.294-35.484 43.294 0 169.5 0 169.5l7.513 4.885c2.063-5.884 7.385-10.308 13.888-10.614 8.942-.421 16.324 6.705 16.324 15.554v163.68c0 9.723 7.472 18.089 17.184 18.546 10.369.488 18.929-7.774 18.929-18.036v-328.966c0-3.286 4.462-4.282 5.851-1.304 3.039 6.516 7.914 17.003 15.883 34.093 2.706 5.803 4.137 12.254 4.137 18.657v79.192c0 9.723 7.471 18.089 17.183 18.546 10.369.488 18.93-7.774 18.93-18.036v-79.702c-.001-11.642-2.601-23.371-7.521-33.92z" fill="#60b9fe"/><path d="m436.71 63.586c-9.008-11.509-20.834-21.051-34.199-27.595-28.254-13.832-62-13.84-90.269 0-.107.053-.213.109-.32.162-7.574 8.568-12.179 19.822-12.179 32.157s4.605 23.589 12.179 32.157c.107.053.213.11.321.163 28.254 13.832 62 13.84 90.269 0 13.365-6.544 25.191-16.086 34.199-27.595 2.176-2.781 2.176-6.667-.001-9.449z" fill="#dbedff"/><path d="m367.282 26.677c-18.004 5.288-31.155 21.919-31.155 41.634s13.151 36.346 31.155 41.634c18.858-4.471 32.892-21.409 32.892-41.634s-14.033-37.162-32.892-41.634z" fill="#6e60b8"/><path d="m336.576 68.311c0-19.834 13.494-36.51 31.8-41.366-3.511-.931-7.196-1.434-11-1.434-23.637 0-42.8 19.162-42.8 42.799s19.162 42.799 42.8 42.799c3.804 0 7.489-.502 11-1.434-18.307-4.853-31.8-21.53-31.8-41.364z" fill="#6353b2"/><g><path d="m300.242 68.311c0-12.935 5.24-24.646 13.712-33.128-.572.267-1.146.53-1.713.808-13.365 6.544-25.191 16.086-34.199 27.595-2.178 2.782-2.178 6.668-.001 9.45 9.009 11.509 20.835 21.052 34.2 27.595.568.278 1.141.541 1.713.807-8.472-8.481-13.712-20.192-13.712-33.127z" fill="#b5dcff"/></g><g><path d="m190.675 138.776c0-17.839 11.796-33.704 27.971-39.14h-48.796c-21.679 0-41.395 12.56-50.557 32.208l-20.128 43.163c-4.918 10.55-7.519 22.278-7.519 33.919v79.192c0 .683.046 1.358.118 2.025 2.397-.757 4.948-1.167 7.595-1.167 9.593 0 17.933 5.362 22.189 13.251 3.797-3.31 6.211-8.166 6.211-13.599 0-17.318 0-28.54 0-35.559 0-7.756 0-10.378 0-10.414 0-6.769 0-17.443 0-33.729 0-6.403 1.431-12.855 4.135-18.657 7.969-17.089 12.844-27.576 15.884-34.093 1.389-2.978 5.851-1.982 5.851 1.304v328.457c0 9.723 7.471 18.089 17.183 18.546 10.369.488 18.929-7.774 18.929-18.036v-163.752c0-1.875.338-3.685.932-5.38v-178.539z" fill="#1ca8ff"/></g></g><g><path d="m205.062 77.441c21.351 0 38.721-17.37 38.721-38.721s-17.37-38.72-38.721-38.72-38.721 17.37-38.721 38.721 17.37 38.72 38.721 38.72zm0-62.441c13.08 0 23.721 10.641 23.721 23.721s-10.641 23.721-23.721 23.721-23.721-10.642-23.721-23.721 10.641-23.721 23.721-23.721z"/><path d="m271.882 58.964c-4.308 5.504-4.308 13.192 0 18.695 27.946 35.705 76.262 49.45 119.438 35.457l21.31 21.31c2.93 2.929 7.678 2.929 10.607 0s2.929-7.678 0-10.606l-16.867-16.867c14.04-7.025 26.474-17.133 35.993-29.295 4.307-5.503 4.307-13.19 0-18.695-27.981-35.746-76.297-49.438-119.439-35.456l-21.31-21.31c-2.93-2.929-7.678-2.929-10.607 0s-2.929 7.678 0 10.606l16.867 16.867c-14.042 7.025-26.474 17.134-35.992 29.294zm55.643-9.643 48.588 48.588c-5.483 3.53-11.999 5.588-18.99 5.588-27.842 0-44.562-30.934-29.598-54.176zm59.195 37.981-48.588-48.588c5.483-3.53 11.999-5.588 18.99-5.588 27.845-.001 44.56 30.937 29.598 54.176zm43.83-19.094c.053.067.054.139.001.205-7.895 10.086-18.146 18.535-29.735 24.54 8.658-15.292 8.662-33.985 0-49.284 11.59 6.006 21.84 14.454 29.734 24.539zm-146.855.001c7.893-10.086 18.144-18.534 29.734-24.54-8.658 15.292-8.662 33.985 0 49.284-11.59-6.006-21.841-14.454-29.735-24.54-.052-.067-.052-.137.001-.204z"/><path d="m285.278 187.098c-4.503-9.656-8.6-18.452-15.884-34.093-2.109-4.525-6.986-6.929-11.862-5.85-4.878 1.082-8.285 5.327-8.285 10.324v223.394c0 4.142 3.357 7.5 7.5 7.5s7.5-3.358 7.5-7.5v-203.393c2.12 4.551 4.58 9.83 7.438 15.958 2.246 4.817 3.434 10.173 3.434 15.487v79.192c0 13.958 10.687 25.395 24.33 26.038 14.92.701 26.782-11.264 26.782-25.528v-22.754c0-4.142-3.357-7.5-7.5-7.5s-7.5 3.358-7.5 7.5v22.754c0 6.009-5 10.833-11.077 10.544-5.533-.261-10.035-5.22-10.035-11.054v-79.192c-.001-7.49-1.675-15.038-4.841-21.827z"/><path d="m112.244 128.673-20.129 43.163c-5.378 11.536-8.221 24.36-8.221 37.088v76.317c-10.386 5.484-17.484 16.39-17.484 28.929v181.87c0 4.142 3.357 7.5 7.5 7.5s7.5-3.358 7.5-7.5v-181.869c0-9.793 7.977-17.697 17.697-17.697 9.751 0 17.697 7.943 17.697 17.697v17.365c0 4.142 3.357 7.5 7.5 7.5s7.5-3.358 7.5-7.5v-17.365c0-3.667-.616-7.191-1.734-10.485 3.177-4.34 4.937-9.602 4.937-15.06v-79.702c0-5.315 1.188-10.67 3.433-15.487 2.858-6.127 5.318-11.407 7.438-15.959v308.457c0 13.958 10.687 25.395 24.33 26.038 14.879.711 26.782-11.231 26.782-25.528v-163.75c0-4.489 3.442-8.303 7.673-8.502 4.709-.21 8.472 3.516 8.472 8.063v163.68c0 13.958 10.688 25.396 24.331 26.038 14.898.698 26.781-11.241 26.781-25.528v-70.573c0-4.142-3.357-7.5-7.5-7.5s-7.5 3.358-7.5 7.5v70.573c0 5.998-4.981 10.825-11.076 10.544-5.534-.261-10.036-5.22-10.036-11.055v-163.68c0-12.886-10.706-23.67-24.177-23.046-12.318.58-21.968 10.896-21.968 23.486v163.75c0 6-4.985 10.826-11.077 10.544-5.533-.261-10.035-5.22-10.035-11.054v-328.456c0-4.997-3.407-9.242-8.285-10.324-4.87-1.079-9.751 1.324-11.862 5.849-8.456 18.158-12.28 26.363-15.886 34.095-3.165 6.789-4.838 14.336-4.838 21.826-.002 82.831.006 79.752-.007 80.089-6.046-5.021-13.58-7.591-21.105-7.539v-72.55c0-10.553 2.357-21.186 6.815-30.749l20.128-43.163c7.897-16.935 25.074-27.877 43.76-27.877h70.929c18.688 0 35.864 10.942 43.761 27.878l20.127 43.161c4.459 9.564 6.816 20.197 6.816 30.75v21.947c0 4.142 3.357 7.5 7.5 7.5s7.5-3.358 7.5-7.5v-21.947c0-12.729-2.843-25.554-8.223-37.09l-20.126-43.161c-10.35-22.196-32.863-36.539-57.355-36.539h-70.929c-24.491.001-47.005 14.343-57.354 36.538z"/></g></g></svg>