<svg id="Capa_1" enable-background="new 0 0 512 512" height="512" viewBox="0 0 512 512" width="512" xmlns="http://www.w3.org/2000/svg"><g><g><path d="m387.5 504.5h-263c-16.569 0-30-13.431-30-30v-437c0-16.569 13.431-30 30-30h263c16.569 0 30 13.431 30 30v437c0 16.569-13.431 30-30 30z" fill="#a6d6f8"/><path d="m387.5 7.5h-30c16.569 0 30 13.431 30 30v437c0 16.569-13.431 30-30 30h30c16.569 0 30-13.431 30-30v-437c0-16.569-13.431-30-30-30z" fill="#8ecbfb"/><g><circle cx="175.25" cy="87" fill="#fff" r="34.5"/></g><g><circle cx="336.75" cy="87" fill="#fff" r="34.5"/></g><g><circle cx="175.25" cy="425" fill="#fff" r="34.5"/></g><g><circle cx="336.75" cy="425" fill="#fff" r="34.5"/></g><g><circle cx="175.25" cy="312.333" fill="#fff" r="34.5"/></g><g><circle cx="336.75" cy="312.333" fill="#fff" r="34.5"/></g><g><circle cx="175.25" cy="199.667" fill="#fff" r="34.5"/></g><g><circle cx="336.75" cy="199.667" fill="#fff" r="34.5"/></g></g><path d="m204.968 282.656c-.007-.007-.012-.014-.019-.021-.006-.006-.013-.012-.02-.018-16.376-16.357-43.007-16.352-59.379.018-16.368 16.369-16.374 42.998-.019 59.376.007.007.012.014.019.021.006.006.013.012.02.018 8.185 8.176 18.932 12.264 29.679 12.264 10.756 0 21.511-4.094 29.698-12.282h.001c16.369-16.369 16.376-42.999.02-59.376zm-48.811 10.585c8.608-8.609 21.729-10.268 32.126-4.548l-36.673 36.673c-5.65-10.258-4.139-23.438 4.547-32.125zm38.186 38.184c-8.688 8.687-21.868 10.198-32.126 4.548l36.673-36.673c5.65 10.259 4.139 23.438-4.547 32.125zm172.125-48.769c-.007-.007-.012-.014-.019-.021-.006-.006-.013-.012-.02-.018-16.376-16.356-43.008-16.352-59.378.018-16.368 16.369-16.374 42.998-.019 59.376.007.007.012.014.019.021.006.006.013.012.02.018 8.185 8.176 18.932 12.264 29.679 12.264 10.756 0 21.511-4.094 29.698-12.282h.001c16.368-16.369 16.375-42.999.019-59.376zm-48.811 10.585c8.608-8.609 21.729-10.268 32.126-4.548l-36.673 36.673c-5.65-10.258-4.139-23.438 4.547-32.125zm38.186 38.184c-8.687 8.687-21.867 10.198-32.126 4.548l36.673-36.673c5.65 10.259 4.139 23.438-4.547 32.125zm61.657 55.319c4.143 0 7.5-3.358 7.5-7.5v-341.744c0-20.678-16.822-37.5-37.5-37.5h-182.25c-4.143 0-7.5 3.358-7.5 7.5s3.357 7.5 7.5 7.5h43.25v482h-124c-12.406 0-22.5-10.093-22.5-22.5v-437c0-12.407 10.094-22.5 22.5-22.5h45.75c4.143 0 7.5-3.358 7.5-7.5s-3.357-7.5-7.5-7.5h-45.75c-20.678 0-37.5 16.822-37.5 37.5v437c0 20.678 16.822 37.5 37.5 37.5h263c20.678 0 37.5-16.822 37.5-37.5v-60.256c0-4.142-3.357-7.5-7.5-7.5s-7.5 3.358-7.5 7.5v60.256c0 12.407-10.094 22.5-22.5 22.5h-124v-482h124c12.406 0 22.5 10.093 22.5 22.5v341.744c0 4.142 3.357 7.5 7.5 7.5zm-212.532-329.421c-.007-.007-.012-.014-.019-.021-.006-.006-.013-.012-.02-.018-16.376-16.357-43.007-16.351-59.379.018-16.368 16.369-16.374 42.998-.019 59.375.007.007.012.014.019.021.006.006.013.012.02.018 8.185 8.176 18.932 12.264 29.679 12.264 10.756 0 21.511-4.094 29.698-12.282h.001c16.369-16.368 16.376-42.998.02-59.375zm-48.811 10.585c8.608-8.609 21.729-10.268 32.126-4.548l-36.673 36.673c-5.65-10.259-4.139-23.438 4.547-32.125zm38.186 38.184c-8.688 8.687-21.868 10.198-32.126 4.548l36.674-36.673c5.649 10.259 4.138 23.438-4.548 32.125zm172.125-48.769c-.007-.007-.012-.014-.019-.021-.006-.006-.014-.012-.02-.018-16.376-16.357-43.008-16.351-59.378.018-16.368 16.369-16.374 42.998-.019 59.375.007.007.012.014.019.021.006.006.013.012.02.018 8.185 8.176 18.932 12.264 29.679 12.264 10.756 0 21.511-4.094 29.698-12.282h.001c16.368-16.368 16.375-42.998.019-59.375zm-48.811 10.585c8.608-8.609 21.729-10.268 32.126-4.548l-36.673 36.673c-5.65-10.259-4.139-23.438 4.547-32.125zm38.186 38.184c-8.687 8.687-21.867 10.198-32.126 4.548l36.673-36.673c5.65 10.259 4.139 23.438-4.547 32.125zm10.586 289.192c-16.376-16.357-43.008-16.351-59.378.018-16.368 16.369-16.374 42.998-.019 59.375.007.007.012.014.019.021.006.006.013.012.02.018 8.185 8.176 18.932 12.264 29.679 12.264 10.756 0 21.511-4.094 29.698-12.282h.001c16.368-16.369 16.375-42.998.019-59.375-.007-.007-.012-.014-.019-.021-.006-.007-.013-.012-.02-.018zm-48.772 10.624c8.608-8.609 21.729-10.268 32.126-4.548l-36.673 36.673c-5.65-10.259-4.139-23.438 4.547-32.125zm38.186 38.184c-8.687 8.687-21.867 10.198-32.126 4.548l36.673-36.673c5.65 10.259 4.139 23.438-4.547 32.125zm-150.914-48.808c-16.376-16.357-43.007-16.351-59.379.018-16.368 16.369-16.374 42.998-.019 59.375.007.007.012.014.019.021.006.006.013.012.02.018 8.185 8.176 18.932 12.264 29.679 12.264 10.756 0 21.511-4.094 29.698-12.282h.001c16.368-16.369 16.374-42.998.019-59.375-.007-.007-.012-.014-.019-.021-.005-.007-.012-.012-.019-.018zm-48.772 10.624c8.608-8.609 21.729-10.268 32.126-4.548l-36.673 36.673c-5.65-10.259-4.139-23.438 4.547-32.125zm38.186 38.184c-8.688 8.687-21.868 10.198-32.126 4.548l36.674-36.673c5.649 10.259 4.138 23.438-4.548 32.125zm172.125-274.103c-.007-.007-.012-.014-.019-.021-.006-.006-.013-.012-.02-.018-16.376-16.356-43.008-16.353-59.378.018-16.368 16.369-16.374 42.998-.019 59.376.007.007.012.014.019.021.006.006.013.012.02.018 8.185 8.176 18.932 12.264 29.679 12.264 10.756 0 21.511-4.094 29.698-12.282h.001c16.368-16.369 16.375-42.998.019-59.376zm-48.811 10.586c8.608-8.609 21.729-10.268 32.126-4.548l-36.673 36.673c-5.65-10.259-4.139-23.438 4.547-32.125zm38.186 38.184c-8.687 8.687-21.867 10.198-32.126 4.548l36.673-36.673c5.65 10.258 4.139 23.438-4.547 32.125zm-150.875-48.77c-.007-.007-.012-.014-.019-.021-.006-.006-.013-.012-.02-.018-16.376-16.357-43.007-16.353-59.379.018-16.368 16.369-16.374 42.998-.019 59.376.007.007.012.014.019.021.006.006.013.012.02.018 8.185 8.176 18.932 12.264 29.679 12.264 10.756 0 21.511-4.094 29.698-12.282h.001c16.369-16.369 16.376-42.998.02-59.376zm-48.811 10.586c8.608-8.609 21.729-10.268 32.126-4.548l-36.673 36.673c-5.65-10.259-4.139-23.438 4.547-32.125zm38.186 38.184c-8.688 8.687-21.868 10.198-32.126 4.548l36.674-36.673c5.649 10.258 4.138 23.438-4.548 32.125z"/></g></svg>