<svg id="Capa_1" enable-background="new 0 0 512 512" height="512" viewBox="0 0 512 512" width="512" xmlns="http://www.w3.org/2000/svg"><g><g><path d="m250.064 188.055v-48.959h45.808v48.122z" fill="#e8e8e8"/><path d="m259.87 139.101v48.72l-14 .23v-48.95z" fill="#d8d8d8"/><path d="m441.66 269.01v35l-74.405 4.83-173.255-4.83v-60l131.596 2.149 7.124-2.149h83.94c13.81 0 25 11.19 25 25z" fill="#857e87"/><g><path d="m411.468 304.015-13.873 2.4-14.128-2.4.319-80.004c0-8.284-6.716-15-15-15l-153.915 3.7v-30l45.957 3.789 15.13-3.789h90.508c24.853 0 45 20.147 45 45v76.304z" fill="#f8f7f7"/></g><path d="m366.47 199.71h-65.964c-1.981 0-3.88-.748-5.36-2.065-6.052-5.386-12.457-10.383-19.186-14.935h-61.09v17 13h95.38 56.22c8.28 0 15 6.71 15 15v76.3l5.487 2.404 7.513-2.404v-76.3c0-15.464-12.536-28-28-28z" fill="#e8e8e8"/><path d="m200.677 204.152-44.916 1-18.506-82.907-4.578-60.093 19.37-1c14.723 0 27.27 10.684 29.617 25.219l10.662 66.05-.603 7.472z" fill="#857e87"/><path d="m411.47 334.01v63.68c-4.76-1.42-9.79 7.958-15 7.958s-10.25-9.378-15-7.958v-63.68l15-4.702z" fill="#f8f7f7"/><g><path d="m130.877 213.846-28.09-163.091c-1.095-6.783-6.95-11.768-13.821-11.768l-65.051 1.353c-7.615 0-16.278-11.769-16.278-11.769-.09-.667-.137-1.348-.137-2.04 0-8.307 6.734-15.042 15.042-15.042h66.194c20.612 0 38.177 14.957 41.463 35.305l17.221 106.646-.377 14.07 9.457 42.165z" fill="#f8f7f7"/></g><path d="m441.66 304.01v20c0 5.52-4.48 10-10 10h-75.16l-9.926-4.106-152.574 4.106v-30z" fill="#6f6571"/><g><path d="m155.77 205.151h-.01l-8.35-51.71h.01z" fill="#635a63"/></g><path d="m155.77 205.151h-.01l-8.35-51.71h.01z" fill="#635a63"/><path d="m315.043 142.372-88.021.191c-5.523 0-10-4.477-10-10l.043-8c0-5.523 4.477-10 10-10l1.806-.796h87.002c5.523 0 10 4.477 10 10v7.003l-.83 1.602c0 5.523-4.478 10-10 10z" fill="#857e87"/><path d="m325.872 130.771-.002 3c0 5.52-4.47 10-10 10h-90c-5.52 0-10-4.48-10-10v-10c0-5.53 4.48-10 10-10h3v4c0 7.18 5.82 13 13 13z" fill="#6f6571"/><path d="m156.5 209.68-.73-4.53h-.01l-4.717-45.204-3.633-6.506c-4.012.588-7.994 1.312-11.941 2.164-2.809.607-5.549-1.264-5.995-4.103l-15.744-100.23c-2.12-13.15-13.33-22.7-26.65-22.7h-79.44c.99 7.34 7.28 13 14.9 13h64.54c6.87 0 12.73 4.99 13.82 11.77l26.02 161.15 12.14-1.97-.001-.004z" fill="#e8e8e8"/><path d="m200.68 204.151-44.91 1-8.35-51.71c8.74-1.28 17.62-1.93 26.58-1.93 6.19 0 12.296.311 18.326.911z" fill="#6f6571"/><path d="m354.03 304.01-10.519 5.468-149.511-5.468v-60h138.72c10.41 18.271 17.75 38.511 21.31 60z" fill="#6f6571"/><path d="m356.5 334.01h-162.5v-30h160.03c1.63 9.771 2.47 19.791 2.47 30z" fill="#635a63"/><path d="m340.5 334.01c0-91.955-74.545-166.5-166.5-166.5-43.234 0-82.619 16.478-112.218 43.497 0 0-16.401 18.738-23.697 29.408-18.275 26.725-28.404 58.329-28.404 93.149 0 91.955 72.364 164.532 164.319 164.532 45.631 0 86.68-16.307 116.755-46.037 2.425-2.398 7.346-7.045 7.346-7.045 26.367-29.458 42.399-68.359 42.399-111.004z" fill="#857e87"/><path d="m298.527 444.536c-30.5 34.33-74.987 55.975-124.527 55.975-91.96 0-166.5-74.54-166.5-166.5 0-49.54 21.644-94.026 55.973-124.526-26.109 29.409-41.973 68.106-41.973 110.525 0 91.96 74.54 166.5 166.5 166.5 42.42 0 81.117-15.864 110.527-41.974z" fill="#6f6571"/><circle cx="174" cy="334.01" fill="#f8f7f7" r="125"/><circle cx="174" cy="334.01" fill="#857e87" r="45"/><circle cx="174" cy="334.01" fill="#6f6571" r="30"/><circle cx="174" cy="334.01" fill="#f8f7f7" r="15"/><path d="m494.5 463.01h-34.26l-8.219-3.085-17.404 3.085v-30l17.979 1.383 7.644-1.383h34.26c5.523 0 10 4.477 10 10v10c0 5.523-4.477 10-10 10z" fill="#f8f7f7"/><path d="m461.97 448.01c0 5.16-.6 10.18-1.73 15h-25.62v-30h25.62c1.13 4.821 1.73 9.841 1.73 15z" fill="#e8e8e8"/><path d="m448.971 448.01c0-28.995-23.505-52.5-52.5-52.5-12.065 0-23.18 4.07-32.047 10.912 0 0-4.096 4.728-6.318 7.247-8.16 9.253-12.426 21.034-12.426 34.34 0 28.995 21.795 50.489 50.79 50.489 12.273 0 22.909-3.369 31.849-10.426 4.456-3.517 12.101-11.335 12.101-11.335 5.407-8.252 8.551-18.122 8.551-28.727z" fill="#857e87"/><circle cx="396.471" cy="448.01" fill="#f8f7f7" r="22.5"/><path d="m440.517 476.59c-9.37 14.39-25.597 23.92-44.047 23.92-28.99 0-52.5-23.51-52.5-52.5 0-16.93 8.02-31.99 20.46-41.58-5.35 8.22-8.46 18.04-8.46 28.58 0 28.99 23.51 52.5 52.5 52.5 12.06 0 23.187-4.09 32.047-10.92z" fill="#6f6571"/></g><g><path d="m494.5 425.51h-42.423c-6.096-15.011-18.095-27.01-33.106-33.106v-50.894h12.689c9.649 0 17.5-7.851 17.5-17.5v-55c0-17.143-13.345-31.22-30.191-32.409v-8.895c0-28.949-23.551-52.5-52.5-52.5h-63.096v-23.939h12.5c9.649 0 17.5-7.851 17.5-17.5v-10c0-9.649-7.851-17.5-17.5-17.5h-26.596c-4.142 0-7.5 3.358-7.5 7.5s3.358 7.5 7.5 7.5h26.596c1.378 0 2.5 1.122 2.5 2.5v10c0 1.378-1.122 2.5-2.5 2.5h-90c-1.378 0-2.5-1.122-2.5-2.5v-10c0-1.378 1.122-2.5 2.5-2.5h28.404c4.142 0 7.5-3.358 7.5-7.5s-3.358-7.5-7.5-7.5h-28.404c-9.649 0-17.5 7.851-17.5 17.5v10c0 9.649 7.851 17.5 17.5 17.5h12.5v21.092c-11.72-4.684-24.065-8.125-36.872-10.167l-12.432-77.016c-2.764-17.939-18.89-31.734-37.408-31.514l-12.651.653-1.407-8.716c-3.895-24.11-24.446-41.609-48.868-41.609h-66.193c-12.43 0-22.542 10.112-22.542 22.541s10.112 22.542 22.542 22.542h64.538c3.207 0 5.906 2.298 6.417 5.464l6.932 42.926c.661 4.089 4.513 6.867 8.6 6.208 4.089-.661 6.869-4.511 6.208-8.6l-6.932-42.926c-1.691-10.472-10.618-18.073-21.225-18.073h-64.538c-4.158 0-7.542-3.383-7.542-7.542s3.383-7.542 7.542-7.542h66.194c17.021 0 31.345 12.196 34.059 29 1.215 7.526 16.966 105.066 18.586 115.1-4.944.942-9.817 2.084-14.605 3.436l-5.976-37.006c-.661-4.089-4.514-6.864-8.6-6.208-4.089.661-6.869 4.511-6.208 8.6l6.361 39.392c-65.604 24.94-112.353 88.463-112.353 162.708 0 32.184 8.856 63.621 25.612 90.913 2.167 3.53 6.785 4.635 10.315 2.468s4.635-6.786 2.468-10.315c-15.305-24.93-23.395-53.654-23.395-83.066 0-87.673 71.327-159 159-159s159 71.327 159 159-71.327 159-159 159c-43.995 0-84.925-17.566-115.25-49.462-2.854-3.002-7.602-3.121-10.604-.268-3.002 2.854-3.122 7.602-.268 10.604 33.186 34.904 77.977 54.126 126.122 54.126 93.43 0 169.885-74.023 173.828-166.5h26.143v50.894c-21.965 8.92-37.5 30.477-37.5 55.606 0 33.084 26.916 60 60 60 25.129 0 46.686-15.535 55.606-37.5h42.423c9.649 0 17.5-7.851 17.5-17.5v-10c0-9.649-7.851-17.5-17.5-17.5zm-62.84-99c-24.597 0-59.469 0-83.832 0-.216-5.058-.64-10.062-1.28-15h87.612v12.5c0 1.379-1.122 2.5-2.5 2.5zm-57.692-90h-55.921c-3.858-5.682-8.041-11.128-12.526-16.304h60.948c4.136 0 7.5 3.364 7.5 7.5v8.804zm0 15v45h-30.05c-3.511-15.921-9.201-31.034-16.754-45zm60.192 17.5v27.5h-15.191v-44.83c8.559 1.137 15.191 8.466 15.191 17.33zm-30.192-41.304v68.804h-15v-68.804c0-12.407-10.093-22.5-22.5-22.5h-75.603c-5.974-5.426-12.33-10.437-19.015-15h94.618c20.678 0 37.5 16.823 37.5 37.5zm-115.595-76.439v23.939h-35v-23.939zm-132.15 9.645-14.808-91.702 10.812-.558c11.023.085 20.273 8.013 22.033 18.914l11.763 72.867c-8.374-.605-19.612-.585-29.8.479zm232.748 180.598h15v46.985c-2.459-.308-4.959-.485-7.5-.485s-5.041.177-7.5.485zm7.5 151.5c-24.813 0-45-20.187-45-45s20.187-45 45-45 45 20.187 45 45-20.187 45-45 45zm100.529-40c0 1.378-1.122 2.5-2.5 2.5h-38.515c.308-2.459.485-4.958.485-7.5s-.177-5.041-.485-7.5h38.515c1.378 0 2.5 1.122 2.5 2.5z"/><path d="m293.517 296.519c3.871-1.475 5.813-5.808 4.338-9.679-9.46-24.828-26.003-46.048-47.839-61.368-22.344-15.676-48.629-23.962-76.016-23.962-73.061 0-132.5 59.439-132.5 132.5s59.439 132.5 132.5 132.5 132.5-59.439 132.5-132.5c0-3.703-.155-7.444-.46-11.12-.343-4.127-3.953-7.196-8.095-6.853-4.128.343-7.196 3.967-6.853 8.095.271 3.265.409 6.588.409 9.878 0 64.79-52.71 117.5-117.5 117.5s-117.501-52.71-117.501-117.5 52.71-117.5 117.5-117.5c48.451 0 92.591 30.41 109.838 75.67 1.475 3.872 5.809 5.815 9.679 4.339z"/><path d="m174 226.51c-59.276 0-107.5 48.224-107.5 107.5s48.224 107.5 107.5 107.5 107.5-48.224 107.5-107.5-48.224-107.5-107.5-107.5zm92.195 100h-40.239c-1.958-13.622-9.164-25.564-19.498-33.719l20.117-34.843c22.172 15.374 37.331 40.177 39.62 68.562zm-92.195 45c-20.678 0-37.5-16.822-37.5-37.5s16.822-37.5 37.5-37.5 37.5 16.822 37.5 37.5-16.822 37.5-37.5 37.5zm39.597-121.084-20.119 34.846c-6.028-2.418-12.597-3.762-19.479-3.762-6.881 0-13.451 1.344-19.479 3.762l-20.118-34.846c12.01-5.713 25.436-8.916 39.597-8.916s27.588 3.203 39.598 8.916zm-92.171 7.523 20.117 34.843c-10.334 8.155-17.541 20.096-19.498 33.719h-40.24c2.289-28.386 17.448-53.189 39.621-68.562zm-39.621 83.561h40.239c1.958 13.622 9.164 25.564 19.498 33.719l-20.117 34.843c-22.172-15.373-37.331-40.176-39.62-68.562zm52.598 76.085 20.119-34.846c6.028 2.418 12.597 3.762 19.479 3.762 6.881 0 13.451-1.344 19.479-3.762l20.119 34.846c-12.01 5.713-25.436 8.916-39.597 8.916s-27.589-3.203-39.599-8.916zm92.171-7.523-20.117-34.843c10.334-8.155 17.541-20.096 19.498-33.719h40.239c-2.288 28.386-17.447 53.189-39.62 68.562z"/><path d="m174 311.51c-12.407 0-22.5 10.093-22.5 22.5s10.093 22.5 22.5 22.5 22.5-10.093 22.5-22.5-10.093-22.5-22.5-22.5zm0 30c-4.136 0-7.5-3.364-7.5-7.5s3.364-7.5 7.5-7.5 7.5 3.364 7.5 7.5-3.364 7.5-7.5 7.5z"/><path d="m396.471 418.01c-16.542 0-30 13.458-30 30s13.458 30 30 30 30-13.458 30-30-13.458-30-30-30zm0 45c-8.271 0-15-6.729-15-15s6.729-15 15-15 15 6.729 15 15-6.729 15-15 15z"/></g></g></svg>