<svg id="Layer_1" enable-background="new 0 0 512 512" height="512" viewBox="0 0 512 512" width="512" xmlns="http://www.w3.org/2000/svg"><g><path clip-rule="evenodd" d="m457.202 464.926c0 5.793-1.03 10.942-2.961 15.576-2.06 4.505-4.763 8.238-8.239 11.328-3.347 2.961-7.337 5.149-11.972 6.565-4.763 1.416-9.397 2.06-14.16 2.06h-42.35c-8.882 0-16.477-.901-22.914-2.575-6.308-1.802-12.229-5.02-17.636-9.655-5.535-4.634-10.685-10.942-15.705-18.923-5.02-7.852-10.684-18.151-16.992-30.766l-121.133-228.235c-7.08-13.645-14.16-28.32-21.498-44.025-7.337-15.704-13.774-31.023-19.567-45.827h-.772c1.03 18.15 1.802 36.173 2.317 54.194.515 17.894.772 36.559.772 55.611v255.526c0 2.446-.644 4.763-2.059 6.823-1.416 1.931-3.862 3.604-7.209 5.02s-7.981 2.446-13.774 3.218-13.259 1.159-22.27 1.159c-8.882 0-16.22-.386-22.012-1.159-5.793-.772-10.298-1.802-13.517-3.218-3.347-1.287-5.664-3.09-6.823-5.02-1.287-2.06-1.931-4.377-1.931-6.823v-438.706c0-11.843 3.476-20.725 10.427-26.647 6.823-5.922 15.319-8.882 25.488-8.882h53.165c9.526 0 17.636.772 24.201 2.446 6.565 1.673 12.358 4.377 17.507 8.11s10.041 9.011 14.546 15.705c4.506 6.565 9.14 14.933 13.903 24.716l94.873 178.546c5.535 10.813 10.942 21.498 16.348 31.925 5.407 10.427 10.685 20.854 15.576 31.281 5.02 10.427 9.912 20.725 14.675 30.766 4.892 10.17 9.526 20.21 14.031 30.251h.386c-.772-17.636-1.416-36.044-1.802-55.096-.386-19.181-.515-37.46-.515-54.838v-229.137c0-2.446.772-4.763 2.317-6.823 1.416-1.931 3.991-3.733 7.466-5.278 3.605-1.545 8.239-2.574 14.032-3.218s13.259-.901 22.27-.901c8.625 0 15.833.257 21.626.901s10.17 1.674 13.388 3.218c3.09 1.545 5.406 3.347 6.565 5.278 1.287 2.06 1.931 4.248 1.931 6.823v438.706z" fill="#cbe558" fill-rule="evenodd"/><g><path d="m463.796 14.168c-2.135-3.512-5.706-6.538-10.618-8.994-.048-.024-.096-.048-.145-.071-4.246-2.038-9.523-3.354-16.61-4.142-5.908-.655-13.131-.961-22.73-.961-10.039 0-17.467.306-23.375.962-6.916.769-12.433 2.066-16.865 3.965-.041.018-.082.036-.123.054-5.128 2.279-8.974 5.123-11.434 8.454-2.807 3.759-4.289 8.179-4.289 12.785v229.137c0 19.716.169 37.719.518 55.041.048 2.382.101 4.773.158 7.178-2.778-5.835-5.562-11.66-8.397-17.55-4.297-9.159-9.155-18.916-15.752-31.637-3.619-6.979-7.161-13.924-10.911-21.276-1.794-3.518-3.597-7.053-5.414-10.603-.023-.045-.047-.09-.07-.135l-94.79-178.391c-5.214-10.697-9.98-19.149-14.521-25.763-5.156-7.662-10.866-13.792-16.972-18.217-6.175-4.477-13.209-7.742-20.906-9.704-7.273-1.854-15.998-2.756-26.672-2.756h-53.166c-12.601 0-23.382 3.812-31.974 11.27-9.251 7.881-13.941 19.408-13.941 34.259v438.707c0 4.29 1.178 8.455 3.406 12.051 2.355 3.876 6.34 6.998 11.538 9.04 4.003 1.726 9.099 2.961 16.004 3.882 6.203.828 14.053 1.247 23.335 1.247 9.452 0 17.39-.419 23.592-1.247 7.055-.94 12.25-2.187 16.349-3.921 5.149-2.179 8.871-4.899 11.377-8.317.06-.082.118-.164.176-.248 2.499-3.635 3.82-7.953 3.82-12.488v-255.525c0-19.187-.262-37.994-.777-55.896-.017-.582-.033-1.165-.051-1.749 7.92 16.905 14.522 30.396 20.742 42.38l21.653 40.799c2.589 4.878 8.642 6.733 13.521 4.145 4.878-2.589 6.733-8.643 4.145-13.521l-21.61-40.717c-6.302-12.143-13.074-26.013-21.314-43.652-6.675-14.285-12.992-29.083-19.314-45.237-1.5-3.833-5.196-6.356-9.313-6.356h-.771c-2.75 0-5.38 1.133-7.269 3.132-1.889 2-2.871 4.688-2.716 7.435 1.022 18.026 1.798 36.166 2.305 53.916.511 17.714.77 36.327.77 55.323v255.524c0 .459-.076.742-.178.95-.25.225-1.064.87-2.988 1.684-2.341.99-6.109 1.837-11.198 2.516-5.33.71-12.378 1.071-20.949 1.071-8.4 0-15.361-.36-20.69-1.071-6.193-.826-9.297-1.793-10.81-2.459-.146-.064-.292-.125-.439-.181-1.222-.47-1.794-.901-1.974-1.055-.251-.429-.369-.894-.369-1.454v-438.707c0-8.846 2.261-15.073 6.981-19.095 4.988-4.33 11.182-6.434 18.934-6.434h53.165c8.86 0 16.172.719 21.731 2.136 5.313 1.354 9.928 3.486 14.107 6.517 4.199 3.044 8.276 7.482 12.17 13.267 3.991 5.815 8.418 13.7 13.157 23.435.052.106.105.211.16.315l94.836 178.478c1.801 3.518 3.589 7.022 5.366 10.508 3.6 7.058 7.322 14.357 10.973 21.396 6.471 12.478 11.221 22.016 15.443 31.015 4.983 10.35 9.773 20.435 14.674 30.763 4.536 9.43 9.089 19.247 13.919 30.011 1.613 3.594 5.186 5.906 9.124 5.906h.386c2.729 0 5.338-1.115 7.225-3.085 1.886-1.971 2.885-4.626 2.766-7.352-.855-19.525-1.441-37.471-1.794-54.859-.346-17.185-.514-35.057-.514-54.637v-229.139c0-.202.024-.432.343-.859.008-.009.786-.887 3.44-2.076 2.563-1.086 6.31-1.909 11.137-2.445 5.086-.565 12.01-.84 21.166-.84 8.723 0 15.436.275 20.521.84 4.6.511 7.996 1.272 10.098 2.262 1.646.832 2.323 1.446 2.492 1.615.27.436.398.779.398 1.503v438.707c0 4.289-.696 8.077-2.128 11.574-1.475 3.178-3.345 5.749-5.696 7.839-2.285 2.021-4.989 3.49-8.196 4.47-3.724 1.107-7.424 1.645-11.311 1.645h-42.353c-7.731 0-14.553-.748-20.279-2.222-4.907-1.421-9.537-3.977-13.762-7.6-.03-.025-.06-.05-.09-.076-4.591-3.844-9.06-9.267-13.699-16.642-4.71-7.368-10.253-17.412-16.473-29.852-.036-.072-.073-.145-.111-.216l-56.288-106.057c-2.589-4.879-8.644-6.735-13.521-4.145-4.878 2.589-6.733 8.643-4.145 13.521l56.23 105.949c6.603 13.198 12.313 23.525 17.418 31.511 5.715 9.084 11.507 16.029 17.706 21.229 6.448 5.518 13.632 9.434 21.353 11.64.076.022.153.043.23.063 7.394 1.922 15.949 2.896 25.431 2.896h42.352c5.845 0 11.409-.809 17.083-2.496 5.989-1.83 11.263-4.737 15.692-8.655 4.528-4.025 8.024-8.815 10.689-14.644.047-.104.093-.208.137-.312 2.475-5.941 3.729-12.476 3.729-19.422v-438.705c.001-4.351-1.145-8.406-3.406-12.052z"/><path d="m226.39 281.792h-.008c-5.522 0-9.996 4.477-9.996 10s4.481 10 10.004 10 10-4.477 10-10-4.477-10-10-10z"/></g></g></svg>