<svg id="Capa_1" enable-background="new 0 0 512 512" height="512" viewBox="0 0 512 512" width="512" xmlns="http://www.w3.org/2000/svg"><g><g><g><path d="m492.227 17.777v167.942c0 4.225-1.581 7.016-5.511 8.567-33.549 13.243-79.258 21.428-127.44 25.181-19.158 1.492-38.706 3.126-58.036 2.815-42.232-.68-83.423-5.484-117.224-14.833-6.247-1.728-12.317-.177-16.795 3.348-5.27 4.147-9.337 11.028-7.897 18.517 13.711 71.346 4.487 206.461-30.287 269.821-1.813 3.303-4.266 4.366-8.034 4.366l-30.003.999h-61.97c-5.676 0-10.277-4.601-10.277-10.277v-393.259c0-51.618 41.845-93.464 93.463-93.464h343.274l27.46 1c5.676 0 9.277 3.601 9.277 9.277z" fill="#fed2a4"/><g fill="#ffbd86"><path d="m160.32 229.31c13.71 71.35 4.49 206.46-30.28 269.82-1.82 3.31-5.27 5.37-9.04 5.37h-30c3.77 0 7.22-2.06 9.04-5.37 34.77-63.36 43.99-198.47 30.28-269.82-2.66-13.85 10.1-25.62 23.7-21.86 4.29 1.19 8.7 2.3 13.22 3.34-5.28 4.14-8.36 11.03-6.92 18.52z"/><path d="m493.23 17.78v167.94c0 4.22-2.58 8.01-6.51 9.57-47.86 18.89-120.46 28.48-189.69 26.91 59.61-1.38 118.71-10.74 159.69-26.91 3.93-1.56 6.51-5.35 6.51-9.57v-167.94c0-5.68-4.6-10.28-10.28-10.28h30c5.68 0 10.28 4.6 10.28 10.28z"/></g></g></g><g><g><path d="m18.763 290.482c-4.142 0-7.5-3.358-7.5-7.5v-182.019c0-55.671 45.292-100.963 100.964-100.963h370.733c9.802 0 17.777 7.975 17.777 17.777v89.213c0 4.142-3.358 7.5-7.5 7.5s-7.5-3.358-7.5-7.5v-89.213c0-1.531-1.246-2.777-2.777-2.777h-370.733c-47.4 0-85.963 38.563-85.963 85.963v182.018c-.001 4.143-3.359 7.501-7.501 7.501z"/></g><g><path d="m121.012 512h-91.972c-9.802 0-17.777-7.975-17.777-17.777v-178.55c0-4.142 3.358-7.5 7.5-7.5s7.5 3.358 7.5 7.5v178.55c0 1.531 1.246 2.777 2.777 2.777h91.972c1.018 0 1.961-.565 2.46-1.475 15.564-28.359 27.083-74.185 32.436-129.035 4.882-50.031 3.783-100.783-2.939-135.761-1.743-9.07 1.257-18.215 8.025-24.462 6.769-6.248 16.126-8.508 25.032-6.046 27.812 7.692 62.26 12.572 99.621 14.112 4.139.171 7.355 3.664 7.185 7.803-.171 4.139-3.647 7.36-7.803 7.185-38.486-1.587-74.103-6.65-103.001-14.643-3.926-1.085-7.885-.134-10.86 2.611-2.973 2.744-4.237 6.611-3.469 10.609 14.364 74.742 3.917 211.082-31.078 274.845-3.135 5.71-9.116 9.257-15.609 9.257z"/></g><g><path d="m318.019 229.836c-4.109 0-7.459-3.311-7.498-7.429-.04-4.142 3.287-7.532 7.428-7.571 63.4-.602 125.465-10.518 166.023-26.527 1.071-.423 1.764-1.441 1.764-2.591v-46.037c0-4.142 3.358-7.5 7.5-7.5s7.5 3.358 7.5 7.5v46.037c0 7.35-4.418 13.844-11.257 16.543-42.807 16.896-105.276 26.947-171.388 27.574-.024.001-.048.001-.072.001z"/></g><g><path d="m66.627 113.533c-4.142 0-7.5-3.358-7.5-7.5s3.358-7.5 7.5-7.5c15.201 0 27.567-12.367 27.567-27.567 0-4.142 3.358-7.5 7.5-7.5s7.5 3.358 7.5 7.5c0 23.472-19.096 42.567-42.567 42.567z"/></g></g></g></svg>