<svg id="Capa_1" enable-background="new 0 0 512 512" height="512" viewBox="0 0 512 512" width="512" xmlns="http://www.w3.org/2000/svg"><g><g><g><path d="m398.05 504.5h-300.007c-13.807 0-25-11.193-25-25v-447c0-13.807 11.193-25 25-25h275.007c13.807 0 25 11.193 25 25z" fill="#e9efff"/></g><g><path d="m398.05 397.686c-36.342 0-65.907 29.565-65.907 65.907 0 15.447 5.356 29.659 14.289 40.907h51.618z" fill="#d3dcfb"/></g><g><path d="m98.483 479.5v-447c0-13.807 11.193-25 25-25h-25.44c-13.807 0-25 11.193-25 25v447c0 13.807 11.193 25 25 25h25.44c-13.807 0-25-11.193-25-25z" fill="#d3dcfb"/></g><g><circle cx="156.63" cy="105.356" fill="#ffdd40" r="40.907"/></g><g><path d="m133.203 105.356c0-19.591 13.776-35.957 32.167-39.961-2.817-.613-5.739-.945-8.74-.945-22.592 0-40.907 18.315-40.907 40.907s18.315 40.907 40.907 40.907c3.001 0 5.923-.332 8.74-.946-18.391-4.005-32.167-20.371-32.167-39.962z" fill="#ffc043"/></g><g><circle cx="156.63" cy="256" fill="#ffdd40" r="40.907"/></g><g><path d="m133.203 256c0-19.591 13.776-35.957 32.167-39.961-2.817-.613-5.739-.945-8.74-.945-22.592 0-40.907 18.315-40.907 40.907s18.315 40.907 40.907 40.907c3.001 0 5.923-.332 8.74-.946-18.391-4.005-32.167-20.371-32.167-39.962z" fill="#ffc043"/></g><g><circle cx="156.63" cy="406.645" fill="#ffdd40" r="40.907"/></g><g><path d="m133.203 406.645c0-19.591 13.776-35.957 32.167-39.961-2.817-.613-5.739-.945-8.74-.945-22.592 0-40.907 18.315-40.907 40.907s18.315 40.907 40.907 40.907c3.001 0 5.923-.332 8.74-.946-18.391-4.005-32.167-20.371-32.167-39.962z" fill="#ffc043"/></g><g><circle cx="314.463" cy="105.356" fill="#ffdd40" r="40.907"/></g><g><path d="m291.036 105.356c0-19.591 13.776-35.957 32.167-39.961-2.817-.613-5.739-.945-8.74-.945-22.592 0-40.907 18.315-40.907 40.907s18.315 40.907 40.907 40.907c3.001 0 5.923-.332 8.74-.946-18.391-4.005-32.167-20.371-32.167-39.962z" fill="#ffc043"/></g><g><circle cx="314.463" cy="256" fill="#ffdd40" r="40.907"/></g><g><path d="m291.036 256c0-19.591 13.776-35.957 32.167-39.961-2.817-.613-5.739-.945-8.74-.945-22.592 0-40.907 18.315-40.907 40.907s18.315 40.907 40.907 40.907c3.001 0 5.923-.332 8.74-.946-18.391-4.005-32.167-20.371-32.167-39.962z" fill="#ffc043"/></g><g><circle cx="398.05" cy="463.593" fill="#ffdd40" r="40.907"/></g><g><path d="m374.623 463.593c0-19.591 13.776-35.957 32.167-39.961-2.817-.613-5.739-.945-8.74-.945-22.592 0-40.907 18.315-40.907 40.907s18.315 40.906 40.907 40.906c3.001 0 5.923-.332 8.74-.946-18.391-4.004-32.167-20.37-32.167-39.961z" fill="#ffc043"/></g><g><circle cx="314.463" cy="406.645" fill="#bac5e2" r="40.907"/></g><g><path d="m291.036 406.645c0-19.591 13.776-35.957 32.167-39.961-2.817-.613-5.739-.945-8.74-.945-22.592 0-40.907 18.315-40.907 40.907s18.315 40.907 40.907 40.907c3.001 0 5.923-.332 8.74-.946-18.391-4.005-32.167-20.371-32.167-39.962z" fill="#a7b4d1"/></g></g><g><path d="m73.043 155.18c4.143 0 7.5-3.358 7.5-7.5v-115.18c0-9.649 7.851-17.5 17.5-17.5h275.007c9.649 0 17.5 7.851 17.5 17.5v358.74c0 4.142 3.357 7.5 7.5 7.5s7.5-3.358 7.5-7.5v-358.74c0-17.92-14.579-32.5-32.5-32.5h-275.007c-17.921 0-32.5 14.58-32.5 32.5v115.18c0 4.142 3.358 7.5 7.5 7.5z"/><path d="m338.74 497h-240.697c-9.649 0-17.5-7.851-17.5-17.5v-299.22c0-4.142-3.357-7.5-7.5-7.5s-7.5 3.358-7.5 7.5v299.22c0 17.92 14.579 32.5 32.5 32.5h240.697c4.143 0 7.5-3.358 7.5-7.5s-3.358-7.5-7.5-7.5z"/><path d="m156.629 56.949c-26.691 0-48.406 21.715-48.406 48.407s21.715 48.407 48.406 48.407 48.407-21.715 48.407-48.407c.001-26.692-21.715-48.407-48.407-48.407zm0 15c6.5 0 12.567 1.872 17.704 5.096l-46.014 46.015c-3.224-5.137-5.096-11.204-5.096-17.704 0-18.421 14.986-33.407 33.406-33.407zm0 66.814c-6.499 0-12.566-1.872-17.703-5.096l46.014-46.015c3.224 5.137 5.096 11.204 5.096 17.704.001 18.42-14.986 33.407-33.407 33.407z"/><path d="m156.629 207.593c-26.691 0-48.406 21.715-48.406 48.407s21.715 48.407 48.406 48.407 48.407-21.715 48.407-48.407c.001-26.691-21.715-48.407-48.407-48.407zm0 15c6.5 0 12.567 1.872 17.704 5.096l-46.014 46.015c-3.224-5.137-5.096-11.204-5.096-17.704 0-18.42 14.986-33.407 33.406-33.407zm0 66.814c-6.499 0-12.566-1.872-17.703-5.096l46.014-46.015c3.224 5.137 5.096 11.204 5.096 17.704.001 18.421-14.986 33.407-33.407 33.407z"/><path d="m156.629 358.237c-26.691 0-48.406 21.715-48.406 48.407 0 26.691 21.715 48.407 48.406 48.407s48.407-21.715 48.407-48.407c.001-26.691-21.715-48.407-48.407-48.407zm0 15c6.5 0 12.567 1.872 17.704 5.096l-46.014 46.015c-3.224-5.137-5.096-11.204-5.096-17.704 0-18.42 14.986-33.407 33.406-33.407zm0 66.814c-6.499 0-12.566-1.872-17.703-5.096l46.014-46.015c3.224 5.137 5.096 11.204 5.096 17.704.001 18.421-14.986 33.407-33.407 33.407z"/><path d="m314.463 56.949c-26.691 0-48.407 21.715-48.407 48.407s21.716 48.407 48.407 48.407 48.407-21.715 48.407-48.407c.001-26.692-21.715-48.407-48.407-48.407zm0 15c6.5 0 12.567 1.872 17.704 5.096l-46.015 46.014c-3.224-5.137-5.096-11.204-5.096-17.704 0-18.42 14.986-33.406 33.407-33.406zm0 66.814c-6.5 0-12.567-1.872-17.704-5.096l46.015-46.015c3.224 5.137 5.096 11.204 5.096 17.704.001 18.42-14.986 33.407-33.407 33.407z"/><path d="m314.463 207.593c-26.691 0-48.407 21.715-48.407 48.407s21.716 48.407 48.407 48.407 48.407-21.715 48.407-48.407c.001-26.691-21.715-48.407-48.407-48.407zm0 15c6.5 0 12.567 1.872 17.704 5.096l-46.015 46.015c-3.224-5.137-5.096-11.204-5.096-17.704 0-18.42 14.986-33.407 33.407-33.407zm0 66.814c-6.5 0-12.567-1.872-17.704-5.096l46.015-46.015c3.224 5.137 5.097 11.204 5.097 17.704 0 18.421-14.987 33.407-33.408 33.407z"/><path d="m398.05 415.186c-26.691 0-48.407 21.715-48.407 48.407s21.716 48.407 48.407 48.407 48.406-21.715 48.406-48.407c.001-26.692-21.714-48.407-48.406-48.407zm0 15c6.5 0 12.567 1.872 17.704 5.097l-46.015 46.014c-3.224-5.137-5.096-11.204-5.096-17.704 0-18.421 14.986-33.407 33.407-33.407zm0 66.814c-6.5 0-12.567-1.872-17.704-5.096l46.015-46.014c3.224 5.137 5.096 11.204 5.096 17.703 0 18.421-14.987 33.407-33.407 33.407z"/><path d="m355.371 414.145c4.143 0 7.5-3.358 7.5-7.5 0-26.692-21.716-48.407-48.407-48.407s-48.407 21.715-48.407 48.407c0 26.691 21.716 48.407 48.407 48.407 5.07 0 10.069-.782 14.856-2.324 3.942-1.27 6.109-5.496 4.839-9.438-1.271-3.944-5.498-6.106-9.438-4.839-3.299 1.062-6.75 1.602-10.257 1.602-18.421 0-33.407-14.986-33.407-33.407s14.986-33.407 33.407-33.407 33.407 14.986 33.407 33.407c0 4.141 3.357 7.499 7.5 7.499z"/><path d="m228.046 64.449v383.103c0 4.142 3.357 7.5 7.5 7.5s7.5-3.358 7.5-7.5v-383.103c0-4.142-3.357-7.5-7.5-7.5s-7.5 3.358-7.5 7.5z"/></g></g></svg>