<svg id="Capa_1" enable-background="new 0 0 512.003 512.003" height="512" viewBox="0 0 512.003 512.003" width="512" xmlns="http://www.w3.org/2000/svg"><g><g><g><g><path d="" style="fill:#fff;stroke:#000;stroke-width:15;stroke-linecap:round;stroke-linejoin:round;stroke-miterlimit:10"/><g fill="#ffcebf"><path d="m220.898 495.189v-168.231c0-7.637-2.874-14.994-8.05-20.61l-13.444-14.585c-11.741-12.738-21.115-27.469-27.679-43.501l-30.558-74.627c-5.271-12.873 4.196-26.98 18.106-26.98h.421c6.436 0 12.382 3.003 16.137 8.095 7.901 10.714 21.82 29.586 30.302 41.088 2.291 3.107 7.217 1.483 7.217-2.377v-15.651-116.075c0-10.974 8.896-19.871 19.871-19.871 10.974 0 19.871 8.896 19.871 19.871v96.207-130.093c0-10.774 8.378-19.951 19.146-20.333 11.305-.402 20.595 8.642 20.595 19.855v130.572-96.208c0-10.974 8.896-19.871 19.871-19.871 10.974 0 19.871 8.896 19.871 19.871v96.207-61.336c0-10.543 8.002-19.641 18.523-20.336 6.015-.398 11.508 1.888 15.39 5.784 3.603 3.589 5.829 8.556 5.829 14.039v88.12c0 8.914-1.481 17.765-4.383 26.193l-20.461 59.429c-3.028 8.794-4.573 18.029-4.573 27.329v198.025"/><path d="m332.577 157.942v-61.336c0-10.543 8.002-19.641 18.523-20.336 6.015-.398 11.508 1.888 15.39 5.784 3.603 3.589 5.829 8.556 5.829 14.039v88.12c0 8.914-1.481 17.765-4.383 26.193l-20.461 59.429c-3.028 8.794-4.573 18.029-4.573 27.329v198.025"/><path d="m292.835 157.942v-96.207c0-10.974 8.896-19.871 19.871-19.871 10.974 0 19.871 8.896 19.871 19.871v96.207z"/></g><path d="m312.706 41.864c-3.624 0-7.01.986-9.936 2.68 5.934 3.437 9.935 9.84 9.935 17.191v93.685c0 5.487 4.448 9.935 9.935 9.935 5.487 0 9.935-4.448 9.935-9.935v-93.685c.002-10.975-8.895-19.871-19.869-19.871z" fill="#ffb09e"/><path d="m253.094 157.942v-130.093c0-10.774 8.378-19.951 19.146-20.333 11.305-.402 20.595 8.642 20.595 19.855v130.572h-39.741z" fill="#ffcebf"/><path d="m272.24 7.516c-3.349.119-6.466 1.091-9.173 2.695 5.911 3.442 9.898 9.827 9.898 17.16v128.05c0 5.487 4.448 9.935 9.935 9.935 5.487 0 9.935-4.448 9.935-9.935v-128.051c0-11.213-9.291-20.256-20.595-19.854z" fill="#ffb09e"/><path d="m213.352 157.942v-96.207c0-10.974 8.896-19.871 19.871-19.871 10.974 0 19.871 8.896 19.871 19.871v96.207z" fill="#ffcebf"/><path d="m233.223 41.864c-3.624 0-7.01.986-9.936 2.68 5.934 3.437 9.936 9.84 9.936 17.191v93.685c0 5.487 4.448 9.935 9.935 9.935 5.487 0 9.935-4.448 9.935-9.935v-93.685c.001-10.974-8.896-19.871-19.87-19.871z" fill="#ffb09e"/><g><path d="m366.49 82.053c-3.882-3.896-9.375-6.181-15.39-5.784-3.888.257-7.428 1.667-10.351 3.868.976.68 1.893 1.44 2.73 2.28 3.603 3.589 5.829 8.556 5.829 14.039v88.12c0 8.914-1.481 17.765-4.383 26.193l-20.461 59.429c-3.028 8.794-4.573 18.029-4.573 27.329v197.661h23.011v-198.023c0-9.3 1.545-18.536 4.573-27.329l20.461-59.429c2.902-8.428 4.383-17.28 4.383-26.193v-88.12c-.001-5.485-2.226-10.452-5.829-14.041z" fill="#ffb09e"/></g></g><path d="m367.758 502.003v-148.61c0-11.046-8.954-20-20-20h-131.717c-11.046 0-20 8.954-20 20v148.609c0 5.523 4.477 10 10 10h151.716c5.524.001 10.001-4.476 10.001-9.999z" fill="#aee69c"/><path d="m347.758 333.393h-30c11.046 0 20 8.954 20 20v148.609c0 5.523-4.477 10-10 10h30c5.523 0 10-4.477 10-10v-148.609c0-11.045-8.954-20-20-20z" fill="#89daa4"/></g><path d="m224.451 85.318-2.333.742c-16.322 5.193-29.11 17.982-34.303 34.303l-.742 2.333c-1.136 3.572-6.19 3.572-7.327 0l-.742-2.333c-5.193-16.322-17.982-29.11-34.303-34.303l-2.333-.742c-3.572-1.136-3.572-6.19 0-7.327l2.333-.742c16.322-5.193 29.11-17.982 34.303-34.303l.742-2.333c1.136-3.572 6.19-3.572 7.327 0l.742 2.333c5.193 16.322 17.982 29.11 34.303 34.303l2.333.742c3.572 1.137 3.572 6.191 0 7.327z" fill="#ffe179"/><path d="m224.451 77.992-2.335-.743c-16.321-5.194-29.108-17.981-34.301-34.302l-.742-2.333c-1.136-3.572-6.19-3.572-7.327 0l-.742 2.333c-2.233 7.017-5.877 13.375-10.594 18.763 6.256 7.144 14.404 12.58 23.709 15.54 4.295 1.367 4.295 7.444 0 8.811-9.305 2.961-17.453 8.396-23.709 15.54 4.718 5.388 8.362 11.746 10.594 18.763l.742 2.333c1.136 3.572 6.19 3.572 7.327 0l.742-2.333c5.193-16.321 17.981-29.11 34.302-34.303l2.334-.743c3.572-1.136 3.572-6.19 0-7.326z" fill="#fbd268"/></g><path d="m196.042 448.589c-4.143 0-7.5 3.358-7.5 7.5v48.414c0 4.142 3.357 7.5 7.5 7.5s7.5-3.358 7.5-7.5v-48.414c0-4.142-3.358-7.5-7.5-7.5zm176.271-325.125c4.143 0 7.5-3.358 7.5-7.5v-19.871c.082-15.652-13.707-28.319-29.2-27.304-3.78.248-7.341 1.288-10.539 2.945v-10.001c.068-14.966-12.517-27.37-27.37-27.37-4.45 0-8.652 1.074-12.37 2.967v-9.957c.074-15.364-13.134-27.907-28.361-27.355-14.792.536-26.379 12.763-26.379 27.835v9.458c-3.788-1.924-7.999-2.949-12.37-2.949-14.121 0-25.777 10.75-27.218 24.496-5.005-5.036-8.833-11.242-11.042-18.186l-.743-2.334c-1.505-4.728-5.849-7.904-10.811-7.904-4.961 0-9.305 3.176-10.811 7.905l-.741 2.333c-4.448 13.98-15.45 24.982-29.43 29.43l-2.333.742c-4.729 1.504-7.905 5.849-7.905 10.811 0 4.961 3.177 9.306 7.905 10.81l2.332.742c13.98 4.448 24.982 15.45 29.431 29.43l.742 2.333c1.504 4.728 5.849 7.904 10.81 7.904 4.962 0 9.307-3.176 10.811-7.905l.742-2.333c2.187-6.872 5.963-13.017 10.892-18.025v78.208c-7.993-10.843-17.724-24.033-23.879-32.377l-.108-.146c-5.154-6.978-13.442-11.144-22.172-11.144h-.421c-9.037 0-17.439 4.48-22.476 11.986-5.036 7.504-5.998 16.976-2.574 25.336l30.561 74.632c6.934 16.917 16.726 32.305 29.104 45.737l13.445 14.597c3.698 4.005 5.799 9.156 6.017 14.586-13.904 1.357-24.808 13.111-24.808 27.367v67.695c0 4.142 3.357 7.5 7.5 7.5s7.5-3.358 7.5-7.5v-67.695c0-6.893 5.607-12.5 12.5-12.5h131.716c6.893 0 12.5 5.607 12.5 12.5v151.109c0 4.142 3.357 7.5 7.5 7.5s7.5-3.358 7.5-7.5v-151.109c0-14.271-10.928-26.034-24.854-27.37v-28.86c0-8.495 1.4-16.869 4.161-24.889l20.459-59.429c3.178-9.225 4.789-18.858 4.789-28.633v-33.249c0-4.142-3.357-7.5-7.5-7.5s-7.5 3.358-7.5 7.5v33.249c0 8.108-1.336 16.098-3.972 23.749l-20.46 59.43c-3.303 9.595-4.978 19.611-4.978 29.771v28.73h-107.036c-.254-9.166-3.781-17.876-10.009-24.622l-13.44-14.592c-11.168-12.118-20.001-26-26.256-41.26l-30.56-74.63c-1.549-3.782-1.13-7.898 1.148-11.293 2.279-3.396 5.932-5.344 10.021-5.344h.421c4.05 0 7.733 1.843 10.104 5.052l.104.143c7.918 10.733 21.751 29.486 30.198 40.951 1.555 2.105 3.723 3.55 6.115 4.227.06.018.117.042.178.058 9.552 2.607 33.024 11.133 44.647 33.931 3.114 6.112 5.142 12.799 6.024 19.875.516 4.138 4.323 7.019 8.371 6.514 4.11-.513 7.026-4.26 6.514-8.371-1.099-8.809-3.638-17.163-7.546-24.831-10.965-21.51-30.049-32.602-43.56-38.036.001-.069.008-.136.008-.205v-98.94c1.159-.479 2.333-.928 3.538-1.312l2.333-.742c4.729-1.504 7.905-5.849 7.905-10.81 0-4.962-3.177-9.306-7.905-10.811l-2.332-.742c-1.206-.384-2.38-.833-3.539-1.312v-7.058c0-6.821 5.549-12.37 12.37-12.37 6.713 0 12.407 5.649 12.37 12.37v96.21c0 4.142 3.357 7.5 7.5 7.5s7.5-3.358 7.5-7.5v-130.089c0-6.845 5.348-12.607 11.916-12.845 6.876-.249 12.867 5.446 12.824 12.365v130.57c0 4.142 3.357 7.5 7.5 7.5s7.5-3.358 7.5-7.5v-96.21c0-6.821 5.549-12.37 12.37-12.37 6.713 0 12.407 5.636 12.37 12.37v96.21c0 4.142 3.357 7.5 7.5 7.5s7.5-3.358 7.5-7.5v-61.34c0-6.78 5.06-12.423 11.527-12.847 7.017-.46 13.251 5.26 13.212 12.336v19.871c.003 4.143 3.361 7.501 7.503 7.501zm-188.904-12.421c-6-12.949-16.438-23.388-29.388-29.388 12.949-6.001 23.388-16.44 29.388-29.389 6.011 12.972 16.49 23.375 29.389 29.388-12.797 5.934-23.461 16.599-29.389 29.389z"/></g></svg>