<svg id="Capa_1" enable-background="new 0 0 512.003 512.003" height="512" viewBox="0 0 512.003 512.003" width="512" xmlns="http://www.w3.org/2000/svg"><g><g><path d="m201.132 374.176c.795 2.822 1.199 5.74 1.199 8.672v101.96s.792 13.617 12.387 16.736c4.96-3.241 8.244-8.833 8.244-15.201v-108.934c0-1.681-.233-3.353-.694-4.969l-31.564-110.917h-3.54l-4.096 48.584z" fill="#60b9fe"/><path d="m204.807 504.5c4.347 0 8.334-1.532 11.46-4.08-11.167-3.346-11.935-16.612-11.935-16.612v-101.96c0-2.932-.404-5.85-1.199-8.672l-19.539-69.301-4.262 50.554 2.592 8.902 4.727 16.61v106.402c-.001 10.028 8.128 18.157 18.156 18.157z" fill="#1ca8ff"/><path d="m398.29 370.804-3.159-2.948h-56.111l-4.646 36.313h65.404l1.887-2.24z" fill="#8479c2"/><path d="m339.346 367.856h-36.379l-3.552 1.849-3.5 31.974 2.406 2.49h36.378z" fill="#6353b2"/><path d="m446.608 484.039-27.043-211.332c-1.16-9.063-8.874-15.852-18.01-15.852h-69.935l-13.902.028-5.803 34.546 1.729 1.91c.262-.108.547-.17.846-.17h69.12c1.123 0 2.071.835 2.214 1.948l24.765 193.531c1.173 9.164 8.986 15.854 17.987 15.854.767 0 1.545-.048 2.327-.148 9.946-1.273 16.978-10.368 15.705-20.315z" fill="#dbedff"/><g><path d="m313.643 293.339 2.64-20.631c1.16-9.063 8.874-15.852 18.01-15.852h-2.673l-36.641.073c-8.438.724-15.353 7.24-16.446 15.78l-27.043 211.332c-1.273 9.946 5.759 19.041 15.705 20.314 9.943 1.27 19.042-5.76 20.315-15.705l24.765-193.531c.105-.819.646-1.483 1.368-1.78z" fill="#b5dcff"/></g><path d="m171.988 258.52c-.713 1.992-1.163 4.069-1.34 6.178l-8.022 95.665c-.409 4.882-2.279 9.528-5.365 13.332l-73.597 90.734s-6 10.337-2.3 19.206c.843.119 1.69.192 2.537.192 5.201 0 10.367-2.225 13.958-6.534l79.25-95.099c2.416-2.9 3.869-6.48 4.156-10.243l7.94-104.094c.197-2.584.863-5.112 1.965-7.458l27.6-58.748 1.019-5.223-9.686-44.488z" fill="#1ca8ff"/><path d="m200.581 108.2-.529-.503-45.858 147.533c-.394 1.283-.643 2.606-.745 3.944l-7.95 104.231-75.536 90.642c-6.42 7.703-5.378 19.152 2.325 25.571 3.266 2.721 7.204 4.088 11.147 4.189-3.852-8.907 2.229-19.379 2.229-19.379l73.597-90.734c3.086-3.805 4.956-8.451 5.365-13.332l8.022-95.665c.177-2.109.627-4.185 1.34-6.178l36.873-103.103z" fill="#0094fd"/><path d="m218.167 90.478c-1.871 3.603-2.569 7.845-1.687 12.132l20.365 99.042c1.105 5.381 4.567 9.983 9.429 12.539l78.52 41.279c2.078 1.093 4.27 1.711 6.47 1.957.31-.475.605-.964.874-1.477 4.666-8.875 1.253-19.853-7.622-24.519l-68.174-35.841c-1.239-.651-2.121-1.824-2.402-3.195l-17.985-87.471c-1.813-8.822-9.736-14.798-18.455-14.468.222.007.446.009.667.022z" fill="#60b9fe"/><path d="" fill="#60b9fe"/><path d="m324.867 253.822-77.736-40.867c-4.813-2.531-8.24-7.086-9.335-12.414l-20.161-98.053c-.873-4.244-.182-8.443 1.67-12.01-1.571-.098-3.177-.012-4.793.319-9.822 2.02-16.147 11.62-14.127 21.441l20.161 98.053c1.094 5.328 4.521 9.883 9.335 12.414l77.736 40.867c8.872 4.666 19.852 1.256 24.521-7.622.015-.029.026-.059.041-.088-2.482-.154-4.97-.808-7.312-2.04z" fill="#1ca8ff"/><path d="m258.725 10.331c-10.439 5.267-17.607 16.072-17.607 28.563s7.168 23.295 17.607 28.563c10.835-4.949 18.369-15.873 18.369-28.563 0-12.691-7.534-23.614-18.369-28.563z" fill="#60b9fe"/><path d="m241.457 38.894c0-12.476 7.278-23.251 17.819-28.314-4.108-1.973-8.712-3.08-13.575-3.08-17.338 0-31.393 14.055-31.393 31.394 0 17.338 14.055 31.394 31.393 31.394 4.862 0 9.466-1.106 13.575-3.08-10.542-5.064-17.819-15.839-17.819-28.314z" fill="#1ca8ff"/></g><g><path d="m206.554 38.894c0 21.446 17.447 38.894 38.894 38.894s38.894-17.448 38.894-38.894-17.448-38.894-38.894-38.894-38.894 17.448-38.894 38.894zm62.787 0c0 13.175-10.719 23.894-23.894 23.894s-23.894-10.719-23.894-23.894 10.72-23.894 23.895-23.894 23.893 10.719 23.893 23.894z"/><path d="m402.896 489.601c1.635 12.771 12.565 22.402 25.427 22.401 15.511 0 27.434-13.584 25.472-28.915l-10.305-80.527c-.525-4.109-4.282-7.007-8.392-6.487-4.108.526-7.013 4.283-6.487 8.392l10.305 80.528c.813 6.351-4.116 12.01-10.593 12.01-5.335 0-9.869-4-10.548-9.306-1.033-8.074-23.848-186.367-25.015-195.48-.479-3.744-3.665-6.548-7.439-6.548h-73.049c-3.774 0-6.96 2.804-7.439 6.548-.807 6.304-24.104 188.367-25.015 195.48-.745 5.827-6.095 9.966-11.923 9.217-5.855-.749-9.964-6.092-9.218-11.922l27.043-211.332c.549-4.292 3.684-7.795 7.75-8.919l10.403 5.469c10.614 5.581 23.566 3.007 31.274-5.854h66.156c5.348 0 9.892 4 10.57 9.304l12.26 95.804c.525 4.109 4.286 7.012 8.392 6.487 4.108-.526 7.013-4.283 6.487-8.392l-12.26-95.804c-1.634-12.77-12.574-22.4-25.449-22.4h-59.906c.7-9.858-4.351-19.678-13.643-24.563l-66.99-35.218-17.716-86.159c-2.847-13.851-16.435-22.81-30.299-19.964-11.367 2.337-19.43 11.906-20.39 22.918l-45.587 146.662c-.556 1.812-.91 3.688-1.054 5.573l-7.768 101.842-74.002 88.801c-9.077 10.89-7.61 27.055 3.286 36.135 10.84 9.034 27.026 7.645 36.134-3.286l75.528-90.633v94.881c0 14.147 11.51 25.656 25.657 25.656 14.146 0 25.656-11.509 25.656-25.656v-108.935c0-2.376-.33-4.739-.98-7.022l-30.819-108.298 18.944-40.322c2.278 3.121 5.259 5.725 8.783 7.578l52.179 27.432c-3.994 3.934-6.73 9.151-7.476 14.98l-27.043 211.331c-1.8 14.063 8.123 26.905 22.194 28.706 14.05 1.797 26.91-8.164 28.704-22.192l9.973-77.932h26.627c4.143 0 7.5-3.358 7.5-7.5s-3.357-7.5-7.5-7.5h-24.708l2.727-21.313h78.96l2.727 21.313h-24.708c-4.143 0-7.5 3.358-7.5 7.5s3.357 7.5 7.5 7.5h26.627zm-231.801-112.207-79.25 95.099c-3.738 4.487-10.45 5.164-15.008 1.365-4.523-3.769-5.138-10.482-1.365-15.009l75.536-90.643c.998-1.198 1.598-2.676 1.717-4.231l7.945-104.17c.183-1.472.193-1.318.455-2.417l36.832-118.492 12.712 61.825-26.54 56.491c-1.541 3.282-2.401 6.761-2.654 10.075l-7.282 95.474v.006l-.657 8.614c-.17 2.222-1.014 4.301-2.441 6.013zm43.708-2.899c.271.947.407 1.927.407 2.914v108.935c0 5.876-4.78 10.656-10.656 10.656s-10.657-4.78-10.657-10.656v-106.402c0-.694-.097-1.385-.286-2.053l-4.36-15.321 4.684-61.406 20.868 73.33zm12.837-165.715c-2.388-11.613-20.023-97.383-20.16-98.052-.001-.001-.001-.003-.001-.004-1.157-5.595 2.42-11.373 8.286-12.579 5.746-1.18 11.404 2.527 12.589 8.292l18.431 89.636c.453 2.2 1.868 4.083 3.856 5.128l70.132 36.87c5.2 2.734 7.207 9.19 4.473 14.391-2.642 5.028-9.038 7.288-14.392 4.473-11.495-6.043-67.805-35.646-77.735-40.867-2.837-1.493-4.834-4.148-5.479-7.288zm83.596 151.576 7.638-59.688h59.846l7.638 59.688z"/></g></g></svg>