<svg id="Capa_1" enable-background="new 0 0 512 512" height="512" viewBox="0 0 512 512" width="512" xmlns="http://www.w3.org/2000/svg"><g><g><g><path d="m503.49 408.054v.011c0 31.293-18.779 56.965-46.527 67.195-7.826 2.887-16.3 4.467-25.135 4.467l-27.088 1h-371.138c-14.421 0-26.112-11.691-26.112-26.112 0-14.415 11.686-26.101 26.101-26.101 14.292 0 28.448-2.789 41.672-8.21l163.011-66.823c18.191-7.928 33.436-20.455 44.613-35.866 15.422-21.265 22.206-47.592 19.854-73.755l-18.135-201.692c-.526-5.853 4.083-10.896 9.96-10.896h143.924l27.534 1c5.876 0 9.486 4.042 8.96 9.895l-17.203 191.433c-4.13 45.958 6.602 92.214 31.501 131.062.686 1.07 1.381 2.135 2.086 3.194 7.66 11.513 12.122 25.334 12.122 40.198z" fill="#fed2a4"/><path d="m504.49 408.05v.02c0 31.29-19.78 57.96-47.53 68.19-7.82 2.89-16.3 4.47-25.13 4.47h-30c8.83 0 17.31-1.58 25.13-4.47 27.75-10.23 47.53-36.9 47.53-68.19v-.02c0-14.86-4.46-28.68-12.12-40.19-.71-1.06-1.4-2.13-2.09-3.2-24.9-38.85-35.63-85.1-31.5-131.06l17.2-191.43c.53-5.86-4.08-10.9-9.96-10.9h30c5.88 0 10.49 5.04 9.96 10.9l-17.2 191.43c-4.13 45.96 6.6 92.21 31.5 131.06.69 1.07 1.38 2.14 2.09 3.2 7.66 11.51 12.12 25.33 12.12 40.19z" fill="#ffbd86"/></g></g><g><g><path d="m200.081 376.645c-2.954 0-5.753-1.755-6.942-4.657-1.571-3.832.262-8.213 4.095-9.784l38.127-15.629c16.536-7.223 30.873-18.758 41.465-33.362 14.131-19.485 20.685-43.876 18.455-68.68l-18.135-201.694c-.439-4.881 1.206-9.756 4.513-13.374s8.015-5.693 12.917-5.693h171.458c4.901 0 9.609 2.075 12.917 5.693 3.307 3.618 4.952 8.493 4.513 13.374l-9.247 102.897c-.37 4.125-4.026 7.169-8.141 6.798-4.126-.371-7.17-4.016-6.799-8.141l9.247-102.897c.086-.955-.367-1.606-.645-1.91s-.887-.813-1.846-.813h-171.457c-.959 0-1.568.509-1.846.813-.277.304-.73.956-.645 1.911l18.135 201.692c2.555 28.414-4.992 56.41-21.252 78.83-12.179 16.791-28.669 30.049-47.687 38.338-.05.022-.101.043-.152.064l-38.206 15.662c-.93.381-1.894.562-2.842.562z"/></g><g><path d="m179.402 488.228h-145.79c-18.533 0-33.612-15.079-33.612-33.613 0-18.528 15.073-33.602 33.601-33.602 13.383 0 26.446-2.574 38.828-7.649l94.561-38.763c3.835-1.571 8.213.263 9.784 4.095 1.571 3.833-.262 8.213-4.095 9.784l-94.56 38.763c-14.195 5.82-29.173 8.77-44.517 8.77-10.257 0-18.602 8.345-18.602 18.602 0 10.263 8.35 18.612 18.612 18.612h145.79c4.142 0 7.5 3.358 7.5 7.5 0 4.143-3.358 7.501-7.5 7.501z"/></g><g><path d="m431.838 488.228h-219.749c-4.142 0-7.5-3.358-7.5-7.5s3.358-7.5 7.5-7.5h219.749c7.753 0 15.336-1.347 22.541-4.004 25.493-9.4 42.621-33.977 42.621-61.158 0-12.906-3.758-25.37-10.866-36.055-.729-1.095-1.448-2.196-2.157-3.303-25.37-39.583-36.968-87.804-32.655-135.779l5.03-55.981c.37-4.125 4.008-7.171 8.141-6.798 4.126.371 7.17 4.016 6.799 8.141l-5.03 55.981c-4.016 44.677 6.762 89.547 30.346 126.344.663 1.035 1.335 2.063 2.016 3.086 8.75 13.155 13.376 28.492 13.376 44.352 0 33.447-21.07 63.681-52.432 75.243-8.871 3.272-18.201 4.931-27.73 4.931z"/></g><g><path d="m377.905 337.933c-19.143 0-34.717-15.574-34.717-34.717 0-4.142 3.357-7.5 7.5-7.5s7.5 3.358 7.5 7.5c0 10.872 8.845 19.717 19.717 19.717s19.717-8.845 19.717-19.717c0-4.142 3.357-7.5 7.5-7.5 4.142 0 7.5 3.358 7.5 7.5 0 19.144-15.574 34.717-34.717 34.717z"/></g></g></g></svg>