<svg id="Capa_1" enable-background="new 0 0 512 512" height="512" viewBox="0 0 512 512" width="512" xmlns="http://www.w3.org/2000/svg"><g><g><g><path d="m283.981 74.714-16.316 5.493c-12.268 4.13-25.55 4.13-37.818 0l-16.316-5.493c-40.445-13.616-85.1-.959-112.384 31.856-25.103 30.191-30.919 72.005-15.007 107.9l28.467 64.219c8.542 19.27 13.925 39.79 15.943 60.772l14.305 148.762c.888 9.231 8.644 16.277 17.917 16.277h14.408c8.57 0 15.952-6.042 17.645-14.443l26.372-130.832c2.645-13.121 14.174-22.558 27.558-22.558 13.385 0 24.913 9.437 27.558 22.558l26.373 130.832c1.693 8.401 9.075 14.443 17.645 14.443h14.408c9.274 0 17.03-7.046 17.917-16.277l14.305-148.762c2.018-20.982 7.401-41.502 15.943-60.772l28.467-64.219c15.912-35.896 10.096-77.709-15.007-107.9-27.283-32.815-71.938-45.473-112.383-31.856z" fill="#e9efff"/></g><g><path d="m171.494 488.223-14.305-148.762c-2.018-20.982-7.401-41.502-15.943-60.772l-28.466-64.219c-15.912-35.896-10.096-77.709 15.007-107.9 17.019-20.469 40.798-33.093 66.098-36.391-34.642-4.508-69.819 8.826-92.738 36.391-25.103 30.191-30.919 72.005-15.007 107.9l28.467 64.219c8.542 19.27 13.925 39.79 15.943 60.772l14.305 148.762c.888 9.231 8.644 16.277 17.917 16.277h14.408c2.144 0 4.213-.378 6.138-1.077-6.382-2.299-11.141-8.095-11.824-15.2z" fill="#d3dcfb"/></g><g><path d="m329.326 490.057-26.373-130.832c-2.645-13.121-14.174-22.557-27.558-22.557-4.788 0-9.329 1.225-13.32 3.377 7.166 3.864 12.54 10.753 14.238 19.181l26.373 130.832c1.693 8.401 9.075 14.443 17.645 14.443h14.408c2.136 0 4.184-.389 6.094-1.077-5.769-2.095-10.237-7.068-11.507-13.367z" fill="#d3dcfb"/></g><g><path d="m396.365 106.569c-26.317-31.651-68.793-44.54-108.066-33.196 1.838 11.595 10.035 21.248 21.551 24.821l19.153 5.943c3.539 1.098 6.352 3.801 7.592 7.292l7.434 20.943c4.072 13.126 16.041 21.945 29.784 21.946h.001c13.742 0 25.714-8.819 29.788-21.947l3.276-10.558c-3.01-5.328-6.515-10.434-10.513-15.244z" fill="#d3dcfb"/></g><g><path d="m405.593 82.006c8.428-2.615 17.266-5.357 24.779-7.688 5.805-1.801 5.802-10.017-.003-11.818l-24.773-7.686c-8.687-2.695-15.489-9.496-18.184-18.183-2.615-8.427-5.357-17.265-7.688-24.778-1.801-5.805-10.017-5.802-11.818.003l-7.686 24.773c-2.695 8.687-9.497 15.489-18.184 18.184l-24.777 7.687c-5.804 1.801-5.804 10.016 0 11.817l24.775 7.687c8.688 2.696 15.49 9.495 18.185 18.183 2.573 8.292 5.332 17.185 7.688 24.778 1.801 5.805 10.017 5.802 11.818-.003l7.686-24.773c2.696-8.687 9.495-15.488 18.182-18.183z" fill="#ffdd40"/></g><g><path d="m377.979 100.188c-2.696-8.688-9.497-15.488-18.185-18.183l-24.775-7.687c-5.804-1.801-5.804-10.016 0-11.817l24.777-7.687c8.687-2.695 15.489-9.497 18.184-18.184l4.716-15.2c-1.033-3.329-2.036-6.562-2.971-9.577-1.801-5.805-10.017-5.802-11.818.003l-7.686 24.773c-2.695 8.687-9.497 15.489-18.184 18.184l-24.777 7.687c-5.804 1.801-5.804 10.016 0 11.817l24.775 7.687c8.688 2.696 15.49 9.495 18.185 18.183 2.573 8.292 5.332 17.185 7.688 24.778 1.801 5.805 10.017 5.802 11.818-.003l2.97-9.574c-1.555-5.009-3.169-10.212-4.717-15.2z" fill="#ffc043"/></g></g><g><path d="m407.393 122.163c-3.754 1.75-5.379 6.212-3.629 9.967 11.695 25.088 11.97 53.992.751 79.301l-28.467 64.219c-8.884 20.041-14.453 41.269-16.553 63.094l-14.305 148.762c-.521 5.413-5.014 9.495-10.451 9.495h-14.408c-4.98 0-9.31-3.543-10.293-8.425l-26.373-130.833c-3.338-16.558-18.021-28.575-34.91-28.575s-31.572 12.018-34.911 28.576l-26.372 130.832c-.983 4.882-5.312 8.425-10.293 8.425h-14.408c-5.438 0-9.931-4.082-10.451-9.495l-8.146-84.711c-.396-4.124-4.059-7.147-8.184-6.748-4.123.396-7.145 4.061-6.748 8.184l8.146 84.711c1.265 13.145 12.177 23.058 25.383 23.058h14.408c12.095 0 22.608-8.605 24.998-20.461l26.371-130.832c1.933-9.584 10.431-16.54 20.207-16.54s18.274 6.956 20.206 16.54l26.372 130.832c2.39 11.856 12.903 20.461 24.998 20.461h14.408c13.206 0 24.118-9.913 25.383-23.059l14.305-148.762c1.945-20.219 7.104-39.885 15.334-58.451l28.467-64.22c12.975-29.271 12.658-62.701-.868-91.717-1.75-3.753-6.212-5.378-9.967-3.628z"/><path d="m134.244 377.886c4.123-.396 7.145-4.061 6.748-8.184l-2.977-30.959c-2.099-21.822-7.668-43.05-16.553-63.094l-28.467-64.219c-14.86-33.525-9.527-71.869 13.917-100.066 25.113-30.203 66.999-42.076 104.225-29.542l16.315 5.493c13.739 4.625 28.869 4.626 42.604 0l16.316-5.493c3.926-1.322 6.037-5.575 4.716-9.501-1.322-3.925-5.575-6.037-9.501-4.715l-16.317 5.493c-10.65 3.586-22.382 3.586-33.032 0l-16.316-5.493c-21.286-7.167-43.957-7.716-65.564-1.592-21.608 6.125-40.62 18.491-54.979 35.76-13.211 15.889-21.699 35.106-24.546 55.573-2.846 20.467.075 41.271 8.449 60.162l28.467 64.219c8.231 18.569 13.391 38.234 15.334 58.45l2.977 30.959c.373 3.879 3.638 6.783 7.457 6.783.241.001.483-.01.727-.034z"/><path d="m280.844 112.946c-.109.071-11.185 7.132-32.089 7.132s-31.979-7.061-32.035-7.096c-3.431-2.323-8.094-1.424-10.415 2.005-2.322 3.43-1.425 8.093 2.005 10.416.584.395 14.587 9.675 40.445 9.675s39.861-9.28 40.445-9.675c3.43-2.322 4.354-7.003 2.032-10.433-2.321-3.431-6.958-4.345-10.388-2.024z"/><path d="m432.591 55.336-24.773-7.687c-6.329-1.964-11.279-6.914-13.243-13.243l-7.688-24.778c-1.788-5.759-7.041-9.628-13.071-9.628-6.032 0-11.286 3.872-13.073 9.633l-7.687 24.773c-1.964 6.329-6.914 11.28-13.243 13.244l-24.777 7.688c-5.76 1.787-9.63 7.041-9.63 13.071 0 6.032 3.87 11.285 9.63 13.072l24.775 7.687c6.33 1.964 11.281 6.915 13.245 13.242l7.688 24.778c1.786 5.76 7.039 9.63 13.069 9.63h.001c6.032 0 11.286-3.871 13.074-9.632l7.687-24.774c1.964-6.329 6.914-11.279 13.241-13.243l24.779-7.688c5.76-1.787 9.629-7.039 9.629-13.069 0-6.034-3.871-11.288-9.633-13.076zm-29.22 19.507c-11.05 3.428-19.693 12.072-23.122 23.124l-6.433 20.734-6.434-20.736c-3.43-11.05-12.074-19.694-23.126-23.123l-20.731-6.433 20.733-6.433c11.051-3.429 19.695-12.074 23.124-23.125l6.433-20.734 6.434 20.735c3.429 11.05 12.073 19.695 23.124 23.124l20.733 6.433z"/></g></g></svg>