<svg id="Capa_1" enable-background="new 0 0 511.988 511.988" height="512" viewBox="0 0 511.988 511.988" width="512" xmlns="http://www.w3.org/2000/svg"><g><g><path d="m34.031 493.402c7.322-7.322 44.775-54.775 44.775-54.775l-25.91-5.91s-32.452 32.452-39.775 39.775c-5.435 5.435-6.827 13.375-4.193 20.103 7.322 7.322 19.667 6.242 25.103.807z" fill="#87a0af"/><path d="m78.805 438.627s-42.452 42.452-49.775 49.775c-5.435 5.435-13.375 6.827-20.103 4.193.914 2.335 2.306 4.527 4.193 6.414 7.322 7.322 19.194 7.322 26.517 0 7.322-7.322 39.775-39.775 39.775-39.775z" fill="#607882"/><path d="m151.657 402.292 335.83-335.83c12.895-12.895 17.475-35.574.29-52.759-14.557-9.625-34.345-8.039-47.165 4.781l-336.382 336.382c-11.103 11.103-19.836 24.346-25.667 38.926-5.832 14.579-14.564 27.822-25.668 38.926l15.91 15.91c11.103-11.103 29.346-14.836 43.926-20.667 14.579-5.833 27.822-14.566 38.926-25.669z" fill="#eef9fa"/><path d="m494.379 19.239c-2.028-2.142-4.25-3.981-6.603-5.537 9.686 14.73 7.605 34.864-5.29 47.759l-335.83 335.83c-11.103 11.103-24.346 19.836-38.926 25.667-14.579 5.832-27.822 14.564-38.926 25.667l10.607 10.607c11.103-11.103 24.346-19.836 38.926-25.668 14.579-5.832 27.822-14.564 38.926-25.667l335.83-335.829c14.449-14.448 15.334-37.99 1.286-52.829z" fill="#dcf2f6"/></g><g><path d="m26.379 511.988c-6.722 0-13.443-2.559-18.562-7.676-4.958-4.958-7.688-11.55-7.688-18.562s2.73-13.604 7.689-18.562l39.773-39.774h.001c10.444-10.444 18.521-22.693 24.006-36.407 6.245-15.612 15.439-29.556 27.329-41.444l268.853-268.855c2.928-2.929 7.676-2.93 10.607 0 2.929 2.929 2.929 7.678 0 10.606l-268.853 268.855c-10.444 10.444-18.522 22.693-24.008 36.408-5.312 13.28-12.758 25.353-22.183 35.981l16.227 16.228c10.63-9.425 22.702-16.872 35.982-22.183 13.714-5.486 25.963-13.563 36.407-24.007l6.276-6.276-15.91-15.91-28.894 28.894c-2.93 2.928-7.678 2.929-10.607 0s-2.929-7.678 0-10.606l189.791-189.792c2.93-2.929 7.678-2.929 10.607 0s2.929 7.678 0 10.606l-.291.291 15.91 15.91 19.394-19.393-21.214-21.213c-2.929-2.929-2.929-7.678 0-10.606 2.93-2.929 7.679-2.93 10.606 0l21.214 21.212 19.393-19.394-21.213-21.212c-2.929-2.929-2.929-7.678 0-10.606 2.93-2.929 7.679-2.93 10.606 0l21.214 21.212 19.393-19.394-21.213-21.212c-2.929-2.929-2.929-7.678 0-10.606 2.93-2.929 7.679-2.93 10.606 0l21.214 21.212 19.393-19.394-21.213-21.212c-2.929-2.929-2.929-7.678 0-10.606 2.93-2.929 7.679-2.93 10.606 0l21.214 21.212 19.393-19.394-21.213-21.212c-2.929-2.929-2.929-7.678 0-10.606 2.93-2.929 7.679-2.93 10.606 0l21.214 21.212 18.946-18.947c11.686-11.685 12.198-30.692 1.145-42.371-5.628-5.944-13.225-9.28-21.391-9.392-.142-.002-.284-.003-.425-.003-8.013 0-15.527 3.11-21.203 8.787l-45.527 45.527c-2.93 2.927-7.678 2.929-10.607 0s-2.929-7.678 0-10.606l45.527-45.527c8.516-8.515 19.79-13.181 31.805-13.181.212 0 .424.001.638.004 12.25.168 23.643 5.167 32.077 14.079 16.587 17.522 15.945 45.913-1.43 63.289l-335.829 335.83c-11.89 11.889-25.833 21.083-41.444 27.328-13.713 5.485-25.963 13.563-36.408 24.007-.006.007-.013.014-.02.021l-17.756 17.754c-2.929 2.93-7.678 2.929-10.606 0-2.929-2.929-2.929-7.678.001-10.606l12.472-12.472-15.91-15.91-34.471 34.472c-2.126 2.125-3.296 4.95-3.296 7.955s1.17 5.83 3.295 7.955c4.387 4.387 11.524 4.386 15.909 0 2.93-2.929 7.678-2.929 10.607 0s2.929 7.678 0 10.606c-5.118 5.117-11.839 7.676-18.561 7.676zm126.554-142.185 15.91 15.91 19.394-19.394-15.91-15.91zm30-30 15.91 15.91 19.394-19.394-15.91-15.91zm30-30 15.91 15.91 19.394-19.394-15.91-15.91zm30-30 15.91 15.91 19.394-19.393-15.91-15.91zm30-30 15.91 15.91 19.394-19.393-15.91-15.91z"/></g></g></svg>