<svg id="Capa_1" enable-background="new 0 0 512 512" height="512" viewBox="0 0 512 512" width="512" xmlns="http://www.w3.org/2000/svg"><g><g><path d="m413 489-7-481.5h-59.477l-94.885 10-95.424-10h-50.214c-8.284 0-15 6.716-15 15v467l314.5 7c4.142 0 7.5-3.358 7.5-7.5z" fill="#495959"/><path d="m406 7.5v474.5c0 4.142-3.358 7.5-7.5 7.5h-307.5c0 8.284 6.716 15 15 15h78.654l55.2-7 51.493 7h84.653c8.284 0 45-92.883 45-101.168v-380.832c0-8.284-6.716-15-15-15z" fill="#3f4a4a"/><path d="m327.829 322.56c0-43.895-20.045-104.518-20.045-104.518l23.739-210.542h-46.045l-33.84 10-12.852-10h-82.572v94.921c0 103.088 2.24 117.911 36.373 180.671-13.919 44.076-22.831 84.557-22.934 111.963-.12 31.979 7.28 72.823 11.729 94.445l106.719 7c24.91-78.534 39.728-132.644 39.728-173.94z" fill="#87a0af"/><path d="m346.523 7.5h-15l-30.739 210.543s20.045 60.622 20.045 104.518c0 41.296-14.818 88.405-39.727 166.94h-99.719c1.906 9.261 3.271 15 3.271 15h30l23.346-10 23.346 10h30c27.768-87.661 44.483-138.079 44.483-181.94 0-43.895-20.045-104.518-20.045-104.518z" fill="#607882"/><path d="m253.346 373.152c0-33.807 8.903-67.139 26.066-100.061 5.573-10.69 5.081-23.664-4.902-31.069-3.412-1.264-7.476-1.98-12.278-1.98h-48.465c-27.742 0-31.398 23.449-21.18 43.049 14.496 27.807 22.066 58.702 22.066 90.061v116.348l38.692 7v-123.348z" fill="#eef9fa"/><path d="m274.51 242.023c4.609 8.551 3.475 20.379-2.098 31.069-17.163 32.922-26.066 66.253-26.066 100.061v116.347h-31.692v15h46.692v-131.348c0-31.359 7.57-62.254 22.066-90.061 8.449-16.206 7.396-35.032-8.902-41.068z" fill="#dcf2f6"/><path d="m262.233 207.838c15.151 0 23.007-13.116 14.18-30.049-14.496-27.807-17.416-43.702-12.837-75.061l6.903-95.228h-31.692l-13.903 95.228c-4.578 31.359-17.799 42.254-32.295 70.061-4.839 9.283-6.559 19.426-4.089 27.536 0 0 7.331 7.513 14.269 7.513z" fill="#eef9fa"/><path d="m283.412 172.789c-14.496-27.807-16.416-38.702-11.837-70.061l13.904-95.228h-15l-13.903 95.228c-4.578 31.359-1.659 47.254 12.837 75.061 8.828 16.933 3.285 23.049-7.18 23.049h-63.465c-3.894 0-7.296-.173-10.269-.513 2.745 9.013 10.667 15.513 25.269 15.513h48.465c27.741 0 31.397-23.45 21.179-43.049z" fill="#dcf2f6"/><path d="m262.371 221.5c0-5.309-2.862-13.819-9.707-20.664-4.36-2.364-9.355-3.707-14.664-3.707-17.016 0-30.811 13.795-30.811 30.811 0 5.309 1.343 10.303 3.707 14.664 6.257 6.257 15.355 9.707 20.664 9.707 17.016 0 30.811-13.794 30.811-30.811z" fill="#eef9fa"/><path d="m252.664 200.836c2.364 4.36 3.707 9.355 3.707 14.664 0 17.016-13.794 30.811-30.811 30.811-5.309 0-10.303-1.343-14.664-3.707 5.214 9.617 15.396 16.147 27.104 16.147 17.016 0 30.811-13.794 30.811-30.811 0-11.708-6.53-21.89-16.147-27.104z" fill="#dcf2f6"/><path d="m406 388.332v93.668c0 4.142-3.358 7.5-7.5 7.5h-37.5c0 8.284 6.716 15 15 15h30c8.284 0 15-6.716 15-15v-86.168c0-8.284-6.716-15-15-15z" fill="#dcf2f6"/><path d="m406 482v-93.668h-30c-8.284 0-15 6.716-15 15v86.168h37.5c4.142 0 7.5-3.358 7.5-7.5z" fill="#eef9fa"/></g><g><path d="m406 512h-300c-12.407 0-22.5-10.093-22.5-22.5v-137.747c0-4.142 3.358-7.5 7.5-7.5s7.5 3.358 7.5 7.5v137.747c0 4.136 3.364 7.5 7.5 7.5h69.297c-4.154-19.375-13.277-66.088-13.143-101.974.124-32.838 11.986-77.981 22.328-111.151-33.75-62.446-35.767-80.323-35.767-181.455v-87.42h-42.715c-4.136 0-7.5 3.364-7.5 7.5v299.253c0 4.142-3.358 7.5-7.5 7.5s-7.5-3.358-7.5-7.5v-299.253c0-12.407 10.093-22.5 22.5-22.5h300c12.407 0 22.5 10.093 22.5 22.5v84.241c0 4.142-3.358 7.5-7.5 7.5s-7.5-3.358-7.5-7.5v-84.241c0-4.136-3.364-7.5-7.5-7.5h-52.993l-29.549 202.395c3.332 10.417 19.871 64.195 19.871 105.166 0 42.853-15.356 91.266-40.797 171.474l-.94 2.965h53.193c-.832-2.347-1.285-4.872-1.285-7.5v-86.167c0-12.407 10.093-22.5 22.5-22.5h30c2.628 0 5.153.453 7.5 1.285v-245.377c0-4.142 3.358-7.5 7.5-7.5s7.5 3.358 7.5 7.5v352.759c0 12.407-10.093 22.5-22.5 22.5zm-30-15h30c4.136 0 7.5-3.364 7.5-7.5v-86.167c0-4.136-3.364-7.5-7.5-7.5h-30c-4.136 0-7.5 3.364-7.5 7.5v86.167c0 4.136 3.364 7.5 7.5 7.5zm-107.154 0h17.01l2.378-7.5c25.003-78.828 40.095-126.408 40.095-166.939 0-42.154-19.469-101.569-19.666-102.164-.366-1.106-.469-2.284-.3-3.437l29.486-201.96h-45.886l-12.966 88.812c-4.343 29.744-2.792 38.928 11.066 65.51 7.095 13.61 8.02 27.968 2.474 38.408-2.583 4.86-7.507 10.69-16.785 13.664.368 2.128.56 4.315.56 6.547s-.191 4.418-.56 6.547c9.278 2.973 14.203 8.803 16.785 13.664 5.546 10.44 4.621 24.798-2.474 38.408-13.88 26.625-21.216 56.568-21.216 86.593v15.18c0 4.142-3.358 7.5-7.5 7.5s-7.5-3.358-7.5-7.5v-15.18c0-32.43 7.924-64.771 22.916-93.528 4.738-9.089 5.707-18.452 2.528-24.436-1.73-3.256-4.745-5.489-8.989-6.668-6.812 10.654-18.745 17.73-32.301 17.73s-25.49-7.076-32.301-17.73c-4.281 1.19-7.312 3.453-9.035 6.756-3.119 5.979-2.136 15.298 2.562 24.324.01.018.019.036.028.053 14.981 28.749 22.9 61.081 22.9 93.499v123.847h31.692v-78.667c0-4.142 3.358-7.5 7.5-7.5s7.5 3.358 7.5 7.5v78.667zm-78.2 0h16.508v-123.848c0-23.531-4.506-47.012-13.136-68.884-10.849 37.592-16.783 69.383-16.864 90.814-.137 36.589 9.88 85.497 13.492 101.918zm47.354-292.371c-12.854 0-23.311 10.457-23.311 23.311s10.458 23.311 23.311 23.311 23.311-10.457 23.311-23.311-10.457-23.311-23.311-23.311zm-74.286-189.629v87.42c0 83.352 1.72 108.177 19.517 146.177.043-.086.088-.172.132-.257 2.561-4.909 7.493-10.841 16.885-13.852-.368-2.128-.56-4.316-.56-6.548s.192-4.42.56-6.548c-9.392-3.01-14.325-8.943-16.885-13.852-5.434-10.418-4.472-24.706 2.573-38.219 4.507-8.645 8.943-15.782 12.856-22.078 9.113-14.661 15.697-25.253 18.667-45.599l4.241-29.048c.599-4.099 4.413-6.936 8.505-6.338 4.099.599 6.936 4.406 6.338 8.505l-4.241 29.048c-3.422 23.44-11.462 36.374-20.771 51.35-3.958 6.368-8.051 12.952-12.295 21.094-4.709 9.034-5.696 18.364-2.575 24.348 1.723 3.303 4.754 5.566 9.035 6.756 6.812-10.652 18.746-17.73 32.301-17.73 13.556 0 25.49 7.076 32.301 17.73 4.244-1.179 7.259-3.412 8.989-6.668 3.179-5.984 2.21-15.347-2.528-24.436-15.271-29.293-17.392-41.845-12.608-74.611l12.653-86.644h-31.534l-4.044 27.703c-.599 4.099-4.402 6.941-8.505 6.338-4.099-.599-6.936-4.406-6.338-8.505l3.729-25.536zm227.286 467c-4.142 0-7.5-3.358-7.5-7.5v-56.167c0-4.142 3.358-7.5 7.5-7.5s7.5 3.358 7.5 7.5v56.167c0 4.142-3.358 7.5-7.5 7.5z"/></g></g></svg>