<svg id="Capa_1" enable-background="new 0 0 512.001 512.001" height="512" viewBox="0 0 512.001 512.001" width="512" xmlns="http://www.w3.org/2000/svg"><g><g><path d="m363.131 369.989h-214.261v-34.306c0-28.432 23.048-51.48 51.48-51.48h111.302c28.432 0 51.48 23.048 51.48 51.48v34.306z" fill="#d19a6e"/><path d="m311.651 284.203h-21.852c28.432 0 51.48 23.048 51.48 51.48v34.307h21.852v-34.307c0-28.432-23.048-51.48-51.48-51.48z" fill="#c38c66"/><path d="m408.56 356.2v148.3h-305.12v-148.3l45.43-8.35 69.861-12.84h74.54l48.01 8.82 21.849 4.02 23.581 4.33z" fill="#95d6a4"/><path d="m386.711 352.18v152.32h-45.43v-160.67l21.849 4.02z" fill="#78c2a4"/><path d="m103.435 356.201-26.46 6.449c-22.701 7.249-39.259 26.84-42.623 50.432l-12.751 91.418h81.834z" fill="#d19a6e"/><path d="m81.583 361.527v142.973h21.852v-148.299z" fill="#c38c66"/><path d="m408.566 356.201 26.46 6.449c22.701 7.249 39.259 26.84 42.623 50.432l12.751 91.418h-81.834z" fill="#d19a6e"/><path d="m477.649 413.081c-3.364-23.592-19.922-43.183-42.623-50.432l-26.46-6.449v5.326l4.608 1.123c22.701 7.249 39.259 26.84 42.623 50.432l12.751 91.419h21.852z" fill="#c38c66"/><path d="m360.766 76.864v154.145c0 29.375-23.818 53.193-53.193 53.193h-103.144c-29.375 0-53.193-23.818-53.193-53.193v-154.145z" fill="#ffe5c2"/><path d="m338.913 76.864v154.145c0 29.375-23.818 53.193-53.193 53.193h21.852c29.375 0 53.193-23.818 53.193-53.193v-154.145z" fill="#fed2a4"/><path d="m151.229 203.915h-24.671c-11.606 0-21.014-9.408-21.014-21.014v-21.251c0-11.606 9.408-21.014 21.014-21.014h24.671z" fill="#ffe5c2"/><path d="m129.377 140.635h21.852v63.28h-21.852z" fill="#fed2a4"/><path d="m385.443 203.915h-24.671v-63.28h24.671c11.606 0 21.014 9.408 21.014 21.014v21.252c0 11.606-9.408 21.014-21.014 21.014z" fill="#ffe5c2"/><path d="m385.443 140.635h-21.852c11.606 0 21.014 9.408 21.014 21.014v21.252c0 11.606-9.408 21.014-21.014 21.014h21.852c11.606 0 21.014-9.408 21.014-21.014v-21.251c0-11.606-9.408-21.015-21.014-21.015z" fill="#fed2a4"/><path d="m218.734 271.279h74.533v63.728l-37.267 25.921-37.266-25.921z" fill="#ffe5c2"/><path d="m271.415 271.279v63.728l-26.341 18.321 10.926 7.6 37.267-25.921v-63.728z" fill="#fed2a4"/><path d="m218.734 335.007v-18.903h-10.808c-14.136 0-25.595 11.459-25.595 25.595l28.82 54.457c3.528 6.667 12.792 7.4 17.326 1.372l27.523-36.6z" fill="#95d6a4"/><path d="m218.734 335.007v-18.903h-10.808c-3.956 0-7.701.898-11.045 2.501v16.403l37.267 25.921-17.708 23.66c-2.32 3.085-5.876 4.387-9.271 4.042l3.982 7.525c3.528 6.667 12.792 7.4 17.326 1.372l27.523-36.6z" fill="#78c2a4"/><path d="m293.267 335.007v-18.903h10.808c14.136 0 25.595 11.459 25.595 25.595l-28.82 54.457c-3.528 6.667-12.792 7.4-17.326 1.372l-27.524-36.6z" fill="#95d6a4"/><path d="m304.075 316.103h-10.808v2.5c8.606 4.123 14.55 12.914 14.55 23.094l-23.087 44.003c-1.405 2.654-3.723 4.351-6.286 5.072l5.08 6.755c4.534 6.028 13.797 5.295 17.326-1.372l28.82-54.456c0-14.137-11.459-25.596-25.595-25.596z" fill="#78c2a4"/><path d="m360.776 76.436v52.653h-21.461c-7.423 0-13.44-6.017-13.44-13.44 0-7.423-6.017-13.44-13.44-13.44h-112.869c-7.423 0-13.44 6.017-13.44 13.44 0 7.423-6.017 13.44-13.44 13.44h-21.461v-103.154c0-10.186 8.259-18.435 18.435-18.435h46.576c5.822 0 11.297 2.743 14.774 7.402l13.102 17.548h72.678c24.293 0 43.986 19.693 43.986 43.986z" fill="#5d5360"/><g fill="#4b3f4e"><path d="m164.274 115.649c0 7.291-5.809 13.211-13.049 13.42v.02h21.461c7.423 0 13.44-6.017 13.44-13.44s6.017-13.44 13.44-13.44h-21.852c-7.423 0-13.44 6.017-13.44 13.44z"/><path d="m209.157 14.902 13.103 17.548h21.852l-13.102-17.548c-3.477-4.66-8.952-7.402-14.774-7.402h-21.852c5.821 0 11.297 2.743 14.773 7.402z"/><path d="m316.79 32.45h-21.852c24.293 0 43.986 19.693 43.986 43.986v52.633c.131.004.259.02.391.02h21.461v-52.653c0-24.293-19.693-43.986-43.986-43.986z"/></g><path d="m360.766 226.982v4.027c0 29.375-23.818 53.193-53.193 53.193h-103.144c-29.375 0-53.193-23.818-53.193-53.193v-4.027l79.367-31.098c16.344-6.403 34.493-6.403 50.828 0z" fill="#5d5360"/><path d="m281.43 195.884c-11.628-4.559-24.175-5.854-36.337-3.922 4.92.782 9.779 2.077 14.485 3.922l79.336 31.098v4.028c0 29.375-23.818 53.193-53.193 53.193h21.852c29.375 0 53.193-23.818 53.193-53.193v-4.028z" fill="#4b3f4e"/><g><path d="m408.565 356.197v148.303h-45.434v-156.653z" fill="#d19a6e"/><path d="m363.131 347.847v4.016l23.582 4.334v148.303h21.852v-148.303z" fill="#c38c66"/><path d="m148.87 347.847v156.653h-45.434v-148.303z" fill="#d19a6e"/><path d="m127.017 351.863v152.637h21.853v-156.653z" fill="#c38c66"/></g></g><g><path d="m103.435 418.673c-4.142 0-7.5 3.358-7.5 7.5v78.327c0 4.142 3.358 7.5 7.5 7.5s7.5-3.358 7.5-7.5v-78.327c0-4.142-3.358-7.5-7.5-7.5z"/><path d="m408.566 422.85c-4.142 0-7.5 3.358-7.5 7.5v74.15c0 4.142 3.358 7.5 7.5 7.5s7.5-3.358 7.5-7.5v-74.15c0-4.142-3.358-7.5-7.5-7.5z"/><path d="m497.828 503.464-12.754-91.441c-3.581-25.775-22.834-48.957-48.272-56.66l-10.106-2.463c-4.027-.981-8.082 1.486-9.062 5.511s1.486 8.082 5.511 9.062l9.842 2.399c19.707 6.396 34.312 23.745 37.235 44.245l12.75 91.419c.523 3.751 3.736 6.465 7.419 6.465.345 0 .694-.024 1.045-.073 4.103-.572 6.964-4.362 6.392-8.464z"/><path d="m195.394 152.156c-4.142 0-7.5 3.358-7.5 7.5v13.501c0 4.142 3.358 7.5 7.5 7.5s7.5-3.358 7.5-7.5v-13.501c0-4.142-3.358-7.5-7.5-7.5z"/><path d="m316.607 180.657c4.142 0 7.5-3.358 7.5-7.5v-13.501c0-4.142-3.358-7.5-7.5-7.5s-7.5 3.358-7.5 7.5v13.501c0 4.142 3.358 7.5 7.5 7.5z"/><path d="m256 247.44c11.236 0 21.428-5.739 27.264-15.353 2.149-3.541 1.021-8.154-2.519-10.303s-8.153-1.021-10.303 2.519c-3.093 5.095-8.492 8.137-14.441 8.137s-11.349-3.042-14.441-8.137c-2.149-3.541-6.762-4.669-10.303-2.519-3.541 2.149-4.668 6.762-2.519 10.303 5.835 9.614 16.027 15.353 27.262 15.353z"/><path d="m391.943 345.517-21.313-3.917v-5.919c0-22.851-13.071-42.693-32.121-52.483 17.799-10.591 29.757-30.016 29.757-52.188v-19.594h17.177c15.723 0 28.514-12.792 28.514-28.514v-21.252c0-15.723-12.792-28.515-28.514-28.515h-17.177l.01-56.699c0-28.389-23.097-51.486-51.486-51.486h-68.918l-10.852-14.533c-4.867-6.523-12.637-10.417-20.785-10.417h-46.575c-14.3 0-25.935 11.634-25.935 25.935l.01 107.201h-17.177c-15.723 0-28.514 12.792-28.514 28.515v21.251c0 15.723 12.792 28.514 28.514 28.514h17.177v19.594c0 22.173 11.958 41.597 29.757 52.188-19.05 9.789-32.121 29.632-32.121 52.483v5.919l-66.171 13.763c-24.907 7.578-44.663 30.351-48.276 56.682l-12.75 91.419c-.572 4.103 2.29 7.892 6.392 8.464.352.049.701.073 1.045.073 3.683 0 6.896-2.714 7.419-6.465l12.747-91.396c2.927-20.522 17.532-37.872 37.238-44.268l62.355-13.018v147.646c0 4.142 3.358 7.5 7.5 7.5s7.5-3.358 7.5-7.5v-150.403l21.907-4.026 26.246 49.592c5.227 10.478 21.936 13.216 29.949 2.371l14.029-18.655v121.121c0 4.142 3.358 7.5 7.5 7.5s7.5-3.358 7.5-7.5v-121.121l14.029 18.655c6.695 9.534 23.904 9.528 29.949-2.371l26.246-49.592 21.907 4.026v150.403c0 4.142 3.358 7.5 7.5 7.5s7.5-3.358 7.5-7.5v-147.649l18.6 3.419c4.074.753 7.983-1.946 8.732-6.021.748-4.074-1.947-7.983-6.021-8.732zm-23.671-197.382h17.171c7.452 0 13.514 6.062 13.514 13.515v21.251c0 7.452-6.062 13.514-13.514 13.514h-17.171zm-224.543 48.281h-17.171c-7.452 0-13.514-6.062-13.514-13.514v-21.252c0-7.452 6.062-13.515 13.514-13.515h17.171zm167.921 95.284c25.204-.142 45.492 21.811 43.98 47.146l-19.08-3.507c-2.948-16.049-18.658-28.048-35.78-26.736v-16.9zm-110.333-15.115c-22.285-1.131-42.598-21.106-42.554-44.497l74.575-29.22c13.752-5.492 30.481-5.78 45.354 0l74.546 29.22c-.16 23.303-20.778 45.142-45.57 44.613.001-.001-103.286.059-106.351-.116zm84.454 15.118-.003 39.385-29.768 20.704-29.767-20.704-.003-39.385zm-116.111-276.703h46.576c3.438 0 6.713 1.64 8.765 4.39l13.102 17.548c1.416 1.896 3.644 3.013 6.01 3.013h72.678c19.575-.1 36.862 16.623 36.476 36.914v44.725h-13.951c-3.275 0-5.94-2.665-5.94-5.94 0-11.546-9.394-20.94-20.94-20.94h-12.115c-4.142 0-7.5 3.358-7.5 7.5s3.358 7.5 7.5 7.5h12.115c3.275 0 5.94 2.665 5.94 5.94 0 11.546 9.394 20.94 20.94 20.94h13.951v79.397l-69.099-27.085c-6.699-2.626-13.65-4.276-20.667-4.963v-12.825c0-4.142-3.358-7.5-7.5-7.5s-7.5 3.358-7.5 7.5v12.829c-7.005.69-13.945 2.337-20.635 4.958l-69.13 27.087v-79.399h13.951c11.546 0 20.94-9.394 20.94-20.94 0-3.275 2.665-5.94 5.94-5.94h65.643c4.142 0 7.5-3.358 7.5-7.5s-3.358-7.5-7.5-7.5h-65.643c-11.546 0-20.94 9.394-20.94 20.94 0 3.275-2.665 5.94-5.94 5.94h-13.951l-.01-95.654c-.001-6.03 4.904-10.935 10.934-10.935zm30.691 276.7 10.88.002v16.9c-16.466-1.471-32.759 10.361-35.78 26.736l-19.08 3.507c-1.675-24.915 18.556-47.24 43.98-47.145zm22.132 101.319c-.803 1.068-1.882 1.154-2.454 1.106-.572-.045-1.624-.297-2.249-1.478l-27.869-52.659c.865-9.179 8.614-16.384 18.015-16.384h3.304v11.407c0 2.456 1.202 4.755 3.218 6.157l30.879 21.475zm71.738-.373c-.625 1.181-1.677 1.433-2.249 1.478-.572.048-1.65-.038-2.454-1.106l-22.844-30.376 30.879-21.475c2.016-1.402 3.218-3.702 3.218-6.157v-11.407h3.304c9.401 0 17.15 7.206 18.015 16.384z"/><circle cx="290.69" cy="438.054" r="7.5"/><circle cx="290.69" cy="472.974" r="7.5"/></g></g></svg>