<svg id="Capa_1" enable-background="new 0 0 512 512" height="512" viewBox="0 0 512 512" width="512" xmlns="http://www.w3.org/2000/svg"><g><g><g><path d="m116.589 351.185h-56.116c-8.98 0-16.259-7.279-16.259-16.259 0-8.98 7.279-16.259 16.259-16.259h56.116z" fill="#f47c7c"/><path d="m466.762 22.53v466.94c0 8.3-5.73 14.03-14.03 14.03l-27.527 1h-179.045c-8.3 0-15.03-6.73-15.03-15.03v-30.56l10-6.777-10-8.213h-39.2c-60.46 0-110.38-45.07-118.04-103.44-1.22-9.35 1.66-18.77 7.75-25.95l130.31-175.34c12.45-16.76 19.18-37.08 19.18-57.96v-58.7c0-8.3 6.73-15.03 15.03-15.03h178.05l28.522 1c8.3 0 14.03 5.73 14.03 14.03z" fill="#fed2a4"/><path d="m252.962 361.309c.089 23.463-17.906 41.53-41.369 41.53l-19.664 1c-1.999 0-3.983-.076-5.949-.224-31.264-2.359-58-23.149-68.392-52.014-2.793-7.758-1.326-16.417 3.641-22.999l94.779-125.411c.526-.696 1.076-1.346 1.647-1.95 3.635-3.849 8.106-4.844 12.616-5.265 10.929-1.021 22.086 6.2 22.137 19.679z" fill="#f47c7c"/><path d="m467.762 22.53v466.94c0 8.3-6.73 15.03-15.03 15.03h-30c8.3 0 15.03-6.73 15.03-15.03v-466.94c0-8.3-6.73-15.03-15.03-15.03h30c8.3 0 15.03 6.73 15.03 15.03z" fill="#ffbd86"/><path d="m253.96 361.31c.09 23.46-18.9 42.53-42.37 42.53h-19.66c-2 0-3.98-.08-5.95-.23 21.41-2.2 38.06-20.32 37.98-42.3l-.55-145.65c-.02-5.93-2.28-10.83-5.77-14.39 12.5-13.22 35.69-4.67 35.77 14.39z" fill="#ee6161"/></g></g><g><path d="m452.746 0h-206.578c-12.423 0-22.529 10.107-22.529 22.53v58.698c0 19.135-6.286 38.131-17.7 53.489l-35.082 47.204c-2.471 3.324-1.778 8.023 1.546 10.493 3.322 2.469 8.022 1.779 10.493-1.546l35.082-47.204c13.323-17.927 20.661-40.101 20.661-62.437v-58.697c0-4.152 3.378-7.53 7.529-7.53h206.577c4.152 0 7.53 3.378 7.53 7.53v282.046c0 4.142 3.357 7.5 7.5 7.5 4.142 0 7.5-3.358 7.5-7.5v-282.046c.001-12.423-10.107-22.53-22.529-22.53z"/><path d="m191.94 436.418c-55.807 0-103.354-41.664-110.601-96.911-.938-7.169 1.26-14.505 6.028-20.128.104-.123.204-.249.3-.377l75.729-101.896c2.471-3.324 1.778-8.022-1.546-10.493-3.323-2.47-8.023-1.78-10.493 1.546l-75.592 101.711c-.355.424-.693.86-1.03 1.296h-14.252c-13.101 0-23.759 10.658-23.759 23.759s10.658 23.759 23.759 23.759h9.481c14.941 53.923 64.613 92.733 121.976 92.733h31.699v38.052c0 12.423 10.106 22.53 22.529 22.53h206.577c12.423 0 22.53-10.107 22.53-22.53v-152.207c0-4.142-3.358-7.5-7.5-7.5-4.143 0-7.5 3.358-7.5 7.5v152.208c0 4.152-3.378 7.53-7.53 7.53h-206.577c-4.151 0-7.529-3.378-7.529-7.53v-38.05h51.504c4.143 0 7.5-3.358 7.5-7.5s-3.357-7.5-7.5-7.5zm-131.457-92.733c-4.83 0-8.759-3.929-8.759-8.759s3.929-8.759 8.759-8.759h6.931c-1.269 4.96-1.619 10.146-.947 15.289.098.746.208 1.488.319 2.23h-6.303z"/><path d="m222.001 207.714c4.247-5.619 10.442-6.059 14.82-4.6 4.38 1.46 9.07 5.529 9.097 12.57l.243 63.896c.016 4.133 3.37 7.472 7.499 7.472h.029c4.143-.016 7.487-3.386 7.472-7.528l-.243-63.896c-.047-12.344-7.644-22.841-19.355-26.744-11.713-3.904-24.087-.061-31.529 9.787l-94.781 125.415c-6.585 8.726-8.346 19.963-4.711 30.057 12.316 34.211 45.027 57.197 81.397 57.197h19.664c13.357 0 25.903-5.211 35.33-14.674 9.426-9.462 14.589-22.029 14.538-35.385l-.186-49.058c-.016-4.133-3.37-7.472-7.499-7.472-.01 0-.02 0-.029 0-4.143.016-7.487 3.386-7.472 7.528l.187 49.059c.036 9.338-3.574 18.125-10.165 24.741-6.591 6.617-15.364 10.26-24.703 10.26h-19.664c-30.064 0-57.104-19-67.284-47.279-1.913-5.313-.952-11.271 2.567-15.936z"/></g></g></svg>