<svg id="Capa_1" enable-background="new 0 0 512 512" height="512" viewBox="0 0 512 512" width="512" xmlns="http://www.w3.org/2000/svg"><g><g><g><path d="m238.607 504.5c-55.097 0-99.762-44.665-99.762-99.762v-264.321c0-35.486 14.207-69.494 39.449-94.435 24.953-24.655 58.619-38.482 93.698-38.482h80.779c30.183 0 59.465 10.285 83.019 29.16 37.975 30.432 56.256 79.201 47.641 127.096l-16.803 93.423c-6.281 34.924-26.283 65.881-55.541 85.959l-42.762 29.346c-13.991 9.602-24.107 23.87-28.537 40.25l-4.881 18.047c-11.763 43.505-51.234 73.719-96.3 73.719z" fill="#fed2a4"/></g><g><path d="m160.085 404.738v-140.477c1.317-8.621 2.611-17.094 3.927-25.716 10.883-33.632 12.524-69.629 4.92-103.974-4.643-20.971-1.402-42.947 9.484-61.462 5.783-9.836 12.859-18.967 21.117-27.127 24.954-24.655 58.62-38.482 93.699-38.482h-22.035c-34.846 0-68.264 13.842-92.904 38.482-25.259 25.259-39.449 59.517-39.449 95.238v263.518c0 55.097 44.665 99.762 99.762 99.762 3.547 0 7.054-.208 10.521-.574-50.055-5.348-89.042-47.713-89.042-99.188z" fill="#ffbd86"/></g><g><path d="m407.65 71.776c-15.511-12.43-35-19.276-54.878-19.276h-80.779c-23.544 0-45.725 9.173-62.4 25.819-16.723 16.694-25.748 39.6-25.748 63.229v96.364c0 9.989 8.098 18.087 18.087 18.087 16.105 0 29.16 13.055 29.16 29.16 0 16.105-13.055 29.16-29.16 29.16-9.989 0-18.087 8.098-18.087 18.087v71.504c0 28.516 21.504 52.87 49.91 55.374 26.64 2.349 50.852-14.875 57.715-40.251l4.881-18.047c7.213-26.672 23.732-49.972 46.513-65.605l42.763-29.347c19.208-13.182 32.59-33.893 36.714-56.822l16.803-93.423c5.698-31.686-6.369-63.879-31.494-84.013z" fill="#f6a96c"/></g><g><path d="m205.085 403.912v-71.504c0-9.989 8.098-18.087 18.087-18.087 16.105 0 29.16-13.055 29.16-29.16 0-16.105-13.055-29.16-29.16-29.16-9.989 0-18.087-8.098-18.087-18.087v-96.364c0-23.629 9.025-46.535 25.748-63.229 16.675-16.646 38.856-25.819 62.4-25.819h-21.24c-23.544 0-45.725 9.173-62.4 25.819-16.723 16.694-25.748 39.6-25.748 63.229v96.364c0 9.989 8.098 18.087 18.087 18.087 16.105 0 29.16 13.055 29.16 29.16 0 16.105-13.055 29.16-29.16 29.16-9.989 0-18.087 8.098-18.087 18.087v71.504c0 28.516 21.504 52.87 49.91 55.374 5.288.466 10.476.15 15.456-.837-25.489-5.065-44.126-27.993-44.126-54.537z" fill="#ea9b58"/></g><g><path d="m86.937 50.995c4.099 0 8.197 1.563 11.324 4.691 67.173 67.174 67.173 176.474 0 243.647-6.254 6.254-16.393 6.254-22.648 0-6.254-6.254-6.254-16.394 0-22.648 54.685-54.685 54.685-143.665 0-198.351-6.254-6.254-6.254-16.394 0-22.648 3.126-3.127 7.226-4.691 11.324-4.691z" fill="#42c3fc"/></g><g><g><path d="m42.477 95.455c4.099 0 8.197 1.563 11.324 4.691 20.665 20.665 32.045 48.14 32.045 77.364s-11.381 56.699-32.045 77.364c-6.254 6.254-16.395 6.254-22.648 0-6.254-6.254-6.254-16.394 0-22.648 14.615-14.615 22.664-34.047 22.664-54.716s-8.049-40.101-22.664-54.716c-6.254-6.254-6.254-16.394 0-22.648 3.127-3.127 7.225-4.691 11.324-4.691z" fill="#42c3fc"/></g></g></g><g><path d="m440.481 30.808c-24.79-19.867-55.94-30.808-87.709-30.808h-80.779c-37.293 0-72.441 14.436-98.97 40.647-10.083 9.962-18.571 21.357-25.23 33.867-1.945 3.657-.56 8.198 3.098 10.145 3.655 1.947 8.198.559 10.145-3.097 5.945-11.172 13.526-21.348 22.531-30.245 23.701-23.42 55.105-36.317 88.425-36.317h80.779c28.372 0 56.189 9.771 78.328 27.513 35.861 28.738 53.085 74.688 44.95 119.917l-16.803 93.423c-5.886 32.727-24.986 62.288-52.403 81.104l-42.762 29.346c-15.443 10.599-26.642 26.394-31.532 44.476l-4.881 18.047c-10.854 40.139-47.478 68.174-89.061 68.174-50.873 0-92.262-41.388-92.262-92.262v-109.178c0-4.142-3.357-7.5-7.5-7.5s-7.5 3.358-7.5 7.5v109.178c0 59.145 48.117 107.262 107.262 107.262 48.343 0 90.922-32.593 103.543-79.259l4.881-18.047c3.96-14.646 13.03-27.439 25.54-36.024l42.762-29.346c30.7-21.069 52.088-54.17 58.679-90.816l16.803-93.423c9.107-50.646-10.179-102.098-50.334-134.277z"/><path d="m201.933 306.82c-14.109 0-25.588 11.479-25.588 25.587v71.504c0 15.697 5.759 30.771 16.216 42.445 10.553 11.781 24.948 19.026 40.536 20.4 1.858.164 3.705.244 5.541.244 27.915-.001 52.668-18.635 60.072-46.009l4.881-18.047c6.748-24.955 22.202-46.753 43.517-61.379l42.763-29.347c20.85-14.309 35.375-36.789 39.852-61.678l5.33-29.639c.732-4.077-1.978-7.976-6.055-8.709-4.068-.733-7.976 1.978-8.709 6.054l-5.33 29.639c-3.771 20.97-16.01 39.91-33.576 51.966l-42.763 29.347c-24.248 16.641-41.831 41.44-49.509 69.831l-4.881 18.047c-5.989 22.146-26.95 36.757-49.815 34.738-24.151-2.129-43.069-23.171-43.069-47.903v-71.504c0-5.838 4.75-10.587 10.588-10.587 20.215 0 36.66-16.445 36.66-36.66s-16.445-36.66-36.66-36.66c-5.838 0-10.588-4.75-10.588-10.587v-32.053h56.291c19.694 0 35.717 16.022 35.717 35.717v42.703c0 4.142 3.357 7.5 7.5 7.5s7.5-3.358 7.5-7.5v-42.703c0-27.965-22.752-50.717-50.717-50.717h-56.291v-13.35c0-18.265 7.163-35.891 19.652-48.358 12.74-12.718 29.668-19.723 47.664-19.723h56.312c15.173 0 30.049 5.225 41.888 14.713 11.7 9.376 20.004 22.574 23.38 37.161.933 4.035 4.955 6.548 8.998 5.616 4.035-.934 6.55-4.962 5.615-8.998-4.133-17.857-14.294-34.01-28.612-45.484-14.491-11.612-32.698-18.008-51.269-18.008h-56.312c-21.998 0-42.688 8.561-58.262 24.107-2.873 2.868-5.499 5.967-7.892 9.241 2.792-16.781 10.597-32.383 22.384-44.149 15.262-15.237 35.541-23.628 57.1-23.628h80.779c18.179 0 36.003 6.261 50.188 17.628 22.979 18.413 34.015 47.854 28.802 76.835l-6.189 34.413c-.733 4.077 1.978 7.976 6.054 8.709 4.075.735 7.977-1.977 8.71-6.054l6.189-34.413c6.187-34.397-6.913-69.341-34.185-91.195-16.837-13.492-37.992-20.923-59.568-20.923h-80.779c-25.562 0-49.604 9.948-67.698 28.011-17.762 17.732-27.949 42.712-27.949 68.537v96.364c0 14.109 11.479 25.587 25.588 25.587 11.943 0 21.66 9.717 21.66 21.66s-9.718 21.661-21.661 21.661z"/><path d="m103.565 50.383c-4.44-4.442-10.346-6.888-16.628-6.888-6.28 0-12.186 2.446-16.628 6.887-9.168 9.168-9.168 24.086 0 33.254 51.762 51.762 51.762 135.984.001 187.745-4.441 4.441-6.888 10.346-6.888 16.627s2.446 12.186 6.888 16.628c4.584 4.583 10.605 6.875 16.627 6.875s12.043-2.292 16.628-6.876c70.096-70.096 70.096-184.154 0-254.252zm-10.607 243.647c-3.32 3.32-8.724 3.32-12.042 0-1.608-1.608-2.494-3.747-2.494-6.021s.886-4.413 2.494-6.021c57.609-57.61 57.609-151.348 0-208.958-3.32-3.32-3.32-8.722-.001-12.041 1.608-1.608 3.747-2.494 6.021-2.494s4.413.885 6.021 2.494c64.249 64.25 64.249 168.792.001 233.041z"/><path d="m59.105 94.843c-4.441-4.442-10.347-6.888-16.628-6.888s-12.186 2.446-16.627 6.888c-4.44 4.441-6.887 10.346-6.887 16.627s2.446 12.186 6.887 16.627c13.199 13.199 20.468 30.747 20.468 49.413s-7.269 36.214-20.468 49.413c-9.168 9.168-9.168 24.086 0 33.254 4.44 4.442 10.346 6.888 16.627 6.888 6.28 0 12.186-2.446 16.627-6.887 22.082-22.08 34.242-51.438 34.242-82.667s-12.16-60.588-34.241-82.668zm-10.607 154.727c-1.608 1.608-3.747 2.494-6.021 2.494s-4.412-.885-6.02-2.494c-3.32-3.32-3.32-8.722 0-12.042 16.031-16.031 24.86-37.346 24.86-60.019 0-22.672-8.829-43.987-24.86-60.019-3.32-3.32-3.32-8.722 0-12.042 1.607-1.608 3.746-2.494 6.02-2.494s4.413.886 6.021 2.494c19.248 19.248 29.849 44.839 29.849 72.061s-10.602 52.814-29.849 72.061z"/></g></g></svg>