<svg id="Capa_1" enable-background="new 0 0 512.002 512.002" height="512" viewBox="0 0 512.002 512.002" width="512" xmlns="http://www.w3.org/2000/svg"><g><g><path d="m386.653 213.273-24.725-53.022c-11.208-24.036-35.588-39.567-62.109-39.567h-46.544l-19.239 5.119v224.375l4.087 8.447c2.422-7.439 9.062-13.079 17.206-13.462 10.985-.517 20.054 8.237 20.054 19.108v43.142l3.154 3.015h38.875l2.334-3.015v-215.67c0-4.036 5.481-5.26 7.188-1.602 3.733 8.005 9.722 20.888 19.511 41.882 3.324 7.128 5.082 15.053 5.082 22.92v97.284c0 11.944 9.179 22.221 21.109 22.783 12.739.6 23.255-9.55 23.255-22.156v-97.911c0-14.301-3.194-28.711-9.238-41.67z" fill="#60b9fe"/><path d="m238.124 145.698c0-10.82 6.164-20.266 15.152-25.013h-40.589c-26.632 0-50.852 15.429-62.107 39.566l-24.726 53.024c-6.042 12.96-9.237 27.368-9.237 41.668v97.284c0 11.944 9.179 22.221 21.109 22.783 12.738.6 23.254-9.55 23.254-22.156 0-93.681 0-3.233 0-97.911 0-7.866 1.757-15.792 5.08-22.92 9.79-20.993 15.779-33.876 19.513-41.882 1.706-3.658 7.187-2.434 7.187 1.602v215.671l2.651 3.015h39.625l2.087-3.015v-42.602c0-2.148.362-4.226 1-6.186v-212.928z" fill="#1ca8ff"/><path d="m158.528 443.373-3.036 3.036v15.437l3.036 3.366 28.282-21.839-2.273-2.194h-29.889z" fill="#6e60b8"/><path d="m158.528 465.212v-24.033h-28.283v39.25l2.855 4.418z" fill="#6353b2"/><path d="m381.662 460.136v-18.457h-23.903z" fill="#6e60b8"/><path d="m358.586 441.679h-29.757l-3.132 1.694 53.71 41.474 2.255-3.584v-21.765z" fill="#6353b2"/><path d="m274.593 12.162c-11.337 6.945-18.918 19.422-18.918 33.691s7.581 26.747 18.918 33.691c11.924-6.504 20.015-19.152 20.015-33.691-.001-14.538-8.091-27.187-20.015-33.691z" fill="#60b9fe"/><path d="m256.254 45.854c0-14.194 7.716-26.577 19.177-33.21-5.643-3.266-12.189-5.144-19.177-5.144-21.182 0-38.354 17.171-38.354 38.354 0 21.182 17.171 38.354 38.354 38.354 6.988 0 13.534-1.878 19.177-5.144-11.461-6.633-19.177-19.017-19.177-33.21z" fill="#1ca8ff"/><path d="m383.79 407.414h-229.645l-2.15 4.182v28.083l6.533 3.694h220.879l2.005-2.36v-22.75l4.083-8.417z" fill="#9790cc"/><path d="m127.329 409.596 2.917 9v22.667l2.855 2.111h25.427v-23.635c0-4.658-1.649-8.946-4.383-12.324h-25.428z" fill="#8479c2"/><path d="m460.054 437.786h-13.696l-1.571 1.643v25.563l1.571 1.807h13.696c8.011 0 14.506-6.495 14.506-14.506 0-8.012-6.495-14.507-14.506-14.507z" fill="#8bcaff"/><path d="m52.453 437.786c-8.011 0-14.506 6.495-14.506 14.506s6.495 14.506 14.506 14.506h13.696l3.138-3.785v-23.53l-3.138-1.696h-13.696z" fill="#8bcaff"/><path d="m426.703 400.083h-5.813c-6.755 3.346-11.429 10.312-11.429 18.327v67.766c0 8.015 4.674 14.981 11.429 18.327h5.813c10.811 0 19.655-8.845 19.655-19.655v-65.109c0-10.811-8.845-19.656-19.655-19.656z" fill="#dbedff"/><path d="m410.199 484.847v-65.109c0-10.279 8-18.764 18.08-19.575-.521-.042-1.044-.08-1.576-.08h-27.64c-10.811 0-19.656 8.845-19.656 19.655v65.109c0 10.81 8.845 19.655 19.656 19.655h27.64c.532 0 1.054-.038 1.576-.08-10.08-.812-18.08-9.297-18.08-19.575z" fill="#b5dcff"/><path d="m113.445 400.083h-5.813c-6.755 3.346-11.429 10.312-11.429 18.327v67.766c0 8.015 4.674 14.981 11.429 18.327h5.813c10.811 0 19.655-8.845 19.655-19.655v-65.109c0-10.811-8.844-19.656-19.655-19.656z" fill="#dbedff"/><path d="m96.941 484.847v-65.109c0-10.279 8-18.764 18.08-19.575-.521-.042-1.044-.08-1.576-.08h-27.64c-10.811 0-19.656 8.845-19.656 19.655v65.109c0 10.81 8.845 19.655 19.656 19.655h27.64c.532 0 1.054-.038 1.576-.08-10.08-.812-18.08-9.297-18.08-19.575z" fill="#b5dcff"/></g><g><path d="m256.001 91.707c25.284 0 45.854-20.57 45.854-45.854s-20.57-45.853-45.854-45.853-45.854 20.57-45.854 45.854 20.57 45.853 45.854 45.853zm0-76.707c17.013 0 30.854 13.841 30.854 30.854s-13.841 30.854-30.854 30.854-30.854-13.841-30.854-30.854 13.841-30.854 30.854-30.854z"/><path d="m131.723 399.914c-4.856-4.543-11.372-7.332-18.531-7.332h-27.64c-14.974 0-27.155 12.182-27.155 27.156v10.548h-6.197c-12.134 0-22.006 9.872-22.006 22.006s9.872 22.006 22.006 22.006h6.196v10.548c0 14.974 12.182 27.155 27.155 27.155h27.641c13.647 0 24.971-10.121 26.871-23.251l49.053-37.877h49.385c4.143 0 7.5-3.358 7.5-7.5s-3.357-7.5-7.5-7.5c-9.803 0-88.593 0-98.153 0v-16.135c0-1.574-.155-3.256-.438-4.824h232.182c-.298 1.654-.438 3.38-.438 4.824v16.135c-9.561 0-88.35 0-98.153 0-4.143 0-7.5 3.358-7.5 7.5s3.357 7.5 7.5 7.5h49.385l49.053 37.877c1.899 13.13 13.223 23.251 26.871 23.251h27.641c14.974 0 27.155-12.182 27.155-27.155v-10.548h6.196c12.134 0 22.006-9.872 22.006-22.006s-9.872-22.006-22.006-22.006h-6.196v-10.548c0-14.974-12.182-27.156-27.155-27.156h-27.641c-7.159 0-13.674 2.789-18.531 7.332h-53.285v-191.338c3.252 6.984 7.313 15.706 12.402 26.618 2.864 6.142 4.378 12.971 4.378 19.75v97.284c0 16.23 12.412 29.528 28.257 30.274 17.033.808 31.106-12.749 31.106-29.648v-39.481c0-4.142-3.357-7.5-7.5-7.5s-7.5 3.358-7.5 7.5v39.481c0 8.336-6.928 15.063-15.401 14.665-7.698-.363-13.962-7.222-13.962-15.291v-97.284c0-8.954-2-17.976-5.784-26.089-5.932-12.721-10.467-22.463-13.951-29.946l-5.561-11.938c-2.252-4.825-7.456-7.39-12.65-6.236-5.201 1.154-8.834 5.681-8.834 11.009v208.171h-29.363v-35.642c0-7.244-3.007-14.267-8.249-19.269-5.318-5.073-12.304-7.678-19.657-7.331-14.217.669-25.354 12.59-25.354 27.14v35.102h-29.363v-208.172c0-5.33-3.634-9.857-8.837-11.01-5.194-1.151-10.397 1.415-12.646 6.238l-5.652 12.133c-3.473 7.458-7.981 17.141-13.862 29.751-3.783 8.115-5.782 17.136-5.782 26.088v97.911c0 8.31-6.9 15.064-15.401 14.665-7.698-.363-13.962-7.222-13.962-15.291v-97.284c0-13.21 2.951-26.523 8.533-38.498l24.727-53.024c9.981-21.405 31.691-35.235 55.31-35.235h87.133c23.619 0 45.331 13.831 55.313 35.236l24.725 53.022c5.583 11.971 8.534 25.283 8.534 38.499v23.429c0 4.142 3.357 7.5 7.5 7.5s7.5-3.358 7.5-7.5v-23.429c0-15.392-3.438-30.897-9.94-44.839l-24.725-53.021c-12.435-26.667-39.481-43.897-68.906-43.897h-87.133c-29.423 0-56.469 17.23-68.903 43.896l-24.728 53.025c-6.502 13.947-9.938 29.452-9.938 44.837v97.284c0 16.23 12.412 29.528 28.257 30.274 16.987.807 31.106-12.706 31.106-29.648v-97.911c0-6.777 1.514-13.606 4.377-19.75 5.089-10.912 9.151-19.633 12.403-26.617v191.338h-53.288zm239.931 50.96v18.706l-24.226-18.706zm88.148-5.587c3.863 0 7.006 3.143 7.006 7.006s-3.143 7.006-7.006 7.006h-6.196v-14.012zm-33.352-37.704c6.702 0 12.155 5.453 12.155 12.156v65.108c0 6.703-5.453 12.155-12.155 12.155h-27.64c-6.702 0-12.155-5.453-12.155-12.155 0-21.714 0-52.958 0-65.108 0-6.68 5.446-12.156 12.155-12.156zm-182.079-42.771c0-6.416 4.961-11.869 11.059-12.156 3.216-.149 6.276.985 8.598 3.2 2.323 2.217 3.604 5.206 3.604 8.416v35.642h-23.26v-35.102zm-192.171 94.486c-3.863 0-7.006-3.143-7.006-7.006s3.143-7.006 7.006-7.006h6.196v14.012zm60.992 37.704h-27.64c-6.702 0-12.155-5.453-12.155-12.155 0-13.621 0-40.781 0-65.108 0-6.703 5.453-12.156 12.155-12.156h27.641c6.794 0 12.155 5.595 12.155 12.156v65.108c0 6.702-5.453 12.155-12.156 12.155zm51.381-46.128-24.226 18.706v-18.706z"/></g></g></svg>