<svg id="Capa_1" enable-background="new 0 0 512 512" height="512" viewBox="0 0 512 512" width="512" xmlns="http://www.w3.org/2000/svg"><g><g><path d="m456 475.04h-394.339v-316.08h394.339v30.04l-4.658 7.5 4.658 7.5v16l-4.658 7.5 4.658 7.5v15l-4.658 7.5 4.658 7.5v15l-4.658 8.541 4.658 6.459v15l-4.658 8.046 4.658 6.954v15l-4.658 8.651 4.658 6.349v15l-4.658 7.5 4.658 7.5v15l-4.658 8.541 4.658 6.459v15l-4.658 8.596 4.658 6.404z" fill="#857e87"/><path d="m72 158.96v316.08h-16v-30.04l8-8.385-8-6.615v-15l8-7.5-8-7.5v-15l8-7.5-8-7.5v-15l8-7.5-8-7.5v-15l8-7.5-8-7.5v-15l8-7.5-8-7.5v-15l8-9-8-6v-15l8-7.5-8-7.5v-16l8-7.5-8-7.5v-30.04z" fill="#6f6571"/><g><path d="m499.5 467.5h-478l-7.133 2c-2.761 0-5 2.239-5 5l-.156 23.06c0 2.761 2.239 5 5 5l483.633.275c2.761 0 5-2.239 5-5l1.656-7.335v-18c0-2.761-2.239-5-5-5z" fill="#c38c66"/><path d="m504.5 490.5v9c0 2.76-2.24 5-5 5h-487c-2.76 0-5-2.24-5-5v-27c0-2.76 2.24-5 5-5h9v13c0 5.52 4.48 10 10 10z" fill="#b57f5f"/></g><path d="m126 189h260v256h-260z" fill="#635a63"/><g><path d="m326.423 334.637-2.571 6.837c-2.39 6.356-5.813 10.489-10.508 15.396l-.182.19c-1.89 1.975-4.789 2.871-7.502 3.079-.187.014-.375.024-.563.029l-.24.006c-7.825.201-13.609-7.201-11.511-14.724 1.274-4.57 2.669-9.608 3.953-14.256 2.914-10.55 1.891-21.797-2.876-31.649l-.198-.41c-5.225-10.798-14.329-19.118-25.472-23.32-.828-.312-1.66-.626-2.491-.94 0 0-10.18-3.1-13.625-4.403-.916-.346-1.749.658-1.247 1.5l3.046 6.035c4.826 8.096 4.41 18.356-1.196 25.934l-.272.368c-1.936 2.617-4.8 4.636-7.759 5.6-1.278.416-3.214.564-4.58.625-.225.01-.45.015-.677.015h-.22c-4.164-.004-8.146-1.68-11.057-4.64-.104-.105-.456.085-.557-.023l-7.758-8.063c-.46-.496-1.275-.43-1.637.142-6.248 9.893-7.534 20.793-6.599 32.481l1.378 17.223c.575 7.183-4.908 13.517-11.433 15.514-1.073.328-2.921.407-4.084.486-.34.023-.684.035-1.03.035-5.135-.151-11.073-2.744-15.786-6.795 0 0-5.368-3.232-6.856-6.721-.313-.733-1.299-.874-1.773-.234-9.415 12.739-12.457 27.924-10.465 44.34l.068.602c1.552 13.779 7.596 26.763 16.975 36.799l.191.204c7.811 8.356 16.396 13.101 27.837 13.101h68.782c20.289 0 39.746-8.06 54.092-22.406l.522-.522c11.553-11.553 18.043-27.222 18.043-43.56 1.32-13.558-2.808-26.862-11.119-37.174 0 0-5.84-4.522-9.463-7.181-.55-.404-1.34-.159-1.58.48z" fill="#ffe07d"/><path d="m221.63 445h-14.48c-11.439 0-22.372-4.747-30.181-13.105l-.197-.207c-9.371-10.033-15.266-22.817-16.818-36.604l-.072-.6c-1.996-16.414 3.134-34.277 12.546-47.02.476-.641 1.458-.496 1.769.238 1.489 3.496 3.982 6.64 6.971 9.205-5.637 11.377-8.347 24.906-6.806 37.577l.072.6c1.551 13.787 7.447 26.571 16.818 36.604l.197.207c7.809 8.358 18.742 13.105 30.181 13.105z" fill="#ffd064"/><g><path d="m181.957 307.954c-14.97-2.741-20.632-18.849-14.063-32.396 6.448-11.097 6.911-16.98 7.231-29.008.035-1.33 1.294-2.267 2.588-1.958 4.114.982 9.586 3.974 9.586 3.974 7.662 7.209 10.911 19.197 6.629 29.497-6.502 13.277-8.853 12.937-8.927 25.349 0 0-.586 1.114-.557 2.457.029 1.332-1.178 2.325-2.487 2.085z" fill="#ffe07d"/><path d="m185.001 303.413c-.01 1.117.004 2.338.035 3.682.031 1.334-1.179 2.327-2.493 2.079-14.966-2.741-22.91-21.11-16.342-34.66 6.444-11.098 7.478-17.811 7.788-29.84.041-1.334 1.303-2.265 2.596-1.965 4.117.983 7.744 3.064 10.713 5.857-.476 9.712-1.932 16.101-7.651 25.948-4.675 9.651-2 21.752 5.354 28.899z" fill="#ffd064"/></g><g><path d="m338.66 302.801c-14.97-2.741-20.632-18.849-14.063-32.396 6.448-11.097 6.911-16.98 7.231-29.008.035-1.33 1.294-2.267 2.588-1.958 4.114.982 9.586 3.974 9.586 3.974 7.662 7.209 10.911 19.197 6.629 29.497-6.502 13.277-8.853 12.937-8.927 25.349 0 0-.586 1.114-.557 2.457.03 1.332-1.178 2.324-2.487 2.085z" fill="#ffe07d"/><path d="m341.705 298.26c-.01 1.117.004 2.338.035 3.682.031 1.334-1.179 2.327-2.493 2.079-14.966-2.741-22.91-21.11-16.342-34.66 6.444-11.098 7.478-17.811 7.788-29.84.041-1.334 1.303-2.265 2.596-1.965 4.117.983 7.744 3.064 10.713 5.857-.476 9.712-1.932 16.101-7.651 25.948-4.675 9.651-2 21.752 5.354 28.899z" fill="#ffd064"/></g><g fill="#ffd064"><path d="m226.357 347.537c.693 8.709-6.185 16.166-14.925 16.166h-14.48c8.74 0 15.618-7.457 14.925-16.166l-1.376-17.221c-.941-11.688 1.945-23.355 8.192-33.243.362-.569 1.179-.641 1.634-.145l8.037 8.657c.103.114.207.218.31.321-3.082 7.695-4.365 16.042-3.692 24.409z"/><path d="m266.902 303.982-.279.372c-2.906 3.93-7.406 6.196-12.195 6.196h-14.48c4.789 0 9.288-2.265 12.195-6.196l.279-.372c5.378-7.282 6.051-16.983 1.82-24.906-.134-.279-.31-.6-.538-.972l-4.623-7.747c-.496-.838.331-1.851 1.252-1.5.434.165.9.341 1.417.538.207.072.424.155.652.248 1.541.579 3.362 1.262 5.347 2.017.527.197 1.065.403 1.624.61.062.021.134.052.207.083.414.155.838.31 1.262.476 1.758.662 3.579 1.355 5.42 2.048l1.924 3.227c4.818 8.098 4.311 18.297-1.284 25.878z"/><path d="m337.467 341.338c-2.369 5.637-5.755 10.802-9.996 15.228l-.176.186c-2.027 2.11-4.799 3.341-7.716 3.413l-.238.01h-14.48l.238-.01c2.917-.072 5.689-1.303 7.716-3.413l.176-.186c4.696-4.913 8.347-10.715 10.736-17.076l2.575-6.837c.238-.631 1.024-.879 1.583-.476 3.62 2.659 6.841 5.737 9.582 9.161z"/></g></g><path d="m445.248 163.477-378.826 1.156c-16.842 0-33.606-11.786-33.606-28.629l-1.816-.504 225.855-9.014 224.145 9.014v.504c0 6.511-2.04 12.545-5.517 17.498 0 0-19.904 9.975-30.235 9.975z" fill="#f8f7f7"/><path d="m475.483 153.502c-5.51 7.86-14.643 12.998-24.983 12.998h-389c-16.85 0-30.5-13.65-30.5-30.5v-.5l8.917-6.041 6.763 6.041c4.76 10.61 15.43 18 27.82 18z" fill="#e8e8e8"/><path d="m135.5 67.5h-32c-4.388 0-8.548.974-12.275 2.719 0 0-5.211 3.879-7.546 6.176-5.348 5.261-7.321 12.011-7.321 20.105h86.037c0-5.078-1.492-14.001-1.492-14.001-4.94-8.943-14.464-14.999-25.403-14.999z" fill="#f8f7f7"/><path d="m164.5 96.5-41.739 4.775-48.261-4.775c0-11.63 6.845-21.681 16.725-26.281-1.12 2.373-1.914 4.927-2.348 7.593-.399 2.451 1.464 4.688 3.947 4.688l68.078-.001c2.3 4.15 3.598 8.921 3.598 14.001z" fill="#e8e8e8"/><path d="m141 38.5h-43c-1.105 0-2 .895-2 2v3.5c0 12.979 10.521 23.5 23.5 23.5 12.979 0 23.5-10.521 23.5-23.5v-3.5c0-1.105-.895-2-2-2z" fill="#e8e8e8"/><path d="m232.5 36.708v-27.208c0-1.105-.895-2-2-2h-9l-10.812.729c-1.105 0-2 .895-2 2l1.546 26.874c0 7.706-2.166 15.258-6.25 21.792-3.39 5.272-6.295 14.111-6.25 21.792l-.22 15.812h44.945l2.541-14v-2.208c0-7.706-2.166-15.258-6.25-21.792-4.084-6.534-6.25-14.085-6.25-21.791z" fill="#857e87"/><path d="m213.075 82.5c-2.285 0-4.137-1.912-3.996-4.192.391-6.325 2.085-13.238 6.172-19.808 4.08-6.53 6.25-14.09 6.25-21.79v-29.21h-12c-1.1 0-2 .9-2 2v27.21c0 7.7-2.17 15.26-6.25 21.79-3.861 6.201-6.573 14.702-6.25 24v14l24.257 5.381 25.742-5.381v-14z" fill="#6f6571"/><g><path d="m499.5 96.5h-478l-7.133 2c-2.761 0-5 2.239-5 5l-.156 25.06c0 2.761 2.239 5 5 5l483.633.275c2.761 0 5-2.239 5-5l1.656-7.335v-20c0-2.761-2.239-5-5-5z" fill="#c38c66"/><path d="m504.5 121.5v9c0 2.76-2.24 5-5 5h-487c-2.76 0-5-2.24-5-5v-29c0-2.76 2.24-5 5-5h9v15c0 5.52 4.48 10 10 10z" fill="#b57f5f"/></g><path d="m434.5 55.16h-49.44l-9.597.569c-1.657 0-3 1.343-3 3v4.84c0 18.502 13.035 31.583 31.537 31.583 8.936 0 15.975-2.899 21.982-8.601 1.54-1.462 5.26-4.049 5.26-4.049 3.939-5.494 6.258-12.227 6.258-19.502v-4.84c0-1.657-1.343-3-3-3z" fill="#f8f7f7"/><path d="m431.24 82.5c-1.07 1.49-2.26 2.89-3.55 4.19-6.07 6.06-14.44 9.81-23.69 9.81-18.5 0-33.5-15-33.5-33.5v-4.84c0-1.66 1.34-3 3-3h11.56c2.9 15.56 16.54 27.34 32.94 27.34z" fill="#e8e8e8"/></g><g><path d="m463.5 171.709c12.445-4.544 21.859-15.421 24.343-28.709h11.657c6.893 0 12.5-5.607 12.5-12.5v-29c0-6.893-5.607-12.5-12.5-12.5h-63.823c5.822-7.081 9.323-16.139 9.323-26v-7.84c0-4.142-3.358-7.5-7.5-7.5h-67c-4.142 0-7.5 3.358-7.5 7.5v7.84c0 9.861 3.501 18.919 9.323 26h-119.823v-8.708c0-9.122-2.555-18.032-7.39-25.768-3.343-5.349-5.11-11.51-5.11-17.817v-29.207c0-4.142-3.358-7.5-7.5-7.5h-25c-4.142 0-7.5 3.358-7.5 7.5v29.208c0 6.308-1.767 12.469-5.11 17.817-4.835 7.735-7.39 16.646-7.39 25.768v8.707h-16.278c-2.805-13.376-12.956-24.074-26.022-27.681 3.345-4.949 5.3-10.91 5.3-17.319v-5.5c0-4.142-3.358-7.5-7.5-7.5h-47c-4.142 0-7.5 3.358-7.5 7.5v5.5c0 6.409 1.955 12.37 5.301 17.319-13.066 3.607-23.218 14.305-26.023 27.681h-55.278c-6.893 0-12.5 5.607-12.5 12.5v29c0 6.893 5.607 12.5 12.5 12.5h11.657c2.484 13.288 11.899 24.165 24.343 28.709v288.291h-36c-6.893 0-12.5 5.607-12.5 12.5v27c0 6.893 5.607 12.5 12.5 12.5h487c6.893 0 12.5-5.607 12.5-12.5v-27c0-6.893-5.607-12.5-12.5-12.5h-36zm-134.793 149.789c-1.899-1.318-4.302-1.688-6.508-.999-2.208.688-3.975 2.356-4.789 4.52l-2.947 7.836c-1.966 5.228-4.921 9.925-8.787 13.966-.418.486-3.614 2.376-5.695-.273-.43-.552-1.087-1.712-.649-3.282 2.301-8.748 6.396-19.607 5.574-30.562-.257-4.135-3.831-7.288-7.949-7.022-4.134.256-7.278 3.815-7.022 7.949.601 7.425-2.618 16.696-5.051 25.606-1.61 5.777-.419 11.804 3.269 16.534 3.695 4.739 9.268 7.359 15.274 7.214 11.562-.032 19.265-12.135 24.165-22.573 7.702 8.659 11.61 20.263 10.459 32.078-1.388 14.248-6.997 27.566-16.221 38.514-10.171 12.073-25.057 18.996-40.842 18.996h-72.221c-8.95 0-17.588-3.75-23.695-10.285-7.671-7.937-13.413-20.147-14.549-31.892-1.255-11.139.752-22.187 5.699-31.997 3.561 3.803 8.027 6.741 13.106 8.523 2.804 1.015 4.929 1.814 9.584 2.049 6.112 0 11.996-2.576 16.143-7.067s6.246-10.562 5.758-16.656l-1.332-16.652c-.538-6.723.471-13.493 2.88-19.745 7.95 10.721 27.346 11.839 36.203-.657 5.519-7.46 7.208-16.834 4.937-25.5 4.055 1.415 9.105 3.762 13.823 7.859 3.096 2.752 7.837 2.472 10.588-.624s2.473-7.836-.624-10.588c-4.808-4.273-10.296-7.59-16.314-9.86-9.884-3.728-20.477-7.735-20.478-7.736-2.985-1.131-6.354-.248-8.403 2.198-2.049 2.444-2.327 5.917-.694 8.657l5.936 9.957c3.127 5.245 2.801 11.807-.829 16.714-1.994 2.982-7.456 4.993-11.728.908l-8.648-9.313c-1.562-1.682-3.807-2.556-6.097-2.373-2.289.184-4.366 1.406-5.64 3.316-7.429 11.144-10.933 24.633-9.864 37.983l1.332 16.651c.157 1.962-.492 3.839-1.827 5.285s-3.154 2.242-5.122 2.242c-.308.12-2.847-.516-4.621-1.204-5.136-1.802-9.117-5.78-10.923-10.915-.911-2.592-3.167-4.478-5.878-4.916-1.813-.294-5.064.367-7.271 2.999-11.526 14.902-16.711 33.419-14.603 52.139 1.38 14.171 8.115 29.659 18.538 40.5h-40.654v-226h245v226h-54.795c3.459-2.771 6.685-5.876 9.595-9.33 11.19-13.282 17.995-29.439 19.679-46.725 2.003-20.567-7.298-40.663-24.272-52.447zm-265.207 108.502v-15h55v15zm55-150h-55v-15h55zm0 15v15h-55v-15zm0 30v15h-55v-15zm0 30v15h-55v-15zm0-105h-55v-15h55zm-55 135h55v15h-55zm55-165h-55v-16h55zm330-16v16h-55v-16zm-55 151h55v15h-55zm0-15v-15h55v15zm0-30v-15h55v15zm0-30v-15h55v15zm0-30v-15h55v15zm0 135h55v15h-55zm0 30h55v15h-55zm-15.5-352v-.34h52v.34c0 14.336-11.664 26-26 26s-26-11.664-26-26zm-175.5 17.292c0-6.308 1.767-12.469 5.11-17.817 4.835-7.735 7.39-16.645 7.39-25.767v-21.708h10v21.708c0 9.122 2.555 18.032 7.39 25.768 3.343 5.349 5.11 11.51 5.11 17.817v8.707h-35zm-67.125-34.292c-.987 7.882-7.73 14-15.875 14s-14.888-6.118-15.875-14zm-31.875 29h32c9.214 0 17.07 5.838 20.123 14h-72.246c3.053-8.162 10.909-14 20.123-14zm-63.908 68h51.408c4.142 0 7.5-3.358 7.5-7.5s-3.358-7.5-7.5-7.5h-76v-24h482v24h-371c-4.142 0-7.5 3.358-7.5 7.5s3.358 7.5 7.5 7.5h346.408c-2.967 9.269-11.663 16-21.904 16h-103.015c-4.142 0-7.5 3.358-7.5 7.5s3.358 7.5 7.5 7.5h101.011v15c-84.225 0-300.897 0-385 0v-15h248.989c4.142 0 7.5-3.358 7.5-7.5s-3.358-7.5-7.5-7.5h-250.993c-10.241 0-18.937-6.731-21.904-16zm86.408 317c-4.142 0-7.5 3.358-7.5 7.5s3.358 7.5 7.5 7.5h371v22h-482v-22h76c4.142 0 7.5-3.358 7.5-7.5s-3.358-7.5-7.5-7.5h-27.5v-15h385v15z"/><path d="m177.68 234.04c-2.106-.256-4.225.388-5.829 1.78-1.603 1.391-2.542 3.397-2.583 5.52-.241 12.447-.837 17.684-6.577 27.561-4.413 8.283-4.282 21.135 1.275 30.48 5.091 8.697 13.487 14.014 23.035 14.588 3.406.128 7.754-2.315 7.946-7.727-.379-11.831.044-12.585 3.336-18.46.735-1.327 2.631-4.668 4.628-8.8 3.873-9.315 3.032-20.289-2.248-29.354-5.088-8.74-13.465-14.421-22.983-15.588zm11.461 38.987c-1.553 3.158-2.821 5.42-3.943 7.421-3.046 5.436-4.629 8.635-5.145 15.24-1.465-1.313-2.489-2.771-3.142-3.886-2.882-4.924-3.293-10.892-1.092-15.64 5.169-8.962 7.124-15.603 7.917-23.739 1.533 1.286 2.879 2.887 3.965 4.752 2.897 4.972 3.43 10.881 1.44 15.852z"/><path d="m354.419 273.997c3.873-9.315 3.032-20.289-2.248-29.354-5.089-8.738-13.466-14.419-22.984-15.587-2.104-.256-4.225.388-5.829 1.78-1.603 1.391-2.542 3.397-2.583 5.52-.075 11.368-1.158 18.531-6.84 28.056-4.476 9.229-3.886 20.719 1.539 29.985 5.091 8.697 13.487 14.014 23.035 14.588 1.603.05 3.23-.273 5.678-2.109 1.512-1.47 2.335-3.509 2.268-5.617-.912-15.598 2.235-15.092 7.964-27.262zm-13.771-5.954c-3.495 7.457-8.407 12.976-9.088 22.661-1.465-1.313-2.489-2.771-3.142-3.886-2.883-4.924-3.293-10.892-1.092-15.64 5.169-8.961 7.124-15.604 7.917-23.739 1.533 1.286 2.879 2.887 3.965 4.752 2.897 4.973 3.43 10.881 1.44 15.852z"/></g></g></svg>