<svg id="Capa_1" enable-background="new 0 0 512 512" height="512" viewBox="0 0 512 512" width="512" xmlns="http://www.w3.org/2000/svg"><g><g><path d="m452.766 503.5-29.4 1h-364.128c-5.523 0-10-4.477-10-10v-280.236c0-109.301 84.811-198.794 192.215-206.26 4.806-.334 9.657.496 14.548.496 114.193 0 205.764 91.571 205.764 205.764v280.236c.001 5.523-3.476 9-8.999 9z" fill="#fed2a4"/><path d="m462.762 214.26v280.24c0 5.52-4.47 10-10 10h-30c5.53 0 10-4.48 10-10v-280.24c0-57.1-23.14-108.78-60.56-146.2-34.11-34.11-80.08-56.36-131.2-60.02 4.95-.36 9.96-.54 15-.54 57.1 0 108.78 23.14 146.2 60.56s60.56 89.1 60.56 146.2z" fill="#ffbd86"/></g><g><path d="m304.474 497h-245.238c-1.378 0-2.5-1.121-2.5-2.5v-115.098c0-4.143-3.358-7.5-7.5-7.5s-7.5 3.357-7.5 7.5v115.098c0 9.649 7.851 17.5 17.5 17.5h245.238c4.142 0 7.5-3.357 7.5-7.5s-3.358-7.5-7.5-7.5z"/><path d="m441.096 106.27c-2.09-3.575-6.684-4.778-10.26-2.689-3.576 2.091-4.78 6.685-2.689 10.26 17.74 30.343 27.117 65.068 27.117 100.424v280.235c0 1.379-1.122 2.5-2.5 2.5h-115.603c-4.142 0-7.5 3.357-7.5 7.5s3.358 7.5 7.5 7.5h115.603c9.649 0 17.5-7.851 17.5-17.5v-280.236c0-38.014-10.086-75.358-29.168-107.994z"/><path d="m49.236 354.215c4.142 0 7.5-3.357 7.5-7.5v-132.451c0-109.874 89.39-199.264 199.264-199.264 59.907 0 116.084 26.592 154.126 72.957 2.628 3.201 7.353 3.667 10.556 1.04 3.202-2.627 3.668-7.353 1.041-10.556-40.903-49.85-101.306-78.441-165.723-78.441-57.232 0-111.039 22.287-151.508 62.757-40.469 40.469-62.756 94.274-62.756 151.507v132.451c0 4.142 3.358 7.5 7.5 7.5z"/><path d="m417.26 379.5c-4.142 0-7.5 3.357-7.5 7.5v78.667c0 4.143 3.358 7.5 7.5 7.5s7.5-3.357 7.5-7.5v-78.667c0-4.143-3.358-7.5-7.5-7.5z"/><path d="m424.76 222.085c0-93.055-75.706-168.76-168.76-168.76-16.438 0-32.697 2.372-48.326 7.049-3.968 1.188-6.222 5.368-5.035 9.336 1.188 3.968 5.365 6.218 9.335 5.035 14.232-4.26 29.045-6.42 44.025-6.42 84.784 0 153.76 68.977 153.76 153.76v92.616c0 4.143 3.358 7.5 7.5 7.5s7.5-3.357 7.5-7.5v-92.616z"/><path d="m142.972 106.929c-3.035-2.819-7.78-2.645-10.6.391-29.103 31.33-45.132 72.088-45.132 114.765v243.582c0 4.143 3.358 7.5 7.5 7.5s7.5-3.357 7.5-7.5v-243.582c0-38.877 14.604-76.01 41.122-104.557 2.819-3.035 2.644-7.78-.39-10.599z"/><path d="m382.26 473.167c4.142 0 7.5-3.357 7.5-7.5v-243.582c0-13.94-2.147-27.687-6.381-40.858-1.268-3.944-5.493-6.114-9.436-4.846s-6.112 5.492-4.845 9.436c3.757 11.688 5.662 23.89 5.662 36.269v243.582c0 4.142 3.358 7.499 7.5 7.499z"/><path d="m129.74 473.167c4.142 0 7.5-3.357 7.5-7.5v-243.582c0-65.484 53.275-118.76 118.76-118.76 30.652 0 59.769 11.691 81.986 32.922 2.995 2.86 7.743 2.754 10.604-.241 2.862-2.995 2.754-7.742-.241-10.605-25.021-23.909-57.818-37.076-92.349-37.076-73.755 0-133.76 60.004-133.76 133.76v243.582c0 4.143 3.358 7.5 7.5 7.5z"/><path d="m347.26 473.167c4.142 0 7.5-3.357 7.5-7.5v-243.582c0-54.456-44.304-98.76-98.76-98.76s-98.76 44.304-98.76 98.76v93.661c0 4.143 3.358 7.5 7.5 7.5s7.5-3.357 7.5-7.5v-93.661c0-46.186 37.575-83.76 83.76-83.76 46.186 0 83.76 37.574 83.76 83.76v243.582c0 4.143 3.358 7.5 7.5 7.5z"/><path d="m164.74 473.167c4.142 0 7.5-3.357 7.5-7.5v-55.334c0-4.143-3.358-7.5-7.5-7.5s-7.5 3.357-7.5 7.5v55.334c0 4.143 3.358 7.5 7.5 7.5z"/><path d="m312.26 418.257c-4.142 0-7.5 3.357-7.5 7.5v39.91c0 4.143 3.358 7.5 7.5 7.5s7.5-3.357 7.5-7.5v-39.91c0-4.143-3.358-7.5-7.5-7.5z"/><path d="m256 158.325c-35.157 0-63.76 28.603-63.76 63.76v243.582c0 4.143 3.358 7.5 7.5 7.5s7.5-3.357 7.5-7.5v-243.582c0-26.886 21.874-48.76 48.76-48.76 26.887 0 48.76 21.874 48.76 48.76v153.582c0 4.143 3.358 7.5 7.5 7.5s7.5-3.357 7.5-7.5v-153.582c0-35.157-28.602-63.76-63.76-63.76z"/><path d="m277.26 255.246c4.142 0 7.5-3.357 7.5-7.5v-25.661c0-7.678-2.993-14.899-8.427-20.333-5.545-5.545-12.913-8.547-20.757-8.424-15.625.227-28.337 13.343-28.337 29.237v221.841c0 15.858 12.902 28.761 28.76 28.761s28.76-12.902 28.76-28.761v-128.66c0-4.143-3.358-7.5-7.5-7.5s-7.5 3.357-7.5 7.5v128.66c0 7.588-6.173 13.761-13.76 13.761s-13.76-6.173-13.76-13.761v-221.841c0-7.743 6.081-14.131 13.553-14.239 3.747-.061 7.28 1.378 9.934 4.033 2.601 2.601 4.033 6.055 4.033 9.726v25.661c.001 4.143 3.359 7.5 7.501 7.5z"/></g></g></svg>