<svg id="Capa_1" enable-background="new 0 0 512 512" height="512" viewBox="0 0 512 512" width="512" xmlns="http://www.w3.org/2000/svg"><g><g><path d="m489.5 445h-467c-8.284 0-15-6.716-15-15v-85.339l7.534-18.32-7.534-33.127v-211.214c0-8.284 6.716-15 15-15h467c8.284 0 15 6.716 15 15v259.07l-8.888 25.24 8.888 27.164v36.526c0 8.284-6.716 15-15 15z" fill="#f6a7d2"/><g><path d="m290.496 148.052c.027-1.722-.071-3.474-.306-5.25-2.213-16.788-16.317-29.838-33.226-30.748-20.498-1.104-37.464 15.19-37.464 35.447 0 .164.001.328.003.492.071 5.136-3.068 9.674-7.828 11.603-13.641 5.527-23.067 19.283-22.108 35.115 1.057 17.449 14.999 31.729 32.421 33.166 13.864 1.144 26.223-5.691 33.012-16.405 6.789 10.714 19.149 17.549 33.012 16.405 17.422-1.437 31.364-15.717 32.421-33.166.959-15.832-8.467-29.589-22.109-35.115-4.74-1.922-7.908-6.43-7.828-11.544z" fill="#eaf6ff"/><g><path d="m298.324 159.594c-4.74-1.92-7.908-6.428-7.828-11.542.027-1.722-.071-3.474-.306-5.25-2.213-16.788-16.317-29.838-33.226-30.748-6.094-.328-11.87.891-16.987 3.285 10.697 5.022 18.603 15.25 20.213 27.463.234 1.776.332 3.529.306 5.25-.079 5.114 3.088 9.622 7.828 11.542 13.642 5.526 23.068 19.283 22.109 35.115-.799 13.19-8.962 24.564-20.423 29.954 5.401 2.525 11.533 3.746 18.003 3.212 17.422-1.437 31.364-15.717 32.421-33.166.958-15.832-8.468-29.588-22.11-35.115z" fill="#d8ecfe"/></g><path d="m295.731 205.436c-6.348-.952-12.887-.316-18.977 1.908-2.212.808-4.609-.414-5.261-2.677-2.372-8.237-7.422-15.34-14.147-20.308-1.388-1.025-3.305-1.025-4.693 0-6.724 4.968-11.775 12.07-14.147 20.308-.652 2.263-3.049 3.485-5.261 2.677-6.09-2.224-12.629-2.861-18.977-1.908-1.707.256-3.068 1.609-3.324 3.316-1.754 11.667 1.852 23.983 10.835 32.965 0 0 3.899 3.899 9.171 6.79 13.362 7.329 34.738 7.329 48.1 0 5.272-2.891 9.171-6.79 9.171-6.79 8.983-8.982 12.589-21.298 10.835-32.965-.257-1.706-1.618-3.06-3.325-3.316z" fill="#bee49d"/><g><path d="m299.056 208.753c-.257-1.707-1.617-3.06-3.324-3.317-6.348-.952-12.887-.316-18.977 1.908-2.212.808-4.609-.414-5.261-2.677-2.372-8.237-7.422-15.34-14.147-20.307-1.388-1.025-3.306-1.025-4.693 0-5.77 4.263-10.302 10.1-12.972 16.874 2.025 3.126 3.612 6.562 4.667 10.225.652 2.263 3.049 3.485 5.261 2.677 6.09-2.224 12.629-2.861 18.977-1.908 1.707.256 3.068 1.609 3.324 3.316 1.754 11.667-1.852 23.983-10.835 32.965 0 0-2.847 2.841-6.959 5.472 8.977.129 18.025-1.684 24.933-5.473 5.272-2.891 9.171-6.79 9.171-6.79 8.982-8.983 12.589-21.299 10.835-32.965z" fill="#a3d8a4"/></g></g><path d="m489.5 67h-30c8.284 0 15 6.716 15 15v348c0 8.284-6.716 15-15 15h30c8.284 0 15-6.716 15-15v-36.526l-8.888-27.164 8.888-25.24v-259.07c0-8.284-6.716-15-15-15z" fill="#f28cc4"/><path d="m504.5 393.474c-31.467-23.139-79.829-50.72-139.239-50.949-86.586-.334-125.691 57.702-212.146 57.468-34.587-.094-84.672-9.535-145.615-55.331 0-17.149 0-34.298 0-51.446 55.381 44.655 102.434 55.923 136.443 57.28 89.154 3.559 131.461-59.274 223.273-58.348 57.604.581 104.923 25.96 137.284 48.923z" fill="#8795de"/><path d="m474.5 373.853c11.218 6.429 21.262 13.196 30 19.621v-52.404c-8.899-6.315-18.936-12.81-30-18.924z" fill="#6c7fd8"/><g><path d="m474.5 160.621c0 15.727-12.749 28.476-28.476 28.476s-28.476-12.749-28.476-28.476c0-12.983 19.407-38.865 26.178-47.501 1.171-1.493 3.425-1.493 4.596 0 6.771 8.636 26.178 34.518 26.178 47.501z" fill="#eaf6ff"/><path d="m448.322 113.12c-1.171-1.493-3.425-1.493-4.596 0-2.817 3.592-7.819 10.171-12.702 17.562 6.856 10.377 13.476 22.357 13.476 29.939 0 10.221-5.388 19.18-13.476 24.204 4.357 2.706 9.494 4.273 15 4.273 15.727 0 28.476-12.749 28.476-28.476 0-12.984-19.406-38.866-26.178-47.502z" fill="#d8ecfe"/><path d="m94.453 160.621c0 15.727-12.749 28.476-28.476 28.476s-28.477-12.749-28.477-28.476c0-12.983 19.407-38.865 26.178-47.501 1.171-1.493 3.425-1.493 4.596 0 6.772 8.636 26.179 34.518 26.179 47.501z" fill="#eaf6ff"/><path d="m68.274 113.12c-1.171-1.493-3.425-1.493-4.596 0-2.817 3.592-7.819 10.171-12.702 17.562 6.856 10.377 13.476 22.357 13.476 29.939 0 10.221-5.388 19.18-13.476 24.204 4.356 2.706 9.494 4.273 15 4.273 15.727 0 28.476-12.749 28.476-28.476.001-12.984-19.406-38.866-26.178-47.502z" fill="#d8ecfe"/></g></g><path d="m489.5 59.5h-362.757c-4.142 0-7.5 3.357-7.5 7.5s3.358 7.5 7.5 7.5h362.757c4.136 0 7.5 3.364 7.5 7.5v244.927c-42.615-27.621-86.189-41.84-129.709-42.28-46.778-.473-81.55 15.2-115.01 30.468-33.367 15.225-64.884 29.612-108.039 27.885-43.076-1.719-86.542-19.691-129.242-53.407v-207.593c0-4.136 3.364-7.5 7.5-7.5h69.243c4.142 0 7.5-3.357 7.5-7.5s-3.358-7.5-7.5-7.5h-69.243c-12.407 0-22.5 10.094-22.5 22.5v348c0 12.406 10.093 22.5 22.5 22.5h467c12.406 0 22.5-10.094 22.5-22.5v-348c0-12.406-10.094-22.5-22.5-22.5zm7.5 319.531c-43.254-29.04-87.503-43.836-131.71-44.007-.259-.001-.512-.001-.77-.001-24.422 0-47.643 4.476-72.995 14.062-3.875 1.466-5.828 5.794-4.363 9.668 1.465 3.875 5.796 5.827 9.668 4.363 23.919-9.045 44.82-13.094 67.656-13.094.248 0 .497.001.745.002 44.01.17 88.323 16.08 131.769 47.279v32.697c0 4.136-3.364 7.5-7.5 7.5h-467c-4.136 0-7.5-3.364-7.5-7.5v-70.696c46.073 31.854 92.469 48.064 138.095 48.188.181 0 .359.001.539.001 44.558 0 77.085-14.953 108.543-29.414l2.713-1.247c3.764-1.729 5.414-6.181 3.686-9.945-1.728-3.763-6.181-5.415-9.945-3.686l-2.718 1.249c-31.496 14.479-61.26 28.166-102.776 28.042-45.309-.123-91.765-17.479-138.136-51.6v-32.422c42.287 31.15 85.5 47.796 128.644 49.518 46.732 1.865 81.366-13.941 114.865-29.228 33.31-15.2 64.74-29.548 108.632-29.114 43.373.438 87.047 15.686 129.859 45.325v34.06zm-15-218.41c0-13.811-15.105-35.971-27.775-52.127-1.988-2.537-4.977-3.993-8.198-3.994h-.003c-3.222 0-6.21 1.455-8.2 3.992-22.957 29.277-27.775 44.508-27.775 52.129 0 19.837 16.139 35.976 35.976 35.976 19.836 0 35.975-16.139 35.975-35.976zm-56.952 0c0-6.314 8.286-21.299 20.976-38.181 12.69 16.88 20.976 31.865 20.976 38.181 0 11.566-9.41 20.976-20.977 20.976s-20.975-9.409-20.975-20.976zm-359.072-56.121c-3.222 0-6.21 1.455-8.2 3.992-22.957 29.278-27.776 44.508-27.776 52.129 0 19.837 16.139 35.976 35.976 35.976s35.977-16.139 35.977-35.976c0-13.808-15.105-35.969-27.776-52.129-1.99-2.537-4.979-3.992-8.201-3.992zm0 77.097c-11.566 0-20.976-9.409-20.976-20.976 0-6.314 8.287-21.299 20.977-38.181 12.689 16.882 20.976 31.866 20.976 38.181 0 11.567-9.411 20.976-20.977 20.976zm142.888-28.958c-17.139 6.944-27.901 24.033-26.78 42.521.927 15.444 10.249 29.209 24.073 35.979 2.282 5.891 5.763 11.326 10.32 15.883.477.477 4.83 4.751 10.867 8.062 7.756 4.254 17.706 6.38 27.658 6.38 9.95-.001 19.903-2.127 27.656-6.38 6.037-3.312 10.392-7.586 10.868-8.062 4.556-4.557 8.037-9.991 10.319-15.882 13.824-6.77 23.146-20.535 24.073-35.975 1.121-18.491-9.641-35.581-26.78-42.525-1.936-.784-3.167-2.539-3.137-4.504.024-2.085-.101-4.202-.373-6.313-2.695-20.479-19.628-36.15-40.264-37.261-11.943-.637-23.283 3.523-31.937 11.725-8.61 8.159-13.589 19.911-13.425 31.807.026 1.98-1.202 3.763-3.138 4.545zm74.053 83.775c-.031.032-3.259 3.206-7.475 5.519-11.079 6.078-29.803 6.079-40.886-.001-4.204-2.306-7.457-5.5-7.474-5.518-6.342-6.342-9.606-14.912-9.012-23.845 4.269-.269 8.584.352 12.603 1.82 2.999 1.095 6.346.896 9.182-.544 2.838-1.442 4.974-4.03 5.858-7.103 1.622-5.632 4.879-10.745 9.286-14.644 4.407 3.898 7.664 9.012 9.286 14.644.884 3.071 3.019 5.659 5.856 7.102s6.184 1.641 9.185.545c4.017-1.468 8.324-2.087 12.603-1.82.591 8.924-2.744 17.381-9.012 23.845zm-68.431-69.869c7.696-3.104 12.603-10.401 12.514-18.601-.086-7.903 2.996-15.326 8.744-20.772 5.635-5.34 13.033-8.054 20.813-7.633 13.21.711 24.473 11.132 26.195 24.22.181 1.401.265 2.816.249 4.174-.128 8.176 4.78 15.48 12.503 18.608 11.162 4.522 18.171 15.66 17.439 27.72-.352 5.873-2.589 11.367-6.179 15.806-.078-.81-.17-1.621-.292-2.43-.741-4.924-4.7-8.878-9.629-9.617-6.435-.964-13.027-.553-19.266 1.188-3.109-8.271-8.62-15.595-15.774-20.88-4.006-2.959-9.602-2.959-13.607 0-7.156 5.286-12.667 12.608-15.775 20.88-6.239-1.74-12.832-2.153-19.265-1.188-4.929.738-8.888 4.693-9.629 9.618-.122.809-.214 1.619-.291 2.429-3.591-4.44-5.828-9.935-6.18-15.811-.731-12.055 6.278-23.193 17.43-27.711z"/></g></svg>