<svg id="Capa_1" enable-background="new 0 0 512 512" height="512" viewBox="0 0 512 512" width="512" xmlns="http://www.w3.org/2000/svg"><g><g><path d="m429.061 450.01v46.49c0 4.42-3.58 8-8 8h-71.5l-4.487-31.06c0-30.11 14.93-58.27 39.86-75.17l23.887-11.07c12.74 17.67 20.24 39.36 20.24 62.81z" fill="#f8f7f7"/><path d="m167.221 471.954-4.66 32.546h-64.5l-5.069-2.573c-4.42 0-8-3.58-8-8l.817-43.936c0-23.31 4.673-44.871 17.273-62.481l23.99 9.074c25.099 16.87 40.149 45.13 40.149 75.37z" fill="#f8f7f7"/><path d="m408.821 387.2-19.4 13.28c-24.93 16.9-39.86 45.06-39.86 75.17v28.85h-187v-28.62c0-30.24-15.05-58.5-40.15-75.37l-19.33-13s52.686-42.602 88.746-42.602l129.724-2.408c11.277 0 19.751 3.538 29.964 6.757 2.782.877 10.59 1.153 10.59 1.153 18.823 7.671 34.985 20.524 46.716 36.79z" fill="#ff8086"/><path d="m115.541 395.89c-.09.11-.18.23-.26.35-11.27 15.74-17.22 34.34-17.22 53.77v54.49h-7c-4.42 0-8-3.58-8-8v-46.49c0-23.31 7.42-44.89 20.02-62.5l8.324.307z" fill="#e8e8e8"/><path d="m321.551 342.5h-121.72c-15.519-.188-28.772.185-46.241 6.54-20.472 7.5-38.034 21.038-50.509 38.47l12.46 8.38c10.671-14.775 25.361-25.878 41.975-32.249 1.573-.603 3.343-.388 4.716.588 7.916 5.626 16.065 7.922 22.769 9.812 7.74 2.17 12.31 3.61 16.27 7.9 16.76 18.14 46.67 19.06 52.5 19.06.37 0 37.91-.22 55.6-18.93 3.22-3.4 7.92-4.95 15.32-7.2 11.11-3.38 26.004-7.92 37.414-24.46-12.51-5.111-26.204-7.911-40.554-7.911z" fill="#e5646e"/><path d="m322.12 358.134c-1.371 6.235-.619 17.731-.619 17.731-12.182 24.72-36.913 41.635-65.44 41.635-28.593 0-53.373-16.994-65.525-41.807 0 0 2.4-11.314 1.043-17.442z" fill="#f2d1a5"/><path d="m402.598 234.54c14.432-5.366 27.486-16.414 34.83-29.751 13.566-22.624 9.173-55.864-10.178-75.306-.698-.702-.786-1.785-.219-2.597 8.896-12.754 9.56-29.18.44-40.693-7.463-9.421-19.63-13.224-31.725-11.149-1.076.185-2.103-.546-2.273-1.625-2.746-17.402-16.029-31.293-33.11-34.951-9.617-18.401-28.871-30.968-51.072-30.968-17.442 0-33.062 7.761-43.624 20.009-.876 1.016-2.466.888-3.186-.244-3.572-5.615-8.422-10.337-14.14-13.756 0 0-13.847-4.491-21.824-4.491-19.874 0-35.565 14.094-40.269 32.503-.249.974-1.208 1.609-2.201 1.448-2.237-.363-4.533-.553-6.873-.553-19.266 0-35.539 12.793-40.802 30.346-.308 1.027-1.386 1.618-2.417 1.327-13.356-3.763-25.457-2.239-33.751 8.23-8.201 10.353-8.49 24.68-1.998 36.737.44.817.294 1.83-.392 2.455-7.056 6.43-17.294 7.103-25.255 30.988-5 15-5.058 33.139 12 59 10.175 13.383 19.199 20.059 25.394 22.977z" fill="#e8e8e8"/><path d="m248.341 13.51c-.27-.01-.55-.01-.82-.01-19.88 0-36.57 13.61-41.27 32.02-.25.98-1.21 1.61-2.2 1.45-2.24-.36-4.54-.55-6.88-.55-19.26 0-35.53 12.79-40.8 30.34-.31 1.03-1.38 1.62-2.41 1.33-13.36-3.76-27.46-.24-35.76 10.23-8.2 10.35-8.49 24.68-1.99 36.74.44.81.29 1.83-.39 2.45-7.06 6.43-17.3 7.1-25.26 30.99-5 15-5.06 33.14 12 59 5.85 7.69 12.31 13.17 17.92 16.98h-10.53c-6.19-2.92-18.22-9.6-28.39-22.98-17.06-25.86-17-44-12-59 7.96-23.89 18.2-24.56 25.26-30.99.68-.62.83-1.64.39-2.45-6.5-12.06-6.21-26.39 1.99-36.74 8.3-10.47 22.4-13.99 35.76-10.23 1.03.29 2.1-.3 2.41-1.33 5.27-17.55 21.54-30.34 40.8-30.34 2.34 0 4.64.19 6.88.55.99.16 1.95-.47 2.2-1.45 4.7-18.41 21.39-32.02 41.27-32.02 7.97 0 15.44 2.19 21.82 6.01z" fill="#d8d8d8"/><path d="m396.149 233.502c13.749 0 23.507 13.401 19.286 26.486l-4.616 14.311c-3.676 11.395-14.282 19.117-26.254 19.117l-257.009.051c-11.973 0-22.579-7.723-26.254-19.117l-4.616-14.311c-4.221-13.085 5.537-26.486 19.286-26.486z" fill="#f2bb88"/><path d="m327.711 358.13c-1.37 6.24-3.47 12.185-6.21 17.735-5.6 1.78-9.4 3.325-12.13 6.205-17.69 18.71-55.23 18.93-55.6 18.93-5.83 0-35.74-.92-52.5-19.06-2.91-3.15-6.155-4.767-10.735-6.247-2.68-5.46-4.735-11.313-6.095-17.443z" fill="#f2bb88"/><path d="m144.008 185.47c9.185-6.79 16.086-21.41 18.1-39.191.133-1.172.913-2.182 2.038-2.538 13.711-4.33 24.657-14.852 29.58-28.283.604-1.648 2.437-2.45 4.047-1.75 7.191 3.128 15.306 4.893 23.897 4.893 11.963 0 23.004-3.411 31.907-9.164 1.463-.945 3.393-.484 4.264 1.023 9.422 16.301 27.814 27.377 48.984 27.377 7.586 0 14.822-1.435 21.413-4.009 1.048-.409 2.241-.244 3.085.499 4.781 4.207 10.426 7.447 16.644 9.412 1.127.356 1.911 1.364 2.044 2.539 2.015 17.791 8.923 32.418 18.115 39.203 9.011 6.651 14.872 16.83 15.178 28.025.009.327.014.645.014.953-.007 4.578-.343 13.701-.343 13.697-2.015 40.478-13.164 79.01-30.943 110.107-14.967 26.179-38.887 17.988-53.559 33.502-10.394 10.992-34.971 14.235-44.707 14.235-9.536 0-30.682-2.551-41.474-14.234-16.306-17.652-38.214-6.595-53.193-33.502-17.256-30.997-27.964-69.382-29.95-109.717-.001.014-.335-9.061-.346-13.625 0-.67.021-1.384.06-2.133.566-10.936 6.339-20.809 15.145-27.319z" fill="#f2d1a5"/><g><path d="m188.17 503.57 20.208-20.316c1.229-1.235 1.229-3.231 0-4.467l-20.208-20.316c-1.238-1.245-3.252-1.245-4.49 0l-20.208 20.316c-1.229 1.235-1.229 3.231 0 4.467l20.208 20.316c1.238 1.245 3.252 1.245 4.49 0z" fill="#f8f7f7"/></g><g><path d="m230.42 458.481-20.199 20.307c-1.228 1.235-1.228 3.23 0 4.465l20.199 20.307c1.238 1.244 3.251 1.244 4.488 0l20.199-20.307c1.228-1.235 1.228-3.23 0-4.465l-20.199-20.307c-1.237-1.244-3.25-1.244-4.488 0z" fill="#f8f7f7"/></g><g><path d="m277.149 458.488-20.199 20.307c-1.228 1.235-1.228 3.23 0 4.465l20.199 20.307c1.238 1.244 3.251 1.244 4.488 0l20.199-20.307c1.228-1.235 1.228-3.23 0-4.465l-20.199-20.307c-1.237-1.244-3.25-1.244-4.488 0z" fill="#f8f7f7"/></g><g><path d="m323.95 458.34-20.264 20.372c-1.232 1.239-1.232 3.24 0 4.479l20.264 20.372c1.241 1.248 3.261 1.248 4.503 0l20.264-20.372c1.232-1.239 1.232-3.24 0-4.479l-20.264-20.372c-1.241-1.248-3.261-1.248-4.503 0z" fill="#f8f7f7"/></g></g><g><path d="m82.482 456.947c-4.143 0-7.5 3.358-7.5 7.5v40.053c0 4.142 3.357 7.5 7.5 7.5s7.5-3.358 7.5-7.5v-40.053c0-4.142-3.357-7.5-7.5-7.5z"/><path d="m225.491 172.875c19.275-5.822 41.911-5.113 62.047.291 3.264 0 6.267-2.147 7.208-5.441 1.138-3.983-1.169-8.134-5.151-9.272-22.315-6.376-45.907-6.376-68.225 0-3.982 1.138-6.289 5.289-5.151 9.272 1.137 3.982 5.29 6.287 9.272 5.15z"/><path d="m277.252 324.268c-6.444 7.109-13.972 10.867-21.769 10.867-7.798 0-15.326-3.758-21.771-10.867-2.783-3.069-7.525-3.3-10.594-.52-3.068 2.782-3.302 7.525-.52 10.594 9.231 10.185 20.91 15.793 32.884 15.793s23.651-5.609 32.882-15.793c2.782-3.069 2.549-7.812-.52-10.594-3.068-2.781-7.811-2.551-10.592.52z"/><path d="m237.17 289.434c5.647 3.384 11.98 5.076 18.312 5.076 6.333 0 12.666-1.692 18.313-5.076 3.554-2.129 4.708-6.735 2.579-10.289-2.131-3.554-6.737-4.707-10.288-2.579-6.54 3.918-14.666 3.919-21.208 0-3.552-2.128-8.159-.976-10.288 2.579-2.128 3.553-.974 8.16 2.58 10.289z"/><path d="m324.687 236.315c-10.692-10.97-26.865-14.576-41.208-9.183-3.877 1.458-5.838 5.783-4.381 9.66 1.459 3.877 5.785 5.839 9.66 4.38 1.165-.438 2.351-.772 3.545-1.018v11.839c0 4.142 3.357 7.5 7.5 7.5s7.5-3.358 7.5-7.5v-9.978c2.432 1.173 4.688 2.765 6.642 4.769l4.835 4.96c1.471 1.508 3.42 2.265 5.372 2.265 1.887 0 3.775-.708 5.234-2.129 2.966-2.891 3.026-7.639.136-10.605z"/><path d="m186.812 254.011c1.961 0 3.919-.764 5.39-2.284l4.58-4.731c2.016-2.083 4.354-3.736 6.88-4.942v9.94c0 4.142 3.357 7.5 7.5 7.5s7.5-3.358 7.5-7.5v-11.811c1.209.242 2.409.572 3.589 1.007 3.888 1.435 8.199-.554 9.632-4.441 1.434-3.886-.555-8.199-4.44-9.632-14.46-5.333-30.723-1.625-41.438 9.447l-4.579 4.731c-2.881 2.977-2.804 7.725.173 10.605 1.454 1.41 3.335 2.111 5.213 2.111z"/><path d="m451.934 167.434c-.436-4.75-1.352-9.468-2.725-14.022-2.87-9.525-7.756-18.391-14.262-25.951 8.558-15.059 7.907-33.195-2.177-45.925-7.905-9.98-20.318-15.2-33.57-14.485-4.508-16.825-17.499-30.186-34.441-35.063-11.705-19.817-32.876-31.988-56.045-31.988-16.803 0-32.591 6.341-44.587 17.669-9.417-11.083-23.32-17.669-38.188-17.669-21.201 0-40.015 13.532-47.101 33.021-20.482-1.613-41.91 11.415-49.492 30.707-15.006-2.526-29.601 2.577-38.598 13.936-8.923 11.264-10.58 26.679-4.754 40.687-6.838 4.385-15.277 9.521-22.178 26.444-1.542 3.845.325 8.211 4.17 9.752 3.841 1.54 8.211-.326 9.752-4.17 4.782-11.928 9.746-15.13 15.001-18.521 2.707-1.747 5.507-3.553 8.118-6.347 2.27-2.429 2.67-6.062.983-8.926-5.901-10.025-5.641-21.646.665-29.605 6.482-8.185 18.015-11.007 29.377-7.193 1.984.666 4.154.473 5.99-.533 1.836-1.005 3.167-2.732 3.674-4.762 3.902-15.646 17.903-26.573 34.05-26.573 2.401 0 4.805.245 7.144.728 4.048.833 8.007-1.759 8.856-5.804 3.389-16.133 17.831-27.841 34.343-27.841 12.828 0 24.632 7 30.805 18.267 1.212 2.212 3.455 3.667 5.969 3.872 2.523.203 4.963-.869 6.517-2.855 9.58-12.256 23.972-19.284 39.484-19.284 18.717 0 35.739 10.323 44.425 26.941 1.033 1.978 2.894 3.392 5.076 3.859 14.804 3.171 25.853 15.409 27.493 30.453.231 2.125 1.358 4.049 3.098 5.291s3.925 1.684 6.01 1.212c10.354-2.337 20.393.764 26.198 8.093 7.056 8.906 6.42 22.429-1.544 32.884-2.297 3.015-1.983 7.269.729 9.915 6.846 6.675 11.911 15.006 14.649 24.091 1.082 3.591 1.805 7.313 2.148 11.063.205 2.87 3.497 7.036 8.153 6.784 4.126-.377 7.163-4.027 6.785-8.152z"/><path d="m441.67 195.408c-3.696-1.865-8.208-.38-10.074 3.318-6.077 12.485-18.024 23.659-32.749 28.497l-8.905-.189c.093-3.175.35-9.867.282-13.731-.36-13.235-7.001-25.575-18.22-33.855-7.835-5.783-13.843-19.855-15.306-35.852-.285-3.122-2.483-5.737-5.51-6.557-6.177-1.671-11.919-4.91-16.606-9.365-2.173-2.065-5.368-2.638-8.123-1.457-6.376 2.734-13.176 4.121-20.211 4.121-18.771 0-35.969-10.245-43.814-26.1-.983-1.989-2.798-3.44-4.954-3.963-2.159-.523-4.435-.063-6.22 1.254-8.368 6.173-19.082 9.573-30.167 9.573-8.289 0-16.422-1.902-23.521-5.5-1.995-1.012-4.339-1.079-6.389-.185-2.052.895-3.596 2.658-4.212 4.809-3.727 13.007-14.147 23.281-27.196 26.814-3.026.819-5.224 3.435-5.509 6.557-1.461 15.987-7.465 30.057-15.295 35.844h-.001c-10.882 8.043-17.507 20.056-18.176 32.957-.153 2.505.032 10.005.252 14.931l-9.204-.015c-17.605-8.534-32.164-26.666-36.999-46.803-.933-4.037-4.969-6.553-8.995-5.62-4.036.932-6.553 4.959-5.62 8.995 4.329 19.427 18.463 40.231 35.51 51.359-.997 1.007-1.934 2.09-2.789 3.264-5.285 7.258-6.736 16.322-3.979 24.867l4.616 14.312c4.691 14.541 18.111 24.312 33.392 24.312h7.635c4.653 14.04 10.404 27.349 17.151 39.529-37.868 13.36-67.067 46.534-74.723 86.708-.779 4.068 1.887 7.998 5.954 8.777.478.092.952.136 1.42.136 3.526 0 6.67-2.499 7.358-6.09 2.279-11.892 6.691-23.067 12.826-33.1l13.047 8.771c23.066 15.507 36.837 41.357 36.837 69.151v28.618c0 4.142 3.357 7.5 7.5 7.5s7.5-3.358 7.5-7.5v-5.325l10.558 10.614c1.407 1.415 3.321 2.211 5.317 2.211s3.91-.796 5.317-2.211l18.058-18.154 18.058 18.154c1.407 1.415 3.321 2.211 5.317 2.211s3.91-.796 5.317-2.211l18.058-18.154 18.058 18.154c1.407 1.415 3.321 2.211 5.317 2.211s3.91-.796 5.317-2.211l18.058-18.154 18.058 18.154c1.407 1.415 3.321 2.211 5.317 2.211s3.91-.796 5.317-2.211l10.558-10.614v5.325c0 4.142 3.357 7.5 7.5 7.5s7.5-3.358 7.5-7.5v-28.846c0-27.663 13.67-53.445 36.566-68.968l13.233-8.971c9.378 15.323 14.701 33.28 14.701 52.291v54.494c0 4.142 3.357 7.5 7.5 7.5s7.5-3.358 7.5-7.5v-54.495c0-49.594-31.443-92.996-77.595-108.787 6.873-12.141 12.743-25.355 17.499-39.269h8.101c15.281 0 28.7-9.771 33.392-24.315l4.616-14.311c2.757-8.545 1.307-17.608-3.978-24.867-.645-.886-1.335-1.724-2.062-2.515 12.038-6.642 22.636-17.561 29.033-30.458 1.864-3.699.379-8.209-3.319-10.075zm-305.895 17.767c.436-8.406 4.85-16.305 12.111-21.671h-.001c10.531-7.782 18.114-23.107 20.741-41.583 13.131-4.977 23.88-15.002 29.808-27.672 7.174 2.535 14.874 3.854 22.658 3.854 11.38 0 22.511-2.825 32.096-8.059 11.537 16.802 31.541 27.295 53.06 27.295 7.463 0 14.729-1.212 21.664-3.61 4.365 3.459 9.244 6.229 14.427 8.192 2.628 18.488 10.218 33.817 20.757 41.595 7.478 5.519 11.9 13.609 12.134 22.193.053 3.422-.276 12.752-.325 14.125-1.917 38.372-12.557 76.266-29.96 106.708-7.249 12.679-16.577 15.514-27.377 18.797-8.672 2.636-17.639 5.361-25.121 13.273-7.944 8.401-29.488 11.888-39.258 11.888-8.662 0-27.326-2.471-35.965-11.824-8.473-9.172-18.158-11.896-26.704-14.3-10.306-2.899-18.446-5.188-25.445-17.761-16.815-30.206-27.118-67.999-29.012-106.422.001-1.218-.457-10.127-.288-15.018zm-8.797 73.825c-8.749 0-16.432-5.594-19.117-13.919l-4.616-14.312c-1.267-3.929-.601-8.096 1.83-11.433 2.43-3.337 6.19-5.251 10.318-5.251h6.669c1.481 15.3 4.208 30.401 8.08 44.915zm58.379 206.865-12.797-12.865 12.797-12.865 12.797 12.865zm46.75 0-12.797-12.865 12.797-12.865 12.797 12.865zm46.75 0-12.797-12.865 12.797-12.865 12.797 12.865zm46.75 0-12.797-12.865 12.797-12.865 12.797 12.865zm71.906-108.329-12.883 8.734c-23.651 16.035-38.958 41.346-42.406 69.301l-11.3-11.36c-1.407-1.415-3.321-2.211-5.317-2.211s-3.91.796-5.317 2.211l-18.058 18.154-18.058-18.154c-1.407-1.415-3.321-2.211-5.317-2.211s-3.91.796-5.317 2.211l-18.058 18.154-18.058-18.154c-1.407-1.415-3.321-2.211-5.317-2.211s-3.91.796-5.317 2.211l-18.058 18.154-18.058-18.154c-1.407-1.415-3.321-2.211-5.317-2.211s-3.91.796-5.317 2.211l-11.325 11.385c-3.51-28.015-18.917-53.325-42.7-69.314l-12.644-8.5c12.379-14.751 28.943-25.919 47.912-31.596 5.266 5.021 10.896 7.886 16.306 9.871 4.55 16.521 14.022 31.419 26.998 42.298 14.34 12.023 32.416 18.645 50.895 18.645 12.343 0 24.195-2.805 35.228-8.337 3.703-1.857 5.199-6.364 3.343-10.066-1.855-3.702-6.364-5.198-10.065-3.343-8.928 4.477-18.518 6.746-28.505 6.746-26.421 0-49.569-16.049-60.078-40.339 3.937 1.561 7.534 3.657 10.801 7.194 14.944 16.178 43.748 16.646 46.983 16.646 9.589 0 37.293-2.979 50.156-16.581 3.315-3.505 7.44-5.512 12.151-7.173-2.057 4.689-4.613 9.141-7.68 13.307-2.456 3.335-1.743 8.031 1.592 10.487 1.339.986 2.896 1.461 4.441 1.461 2.303 0 4.575-1.057 6.045-3.053 6.277-8.523 10.83-18.008 13.583-28.236 5.145-2.167 10.392-5.147 15.272-9.796 19.537 5.618 36.311 16.821 48.764 31.619zm10.206-126.818-4.616 14.311c-2.687 8.326-10.368 13.92-19.116 13.92h-3.488c4.003-14.533 6.824-29.634 8.357-44.915h6.715c4.129 0 7.89 1.914 10.319 5.251s3.097 7.504 1.829 11.433z"/><path d="m190.498 211.125c9.618-5.103 21.122-5.14 30.772-.103.811.403 1.318.701 3.706.979 2.703 0 5.314-1.466 6.653-4.028 1.918-3.671.497-8.203-3.175-10.121l-.241-.126c-14.033-7.328-30.761-7.272-44.747.148-3.658 1.941-5.051 6.481-3.109 10.14 1.941 3.66 6.479 5.054 10.141 3.111z"/><path d="m279.345 207.993c1.929 3.664 6.463 5.075 10.13 3.144 9.709-5.11 21.305-5.11 31.014 0 1.114.587 2.31.865 3.486.865 2.696 0 5.301-1.458 6.644-4.008 1.93-3.666.521-8.201-3.144-10.13-14.084-7.413-30.902-7.413-44.986 0-3.665 1.928-5.073 6.464-3.144 10.129z"/></g></g></svg>