<svg id="Capa_1" enable-background="new 0 0 512 512" height="512" viewBox="0 0 512 512" width="512" xmlns="http://www.w3.org/2000/svg"><g><g><path d="m306.335 108.744v228.895h-223.168v-228.895c0-55.852 45.267-101.119 101.119-101.119h20.929c55.852 0 101.12 45.267 101.12 101.119z" fill="#d19a6e"/><path d="m210.883 200.398h95.452v137.241h-95.452z" fill="#c38c66"/><path d="m205.218 7.625h-20.067c55.846 0 101.118 45.272 101.118 101.118v228.901h20.067v-228.901c-.001-55.846-45.273-101.118-101.118-101.118z" fill="#c38c66"/><path d="m78.426 312.287-22.933 7.323c-19.676 6.283-34.026 23.262-36.942 43.71l-11.051 83.509v57.546h70.926z" fill="#fe5694"/><path d="m58.36 318.695v185.68h20.066v-192.088z" fill="#fd3581"/><path d="m311.073 312.287 22.933 7.323c19.676 6.283 34.026 23.262 36.942 43.71l11.051 83.509h-70.926z" fill="#fd3581"/><path d="m244.608 297.756 38.194 8.351 28.27 6.177v134.545h-232.645v-134.545l28.27-6.177 38.194-8.351z" fill="#fe5694"/><path d="m282.802 306.107-38.194-8.351h-20.066l38.194 8.351 28.27 6.177v134.545h20.066v-134.545z" fill="#fd3581"/><path d="m282.802 306.107c-17.144 30.974-50.15 51.944-88.053 51.944s-70.909-20.971-88.053-51.944l38.194-8.351c10.251-2.236 17.559-11.32 17.559-21.819v-48.71h64.599v48.71c0 10.499 7.308 19.583 17.559 21.819z" fill="#ffe5c2"/><path d="m244.608 297.756c-10.251-2.236-17.559-11.32-17.559-21.819v-48.71h-20.067v48.71c0 10.499 7.308 19.583 17.559 21.819l38.194 8.351c-15.612 28.206-44.381 48.11-78.019 51.443 3.301.327 6.646.502 10.033.502 37.902 0 70.909-20.97 88.053-51.944z" fill="#fed2a4"/><path d="m455.983 340.944v163.431h-182.618v-163.431l69.003-10.859h44.612z" fill="#ffe270"/><path d="m386.98 330.085h-20.067l69.003 10.859v163.431h20.067v-163.431z" fill="#ffd15b"/><path d="m273.364 340.942v105.887h-48.516l13.207-65.921c4.744-18.184 17.851-33.019 35.309-39.966z" fill="#ffe270"/><path d="m504.5 446.829v57.546h-48.516v-163.433c17.457 6.948 30.564 21.782 35.309 39.965z" fill="#ffe270"/><path d="m491.293 380.907c-4.745-18.183-17.851-33.018-35.309-39.965v13.256c7.252 7.303 12.572 16.476 15.242 26.709l13.207 65.921v57.546h20.067v-57.546z" fill="#ffd15b"/><g fill="#ffe5c2"><path d="m108.618 186.309h-25.7c-10.256 0-18.57-8.314-18.57-18.57v-17.705c0-10.256 8.314-18.57 18.57-18.57h21.025z"/><path d="m108.618 186.309h-25.7c-10.256 0-18.57-8.314-18.57-18.57v-17.705c0-10.256 8.314-18.57 18.57-18.57h21.025z"/><path d="m108.618 186.309h-25.7c-10.256 0-18.57-8.314-18.57-18.57v-17.705c0-10.256 8.314-18.57 18.57-18.57h21.025z"/></g><path d="m103.943 131.463h-18.902v54.846h23.577z" fill="#fed2a4"/><path d="m103.943 131.463s107.735-15.7 136.823-61.921c0 0 8.132 50.073 44.79 61.921l-.004 38.52c0 41.261-33.449 74.71-74.71 74.71h-32.184c-41.261 0-74.71-33.449-74.71-74.71z" fill="#ffe5c2"/><path d="m240.766 69.542c-3.88 6.165-9.169 11.782-15.405 16.897 5.664 15.686 17.423 37.686 40.128 45.024l-.004 38.52c0 41.261-33.449 74.71-74.71 74.71h20.067c41.261 0 74.71-33.449 74.71-74.71l.004-38.52c-36.658-11.848-44.79-61.921-44.79-61.921z" fill="#fed2a4"/><g><path d="m274.187 301.405-.048-.048c-6.667-6.667-6.667-17.477 0-24.144l22.11-22.11c6.667-6.667 17.477-6.667 24.144 0l.048.048c6.667 6.667 6.667 17.477 0 24.144l-22.11 22.11c-6.668 6.668-17.477 6.668-24.144 0z" fill="#d19a6e"/><path d="m320.441 255.151-.048-.048c-6.027-6.027-15.428-6.586-22.105-1.718.71.517 1.398 1.077 2.039 1.718l.048.048c6.667 6.667 6.667 17.477 0 24.144l-22.11 22.11c-.641.641-1.329 1.2-2.039 1.718 6.677 4.869 16.079 4.309 22.105-1.718l22.11-22.11c6.667-6.667 6.667-17.477 0-24.144z" fill="#c38c66"/><path d="m455.161 301.405.048-.048c6.667-6.667 6.667-17.477 0-24.144l-22.11-22.11c-6.667-6.667-17.477-6.667-24.144 0l-.048.048c-6.667 6.667-6.667 17.477 0 24.144l22.11 22.11c6.667 6.668 17.477 6.668 24.144 0z" fill="#d19a6e"/><path d="m455.209 277.214-22.11-22.11c-6.026-6.027-15.428-6.586-22.105-1.718.71.517 1.398 1.077 2.039 1.718l22.11 22.11c6.667 6.667 6.667 17.477 0 24.144l-.048.048c-.641.641-1.329 1.2-2.039 1.718 6.677 4.869 16.079 4.309 22.105-1.718l.048-.048c6.667-6.667 6.667-17.477 0-24.144z" fill="#c38c66"/></g><path d="m452.003 228.43h-174.658v-67.025c0-28.699 23.265-51.964 51.964-51.964h70.731c28.699 0 51.964 23.265 51.964 51.964v67.025z" fill="#d19a6e"/><path d="m400.039 109.441h-20.067c28.699 0 51.964 23.265 51.964 51.964v67.025h20.067v-67.025c0-28.699-23.265-51.964-51.964-51.964z" fill="#c38c66"/><path d="m338.857 289.941h51.634v41.548c0 5.268-3.202 10.063-8.131 11.922-11.391 4.297-23.981 4.297-35.372 0-4.929-1.859-8.131-6.654-8.131-11.922z" fill="#ffe5c2"/><path d="m370.424 289.941v41.548c0 5.268-3.202 10.063-8.131 11.922-2.501.943-5.062 1.667-7.653 2.196 9.211 1.881 18.829 1.157 27.719-2.196 4.929-1.859 8.131-6.654 8.131-11.922v-41.548z" fill="#fed2a4"/><g><path d="m303.68 250.722h-24.12c-7.264 0-13.153-5.889-13.153-13.153v-24.018c0-7.264 5.889-13.153 13.153-13.153h16.685z" fill="#ffe5c2"/><path d="m296.245 200.397h-16.685c-.208 0-.41.022-.615.031l.322 50.279c.099.002.195.015.294.015h24.119z" fill="#fed2a4"/><path d="m449.787 250.722h-22.779l6.094-50.325h16.685c7.264 0 13.153 5.889 13.153 13.153v24.018c.001 7.265-5.888 13.154-13.153 13.154z" fill="#ffe5c2"/><path d="m449.787 200.397h-16.684l-.004.031c6.978.322 12.542 6.065 12.542 13.123v24.018c0 7.264-5.889 13.153-13.153 13.153h17.3c7.265 0 13.154-5.889 13.154-13.153v-24.018c-.001-7.265-5.89-13.154-13.155-13.154z" fill="#fed2a4"/><path d="m433.1 200.398v37.755c0 31.239-25.324 56.564-56.564 56.564h-23.725c-31.239 0-56.564-25.324-56.564-56.564v-37.755z" fill="#ffe5c2"/><path d="m413.034 200.398v37.755c0 31.239-25.325 56.564-56.564 56.564h20.067c31.239 0 56.564-25.324 56.564-56.564v-37.755z" fill="#fed2a4"/></g><g><g><g><path d="m255.296 470.628h-168.805v-91.573c0-5.866 5.497-10.18 11.195-8.786l157.61 38.566z" fill="#daf3f6"/><path d="m97.685 370.27c-5.085-1.244-9.999 2.063-10.999 6.958 2.136-2.234 5.374-3.362 8.688-2.551l139.854 34.159v61.792h20.067v-61.792z" fill="#a6e7f0"/><path d="m424.117 470.628h-168.805v-61.792l157.61-38.566c5.698-1.394 11.195 2.92 11.195 8.786z" fill="#daf3f6"/><path d="m412.922 370.27-11.204 2.742c1.433 1.587 2.332 3.685 2.332 6.044v91.573h20.067v-91.573c0-5.866-5.497-10.181-11.195-8.786z" fill="#a6e7f0"/></g></g><path d="m234.934 504.375h-176.878v-95.067c0-8.729 8.206-15.133 16.674-13.011l160.204 40.15z" fill="#95d6a4"/><path d="m74.73 396.297c-5.523-1.384-10.918.871-14.015 5.02 2.8-1.494 6.147-2.032 9.545-1.181l144.607 36.31v67.928h20.067v-67.928z" fill="#78c2a4"/><path d="m452.551 504.375h-176.877v-67.928l160.204-40.15c8.468-2.122 16.674 4.281 16.674 13.011v95.067z" fill="#95d6a4"/><path d="m435.877 396.297-8.863 2.221c3.277 2.414 5.47 6.286 5.47 10.79v95.067h20.067v-95.067c0-8.729-8.206-15.133-16.674-13.011z" fill="#78c2a4"/><path d="m234.917 436.447h40.756v67.928h-40.756z" fill="#a2aee6" transform="matrix(-1 0 0 -1 510.591 940.822)"/><path d="m255.607 436.447h20.067v67.928h-20.067z" fill="#8795de"/></g><g fill="#ffc8dd"><ellipse cx="244.281" cy="184.646" rx="12.475" ry="7.046"/><ellipse cx="147.519" cy="184.646" rx="12.475" ry="7.046"/></g></g><g><path d="m511.854 445.355-13.207-65.921c-5.115-20.229-20.999-39.079-41.552-45.904l-30.474-4.8c-4.095-.645-7.931 2.15-8.575 6.242-.645 4.092 2.149 7.931 6.241 8.576l29.627 4.667c14.76 6.134 25.965 18.916 30.07 34.385l13.016 64.972v56.802c0 4.142 3.357 7.5 7.5 7.5s7.5-3.358 7.5-7.5v-57.546c0-.494-.049-.988-.146-1.473z"/><path d="m452.003 392.821c-4.775-3.925-13.44-5.572-20.388-3.187v-10.576c0-5.119-2.31-9.865-6.337-13.023-4.026-3.157-9.183-4.265-14.14-3.048l-155.833 38.126-13.008-3.183 3.072-15.332c4.093-15.449 15.28-28.229 30.032-34.38l57.471-9.051c2.083 5.106 6.183 9.272 11.471 11.268 6.557 2.467 13.444 3.701 20.331 3.701s13.773-1.234 20.326-3.701c7.771-2.927 12.992-10.54 12.992-18.943v-32.983c4.628-1.65 9.007-3.823 13.078-6.44l14.649 14.641c4.641 4.641 10.811 7.196 17.372 7.196s12.731-2.556 17.346-7.171c.009-.009.068-.068.077-.076 9.581-9.582 9.581-25.172 0-34.754l-13.684-13.684h2.962c11.389 0 20.653-9.265 20.653-20.653v-24.018c0-7.88-4.439-14.737-10.944-18.218v-33.925c0-32.789-26.676-59.464-59.464-59.464h-70.724c-5.393 0-10.616.735-15.587 2.087-2.477-57.713-50.197-103.905-108.51-103.905h-20.93c-59.893 0-108.619 48.726-108.619 108.619v16.252c-10.858 3.15-18.82 13.178-18.82 25.037v17.701c0 14.375 11.695 26.071 26.071 26.071h17.061c7.961 26.242 28.711 46.965 54.969 54.89v27.245c0 6.922-4.904 13.017-11.662 14.492l-38.191 8.346c-.001 0-.003.001-.004.001l-14.423 3.152v-80.491c0-4.142-3.358-7.5-7.5-7.5s-7.5 3.358-7.5 7.5v83.856l-22.455 7.17c-22.267 7.11-38.786 26.656-42.096 49.871l-11.052 83.508c-.044.326-.065.655-.065.984v57.546c0 4.142 3.358 7.5 7.5 7.5s7.5-3.358 7.5-7.5v-57.052l10.976-82.944c2.493-17.483 14.975-32.252 31.798-37.624l45.229-12.166c19.678 31.566 54.322 50.96 91.747 50.96 17.271 0 33.952-4.133 48.846-11.685-5.942 7.304-10.372 15.851-12.796 25.153-.036.138-.068.277-.096.417l-2.991 14.929-128.237-31.375c-4.969-1.221-10.126-.108-14.147 3.047-4.025 3.157-6.333 7.903-6.333 13.022v10.576c-5.888-2.013-14.248-1.531-20.392 3.186-5.115 3.991-8.048 10-8.048 16.487v95.066c0 4.142 3.358 7.5 7.5 7.5s7.5-3.358 7.5-7.5v-95.066c0-1.834.83-3.533 2.275-4.662 1.446-1.128 3.298-1.519 5.075-1.074l154.511 38.723v62.079c0 4.142 3.358 7.5 7.5 7.5h.008s.005 0 .008 0c4.142 0 7.5-3.358 7.5-7.5v-60.428h12.828c.013 0 .026.002.039.002h.005s.003 0 .005 0c.013 0 .026-.002.039-.002h12.825v60.428c0 4.142 3.357 7.5 7.5 7.5s7.5-3.358 7.5-7.5v-62.075l154.526-38.725c1.775-.445 3.628-.055 5.075 1.074 1.446 1.128 2.275 2.827 2.275 4.662v95.066c0 4.142 3.357 7.5 7.5 7.5s7.5-3.358 7.5-7.5v-95.066c.001-6.487-2.933-12.496-8.047-16.487zm-217.459-144.129c8.715-2.629 16.955-6.692 24.36-12.029-.634 12.318 10.799 22.942 23.617 21.56l-13.684 13.684c-5.969 5.97-8.216 14.272-6.753 21.994l-15.877-3.469c-6.758-1.477-11.663-7.571-11.663-14.492zm191.057-40.795v30.256c0 27.054-22.01 49.063-49.064 49.063h-23.725c-27.055 0-49.064-22.01-49.064-49.063v-30.256zm-94.243 102.992c-4.987-1.573-19.997-6.621-24.663-7.241l11.58-11.58c4.072 2.618 8.453 4.791 13.083 6.442zm-24.721-28.396-13.61 13.611c-3.73 3.731-9.802 3.731-13.507.026-.009-.009-.066-.067-.075-.076-3.733-3.733-3.733-9.808 0-13.541l15.962-15.962c2.922 5.883 6.724 11.251 11.23 15.942zm-17.671-39.27h-9.408c-3.118 0-5.654-2.536-5.654-5.653v-24.018c0-3.117 2.536-5.653 5.654-5.653h9.188v30.255c.001 1.707.088 3.394.22 5.069zm-2.469 71.366 39.796 10.43c-1.081.222-53.767 8.367-54.982 8.712 5.712-5.728 10.816-12.135 15.186-19.142zm96.495 16.903c0 2.196-1.317 4.167-3.279 4.906-9.695 3.652-20.38 3.651-30.081.001-1.958-.739-3.273-2.711-3.273-4.907v-29.6c8.291.476 27.098.599 36.634 0v29.6zm66.941-35.464c-.009.009-.068.068-.077.076-1.808 1.808-4.21 2.803-6.765 2.803-2.556 0-4.958-.996-6.768-2.805l-13.615-13.608c4.508-4.692 8.31-10.061 11.233-15.946l15.964 15.964c3.735 3.734 3.735 9.808.028 13.516zm5.512-58.459c0 3.117-2.536 5.653-5.653 5.653h-9.411c.132-1.675.219-3.362.219-5.069v-30.255h9.191c3.117 0 5.653 2.536 5.653 5.653v24.018zm-55.408-120.625c24.518 0 44.464 19.946 44.464 44.464v31.49h-38.809v-29.171c0-4.142-3.357-7.5-7.5-7.5s-7.5 3.358-7.5 7.5v29.171h-105.843v-31.49c0-24.518 19.946-44.464 44.464-44.464zm-101.202-8.2v1.629c-5.581 3.346-10.564 7.584-14.765 12.511-26.894-11.721-34.879-49.185-35.803-54.023v-43.232c30.017 15.611 50.568 47.006 50.568 83.115zm-114.549-93.619h20.93c9.768 0 19.191 1.506 28.05 4.295v47.868c-27.535 39.925-122.14 55.465-129.89 56.675h-12.709v-15.219c0-51.621 41.998-93.619 93.619-93.619zm-101.369 163.68c-6.104 0-11.071-4.966-11.071-11.071v-17.701c0-6.104 4.966-11.071 11.071-11.071h13.529v31.021c0 2.981.169 5.922.48 8.822zm28.53-8.822v-32.15c21.808-3.834 92.333-18.466 125.808-52.075 5.532 19.148 21.641 42.514 38.515 49.799-3.791 7.821-5.921 16.591-5.921 25.85v31.785c-.631 1.153-1.285 2.265-1.954 3.329-5.762 3.716-9.778 12.261-8.991 20.403-12.597 12.908-29.95 20.271-48.062 20.271h-32.184c-37.06.001-67.211-30.151-67.211-67.212zm7.259 141.174 27.78-6.071c13.595-2.968 23.461-15.226 23.461-29.146v-24.21c2.864.303 5.769.466 8.712.466h32.184c2.92 0 5.825-.156 8.702-.464v24.208c0 13.918 9.867 26.175 23.461 29.146l27.787 6.072c-17.342 24.523-45.635 39.391-76.041 39.391-30.417-.001-58.711-14.869-76.046-39.392zm-24.71 67.901c0-.625.321-1.009.591-1.221.267-.21.71-.43 1.321-.28l151.892 37.162v14.228h-11.942l-141.862-35.553zm168.815 49.889v-14.228l151.899-37.163c.597-.149 1.045.072 1.312.283.271.212.593.596.593 1.219v14.335l-141.866 35.554z"/><path d="m365.675 238.652c4.143 0 7.5-3.358 7.5-7.5v-4.981c0-4.142-3.357-7.5-7.5-7.5s-7.5 3.358-7.5 7.5v4.981c0 4.142 3.357 7.5 7.5 7.5z"/><path d="m365.675 272.162c8.271 0 15.773-4.225 20.069-11.301 2.149-3.541 1.021-8.154-2.519-10.303-3.541-2.148-8.154-1.022-10.304 2.519-1.553 2.558-4.262 4.085-7.247 4.085s-5.694-1.527-7.247-4.085c-2.149-3.542-6.763-4.667-10.304-2.519-3.54 2.149-4.668 6.763-2.519 10.303 4.297 7.077 11.8 11.301 20.071 11.301z"/><path d="m195.954 185.753h5.583c4.142 0 7.5-3.358 7.5-7.5 0-3.479-2.369-6.405-5.583-7.252v-8.468c0-4.142-3.358-7.5-7.5-7.5s-7.5 3.358-7.5 7.5v15.72c0 4.143 3.358 7.5 7.5 7.5z"/><path d="m147.799 145.499c-4.142 0-7.5 3.358-7.5 7.5v10.728c0 4.142 3.358 7.5 7.5 7.5s7.5-3.358 7.5-7.5v-10.728c0-4.143-3.358-7.5-7.5-7.5z"/><path d="m244.108 171.226c4.142 0 7.5-3.358 7.5-7.5v-10.728c0-4.142-3.358-7.5-7.5-7.5s-7.5 3.358-7.5 7.5v10.728c0 4.142 3.358 7.5 7.5 7.5z"/><path d="m217.298 210.687c2.149-3.541 1.021-8.154-2.519-10.303-3.541-2.148-8.154-1.021-10.303 2.519-1.826 3.008-5.012 4.803-8.522 4.803s-6.697-1.795-8.522-4.803c-2.149-3.54-6.761-4.668-10.303-2.519-3.541 2.149-4.668 6.762-2.519 10.303 4.569 7.526 12.548 12.019 21.345 12.019s16.774-4.494 21.343-12.019z"/><circle cx="400.87" cy="227.51" r="7.5"/><circle cx="330.479" cy="227.51" r="7.5"/></g></g></svg>