<svg id="Capa_1" enable-background="new 0 0 512.002 512.002" height="512" viewBox="0 0 512.002 512.002" width="512" xmlns="http://www.w3.org/2000/svg"><g><g><path d="m166.862 130.894c-15.562.955-29.115 10.42-35.37 24.703l-42.411 96.853c-1.484 3.389-2.028 6.947-1.774 10.397 2.479.925 5.031 1.369 7.549 1.369 8.346 0 16.302-4.849 19.863-12.985l39.42-90.02c1.122-2.561 3.582-4.279 6.372-4.449l71.031-4.35 4.861-1.625 13.011-24.524z" fill="#1ca8ff"/><path d="m91.265 252.594 41.86-95.593c6.174-14.097 19.55-23.439 34.91-24.381l80.625-4.937 8.367-15.771-1.058-4.421-104.185 6.379c-15.36.943-28.736 10.284-34.91 24.381l-41.86 95.593c-4.802 10.963.195 23.744 11.159 28.545 1.115.488 2.25.872 3.392 1.161-.383-3.619.135-7.383 1.7-10.956z" fill="#0094fd"/><path d="m240.031 262.434-3.711 1.781-8.03 15.033 58.255 33.753 7.921-13.048v-5.979z" fill="#60b9fe"/><path d="m228.786 278.32-9.419 17.633v4.602l53.368 30.921 3.418-1.356 10.938-18.018z" fill="#1ca8ff"/><path d="m322.752 11.325c-11.04 6.251-18.502 18.085-18.502 31.677 0 13.593 7.463 25.426 18.502 31.678 11.554-5.857 19.478-17.838 19.478-31.678-.001-13.839-7.924-25.82-19.478-31.677z" fill="#60b9fe"/><path d="m304.724 43.003c0-13.549 7.593-25.322 18.753-31.306-4.99-2.675-10.692-4.197-16.75-4.197-19.608 0-35.503 15.895-35.503 35.503s15.895 35.503 35.503 35.503c6.058 0 11.76-1.521 16.75-4.196-11.161-5.985-18.753-17.758-18.753-31.307z" fill="#1ca8ff"/><path d="m292.028 295.412-4.937 12.072 26.687 60.302 21.313 9.533 4.389-1.673c3.75-5.475 5.355-12.407 3.898-19.426-7.556-36.41-6.034-41.577-35.867-58.862-3.981-2.308-8.333-3.403-12.63-3.408z" fill="#9790cc"/><path d="m314.765 355.494-3.656-17.615c-.466-2.245-1.866-4.185-3.85-5.335l-4.2-2.433c-12.092-7.005-16.207-22.462-9.202-34.551.322-.556.667-1.089 1.024-1.61-8.723-.011-17.22 4.491-21.924 12.61-7.005 12.09-2.891 27.547 9.202 34.551l4.2 2.433c1.984 1.15 3.385 3.09 3.85 5.335l3.656 17.615c2.77 13.348 15.96 22.499 29.894 19.621 6.665-1.383 12.16-5.269 15.721-10.469-11.894-.01-22.292-8.475-24.715-20.152z" fill="#8479c2"/><path d="m288.403 163.787-23.338-15.83-97.315 203.142c-3.062 6.391-7.399 12.087-12.746 16.738l-118.351 102.95s-6.64 8.719-4.602 17.75c2.978 1.447 6.229 2.185 9.49 2.185 5.093 0 10.208-1.785 14.328-5.419l116.229-102.518c4.415-3.896 7.871-8.597 10.271-13.97l108.074-199.379z" fill="#1ca8ff"/><path d="m252.653 139.537-5.75-13.945h-3.384l-99.046 221.778c-.963 2.156-2.378 4.08-4.148 5.642l-113.128 99.784c-8.977 7.917-9.835 21.613-1.918 30.589 2.459 2.788 5.478 4.788 8.738 5.99-1.924-8.973 4.636-17.589 4.636-17.589l118.351-102.95c5.347-4.651 9.684-10.347 12.746-16.738l97.187-202.873z" fill="#0094fd"/><path d="m254.675 121.239 96.828 63.009c6.927 4.509 14.819 6.776 22.729 6.776 7.125 0 14.264-1.84 20.727-5.54l92.457-52.939c1.344-.77 2.561-1.671 3.675-2.66-.379-.959-.805-1.908-1.333-2.829-5.948-10.389-19.19-13.99-29.576-8.04l-87.188 49.924c-1.255.719-2.806.674-4.018-.114l-92.023-59.882c-9.645-6.277-22.421-3.892-29.194 5.212 1.723 2.764 4.038 5.21 6.916 7.083z" fill="#60b9fe"/><path d="m484.971 132.131-90.562 51.854c-6.33 3.625-13.323 5.427-20.302 5.427-7.748 0-15.478-2.221-22.263-6.637l-94.844-61.717c-3.412-2.22-6.028-5.254-7.768-8.678-.994 1.076-1.896 2.271-2.683 3.58-6.054 10.072-2.648 23.189 7.202 29.598l94.844 61.717c6.785 4.416 14.515 6.637 22.263 6.637 6.979 0 13.972-1.802 20.302-5.427l90.562-51.854c10.098-5.784 13.754-18.453 8.484-28.698-1.481 1.622-3.228 3.049-5.235 4.198z" fill="#1ca8ff"/></g><g><path d="m306.474 86.006c23.712 0 43.003-19.291 43.003-43.003s-19.291-43.003-43.003-43.003-43.003 19.291-43.003 43.003 19.291 43.003 43.003 43.003zm0-71.006c15.44 0 28.003 12.562 28.003 28.003s-12.563 28.003-28.003 28.003-28.003-12.562-28.003-28.003 12.563-28.003 28.003-28.003z"/><path d="m21.983 447.171c-12.063 10.64-13.222 29.11-2.581 41.176 10.626 12.044 29.098 13.234 41.175 2.579l51.825-45.712c3.106-2.74 3.403-7.479.664-10.586-2.739-3.105-7.479-3.401-10.586-.664l-51.826 45.713c-5.858 5.169-14.833 4.607-20.003-1.253-5.181-5.875-4.621-14.821 1.254-20.003l115.815-102.154c.806-.711 1.449-1.586 1.887-2.566l92.857-207.921c1.732 2.082 4.065 4.192 6.505 5.78l31.328 20.386-104.776 193.293c-.092.169-.176.341-.255.516-1.958 4.387-4.779 8.225-8.383 11.404l-38.14 33.641c-3.106 2.74-3.403 7.479-.664 10.586 2.74 3.106 7.48 3.402 10.586.664l38.143-33.644c5.15-4.546 9.198-10.016 12.033-16.263l33.191-61.232 44.959 26.049c2.781 4.336 6.568 7.981 11.156 10.639l4.416 2.559 3.706 17.859c2.7 13.01 12.824 22.626 25.037 25.343l-4.317 71.318c-1.55 25.586 18.712 47.323 44.545 47.323 19.08 0 36.049-12.129 42.225-30.182 1.34-3.919-.75-8.184-4.669-9.524-3.915-1.334-8.182.75-9.524 4.669-4.1 11.985-15.364 20.037-28.031 20.037-17.019 0-30.609-14.299-29.572-31.417l4.385-72.435c16.945-4.245 27.706-21.201 24.124-38.456-.665-3.205-1.26-6.166-1.812-8.914-6.083-30.308-8.624-38.102-37.638-54.912-4.586-2.659-9.634-4.132-14.78-4.389l-46.395-26.881 43.064-79.446 51.34 33.408c15.466 10.065 34.807 10.35 50.384 1.434l30.575-17.508c3.595-2.059 4.84-6.642 2.782-10.236-2.059-3.595-6.642-4.84-10.235-2.781l-30.574 17.507c-10.762 6.161-24.067 5.965-34.75-.988-9.533-6.203-85.634-55.724-95.28-62.001-6.112-3.977-8.21-12.056-4.79-18.507 3.965-7.476 13.357-9.736 20.249-5.251l93.997 61.167c2.358 1.535 5.377 1.62 7.817.223l89.234-51.096c6.79-3.893 15.446-1.544 19.34 5.259 3.891 6.794 1.541 15.448-5.257 19.34l-29.612 16.956c-3.595 2.059-4.84 6.641-2.782 10.235 2.06 3.595 6.643 4.839 10.235 2.782l29.613-16.957c13.988-8.011 18.834-25.818 10.819-39.811-8.009-13.99-25.818-18.839-39.812-10.822l-85.256 48.817-90.156-58.667c-6.531-4.25-14.326-5.704-21.951-4.09-1.714.363-3.369.878-4.959 1.521l-102.807 6.295c-18.181 1.115-34.014 12.173-41.321 28.859l-41.86 95.593c-6.467 14.767.25 31.955 15.021 38.424 14.725 6.45 31.948-.228 38.424-15.021l39.409-89.994 58.648-3.592-82.818 185.442zm311.969-98.438c.557 2.777 1.158 5.771 1.83 9.011 1.993 9.601-4.198 19.034-13.793 21.026-9.612 1.986-19.041-4.207-21.033-13.801l-4.388-21.143c-.434-2.089-1.737-3.896-3.584-4.965l-7.318-4.24c-8.471-4.908-11.367-15.825-6.484-24.278.004-.008.008-.016.013-.024v-.001c5.021-8.666 16.01-11.282 24.305-6.473 24.264 14.061 24.849 16.978 30.452 44.888zm-72.081-32.073-32.688-18.939 13.513-24.929 33.386 19.344c-8.127 5.549-13.442 14.776-14.211 24.524zm-106.616-167.107c-2.809.172-5.284 1.9-6.412 4.478l-41.247 94.191c-3.12 7.125-11.447 10.459-18.666 7.297-7.173-3.141-10.441-11.49-7.298-18.666l41.86-95.593c5.04-11.508 15.96-19.135 28.498-19.904l85.874-5.258c-1.019 2.5-1.676 5.204-1.944 7.55l-9.627 21.555z"/></g></g></svg>