<svg id="Capa_1" enable-background="new 0 0 512 512" height="512" viewBox="0 0 512 512" width="512" xmlns="http://www.w3.org/2000/svg"><g><g><path d="m386 504.5h-260c-16.569 0-30-13.431-30-30v-27.727l15-51.079-15-51.079v-307.115c0-16.569 11.223-18.817 27.792-18.817l242.072 10.236c16.569 0 50.136-7.988 50.136 8.581v307.115l-15 55.378 15 46.781v27.726c0 16.569-13.431 30-30 30z" fill="#8795de"/><path d="m386 7.5h-30c16.569 0 30 13.431 30 30v437c0 16.569-13.431 30-30 30h30c16.569 0 30-13.431 30-30v-27.727l-15-51.079 15-51.079v-307.115c0-16.569-13.431-30-30-30z" fill="#6c7fd8"/><path d="m96 344.615h320v102.158h-320z" fill="#d5daf3"/><path d="m386 344.615h30v102.158h-30z" fill="#bec6ed"/><path d="m256 217.5c-88.366 0-160-71.634-160-160v-20c0-16.569 13.431-30 30-30h260c16.569 0 30 13.431 30 30v20c0 88.366-71.634 160-160 160z" fill="#d5daf3"/><path d="m386 7.5h-30c16.569 0 30 13.431 30 30v20c0 83.306-63.67 151.731-145 159.295 4.939.459 9.94.705 15 .705 88.365 0 160-71.634 160-160v-20c0-16.569-13.431-30-30-30z" fill="#bec6ed"/><path d="m256 307.5c-24.577 0-44.5-19.923-44.5-44.5v-94.5c0-3.866 3.134-7 7-7h75c3.866 0 7 3.134 7 7v94.5c0 24.577-19.923 44.5-44.5 44.5z" fill="#6c7fd8"/><path d="m293.5 161.5h-30c3.866 0 7 3.134 7 7v94.5c0 19.312-12.305 35.745-29.5 41.901 4.687 1.678 9.735 2.599 15 2.599 24.577 0 44.5-19.923 44.5-44.5v-94.5c0-3.866-3.134-7-7-7z" fill="#4f66d0"/></g><path d="m386 0h-260c-20.678 0-37.5 16.822-37.5 37.5v437c0 20.678 16.822 37.5 37.5 37.5h260c20.678 0 37.5-16.822 37.5-37.5v-437c0-20.678-16.822-37.5-37.5-37.5zm22.5 439.273h-67.354c-4.143 0-7.5 3.357-7.5 7.5s3.357 7.5 7.5 7.5h67.354v20.227c0 12.406-10.094 22.5-22.5 22.5h-260c-12.406 0-22.5-10.094-22.5-22.5v-20.227h202.646c4.143 0 7.5-3.357 7.5-7.5s-3.357-7.5-7.5-7.5h-202.646v-87.158h305zm0-381.773c0 33.733-10.786 65.696-31.192 92.434-17.708 23.203-42.051 41.034-69.308 50.959v-32.393c0-7.995-6.505-14.5-14.5-14.5h-75c-7.995 0-14.5 6.505-14.5 14.5v32.406c-14.374-5.205-27.837-12.535-40.132-21.87-3.3-2.505-8.005-1.86-10.509 1.438-2.505 3.299-1.86 8.004 1.438 10.509 14.951 11.351 31.481 20 49.202 25.776v46.241c0 28.673 23.327 52 52 52s52-23.327 52-52v-46.24c32.006-10.471 60.688-30.808 81.231-57.725 7.681-10.064 14.12-20.802 19.269-32.06v210.141h-305v-210.35c6.389 14.078 14.729 27.301 24.877 39.227 2.684 3.154 7.418 3.538 10.572.852 3.154-2.685 3.536-7.418.852-10.572-23.408-27.512-36.3-62.589-36.3-98.773v-20c0-12.406 10.094-22.5 22.5-22.5h260c12.406 0 22.5 10.094 22.5 22.5zm-115.5 111.5v94c0 20.402-16.598 37-37 37s-37-16.598-37-37v-94zm-45.976 55.461 1.476-1.476v41.137c0 4.143 3.357 7.5 7.5 7.5s7.5-3.357 7.5-7.5v-41.137l1.476 1.476c1.465 1.464 3.385 2.196 5.304 2.196s3.839-.732 5.304-2.196c2.929-2.93 2.929-7.678 0-10.607l-14.279-14.279c-2.663-2.721-7.712-3.061-10.607 0l-14.279 14.279c-2.929 2.93-2.929 7.678 0 10.607 2.928 2.928 7.676 2.928 10.605 0z"/></g></svg>