<svg id="Capa_1" enable-background="new 0 0 513.118 513.118" height="512" viewBox="0 0 513.118 513.118" width="512" xmlns="http://www.w3.org/2000/svg"><g><g><path d="m379.216 505.618h-245.299v-209.957l92.691-17.038h59.918l92.69 17.038z" fill="#a2aee6"/><path d="m286.526 278.623h-19.946l92.69 17.038v209.957h19.946v-209.957z" fill="#8795de"/><path d="m133.917 295.661-21.272 6.792c-18.25 5.827-31.561 21.577-34.265 40.543l-10.25 83.806h65.787z" fill="#a2aee6"/><path d="m113.971 302.03v124.771h19.946v-131.14z" fill="#8795de"/><path d="m379.216 295.661 21.272 6.792c18.25 5.827 31.561 21.577 34.265 40.543l10.25 83.806h-65.787z" fill="#a2aee6"/><path d="m434.753 342.995c-2.704-18.966-16.015-34.715-34.265-40.543l-21.271-6.792v6.369l1.325.423c18.25 5.827 31.561 21.577 34.265 40.543l10.25 83.806h19.946z" fill="#8795de"/><path d="m365.475 135.481h-217.816v-77.769c0-27.731 22.481-50.212 50.212-50.212h117.392c27.731 0 50.212 22.481 50.212 50.212z" fill="#5d5360"/><path d="m315.263 7.5h-19.946c27.731 0 50.212 22.481 50.212 50.212v77.769h19.946v-77.769c0-27.731-22.481-50.212-50.212-50.212z" fill="#4b3f4e"/><path d="m337.79 86.764v97.86c0 23.62-19.148 42.767-42.767 42.767h-76.912c-23.62 0-42.767-19.148-42.767-42.767v-97.86c0-8.435 6.838-15.273 15.273-15.273h15.758c8.9 12.382 23.216 19.722 38.464 19.722h23.455c15.248 0 29.565-7.34 38.464-19.722h15.758c8.435 0 15.274 6.838 15.274 15.273z" fill="#fed2a4"/><g><path d="m322.516 71.491h-15.758c-.122.17-.256.329-.381.498 6.59 1.694 11.466 7.657 11.466 14.776v97.86c0 23.62-19.148 42.767-42.767 42.767h19.946c23.62 0 42.767-19.147 42.767-42.767v-97.86c.001-8.436-6.838-15.274-15.273-15.274z" fill="#ffbd86"/></g><path d="m175.34 173.237h-22.502c-9.513 0-17.225-7.712-17.225-17.225v-16.422c0-9.513 7.712-17.225 17.225-17.225h22.502z" fill="#fed2a4"/><path d="m155.393 122.365h19.946v50.872h-19.946z" fill="#ffbd86"/><path d="m360.296 173.237h-22.502v-50.872h22.502c9.513 0 17.225 7.712 17.225 17.225v16.422c-.001 9.513-7.712 17.225-17.225 17.225z" fill="#fed2a4"/><path d="m360.296 122.365h-19.946c9.513 0 17.225 7.712 17.225 17.225v16.422c0 9.513-7.712 17.225-17.225 17.225h19.946c9.513 0 17.225-7.712 17.225-17.225v-16.422c0-9.513-7.712-17.225-17.225-17.225z" fill="#ffbd86"/><path d="m226.608 227.391h59.918v51.232l-29.959 20.838-29.959-20.838z" fill="#fed2a4"/><path d="m266.58 227.391v51.232l-19.986 13.901 9.973 6.937 29.959-20.838v-51.232z" fill="#ffbd86"/><path d="m256.567 299.461 17.011 16.989c3.937 3.932 10.418 3.569 13.891-.779l25.685-32.153-26.628-4.895z" fill="#6bd9e7"/><path d="m256.567 299.461-17.011 16.989c-3.937 3.932-10.418 3.569-13.891-.779l-25.685-32.153 26.628-4.895z" fill="#a6e7f0"/><path d="m379.216 426.801h65.787v78.817h-65.787z" fill="#fed2a4"/><path d="m425.057 426.801h19.946v78.817h-19.946z" fill="#ffbd86"/><path d="m296.836 505.618h-162.919v-124.88h154.093c4.874 0 8.826 3.951 8.826 8.826z" fill="#daf3f6"/><path d="m288.01 380.738h-19.946c4.874 0 8.826 3.951 8.826 8.826v116.054h19.946v-116.054c0-4.874-3.951-8.826-8.826-8.826z" fill="#a6e7f0"/><path d="m350.292 466.37v17.425h-243.498c-21.354 0-38.664-17.31-38.664-38.664v-18.327h208.789c17.632-3.878 36.081-.114 50.785 10.361l11.908 8.483c6.701 4.774 10.68 12.494 10.68 20.722z" fill="#fed2a4"/><path d="m339.612 445.648-11.908-8.483c-13.665-9.735-30.565-13.664-47.038-11.058 9.662 1.527 18.952 5.259 27.092 11.058l11.908 8.483c6.701 4.774 10.681 12.494 10.681 20.722v17.425h19.946v-17.425c-.001-8.228-3.98-15.948-10.681-20.722z" fill="#ffbd86"/><path d="m199.977 275.529v105.21h-66.06v-86.53c0-23.4 18.97-42.37 42.37-42.37 13.09 0 23.69 10.6 23.69 23.69z" fill="#d19a6e"/><path d="m199.977 344.799v35.94h-39.66v-24.98c0-6.05 4.91-10.96 10.96-10.96z" fill="#c38c66"/><path d="m176.291 251.838c-3.968 0-7.804.557-11.447 1.577 8.883 3.417 15.189 12.025 15.189 22.111v105.212h19.946v-105.212c0-13.082-10.605-23.688-23.688-23.688z" fill="#c38c66"/><path d="m264.113 344.797h-72.89c-6.053 0-10.961 4.907-10.961 10.961v24.981h94.811v-24.981c0-6.054-4.907-10.961-10.96-10.961z" fill="#95d6a4"/><path d="m264.113 344.797h-19.946c6.053 0 10.961 4.907 10.961 10.961v24.981h19.946v-24.981c-.001-6.054-4.908-10.961-10.961-10.961z" fill="#78c2a4"/></g><g><path d="m256.567 166.993h5.648c4.143 0 7.5-3.358 7.5-7.5 0-3.503-2.402-6.445-5.648-7.27v-8.636c0-4.142-3.357-7.5-7.5-7.5s-7.5 3.358-7.5 7.5v15.905c0 4.143 3.357 7.501 7.5 7.501z"/><path d="m207.844 124.418c-4.143 0-7.5 3.358-7.5 7.5v10.854c0 4.142 3.357 7.5 7.5 7.5s7.5-3.358 7.5-7.5v-10.854c0-4.142-3.357-7.5-7.5-7.5z"/><path d="m305.289 150.272c4.143 0 7.5-3.358 7.5-7.5v-10.854c0-4.142-3.357-7.5-7.5-7.5s-7.5 3.358-7.5 7.5v10.854c0 4.142 3.358 7.5 7.5 7.5z"/><path d="m256.567 201.231c13.139 0 25.057-6.712 31.881-17.954 2.149-3.541 1.021-8.154-2.52-10.303-3.54-2.149-8.153-1.022-10.303 2.519-4.082 6.724-11.206 10.738-19.059 10.738s-14.977-4.014-19.059-10.738c-2.149-3.541-6.764-4.668-10.303-2.519-3.541 2.149-4.669 6.762-2.52 10.303 6.826 11.243 18.744 17.954 31.883 17.954z"/><path d="m452.5 426.735c-.003-.13-.009-.248-.052-.845l-10.251-83.806c-.006-.049-.013-.099-.02-.148-3.089-21.668-18.558-39.971-39.408-46.629-.77-.189-21.005-6.819-22.197-7.024l-86.546-15.909v-37.484c29.296.77 53.207-24.785 51.264-54.154h15.006c13.634 0 24.726-11.092 24.726-24.725v-16.421c0-9-4.836-16.89-12.044-21.215v-60.662c-.001-31.823-25.891-57.713-57.714-57.713h-82.199c-4.143 0-7.5 3.358-7.5 7.5s3.357 7.5 7.5 7.5h82.199c23.552 0 42.713 19.161 42.713 42.713v57.152h-12.688v-28.101c0-12.557-10.216-22.773-22.773-22.773h-15.758c-2.414 0-4.681 1.162-6.09 3.123-7.471 10.394-19.573 16.6-32.374 16.6h-23.455c-12.801 0-24.903-6.206-32.374-16.6-1.409-1.96-3.676-3.123-6.09-3.123h-15.758c-12.558 0-22.773 10.216-22.773 22.773v28.101h-12.688v-57.152c0-23.552 19.161-42.713 42.713-42.713 4.143 0 7.5-3.358 7.5-7.5s-3.357-7.5-7.5-7.5c-31.823 0-57.713 25.89-57.713 57.713v60.662c-7.208 4.325-12.044 12.215-12.044 21.215v16.421c0 13.633 11.092 24.725 24.726 24.725h15.006c-2.003 29.139 21.667 54.796 51.264 54.154v37.481l-11.656 2.145c-.537-16.731-14.306-30.179-31.165-30.179-26.122 0-47.603 20.193-49.689 45.787-32.002 7.941-50.797 23.133-55.66 51.96l-10.251 83.806c-.149.745-.01 17.908-.056 19.241 0 25.455 20.709 46.164 46.164 46.164h19.622v14.323c0 4.142 3.357 7.5 7.5 7.5s0 0 0 0c4.143 0 7.5-3.358 7.5-7.5v-14.323h147.919v14.323c0 4.142 3.357 7.5 7.5 7.5s7.5-3.358 7.5-7.5v-14.323h45.956c4.143 0 7.5-3.358 7.5-7.5v-17.425c0-10.632-5.17-20.663-13.829-26.831l-6.689-4.765c.984-.715 1.818-1.664 2.375-2.842 1.771-3.744.173-8.215-3.571-9.987-10.242-4.846-23.265-5.129-31.742-4.634v-27.743c0-9.004-7.325-16.33-16.329-16.33h-5.434v-17.48c0-10.179-8.281-18.461-18.461-18.461h-56.636v-32.377l12.327 15.432c5.551 7.093 17.369 8.769 25.052 1.405l11.711-11.696 11.711 11.696c5.895 6.143 18.583 6.939 25.052-1.405l22.883-28.647 55.503 10.203v30.893c0 4.142 3.357 7.5 7.5 7.5s7.5-3.358 7.5-7.5v-26.872l11.49 3.669c15.385 4.913 26.805 18.405 29.11 34.386l9.213 75.318h-49.814v-51.452c0-4.142-3.357-7.5-7.5-7.5s-7.5 3.358-7.5 7.5v137.769c0 4.142 3.357 7.5 7.5 7.5s7.5-3.358 7.5-7.5v-71.317h50.787v71.317c0 4.142 3.357 7.5 7.5 7.5s7.5-3.358 7.5-7.5v-78.817c.002-.023-.001-.044-.001-.067zm-107.207-296.87h15.002c5.362 0 9.726 4.363 9.726 9.725v16.421c0 5.362-4.363 9.725-9.726 9.725h-15.002zm-177.453 35.872h-15.002c-5.362 0-9.726-4.363-9.726-9.725v-16.422c0-5.362 4.363-9.725 9.726-9.725h15.002zm15.004 18.887v-97.86c0-4.286 3.487-7.773 7.773-7.773h12.089c10.366 12.416 25.839 19.722 42.133 19.722h23.455c16.294 0 31.767-7.306 42.133-19.722h12.089c4.286 0 7.773 3.487 7.773 7.773v97.86c0 19.446-15.82 35.267-35.267 35.267h-76.912c-19.446 0-35.266-15.821-35.266-35.267zm96.182 50.267v39.812l-22.459 15.622-22.459-15.622v-39.812zm-164.099 74.706 11.489-3.669v113.375h-49.813l9.214-75.32c2.305-15.981 13.725-29.473 29.11-34.386zm227.865 156.773v9.926h-235.998c-17.184 0-31.164-13.98-31.164-31.164v-10.828h201.289c14.906-3.319 33.288-.766 46.434 8.969l11.907 8.483c4.717 3.36 7.532 8.823 7.532 14.614zm-53.456-76.802v28.284c-4.411.078-8.833.543-13.209 1.452h-134.71v-31.066h133.656.01 12.924c.733 0 1.329.596 1.329 1.33zm-21.763-33.81v17.48h-79.811v-17.48c0-1.908 1.552-3.461 3.46-3.461h72.89c1.909 0 3.461 1.553 3.461 3.461zm-76.35-18.461c-10.179 0-18.46 8.282-18.46 18.461v17.48h-31.346v-26.96h10.909c4.143 0 7.5-3.358 7.5-7.5s-3.357-7.5-7.5-7.5h-10.909v-18.983h10.909c4.143 0 7.5-3.358 7.5-7.5s-3.357-7.5-7.5-7.5h-10.909c-1.581-19.716 14.466-38.087 34.869-37.957 8.928 0 16.19 7.263 16.19 16.19v61.769zm43.033-26.154c-.48.479-1.029.555-1.4.534-.374-.021-.908-.157-1.331-.687l-17.863-22.362 11.229-2.064 20.028 13.931zm47.353-.153c-.423.53-.957.666-1.331.687-.371.025-.921-.054-1.4-.534l-10.662-10.648 20.028-13.931c2.737.503 8.131 1.495 11.229 2.064z"/></g></g></svg>