<svg id="Capa_1" enable-background="new 0 0 512.033 512.033" height="512" viewBox="0 0 512.033 512.033" width="512" xmlns="http://www.w3.org/2000/svg"><g><g><g><path d="m405.92 15.781c-1.546-9.342-14.076-11.372-18.492-2.996l-186.817 354.369c-4.831 9.163-16.164 12.472-25.313 7.615-.058-.031-.117-.062-.175-.093-34.141-17.999-76.527-4.461-93.814 30.289-16.28 32.725-3.815 72.985 28.108 90.786 33.898 18.903 76.518 6.123 94.517-28.018 0-.001.001-.001.001-.002l185.895-352.622c16.061-30.466 21.712-65.35 16.09-99.328zm-279.567 451.405c-17.439-9.194-24.124-30.784-14.93-48.223s30.784-24.124 48.223-14.93 24.124 30.784 14.93 48.223-30.784 24.124-48.223 14.93z" fill="#bac5e2"/></g><g><path d="m405.92 15.781c-1.546-9.342-14.076-11.372-18.492-2.996l-186.817 354.369c-4.831 9.163-16.164 12.472-25.313 7.615-.058-.031-.117-.062-.175-.093-34.141-17.999-76.527-4.461-93.814 30.289-16.28 32.725-3.815 72.985 28.108 90.786 2.23 1.244 4.499 2.341 6.795 3.314-25.804-19.655-34.805-55.675-19.988-85.46 17.287-34.75 59.673-48.287 93.814-30.289.058.031.117.062.175.093 9.149 4.857 20.483 1.548 25.313-7.615 3.359-6.372 12.485-6.372 15.844 0l10.516 19.947 56.434-107.048-13.911-26.388c-2.833-5.374-2.833-11.799 0-17.173l117.934-223.707c.959-1.819 2.301-3.146 3.83-4.015-.084-.543-.163-1.087-.253-1.629z" fill="#a7b4d1"/></g><g><path d="m189.491 460.896c9.194-17.439 2.509-39.029-14.93-48.223-2.196-1.158-4.458-2.062-6.752-2.727 11.127 10.748 14.344 27.936 6.767 42.31-8.036 15.243-25.543 22.268-41.471 17.656 2.373 2.292 5.098 4.297 8.163 5.913 17.439 9.195 39.029 2.51 48.223-14.929z" fill="#a7b4d1"/></g><g><g><path d="m122.203 115.109 185.896 352.622c0 .001.001.001.001.002 17.999 34.141 60.618 46.922 94.517 28.018 31.923-17.801 44.387-58.061 28.108-90.786-17.287-34.75-59.673-48.288-93.814-30.289-.058.031-.117.062-.175.093-9.149 4.857-20.483 1.548-25.313-7.615l-186.818-354.369c-4.416-8.376-16.946-6.347-18.492 2.996-5.622 33.978.029 68.862 16.09 99.328zm215.254 337.147c-9.194-17.439-2.509-39.029 14.93-48.223s39.029-2.509 48.223 14.93 2.509 39.029-14.93 48.223-39.029 2.509-48.223-14.93z" fill="#e9efff"/></g></g><g><path d="m401.52 457.106c17.439-9.194 24.124-30.784 14.93-48.223s-30.784-24.124-48.223-14.93c-3.786 1.996-7.063 4.577-9.783 7.572 16.111-5.025 34.012 1.972 42.166 17.438 7.198 13.653 4.661 29.85-5.147 40.651 2.056-.641 4.084-1.468 6.057-2.508z" fill="#d3dcfb"/></g><g><path d="m323.94 457.653c0-.001-.001-.001-.001-.002l-185.896-352.622c-15.515-29.429-21.313-62.981-16.622-95.857-5.514-3.754-14.05-.996-15.308 6.608-5.622 33.978.029 68.862 16.09 99.328l185.896 352.622c0 .001.001.001.001.002 17.999 34.141 60.618 46.922 94.517 28.018 3.985-2.222 7.667-4.795 11.027-7.659-33.022 15.219-72.547 2.107-89.704-30.438z" fill="#d3dcfb"/></g></g><g><path d="m163.144 397.399c-10.207-5.381-21.899-6.466-32.919-3.053-11.022 3.412-20.056 10.913-25.437 21.119-11.106 21.07-3.002 47.248 18.066 58.355 6.408 3.378 13.287 4.979 20.072 4.979 15.525 0 30.554-8.384 38.284-23.045 5.381-10.207 6.464-21.897 3.052-32.919-3.412-11.023-10.912-20.056-21.118-25.436zm4.797 51.359c-7.25 13.753-24.339 19.045-38.091 11.793-13.753-7.25-19.043-24.337-11.793-38.091 3.512-6.662 9.408-11.558 16.603-13.785 2.754-.853 5.57-1.275 8.373-1.275 4.521 0 9.003 1.1 13.115 3.268 6.662 3.512 11.558 9.408 13.785 16.603s1.521 14.825-1.992 21.487z"/><path d="m369.106 478.799c6.784 0 13.665-1.601 20.072-4.979 21.068-11.107 29.173-37.285 18.066-58.355-5.381-10.207-14.414-17.707-25.437-21.119-11.02-3.413-22.713-2.328-32.918 3.052-10.207 5.381-17.707 14.414-21.12 25.436-3.412 11.022-2.329 22.713 3.052 32.92 7.732 14.662 22.759 23.045 38.285 23.045zm-27.006-51.529c2.228-7.194 7.123-13.091 13.786-16.603 4.112-2.168 8.594-3.268 13.114-3.268 2.802 0 5.62.423 8.373 1.275 7.194 2.227 13.091 7.123 16.603 13.785 7.25 13.753 1.96 30.841-11.793 38.091-13.75 7.25-30.84 1.961-38.091-11.793-3.513-6.661-4.22-14.292-1.992-21.487z"/><path d="m437.439 401.624c-9.25-18.595-25.215-32.342-44.954-38.708-19.743-6.369-40.724-4.548-59.104 5.142l-.163.086c-2.724 1.445-5.82 1.749-8.714.857-2.795-.861-5.085-2.759-6.448-5.345l-25.389-48.159 103.797-196.891c16.722-31.719 22.708-68.671 16.855-104.05-1.239-7.487-6.88-13.108-14.371-14.321-7.489-1.212-14.617 2.339-18.155 9.053l-115.639 219.352c-1.932 3.664-.527 8.2 3.137 10.132 3.666 1.931 8.201.525 10.133-3.137l115.64-219.353c.659-1.251 1.713-1.367 2.488-1.24.771.125 1.738.567 1.97 1.963 5.321 32.167-.121 65.766-15.326 94.606l-99.006 187.802-112.169-212.769c-1.932-3.664-6.466-5.07-10.133-3.137-3.664 1.932-5.068 6.468-3.137 10.132l146.035 277.012c3.236 6.138 8.671 10.643 15.302 12.685 6.737 2.074 13.896 1.383 20.133-1.928l.188-.099c14.745-7.773 31.606-9.234 47.472-4.118 15.862 5.116 28.692 16.166 36.129 31.113 14.616 29.38 3.615 64.914-25.045 80.896-14.583 8.131-31.413 9.997-47.389 5.256-15.984-4.743-29.067-15.477-36.843-30.224l-185.895-352.621c-15.205-28.84-20.647-62.438-15.326-94.605.231-1.396 1.199-1.838 1.97-1.963.769-.123 1.828-.012 2.488 1.241l26.438 50.149c1.932 3.664 6.466 5.07 10.133 3.137 3.664-1.932 5.068-6.468 3.137-10.132l-26.439-50.15c-3.539-6.713-10.662-10.266-18.155-9.053-7.491 1.213-13.132 6.834-14.371 14.322-5.853 35.378.134 72.331 16.855 104.049l131.97 250.33-50.24 95.299c-7.773 14.746-20.856 25.479-36.841 30.222-15.976 4.741-32.807 2.875-47.389-5.256-28.66-15.982-39.661-51.515-25.045-80.896 7.437-14.947 20.267-25.997 36.129-31.113 15.865-5.118 32.725-3.656 47.44 4.102l.188.1c6.269 3.328 13.428 4.018 20.163 1.944 6.631-2.042 12.065-6.547 15.302-12.686l10.007-18.982c1.932-3.664.527-8.2-3.137-10.132-3.669-1.932-8.202-.526-10.133 3.137l-10.007 18.981c-1.363 2.586-3.653 4.485-6.448 5.346-2.897.894-5.992.587-8.744-.874l-.164-.087c-18.35-9.673-39.328-11.495-59.072-5.125-19.739 6.366-35.704 20.113-44.954 38.708-8.736 17.562-10.325 37.645-4.472 56.548 5.853 18.904 18.51 34.576 35.642 44.129 11.567 6.451 24.274 9.732 37.12 9.732 7.297 0 14.639-1.059 21.841-3.196 19.889-5.902 36.17-19.258 45.845-37.609l45.447-86.209 45.449 86.211c9.673 18.349 25.954 31.705 45.843 37.607 7.203 2.138 14.543 3.196 21.841 3.196 12.845 0 25.554-3.282 37.12-9.732 17.132-9.553 29.789-25.225 35.642-44.129 5.854-18.904 4.265-38.987-4.472-56.548z"/><path d="m257.217 324.026c4.143 0 7.5-3.358 7.5-7.5s-3.357-7.5-7.5-7.5h-2.4c-4.143 0-7.5 3.358-7.5 7.5s3.357 7.5 7.5 7.5z"/></g></g></svg>