<svg id="Capa_1" enable-background="new 0 0 512.002 512.002" height="512" viewBox="0 0 512.002 512.002" width="512" xmlns="http://www.w3.org/2000/svg"><g><g><path d="m429.007 496.5v-56.495c0-59.374-48.132-107.505-107.505-107.505h-130.99c-59.374 0-104.831 47.952-104.831 107.326v54.33c0 4.418 3.582 8 8 8l4.328 2.344h42.58l9.496-3.573 7.344 3.573h263.578c4.418 0 8-3.582 8-8z" fill="#857e87"/><path d="m194.459 332.5-3.95 15c-51 0-92.5 41.5-92.5 92.5v64.5h-7c-4.42 0-8-3.58-8-8v-56.49c0-59.38 48.13-107.51 107.5-107.51z" fill="#6f6571"/><g><path d="m396.156 211.172c1.829 0 3.588.237 5.252.679 10.846 2.881 17.693 14.462 14.034 25.807l-4.616 14.311c-3.676 11.395-14.282 19.117-26.254 19.117l-257.009.051c-11.973 0-22.579-7.723-26.254-19.117l-4.616-14.311c-3.28-10.168 1.881-20.527 10.796-24.64 2.558-1.18 5.425-1.846 8.49-1.846z" fill="#f2bb88"/></g><g><path d="m330.507 413.5-101-25 135.037-73.408c4.026-2.26 13.075-6.369 13.075-6.369 10.014-.651 20.053 3.753 26.279 12.367l15.521 21.476c11.845 16.39 4.412 39.566-14.757 46.009l-57.172 19.216-10.51 1.029z" fill="#afefa5"/></g><path d="m347.489 407.79-17.275 5.814-100.705-25.104 42.92-24.09 65.11 35.97c3.71 2.05 7.05 4.55 9.95 7.41z" fill="#8ce1a4"/><path d="m268.218 486.138-159.869-88.588-9.127-7.512c-15.736-8.72-19.455-27.364-8.917-41.945l18.33-23.599c8.885-12.294 25.548-16.021 38.824-8.685l132.788 70.055 50.04 27.651c20.155 11.137 20.767 39.89 1.104 51.875l-33.02 20.126c-9.207 5.61-20.72 5.849-30.153.622z" fill="#afefa5"/><path d="m377.618 308.723c-3.72 8.83-7.91 17.357-12.56 25.487-11.68 20.44-28.26 25.48-40.36 29.16-7.4 2.25-12.1 3.8-15.32 7.2-7.57 8-18.77 12.62-29.13 15.29l-23.2-12.82 107.85-60.54c4.021-2.26 8.37-3.507 12.72-3.777z" fill="#8ce1a4"/><path d="m298.509 378.82c-5.76 3.22-12.16 5.47-18.26 7.04l-16.164-5.759-7.036-7.061 15.38-8.63z" fill="#7ad396"/><path d="m257.049 373.04-110-60.78c-3.459-1.801-7.774-3.542-13.27-3.72v.001c-9.777-.4-19.484 3.998-25.56 12.399l-19.68 27.24c-9.83 13.6-6.51 32.35 6.75 41.89.96.69 1.97 1.33 3.03 1.92l10.03 5.56c10.64-20.528 28.754-36.579 50.712-44.541 1.47-.533 3.109-.298 4.41.569 7.521 5.015 15.175 7.172 21.538 8.962 7.74 2.17 12.31 3.61 16.27 7.9 8.56 9.27 20.56 14.04 31.02 16.49 10.02 2.35 18.62 2.57 21.47 2.57.22 0 12.61-.07 26.48-3.64z" fill="#8ce1a4"/><path d="m382.096 212.543c.028.132.056.264.083.397l-2.608 7.918 2.609 7.083c-3.354 36.325-14.023 70.63-30.141 98.823-14.967 26.179-38.887 17.988-53.559 33.502-10.395 10.991-34.972 14.234-44.707 14.234-9.536 0-30.682-2.551-41.474-14.234-16.306-17.652-38.214-6.595-53.193-33.502-15.695-28.193-25.973-62.498-29.199-98.823l2.784-6.152s-3.229-6.038-2.524-9.012l28.197-119.073c3.385-14.293 16.621-24.034 31.275-23.015l141.891 9.87c13.328.927 24.436 10.555 27.247 23.616z" fill="#f2d1a5"/><path d="m221.754 44.142c-3.333-2.786-8.33-5.518-14.367-5.532-24.122 0-45.074 8.271-62.092 22.789-21.464 16.659-34.373 46.521-34.238 74.172l-2.009 75.801 12.441 1.693h6.193c14.052 0 25.443-11.391 25.443-25.443v-16.946c0-24.241 19.652-43.893 43.893-43.893 13.649 0 25.352-8.329 30.305-20.181l.789-13.826 1.737-10.61z" fill="#e8e8e8"/><path d="m220.753 42.419c-3.612-2.885-9.634-5.801-15.815-5.659-12.06 0-23.61 2.19-34.27 6.19-10.66 4.01-20.44 9.83-28.95 17.09-21.46 16.66-34.37 46.52-34.23 74.17l-.001 78.86 14.001-.01v-72.85c-.14-27.65 12.77-57.51 34.23-74.17 8.51-7.26 18.29-13.08 28.95-17.09 4.506-1.691 9.17-3.058 13.965-4.073 3.575-.757 6.937 1.906 7.169 5.553 1.28 20.057 8.895 40.469 21.519 56.172 1.63-3.9 2.526-8.172 2.526-12.652v-11.1z" fill="#d8d8d8"/><path d="m285.733 128.056c-3.646-.529-7.236-1.422-10.677-2.74-11.275-4.32-21.398-11.02-29.77-19.496-15.244-15.432-24.68-36.76-24.68-60.322 0-19.735 15.985-35.742 35.709-35.742h29.669c31.87 0 60.731 12.932 81.617 33.828 20.885 20.908 33.806 49.791 33.806 81.683l.001 86.583-15.781-.2c-15.193-.195-27.582-12.085-28.572-27.246-.554-8.485-2.219-16.099-6.096-24.209-7.324-15.317-21.942-25.857-38.744-28.295z" fill="#e8e8e8"/><g fill="#f8f7f7"><ellipse cx="308.129" cy="220.437" rx="29.6" ry="31.785"/><ellipse cx="207.505" cy="220.437" rx="29.6" ry="31.785"/></g></g><g><path d="m427.53 429.704c.41 0 .825-.033 1.242-.103 4.086-.682 6.846-4.546 6.165-8.631-2.08-12.486-6.166-24.396-12.157-35.488 11.147-11.616 13.456-33.301 2.716-47.309l-15.521-21.478c-8.804-12.182-23.694-17.621-37.749-14.807 3.016-7.586 5.696-15.417 8.009-23.441h4.335c15.281 0 28.701-9.771 33.392-24.314l4.616-14.311c2.752-8.532 1.309-17.577-3.962-24.814-2.611-3.586-5.933-6.412-9.71-8.357 0 0-.016-85.914-.046-87.045-.112-4.141-3.578-7.393-7.7-7.294-4.141.112-7.406 3.56-7.294 7.7.027.996.041 83.581.041 83.581h-8.2c-11.138-.151-20.435-9.054-21.169-20.276-.721-11.039-3.013-20.666-6.814-28.613-8.375-17.516-24.985-29.659-44.433-32.482l-26.48-3.844c-12.31-1.858-26.56-10.266-36.189-20.084-14.52-14.698-22.516-34.25-22.516-55.052 0-15.573 12.654-28.242 28.209-28.242h29.669c28.825 0 55.926 11.233 76.311 31.629 11.585 11.597 20.504 25.879 25.794 41.302 1.343 3.918 5.607 6.006 9.527 4.662 3.918-1.344 6.005-5.609 4.661-9.527-6.025-17.57-16.181-33.835-29.372-47.039-23.218-23.233-54.088-36.027-86.921-36.027h-29.669c-19.278 0-35.643 12.702-41.19 30.181-3.269-1.083-6.709-1.655-10.188-1.655-17.263 0-34.381 4.283-49.505 12.388-3.651 1.956-5.024 6.502-3.068 10.152 1.353 2.524 3.941 3.96 6.617 3.96 1.196-.001 2.409-.287 3.536-.892 12.952-6.939 27.621-10.608 42.42-10.608 2.926 0 5.717.714 8.225 2.067.33 13.486 3.481 26.485 9.186 38.305v9.325c0 13.968-11.363 25.331-25.331 25.331-28.338 0-51.393 23.055-51.393 51.393v15.866c0 9.847-8.049 17.858-17.943 17.858-1.914.021-11.375-.045-12.698.029v-70.255c-.104-21.256 8.372-44.07 22.118-59.54 2.751-3.096 2.472-7.837-.625-10.588-3.098-2.752-7.837-2.472-10.588.625-16.343 18.393-26.027 44.402-25.905 69.539v75.218c-2.449 1.728-4.641 3.865-6.476 6.384-5.264 7.229-6.705 16.266-3.955 24.792l4.616 14.312c4.691 14.543 18.111 24.314 33.392 24.314h3.982c2.21 7.916 4.769 15.637 7.643 23.114-13.847-2.484-28.407 2.988-37.044 14.937l-19.68 27.231c-10.329 13.795-9.201 35.265 3.563 48.145-6.889 14.984-10.519 31.482-10.519 48.078v64.494c0 4.143 3.358 7.5 7.5 7.5s7.5-3.357 7.5-7.5v-64.495c0-13.521 2.77-26.962 8.039-39.313l22.031 12.208c1.152.638 2.398.94 3.628.94 2.638 0 5.198-1.395 6.567-3.866 2.008-3.623.698-8.188-2.925-10.195l-25.897-14.351c-11.039-5.801-15.304-21.727-7.331-32.859l19.68-27.231c6.656-9.21 19.173-12.01 29.118-6.515l4.344 2.4c1.542 3.12 3.126 6.199 4.79 9.188 10.035 18.025 23.595 21.84 34.49 24.904 7.593 2.136 14.151 3.98 19.747 10.038 18.581 17.711 42.71 16.404 50.745 16.526l69.127 38.198c7.099 3.923 11.44 11.105 11.613 19.215.173 8.108-3.859 15.47-10.785 19.69l-33.021 20.126c-6.89 4.202-15.556 4.379-22.615.468l-113.446-62.864c-3.623-2.006-8.188-.698-10.195 2.926-2.008 3.623-.698 8.188 2.925 10.195l21.479 11.902-30.289 59.355c-1.882 3.689-.418 8.207 3.271 10.09 1.092.557 2.256.821 3.403.821 2.729 0 5.361-1.495 6.687-4.093l30.056-58.898 78.839 43.688c5.649 3.13 11.913 4.688 18.172 4.688 6.778 0 13.55-1.828 19.521-5.468l33.02-20.126c11.543-7.035 18.262-19.304 17.975-32.818-.179-8.414-3.053-16.227-8.05-22.506l61.831-20.783c1.171-.394 2.305-.852 3.416-1.347 4.71 9.145 7.974 18.896 9.675 29.098.613 3.668 3.79 6.268 7.39 6.268zm-37.158-211.11h5.784c4.142 0 7.909 1.911 10.336 5.244 2.415 3.316 3.075 7.464 1.812 11.38l-4.616 14.311c-2.346 7.728-10.772 14.151-19.594 13.92 3.309-14.629 5.435-29.705 6.278-44.855zm-281.927 30.986-4.616-14.312c-1.261-3.91-.604-8.049 1.805-11.356 2.425-3.332 6.195-5.242 10.343-5.242h5.766c.815 15.16 2.87 30.228 6.066 44.83-9.307 0-16.678-5.594-19.364-13.92zm52.18-63.768v-15.866c0-20.067 16.326-36.393 36.393-36.393 18.396 0 33.943-12.385 38.771-29.252 12.13 13.758 29.299 25.758 48.868 28.92l26.48 3.844c14.485 2.104 26.843 11.116 33.055 24.109 2.973 6.217 4.782 13.996 5.378 23.121.788 12.066 7.457 22.539 17.066 28.641h-21.449c-3.328-19.313-19.252-34-38.35-34-16.684 0-30.948 11.208-36.508 26.917-8.681-4.419-17.634-4.419-26.318-.002-5.56-15.708-19.824-26.916-36.507-26.916-19.098 0-35.021 14.687-38.35 34h-22.907c8.674-5.923 14.378-15.87 14.378-27.123zm170.212 34.625c0 14.612-10.766 26.5-24 26.5s-24-11.888-24-26.5 10.766-26.5 24-26.5 24 11.887 24 26.5zm-99.332 0c0 14.612-10.766 26.5-24 26.5s-24-11.888-24-26.5 10.766-26.5 24-26.5 24 11.887 24 26.5zm22.268 146.563c-8.662 0-27.326-2.471-35.965-11.823-8.473-9.172-18.159-11.896-26.704-14.3-10.306-2.899-18.447-5.189-25.445-17.761-15.171-27.252-25.017-60.685-28.193-95.18h31.69c3.328 19.313 19.252 34 38.35 34 20.988 0 38.148-17.736 38.961-39.86 7.471-6.028 13.945-6.026 21.411.006.816 22.122 17.975 39.854 38.961 39.854 19.098 0 35.021-14.687 38.35-34h29.431c-3.289 34.345-13.445 67.738-29.091 95.104-7.249 12.68-16.576 15.515-27.377 18.798-8.671 2.636-17.638 5.361-25.12 13.273-7.946 8.402-29.491 11.889-39.259 11.889zm162.755.011c-2.208 6.884-7.404 12.152-14.256 14.455l-71.178 23.924-49.875-27.56c8.571-2.524 17.068-6.445 22.71-12.411 4.75-5.023 11.161-6.972 18.584-9.229 11.508-3.498 25.83-7.852 36.037-25.704 1.556-2.721 3.041-5.516 4.494-8.342l5.525-3.102c9.974-5.6 22.549-2.83 29.25 6.44l15.521 21.478c4.234 5.858 5.396 13.167 3.188 20.051z"/><path d="m429.007 449.563c-4.142 0-7.5 3.357-7.5 7.5v47.437c0 4.143 3.358 7.5 7.5 7.5s7.5-3.357 7.5-7.5v-47.437c0-4.142-3.358-7.5-7.5-7.5z"/><path d="m226.075 166.375c19.62-5.605 40.362-5.605 59.982 0 .689.197 1.382.291 2.064.291 3.263 0 6.267-2.147 7.208-5.441 1.138-3.982-1.168-8.134-5.151-9.271-22.316-6.377-45.908-6.377-68.225 0-3.982 1.138-6.289 5.289-5.151 9.271 1.139 3.982 5.29 6.291 9.273 5.15z"/><path d="m269.113 315.338c-7.804 6.863-18.29 6.863-26.094 0-3.111-2.735-7.85-2.432-10.585.679s-2.432 7.85.679 10.585c6.757 5.942 14.855 8.914 22.953 8.914s16.196-2.972 22.953-8.914c3.11-2.735 3.414-7.475.679-10.585-2.736-3.11-7.474-3.415-10.585-.679z"/><path d="m256.066 285.5c5.272 0 13.105-2.087 20.482-12.032 2.468-3.326 1.771-8.023-1.555-10.491-3.326-2.469-8.023-1.772-10.492 1.556-2.854 3.849-5.85 5.968-8.435 5.968s-5.58-2.119-8.435-5.968c-2.468-3.328-7.165-4.024-10.492-1.556s-4.023 7.165-1.555 10.491c7.377 9.945 15.21 12.032 20.482 12.032z"/><path d="m299.337 213.937v13c0 4.143 3.358 7.5 7.5 7.5s7.5-3.357 7.5-7.5v-13c0-4.143-3.358-7.5-7.5-7.5s-7.5 3.357-7.5 7.5z"/><path d="m200.005 213.937v13c0 4.143 3.358 7.5 7.5 7.5s7.5-3.357 7.5-7.5v-13c0-4.143-3.358-7.5-7.5-7.5s-7.5 3.357-7.5 7.5z"/><path d="m300.634 316.164c1.194 0 2.406-.286 3.532-.89 3.652-1.954 5.028-6.499 3.074-10.151-2.48-4.52-5.275-12.945-6.208-20.46-.6-4.099-4.404-6.93-8.508-6.334-4.098.601-6.934 4.41-6.333 8.508.973 7.79 3.939 18.206 7.825 25.364 1.351 2.526 3.941 3.963 6.618 3.963z"/><path d="m219.492 278.33c-4.097-.604-7.908 2.231-8.51 6.33-.755 6.038-3.003 14.478-6.209 20.465-1.955 3.652-.579 8.197 3.073 10.151 1.126.604 2.338.89 3.533.89 2.677 0 5.267-1.438 6.619-3.963 3.402-6.195 6.681-16.414 7.826-25.363.601-4.098-2.234-7.908-6.332-8.51z"/></g></g></svg>