<svg id="Capa_1" enable-background="new 0 0 511.809 511.809" height="512" viewBox="0 0 511.809 511.809" width="512" xmlns="http://www.w3.org/2000/svg"><g><g><path d="m260.273 462.663c181.095-161.097 234.035-222.024 234.035-286.895 0-31.159-5.906-64.622-28.603-95.508-24.506-24.998-58.648-40.514-96.42-40.514-47.585 0-89.333 24.674-113.382 61.865-24.048-37.191-65.797-61.865-113.382-61.865-74.569-.001-135.021 60.451-135.021 135.022 0 71.612 54.831 129.78 226.538 282.909 11.241 11.242 20.556 10.038 26.235 4.986z" fill="#df646e"/><path d="m465.706 80.26c15.208 27.051 23.603 60.349 23.603 91.508 0 68.431-52.94 124.797-234.035 285.895-5.68 5.053-15.547 5.057-21.235.014 3.91 3.487 7.859 7.005 11.891 10.592 5.686 5.058 14.266 5.058 19.951 0 181.095-161.097 238.429-220.259 238.429-293.501-.001-36.799-14.729-70.154-38.604-94.508z" fill="#ca4646"/></g><g><path d="m255.904 479.563c-5.348 0-10.696-1.897-14.96-5.69-178.488-158.778-240.944-221.28-240.944-299.105 0-78.587 63.936-142.523 142.522-142.523 44.839 0 86.462 20.86 113.381 56.311 19.92-26.25 48.002-44.693 80.117-52.396 4.027-.967 8.076 1.516 9.042 5.544s-1.516 8.076-5.544 9.042c-31.898 7.651-59.356 27.161-77.316 54.936-1.382 2.137-3.753 3.428-6.298 3.428s-4.916-1.291-6.298-3.428c-23.66-36.591-63.691-58.437-107.084-58.437-70.316 0-127.522 57.207-127.522 127.523 0 25.089 7.193 48.24 23.878 74.509h22.535c4.143 0 7.5 3.358 7.5 7.5s-3.357 7.5-7.5 7.5h-12.236c4.605 6.265 9.72 12.735 15.374 19.477 36.26 43.236 95.79 98.341 186.362 178.912 2.846 2.53 7.137 2.531 9.982 0 38.107-33.9 65.336-58.493 88.285-79.74 3.04-2.815 7.784-2.632 10.6.408 2.813 3.04 2.631 7.785-.408 10.599-23.025 21.317-50.322 45.972-88.508 79.94-4.263 3.794-9.612 5.69-14.96 5.69zm119.68-103.566c-1.988 0-3.973-.786-5.447-2.344-2.848-3.008-2.718-7.755.29-10.603 42.569-40.297 72.279-71.726 92.144-98.773h-38.037c-4.928 0-9.7-1.766-13.44-4.972l-22.747-19.498c-2.131-1.826-5.225-1.826-7.355 0l-22.747 19.498c-3.741 3.206-8.514 4.972-13.44 4.972h-27.737c-2.614 0-4.872 1.773-5.49 4.313l-8.453 34.682c-1.718 7.051-7.938 11.76-15.234 11.434-7.252-.32-13.079-5.556-14.169-12.732l-18.923-124.547-24.043 113.879c-1.356 6.428-6.452 11.062-12.98 11.805-6.538.742-12.535-2.629-15.302-8.588l-12.63-27.21c-.925-1.992-2.933-3.272-5.126-3.272-.017 0-.034 0-.051 0l-19.632.174c-7.013.045-13.486-3.375-17.365-9.195l-5.111-7.667c-1.515-2.271-3.793-2.517-4.702-2.517-.91 0-3.188.245-4.703 2.517l-5.153 7.729c-3.838 5.758-10.261 9.196-17.183 9.196h-19.405c-4.143 0-7.5-3.358-7.5-7.5s3.357-7.5 7.5-7.5h19.401c1.894 0 3.651-.94 4.701-2.516l5.154-7.73c3.839-5.758 10.263-9.196 17.184-9.196 6.92 0 13.344 3.438 17.183 9.196l5.111 7.667c1.062 1.592 2.838 2.529 4.752 2.517l19.632-.174c8.063-.09 15.511 4.621 18.915 11.956l12.626 27.201 24.048-113.87c1.523-7.216 7.767-12.122 15.105-11.896 7.371.211 13.293 5.451 14.4 12.741l18.923 124.547 8.452-34.682c2.262-9.28 10.513-15.761 20.064-15.761h27.737c1.349 0 2.655-.483 3.679-1.361l22.747-19.498c7.789-6.675 19.094-6.674 26.879 0l22.748 19.498c1.023.877 2.329 1.36 3.678 1.36h48.331c17.15-27.001 23.944-50.068 23.944-74.509 0-70.316-57.206-127.523-127.522-127.523-4.143 0-7.5-3.358-7.5-7.5s3.357-7.5 7.5-7.5c78.587 0 142.522 63.936 142.522 142.523 0 56.851-31.849 105.249-131.069 199.175-1.449 1.373-3.303 2.054-5.154 2.054z"/></g></g></svg>