<svg id="Capa_1" enable-background="new 0 0 512.004 512.004" height="512" viewBox="0 0 512.004 512.004" width="512" xmlns="http://www.w3.org/2000/svg"><g><g><g><path d="m141.821 504.502c-53.809-137.563-42.416-218.924-20.712-268.347 9.405-21.417 29.559-56.903 40.626-113.117 9.385-47.671 7.947-88.462 5.247-115.536-.509-3.979 2.591-7.5 6.602-7.5h164.878c4.011 0 7.111 3.521 6.602 7.5-2.699 27.073-4.138 67.864 5.247 115.536 11.067 56.214 31.221 91.701 40.626 113.117 21.704 49.423 33.097 130.785-20.712 268.347-1.942 4.549-6.411 7.5-11.357 7.5h-205.69c-4.946 0-9.415-2.951-11.357-7.5z" fill="#ffcebf"/></g><path d="m390.937 236.154c-9.405-21.417-29.559-56.903-40.626-113.117-9.385-47.671-7.947-88.462-5.247-115.536.509-3.979-2.591-7.5-6.602-7.5h-30c4.011 0 7.111 3.521 6.602 7.5-2.699 27.073-4.138 67.864 5.247 115.536 11.067 56.214 31.221 91.701 40.626 113.117 21.704 49.423 33.097 130.785-20.712 268.347-1.942 4.549-6.411 7.5-11.356 7.5h30c4.946 0 9.415-2.951 11.356-7.5 53.809-137.562 42.416-218.923 20.712-268.347z" fill="#ffb09e"/><g><g><g><path d="m258.466 233.193-4.886-4.886 16.912-42.549c6.241-15.701 26.514-19.885 38.461-7.938 11.947 11.947 7.763 32.22-7.938 38.461z" fill="#fea3ce"/><path d="m308.952 177.82c-9.009-9.009-22.75-8.841-31.641-1.483.561.467 1.112.953 1.641 1.483 11.947 11.947 7.763 32.22-7.938 38.461l-15.029 5.974-2.406 6.052 4.886 4.886 42.549-16.912c15.701-6.241 19.885-26.514 7.938-38.461z" fill="#fe7ab6"/><path d="m258.466 233.193-4.886-4.886-42.549 16.912c-15.701 6.241-19.885 26.514-7.938 38.461 11.947 11.947 32.22 7.763 38.461-7.938z" fill="#fea3ce"/></g></g><g><g><path d="m259.477 230.75h-6.91l-18.128-42.045c-6.689-15.515 4.687-32.809 21.583-32.809 16.896 0 28.272 17.294 21.583 32.809z" fill="#bee49d"/><path d="m256.023 155.896c-5.829 0-11 2.06-15 5.393 7.594 6.329 10.964 17.254 6.583 27.416l-6.583 15.268 11.545 26.777h6.91l18.128-42.045c6.689-15.515-4.688-32.809-21.583-32.809z" fill="#a3d8a4"/><path d="m259.477 230.75h-6.91l-18.128 42.045c-6.689 15.515 4.687 32.809 21.583 32.809 16.896 0 28.272-17.294 21.583-32.809z" fill="#bee49d"/><path d="m277.605 272.795-18.128-42.045h-6.91l-11.545 26.777 6.583 15.268c4.382 10.162 1.011 21.087-6.583 27.416 4 3.334 9.171 5.393 15 5.393 16.896 0 28.273-17.294 21.583-32.809z" fill="#a3d8a4"/></g></g><g><g><path d="m258.466 228.307-4.886 4.886-42.549-16.912c-15.701-6.241-19.885-26.514-7.938-38.461 11.947-11.947 32.22-7.763 38.461 7.938z" fill="#fea3ce"/><path d="m258.466 228.307-4.886 4.886 16.912 42.549c6.241 15.701 26.514 19.885 38.461 7.938 11.947-11.947 7.763-32.22-7.938-38.461z" fill="#fea3ce"/><path d="m301.014 245.219-42.549-16.912-4.886 4.886 2.406 6.052 15.029 5.973c15.701 6.241 19.885 26.514 7.938 38.461-.53.53-1.081 1.016-1.641 1.483 8.891 7.358 22.632 7.526 31.641-1.483 11.947-11.946 7.763-32.22-7.938-38.46z" fill="#fe7ab6"/></g></g><g><g><path d="m256.023 227.295v6.91l-42.045 18.128c-15.515 6.689-32.809-4.687-32.809-21.583 0-16.896 17.294-28.272 32.809-21.583z" fill="#bee49d"/><path d="m256.023 227.295v6.91l42.045 18.128c15.515 6.689 32.809-4.687 32.809-21.583 0-16.896-17.294-28.272-32.809-21.583z" fill="#bee49d"/><path d="m298.068 209.167-6.542 2.821c5.588 4.206 9.351 10.883 9.351 18.762 0 7.879-3.763 14.556-9.351 18.762l6.542 2.821c15.515 6.689 32.809-4.687 32.809-21.583 0-16.896-17.295-28.272-32.809-21.583z" fill="#a3d8a4"/></g></g><circle cx="256.523" cy="230.75" fill="#eaf6ff" r="33.5"/><path d="m256.523 197.25c-5.394 0-10.486 1.282-15 3.547 10.968 5.504 18.5 16.845 18.5 29.953s-7.532 24.449-18.5 29.953c4.514 2.265 9.606 3.547 15 3.547 18.501 0 33.5-14.999 33.5-33.5s-14.999-33.5-33.5-33.5z" fill="#d8ecfe"/></g></g><path d="m159.451 134.147c-4.023-1.005-8.09 1.44-9.093 5.46-8.942 35.818-21.17 61.662-30.1 80.532-2.308 4.878-4.301 9.091-6.018 12.999-13.37 30.446-19.625 65.55-18.592 104.337 1.32 49.545 14.505 106.66 39.187 169.759 1.157 2.96 3.988 4.77 6.986 4.77.908 0 1.833-.166 2.73-.518 3.857-1.509 5.761-5.859 4.252-9.717-42.56-108.806-49.568-197.157-20.829-262.6 1.631-3.714 3.583-7.839 5.843-12.614 9.196-19.438 21.792-46.057 31.093-83.315 1.005-4.019-1.44-8.09-5.459-9.093zm14.994-127.389c-.411-4.122-4.094-7.138-8.207-6.719-4.122.411-7.13 4.085-6.719 8.207 3.287 32.973 2.476 65.856-2.412 97.737-.628 4.095 2.183 7.922 6.276 8.55.386.06.768.088 1.146.088 3.64 0 6.835-2.655 7.403-6.364 5.08-33.125 5.925-67.274 2.513-101.499zm121.239 319.172c-3.474-2.25-8.121-1.255-10.37 2.224-4.322 6.681-9.367 12.916-14.995 18.532-4.473 4.463-9.335 8.558-14.499 12.212-5.974-3.874-11.456-8.433-16.34-13.591-4.818-5.089-9.04-10.751-12.55-16.83-2.07-3.587-6.657-4.815-10.245-2.745-3.587 2.07-4.816 6.657-2.745 10.245 4.096 7.094 9.023 13.703 14.647 19.643 5.936 6.27 12.631 11.77 19.936 16.407v132.475c0 4.143 3.357 7.5 7.5 7.5s7.5-3.357 7.5-7.5v-132.696c6.208-4.308 12.047-9.17 17.392-14.504 6.379-6.365 12.096-13.432 16.993-21.003 2.249-3.477 1.254-8.12-2.224-10.369zm-39.661-102.68c-4.142 0-7.5 3.358-7.5 7.5s3.358 7.5 7.5 7.5 7.5-3.358 7.5-7.5-3.358-7.5-7.5-7.5zm143.842 185.527c-4.031-.94-8.065 1.576-9 5.611-6.336 27.317-15.63 56.717-27.624 87.381-1.509 3.857.395 8.208 4.252 9.717.897.352 1.821.518 2.73.518 2.997 0 5.829-1.81 6.986-4.77 12.258-31.338 21.769-61.436 28.267-89.457.936-4.035-1.576-8.064-5.611-9zm-2.061-175.639c-1.717-3.908-3.71-8.121-6.019-13-10.034-21.207-25.198-53.256-34.116-98.55-7.242-36.791-8.973-74.925-5.143-113.343.411-4.122-2.597-7.796-6.719-8.207-4.123-.418-7.796 2.598-8.207 6.719-3.977 39.883-2.176 79.492 5.352 117.729 9.277 47.125 24.922 80.188 35.274 102.067 2.26 4.776 4.212 8.901 5.843 12.616 17.158 39.072 21.651 86.591 13.354 141.236-.622 4.095 2.194 7.919 6.289 8.541 4.003.608 7.914-2.162 8.541-6.289 8.732-57.498 3.869-107.804-14.449-149.519zm-75.79-29.734c.875-2.907 1.329-5.944 1.329-9.034 0-8.233-3.228-15.994-9.087-21.854-8.229-8.227-20.181-10.969-30.888-7.757-5.24-9.729-15.531-16.359-27.346-16.359-10.467 0-20.149 5.219-25.899 13.96-.515.783-.979 1.59-1.417 2.406-2.916-.881-5.963-1.337-9.064-1.337-8.233 0-15.994 3.228-21.854 9.087-8.228 8.228-10.969 20.179-7.757 30.887-9.729 5.24-16.36 15.531-16.36 27.346 0 10.468 5.219 20.149 13.961 25.9.784.516 1.591.979 2.407 1.418-3.226 10.715-.487 22.679 7.748 30.914 5.859 5.86 13.62 9.088 21.854 9.088 3.101 0 6.147-.456 9.063-1.337.438.817.902 1.624 1.417 2.408 5.751 8.74 15.433 13.959 25.899 13.959 11.645 0 22.042-6.522 27.337-16.377.889.268 1.789.511 2.709.701 2.099.433 4.208.646 6.302.646 8.13-.001 16-3.202 21.885-9.087 5.86-5.859 9.088-13.62 9.088-21.854 0-3.101-.456-6.148-1.337-9.063.816-.438 1.622-.902 2.405-1.417 8.742-5.751 13.961-15.433 13.961-25.9.002-11.813-6.628-22.104-16.356-27.344zm-37.523-11.728c1.7-3.948 2.562-8.082 2.562-12.285 0-.009-.001-.019-.001-.028 5.208-1.779 11.719-1.116 16.597 3.761 3.026 3.026 4.693 7.02 4.693 11.246 0 1.842-.317 3.644-.911 5.351-.017 0-.033-.001-.049-.001-4.204 0-8.338.861-12.292 2.563l-6.594 2.845c-2.023-2.519-4.336-4.792-6.888-6.774zm-41.836-21.072c3.012-4.578 7.885-7.204 13.368-7.204 7.932 0 16.03 6.792 16.03 15.99 0 2.152-.45 4.29-1.336 6.347l-2.473 5.729c-3.716-1.111-7.649-1.716-11.721-1.716-4.397 0-8.631.704-12.604 1.991l-2.588-6c-2.19-5.06-1.676-10.577 1.324-15.137zm-34.258 12.519c3.026-3.026 7.02-4.693 11.246-4.693 1.853 0 3.666.32 5.381.921-.005 4.172.823 8.365 2.532 12.33l3.133 7.262c-2.365 1.925-4.508 4.111-6.394 6.509l-7.346-3.17c-3.948-1.7-8.082-2.562-12.286-2.562-.009 0-.019.001-.028.001-1.78-5.209-1.116-11.72 3.762-16.598zm-12.52 60.996c-4.578-3.012-7.204-7.885-7.204-13.369 0-7.994 6.94-16.03 15.989-16.03 2.152 0 4.291.45 6.349 1.336l6.3 2.719c-1.16 3.79-1.789 7.81-1.789 11.975s.629 8.185 1.789 11.975l-6.297 2.717c-5.093 2.211-10.56 1.688-15.137-1.323zm31.678 25.702c-1.708 3.964-2.536 8.157-2.531 12.329-1.716.6-3.528.92-5.381.92-4.227 0-8.22-1.667-11.246-4.694-4.884-4.884-5.544-11.404-3.756-16.614.005 0 .011.001.016.001 4.161 0 8.343-.842 12.298-2.546l7.341-3.167c1.886 2.397 4.028 4.583 6.394 6.508zm28.468 28.279c-5.483 0-10.356-2.626-13.368-7.204-2.994-4.551-3.507-10.075-1.325-15.136l2.589-6.001c3.974 1.287 8.208 1.991 12.604 1.991 1.428 0 2.838-.074 4.229-.218l2.771 6.978c1.591 4.003 3.964 7.546 6.909 10.489-2.418 4.952-7.498 9.101-14.409 9.101zm.5-41.35c-14.337 0-26-11.663-26-26s11.663-26 26-26 26 11.663 26 26-11.663 26-26 26zm47.126 21.627c-3.877 3.877-9.181 5.468-14.548 4.357-5.357-1.108-9.596-4.598-11.638-9.763l-2.277-5.734c5.169-2.655 9.702-6.371 13.311-10.866l6.597 2.846c3.953 1.704 8.134 2.545 12.294 2.545.013 0 .026-.001.039-.001.598 1.712.916 3.52.916 5.369 0 4.226-1.667 8.219-4.694 11.247zm12.519-34.258c-4.548 2.992-10.063 3.508-15.134 1.324l-5.418-2.338c1.236-3.901 1.906-8.051 1.906-12.355 0-4.305-.671-8.455-1.906-12.356l5.412-2.336c2.063-.889 4.202-1.339 6.354-1.339 8.971 0 15.989 7.981 15.989 16.03.001 5.485-2.625 10.358-7.203 13.37z"/></g></svg>