<svg id="Capa_1" enable-background="new 0 0 512.019 512.019" height="512" viewBox="0 0 512.019 512.019" width="512" xmlns="http://www.w3.org/2000/svg"><g><g><path d="m311.949 68.679-17.775-5.002v379.539l-.581 3.588h19.773l3.275-3.588v-305.037l-2.775-2.459v-27.5l2.775-2.375v-32.893z" fill="#8479c2"/><path d="m296.174 443.216v-378.976l-17.1-4.811-3.367 1.666v44.75l2.742 2.792v26.833l-2.742 2.709v305.037l3.326 3.588h16.56z" fill="#6e60b8"/><path d="m294.174 105.845h22.467v32.333h-22.467z" fill="#dbedff"/><path d="m275.707 105.845h20.467v32.333h-20.467z" fill="#b5dcff"/><path d="m368.996 20.837c-6.962-8.151-18.624-10.763-28.199-5.943-17.175 8.644-40.469 8.925-89.361-2.713l-4.611 5.247 6.375 29.375 8.39 6.346c16.309 8.796 31.441 19.877 51.315 19.877 25.938 0 43.22-9.728 53.942-19.29 9.558-8.523 10.468-23.16 2.149-32.899z" fill="#ffc365"/><path d="m284.242 504.519h51.631l-19.233-61.303c-8.165 0-15.262 0-22.467 0z" fill="#6e60b8"/><path d="m296.174 443.216c-6.531 0-13.061 0-20.467 0l-19.233 61.303h29.769z" fill="#6353b2"/><path d="m261.589 53.15c-11.527-15.151-11.354-32.025-10.154-40.968-2.608-.621-5.27-1.267-8.027-1.956-51.165-12.791-86.89 22.772-102.472 42.945-5.142 6.656-3.575 16.264 3.455 20.881 5.308 3.486 12.279 3.075 17.146-1.003 48.94-41.005 75.798-32.98 100.052-19.899z" fill="#ffa90f"/></g><path d="m316.388 264.767c4.143 0 7.5-3.357 7.5-7.5 0-92.026 0-123.765 0-177.344 22.819-2.483 38.322-12.226 47.698-20.587 12.489-11.138 13.772-30.593 2.86-43.369-9.331-10.925-24.657-14.122-37.274-7.771-7.38 3.714-15.874 5.454-26.732 5.475-4.142.008-7.493 3.372-7.485 7.515.008 4.137 3.364 7.485 7.5 7.485h.015c13.277-.025 23.905-2.274 33.447-7.076 6.428-3.234 14.292-1.543 19.124 4.115 5.654 6.619 5.009 16.682-1.438 22.431-12.787 11.402-28.368 16.749-45.974 17.331-16.213.506-26.868-5.383-42.003-14.032-27.375-15.643-58.402-33.37-117.157 15.86-2.316 1.94-5.693 2.138-8.213.483-3.368-2.211-4.123-6.808-1.637-10.027 15.458-20.013 48.329-51.85 94.717-40.254 12.402 3.101 23.118 5.472 32.759 7.25 4.063.753 7.983-1.942 8.735-6.016.751-4.074-1.942-7.984-6.017-8.735-9.329-1.72-19.744-4.026-31.839-7.05-24.3-6.075-47.885-2.756-70.104 9.866-18.399 10.453-31.975 25.222-40.123 35.771-7.813 10.115-5.386 24.734 5.273 31.734 8.151 5.356 18.634 4.717 26.08-1.522 50.483-42.298 72.737-29.919 101.853-13.325v376.594l-17.241 54.952h-.792c-4.143 0-7.5 3.357-7.5 7.5s3.357 7.5 7.5 7.5h92c4.143 0 7.5-3.357 7.5-7.5s-3.357-7.5-7.5-7.5h-.792l-17.241-54.952v-149.802c0-4.143-3.357-7.5-7.5-7.5s-7.5 3.357-7.5 7.5v143.45h-25.934v-290.038h25.934v111.587c.001 4.143 3.358 7.501 7.501 7.501zm-7.5-184.357v17.936h-25.934v-24.939c8.255 3.801 16.825 6.436 25.934 7.003zm1.992 370.307 14.527 46.303h-58.973l14.527-46.303zm-27.926-320.038v-17.333h25.934v17.333z"/></g></svg>