<svg id="Capa_1" enable-background="new 0 0 511.985 511.985" height="512" viewBox="0 0 511.985 511.985" width="512" xmlns="http://www.w3.org/2000/svg"><g><g><path d="m312.292 407.09-.02.41c-1.47 27.73-11.137 54.26-32.727 71.84l-18.266 14.086c-3.17 2.59-7.73 2.59-10.9 0l-17.983-12.554c-25.98-22.15-32.684-44.962-32.684-73.372l-.02-.41c2.669 2.669 12.628-4.9 13.258-9.87l.172-36.5h85.74l-2.576 9.335 4.838 8.515 2.269 17.91c.63 4.97 4.11 9.11 8.899 10.61z" fill="#f2d1a5"/><path d="m408.312 504.5h-296.54l-4.973-3.18c-4.35 0-7.64-3.92-6.89-8.21l4.018-24.275c3.28-18.74 16.77-34.14 35-39.97l60.764-21.775.02.41c0 28.41 10.22 48.99 36.2 71.14l14.63 11.91c3.17 2.59 7.73 2.59 10.9 0l14.63-11.91c21.59-17.58 34.73-43.41 36.2-71.14l.02-.41 62.73 19.64c18.23 5.83 31.72 21.23 35 39.97l5.18 29.59c.752 4.29-2.539 8.21-6.889 8.21z" fill="#f8f7f7"/><path d="m200.962 423.46-59.13 18.51c-12.61 4.03-21.85 14.57-24.11 27.49l-5.95 35.04h-8.1c-4.35 0-7.64-3.92-6.89-8.21l5.18-29.59c3.28-18.74 16.77-34.14 35-39.97l62.73-19.64 3.649 6.534z" fill="#e8e8e8"/><path d="m130.652 225.978c-10.449 0-18.919 8.47-18.919 18.919 0 25.6 20.753 46.352 46.352 46.352h195.815c25.6 0 46.352-20.753 46.352-46.352 0-10.449-8.47-18.919-18.919-18.919z" fill="#f2bb88"/><path d="m324.642 72.374c.871-5.161 2.921-14.555 2.921-14.555-3.081-40.517-51.476-56.475-90.611-48.203 0 0-8.56 2.999-12.728 4.588-24.163 9.212-38.694 28.373-32.973 58.943l.585 3.459 133.927 1.651z" fill="#b57f5f"/><path d="m327.564 57.812c-20.94-10.52-44.92-16.109-70.09-16.109l-.75-.01c-14.689 0-28.911 1.935-42.356 5.663-3.893 1.079-7.44-2.627-6.098-6.437 5.007-14.209 15.546-24.659 28.683-31.309-25.924 5.48-47.782 21.593-49.721 48.233 0 .005.001.01.001.015-.348 4.756-.058 9.851.961 15.285l.59 3.46 18.16.22v-.001l118.82 1.431 1.05-5.89c.87-5.16 1.1-10.011.75-14.551z" fill="#9f6e50"/><path d="m157.873 256.862c-16.289-22.06-26.202-49.493-26.202-79.215-.353-52.058 26.809-93.121 71.694-111.425 2.271-.926 6.886-2.885 6.886-2.885 14.605-5.034 30.509-7.708 47.161-7.632 71.571 0 129.597 49.065 129.597 121.942 0 31.766-9.851 60.911-28.212 83.68z" fill="#c38c66"/><path d="m142.812 176.68c0 30.01 7.75 57.8 22.88 80.47l-13.24-.29c-16.29-22.06-24.64-49.49-24.64-79.21-.37-54.72 33.893-97.609 82.513-114.339-40.51 20.74-67.843 62.099-67.513 113.369z" fill="#b57f5f"/><path d="m298.862 360.72h-85.74l-4.53 35.76c-.63 4.97-4.11 9.11-8.9 10.61l.02.41c0 5.6.4 10.9 1.25 15.96l3.51-1.1c10.73-3.36 18.58-12.73 19.99-23.87l.839-6.843c.321-2.621 3.052-4.212 5.494-3.207 9.922 4.08 18.685 6.31 24.757 6.31h.88c13.24 0 29.3-6.61 44.69-16.18z" fill="#f2bb88"/><path d="m359.007 259.385c2.884-36.065-5.741-72.124-24.395-103.125-5.678-9.436-15.885-15.207-26.897-15.207h-103.445c-11.012 0-21.22 5.771-26.897 15.207l-.308.512c-18.646 30.989-27.341 67.032-24.395 103.078.175 2.145 3.732 23.141 6.352 30.454 3.595 10.765 8.022 20.934 13.177 30.271 19.231 34.859 68.686 58.177 83.349 58.177.151 0 .151-.019.889 0 25.106 0 71.064-35.942 83.349-58.177 6.886-12.463 9.583-19.506 13.177-30.271 2.11-5.884 5.712-26.772 6.044-30.919z" fill="#f2d1a5"/><g><path d="m227.82 315.654h56.345c1.625 0 2.861 1.357 2.803 2.891 0 0-.325.58-.391.808-2.199 7.546-11.743 23.203-30.585 23.203s-28.451-15.776-30.65-23.323c-.066-.228-.325-.688-.325-.688-.058-1.534 1.178-2.891 2.803-2.891z" fill="#f8f7f7"/><path d="m286.968 318.545c0 .22-.041.456-.108.684-2.204 7.54-12.023 24.426-30.868 24.426s-28.664-16.886-30.868-24.426c-.068-.228-.108-.464-.108-.684 6.273 6.754 16.471 13.289 30.976 13.289s24.703-6.535 30.976-13.289z" fill="#e8e8e8"/></g></g><g><path d="m299.034 226.992c-4.142 0-7.5 3.357-7.5 7.5v14.189c0 4.143 3.358 7.5 7.5 7.5s7.5-3.357 7.5-7.5v-14.189c0-4.143-3.358-7.5-7.5-7.5z"/><path d="m220.451 234.492c0-4.143-3.358-7.5-7.5-7.5s-7.5 3.357-7.5 7.5v14.189c0 4.143 3.358 7.5 7.5 7.5s7.5-3.357 7.5-7.5z"/><path d="m236.545 273.656c-1.88 3.691-.413 8.207 3.278 10.088 5.21 2.654 10.926 3.982 16.642 3.982s11.432-1.328 16.643-3.982c3.691-1.881 5.158-6.396 3.278-10.088-1.88-3.69-6.399-5.159-10.087-3.277-6.157 3.137-13.508 3.137-19.666 0-3.691-1.88-8.207-.413-10.088 3.277z"/><path d="m228.088 213.503c3.854 1.521 8.209-.375 9.727-4.229s-.375-8.209-4.229-9.727c-14.192-5.592-30.124-4.072-42.615 4.065-3.471 2.261-4.452 6.907-2.191 10.378 1.438 2.207 3.84 3.407 6.292 3.407 1.403 0 2.823-.394 4.086-1.217 8.432-5.491 19.247-6.491 28.93-2.677z"/><path d="m283.897 213.503c9.685-3.812 20.499-2.812 28.93 2.679 1.264.823 2.683 1.217 4.086 1.217 2.451 0 4.854-1.2 6.292-3.407 2.26-3.471 1.279-8.117-2.191-10.378-12.493-8.138-28.423-9.659-42.615-4.065-3.854 1.518-5.747 5.873-4.229 9.727 1.518 3.852 5.873 5.745 9.727 4.227z"/><path d="m291.384 312.711c-1.918-2.557-4.972-4.083-8.169-4.083h-54.445c-3.197 0-6.251 1.526-8.169 4.083-1.915 2.552-2.525 5.902-1.633 8.966 3.398 11.658 16.062 29.004 37.024 29.004s33.626-17.346 37.024-29.005c.893-3.063.282-6.414-1.632-8.965zm-35.392 22.969c-9.816 0-16.245-6.5-19.718-12.053h39.436c-3.473 5.554-9.901 12.053-19.718 12.053z"/><path d="m124.554 423.892c-15.94 8.613-26.868 23.745-29.981 41.518l-6.617 37.797c-.714 4.08 2.014 7.966 6.094 8.681 3.176.565 7.386-1.365 8.681-6.095l6.617-37.796c2.316-13.224 10.458-24.489 22.336-30.907 3.644-1.97 5.002-6.52 3.033-10.164-1.967-3.644-6.517-5.002-10.163-3.034z"/><path d="m424.029 503.207-6.617-37.798c-3.777-21.563-19.144-39.122-40.147-45.838l-62.733-19.638c-1.988-.621-3.44-2.348-3.7-4.396l-3.96-31.243c17.46-12.651 32.975-28.324 39.478-40.093 5.685-10.289 8.661-17.069 11.702-25.627 27.759-2.129 49.699-25.381 49.699-53.677 0-11.904-7.916-21.991-18.759-25.282 3.645-13.128 5.515-27.204 5.515-41.968 0-35.406-13.417-67.859-37.781-91.38-6.638-6.409-13.992-12.079-21.924-16.957 2.53-23.206-6.773-42.818-26.5-55.556-13.95-9.008-32.306-13.884-51.594-13.751-19.335.141-37.552 5.298-51.292 14.522-19.006 12.759-27.892 31.981-25.398 54.544-11.251 6.783-21.398 15.068-30.013 24.635-20.947 23.264-31.906 52.309-31.691 83.943 0 14.3 2.116 28.255 6.19 41.561-11.611 2.779-20.272 13.239-20.272 25.689 0 28.316 21.971 51.58 49.758 53.681 3.326 9.021 7.224 17.62 11.641 25.619 9.062 16.426 24.018 30.246 39.41 40.649l-3.89 30.691c-.26 2.049-1.712 3.774-3.701 4.397l-38.612 12.087c-3.953 1.237-6.154 5.444-4.917 9.397 1.004 3.208 3.963 5.262 7.156 5.262.742 0 1.497-.111 2.243-.345l29.292-9.169c2.199 26.167 13.797 46.176 38.429 67.179.063.06 14.344 11.678 14.765 12.023 2.952 2.403 6.568 3.605 10.187 3.605 3.617 0 7.234-1.202 10.185-3.604 8.82-7.278 20.579-16.003 28.271-25.218 2.693-3.146 2.326-7.881-.821-10.574-3.146-2.695-7.881-2.326-10.575.82-5.443 6.924-19.382 17.615-26.347 23.34-.414.335-1.015.336-1.428-.001l-14.568-11.86c-22.823-19.479-32.451-36.958-33.41-61.231 4.736-3.23 7.993-8.379 8.734-14.222l3.047-24.041c32.191 17.183 44.525 16.553 73.834.077l3.037 23.964c.727 5.737 3.885 10.8 8.482 14.039-.771 7.626-2.493 15.119-5.158 22.326-1.437 3.885.548 8.199 4.433 9.636.858.317 1.736.468 2.601.468 3.049 0 5.916-1.873 7.035-4.9 2.635-7.124 4.473-14.488 5.524-21.984l53.872 16.864c15.629 4.998 27.085 18.073 29.896 34.124l6.617 37.797c.481 2.842 4.1 6.872 8.681 6.095 4.08-.715 6.808-4.601 6.094-8.681zm-31.277-258.31c0 18.431-12.904 33.894-30.149 37.857 1.211-5.723 2.371-12.304 3.107-17.038 7.65-9.552 13.837-20.244 18.485-31.86 4.913 1.275 8.557 5.735 8.557 11.041zm-273.519 0c0-5.995 4.645-10.914 10.524-11.374 4.093 9.494 9.253 18.56 15.45 27.063.208 2.138 1.998 13.002 4.041 22.137-17.178-4.012-30.015-19.442-30.015-37.826zm136.199 126.353c-7.666 0-25.958-8.173-40.208-17.726-14.158-9.32-28.343-21.863-36.459-36.575-8.858-14.036-17.361-42.914-18.62-57.71-2.815-34.443 5.258-68.539 23.346-98.6 3.566-6.505 12.226-12.156 20.78-12.087h103.444c8.331 0 16.175 4.435 20.471 11.573 2.246 3.732 4.369 7.596 6.311 11.481 1.852 3.705 6.355 5.209 10.062 3.356 3.705-1.852 5.208-6.356 3.356-10.062-2.117-4.236-4.431-8.444-6.876-12.509-6.992-11.622-19.761-18.841-33.323-18.841h-103.446c-13.015-.15-26.86 7.607-33.631 19.352-14.593 24.253-23.198 50.928-25.443 78.395-7.815-16.613-11.881-34.815-11.881-53.703-.997-56.544 43.297-102.646 98.172-112.122 4.075-.745 6.773-4.653 6.027-8.728s-4.652-6.772-8.728-6.026c-11.936 2.185-23.422 5.813-34.18 10.693.14-17.616 10.059-28.317 19.172-34.436 23.616-15.854 62.37-16.133 86.389-.624 9.468 6.114 19.857 16.973 20.034 35.175-16.711-7.654-35.32-12.173-54.836-13.13-4.126-.188-7.655 2.987-7.858 7.124s2.987 7.655 7.124 7.858c66.564 3.264 114.877 51.319 114.877 114.266 0 21.519-4.358 41.325-12.718 58.432-.671-12.487-2.645-24.897-5.925-37.098-1.075-4-5.191-6.367-9.19-5.296-4 1.075-6.371 5.19-5.295 9.19 4.921 18.305 6.654 37.116 5.151 55.911-2.083 18.764-7.659 40.083-18.309 58.16-6.14 11.113-21.395 25.716-37.537 36.979-12.693 8.955-31.755 17.328-40.253 17.328z"/><path d="m358.019 488.426h-54.242c-4.142 0-7.5 3.357-7.5 7.5s3.358 7.5 7.5 7.5h54.242c4.142 0 7.5-3.357 7.5-7.5s-3.358-7.5-7.5-7.5z"/></g></g></svg>