<svg id="Capa_1" enable-background="new 0 0 512.001 512.001" height="512" viewBox="0 0 512.001 512.001" width="512" xmlns="http://www.w3.org/2000/svg"><g><g><path d="m107.722 174.562c-7.469-48.805 3.404-71.365 15.477-82.885 31.759-30.305 91.015-2.527 117.194-34.68 10.378-12.746 11.387-29.787 9.987-43.814-.332-3.326 2.511-6.096 5.821-5.63 23.368 3.291 96.303 18.541 132.019 84.102 17.926 32.905 19.156 65.047 18.319 82.908h-298.817z" fill="#eaf6ff"/><path d="m388.221 91.654c-35.716-65.56-108.651-80.81-132.019-84.101-3.085-.434-5.761 1.942-5.843 4.959 32.042 8.537 80.707 29.297 107.862 79.142 17.926 32.905 19.156 65.047 18.319 82.908h30c.837-17.861-.393-50.002-18.319-82.908z" fill="#d8ecfe"/><g><path d="m417.501 171.501h-323c-6.627 0-12 5.373-12 12v48h347v-48c0-6.627-5.373-12-12-12z" fill="#f6c2e0"/><path d="m429.501 504.501h-347c-16.569 0-30-13.431-30-30v-246c0-6.627 5.373-12 12-12h383c6.627 0 12 5.373 12 12v246c0 16.569-13.432 30-30 30z" fill="#f6a7d2"/><path d="m447.501 216.501h-30c6.627 0 12 5.373 12 12v246c0 16.569-13.431 30-30 30h30c16.569 0 30-13.431 30-30v-246c0-6.627-5.373-12-12-12z" fill="#f28cc4"/><path d="m303.743 446.96h-95.485c-47.75 0-86.458-38.709-86.458-86.458 0-47.75 38.709-86.458 86.458-86.458h95.485c47.75 0 86.458 38.709 86.458 86.458 0 47.749-38.708 86.458-86.458 86.458z" fill="#fff"/><path d="m417.501 171.501h-30c6.627 0 12 5.373 12 12v48h30v-48c0-6.627-5.373-12-12-12z" fill="#f6a7d2"/></g></g><path d="m459.501 386.94c4.142 0 7.5-3.357 7.5-7.5v-150.939c0-10.752-8.748-19.5-19.5-19.5h-10.5v-25.5c0-10.752-8.748-19.5-19.5-19.5h-3.305c-.386-27.124-7.019-53.234-19.389-75.938-16.071-29.497-40.953-52.564-73.956-68.562-26.363-12.78-51.166-17.626-63.618-19.379-3.863-.536-7.685.704-10.492 3.402-2.817 2.708-4.211 6.498-3.824 10.4 1.657 16.606-1.15 29.506-8.343 38.341-11.175 13.723-31.059 14.496-52.11 15.315-21.928.853-46.782 1.82-64.444 18.676-16.448 15.71-22.893 41.844-19.212 77.744h-4.308c-10.752 0-19.5 8.748-19.5 19.5v25.5h-10.5c-10.752 0-19.5 8.748-19.5 19.5v246c0 20.678 16.822 37.5 37.5 37.5h347c20.678 0 37.5-16.822 37.5-37.5v-60.06c0-4.143-3.358-7.5-7.5-7.5s-7.5 3.357-7.5 7.5v60.062c0 12.406-10.093 22.5-22.5 22.5h-347c-12.407 0-22.5-10.094-22.5-22.5v-246c0-2.481 2.019-4.5 4.5-4.5h383c2.481 0 4.5 2.019 4.5 4.5v150.938c.001 4.142 3.359 7.5 7.501 7.5zm-37.5-177.939h-332v-25.5c0-2.481 2.019-4.5 4.5-4.5h12.739c.007 0 .014.001.021.001.005 0 .009-.001.014-.001h61.657c4.142 0 7.5-3.357 7.5-7.5s-3.358-7.5-7.5-7.5h-55.048c-3.533-31.837 1.334-54.325 14.494-66.895 13.556-12.938 33.526-13.714 54.669-14.537 23.454-.912 47.706-1.855 63.159-20.833 9.312-11.438 13.308-27.01 11.895-46.315 24.068 3.839 90.789 19.719 123.534 79.819 13.631 25.019 17.275 50.151 17.576 68.762h-195.279c-4.142 0-7.5 3.357-7.5 7.5s3.358 7.5 7.5 7.5h213.568c2.481 0 4.5 2.019 4.5 4.5v25.499zm-213.743 57.542c-51.809 0-93.958 42.149-93.958 93.958s42.149 93.958 93.958 93.958h95.485c51.809 0 93.958-42.149 93.958-93.958s-42.149-93.958-93.958-93.958zm174.443 93.958c0 43.537-35.42 78.958-78.958 78.958h-95.485c-43.538 0-78.958-35.421-78.958-78.958s35.42-78.958 78.958-78.958h95.485c43.538 0 78.958 35.421 78.958 78.958z"/></g></svg>