<svg id="Layer_1" enable-background="new 0 0 512 512" height="512" viewBox="0 0 512 512" width="512" xmlns="http://www.w3.org/2000/svg"><g><path clip-rule="evenodd" d="m452.495 314.263c0 29.449-4.316 55.851-13.075 79.08-8.632 23.356-21.325 43.031-38.208 59.152-16.882 16.121-37.699 28.434-62.452 36.811-24.878 8.505-53.311 12.694-85.553 12.694-30.21 0-57.375-3.808-81.365-11.297-24.118-7.616-44.427-19.04-61.056-34.4-16.629-15.359-29.322-34.526-38.081-57.502-8.758-22.975-13.201-49.758-13.201-80.477v-292.711c0-2.412.762-4.696 2.285-6.728 1.396-1.904 4.062-3.554 7.87-4.824 3.808-1.269 8.885-2.158 15.105-2.919 6.093-.761 14.09-1.142 23.737-1.142 9.266 0 17.136.381 23.229 1.142 6.22.762 11.17 1.65 14.852 2.919 3.681 1.269 6.346 2.92 7.997 4.824 1.65 2.031 2.412 4.316 2.412 6.728v284.334c0 19.167 2.412 35.669 7.108 49.759 4.697 13.963 11.424 25.641 20.31 34.78 8.758 9.139 19.294 16.121 31.607 20.69 12.313 4.57 26.022 6.855 41.127 6.855 15.359 0 29.195-2.412 41.254-7.108 12.186-4.697 22.468-11.552 30.972-20.564 8.378-9.139 14.978-20.31 19.548-33.511 4.569-13.328 6.854-28.433 6.854-45.316v-289.919c0-2.412.762-4.696 2.285-6.728 1.397-1.904 4.062-3.554 7.743-4.824 3.681-1.269 8.759-2.158 15.105-2.919s14.217-1.142 23.61-1.142 17.136.381 23.229 1.142c6.093.762 11.043 1.65 14.724 2.919s6.347 2.92 7.743 4.824c1.523 2.031 2.285 4.316 2.285 6.728z" fill="#cbe558" fill-rule="evenodd"/><g><path d="m458.24 12.926c-2.632-3.564-6.842-6.363-12.512-8.317-4.074-1.405-9.238-2.45-16.745-3.389-6.474-.81-14.707-1.22-24.469-1.22-9.746 0-18.09.408-24.802 1.214-7.777.933-13.074 1.98-17.173 3.394-5.674 1.956-9.884 4.755-12.516 8.321-2.782 3.728-4.252 8.113-4.252 12.685v289.919c0 15.696-2.125 29.852-6.304 42.044-4.039 11.667-9.9 21.751-17.421 29.972-7.549 7.984-16.462 13.886-27.278 18.056-10.949 4.264-23.608 6.426-37.625 6.426-13.844 0-26.51-2.096-37.648-6.23-10.702-3.971-20.077-10.106-27.916-18.286-7.715-7.936-13.77-18.36-17.997-30.985-4.373-13.058-6.59-28.73-6.591-46.583l-.004-97.167c0-5.523-4.478-10-10-10-5.523 0-10 4.478-10 10l.004 97.167c.001 20.016 2.567 37.825 7.626 52.933 5.187 15.493 12.798 28.472 22.572 38.524 9.897 10.328 21.79 18.115 35.348 23.146 13.372 4.963 28.379 7.479 44.606 7.479 16.51 0 31.61-2.621 44.85-7.777 13.469-5.192 25.127-12.941 34.649-23.032.033-.035.066-.07.099-.106 9.403-10.258 16.679-22.705 21.636-37.025 4.907-14.313 7.395-30.65 7.395-48.559v-289.917c0-.135 0-.316.221-.638.225-.176 1.076-.773 3.068-1.459 2.632-.908 6.896-1.708 13.036-2.444 5.922-.712 13.464-1.072 22.417-1.072 8.936 0 16.333.358 21.988 1.065 5.911.739 10.067 1.541 12.706 2.451 1.991.687 2.842 1.283 3.067 1.459.221.323.221.503.221.638v288.65c0 28.254-4.183 53.674-12.455 75.614-8.058 21.803-20.08 40.438-35.734 55.386-15.808 15.095-35.575 26.727-58.78 34.581-23.597 8.066-51.293 12.156-82.32 12.156-28.965 0-55.337-3.648-78.354-10.833-22.596-7.135-41.868-17.972-57.282-32.209-15.407-14.23-27.358-32.304-35.521-53.717-8.324-21.836-12.545-47.714-12.545-76.915v-292.713c0-.134 0-.313.215-.63.233-.178 1.094-.765 3.103-1.434 2.81-.937 6.991-1.725 13.183-2.483 5.653-.708 13.222-1.066 22.495-1.066 8.936 0 16.334.358 22.013 1.068 6.042.74 10.111 1.518 12.808 2.448 2.354.811 3.329 1.576 3.609 1.83.059.097.059.155.059.267v97.167c0 5.523 4.477 10 10 10s10-4.477 10-10v-97.167c0-4.782-1.608-9.289-4.65-13.033-.067-.083-.135-.164-.204-.244-2.862-3.302-6.999-5.903-12.294-7.728-4.112-1.418-9.323-2.464-16.871-3.389-6.475-.809-14.707-1.219-24.47-1.219-10.1 0-18.503.41-24.953 1.217-7.628.934-12.888 1.97-17.051 3.358-5.782 1.927-10.066 4.735-12.736 8.348-2.785 3.729-4.257 8.117-4.257 12.691v292.711c0 31.645 4.662 59.919 13.856 84.039 9.273 24.323 22.946 44.942 40.64 61.285 17.593 16.251 39.405 28.561 64.861 36.6 24.98 7.798 53.358 11.751 84.346 11.751 33.232 0 63.105-4.452 88.76-13.222 25.961-8.787 48.218-21.925 66.152-39.05 17.873-17.068 31.56-38.236 40.658-62.857 9.103-24.142 13.718-51.935 13.718-82.608v-288.65c0-4.572-1.471-8.959-4.255-12.687z"/><path d="m156.99 157.78h-.007c-5.523 0-9.996 4.477-9.996 10s4.48 10 10.003 10 10-4.477 10-10-4.477-10-10-10z"/></g></g></svg>