<svg id="Capa_1" enable-background="new 0 0 512.006 512.006" height="512" viewBox="0 0 512.006 512.006" width="512" xmlns="http://www.w3.org/2000/svg"><g><g><path d="m266.276 361.127-144.58-216.504c-5.729-9.291-15.865-14.948-26.78-14.948l-32.676 15c-4.841 13.596-7.51 29.342-7.51 47.506 0 12.448-1.516 24.076-10.394 32.673-25.783 24.965-37.108 30.253-36.83 41.188.282 11.138 10.146 17.27 22.555 26.553 2.528 34.95 8.919 72.847 19.282 93.109 24.953 9.16 64.92 15.891 93.196 15.891 0 30.813.157 50.368.309 62.105l129.093-20.378z" fill="#b46e5a"/><path d="m281.551 362.723c-2.468 8.651-3.911 17.94-3.911 28.188v58.562l-134.506 29.449s-.141-4.102-.285-15.222l117.04-25.625c1.606-.352 2.751-1.774 2.751-3.419v-43.745c0-10.989 1.338-20.797 3.637-29.784l15.272 1.596zm-154.012 25.872c-2.022.25-53.242 6.269-78.196-2.891 3.464 6.772 7.371 11.575 11.726 13.638 23.956 11.352 81.47 2.253 81.47 2.253-.043-8.77-7.555-13.919-15-13z" fill="#915041"/><path d="m119.696 152.624 101.831 165.131c12.578 20.396 29.842 37.185 54.37 37.185 18.616-46.822 64.244-80.981 64.244-152.32 0-46.14-28.095-87.154-33.161-92.521-25.689-24.885-62.385-40.811-107.204-40.811-54.838 0-106.713 15.854-130.866 60.388l24.005 8c10.916-.001 21.052 5.657 26.781 14.948z" fill="#ffe07d"/><path d="m306.981 110.099c5.065 5.367 26.161 46.381 26.161 92.521 0 65.467-36.74 92.885-57.176 133.14-3.605 7.101-12.146 10.263-19.404 6.984-13.522-6.108-23.532-17.581-33.034-32.989l-101.832-165.131c-5.729-9.291-15.865-14.948-26.78-14.948h-26.005c-2.538 4.68-4.774 9.672-6.671 15h28.676c10.915 0 21.051 5.657 26.78 14.948l104.98 170.238c12.595 20.424 34.876 32.861 58.872 32.861h.002c14.801-51.894 66.591-80.767 66.591-155.103 0-36.944-14.773-71.959-41.16-97.521z" fill="#ffc250"/><path d="m271.941 297.723c0-1.791-1.557-5.745-4.906-9.094-1.593-.576-3.303-.906-5.094-.906-8.284 0-15 6.716-15 15 0 1.791.33 3.501.906 5.094 3.284 3.284 7.303 4.906 9.094 4.906 8.284 0 15-6.715 15-15z" fill="#eef9fa"/><path d="m267.035 288.629c.576 1.593.906 3.303.906 5.094 0 8.284-6.716 15-15 15-1.791 0-3.501-.33-5.094-.906 2.088 5.773 7.601 9.906 14.094 9.906 8.284 0 15-6.716 15-15 0-6.493-4.133-12.006-9.906-14.094z" fill="#dcf2f6"/><path d="m234.941 237.723c0-1.791-1.557-5.745-4.906-9.094-1.593-.576-3.303-.906-5.094-.906-8.284 0-15 6.716-15 15 0 1.791.33 3.501.906 5.094 3.284 3.284 7.303 4.906 9.094 4.906 8.284 0 15-6.715 15-15z" fill="#eef9fa"/><path d="m230.035 228.629c.576 1.593.906 3.303.906 5.094 0 8.284-6.716 15-15 15-1.791 0-3.501-.33-5.094-.906 2.088 5.773 7.601 9.906 14.094 9.906 8.284 0 15-6.716 15-15 0-6.493-4.133-12.006-9.906-14.094z" fill="#dcf2f6"/><path d="m308.941 237.723c0-1.791-1.557-5.745-4.906-9.094-1.593-.576-3.303-.906-5.094-.906-8.284 0-15 6.716-15 15 0 1.791.33 3.501.906 5.094 3.284 3.284 7.303 4.906 9.094 4.906 8.284 0 15-6.715 15-15z" fill="#eef9fa"/><path d="m304.035 228.629c.576 1.593.906 3.303.906 5.094 0 8.284-6.716 15-15 15-1.791 0-3.501-.33-5.094-.906 2.088 5.773 7.601 9.906 14.094 9.906 8.284 0 15-6.716 15-15 0-6.493-4.133-12.006-9.906-14.094z" fill="#dcf2f6"/><path d="m197.941 177.723c0-1.791-1.557-5.745-4.906-9.094-1.593-.576-3.303-.906-5.094-.906-8.284 0-15 6.716-15 15 0 1.791.33 3.501.906 5.094 3.284 3.284 7.303 4.906 9.094 4.906 8.284 0 15-6.715 15-15z" fill="#eef9fa"/><path d="m193.035 168.629c.576 1.593.906 3.303.906 5.094 0 8.284-6.716 15-15 15-1.791 0-3.501-.33-5.094-.906 2.088 5.773 7.601 9.906 14.094 9.906 8.284 0 15-6.716 15-15 0-6.493-4.133-12.006-9.906-14.094z" fill="#dcf2f6"/><path d="m271.941 177.723c0-1.791-1.557-5.745-4.906-9.094-1.593-.576-3.303-.906-5.094-.906-8.284 0-15 6.716-15 15 0 1.791.33 3.501.906 5.094 3.284 3.284 7.303 4.906 9.094 4.906 8.284 0 15-6.715 15-15z" fill="#eef9fa"/><path d="m267.035 168.629c.576 1.593.906 3.303.906 5.094 0 8.284-6.716 15-15 15-1.791 0-3.501-.33-5.094-.906 2.088 5.773 7.601 9.906 14.094 9.906 8.284 0 15-6.716 15-15 0-6.493-4.133-12.006-9.906-14.094z" fill="#dcf2f6"/><path d="m345.941 177.723c0-1.791-1.557-5.745-4.906-9.094-1.593-.576-3.303-.906-5.094-.906-8.284 0-15 6.716-15 15 0 1.791.33 3.501.906 5.094 3.284 3.284 7.303 4.906 9.094 4.906 8.284 0 15-6.715 15-15z" fill="#eef9fa"/><path d="m341.035 168.629c.576 1.593.906 3.303.906 5.094 0 8.284-6.716 15-15 15-1.791 0-3.501-.33-5.094-.906 2.088 5.773 7.601 9.906 14.094 9.906 8.284 0 15-6.716 15-15 0-6.493-4.133-12.006-9.906-14.094z" fill="#dcf2f6"/><path d="m160.941 117.723c0-1.791-1.557-5.745-4.906-9.094-1.593-.576-3.303-.906-5.094-.906-8.284 0-15 6.716-15 15 0 1.791.33 3.501.906 5.094 3.284 3.284 7.303 4.906 9.094 4.906 8.284 0 15-6.715 15-15z" fill="#eef9fa"/><path d="m156.035 108.629c.576 1.593.906 3.303.906 5.094 0 8.284-6.716 15-15 15-1.791 0-3.501-.33-5.094-.906 2.088 5.773 7.601 9.906 14.094 9.906 8.284 0 15-6.716 15-15 0-6.493-4.133-12.006-9.906-14.094z" fill="#dcf2f6"/><path d="m234.941 117.723c0-1.791-1.557-5.745-4.906-9.094-1.593-.576-3.303-.906-5.094-.906-8.284 0-15 6.716-15 15 0 1.791.33 3.501.906 5.094 3.284 3.284 7.303 4.906 9.094 4.906 8.284 0 15-6.715 15-15z" fill="#eef9fa"/><path d="m230.035 108.629c.576 1.593.906 3.303.906 5.094 0 8.284-6.716 15-15 15-1.791 0-3.501-.33-5.094-.906 2.088 5.773 7.601 9.906 14.094 9.906 8.284 0 15-6.716 15-15 0-6.493-4.133-12.006-9.906-14.094z" fill="#dcf2f6"/><path d="m308.941 117.723c0-1.791-1.557-5.745-4.906-9.094-1.593-.576-3.303-.906-5.094-.906-8.284 0-15 6.716-15 15 0 1.791.33 3.501.906 5.094 3.284 3.284 7.303 4.906 9.094 4.906 8.284 0 15-6.715 15-15z" fill="#eef9fa"/><path d="m304.035 108.629c.576 1.593.906 3.303.906 5.094 0 8.284-6.716 15-15 15-1.791 0-3.501-.33-5.094-.906 2.088 5.773 7.601 9.906 14.094 9.906 8.284 0 15-6.716 15-15 0-6.493-4.133-12.006-9.906-14.094z" fill="#dcf2f6"/></g><g><path d="m143.133 486.422c-1.651 0-3.273-.545-4.601-1.577-1.758-1.366-2.818-3.441-2.895-5.666-.023-.677-.543-16.438-.595-69-17.548 2.114-57.084 5.466-77.186-4.059-24.407-11.564-32.518-77.909-35.017-109.545-.236-.174-.47-.347-.704-.52-11.201-8.27-21.781-16.081-22.129-29.824-.283-11.142 6.92-17.545 19.995-29.169 5.128-4.559 11.51-10.232 19.116-17.597 6.731-6.518 8.111-15.622 8.111-27.285 0-.17 0-.336 0-.506-2.434-.375-4.632-1.94-5.711-4.356-1.688-3.782.009-8.217 3.791-9.906.854-.382 1.723-.744 2.6-1.086 3.479-39.337 20.293-69.191 50.115-88.889 3.458-2.283 8.109-1.332 10.392 2.124 2.283 3.457 1.332 8.109-2.124 10.392-14.484 9.567-25.431 22.009-32.791 37.222h17.413c13.618 0 26.016 6.92 33.165 18.512l67.917 110.136c2.174 3.525 1.079 8.146-2.447 10.32-3.527 2.174-8.147 1.077-10.32-2.447l-67.915-110.136c-4.396-7.129-12.021-11.385-20.397-11.385h-23.24c-1.926 6.363-3.343 13.112-4.248 20.243 13.556-1.74 27.59.489 37.935 6.574 3.57 2.1 4.762 6.697 2.662 10.267-2.099 3.571-6.696 4.762-10.267 2.662-7.274-4.28-19.341-6.491-31.471-4.19-.038 1.47-.057 2.952-.057 4.45 0 12.751-1.506 27.245-12.676 38.061-7.836 7.587-14.35 13.378-19.584 18.032-11.199 9.957-15.067 13.602-14.966 17.579.155 6.126 5.608 10.432 16.043 18.136 1.142.843 2.312 1.708 3.507 2.601 1.741 1.303 2.831 3.296 2.988 5.465.587 8.121 1.325 15.807 2.185 23.033h23.426c4.142 0 7.5 3.358 7.5 7.5s-3.358 7.5-7.5 7.5h-21.371c5.768 36.878 14.831 58.846 22.498 62.479 17.909 8.486 61.718 4.048 77.088 1.622 2.164-.341 4.374.281 6.042 1.707 1.667 1.425 2.628 3.508 2.628 5.702 0 36.761.226 57.549.398 68.05l35.9-7.86c4.041-.881 8.045 1.676 8.931 5.723s-1.676 8.044-5.723 8.931l-44.808 9.811c-.531.112-1.068.169-1.603.169zm75.406-16.51c-3.447 0-6.552-2.392-7.319-5.897-.886-4.046 1.676-8.044 5.723-8.931l53.197-11.647v-52.526c0-7.51.733-14.551 2.045-21.216-24.126-2.782-43.955-16.54-59.041-41.003l-18.138-29.412c-2.174-3.525-1.079-8.146 2.447-10.32 3.525-2.174 8.147-1.079 10.32 2.447l18.138 29.412c13.147 21.319 29.619 32.55 50.231 34.193 5.698-16.614 14.753-30.956 24.07-44.788h-17.057c-3.095 8.73-11.437 15-21.215 15-12.407 0-22.5-10.093-22.5-22.5s10.093-22.5 22.5-22.5c9.778 0 18.12 6.27 21.215 15h27.197c9.086-13.656 17.776-28.015 23.496-45h-13.693c-3.095 8.73-11.437 15-21.215 15s-18.12-6.27-21.215-15h-31.57c-3.095 8.73-11.437 15-21.215 15-12.407 0-22.5-10.093-22.5-22.5s10.093-22.5 22.5-22.5c9.778 0 18.12 6.27 21.215 15h31.57c3.096-8.73 11.437-15 21.215-15s18.12 6.27 21.215 15h17.756c.629-3.047 1.159-6.18 1.579-9.405.534-4.107 4.297-7.006 8.405-6.47 4.108.535 7.004 4.297 6.47 8.405-.331 2.545-.722 5.036-1.166 7.47h29.789l15.749-6.646c3.52-1.486 7.593-.087 9.46 3.245l13.069 23.337 5.866-15.145c1.119-2.888 3.897-4.791 6.994-4.791h8.862l15.749-6.646c3.519-1.486 7.593-.087 9.46 3.245l8.506 15.189.319-4.787c.263-3.939 3.535-7.001 7.483-7.001h20c4.142 0 7.5 3.358 7.5 7.5s-3.358 7.5-7.5 7.5h-12.983l-1.533 22.999c-.221 3.312-2.594 6.086-5.833 6.817-3.237.731-6.572-.754-8.195-3.651l-17.574-31.383-10.966 4.628c-.923.39-1.914.59-2.916.59h-5.242l-9.764 25.209c-1.049 2.708-3.568 4.568-6.465 4.772-2.894.196-5.653-1.282-7.072-3.817l-17.574-31.383-10.966 4.628c-.923.39-1.914.59-2.916.59h-34.886c-5.084 17.14-12.864 31.572-21.365 45h53.145l7.803-7.803c2.929-2.929 7.678-2.929 10.606 0l14.697 14.697 4.697-4.697c1.406-1.407 3.314-2.197 5.303-2.197h16.894l7.803-7.803c2.929-2.929 7.678-2.929 10.606 0l14.697 14.697 4.697-4.697c1.406-1.407 3.314-2.197 5.303-2.197h20c4.142 0 7.5 3.358 7.5 7.5s-3.358 7.5-7.5 7.5h-16.894l-7.803 7.803c-2.929 2.929-7.678 2.929-10.606 0l-14.697-14.697-4.697 4.697c-1.406 1.407-3.314 2.197-5.303 2.197h-16.894l-7.803 7.803c-2.929 2.929-7.678 2.929-10.606 0l-14.697-14.697-4.697 4.697c-1.406 1.407-3.314 2.197-5.303 2.197h-66.168c-.584.861-1.168 1.72-1.752 2.579-9.436 13.88-18.567 27.313-24.536 42.421h89.351l7.803-7.803c2.929-2.929 7.678-2.929 10.606 0l14.697 14.697 4.697-4.697c1.406-1.407 3.314-2.197 5.303-2.197h16.894l7.803-7.803c2.929-2.929 7.678-2.929 10.606 0l14.697 14.697 4.697-4.697c1.406-1.407 3.314-2.197 5.303-2.197h20c4.142 0 7.5 3.358 7.5 7.5s-3.358 7.5-7.5 7.5h-16.894l-7.803 7.803c-2.929 2.929-7.678 2.929-10.606 0l-14.697-14.697-4.697 4.697c-1.406 1.407-3.314 2.197-5.303 2.197h-16.894l-7.803 7.803c-2.929 2.929-7.678 2.929-10.606 0l-14.697-14.697-4.697 4.697c-1.406 1.407-3.314 2.197-5.303 2.197h-97.102c-1.451 6.484-2.265 13.335-2.265 20.688v58.562c0 3.524-2.454 6.573-5.896 7.327l-59.093 12.938c-.541.118-1.081.174-1.612.174zm43.402-174.689c-4.136 0-7.5 3.364-7.5 7.5s3.364 7.5 7.5 7.5 7.5-3.364 7.5-7.5-3.364-7.5-7.5-7.5zm37-60c-4.136 0-7.5 3.364-7.5 7.5s3.364 7.5 7.5 7.5 7.5-3.364 7.5-7.5-3.364-7.5-7.5-7.5zm-74 0c-4.136 0-7.5 3.364-7.5 7.5s3.364 7.5 7.5 7.5 7.5-3.364 7.5-7.5-3.364-7.5-7.5-7.5zm-138.371 15.617c-4.628 0-8.72-.771-11.374-2.505-3.467-2.266-4.441-6.914-2.175-10.381 2.214-3.388 6.705-4.396 10.144-2.324 3.891 1.335 18.348-1.691 21.376-4.478 2.319-3.277 6.835-4.157 10.223-1.942 3.467 2.266 4.44 6.914 2.174 10.381-4.279 6.546-18.949 11.249-30.368 11.249zm-3.174-15.066c.002.001.004.003.006.004-.002-.001-.004-.003-.006-.004zm20.99-4.396c-.001.002-.002.004-.003.005.001-.001.002-.003.003-.005zm370.12-21.155c-2.841 0-5.438-1.605-6.708-4.146l-13.292-26.583-3.292 6.583c-1.27 2.541-3.867 4.146-6.708 4.146h-15.365l-7.927 15.854c-1.27 2.541-3.867 4.146-6.708 4.146s-5.438-1.605-6.708-4.146l-13.292-26.583-3.292 6.583c-1.27 2.541-3.867 4.146-6.708 4.146h-27.35c-3.095 8.73-11.437 15-21.215 15s-18.12-6.27-21.215-15h-31.57c-3.095 8.73-11.437 15-21.215 15s-18.12-6.27-21.215-15h-31.57c-3.095 8.73-11.437 15-21.215 15-12.407 0-22.5-10.093-22.5-22.5s10.093-22.5 22.5-22.5c9.778 0 18.12 6.27 21.215 15h31.57c3.096-8.73 11.437-15 21.215-15s18.12 6.27 21.215 15h31.57c2.648-7.468 9.135-13.136 17.076-14.619-3.586-9.135-8.229-17.86-13.798-25.941-3.984 6.339-11.04 10.56-19.063 10.56-9.778 0-18.12-6.27-21.215-15h-31.57c-3.095 8.73-11.437 15-21.215 15s-18.12-6.27-21.215-15h-31.57c-3.095 8.73-11.437 15-21.215 15-12.407 0-22.5-10.093-22.5-22.5s10.093-22.5 22.5-22.5c9.778 0 18.12 6.27 21.215 15h31.57c3.096-8.73 11.437-15 21.215-15s18.12 6.27 21.215 15h31.57c1.761-4.966 5.218-9.135 9.673-11.808-24.13-17.479-54.058-26.628-87.623-26.628-25.631 0-48.398 3.51-67.67 10.434-3.9 1.402-8.194-.625-9.594-4.522-1.4-3.898.625-8.193 4.523-9.594 13.212-4.747 27.849-8.014 43.743-9.776 2.924-19.188 19.621-37.745 43.387-37.745 27.965 0 47.655 7.552 66.697 14.854 19.826 7.604 38.553 14.786 67.278 14.786h33.258l7.803-7.803c2.929-2.929 7.678-2.929 10.606 0l14.697 14.697 4.697-4.697c1.406-1.407 3.314-2.197 5.303-2.197h16.894l7.803-7.803c2.929-2.929 7.678-2.929 10.606 0l14.697 14.697 4.697-4.697c1.406-1.407 3.314-2.197 5.303-2.197h20c4.142 0 7.5 3.358 7.5 7.5s-3.358 7.5-7.5 7.5h-16.894l-7.803 7.803c-2.929 2.929-7.678 2.929-10.606 0l-14.695-14.697-4.697 4.697c-1.406 1.407-3.314 2.197-5.303 2.197h-16.894l-7.803 7.803c-2.929 2.929-7.678 2.929-10.606 0l-14.697-14.697-4.697 4.697c-1.406 1.407-3.314 2.197-5.303 2.197h-36.364c-31.503 0-52.421-8.022-72.649-15.78-18.585-7.127-36.139-13.86-61.326-13.86-14.022 0-24.538 10.294-27.791 21.519 4.385-.21 8.854-.315 13.402-.315 44.272 0 82.935 14.646 111.859 42.368 2.411 1.654 4.487 3.766 6.099 6.208 1.466 1.586 2.895 3.207 4.286 4.859h57.849l7.927-15.854c1.27-2.541 3.867-4.146 6.708-4.146s5.438 1.605 6.708 4.146l13.292 26.583 3.292-6.583c1.27-2.541 3.867-4.146 6.708-4.146h15.365l7.927-15.854c1.27-2.541 3.867-4.146 6.708-4.146s5.438 1.605 6.708 4.146l13.292 26.583 3.292-6.583c1.27-2.541 3.867-4.146 6.708-4.146h20c4.142 0 7.5 3.358 7.5 7.5s-3.358 7.5-7.5 7.5h-15.365l-7.927 15.854c-1.27 2.541-3.867 4.146-6.708 4.146s-5.438-1.605-6.708-4.146l-13.292-26.583-3.292 6.583c-1.27 2.541-3.867 4.146-6.708 4.146h-15.365l-7.927 15.854c-1.27 2.541-3.867 4.146-6.708 4.146s-5.438-1.605-6.708-4.146l-13.292-26.583-3.292 6.583c-1.27 2.541-3.867 4.146-6.708 4.146h-51.448c6.809 10.64 12.216 22.181 15.998 34.227 3.694 2.659 6.553 6.408 8.1 10.773h22.714l7.927-15.854c1.27-2.541 3.867-4.146 6.708-4.146s5.438 1.605 6.708 4.146l13.292 26.583 3.292-6.583c1.27-2.541 3.867-4.146 6.708-4.146h15.365l7.927-15.854c1.27-2.541 3.867-4.146 6.708-4.146s5.438 1.605 6.708 4.146l13.292 26.583 3.292-6.583c1.27-2.541 3.867-4.146 6.708-4.146h20c4.142 0 7.5 3.358 7.5 7.5s-3.358 7.5-7.5 7.5h-15.365l-7.927 15.854c-1.269 2.542-3.867 4.146-6.707 4.146zm-138.565-35c-4.136 0-7.5 3.364-7.5 7.5s3.364 7.5 7.5 7.5 7.5-3.364 7.5-7.5-3.364-7.5-7.5-7.5zm-74 0c-4.136 0-7.5 3.364-7.5 7.5s3.364 7.5 7.5 7.5 7.5-3.364 7.5-7.5-3.364-7.5-7.5-7.5zm-74 0c-4.136 0-7.5 3.364-7.5 7.5s3.364 7.5 7.5 7.5 7.5-3.364 7.5-7.5-3.364-7.5-7.5-7.5zm111-60c-4.136 0-7.5 3.364-7.5 7.5s3.364 7.5 7.5 7.5 7.5-3.364 7.5-7.5-3.364-7.5-7.5-7.5zm-74 0c-4.136 0-7.5 3.364-7.5 7.5s3.364 7.5 7.5 7.5 7.5-3.364 7.5-7.5-3.364-7.5-7.5-7.5zm-74 0c-4.136 0-7.5 3.364-7.5 7.5s3.364 7.5 7.5 7.5 7.5-3.364 7.5-7.5-3.364-7.5-7.5-7.5z"/></g></g></svg>