<svg id="Capa_1" enable-background="new 0 0 512 512" height="512" viewBox="0 0 512 512" width="512" xmlns="http://www.w3.org/2000/svg"><g><g><g><path d="m240.409 493.152c9.253 0 15.753-6.501 15.753-15.753v-160.248c0-77.18 63.79-141.97 140.97-141.97v-31.507c-95.655 0-173.477 77.821-173.477 173.477v160.248c0 5.505 2.655 10.39 6.755 13.444.64.477 1.316.91 2.023 1.293 2.371 1.286 5.088 1.016 7.976 1.016z" fill="#3c87d0"/><path d="m397.13 143.672v33.51c-77.18 0-139.97 62.79-139.97 139.97v160.25c0 9.25-7.5 16.75-16.75 16.75-2.9 0-5.62-.73-7.99-2.03 5.21-2.85 8.74-8.37 8.74-14.72v-160.25c0-77.18 62.79-139.97 139.97-139.97v-32.77c5.27-.49 10.61-.74 16-.74z" fill="#0078c8"/><path d="m324.283 232.507c-13.017 31.047.044 67.128 30.145 82.206 7.46 3.737 15.293 6.416 23.403 7.907 4.914.903 9.929.369 15.024.369 61.66 0 110.636-67.304 110.636-151.565 0-84.272-48.976-151.576-110.636-151.576-.842 0-1.682.013-2.52.038-4.02.122-7.921-.388-11.677.436-35.186 7.715-57.697 44.637-47.318 80.858 4.937 17.228 18.278 35.98 18.278 55.594 0 27.564-15.98 53.419-25.335 75.733z" fill="#f47c7c"/><path d="m273.87 492.152c-3.077 0-5.96.171-8.438-1.277-4.974-2.905-8.316-8.301-8.316-14.477v-160.247c0-77.18-62.79-139.97-139.97-139.97v-32.507c95.655 0 172.477 76.821 172.477 172.477v160.248c0 9.253-6.5 15.753-15.753 15.753z" fill="#e94444"/><path d="m504.49 171.422c0 84.26-49.98 152.57-111.64 152.57-5.09 0-10.11-.47-15.02-1.37 54.58-10 96.66-73.88 96.66-151.2 0-76.99-41.72-140.65-95.95-151.07 3.79-.85 7.73-1.35 11.79-1.47.84-.02 1.68-.03 2.52-.03 61.66 0 111.64 68.3 111.64 152.57z" fill="#ee6161"/><path d="m290.62 316.152v160.25c0 9.25-7.5 16.75-16.75 16.75-3.1 0-6.01-.85-8.5-2.32 4.94-2.91 8.25-8.29 8.25-14.43v-160.25c0-89.92-68.77-164.08-156.47-172.65v-.83c95.65 0 173.47 77.82 173.47 173.48z" fill="#d83131"/><path d="m186.698 232.507c13.017 31.047.956 66.128-29.144 81.206-11.979 6.001-24.923 9.276-38.427 9.276-5.324 0-10.561.491-15.686-.494-54.232-10.42-95.951-74.086-95.951-151.071 0-76.995 41.718-140.661 95.95-151.082 5.125-.985 10.362-.494 15.686-.494.842 0 1.682.013 2.52.038 41.681 1.261 69.481 41.207 57.994 81.294-4.937 17.228-18.278 35.98-18.278 55.594 0 27.564 15.98 53.419 25.336 75.733z" fill="#f47c7c"/><path d="m157.55 314.712c-11.98 6-24.92 9.28-38.42 9.28-5.08 0-10.08-.46-14.98-1.37 8.11-1.49 15.94-4.17 23.4-7.91 30.1-15.08 43.16-51.16 30.15-82.2-9.36-22.32-25.34-48.17-25.34-75.74 0-19.61 13.34-38.36 18.28-55.59 10.37-36.18-12.08-73.07-47.2-80.83 5.12-.99 10.36-1.5 15.69-1.5.84 0 1.68.01 2.52.03 41.68 1.26 70.48 42.21 58.99 82.3-4.94 17.23-18.28 35.98-18.28 55.59 0 27.57 15.98 53.42 25.34 75.74 13.01 31.04-.05 67.12-30.15 82.2z" fill="#ee6161"/></g></g><path d="m477.857 59.105c-22.533-30.797-52.718-47.757-84.994-47.757-22.712 0-44.14 10.699-57.564 29.082-13.309 18.225-17.377 41.121-11.16 62.817 4.067 14.192 12.19 26.851 16.119 41.091-32.36 10.761-61.393 30.785-83.133 57.283-21.752-26.604-51.05-47.115-85.186-57.969 4.008-13.963 11.918-26.441 15.919-40.405 6.217-21.695 2.149-44.591-11.16-62.817-13.422-18.381-34.851-29.082-57.564-29.082-32.276 0-62.46 16.96-84.994 47.757-22.015 30.092-34.14 69.98-34.14 112.319 0 46.774 15.101 91.048 41.431 121.47 2.71 3.131 7.446 3.474 10.579.763 3.132-2.71 3.474-7.447.763-10.579-24.005-27.736-37.773-68.432-37.773-111.654 0-79.995 46.715-145.076 104.136-145.076 17.939 0 34.841 8.4 45.45 22.928 15.739 21.553 11.838 45.225 1.634 68.007-5.319 11.876-11.348 25.336-11.348 39.492 0 22.95 10.03 44.292 18.879 63.121 2.554 5.435 4.967 10.568 7.04 15.512 11.518 27.473-.16 59.363-26.587 72.601-11.235 5.628-23.034 8.481-35.068 8.481-15.13 0-29.732-4.454-43.4-13.238-3.483-2.238-8.125-1.229-10.364 2.255s-1.23 8.125 2.255 10.364c16.126 10.364 33.457 15.619 51.51 15.619 14.388 0 28.447-3.388 41.786-10.07 33.457-16.758 48.261-57.087 33.702-91.812-4.162-9.929-9.063-19.528-13.408-29.375 19.943 11.038 36.792 27.214 48.759 46.598-9.16 21.992-13.81 45.29-13.81 69.321v160.248c0 13.373 10.88 24.253 24.253 24.253 6.483 0 12.375-2.562 16.731-6.72 4.356 4.158 10.248 6.72 16.731 6.72 13.374 0 24.253-10.88 24.253-24.253v-61.614c0-4.142-3.358-7.5-7.5-7.5s-7.5 3.358-7.5 7.5v61.614c0 5.102-4.151 9.253-9.253 9.253-4.901 0-8.913-3.832-9.223-8.656.005-.199.015-.397.015-.597 0-.274-.017-.544-.045-.811v-159.438c0-30.332-9.178-59.489-26.541-84.319-16.257-23.248-38.522-41.126-64.54-51.921-2.053-6.952-3.401-13.994-3.619-21.132 67.1 22.532 113.206 85.959 113.206 157.373v65.948c0 4.142 3.358 7.5 7.5 7.5s7.5-3.358 7.5-7.5v-65.948c0-24.293-4.897-47.738-13.851-69.247 11.361-18.433 27.158-33.876 45.689-44.85-4.132 9.214-8.691 18.239-12.596 27.553-14.559 34.725.246 75.053 33.702 91.812 13.339 6.682 27.398 10.07 41.786 10.07 24.045 0 47.192-9.518 66.938-27.523 3.061-2.791 3.28-7.535.489-10.595-2.793-3.062-7.536-3.28-10.595-.489-16.937 15.444-36.589 23.607-56.832 23.607-12.034 0-23.833-2.854-35.068-8.481-26.427-13.237-38.105-45.128-26.587-72.601 2.073-4.945 4.486-10.079 7.04-15.514 8.849-18.829 18.878-40.169 18.878-63.119 0-14.156-6.029-27.616-11.348-39.492-2.874-6.417-5.59-12.479-7.22-18.168-4.933-17.213-1.706-35.379 8.854-49.839 10.608-14.527 27.51-22.928 45.45-22.928 57.422 0 104.137 65.081 104.137 145.076 0 36.313-9.732 71.086-27.404 97.915-2.279 3.459-1.322 8.11 2.138 10.389 3.459 2.279 8.11 1.322 10.389-2.138 19.266-29.25 29.877-66.954 29.877-106.166 0-42.339-12.126-82.227-34.143-112.319zm-228.215 417.891c-.31 4.824-4.322 8.656-9.223 8.656-5.103 0-9.253-4.151-9.253-9.253v-160.248c0-17.623 2.726-34.813 8.109-51.301 6.803 16.123 10.352 33.482 10.352 51.301v160.248c-.001.2.01.398.015.597zm27.13-245.935c-3.141-5.873-6.605-11.561-10.361-17.044 19.536-24.929 45.985-43.941 75.638-54.434-.307 7.241-1.768 14.383-3.926 21.432-24.518 10.756-45.845 28.207-61.351 50.046z"/></g></svg>