<svg id="Capa_1" enable-background="new 0 0 511.982 511.982" height="512" viewBox="0 0 511.982 511.982" width="512" xmlns="http://www.w3.org/2000/svg"><g><g><path d="m317.91 391.956-2.328-40.215-3.123-9.696 1.304-21.732h-115.462l3.021 40.503-7.272 31.139 61.93 87.76z" fill="#e3a76f"/><path d="m352.681 399.731-72.754 100.681c-1.71 2.19-9.642 4.039-12.412 4.039l-22.195.03c-2.77 0-7.197-.062-8.907-2.252l-77.092-102.478c5.625-1.264 12.152 1.527 17.78.263 5.949-1.336 10.999-6.727 16.95-8.063l59.6 73.85c1.2 1.5 3.48 1.5 4.68 0l59.58-73.85z" fill="#bde4ff"/><path d="m266.661 504.481c2.77 0 5.391-1.3 7.101-3.49l78.92-101.26 55.3 12.36c27.27 9.01 47.35 31.11 52.17 59.16l5.77 33.23z" fill="#f8f7f7"/><path d="m245.321 504.481h-183.85l-5.753-1.663c-3.72 0-6.54-3.36-5.91-7.03l4.128-24.11c2.99-17.27 12.393-30.527 25.073-41.667 3.24-2.78 7.38-5.86 12.48-8.72 7.16-4.02 13.85-6.27 19.05-7.58 17.16-3.86 48.782-13.96 48.782-13.96l78.9 101.24c1.71 2.19 4.33 3.49 7.1 3.49z" fill="#f8f7f7"/><path d="m205.251 405.831-1.21.27-33.84 7.61-13.137-4.235 2.257-9.725c11.57-2.6 23.15-5.2 34.73-7.8l9.912 2.113z" fill="#99dbff"/><path d="m313.762 320.311h-99.43-16.03l-4.25 71.64 11.2 13.88.003-.001c2.402-.538 4.157-2.602 4.303-5.059l1.767-29.79c.213-3.59 4.037-5.795 7.24-4.161 11.469 5.848 24.133 8.911 37.116 8.911 16.49 0 32.43-4.91 46.09-14.19 4.78-3.24 9.38-6.51 13.81-9.8z" fill="#d6995c"/><path d="m170.202 413.711-.33.07-7.04 1.58-51.29 11.53c-5.24 1.34-10.27 3.35-14.94 5.97-3.5 1.96-6.8 4.27-9.82 6.85-10.09 8.89-16.9 21.1-19.21 34.39l-6.1 30.38h-8.28c-3.72 0-6.54-3.36-5.91-7.03l4.53-26.09c2.99-17.27 11.8-32.59 24.48-43.73 3.24-2.78 7.38-5.86 12.48-8.72 7.16-4.02 13.85-6.27 19.05-7.58 17.16-3.86 34.33-7.72 51.5-11.58z" fill="#e8e8e8"/><path d="m381.23 187.156h7.005c16.743 0 30.317 13.57 30.317 30.309 0 23.089-18.722 41.806-41.816 41.806h-241.488c-23.094 0-41.816-18.717-41.816-41.806 0-16.739 13.573-30.309 30.317-30.309h7.005z" fill="#d6995c"/><path d="m381.239 182.384c0 53.026-1.326 75.003-22.681 105.187-17.611 24.891-44.165 46.059-65.771 60.733-22.119 15.022-51.064 15.253-73.385.533-21.812-14.384-48.456-35.435-65.975-61.266-21.651-29.973-22.681-52.162-22.681-105.187l14.1-76.321 216-32.936z" fill="#e3a76f"/><path d="m381.23 187.156s-26.269-35.479-29.085-78.884c-.225-3.465-3.876-5.601-7.042-4.176-52.891 23.802-133.865 24.603-183.069 20.053-2.469-.228-4.715 1.386-5.305 3.795-3.768 15.403-10.074 29.918-15.529 40.721l-10.456 10.059c-18.449-45.547-18.621-63.491-17.386-80.367 1.625-22.204 8.24-35.783 19.211-44.477 8.051-6.38 26.292-11.936 26.292-11.936 1.445-.12 2.882-.179 4.306-.179 53.254 0 103.256-17.116 119.031-25.883 21.435-11.915 52.664-13.232 80.75 9.793 15.348 12.584 27.921 29.927 31.788 45.042 11.019 43.076-7.267 101.037-13.506 116.439z" fill="#857e87"/><path d="m127.241 93.761c-1.1 15.01.599 37.994 13.959 74.904-5.68 11.26-10.449 18.486-10.449 18.486-18.45-45.54-20.75-72.51-19.51-89.39 2.81-38.49 26.03-54.016 47.62-55.816-15.839 6.89-29.5 22.856-31.62 51.816z" fill="#6f6571"/><path d="m222.624 282.358h66.736c1.925 0 3.388 1.607 3.32 3.424 0 0-.385.686-.463.957-2.604 8.938-13.909 27.482-36.225 27.482s-33.698-18.686-36.303-27.624c-.079-.27-.385-.815-.385-.815-.069-1.817 1.395-3.424 3.32-3.424z" fill="#f8f7f7"/><path d="m292.68 285.782c0 .26-.048.54-.128.81-2.61 8.93-14.24 28.93-36.56 28.93s-33.95-20-36.56-28.93c-.08-.27-.128-.55-.128-.81 7.43 8 19.508 15.74 36.688 15.74s29.258-7.74 36.688-15.74z" fill="#e8e8e8"/></g><g><path d="m311.057 211.183v-15.677c0-4.143-3.357-7.5-7.5-7.5s-7.5 3.357-7.5 7.5v15.677c0 4.143 3.357 7.5 7.5 7.5s7.5-3.357 7.5-7.5z"/><path d="m208.426 218.683c4.142 0 7.5-3.357 7.5-7.5v-15.677c0-4.143-3.358-7.5-7.5-7.5s-7.5 3.357-7.5 7.5v15.677c0 4.143 3.357 7.5 7.5 7.5z"/><path d="m323.936 176.876c2.63 0 5.182-1.386 6.555-3.844 2.02-3.617.726-8.186-2.891-10.205-14.382-8.031-33.705-8.031-48.085 0-3.616 2.02-4.91 6.588-2.891 10.205 2.02 3.616 6.585 4.912 10.205 2.891 9.848-5.499 23.608-5.501 33.456 0 1.159.646 2.413.953 3.651.953z"/><path d="m232.468 162.827c-14.381-8.031-33.704-8.03-48.084 0-3.616 2.02-4.911 6.588-2.892 10.204 2.02 3.617 6.589 4.912 10.205 2.892 9.85-5.5 23.608-5.5 33.458 0 1.158.646 2.412.953 3.65.953 2.629 0 5.182-1.386 6.555-3.845 2.019-3.616.724-8.185-2.892-10.204z"/><path d="m238.48 254.447c5.646 2.877 11.84 4.315 18.034 4.315s12.388-1.438 18.034-4.315c3.69-1.881 5.158-6.396 3.277-10.088-1.881-3.689-6.396-5.156-10.088-3.277-7.026 3.581-15.418 3.581-22.448 0-3.691-1.881-8.208-.414-10.087 3.278-1.88 3.691-.412 8.207 3.278 10.087z"/><path d="m387.47 72.576c8.072 31.555-.864 73.326-8.193 97.315-8.232-14.754-19.875-40.645-19.875-69.064 0-2.614-1.361-5.04-3.593-6.401-2.231-1.362-5.01-1.463-7.336-.27-33.936 17.441-81.193 22.789-114.862 24.204-4.139.174-7.353 3.67-7.178 7.808.174 4.139 3.666 7.356 7.808 7.179 31.923-1.342 75.7-6.148 110.701-20.998 3.511 37.917 23.146 68.955 28.786 77.184-.038 47.029-1.337 65.236-20.865 93.099-2.378 3.393-1.555 8.069 1.837 10.446 1.311.918 2.812 1.359 4.298 1.359 2.363 0 4.689-1.114 6.148-3.196 6.04-8.618 10.524-16.571 13.869-24.529 26.138-1.196 47.036-22.825 47.036-49.248 0-19.622-15.03-35.796-34.183-37.63 8.345-25.122 20.392-76.032 9.332-113.795-1.231-3.955-5.436-6.164-9.391-4.93-3.955 1.231-6.162 5.437-4.93 9.391.218.696.414 1.387.591 2.076zm23.581 144.889c0 16.348-11.501 30.053-26.838 33.475 3.816-15.643 4.424-32.886 4.504-56.272 12.359.259 22.334 10.381 22.334 22.797z"/><path d="m255.991 323.018c24.764 0 39.736-20.532 43.757-34.334.96-3.292.329-6.755-1.73-9.499-2.032-2.71-5.27-4.328-8.658-4.328h-66.736c-3.389 0-6.626 1.618-8.659 4.328-2.059 2.744-2.69 6.207-1.73 9.499 4.021 13.802 18.992 34.334 43.756 34.334zm27.084-33.161c-4.004 7.562-12.76 18.161-27.084 18.161s-23.08-10.6-27.083-18.161z"/><path d="m473.308 503.2c-3.906-22.53-5.248-30.269-5.849-33.205-4.675-29.615-27.586-55.786-57.84-65.224l-84.551-18.9-2.904-50.024c6.917-5.624 13.338-11.314 19.204-17.038 2.965-2.892 3.023-7.641.131-10.605-2.892-2.965-7.639-3.024-10.605-.131-11.831 11.541-26.07 22.989-42.322 34.027-19.681 13.367-45.212 13.553-65.042.477-19.124-12.549-46.875-33.985-64.024-59.396-19.987-27.671-21.219-44.941-21.251-93.844 4.251-6.819 18.213-30.466 25.235-57.525 11.175.979 23.223 1.624 35.237 1.883.055.001.11.002.165.002 4.067 0 7.407-3.252 7.495-7.339.089-4.141-3.195-7.57-7.336-7.659-14.01-.302-28.046-1.144-40.593-2.433-3.825-.39-7.313 2.158-8.105 5.912-3.887 18.421-12.088 36.132-18.22 47.65-10.424-28.83-14.82-52.326-13.416-71.516 2.646-36.162 24.697-49.047 44.451-49.047 56.217 0 106.925-18.074 122.674-26.827 17.668-9.822 45.951-12.604 72.351 9.037 4.394 3.603 8.553 7.625 12.361 11.953 2.735 3.11 7.475 3.412 10.585.677 3.11-2.736 3.413-7.476.677-10.585-4.344-4.938-9.092-9.527-14.113-13.645-32.213-26.407-67.172-22.763-89.148-10.548-14.057 7.812-62.627 24.938-115.387 24.938-25.282 0-56.011 16.487-59.411 62.953-1.64 22.411 3.652 49.537 16.107 82.636-19.034 1.951-33.932 18.073-33.932 37.61 0 26.339 20.764 47.92 46.785 49.241 3.45 8.166 8.15 16.277 14.565 25.168 11.748 17.294 27.398 32.422 42.544 44.666l-2.928 49.336-80.724 18.141c-30.071 6.639-56.953 34.443-61.754 66.062l-5.745 33.12c-.708 4.081 2.027 7.963 6.108 8.671 4.076.708 7.963-2.026 8.671-6.108l5.745-33.122c4.538-26.065 23.531-46.98 50.358-54.01l46.775-10.512 30.634 39.303c1.479 1.897 3.688 2.89 5.921 2.89 1.611 0 3.235-.517 4.605-1.585 3.267-2.546 3.851-7.259 1.305-10.525l-26.282-33.719 18.628-4.186 56.667 70.218c2.005 2.485 4.988 3.911 8.182 3.91 3.194 0 6.177-1.426 8.182-3.912l56.647-70.22 18.664 4.172-71.674 91.955c-.266.342-.667.537-1.1.537h-21.439c-.433 0-.833-.195-1.099-.536l-23.86-30.612c-2.546-3.266-7.257-3.853-10.526-1.305-3.267 2.546-3.852 7.259-1.305 10.525l23.86 30.612c3.128 4.014 7.841 6.315 12.93 6.315h21.439c5.089 0 9.801-2.302 12.93-6.315l76.039-97.556 50.295 11.243c24.399 8.087 42.688 28.405 46.794 53.219.08.461 5.76 33.217 5.76 33.217.633 3.647 3.801 6.22 7.381 6.22.426 0 .856-.036 1.29-.111 4.081-.708 6.816-4.59 6.108-8.671zm-372.376-285.735c0-12.415 9.975-22.537 22.333-22.796.074 23.757.647 40.925 4.291 56.222-15.229-3.502-26.624-17.155-26.624-33.426zm155.059 239.3-54.282-67.261 2.494-42.023c13.8 10.844 32.851 20.366 51.479 19.786 18.619.358 36.586-8.073 52.101-20.351l2.472 42.585z"/><path d="m390.072 486.938h-63.273c-4.143 0-7.5 3.357-7.5 7.5s3.357 7.5 7.5 7.5h63.273c4.143 0 7.5-3.357 7.5-7.5s-3.358-7.5-7.5-7.5z"/></g></g></svg>