<svg id="Capa_1" enable-background="new 0 0 511.972 511.972" height="512" viewBox="0 0 511.972 511.972" width="512" xmlns="http://www.w3.org/2000/svg"><g><g><path d="m273.519 88.355c-9.895 8.989-25.255 8.989-35.15 0-51.886-47.139-133.419-46.898-184.937 4.967-144.03 144.999 86.754 321.604 192.734 363.11 6.32 2.475 13.237 2.475 19.557 0 105.98-41.506 336.764-218.111 192.734-363.11-51.519-51.865-133.052-52.106-184.938-4.967z" fill="#8795de"/><g><path d="m458.456 93.322c-30.306-30.51-70.999-43.147-109.933-38.792 29.06 3.27 57.374 16.082 79.933 38.792 141.708 142.661-79.41 315.917-187.512 360.997 1.771.739 3.513 1.444 5.222 2.113 6.32 2.475 13.237 2.475 19.557 0 105.979-41.507 336.764-218.112 192.733-363.11z" fill="#6c7fd8"/></g><g><path d="m340.505 223.242-50.789 72.735-72.735 50.789c-4.722 3.297-11.129 2.733-15.201-1.34l-49.057-49.057c-4.072-4.072-4.637-10.479-1.34-15.201l50.789-72.735 72.735-50.789c4.722-3.297 11.129-2.733 15.201 1.34l49.057 49.057c4.073 4.072 4.637 10.479 1.34 15.201z" fill="#d8ecfe"/><path d="m339.165 208.04-49.057-49.057c-4.072-4.073-10.479-4.637-15.201-1.34l-9.503 6.635 43.762 43.762c4.072 4.073 4.637 10.479 1.34 15.201l-50.789 72.735-63.232 44.153 5.296 5.296c4.072 4.072 10.479 4.637 15.201 1.34l72.735-50.789 50.789-72.735c3.296-4.721 2.732-11.128-1.341-15.201z" fill="#c4e2ff"/><path d="m371.23 324.845-52.645 52.645c-11.58 11.58-30.678 10.431-40.786-2.453l-40.346-51.425c-18.374-23.419-39.498-44.543-62.917-62.917l-51.425-40.346c-12.884-10.108-14.033-29.206-2.453-40.786l52.645-52.645c11.58-11.58 30.678-10.431 40.786 2.453l40.346 51.425c18.374 23.419 39.498 44.543 62.917 62.917l51.425 40.346c12.884 10.109 14.032 29.206 2.453 40.786z" fill="#a6d6f8"/><path d="m368.777 284.059-51.425-40.346c-23.419-18.374-44.543-39.498-62.917-62.917l-40.346-51.425c-8.935-11.388-24.89-13.6-36.471-5.965 2.397 1.578 4.59 3.568 6.471 5.965l40.346 51.425c18.374 23.419 39.498 44.543 62.917 62.917l51.425 40.346c12.884 10.108 14.033 29.206 2.453 40.786l-52.645 52.645c-1.344 1.344-2.794 2.51-4.315 3.512 10.485 6.904 24.89 5.912 34.315-3.512l52.645-52.645c11.579-11.58 10.431-30.677-2.453-40.786z" fill="#8ecbfb"/><path d="m261.055 305.095c-19.837-25.284-42.716-48.164-68.001-68.002l-45.481-35.683c-1.888-1.481-2.056-4.279-.359-5.975l41.96-41.96c1.697-1.696 4.494-1.528 5.975.359l35.683 45.481c19.837 25.286 42.717 48.165 68.001 68.001l45.481 35.684c1.888 1.481 2.056 4.279.359 5.975l-41.961 41.96c-1.697 1.697-4.494 1.528-5.975-.359z" fill="#eaf6ff"/></g></g><path d="m463.777 88.037c-26.075-26.251-60.704-41.104-97.505-41.823-36.309-.688-71.044 12.285-97.797 36.591-7.026 6.383-18.036 6.383-25.062 0-26.753-24.307-61.465-37.304-97.797-36.591-36.802.719-71.43 15.572-97.505 41.823-55.933 56.309-63.247 124.221-21.151 196.393 2.087 3.579 6.679 4.787 10.257 2.7s4.787-6.68 2.7-10.257c-38.845-66.6-32.508-126.576 18.836-178.266 23.316-23.473 54.269-36.754 87.156-37.396 32.469-.644 63.511 10.977 87.417 32.695 12.684 11.523 32.553 11.523 45.236 0 23.905-21.719 54.957-33.316 87.417-32.695 32.888.643 63.84 13.924 87.157 37.396 36.61 36.856 50.365 78.356 40.882 123.347-24.123 114.447-172.186 204.432-231.031 227.494-4.54 1.779-9.542 1.78-14.086 0-56.827-22.256-140.354-79-190.045-144.393-2.506-3.298-7.212-3.938-10.509-1.434-3.298 2.506-3.94 7.211-1.434 10.51 51.365 67.595 137.741 126.264 196.518 149.283 4.036 1.581 8.274 2.371 12.514 2.371 4.239 0 8.479-.791 12.513-2.371 79.433-31.115 216.786-127.097 240.238-238.367 10.59-50.245-4.523-96.343-44.919-137.01zm-119.31 114.696-49.053-49.043c-6.65-6.667-17.083-7.587-24.804-2.192l-19.142 13.367-31.479-40.122c-6.142-7.829-15.36-12.661-25.292-13.259-9.933-.597-19.663 3.097-26.698 10.131l-52.645 52.646c-7.036 7.035-10.728 16.767-10.13 26.698.597 9.932 5.429 19.15 13.257 25.291l40.122 31.478-13.367 19.142c-5.392 7.713-4.473 18.143 2.184 24.801l49.061 49.061c6.68 6.678 17.121 7.555 24.797 2.186l19.144-13.369 31.477 40.119c6.142 7.828 15.36 12.66 25.292 13.257 9.876.593 19.666-3.09 26.697-10.13l52.645-52.645s0 0 0-.001c7.036-7.035 10.728-16.767 10.13-26.698-.597-9.932-5.429-19.15-13.257-25.291l-40.121-31.478 13.365-19.146c5.386-7.704 4.471-18.132-2.183-24.803zm-131.78 137.888c-1.739 1.216-4.096 1.007-5.6-.497l-49.06-49.06c-1.504-1.505-1.713-3.86-.495-5.604l12.888-18.456c22.546 17.755 42.97 38.18 60.724 60.725zm151.46-50.661c4.454 3.495 7.204 8.74 7.543 14.391.34 5.651-1.761 11.188-5.764 15.191l-52.645 52.646c-4.003 4.002-9.534 6.106-15.19 5.764-5.651-.34-10.896-3.089-14.391-7.544l-40.346-51.425c-18.725-23.866-40.321-45.462-64.188-64.187l-51.425-40.346c-4.454-3.495-7.204-8.74-7.543-14.391-.34-5.651 1.761-11.188 5.764-15.191l52.645-52.646c3.996-3.995 9.58-6.101 15.191-5.764 5.651.34 10.896 3.089 14.391 7.544l40.346 51.425c18.726 23.867 40.321 45.463 64.188 64.187zm-29.793-71.016-12.886 18.459c-22.545-17.753-42.968-38.176-60.722-60.722l18.455-12.888c1.743-1.217 4.096-1.012 5.6.497l49.053 49.043c1.507 1.511 1.718 3.869.5 5.611zm-97.62-24.26-35.683-45.479c-2.029-2.587-5.075-4.184-8.356-4.381-3.279-.214-6.498 1.021-8.823 3.347l-41.96 41.96c-2.325 2.325-3.545 5.54-3.348 8.821.197 3.282 1.793 6.328 4.381 8.358l45.481 35.683c18.828 14.771 36.415 31.378 52.274 49.359 2.739 3.105 7.479 3.402 10.586.664 3.106-2.74 3.404-7.479.664-10.586-16.462-18.665-34.72-35.904-54.265-51.238l-42.375-33.246 36.377-36.377 33.246 42.374c20.208 25.759 43.515 49.065 69.273 69.272l42.375 33.247-36.377 36.377-25.836-32.931c-2.558-3.259-7.272-3.827-10.53-1.271-3.259 2.557-3.828 7.271-1.271 10.53l28.273 36.035c2.029 2.587 5.075 4.184 8.356 4.381 3.26.196 6.504-1.026 8.823-3.347l41.96-41.96c2.325-2.324 3.545-5.539 3.348-8.82-.197-3.282-1.793-6.329-4.381-8.359l-45.481-35.684c-24.814-19.464-47.266-41.915-66.731-66.729z"/></g></svg>