<svg id="Capa_1" enable-background="new 0 0 512 512" height="512" viewBox="0 0 512 512" width="512" xmlns="http://www.w3.org/2000/svg"><g><g><g><path d="m213.725 232.725v-26.1h-109.734v26.1c0 9.022-3.07 17.775-8.706 24.819l-33.634 42.042c-6.174 7.717-9.538 17.306-9.538 27.19v154.307c0 12.933 10.484 23.417 23.417 23.417h166.656c12.933 0 23.417-10.484 23.417-23.417v-154.307c0-9.883-3.364-19.472-9.538-27.19l-33.634-42.042c-5.636-7.045-8.706-15.798-8.706-24.819z" fill="#e9efff"/></g><g><path d="m171.069 334.52h94.534v-7.744c0-9.883-3.364-19.472-9.538-27.19l-33.634-42.042c-5.636-7.045-8.706-15.798-8.706-24.819v-26.1h-27.008c-14.244 23.943-22.441 51.885-22.441 81.709.001 16.051 2.383 31.554 6.793 46.186z" fill="#d3dcfb"/></g><g><path d="m75.682 481.083v-154.307c0-9.883 3.364-19.472 9.538-27.19l33.634-42.042c5.636-7.045 8.706-15.798 8.706-24.819v-26.1h-23.569v26.1c0 9.022-3.07 17.775-8.706 24.819l-33.634 42.042c-6.174 7.718-9.538 17.307-9.538 27.19v154.307c0 12.933 10.484 23.417 23.417 23.417h23.569c-12.933 0-23.417-10.484-23.417-23.417z" fill="#d3dcfb"/></g><g><path d="m52.113 334.52h213.49v122.706h-213.49z" fill="#e5979d"/></g><g><path d="m52.113 334.52h23.569v122.706h-23.569z" fill="#e17f85"/></g><g><path d="m182.822 73.548-6.129-61.477c-.259-2.595-2.442-4.571-5.049-4.571h-25.572c-2.607 0-4.79 1.976-5.049 4.571l-6.129 61.477c-1.027 10.305-5.577 19.939-12.882 27.279l-7.916 7.954c-4.462 4.484-6.967 10.552-6.967 16.877v37.098h103.459v-37.098c0-6.326-2.505-12.394-6.967-16.877l-7.916-7.954c-7.306-7.34-11.856-16.974-12.883-27.279z" fill="#bac5e2"/></g><g><path d="m131.736 108.781 7.916-7.954c7.305-7.34 11.855-16.975 12.882-27.279l6.129-61.477c.259-2.595 2.442-4.571 5.049-4.571h-17.64c-2.607 0-4.79 1.976-5.049 4.571l-6.129 61.477c-1.027 10.305-5.577 19.939-12.882 27.279l-7.916 7.954c-4.462 4.484-6.967 10.552-6.967 16.877v37.098h17.64v-37.098c-.001-6.325 2.504-12.393 6.967-16.877z" fill="#a7b4d1"/></g><g><path d="m171.069 334.52c14.158 46.972 49.324 84.926 94.534 102.877v-102.877z" fill="#e17f85"/></g><g><path d="m222.939 215.704h-128.162c-5.523 0-10-4.477-10-10v-42.674c0-5.523 4.477-10 10-10h128.163c5.523 0 10 4.477 10 10v42.674c-.001 5.523-4.478 10-10.001 10z" fill="#e5979d"/></g><g><path d="m181.698 215.704h41.241c5.523 0 10-4.477 10-10v-42.674c0-1.881-.529-3.635-1.433-5.138-20.887 14.946-38.052 34.778-49.808 57.812z" fill="#e17f85"/></g><g><path d="m104.457 205.704v-42.674c0-5.523 4.477-10 10-10h-19.68c-5.523 0-10 4.477-10 10v42.674c0 5.523 4.477 10 10 10h19.68c-5.523 0-10-4.477-10-10z" fill="#e17f85"/></g><g><path d="m177.323 397.834-14.424-30.514c-1.613-3.413-6.47-3.413-8.083 0l-14.424 30.514c-6.404 13.549 3.479 29.152 18.465 29.152 14.987 0 24.871-15.603 18.466-29.152z" fill="#e9efff"/></g><g><circle cx="324.582" cy="288.334" fill="#42c3fc" r="135.305"/></g><g><path d="m210.587 288.334c0-71.141 54.904-129.455 124.65-134.889-3.516-.274-7.069-.416-10.655-.416-74.727 0-135.305 60.578-135.305 135.305s60.578 135.305 135.305 135.305c3.586 0 7.139-.142 10.655-.416-69.746-5.434-124.65-63.748-124.65-134.889z" fill="#1aa9e8"/></g><g><path d="m418.886 303.97-16.423 13.974c-44.894 38.2-110.871 38.197-155.765-.003-5.965-5.075-11.55-9.828-16.426-13.977-9.634-8.198-9.628-23.068.006-31.266l16.423-13.974c44.894-38.2 110.871-38.197 155.765.003 5.965 5.075 11.55 9.828 16.426 13.977 9.635 8.198 9.628 23.069-.006 31.266z" fill="#e9efff"/></g><g><path d="m269.738 317.941c-5.965-5.075-11.55-9.828-16.426-13.977-9.634-8.198-9.628-23.068.006-31.266l16.423-13.974c19.332-16.45 42.576-25.796 66.36-28.078-31.447-3.017-63.839 6.329-89.4 28.078l-16.423 13.974c-9.634 8.198-9.641 23.068-.006 31.266 4.876 4.149 10.461 8.901 16.426 13.977 25.562 21.75 57.957 31.098 89.405 28.081-23.786-2.282-47.031-11.63-66.365-28.081z" fill="#d3dcfb"/></g><g><circle cx="324.582" cy="288.334" fill="#bac5e2" r="31.907"/></g></g><g><path d="m158.857 357.26c-4.677 0-8.823 2.627-10.821 6.855l-14.424 30.514c-4.112 8.7-3.493 18.747 1.655 26.875 5.149 8.129 13.968 12.982 23.591 12.982 9.622 0 18.44-4.853 23.59-12.981 5.148-8.129 5.768-18.176 1.655-26.876l-14.424-30.514c-1.997-4.228-6.144-6.855-10.822-6.855zm10.919 56.218c-2.419 3.818-6.398 6.008-10.919 6.008-4.52 0-8.499-2.19-10.918-6.008s-2.698-8.352-.767-12.439l11.686-24.719 11.685 24.719c1.932 4.086 1.652 8.621-.767 12.439z"/><path d="m324.581 222.576c-30.288 0-59.674 10.81-82.74 30.436l-16.424 13.975c-6.271 5.337-9.868 13.119-9.868 21.352 0 8.228 3.595 16.006 9.862 21.339l16.426 13.976c23.068 19.628 52.453 30.438 82.743 30.439h.003c30.288 0 59.674-10.81 82.74-30.437l16.423-13.974c6.271-5.336 9.868-13.118 9.869-21.351 0-8.229-3.595-16.006-9.862-21.34l-16.427-13.976c-23.067-19.628-52.453-30.438-82.742-30.439-.002 0-.002 0-.003 0zm89.451 55.84c2.912 2.479 4.583 6.092 4.583 9.916 0 3.827-1.673 7.444-4.59 9.926l-16.423 13.974c-42.311 36.001-103.732 36-146.045-.003l-16.426-13.976c-2.913-2.479-4.583-6.092-4.583-9.915 0-3.827 1.673-7.445 4.589-9.927l16.424-13.974c21.155-18 47.086-27 73.02-27 25.933 0 51.868 9.002 73.024 27.004z"/><path d="m285.175 288.334c0 21.729 17.678 39.407 39.407 39.407s39.407-17.678 39.407-39.407-17.678-39.407-39.407-39.407-39.407 17.678-39.407 39.407zm39.407-24.407c13.458 0 24.407 10.949 24.407 24.407s-10.949 24.407-24.407 24.407-24.407-10.949-24.407-24.407 10.949-24.407 24.407-24.407z"/><path d="m412.662 175.92c-3.261-2.556-7.974-1.988-10.53 1.271-2.557 3.259-1.988 7.973 1.271 10.53 31.131 24.423 48.984 61.096 48.984 100.612 0 70.472-57.333 127.805-127.805 127.805s-127.805-57.333-127.805-127.805 57.333-127.805 127.805-127.805c18.79 0 36.886 3.981 53.785 11.833 3.757 1.747 8.217.115 9.962-3.642 1.745-3.756.115-8.216-3.642-9.962-18.894-8.778-39.116-13.229-60.105-13.229-31.437 0-60.528 10.219-84.143 27.498v-9.998c0-9.649-7.851-17.5-17.5-17.5h-4.852v-19.871c0-8.365-3.25-16.238-9.151-22.168l-7.916-7.954c-6.069-6.098-9.882-14.171-10.735-22.733l-6.13-61.475c-.641-6.456-6.02-11.327-12.511-11.327h-25.571c-6.491 0-11.87 4.871-12.512 11.327l-6.13 61.477c-.854 8.562-4.666 16.635-10.735 22.733l-7.916 7.954c-5.901 5.93-9.151 13.803-9.151 22.168v19.871h-4.852c-9.649 0-17.5 7.851-17.5 17.5v42.674c0 9.649 7.851 17.5 17.5 17.5h1.715v9.521c0 7.29-2.509 14.44-7.063 20.134l-33.634 42.042c-7.21 9.013-11.181 20.333-11.181 31.875v154.307c-.001 17.048 13.868 30.917 30.916 30.917h166.655c17.048 0 30.917-13.869 30.917-30.917v-38.686c0-4.142-3.357-7.5-7.5-7.5s-7.5 3.358-7.5 7.5v7.33h-198.489v-107.707h99.244c4.143 0 7.5-3.358 7.5-7.5s-3.357-7.5-7.5-7.5h-99.244v-.244c0-8.149 2.804-16.142 7.894-22.505l33.634-42.042c6.675-8.343 10.351-18.822 10.351-29.504v-9.521h61.749c4.143 0 7.5-3.358 7.5-7.5s-3.357-7.5-7.5-7.5h-78.465c-1.379 0-2.5-1.122-2.5-2.5v-42.674c0-1.378 1.121-2.5 2.5-2.5h19.683v22.109c0 4.142 3.357 7.5 7.5 7.5s7.5-3.358 7.5-7.5v-22.109h21.898v22.109c0 4.142 3.357 7.5 7.5 7.5s7.5-3.358 7.5-7.5v-22.109h21.899v22.109c0 4.142 3.357 7.5 7.5 7.5s7.5-3.358 7.5-7.5v-22.109h19.683c1.379 0 2.5 1.122 2.5 2.5v22.628c-26.903 25.986-43.662 62.409-43.662 102.678 0 78.743 64.062 142.805 142.805 142.805s142.805-64.062 142.805-142.805c0-44.156-19.947-85.129-54.725-112.416zm-154.559 288.807v16.356c0 8.777-7.141 15.917-15.917 15.917h-166.656c-8.776 0-15.917-7.14-15.917-15.917v-16.356zm-143.475-339.068c0-4.372 1.699-8.487 4.784-11.587l7.916-7.954c8.496-8.538 13.834-19.84 15.028-31.826l5.913-59.292h21.179l5.912 59.292c1.195 11.986 6.532 23.288 15.028 31.826l7.916 7.954c3.085 3.1 4.784 7.215 4.784 11.587v19.871h-88.46z"/></g></g></svg>