<svg id="Capa_1" enable-background="new 0 0 512.001 512.001" height="512" viewBox="0 0 512.001 512.001" width="512" xmlns="http://www.w3.org/2000/svg"><g><g><path d="m446.337 504.5h-146.751c-3.866 0-7-3.134-7-7v-7.41c0-44.39 35.985-80.376 80.376-80.376 44.39 0 80.376 35.985 80.376 80.376v7.41c-.001 3.866-3.135 7-7.001 7z" fill="#aee69c"/><path d="m372.962 409.714c-5.129 0-10.138.501-15 1.419 37.218 7.029 65.375 39.695 65.375 78.957v7.41c0 3.866-3.134 7-7 7h30c3.866 0 7-3.134 7-7v-7.41c0-44.391-35.985-80.376-80.375-80.376z" fill="#89daa4"/><g><circle cx="159.837" cy="76.528" fill="#eaf6ff" r="69.028"/><path d="m159.837 7.5c-5.154 0-10.169.583-15 1.654 30.907 6.852 54.028 34.405 54.028 67.375s-23.121 60.523-54.028 67.375c4.831 1.071 9.846 1.654 15 1.654 38.123 0 69.028-30.905 69.028-69.028s-30.905-69.03-69.028-69.03z" fill="#d8ecfe"/><path d="m240.213 156.5h-160.752v-69.786c0-5.523 4.477-10 10-10h140.751c5.523 0 10 4.477 10 10v69.786z" fill="#dbf1d0"/><path d="m230.212 76.714h-30c5.523 0 10 4.477 10 10v69.786h30v-69.786c0-5.523-4.477-10-10-10z" fill="#c1e9af"/><path d="m241.024 504.5h-162.373c-12.18 0-21.526-10.787-19.794-22.844 6.727-46.826 11.48-100.817 11.48-160.656 0-46.634-2.887-100.831-11.478-160.643-1.732-12.057 7.61-22.857 19.791-22.857h162.373c12.18 0 21.526 10.787 19.794 22.844-6.726 46.827-11.48 100.818-11.48 160.656 0 46.634 2.887 100.831 11.478 160.643 1.732 12.057-7.61 22.857-19.791 22.857z" fill="#aee69c"/><path d="m249.337 321c0-59.839 4.753-113.83 11.48-160.656 1.732-12.056-7.614-22.844-19.794-22.844h-30c12.18 0 21.526 10.787 19.794 22.844-6.727 46.827-11.48 100.818-11.48 160.656 0 46.634 2.887 100.831 11.478 160.643 1.732 12.057-7.61 22.857-19.79 22.857h30c12.181 0 21.522-10.801 19.79-22.857-8.591-59.812-11.478-114.009-11.478-160.643z" fill="#89daa4"/><path d="m193.629 412.506h-67.583c-8.284 0-15-6.716-15-15v-153.012c0-8.284 6.716-15 15-15h67.583c8.284 0 15 6.716 15 15v153.011c0 8.285-6.716 15.001-15 15.001z" fill="#dbf1d0"/></g></g><path d="m372.961 402.214c-10.363 0-20.512 1.789-30.163 5.315-3.891 1.422-5.892 5.729-4.47 9.619s5.726 5.89 9.618 4.47c7.997-2.922 16.413-4.404 25.015-4.404 40.184 0 72.876 32.692 72.876 72.875v6.911h-145.751v-6.91c0-19.444 7.565-37.729 21.303-51.488 2.927-2.932 2.923-7.68-.009-10.607-2.93-2.926-7.679-2.923-10.606.008-16.564 16.591-25.688 38.641-25.688 62.087v7.41c0 7.995 6.505 14.5 14.5 14.5h146.751c7.995 0 14.5-6.505 14.5-14.5v-7.41c0-48.455-39.421-87.876-87.876-87.876zm-125.244-271.378v-44.126c0-7.588-4.863-14.044-11.629-16.465-3.21-39.267-36.17-70.245-76.251-70.245s-73.04 30.978-76.25 70.245c-6.766 2.421-11.629 8.878-11.629 16.465v44.126c-13.465 3.312-22.501 16.814-20.522 30.588 2.613 18.191 4.807 36.697 6.52 55.005.386 4.124 4.04 7.159 8.166 6.769 4.124-.386 7.155-4.042 6.769-8.166-1.736-18.553-3.959-37.307-6.607-55.74-1.067-7.428 4.879-14.338 12.367-14.292h162.373c7.455-.049 13.434 6.871 12.37 14.277-7.668 53.387-11.556 107.798-11.556 161.723 0 53.926 3.888 108.333 11.554 161.709 1.059 7.374-4.896 14.341-12.366 14.291h-162.375c-7.489.043-13.432-6.886-12.37-14.277 7.668-53.382 11.556-107.793 11.556-161.723 0-23.499-.741-47.308-2.204-70.765-.257-4.134-3.822-7.282-7.952-7.019-4.134.257-7.276 3.818-7.019 7.952 1.443 23.148 2.174 46.643 2.174 69.832 0 53.219-3.837 106.913-11.404 159.59-2.327 16.202 10.725 31.516 27.218 31.41h162.374c16.314.09 29.542-15.216 27.214-31.424-7.565-52.672-11.401-106.361-11.401-159.576 0-53.213 3.837-106.907 11.403-159.589 1.99-13.856-7.152-27.278-20.523-30.575zm-87.88-115.836c31.449 0 57.447 23.722 61.08 54.21h-122.159c3.632-30.488 29.63-54.21 61.079-54.21zm72.88 115h-145.76v-43.29c0-1.378 1.122-2.5 2.5-2.5h140.76c1.379 0 2.5 1.122 2.5 2.5zm-39.088 290.006c12.407 0 22.5-10.093 22.5-22.5v-153.012c0-12.407-10.094-22.5-22.5-22.5h-67.583c-12.407 0-22.5 10.093-22.5 22.5v153.012c0 12.407 10.093 22.5 22.5 22.5zm-75.083-22.5v-153.012c0-4.136 3.365-7.5 7.5-7.5h67.583c4.136 0 7.5 3.364 7.5 7.5v153.012c0 4.136-3.365 7.5-7.5 7.5h-67.583c-4.136 0-7.5-3.364-7.5-7.5z"/></g></svg>