<svg id="Capa_1" enable-background="new 0 0 512.001 512.001" height="512" viewBox="0 0 512.001 512.001" width="512" xmlns="http://www.w3.org/2000/svg"><g><g><path d="m336.014 7.826c-66.675 11.847-117.308 70.085-117.308 140.164s50.633 128.317 117.308 140.164c73.166-4.879 131.005-65.762 131.005-140.164s-57.839-135.285-131.005-140.164z" fill="#60b9fe"/><path d="m220.366 147.99c0-71.779 53.833-130.979 123.326-139.444-5.625-.686-11.352-1.046-17.162-1.046-77.59 0-140.489 62.899-140.489 140.489s62.899 140.489 140.489 140.489c5.811 0 11.537-.36 17.163-1.045-69.494-8.465-123.327-67.664-123.327-139.443z" fill="#1ca8ff"/><path d="m452.257 320.63c-10.724-17.294-29.893-6.478-31.513-5.663l-66.68 27.89-1.021 1.102s-10.859 5.516-12.891 4.844c-2.031-.672-1.676-2.703-1.676-2.704 0-.006-.002-.011-.002-.016.128-5.44-1.487-15.786-14.847-19.501-26.251-7.303-40.67-11.563-50.168-13.825h-24.917l-44.498 21.698-38.544 48.333 46.167 30.167 6.266-.668c10.826-7.857 25.672-9.047 39.585-5.178l41.014 11.41c7.179 1.631 23.478 3.613 39.051-6.638.008-.004.013-.008.013-.008 4.334-2.51 100.846-58.407 105.181-60.918 3.161-2.082 18.886-14.008 9.48-30.325z" fill="#ffcebe"/><g><path d="m172.799 383.579c-1.915-1.218-2.403-3.784-1.128-5.617 14.442-20.77 33.128-38.331 55.04-51.149 15.133-8.853 22.471-11.067 46.748-14.057-9.021-2.149-13.603-2.495-19.661-1.932l-.002-.002c-38.36 4.308-45.278 5.378-63.419 15.991-22.272 13.029-41.212 30.958-55.748 52.176v3.423l68.788 43.75 3.706-1.061.569-1.051c2.668-4.924 6.172-8.812 10.24-11.764z" fill="#ffb1a0"/></g><path d="m352.835 351.733c.019-.103.035-.207.049-.311l1.179-8.566-12.619 5.278c-1.438.601-2.994-.482-2.968-2.036l-.418 3.034c-.096.384-.629 2.349-1.893 4.069-1.165 1.588-3.075 3.329-7.537 2.742-14.95-1.982-57.799-7.422-58.23-7.477-4.11-.527-7.863 2.388-8.385 6.496-.521 4.109 2.387 7.863 6.496 8.385.431.055 43.239 5.489 58.149 7.465 1.27.169 2.489.248 3.663.248 13.873 0 21.039-11.166 22.514-19.327z" fill="#ffb1a0"/><path d="m210.651 427.344-58.743-37.365c-2.93.397-5.665 2.055-7.302 4.8l-15.323 25.709 66.01 41.643h5.221l13.032-23.324c2.226-3.984.956-9.014-2.895-11.463z" fill="#dbedff"/><path d="m129.65 420.268 15.144-25.407c1.642-2.754 4.416-4.398 7.366-4.723l-21.18-13.472c-4.094-2.604-9.531-1.312-12.015 2.856l-13.284 22.286 1.488 4.727 22.659 14.295z" fill="#b5dcff"/><path d="m203.111 463.782-74.91-47.649c-1.229.293-2.345 1.048-3.04 2.226l-50.808 86.142h104.485c4.241 0 8.146-2.303 10.198-6.015l15.688-28.373c1.22-2.204.513-4.978-1.613-6.331z" fill="#6e60b8"/><path d="m125.219 418.898c.814-1.381 2.215-2.181 3.693-2.312l-23.775-15.123c-2.275-1.447-5.297-.722-6.667 1.601l-51.688 87.634c-3.599 6.102.8 13.803 7.884 13.803h20.062z" fill="#6353b2"/><path d="m325.724 42.764c-5.49 2.909-9.241 8.661-9.241 15.306s3.752 12.397 9.241 15.306c5.691-2.751 9.626-8.562 9.626-15.306s-3.935-12.555-9.626-15.306z" fill="#dbedff"/><path d="m316.661 58.07c0-6.633 3.805-12.365 9.344-15.171-2.306-1.168-4.905-1.84-7.667-1.84-9.395 0-17.011 7.616-17.011 17.011s7.616 17.011 17.011 17.011c2.761 0 5.361-.673 7.667-1.84-5.538-2.806-9.344-8.538-9.344-15.171z" fill="#b5dcff"/></g><g><path d="m318.086 33.559c-13.516 0-24.511 10.996-24.511 24.511s10.995 24.511 24.511 24.511 24.512-10.996 24.512-24.511-10.997-24.511-24.512-24.511zm0 34.022c-5.244 0-9.511-4.267-9.511-9.511s4.267-9.511 9.511-9.511c5.245 0 9.512 4.267 9.512 9.511s-4.267 9.511-9.512 9.511z"/><path d="m379.038 139.183c4.143 0 7.5-3.358 7.5-7.5s-3.357-7.5-7.5-7.5h-56.496v-24.902c0-4.142-3.357-7.5-7.5-7.5s-7.5 3.358-7.5 7.5v70.121c0 8.204 6.675 14.879 14.879 14.879h49.567l27.815 44.49c2.202 3.523 6.835 4.574 10.335 2.384 3.513-2.195 4.58-6.823 2.384-10.335l-27.851-44.548c-2.737-4.377-7.454-6.991-12.616-6.991h-49.514v-30.098z"/><path d="m285.731 110.506c-23.247 13.405-37.688 38.385-37.688 65.193 0 41.47 33.738 75.208 75.208 75.208 22.185 0 43.129-9.727 57.463-26.687 2.674-3.163 2.276-7.896-.888-10.569s-7.896-2.276-10.569.888c-11.477 13.58-28.246 21.368-46.006 21.368-33.199 0-60.208-27.01-60.208-60.208 0-21.463 11.564-41.464 30.181-52.199 3.589-2.069 4.82-6.655 2.751-10.244-2.07-3.589-6.656-4.818-10.244-2.75z"/><path d="m326.277 0c-81.603 0-147.99 66.388-147.99 147.99 0 74.538 55.701 137.67 129.565 146.848 4.117.512 7.856-2.406 8.367-6.518.511-4.11-2.407-7.856-6.518-8.367-66.367-8.247-116.415-64.979-116.415-131.963 0-73.331 59.659-132.99 132.99-132.99 73.33 0 132.989 59.659 132.989 132.99 0 66.984-50.047 123.716-116.414 131.963-4.11.511-7.028 4.257-6.518 8.367.472 3.797 3.703 6.576 7.433 6.576.309 0 .621-.02.935-.059 73.864-9.179 129.564-72.31 129.564-146.848.001-81.601-66.386-147.989-147.988-147.989z"/><path d="m438.563 344.582c-.959.556-32.044 18.559-33.08 19.159-3.584 2.076-4.808 6.665-2.731 10.249 2.075 3.584 6.667 4.806 10.249 2.731.101-.059 32.933-19.074 33.287-19.279.123-.071.243-.146.362-.225 9.45-6.223 22.58-21.721 11.853-40.333-.04-.07-.082-.14-.124-.208-8.639-13.928-24.367-17.184-41.063-8.512l-72.42 30.29c-2.017-7.896-7.712-15.819-19.512-19.1-8.463-2.354-15.695-4.393-21.928-6.148-32.027-9.023-38.788-10.929-50.469-9.864-.094.007-.187.016-.28.026-38.91 4.369-46.854 5.553-66.369 16.971-20.814 12.175-39.381 28.939-54.069 48.72-7.25-3.026-15.827-.38-20.001 6.623l-10.463 17.554c-4.298.174-8.023 2.585-10.048 6.017l-51.687 87.635c-6.545 11.097 1.442 25.113 14.344 25.113h124.172c6.967 0 13.39-3.788 16.762-9.886l15.687-28.372c2.446-4.422 1.858-9.747-1.113-13.525l9.92-17.754c3.603-6.449 2.294-14.372-2.792-19.355 9.386-11.573 25.413-12.334 38.208-8.776l41.014 11.409c.115.032.231.062.349.088 7.386 1.68 26.487 4.29 44.648-7.564l41.441-24.001c3.584-2.076 4.808-6.665 2.731-10.249-2.075-3.584-6.663-4.809-10.249-2.731l-41.584 24.084c-.136.078-.27.16-.4.246-13.265 8.734-27.442 6.886-33.098 5.626l-40.833-11.358c-22.339-6.212-43.062-.384-54.72 14.857-10.654-6.777-43.901-27.924-59.456-37.819 13.36-17.702 30.107-32.693 48.813-43.634 16.727-9.786 22.256-10.72 60.336-14.997 8.984-.83 14.514.725 45.14 9.354 6.247 1.76 13.494 3.803 21.978 6.162 10.757 2.991 11.124 13.196 7.215 18.52-1.165 1.588-3.073 3.327-7.537 2.742-14.945-1.981-50.528-6.554-50.886-6.6-4.11-.535-7.868 2.374-8.395 6.482-.528 4.108 2.374 7.867 6.482 8.395.357.046 35.911 4.615 50.827 6.592 11.981 1.593 21.11-4.824 24.979-14.87l79.334-33.182c.162-.067.32-.141.477-.219l.328-.169c9.743-5.08 16.936-4.076 21.377 2.982 5.95 10.498-4.423 18.362-7.006 20.103zm-313.41 38.781c.318-.534 1.014-.707 1.548-.368 7.847 4.992 71.813 45.679 79.672 50.678l.001.001c.495.314.659.963.373 1.476l-9.159 16.392-81.988-52.151zm57.068 111.494c-.731 1.323-2.124 2.145-3.635 2.145h-124.172c-1.288 0-2.078-1.382-1.424-2.492l50.252-85.201 93.423 59.424z"/></g></g></svg>