<svg id="Capa_1" enable-background="new 0 0 512 512" height="512" viewBox="0 0 512 512" width="512" xmlns="http://www.w3.org/2000/svg"><g><g><path d="m216.651 404.055h78.698v99.918h-78.698z" fill="#d19a6e"/><path d="m272.915 404.055h22.434v99.918h-22.434z" fill="#c38c66"/><path d="m425.312 210.756c13.529-15.067 21.768-34.982 21.768-56.826.312-50.127-44.137-90.084-93.917-84.642-18.5-36.358-56.268-61.266-99.856-61.266-43.443 0-81.107 24.741-99.673 60.902-48.198-2.2-88.839 36.759-88.714 85.005 0 21.844 8.239 41.759 21.768 56.826-45.844 14.018-79.188 56.659-79.188 107.092 0 61.841 50.132 111.973 111.973 111.973 27.053 0 51.865-9.594 71.22-25.565 15.61 18.67 39.067 30.554 65.307 30.554s49.697-11.884 65.307-30.554c19.355 15.971 44.167 25.565 71.22 25.565 61.841 0 111.973-50.132 111.973-111.973 0-50.433-33.344-93.074-79.188-107.091z" fill="#95d6a4"/><g fill="#78c2a4"><path d="m168.259 404.254c-16.666 13.753-37.384 22.758-60.09 25 3.718.373 7.488.565 11.304.565 21.219 0 41.045-5.923 57.955-16.175-3.29-2.891-6.359-6.028-9.169-9.39z"/><path d="m425.312 210.756c13.529-15.067 21.768-34.982 21.768-56.826.312-50.127-44.137-90.084-93.917-84.642-18.5-36.358-56.268-61.266-99.856-61.266-3.788 0-7.529.2-11.22.567 38.786 3.858 71.749 27.499 88.642 60.698 49.781-5.442 94.229 34.515 93.917 84.642 0 21.844-8.239 41.759-21.768 56.826 45.844 14.017 79.188 56.658 79.188 107.091 0 58.025-44.137 105.74-100.669 111.407 3.663.362 7.373.565 11.131.565 61.841 0 111.973-50.132 111.973-111.973-.001-50.431-33.345-93.072-79.189-107.089z"/><path d="m298.872 404.254c-13.347 15.964-32.434 26.959-54.09 29.813 3.671.484 7.414.741 11.217.741 21.515 0 41.156-7.994 56.138-21.163-4.649-2.819-9.09-5.946-13.265-9.391z"/></g><g><g><path d="m178.928 162.859c-14.692 0-26.601-11.91-26.601-26.601v-8.179h53.203v8.179c-.001 14.691-11.911 26.601-26.602 26.601z" fill="#fed2a4"/><path d="m183.094 128.078v8.179c0 10.682-6.3 19.889-15.384 24.121 3.409 1.588 7.208 2.48 11.217 2.48 14.691 0 26.601-11.91 26.601-26.601v-8.179z" fill="#ffbd86"/><path d="m189.278 100.165h-20.702c-8.975 0-16.251 7.276-16.251 16.251v11.663h53.203v-11.663c.001-8.976-7.275-16.251-16.25-16.251z" fill="#5d5360"/><path d="m189.278 100.165h-20.702c-.292 0-.578.029-.866.044 8.57.453 15.384 7.524 15.384 16.207v11.663h22.434v-11.663c.001-8.976-7.275-16.251-16.25-16.251z" fill="#4b3f4e"/><path d="m178.927 162.859c19.582 0 35.457 15.874 35.457 35.456v1.895h-70.913v-1.895c0-19.582 15.874-35.456 35.456-35.456z" fill="#a2aee6"/><path d="m178.928 162.858c-3.922 0-7.691.646-11.217 1.822 14.082 4.695 24.239 17.974 24.239 33.635v1.895h22.434v-1.895c0-19.582-15.874-35.457-35.456-35.457z" fill="#8795de"/></g><g><path d="m333.073 162.859c-14.692 0-26.601-11.91-26.601-26.601v-8.179h53.203v8.179c-.001 14.691-11.911 26.601-26.602 26.601z" fill="#fed2a4"/><path d="m337.24 128.078v8.179c0 10.682-6.3 19.889-15.384 24.121 3.409 1.588 7.208 2.48 11.217 2.48 14.692 0 26.601-11.91 26.601-26.601v-8.179z" fill="#ffbd86"/><path d="m339.944 100.165h-13.743c-10.897 0-19.73 8.833-19.73 19.73v16.363l26.601-8.179 26.601 8.179v-16.363c.001-10.897-8.833-19.73-19.729-19.73z" fill="#d19a6e"/><g><path d="m339.944 100.165h-13.743c-1.495 0-2.946.181-4.346.496 8.803 1.982 15.384 9.833 15.384 19.234v9.464l22.434 6.898v-16.363c.001-10.896-8.832-19.729-19.729-19.729z" fill="#c38c66"/></g><path d="m333.072 162.859c19.582 0 35.457 15.874 35.457 35.456v1.895h-70.913v-1.895c0-19.582 15.874-35.456 35.456-35.456z" fill="#fe5694"/><path d="m333.073 162.858c-3.922 0-7.691.646-11.217 1.822 14.083 4.695 24.239 17.974 24.239 33.635v1.895h22.434v-1.895c0-19.582-15.874-35.457-35.456-35.457z" fill="#fd3581"/></g></g><g><g><path d="m117.39 350.873c-14.692 0-26.601-11.91-26.601-26.601v-8.179h53.203v8.179c-.001 14.692-11.911 26.601-26.602 26.601z" fill="#fed2a4"/><path d="m121.557 316.093v8.179c0 10.682-6.3 19.889-15.384 24.121 3.409 1.588 7.208 2.48 11.217 2.48 14.692 0 26.601-11.91 26.601-26.601v-8.179z" fill="#ffbd86"/><path d="m117.39 288.18c-14.692 0-26.601 11.91-26.601 26.601v1.312l53.203 8.179v-9.491c-.001-14.692-11.911-26.601-26.602-26.601z" fill="#5d5360"/><path d="m117.39 288.18c-4.009 0-7.808.892-11.217 2.48 9.084 4.232 15.384 13.438 15.384 24.121v6.042l22.434 3.449v-9.491c0-14.692-11.91-26.601-26.601-26.601z" fill="#4b3f4e"/><g fill="#a6e7f0"><path d="m117.39 350.873c19.582 0 35.457 15.874 35.457 35.456v1.895h-70.914v-1.895c0-19.581 15.875-35.456 35.457-35.456z"/><path d="m152.846 388.225h-70.913"/><path d="m152.846 388.225h-70.913"/></g><path d="m117.39 350.873c-3.922 0-7.691.646-11.217 1.822 14.082 4.695 24.239 17.974 24.239 33.635v1.895h22.434v-1.895c0-19.582-15.874-35.457-35.456-35.457z" fill="#6bd9e7"/></g><g><path d="m256 350.873c-14.692 0-26.601-11.91-26.601-26.601v-8.179h53.203v8.179c-.001 14.692-11.91 26.601-26.602 26.601z" fill="#fed2a4"/><path d="m260.167 316.093v8.179c0 10.682-6.3 19.889-15.384 24.121 3.409 1.588 7.208 2.48 11.217 2.48 14.692 0 26.601-11.91 26.601-26.601v-8.179z" fill="#ffbd86"/><path d="m266.351 288.18h-20.702c-8.975 0-16.251 7.276-16.251 16.251v11.663h53.203v-11.664c0-8.975-7.275-16.25-16.25-16.25z" fill="#d19a6e"/><path d="m266.351 288.18h-20.702c-.292 0-.578.029-.866.044 8.569.453 15.384 7.524 15.384 16.207v11.663h22.434v-11.664c0-8.975-7.275-16.25-16.25-16.25z" fill="#c38c66"/><path d="m256 350.873c19.582 0 35.457 15.874 35.457 35.456v1.895h-70.913v-1.895c-.001-19.581 15.874-35.456 35.456-35.456z" fill="#ffe270"/><path d="m256 350.873c-3.922 0-7.691.646-11.217 1.822 14.082 4.695 24.239 17.974 24.239 33.635v1.895h22.434v-1.895c.001-19.582-15.874-35.457-35.456-35.457z" fill="#ffd15b"/></g><g><path d="m394.61 350.873c-14.692 0-26.601-11.91-26.601-26.601v-8.179h53.203v8.179c0 14.692-11.91 26.601-26.602 26.601z" fill="#fed2a4"/><path d="m398.777 316.093v8.179c0 10.682-6.3 19.889-15.384 24.121 3.409 1.588 7.208 2.48 11.217 2.48 14.691 0 26.601-11.91 26.601-26.601v-8.179z" fill="#ffbd86"/><path d="m404.961 288.18h-37.736c-4.171 0-7.552 3.381-7.552 7.552v12.81c0 4.171 3.381 7.552 7.552 7.552h53.986v-11.664c.001-8.975-7.275-16.25-16.25-16.25z" fill="#5d5360"/><path d="m404.961 288.18h-22.435c8.975 0 16.251 7.276 16.251 16.25v11.663h22.434v-11.663c.001-8.975-7.275-16.25-16.25-16.25z" fill="#4b3f4e"/><path d="m394.61 350.873c19.582 0 35.457 15.874 35.457 35.456v1.895h-70.913v-1.895c0-19.581 15.874-35.456 35.456-35.456z" fill="#a2aee6"/><path d="m394.61 350.873c-3.922 0-7.691.646-11.217 1.822 14.082 4.695 24.239 17.974 24.239 33.635v1.895h22.435v-1.895c0-19.582-15.875-35.457-35.457-35.457z" fill="#8795de"/><g fill="#a2aee6"><path d="m430.067 388.225h-70.913"/><path d="m430.067 388.225h-70.913"/></g></g></g></g><g><path d="m488.093 246.139c-12.941-17.219-30.568-30.771-50.395-38.912 10.949-15.531 16.882-34.088 16.882-53.251.124-19.866-6.13-38.874-18.084-54.969-11.432-15.39-27.679-27.154-45.751-33.125-3.934-1.296-8.175.835-9.474 4.769-1.3 3.933.835 8.175 4.769 9.475 15.165 5.01 28.808 14.892 38.414 27.826 9.999 13.462 15.229 29.345 15.126 45.978 0 19.159-7.049 37.561-19.849 51.816-1.712 1.905-2.332 4.552-1.646 7.02.686 2.467 2.583 4.414 5.032 5.163 20.938 6.402 39.755 19.621 52.983 37.223 13.673 18.19 20.9 39.87 20.9 62.695 0 57.607-46.866 104.473-104.473 104.473-24.211 0-47.81-8.47-66.447-23.85-3.181-2.625-7.883-2.189-10.527.974-14.805 17.708-36.511 27.864-59.553 27.864-23.041 0-44.748-10.156-59.553-27.864-2.646-3.164-7.348-3.598-10.527-.974-18.639 15.38-42.237 23.85-66.447 23.85-57.607 0-104.473-46.866-104.473-104.473 0-22.825 7.227-44.504 20.898-62.695 13.229-17.602 32.045-30.821 52.983-37.223 2.449-.749 4.347-2.696 5.033-5.163.686-2.468.065-5.115-1.646-7.02-12.8-14.255-19.849-32.657-19.849-51.835-.055-21.271 8.446-41.158 23.938-55.998 15.482-14.831 35.695-22.464 56.934-21.496 2.919.131 5.673-1.456 7.014-4.066 17.997-35.052 53.632-56.827 93.001-56.827 39.528 0 75.229 21.905 93.172 57.166 1.879 3.692 6.396 5.16 10.086 3.283 3.691-1.878 5.161-6.394 3.283-10.086-20.515-40.319-61.338-65.365-106.54-65.365-43.438 0-82.902 23.18-104.104 60.812-23.612.121-45.909 9.163-63.221 25.746-18.484 17.706-28.627 41.454-28.562 66.849 0 19.203 5.933 37.767 16.882 53.298-19.826 8.14-37.454 21.693-50.395 38.912-15.64 20.811-23.907 45.607-23.907 71.708 0 65.878 53.595 119.473 119.473 119.473 25.285 0 49.988-8.081 70.323-22.883 5.804 5.942 12.32 11.017 19.354 15.15v74.391c0 4.142 3.358 7.5 7.5 7.5s7.5-3.358 7.5-7.5v-67.304c10.076 3.689 20.835 5.635 31.85 5.635s21.774-1.946 31.85-5.635v67.304c0 4.142 3.357 7.5 7.5 7.5s7.5-3.358 7.5-7.5v-74.39c7.035-4.133 13.551-9.208 19.355-15.15 20.334 14.802 45.037 22.883 70.322 22.883 65.877-.001 119.473-53.596 119.473-119.474 0-26.101-8.267-50.897-23.907-71.708z"/><path d="m367.174 136.257v-16.363c0-15.015-12.215-27.23-27.229-27.23h-13.743c-14.75-.1-27.582 12.685-27.23 27.913h-85.942v-4.163c0-13.096-10.654-23.75-23.75-23.75h-20.702c-13.096 0-23.75 10.654-23.75 23.75v19.842c0 10.153 4.465 19.278 11.529 25.531-12.223 7.581-20.384 21.116-20.384 36.527v1.895c0 4.142 3.358 7.5 7.5 7.5s7.5-3.358 7.5-7.5v-1.895c0-15.416 12.542-27.957 27.957-27.957s27.957 12.541 27.957 27.957v1.895c0 4.142 3.358 7.5 7.5 7.5s7.5-3.358 7.5-7.5v-1.895c0-15.411-8.161-28.946-20.385-36.527 6.58-5.631 11.772-16.069 11.529-26.21h35.469v145.103h-2.851c-13.096 0-23.75 10.654-23.75 23.75v19.842c0 10.153 4.465 19.278 11.529 25.531-12.223 7.581-20.384 21.116-20.384 36.527v1.896c0 4.142 3.358 7.5 7.5 7.5s7.5-3.358 7.5-7.5v-1.896c0-15.415 12.542-27.956 27.957-27.956s27.956 12.541 27.956 27.956v1.896c0 4.142 3.357 7.5 7.5 7.5s7.5-3.358 7.5-7.5v-1.896c0-15.41-8.161-28.945-20.384-36.527 7.064-6.253 11.529-15.378 11.529-25.531v-19.842c0-13.096-10.654-23.75-23.751-23.75h-2.851v-26.711h121.22c1.318 0 2.391 1.073 2.391 2.391v24.32h-19.885c-8.3 0-15.052 6.752-15.052 15.051v12.81c0 5.884 3.402 10.977 8.335 13.45-.71 9.559 3.986 21.431 11.529 27.811-12.223 7.581-20.385 21.116-20.385 36.527v1.896c0 4.142 3.357 7.5 7.5 7.5s7.5-3.358 7.5-7.5v-1.896c0-15.415 12.541-27.956 27.957-27.956 15.415 0 27.956 12.541 27.956 27.956v1.896c0 4.142 3.357 7.5 7.5 7.5s7.5-3.358 7.5-7.5v-1.896c0-15.41-8.161-28.945-20.384-36.527 7.064-6.253 11.53-15.378 11.53-25.531v-19.841c.121-13.761-12.491-25.007-26.602-23.75v-24.32c0-9.589-7.802-17.391-17.391-17.391h-121.219v-103.391h35.471c-.301 9.094 4.284 19.995 11.529 26.21-12.223 7.581-20.384 21.116-20.384 36.527v1.895c0 4.142 3.357 7.5 7.5 7.5s7.5-3.358 7.5-7.5v-1.895c0-15.416 12.541-27.957 27.956-27.957 15.416 0 27.957 12.541 27.957 27.957v1.895c0 4.142 3.357 7.5 7.5 7.5s7.5-3.358 7.5-7.5v-1.895c0-15.411-8.161-28.946-20.385-36.527 7.064-6.253 11.53-15.378 11.53-25.531zm-130.276 188.015v-.679h38.203c.478 10.09-8.367 19.804-19.102 19.781-10.532 0-19.101-8.569-19.101-19.102zm38.204-19.842v4.163h-38.203v-4.163c0-4.825 3.925-8.75 8.75-8.75h20.702c4.825 0 8.751 3.925 8.751 8.75zm100.407 19.842v-.679h38.203c.478 10.09-8.367 19.804-19.102 19.781-10.532 0-19.101-8.569-19.101-19.102zm38.203-19.842v4.155l-46.538-.044.052-12.861h37.735c4.825 0 8.751 3.925 8.751 8.75zm-99.741-184.535c0-6.744 5.486-12.23 12.23-12.23h13.743c6.743 0 12.229 5.486 12.229 12.23v6.21l-16.897-5.196c-.718-.221-1.461-.331-2.204-.331s-1.486.11-2.204.331l-16.897 5.196zm-154.145-3.48c0-4.825 3.925-8.75 8.75-8.75h20.702c4.825 0 8.75 3.925 8.75 8.75v4.163h-38.203v-4.163zm0 19.842v-.68h38.203c.476 10.092-8.365 19.803-19.102 19.781-10.532 0-19.101-8.568-19.101-19.101zm154.91 5.306 18.336-5.638 18.336 5.638c-2.307 7.957-9.646 13.796-18.336 13.796s-16.029-5.84-18.336-13.796z"/><path d="m127.281 253.969h93.616c4.142 0 7.5-3.358 7.5-7.5s-3.358-7.5-7.5-7.5h-93.616c-9.589 0-17.391 7.802-17.391 17.391v25.161c-15.185 3.275-27.203 18.01-26.601 34.572v8.179c0 10.153 4.465 19.278 11.529 25.531-12.223 7.581-20.385 21.116-20.385 36.527v1.896c0 4.142 3.358 7.5 7.5 7.5s7.5-3.358 7.5-7.5v-1.896c0-15.415 12.542-27.956 27.957-27.956s27.957 12.541 27.957 27.956v1.896c0 4.142 3.358 7.5 7.5 7.5s7.5-3.358 7.5-7.5v-1.896c0-15.41-8.161-28.946-20.384-36.527 7.064-6.253 11.529-15.378 11.529-25.531v-8.179c.74-16.034-11.066-31.165-26.602-34.572v-25.161c0-1.318 1.072-2.391 2.391-2.391zm-28.964 70.87 37.095 5.703c-2.603 7.458-9.689 12.832-18.023 12.832-10.34 0-18.768-8.266-19.072-18.535zm38.174-10.058v.75l-37.533-5.77c2.21-8.104 9.636-14.081 18.432-14.081 10.532 0 19.101 8.569 19.101 19.101z"/></g></g></svg>