<svg id="Capa_1" enable-background="new 0 0 512 512" height="512" viewBox="0 0 512 512" width="512" xmlns="http://www.w3.org/2000/svg"><g><g><g><path d="m7.5 217.812v20.337h154.959v-41.232h-134.064c-11.54 0-20.895 9.355-20.895 20.895z" fill="#42c3fc"/></g><g><path d="m52.995 196.917h-24.6c-11.54 0-20.895 9.355-20.895 20.895v20.337h24.6v-20.337c0-11.54 9.355-20.895 20.895-20.895z" fill="#1aa9e8"/></g><g><path d="m349.541 238.149v-41.232h134.064c11.54 0 20.895 9.355 20.895 20.895v20.337z" fill="#42c3fc"/></g><g><path d="m483.605 196.917h-134.064v41.232h154.959v-20.337c0-11.54-9.355-20.895-20.895-20.895z" fill="#42c3fc"/></g><g><path d="m349.541 196.917h42.021v41.232h-42.021z" fill="#1aa9e8"/></g><g><path d="m366.563 238.149v-134.044c0-11.046-8.954-20-20-20h-181.126c-11.046 0-20 8.954-20 20v134.044h-137.937v246.351c0 11.046 8.954 20 20 20h117.937 17.021 187.083 17.021 117.938c11.046 0 20-8.954 20-20v-246.351z" fill="#e9efff"/></g><g><path d="m31.98 484.5v-246.351h-24.48v246.351c0 11.046 8.954 20 20 20h24.48c-11.046 0-20-8.954-20-20z" fill="#d3dcfb"/></g><g><path d="m346.563 84.105h-156.646-24.48c-11.046 0-20 8.954-20 20v134.044h-25v266.351h25 24.48v-363.312c0-5.963 7.492-8.494 11.199-3.823 17.518 22.079 44.575 36.262 74.884 36.262 50.463 0 91.909-39.318 95.329-88.927-1.53-.375-3.121-.595-4.766-.595z" fill="#d3dcfb"/></g><g><path d="m366.563 238.149h25v266.351h-25z" fill="#d3dcfb"/></g><g><path d="m99.995 504.5v-63.292c0-2.885-2.339-5.224-5.224-5.224h-36.802c-2.885 0-5.224 2.339-5.224 5.224v63.292z" fill="#42c3fc"/></g><g><path d="m94.995 322.592h-37.25c-2.761 0-5-2.239-5-5v-37.25c0-2.761 2.239-5 5-5h37.25c2.761 0 5 2.239 5 5v37.25c0 2.762-2.238 5-5 5z" fill="#ffdd40"/></g><g><path d="m94.995 402.913h-37.25c-2.761 0-5-2.239-5-5v-37.25c0-2.761 2.239-5 5-5h37.25c2.761 0 5 2.239 5 5v37.25c0 2.762-2.238 5-5 5z" fill="#ffdd40"/></g><g><path d="m73.089 435.985h-15.12c-2.885 0-5.224 2.339-5.224 5.224v63.291h15.12v-63.292c.001-2.885 2.339-5.223 5.224-5.223z" fill="#1aa9e8"/></g><g><path d="m67.866 317.592v-37.25c0-2.761 2.239-5 5-5h-15.12c-2.761 0-5 2.239-5 5v37.25c0 2.761 2.239 5 5 5h15.12c-2.762 0-5-2.238-5-5z" fill="#ffc043"/></g><g><path d="m67.866 397.913v-37.25c0-2.761 2.239-5 5-5h-15.12c-2.761 0-5 2.239-5 5v37.25c0 2.761 2.239 5 5 5h15.12c-2.762 0-5-2.238-5-5z" fill="#ffc043"/></g><g><path d="m412.005 504.5v-63.292c0-2.885 2.339-5.224 5.224-5.224h36.802c2.885 0 5.224 2.339 5.224 5.224v63.292z" fill="#42c3fc"/></g><g><path d="m417.005 322.592h37.25c2.761 0 5-2.239 5-5v-37.25c0-2.761-2.239-5-5-5h-37.25c-2.761 0-5 2.239-5 5v37.25c0 2.762 2.238 5 5 5z" fill="#ffdd40"/></g><g><path d="m417.005 402.913h37.25c2.761 0 5-2.239 5-5v-37.25c0-2.761-2.239-5-5-5h-37.25c-2.761 0-5 2.239-5 5v37.25c0 2.762 2.238 5 5 5z" fill="#ffdd40"/></g><g><path d="m432.228 435.985h-15c-2.885 0-5.224 2.339-5.224 5.224v63.291h15v-63.292c0-2.885 2.339-5.223 5.224-5.223z" fill="#1aa9e8"/></g><g><path d="m427.004 317.592v-37.25c0-2.761 2.239-5 5-5h-15c-2.761 0-5 2.239-5 5v37.25c0 2.761 2.239 5 5 5h15c-2.761 0-5-2.238-5-5z" fill="#ffc043"/></g><g><path d="m427.004 397.913v-37.25c0-2.761 2.239-5 5-5h-15c-2.761 0-5 2.239-5 5v37.25c0 2.761 2.239 5 5 5h15c-2.761 0-5-2.238-5-5z" fill="#ffc043"/></g><g><path d="m184.079 393.4h143.842v111.1h-143.842z" fill="#1c8ae5"/></g><g><path d="m184.079 393.4h20.161v111.1h-20.161z" fill="#1e6ee2"/></g><g><path d="m327.921 366.111v27.289h-143.842v-27.289c0-5.77 4.678-10.448 10.448-10.448h122.947c5.77.001 10.447 4.678 10.447 10.448z" fill="#e5979d"/></g><g><path d="m214.686 355.664h-20.16c-5.77 0-10.448 4.678-10.448 10.448v27.288h20.16v-27.289c.001-5.77 4.678-10.447 10.448-10.447z" fill="#e17f85"/></g><g><path d="m219.32 393.4h73.36v111.1h-73.36z" fill="#42c3fc"/></g><g><circle cx="256" cy="78.064" fill="#b3e59f" r="70.564"/></g><g><path d="m207.036 78.064c0-35.299 25.919-64.543 59.764-69.741-3.521-.541-7.128-.823-10.8-.823-38.971 0-70.564 31.592-70.564 70.564 0 38.971 31.592 70.564 70.564 70.564 3.672 0 7.279-.282 10.8-.823-33.845-5.198-59.764-34.442-59.764-69.741z" fill="#95d6a4"/></g><g><path d="m284.2 65.252h-11.435c-2.184 0-3.954-1.77-3.954-3.954v-11.434c0-5.567-4.513-10.08-10.08-10.08h-5.463c-5.567 0-10.08 4.513-10.08 10.08v11.435c0 2.184-1.77 3.954-3.954 3.954h-11.434c-5.567 0-10.08 4.513-10.08 10.08v5.463c0 5.567 4.513 10.08 10.08 10.08h11.435c2.184 0 3.954 1.77 3.954 3.954v11.435c0 5.567 4.513 10.08 10.08 10.08h5.463c5.567 0 10.08-4.513 10.08-10.08v-11.436c0-2.184 1.77-3.954 3.954-3.954h11.434c5.567 0 10.08-4.513 10.08-10.08v-5.463c0-5.567-4.513-10.08-10.08-10.08z" fill="#deecf1"/></g><g><path d="m237.375 316.959h37.25c2.761 0 5-2.239 5-5v-37.25c0-2.761-2.239-5-5-5h-37.25c-2.761 0-5 2.239-5 5v37.25c0 2.762 2.239 5 5 5z" fill="#ffdd40"/></g><g><path d="m247.975 311.959v-37.25c0-2.761 2.239-5 5-5h-15.6c-2.761 0-5 2.239-5 5v37.25c0 2.761 2.239 5 5 5h15.6c-2.761 0-5-2.238-5-5z" fill="#ffc043"/></g><g><path d="m237.375 235.293h37.25c2.761 0 5-2.239 5-5v-37.25c0-2.761-2.239-5-5-5h-37.25c-2.761 0-5 2.239-5 5v37.25c0 2.762 2.239 5 5 5z" fill="#ffdd40"/></g><g><path d="m247.975 230.293v-37.25c0-2.761 2.239-5 5-5h-15.6c-2.761 0-5 2.239-5 5v37.25c0 2.761 2.239 5 5 5h15.6c-2.761 0-5-2.238-5-5z" fill="#ffc043"/></g></g><g><path d="m57.746 330.092h37.249c6.893 0 12.5-5.607 12.5-12.5v-37.25c0-6.893-5.607-12.5-12.5-12.5h-37.249c-6.893 0-12.5 5.607-12.5 12.5v37.25c0 6.893 5.608 12.5 12.5 12.5zm2.5-47.25h32.249v32.25h-32.249z"/><path d="m57.746 410.414h37.249c6.893 0 12.5-5.607 12.5-12.5v-37.25c0-6.893-5.607-12.5-12.5-12.5h-37.249c-6.893 0-12.5 5.607-12.5 12.5v37.25c0 6.892 5.608 12.5 12.5 12.5zm2.5-47.25h32.249v32.25h-32.249z"/><path d="m454.254 267.842h-37.249c-6.893 0-12.5 5.607-12.5 12.5v37.25c0 6.893 5.607 12.5 12.5 12.5h37.249c6.893 0 12.5-5.607 12.5-12.5v-37.25c0-6.892-5.608-12.5-12.5-12.5zm-2.5 47.25h-32.249v-32.25h32.249z"/><path d="m454.254 348.164h-37.249c-6.893 0-12.5 5.607-12.5 12.5v37.25c0 6.893 5.607 12.5 12.5 12.5h37.249c6.893 0 12.5-5.607 12.5-12.5v-37.25c0-6.893-5.608-12.5-12.5-12.5zm-2.5 47.25h-32.249v-32.25h32.249z"/><path d="m253.269 123.844h5.463c9.693 0 17.58-7.886 17.58-17.58v-7.889h7.889c9.693 0 17.58-7.886 17.58-17.58v-5.463c0-9.694-7.887-17.58-17.58-17.58h-7.889v-7.889c0-9.694-7.887-17.58-17.58-17.58h-5.463c-9.693 0-17.58 7.886-17.58 17.58v7.889h-7.889c-9.693 0-17.58 7.886-17.58 17.58v5.463c0 9.693 7.887 17.58 17.58 17.58h7.889v7.889c-.001 9.694 7.886 17.58 17.58 17.58zm-25.469-40.469c-1.423 0-2.58-1.157-2.58-2.58v-5.463c0-1.423 1.157-2.58 2.58-2.58h11.435c6.315 0 11.454-5.138 11.454-11.454v-11.434c0-1.423 1.157-2.58 2.58-2.58h5.463c1.423 0 2.58 1.157 2.58 2.58v11.435c0 6.316 5.139 11.454 11.454 11.454h11.434c1.423 0 2.58 1.157 2.58 2.58v5.463c0 1.422-1.157 2.58-2.58 2.58h-11.435c-6.315 0-11.454 5.138-11.454 11.454v11.435c0 1.422-1.157 2.58-2.58 2.58h-5.463c-1.423 0-2.58-1.157-2.58-2.58v-11.436c0-6.316-5.139-11.454-11.454-11.454z"/><path d="m274.625 262.209h-37.25c-6.893 0-12.5 5.607-12.5 12.5v37.25c0 6.893 5.607 12.5 12.5 12.5h37.25c6.893 0 12.5-5.607 12.5-12.5v-37.25c0-6.892-5.607-12.5-12.5-12.5zm-2.5 47.25h-32.25v-32.25h32.25z"/><path d="m274.625 180.543h-37.25c-6.893 0-12.5 5.607-12.5 12.5v37.25c0 6.893 5.607 12.5 12.5 12.5h37.25c6.893 0 12.5-5.607 12.5-12.5v-37.25c0-6.892-5.607-12.5-12.5-12.5zm-2.5 47.25h-32.25v-32.25h32.25z"/><path d="m483.604 189.417h-86.764c-4.143 0-7.5 3.358-7.5 7.5s3.357 7.5 7.5 7.5h86.765c7.387 0 13.396 6.009 13.396 13.396v12.836h-122.939v-126.544c0-15.164-12.337-27.5-27.5-27.5h-12.534c-.364-19.844-8.114-38.564-21.954-52.851-2.88-2.974-7.628-3.051-10.605-.168-2.975 2.882-3.05 7.63-.168 10.605 11.454 11.824 17.763 27.405 17.763 43.874 0 34.773-28.29 63.063-63.063 63.063s-63.063-28.29-63.063-63.063 28.289-63.065 63.062-63.065c8.517 0 16.774 1.667 24.545 4.953 3.816 1.613 8.216-.171 9.829-3.986 1.614-3.815-.171-8.216-3.985-9.83-9.63-4.072-19.854-6.137-30.389-6.137-42.555 0-77.243 34.234-78.026 76.605h-12.536c-15.163 0-27.5 12.336-27.5 27.5v85.312h-109.542c-15.658 0-28.396 12.738-28.396 28.395v20.336 246.352c0 15.164 12.337 27.5 27.5 27.5h457c15.163 0 27.5-12.336 27.5-27.5v-246.351-20.336c0-15.658-12.738-28.396-28.396-28.396zm-468.604 295.083v-238.851h99.6c4.143 0 7.5-3.358 7.5-7.5s-3.357-7.5-7.5-7.5h-99.6v-12.836c0-7.386 6.009-13.396 13.396-13.396h109.542v292.583h-30.442v-55.792c0-7.016-5.708-12.724-12.724-12.724h-36.802c-7.016 0-12.724 5.708-12.724 12.724v55.792h-17.746c-6.893 0-12.5-5.607-12.5-12.5zm45.246 12.5v-53.515h32.249v53.515zm188.254-96.1v40.549h-3.021c-4.143 0-7.5 3.358-7.5 7.5s3.357 7.5 7.5 7.5h3.021v40.551h-21.68v-96.1zm18.02 40.55h-3.02v-40.55h21.68v96.1h-21.68v-40.55h3.02c4.143 0 7.5-3.358 7.5-7.5s-3.358-7.5-7.5-7.5zm33.66 55.55v-96.1h20.241v96.1zm20.241-111.1h-128.842v-19.789c0-1.625 1.322-2.948 2.947-2.948h122.947c1.625 0 2.947 1.322 2.947 2.948v19.789zm-128.842 15h20.241v96.1h-20.241zm227.926 96.1v-53.515h32.249v53.515zm64.995 0h-17.746v-55.792c0-7.016-5.708-12.724-12.724-12.724h-36.802c-7.016 0-12.724 5.708-12.724 12.724v55.792h-30.442v-167.68c0-4.142-3.357-7.5-7.5-7.5s-7.5 3.358-7.5 7.5v167.68h-23.642v-130.889c0-9.896-8.051-17.948-17.947-17.948h-122.947c-9.896 0-17.947 8.051-17.947 17.948v130.889h-23.642v-392.895c0-6.893 5.607-12.5 12.5-12.5h13.699c6.433 36.609 38.439 64.522 76.864 64.522 38.424 0 70.431-27.913 76.864-64.522h13.699c6.893 0 12.5 5.607 12.5 12.5v194.862c0 4.142 3.357 7.5 7.5 7.5s7.5-3.358 7.5-7.5v-53.318h122.937v238.851c0 6.893-5.607 12.5-12.5 12.5z"/></g></g></svg>