<svg id="Layer_1" enable-background="new 0 0 512 512" height="512" viewBox="0 0 512 512" width="512" xmlns="http://www.w3.org/2000/svg"><g><path clip-rule="evenodd" d="m102.062 329.856v-297.972c0-2.389-.629-4.653-2.012-6.665-1.383-1.887-3.899-3.521-7.546-4.779-3.773-1.132-8.552-2.138-14.337-2.893s-13.205-1.132-22.261-1.132c-8.929 0-16.35.377-22.26 1.132-5.911.755-10.69 1.761-14.212 2.893-3.521 1.258-6.037 2.892-7.42 4.779-1.385 2.011-2.014 4.275-2.014 6.665v424.966c0 12.577 3.27 22.135 9.936 28.801s15.47 9.935 26.663 9.935h23.77 7.923c11.319 0 21.129-.88 29.178-2.767 8.175-1.886 15.218-4.905 21.129-9.181 5.785-4.276 10.816-9.936 14.715-16.979s7.42-15.721 10.313-26.034l102.752-284.107h1.509l106.399 283.479c3.144 10.313 6.666 18.991 10.439 26.159 3.899 7.043 8.3 12.828 13.331 17.23s11.068 7.546 17.859 9.432c6.917 1.887 14.966 2.767 24.022 2.767h11.696 22.009c6.666 0 12.305-.936 17.104-2.641 4.759-1.691 8.804-4.151 11.822-7.546 3.144-3.27 5.408-7.294 7.043-12.073s2.39-10.313 2.39-16.476v-424.965c0-2.389-.629-4.653-2.012-6.665-1.384-1.887-3.899-3.521-7.421-4.779-3.522-1.132-8.3-2.138-14.212-2.893s-13.457-1.132-22.512-1.132c-8.929 0-16.35.377-22.26 1.132-5.911.755-10.565 1.761-14.086 2.893-3.396 1.258-5.911 2.892-7.294 4.779-1.509 2.012-2.264 4.276-2.264 6.665v301.104l-106.778-300.727c-1.006-3.144-2.515-5.785-4.779-7.923s-5.157-3.773-9.055-5.031c-3.773-1.132-8.678-2.013-14.463-2.39-5.911-.377-13.08-.503-21.38-.503-8.427 0-15.47.252-21.381.88-5.911.629-10.816 1.635-14.589 3.019s-6.792 3.018-9.056 4.905c-2.138 2.012-3.647 4.402-4.402 7.043z" fill="#88df8e" fill-rule="evenodd"/><g><path d="m508.229 19.554c-.058-.084-.117-.168-.178-.25-2.607-3.555-6.686-6.341-12.122-8.283-.1-.036-.2-.069-.301-.102-4.274-1.375-9.659-2.482-16.007-3.292-6.303-.805-14.303-1.212-23.778-1.212-9.309 0-17.224.408-23.527 1.212-6.209.793-11.552 1.9-15.881 3.292-.138.044-.275.092-.411.142-5.298 1.962-9.285 4.72-11.853 8.198-2.77 3.71-4.233 8.075-4.233 12.625v243.052l-87.304-245.885c-1.581-4.865-3.998-8.787-7.384-11.983-3.389-3.201-7.593-5.582-12.852-7.278-.065-.021-.131-.042-.196-.061-4.742-1.423-10.512-2.388-16.699-2.791-5.591-.357-12.588-.523-22.018-.523-9.299 0-16.429.297-22.439.937-6.755.719-12.466 1.921-16.973 3.573-4.904 1.798-8.834 3.961-12.015 6.612-.154.128-.305.262-.451.399-3.374 3.175-5.818 7.076-7.081 11.295l-82.464 240.605v-237.952c0-4.479-1.305-8.743-3.772-12.332-.057-.083-.116-.165-.175-.246-2.645-3.607-6.8-6.406-12.352-8.32-.127-.044-.256-.085-.385-.124-4.514-1.354-9.87-2.442-15.919-3.231-6.274-.819-13.979-1.217-23.554-1.217-9.309 0-17.224.408-23.527 1.212-6.348.811-11.733 1.918-16.006 3.292-.101.033-.202.066-.301.102-5.437 1.941-9.516 4.729-12.122 8.284-.06.081-.118.163-.175.246-2.469 3.591-3.774 7.855-3.774 12.334v424.966c0 15.266 4.328 27.335 12.864 35.872s19.885 12.865 33.734 12.865h31.693c12.297 0 22.882-1.02 31.427-3.023 9.53-2.199 17.854-5.84 24.741-10.822.028-.02.055-.04.083-.06 7.131-5.271 13.026-12.06 17.52-20.178 4.375-7.903 8.106-17.26 11.091-27.817l25.662-70.955c1.878-5.193-.809-10.926-6.003-12.805-5.193-1.878-10.926.809-12.805 6.003l-25.785 71.296c-.083.23-.158.464-.225.7-2.584 9.214-5.758 17.252-9.434 23.891-3.086 5.575-7.08 10.202-11.871 13.752-4.767 3.438-10.483 5.894-17.506 7.515-7.084 1.661-16.133 2.503-26.896 2.503h-31.692c-8.586 0-14.812-2.227-19.591-7.006-4.715-4.716-7.007-11.824-7.007-21.731v-424.966c0-.341.048-.568.106-.725.295-.22 1.044-.701 2.543-1.25 2.167-.684 6.021-1.647 12.261-2.444 5.466-.697 12.529-1.051 20.995-1.051 8.581 0 15.635.353 20.967 1.048 4.885.637 9.107 1.477 12.554 2.495 1.488.529 2.234.994 2.533 1.21.056.156.103.381.103.717v297.973c0 4.889 3.534 9.061 8.356 9.864 4.824.798 9.518-1.998 11.104-6.622l101.997-297.596c.056-.163.107-.328.155-.494.229-.8.708-1.573 1.428-2.302.998-.779 2.786-1.879 5.856-3.005 2.042-.749 5.817-1.784 12.204-2.463 5.29-.562 11.748-.824 20.324-.824 8.996 0 15.586.153 20.729.482 5.842.381 9.813 1.269 12.141 1.959 3.078 1.006 4.419 2.051 5.163 2.753.576.544 1.423 1.519 2.12 3.7.032.1.065.2.101.298l106.775 300.727c1.63 4.586 6.327 7.334 11.121 6.509 4.798-.827 8.303-4.987 8.303-9.855v-301.104c0-.136 0-.304.244-.638.156-.135.861-.693 2.591-1.354 3.097-.973 7.266-1.811 12.075-2.425 5.467-.697 12.53-1.051 20.995-1.051 8.632 0 15.78.354 21.246 1.051 6.239.797 10.093 1.76 12.261 2.444 1.499.548 2.248 1.029 2.544 1.25.059.157.106.384.106.725v424.964c0 5.193-.623 9.648-1.851 13.238-1.216 3.55-2.782 6.292-4.791 8.38-.091.095-.18.191-.268.29-1.751 1.97-4.339 3.574-7.693 4.765-3.854 1.37-8.483 2.064-13.757 2.064h-33.705c-8.321 0-15.518-.813-21.345-2.402-5.426-1.507-10.12-3.971-13.95-7.322-3.987-3.49-7.728-8.353-11.116-14.455-3.573-6.808-6.828-14.991-9.674-24.326-.062-.201-.129-.4-.203-.598l-106.398-283.479c-1.465-3.901-5.195-6.486-9.362-6.486h-1.51c-4.211 0-7.972 2.639-9.404 6.599l-46.35 128.157c-1.878 5.193.809 10.926 6.003 12.805 5.192 1.879 10.927-.809 12.805-6.003l37.861-104.685 97.521 259.827c3.203 10.452 6.925 19.735 11.061 27.595.033.063.066.125.101.187 4.591 8.292 9.659 14.805 15.495 19.913 6.106 5.342 13.431 9.225 21.813 11.553 7.587 2.07 16.555 3.12 26.653 3.12h33.705c7.561 0 14.442-1.083 20.453-3.218 6.494-2.308 11.813-5.731 15.814-10.177 4.008-4.211 7.007-9.326 9.164-15.629 1.942-5.68 2.928-12.312 2.928-19.712v-424.967c-.001-4.477-1.304-8.74-3.772-12.33z"/><path d="m194.727 317.004h-.007c-5.523 0-9.996 4.477-9.996 10s4.48 10 10.003 10 10-4.477 10-10-4.477-10-10-10z"/></g></g></svg>