<svg id="Capa_1" enable-background="new 0 0 512 512" height="512" viewBox="0 0 512 512" width="512" xmlns="http://www.w3.org/2000/svg"><g><g><path d="m489.685 479.652h-467.37c-8.182 0-14.815-6.633-14.815-14.815v-290.292c0-8.182 6.633-14.815 14.815-14.815h467.369c8.182 0 14.815 6.633 14.815 14.815v290.292c.001 8.182-6.632 14.815-14.814 14.815z" fill="#d19a6e"/><path d="m489.685 159.73h-18.607c8.182 0 14.815 6.633 14.815 14.815v290.292c0 8.182-6.633 14.815-14.815 14.815h18.607c8.182 0 14.815-6.633 14.815-14.815v-290.292c0-8.182-6.633-14.815-14.815-14.815z" fill="#c38c66"/><path d="m126.039 101.191h259.922v437h-259.922z" fill="#daf3f6" transform="matrix(0 1 -1 0 575.691 63.691)"/><path d="m453.318 189.73h21.182v259.922h-21.182z" fill="#a6e7f0"/><circle cx="256" cy="79.734" fill="#cdbfba" r="15.29"/><g><path d="m406.472 382.378c-12.716 0-23.025-10.308-23.025-23.025v-15.735h46.049v15.735c.001 12.717-10.308 23.025-23.024 23.025z" fill="#ffe5c2"/><path d="m408.315 343.618v15.735c0 8.896-5.049 16.608-12.434 20.442 3.171 1.646 6.771 2.582 10.591 2.582 12.716 0 23.025-10.308 23.025-23.025v-15.735h-21.182z" fill="#fed2a4"/><path d="m418.892 382.378h-24.839c-15.037 0-27.227 12.19-27.227 27.227v40.048h79.292v-40.048c0-15.037-12.19-27.227-27.226-27.227z" fill="#a6e7f0"/><path d="m418.892 382.378h-21.182c15.037 0 27.227 12.19 27.227 27.227v40.048h21.182v-40.048c-.001-15.037-12.191-27.227-27.227-27.227z" fill="#6bd9e7"/><path d="m429.497 343.618v-14.947c0-6.193-5.02-11.213-11.213-11.213h-36.162c-7.224 0-13.08 5.856-13.08 13.08 0 7.224 5.856 13.08 13.08 13.08z" fill="#5d5360"/><path d="m418.284 317.458h-21.182c6.193 0 11.213 5.02 11.213 11.213v14.947h21.182v-14.947c0-6.192-5.02-11.213-11.213-11.213z" fill="#4b3f4e"/></g><g><path d="m194.418 360.456h-10.178c-15.7 0-28.427-12.727-28.427-28.427v-27.993h67.031v27.993c.001 15.7-12.726 28.427-28.426 28.427z" fill="#ffe5c2"/><path d="m201.663 304.036v27.993c0 13.817-9.859 25.327-22.925 27.89 1.781.349 3.619.537 5.502.537h10.177c15.7 0 28.427-12.727 28.427-28.427v-27.993z" fill="#fed2a4"/><path d="m221.269 360.459h-63.879c-15.037 0-27.227 12.19-27.227 27.227v61.967h118.331v-61.967c.001-15.037-12.189-27.227-27.225-27.227z" fill="#8795de"/><path d="m158.971 360.459h60.717v89.193h-60.717z" fill="#a2aee6"/><path d="m157.39 360.459c-15.037 0-27.226 12.19-27.226 27.227v61.967h28.807v-89.193h-1.581z" fill="#a2aee6"/><path d="m222.845 304.036v-17.137c0-9.958-8.073-18.031-18.031-18.031h-30.969c-9.958 0-18.031 8.073-18.031 18.031v17.137z" fill="#5d5360"/><path d="m204.814 268.868h-21.182c9.958 0 18.031 8.073 18.031 18.031v17.137h21.182v-17.137c0-9.958-8.073-18.031-18.031-18.031z" fill="#4b3f4e"/></g><g><circle cx="344.016" cy="280.902" fill="#c38c66" r="15.29"/><path d="m312.749 371.66h-10.178c-15.7 0-28.427-12.727-28.427-28.427v-27.993h67.031v27.993c.001 15.7-12.726 28.427-28.426 28.427z" fill="#ffe5c2"/><path d="m319.995 315.24v27.993c0 13.817-9.859 25.327-22.925 27.89 1.781.349 3.619.537 5.502.537h10.178c15.7 0 28.427-12.727 28.427-28.427v-27.993z" fill="#fed2a4"/><path d="m339.6 371.66h-63.878c-15.037 0-27.227 12.19-27.227 27.227v50.766h118.331v-50.766c0-15.037-12.189-27.227-27.226-27.227z" fill="#fd3581"/><path d="m277.302 371.66h60.717v77.992h-60.717z" fill="#fe5694"/><path d="m341.176 315.24v-1.653c0-18.51-15.005-33.515-33.515-33.515-18.51 0-33.515 15.005-33.515 33.515v14.884z" fill="#d19a6e"/><path d="m307.661 280.072c-3.703 0-7.261.609-10.591 1.718 13.318 4.434 22.925 16.99 22.925 31.797v1.653l-45.849 9.051v4.181l67.031-13.232v-1.653c-.001-18.509-15.006-33.515-33.516-33.515z" fill="#c38c66"/></g><g><path d="m107.139 388.378c-12.716 0-23.025-10.308-23.025-23.025v-15.735h46.049v15.735c.001 12.717-10.308 23.025-23.024 23.025z" fill="#ffe5c2"/><path d="m108.982 349.618v15.735c0 8.896-5.049 16.608-12.434 20.442 3.171 1.646 6.771 2.582 10.591 2.582 12.716 0 23.025-10.308 23.025-23.025v-15.735h-21.182z" fill="#fed2a4"/><path d="m120.559 388.378h-26.839c-15.037 0-27.227 12.19-27.227 27.227v34.048h81.292v-34.048c0-15.037-12.19-27.227-27.226-27.227z" fill="#ffe270"/><path d="m120.559 388.378h-21.182c15.037 0 27.227 12.19 27.227 27.227v34.048h21.182v-34.048c-.001-15.037-12.191-27.227-27.227-27.227z" fill="#ffd15b"/><path d="m130.164 349.618v-14.773c0-6.841-5.546-12.387-12.387-12.387h-21.275c-6.841 0-12.387 5.546-12.387 12.387v14.773z" fill="#d19a6e"/><path d="m117.777 322.458h-21.182c6.841 0 12.387 5.546 12.387 12.387v14.773h21.182v-14.773c0-6.841-5.546-12.387-12.387-12.387z" fill="#c38c66"/></g></g><g><path d="m489.685 152.23h-48.675l-152.371-116.374c-19.217-14.678-46.061-14.678-65.277 0l-152.372 116.374h-48.675c-12.304 0-22.315 10.01-22.315 22.315v290.292c0 12.305 10.011 22.315 22.315 22.315h406.232c4.143 0 7.5-3.358 7.5-7.5s-3.357-7.5-7.5-7.5h-406.232c-4.034 0-7.315-3.281-7.315-7.315v-290.292c0-4.034 3.281-7.315 7.315-7.315h51.212 364.945 51.212c4.034 0 7.315 3.282 7.315 7.315v290.292c0 4.034-3.281 7.315-7.315 7.315h-25.969c-4.143 0-7.5 3.358-7.5 7.5s3.357 7.5 7.5 7.5h25.969c12.305 0 22.315-10.01 22.315-22.315v-290.292c.001-12.305-10.01-22.315-22.314-22.315zm-393.981 0 136.763-104.453c13.855-10.583 33.211-10.583 47.066 0l136.763 104.453z"/><path d="m138.188 197.23c4.143 0 7.5-3.358 7.5-7.5s-3.357-7.5-7.5-7.5h-100.688c-4.143 0-7.5 3.358-7.5 7.5v259.922c0 4.142 3.357 7.5 7.5 7.5h437c4.143 0 7.5-3.358 7.5-7.5v-259.922c0-4.142-3.357-7.5-7.5-7.5h-301.128c-4.143 0-7.5 3.358-7.5 7.5s3.357 7.5 7.5 7.5h293.628v244.922h-13.382v-32.548c0-14.798-9.308-27.457-22.374-32.448 3.615-5.015 5.753-11.163 5.753-17.803v-30.682c0-10.318-8.395-18.713-18.713-18.713h-36.162c-11.348 0-20.58 9.232-20.58 20.58 0 9.197 6.066 17.001 14.405 19.631v9.184c0 6.641 2.138 12.788 5.753 17.803-4.022 1.536-7.689 3.796-10.836 6.625-5.316-10.958-16.228-18.712-28.998-19.539 4.278-5.913 6.81-13.169 6.81-21.009v-27.993c.051-3.163-.154-7.077-1.273-11.802 10.966-1.641 19.404-11.121 19.404-22.537 0-12.566-10.224-22.79-22.79-22.79-10.58 0-19.498 7.248-22.053 17.038-4.456-1.663-9.274-2.578-14.302-2.578-22.879-.107-41.851 19.492-41.016 42.668v27.993c0 7.84 2.531 15.096 6.81 21.009-7.938.514-15.155 3.704-20.759 8.68-5.255-11.139-16.258-19.048-29.162-19.884 4.278-5.913 6.81-13.169 6.81-21.009v-45.131c0-14.078-11.453-25.531-25.53-25.531h-30.97c-14.077 0-25.53 11.453-25.53 25.531v45.131c0 7.84 2.531 15.096 6.81 21.009-6.457.418-12.437 2.606-17.46 6.086v-24.279c0-10.966-8.921-19.887-19.887-19.887h-21.276c-10.966 0-19.888 8.921-19.888 19.887v21.29l-14.125 4.755c-3.926 1.321-6.037 5.575-4.716 9.5 1.055 3.132 3.976 5.109 7.107 5.109.793 0 1.601-.127 2.394-.394l10.016-3.372c.869 4.068 2.553 7.836 4.869 11.13-13.481 4.774-23.166 17.644-23.166 32.74v26.548h-13.993v-244.92zm195.488 146.004c0 11.539-9.388 20.927-20.927 20.927h-10.177c-11.539 0-20.927-9.388-20.927-20.927v-8.598l52.03-10.271v18.869zm57.271 16.119v-8.235h31.05v8.235c0 8.561-6.964 15.525-15.524 15.525s-15.526-6.964-15.526-15.525zm-8.825-34.395h36.162c2.047 0 3.713 1.666 3.713 3.713v7.447h-39.875c-3.077 0-5.58-2.503-5.58-5.58s2.503-5.58 5.58-5.58zm11.931 64.92h24.839c10.877 0 19.727 8.849 19.727 19.727v32.548h-64.292v-32.548c-.001-10.878 8.849-19.727 19.726-19.727zm-34.727 9.009v10.718 32.548h-13.806v-35.332c0-4.142-3.357-7.5-7.5-7.5s-7.5 3.358-7.5 7.5v35.332h-45.718v-62.993h15.359v6.421c0 4.142 3.357 7.5 7.5 7.5s7.5-3.358 7.5-7.5v-6.421h22.858c10.687-.883 21.363 8.267 21.307 19.727zm-15.309-125.775c4.296 0 7.79 3.495 7.79 7.79s-3.494 7.79-7.79 7.79-7.79-3.495-7.79-7.79 3.494-7.79 7.79-7.79zm-62.371 40.476c0-14.345 11.671-26.016 26.016-26.016 12.832 0 23.524 9.34 25.636 21.579l-51.651 10.196c-.001-1.902-.001-3.454-.001-5.759zm-11.844 66.483v62.082h-13.802v-43.362c.043-8.773 5.838-16.209 13.802-18.72zm-28.802 7.615-.005 54.466h-13.807v-73.286c7.997 2.52 13.812 10.003 13.812 18.82zm-77.686-55.656v-20.493h52.03v20.493c0 11.539-9.388 20.927-20.927 20.927h-10.177c-11.538-.001-20.926-9.388-20.926-20.927zm0-45.131c0-5.807 4.724-10.531 10.53-10.531h30.97c5.807 0 10.53 4.724 10.53 10.531v9.638h-52.03zm-5.924 81.057c.094.003 24.439.003 24.439.003v6.36c0 4.142 3.357 7.5 7.5 7.5s7.5-3.358 7.5-7.5v-6.36h15.359v74.193h-56.903v-26.548c0-12.879-7.052-24.134-17.493-30.129 1.104-9.84 9.467-17.519 19.598-17.519zm-65.776-2.603v-8.235h31.05v8.235c0 8.561-6.964 15.525-15.524 15.525s-15.526-6.964-15.526-15.525zm0-30.508c0-2.695 2.192-4.887 4.888-4.887h21.275c2.694 0 4.887 2.192 4.887 4.887v7.273h-31.05zm-17.621 80.76c0-10.877 8.85-19.727 19.727-19.727h26.839c10.877 0 19.727 8.849 19.727 19.727v26.548h-66.293z"/><path d="m256 56.944c-12.566 0-22.79 10.224-22.79 22.79s10.224 22.79 22.79 22.79 22.79-10.224 22.79-22.79-10.224-22.79-22.79-22.79zm0 30.58c-4.296 0-7.79-3.495-7.79-7.79s3.494-7.79 7.79-7.79 7.79 3.495 7.79 7.79-3.494 7.79-7.79 7.79z"/></g></g></svg>