<svg id="Capa_1" enable-background="new 0 0 512 512" height="512" viewBox="0 0 512 512" width="512" xmlns="http://www.w3.org/2000/svg"><g><g><path d="m393.5 37.5v30l-139.338 3.794-133.602-3.794v-30l133.82-6.06z" fill="#f8f7f7"/><g><path d="m154.248 91.881h209.252v51.239h-209.252z" fill="#f8f7f7"/></g><g><path d="m148.5 91.881h16v51.239h-16z" fill="#d8d8d8"/></g><path d="m393.5 17.5v20h-275l.986-18.775c0-5.52 4.48-10 10-10l4.014-1.225h250c5.52 0 10 4.48 10 10z" fill="#857e87"/><path d="m393.5 67.5v15l-1.142 3.784c0 5.52-4.48 10-10 10l-251.358-1.981c-5.52 0-10-4.48-10-10l-2.5-16.803z" fill="#857e87"/><path d="m133.5 37.5v30l-7.904 2.665-7.096-2.665v-30l7.5-3.417z" fill="#d8d8d8"/><path d="m398.651 502.303-285.138-3.529c-8.284 0-15-6.716-15-15l-1.073-286.425c0-15.373 3.105-36.066 13.561-45.747 9.452-8.752 22.101-14.101 35.999-14.101h218c29.271 0 53 23.729 53 53v.5l-4.899 16.89 4.899 13.109v200l-6.248 15 6.248 15v36.5l-2.284 2.032c0 8.284-8.78 12.771-17.065 12.771z" fill="#ff8086"/><path d="m418 487.5v2c0 8.284-6.716 15-15 15h-294c-8.284 0-15-6.716-15-15v-38.5l5.917-12.991-5.917-17.009v-200l7.183-15-7.183-15v-.5c0-15.37 6.55-29.22 17-38.9v315.9c0 11.046 8.954 20 20 20z" fill="#e5646e"/><path d="m98.431 191h319.569v30h-319.569z" fill="#f8f7f7"/><path d="m100.743 421h317.257v30h-317.257z" fill="#f8f7f7"/><path d="m94 191h17v30h-17z" fill="#e8e8e8"/><path d="m94 421h17v30h-17z" fill="#e8e8e8"/><g fill="#6f6571"><path d="m133.5 7.5v30h-15v-20c0-5.52 4.48-10 10-10z"/><path d="m393.5 82.5v5c0 5.523-4.477 10-10 10h-255c-5.523 0-10-4.477-10-10v-20h15v4c0 6.075 4.925 11 11 11z"/></g></g><g><path d="m418 368.5c-4.143 0-7.5 3.357-7.5 7.5v37.5h-309v-120.094c0-4.143-3.357-7.5-7.5-7.5s-7.5 3.357-7.5 7.5v196.094c0 12.406 10.094 22.5 22.5 22.5h294c12.406 0 22.5-10.094 22.5-22.5v-113.5c0-4.143-3.357-7.5-7.5-7.5zm-7.5 60v15h-309v-15zm-7.5 68.5h-294c-4.136 0-7.5-3.364-7.5-7.5v-31h309v31c0 4.136-3.364 7.5-7.5 7.5z"/><path d="m371 130.299v-25.299h12.5c9.649 0 17.5-7.851 17.5-17.5v-70c0-9.649-7.851-17.5-17.5-17.5h-255c-9.649 0-17.5 7.851-17.5 17.5v70c0 9.649 7.851 17.5 17.5 17.5h12.5v25.299c-30.553 3.022-54.5 28.866-54.5 60.201v67.906c0 4.143 3.357 7.5 7.5 7.5s7.5-3.357 7.5-7.5v-29.906h309v112.5c0 4.143 3.357 7.5 7.5 7.5s7.5-3.357 7.5-7.5v-150.5c0-31.335-23.947-57.178-54.5-60.201zm-242.5-115.299h255c1.379 0 2.5 1.121 2.5 2.5v12.5h-156.213c-4.143 0-7.5 3.357-7.5 7.5s3.357 7.5 7.5 7.5h156.213v15h-260v-15h68.787c4.143 0 7.5-3.357 7.5-7.5s-3.357-7.5-7.5-7.5h-68.787v-12.5c0-1.379 1.121-2.5 2.5-2.5zm-2.5 72.5v-12.5h260v12.5c0 1.379-1.121 2.5-2.5 2.5h-255c-1.379 0-2.5-1.121-2.5-2.5zm230 17.5v25h-200v-25zm-254.5 108.5v-15h186.734c4.143 0 7.5-3.357 7.5-7.5s-3.357-7.5-7.5-7.5h-186.194c3.377-21.777 22.252-38.5 44.96-38.5h218c22.709 0 41.583 16.723 44.96 38.5h-86.726c-4.143 0-7.5 3.357-7.5 7.5s3.357 7.5 7.5 7.5h87.266v15z"/><path d="m160.408 248.74c-1-2.587-4.078-5.571-8.494-5.834-3.7.004-6.998 2.22-8.399 5.645-.032.07-26.258 68.945-26.353 69.187-1.475 3.87.469 8.203 4.34 9.678 3.865 1.475 8.203-.468 9.678-4.34l4.706-12.357h31.879l4.656 12.337c1.133 3.003 3.987 4.854 7.018 4.854.88 0 1.775-.156 2.647-.485 3.875-1.462 5.831-5.789 4.368-9.665zm-18.809 46.978 10.3-27.043 10.206 27.043z"/><path d="m230.107 277.906h-20.333c-4.143 0-7.5 3.357-7.5 7.5v70c0 1.995.795 3.907 2.208 5.315 1.406 1.399 3.309 2.185 5.292 2.185h.033c.002 0 18.698-.083 23.852-.083 14.525 0 26.342-11.816 26.342-26.342 0-8.687-4.228-16.402-10.733-21.203 2.794-3.878 4.447-8.631 4.447-13.765 0-13.017-10.59-23.607-23.608-23.607zm0 15c4.746 0 8.607 3.86 8.607 8.606s-3.861 8.607-8.607 8.607c-1.549.001-9.085.026-12.833.019v-17.232zm3.552 54.917c-2.996 0-10.559.028-16.385.052v-22.715c1.472-.019 13.912-.025 16.385-.021 6.254 0 11.342 5.088 11.342 11.343 0 6.253-5.088 11.341-11.342 11.341z"/><path d="m315.779 327.906c5.512 0 10.827 1.622 15.371 4.692 3.433 2.318 8.094 1.416 10.413-2.017 2.318-3.432 1.416-8.094-2.017-10.413-7.033-4.751-15.252-7.263-23.768-7.263-23.435 0-42.5 19.065-42.5 42.5s19.065 42.5 42.5 42.5c10.548-.235 20.502-3.881 27.798-12.563 2.661-3.175 2.244-7.905-.931-10.565-3.176-2.661-7.904-2.244-10.565.931-3.21 3.828-8.91 7.178-16.302 7.198-15.163 0-27.5-12.337-27.5-27.5s12.338-27.5 27.501-27.5z"/><path d="m388.52 398.5c4.143 0 7.5-3.357 7.5-7.5s-3.357-7.5-7.5-7.5h-.01c-4.142 0-7.495 3.357-7.495 7.5s3.363 7.5 7.505 7.5z"/><path d="m363.51 383.5c-4.142 0-7.495 3.357-7.495 7.5s3.363 7.5 7.505 7.5c4.143 0 7.5-3.357 7.5-7.5s-3.357-7.5-7.5-7.5z"/><path d="m387.5 242.5h-178c-4.143 0-7.5 3.357-7.5 7.5s3.357 7.5 7.5 7.5h178c4.143 0 7.5-3.357 7.5-7.5s-3.357-7.5-7.5-7.5z"/><path d="m395 280c0-4.143-3.357-7.5-7.5-7.5h-107c-4.143 0-7.5 3.357-7.5 7.5s3.357 7.5 7.5 7.5h107c4.143 0 7.5-3.357 7.5-7.5z"/><path d="m395 310c0-4.143-3.357-7.5-7.5-7.5h-26c-4.143 0-7.5 3.357-7.5 7.5s3.357 7.5 7.5 7.5h26c4.143 0 7.5-3.357 7.5-7.5z"/><path d="m179.5 353.5h-55c-4.143 0-7.5 3.357-7.5 7.5s3.357 7.5 7.5 7.5h55c4.143 0 7.5-3.357 7.5-7.5s-3.357-7.5-7.5-7.5z"/><path d="m124.5 383.5c-4.143 0-7.5 3.357-7.5 7.5s3.357 7.5 7.5 7.5h75c4.143 0 7.5-3.357 7.5-7.5s-3.357-7.5-7.5-7.5z"/></g></g></svg>