<svg id="Capa_1" enable-background="new 0 0 511.996 511.996" height="512" viewBox="0 0 511.996 511.996" width="512" xmlns="http://www.w3.org/2000/svg"><g><g><g><path d="m350.559 111.816-50.789 72.735-72.735 50.789c-4.722 3.297-11.129 2.733-15.201-1.34l-49.057-49.057c-4.072-4.072-4.637-10.479-1.34-15.201l50.789-72.735 72.735-50.789c4.722-3.297 11.129-2.733 15.201 1.34l49.057 49.057c4.073 4.072 4.637 10.479 1.34 15.201z" fill="#d8ecfe"/><path d="m349.219 96.615-49.057-49.057c-4.072-4.072-10.479-4.637-15.201-1.34l-9.503 6.635 43.761 43.762c4.073 4.073 4.637 10.479 1.34 15.201l-50.789 72.735-63.232 44.153 5.296 5.296c4.072 4.073 10.479 4.637 15.201 1.34l72.735-50.789 50.789-72.735c3.297-4.722 2.733-11.129-1.34-15.201z" fill="#c4e2ff"/><path d="m381.284 213.42-52.645 52.645c-11.58 11.58-30.678 10.431-40.786-2.453l-40.346-51.425c-18.374-23.419-39.498-44.543-62.917-62.917l-51.425-40.346c-12.884-10.108-14.033-29.206-2.453-40.786l52.645-52.645c11.58-11.58 30.678-10.431 40.786 2.453l40.346 51.425c18.374 23.419 39.498 44.543 62.917 62.917l51.425 40.346c12.884 10.108 14.032 29.206 2.453 40.786z" fill="#a6d6f8"/><path d="m378.831 172.634-51.425-40.346c-23.419-18.374-44.543-39.498-62.917-62.917l-40.346-51.425c-8.935-11.388-24.89-13.6-36.471-5.966 2.397 1.578 4.59 3.568 6.471 5.966l40.346 51.425c18.374 23.419 39.498 44.543 62.917 62.917l51.425 40.346c12.884 10.108 14.033 29.206 2.453 40.786l-52.645 52.645c-1.344 1.344-2.793 2.51-4.315 3.512 10.485 6.904 24.89 5.912 34.315-3.512l52.645-52.645c11.58-11.58 10.431-30.678-2.453-40.786z" fill="#8ecbfb"/><path d="m271.109 193.669c-19.837-25.284-42.716-48.164-68.001-68.002l-45.481-35.683c-1.888-1.481-2.056-4.279-.359-5.975l41.96-41.96c1.697-1.696 4.494-1.528 5.975.359l35.683 45.481c19.837 25.286 42.717 48.165 68.001 68.001l45.481 35.684c1.888 1.481 2.056 4.279.359 5.975l-41.961 41.96c-1.697 1.696-4.494 1.528-5.975-.359z" fill="#eaf6ff"/></g><path d="m352.136 504.496h-192.276c-15.915 0-29.06-12.427-29.953-28.317l-13.409-238.683h279l-13.409 238.683c-.893 15.89-14.038 28.317-29.953 28.317z" fill="#bee49d"/><path d="m365.498 237.496-13.409 238.683c-.893 15.89-14.038 28.317-29.953 28.317h30c15.915 0 29.06-12.427 29.953-28.317l13.409-238.683z" fill="#a3d8a4"/><path d="m400.498 192.496h-289c-5.523 0-10 4.477-10 10v25c0 5.523 4.477 10 10 10h289c5.523 0 10-4.477 10-10v-25c0-5.523-4.477-10-10-10z" fill="#e0f0cf"/><path d="m400.498 192.496h-30c5.523 0 10 4.477 10 10v25c0 5.523-4.477 10-10 10h30c5.523 0 10-4.477 10-10v-25c0-5.523-4.477-10-10-10z" fill="#cbe7af"/></g><path d="m183.577 283.508c-4.136.232-7.3 3.773-7.067 7.909l9 160c.225 3.992 3.532 7.079 7.481 7.079.142 0 .284-.004.428-.012 4.136-.232 7.3-3.773 7.067-7.909l-9-160c-.232-4.135-3.765-7.292-7.909-7.067zm64.921 7.488v160c0 4.143 3.357 7.5 7.5 7.5s7.5-3.357 7.5-7.5v-160c0-4.143-3.357-7.5-7.5-7.5s-7.5 3.357-7.5 7.5zm152-106h-4.933c-1.948-7.164-6.161-13.596-12.107-18.261l-40.119-31.482 13.365-19.139c5.393-7.713 4.475-18.144-2.183-24.802l-49.061-49.061c-6.658-6.657-17.089-7.576-24.797-2.186l-19.146 13.37-31.47-40.121c-6.144-7.826-15.364-12.657-25.297-13.254-9.938-.591-19.661 3.097-26.695 10.131l-52.651 52.64c-7.035 7.036-10.728 16.768-10.129 26.699.599 9.934 5.433 19.154 13.264 25.295l40.118 31.475-13.365 19.147c-4.119 5.89-4.541 13.369-1.542 19.548h-42.252c-9.649 0-17.5 7.851-17.5 17.5v25c0 8.938 6.74 16.32 15.402 17.362l13.019 231.743c1.115 19.849 17.562 35.396 37.441 35.396h192.275c19.88 0 36.326-15.548 37.441-35.396l3.195-56.877c.232-4.136-2.932-7.677-7.067-7.909-4.157-.212-7.677 2.933-7.909 7.067l-3.195 56.877c-.669 11.909-10.537 21.238-22.465 21.238h-192.275c-11.928 0-21.796-9.329-22.465-21.238l-12.964-230.762h263.133l-7.797 138.798c-.232 4.136 2.932 7.677 7.067 7.909 4.137.234 7.677-2.932 7.909-7.067l7.852-139.778c8.662-1.042 15.402-8.424 15.402-17.362v-25c.001-9.649-7.85-17.5-17.499-17.5zm-111.242-132.634c1.737-1.215 4.096-1.008 5.599.497l49.06 49.061c1.505 1.504 1.714 3.858.494 5.603l-12.885 18.453c-22.544-17.749-42.97-38.172-60.728-60.72zm-151.459 50.662c-4.457-3.495-7.208-8.742-7.549-14.395-.34-5.651 1.761-11.188 5.763-15.19l52.651-52.64c4.002-4.003 9.554-6.091 15.19-5.765 5.653.339 10.9 3.088 14.395 7.54l40.341 51.431c18.73 23.869 40.327 45.463 64.19 64.181l51.42 40.35c2.252 1.767 4.066 3.979 5.356 6.46h-21.422l-44.615-35.012c-24.807-19.459-47.258-41.91-66.729-66.728l-35.689-45.493c-2.031-2.577-5.073-4.168-8.345-4.366-3.271-.192-6.485 1.016-8.829 3.345l-41.962 41.962c-2.326 2.327-3.546 5.546-3.348 8.829.199 3.283 1.799 6.329 4.384 8.354l45.48 35.681c20.28 15.906 38.991 33.837 55.795 53.429h-20.081c-13.756-14.977-28.861-28.979-44.977-41.631zm29.792 71.015 12.885-18.459c11.588 9.132 22.627 18.99 32.986 29.416h-40.025l-5.347-5.347c-1.507-1.51-1.719-3.867-.499-5.61zm235.409 53.457c0 1.379-1.121 2.5-2.5 2.5h-289c-1.379 0-2.5-1.121-2.5-2.5v-25c0-1.379 1.121-2.5 2.5-2.5h178.76c4.143 0 7.5-3.357 7.5-7.5s-3.357-7.5-7.5-7.5h-16.483c-19.462-24.172-41.659-46.11-66.038-65.23l-42.377-33.246 36.382-36.381 33.245 42.376c20.212 25.764 43.519 49.07 69.271 69.271l29.577 23.21h-8.577c-4.143 0-7.5 3.357-7.5 7.5s3.357 7.5 7.5 7.5h75.24c1.379 0 2.5 1.121 2.5 2.5zm-82.488 63.079-9 160c-.232 4.136 2.932 7.677 7.067 7.909.144.008.285.012.428.012 3.949 0 7.257-3.087 7.481-7.079l9-160c.232-4.136-2.932-7.677-7.067-7.909-4.11-.21-7.676 2.93-7.909 7.067z"/></g></svg>