<svg id="Capa_1" enable-background="new 0 0 512.01 512.01" height="512" viewBox="0 0 512.01 512.01" width="512" xmlns="http://www.w3.org/2000/svg"><g><g><path d="m356.302 73.671c-15.444 15.789-27.071 34.901-33.992 55.875l-10.408 31.542c-4.056 12.293-10.695 23.558-19.445 33.061l11.08 10.707 3.541 1.068c11.448-12.733 20.207-27.882 25.476-44.176l15.128-46.787c2.942-9.096 8.069-17.476 14.828-24.236l9.306-9.307h2.846l5.877-5.877-13.177-13.177z" fill="#dbedff"/><path d="m368.868 63.869-10.372-10.372h-2.961l-15.126 15.126c-10.241 10.241-18.01 22.939-22.467 36.721l-15.128 46.787c-3.826 11.83-10.12 22.85-18.334 32.18l.625 2.732 8.901 8.601c8.976-9.605 15.771-21.05 19.897-33.556l10.408-31.542c6.921-20.974 18.548-40.086 33.992-55.875z" fill="#b5dcff"/><path d="m273.234 213.552-206.833 207.544-1.906 1.261 12.584 11.119h2.701l205.324-205.324-.625-2.776z" fill="#dbedff"/><path d="m265.662 205.591h-2.2l-205.784 205.783v4.96l8.321 7.352 2.402-1.59 206.296-207.006z" fill="#b5dcff"/><path d="m66.9 420.595-.499.501-41.329 27.344c10.578 10.578 21.711 21.712 31.382 31.382l23.327-46.345c-4.959-4.959-8.824-8.825-12.881-12.882z" fill="#b5dcff"/><path d="m11.333 434.701c4.769 4.769 9.897 9.898 15.137 15.137l41.931-27.742c-3.313-3.313-6.648-6.648-10.722-10.722z" fill="#8bcaff"/><path d="m379.146 33.176c-3.38-3.38-7.924-4.88-12.343-4.516-2.932 5.954-1.936 13.353 3.019 18.307l19.621 19.622 10.159-9.921v-3.036z" fill="#b5dcff"/><path d="m370.211 46.611c-4.864-4.864-5.838-12.131-2.95-17.973-3.717.198-7.377 1.698-10.217 4.538-6.103 6.103-6.103 15.999 0 22.102l20.457 20.456h2.578l9.742-9.513z" fill="#8bcaff"/><path d="m361.181 260.026-40.025-40.025c-6.105-2.233-13.216-.913-18.115 3.986s-6.22 12.01-3.986 18.115l40.025 40.025c6.103 6.103 15.998 6.103 22.102 0 6.103-6.103 6.103-15.998-.001-22.101z" fill="#ff76aa"/><path d="m303.317 224.263c4.964-4.964 12.235-6.21 18.36-3.742l-33.431-33.431c-6.103-6.103-15.999-6.103-22.102 0-6.103 6.103-6.103 15.998 0 22.102l33.431 33.431c-2.468-6.125-1.222-13.396 3.742-18.36z" fill="#ff5595"/><g><path d="m60.033 490.901c-1.919 0-3.839-.732-5.303-2.196l-52.28-52.28c-2.929-2.93-2.929-7.678 0-10.607 2.929-2.928 7.678-2.928 10.606 0l52.28 52.28c2.929 2.93 2.929 7.678 0 10.607-1.464 1.464-3.384 2.196-5.303 2.196z" fill="#dbedff"/></g><path d="m500.398 121.789-49.312-49.312c-5.116-1.199-10.725.17-14.694 4.139l-35.291 35.291c-4.432 4.433-5.62 10.908-3.606 16.46l48.163 48.163c5.809 5.809 15.314 5.809 21.123 0l33.618-33.618c5.808-5.809 5.808-15.315-.001-21.123z" fill="#ff76aa"/><path d="m401.889 112.182 34.748-34.747c4.217-4.217 10.316-5.46 15.655-3.752l-25.808-25.808c-5.809-5.809-15.314-5.809-21.123 0l-33.618 33.618c-5.809 5.809-5.809 15.314 0 21.123l27.173 27.173c-2.749-5.745-1.769-12.865 2.973-17.607z" fill="#ff5595"/></g><path d="m480.115 91.15c-2.93-2.928-7.678-2.928-10.607 0-2.929 2.93-2.929 7.678 0 10.607l25.335 25.335c1.394 1.393 2.16 3.26 2.16 5.258 0 1.997-.767 3.864-2.16 5.257l-33.617 33.618c-2.9 2.9-7.618 2.9-10.517 0l-73.914-73.914c-2.879-2.877-2.89-7.628 0-10.516l33.616-33.618c2.9-2.9 7.618-2.9 10.517 0l23.831 23.831c2.93 2.928 7.678 2.928 10.607 0 2.929-2.93 2.929-7.678 0-10.607l-23.832-23.831c-8.749-8.747-22.981-8.748-31.73.001l-.454.454-15.153-15.153c-9.02-9.018-23.692-9.019-32.71.001-6.529 6.531-8.304 16.02-5.376 24.187l-11.259 11.259c-11.075 11.076-19.479 24.81-24.3 39.717l-15.127 46.787c-2.978 9.21-7.675 18-13.673 25.7-7.739-1.629-15.607.706-21.163 6.264-5.61 5.609-8.085 13.736-6.082 21.898l-201.533 201.533-40.441 20.355c-2.945-2.672-7.494-2.597-10.337.244-2.929 2.93-2.929 7.678 0 10.607l52.28 52.28c2.931 2.929 7.678 2.928 10.607 0 2.842-2.843 2.917-7.393.244-10.337l20.355-40.441 88.843-88.842c2.929-2.93 2.929-7.678 0-10.607-2.929-2.927-7.677-2.929-10.607 0l-84.392 84.392-11.495-11.495 194.717-194.717 11.495 11.495-85.577 85.576c-2.929 2.93-2.929 7.678 0 10.607 2.93 2.928 7.678 2.928 10.607 0l85.577-85.577 48.672 48.672c9.036 9.038 23.668 9.041 32.709 0 9.017-9.018 9.017-23.69 0-32.708l-49.217-49.217c9.897-12.32 17.594-26.519 22.421-41.451l15.129-46.787c1.719-5.316 4.307-10.341 7.586-14.864 1.044 2.009 2.391 3.871 4.035 5.515l73.914 73.914c4.375 4.374 10.118 6.561 15.864 6.56 5.745 0 11.492-2.187 15.866-6.56l33.618-33.618c8.747-8.748 8.747-22.981 0-31.729zm-456.393 345.585 32.234-16.224 14.435 14.435-16.224 32.234zm338.373-398.256c3.169-3.171 8.327-3.17 11.495 0l15.153 15.152c-1.204 1.204-10.311 10.312-11.494 11.495l-15.158-15.156c-3.058-3.062-3.254-8.233.004-11.491zm-6.47 238.345c-3.173 3.175-8.317 3.179-11.494 0l-72.936-72.936c-3.131-3.132-3.221-8.275 0-11.495 3.195-3.195 8.34-3.154 11.494.001l72.936 72.936c3.169 3.169 3.169 8.325 0 11.494zm-15.331-164.172-15.13 46.787c-4.104 12.693-10.552 24.791-18.823 35.392l-11.591-11.591c6.516-8.709 11.628-18.538 14.948-28.801l15.127-46.787c4.094-12.658 11.229-24.32 20.635-33.725l9.687-9.688 11.495 11.495-9.688 9.688c-7.594 7.594-13.355 17.01-16.66 27.23z"/></g></svg>