<svg id="Capa_1" enable-background="new 0 0 511.996 511.996" height="512" viewBox="0 0 511.996 511.996" width="512" xmlns="http://www.w3.org/2000/svg"><g><g><g><path d="m215.985 244.524s-9.574 31.085 3.079 61.36c2.896 6.928-2.101 14.58-9.61 14.58h-51.529z" fill="#bac5e2"/></g><g><path d="m34.111 101.981v133.032l7.917 3.177c10.668 4.281 16.944 15.385 15.109 26.733l-27.078 167.44c-2.533 15.663 9.561 29.87 25.428 29.87h67.256c12.626 0 23.39-9.151 25.422-21.612l17.529-107.491c6.647-40.762 39.708-72.059 80.772-76.464l72.459-7.772v-146.913z" fill="#e9efff"/></g><g><path d="m53.819 432.363 27.078-167.44c.066-.405.121-.81.166-1.215 1.476-13.257-8.725-24.981-22.02-26.072l-23.124-1.898 6.109 2.451c10.668 4.281 16.944 15.385 15.109 26.733l-27.078 167.44c-2.533 15.663 9.561 29.87 25.428 29.87h23.76c-15.867.001-27.961-14.206-25.428-29.869z" fill="#d3dcfb"/></g><g><path d="m335.4 101.981h-25.746v147.907l27.351-2.934c7.644-.82 13.44-7.271 13.44-14.958v-114.971c0-8.309-6.736-15.044-15.045-15.044z" fill="#e5979d"/></g><g><path d="m7.5 116.256v98.424c0 5.832 3.547 11.077 8.959 13.249l25.569 10.26c1.822.731 3.505 1.675 5.052 2.771v-138.98h-25.304c-7.885.001-14.276 6.392-14.276 14.276z" fill="#e5979d"/></g><g><path d="m103.139 390.134-9.822 72.1h29.425c12.626 0 23.39-9.151 25.422-21.612l15.142-92.858-25.429 5.22c-18.291 3.754-32.218 18.648-34.738 37.15z" fill="#e5979d"/></g><g><path d="m219.724 209.296h-104.851c-5.523 0-10-4.477-10-10v-44.995c0-5.523 4.477-10 10-10h104.851c5.523 0 10 4.477 10 10v44.995c0 5.523-4.477 10-10 10z" fill="#42c3fc"/></g><g><path d="m124.313 199.296v-44.995c0-5.523 4.477-10 10-10h-19.44c-5.523 0-10 4.477-10 10v44.995c0 5.523 4.477 10 10 10h19.44c-5.523 0-10-4.477-10-10z" fill="#1aa9e8"/></g><g><g><path d="m442.542 49.763c4.116 0 8.231 1.57 11.371 4.71 67.45 67.451 67.45 177.201 0 244.651-6.28 6.28-16.461 6.28-22.741 0s-6.28-16.462 0-22.741c54.911-54.911 54.911-144.257 0-199.169-6.28-6.28-6.28-16.462 0-22.741 3.138-3.139 7.255-4.71 11.37-4.71z" fill="#42c3fc"/></g><g><g><path d="m397.899 94.406c4.116 0 8.23 1.57 11.371 4.71 20.75 20.75 32.177 48.338 32.177 77.683s-11.427 56.933-32.177 77.682c-6.28 6.28-16.462 6.28-22.741 0-6.28-6.28-6.28-16.462 0-22.741 14.676-14.675 22.758-34.187 22.758-54.941s-8.082-40.266-22.758-54.942c-6.28-6.28-6.28-16.462 0-22.741 3.139-3.14 7.254-4.71 11.37-4.71z" fill="#42c3fc"/></g></g></g></g><g><path d="m335.4 94.481h-313.625c-12.006 0-21.775 9.768-21.775 21.775v98.424c0 8.945 5.364 16.878 13.666 20.209l25.568 10.26c7.466 2.996 11.783 10.634 10.498 18.576l-10.069 62.269c-.661 4.089 2.118 7.94 6.207 8.601.405.065.809.097 1.206.097 3.615 0 6.8-2.62 7.395-6.304l10.069-62.269c1.778-10.988-2.159-21.663-9.96-28.776v-127.862h247.574v133.669l-56.488 6.059c-44.278 4.75-80.208 38.763-87.375 82.714l-1.555 9.533-20.366 4.181c-21.376 4.387-37.717 21.863-40.663 43.485l-8.938 65.612h-31.282c-5.36 0-10.429-2.341-13.903-6.423-3.475-4.082-4.977-9.458-4.121-14.75l11.623-71.866c.661-4.089-2.118-7.94-6.207-8.601-4.091-.66-7.94 2.118-8.602 6.207l-11.621 71.866c-1.56 9.639 1.177 19.432 7.506 26.868 6.33 7.435 15.561 11.7 25.325 11.7h67.255c16.383 0 30.188-11.736 32.825-27.905l17.528-107.491c.351-2.154.793-4.277 1.304-6.372h35.055c6.011 0 11.586-2.983 14.913-7.98 3.354-5.037 3.959-11.389 1.617-16.992-4.503-10.775-5.895-21.759-5.934-31.137 8.413-4.023 17.578-6.699 27.215-7.733l90.539-9.711c11.481-1.232 20.14-10.869 20.14-22.416v-56.062c0-4.142-3.357-7.5-7.5-7.5s-7.5 3.358-7.5 7.5v56.062c0 3.864-2.897 7.089-6.739 7.501l-19.051 2.043v-132.06h18.246c4.16 0 7.544 3.384 7.544 7.544v25.244c0 4.142 3.357 7.5 7.5 7.5s7.5-3.358 7.5-7.5v-25.244c0-12.432-10.113-22.545-22.544-22.545zm-194.637 344.933c-1.447 8.876-9.026 15.319-18.021 15.319h-20.834l8.662-63.587c2.087-15.322 13.667-27.707 28.815-30.816l14.767-3.031zm71.382-130.638c.559 1.336.075 2.387-.263 2.894-.321.483-1.064 1.294-2.428 1.294h-29.839c5.843-12.767 14.764-23.8 25.797-32.176.771 8.811 2.729 18.41 6.733 27.988zm-172.565-79.65-20.328-8.157c-2.583-1.037-4.252-3.505-4.252-6.289v-98.424c0-3.736 3.039-6.776 6.775-6.776h17.805z"/><path d="m114.873 216.796h104.851c9.649 0 17.5-7.851 17.5-17.5v-44.995c0-9.649-7.851-17.5-17.5-17.5h-104.851c-9.649 0-17.5 7.851-17.5 17.5v44.995c0 9.649 7.851 17.5 17.5 17.5zm-2.5-62.495c0-1.378 1.121-2.5 2.5-2.5h104.851c1.379 0 2.5 1.122 2.5 2.5v44.995c0 1.378-1.121 2.5-2.5 2.5h-104.851c-1.379 0-2.5-1.122-2.5-2.5z"/><path d="m104.873 265.622h28.948c4.143 0 7.5-3.358 7.5-7.5s-3.357-7.5-7.5-7.5h-28.948c-4.143 0-7.5 3.358-7.5 7.5s3.357 7.5 7.5 7.5z"/><path d="m104.873 289.607h28.948c4.143 0 7.5-3.358 7.5-7.5s-3.357-7.5-7.5-7.5h-28.948c-4.143 0-7.5 3.358-7.5 7.5s3.357 7.5 7.5 7.5z"/><path d="m459.216 49.171c-4.453-4.454-10.375-6.907-16.674-6.907s-12.221 2.453-16.675 6.907c-9.193 9.193-9.193 24.153 0 33.348 25.142 25.141 38.987 58.624 38.987 94.281s-13.846 69.14-38.987 94.281c-9.193 9.194-9.193 24.154 0 33.348 4.454 4.454 10.376 6.907 16.674 6.907 6.299 0 12.221-2.453 16.675-6.907 70.374-70.376 70.374-184.884 0-255.258zm-10.608 244.65c-3.344 3.345-8.788 3.347-12.134 0-3.346-3.346-3.346-8.789 0-12.135 27.974-27.974 43.38-65.224 43.38-104.887 0-39.664-15.406-76.914-43.38-104.888-3.346-3.346-3.346-8.789 0-12.135 1.62-1.621 3.775-2.513 6.067-2.513s4.446.893 6.066 2.513c64.528 64.527 64.528 169.519.001 234.045z"/><path d="m414.572 93.813c-4.454-4.454-10.376-6.906-16.674-6.906-6.299 0-12.221 2.453-16.673 6.906-4.454 4.454-6.907 10.375-6.907 16.674s2.453 12.22 6.906 16.674c13.259 13.259 20.561 30.887 20.561 49.638s-7.302 36.379-20.56 49.637c-4.454 4.454-6.907 10.375-6.907 16.674 0 6.298 2.453 12.22 6.906 16.673 4.453 4.454 10.374 6.907 16.674 6.907 6.299 0 12.221-2.453 16.674-6.907 22.167-22.165 34.374-51.636 34.374-82.985 0-31.348-12.207-60.819-34.374-82.985zm-10.605 155.364c-1.621 1.621-3.776 2.514-6.068 2.514s-4.446-.893-6.066-2.513c-1.621-1.621-2.514-3.776-2.514-6.067 0-2.292.893-4.446 2.514-6.067 16.091-16.091 24.953-37.487 24.953-60.244s-8.862-44.153-24.954-60.245c-1.62-1.621-2.513-3.775-2.513-6.067s.893-4.447 2.514-6.068c1.62-1.62 3.774-2.513 6.066-2.513s4.447.893 6.067 2.513c19.333 19.333 29.98 45.038 29.98 72.379 0 27.342-10.647 53.047-29.979 72.378z"/><path d="m145.152 184.299h7.579c4.143 0 7.5-3.358 7.5-7.5s-3.357-7.5-7.5-7.5h-7.579c-4.143 0-7.5 3.358-7.5 7.5s3.358 7.5 7.5 7.5z"/><path d="m181.865 184.299h7.579c4.143 0 7.5-3.358 7.5-7.5s-3.357-7.5-7.5-7.5h-7.579c-4.143 0-7.5 3.358-7.5 7.5s3.358 7.5 7.5 7.5z"/></g></g></svg>