<svg id="Capa_1" enable-background="new 0 0 511.98 511.98" height="512" viewBox="0 0 511.98 511.98" width="512" xmlns="http://www.w3.org/2000/svg"><g><g><g><path d="m228.109 504.48c-23.572 0-42.749-19.177-42.749-42.749v-18.139c0-8.235 6.676-14.91 14.91-14.91 8.235 0 14.91 6.676 14.91 14.91v18.139c0 7.129 5.8 12.929 12.929 12.929s12.929-5.8 12.929-12.929v-207.116c0-8.235 6.676-14.91 14.91-14.91s14.91 6.676 14.91 14.91v207.115c0 23.572-19.177 42.75-42.749 42.75z" fill="#cdbfba"/></g><g fill="#b9acac"><path d="m198.309 443.592v18.139c0 7.129 5.8 12.929 12.929 12.929 3.224 0 6.169-1.194 8.436-3.153-2.746-2.373-4.493-5.871-4.493-9.776v-18.139c0-8.235-6.676-14.91-14.91-14.91-3.132 0-6.036.97-8.436 2.621 3.908 2.687 6.474 7.187 6.474 12.289z"/><path d="m255.948 239.704c-3.133 0-6.036.97-8.436 2.621 3.908 2.688 6.474 7.187 6.474 12.289v207.116c0 20.685-14.768 37.981-34.313 41.909 2.728.548 5.548.84 8.436.84 23.572 0 42.749-19.177 42.749-42.749v-207.115c0-8.235-6.675-14.911-14.91-14.911z"/></g><g><path d="m463.147 277.11-46.98-16.6c-4.6-1.62-9.63-1.48-14.13.39l-60.36 25.21c-2.33.98-4.84 1.5-7.32 1.52-2.48.03-4.94-.41-7.29-1.31l-64.04-24.57c-4.54-1.73-9.55-1.73-14.09 0l-64.03 24.57c-2.37.91-4.86 1.35-7.36 1.3-2.47-.03-4.93-.54-7.25-1.51l-60.36-25.21c-4.5-1.87-9.53-2.01-14.13-.39l-46.98 16.6c-13.84 4.89-27.96-6.57-26.05-21.13 15.19-115.24 113.81-204.2 233.2-204.2 24.62 0 48.35 3.78 70.65 10.8 53.28 16.75 98.39 51.95 127.83 98.11 18.02 28.24 30.17 60.57 34.74 95.29 1.91 14.56-12.21 26.02-26.05 21.13z" fill="#fe5694"/><path d="m454.457 160.69c-4.12 5.73-9.06 10.91-14.73 15.36l-30.83 24.18c-6.61 5.19-15.9 5.19-22.51 0l-30.83-24.18c-18.26-14.32-28.93-36.25-28.93-59.46v-54.01c53.28 16.75 98.39 51.95 127.83 98.11z" fill="#fd3581"/><g><path d="m489.201 255.984c-15.192-115.244-113.825-204.204-233.221-204.204-3.472 0-6.925.083-10.36.232 114.7 4.972 208.11 92.08 222.861 203.972 1.106 8.436-3.174 15.82-9.657 19.596l4.327 1.529c13.837 4.887 27.959-6.565 26.05-21.125z" fill="#fd3581"/></g><path d="m334.352 287.632c-2.476.026-4.939-.413-7.286-1.315l-64.044-24.568c-4.539-1.728-9.543-1.728-14.083 0l-64.031 24.568c-2.373.916-4.862 1.354-7.364 1.303 0-14.16 2.515-124.568 78.437-235.839-.001-.001 72.375 86.251 78.371 235.851z" fill="#fe5694"/><g><path d="m255.98 51.78c-3.426 5.02-6.696 10.039-9.83 15.047 20.046 30.162 61.29 104.673 67.169 214.216l13.746 5.273c2.347.903 4.81 1.341 7.286 1.315-5.995-149.599-78.371-235.851-78.371-235.851z" fill="#fd3581"/></g></g><g><path d="m460.445 176.053-30.825 24.179c-6.609 5.184-15.904 5.184-22.512 0l-30.825-24.179c-18.263-14.325-28.93-36.249-28.93-59.46v-81.1c0-13.522 14.906-21.737 26.338-14.516 5.601 3.538 12.738 3.538 18.339 0l17.165-10.844c5.601-3.538 12.738-3.538 18.339 0l17.165 10.844c5.601 3.538 12.738 3.538 18.339 0 11.432-7.221 26.338.994 26.338 14.516v81.1c-.001 23.211-10.668 45.135-28.931 59.46z" fill="#daf3f6"/><g><path d="m463.037 20.977c-.426.269-.864.511-1.306.739 4.113 3.041 6.923 7.908 6.923 13.777v81.1c0 23.211-10.667 45.135-28.93 59.46l-30.825 24.179c-.291.229-.594.435-.896.643 6.534 4.518 15.299 4.312 21.617-.643l30.825-24.179c18.263-14.325 28.93-36.249 28.93-59.46v-81.1c0-13.522-14.905-21.737-26.338-14.516z" fill="#a6e7f0"/></g><circle cx="418.364" cy="99.072" fill="#95d6a4" r="43.992"/><path d="m418.363 55.08c-3.57 0-7.037.436-10.361 1.239 19.294 4.66 33.631 22.027 33.631 42.753s-14.337 38.093-33.631 42.753c3.324.803 6.791 1.239 10.361 1.239 24.296 0 43.992-19.696 43.992-43.992s-19.695-43.992-43.992-43.992z" fill="#78c2a4"/></g></g><g><path d="m371.653 181.955 30.825 24.178c4.677 3.668 10.281 5.502 15.885 5.502s11.209-1.834 15.886-5.502l30.825-24.178c20.21-15.853 31.802-39.676 31.802-65.362v-81.1c0-9.125-4.771-17.201-12.762-21.605-7.994-4.405-17.368-4.124-25.082.749-3.136 1.981-7.189 1.981-10.327 0l-17.166-10.844c-8.003-5.057-18.348-5.058-26.351 0l-17.164 10.844c-3.139 1.981-7.193 1.981-10.328 0-7.715-4.874-17.092-5.153-25.083-.749s-12.762 12.48-12.762 21.605v23.674c-24.469-9.022-50.081-13.971-76.371-14.762v-16.581c0-4.142-3.357-7.5-7.5-7.5s-7.5 3.358-7.5 7.5v16.585c-56.54 1.74-110.667 23.107-153.145 60.635-43.958 38.837-72.367 92.092-79.995 149.96-1.239 9.451 2.441 18.674 9.847 24.672 7.396 5.991 17.169 7.674 26.139 4.505l46.971-16.598c2.858-1.006 5.97-.919 8.75.237l60.356 25.208c6.006 2.193 12.245 3.179 20.19.292l45.943-17.629v186.039c0 2.994-2.436 5.43-5.43 5.43s-5.431-2.436-5.431-5.43v-18.14c0-12.357-10.053-22.41-22.41-22.41-12.356 0-22.409 10.053-22.409 22.41v18.14c0 27.708 22.542 50.25 50.25 50.25s50.25-22.542 50.25-50.25v-161.206c0-4.142-3.357-7.5-7.5-7.5s-7.5 3.358-7.5 7.5v161.206c0 19.437-15.813 35.25-35.25 35.25s-35.25-15.813-35.25-35.25v-18.14c0-4.086 3.324-7.41 7.409-7.41 4.086 0 7.41 3.324 7.41 7.41v18.14c0 11.265 9.165 20.43 20.431 20.43 11.265 0 20.43-9.165 20.43-20.43v-191.794c3.199-1.336 6.564-2.802 11.799-1.185l16.419 6.298 47.629 18.273c5.138 2.058 13.121 2.648 20.184-.293l60.348-25.205c2.794-1.162 5.905-1.248 8.753-.244l46.98 16.6c8.972 3.168 18.741 1.485 26.139-4.505 7.405-5.999 11.086-15.222 9.846-24.676-2.277-17.303-6.444-34.379-12.385-50.754-1.412-3.894-5.715-5.906-9.608-4.493-3.894 1.413-5.905 5.714-4.493 9.608 5.571 15.356 9.479 31.37 11.614 47.594.564 4.302-1.045 8.335-4.415 11.065-3.362 2.723-7.625 3.458-11.699 2.018l-46.988-16.603c-6.354-2.238-13.279-2.046-19.512.544l-57.768 24.127c-4.384-74.081-24.875-131.797-41.667-167.679-10.787-23.049-21.295-40.054-28.519-50.636 23.659 1.549 46.676 6.715 68.66 15.434v41.368c-.002 25.686 11.59 49.51 31.8 65.363zm-45.297 96.056-48.531-18.617-12.128-4.653c-4.67-1.798-12.772-2.542-19.445.005l-60.95 23.386c.424-8.825 1.524-22.659 4.327-40.092.657-4.09-2.125-7.938-6.215-8.595-4.09-.658-7.938 2.125-8.596 6.214-2.958 18.401-4.094 33.055-4.523 42.323l-57.481-24.008c-6.22-2.585-13.146-2.776-19.508-.536l-46.979 16.6c-4.072 1.441-8.339.705-11.699-2.018-3.37-2.729-4.979-6.763-4.416-11.061 7.154-54.275 33.809-104.234 75.055-140.674 38.054-33.62 86.075-53.415 136.518-56.553-27.557 43.237-47.713 90.606-59.932 141.041-.976 4.026 1.497 8.08 5.523 9.055 4.02.976 8.079-1.497 9.055-5.523 12.113-50 32.255-96.894 59.92-139.545 6.778 9.583 18.303 27.42 30.025 52.564 16.052 34.431 35.632 89.707 39.98 160.687zm28.495-242.518c0-3.576 1.87-6.742 5.002-8.468 1.479-.815 3.08-1.221 4.676-1.221 1.783 0 3.561.507 5.156 1.515 8.001 5.055 18.345 5.056 26.35 0l17.165-10.845c3.138-1.982 7.191-1.982 10.327 0l17.166 10.844c8.003 5.056 18.345 5.056 26.35 0 3.022-1.91 6.698-2.02 9.831-.293 3.132 1.727 5.002 4.892 5.002 8.468v81.1c0 21.047-9.498 40.569-26.06 53.559l-30.825 24.178c-3.901 3.061-9.352 3.062-13.255 0l-30.825-24.178c-16.562-12.99-26.06-32.512-26.06-53.559z"/><path d="m418.364 150.564c28.393 0 51.491-23.099 51.491-51.492 0-11.115-3.552-21.409-9.563-29.834-.185-.301-.388-.592-.619-.87-9.395-12.607-24.414-20.788-41.309-20.788-28.393 0-51.492 23.099-51.492 51.492s23.099 51.492 51.492 51.492zm0-87.984c9.812 0 18.725 3.9 25.29 10.222l-28.193 28.193-7.227-7.227c-2.93-2.929-7.678-2.929-10.607 0s-2.929 7.678 0 10.606l12.53 12.53c1.465 1.464 3.385 2.197 5.304 2.197s3.839-.732 5.304-2.197l31.447-31.447c1.699 4.21 2.644 8.802 2.644 13.613 0 20.122-16.37 36.492-36.491 36.492-20.122 0-36.492-16.37-36.492-36.492s16.369-36.49 36.491-36.49z"/></g></g></svg>