<svg id="Capa_1" enable-background="new 0 0 512 512" height="512" viewBox="0 0 512 512" width="512" xmlns="http://www.w3.org/2000/svg"><g><g><path d="m357.835 152.335c0-11.231-9.104-20.335-20.335-20.335-2.903 0-5.664.608-8.162 1.704 0 0-3.212 2.424-4.714 3.704-4.376 3.73-7.459 8.726-7.459 14.927 0 11.231 9.104 20.335 20.335 20.335 8.649 0 15.354-5.583 18.294-13.195.574-1.486 1.872-4.504 1.872-4.504.111-.863.169-1.743.169-2.636z" fill="#ff8086"/><path d="m357.666 154.971c-1.29 9.99-9.826 17.699-20.166 17.699-11.23 0-20.33-9.1-20.33-20.34 0-8.33 5.008-15.495 12.168-18.625-.11.86-.168 1.735-.168 2.625 0 11.24 9.1 20.34 20.33 20.34 2.9 0 5.666-.609 8.166-1.699z" fill="#e5646e"/><path d="m328.509 155.255c0-8.977-7.277-16.255-16.255-16.255-1.698 0-3.335.26-4.874.743 0 0-4.177 2.607-5.959 4.312-3.092 2.959-4.459 6.581-4.459 11.2 0 8.977 6.314 16.255 15.291 16.255 6.715 0 11.914-4.243 14.392-10.053.391-.916 1.483-2.696 1.483-2.696.25-1.13.381-2.303.381-3.506z" fill="#ff8086"/><path d="m328.13 158.76c-1.6 7.29-8.11 12.75-15.88 12.75-8.97 0-16.25-7.28-16.25-16.26 0-7.27 4.791-13.437 11.381-15.507-.25 1.13-.381 2.297-.381 3.507 0 8.98 7.28 16.26 16.25 16.26 1.7 0 3.34-.26 4.88-.75z" fill="#e5646e"/><path d="m379.45 195.991-106.982-.33c-8.284 0-15.138-5.376-15.138-13.661 0-7.992 4.42-14.524 12.299-14.975.288-.016.578-.025.87-.025h111c8.284 0 15 6.716 15 15 0 .678-.045 1.346-.132 2.001-.978 7.338-9.312 11.99-16.917 11.99z" fill="#ffe07d"/><path d="m396.368 184.001c-.44 3.34-1.998 6.329-4.268 8.599-2.71 2.72-6.46 4.4-10.6 4.4l-54.585 5.596-56.415-5.596c-8.28 0-15-6.72-15-15 0-4.14 1.68-7.89 4.4-10.6 2.52-2.53 5.93-4.165 9.73-4.375-.09.64-.13 1.305-.13 1.975 0 8.28 6.72 15 15 15z" fill="#ffd064"/><path d="m379.45 225.945-106.982-.33c-8.284 0-15.138-5.376-15.138-13.661 0-7.992 4.42-14.524 12.299-14.975.288-.016.578-.025.87-.025h111c8.284 0 15 6.716 15 15 0 .678-.045 1.346-.132 2.001-.978 7.338-9.312 11.99-16.917 11.99z" fill="#ffe07d"/><path d="m396.368 213.955c-.44 3.34-1.998 6.329-4.268 8.599-2.71 2.72-6.46 4.4-10.6 4.4l-54.585 5.596-56.415-5.596c-8.28 0-15-6.72-15-15 0-4.14 1.68-7.89 4.4-10.6 2.52-2.53 5.93-4.165 9.73-4.375-.09.64-.13 1.305-.13 1.975 0 8.28 6.72 15 15 15z" fill="#ffd064"/><path d="m391.954 262.376h-167.679l46.105-35.479h158.12c1.105 0 2 .895 2 2v.584c0 7.685-2.511 14.784-6.758 20.52-6.289 8.493-20.409 12.375-31.788 12.375z" fill="#f8f7f7"/><path d="m423.74 250c-6.29 8.5-16.38 14-27.76 14l-51.36 5.862-128.69-5.862c-19.07 0-34.52-15.45-34.52-34.52v-.58c0-1.11.9-2 2-2h13.93c4.72 13.46 17.52 23.1 32.59 23.1z" fill="#e8e8e8"/><path d="m261.5 228.9c.302 12.569-6.931 28.996-16.638 38.265l-35.562-2.417 12.691-24.088 22.509-13.76h16.88c.08.66.12 1.32.12 2z" fill="#e8e8e8"/><path d="m256.62 250c-2.67 5.91-6.27 11.48-10.38 15.79l-39.31-1.79 14-14z" fill="#d8d8d8"/><g><path d="m113.892 216.562c-.786 0-1.585-.124-2.373-.387l-35.378-11.792c-15.337-5.113-25.642-19.41-25.642-35.576v-2.521c0-15.191 12.359-27.551 27.551-27.551h30.655c4.142 0 7.5 3.357 7.5 7.5s-3.358 7.5-7.5 7.5h-30.654c-6.921 0-12.551 5.63-12.551 12.551v2.521c0 9.7 6.183 18.278 15.385 21.346l35.377 11.792c3.93 1.31 6.053 5.558 4.744 9.487-1.047 3.143-3.974 5.13-7.114 5.13z" fill="#d8d8d8"/></g><g><path d="m41.5 223h-20l-3.335.697c-5.523 0-10 4.477-10 10l.165 30.303h41.284l1.885-14v-17c.001-5.523-4.476-10-9.999-10z" fill="#b57f5f"/><path d="m51.5 250v14l-22.665 4.156-21.335-4.156v-31c0-5.523 4.477-10 10-10h4v20c0 3.866 3.134 7 7 7z" fill="#9f6e50"/></g><g><path d="m32.256 441h-7.906l-6.985-.815c-3.202 0-5.579-2.968-4.879-6.093l31.376-130.092 59.229.08-4.909 13.951-61.474 120.245c-.855 1.672-2.575 2.724-4.452 2.724z" fill="#b57f5f"/></g><g><path d="m105.756 303.208-7.576 14.822-38.278-.017c-4.683-.002-8.739 3.245-9.763 7.815l-25.789 115.172h-8.11c-3.2 0-5.58-2.97-4.88-6.09l29.434-131.394 29.711-8.773z" fill="#9f6e50"/></g><g><path d="m476.33 436.459-66.743-132.379 61.728-.08-2.058 7.972 5.2 6.056 26.178 116.879c.7 3.125-1.677 6.093-4.879 6.093h-3.346l-11.628-1.817c-1.878 0-3.597-1.052-4.452-2.724z" fill="#b57f5f"/></g><g><path d="m492.41 441h-12.67c-1.87 0-3.59-1.05-4.45-2.72l-68.813-134.619 34.651-7.596 30.182 7.935 3.14 14.03-33.465.015c-5.23.002-8.61 5.53-6.23 10.187z" fill="#9f6e50"/></g><g><path d="m494.5 223h-20l-3.335.697c-5.523 0-10 4.477-10 10l.165 30.303h41.284l1.885-14v-17c.001-5.523-4.476-10-9.999-10z" fill="#b57f5f"/><path d="m504.5 250v14l-22.665 4.156-21.335-4.156v-31c0-5.523 4.477-10 10-10h4v20c0 3.866 3.134 7 7 7z" fill="#9f6e50"/></g><path d="m164 252.485c-34.977 0-61.129-28.344-61.129-63.32l-.358-52.128c0-1.105.895-2 2-2l11.156-1.537h109.661c1.105 0 2 .895 2 2v53.654c0 8.017-1.49 15.687-4.208 22.747 0 0-5.206 6.778-7.187 10.016-11.127 18.189-29.051 30.568-51.935 30.568z" fill="#f8f7f7"/><path d="m135.758 211.9c-10.433 0-19.232-8.01-19.941-18.418-.097-1.427-.147-2.872-.147-4.332v-55.65h-13c-1.105 0-2 .895-2 2v53.65c0 8.019 1.49 15.69 4.208 22.751.003.007.008.013.011.02 9.136 23.729 32.16 40.569 59.111 40.569 26.96 0 49.99-16.85 59.12-40.59z" fill="#e8e8e8"/><g><path d="m207.954 262.376-86.561-.743c-19.064 0-37.447-10.248-37.447-29.312v-.584c0-1.105.895-2 2-2l11.483-2.84h147.071c1.105 0 2 .895 2 2v.584c0 7.685-2.511 14.784-6.758 20.52-6.289 8.493-20.409 12.375-31.788 12.375z" fill="#f8f7f7"/><path d="m239.74 250c-6.29 8.5-16.38 14-27.76 14l-51.36 5.862-44.6-5.862c-19.07 0-34.52-15.45-34.52-34.52v-.58c0-1.11.9-2 2-2h13.93c4.72 13.46 17.52 23.1 32.59 23.1z" fill="#e8e8e8"/></g><path d="m493.367 303.055-473.395-1.046c-5.523 0-10-4.477-10-10l.312-25.78 11.216-2.229h483v26l-1.133 3.055c0 5.523-4.477 10-10 10z" fill="#c38c66"/><path d="m504.5 290v4c0 5.523-4.477 10-10 10h-477c-5.523 0-10-4.477-10-10v-30h14v15c0 6.075 4.925 11 11 11z" fill="#b57f5f"/></g><g><path d="m494.5 215.5h-24c-9.649 0-17.5 7.851-17.5 17.5v23.5h-26.25c6.992-7.88 11.25-18.246 11.25-29.595 0-4.143-3.358-7.5-7.5-7.5h-23.769c.818-2.32 1.269-4.811 1.269-7.405 0-5.758-2.177-11.016-5.748-15 3.571-3.984 5.748-9.242 5.748-15 0-12.406-10.093-22.5-22.5-22.5h-20.449c1.568-3.343 2.449-7.07 2.449-11 0-14.337-11.664-26-26-26-7.266 0-14.144 3.113-19 8.29-2.347-.833-4.871-1.29-7.5-1.29-12.407 0-22.5 10.094-22.5 22.5 0 2.629.458 5.153 1.29 7.5h-19.29c-12.407 0-22.5 10.094-22.5 22.5 0 5.758 2.177 11.016 5.748 15-3.571 3.984-5.748 9.242-5.748 15 0 2.595.45 5.086 1.269 7.405-4.454 0-20.337 0-25.167 0 4.385-9.401 6.729-19.787 6.729-30.251v-55.654c0-4.143-3.358-7.5-7.5-7.5h-51.756c-4.142 0-7.5 3.357-7.5 7.5s3.358 7.5 7.5 7.5h44.256v48.154c0 10.72-3.112 21.322-8.807 30.251h-94.125c-5.645-8.909-8.73-19.511-8.73-30.251v-48.154h32.406c4.142 0 7.5-3.357 7.5-7.5s-3.358-7.5-7.5-7.5h-39.906c-4.142 0-7.5 3.357-7.5 7.5v5.236h-15.118c-15.192 0-27.551 12.359-27.551 27.551v2.97c0 15.898 10.133 29.958 25.215 34.984l20.933 6.978c.9 2.795 1.967 5.531 3.197 8.186h-18.345c-4.142 0-7.5 3.357-7.5 7.5v2.576c0 10.282 3.718 19.708 9.872 27.019h-24.872v-23.5c0-9.649-7.851-17.5-17.5-17.5h-24c-9.649 0-17.5 7.851-17.5 17.5v61c0 9.649 7.851 17.5 17.5 17.5h13.819l-27.273 121.768c-.834 3.724.055 7.567 2.44 10.546s5.941 4.687 9.757 4.687h16.012c4.718 0 8.983-2.609 11.129-6.81l29.341-57.392c1.886-3.688.424-8.206-3.264-10.092-3.687-1.888-8.206-.425-10.092 3.264l-28.643 56.029h-11.36l27.326-122h46.407l-17.744 34.707c-1.886 3.688-.424 8.206 3.264 10.092 1.093.56 2.259.824 3.408.824 2.727 0 5.357-1.493 6.684-4.088l21.235-41.535h292.111l66.559 130.189c2.147 4.201 6.412 6.811 11.13 6.811h16.012c3.816 0 7.373-1.708 9.757-4.687 2.385-2.979 3.274-6.822 2.44-10.546l-11.989-53.526c-.905-4.041-4.918-6.585-8.958-5.679-4.042.905-6.585 4.916-5.68 8.958l11.307 50.479h-11.36l-62.372-122h46.407l8.387 37.444c.782 3.489 3.878 5.862 7.312 5.862.543 0 1.094-.06 1.646-.184 4.042-.905 6.585-4.916 5.68-8.958l-7.652-34.165h13.817c9.649 0 17.5-7.851 17.5-17.5 0-15.28 0-46.015 0-61 0-9.647-7.851-17.498-17.5-17.498zm-414.042-25.489c-8.947-2.982-14.958-11.322-14.958-20.754v-2.97c0-6.921 5.63-12.551 12.551-12.551h15.118v35.418c0 1.724.071 3.444.196 5.158zm387.542 42.989c0-1.379 1.122-2.5 2.5-2.5h24c1.378 0 2.5 1.121 2.5 2.5v23.5h-29zm-115.5-84.5c0 6.065-4.935 11-11 11-1.726 0-3.401-.419-4.912-1.174.589-2.008.912-4.13.912-6.326 0-4.291-1.209-8.304-3.302-11.72 1.973-1.759 4.535-2.78 7.302-2.78 6.065 0 11 4.935 11 11zm-45 3.5c0-4.136 3.364-7.5 7.5-7.5s7.5 3.364 7.5 7.5-3.364 7.5-7.5 7.5-7.5-3.364-7.5-7.5zm-33 22.5h111c4.136 0 7.5 3.364 7.5 7.5s-3.364 7.5-7.5 7.5h-111c-4.136 0-7.5-3.364-7.5-7.5s3.364-7.5 7.5-7.5zm-7.5 37.5c0-4.136 3.364-7.5 7.5-7.5h111c4.136 0 7.5 3.364 7.5 7.5 0 4.083-3.364 7.405-7.5 7.405h-35.5c-4.142 0-7.5 3.357-7.5 7.5s3.358 7.5 7.5 7.5h72.041c-3.318 12.698-14.856 22.095-28.541 22.095h-149.372c5.157-6.126 8.594-13.739 9.574-22.095h61.298c4.142 0 7.5-3.357 7.5-7.5s-3.358-7.5-7.5-7.5h-40.5c-4.136 0-7.5-3.322-7.5-7.405zm-177.55 22.405h23.471c.006 0 .011.001.017.001.004 0 .008-.001.013-.001h125.6c-2.321 12.555-13.352 22.095-26.569 22.095h-95.963c-13.217 0-24.248-9.54-26.569-22.095zm-71.95-3.905h24c1.378 0 2.5 1.121 2.5 2.5v23.5h-29v-23.5c0-1.379 1.122-2.5 2.5-2.5zm479.5 63.5c0 1.379-1.122 2.5-2.5 2.5-21.015 0-457.206 0-477 0-1.378 0-2.5-1.121-2.5-2.5v-22.5h482z"/><path d="m129.5 107.5c4.142 0 7.5-3.357 7.5-7.5 0-5.111 1.342-7.273 3.372-10.545 2.507-4.039 5.628-9.066 5.628-18.455 0-4.143-3.358-7.5-7.5-7.5s-7.5 3.357-7.5 7.5c0 5.111-1.342 7.273-3.372 10.545-2.507 4.039-5.628 9.066-5.628 18.455 0 4.143 3.358 7.5 7.5 7.5z"/><path d="m159.5 107.5c4.142 0 7.5-3.357 7.5-7.5 0-5.111 1.342-7.273 3.372-10.545 2.507-4.039 5.628-9.066 5.628-18.455 0-4.143-3.358-7.5-7.5-7.5s-7.5 3.357-7.5 7.5c0 5.111-1.342 7.273-3.372 10.545-2.507 4.039-5.628 9.066-5.628 18.455 0 4.143 3.358 7.5 7.5 7.5z"/><path d="m189.5 107.5c4.142 0 7.5-3.357 7.5-7.5 0-5.111 1.342-7.273 3.372-10.545 2.507-4.039 5.628-9.066 5.628-18.455 0-4.143-3.358-7.5-7.5-7.5s-7.5 3.357-7.5 7.5c0 5.111-1.342 7.273-3.372 10.545-2.507 4.039-5.628 9.066-5.628 18.455 0 4.143 3.358 7.5 7.5 7.5z"/></g></g></svg>