<svg id="Capa_1" enable-background="new 0 0 511.598 511.598" height="512" viewBox="0 0 511.598 511.598" width="512" xmlns="http://www.w3.org/2000/svg"><g><g><g><path d="m381.941 154.566-24.933-24.932c12.649-12.649 25.746-13.262 34.413-13.667 6.577-.308 8.24-.491 11.127-3.379 2.888-2.888 3.071-4.55 3.379-11.128.405-8.666 1.018-21.763 13.667-34.412 12.648-12.649 25.745-13.263 34.412-13.668 6.578-.309 8.241-.491 11.13-3.38s3.072-4.552 3.38-11.131c.106-2.252.225-4.804.566-7.569 1.783-14.448 19.503-20.443 29.797-10.15l.317.317c3.751 3.751 5.475 9.023 4.861 14.292-.146 1.255-.227 2.786-.32 4.759-.406 8.667-1.02 21.764-13.669 34.413-12.649 12.65-25.746 13.264-34.413 13.669-6.578.309-8.241.491-11.13 3.38-2.888 2.888-3.071 4.55-3.378 11.128-.405 8.666-1.018 21.763-13.667 34.412-12.648 12.648-25.745 13.261-34.411 13.666-6.578.31-8.24.493-11.128 3.38z" fill="#d83131"/><path d="m129.419 154.566 24.933-24.932c-12.649-12.649-25.746-13.262-34.412-13.667-6.577-.308-8.24-.491-11.127-3.379-2.888-2.888-3.07-4.55-3.378-11.128-.405-8.666-1.018-21.763-13.667-34.412-12.65-12.648-25.747-13.262-34.414-13.667-6.578-.309-8.241-.491-11.13-3.38s-3.072-4.552-3.38-11.131c-.106-2.252-.225-4.804-.566-7.569-1.784-14.448-19.504-20.444-29.798-10.151l-.317.317c-3.751 3.751-5.475 9.023-4.861 14.292.146 1.255.227 2.786.32 4.759.406 8.667 1.02 21.764 13.669 34.413 12.649 12.65 25.746 13.264 34.413 13.669 6.578.309 8.241.491 11.13 3.38 2.888 2.888 3.071 4.55 3.378 11.128.405 8.666 1.018 21.763 13.667 34.412 12.648 12.648 25.745 13.261 34.411 13.666 6.579.31 8.241.493 11.129 3.38z" fill="#e94444"/><path d="m408.342 197.825-14.788 88.494c-5.345 32.036-20.943 60.239-45.728 81.223-14.748 12.495-31.888 21.645-50.191 27.003-12.906 3.778-22.854 16.497-22.854 29.945v61.045c0 5.564-3.51 9.074-9.074 9.074l-17.114 1c-5.564 0-10.074-4.51-10.074-10.074v-62.19c0-13.02-8.326-24.701-20.743-28.613-16.442-5.18-31.9-13.431-45.414-24.411-24.423-19.856-41.404-47.75-47.846-78.55l-18.94-90.73c-5.071-24.288 1.143-49.255 17.046-68.349 15.562-18.684 38.901-29.12 63.217-29.12h127.303l15.362 1c22.554 0 43.36 7.94 58.837 24.345 17.491 18.541 25.17 43.958 21.001 68.908z" fill="#f47c7c"/><path d="m184.794 146.154c-11.596 0-22.441 5.161-29.754 14.16-7.314 8.999-10.15 20.669-7.78 32.021l18.946 90.733c4.439 21.257 16.163 40.506 33.014 54.202 13.018 10.58 28.654 17.488 45.105 20.084 4.845.764 9.761.155 14.701.155 46.527 0 84.861-32.308 92.527-78.199l14.783-88.494c1.861-11.141-1.259-22.476-8.558-31.096-7.3-8.62-16.964-12.564-28.26-12.564l-28.162-1h-116.562z" fill="#e94444"/><path d="m409.34 197.82-14.79 88.5c-5.34 32.03-21.94 61.24-46.72 82.22-14.75 12.5-31.89 21.65-50.2 27.01-12.9 3.77-21.85 15.49-21.85 28.94v61.04c0 5.57-4.51 10.08-10.07 10.08h-17.12c-.49 0-.97-.04-1.44-.11 4.88-.69 8.63-4.89 8.63-9.97v-61.04c0-13.45 8.95-25.17 21.85-28.94 18.31-5.36 35.45-14.51 50.2-27.01 24.78-20.98 41.38-50.19 46.72-82.22l14.79-88.5c4.17-24.95-3.51-50.36-21-68.9-15.48-16.41-37.28-25.35-59.84-25.35h20c22.56 0 44.36 8.94 59.84 25.35 17.49 18.54 25.17 43.95 21 68.9z" fill="#ee6161"/><path d="m367.34 190.81-8.76 52.42-7.03 36.08c-7.66 45.89-46 78.2-92.52 78.2-5.01 0-9.99.6-14.9-.19 39.71-6.31 71.6-37.18 78.42-78.01l14.79-88.5c1.86-11.14-1.26-22.47-8.56-31.09s-17.97-13.57-29.26-13.57h30c11.29 0 21.96 4.95 29.26 13.57s10.42 19.95 8.56 31.09z" fill="#d83131"/><path d="m357.58 244.23-5.03 35.08c-7.66 45.89-47 78.2-93.52 78.2-4.925 0-9.826.612-14.656-.148-16.471-2.592-32.125-9.506-45.154-20.092-16.85-13.7-28.58-32.95-33.01-54.2l-8.32-39.84h2.67c24.56 0 24.56 25.55 49.12 25.55s24.56-25.55 49.12-25.55c24.57 0 24.57 25.55 49.13 25.55 7.702 0 12.989-2.51 17.376-5.957 3.313-2.603 6.112-4.622 9.048-7.46 5.58-5.393 11.658-11.133 22.706-11.133z" fill="#f7e365"/><path d="m358.58 243.23-6.03 36.08c-7.66 45.89-47 79.2-93.52 79.2-5.01 0-9.99-.4-14.9-1.19 39.71-6.31 71.6-37.18 78.42-78.01l2.76-16.49c9.6-7.55 14.89-19.59 31.75-19.59z" fill="#ecc52e"/></g></g><g><path d="m504.514 16.169c-6.842-6.902-16.967-9.473-26.219-6.291-9.093 3.128-15.472 10.985-16.646 20.504-1.06 8.577 2.046 15.04-7.984 15.508-9.225.432-24.663 1.153-39.365 15.856-14.703 14.702-15.425 30.142-15.856 39.365-.302 6.446-.951 7.064-7.376 7.365-3.696.173-8.52.415-13.89 1.618-14.282-9.047-31.205-14.023-48.667-14.023h-142.664c-17.968 0-35.112 5.144-49.538 14.545-6.207-1.661-11.766-1.942-16.009-2.14-6.44-.3-7.064-.947-7.365-7.364-.431-9.224-1.153-24.663-15.855-39.364-14.703-14.705-30.141-15.427-39.363-15.859-6.442-.3-7.071-.951-7.372-7.37-.106-2.266-.238-5.086-.615-8.138-1.174-9.519-7.553-17.376-16.646-20.504-9.145-3.146-19.068-.86-25.901 5.974-7.266 7.207-7.493 15.456-7.043 25.02.432 9.225 1.156 24.664 15.857 39.364 14.703 14.705 30.142 15.427 39.364 15.858 6.442.3 7.069.949 7.37 7.367.431 9.224 1.153 24.662 15.855 39.365 6.543 6.542 13.922 10.978 22.372 13.433-4.967 14.702-5.994 30.618-2.717 46.314l8.511 40.77c.847 4.056 4.825 6.653 8.875 5.81 4.055-.847 6.655-4.819 5.809-8.874l-8.511-40.77c-4.609-22.075 1.028-44.68 15.467-62.017 13.985-16.79 34.927-26.42 57.455-26.42h142.665c20.775 0 40.596 8.381 54.382 22.992 15.932 16.887 22.879 39.677 19.06 62.525l-9.576 57.306c-.683 4.086 2.076 7.951 6.161 8.634.419.07.835.104 1.245.104 3.599 0 6.776-2.598 7.389-6.265l9.576-57.306c2.498-14.948 1.164-29.871-3.644-43.647 7.315-2.559 13.815-6.715 19.688-12.589 14.702-14.702 15.424-30.141 15.855-39.364.302-6.438.948-7.068 7.367-7.367 9.225-.432 24.663-1.153 39.366-15.857 8.821-8.821 13.989-19.92 15.359-32.265 1.239-11.147 2.409-23.17-6.226-31.803zm-397.49 126.211c-5.328-1.229-11.531-3.862-17.831-10.16-10.596-10.598-11.085-21.056-11.479-29.46-.322-6.878-.517-11.028-5.566-16.08-5.05-5.051-9.202-5.246-16.084-5.57-8.404-.393-18.863-.882-29.46-11.48-10.596-10.596-11.086-21.056-11.48-29.462-.097-2.058-.185-3.753-.362-5.275-.359-3.077.63-6.036 2.719-8.125l.313-.313c2.784-2.782 6.676-3.678 10.412-2.392 3.683 1.267 6.165 4.316 6.639 8.157.307 2.485.419 4.885.518 7.001.311 6.643.517 11.03 5.568 16.083 5.05 5.051 9.202 5.246 16.085 5.57 8.403.393 18.862.882 29.459 11.479 10.597 10.596 11.086 21.055 11.479 29.459.311 6.642.516 11.028 5.567 16.081 5.051 5.05 9.439 5.256 16.081 5.566.386.018.783.038 1.178.057-1.346 1.411-2.654 2.866-3.911 4.374-3.793 4.553-7.08 9.407-9.845 14.49zm389.594-107.487c-.177 1.521-.265 3.216-.362 5.275-.394 8.404-.884 18.864-11.481 29.461-10.597 10.598-21.056 11.087-29.462 11.48-6.879.323-11.032.519-16.082 5.569-5.049 5.052-5.244 9.202-5.566 16.08-.393 8.404-.882 18.862-11.479 29.459-4.607 4.608-9.549 7.675-15.259 9.445-3.56-6.389-7.943-12.402-13.124-17.893-.125-.132-.254-.26-.379-.392 5.744-.301 9.815-.866 14.436-5.486 5.051-5.052 5.256-9.438 5.566-16.08.393-8.404.882-18.863 11.479-29.46 10.596-10.597 21.055-11.086 29.461-11.479 6.88-.324 11.033-.52 16.081-5.569 5.053-5.053 5.258-9.441 5.569-16.084.099-2.116.211-4.516.518-7.001.474-3.841 2.956-6.891 6.639-8.157 3.733-1.288 7.628-.392 10.407 2.387l.322.322c2.086 2.085 3.075 5.044 2.716 8.123z"/><path d="m395.663 280.086c-4.081-.716-7.968 2.01-8.684 6.09-5.242 29.845-20.864 57.064-43.992 76.645-13.925 11.798-29.89 20.387-47.451 25.527-16.043 4.697-27.247 19.56-27.247 36.143v61.045c0 1.42-1.155 2.575-2.574 2.575h-17.114c-1.419 0-2.574-1.155-2.574-2.575v-62.19c0-16.495-10.445-30.868-25.99-35.766-15.752-4.964-30.199-12.729-42.936-23.077-23.08-18.764-39.145-45.14-45.235-74.264l-3.749-17.959c-.846-4.055-4.82-6.652-8.875-5.81-4.055.847-6.655 4.819-5.809 8.874l3.75 17.962c6.794 32.487 24.712 61.905 50.457 82.837 14.213 11.548 30.326 20.209 47.89 25.743 9.269 2.92 15.497 11.544 15.497 21.459v62.19c0 9.691 7.884 17.575 17.574 17.575h17.114c9.69 0 17.574-7.884 17.574-17.575v-61.045c0-10.125 6.615-18.864 16.461-21.746 19.587-5.734 37.397-15.316 52.93-28.478 25.797-21.841 43.224-52.204 49.071-85.497.719-4.079-2.008-7.967-6.088-8.683z"/><path d="m184.804 153.654h20.158c4.142 0 7.5-3.357 7.5-7.5s-3.358-7.5-7.5-7.5h-20.158c-13.865 0-26.832 6.171-35.574 16.93-8.745 10.757-12.135 24.711-9.302 38.284l18.946 90.732c4.789 22.938 17.441 43.709 35.625 58.489 18.185 14.779 41.104 22.919 64.537 22.919 50.207 0 92.652-35.943 100.924-85.465l14.783-88.494c2.225-13.32-1.504-26.871-10.232-37.178-8.727-10.307-21.479-16.218-34.984-16.218h-91.867c-4.142 0-7.5 3.357-7.5 7.5s3.358 7.5 7.5 7.5h91.866c9.087 0 17.665 3.977 23.537 10.911 5.872 6.935 8.381 16.052 6.884 25.014l-7.762 46.465c-12.347 1.543-19.348 8.796-25.088 14.767-5.846 6.08-10.069 10.474-19.158 10.474s-13.312-4.394-19.158-10.474c-6.458-6.718-14.496-15.078-29.971-15.078-15.474 0-23.511 8.36-29.968 15.078-5.844 6.08-10.067 10.474-19.154 10.474s-13.31-4.394-19.155-10.474c-5.956-6.196-13.269-13.772-26.507-14.915l-9.416-45.093c-1.906-9.132.375-18.521 6.258-25.759 5.884-7.238 14.607-11.389 23.936-11.389zm-5.083 107.552c6.458 6.718 14.494 15.078 29.969 15.078 15.474 0 23.511-8.36 29.968-15.078 5.844-6.08 10.067-10.474 19.154-10.474 9.089 0 13.312 4.394 19.158 10.474 6.458 6.718 14.496 15.078 29.971 15.078 15.476 0 23.514-8.36 29.972-15.078 3.94-4.098 7.148-7.423 11.601-9.16l-4.348 26.027c-7.059 42.262-43.282 72.935-86.129 72.935-19.998 0-39.557-6.946-55.076-19.56-15.519-12.612-26.315-30.34-30.403-49.915l-6.216-29.767c4.864 1.642 8.214 5.107 12.379 9.44z"/></g></g></svg>