<svg id="Capa_1" enable-background="new 0 0 512.001 512.001" height="512" viewBox="0 0 512.001 512.001" width="512" xmlns="http://www.w3.org/2000/svg"><g><g><g><circle cx="190.042" cy="110.103" fill="#eaf6ff" r="102.603"/><path d="m190.042 7.5c-5.096 0-10.103.377-15 1.095 49.555 7.26 87.603 49.938 87.603 101.509 0 51.57-38.048 94.249-87.603 101.509 4.897.717 9.904 1.095 15 1.095 56.666 0 102.603-45.937 102.603-102.603s-45.937-102.605-102.603-102.605z" fill="#d8ecfe"/><path d="m295.077 504.5h-210.071c-17.524 0-31.317-14.956-29.902-32.422l4.421-54.578 22.953-98.174-8.372-81.826 8.372-103.347h215.128l8.372 103.347-7.983 86.619 22.564 93.381 4.421 54.578c1.414 17.466-12.379 32.422-29.903 32.422z" fill="#8795de"/><path d="m324.979 472.078-4.421-54.578-22.564-93.381 7.983-86.619-8.372-103.347h-30l27.374 337.925c1.415 17.467-12.378 32.422-29.902 32.422h30c17.524 0 31.317-14.956 29.902-32.422z" fill="#6c7fd8"/><path d="m59.525 417.5h261.033l-14.581-180h-231.871z" fill="#bec6ed"/><path d="m305.977 237.5h-30l14.581 180h30z" fill="#a2aee6"/><path d="m195.088 279.924c-2.841 2.551-7.251 2.551-10.092 0-14.897-13.379-38.306-13.31-53.098 1.41-41.353 41.153 24.908 91.276 55.337 103.056 1.814.702 3.801.702 5.615 0 30.428-11.78 96.69-61.903 55.337-103.056-14.793-14.721-38.202-14.789-53.099-1.41z" fill="#8795de"/><g><path d="m248.186 281.333c-11.558-11.502-28.378-14.058-42.287-8.243 4.449 1.866 8.632 4.605 12.287 8.243 36.415 36.239-10.615 79.427-43.144 97.271 4.411 2.42 8.559 4.379 12.193 5.785 1.814.702 3.801.702 5.615 0 30.428-11.78 96.689-61.903 55.336-103.056z" fill="#6c7fd8"/></g><path d="m302.606 104.153h-225.128c-5.523 0-10 4.477-10 10v25c0 5.523 4.477 10 10 10h225.128c5.523 0 10-4.477 10-10v-25c0-5.523-4.477-10-10-10z" fill="#d5daf3"/><path d="m302.606 104.153h-30c5.523 0 10 4.477 10 10v25c0 5.523-4.477 10-10 10h30c5.523 0 10-4.477 10-10v-25c0-5.523-4.477-10-10-10z" fill="#bec6ed"/></g><path d="m447.004 504.5h-165c-5.523 0-10-4.477-10-10v-39.637c0-51.011 41.352-92.363 92.363-92.363h.274c51.011 0 92.363 41.352 92.363 92.363v39.637c0 5.523-4.477 10-10 10z" fill="#d5daf3"/><path d="m364.641 362.5h-.274c-5.06 0-10.024.413-14.863 1.196 43.943 7.11 77.5 45.217 77.5 91.167v39.637c0 5.523-4.477 10-10 10h30c5.523 0 10-4.477 10-10v-39.637c0-51.011-41.352-92.363-92.363-92.363z" fill="#bec6ed"/></g><path d="m364.641 355h-.273c-14.467 0-28.223 3.096-40.646 8.654l-16.811-207.559c7.57-1.926 13.195-8.781 13.195-16.942v-25c0-9.649-7.851-17.5-17.5-17.5h-3.282c-6.66-54.741-53.353-96.653-109.28-96.653-55.932 0-102.629 41.912-109.289 96.653h-3.277c-9.649 0-17.5 7.851-17.5 17.5v25c0 8.163 5.626 15.019 13.199 16.943l-13.976 172.527c-.334 4.129 2.741 7.746 6.87 8.081.206.017.411.024.614.024 3.868 0 7.149-2.972 7.467-6.895l6.872-84.833h218.039l10.253 126.589c-14.456 9.589-26.283 22.835-34.149 38.411h-207.509l3.666-45.251c.334-4.129-2.741-7.746-6.87-8.081-4.134-.326-7.747 2.741-8.081 6.87l-8.744 107.938c-1.842 21.284 15.789 40.646 37.375 40.524h362c9.649 0 17.5-7.851 17.5-17.5v-39.637c0-55.064-44.798-99.863-99.863-99.863zm-282.402-125 5.942-73.347h203.726l5.94 73.347zm222.867-90.847c0 1.379-1.122 2.5-2.5 2.5h-225.128c-1.378 0-2.5-1.121-2.5-2.5v-25c0-1.379 1.122-2.5 2.5-2.5h134.859c4.142 0 7.5-3.357 7.5-7.5s-3.358-7.5-7.5-7.5h-85.985c6.273-29.539 32.806-51.653 63.692-51.653 4.142 0 7.5-3.357 7.5-7.5s-3.358-7.5-7.5-7.5c-20.225 0-39.546 7.582-54.407 21.351-13.06 12.101-21.624 27.989-24.564 45.303h-15.19c6.553-46.383 46.47-81.654 94.161-81.654 47.686 0 87.599 35.271 94.151 81.653h-36.858c-4.142 0-7.5 3.357-7.5 7.5s3.358 7.5 7.5 7.5h55.269c1.378 0 2.5 1.121 2.5 2.5zm-40.402 357.847h-179.7c-12.989.07-23.534-11.463-22.424-24.314l3.863-47.686h202.624c-2.963 9.434-4.562 19.465-4.562 29.863-.001 0 .081 41.318.199 42.137zm184.8-2.5c0 1.379-1.122 2.5-2.5 2.5h-165c-1.378 0-2.5-1.121-2.5-2.5v-39.637c0-46.794 38.069-84.863 84.863-84.863h.273c46.794 0 84.863 38.069 84.863 84.863v39.637zm-264.976-103.116c1.778.688 3.646 1.032 5.514 1.032 1.869 0 3.737-.344 5.516-1.032 28.133-10.889 65.04-37.02 72.315-71.701 3.331-15.879-1.647-30.978-14.396-43.666-17.356-17.271-45.195-18.012-63.386-1.685-.029.008-.08.008-.083.012-18.19-16.338-46.039-15.603-63.4 1.673-12.749 12.688-17.727 27.787-14.396 43.666 6.807 32.45 47.176 61.968 72.316 71.701zm-47.34-104.735c11.723-11.667 30.521-12.169 42.797-1.146 5.733 5.148 14.38 5.148 20.113 0 12.275-11.025 31.073-10.521 42.796 1.146 9.23 9.186 12.598 18.983 10.297 29.953-5.35 25.498-40.677 52.131-63.049 60.793-.073.027-.129.027-.201 0-22.374-8.662-57.701-35.295-63.051-60.793-2.3-10.969 1.068-20.767 10.298-29.953z"/></g></svg>