<svg id="Capa_1" enable-background="new 0 0 512.004 512.004" height="512" viewBox="0 0 512.004 512.004" width="512" xmlns="http://www.w3.org/2000/svg"><g><g><g><g><path d="m410.422 504.504h-308.84c-11.046 0-20-8.954-20-20v-358c0-11.046 8.954-20 20-20h308.84c11.046 0 20 8.954 20 20v358c0 11.045-8.954 20-20 20z" fill="#e5979d"/></g></g><g><path d="m308.842 504.504h-166.437v-367.36h226.91v298.602c0 5.304-2.107 10.391-5.858 14.142z" fill="#e9efff"/></g><g><path d="m369.316 137.144h-226.91v367.36h21.96v-323.853c0-9.735 7.892-17.627 17.627-17.627h187.323z" fill="#d3dcfb"/></g><g><g><path d="m103.542 484.504v-358c0-11.046 8.954-20 20-20h-21.96c-11.046 0-20 8.954-20 20v358c0 11.046 8.954 20 20 20h21.96c-11.046 0-20-8.955-20-20z" fill="#e17f85"/></g></g><g><path d="m367.495 444.03h-48.653c-5.523 0-10 4.477-10 10v50.474l54.616-54.616c1.707-1.708 3.055-3.702 4.037-5.858z" fill="#bac5e2"/></g><g><path d="m302.663 65.164c.997-4.905 1.248-10.082.612-15.412-2.71-22.731-21.521-40.573-44.36-42.132-28.085-1.918-51.463 20.296-51.463 47.97 0 3.277.331 6.476.96 9.567.846 4.162-2.28 8.064-6.527 8.064h-68.993c-6.147 0-11.131 4.983-11.131 11.131v46.661c0 6.147 4.983 11.131 11.131 11.131h245.292c6.147 0 11.131-4.984 11.131-11.131v-46.661c0-6.147-4.983-11.131-11.131-11.131h-68.994c-4.243 0-7.372-3.898-6.527-8.057zm-64.756-9.575c0-9.738 7.894-17.631 17.631-17.631 9.738 0 17.631 7.894 17.631 17.631s-7.894 17.631-17.631 17.631c-9.737.001-17.631-7.893-17.631-17.631z" fill="#ffdd40"/></g><g><path d="m143.722 131.013v-46.661c0-6.147 4.984-11.131 11.131-11.131h-21.96c-6.147 0-11.131 4.984-11.131 11.131v46.661c0 6.147 4.983 11.131 11.131 11.131h21.96c-6.148 0-11.131-4.984-11.131-11.131z" fill="#ffc043"/></g><g><path d="m230.372 65.157c-.628-3.091-.96-6.29-.96-9.567 0-22.781 15.847-41.848 37.115-46.814-2.475-.581-5.016-.979-7.612-1.157-28.085-1.918-51.463 20.296-51.463 47.97 0 3.277.331 6.476.96 9.567.846 4.162-2.28 8.064-6.527 8.064h21.96c4.248.001 7.373-3.901 6.527-8.063z" fill="#ffc043"/></g><g><path d="m292.867 218.317h-18.321c-1.633 0-2.956-1.324-2.956-2.956v-18.321c0-5.871-4.76-10.631-10.631-10.631h-10.839c-5.871 0-10.631 4.76-10.631 10.631v18.321c0 1.633-1.324 2.956-2.956 2.956h-18.323c-5.871 0-10.631 4.76-10.631 10.631v10.839c0 5.871 4.76 10.631 10.631 10.631h18.321c1.633 0 2.956 1.324 2.956 2.956v18.321c0 5.871 4.76 10.631 10.631 10.631h10.839c5.871 0 10.631-4.76 10.631-10.631v-18.321c0-1.633 1.324-2.956 2.956-2.956h18.321c5.871 0 10.631-4.76 10.631-10.631v-10.839c.002-5.871-4.758-10.631-10.629-10.631z" fill="#b3e59f"/></g></g><g><path d="m430.422 197.763c4.143 0 7.5-3.357 7.5-7.5v-63.76c0-15.163-12.336-27.5-27.5-27.5h-13.606v-14.651c0-10.273-8.357-18.632-18.631-18.632h-67.989c1.025-5.527 1.203-11.193.527-16.856-3.15-26.42-24.723-46.913-51.296-48.727-15.592-1.072-30.448 4.2-41.823 14.823-11.217 10.478-17.65 25.286-17.65 40.63 0 3.398.312 6.802.929 10.131h-67.989c-10.273 0-18.631 8.358-18.631 18.632v14.651h-12.68c-15.164 0-27.5 12.337-27.5 27.5v266.04c0 4.143 3.357 7.5 7.5 7.5s7.5-3.357 7.5-7.5v-266.04c0-6.893 5.607-12.5 12.5-12.5h12.68v17.009c0 10.273 8.357 18.631 18.631 18.631h228.923v286.103c0 .264-.022.523-.038.784h-42.936c-9.649 0-17.5 7.851-17.5 17.5v42.974h-151.438v-324.06c0-4.143-3.357-7.5-7.5-7.5s-7.5 3.357-7.5 7.5v324.06h-33.323c-6.893 0-12.5-5.607-12.5-12.5v-60.64c0-4.143-3.357-7.5-7.5-7.5s-7.5 3.357-7.5 7.5v60.64c0 15.163 12.336 27.5 27.5 27.5h308.84c15.164 0 27.5-12.337 27.5-27.5v-262.441c0-4.143-3.357-7.5-7.5-7.5s-7.5 3.357-7.5 7.5v262.439c0 6.893-5.607 12.5-12.5 12.5h-83.473l41.812-41.812c5.193-5.194 8.054-12.1 8.054-19.445v-286.103h1.369c10.273 0 18.631-8.357 18.631-18.631v-17.009h13.606c6.893 0 12.5 5.607 12.5 12.5v63.76c.001 4.143 3.358 7.5 7.501 7.5zm-111.58 253.767h32.366l-34.866 34.866v-32.366c0-1.379 1.121-2.5 2.5-2.5zm62.973-320.518c0 2.002-1.629 3.631-3.631 3.631h-245.292c-2.002 0-3.631-1.629-3.631-3.631v-46.66c0-2.003 1.629-3.632 3.631-3.632h68.993c4.265 0 8.257-1.893 10.953-5.191 2.715-3.322 3.78-7.646 2.923-11.865-.536-2.643-.809-5.359-.809-8.074 0-11.368 4.577-21.904 12.89-29.668 8.305-7.756 19.164-11.591 30.563-10.82 19.387 1.324 35.126 16.27 37.423 35.539.524 4.392.351 8.775-.515 13.028v.002c-.856 4.216.209 8.537 2.922 11.857 2.697 3.3 6.69 5.192 10.956 5.192h68.993c2.002 0 3.631 1.629 3.631 3.632z"/><path d="m255.539 30.458c-13.857 0-25.132 11.274-25.132 25.132s11.274 25.131 25.132 25.131c13.857 0 25.131-11.273 25.131-25.131s-11.274-25.132-25.131-25.132zm0 35.262c-5.587 0-10.132-4.545-10.132-10.131 0-5.587 4.545-10.132 10.132-10.132 5.586 0 10.131 4.545 10.131 10.132s-4.545 10.131-10.131 10.131z"/><path d="m260.958 178.908h-10.839c-9.997 0-18.131 8.134-18.131 18.131v13.778h-13.778c-9.997 0-18.131 8.134-18.131 18.131v10.839c0 9.998 8.134 18.132 18.131 18.132h13.778v13.777c0 9.997 8.134 18.131 18.131 18.131h10.839c9.998 0 18.132-8.134 18.132-18.131v-13.777h13.777c9.997 0 18.131-8.134 18.131-18.132v-10.839c0-9.997-8.134-18.131-18.131-18.131h-13.777v-13.778c0-9.997-8.134-18.131-18.132-18.131zm31.909 46.909c1.727 0 3.131 1.404 3.131 3.131v10.839c0 1.727-1.404 3.132-3.131 3.132h-18.321c-5.766 0-10.456 4.69-10.456 10.456v18.321c0 1.727-1.405 3.131-3.132 3.131h-10.839c-1.727 0-3.131-1.404-3.131-3.131v-18.321c0-5.766-4.691-10.456-10.457-10.456h-18.321c-1.727 0-3.131-1.405-3.131-3.132v-10.839c0-1.727 1.404-3.131 3.131-3.131h18.321c5.766 0 10.457-4.691 10.457-10.457v-18.321c0-1.727 1.404-3.131 3.131-3.131h10.839c1.727 0 3.132 1.404 3.132 3.131v18.321c0 5.766 4.69 10.457 10.456 10.457z"/><path d="m329.301 310.208h-114.059c-4.143 0-7.5 3.357-7.5 7.5s3.357 7.5 7.5 7.5h114.059c4.143 0 7.5-3.357 7.5-7.5s-3.358-7.5-7.5-7.5z"/><path d="m182.421 325.208h5.461c4.143 0 7.5-3.357 7.5-7.5s-3.357-7.5-7.5-7.5h-5.461c-4.143 0-7.5 3.357-7.5 7.5s3.357 7.5 7.5 7.5z"/><path d="m329.301 341.788h-114.059c-4.143 0-7.5 3.357-7.5 7.5s3.357 7.5 7.5 7.5h114.059c4.143 0 7.5-3.357 7.5-7.5s-3.358-7.5-7.5-7.5z"/><path d="m182.421 356.788h5.461c4.143 0 7.5-3.357 7.5-7.5s-3.357-7.5-7.5-7.5h-5.461c-4.143 0-7.5 3.357-7.5 7.5s3.357 7.5 7.5 7.5z"/><path d="m329.301 373.369h-114.059c-4.143 0-7.5 3.357-7.5 7.5s3.357 7.5 7.5 7.5h114.059c4.143 0 7.5-3.357 7.5-7.5s-3.358-7.5-7.5-7.5z"/><path d="m182.421 388.369h5.461c4.143 0 7.5-3.357 7.5-7.5s-3.357-7.5-7.5-7.5h-5.461c-4.143 0-7.5 3.357-7.5 7.5s3.357 7.5 7.5 7.5z"/><path d="m336.801 412.449c0-4.143-3.357-7.5-7.5-7.5h-114.059c-4.143 0-7.5 3.357-7.5 7.5s3.357 7.5 7.5 7.5h114.059c4.142 0 7.5-3.357 7.5-7.5z"/><path d="m182.421 419.949h5.461c4.143 0 7.5-3.357 7.5-7.5s-3.357-7.5-7.5-7.5h-5.461c-4.143 0-7.5 3.357-7.5 7.5s3.357 7.5 7.5 7.5z"/><path d="m215.242 436.53c-4.143 0-7.5 3.357-7.5 7.5s3.357 7.5 7.5 7.5h65.52c4.143 0 7.5-3.357 7.5-7.5s-3.357-7.5-7.5-7.5z"/><path d="m182.421 451.53h5.461c4.143 0 7.5-3.357 7.5-7.5s-3.357-7.5-7.5-7.5h-5.461c-4.143 0-7.5 3.357-7.5 7.5s3.357 7.5 7.5 7.5z"/></g></g></svg>