<svg id="Capa_1" enable-background="new 0 0 512 512" height="512" viewBox="0 0 512 512" width="512" xmlns="http://www.w3.org/2000/svg"><g><g><path d="m82.694 203.456h346.613v234.595h-346.613z" fill="#fed2a4"/><g fill="#ffbd86"><path d="m153.533 402.084h159.397v35.968h-159.397z"/><path d="m153.533 203.456h159.397v198.627h-159.397z"/><path d="m406.538 203.456h22.768v234.595h-22.768z"/></g><path d="m450.29 203.46h-388.58c-3.95 0-6.5-4.2-4.69-7.71l50.72-98c2.83-5.48 8.48-8.92 14.65-8.92h267.22c6.17 0 11.82 3.44 14.65 8.92l50.72 98c1.81 3.51-.74 7.71-4.69 7.71z" fill="#5d5360"/><path d="m337.89 203.46h-209.31l30.87-57.44c2.87-5.36 8.45-8.69 14.53-8.69h118.51c6.07 0 11.65 3.33 14.53 8.69z" fill="#4b3f4e"/><path d="m454.975 195.749-50.713-98.001c-2.834-5.477-8.486-8.916-14.653-8.916h-22.768c6.167 0 11.819 3.439 14.653 8.916l50.713 98.001c1.819 3.515-.732 7.707-4.69 7.707h22.768c3.958 0 6.509-4.192 4.69-7.707z" fill="#4b3f4e"/><path d="m176.301 402.084h159.397v35.968h-159.397z" fill="#cdbfba"/><path d="m312.931 402.084h22.768v35.968h-22.768z" fill="#b9acac"/><path d="m355.497 438.051h-198.994v25.274c0 4.603 3.732 8.335 8.335 8.335h182.323c4.603 0 8.335-3.732 8.335-8.335v-25.274z" fill="#cdbfba"/><path d="m332.728 438.051v25.274c0 4.603-3.732 8.335-8.335 8.335h22.768c4.603 0 8.335-3.732 8.335-8.335v-25.274z" fill="#b9acac"/><path d="m176.301 203.456h159.397v198.627h-159.397z" fill="#ffe5c2"/><path d="m312.931 203.456h22.768v198.627h-22.768z" fill="#fed2a4"/><path d="m206.98 282.311h98.04v119.773h-98.04z" fill="#d19a6e"/><path d="m282.252 282.311h22.768v119.773h-22.768z" fill="#c38c66"/><path d="m366.462 230.697h-220.924c-3.994 0-6.542-4.262-4.651-7.78l41.327-76.901c2.876-5.351 8.459-8.689 14.533-8.689h118.507c6.074 0 11.658 3.338 14.533 8.689l41.327 76.901c1.89 3.517-.658 7.78-4.652 7.78z" fill="#cdbfba"/><path d="m371.113 222.917-41.327-76.901c-2.876-5.351-8.459-8.689-14.533-8.689h-22.768c6.075 0 11.658 3.338 14.533 8.689l41.327 76.901c1.891 3.518-.658 7.78-4.651 7.78h22.768c3.994 0 6.542-4.262 4.651-7.78z" fill="#b9acac"/><path d="m308.482 40.34h53.467v48.492h-53.467z" fill="#cdbfba"/><path d="m339.181 40.34h22.768v48.492h-22.768z" fill="#b9acac"/><path d="m366.666 265.453h31.983v55.151h-31.983z" fill="#a6e7f0"/><path d="m113.633 265.453h31.983v55.151h-31.983z" fill="#a6e7f0"/><path d="m30.268 326.574c-12.575 0-22.768-10.194-22.768-22.768v-51.642c0-12.574 10.194-22.768 22.768-22.768 12.574 0 22.768 10.194 22.768 22.768v51.642c0 12.574-10.193 22.768-22.768 22.768z" fill="#95d6a4"/><path d="m30.268 229.395c-4.149 0-8.034 1.115-11.384 3.054 6.803 3.937 11.384 11.289 11.384 19.715v51.642c0 8.426-4.581 15.777-11.384 19.715 3.35 1.938 7.235 3.054 11.384 3.054 12.574 0 22.768-10.194 22.768-22.768v-51.642c0-12.576-10.193-22.77-22.768-22.77z" fill="#78c2a4"/><path d="m481.732 326.574c-12.574 0-22.768-10.194-22.768-22.768v-51.642c0-12.574 10.194-22.768 22.768-22.768 12.574 0 22.768 10.194 22.768 22.768v51.642c0 12.574-10.194 22.768-22.768 22.768z" fill="#95d6a4"/><path d="m481.732 229.395c-4.149 0-8.034 1.115-11.384 3.054 6.803 3.937 11.384 11.289 11.384 19.715v51.642c0 8.426-4.581 15.777-11.384 19.715 3.35 1.938 7.235 3.054 11.384 3.054 12.574 0 22.768-10.194 22.768-22.768v-51.642c0-12.576-10.194-22.77-22.768-22.77z" fill="#78c2a4"/></g><g><path d="m366.666 257.953c-4.142 0-7.5 3.357-7.5 7.5v55.15c0 4.143 3.358 7.5 7.5 7.5h31.983c4.142 0 7.5-3.357 7.5-7.5v-55.15c0-4.143-3.358-7.5-7.5-7.5zm24.483 55.151h-16.983v-40.15h16.983z"/><path d="m145.617 328.104c4.142 0 7.5-3.357 7.5-7.5v-55.15c0-4.143-3.358-7.5-7.5-7.5h-31.983c-4.142 0-7.5 3.357-7.5 7.5v55.15c0 4.143 3.358 7.5 7.5 7.5zm-24.484-55.151h16.983v40.15h-16.983z"/><path d="m481.732 221.896c-16.69 0-30.268 13.578-30.268 30.268v51.643c0 14.102 9.694 25.981 22.768 29.326v25.489h-131.032v-120.426h23.262c4.54 0 8.641-2.326 10.97-6.223s2.437-8.609.288-12.607l-4.518-8.406h48.604v120.019c0 4.143 3.358 7.5 7.5 7.5s7.5-3.357 7.5-7.5v-120.019h13.484c4.49 0 8.567-2.292 10.906-6.131 2.342-3.842 2.51-8.521.444-12.526l-50.716-97.993c-4.133-8.006-12.3-12.979-21.314-12.979h-20.161v-33.491h6.713c4.142 0 7.5-3.357 7.5-7.5s-3.358-7.5-7.5-7.5h-82.399c-4.142 0-7.5 3.357-7.5 7.5s3.358 7.5 7.5 7.5h7.219v33.49h-91.495c-4.142 0-7.5 3.357-7.5 7.5s3.358 7.5 7.5 7.5h180.123c3.378 0 6.438 1.862 7.989 4.867l49.044 94.763h-81.502l-28.748-53.495c-4.189-7.795-12.29-12.638-21.14-12.638h-118.506c-8.85 0-16.95 4.843-21.14 12.638l-28.748 53.495h-81.503l49.048-94.77c1.548-2.998 4.608-4.86 7.986-4.86h51.916c4.142 0 7.5-3.357 7.5-7.5s-3.358-7.5-7.5-7.5h-51.916c-9.014 0-17.181 4.974-21.311 12.973l-50.726 98.01c-2.06 3.995-1.892 8.674.45 12.517 2.339 3.839 6.417 6.131 10.906 6.131h13.484v147.66h-37.425v-25.489c13.074-3.345 22.768-15.224 22.768-29.326v-51.643c0-16.689-13.578-30.268-30.268-30.268s-30.268 13.579-30.268 30.268v51.643c0 14.102 9.694 25.981 22.768 29.326v104.92c0 4.143 3.358 7.5 7.5 7.5.013 0 .026-.002.039-.002l118.697.002v17.773c0 8.731 7.104 15.835 15.835 15.835h182.322c8.731 0 15.835-7.104 15.835-15.835v-17.773l118.697-.002c.013 0 .026.002.039.002 4.142 0 7.5-3.357 7.5-7.5v-104.92c13.074-3.346 22.768-15.225 22.768-29.326v-51.643c0-16.689-13.578-30.267-30.268-30.267zm-165.75-174.056h38.467v33.49h-38.467zm-147.182 325.78.001 56.93h-30.676v-56.93zm87.2.879c4.142 0 7.5-3.357 7.5-7.5v-77.188h34.02v104.77h-83.04v-104.77h34.02v77.188c0 4.143 3.358 7.5 7.5 7.5zm-72.199 56.051v-20.966h144.397v20.966zm-60.676 0h-32.931v-56.93h32.931zm267.033 0v-56.93h31.648v56.93zm-15-56.93v56.93h-31.959l.001-56.93zm-46.958 20.96h-15.68v-112.27c0-4.143-3.358-7.5-7.5-7.5h-98.04c-4.142 0-7.5 3.357-7.5 7.5v112.27h-15.68v-156.384h144.4zm-139.38-245.014c1.571-2.924 4.608-4.739 7.927-4.739h118.507c3.318 0 6.356 1.815 7.927 4.739l39.569 73.63h-213.499zm-98.626 61.394h48.604l-4.518 8.406c-2.149 3.998-2.041 8.711.288 12.607s6.43 6.223 10.97 6.223h23.262v120.424h-78.606zm-75.194 92.846v-51.643c0-8.419 6.849-15.268 15.268-15.268s15.268 6.849 15.268 15.268v51.643c0 8.419-6.849 15.268-15.268 15.268s-15.268-6.849-15.268-15.268zm22.77 69.814h37.424v56.93h-37.424zm310.227 89.705c0 .46-.375.835-.835.835h-182.323c-.46 0-.835-.375-.835-.835v-17.773h183.993zm126.233-32.775h-37.424v-56.93h37.424zm22.77-126.744c0 8.419-6.849 15.268-15.268 15.268s-15.268-6.849-15.268-15.268v-51.643c0-8.419 6.849-15.268 15.268-15.268s15.268 6.849 15.268 15.268z"/></g></g></svg>