<svg id="Capa_1" enable-background="new 0 0 511.981 511.981" height="512" viewBox="0 0 511.981 511.981" width="512" xmlns="http://www.w3.org/2000/svg"><g><g><path d="m271.411 373.867h-13.93v74.906h15.219l.781-1.671v-71.743z" fill="#b5dcff"/><path d="m258.481 373.867h-13.613l-1.387 1.492v71.743l.959 1.671h14.041z" fill="#8bcaff"/><path d="m149.671 382.29c-8.021 3.238-13.272 11.022-13.272 19.671v45.854h13.165l.78-.713v-38.463c0-5.219 3.093-10.447 8.694-12.597l73.419-28.191 1.441-1.327v-18.24z" fill="#b5dcff"/><path d="m147.784 368.296c-17.404 6.928-27.439 23.467-27.439 40.343v38.463l1.346.713h15.709v-44.854c0-8.649 5.251-16.433 13.272-19.671l83.228-33.603v-14.039l-1.75-.938z" fill="#8bcaff"/><path d="m369.178 368.296-84.366-33.586-1.849.938v15.906l79.152 29.88c10.702 4.04 17.785 14.285 17.785 25.724v41.75h14.91l1.807-1.807v-38.463c-.001-16.828-9.983-33.393-27.439-40.342z" fill="#b5dcff"/><path d="m380.9 406.158c0-11.44-7.083-21.684-17.785-25.724l-80.152-30.258v15.347l1.541 2.327 73.419 28.191c5.572 2.14 8.694 7.347 8.694 12.597v38.463l1.7 1.806h12.583z" fill="#8bcaff"/><path d="m278.947 105.808h.001v-32.894l-5.892-4.766-17.045-5.311v260.644h20.639l2.298-1.914v-183.426h-.001l-3.464-3.576v-26.25z" fill="#8479c2"/><path d="m258.011 63.46-16.512-5.145-3.485 2.742v44.751l2.886 2.507v26.25l-2.886 3.576v183.426l1.719 1.914h18.278z" fill="#6e60b8"/><path d="m395.261 446.383c-9.473 5.485-15.855 15.713-15.855 27.447s6.383 21.962 15.855 27.447c10.079-5.02 17.007-15.422 17.007-27.447s-6.928-22.427-17.007-27.447z" fill="#8479c2"/><path d="m379.965 473.83c0-11.682 6.537-21.836 16.151-27.008-4.317-2.323-9.254-3.643-14.5-3.643-16.928 0-30.651 13.723-30.651 30.651s13.723 30.651 30.651 30.651c5.246 0 10.183-1.32 14.5-3.643-9.614-5.173-16.151-15.326-16.151-27.008z" fill="#6e60b8"/><path d="m274.888 320.692h-9.754c-4.124 1.266-7.122 5.102-7.122 9.64v35.386c0 4.538 2.999 8.375 7.123 9.641h9.754c5.48 0 9.923-4.443 9.923-9.923v-34.82c-.001-5.481-4.444-9.924-9.924-9.924z" fill="#dbedff"/><path d="m258.172 365.436v-34.82c0-5.48 4.443-9.923 9.923-9.923h-26.022c-5.48 0-9.923 4.443-9.923 9.923v34.82c0 5.48 4.443 9.923 9.923 9.923h26.022c-5.48 0-9.923-4.443-9.923-9.923z" fill="#b5dcff"/><path d="m256.011 105.808h22.936v32.333h-22.936z" fill="#dbedff"/><path d="m238.014 105.808h19.997v32.333h-19.997z" fill="#b5dcff"/><g><path d="m331.303 20.799c-6.962-8.151-18.624-10.763-28.199-5.943-17.175 8.644-40.469 8.925-89.361-2.713l-4.611 5.247 6.375 29.375 8.39 6.346c16.309 8.796 31.441 19.877 51.315 19.877 25.938 0 43.22-9.728 53.942-19.29 9.558-8.523 10.468-23.16 2.149-32.899z" fill="#ffc365"/><path d="m223.896 53.112c-11.527-15.151-11.354-32.025-10.154-40.968-2.608-.621-5.27-1.267-8.027-1.956-51.165-12.791-86.89 22.772-102.472 42.945-5.142 6.656-3.575 16.264 3.455 20.881 5.308 3.486 12.279 3.075 17.146-1.003 48.94-41.005 75.798-32.98 100.052-19.899z" fill="#ffa90f"/></g><path d="m272.125 446.383c-9.473 5.485-15.855 15.713-15.855 27.447s6.383 21.962 15.855 27.447c10.079-5.02 17.007-15.422 17.007-27.447s-6.928-22.427-17.007-27.447z" fill="#8479c2"/><path d="m256.829 473.83c0-11.682 6.537-21.836 16.151-27.008-4.317-2.323-9.254-3.643-14.5-3.643-16.928 0-30.651 13.723-30.651 30.651s13.723 30.651 30.651 30.651c5.246 0 10.183-1.32 14.5-3.643-9.614-5.173-16.151-15.326-16.151-27.008z" fill="#6e60b8"/><path d="m148.989 446.383c-9.473 5.485-15.855 15.713-15.855 27.447s6.383 21.962 15.855 27.447c10.079-5.02 17.007-15.422 17.007-27.447s-6.928-22.427-17.007-27.447z" fill="#8479c2"/><path d="m133.694 473.83c0-11.682 6.537-21.836 16.151-27.008-4.317-2.323-9.254-3.643-14.5-3.643-16.928 0-30.651 13.723-30.651 30.651s13.723 30.651 30.651 30.651c5.246 0 10.183-1.32 14.5-3.643-9.615-5.173-16.151-15.326-16.151-27.008z" fill="#6e60b8"/></g><path d="m343.212 473.83c0 21.037 17.114 38.151 38.151 38.151s38.151-17.114 38.151-38.151c0-12.628-6.171-23.837-15.651-30.784v-34.407c0-20.962-12.625-39.532-32.164-47.311l-79.692-31.724c-.275-4.761-2.462-9.006-5.813-11.989v-70.698c0-4.143-3.357-7.5-7.5-7.5s-7.5 3.357-7.5 7.5v66.275h-25.934v-167.551h25.934v66.275c0 4.143 3.357 7.5 7.5 7.5s7.5-3.357 7.5-7.5c0-15.8 0-118.483 0-132.033 22.821-2.483 38.323-12.226 47.696-20.587 12.491-11.138 13.774-30.593 2.862-43.368-9.331-10.925-24.66-14.118-37.274-7.771-6.761 3.403-14.337 5.129-23.844 5.432-4.141.132-7.39 3.595-7.258 7.734.132 4.141 3.618 7.403 7.734 7.258 11.766-.374 21.334-2.606 30.111-7.025 6.43-3.234 14.293-1.544 19.124 4.115 5.654 6.619 5.009 16.682-1.439 22.431-13.012 11.606-28.684 16.748-45.971 17.331-48.677 1.519-72.642-70.667-159.161 1.83-2.315 1.939-5.693 2.138-8.212.483-3.368-2.212-4.123-6.811-1.637-10.027 15.457-20.013 48.316-51.859 94.718-40.254 13.795 3.448 25.551 6.007 35.938 7.821 4.076.723 7.965-2.017 8.679-6.097.713-4.08-2.017-7.966-6.097-8.679-10.03-1.753-21.44-4.238-34.883-7.599-43.753-10.935-82.658 9.943-110.227 45.637-7.813 10.115-5.385 24.735 5.273 31.735 8.17 5.365 18.649 4.703 26.08-1.524 50.483-42.299 72.737-29.919 101.853-13.325v252.181c-3.351 2.983-5.537 7.228-5.812 11.989l-79.692 31.724c-19.539 7.778-32.165 26.35-32.165 47.311v34.407c-9.48 6.948-15.651 18.156-15.651 30.784 0 21.037 17.114 38.151 38.151 38.151s38.151-17.114 38.151-38.151c0-12.628-6.171-23.837-15.651-30.784v-34.407c0-1.894 1.017-4.495 3.883-5.595l67.473-25.908c1.848 2.032 4.163 3.621 6.78 4.603v61.307c-9.48 6.948-15.651 18.156-15.651 30.784 0 21.037 17.114 38.151 38.151 38.151s38.151-17.114 38.151-38.151c0-12.628-6.171-23.837-15.651-30.784v-61.307c2.618-.982 4.933-2.571 6.781-4.602l67.472 25.908c2.866 1.1 3.883 3.701 3.883 5.595v34.407c-9.479 6.946-15.65 18.155-15.65 30.783zm38.152 23.151c-12.766 0-23.151-10.386-23.151-23.151 0-12.842 10.476-23.151 23.151-23.151 12.665 0 23.151 10.299 23.151 23.151 0 12.765-10.386 23.151-23.151 23.151zm-106.729-168.789c1.262 0 2.424 1.032 2.424 2.424v34.82c0 1.269-1.044 2.423-2.424 2.423-24.21 0-17.402 0-32.814 0-1.383 0-2.423-1.16-2.423-2.423 0-9.302 0-27.07 0-34.82 0-1.383 1.153-2.424 2.423-2.424zm-29.374-197.551v-17.334h25.934v17.334zm25.934-50.269v17.936h-25.934v-24.939c8.252 3.799 16.866 6.438 25.934 7.003zm-136.103 416.609c-12.766 0-23.151-10.386-23.151-23.151 0-12.754 10.378-23.151 23.151-23.151 12.633 0 23.151 10.268 23.151 23.151 0 12.765-10.385 23.151-23.151 23.151zm21.006-107.941c-8.204 3.15-13.506 10.844-13.506 19.599v27.784c-2.426-.486-4.933-.744-7.5-.744s-5.074.259-7.5.744v-27.784c0-14.781 8.916-27.882 22.713-33.375l74.093-29.495v17.046zm102.13 107.941c-12.766 0-23.151-10.386-23.151-23.151 0-12.861 10.498-23.151 23.151-23.151 12.665 0 23.151 10.299 23.151 23.151 0 12.765-10.386 23.151-23.151 23.151zm0-61.303c-2.567 0-5.074.259-7.5.744v-53.564h15v53.564c-2.426-.485-4.933-.744-7.5-.744zm102.13-46.638-68.299-26.225v-17.047l74.092 29.495c13.798 5.493 22.713 18.594 22.713 33.375v27.784c-2.426-.486-4.933-.744-7.5-.744s-5.074.259-7.5.744v-27.784c0-8.755-5.302-16.448-13.506-19.598z"/></g></svg>