<svg id="Capa_1" enable-background="new 0 0 512.008 512.008" height="512" viewBox="0 0 512.008 512.008" width="512" xmlns="http://www.w3.org/2000/svg"><g><g><path d="m474.504 489.5c-.275-18.242-6.956-36.704-18.169-51.299-6.112-4.637-12.898-8.311-20.236-10.684l-84.426-27.309h-191.34l-84.426 27.309c-26.665 8.625-46.155 34.245-51.761 61.984l231.856 5.008z" fill="#94d8e6"/><path d="m456.335 438.201c10.454 13.608 16.969 30.577 18.026 47.595.125 2.01-1.488 3.705-3.502 3.705h-446.711c-1.003 4.961-1.568 9.989-1.644 15h467c-.382-25.323-13.098-51.072-33.169-66.3z" fill="#6bbdd5"/><path d="m182.827 392.931 73.177 77.195 73.177-77.195c-3.833-1.24-6.897-3.924-8.677-7.331l-127.294-20.776v13.835c0 6.506-4.193 12.27-10.383 14.272z" fill="#ebae9d"/><path d="m271.004 404.049c15.753 0 27.826-3.305 49.5-18.45-1.095-2.095-1.706-4.463-1.706-6.941v-46.21h-125.588v32.374c9.644 7.166 18.304 13.516 21.929 16.197 25.812 19.085 38.633 23.03 55.865 23.03z" fill="#e09380"/><path d="m133.628 186.067c0-11.206-11.825-18.469-21.82-13.402s-16.913 17.694-16.913 42.351 14.509 53.049 41.919 53.049h238.38c27.41 0 41.919-28.392 41.919-53.049s-6.918-37.284-16.913-42.351-21.82 2.195-21.82 13.402z" fill="#e09380"/><path d="m370.38 108.55c0-39.332-6.525-58.497-29.228-77.832-22.028-14.008-52.051-23.218-85.148-23.218-67.587 0-122.376 38.393-122.376 77.662v23.388z" fill="#bae6ef"/><path d="m341.152 30.718c14.472 17.03 22.228 37.112 22.228 54.444 0 .698.056 4.864.107 8.472.036 2.545-2.56 4.255-4.9 3.255-19.601-8.384-51.317-15.389-102.583-15.389-74.373 0-107.594 14.741-122.376 27.05v30.382h244.752s0-50.847 0-53.77c0-20.039-14.273-39.847-37.228-54.444z" fill="#94d8e6"/><path d="m370.38 239.452-7-123.521c-16.848-11.057-49.698-19.43-107.376-19.43-94.537 0-122.376 22.494-122.376 42.432v100.519c0 64.865 27.964 83.068 66.512 111.569 25.811 19.084 38.633 23.029 55.865 23.029 0 0 22.053-3.945 47.865-23.029 38.546-28.501 66.51-46.704 66.51-111.569z" fill="#ebae9d"/><path d="m256.004 245.132c3.519 0 7.039-.994 10.118-2.982 6.16-3.976 10.048-12.817 7.852-20.688l-4.115-14.748c-3.913-14.026-23.799-14.026-27.712 0l-4.115 14.748c-2.196 7.871 1.693 16.712 7.852 20.688 3.081 1.987 6.601 2.982 10.12 2.982" fill="#e09380"/><path d="m206.991 285.695c17.633 35.654 80.392 35.654 98.025 0 2.744-5.549-1.216-12.059-7.406-12.059h-83.213c-6.19.001-10.15 6.51-7.406 12.059z" fill="#eef9fa"/><path d="m363.38 115.93v123.521c0 64.865-27.964 83.068-66.512 111.569-25.811 19.084-40.865 23.029-40.865 23.029 17.232 0 30.053-3.945 55.865-23.029 38.548-28.501 66.512-46.704 66.512-111.569 0 0 0-55.938 0-100.519 0-7.773-4.233-15.935-15-23.002z" fill="#e09380"/><path d="m329.566 379.928-73.562 80.198-6.678-2.644-3.499-8.451-63.385-69.103-22.108 20.279 65.138 71.014 7.339 3.553 2.838 7.543 6.596 7.191 13.759 5 13.759-5 81.911-89.301z" fill="#bae6ef"/><path d="m242.245 489.508h27.518l-13.759 15zm3.582-40.477-20.354 22.191 10.177 11.095 20.354-22.191z" fill="#94d8e6"/></g><g><path d="m256.004 512.008c-2.102 0-4.106-.882-5.527-2.431l-48.195-52.543c-2.8-3.052-2.595-7.797.457-10.597 3.053-2.8 7.797-2.596 10.597.458l22.313 24.326 10.177-11.096-63.842-69.602-11.054 10.14 21.734 23.695c2.8 3.052 2.595 7.796-.457 10.597-3.052 2.799-7.797 2.597-10.597-.458l-23.55-25.673-79.845 25.827c-27.016 8.738-47.743 38.815-48.213 69.961-.062 4.103-3.408 7.387-7.497 7.387-.039 0-.077 0-.116-.001-4.142-.062-7.448-3.471-7.386-7.612.571-37.88 25.214-73.209 58.595-84.006l82.87-26.807 20.903-19.174c1.466-1.345 3.418-2.051 5.393-1.966 1.032.045 2.033.301 2.944.742v-23.488c-26.432-19.626-48.015-37.652-56.126-74.697-27.431-4.433-42.189-33.612-42.189-59.976 0-25.469 7.073-41.968 21.021-49.04 5.606-2.842 11.96-3.207 17.711-1.15v-79.662c.002-45.367 60.692-85.162 129.879-85.162s129.876 39.795 129.876 85.162v79.663c5.752-2.057 12.104-1.692 17.711 1.15 13.949 7.072 21.021 23.571 21.021 49.04 0 26.364-14.755 55.546-42.189 59.976-8.111 37.046-29.694 55.071-56.126 74.697v23.488c.912-.441 1.913-.697 2.944-.742 1.983-.086 3.927.621 5.393 1.966l20.903 19.174 51.847 16.771c3.941 1.274 6.103 5.503 4.828 9.444-1.274 3.94-5.5 6.103-9.444 4.827l-48.822-15.792-92.416 100.752c-1.42 1.55-3.425 2.432-5.526 2.432zm-10.177-29.691 10.177 11.095 85.073-92.748-11.054-10.14zm-46.715-95.311 56.892 62.025 56.892-62.025c-1.054-2.632-1.598-5.451-1.598-8.347v-17.967c-24.757 17.522-38.373 20.857-55.294 20.857s-30.537-3.335-55.294-20.857v17.967c0 2.896-.544 5.715-1.598 8.347zm-57.985-200.94v53.385c0 58.755 23.616 76.161 59.364 102.508l4.107 3.031c24.796 18.333 36.333 21.56 51.405 21.56s26.609-3.227 51.405-21.56l4.107-3.031c35.748-26.347 59.364-43.753 59.364-102.508v-100.518c0-16.114-30.086-34.933-114.876-34.933-17.411 0-33.263.784-47.114 2.33-4.121.455-7.826-2.506-8.286-6.622-.459-4.117 2.505-7.826 6.622-8.286 14.403-1.607 30.815-2.422 48.779-2.422 44.062 0 77.578 4.829 99.615 14.354 4.443 1.92 10.068 4.803 15.261 8.785v-26.977c0-33.12-49.128-70.162-114.876-70.162s-114.877 37.042-114.877 70.162v26.933c7.508-5.737 18.621-11.148 34.955-15.263 4.016-1.013 8.094 1.423 9.105 5.44 1.012 4.017-1.424 8.093-5.441 9.104-24.542 6.183-38.619 16.227-38.619 27.556zm244.753 0v53.385c0 6.964-.318 13.427-.93 19.456 16.073-5.778 24.663-25.693 24.663-43.892 0-13.307-2.222-30.296-12.805-35.661-3.387-1.718-6.263-.363-7.341.3-1.078.662-3.587 2.614-3.587 6.412zm-267.297-7.547c-1.023 0-2.17.221-3.383.836-10.583 5.365-12.805 22.354-12.805 35.661 0 18.198 8.59 38.113 24.663 43.892-.612-6.03-.93-12.492-.93-19.456v-53.385c0-3.799-2.508-5.75-3.587-6.412-.693-.426-2.125-1.136-3.958-1.136zm370.918 333.481c-4.089 0-7.435-3.283-7.497-7.387-.47-31.146-21.197-61.223-48.213-69.961-3.941-1.274-6.103-5.503-4.828-9.444 1.275-3.94 5.502-6.103 9.444-4.827 33.381 10.797 58.024 46.126 58.595 84.006.062 4.142-3.244 7.55-7.386 7.612-.037.001-.076.001-.115.001zm-233.497-192.063c-24.948 0-46.305-11.847-55.735-30.916-2.458-4.971-2.184-10.742.733-15.438 2.895-4.662 7.903-7.445 13.396-7.445h83.213c5.493 0 10.501 2.783 13.396 7.445 2.917 4.696 3.191 10.468.733 15.438-9.431 19.069-30.788 30.916-55.736 30.916zm-42.29-37.567c5.395 10.909 19.338 22.566 42.29 22.566s36.895-11.657 42.29-22.566c.056-.113.228-.46-.03-.875-.223-.358-.514-.358-.654-.358h-83.213c-.14 0-.431 0-.654.358-.257.415-.085.762-.029.875zm42.29-29.738c-5.043 0-9.949-1.446-14.186-4.182-9.227-5.956-13.959-18.426-11.009-29.004l4.115-14.749c2.671-9.572 11.142-16.004 21.08-16.004s18.409 6.432 21.08 16.004l4.115 14.748c2.951 10.579-1.782 23.049-11.009 29.005-4.237 2.736-9.143 4.182-14.186 4.182zm0-48.939c-1.226 0-5.329.363-6.632 5.035l-4.115 14.748c-1.321 4.734 1.362 10.22 4.696 12.372 3.614 2.334 8.486 2.334 12.101 0 3.334-2.152 6.017-7.638 4.696-12.373l-4.115-14.747c-1.302-4.671-5.405-5.035-6.631-5.035zm56.687-6.966h-16.757c-4.142 0-7.5-3.357-7.5-7.5s3.358-7.5 7.5-7.5h16.757c4.142 0 7.5 3.357 7.5 7.5s-3.358 7.5-7.5 7.5zm-96.617 0h-16.757c-4.142 0-7.5-3.357-7.5-7.5s3.358-7.5 7.5-7.5h16.757c4.142 0 7.5 3.357 7.5 7.5s-3.358 7.5-7.5 7.5zm61.599-44.175c-2.337 0-4.64-1.09-6.104-3.135-2.411-3.368-1.636-8.053 1.732-10.464 10.942-7.834 24.999-12.148 39.582-12.148 17.482 0 30.435 7.001 35.192 10.011 3.5 2.214 4.543 6.848 2.329 10.348-2.215 3.5-6.848 4.541-10.348 2.328-7.608-4.812-17.766-7.687-27.173-7.687-11.311 0-22.556 3.406-30.85 9.344-1.323.947-2.848 1.403-4.36 1.403zm-43.339 0c-1.512 0-3.037-.456-4.36-1.403-8.294-5.938-19.539-9.344-30.85-9.344-9.407 0-19.565 2.873-27.173 7.687-3.5 2.216-8.133 1.172-10.348-2.328s-1.172-8.133 2.328-10.348c4.757-3.01 17.709-10.011 35.192-10.011 14.583 0 28.64 4.314 39.582 12.148 3.368 2.411 4.143 7.096 1.732 10.464-1.462 2.045-3.766 3.135-6.103 3.135z"/></g></g></svg>