<svg id="Capa_1" enable-background="new 0 0 512.001 512.001" height="512" viewBox="0 0 512.001 512.001" width="512" xmlns="http://www.w3.org/2000/svg"><g><g><g><path d="m131.259 193.256c-67.528 40.324-89.581 127.756-49.257 195.285 40.325 67.528 127.757 89.581 195.285 49.257 33.764-20.162 57.466-109.161 66.38-144.501 11.514 2.365 33.068-14.028 57.687-40.96 46.671-51.055 101.767-139.985 102.146-210.787.063-11.75-11.437-18.363-21.983-13.184-2.806 2.62-5.6 4.181-8.384 6.686-101.134 91.022-188.362 108.047-341.874 158.204z" fill="#f7e365"/><path d="m504.5 41.545c-.58 108.15-127.49 258.6-160.83 251.75-8.92 35.34-32.62 124.34-66.38 144.5-27.51 16.43-58.32 22.5-87.9 19.37 19.87-2.1 39.61-8.45 57.9-19.37 33.76-20.16 57.46-109.16 66.38-144.5 33.34 6.85 160.25-143.6 160.83-251.75.01-2.36-.48-4.55-1.37-6.5 2.78-2.49 5.58-5.06 8.39-7.68 10.54-5.18 23.04 2.43 22.98 14.18z" fill="#ecc52e"/><path d="m174.876 486.229c-90.888-2.382-163.734-74.275-167.245-165.127-3.304-85.481 56.161-157.963 135.921-174.976 6.384-1.362 12.899-1.368 19.521-1.997 8.795-.836 15.395 5.11 15.395 13.944v35.609c0 7.519-4.557 12.954-12.02 13.867-54.008 6.608-96.661 54.781-94.461 111.025 1.545 39.506 24.855 73.644 58.201 90.704 10.208 5.223 22.357 8.845 34.109 10.531 3.637.522 7.332.858 11.075.999 60.587 2.282 110.609-46.32 110.659-106.397.015-18.097 14.606-32.792 32.702-32.792h91.723l28.876 1c8.284 0 14 5.716 14 14v35.404c0 8.284-5.716 14-14 14l-28.938 1h-58.007c-2.343 0-4.377 1.626-4.875 3.915-17.141 78.724-88.362 137.499-172.636 135.291z" fill="#f47c7c"/><g fill="#ee6161"><path d="m164.44 419.825c-6.2.88-12.57 1.22-19.07.98-55.34-2.08-100.22-46.89-102.38-102.23-2.2-56.25 39.45-103.42 93.46-110.03 7.46-.91 13.02-7.35 13.02-14.86v-35.61c0-4.9-2.34-9.22-5.92-11.95 6.38-1.36 12.9-2.37 19.52-3 8.8-.83 16.4 6.11 16.4 14.95v35.61c0 7.51-5.56 13.95-13.02 14.86-54.01 6.61-95.66 53.78-93.46 110.03 2.02 51.65 41.24 94.12 91.45 101.25z"/><path d="m454.33 296.615v35.41c0 8.28-6.71 15-15 15h-30c8.29 0 15-6.72 15-15v-35.41c0-8.28-6.71-15-15-15h30c8.29 0 15 6.72 15 15z"/></g></g></g><g><path d="m302.481 145.084c3.88-1.45 5.85-5.771 4.399-9.651-1.45-3.879-5.768-5.849-9.651-4.399l-110.26 36.551c0-5.407.592-11.229-1.097-16.442-3.204-9.891-13.14-16.454-23.508-15.48-32.722 3.109-63.968 15.213-90.358 35.002-3.314 2.484-3.986 7.186-1.501 10.499 2.485 3.314 7.185 3.987 10.5 1.501 24.181-18.132 52.805-29.221 82.778-32.068 4.304-.411 8.186 3.153 8.186 7.477v35.609c0 3.783-2.765 6.975-6.431 7.423-12.156 1.488-23.863 4.912-34.744 10.06l-13.378-23.171c-2.071-3.588-6.659-4.814-10.245-2.745-3.587 2.071-4.816 6.658-2.745 10.245l13.262 22.971c-12.813 8.286-23.93 19.154-32.525 31.76l-23.326-13.468c-3.587-2.07-8.174-.843-10.245 2.745-2.071 3.587-.842 8.174 2.745 10.245l23.211 13.402c-6.862 13.626-10.923 28.523-11.903 43.892h-26.998c-4.142 0-7.5 3.357-7.5 7.5s3.358 7.5 7.5 7.5h27.02c1.054 15.682 5.332 30.529 12.169 43.882l-22.976 13.264c-3.587 2.071-4.816 6.658-2.745 10.245 2.027 3.511 6.727 4.775 10.245 2.745l23.171-13.377c8.595 12.449 19.667 23.186 32.371 31.398l-13.642 23.628c-2.071 3.587-.842 8.174 2.745 10.245 3.511 2.026 8.213.775 10.245-2.745l13.754-23.822c13.258 6.283 27.894 10.07 43.286 10.759v26.952c0 4.143 3.358 7.5 7.5 7.5s7.5-3.357 7.5-7.5v-27.244c14.933-1.263 29.277-5.418 42.406-12.218l13.308 23.05c2.027 3.511 6.727 4.776 10.245 2.745 3.587-2.071 4.816-6.658 2.745-10.245l-13.462-23.316c4.9-3.427 9.575-7.26 13.976-11.495 6.239-6.003 11.699-12.577 16.342-19.605l23.103 13.338c3.511 2.025 8.213.776 10.245-2.745 2.071-3.587.842-8.174-2.745-10.245l-23.184-13.385c5.383-11.125 8.906-23.096 10.417-35.548h27.437c4.143 0 7.5-3.357 7.5-7.5 0-4.142-3.357-7.5-7.5-7.5h-26.561c.594-13.434 11.66-24.184 25.173-24.184h46.779v26.512c0 4.142 3.357 7.5 7.5 7.5s7.5-3.358 7.5-7.5v-26.512h58.819c4.136 0 7.5 3.364 7.5 7.5v35.404c0 4.136-3.364 7.5-7.5 7.5h-86.945c-5.834 0-10.966 4.131-12.203 9.82-6.564 30.143-21.533 57.813-43.293 80.019-2.898 2.959-2.851 7.707.108 10.606 2.896 2.836 7.76 2.795 10.605-.108 23.258-23.735 39.408-53.204 46.791-85.337h84.936c12.406 0 22.5-10.094 22.5-22.5v-35.404c0-12.406-10.094-22.5-22.5-22.5h-47.652c23.681-22.049 49.734-54.829 71.12-89.969 31.513-51.777 48.984-102.406 49.2-142.559.043-8.065-4.034-15.452-10.907-19.759-6.965-4.365-15.52-4.81-22.883-1.197-.661.325-1.271.746-1.811 1.25-46.726 43.617-91.323 72.688-149.122 97.208-3.814 1.617-5.594 6.021-3.976 9.833 1.618 3.814 6.02 5.591 9.833 3.976 58.325-24.742 105.429-55.356 152.555-99.171 2.455-.891 5.175-.607 7.439.812 1.171.734 3.894 2.883 3.872 6.969-.201 37.469-16.896 85.356-47.013 134.841-24.397 40.089-56.123 78.176-81.347 97.767h-49.906c-22.149 0-40.185 18.072-40.202 40.286-.034 41.047-26.437 78.899-65.047 92.995-37.953 13.855-81.385 2.643-108.134-27.547 20.233-10.817 40.45-22.397 60.594-34.718.209-.115.413-.236.612-.371 39.48-24.179 78.675-51.167 117.144-80.696 11.583-8.891 23.168-18.074 34.742-27.517l78.539-21.526c3.995-1.095 6.346-5.221 5.251-9.216-1.094-3.993-5.216-6.343-9.216-5.251l-46.871 12.846c38.217-32.655 76.213-68.157 113.536-106.146 2.903-2.954 2.861-7.703-.094-10.605-2.953-2.904-7.702-2.862-10.605.094-87.277 88.832-177.385 163.124-268.883 221.794l35.683-75.581c1.768-3.746.166-8.216-3.58-9.984-3.747-1.768-8.215-.166-9.984 3.58l-45.659 96.712c-20.075 12.253-40.211 23.745-60.393 34.479-38.871-60.215.181-143.065 71.194-151.755 11.179-1.367 19.609-10.96 19.609-22.312v-10.37z"/><path d="m272.879 449.619c-28.827 19.968-62.64 30.017-97.806 29.113-42.05-1.102-81.584-17.874-111.317-47.227-29.735-29.355-47.006-68.667-48.63-110.693-1.673-43.282 13.425-84.783 42.512-116.86 2.783-3.068 2.551-7.811-.518-10.594-3.069-2.784-7.811-2.552-10.594.518-31.741 35.002-48.215 80.288-46.39 127.517 1.772 45.848 20.623 88.744 53.081 120.788 32.454 32.038 75.59 50.345 121.462 51.546 1.613.043 3.219.063 4.827.063 36.628 0 71.771-10.962 101.912-31.841 3.405-2.358 4.254-7.03 1.895-10.435-2.356-3.404-7.028-4.254-10.434-1.895z"/></g></g></svg>