<svg id="Capa_1" enable-background="new 0 0 512.001 512.001" height="512" viewBox="0 0 512.001 512.001" width="512" xmlns="http://www.w3.org/2000/svg"><g><g><path d="m337.446 186.361h-168.358c-7.474 0-13.855-5.4-15.091-12.771l-24.867-148.256c-1.565-9.332 5.629-17.833 15.091-17.833h218.092c9.462 0 16.657 8.502 15.091 17.833l-24.867 148.256c-1.236 7.372-7.617 12.771-15.091 12.771z" fill="#c4e2ff"/><path d="m362.313 7.501h-30c9.462 0 16.657 8.502 15.091 17.833l-24.867 148.256c-1.236 7.371-7.617 12.771-15.091 12.771h30c7.474 0 13.855-5.4 15.091-12.771l24.867-148.256c1.565-9.332-5.629-17.833-15.091-17.833z" fill="#b3dafe"/><g><ellipse cx="256" cy="207.524" fill="#eaf6ff" rx="110.248" ry="140.024"/><path d="m256 67.501c-5.089 0-10.094.448-15 1.295 53.792 9.295 95.248 67.858 95.248 138.729s-41.456 129.433-95.248 138.728c4.906.848 9.911 1.295 15 1.295 60.888 0 110.248-62.691 110.248-140.024s-49.359-140.023-110.248-140.023z" fill="#d8ecfe"/><ellipse cx="256" cy="192.524" fill="#c4e2ff" rx="56.607" ry="71.895"/><path d="m256 120.63c-5.195 0-10.221.906-15 2.571 23.98 8.352 41.607 36.216 41.607 69.324s-17.626 60.971-41.607 69.323c4.779 1.665 9.805 2.571 15 2.571 31.263 0 56.607-32.188 56.607-71.895s-25.344-71.894-56.607-71.894z" fill="#b3dafe"/></g><g><path d="m280.801 471.501h-49.662c-15.933-9.7-55.324-36.703-76.501-88.287-11.171-27.21-13.444-51.93-13.499-68.555h229.662c-.234 16.893-2.818 42.636-15 70.921-21.418 49.726-59.043 76.056-75 85.921z" fill="#eaf6ff"/><path d="m340.801 314.659c-.234 16.893-2.818 42.636-15 70.921-21.417 49.727-59.043 76.056-75 85.921h30c15.957-9.865 53.583-36.194 75-85.921 12.182-28.284 14.766-54.028 15-70.921z" fill="#d8ecfe"/><path d="m370.831 290.659h-229.662c-8.284 0-15 6.716-15 15 0 8.284 6.716 15 15 15h229.662c8.284 0 15-6.716 15-15 0-8.284-6.715-15-15-15z" fill="#c4e2ff"/><path d="m370.831 290.659h-30c8.284 0 15 6.716 15 15 0 8.284-6.716 15-15 15h30c8.284 0 15-6.716 15-15 0-8.284-6.715-15-15-15z" fill="#b3dafe"/></g><path d="m331 504.501h-150c-6.627 0-12-5.373-12-12 0-16.569 13.431-30 30-30h114c16.569 0 30 13.431 30 30 0 6.627-5.372 12-12 12z" fill="#c4e2ff"/><path d="m313 462.501h-30c16.569 0 30 13.431 30 30 0 6.627-5.373 12-12 12h30c6.627 0 12-5.373 12-12 0-16.569-13.431-30-30-30z" fill="#b3dafe"/><path d="m362.313 7.501h-218.092c-9.462 0-16.657 8.502-15.091 17.833l2.04 12.166h244.193l2.041-12.167c1.565-9.331-5.629-17.832-15.091-17.832z" fill="#eaf6ff"/><path d="m362.313 7.501h-30c9.462 0 16.657 8.502 15.091 17.833l-2.041 12.167h30l2.041-12.167c1.565-9.332-5.629-17.833-15.091-17.833z" fill="#d8ecfe"/></g><path d="m370.831 283.159h-13.695c10.888-22.793 16.614-48.677 16.614-75.639 0-20.381-3.282-40.141-9.517-58.327l18.477-110.174c.003-.015.005-.03.008-.045l2.079-12.398c2.393-13.738-8.702-26.656-22.486-26.575h-218.091c-13.973-.097-24.87 12.85-22.487 26.571l22.517 134.209c-3.945 14.877-6 30.614-6 46.739 0 26.961 5.726 52.845 16.614 75.639h-13.695c-12.407 0-22.5 10.094-22.5 22.5 0 9.929 6.467 18.37 15.408 21.348 1.368 20.486 5.935 40.325 13.625 59.051 12.604 30.713 31.559 53.305 48.944 69.024-19.584 1.22-35.146 17.532-35.146 37.418 0 10.752 8.748 19.5 19.5 19.5h150c10.752 0 19.5-8.748 19.5-19.5 0-20.007-15.749-36.402-35.5-37.446 14.158-12.88 26.22-27.512 35.976-43.705 2.137-3.548.994-8.156-2.554-10.294-3.549-2.141-8.157-.994-10.295 2.554-11.912 19.771-27.566 37.044-46.531 51.391h-71.484c-18.838-14.115-43.578-38.195-58.534-74.639-6.804-16.57-10.96-34.097-12.389-52.203h213.411c-1.374 15.559-4.736 30.755-10.037 45.273-1.421 3.891.582 8.196 4.472 9.617 3.797 1.387 8.18-.536 9.618-4.473 6.026-16.502 9.742-33.801 11.085-51.507 9.037-2.922 15.593-11.414 15.593-21.411 0-12.404-10.093-22.498-22.5-22.498zm-57.831 186.842c12.407 0 22.5 10.094 22.5 22.5 0 2.481-2.019 4.5-4.5 4.5h-150c-2.481 0-4.5-2.019-4.5-4.5 0-12.406 10.093-22.5 22.5-22.5zm-172.965-425h78.351c4.142 0 7.5-3.357 7.5-7.5s-3.358-7.5-7.5-7.5h-80.867l-.992-5.914c-.819-4.683 2.947-9.115 7.694-9.086h218.09c4.732-.037 8.518 4.404 7.693 9.09l-.991 5.91h-115.627c-4.142 0-7.5 3.357-7.5 7.5s3.358 7.5 7.5 7.5h113.112l-13.276 79.163c-3.932-7.178-8.393-13.971-13.369-20.291-22.277-28.291-52.056-43.872-83.853-43.872s-61.576 15.581-83.852 43.872c-6.801 8.637-12.65 18.151-17.483 28.336zm13.215 162.519c0-73.071 46.093-132.52 102.75-132.52s102.75 59.448 102.75 132.52c0 27.325-6.366 53.373-18.43 75.639h-168.639c-12.064-22.266-18.431-48.314-18.431-75.639zm217.581 105.639h-229.662c-4.135 0-7.5-3.364-7.5-7.5s3.365-7.5 7.5-7.5h203.499c.015 0 .03.003.045.003s.03-.003.046-.003h26.072c4.135 0 7.5 3.364 7.5 7.5s-3.364 7.5-7.5 7.5zm-114.831-41.24c35.349 0 64.106-35.616 64.106-79.395s-28.758-79.396-64.106-79.396-64.106 35.616-64.106 79.396c0 43.779 28.758 79.395 64.106 79.395zm0-143.79c27.078 0 49.106 28.888 49.106 64.396 0 35.507-22.029 64.395-49.106 64.395s-49.106-28.888-49.106-64.395c0-35.508 22.029-64.396 49.106-64.396z"/></g></svg>