<svg id="Capa_1" enable-background="new 0 0 512.001 512.001" height="512" viewBox="0 0 512.001 512.001" width="512" xmlns="http://www.w3.org/2000/svg"><g><g><path d="m383.473 219.602c-2.931-.472-6.808 2.146-7.969 4.878-9.345 22.001-20.013 40.21-34.064 56.794-38.274 45.182-97.26 68.378-157.774 62.035-20.244-2.126-40.253-1.588-57.492 1.16-21.261 3.384-40.778 13.778-55.482 29.507l-46.773 54.894c-.568.667-1.195 1.292-1.925 1.777-7.181 4.774-16.032-1.372-12.89-10.04 1.201-3.316 1.631-6.868 3.247-10.584 13.466-30.961 39.838-73.284 53.757-84.747 27.36-22.536 67.325-30.702 122.162-24.957 45.963 4.811 90.607-12.622 119.428-46.641 12.465-14.714 22.691-32.275 30.724-52.893.839-2.154.382-4.585-1.108-6.354-21.007-24.932-24.303-61.593-5.687-90.411 22.833-35.344 93.641-82.103 128.985-59.271.872.563 1.714 1.163 2.527 1.799 13.798 10.789 18.207 31.777 18.126 54.95-.107 30.83-8.932 64.525-21.646 84.206-16.922 26.2-47.213 38.557-76.146 33.898z" fill="#f8f7f7"/><path d="m212.144 132.515c-23.708 14.328-53.113 11.149-73.149-5.822-1.848-1.565-5.511-.729-7.476.688-22.543 16.257-38.166 40.97-43.742 68.819-4.253 21.232-12.445 41.525-25.172 59.025-9.433 12.956-21.128 25.527-37.784 36.304-3.189 2.064-6.035-.47-4.191-3.794 3.745-6.747 6.91-15.087 10.936-23.901 9.396-20.572 18.035-43.727 18.823-55.241 3.173-46.404 27.361-88.571 64.975-113.703 1.688-1.128 2.535-3.145 2.212-5.149-3.962-24.549 6.965-50.156 29.548-63.801 28.429-17.187 93.23-26.231 114.479-.938.954 1.136 1.82 3.34 2.591 4.617 9.222 15.254 2.08 37.239-10.1 57.452-11.538 19.148-27.499 36.707-41.95 45.444z" fill="#f8f7f7"/><path d="m459.623 186.709c-16.93 26.2-47.22 38.55-76.15 33.89-2.93-.47-5.81 1.15-6.97 3.88-9.34 22-21.01 41.21-35.06 57.8-38.28 45.18-97.26 68.37-157.78 62.03-20.24-2.13-40.25-1.59-57.49 1.16-21.26 3.38-40.78 13.78-55.48 29.51l-46.77 54.89c-.57.67-1.2 1.29-1.93 1.78-7.18 4.77-17.03-2.37-13.89-11.04 1.16-3.22 2.54-6.65 4.11-10.25l45.48-53.38c14.7-15.73 34.22-26.13 55.48-29.51 17.24-2.75 37.25-3.29 57.49-1.16 60.52 6.34 119.5-16.85 157.78-62.03 14.05-16.59 25.72-35.8 35.06-57.8 1.16-2.73 4.04-4.35 6.97-3.88 28.93 4.66 59.22-7.69 76.15-33.89 18.32-28.37 30.64-87.94 16.51-122.16 32.16 25.14 18.76 105.68-3.51 140.16z" fill="#e1e1e1"/><path d="m469.172 423.612c-20.031 20.071-50.255 23.768-74.041 11.081-2.035-1.085-4.544-.693-6.097 1.012-5.467 6.003-10.689 11.419-15.764 16.341-33.666 32.645-82.029 47.133-129.36 38.742-16.239-2.877-59.39 4.055-84.228 10.746-3.669.99-5.17-2.585-2.398-5.191 7.022-6.577 13.456-12.093 20.945-16.716 7.951-4.909 15.965-8.813 23.614-11.916 20.054-8.13 41.734-11.173 63.351-10.183 30.821 1.418 60.901-9.558 82.675-30.675 5.516-5.348 11.285-11.402 17.449-18.322 1.258-1.412 1.618-3.407.923-5.165-8.93-22.572-4.274-49.284 13.96-67.558 24.525-24.567 89.721-50.051 114.288-25.536 5.847 5.837 7.865 13.924 8.74 23.19 2.801 29.669-15.376 71.43-34.057 90.15z" fill="#f8f7f7"/><g fill="#e1e1e1"><path d="m469.173 424.609c-20.027 20.075-50.25 23.77-74.032 11.084-2.038-1.087-4.552-.695-6.107 1.013-5.471 6.007-10.686 11.422-15.761 16.342-33.67 32.64-82.03 47.13-129.36 38.74-16.24-2.88-59.39 4.05-84.23 10.75-3.67.99-6.17-3.59-3.4-6.2 7.02-6.58 14.46-12.09 21.94-16.71 22.11-4.1 46.4-6.84 57.69-4.84 47.33 8.39 95.69-6.1 129.36-38.74 5.076-4.921 10.293-10.338 15.764-16.347 1.553-1.706 4.063-2.098 6.098-1.012 23.783 12.689 54.009 8.995 74.037-11.082 19.81-19.85 40.18-66.28 34.3-96.31 22.881 25.282-2.129 89.092-26.299 113.312z"/><path d="m212.143 133.519c-23.71 14.32-53.11 11.14-73.15-5.83-1.85-1.56-4.51-1.73-6.47-.31-22.55 16.26-38.17 40.97-43.75 68.82-4.25 21.23-12.44 41.53-25.17 59.03-9.43 12.95-22.13 26.52-38.78 37.3-3.19 2.06-7.04-1.47-5.19-4.8 3.86-6.96 8.17-15.61 12.31-24.72 9.96-8.46 18.1-17.77 24.66-26.78 12.73-17.5 20.92-37.8 25.17-59.03 5.58-27.85 21.2-52.56 43.75-68.82 1.96-1.42 4.62-1.25 6.47.31 20.04 16.97 49.44 20.15 73.15 5.83 25.15-15.2 57.88-58.55 56.45-89.51.96 1.13 1.83 2.33 2.6 3.61 17.96 29.7-22.34 86.94-52.05 104.9z"/></g></g><g><g><path d="m16.969 440.659c-3.708 0-7.426-1.232-10.525-3.667-5.799-4.555-7.917-11.99-5.397-18.941 10.785-29.787 42.566-83.97 60.287-98.564 28.994-23.882 70.771-32.595 127.711-26.626 43.504 4.555 85.711-11.908 112.924-44.03 11.748-13.868 21.565-30.71 29.185-50.067-11.051-13.332-17.802-30.19-19.029-47.55-1.285-18.182 3.278-35.907 13.197-51.261 12.417-19.222 36.982-40.421 62.584-54.008 31.286-16.603 58.549-19.264 76.771-7.493 40.613 26.236 24.88 115.726 1.238 152.324-.58.896-1.173 1.777-1.778 2.642-2.377 3.393-7.054 4.217-10.445 1.84-3.393-2.376-4.217-7.053-1.84-10.445.5-.714.989-1.44 1.466-2.179 10.957-16.961 19.449-45.927 21.129-72.075 1.88-29.251-4.648-50.94-17.908-59.507-13.258-8.563-35.71-5.596-61.6 8.143-23.146 12.283-46.059 31.933-57.017 48.897-16.497 25.537-14.439 58.293 5.122 81.508 3.281 3.894 4.187 9.224 2.362 13.908-8.263 21.203-19.025 39.714-31.991 55.019-30.423 35.91-77.506 54.328-125.931 49.253-52.745-5.526-90.883 2.092-116.613 23.286-14.303 11.778-45.026 62.56-55.721 92.096-.136.374-.45 1.243.56 2.036.335.264 1.214.81 2.123.207h-.001c-.002 0 .121-.103.372-.397l46.773-54.894c.075-.088.151-.174.23-.258 15.776-16.877 37.007-28.167 59.781-31.792 18.445-2.94 39.004-3.358 59.454-1.212 58.043 6.082 114.594-16.131 151.269-59.423 13.505-15.94 24.905-34.741 33.883-55.879 2.524-5.939 8.719-9.373 15.064-8.351 15.58 2.506 31.694-.465 45.379-8.37 3.586-2.072 8.173-.845 10.246 2.742 2.072 3.587.845 8.174-2.742 10.246-16.424 9.489-35.729 13.142-54.448 10.318-9.521 22.235-21.609 42.078-35.936 58.988-35.544 41.957-88.191 65.716-143.805 65.718-6.791 0-13.62-.353-20.475-1.072-19.159-2.013-38.361-1.63-55.529 1.107-19.441 3.095-37.569 12.716-51.067 27.099l-46.659 54.76c-1.117 1.31-2.257 2.345-3.484 3.16-2.781 1.848-5.972 2.764-9.169 2.764z"/></g><g><path d="m22.813 300.624c-2.757 0-5.492-1.021-7.621-3.011-3.792-3.543-4.646-8.976-2.126-13.519 12.993-23.405 28.855-61.707 29.834-76.015 3.275-47.912 28.306-92.126 67.048-118.587-3.934-27.967 9.023-55.309 33.292-69.973.62-.376 1.263-.751 1.92-1.123 3.604-2.037 8.182-.771 10.222 2.833s.771 8.181-2.833 10.222c-.526.298-1.042.599-1.545.902-19.429 11.74-29.644 33.795-26.029 56.19.79 4.901-1.348 9.84-5.448 12.58-35.614 23.795-58.665 64.16-61.661 107.979-1.017 14.862-13.003 44.808-23.975 67.355 8.61-7.288 16.526-15.871 23.646-25.649 11.582-15.927 19.617-34.797 23.881-56.083 5.998-29.956 22.586-56.033 46.709-73.43 4.743-3.422 11.203-3.146 15.711.673 18.157 15.382 44.046 17.439 64.422 5.126 28.698-17.351 63.995-70.643 49.514-94.598-10.323-17.086-46.318-18.779-76.535-11.623-4.038.955-8.073-1.54-9.026-5.569-.955-4.031 1.539-8.072 5.569-9.026 18.161-4.301 36.733-5.541 52.295-3.492 19.382 2.551 33.398 10.142 40.534 21.952 9.515 15.737 6.654 38.624-8.055 64.444-11.937 20.954-30.204 40.875-46.537 50.749-25.399 15.352-57.548 13.124-80.548-5.419-20.268 15.166-34.213 37.525-39.346 63.158-4.69 23.423-13.593 44.271-26.459 61.964-11.698 16.067-25.417 29.252-40.775 39.19-1.867 1.207-3.978 1.8-6.078 1.8z"/></g><g><path d="m158.631 510.179c-3.94 0-7.585-2.089-9.605-5.71-2.5-4.481-1.631-10.069 2.116-13.591 13.369-12.522 29.474-22.652 47.875-30.116 20.255-8.211 42.634-11.819 66.514-10.726 4.168.192 8.381.142 12.531-.152 4.114-.289 7.718 2.821 8.01 6.953s-2.821 7.718-6.953 8.01c-4.728.334-9.53.391-14.276.174-21.694-.995-41.953 2.25-60.188 9.642-11.196 4.542-21.432 10.149-30.584 16.747 24.523-5.204 56.462-9.606 71.143-7.005 44.967 7.975 90.883-5.765 122.831-36.742 4.97-4.821 10.021-10.058 15.439-16.008 3.852-4.229 10.09-5.286 15.17-2.579 21.648 11.547 47.853 7.625 65.204-9.761 23.688-23.737 45.141-83.954 25.327-103.734-19.814-19.772-79.989 1.794-103.682 25.527-15.587 15.621-20.413 38.978-12.294 59.5 1.746 4.416.866 9.363-2.296 12.913-6.307 7.078-12.139 13.201-17.829 18.718-11.306 10.965-24.637 19.405-39.622 25.085-3.87 1.468-8.203-.48-9.671-4.354-1.469-3.873.482-8.203 4.354-9.671 13.061-4.951 24.667-12.295 34.496-21.828 5.125-4.968 10.39-10.474 16.063-16.799-9.53-25.722-3.262-54.673 16.182-74.16 13.485-13.507 37.188-26.495 60.388-33.09 28.579-8.126 51.49-5.446 64.508 7.543 13.017 12.994 15.739 35.9 7.667 64.5-6.551 23.212-19.494 46.938-32.974 60.446-10.876 10.898-24.662 17.798-39.868 19.952-14.075 1.995-28.674-.379-41.333-6.686-5.143 5.6-9.993 10.603-14.786 15.253-35.398 34.323-86.192 49.553-135.893 40.744-14.138-2.502-55.134 3.643-80.968 10.603-1.004.271-2.009.402-2.996.402z"/></g><g><path d="m240.997 399.298c-4.142 0-7.5-3.358-7.5-7.5 0-4.142 3.358-7.5 7.5-7.5 4.142 0 7.5 3.358 7.5 7.5 0 4.143-3.358 7.5-7.5 7.5z"/></g><g><path d="m455.35 486.287c-4.142 0-7.5-3.358-7.5-7.5 0-4.142 3.358-7.5 7.5-7.5 4.142 0 7.5 3.358 7.5 7.5 0 4.142-3.358 7.5-7.5 7.5z"/></g><g><path d="m79.8 470.209c-4.142 0-7.5-3.358-7.5-7.5 0-4.142 3.358-7.5 7.5-7.5 4.142 0 7.5 3.358 7.5 7.5 0 4.142-3.358 7.5-7.5 7.5z"/></g><g><path d="m462.85 252.138c-4.142 0-7.5-3.358-7.5-7.5 0-4.142 3.358-7.5 7.5-7.5 4.142 0 7.5 3.358 7.5 7.5 0 4.142-3.358 7.5-7.5 7.5z"/></g><g><path d="m323.216 41.581c-4.142 0-7.5-3.358-7.5-7.5 0-4.142 3.358-7.5 7.5-7.5 4.142 0 7.5 3.358 7.5 7.5 0 4.142-3.358 7.5-7.5 7.5z"/></g><g><path d="m263.497 186.589c-4.142 0-7.5-3.358-7.5-7.5 0-4.142 3.358-7.5 7.5-7.5 4.142 0 7.5 3.358 7.5 7.5 0 4.142-3.358 7.5-7.5 7.5z"/></g><g><path d="m169.317 243.244c-4.142 0-7.5-3.358-7.5-7.5 0-4.142 3.358-7.5 7.5-7.5 4.142 0 7.5 3.358 7.5 7.5 0 4.142-3.358 7.5-7.5 7.5z"/></g><g><path d="m489.761 33.21c-4.142 0-7.5-3.358-7.5-7.5 0-4.142 3.358-7.5 7.5-7.5 4.142 0 7.5 3.358 7.5 7.5 0 4.142-3.358 7.5-7.5 7.5z"/></g><g><path d="m55.444 64.977c-4.142 0-7.5-3.358-7.5-7.5 0-4.142 3.358-7.5 7.5-7.5 4.142 0 7.5 3.358 7.5 7.5 0 4.142-3.358 7.5-7.5 7.5z"/></g></g></g></svg>