<svg id="Capa_1" enable-background="new 0 0 512.002 512.002" height="512" viewBox="0 0 512.002 512.002" width="512" xmlns="http://www.w3.org/2000/svg"><g><g><path d="m369.689 271.23-1.164-14.436-3.088-2.649h-218.619l-2.199 1.191-1.787 15.894z" fill="#b5dcff"/><path d="m142.945 270.23-1.492 13.272 2.277 2.814h224.795l2.136-3.022-1.053-13.064z" fill="#8bcaff"/><path d="m408.392 357.31-1.544-.36h-30.718l-.734.781c4.415 45.785 7.856 81.186 9.592 98.414l1.235.899h31.25l.876-.899c-1.456-14.362-5.089-50.253-9.957-98.835z" fill="#dbedff"/><path d="m408.392 357.31-1.544-.36h-14.765l10.698 100.094h14.692l.876-.899c-1.456-14.362-5.089-50.253-9.957-98.835z" fill="#dbedff"/><path d="m404.238 456.145-10.602-99.195h-17.506l-.734.781c4.415 45.785 7.856 81.186 9.592 98.414l1.235.899h17.2z" fill="#b5dcff"/><path d="m194.079 13.934c-5.376 0-9.824 0-13.034 0-3.581 1.914-6.734 3.814-9.494 5.663-11.648 7.8-19.105 20.484-20.49 34.434l-3.413 34.388h13.637l1.538-1.202c1.035-10.791 2.063-21.511 3.08-32.109.492-5.133 4.755-9.003 9.914-9.003h18.261l1.957-1.436v-29.25z" fill="#dbedff"/><path d="m173.551 19.597c2.76-1.848 5.913-3.748 9.494-5.663-3.748 0-6.273 0-7.227 0-21.825 0-39.855 16.38-41.939 38.101-1.104 11.511-2.219 23.079-3.337 34.659l1.091 1.725h18.016l3.413-34.388c1.384-13.95 8.841-26.635 20.489-34.434z" fill="#b5dcff"/><path d="m378.375 52.035c-2.084-21.721-20.114-38.101-41.939-38.101-1.709 0-8.453 0-18.261 0l-1.473.901v29.583l1.473 1.686h18.261c1.565 0 3.045.361 4.365 1h6.556c6.287 0 11.563 4.742 12.231 10.993l27.609 258.32h15.713l1.214-1.793c-7.55-75.703-16.956-170.946-25.749-262.589z" fill="#dbedff"/><path d="m361.589 57.099c-.668-6.252-5.944-10.993-12.231-10.993h-12.921c5.16 0 9.422 3.87 9.914 9.003 8.381 87.352 17.521 182.836 24.934 259.932l.917 1.379h17.102z" fill="#b5dcff"/><path d="m121.061 356.336-9.905 99.81-1.881 1.232h17.011l.981-1.232c1.736-17.228 5.177-52.628 9.592-98.414l-1.156-1.396z" fill="#dbedff"/><path d="m104.786 356.336-.923.975c-4.867 48.581-8.501 84.472-9.957 98.835l.88 1.232h16.489l1.881-1.232 9.905-99.81z" fill="#b5dcff"/><path d="m135.533 210.502-10.437 105.167h14.981l.892-.629c3.058-31.796 6.409-66.724 9.88-102.915l-1.104-1.623z" fill="#dbedff"/><path d="m137.533 210.502h-18.122l-1.065 1.093c-3.608 36.614-7.073 71.519-10.216 103.031l.578 1.043h18.388z" fill="#b5dcff"/><path d="m97.242 504.502h45.196l-15.171-48.357c-5.188 0-10.038 0-14.853 0z" fill="#8479c2"/><path d="m388.38 504.502h45.141l-15.172-48.357c-5.167 0-10 0-14.798 0z" fill="#8479c2"/><path d="m93.906 456.145-15.172 48.357h19.25l15.172-48.357c-6.288 0-12.487 0-19.25 0z" fill="#6e60b8"/><path d="m384.988 456.145-15.171 48.357h19.25l15.171-48.357c-6.285 0-12.484 0-19.25 0z" fill="#6e60b8"/><g fill="#8479c2"><path d="m373.862 314.197c-2.252 0-4.076 1.699-4.332 3.841.255-2.142 2.079-3.841 4.332-3.841z"/><path d="m377.255 358.164c-.562 0-1.101-.106-1.596-.301.496.195 1.034.301 1.596.301z"/><path d="m406.62 318.132c-.222-2.231-2.1-3.935-4.341-3.935h-9.167c-2.574 0-4.589 2.219-4.342 4.782 1.18 12.271 2.315 24.056 3.394 35.246.216 2.237 2.095 3.939 4.342 3.939h9.296c2.581 0 4.598-2.227 4.341-4.796-1.117-11.141-2.295-22.923-3.523-35.236z"/></g><path d="m138.393 314.197h-11.643c-1.1.727-1.874 1.918-2.013 3.316-1.271 12.735-2.489 24.921-3.643 36.444-.175 1.742.673 3.318 2.023 4.206h11.883c2.247 0 4.126-1.703 4.342-3.939 1.079-11.19 2.213-22.975 3.394-35.246.246-2.561-1.769-4.781-4.343-4.781z" fill="#8479c2"/><g fill="#6e60b8"><path d="m392.163 354.225c-1.079-11.19-2.213-22.975-3.394-35.246-.246-2.562 1.768-4.782 4.342-4.782h-19.25c-2.574 0-4.589 2.219-4.342 4.782 1.18 12.271 2.315 24.056 3.394 35.246.216 2.237 2.095 3.939 4.342 3.939h19.25c-2.247 0-4.126-1.703-4.342-3.939z"/><path d="m392.163 354.225c-1.079-11.19-2.213-22.975-3.394-35.246-.246-2.562 1.768-4.782 4.342-4.782h-19.25c-2.574 0-4.589 2.219-4.342 4.782 1.18 12.271 2.315 24.056 3.394 35.246.216 2.237 2.095 3.939 4.342 3.939h19.25c-2.247 0-4.126-1.703-4.342-3.939z"/><path d="m121.363 353.369c1.116-11.141 2.294-22.923 3.522-35.237.222-2.231 2.1-3.935 4.341-3.935h-19.25c-2.242 0-4.119 1.704-4.341 3.935-1.229 12.313-2.407 24.095-3.522 35.237-.257 2.568 1.76 4.796 4.341 4.796h19.25c-2.581-.001-4.598-2.228-4.341-4.796z"/></g><g><path d="m309.418 7.5h-66.76c-5.067 0-9.175 4.108-9.175 9.175v26.69c0 5.067 4.108 9.175 9.175 9.175h66.76c5.067 0 9.175-4.108 9.175-9.175v-26.69c0-5.067-4.108-9.175-9.175-9.175z" fill="#8479c2"/></g><path d="m159.28 86.498h-14.747c-1.357 1.49-2.259 3.412-2.466 5.555l-.142 1.47c-3.874 40.006-7.16 73.57-10.878 111.372-.28 2.84.7 5.49 2.463 7.427h15.466c4.728 0 8.682-3.593 9.133-8.299l10.304-107.475c.516-5.388-3.72-10.05-9.133-10.05z" fill="#8479c2"/><path d="m132.03 202.249c3.54-35.999 6.67-67.963 10.359-106.061l.135-1.4c.455-4.703 4.407-8.29 9.132-8.29h-19.25c-4.724 0-8.677 3.588-9.132 8.29l-.135 1.4c-3.689 38.098-6.819 70.062-10.359 106.061-.531 5.396 3.708 10.073 9.131 10.073h19.25c-5.423 0-9.662-4.677-9.131-10.073z" fill="#6e60b8"/><g><path d="m147.408 512.002h-73.644c-4.142 0-7.5-3.357-7.5-7.5s3.358-7.5 7.5-7.5h73.644c4.142 0 7.5 3.357 7.5 7.5s-3.358 7.5-7.5 7.5z" fill="#9790cc"/></g><g><path d="m438.49 512.002h-73.644c-4.142 0-7.5-3.357-7.5-7.5s3.358-7.5 7.5-7.5h73.644c4.142 0 7.5 3.357 7.5 7.5s-3.357 7.5-7.5 7.5z" fill="#9790cc"/></g><path d="m235.483 43.365v-26.69c0-5.067 4.108-9.175 9.175-9.175h-41.821c-5.067 0-9.175 4.108-9.175 9.175v26.69c0 5.067 4.108 9.175 9.175 9.175h41.821c-5.067-.001-9.175-4.108-9.175-9.175z" fill="#6e60b8"/></g><path d="m72.965 497.03c-3.886.281-6.954 3.514-6.954 7.472 0 4.143 3.357 7.5 7.5 7.5h73.644c4.143 0 7.5-3.357 7.5-7.5 0-3.958-3.067-7.192-6.953-7.472l-13.071-41.664c1.596-15.894 4.594-46.668 9.148-93.866 1.523-1.789 2.534-4.041 2.776-6.555 1.079-11.19 2.214-22.976 3.394-35.246.234-2.428-.3-4.852-1.477-6.947.596-6.201 1.203-12.517 1.82-18.936h211.167c.617 6.419 1.224 12.734 1.82 18.936-1.177 2.095-1.711 4.519-1.477 6.945 1.18 12.272 2.314 24.058 3.394 35.245.242 2.516 1.252 4.77 2.777 6.56 4.553 47.201 7.552 77.974 9.147 93.865l-13.071 41.664c-3.886.281-6.953 3.514-6.953 7.472 0 4.143 3.357 7.5 7.5 7.5h73.644c4.143 0 7.5-3.357 7.5-7.5 0-3.958-3.067-7.192-6.954-7.472l-13.303-42.4c-1.472-14.515-4.944-48.823-9.578-95.06 1.167-2.098 1.691-4.521 1.449-6.948-1.116-11.141-2.294-22.922-3.522-35.233 0-.001 0-.001 0-.001-.251-2.511-1.269-4.76-2.797-6.546-4.117-41.295-8.132-81.833-11.935-120.531-.405-4.122-4.078-7.129-8.197-6.73-4.122.405-7.136 4.075-6.73 8.197 3.631 36.945 7.454 75.565 11.376 114.921h-17.78c-5.414-56.316-11.72-122.126-15.015-156.502l-9.187-95.804c-.863-9-8.335-15.786-17.38-15.786h-10.344v-17.173h10.344c17.939 0 32.76 13.463 34.473 31.316 3.153 32.862 6.55 67.906 10.095 104.158.402 4.122 4.06 7.118 8.195 6.734 4.122-.403 7.137-4.072 6.734-8.195-3.545-36.242-6.94-71.276-10.093-104.129-2.455-25.589-23.694-44.885-49.404-44.885h-13.887c-3.057-3.908-7.801-6.434-13.134-6.434h-106.581c-5.333 0-10.077 2.526-13.132 6.435h-13.888c-25.71 0-46.949 19.296-49.404 44.884-.964 10.045-1.936 20.136-2.911 30.236-7.879 4.957-7.709 13.54-7.828 13.911-4.002 41.325-7.344 75.392-10.358 106.049-.484 4.916 1.228 10.02 5.134 13.719-3.337 33.849-6.544 66.163-9.48 95.607-1.529 1.786-2.547 4.035-2.797 6.547-1.229 12.312-2.406 24.093-3.522 35.235-.243 2.425.282 4.848 1.449 6.946-4.633 46.237-8.106 80.544-9.578 95.06zm15.73-.028 10.466-33.356h22.346l10.465 33.356zm43.202-146.338h-22.229c.927-9.252 1.894-18.928 2.896-28.967h22.122c-.963 10.012-1.894 19.688-2.789 28.967zm2.087-43.967h-17.779c2.69-27.002 5.597-56.294 8.613-86.875h17.506c-2.831 29.516-6.138 63.974-8.34 86.875zm-23.674 58.967h17.996c-3.806 39.431-6.467 66.76-8.079 82.981h-18.276c1.672-16.506 4.614-45.625 8.359-82.981zm41.422-86.849c.543-5.657 1.093-11.387 1.648-17.171h204.989c.555 5.784 1.105 11.514 1.648 17.171zm258.067 169.831h-18.276c-1.612-16.22-4.273-43.548-8.079-82.981h17.996c3.744 37.355 6.687 66.475 8.359 82.981zm-30.021 48.356 10.465-33.356h22.346l10.466 33.356zm19.407-175.305c1.002 10.04 1.97 19.716 2.896 28.967h-22.229c-.895-9.279-1.826-18.954-2.789-28.967zm-196.6-306.697h106.581c.951 0 1.675.797 1.675 1.675v26.689c0 .874-.72 1.675-1.675 1.675h-35.791c-4.143 0-7.5 3.357-7.5 7.5s3.357 7.5 7.5 7.5h35.791c5.333 0 10.077-2.526 13.131-6.434h13.887c1.295 0 2.325.933 2.448 2.218l9.187 95.804c3.092 32.26 6.167 64.342 9.111 95.018h-202.11c.927-9.667 1.868-19.477 2.819-29.385 4.226-2.663 7.172-7.182 7.684-12.52l10.304-107.475c.468-4.887-1.235-10.003-5.169-13.708l2.66-27.734c.123-1.285 1.153-2.218 2.448-2.218h13.888c3.054 3.908 7.799 6.434 13.131 6.434h35.79c4.143 0 7.5-3.357 7.5-7.5s-3.357-7.5-7.5-7.5h-35.79c-.955 0-1.675-.801-1.675-1.675v-26.689c0-.883.726-1.675 1.675-1.675zm-61.492 37.751c1.713-17.854 16.533-31.316 34.473-31.316h10.345v17.171h-10.345c-9.045 0-16.517 6.786-17.38 15.786l-2.36 24.606h-17.258c.845-8.769 1.688-17.523 2.525-26.247zm-10.606 42.76c.086-.881.828-1.513 1.667-1.513h26.873c.933 0 1.766.8 1.667 1.835l-10.304 107.475c-.071.74-.61 1.321-1.308 1.473-.004.001-.008.001-.011.002-.13.026-.246.04-.348.04h-27.065c-.935 0-1.768-.8-1.667-1.839 6.639-67.512 10.059-102.982 10.496-107.473z"/></g></svg>