<svg id="Capa_1" enable-background="new 0 0 511.985 511.985" height="512" viewBox="0 0 511.985 511.985" width="512" xmlns="http://www.w3.org/2000/svg"><g><g><g><path d="m442.664 292.751h-44.378v-104.4h44.378c8.284 0 15 6.716 15 15v74.4c0 8.285-6.716 15-15 15z" fill="#ffdd40"/></g><g><path d="m442.664 155.591h-44.378v-104.4h44.378c8.284 0 15 6.716 15 15v74.4c0 8.285-6.716 15-15 15z" fill="#b3e59f"/></g><g><path d="m398.286 51.191h34.467v104.4h-34.467z" fill="#95d6a4"/></g><g><path d="m398.286 188.351h34.467v104.4h-34.467z" fill="#ffc043"/></g><g><path d="m217.884 429.8v66.251c0 6.596-7.229 10.64-12.85 7.189l-18.083-11.103c-4.597-2.822-10.389-2.822-14.986 0l-18.083 11.103c-5.621 3.451-12.85-.593-12.85-7.189v-66.251z" fill="#e5979d"/></g><g><path d="m217.884 464.92v-35.12h-76.853v66.251c0 6.596 7.229 10.64 12.85 7.189l5.928-3.64c-.491-1.061-.778-2.253-.778-3.549v-17.574c0-7.487 6.07-13.557 13.557-13.557z" fill="#e17f85"/></g><g><path d="m391.966 445.663h-317.644c-11.046 0-20-8.954-20-20v-398.163c0-11.046 8.954-20 20-20h317.643c11.046 0 20 8.954 20 20v398.163c.001 11.045-8.954 20-19.999 20z" fill="#42c3fc"/></g><g><path d="m114.686 7.5h-40.364c-11.046 0-20 8.954-20 20v398.163c0 11.046 8.954 20 20 20h40.363v-438.163z" fill="#e9efff"/></g><g><path d="m79.522 425.662v-398.162c0-11.046 8.954-20 20-20h-25.2c-11.046 0-20 8.954-20 20v398.162c0 11.046 8.954 20 20 20h25.2c-11.046 0-20-8.954-20-20z" fill="#d3dcfb"/></g><g><circle cx="253.664" cy="121.755" fill="#deecf1" r="70.564"/></g><path d="m197.86 121.755c0-36.479 27.682-66.488 63.184-70.178-2.426-.252-4.887-.385-7.38-.385-38.971 0-70.564 31.592-70.564 70.564s31.592 70.564 70.564 70.564c2.493 0 4.954-.133 7.38-.385-35.502-3.692-63.184-33.701-63.184-70.18z" fill="#d3dcfb"/><g><path d="m281.864 108.944h-11.435c-2.184 0-3.954-1.77-3.954-3.954v-11.435c0-5.567-4.513-10.08-10.08-10.08h-5.463c-5.567 0-10.08 4.513-10.08 10.08v11.435c0 2.184-1.77 3.954-3.954 3.954h-11.435c-5.567 0-10.08 4.513-10.08 10.08v5.463c0 5.567 4.513 10.08 10.08 10.08h11.435c2.184 0 3.954 1.77 3.954 3.954v11.435c0 5.567 4.513 10.08 10.08 10.08h5.463c5.567 0 10.08-4.513 10.08-10.08v-11.435c0-2.184 1.77-3.954 3.954-3.954h11.435c5.567 0 10.08-4.513 10.08-10.08v-5.463c0-5.567-4.513-10.08-10.08-10.08z" fill="#b3e59f"/></g><g><path d="m314.228 369.517h-121.128c-5.523 0-10-4.477-10-10v-52.806c0-5.523 4.477-10 10-10h121.128c5.523 0 10 4.477 10 10v52.806c0 5.523-4.478 10-10 10z" fill="#deecf1"/></g></g><g><path d="m442.664 163.092c12.406 0 22.5-10.094 22.5-22.5v-74.4c0-12.406-10.094-22.5-22.5-22.5h-23.198v-16.192c0-15.163-12.337-27.5-27.5-27.5h-317.644c-15.163 0-27.5 12.337-27.5 27.5v398.162c0 15.163 12.337 27.5 27.5 27.5h59.209v42.889c0 5.764 3.125 11.093 8.155 13.907 5.03 2.816 11.206 2.689 16.12-.326l18.082-11.104c2.203-1.352 4.938-1.352 7.138 0l18.084 11.104c2.551 1.566 5.443 2.353 8.339 2.353 2.68 0 5.362-.674 7.78-2.026 5.03-2.814 8.155-8.144 8.155-13.907v-42.889h166.581c15.163 0 27.5-12.337 27.5-27.5v-56.145c0-4.143-3.357-7.5-7.5-7.5s-7.5 3.357-7.5 7.5v56.145c0 6.893-5.607 12.5-12.5 12.5h-269.779v-242.523c0-4.143-3.357-7.5-7.5-7.5s-7.5 3.357-7.5 7.5v242.522h-32.864c-6.893 0-12.5-5.607-12.5-12.5v-398.162c0-6.893 5.607-12.5 12.5-12.5h32.864v148.24c0 4.143 3.357 7.5 7.5 7.5s7.5-3.357 7.5-7.5v-148.24h269.779c6.893 0 12.5 5.607 12.5 12.5v309.98c0 4.143 3.357 7.5 7.5 7.5s7.5-3.357 7.5-7.5v-37.229h23.198c12.406 0 22.5-10.094 22.5-22.5v-74.399c0-12.406-10.094-22.5-22.5-22.5h-23.198v-17.76zm-232.28 332.959c0 .15 0 .549-.479.817-.479.267-.819.06-.946-.02l-18.084-11.104c-7.041-4.324-15.792-4.324-22.835 0l-18.082 11.104c-.128.078-.469.285-.947.02-.479-.269-.479-.667-.479-.817v-42.889h61.854v42.889zm232.28-437.36c4.136 0 7.5 3.364 7.5 7.5v74.4c0 4.136-3.364 7.5-7.5 7.5h-23.198v-89.4zm0 137.161c4.136 0 7.5 3.364 7.5 7.5v74.399c0 4.136-3.364 7.5-7.5 7.5h-23.198v-89.399z"/><path d="m250.932 167.535h5.463c9.693 0 17.58-7.887 17.58-17.58v-7.889h7.889c9.693 0 17.58-7.887 17.58-17.58v-5.463c0-9.693-7.887-17.579-17.58-17.579h-7.889v-7.89c0-9.693-7.887-17.579-17.58-17.579h-5.463c-9.693 0-17.58 7.886-17.58 17.579v7.89h-7.889c-9.693 0-17.579 7.886-17.579 17.579v5.463c0 9.693 7.886 17.58 17.579 17.58h7.889v7.889c0 9.693 7.887 17.58 17.58 17.58zm-25.469-40.469c-1.422 0-2.579-1.157-2.579-2.58v-5.463c0-1.422 1.157-2.579 2.579-2.579h11.435c6.315 0 11.454-5.139 11.454-11.454v-11.435c0-1.422 1.157-2.579 2.58-2.579h5.463c1.423 0 2.58 1.157 2.58 2.579v11.436c0 6.315 5.139 11.454 11.454 11.454h11.435c1.423 0 2.58 1.157 2.58 2.579v5.463c0 1.423-1.157 2.58-2.58 2.58h-11.435c-6.315 0-11.454 5.139-11.454 11.454v11.435c0 1.423-1.157 2.58-2.58 2.58h-5.463c-1.423 0-2.58-1.157-2.58-2.58v-11.435c0-6.315-5.139-11.454-11.454-11.454h-11.435z"/><path d="m309.739 67.445c-2.881-2.976-7.63-3.052-10.604-.169-2.976 2.882-3.051 7.63-.169 10.604 11.454 11.826 17.763 27.407 17.763 43.874 0 34.773-28.291 63.064-63.064 63.064s-63.065-28.29-63.065-63.063 28.29-63.063 63.063-63.063c8.517 0 16.774 1.666 24.546 4.952 3.812 1.614 8.215-.171 9.828-3.986 1.614-3.814-.171-8.215-3.986-9.828-9.629-4.073-19.854-6.138-30.388-6.138-43.044 0-78.063 35.02-78.063 78.063 0 43.045 35.02 78.064 78.063 78.064 43.045 0 78.064-35.02 78.064-78.064.001-20.384-7.809-39.671-21.988-54.31z"/><path d="m193.1 289.211c-9.649 0-17.5 7.851-17.5 17.5v52.807c0 9.649 7.851 17.5 17.5 17.5h121.128c9.649 0 17.5-7.851 17.5-17.5v-52.807c0-9.649-7.851-17.5-17.5-17.5zm123.628 17.5v52.807c0 1.379-1.121 2.5-2.5 2.5h-121.128c-1.379 0-2.5-1.121-2.5-2.5v-52.807c0-1.379 1.121-2.5 2.5-2.5h121.128c1.379 0 2.5 1.121 2.5 2.5z"/><path d="m223.301 325.614h-9.6c-4.143 0-7.5 3.357-7.5 7.5s3.357 7.5 7.5 7.5h9.6c4.143 0 7.5-3.357 7.5-7.5s-3.357-7.5-7.5-7.5z"/><path d="m258.463 325.614h-9.6c-4.143 0-7.5 3.357-7.5 7.5s3.357 7.5 7.5 7.5h9.6c4.143 0 7.5-3.357 7.5-7.5s-3.357-7.5-7.5-7.5z"/><path d="m293.626 325.614h-9.6c-4.143 0-7.5 3.357-7.5 7.5s3.357 7.5 7.5 7.5h9.6c4.143 0 7.5-3.357 7.5-7.5s-3.357-7.5-7.5-7.5z"/></g></g></svg>