<svg id="Capa_1" enable-background="new 0 0 512 512" height="512" viewBox="0 0 512 512" width="512" xmlns="http://www.w3.org/2000/svg"><g><g><g><path d="m77.486 7.5h72.539c21.34 0 38.639 17.299 38.639 38.639v248.742h-32.402v-245.319c0-5.335-4.325-9.66-9.66-9.66h-69.116c-8.947 0-16.201-7.253-16.201-16.201 0-8.948 7.253-16.201 16.201-16.201z" fill="#e9efff"/></g><g><path d="m156.262 183.893h32.402v70.626h-32.402z" fill="#d3dcfb"/></g><g><path d="m82.885 23.701c0-8.948 7.253-16.201 16.201-16.201h-21.6c-8.948 0-16.201 7.253-16.201 16.201s7.253 16.201 16.201 16.201h21.6c-8.948 0-16.201-7.254-16.201-16.201z" fill="#d3dcfb"/></g><g><path d="m384.096 244.307v177.316h31.845v-182.972c0-19.533-15.835-35.368-35.368-35.368h-303.841c-8.634 0-15.987 6.714-16.294 15.342-.322 9.059 6.926 16.503 15.912 16.503h298.567c5.07 0 9.179 4.11 9.179 9.179z" fill="#b8f0ff"/></g><g><path d="m82.038 218.625c.307-8.628 7.66-15.342 16.294-15.342h-21.6c-8.634 0-15.987 6.714-16.294 15.342-.322 9.059 6.926 16.503 15.912 16.503h21.6c-8.986 0-16.234-7.445-15.912-16.503z" fill="#8ddcff"/></g><g><path d="m400.001 504.5c-28.482 0-51.571-23.089-51.571-51.571 0-28.482 23.089-51.571 51.571-51.571 28.482 0 51.571 23.089 51.571 51.571 0 28.482-23.089 51.571-51.571 51.571z" fill="#bac5e2"/></g><g><path d="m400.001 433.051c-10.978 0-19.878 8.9-19.878 19.878 0 10.978 8.9 19.878 19.878 19.878 10.978 0 19.878-8.9 19.878-19.878 0-10.978-8.9-19.878-19.878-19.878z" fill="#e9efff"/></g><g><path d="m368.23 452.929c0-25.095 17.927-45.993 41.671-50.612-3.205-.623-6.513-.96-9.9-.96-28.482 0-51.571 23.089-51.571 51.571 0 28.482 23.089 51.571 51.571 51.571 3.387 0 6.695-.336 9.9-.96-23.744-4.617-41.671-25.516-41.671-50.61z" fill="#a7b4d1"/></g><g><path d="m435.168 367.582h-262.453v-84.7h262.453c4.838 0 8.76 3.922 8.76 8.76v67.18c0 4.838-3.922 8.76-8.76 8.76z" fill="#42c3fc"/></g><g><path d="m172.715 367.581h128.732c-7.167-35.527-28.67-65.858-58.215-84.7h-70.517z" fill="#1aa9e8"/></g><g><path d="m172.715 504.5c-61.198 0-110.809-49.611-110.809-110.809 0-61.198 49.611-110.809 110.809-110.809 61.198 0 110.809 49.611 110.809 110.809 0 61.198-49.611 110.809-110.809 110.809z" fill="#bac5e2"/></g><g><path d="m81.706 393.691c0-57.861 44.35-105.355 100.909-110.364-3.262-.289-6.563-.445-9.9-.445-61.198 0-110.809 49.611-110.809 110.809 0 61.198 49.611 110.809 110.809 110.809 3.337 0 6.638-.156 9.9-.445-56.559-5.009-100.909-52.503-100.909-110.364z" fill="#a7b4d1"/></g><g><path d="m172.715 330.37c-34.971 0-63.321 28.35-63.321 63.321 0 34.971 28.35 63.321 63.321 63.321 34.971 0 63.321-28.35 63.321-63.321 0-34.971-28.35-63.321-63.321-63.321z" fill="#e9efff"/></g><g><path d="m172.715 369.878c-13.151 0-23.813 10.661-23.813 23.813 0 13.151 10.661 23.813 23.813 23.813 13.151 0 23.813-10.661 23.813-23.813 0-13.151-10.662-23.813-23.813-23.813z" fill="#bac5e2"/></g><g><path d="m348.489 235.128h-88.857v-47.748c0-7.953 6.447-14.4 14.4-14.4h60.057c7.953 0 14.4 6.447 14.4 14.4z" fill="#b3e59f"/></g><g><path d="m288.913 172.98h-14.88c-7.953 0-14.4 6.447-14.4 14.4v47.748h14.88v-47.748c0-7.953 6.447-14.4 14.4-14.4z" fill="#95d6a4"/></g></g><g><path d="m400.001 425.551c-15.097 0-27.378 12.281-27.378 27.378s12.281 27.378 27.378 27.378 27.378-12.281 27.378-27.378-12.281-27.378-27.378-27.378zm0 39.756c-6.825 0-12.378-5.553-12.378-12.378s5.553-12.378 12.378-12.378 12.378 5.553 12.378 12.378-5.553 12.378-12.378 12.378z"/><path d="m423.442 398.719v-23.638h11.727c8.966 0 16.26-7.294 16.26-16.26v-67.18c0-8.966-7.294-16.26-16.26-16.26h-11.727v-36.731c0-23.638-19.23-42.868-42.868-42.868h-24.584v-8.402c0-12.075-9.824-21.899-21.899-21.899h-60.057c-12.076 0-21.9 9.824-21.9 21.899v8.402h-55.969v-64.222c0-4.143-3.358-7.5-7.5-7.5s-7.5 3.357-7.5 7.5v64.223h-17.402v-146.221c0-9.462-7.698-17.16-17.16-17.16h-69.117c-4.798 0-8.701-3.903-8.701-8.7 0-4.798 3.903-8.701 8.701-8.701h72.539c17.17 0 31.139 13.969 31.139 31.139v55.781c0 4.143 3.358 7.5 7.5 7.5s7.5-3.357 7.5-7.5v-55.782c0-25.442-20.698-46.139-46.139-46.139h-72.539c-13.069 0-23.701 10.632-23.701 23.701 0 13.068 10.632 23.7 23.701 23.7h69.116c1.191 0 2.16.969 2.16 2.16v146.221h-72.03c-12.89 0-23.339 9.917-23.789 22.576-.229 6.419 2.098 12.496 6.552 17.111 4.455 4.616 10.441 7.158 16.855 7.158h72.412v35.192c-53.792 11.105-94.356 58.839-94.356 115.871 0 65.235 53.073 118.309 118.31 118.309 36.373 0 70.197-16.372 92.8-44.919 2.571-3.248 2.023-7.965-1.224-10.536-3.247-2.57-7.965-2.022-10.536 1.224-19.741 24.933-49.279 39.232-81.041 39.232-56.965 0-103.309-46.345-103.309-103.31s46.345-103.309 103.31-103.309 103.309 46.345 103.309 103.31c0 12.883-2.341 25.449-6.956 37.35-1.498 3.861.418 8.206 4.28 9.704 3.865 1.499 8.206-.419 9.704-4.28 5.29-13.637 7.972-28.028 7.972-42.774 0-6.331-.506-12.545-1.468-18.609h87.04v23.622c-20.962 9.082-35.667 29.965-35.667 54.226 0 32.572 26.499 59.071 59.071 59.071s59.071-26.499 59.071-59.071c0-24.248-14.688-45.12-35.63-54.211zm-42.869-187.937c15.366 0 27.868 12.502 27.868 27.868v36.731h-16.845v-31.074c0-9.197-7.482-16.68-16.68-16.68h-18.928v-16.846h24.585zm-106.54-30.302h60.057c3.805 0 6.899 3.095 6.899 6.899v40.248h-73.856v-40.247c0-3.805 3.096-6.9 6.9-6.9zm-203.745 44.573c-1.601-1.658-2.437-3.847-2.355-6.161.159-4.472 4.106-8.109 8.799-8.109h175.401v16.846h-175.783c-2.306-.001-4.459-.915-6.062-2.576zm93.474 17.575h17.402v32.754h-8.449c-3.012 0-5.997.115-8.953.337zm66.55 47.754h81.568c4.143 0 7.5-3.357 7.5-7.5s-3.357-7.5-7.5-7.5h-115.716v-32.754h178.753c.926 0 1.68.754 1.68 1.68v31.074h-34.477c-4.143 0-7.5 3.357-7.5 7.5s3.357 7.5 7.5 7.5h93.048c.694 0 1.26.565 1.26 1.26v67.18c0 .694-.565 1.26-1.26 1.26h-149.014c-8.855-29.833-29.178-54.776-55.842-69.7zm161.285 84.699h16.845v19.389c-2.758-.396-5.574-.613-8.44-.613-2.854 0-5.657.215-8.404.608v-19.384zm8.404 121.919c-24.301 0-44.071-19.771-44.071-44.071s19.771-44.071 44.071-44.071 44.071 19.771 44.071 44.071-19.77 44.071-44.071 44.071z"/><path d="m101.894 393.691c0 39.051 31.771 70.82 70.821 70.82s70.82-31.77 70.82-70.82-31.77-70.821-70.821-70.821-70.82 31.771-70.82 70.821zm126.642 0c0 30.779-25.041 55.82-55.821 55.82s-55.821-25.041-55.821-55.821c0-30.779 25.041-55.82 55.821-55.82s55.821 25.041 55.821 55.821z"/><path d="m141.402 393.691c0 17.266 14.047 31.312 31.312 31.312s31.312-14.047 31.312-31.312c0-17.267-14.047-31.313-31.312-31.313s-31.312 14.047-31.312 31.313zm47.625 0c0 8.995-7.318 16.312-16.312 16.312s-16.312-7.317-16.312-16.312 7.318-16.313 16.312-16.313 16.312 7.318 16.312 16.313z"/></g></g></svg>