<svg id="Capa_1" enable-background="new 0 0 512 512" height="512" viewBox="0 0 512 512" width="512" xmlns="http://www.w3.org/2000/svg"><g><g><g><path d="m504.5 17.5v54l-212.29 232.266-220.71 200.734h-54c-1.73 0-3.36-.44-4.78-1.22l221.05-253.57 269.51-236.99c.78 1.42 1.22 3.05 1.22 4.78z" fill="#6f6571"/></g><path d="m503.28 12.72-490.56 490.56c-3.11-1.69-5.22-4.99-5.22-8.78v-240.11l4.011-14.897-4.011-13.453v-89.48l2.521-5.049-2.521-6.201v-107.81c0-5.52 4.48-10 10-10h53.367l66.559 10.819 73.707-10.819h283.367c3.79 0 7.09 2.11 8.78 5.22z" fill="#857e87"/><path d="m504.5 71.5v211l-90 13c-5.52 0-10 4.48-10 10v91c0 5.52-4.48 10-10 10h-91c-5.52 0-10 4.48-10 10l-11 88h-211z" fill="#857e87"/><path d="m504.5 282.5v212c0 5.52-4.48 10-10 10h-212v-101c0-5.52 4.48-10 10-10h91c5.52 0 10-4.48 10-10v-91c0-5.52 4.48-10 10-10z" fill="#f8f7f7"/><g><path d="m209.936 392.527h-140.596v-40.25c0-14.232 3.732-31.494 13.55-40.307 8.522-7.649 19.788-12.302 32.141-12.302h51.937c26.584 0 48.135 21.551 48.135 48.135v29.727z" fill="#f8f7f7"/><path d="m215.1 377.53v15l-73.464 5.704-74.736-5.704v-44.73c0-14.23 6.171-27.03 15.991-35.83l.009 56.56c0 4.971 4.029 9 9 9z" fill="#e8e8e8"/><path d="m121.201 165.638h39.597v226.889h-39.597z" fill="#6f6571"/><path d="m121.2 377.53h39.6v20.704h-39.6z" fill="#635a63"/><path d="m224.58 168.787-181.622-1.021-1.575-131.574c0-9.636 3.675-23.92 12.16-27.187 2.524-.972 5.266-1.505 8.132-1.505h140.267c12.503 0 22.638 10.135 22.638 22.638z" fill="#ffe07d"/><path d="m233.77 156.83v16.01h-185.54v-142.7c0-9.63 6.02-17.87 14.51-21.12v147.81z" fill="#ffd064"/><g><g><path d="m75.532 146.107-55.66.319c-6.277 0-11.366-5.089-11.366-11.366l-.187-8.995c0-6.277 5.089-11.366 11.366-11.366l1.815-.749h55.634c6.277 0 11.366 5.089 11.366 11.366v8.605l-1.602.82c0 6.277-5.089 11.366-11.366 11.366z" fill="#f8f7f7"/><path d="m63 218.489h-30v-58.569l2.468-5.431-2.468-6.444h30l-2.255 5.934 2.255 5.941z" fill="#e8e8e8"/><path d="m33 145.553h30v14.367h-30z" fill="#d8d8d8"/><path d="m88.5 133.92v2.64c0 6.27-5.09 11.36-11.37 11.36h-58.26c-6.28 0-11.37-5.09-11.37-11.36v-11.25c0-6.27 5.09-11.36 11.37-11.36h2.63v4.97c0 8.29 6.72 15 15 15z" fill="#e8e8e8"/></g><g><path d="m261.303 146.107-55.66.319c-6.277 0-11.366-5.089-11.366-11.366l-.187-8.995c0-6.277 5.089-11.366 11.366-11.366l1.815-.749h55.634c6.277 0 11.366 5.089 11.366 11.366v8.605l-1.602.82c0 6.277-5.088 11.366-11.366 11.366z" fill="#f8f7f7"/><path d="m248.771 218.489h-30v-58.569l2.468-5.431-2.468-6.444h30l-2.255 5.934 2.255 5.941z" fill="#e8e8e8"/><path d="m218.771 145.553h30v14.367h-30z" fill="#d8d8d8"/><path d="m274.271 133.92v2.64c0 6.27-5.09 11.36-11.37 11.36h-58.26c-6.28 0-11.37-5.09-11.37-11.36v-11.25c0-6.27 5.09-11.36 11.37-11.36h2.63v4.97c0 8.29 6.72 15 15 15z" fill="#e8e8e8"/></g></g><path d="m261.915 264.272-241.596-.719c-6.254 0-11.323-5.07-11.323-11.323l-.421-24.804c0-6.254 5.07-11.323 11.323-11.323l3.602-1.387h239.677c6.254 0 11.323 5.07 11.323 11.323v23.672l-1.262 3.238c0 6.253-5.069 11.323-11.323 11.323z" fill="#ffe07d"/><path d="m274.5 249.71v4.68c0 6.252-5.068 11.32-11.32 11.32h-244.36c-6.252 0-11.32-5.068-11.32-11.32v-28.35c0-6.26 5.07-11.33 11.32-11.33l4.68.005v21.995c0 7.18 5.82 13 13 13z" fill="#ffd064"/><path d="m229.426 424.915-176.847-.294c-3.574 0-6.472-2.898-6.472-6.472l.936-17.702c0-3.574 2.898-6.472 6.472-6.472l5.316-1.448h171.863c3.574 0 6.472 2.898 6.472 6.472v13.501l-1.268 5.943c-.001 3.574-2.898 6.472-6.472 6.472z" fill="#6f6571"/><path d="m237.17 412.5v7.53c0 3.57-2.9 6.47-6.48 6.47h-179.38c-3.58 0-6.48-2.9-6.48-6.47v-21.03c0-3.573 2.897-6.47 6.47-6.47h7.53v9.97c0 5.523 4.477 10 10 10z" fill="#635a63"/></g></g><g><path d="m499.196 66.196-104.649 104.65c-2.929 2.93-2.929 7.678 0 10.607 1.465 1.464 3.385 2.196 5.304 2.196s3.839-.732 5.304-2.196l104.649-104.649c2.929-2.93 2.929-7.678 0-10.607-2.93-2.928-7.678-2.928-10.608-.001z"/><path d="m312.766 386h-20.266c-9.649 0-17.5 7.851-17.5 17.5v101c0 4.143 3.357 7.5 7.5 7.5s7.5-3.357 7.5-7.5v-101c0-1.379 1.121-2.5 2.5-2.5h20.266c4.143 0 7.5-3.357 7.5-7.5s-3.358-7.5-7.5-7.5z"/><path d="m504.5 275h-101c-9.649 0-17.5 7.851-17.5 17.5v91c0 1.379-1.121 2.5-2.5 2.5h-35.734c-4.143 0-7.5 3.357-7.5 7.5s3.357 7.5 7.5 7.5h35.734c9.649 0 17.5-7.851 17.5-17.5v-91c0-1.379 1.121-2.5 2.5-2.5h101c4.143 0 7.5-3.357 7.5-7.5s-3.357-7.5-7.5-7.5z"/><path d="m230.693 385.027h-8.09v-21.023l157.7-157.7c2.929-2.93 2.929-7.678 0-10.607-2.93-2.928-7.678-2.928-10.607 0l-147.313 147.312c-.899-10.48-4.708-20.14-10.625-28.16l41.634-41.634h9.784c10.379 0 18.823-8.444 18.823-18.823v-9.784l227.805-227.804c2.929-2.93 2.929-7.678 0-10.607-2.93-2.928-7.678-2.928-10.607 0l-217.377 217.376c-1.214-9.215-9.101-16.358-18.643-16.358h-6.677v-51.793h6.634c10.403 0 18.866-8.463 18.866-18.866v-11.24c0-10.403-8.463-18.867-18.866-18.867h-21.862v-76.311c-.001-16.618-13.52-30.138-30.138-30.138h-75.134c-4.143 0-7.5 3.357-7.5 7.5s3.357 7.5 7.5 7.5h75.134c8.347 0 15.138 6.791 15.138 15.138v76.311h-21.405c-10.403 0-18.866 8.464-18.866 18.867v11.24c0 10.403 8.463 18.866 18.866 18.866h6.634v9.913h-141v-9.913h6.634c10.403 0 18.866-8.463 18.866-18.866v-11.24c0-10.403-8.463-18.867-18.866-18.867h-21.406v-76.311c0-8.347 6.791-15.138 15.137-15.138h30.134c4.143 0 7.5-3.357 7.5-7.5s-3.357-7.5-7.5-7.5h-30.134c-16.618 0-30.137 13.52-30.137 30.138v76.311h-21.863c-10.403-.001-18.866 8.463-18.866 18.867v11.24c0 10.403 8.463 18.866 18.866 18.866h6.634v51.793h-6.677c-10.379 0-18.823 8.444-18.823 18.823v28.354c0 10.379 8.444 18.823 18.823 18.823h94.878v18.987c-30.063.711-54.305 25.37-54.305 55.601v37.225h-8.09c-7.704 0-13.972 6.268-13.972 13.972v21.029c0 7.704 6.268 13.972 13.972 13.972h20.086l-65.196 65.195c-2.929 2.93-2.929 7.678 0 10.607 1.465 1.465 3.385 2.197 5.304 2.197s3.839-.732 5.304-2.196l75.803-75.804h38.785l-65.196 65.196c-2.929 2.93-2.929 7.678 0 10.607 1.465 1.465 3.385 2.197 5.304 2.197s3.839-.732 5.304-2.196l75.803-75.804h78.086c7.704 0 13.972-6.268 13.972-13.972v-21.029c0-7.704-6.268-13.972-13.972-13.972zm-62.394 0v-77.826c21.792.706 39.305 18.641 39.305 40.601v37.225zm33.012-80.945c-9.14-7.195-20.574-11.585-33.012-11.88v-18.987h63.879zm-.311-167.526v-11.24c0-2.133 1.734-3.867 3.866-3.867h58.268c2.132 0 3.866 1.734 3.866 3.867v11.24c0 2.132-1.734 3.866-3.866 3.866h-58.268c-2.132 0-3.866-1.734-3.866-3.866zm40.5 18.866v51.793h-15v-51.793zm-30 51.793h-43.201v-26.88h43.201zm-82.799 0v-26.88h24.598v26.88zm-15-26.88v26.88h-43.201v-26.88zm-98.701-43.779v-11.24c0-2.133 1.734-3.867 3.866-3.867h58.268c2.132 0 3.866 1.734 3.866 3.867v11.24c0 2.132-1.734 3.866-3.866 3.866h-58.268c-2.132 0-3.866-1.734-3.866-3.866zm25.5 18.866h15v51.793h-15zm-25.5 98.97v-28.354c0-2.108 1.715-3.823 3.823-3.823h244.354c2.108 0 3.823 1.715 3.823 3.823v28.354c0 2.108-1.715 3.823-3.823 3.823h-244.354c-2.108 0-3.823-1.715-3.823-3.823zm59.396 93.411c0-21.96 17.513-39.895 39.305-40.601v24.331c0 4.143 3.357 7.5 7.5 7.5s7.5-3.357 7.5-7.5v-58.317h24.598v111.812h-24.598v-18.495c0-4.143-3.357-7.5-7.5-7.5s-7.5 3.357-7.5 7.5v18.495h-39.305zm155.269 71.197h-177.33v-18.973h177.33z"/></g></g></svg>