<svg id="Capa_1" enable-background="new 0 0 512 512" height="512" viewBox="0 0 512 512" width="512" xmlns="http://www.w3.org/2000/svg"><g><g><path d="m496.5 468.25-7-291-482 15v269z" fill="#eef9fa"/><path d="m489.5 177.25v276.5c0 4.142-3.358 7.5-7.5 7.5h-474.5c0 8.284 6.716 15 15 15h467c8.284 0 15-6.716 15-15v-269z" fill="#dcf2f6"/><path d="m335.426 312.468c1.385 1.5 3.763 1.5 5.148 0 38.136-41.288 71.808-80.967 87.667-120.218l-89.835-15-90.648 15c15.86 39.25 49.532 78.93 87.668 120.218z" fill="#dcf2f6"/><path d="m504.5 192.25-15-71h-467c-8.284 0-15 6.716-15 15v41z" fill="#e6989e"/><path d="m489.5 121.25v56h-56.093c2.897-10.22 4.471-20.42 4.471-30.623 0-8.771-1.138-17.274-3.263-25.377h-193.229c-2.125 8.104-3.263 16.607-3.263 25.377 0 10.202 1.574 20.403 4.471 30.623h-235.094v15h497v-56c0-8.284-6.716-15-15-15z" fill="#df646e"/><path d="m292.365 263.25h-.865v56l63 7 1-56z" fill="#ffe07d"/><path d="m292.365 263.25c13.047 16.196 27.69 32.576 43.061 49.218 1.385 1.5 3.763 1.5 5.148 0 2.326-2.519 4.636-5.031 6.926-7.538v14.32h-56v15h71v-71z" fill="#ffc250"/><path d="m391.907 59.72c-17.457-14.941-40.126-23.97-64.907-23.97-55.161 0-99.877 44.717-99.877 99.877 0 51.531 39.969 103.013 89.321 157.144 33.064-13.284 105.434-107.134 105.434-162.144-.001-24.78-10.876-51.812-29.971-70.907z" fill="#94d8e6"/><path d="m426.877 135.627c0-30.38-13.568-57.589-34.97-75.907 14.942 17.458 23.97 40.127 23.97 64.907 0 55.01-45.547 109.963-99.434 168.144 3.476 3.813 6.998 7.639 10.557 11.479 54.081-58.358 99.877-113.462 99.877-168.623z" fill="#6bbdd5"/><path d="m342 120.627-15-39.519h-15v39.519h-39.519v15l39.519 15v39.519h15l15-39.519 39.52-15v-15z" fill="#eef9fa"/><path d="m330.5 120.627c-1.933 0-3.5-1.567-3.5-3.5v-36.019h15v39.519zm-3.5 69.519h15v-39.519h39.52v-15h-51.02c-1.933 0-3.5 1.567-3.5 3.5zm-54.519-54.519v15h39.519v-11.5c0-1.933-1.567-3.5-3.5-3.5z" fill="#dcf2f6"/></g><g><path d="m489.5 483.75h-467c-12.407 0-22.5-10.094-22.5-22.5v-147.496c0-4.143 3.358-7.5 7.5-7.5s7.5 3.357 7.5 7.5v12.996h56v-56h-56v13.004c0 4.143-3.358 7.5-7.5 7.5s-7.5-3.357-7.5-7.5v-147.504c0-12.406 10.093-22.5 22.5-22.5h175.623c4.142 0 7.5 3.357 7.5 7.5s-3.358 7.5-7.5 7.5h-175.623c-4.136 0-7.5 3.364-7.5 7.5v48.5h215.04c-6.631-16.26-10.417-32.612-10.417-49.123 0-59.208 48.169-107.377 107.377-107.377 51.714 0 95.006 36.748 105.138 85.5h57.362c12.406 0 22.5 10.094 22.5 22.5v216.952c0 4.143-3.357 7.5-7.5 7.5s-7.5-3.357-7.5-7.5v-11.452h-56v56h56v-14.548c0-4.143 3.357-7.5 7.5-7.5s7.5 3.357 7.5 7.5v78.048c0 12.406-10.094 22.5-22.5 22.5zm-48.5-15h48.5c4.136 0 7.5-3.364 7.5-7.5v-48.5h-56zm-71 0h56v-56h-56zm-71 0h56v-56h-56zm-71 0h56v-56h-56zm-71 0h56v-56h-13.31c-4.142 0-7.5-3.357-7.5-7.5s3.358-7.5 7.5-7.5h13.31v-56h-56v56h12.69c4.142 0 7.5 3.357 7.5 7.5s-3.358 7.5-7.5 7.5h-12.69zm-71 0h56v-56h-56zm-71-56v48.5c0 4.136 3.364 7.5 7.5 7.5h48.5v-56zm355-15h56v-56h-56zm-71 0h56v-56h-56zm-71 0h56v-56h-56zm-142 0h56v-56h-56zm-71 0h56v-56h-56zm426-71h56v-56h-56zm-71 0h56v-56h-56zm-71 0h56v-42.12c-7.305 8.223-14.848 16.462-22.499 24.718-1.419 1.532-3.413 2.402-5.501 2.402s-4.082-.87-5.501-2.402c-7.651-8.256-15.194-16.495-22.499-24.718zm-71 0h56v-59.431c-18.954-22.509-35.485-44.971-47.051-67.569h-8.949v56h21.435c4.142 0 7.5 3.357 7.5 7.5s-3.358 7.5-7.5 7.5h-21.435zm-71 0h56v-56h-56zm-71 0h56v-56h-56zm241-283.5c-50.938 0-92.377 41.44-92.377 92.377 0 51.567 43.053 103.985 92.377 157.57 49.324-53.585 92.378-106.002 92.378-157.57 0-50.937-41.44-92.377-92.378-92.377zm114 212.5h56v-56h-56zm-61.48 0h46.48v-56h-8.948c-9.583 18.727-22.576 37.357-37.532 56zm-222.52 0h56v-56h-56zm-71 0h56v-56h-56zm-71 0h56v-56h-56zm408.961-71h73.039v-48.5c0-4.136-3.364-7.5-7.5-7.5h-55.34c.145 2.273.218 4.567.218 6.877 0 16.511-3.786 32.863-10.417 49.123zm-81.961 12.896h-30c-4.143 0-7.5-3.357-7.5-7.5v-32.02h-32.019c-4.143 0-7.5-3.357-7.5-7.5v-30c0-4.143 3.357-7.5 7.5-7.5h32.019v-32.018c0-4.143 3.357-7.5 7.5-7.5h30c4.143 0 7.5 3.357 7.5 7.5v32.019h32.02c4.143 0 7.5 3.357 7.5 7.5v30c0 4.143-3.357 7.5-7.5 7.5h-32.02v32.02c0 4.142-3.357 7.499-7.5 7.499zm-22.5-15h15v-32.02c0-4.143 3.357-7.5 7.5-7.5h32.02v-15h-32.02c-4.143 0-7.5-3.357-7.5-7.5v-32.018h-15v32.019c0 4.143-3.357 7.5-7.5 7.5h-32.019v15h32.019c4.143 0 7.5 3.357 7.5 7.5z"/></g></g></svg>