<svg id="Layer_1" enable-background="new 0 0 511.999 511.999" height="512" viewBox="0 0 511.999 511.999" width="512" xmlns="http://www.w3.org/2000/svg"><g><path clip-rule="evenodd" d="m406.462 464.223c0 7.091-.387 13.022-1.16 17.921-.774 4.899-1.805 8.896-3.223 11.733-1.289 2.965-2.966 5.028-4.642 6.188-1.805 1.29-3.868 1.934-6.06 1.934h-270.368c-1.934 0-3.868-.645-5.673-1.934-1.676-1.16-3.223-3.223-4.642-6.188-1.418-2.837-2.449-6.834-3.223-11.733s-1.16-10.83-1.16-17.921c0-7.22.258-13.28.902-18.308.645-4.899 1.676-8.767 3.094-11.862 1.418-2.966 2.966-5.157 4.771-6.576 1.676-1.418 3.739-2.063 5.931-2.063h91.283v-317.943l-78.519 43.321c-5.673 2.708-10.443 4.512-14.054 5.157-3.739.516-6.575-.129-8.767-2.321-2.063-2.192-3.481-5.802-4.255-11.088-.773-5.286-1.16-12.764-1.16-22.305 0-6.06.129-11.088.387-14.956s.903-7.22 1.934-9.928c.903-2.836 2.321-5.028 4.126-6.833 1.676-1.805 4.126-3.61 7.091-5.673l104.95-67.946c1.289-1.031 2.836-1.805 4.642-2.449 1.934-.645 4.384-1.16 7.478-1.547 2.965-.387 6.962-.645 11.861-.773 4.9-.13 11.217-.13 19.082-.13 9.541 0 17.277.129 23.208.516s10.443 1.031 13.409 1.934c3.095.902 5.029 2.063 6.06 3.61s1.547 3.352 1.547 5.673v403.682h79.937c2.32 0 4.383.645 6.318 2.063 1.934 1.418 3.481 3.61 4.899 6.576 1.418 3.094 2.45 6.962 3.095 11.862.643 5.027.901 11.087.901 18.307z" fill="#cbe558" fill-rule="evenodd"/><g><path d="m415.475 444.61c-.768-5.827-2.049-10.644-3.918-14.723-.022-.051-.046-.101-.07-.15-2.238-4.68-4.782-7.96-8.008-10.325-3.619-2.652-7.733-3.997-12.23-3.997h-69.938v-393.683c0-4.236-1.086-8.013-3.225-11.218-2.378-3.568-6.148-6.071-11.524-7.648-3.721-1.125-8.83-1.887-15.613-2.329-5.681-.371-13.04-.537-23.861-.537-7.996 0-14.313 0-19.345.132-5.267.138-9.604.426-12.839.848-3.715.464-6.789 1.113-9.399 1.982-.067.022-.134.046-.201.069-2.763.986-5.081 2.2-7.066 3.701l-104.597 67.718c-.094.061-.186.123-.277.187-3.656 2.544-6.378 4.602-8.581 6.942-2.908 2.947-5.049 6.468-6.366 10.471-1.321 3.563-2.152 7.788-2.47 12.565-.271 4.083-.409 9.338-.409 15.62 0 10.16.414 17.93 1.266 23.754 1.073 7.327 3.319 12.723 6.867 16.492.07.074.141.147.212.22 4.391 4.389 10.178 6.123 17.204 5.154.131-.018.261-.039.391-.062 4.389-.784 9.82-2.739 16.604-5.978.177-.084.351-.174.522-.269l63.688-35.138.003 97.033c0 5.523 4.478 10 10 10s10-4.478 10-10l-.003-113.972c0-3.538-1.87-6.813-4.916-8.611-3.048-1.799-6.818-1.854-9.915-.145l-78.256 43.176c-5.922 2.811-9.253 3.827-11.043 4.176-.11.014-.21.023-.301.03-.35-.77-.87-2.281-1.269-5.004-.7-4.787-1.055-11.805-1.055-20.858 0-5.842.123-10.65.365-14.291.241-3.623.841-5.825 1.301-7.034.066-.173.127-.349.184-.525.364-1.144.878-2.006 1.667-2.794.088-.088.174-.178.258-.269 1.039-1.119 3.169-2.663 5.339-4.176l104.807-67.854c.279-.181.548-.375.807-.582.176-.141.623-.429 1.659-.807 1.321-.429 3.158-.791 5.512-1.086 2.606-.34 6.251-.573 10.83-.693 4.77-.122 10.971-.122 18.822-.122 10.369 0 17.326.152 22.558.494 6.808.444 9.906 1.145 11.146 1.521.038.012.075.022.113.034.147.043.282.084.405.124v403.241c0 5.522 4.478 10 10 10h79.938c.14 0 .216.012.226.014.016.007.079.039.179.113.027.02.676.512 1.755 2.749.995 2.2 1.748 5.203 2.233 8.896.553 4.311.821 9.883.821 17.036 0 6.495-.35 12-1.038 16.362-.809 5.122-1.691 7.623-2.289 8.818-.08.16-.156.323-.228.487-.622 1.428-1.171 1.95-1.164 1.953-.04.028-.079.055-.119.084-.076.055-.1.071-.246.071h-270.123c-.029-.018-.064-.041-.106-.07-.133-.144-.672-.775-1.433-2.366-.025-.052-.05-.104-.076-.155-.599-1.198-1.482-3.701-2.291-8.823-.689-4.363-1.039-9.867-1.039-16.361 0-7.151.269-12.724.818-17.003.49-3.726 1.243-6.729 2.237-8.929.924-1.915 1.584-2.658 1.809-2.876h91.118c5.523 0 10-4.478 10-10v-113.971c0-5.522-4.477-10-10-10s-10 4.478-10 10v103.972h-81.283c-4.617 0-8.848 1.489-12.249 4.31-2.926 2.341-5.372 5.618-7.474 10.014-.023.05-.047.099-.07.149-1.869 4.079-3.15 8.896-3.921 14.755-.671 5.235-.984 11.457-.984 19.58 0 7.642.42 14.015 1.283 19.481.99 6.266 2.298 10.896 4.115 14.563 2.18 4.535 4.756 7.801 7.873 9.978 3.464 2.457 7.414 3.755 11.428 3.755h270.369c4.266 0 8.349-1.298 11.813-3.755 3.271-2.284 6.015-5.784 7.951-10.139 1.776-3.639 3.062-8.226 4.037-14.401.862-5.467 1.282-11.839 1.282-19.481 0-8.125-.313-14.347-.987-19.614z"/><path d="m212.299 276.443c5.523 0 10-4.478 10-10s-4.477-10-10-10h-.007c-5.523 0-9.996 4.478-9.996 10s4.48 10 10.003 10z"/></g></g></svg>