<svg id="Capa_1" enable-background="new 0 0 512 512" height="512" viewBox="0 0 512 512" width="512" xmlns="http://www.w3.org/2000/svg"><g><g><g><path d="m335.975 178.118-79.975 14.209-79.975-14.209c-5.192-.922-8.975-5.436-8.975-10.71v-63.524c0-5.273 3.783-9.787 8.975-10.71l79.975-14.208 79.975 14.209c5.192.922 8.975 5.436 8.975 10.71v63.524c-.001 5.273-3.783 9.787-8.975 10.709z" fill="#d8ecfe"/><path d="m335.975 93.175-79.975-14.209-15 2.665 64.975 11.544c5.192.922 8.975 5.436 8.975 10.709v63.524c0 5.273-3.782 9.787-8.975 10.71l-64.975 11.544 15 2.665 79.975-14.209c5.192-.923 8.975-5.436 8.975-10.71v-63.524c-.001-5.273-3.783-9.786-8.975-10.709z" fill="#c4e2ff"/><path d="m290.085 263.794h-68.169c-14.994 0-26.616-13.109-24.819-27.995l7.173-59.417c3.267-27.058 3.267-54.412 0-81.47l-7.173-59.417c-1.797-14.886 9.824-27.995 24.818-27.995h68.169c14.994 0 26.616 13.109 24.819 27.995l-7.173 59.417c-3.267 27.058-3.267 54.412 0 81.47l7.173 59.417c1.797 14.886-9.824 27.995-24.818 27.995z" fill="#a6d6f8"/><path d="m307.73 176.382c-3.267-27.059-3.267-54.412 0-81.47l7.173-59.417c1.797-14.887-9.824-27.995-24.818-27.995h-30c14.994 0 26.616 13.108 24.819 27.995l-7.173 59.417c-3.267 27.059-3.267 54.412 0 81.47l7.173 59.417c1.797 14.886-9.824 27.995-24.819 27.995h30c14.994 0 26.616-13.108 24.819-27.995z" fill="#8ecbfb"/><path d="m231.54 179.674c3.527-29.213 3.527-58.84.001-88.055l-6.344-52.549c-.263-2.181 1.439-4.101 3.636-4.101h54.334c2.197 0 3.899 1.92 3.636 4.101l-6.343 52.55c-3.528 29.215-3.527 58.841 0 88.054l6.343 52.55c.263 2.181-1.439 4.101-3.636 4.101h-54.334c-2.197 0-3.899-1.92-3.636-4.101z" fill="#eaf6ff"/></g><g><g><path d="m399.269 263.305v-83.203c0-13.785 11.398-24.879 25.235-24.464 13.306.399 23.723 11.662 23.723 24.973v108.477c0 18.879-6.474 37.186-18.342 51.868l-69.505 85.985c-6.51 8.053-10.061 18.095-10.061 28.45v47.609c0 4.971-4.029 9-9 9h-62.432l28.559-165.54z" fill="#ffcebf"/><path d="m424.504 155.638c-4.779-.143-9.267 1.088-13.095 3.327 7.365 4.36 12.261 12.521 12.261 21.646v108.477c0 18.878-6.474 37.186-18.342 51.868l-69.505 85.985c-6.51 8.053-10.061 18.095-10.061 28.45v47.609c0 4.97-4.029 9-9 9h24.557c4.97 0 9-4.03 9-9v-47.609c0-10.355 3.551-20.397 10.061-28.45l69.505-85.985c11.868-14.682 18.342-32.99 18.342-51.868v-108.477c0-13.311-10.417-24.574-23.723-24.973z" fill="#ffb09e"/><path d="m271 387.049c0-20.275 5.987-40.093 17.211-56.972 5.608-8.432 12.268-16.059 19.795-22.696 7.527-6.645 15.92-12.315 24.978-16.825l59.447-29.611c5.925-2.947 12.918-2.831 18.743.317 7.001 3.783 10.675 10.822 10.675 17.923 0 5.647-2.321 11.332-7.132 15.44l-74.586 50.923z" fill="#ffb09e"/><path d="m265 512c-4.971 0-9-4.029-9-9v-115.951c0-20.275 5.987-40.093 17.211-56.972 5.608-8.432 12.268-16.059 19.795-22.696 7.527-6.645 15.92-12.315 24.978-16.825l59.447-29.611c5.925-2.947 12.918-2.831 18.743.317 7.001 3.783 10.675 10.822 10.675 17.923 0 5.647-2.321 11.332-7.132 15.44l-59.586 50.923-44.018 166.452z" fill="#ffcebf"/></g><g><path d="m112.731 263.305v-83.203c-.001-13.795-11.394-24.868-25.232-24.463-13.304.39-23.726 11.645-23.726 24.955v108.493c0 18.882 6.475 37.184 18.341 51.866l69.503 85.988c6.513 8.053 10.064 18.093 10.064 28.451v46.608c0 5.523 4.477 10 10 10h21.986l-3.293-161.483z" fill="#ffcebf"/><path d="m190.374 350.517-77.022-86.515c-4.254-.601-8.649.143-12.527 2.239-1.114.604-2.15 1.292-3.094 2.042-4.982 3.984-7.581 9.909-7.581 15.881 0 5.647 2.321 11.333 7.132 15.44l74.586 45.944z" fill="#ffb09e"/><path d="m171.869 345.548-59.586-50.923c-4.811-4.108-7.132-9.793-7.132-15.44 0-5.972 2.599-11.897 7.581-15.881.944-.75 1.98-1.439 3.094-2.042 5.825-3.148 12.818-3.264 18.743-.317l59.447 29.611c9.058 4.51 17.451 10.18 24.978 16.825 7.527 6.637 14.187 14.264 19.795 22.696 11.224 16.879 17.211 36.698 17.211 56.972v114.951c0 5.523-4.477 10-10 10h-74.131z" fill="#ffcebf"/><path d="m238.789 330.077c-5.608-8.432-12.269-16.059-19.795-22.696-7.527-6.645-15.92-12.315-24.978-16.825l-59.447-29.612c-5.925-2.947-12.918-2.831-18.743.317-1.114.603-2.15 1.292-3.094 2.042-.434.347-.843.714-1.24 1.089l52.525 26.163c9.058 4.51 17.451 10.18 24.978 16.825 7.527 6.637 14.187 14.264 19.795 22.696 11.223 16.88 17.21 36.699 17.21 56.973v114.951c0 5.523-4.477 10-10 10h30c5.523 0 10-4.477 10-10v-114.951c0-20.274-5.987-40.093-17.211-56.972z" fill="#ffb09e"/></g></g></g><path d="m174.717 185.504 20.458 3.638-5.525 45.758c-1.113 9.224 1.783 18.501 7.947 25.454 6.163 6.952 15.026 10.939 24.317 10.939h68.17c9.291 0 18.154-3.987 24.317-10.939 6.164-6.953 9.061-16.23 7.947-25.454l-5.524-45.758 20.451-3.636c8.792-1.556 15.174-9.166 15.174-18.096v-63.53c0-8.924-6.382-16.53-15.167-18.084l-20.458-3.638 5.525-45.764c1.113-9.224-1.783-18.502-7.947-25.454-6.163-6.953-15.026-10.94-24.317-10.94h-68.17c-9.291 0-18.154 3.987-24.317 10.939-6.164 6.952-9.061 16.23-7.947 25.454l5.525 45.764-20.451 3.636c-8.792 1.556-15.174 9.162-15.174 18.086v63.53c-.001 8.931 6.381 16.541 15.166 18.095zm140.317-88.43 19.629 3.491c1.615.285 2.787 1.68 2.787 3.314v63.53c0 1.641-1.172 3.039-2.794 3.326l-19.622 3.49c-2.992-25.605-2.992-51.546 0-77.151zm-106.213-76.183c3.367-3.799 8.018-5.891 13.094-5.891h68.17c5.076 0 9.727 2.092 13.094 5.891 3.367 3.798 4.887 8.666 4.278 13.706l-7.173 59.417c-3.335 27.625-3.335 55.641 0 83.267l7.173 59.417c.6 4.967-.96 9.963-4.278 13.706-3.368 3.799-8.018 5.891-13.094 5.891h-68.17c-5.076 0-9.726-2.092-13.094-5.891-3.318-3.743-4.878-8.739-4.278-13.706l7.173-59.417c3.335-27.626 3.335-55.642 0-83.267l-7.173-59.417c-.608-5.04.911-9.909 4.278-13.706zm-34.271 82.989c0-1.635 1.172-3.029 2.794-3.316l19.622-3.49c2.992 25.605 2.991 51.546-.001 77.152l-19.629-3.491c-1.615-.285-2.787-1.684-2.787-3.324v-63.531zm250.179 44.261c-17.89-.538-33.037 14.12-32.96 31.961v71.723c-5.924-1.139-12.147-.344-17.681 2.408l-59.446 29.61c-9.595 4.776-18.544 10.805-26.595 17.913-8.032 7.082-15.125 15.214-21.08 24.168-4.438 6.674-8.1 13.751-10.967 21.113-2.867-7.362-6.529-14.439-10.967-21.113-5.955-8.954-13.048-17.086-21.076-24.164-8.055-7.112-17.004-13.141-26.598-17.916l-59.451-29.613c-5.53-2.75-11.752-3.545-17.677-2.406v-71.724c.085-17.865-15.207-32.478-32.952-31.958-17.097.501-31.006 15.059-31.006 32.451v28.622c0 4.143 3.357 7.5 7.5 7.5s7.5-3.357 7.5-7.5v-28.622c0-9.36 7.377-17.191 16.445-17.457 9.419-.276 17.564 7.544 17.513 16.965v79.948c-4.851 5.12-7.581 11.906-7.581 19.136 0 8.142 3.559 15.849 9.759 21.142l59.588 50.923c3.148 2.69 7.884 2.32 10.573-.829 2.691-3.148 2.32-7.883-.829-10.573l-59.59-50.926c-2.902-2.479-4.501-5.936-4.501-9.736 0-9.521 10.208-15.747 18.574-11.527l59.448 29.612c8.424 4.194 16.282 9.487 23.36 15.737 7.052 6.217 13.279 13.357 18.51 21.223 10.439 15.697 15.957 33.962 15.957 52.819v117.449c0 4.143 3.357 7.5 7.5 7.5s7.5-3.357 7.5-7.5v-117.45c0-18.857 5.518-37.122 15.957-52.819 5.23-7.865 11.458-15.006 18.514-21.227 7.074-6.246 14.933-11.539 23.357-15.734l59.443-29.609c8.302-4.224 18.578 2.117 18.578 11.525 0 3.801-1.599 7.258-4.505 9.739l-59.586 50.923c-3.149 2.69-3.521 7.425-.829 10.573 2.689 3.148 7.425 3.521 10.573.829l59.584-50.92c6.204-5.296 9.763-13.003 9.763-21.145 0-7.226-2.788-14.017-7.581-19.106v-79.978c-.052-9.449 8.071-17.249 17.511-16.967 9.068.271 16.447 8.112 16.447 17.477v108.477c0 17.105-5.922 33.852-16.675 47.153l-22.759 28.155c-2.604 3.222-2.104 7.943 1.118 10.548 3.202 2.589 7.93 2.118 10.548-1.118l22.759-28.155c12.902-15.962 20.009-36.057 20.009-56.583v-108.477c.002-17.39-13.904-31.957-30.996-32.47zm-336.782 188.097c-10.752-13.303-16.674-30.049-16.674-47.151v-44.871c0-4.143-3.357-7.5-7.5-7.5s-7.5 3.357-7.5 7.5v44.871c0 20.523 7.105 40.617 20.008 56.581l69.505 85.99c5.414 6.693 8.396 15.122 8.396 23.734v49.108c0 4.143 3.357 7.5 7.5 7.5s7.5-3.357 7.5-7.5v-49.107c0-12.034-4.167-23.813-11.731-33.166zm136.148-243.72c3.455 28.62 3.455 57.642-.001 86.257v.001l-6.342 52.548c-.384 3.168.611 6.355 2.728 8.743 2.117 2.389 5.162 3.759 8.354 3.759h54.334c3.19 0 6.235-1.369 8.352-3.757s3.113-5.573 2.731-8.743l-6.344-52.551c-3.456-28.62-3.456-57.641 0-86.257l6.342-52.547c.384-3.168-.611-6.355-2.728-8.743-2.117-2.389-5.162-3.759-8.354-3.759h-54.334c-3.19 0-6.235 1.369-8.352 3.757s-3.113 5.573-2.731 8.744zm54.743-50.049-5.824 48.251c-3.6 29.809-3.6 60.04 0 89.853l5.825 48.253h-45.677l5.824-48.253v.001c3.599-29.809 3.6-60.04.001-89.854l-5.826-48.251zm111.007 348.02c-3.225-2.605-7.943-2.103-10.548 1.118l-24.75 30.619c-7.563 9.357-11.729 21.136-11.729 33.165v49.109c0 4.143 3.357 7.5 7.5 7.5s7.5-3.357 7.5-7.5v-49.108c0-8.609 2.981-17.038 8.395-23.735l24.75-30.619c2.603-3.223 2.103-7.944-1.118-10.549z"/></g></svg>