<svg id="Capa_1" enable-background="new 0 0 512 512" height="512" viewBox="0 0 512 512" width="512" xmlns="http://www.w3.org/2000/svg"><g><g><g><g><path d="m76.08 141.341h360v286h-360z" fill="#eaf6ff"/></g><path d="m406.08 141.341h30v271h-30z" fill="#d8ecfe"/></g><path d="m374.58 171.341h-261.527c-23.961 0-47.237 7.998-66.138 22.726l-6.106 4.758c-1.313 1.023-3.229.088-3.229-1.578v-33.723c0-55.228 44.772-100 100-100h261.527c23.961 0 47.237-7.998 66.138-22.726l6.106-4.758c1.313-1.023 3.229-.088 3.229 1.578v33.723c0 55.229-44.771 100-100 100z" fill="#8fd8fa"/><g><path d="m471.351 36.041-6.106 4.758c-6.428 5.009-13.37 9.218-20.665 12.62v17.922c0 55.228-44.771 100-100 100h30c55.229 0 100-44.772 100-100v-33.722c0-1.665-1.916-2.601-3.229-1.578z" fill="#6bcdfe"/></g><path d="m7 412.341h482.5c8.284 0 15 6.716 15 15v34c0 8.284-6.716 15-15 15h-482.5c-3.866 0-7-3.134-7-7v-50c0-3.866 3.134-7 7-7z" fill="#ffe179"/><path d="m489.5 412.341h-30c8.284 0 15 6.716 15 15v34c0 8.284-6.716 15-15 15h30c8.284 0 15-6.716 15-15v-34c0-8.284-6.716-15-15-15z" fill="#fbd268"/></g><path d="m489.5 404.841h-45.92v-251.136c23.519-19.735 38.5-49.331 38.5-82.364v-33.722c.073-7.766-9.315-12.281-15.34-7.494l-6.105 4.759c-17.497 13.634-39.348 21.142-61.528 21.142h-55.527c-4.143 0-7.5 3.357-7.5 7.5s3.357 7.5 7.5 7.5h55.526c24.345 0 48.345-7.866 67.974-22.216v22.532c0 51.005-41.495 92.5-92.5 92.5h-261.526c-24.105-.042-48.488 8.07-67.974 22.216v-22.532c0-51.005 41.495-92.5 92.5-92.5h171c4.143 0 7.5-3.357 7.5-7.5s-3.357-7.5-7.5-7.5h-171c-59.275 0-107.5 48.225-107.5 107.5v33.723c-.082 7.68 9.268 12.326 15.339 7.493l6.106-4.758c5.319-4.145 11.044-7.714 17.055-10.687v115.822c0 4.143 3.357 7.5 7.5 7.5s7.5-3.357 7.5-7.5v-121.797c9.512-2.935 19.457-4.48 29.474-4.48h.526v226h-30v-64.724c0-4.143-3.357-7.5-7.5-7.5s-7.5 3.357-7.5 7.5v64.724h-61.08c-4.143 0-7.5 3.357-7.5 7.5s3.357 7.5 7.5 7.5h482c4.136 0 7.5 3.364 7.5 7.5v34c0 4.136-3.364 7.5-7.5 7.5h-482c-4.143 0-7.5 3.357-7.5 7.5s3.357 7.5 7.5 7.5h482c12.406 0 22.5-10.094 22.5-22.5v-34c0-12.407-10.094-22.501-22.5-22.501zm-330.92 0h-30v-226h30zm45 0h-30v-226h30zm45 0h-30v-226h30zm45 0h-30v-226h30zm45 0h-30v-226h30zm45 0h-30v-226h21c3.031 0 6.031-.133 9-.38zm45 0h-30v-228.703c10.692-2.448 20.779-6.496 30-11.875z"/></g></svg>