<svg id="Capa_1" enable-background="new 0 0 512 512" height="512" viewBox="0 0 512 512" width="512" xmlns="http://www.w3.org/2000/svg"><g><g><g><path d="m81.815 442.875h173.134v31.354h-173.134z" fill="#ffdd40" transform="matrix(-1 0 0 -1 336.763 917.103)"/></g><g><path d="m81.815 442.875h51.216v31.354h-51.216z" fill="#ffc043"/></g><g><path d="m204.982 442.875h49.966v31.354h-49.966z" fill="#ffc043"/></g><g><path d="m81.815 207.158h173.134v31.354h-173.134z" fill="#ffdd40"/></g><g><path d="m81.815 207.158h51.216v31.354h-51.216z" fill="#ffc043"/></g><g><path d="m204.982 207.158h49.966v31.354h-49.966z" fill="#ffc043"/></g><g><path d="m81.815 273.488h173.134v31.354h-173.134z" fill="#ffdd40"/></g><g><path d="m81.815 37.771h173.134v31.354h-173.134z" fill="#ffdd40"/></g><g><path d="m81.815 273.488h51.216v31.354h-51.216z" fill="#ffc043"/></g><g><path d="m204.982 273.488h49.966v31.354h-49.966z" fill="#ffc043"/></g><g><path d="m81.815 37.771h51.216v31.354h-51.216z" fill="#ffc043"/></g><g><path d="m204.982 37.771h49.966v31.354h-49.966z" fill="#ffc043"/></g><g><path d="m168.382 110.045c30.031 0 57.541 10.987 78.733 29.147 25.952-22.239 42.427-55.236 42.427-92.013v-24.064c0-8.624-6.991-15.615-15.615-15.615h-27.065c-8.624 0-15.615 6.991-15.615 15.615v24.065c0 34.663-28.201 62.865-62.865 62.865z" fill="#42c3fc"/></g><g><path d="m89.648 139.192c21.183 18.152 48.679 29.138 78.696 29.147 34.596.011 62.903 28.271 62.903 62.867v49.588c0 34.665-28.202 62.867-62.866 62.867 30.031 0 57.541 10.987 78.733 29.147 25.952-22.239 42.427-55.237 42.427-92.014v-49.588c0-36.777-16.475-69.775-42.427-92.014-21.183-18.153-48.68-29.138-78.697-29.147-34.595-.01-62.902-28.27-62.902-62.866v-24.064c0-8.624-6.991-15.615-15.615-15.615h-27.064c-8.624 0-15.615 6.991-15.615 15.615v24.065c.001 36.776 16.475 69.774 42.427 92.012z" fill="#e5979d"/></g><g><path d="m168.382 401.955c-30.031 0-57.541-10.987-78.733-29.147-25.952 22.239-42.427 55.236-42.427 92.013v24.065c0 8.624 6.991 15.615 15.615 15.615h27.065c8.624 0 15.615-6.991 15.615-15.615v-24.065c-.001-34.664 28.201-62.866 62.865-62.866z" fill="#e5979d"/></g><g><path d="m247.115 372.808c-21.183-18.152-48.679-29.138-78.696-29.147-34.596-.011-62.903-28.271-62.903-62.867v-49.588c0-34.665 28.202-62.867 62.866-62.867-30.031 0-57.541-10.987-78.733-29.147-25.952 22.239-42.427 55.237-42.427 92.014v49.588c0 36.777 16.475 69.775 42.427 92.014 21.183 18.153 48.68 29.138 78.697 29.147 34.595.01 62.902 28.27 62.902 62.866v24.065c0 8.624 6.991 15.615 15.615 15.615h27.065c8.624 0 15.615-6.991 15.615-15.615v-24.065c-.001-36.777-16.476-69.774-42.428-92.013z" fill="#42c3fc"/></g><g><path d="m231.247 23.115v24.065c0 34.047-27.212 61.841-61.027 62.819-.595.028-1.204.047-1.838.047 11.908 0 23.418 1.734 34.297 4.951.001 0 .003.001.005.001 28.539-5.935 50.05-31.276 50.05-61.549v-30.334c0-8.624 6.991-15.615 15.615-15.615h-21.486c-8.625 0-15.616 6.991-15.616 15.615z" fill="#1aa9e8"/></g><g><path d="m47.222 464.821v24.065c0 8.624 6.991 15.615 15.615 15.615h21.486c-8.624 0-15.615-6.991-15.615-15.615v-24.065c0-32.069 12.529-61.261 32.943-82.955-4.188-2.775-8.198-5.799-12.001-9.058-25.954 22.239-42.428 55.236-42.428 92.013z" fill="#e17f85"/></g><g><path d="m275.023 173.747c-7.966 8.843-14.67 18.842-19.83 29.712-1.79 3.77-7.131 3.707-8.987-.031-10.305-20.745-31.741-35.081-56.376-35.088-30.016-.009-57.513-10.995-78.696-29.147-25.952-22.239-42.427-55.236-42.427-92.013v-24.065c0-8.624 6.991-15.615 15.615-15.615h-21.486c-8.624 0-15.615 6.991-15.615 15.615v24.065c0 36.777 16.474 69.774 42.427 92.013 21.183 18.152 48.679 29.138 78.696 29.147 34.596.011 62.903 28.271 62.903 62.867v49.588c0 33.704-26.662 61.291-60.001 62.794-.912.047-1.863.073-2.864.073 14.434 0 28.282 2.544 41.129 7.197 17.806-5.874 32.121-19.497 38.922-36.861 1.574-4.02 7.083-4.338 9.099-.52 4.77 9.032 10.628 17.404 17.401 24.938 9.312-17.146 14.609-36.775 14.609-57.621v-49.588c0-20.781-5.263-40.352-14.519-57.46z" fill="#e17f85"/></g><g><path d="m252.733 488.885v-24.065c0-34.595-28.307-62.855-62.903-62.866-30.017-.009-57.513-10.995-78.697-29.147-25.952-22.239-42.427-55.237-42.427-92.014v-49.588c0-32.069 12.529-61.261 32.943-82.956-4.188-2.775-8.198-5.799-12.002-9.058-25.952 22.239-42.427 55.237-42.427 92.014v49.588c0 36.777 16.474 69.775 42.427 92.014 21.183 18.153 48.68 29.138 78.697 29.147 34.595.01 62.902 28.27 62.902 62.866v24.065c0 8.624 6.991 15.615 15.615 15.615h21.486c-8.623 0-15.614-6.991-15.614-15.615z" fill="#1aa9e8"/></g><g><circle cx="366.563" cy="256.132" fill="#e9efff" r="98.215"/></g><g><path d="m289.542 256.132c0-50.662 38.36-92.36 87.618-97.645-3.482-.374-7.016-.57-10.597-.57-54.243 0-98.215 43.973-98.215 98.215 0 54.243 43.972 98.215 98.215 98.215 3.581 0 7.115-.197 10.597-.57-49.258-5.286-87.618-46.983-87.618-97.645z" fill="#d3dcfb"/></g><g><path d="m420.444 246.609v-19.561c0-3.573-1.906-6.874-5-8.66l-16.94-9.781c-3.094-1.786-6.906-1.786-10 0l-21.94 12.667v31.108l26.94 15.554 21.94-12.667c3.094-1.787 5-5.088 5-8.66z" fill="#e5979d"/></g><g><path d="m366.563 252.382v-31.108l-21.94-12.667c-3.094-1.786-6.906-1.786-10 0l-16.94 9.781c-3.094 1.786-5 5.088-5 8.66v19.561c0 3.573 1.906 6.874 5 8.66l21.94 12.667z" fill="#42c3fc"/></g><g><path d="m393.503 293.267v-25.335l-26.94-15.554-26.94 15.554v25.335c0 3.573 1.906 6.874 5 8.66l16.94 9.78c3.094 1.786 6.906 1.786 10 0l16.94-9.78c3.094-1.786 5-5.087 5-8.66z" fill="#ffc043"/></g></g><g><path d="m258.185 372.789c8.693-8.471 16.139-18.061 22.15-28.641 2.046-3.602.785-8.18-2.816-10.227-3.604-2.045-8.18-.785-10.227 2.816-5.516 9.711-12.393 18.487-20.458 26.188-12.784-9.855-27.242-17.167-42.573-21.633 20.629-12.28 34.487-34.796 34.487-60.498v-49.588c0-38.788-31.582-70.355-70.401-70.367-27.036-.008-53.252-9.718-73.818-27.342-25.299-21.679-39.808-53.141-39.808-86.318v-24.065c0-4.475 3.641-8.114 8.115-8.114h27.065c4.475 0 8.114 3.64 8.114 8.114v24.064c0 38.788 31.581 70.354 70.4 70.366 27.036.008 53.252 9.719 73.818 27.343 10.084 8.642 18.514 18.859 25.054 30.371 2.048 3.602 6.625 4.861 10.227 2.816 3.602-2.047 4.862-6.625 2.815-10.227-6.011-10.579-13.453-20.172-22.141-28.646 24.782-24.184 38.852-57.264 38.852-92.023v-24.064c.002-12.745-10.368-23.114-23.113-23.114h-27.065c-12.745 0-23.114 10.369-23.114 23.114v7.157h-24.988c-4.143 0-7.5 3.357-7.5 7.5s3.357 7.5 7.5 7.5h24.987v1.907c0 4.998-.677 9.838-1.924 14.446h-106.88c-1.249-4.609-1.927-9.449-1.927-14.446v-1.907h56.944c4.143 0 7.5-3.357 7.5-7.5s-3.357-7.5-7.5-7.5h-56.944v-7.157c0-12.745-10.369-23.114-23.114-23.114h-27.066c-12.746 0-23.115 10.369-23.115 23.114v24.064c0 34.753 14.063 67.83 38.837 92.014-24.774 24.184-38.837 57.26-38.837 92.014v49.588c0 34.756 14.064 67.833 38.84 92.017-24.775 24.183-38.84 57.258-38.84 92.011v24.064c0 12.745 10.369 23.114 23.115 23.114h27.065c12.745 0 23.114-10.369 23.114-23.114v-7.157h110.731v7.157c0 12.745 10.369 23.114 23.114 23.114h27.065c12.745 0 23.114-10.369 23.114-23.114v-24.064c.003-34.763-14.068-67.848-38.854-92.033zm-19.437-349.675c0-4.475 3.64-8.114 8.114-8.114h27.065c4.475 0 8.114 3.64 8.114 8.114v24.064c0 31.105-12.768 60.69-35.209 82.13-12.784-9.856-27.243-17.168-42.575-21.634 20.63-12.279 34.49-34.794 34.49-60.496v-24.064zm-23.514 53.511c-9.809 15.551-27.128 25.912-46.833 25.919-19.715-.013-37.044-10.374-46.861-25.919zm-46.833 259.536c-18.813-.013-35.454-9.447-45.468-23.818h90.909c-10.007 14.375-26.638 23.811-45.441 23.818zm-55.385-90.149h24.304c4.143 0 7.5-3.357 7.5-7.5s-3.357-7.5-7.5-7.5h-24.299c.02-5.692.901-11.185 2.523-16.354h105.673c1.624 5.169 2.506 10.661 2.526 16.354h-59.063c-4.143 0-7.5 3.357-7.5 7.5s3.357 7.5 7.5 7.5h59.067v19.977h-110.731zm.005 34.976h110.722c-.02 5.693-.901 11.186-2.523 16.354h-105.673c-1.624-5.168-2.506-10.661-2.526-16.354zm100.81-81.33h-90.91c10.006-14.376 26.638-23.812 45.441-23.819 18.813.013 35.455 9.448 45.469 23.819zm-115.815 289.228c0 4.475-3.64 8.114-8.114 8.114h-27.066c-4.475 0-8.115-3.64-8.115-8.114v-24.064c0-31.105 12.752-60.702 35.192-82.143 12.79 9.864 27.258 17.18 42.599 21.649-20.636 12.274-34.496 34.789-34.496 60.494zm70.346-79.43c19.715.013 37.045 10.373 46.861 25.919h-93.693c9.808-15.551 27.128-25.913 46.832-25.919zm-55.346 57.273v-1.907c0-4.998.677-9.838 1.924-14.446h106.88c1.249 4.609 1.927 9.449 1.927 14.446v1.907zm169.026 22.157c0 4.475-3.64 8.114-8.114 8.114h-27.065c-4.475 0-8.114-3.64-8.114-8.114v-24.064c0-38.788-31.581-70.354-70.4-70.366-27.037-.008-53.253-9.719-73.819-27.343-25.298-21.678-39.807-53.14-39.807-86.318v-49.588c0-31.105 12.752-60.702 35.192-82.143 12.791 9.865 27.261 17.181 42.604 21.649-20.637 12.275-34.501 34.787-34.501 60.493v49.588c0 38.788 31.582 70.355 70.401 70.367 27.035.008 53.25 9.718 73.817 27.342 25.298 21.679 39.807 53.141 39.807 86.318v24.065z"/><path d="m430.687 172.079c-3.292-2.514-7.997-1.885-10.513 1.407-2.515 3.291-1.885 7.998 1.407 10.513 22.686 17.331 35.697 43.622 35.697 72.133 0 50.021-40.695 90.716-90.716 90.716s-90.715-40.695-90.715-90.716 40.694-90.716 90.715-90.716c10.784 0 21.332 1.871 31.354 5.562 3.888 1.429 8.197-.56 9.63-4.446 1.432-3.887-.559-8.198-4.446-9.63-11.686-4.304-23.979-6.486-36.537-6.486-58.291 0-105.715 47.424-105.715 105.716s47.424 105.716 105.715 105.716c58.292 0 105.716-47.424 105.716-105.716 0-33.224-15.159-63.861-41.592-84.053z"/><path d="m340.873 308.422 16.94 9.781c2.698 1.558 5.725 2.337 8.75 2.337s6.052-.779 8.75-2.337l16.94-9.781c5.397-3.116 8.75-8.923 8.75-15.155v-21.001l18.19-10.502c5.397-3.116 8.75-8.923 8.75-15.155v-19.561c0-6.232-3.353-12.039-8.75-15.155l-16.94-9.781c-5.396-3.115-12.104-3.115-17.5 0l-18.19 10.503-18.19-10.503c-5.396-3.115-12.104-3.115-17.5 0l-16.94 9.781c-5.397 3.116-8.75 8.923-8.75 15.155v19.561c0 6.232 3.353 12.039 8.75 15.155l18.19 10.502v21.001c0 6.232 3.352 12.039 8.75 15.155zm43.88-12.99-16.94 9.781c-.771.445-1.729.445-2.5 0l-16.94-9.781c-.771-.445-1.25-1.274-1.25-2.165v-21.001l19.44-11.224 19.44 11.224v21.001c0 .89-.478 1.719-1.25 2.165zm7.5-80.33c.771-.445 1.729-.445 2.5 0l16.94 9.781c.771.445 1.25 1.274 1.25 2.165v19.561c0 .891-.479 1.72-1.25 2.165l-18.188 10.5-19.443-11.225v-22.444zm-72.071 31.506v-19.561c0-.891.479-1.72 1.25-2.165l16.94-9.781c.386-.223.817-.334 1.25-.334s.864.111 1.25.334l18.19 10.503v22.444l-19.443 11.225-18.188-10.5c-.77-.445-1.249-1.274-1.249-2.165z"/></g></g></svg>