<svg id="Capa_1" enable-background="new 0 0 512 512" height="512" viewBox="0 0 512 512" width="512" xmlns="http://www.w3.org/2000/svg"><g><g><g><path d="m503.49 465.38v23.54c0 3.85-2.12 5.97-5.96 5.97l-6.36 1h-50.9c-2.39 0-4.77-.07-7.13-.22-17.89-1.057-35.132-16.072-50.576-24.386-15.236-8.202-28.722-9.614-39.354-23.604-2.98-3.91-5.73-8.02-8.23-12.32l-71.65-123.05 30.69-17.86 70.65 123.04c.94 1.62 1.94 3.2 2.98 4.74 7.801 11.589 19.248 30.977 31.256 37.54 10.466 5.72 22.117.295 34.234 1.31 2.36.2 4.73.3 7.13.3h59.22c2.76 0 4 1.24 4 4z" fill="#f7e365"/><path d="m504.49 465.379-.007 23.54c.007 3.854-3.111 6.972-6.958 6.972h-6.477l.007-17.077c0-2.758-2.241-4.999-4.999-4.999h-59.227c-2.39 0-4.766-.099-7.128-.297-26.014-2.185-49.893-16.164-64.488-37.858-1.039-1.534-2.037-3.111-2.977-4.731l-71.651-123.044-14.814 8.62-2.44-4.193 30.688-17.862 71.651 123.044c.94 1.619 1.938 3.196 2.977 4.731 8.04 11.951 18.898 31.561 31.379 38.148 10.174 5.369 21.426-1.271 33.109-.289 2.362.198 4.738.297 7.128.297h59.227c2.758-.002 5 2.24 5 4.998z" fill="#ecc52e"/><path d="m433.137 460.084v35.591c-35.54-2.1-68.513-19.824-89.93-47.998l25.445-25.445c7.132 10.597 16.477 29.353 27.204 35.793 11.231 6.741 23.976.943 37.281 2.059z" fill="#f47c7c"/><path d="m307.985 374.907-17.965 1h-126.139c-6.74 0-12.968-3.595-16.338-9.433l-72.052-124.798c-3.37-5.838-3.37-13.028 0-18.866l72.052-124.798c3.37-5.838 9.598-9.433 16.338-9.433h125.777l18.327 1c6.74 0 11.968 2.595 15.338 8.433l72.052 124.798c3.37 5.837 3.37 13.028 0 18.866l-72.052 124.798c-3.369 5.837-8.598 8.433-15.338 8.433z" fill="#f47c7c"/><path d="m180.219 338.175h83.111l28.317-1c3.37 0 5.484-.798 7.169-3.716l55.714-96.499c1.685-2.919 1.685-6.514 0-9.433l-55.714-96.499c-1.685-2.918-3.799-3.716-7.169-3.716l-28.316-1h-83.112c-3.37 0-6.484 1.798-8.169 4.716l-55.714 96.499c-1.685 2.919-1.685 6.514 0 9.433l55.714 96.499c1.685 2.918 4.799 4.716 8.169 4.716z" fill="#e94444"/><path d="m267.781 232.243c0 18.141-13.706 31.848-31.848 31.848-3.49 0-6.853.456-10.009-.553-13.247-4.233-22.839-16.644-22.839-31.295 0-14.642 9.58-27.047 22.814-31.287 3.163-1.014 6.534-.561 10.033-.561 18.142 0 31.849 13.707 31.849 31.848z" fill="#f7e365"/><path d="m396.37 241.68-72.05 124.79c-3.37 5.84-9.59 9.44-16.34 9.44h-20c6.75 0 12.97-3.6 16.34-9.44l72.05-124.79c3.38-5.84 3.38-13.03 0-18.87l-72.05-124.8c-3.37-5.84-9.59-9.43-16.34-9.43h20c6.75 0 12.97 3.59 16.34 9.43l72.05 124.8c3.38 5.84 3.38 13.03 0 18.87z" fill="#ee6161"/><path d="m355.53 236.96-55.71 96.5c-1.69 2.92-4.8 4.71-8.17 4.71h-30c3.37 0 6.48-1.79 8.17-4.71l55.71-96.5c1.68-2.92 1.68-6.52 0-9.43l-55.71-96.5c-1.69-2.92-4.8-4.72-8.17-4.72h30c3.37 0 6.48 1.8 8.17 4.72l55.71 96.5c1.68 2.91 1.68 6.51 0 9.43z" fill="#d83131"/><path d="m268.78 232.24c0 18.14-14.71 32.85-32.85 32.85-3.49 0-6.85-.54-10-1.56 13.25-4.22 22.85-16.64 22.85-31.29s-9.6-27.06-22.85-31.28c3.15-1.02 6.51-1.56 10-1.56 18.14 0 32.85 14.7 32.85 32.84z" fill="#ecc52e"/><path d="m433.137 460.082v13.732l-12.658-.308c-.829-.02-1.659-.062-2.484-.143-25.517-2.517-48.42-16.355-62.783-37.704l13.443-13.428c14.595 21.694 38.467 35.666 64.482 37.851z" fill="#ee6161"/></g></g><g><path d="m499.5 452.878h-59.221c-2.134 0-4.329-.091-6.524-.27-.001 0-.001 0-.002 0-23.634-1.988-45.64-14.909-58.869-34.565-.002-.003-.005-.006-.007-.009-.002-.004-.004-.007-.007-.011-.938-1.383-1.852-2.835-2.71-4.305l-33.364-57.297 11.568-20.036c2.071-3.587.842-8.174-2.745-10.245-3.588-2.071-8.174-.843-10.245 2.745l-19.537 33.839c-2.023 3.505-5.794 5.682-9.842 5.682h-144.104c-4.048 0-7.82-2.177-9.843-5.683l-31.646-54.811c-2.071-3.588-6.658-4.815-10.245-2.745-3.587 2.071-4.816 6.658-2.745 10.245l31.645 54.811c.935 1.619 2.036 3.11 3.265 4.469l-10.498 18.03h-43.84c-4.142 0-7.5 3.357-7.5 7.5s3.358 7.5 7.5 7.5h40.651v40.651c0 4.143 3.358 7.5 7.5 7.5s7.5-3.357 7.5-7.5v-46.127l11.489-19.732c2.183.583 4.455.892 6.766.892h132.166l32.451 55.729c2.634 4.52 5.572 8.918 8.734 13.074.002.002.003.004.004.006 22.917 30.147 57.71 48.716 95.458 50.947.014.001.029.001.043.001 2.491.148 5.025.224 7.532.224h57.258c7.975 0 14.463-6.488 14.463-14.463v-23.547c.001-6.892-5.606-12.499-12.499-12.499zm-186.38-69.98c6.938-1.383 13.117-5.535 17.009-11.551l29.003 49.807-14.901 14.901c-.952-1.473-1.882-2.96-2.761-4.47zm112.527 104.542c-28.133-3.637-53.899-17.589-72.366-39.223l14.566-14.565c14.508 17.538 35.289 29.448 57.8 33.065zm71.353.948h-56.354v-20.51h56.354z"/><path d="m69.006 245.426 24.059 41.671c2.071 3.588 6.658 4.815 10.245 2.745 3.587-2.071 4.816-6.658 2.745-10.245l-24.058-41.671c-2.024-3.505-2.024-7.861 0-11.366l72.052-124.798c2.023-3.505 5.795-5.683 9.843-5.683h144.104c4.048 0 7.819 2.178 9.843 5.683l72.051 124.798c2.024 3.505 2.024 7.861 0 11.366l-36.122 62.566c-2.071 3.587-.842 8.174 2.745 10.245 1.181.682 2.471 1.006 3.743 1.006 2.592 0 5.113-1.345 6.502-3.751l36.123-62.566c1.045-1.81 1.843-3.721 2.423-5.683h21.901l31.857 31.856c1.464 1.464 3.384 2.196 5.303 2.196s3.839-.732 5.303-2.196c2.929-2.93 2.929-7.678 0-10.607l-28.744-28.744 28.744-28.745c2.929-2.93 2.929-7.678 0-10.607-2.929-2.928-7.678-2.928-10.607 0l-31.846 31.847h-21.911c-.58-1.962-1.379-3.873-2.424-5.684l-72.052-124.797c-.934-1.619-2.035-3.109-3.264-4.468l10.498-18.03h43.839c4.142 0 7.5-3.357 7.5-7.5s-3.358-7.5-7.5-7.5h-40.651v-40.652c0-4.143-3.358-7.5-7.5-7.5s-7.5 3.357-7.5 7.5v46.128l-11.489 19.732c-2.183-.583-4.455-.892-6.766-.892h-144.104c-2.312 0-4.583.309-6.766.892l-11.489-19.732v-46.128c0-4.143-3.358-7.5-7.5-7.5s-7.5 3.357-7.5 7.5v40.651h-40.652c-4.142 0-7.5 3.357-7.5 7.5s3.358 7.5 7.5 7.5h43.84l10.498 18.03c-1.229 1.359-2.33 2.85-3.264 4.468l-72.052 124.799c-1.045 1.81-1.844 3.721-2.423 5.684h-21.933l-31.846-31.847c-2.928-2.928-7.677-2.928-10.606 0-2.929 2.93-2.929 7.678 0 10.607l28.744 28.745-28.745 28.743c-2.929 2.93-2.929 7.678 0 10.607 1.464 1.464 3.384 2.196 5.303 2.196s3.839-.732 5.303-2.196l31.857-31.856h21.922c.58 1.962 1.379 3.873 2.424 5.683z"/><path d="m293.331 134.777 22.878 39.625c2.071 3.588 6.658 4.814 10.245 2.745 3.587-2.071 4.816-6.658 2.745-10.245l-22.877-39.624c-3.014-5.223-8.633-8.468-14.665-8.468h-111.428c-6.03 0-11.649 3.244-14.664 8.467l-55.714 96.499c-3.015 5.224-3.015 11.712 0 16.933l55.714 96.501c3.015 5.221 8.634 8.465 14.664 8.465h111.428c6.031 0 11.65-3.244 14.664-8.466l55.713-96.499c3.016-5.222 3.016-11.71 0-16.934l-16.494-28.569c-2.071-3.588-6.658-4.815-10.245-2.745-3.587 2.071-4.816 6.658-2.745 10.245l16.494 28.569c.344.596.345 1.336 0 1.933l-55.714 96.5c-.344.596-.985.966-1.674.966h-111.427c-.689 0-1.33-.37-1.674-.966l-55.714-96.501c-.344-.596-.343-1.336.001-1.932l55.714-96.499c.344-.597.985-.967 1.673-.967h111.428c.688.001 1.329.371 1.674.967z"/><path d="m195.595 232.243c0 22.248 18.1 40.348 40.348 40.348 22.247 0 40.348-18.1 40.348-40.348s-18.1-40.348-40.348-40.348c-22.248.001-40.348 18.1-40.348 40.348zm65.696 0c0 13.977-11.371 25.348-25.348 25.348s-25.348-11.371-25.348-25.348 11.371-25.348 25.348-25.348c13.976.001 25.348 11.372 25.348 25.348z"/></g></g></svg>