<svg id="Capa_1" enable-background="new 0 0 512 512" height="512" viewBox="0 0 512 512" width="512" xmlns="http://www.w3.org/2000/svg"><g><g><g><path d="m61.829 249.385v141.655c0 13.807 11.193 25 25 25 13.807 0 25-11.193 25-25v-184.592c0-35.319 6.719-69.828 19.97-102.568 9.533-23.553 22.132-45.413 37.599-65.274 2.58-3.313-1.718-7.542-4.984-4.904-.476.385-.957.775-1.443 1.173-64.261 52.559-101.142 131.493-101.142 214.51z" fill="#7a6d79"/><path d="m371.853 249.385v141.655c0 13.807 11.193 25 25 25 13.807 0 25-11.193 25-25v-184.592c0-35.319 6.719-69.828 19.97-102.568 9.533-23.553 22.132-45.413 37.598-65.274 2.58-3.313-1.717-7.542-4.984-4.904-.476.385-.957.775-1.443 1.173-64.26 52.559-101.141 131.493-101.141 214.51z" fill="#7a6d79"/><path d="m494.49 478.131-28.5 1h-448.5c-5.523 0-10-4.477-10-10v-216.177l1-83.053c0-5.523 3.477-9 9-9h477c5.523 0 9 3.477 9 9v83.053 216.178c0 5.522-3.477 8.999-9 8.999z" fill="#f47c7c"/><path d="m503.49 169.903 1 83.05v216.18c0 5.52-4.48 10-10 10h-30c5.52 0 10-4.48 10-10v-299.23c0-5.53-4.48-10-10-10l30 1c5.52 0 9 3.47 9 9z" fill="#ee6161"/><path d="m503.49 169.903v60.2l1 22.85c-5.351 0-10.011-9.666-14.158-9.085-6.238.875-11.317 12.309-15.843 14.011-15.754 5.922-24.82 15.074-52.839 15.074-41.42 0-41.42-20-82.83-20-41.42 0-41.42 20-82.84 20-41.41 0-41.41-20-82.83-20-41.41 0-41.41 20-82.83 20-41.41 0-41.41-20-82.83-20v-83.05c0-5.53 4.48-10 10-10h448.101l28.899 1c5.52 0 9 3.47 9 9z" fill="#fed2a4"/><path d="m279.99 206.445v88.557c0 21.751 6.508 43.092 19.118 60.815 6.576 9.241 10.289 20.661 9.846 32.966-1.001 27.762-22.552 49.39-50.31 50.48-4.167.163-8.233.85-12.148.111-24.773-4.68-43.506-26.434-43.506-52.568 0-11.43 3.582-22.018 9.684-30.708 12.225-17.407 18.316-38.388 18.316-59.658v-47.054c0-67.813 24.607-132.897 68.643-183.11 9.875-11.26 21.727-21.772 33.497-31.4.49-.4.97.21 1.44-.17 3.27-2.64 5.57.59 2.99 3.9-15.47 19.86-28.07 41.72-37.6 65.28-13.25 32.738-19.97 67.238-19.97 102.559z" fill="#7a6d79"/><path d="m280.99 206.443v88.56c0 21.75 6.51 43.09 19.12 60.81 6.57 9.24 10.29 20.66 9.84 32.97-1 27.76-23.55 50.39-51.31 51.48-4.17.16-8.23-.15-12.15-.9 24.05-4.59 42.56-25.49 43.46-50.58.45-12.31-3.27-23.73-9.84-32.97-12.61-17.72-19.12-39.06-19.12-60.81v-88.56c0-35.32 6.72-69.82 19.97-102.56 5.29-13.08 11.53-25.64 18.68-37.62 9.87-11.26 20.72-21.77 32.49-31.39.49-.4.97-.79 1.44-1.17 3.27-2.64 7.57 1.59 4.99 4.9-15.47 19.86-28.07 41.72-37.6 65.28-13.25 32.74-19.97 67.24-19.97 102.56z" fill="#685e68"/><path d="m504.49 169.903v83.05c-13.4 0-22.47 2.09-30 4.93v-86.37c0-6.42-4.48-11.61-10-11.61h30c5.52 0 10 4.47 10 10z" fill="#ffbd86"/></g></g><g><path d="m89.019 471.631h-71.519c-1.378 0-2.5-1.121-2.5-2.5v-89.338c0-4.143-3.358-7.5-7.5-7.5s-7.5 3.357-7.5 7.5v89.338c0 9.649 7.851 17.5 17.5 17.5h71.519c4.142 0 7.5-3.357 7.5-7.5 0-4.142-3.358-7.5-7.5-7.5z"/><path d="m494.5 167.401c1.379 0 2.5 1.121 2.5 2.5v75.778c-17.689 1.109-27.978 6.073-37.179 10.516-9.855 4.759-19.165 9.254-38.158 9.254s-28.302-4.495-38.156-9.254c-10.432-5.037-22.255-10.746-44.681-10.746-22.425 0-34.247 5.709-44.678 10.746-1.898.917-3.756 1.812-5.648 2.665v-52.415c0-13.147.966-26.178 2.871-39.044h34.664c4.142 0 7.5-3.357 7.5-7.5s-3.358-7.5-7.5-7.5h-31.987c3.23-15.545 7.848-30.814 13.874-45.704 9.238-22.838 21.54-44.196 36.563-63.481 3.502-4.494 3.099-10.651-.96-14.641-4.061-3.99-10.225-4.285-14.662-.702l-1.473 1.196c-32.325 26.44-58.85 60.481-76.706 98.446-3.814 8.108-7.217 16.425-10.249 24.886h-115.55c3.233-15.544 7.874-30.882 13.874-45.707 9.242-22.834 21.544-44.191 36.564-63.48 3.501-4.496 3.096-10.654-.962-14.642-4.058-3.987-10.22-4.284-14.655-.703-.487.394-.98.794-1.477 1.2-39.612 32.401-69.609 74.956-87 123.332h-53.729c-9.649 0-17.5 7.85-17.5 17.5v177.206c0 4.143 3.358 7.5 7.5 7.5s7.5-3.357 7.5-7.5v-86.391c14.122 1.02 22.196 4.902 30.654 8.986 10.431 5.037 22.253 10.746 44.677 10.746s34.246-5.709 44.677-10.746c9.855-4.759 19.163-9.254 38.155-9.254s28.3 4.495 38.154 9.254c3.805 1.838 7.713 3.718 12.183 5.389v21.347c0 20.416-5.862 39.555-16.953 55.348-7.228 10.29-11.047 22.398-11.047 35.018 0 16.749 6.65 32.367 18.724 43.977 11.473 11.031 26.391 17.024 42.245 17.024.823 0 1.651-.017 2.479-.049 31.669-1.242 57.37-27.028 58.511-58.703.49-13.575-3.394-26.571-11.229-37.584-11.599-16.303-17.73-35.828-17.73-56.467v-19.916c4.465-1.67 8.369-3.548 12.171-5.384 9.854-4.759 19.163-9.254 38.155-9.254 18.993 0 28.303 4.495 38.158 9.254 10.431 5.037 22.254 10.746 44.679 10.746 22.426 0 34.249-5.709 44.681-10.746 8.458-4.085 16.533-7.966 30.656-8.986v208.415c0 1.379-1.121 2.5-2.5 2.5h-372.795c-4.142 0-7.5 3.358-7.5 7.5 0 4.143 3.358 7.5 7.5 7.5h372.795c9.649 0 17.5-7.851 17.5-17.5v-299.23c0-9.65-7.851-17.5-17.5-17.5h-59.589c3.233-15.545 7.875-30.884 13.874-45.707 9.242-22.835 21.544-44.192 36.564-63.48 3.5-4.496 3.096-10.654-.964-14.642-4.056-3.988-10.217-4.284-14.649-.706-.49.396-.985.798-1.48 1.203-39.614 32.4-69.611 74.956-87.003 123.332h-22.533c-4.143 0-7.5 3.357-7.5 7.5s3.357 7.5 7.5 7.5zm-40.639-104.612c-7.266 12.22-13.611 25.012-18.98 38.277-6.728 16.623-11.849 33.864-15.279 51.334h-22.329c12.808-33.505 32.035-63.931 56.588-89.611zm-310.024 0c-7.266 12.22-13.613 25.014-18.981 38.278-6.729 16.626-11.85 33.867-15.279 51.334h-22.328c12.808-33.506 32.036-63.933 56.588-89.612zm91.685 104.612c-7.9 26.556-12.022 54.315-12.022 81.983v9.481c-1.896-.854-3.758-1.752-5.66-2.67-10.431-5.038-22.253-10.747-44.677-10.747s-34.247 5.709-44.677 10.746c-9.855 4.759-19.163 9.254-38.154 9.254s-28.3-4.495-38.154-9.254c-9.201-4.443-19.489-9.406-37.177-10.516v-75.778c0-1.379 1.122-2.5 2.5-2.5h218.021zm58.486 192.764c5.905 8.299 8.831 18.101 8.461 28.348-.86 23.879-20.235 43.318-44.108 44.255-12.661.488-24.639-4.049-33.74-12.799-9.106-8.756-14.121-20.534-14.121-33.165 0-9.517 2.878-18.645 8.322-26.397 12.873-18.331 19.678-40.451 19.678-63.969v-26.756c0-.042.001-.085 0-.127v-20.171c0-39.723 8.907-79.656 25.759-115.484 12.258-26.061 28.824-50.166 48.665-70.989-7.236 12.184-13.558 24.938-18.906 38.16-7.519 18.58-12.981 37.716-16.373 57.236-.021.096-.036.193-.053.291-2.716 15.728-4.091 31.705-4.091 47.847v63.134.053 25.37c-.001 23.774 7.09 46.307 20.507 65.163z"/><path d="m73.223 337.31c0-4.142-3.358-7.5-7.5-7.5s-7.5 3.358-7.5 7.5c0 4.142 3.358 7.5 7.5 7.5s7.5-3.358 7.5-7.5z"/><path d="m101.336 415.127c-4.142 0-7.5 3.358-7.5 7.5 0 4.142 3.358 7.5 7.5 7.5s7.5-3.358 7.5-7.5c0-4.142-3.358-7.5-7.5-7.5z"/><path d="m147.318 354.351c0-4.142-3.358-7.5-7.5-7.5s-7.5 3.358-7.5 7.5c0 4.142 3.358 7.5 7.5 7.5 4.143 0 7.5-3.358 7.5-7.5z"/><path d="m453.777 337.31c0-4.142-3.358-7.5-7.5-7.5s-7.5 3.358-7.5 7.5c0 4.142 3.358 7.5 7.5 7.5s7.5-3.358 7.5-7.5z"/><path d="m418.164 422.627c0-4.142-3.358-7.5-7.5-7.5s-7.5 3.358-7.5 7.5c0 4.142 3.358 7.5 7.5 7.5s7.5-3.358 7.5-7.5z"/><path d="m379.682 354.351c0-4.142-3.358-7.5-7.5-7.5s-7.5 3.358-7.5 7.5c0 4.142 3.358 7.5 7.5 7.5s7.5-3.358 7.5-7.5z"/></g></g></svg>