<svg id="Capa_1" enable-background="new 0 0 512 512" height="512" viewBox="0 0 512 512" width="512" xmlns="http://www.w3.org/2000/svg"><g><g><path d="m365 497.5h37v-320.652c0-14.327 5.562-20.136 12.498-24.348s16.502-10.021 16.502-24.348c0-20.839-7-86.422-7-120.652h-89z" fill="#ffc250"/><path d="m424 7.5v120.652c0 6.327-1.566 9.136-8.502 13.348-14.935 9.071-20.498 21.496-20.498 35.348v309.152c0 1.933-1.567 3.5-3.5 3.5h-26.5v15h30c8.25 0 15-6.75 15-15v-312.652c0-14.327 5.562-20.136 12.498-24.348s16.502-10.021 16.502-24.348c0-28.654 0-105.652 0-105.652 0-8.25-6.75-15-15-15z" fill="#e69824"/><path d="m380 489.5v-312.152c0-14.327-5.563-20.135-12.498-24.348-6.936-4.213-17.502-10.021-17.502-24.348v-106.152c0-8.284-6.716-15-15-15h-247c-8.25 0-15 6.75-15 15v467l299.5 7.5c4.125 0 7.5-3.375 7.5-7.5z" fill="#fff3bf"/><path d="m73 489.5c0 8.25 6.75 15 15 15h277c8.25 0 15-6.75 15-15z" fill="#ffe07d"/><path d="m241.5 61.371c0-1.515-2.051-5.758-5.647-9.353-1.378-.417-2.839-.647-4.353-.647-8.284 0-15 6.716-15 15 0 1.515.229 2.975.647 4.353 3.421 3.421 7.839 5.647 9.353 5.647 8.284 0 15-6.715 15-15z" fill="#bae6ef"/><path d="m235.853 52.018c.418 1.378.647 2.839.647 4.353 0 8.284-6.716 15-15 15-1.515 0-2.975-.229-4.353-.647 1.866 6.16 7.584 10.647 14.353 10.647 8.284 0 15-6.716 15-15 0-6.769-4.486-12.487-10.647-14.353z" fill="#94d8e6"/><path d="m179.134 120.715c-7.627 1.353-17.827 4.644-25.786 12.603-6.51 6.51-9.739 16.237-10.141 23.324 5.822 5.822 20.046 3.137 28.324-5.141 10.121-10.121 14.339-24.049 7.603-30.786z" fill="#bae6ef"/><path d="m179.134 120.715c-1.353 7.627-4.644 17.827-12.603 25.786-6.51 6.51-16.237 9.739-23.324 10.141-.218 3.828.387 6.888 1.749 8.251 3.885 3.885 21.548 1.635 31.575-8.392 14.579-14.579 13.513-36.696 13.513-36.696s-4.566-.215-10.91.91z" fill="#94d8e6"/><path d="m424 128.152h-14c-8.25 0-15-6.75-15-15 0 0 0-76.998 0-105.652h29l7 62.194z" fill="#eef9fa"/><path d="m439 128.152c0-28.654 0-105.652 0-105.652 0-8.25-6.75-15-15-15v120.652z" fill="#dcf2f6"/></g><g><path d="m395 512h-307c-12.407 0-22.5-10.094-22.5-22.5v-38.988c0-4.143 3.358-7.5 7.5-7.5s7.5 3.357 7.5 7.5v38.988c0 4.136 3.364 7.5 7.5 7.5h277c4.136 0 7.5-3.364 7.5-7.5v-312.652c0-11.593-4.027-14.982-8.892-17.938l-.802-.485c-7.096-4.287-20.306-12.267-20.306-30.272v-105.653c0-4.136-3.364-7.5-7.5-7.5h-198.348c-4.142 0-7.5-3.357-7.5-7.5s3.358-7.5 7.5-7.5h198.348c12.407 0 22.5 10.094 22.5 22.5v105.652c0 8.857 5.414 12.813 13.062 17.434l.833.504c7.499 4.555 16.105 12.167 16.105 30.758v312.652c0 2.628-.453 5.153-1.285 7.5h8.785c4.136 0 7.5-3.364 7.5-7.5v-206.006c0-4.143 3.358-7.5 7.5-7.5s7.5 3.357 7.5 7.5v206.006c0 12.406-10.093 22.5-22.5 22.5zm-163.5-44.526c-4.142 0-7.5-3.357-7.5-7.5v-77.06c-14.95-4.229-30-10.631-30-26.722 0-15.165 13.67-22.88 30-28.843v-48.027c-23.355-6.541-50-15.301-50-38.176 0-21.453 23.535-30.718 50-39.556v-59.669c0-4.143 3.358-7.5 7.5-7.5s7.5 3.357 7.5 7.5v54.686c26.884-9.091 52-19.578 52-41.551 0-10.88-5.116-36.186-52.5-36.186-18.591 0-33.875 4.01-41.113 6.31-.643 8.474-3.51 24.581-15.553 36.624-7.466 7.466-16.869 10.372-21.809 11.44-4.284.926-14.842 2.482-20.372-3.048-7.895-7.895-3.424-30.365 8.392-42.182 14.421-14.422 34.675-15.685 40.664-15.727 4.32-1.584 17.528-5.979 35.291-7.706v-16.995c-8.73-3.096-15-11.437-15-21.215 0-12.406 10.093-22.5 22.5-22.5s22.5 10.094 22.5 22.5c0 9.778-6.27 18.119-15 21.215v16.286c22.095.077 39.26 5.274 51.026 15.451 10.301 8.91 15.974 21.6 15.974 35.733 0 15.905-8.33 29.186-24.757 39.474-12.19 7.634-27.299 12.936-42.243 17.896v109.914c15.638-5.01 33-10.706 33-19.062 0-3.202-1.553-8.109-14.981-13.734-3.82-1.601-5.62-5.995-4.02-9.815 1.601-3.821 5.997-5.619 9.815-4.021 5.982 2.507 24.186 10.132 24.186 27.57 0 19.444-22.477 26.641-44.212 33.6-1.253.401-2.519.807-3.788 1.217v33.256c14.637 3.801 30 8.623 30 22.765 0 8.849-7.015 14.721-13.798 20.399-7.965 6.668-16.202 13.562-16.202 25.46v20c0 4.141-3.358 7.499-7.5 7.499zm7.5-80.59v21.855c2.241-2.101 4.495-3.987 6.573-5.728 3.557-2.977 8.427-7.055 8.427-8.897 0-2.576-7.865-5.24-15-7.23zm-15-43.443c-8.564 3.561-15 7.663-15 12.751 0 4.949 5.988 8.176 15 11.045zm0-126.013c-18.581 6.393-35 13.448-35 23.719 0 10.569 14.648 16.612 35 22.562zm-73.326-58.252c4.033.302 14.062-1.487 20.554-7.978 7.125-7.126 9.783-16.714 10.766-23.343-6.624.981-16.214 3.639-23.342 10.767-6.492 6.491-8.277 16.525-7.978 20.554zm80.826-100.305c-4.136 0-7.5 3.364-7.5 7.5s3.364 7.5 7.5 7.5 7.5-3.364 7.5-7.5-3.364-7.5-7.5-7.5zm-158.5 369.141c-4.142 0-7.5-3.357-7.5-7.5v-398.012c0-12.406 10.093-22.5 22.5-22.5h18.652c4.142 0 7.5 3.357 7.5 7.5s-3.358 7.5-7.5 7.5h-18.652c-4.136 0-7.5 3.364-7.5 7.5v398.012c0 4.142-3.358 7.5-7.5 7.5zm337-167.018c-4.142 0-7.5-3.357-7.5-7.5v-76.646c0-18.594 8.607-26.205 16.105-30.758 5.305-3.222 9.365-6.014 11.415-10.438h-20.02c-12.407 0-22.5-10.094-22.5-22.5v-98.152h-7.5c-4.142 0-7.5-3.357-7.5-7.5s3.358-7.5 7.5-7.5h44c12.407 0 22.5 10.094 22.5 22.5v105.652c0 18.547-12.588 26.191-20.108 30.758-4.865 2.954-8.892 6.343-8.892 17.938v76.646c0 4.143-3.358 7.5-7.5 7.5zm-7.5-245.994v98.152c0 4.136 3.364 7.5 7.5 7.5h21.5v-98.152c0-4.136-3.364-7.5-7.5-7.5z"/></g></g></svg>