<svg id="Capa_1" enable-background="new 0 0 511.976 511.976" height="512" viewBox="0 0 511.976 511.976" width="512" xmlns="http://www.w3.org/2000/svg"><g><g><path d="m365.451 422.922h-108.572c-48.671 0-88.127-39.456-88.127-88.127v-42.47h275.697c5.042 0 9.129 4.087 9.129 9.129v33.341c-.001 48.672-39.456 88.127-88.127 88.127z" fill="#daf3f6"/><path d="m444.449 292.326h-22.25c5.042 0 9.129 4.087 9.129 9.129v33.341c0 48.671-39.456 88.127-88.127 88.127h22.25c48.671 0 88.127-39.456 88.127-88.127v-33.341c-.001-5.042-4.088-9.129-9.129-9.129z" fill="#a6e7f0"/><path d="m38.155 204.199v-108.572c0-48.671 39.456-88.127 88.127-88.127h33.341c5.042 0 9.129 4.087 9.129 9.129v275.697h-42.47c-48.671 0-88.127-39.456-88.127-88.127z" fill="#daf3f6"/><path d="m159.623 7.5h-22.25c5.042 0 9.129 4.087 9.129 9.129v275.697h22.25v-275.697c0-5.042-4.087-9.129-9.129-9.129z" fill="#a6e7f0"/><path d="m201.212 292.326h219.905c0-21.73-17.615-39.345-39.345-39.345h-141.215c-21.73-.001-39.345 17.615-39.345 39.345z" fill="#fe5694"/><path d="m381.772 252.98h-22.25c21.73 0 39.345 17.615 39.345 39.345h22.25c0-21.729-17.615-39.345-39.345-39.345z" fill="#fd3581"/><path d="m337.453 189.49-20.9 28.183-20.9-28.183v-13.515c0-2.746 2.226-4.972 4.972-4.972h31.856c2.746 0 4.972 2.226 4.972 4.972z" fill="#a6e7f0"/><path d="m332.481 171.003h-22.25c2.746 0 4.972 2.226 4.972 4.972v13.515l-9.775 13.181 11.125 15.002 20.9-28.183v-13.515c0-2.746-2.226-4.972-4.972-4.972z" fill="#6bd9e7"/><g><path d="m19.127 341.345h124.509l127.298 62.406h122.067l64.525-35.103c9.305-5.062 20.831-3.396 28.321 4.095 9.572 9.572 9.291 25.177-.62 34.398l-62.161 57.833c-5.999 5.582-13.286 9.593-21.211 11.675l-84.566 22.226c-25.171 6.616-51.519 7.406-77.042 2.312l-94.867-18.936h-126.253z" fill="#fed2a4"/><g><path d="m485.848 372.743c-7.413-7.412-18.775-9.111-28.028-4.239 2.088 1.098 4.045 2.505 5.778 4.239 9.572 9.572 9.291 25.177-.62 34.398l-62.161 57.833c-5.999 5.582-13.286 9.593-21.211 11.675l-84.566 22.226c-10.632 2.795-21.475 4.537-32.376 5.248 18.325 1.191 36.771-.556 54.627-5.248l84.566-22.226c7.925-2.083 15.212-6.094 21.211-11.675l62.161-57.833c9.91-9.222 10.192-24.826.619-34.398z" fill="#ffbd86"/></g><path d="m143.637 341.345 43.951-11.17c14.698-3.735 30.035-4.211 44.937-1.394l80.262 15.173h25.527c13.831 0 25.044 11.212 25.044 25.044 0 12.485-9.196 23.064-21.56 24.8l-70.862 9.953h-127.299z" fill="#fed2a4"/><g><path d="m338.314 343.954h-22.25c13.831 0 25.044 11.212 25.044 25.044 0 12.485-9.196 23.064-21.56 24.8l-70.862 9.953h22.25l70.862-9.953c12.364-1.737 21.56-12.315 21.56-24.8-.001-13.832-11.213-25.044-25.044-25.044z" fill="#ffbd86"/><path d="m210.274 328.781 80.262 15.173h22.25l-80.262-15.173c-10.055-1.901-20.308-2.296-30.429-1.209 2.736.295 5.465.696 8.179 1.209z" fill="#fed2a4"/></g></g></g><g><path d="m109.736 474.753h-90.612c-4.142 0-7.5 3.357-7.5 7.5s3.358 7.5 7.5 7.5h90.612c4.142 0 7.5-3.357 7.5-7.5s-3.358-7.5-7.5-7.5z"/><path d="m491.151 367.436c-8.815-8.818-22.129-11.452-33.564-7.033 2.3-8.304 3.493-16.933 3.493-25.611v-33.34c0-9.17-7.46-16.63-16.63-16.63h-16.442c-3.602-22.275-22.96-39.342-46.237-39.342h-23.081c-2.772-15.612-14.026-28.32-28.818-33.176l13.606-18.348c.958-1.293 1.476-2.859 1.476-4.468v-13.515c0-6.877-5.595-12.472-12.472-12.472h-31.856c-6.877 0-12.472 5.595-12.472 12.472v13.515c0 1.609.518 3.175 1.476 4.468l13.606 18.348c-14.792 4.856-26.046 17.564-28.818 33.176h-33.86c-23.276 0-42.634 17.067-46.237 39.342h-18.069v-268.193c0-9.169-7.46-16.629-16.629-16.629h-33.341c-52.729 0-95.627 42.898-95.627 95.627v108.571c0 52.729 42.898 95.627 95.626 95.627h34.969v29.303l-18.551 4.713h-123.575c-4.142 0-7.5 3.357-7.5 7.5s3.358 7.5 7.5 7.5h124.515c.43-.021.97-.027 1.847-.23l43.95-11.165c12.965-3.21 27.336-4 41.698-1.296l80.263 15.172c.459.087.926.131 1.393.131h25.527c9.672 0 17.541 7.869 17.541 17.541.016 7.427-5.757 16.079-15.102 17.381l-122.113 16.753c-4.106.545-6.993 4.315-6.448 8.422.5 3.771 3.722 6.514 7.425 6.514.329 0 .662-.021.996-.066l50.813-6.746h121.574c.9-.081 2.023-.058 3.608-.925l64.501-35.087c6.341-3.448 14.332-2.297 19.432 2.805 3.1 3.1 4.808 7.219 4.808 11.599 0 4.607-1.857 8.872-5.23 12.009l-62.168 57.836c-5.078 4.728-11.3 8.152-18.001 9.906l-84.566 22.228c-23.926 6.293-49.401 7.059-73.669 2.217l-94.869-18.938c-4.062-.816-8.012 1.825-8.823 5.887s1.825 8.012 5.887 8.822l94.87 18.938c11.474 2.289 23.19 3.43 34.914 3.43 15.345-.001 30.699-1.956 45.505-5.85l84.558-22.225c9.085-2.379 17.527-7.025 24.413-13.435l62.166-57.834c6.364-5.919 10.014-14.299 10.014-22.992-.001-8.389-3.269-16.275-9.202-22.207zm-187.998-188.933h26.8v8.509l-13.4 18.07-13.4-18.07zm13.4 46.67c12.734 0 23.489 8.608 26.772 20.308h-53.543c3.282-11.701 14.037-20.308 26.771-20.308zm-75.996 35.307h141.215c14.976 0 27.57 10.391 30.952 24.342h-203.12c3.383-13.95 15.978-24.342 30.953-24.342zm-194.902-56.282v-108.571c0-41.928 32.174-76.469 73.126-80.266v22.582c0 4.143 3.358 7.5 7.5 7.5s7.5-3.357 7.5-7.5v-22.943h25.841c.898 0 1.629.73 1.629 1.629v268.196h-27.47v-211.309c0-4.143-3.358-7.5-7.5-7.5s-7.5 3.357-7.5 7.5v210.948c-40.952-3.797-73.126-38.338-73.126-80.266zm310.438 192.052c7.812-4.735 15.085-16.393 14.764-27.257 0-17.943-14.598-32.541-32.541-32.541h-24.824l-79.558-15.039c-14.504-2.887-32.938-2.501-48.194 1.494l-9.489 2.411v-25.496h268.2c.899 0 1.63.731 1.63 1.63v33.34c0 12.599-2.962 25.071-8.577 36.213l-46.408 25.245z"/><path d="m316.553 130.589c4.142 0 7.5-3.357 7.5-7.5v-15.517c0-4.143-3.358-7.5-7.5-7.5s-7.5 3.357-7.5 7.5v15.517c0 4.142 3.358 7.5 7.5 7.5z"/><path d="m278.464 142.354c1.464 1.464 3.384 2.196 5.303 2.196s3.839-.732 5.303-2.196c2.929-2.93 2.929-7.678 0-10.607l-10.973-10.973c-2.929-2.928-7.678-2.928-10.606 0-2.929 2.93-2.929 7.678 0 10.607z"/><path d="m349.338 144.551c1.919 0 3.839-.732 5.303-2.196l10.973-10.973c2.929-2.93 2.929-7.678 0-10.607-2.929-2.928-7.678-2.928-10.606 0l-10.973 10.973c-2.929 2.93-2.929 7.678 0 10.607 1.465 1.463 3.384 2.196 5.303 2.196z"/></g></g></svg>