<svg id="Capa_1" enable-background="new 0 0 512 512" height="512" viewBox="0 0 512 512" width="512" xmlns="http://www.w3.org/2000/svg"><g><g><g><path d="m383.166 361.637-77.776-29.292-17.427 12.817c-19.012 13.982-44.905 13.983-63.917.003l-17.434-12.82-77.776 29.292c-19.909 7.498-34.359 24.979-37.978 45.943l-12.691 73.517c-2.11 12.225 7.303 23.402 19.709 23.402h316.253c12.406 0 21.819-11.177 19.708-23.402l-12.691-73.517c-3.621-20.964-18.071-38.444-37.98-45.943z" fill="#e5979d"/></g><g><path d="m128.834 361.637c-19.909 7.498-34.359 24.979-37.978 45.943l-12.691 73.517c-1.897 10.991 5.522 21.13 16.055 23.066l14.396-82.291c3.619-20.964 18.069-38.445 37.978-45.943l77.951-30.412c-.166-.119-.336-.232-.501-.353l-17.434-12.82z" fill="#e17f85"/></g><g><circle cx="256.505" cy="46.963" fill="#bac5e2" r="39.463"/></g><g><path d="m233.602 46.963c0-18.954 13.365-34.78 31.183-38.586-2.671-.57-5.439-.877-8.28-.877-21.795 0-39.463 17.668-39.463 39.463s17.668 39.463 39.463 39.463c2.841 0 5.609-.307 8.28-.877-17.818-3.806-31.183-19.632-31.183-38.586z" fill="#a7b4d1"/></g><g><path d="m316.32 368.186-.28-1.44-16.139-36.424c-6.448-2.369-10.733-8.508-10.733-15.377v-52.083h-66.335v52.083c0 6.869-4.285 13.009-10.733 15.377l-17.979 32.073-.938 5.792h123.137z" fill="#f6a96c"/></g><g><path d="m331.118 342.035-25.729-9.69-17.427 12.817c-9.364 6.887-20.398 10.375-31.457 10.478l18.499 23.986c8.744 11.338 26.114 10.478 33.695-1.669z" fill="#e9efff"/></g><g><path d="m222.832 289.092v25.852c0 6.869-4.285 13.009-10.733 15.377l-5.491 2.017-5.288 11.127v11.008l32.755-12.674c6.448-2.369 10.733-8.508 10.733-15.377v-37.331h-21.976z" fill="#ea9b58"/></g><g><path d="m204.312 377.957c7.581 12.147 24.951 13.007 33.695 1.669l18.499-23.986c-11.393.106-22.813-3.381-32.461-10.475l-17.434-12.82-24.911 9.382z" fill="#e9efff"/></g><g><path d="m191.992 358.218 32.554-12.7c-.166-.119-.336-.231-.501-.353l-17.434-12.82-24.911 9.382z" fill="#d3dcfb"/></g><g><path d="m175.844 213.067h-24.636c-13.807 0-25-11.193-25-25v-10.333c0-13.807 11.193-25 25-25h24.636z" fill="#f6a96c"/></g><g><path d="m336.156 152.734h24.636c13.807 0 25 11.193 25 25v10.333c0 13.807-11.193 25-25 25h-24.636z" fill="#f6a96c"/></g><g><path d="m265.753 301.48h-19.506c-45.976 0-83.247-37.271-83.247-83.247v-103.045c0-31.161 25.261-56.422 56.422-56.422h73.156c31.161 0 56.422 25.261 56.422 56.422v103.045c-.001 45.976-37.271 83.247-83.247 83.247z" fill="#fed2a4"/></g><g><path d="m183.56 218.233v-103.045c0-31.161 25.261-56.422 56.422-56.422h-20.56c-31.161 0-56.422 25.261-56.422 56.422v103.045c0 45.976 37.271 83.247 83.247 83.247h19.506c.177 0 .351-.012.527-.013-45.732-.286-82.72-37.435-82.72-83.234z" fill="#ffbd86"/></g><g><path d="m358.999 152.734v-37.546c0-31.161-25.261-56.422-56.422-56.422h-93.156c-31.161 0-56.422 25.261-56.422 56.422v37.546h38.999c18.029 0 35.449-6.523 49.043-18.365l6.007-5.233c4.452-3.878 11.048-3.991 15.63-.267l8.786 7.141c13.311 10.818 29.94 16.724 47.093 16.724z" fill="#e9efff"/></g><g><path d="m227.662 58.766h-18.24c-31.161 0-56.422 25.261-56.422 56.422v37.546h18.24v-37.546c0-31.161 25.261-56.422 56.422-56.422z" fill="#d3dcfb"/></g></g><g><path d="m219.959 179.82h-7.472c-4.143 0-7.5 3.357-7.5 7.5s3.357 7.5 7.5 7.5h7.472c4.143 0 7.5-3.357 7.5-7.5s-3.357-7.5-7.5-7.5z"/><path d="m292.041 194.82h7.471c4.143 0 7.5-3.357 7.5-7.5s-3.357-7.5-7.5-7.5h-7.471c-4.143 0-7.5 3.357-7.5 7.5s3.357 7.5 7.5 7.5z"/><path d="m441.226 479.822-5.704-33.043c-.704-4.083-4.592-6.821-8.666-6.115-4.082.704-6.82 4.585-6.115 8.666l5.704 33.043c.629 3.643-.376 7.353-2.757 10.179-2.381 2.827-5.865 4.448-9.561 4.448h-35.002l-8.427-44.573c-.77-4.07-4.698-6.741-8.763-5.976-4.069.77-6.745 4.692-5.976 8.763l7.9 41.786h-215.718l7.9-41.786c.77-4.07-1.906-7.993-5.976-8.763-4.07-.765-7.993 1.905-8.763 5.976l-8.427 44.573h-35.002c-3.695 0-7.18-1.621-9.561-4.448-2.381-2.826-3.386-6.536-2.757-10.179l12.69-73.517c3.153-18.264 15.887-33.668 33.231-40.2l47.114-17.744 19.358 31.016c4.86 7.787 13.234 12.707 22.402 13.161.464.023.926.034 1.388.034 8.664 0 16.884-4.016 22.205-10.917l12.561-16.286 12.561 16.286c5.322 6.901 13.541 10.917 22.205 10.917.461 0 .925-.011 1.388-.034 9.168-.454 17.542-5.374 22.402-13.161l19.166-30.708 46.296 17.437c17.346 6.532 30.078 21.937 33.23 40.201l2.199 12.738c.704 4.082 4.598 6.818 8.666 6.115 4.082-.704 6.82-4.585 6.115-8.666l-2.199-12.739c-4.053-23.482-20.424-43.288-42.725-51.687l-83.322-31.337c-3.48-1.278-5.819-4.63-5.819-8.338v-11.391c34.168-12.419 58.832-44.809 59.801-82.986h4.322c17.921 0 32.5-14.579 32.5-32.5v-10.333c0-15.973-11.585-29.281-26.792-31.988v-30.559c0-35.017-28.305-63.533-63.235-63.905.132-1.432.203-2.873.203-4.32.002-25.895-21.066-46.962-46.961-46.962-19.481 0-37.161 12.254-43.992 30.493-1.453 3.879.514 8.201 4.393 9.654 3.878 1.456 8.201-.515 9.654-4.393 4.649-12.413 16.683-20.754 29.945-20.754 17.624 0 31.963 14.339 31.963 31.963 0 1.448-.108 2.883-.303 4.303h-78.743c-35.247 0-63.922 28.675-63.922 63.922v30.559c-15.207 2.707-26.792 16.015-26.792 31.988v10.333c0 17.921 14.579 32.5 32.5 32.5h4.322c.969 38.177 25.634 70.568 59.802 82.987v11.39c0 3.708-2.339 7.06-5.819 8.338l-83.322 31.337c-22.301 8.398-38.672 28.203-42.726 51.687l-12.69 73.517c-1.383 8.012.827 16.173 6.064 22.393 5.237 6.217 12.904 9.783 21.034 9.783h316.254c8.13 0 15.797-3.566 21.034-9.785 5.237-6.22 7.447-14.381 6.065-22.393zm-209.159-104.776c-2.646 3.43-6.655 5.269-10.974 5.062-4.328-.215-8.126-2.445-10.42-6.121l-17.767-28.466 12.538-4.722 14.156 10.409c6.988 5.139 14.749 8.619 22.785 10.459zm70.269-1.06c-2.294 3.676-6.092 5.906-10.42 6.121-4.333.202-8.327-1.632-10.974-5.062l-10.47-13.576c7.732-1.888 15.192-5.307 21.933-10.266l14.149-10.406 13.356 5.03zm75.955-196.252v10.333c0 9.649-7.851 17.5-17.5 17.5h-4.292v-45.333h2.5 1.792c9.649 0 17.5 7.851 17.5 17.5zm-217.791-62.546c0-26.976 21.946-48.922 48.922-48.922h93.156c26.975 0 48.921 21.946 48.921 48.922v30.047h-32.942c-15.381 0-30.426-5.343-42.362-15.045l-8.785-7.141c-3.624-2.945-8.009-4.41-12.388-4.41-4.603 0-9.199 1.619-12.898 4.842l-6.009 5.233c-12.229 10.653-27.896 16.521-44.115 16.521h-31.5zm-26.792 72.879v-10.333c0-9.649 7.851-17.5 17.5-17.5h1.792 2.5v45.333h-4.292c-9.649 0-17.5-7.85-17.5-17.5zm36.792 30.165v-57.998h21.499c19.841 0 39.008-7.178 53.969-20.21l6.008-5.233c1.707-1.487 4.217-1.529 5.973-.102l8.785 7.141c14.603 11.868 33.007 18.404 51.823 18.404h22.942v57.998c0 41.767-33.979 75.747-75.746 75.747h-19.506c-41.768 0-75.747-33.98-75.747-75.747zm75.747 90.747h19.506c5.428 0 10.746-.481 15.915-1.399v7.364c0 7.439 3.503 14.34 9.168 18.794l-7.317 5.382c-16.458 12.104-38.572 12.104-55.03.003l-7.323-5.385c5.664-4.454 9.167-11.355 9.167-18.794v-7.364c5.168.919 10.486 1.399 15.914 1.399z"/><path d="m283.492 252.02c.001-.001.002-.002.003-.002 3.053-2.396 3.793-6.774 1.604-10.057-2.298-3.447-6.954-4.378-10.4-2.08-.179.119-.354.247-.523.383-10.698 8.397-25.613 8.406-36.315.028-3.144-2.546-7.758-2.139-10.407.954-2.695 3.145-2.324 7.886.82 10.581.079.067.159.134.241.198 8.091 6.37 17.785 9.556 27.482 9.555 9.699 0 19.4-3.186 27.495-9.56z"/><path d="m264.005 410.654c0-4.143-3.357-7.5-7.5-7.5s-7.5 3.357-7.5 7.5v9.666c0 4.143 3.357 7.5 7.5 7.5s7.5-3.357 7.5-7.5z"/><path d="m256.505 448.874c-4.143 0-7.5 3.357-7.5 7.5v9.666c0 4.143 3.357 7.5 7.5 7.5s7.5-3.357 7.5-7.5v-9.666c0-4.143-3.358-7.5-7.5-7.5z"/></g></g></svg>