<svg id="Capa_1" enable-background="new 0 0 512 512" height="512" viewBox="0 0 512 512" width="512" xmlns="http://www.w3.org/2000/svg"><g><g><path d="m309.285 327.073v63.745c0 27.86 10.597 51.805 31.211 67.429 6.189 4.69 19.057 12.246 19.057 12.246 9.683 3.802 20.227 5.889 31.258 5.889 47.256 0 85.564-38.308 85.564-85.564v-63.745z" fill="#c38c66"/><path d="m359.879 470.61c-31.97-12.39-54.63-43.45-54.63-79.79v-63.75h15v67.31c0 32.05 15.8 60.19 39.63 76.23z" fill="#b57f5f"/><path d="m339.45 327.073v63.745c0 19.549 6.631 35.284 21.936 45.191 5.102 3.302 16.153 8.632 16.153 8.632.295.073.887.35.887.35 3.984.91 8.13 1.391 12.385 1.391 30.639 0 55.564-24.926 55.564-55.564v-63.745z" fill="#f8f7f7"/><path d="m378.449 444.997c-24.72-5.62-43.2-27.777-43.2-54.177v-63.75h15v67.06c0 21.78 11.37 40.817 28.2 50.867z" fill="#e8e8e8"/><circle cx="390.812" cy="389" fill="#e8e8e8" r="22.5"/><path d="m295.411 252.511.443-117.437c0-25.033 6.113-47.392 21.413-64.844 3.775-4.306 11.149-12.664 11.149-12.664 17.017-13.729 38.663-21.948 62.23-21.948h.005c54.776 0 99.18 44.404 99.18 99.18v103.512l-7.481 15.069z" fill="#c38c66"/><path d="m489.829 238.31v16.653l-104.141 8.257-94.219-7.541v-120.879c0-31.21 14.41-59.05 36.95-77.23-13.73 17.01-21.95 38.66-21.95 62.23v107.75c0 5.51 4.45 9.98 9.95 10z" fill="#b57f5f"/><path d="m493.602 330.468-204.643-.426c-5.523 0-10-4.477-10-10l-.979-54.66c0-5.523 4.477-10 10-10l3.488-2.004h203.033c5.523 0 10 4.477 10 10v52.341l-.9 4.748c.001 5.524-4.476 10.001-9.999 10.001z" fill="#f8f7f7"/><path d="m504.502 315.72v6c0 5.523-4.477 10-10 10h-207.71c-5.523 0-10-4.477-10-10v-58.34c0-5.523 4.477-10 10-10h4.677v49.34c0 7.18 5.82 13 13 13z" fill="#e8e8e8"/><path d="m39.826 327.073v63.745c0 27.86 10.597 51.805 31.211 67.429 6.189 4.69 19.057 12.246 19.057 12.246 9.683 3.802 20.227 5.889 31.258 5.889 47.256 0 85.564-38.308 85.564-85.564v-63.745z" fill="#c38c66"/><path d="m90.42 470.61c-31.97-12.39-54.63-43.45-54.63-79.79v-63.75h15v67.31c0 32.05 15.8 60.19 39.63 76.23z" fill="#b57f5f"/><path d="m69.991 327.073v63.745c0 19.549 6.631 35.284 21.936 45.191 5.102 3.302 16.153 8.632 16.153 8.632.295.073.887.35.887.35 3.984.91 8.13 1.391 12.385 1.391 30.639 0 55.564-24.926 55.564-55.564v-63.745z" fill="#f8f7f7"/><path d="m108.99 444.997c-24.72-5.62-43.2-27.777-43.2-54.177v-63.75h15v67.06c0 21.78 11.37 40.817 28.2 50.867z" fill="#e8e8e8"/><circle cx="121.353" cy="389" fill="#e8e8e8" r="22.5"/><path d="m25.952 252.511.443-117.437c0-25.033 6.113-47.392 21.413-64.844 3.775-4.306 11.149-12.664 11.149-12.664 17.017-13.729 38.663-21.948 62.23-21.948h.005c54.776 0 99.18 44.404 99.18 99.18v103.512l-7.481 15.069z" fill="#c38c66"/><path d="m220.37 238.31v16.653l-104.141 8.257-94.219-7.541v-120.879c0-31.21 14.41-59.05 36.95-77.23-13.73 17.01-21.95 38.66-21.95 62.23v107.75c0 5.51 4.45 9.98 9.95 10z" fill="#b57f5f"/><path d="m224.143 330.468-204.643-.426c-5.523 0-10-4.477-10-10l-.979-54.66c0-5.523 4.477-10 10-10l3.488-2.004h203.033c5.523 0 10 4.477 10 10v52.341l-.9 4.748c.001 5.524-4.476 10.001-9.999 10.001z" fill="#f8f7f7"/><path d="m235.043 315.72v6c0 5.523-4.477 10-10 10h-207.71c-5.523 0-10-4.477-10-10v-58.34c0-5.523 4.477-10 10-10h4.677v49.34c0 7.18 5.82 13 13 13z" fill="#e8e8e8"/></g><g><path d="m497.33 246.129v-111.332c0-58.823-47.856-106.68-106.685-106.68-58.824 0-106.681 47.856-106.681 106.68v111.332c-8.305 1.36-14.67 8.566-14.67 17.25v58.339c0 9.649 7.851 17.5 17.5 17.5h10.788v51.601c0 16.354 4.305 32.443 12.449 46.527 2.219 2.755 5.252 5.121 10.247 2.737 3.585-2.073 4.812-6.661 2.737-10.247-6.825-11.804-10.434-25.296-10.434-39.018v-51.601h15v51.601c0 34.773 28.291 63.064 63.064 63.064s63.064-28.291 63.064-63.064v-51.601h15v51.601c0 43.045-35.02 78.064-78.064 78.064-16.354 0-32.011-5.001-45.274-14.462-3.373-2.405-8.057-1.62-10.462 1.751-2.405 3.373-1.621 8.057 1.751 10.462 15.822 11.284 34.489 17.249 53.985 17.249 51.315 0 93.064-41.749 93.064-93.064v-51.601h10.791c9.649 0 17.5-7.851 17.5-17.5v-58.339c0-8.683-6.365-15.889-14.67-17.249zm-58.618 144.689c0 26.503-21.562 48.064-48.064 48.064s-48.064-21.562-48.064-48.064v-51.601h96.129v51.601zm58.288-69.1c0 1.379-1.121 2.5-2.5 2.5h-207.705c-1.379 0-2.5-1.121-2.5-2.5v-58.339c0-1.379 1.121-2.5 2.5-2.5h127.418c4.143 0 7.5-3.357 7.5-7.5s-3.357-7.5-7.5-7.5h-115.248v-111.082c0-50.553 41.128-91.68 91.686-91.68 50.553 0 91.68 41.127 91.68 91.68v111.082h-33.117c-4.143 0-7.5 3.357-7.5 7.5s3.357 7.5 7.5 7.5h45.286c1.379 0 2.5 1.121 2.5 2.5z"/><path d="m403.785 201.186c-2.93-2.928-7.678-2.928-10.607 0l-2.53 2.53-2.53-2.53c-2.93-2.928-7.678-2.928-10.607 0-2.929 2.93-2.929 7.678 0 10.607l2.53 2.53-2.53 2.53c-2.929 2.93-2.929 7.678 0 10.607 1.465 1.464 3.385 2.196 5.304 2.196s3.839-.732 5.304-2.196l2.53-2.53 2.53 2.53c1.465 1.464 3.385 2.196 5.304 2.196s3.839-.732 5.304-2.196c2.929-2.93 2.929-7.678 0-10.607l-2.53-2.53 2.53-2.53c2.927-2.93 2.927-7.678-.002-10.607z"/><path d="m377.51 181.158c1.465 1.465 3.384 2.197 5.304 2.197 1.919 0 3.839-.732 5.303-2.196l2.531-2.531 2.531 2.531c1.464 1.464 3.384 2.196 5.303 2.196s3.839-.732 5.304-2.197c2.929-2.929 2.929-7.678-.001-10.606l-2.53-2.53 2.53-2.53c2.93-2.929 2.93-7.678.001-10.606s-7.678-2.93-10.606-.001l-2.531 2.531-2.531-2.531c-2.928-2.928-7.677-2.929-10.606.001-2.929 2.929-2.929 7.678.001 10.606l2.53 2.53-2.53 2.53c-2.932 2.928-2.932 7.677-.003 10.606z"/><path d="m403.785 108.223c-2.93-2.928-7.678-2.928-10.607 0l-2.53 2.53-2.53-2.53c-2.93-2.928-7.678-2.928-10.607 0-2.929 2.93-2.929 7.678 0 10.607l2.53 2.53-2.53 2.53c-2.929 2.93-2.929 7.678 0 10.607 1.465 1.464 3.385 2.196 5.304 2.196s3.839-.732 5.304-2.196l2.53-2.53 2.53 2.53c1.465 1.464 3.385 2.196 5.304 2.196s3.839-.732 5.304-2.196c2.929-2.93 2.929-7.678 0-10.607l-2.53-2.53 2.53-2.53c2.927-2.93 2.927-7.678-.002-10.607z"/><path d="m379.872 74.867-2.338 2.349c-2.922 2.936-2.911 7.685.024 10.606 1.464 1.457 3.377 2.185 5.291 2.185 1.925 0 3.851-.737 5.315-2.209l2.313-2.324 2.335 2.335c1.465 1.465 3.384 2.197 5.304 2.197 1.919 0 3.839-.732 5.303-2.196 2.93-2.929 2.93-7.678.001-10.606l-2.361-2.361 2.701-2.713c2.922-2.936 2.911-7.685-.024-10.606-2.936-2.923-7.685-2.912-10.606.024l-2.676 2.688-2.301-2.301c-2.929-2.929-7.678-2.93-10.606-.001-2.93 2.929-2.93 7.678-.001 10.606z"/><path d="m390.647 419c16.542 0 30-13.458 30-30s-13.458-30-30-30-30 13.458-30 30 13.458 30 30 30zm0-45c8.271 0 15 6.729 15 15s-6.729 15-15 15-15-6.729-15-15 6.729-15 15-15z"/><path d="m228.035 246.129v-111.332c0-58.823-47.856-106.68-106.685-106.68-23.77 0-46.263 7.648-65.048 22.119-3.281 2.527-3.892 7.237-1.364 10.519 2.526 3.281 7.236 3.893 10.519 1.364 16.137-12.431 35.465-19.002 55.898-19.002 50.553 0 91.68 41.127 91.68 91.68v111.082h-183.365v-111.082c0-16.937 4.652-33.479 13.454-47.839 2.165-3.531 1.056-8.148-2.475-10.313-3.531-2.166-8.149-1.056-10.314 2.476-10.248 16.719-15.665 35.972-15.665 55.676v111.332c-8.305 1.36-14.67 8.566-14.67 17.25v58.339c0 9.649 7.851 17.5 17.5 17.5h10.788v51.601c0 51.316 41.749 93.064 93.064 93.064s93.064-41.748 93.064-93.064v-51.601h10.788c9.649 0 17.5-7.851 17.5-17.5v-58.339c.001-8.684-6.364-15.89-14.669-17.25zm-28.618 144.689c0 43.045-35.02 78.064-78.064 78.064s-78.064-35.02-78.064-78.064v-51.601h15v51.601c0 34.773 28.291 63.064 63.064 63.064s63.064-28.291 63.064-63.064v-51.601h15zm28.288-69.1c0 1.379-1.122 2.5-2.5 2.5h-95.287c-4.142 0-7.5 3.357-7.5 7.5s3.358 7.5 7.5 7.5h39.499v51.601c0 26.503-21.562 48.064-48.064 48.064s-48.064-21.562-48.064-48.064v-51.601h21.63c4.142 0 7.5-3.357 7.5-7.5s-3.358-7.5-7.5-7.5h-77.419c-1.378 0-2.5-1.121-2.5-2.5v-58.339c0-1.379 1.122-2.5 2.5-2.5h207.705c1.378 0 2.5 1.121 2.5 2.5z"/><path d="m108.215 227.461c1.464 1.464 3.384 2.196 5.303 2.196s3.839-.732 5.303-2.196l2.531-2.531 2.531 2.531c1.464 1.464 3.384 2.196 5.303 2.196s3.839-.732 5.303-2.196c2.929-2.93 2.929-7.678 0-10.607l-2.53-2.53 2.53-2.53c2.929-2.93 2.929-7.678 0-10.607-2.929-2.928-7.678-2.928-10.606 0l-2.531 2.531-2.531-2.531c-2.929-2.928-7.678-2.928-10.606 0-2.929 2.93-2.929 7.678 0 10.607l2.53 2.53-2.53 2.53c-2.929 2.929-2.929 7.677 0 10.607z"/><path d="m134.49 154.886c-2.93-2.93-7.678-2.929-10.607-.001l-2.531 2.531-2.531-2.531c-2.929-2.928-7.677-2.929-10.607.001-2.929 2.929-2.928 7.678 0 10.606l2.53 2.53-2.53 2.53c-2.929 2.929-2.929 7.678 0 10.606 1.465 1.465 3.384 2.197 5.304 2.197s3.839-.732 5.303-2.196l2.531-2.531 2.531 2.531c1.464 1.464 3.384 2.196 5.303 2.196s3.839-.732 5.304-2.197c2.929-2.929 2.928-7.678 0-10.606l-2.53-2.53 2.53-2.53c2.928-2.929 2.929-7.678 0-10.606z"/><path d="m108.215 134.498c1.464 1.464 3.384 2.196 5.303 2.196s3.839-.732 5.303-2.196l2.531-2.531 2.531 2.531c1.464 1.464 3.384 2.196 5.303 2.196s3.839-.732 5.303-2.196c2.929-2.93 2.929-7.678 0-10.607l-2.53-2.53 2.53-2.53c2.929-2.93 2.929-7.678 0-10.607-2.929-2.928-7.678-2.928-10.606 0l-2.531 2.531-2.531-2.531c-2.929-2.928-7.678-2.928-10.606 0-2.929 2.93-2.929 7.678 0 10.607l2.53 2.53-2.53 2.53c-2.929 2.929-2.929 7.677 0 10.607z"/><path d="m134.442 61.523c-2.936-2.923-7.685-2.914-10.606.024l-2.677 2.689-2.301-2.301c-2.929-2.93-7.678-2.929-10.606-.001-2.929 2.93-2.929 7.678 0 10.607l2.326 2.325-2.338 2.348c-2.922 2.936-2.911 7.685.024 10.606 1.463 1.457 3.377 2.185 5.291 2.185 1.925 0 3.85-.736 5.315-2.209l2.314-2.324 2.336 2.336c1.464 1.465 3.384 2.197 5.303 2.197s3.839-.732 5.303-2.196c2.929-2.93 2.929-7.678 0-10.606l-2.36-2.361 2.701-2.714c2.922-2.934 2.91-7.683-.025-10.605z"/><path d="m91.353 389c0 16.542 13.458 30 30 30s30-13.458 30-30-13.458-30-30-30-30 13.458-30 30zm45 0c0 8.271-6.729 15-15 15s-15-6.729-15-15 6.729-15 15-15 15 6.729 15 15z"/></g></g></svg>