<svg id="Layer_1" enable-background="new 0 0 512 512" height="512" viewBox="0 0 512 512" width="512" xmlns="http://www.w3.org/2000/svg"><g><path clip-rule="evenodd" d="m414.389 336.47c0 26.143-4.591 49.481-13.645 70.012-9.054 20.532-21.935 37.876-38.513 52.031-16.578 14.028-36.473 24.74-59.683 32.265-23.338 7.524-49.099 11.222-77.537 11.222-14.921 0-29.204-.893-42.594-2.805-13.518-1.913-25.505-4.336-36.218-7.142-10.712-2.933-19.511-5.739-26.398-8.672-6.759-2.933-11.35-5.229-13.39-7.142-2.168-1.913-3.698-3.953-4.718-6.121-1.021-2.296-1.786-4.973-2.423-8.034-.638-3.188-1.02-7.142-1.275-11.86s-.382-10.33-.382-16.833c0-7.014.255-12.88.765-17.727.51-4.846 1.275-8.799 2.423-11.732 1.148-3.061 2.423-5.229 3.953-6.376 1.403-1.275 3.188-1.913 5.229-1.913 2.423 0 6.249 1.403 11.35 4.336 5.101 2.806 11.86 5.994 20.149 9.437 8.417 3.443 18.619 6.631 30.479 9.437 11.988 2.933 26.398 4.336 42.977 4.336 14.538 0 27.673-1.53 39.533-4.464 11.861-3.061 21.807-7.779 30.097-14.41 8.162-6.631 14.538-14.794 19.002-24.868 4.463-9.947 6.759-21.807 6.759-35.835 0-11.86-1.913-22.573-5.612-31.882-3.698-9.31-9.564-17.216-17.599-23.72-7.907-6.504-18.236-11.35-30.989-14.538s-28.184-4.846-46.293-4.846c-14.538 0-27.673.765-39.406 2.296-11.86 1.403-23.083 2.168-33.54 2.168-7.141 0-12.37-1.785-15.431-5.356-3.188-3.698-4.718-10.33-4.718-20.022v-209.784c0-9.947 1.913-17.089 5.739-21.424 3.952-4.336 10.074-6.504 18.49-6.504h229.039c2.168 0 4.336.765 6.376 2.295 1.913 1.403 3.699 3.826 4.974 7.014 1.403 3.316 2.423 7.524 3.061 13.008.638 5.356.893 11.733.893 19.257 0 14.921-1.275 25.76-3.953 32.519-2.551 6.759-6.376 10.075-11.35 10.075h-172.163v103.297c8.672-1.02 17.344-1.658 26.015-1.913 8.545-.255 17.599-.382 27.036-.382 26.271 0 49.481 3.061 69.758 9.182 20.405 6.121 37.493 15.048 51.266 26.908 13.9 11.86 24.358 26.526 31.626 44.125 7.27 17.471 10.841 37.875 10.841 61.085z" fill="#00ccf2" fill-rule="evenodd"/><g><path d="m412.792 271.567c-7.864-19.04-19.43-35.161-34.344-47.886-14.705-12.661-33.182-22.388-54.901-28.903-21.12-6.376-45.562-9.608-72.647-9.608-9.545 0-18.742.13-27.331.386-5.215.154-10.471.445-15.721.87v-82.258h162.162c5.392 0 15.239-2.143 20.677-16.469 3.113-7.907 4.626-19.725 4.626-36.125 0-8.428-.306-14.922-.959-20.411-.729-6.27-1.954-11.394-3.746-15.659-1.934-4.793-4.79-8.678-8.265-11.241-3.738-2.789-8.001-4.263-12.334-4.263h-229.039c-11.265 0-19.973 3.286-25.881 9.767-.037.04-.073.08-.109.121-5.545 6.284-8.24 15.457-8.24 28.041v209.782c0 12.46 2.27 20.896 7.125 26.528 5.032 5.872 12.779 8.85 23.024 8.85 10.479 0 22.159-.753 34.714-2.237.04-.005.08-.01.119-.015 11.248-1.467 24.071-2.211 38.112-2.211 17.04 0 31.799 1.53 43.872 4.549 1.072.267 2.124.548 3.158.842 5.311 1.508 10.843-1.572 12.354-6.885 1.51-5.313-1.573-10.844-6.885-12.354-1.24-.353-2.501-.688-3.78-1.008-13.653-3.414-30.044-5.145-48.718-5.145-14.877 0-28.547.798-40.634 2.37-11.758 1.389-22.629 2.093-32.312 2.093-4.602 0-7.066-.963-7.857-1.886-.234-.272-2.292-2.964-2.292-13.492v-209.781c0-9.883 2.188-13.579 3.187-14.75 1.976-2.109 5.69-3.179 11.043-3.179h228.932c.075.032.254.122.56.352.222.175.943.997 1.613 2.672.024.062.049.122.075.183 1.046 2.474 1.833 5.928 2.34 10.294.553 4.648.822 10.561.822 18.074 0 17.054-1.767 25.093-3.25 28.835-.02.051-.04.102-.059.153-.941 2.494-1.776 3.379-2.03 3.605h-172.126c-5.523 0-10 4.478-10 10v103.297c0 2.855 1.221 5.575 3.354 7.473s4.979 2.791 7.813 2.459c8.343-.98 16.802-1.603 25.146-1.85 8.395-.25 17.391-.377 26.738-.377 25.126 0 47.623 2.945 66.884 8.76 19.03 5.709 35.05 14.089 47.649 24.938 12.692 10.829 22.137 24.023 28.884 40.359 6.684 16.063 10.073 35.323 10.073 57.244 0 24.526-4.305 46.725-12.795 65.977-8.376 18.993-20.44 35.298-35.823 48.433-15.423 13.05-34.368 23.273-56.292 30.381-22.104 7.125-47.159 10.738-74.467 10.738-14.761 0-28.616-.91-41.193-2.707-12.519-1.771-24.306-4.094-35.033-6.9-11.057-3.028-19.023-5.638-25.002-8.185-8.021-3.48-10.062-4.862-10.531-5.263-.073-.068-.148-.137-.224-.203-1.04-.917-1.775-1.833-2.246-2.795-.637-1.465-1.201-3.396-1.707-5.825-.49-2.45-.849-5.864-1.096-10.438-.244-4.509-.368-9.991-.368-16.294 0-6.596.239-12.207.71-16.681.542-5.154 1.272-7.813 1.79-9.134.017-.044.034-.089.051-.133.244-.65.455-1.138.626-1.496 1.027.363 2.818 1.125 5.558 2.701.054.031.109.062.165.092 5.58 3.069 12.689 6.403 21.183 9.932 9.047 3.7 19.801 7.035 31.888 9.895 12.534 3.066 27.793 4.622 45.354 4.622 15.066 0 29.175-1.601 41.935-4.757.032-.008.065-.016.097-.024 13.398-3.457 24.469-8.783 33.904-16.331 9.514-7.729 16.862-17.345 21.82-28.536 5.066-11.29 7.635-24.724 7.635-39.929 0-.642-.005-1.279-.016-1.915-.088-5.522-4.684-9.932-10.158-9.84-5.522.088-9.927 4.636-9.839 10.158.008.53.013 1.063.013 1.597 0 12.363-1.979 23.043-5.902 31.784-3.738 8.438-9.025 15.357-16.105 21.11-7.114 5.69-15.717 9.787-26.301 12.523-11.177 2.76-23.653 4.159-37.082 4.159-15.96 0-29.62-1.362-40.674-4.067-11.153-2.639-20.909-5.653-28.945-8.94-7.733-3.212-14.155-6.214-19.09-8.923-6.682-3.83-11.846-5.615-16.246-5.615-4.414 0-8.419 1.454-11.613 4.21-2.875 2.294-5.08 5.649-6.909 10.507-1.429 3.679-2.392 8.212-3.027 14.257-.552 5.237-.82 11.379-.82 18.774 0 6.662.133 12.508.397 17.373.303 5.616.766 9.836 1.471 13.358.839 4.03 1.816 7.228 3.076 10.06.029.065.059.131.089.195 1.612 3.426 3.983 6.544 7.047 9.27 2.852 2.628 7.258 5.059 16.192 8.936 6.903 2.94 15.698 5.837 27.675 9.116.036.01.071.019.107.028 11.484 3.008 24.051 5.487 37.337 7.367 13.496 1.929 28.303 2.907 44.007 2.907 29.395 0 56.514-3.938 80.621-11.709 24.425-7.918 45.641-19.405 63.092-34.172 17.72-15.131 31.571-33.837 41.169-55.602 9.619-21.812 14.496-46.724 14.496-74.047 0-24.571-3.906-46.415-11.597-64.903z"/><path d="m307.469 298.72c0-5.522-4.477-10-10-10h-.007c-5.523 0-9.996 4.478-9.996 10s4.48 10 10.003 10 10-4.478 10-10z"/></g></g></svg>