<svg id="Capa_1" enable-background="new 0 0 512.002 512.002" height="512" viewBox="0 0 512.002 512.002" width="512" xmlns="http://www.w3.org/2000/svg"><g><g><path d="m349.432 255.552h-76.006v6.474l24.044 50.337h66.776l2.661-5.093v-34.244c0-9.61-7.864-17.474-17.475-17.474z" fill="#9790cc"/><path d="m281.745 279.442 15.725 32.922h66.775l2.662-5.094v-27.828z" fill="#8479c2"/><path d="m191.291 66.439h-17.374l-4.672 4.669v135.335l34.667 8 4.853-4.916v-125.613c0-9.611-7.863-17.475-17.474-17.475z" fill="#9790cc"/><path d="m192.343 66.493c-.35-.021-.697-.053-1.052-.053h-17.374l-4.672 4.669v135.335l23.097 5.33v-145.281z" fill="#8479c2"/><path d="m302.37 320.652 3.25 1.875h50.125l5.25 2.875 30.443 76.151 14.891-2.193 1.736-1.57-32.318-81.651c-2.389-6.036-8.222-10.001-14.714-10.001h-60.604l-3.433 2.389 2.711 13.187z" fill="#dbedff"/><path d="m351.641 341.232 24.194 61.126 3.327 1.002 14.264-2.1-29.252-74.774c-1.465-3.745-5.075-6.209-9.096-6.209h-55.667l3.084 15 3.904 2.51h40.172c2.237 0 4.247 1.366 5.07 3.445z" fill="#b5dcff"/><path d="m131.888 13.405h-15.415l-1.728 1.955v27.833l1.728 1.861h15.415c5.723 0 10.38 4.657 10.38 10.38v146.043l1.478 2.299h28.25l1.922-2.299v-146.043c-.001-23.175-18.856-42.029-42.03-42.029z" fill="#dbedff"/><path d="m158.093 54.677c0-14.054-11.393-25.447-25.447-25.447h-17.9v13.964l1.728 1.861h15.415c5.723 0 10.38 4.657 10.38 10.38v146.043l1.478 2.299h14.347v-149.1z" fill="#b5dcff"/><path d="m444.812 466.923 1.934 1.728h48l9.833-4.125.95-2.574c-2.086-6.302-8.015-10.854-15.016-10.854h-41.821l-1.947.761-5.326 11.076z" fill="#dbedff"/><path d="m506.338 466.923c0-1.739-.291-3.406-.809-4.971l-2.779 1.573c-3.936 2.227-8.382 3.398-12.904 3.398h-50.343l-6.341 13.187.893 2.638h56.458c8.74 0 15.825-7.085 15.825-15.825z" fill="#b5dcff"/><path d="m116.473 13.405h-58.499c-8.74 0-15.825 7.085-15.825 15.825s7.085 15.825 15.825 15.825h58.499z" fill="#9790cc"/><path d="m116.473 29.229h-74.324c0 8.74 7.085 15.825 15.825 15.825h58.499z" fill="#8479c2"/><path d="m171.058 325.217c-8.084 5.02-13.48 13.959-13.48 24.175s5.396 19.155 13.48 24.175c8.609-4.627 14.464-13.716 14.464-24.175s-5.855-19.548-14.464-24.175z" fill="#6e60b8"/><path d="m158.093 349.392c0-10.151 5.519-19.007 13.715-23.751-4.036-2.335-8.717-3.678-13.715-3.678-15.149 0-27.429 12.28-27.429 27.429s12.281 27.429 27.429 27.429c4.998 0 9.679-1.343 13.715-3.678-8.197-4.744-13.715-13.6-13.715-23.751z" fill="#6353b2"/><path d="m412.171 398.755c-19.527 7.397-33.417 26.259-33.417 48.379s13.889 40.981 33.417 48.379c21.163-5.917 36.691-25.328 36.691-48.379s-15.528-42.463-36.691-48.379z" fill="#6e60b8"/><path d="m379.78 447.134c0-22.263 14.486-41.132 34.542-47.727-4.942-1.625-10.216-2.516-15.702-2.516-27.749 0-50.243 22.495-50.243 50.243s22.495 50.243 50.243 50.243c5.485 0 10.76-.891 15.702-2.516-20.057-6.596-34.542-25.464-34.542-47.727z" fill="#6353b2"/><path d="m407.041 429.245c-6.433 3.388-10.835 10.113-10.835 17.889s4.402 14.5 10.835 17.888c6.712-3.166 11.368-9.975 11.368-17.888 0-7.914-4.656-14.723-11.368-17.889z" fill="#dbedff"/><path d="m396.454 447.134c0-7.759 4.476-14.457 10.978-17.7-2.656-1.325-5.642-2.09-8.813-2.09-10.93 0-19.79 8.86-19.79 19.79s8.86 19.79 19.79 19.79c3.17 0 6.156-.764 8.813-2.09-6.501-3.244-10.978-9.941-10.978-17.7z" fill="#b5dcff"/><path d="m158.092 200.635c-.909 0-1.813.018-2.718.034-73.211 9.929-129.828 72.832-129.828 148.722s56.616 138.793 129.828 148.722c.905.016 1.81.034 2.718.034 82.025 0 148.757-66.732 148.757-148.757s-66.732-148.755-148.757-148.755zm0 265.864c-64.573 0-117.107-52.534-117.107-117.108 0-64.573 52.534-117.107 117.107-117.107 64.574 0 117.108 52.534 117.108 117.107.001 64.574-52.534 117.108-117.108 117.108z" fill="#ff76aa"/><g><path d="m26.812 349.392c0-79.091 62.046-143.953 140.019-148.493-2.893-.168-5.804-.263-8.738-.263-82.024 0-148.756 66.732-148.756 148.756s66.732 148.757 148.756 148.757c2.934 0 5.846-.095 8.738-.263-77.973-4.541-140.019-69.404-140.019-148.494z" fill="#ff5595"/></g></g><g><path d="m0 349.616c0 86.161 70.096 156.257 156.256 156.257 86.161 0 156.258-70.097 156.258-156.257 0-1.372-.019-2.74-.054-4.104h30.883l21.328 53.882c-15.445 10.375-25.631 28.001-25.631 47.964 0 31.84 25.903 57.743 57.743 57.743 14.711 0 28.148-5.538 38.355-14.629h53.538c12.861 0 23.325-10.463 23.325-23.325 0-12.861-10.464-23.324-23.325-23.324h-34.269c-1.524-25.098-19.146-45.912-42.654-52.229l-10.04-25.366c-1.524-3.852-5.886-5.736-9.733-4.213-3.852 1.524-5.738 5.882-4.214 9.734l7.084 17.897c-5.546.179-11.295 1.196-16.7 3.046l-22.736-57.441c-1.133-2.861-3.896-4.74-6.974-4.74h-37.093c-.686-5.541-1.643-11.015-2.967-16.649h50.815c3.234 0 6.426 1.939 7.74 5.261l7.934 20.042c1.524 3.852 5.881 5.735 9.734 4.213 3.852-1.525 5.737-5.883 4.213-9.734l-7.934-20.041c-1.732-4.377-4.656-7.99-8.313-10.547v-29.805c0-13.771-11.203-24.974-24.974-24.974h-5.62v-49.715c0-27.031-21.991-49.021-49.021-49.021h-78.526v-19.953c0-4.142-3.357-7.5-7.5-7.5s-7.5 3.358-7.5 7.5v19.953h-19.848v-75.377h9.874c5.499 0 9.974 4.474 9.974 9.974v10.45c0 4.142 3.357 7.5 7.5 7.5s7.5-3.358 7.5-7.5v-10.45c0-13.771-11.203-24.974-24.974-24.974h-9.874v-3.505c0-27.311-22.219-49.53-49.529-49.53-13.795 0-54.468 0-73.914 0-12.861 0-23.324 10.463-23.324 23.325s10.463 23.325 23.324 23.325h73.914c1.588 0 2.88 1.292 2.88 2.88v139.443c-75.136 11.293-132.931 76.279-132.931 154.514zm497.002 117.531c0 4.59-3.734 8.325-8.325 8.325h-41.462c2.775-4.977 4.981-10.802 6.165-16.649h35.297c4.591 0 8.325 3.735 8.325 8.324zm-57.476-19.789c0 23.437-19.04 42.743-42.743 42.743-23.568 0-42.743-19.174-42.743-42.743 0-23.742 19.381-42.743 42.743-42.743 23.335 0 42.743 18.974 42.743 42.743zm-283.27 43.515c-77.889 0-141.256-63.368-141.256-141.257 0-72.81 55.375-132.925 126.22-140.455h.004c83.139-8.834 156.289 56.234 156.289 140.456.001 77.888-63.367 141.256-141.257 141.256zm130.184-227.596h40.536v35.585h-22.93c-4.438-12.889-10.548-24.998-17.606-35.585zm61.157 0c5.499 0 9.974 4.475 9.974 9.974v25.611h-15.594v-35.585zm-54.642-98.737c18.76 0 34.021 15.262 34.021 34.021v49.715h-51.883c-16.28-19.062-37.052-34.173-60.665-43.679v-40.057zm-93.526 0v34.89c-6.359-1.831-13.262-3.338-19.848-4.328v-30.562zm-143.291-126.762c-4.59 0-8.324-3.734-8.324-8.325s3.734-8.325 8.324-8.325h50.999v16.649h-50.999zm73.914 0h-7.915v-16.649h7.915c19.039 0 34.529 15.49 34.529 34.53v137.923c-5.622-.297-11.026-.297-16.649 0v-137.923c0-9.86-8.021-17.881-17.88-17.881z"/><path d="m156.256 225.009c-68.708 0-124.606 55.898-124.606 124.607s55.898 124.608 124.606 124.608c68.709 0 124.608-55.899 124.608-124.608s-55.899-124.607-124.608-124.607zm98.437 172.779-65.144-37.611c.318-1.001.588-2.023.817-3.062h75.236c-.985 14.508-4.804 28.249-10.909 40.673zm-207.782-40.672h75.235c.228 1.038.499 2.06.817 3.062l-65.143 37.61c-6.105-12.424-9.924-26.165-10.909-40.672zm10.909-55.672 65.143 37.611c-.318 1.001-.589 2.024-.817 3.062h-75.235c.985-14.508 4.804-28.248 10.909-40.673zm98.437 68.101c-10.989 0-19.93-8.94-19.93-19.929s8.94-19.929 19.93-19.929c10.988 0 19.929 8.94 19.929 19.929s-8.941 19.929-19.929 19.929zm7.5-54.038v-75.236c14.507.985 28.248 4.804 40.672 10.909l-37.611 65.144c-1.001-.319-2.023-.589-3.061-.817zm-15-.001c-1.038.228-2.06.498-3.062.817l-37.611-65.144c12.425-6.105 26.165-9.924 40.672-10.909v75.236zm0 68.22v75.236c-14.507-.985-28.248-4.804-40.672-10.909l37.61-65.144c1.001.319 2.024.589 3.062.817zm15 0c1.038-.228 2.06-.498 3.062-.817l37.611 65.143c-12.425 6.105-26.165 9.924-40.672 10.909v-75.235zm26.609-41.61c-.228-1.038-.498-2.06-.817-3.062l65.144-37.611c6.105 12.425 9.924 26.165 10.909 40.672h-75.236zm56.811-53.653-65.143 37.61c-.711-.778-1.457-1.523-2.235-2.235l37.61-65.142c11.73 7.915 21.853 18.038 29.768 29.767zm-152.073-29.767 37.61 65.142c-.778.711-1.524 1.457-2.235 2.235l-65.142-37.61c7.914-11.73 18.037-21.852 29.767-29.767zm-29.767 152.073 65.142-37.609c.711.778 1.457 1.523 2.235 2.235l-37.61 65.142c-11.73-7.915-21.853-18.038-29.767-29.768zm152.073 29.767-37.61-65.142c.778-.711 1.523-1.457 2.235-2.235l65.142 37.61c-7.915 11.73-18.038 21.852-29.767 29.767z"/><path d="m396.783 420.068c-15.048 0-27.29 12.242-27.29 27.29s12.242 27.29 27.29 27.29 27.29-12.242 27.29-27.29-12.242-27.29-27.29-27.29zm0 39.58c-6.776 0-12.29-5.513-12.29-12.29s5.514-12.29 12.29-12.29 12.29 5.513 12.29 12.29-5.513 12.29-12.29 12.29z"/></g></g></svg>