<svg id="Capa_1" enable-background="new 0 0 512.002 512.002" height="512" viewBox="0 0 512.002 512.002" width="512" xmlns="http://www.w3.org/2000/svg"><g><g><path d="m176.596 353.188c-3.833 3.992-9.711 8.08-18.76 11.167v60h196.338v-30z" fill="#b46e5a"/><path d="m270.999 394.354h83.176v-30c-25.519-8.706-25.911-25.381-25.911-25.381h-144.516s-.174 6.947-7.152 14.214c3.186 2.711 6.695 5.357 10.568 7.964 33.982 22.878 53.949 33.203 83.835 33.203z" fill="#915041"/><path d="m133.623 172.88c0-11.206-11.825-18.469-21.82-13.402s-16.913 17.694-16.913 51.72 14.509 63.68 41.919 63.68h238.38c27.41 0 41.919-29.654 41.919-63.68s-6.918-46.652-16.913-51.72c-9.995-5.067-21.82 2.196-21.82 13.402z" fill="#915041"/><path d="m370.375 250.201c0-11.971 0-121.983 0-135.038 0-34.191-14.393-64.05-34.354-84.011-21.455-15.33-49.427-23.652-80.022-23.652-67.587 0-122.376 40.608-122.376 107.662v135.038c0 38.428 8.601 60.794 38.542 80.951 33.981 22.877 53.948 33.202 83.834 33.202 22.977-2.616 41.853-10.325 75.834-33.202 29.941-20.156 38.542-42.522 38.542-80.95z" fill="#b46e5a"/><path d="m336.021 31.151c17.1 21.331 27.354 49.82 27.354 84.011v135.038c0 38.428-8.601 60.794-38.542 80.951-33.981 22.877-48.731 28.85-68.834 33.202 29.306 0 53.102-11.807 86.296-35.173 28.823-20.289 36.08-41.452 36.08-78.98 0-11.971 0-135.038 0-135.038 0-36.7-16.413-65.477-42.354-84.011z" fill="#915041"/><path d="m255.999 203.311c-11.837 0-18.481 7.244-34.5 27.792-11.861 15.215 4.82 31.075 18.945 24.583 10.139 4.257 20.971 4.257 31.11 0 14.125 6.492 30.806-9.368 18.945-24.583-16.019-20.548-22.663-27.792-34.5-27.792z" fill="#915041"/><path d="m440.693 413.561c-17.424-17.7-35.487-31.768-49.593-41.627-.033.034-50.913 37.42-135.099 37.42s-135.066-37.385-135.099-37.42c-30.577 21.371-79.764 62.525-100.637 117.566l467.347 7c-7.793-28.96-28.441-62.283-46.919-82.939z" fill="#bae6ef"/><path d="m496.612 504.5c-9.705-36.064-32.215-66.859-55.919-90.939 14.483 20.3 27.677 44.322 35.65 71.433.661 2.248-1.016 4.506-3.359 4.506h-452.719c-1.856 4.894-3.5 9.891-4.875 15z" fill="#94d8e6"/><path d="m256.001 394.354c-67.987 0-109.069-38.907-109.069-38.907s-10.666 5.749-26.03 16.487c.033.034 50.913 52.42 135.099 52.42s135.066-52.385 135.099-52.42c-15.364-10.738-26.03-16.487-26.03-16.487s-41.082 38.907-109.069 38.907z" fill="#eef9fa"/></g><g><path d="m15.395 512.002c-.646 0-1.301-.084-1.954-.26-4-1.076-6.37-5.191-5.293-9.191 6.591-24.494 19.424-48.776 38.14-72.17 2.587-3.235 7.308-3.758 10.542-1.171 3.234 2.588 3.758 7.308 1.171 10.542-17.417 21.77-29.316 44.21-35.368 66.697-.901 3.347-3.93 5.553-7.238 5.553zm481.212 0c-3.309 0-6.337-2.206-7.237-5.553-1.769-6.572-4.064-13.224-6.825-19.77-1.609-3.817.181-8.216 3.997-9.825 3.815-1.605 8.217.181 9.825 3.997 3.023 7.172 5.543 14.473 7.487 21.699 1.076 4-1.293 8.115-5.293 9.191-.653.177-1.308.261-1.954.261zm-21.265-47.714c-2.497 0-4.938-1.246-6.362-3.519-21.932-34.999-53.904-62.243-77.273-79.162-10.319 9.058-37.964 30.616-78.782 42.283-3.985 1.14-8.134-1.167-9.272-5.149-1.139-3.983 1.167-8.135 5.149-9.272 34.776-9.94 59.075-27.451 70.162-36.689-5.494-3.636-9.984-6.388-13.033-8.193-12.542 10.125-51.606 37.269-109.929 37.269-58.322 0-97.386-27.144-109.928-37.269-3.054 1.808-7.552 4.562-13.053 8.199 16.354 13.707 59.73 44.069 122.981 44.069 8.19 0 16.433-.524 24.496-1.558 4.099-.525 7.865 2.377 8.393 6.486.526 4.108-2.378 7.866-6.486 8.393-8.693 1.114-17.577 1.679-26.402 1.679-72.255 0-120.681-36.984-135.722-50.251-12.569 9.09-27.61 21.152-42.191 35.766-2.926 2.932-7.675 2.938-10.606.012-2.932-2.926-2.938-7.675-.012-10.607 36.341-36.422 74.307-57.068 75.905-57.929 2.851-1.537 6.363-1.069 8.714 1.157.094.088 2.572 2.375 7.215 5.771 10.331-4.388 14.375-10.049 15.954-13.665-3.224-2.161-6.508-4.426-9.873-6.795-22.508-15.843-32.607-32.854-36.733-53.709-24.861-4.873-41.262-32.466-41.262-70.406 0-33.471 6.287-50.938 21.021-58.409 5.606-2.843 11.959-3.208 17.711-1.15v-36.477c0-33.035 12.424-61.558 35.929-82.483 3.094-2.754 7.834-2.479 10.589.614 2.754 3.094 2.479 7.835-.614 10.589-20.218 17.999-30.904 42.647-30.904 71.28v135.037c0 37.617 7.994 55.318 32.897 72.848 40.167 28.274 60.475 33.807 81.979 33.807 27.749 0 46.206-9.411 79.646-31.924 26.341-17.732 35.23-36.59 35.23-74.73v-135.039c0-29.751-11.465-55.071-33.156-73.225-20.757-17.371-49.78-26.937-81.721-26.937-22.264 0-43.41 4.684-61.15 13.546-3.708 1.849-8.21.347-10.061-3.358-1.851-3.706-.348-8.21 3.358-10.062 19.811-9.896 43.274-15.126 67.853-15.126 35.455 0 67.896 10.809 91.347 30.434 25.206 21.096 38.529 50.394 38.529 84.729v36.477c5.751-2.057 12.105-1.693 17.712 1.15 14.734 7.471 21.021 24.938 21.021 58.409 0 38.012-16.462 65.636-41.401 70.434-1.414 6.995-3.413 13.227-6.052 19.01-6.481 14.205-17.011 25.878-33.134 36.732-2.481 1.671-4.895 3.277-7.244 4.819 1.605 3.623 5.672 9.237 15.947 13.593 4.626-3.4 7.093-5.693 7.188-5.784 2.351-2.227 5.865-2.693 8.714-1.157 2.954 1.591 72.802 39.709 113.063 103.96 2.199 3.51 1.137 8.139-2.373 10.338-1.237.774-2.614 1.144-3.974 1.144zm-301.584-99.203c17.904 10.182 46.201 21.77 82.243 21.77 36.176 0 64.433-11.564 82.288-21.737-7.465-4.763-11.751-10.219-14.211-14.872-24.439 14.84-42.959 21.609-68.079 21.609-24.612 0-45.176-7.745-68.069-21.63-2.453 4.647-6.728 10.098-14.172 14.86zm212.117-192.205v77.32c0 5.439-.169 10.493-.519 15.222 16.687-6.903 24.252-30.985 24.252-54.224 0-34.544-7.308-42.243-12.805-45.03-3.384-1.717-6.263-.363-7.342.3-1.077.662-3.586 2.613-3.586 6.412zm-267.298-7.548c-1.022 0-2.17.221-3.383.836-5.497 2.787-12.805 10.486-12.805 45.03 0 23.214 7.551 47.27 24.201 54.202-.332-4.855-.468-9.914-.468-15.2v-77.32c0-3.799-2.508-5.75-3.587-6.412-.692-.426-2.124-1.136-3.958-1.136zm203.114 149.295c-4.143 0-7.5-3.357-7.5-7.5v-9.305c-11.396 6.671-30.427 14.219-58.185 14.219-18.809 0-35.732-3.392-50.3-10.081-2.954-1.356-5.583-2.749-7.9-4.107v9.274c0 4.143-3.358 7.5-7.5 7.5s-7.5-3.357-7.5-7.5v-34.925c-1.025.058-2.071.087-3.141.087-4.142 0-7.5-3.357-7.5-7.5s3.358-7.5 7.5-7.5c20.058 0 28.671-14.789 30.554-18.593.603-4.203 2.394-8.394 5.365-12.204 16.153-20.721 24.619-30.682 40.415-30.682s24.262 9.961 40.415 30.682c2.971 3.811 4.762 8.002 5.364 12.205 1.888 3.81 10.508 18.592 30.555 18.592 4.143 0 7.5 3.357 7.5 7.5s-3.357 7.5-7.5 7.5c-1.069 0-2.116-.029-3.142-.088v34.926c0 4.143-3.357 7.5-7.5 7.5zm-123.885-34.985c6 4.946 24.458 17.399 58.2 17.399 16.632 0 31.45-2.932 44.041-8.713 6.973-3.202 11.598-6.541 14.145-8.659v-10.641c-7.877-3.049-13.747-7.805-17.939-12.368-6.233 6.98-15.838 9.661-24.646 7.04-10.268 3.605-20.947 3.605-31.213 0-8.811 2.622-18.411-.059-24.645-7.038-4.191 4.564-10.062 9.319-17.941 12.368v10.612zm42.638-31.455c.987 0 1.974.194 2.903.585 8.277 3.475 17.026 3.475 25.303 0 1.937-.815 4.126-.777 6.035.101 4.164 1.914 8.558.123 10.742-2.636 2.392-3.02 2.092-6.757-.844-10.521-16.329-20.947-20.871-24.904-28.585-24.904s-12.255 3.957-28.584 24.904c-2.936 3.766-3.235 7.502-.845 10.521 2.185 2.759 6.576 4.548 10.742 2.636.994-.458 2.063-.686 3.133-.686zm72.242-54.647h-16.756c-4.143 0-7.5-3.357-7.5-7.5s3.357-7.5 7.5-7.5h16.757c4.143 0 7.5 3.357 7.5 7.5s-3.358 7.5-7.501 7.5zm-96.617 0h-16.757c-4.142 0-7.5-3.357-7.5-7.5s3.358-7.5 7.5-7.5h16.757c4.142 0 7.5 3.357 7.5 7.5s-3.358 7.5-7.5 7.5zm127.991-30.113h-49.611c-13.392 0-24.287-10.896-24.287-24.287 0-4.143 3.357-7.5 7.5-7.5s7.5 3.357 7.5 7.5c0 5.121 4.166 9.287 9.287 9.287h49.611c4.143 0 7.5 3.357 7.5 7.5s-3.357 7.5-7.5 7.5zm-126.511 0h-49.611c-4.142 0-7.5-3.357-7.5-7.5s3.358-7.5 7.5-7.5h49.611c5.121 0 9.287-4.166 9.287-9.287 0-4.143 3.358-7.5 7.5-7.5s7.5 3.357 7.5 7.5c0 13.391-10.895 24.287-24.287 24.287z"/></g></g></svg>