<svg id="Capa_1" enable-background="new 0 0 512.004 512.004" height="512" viewBox="0 0 512.004 512.004" width="512" xmlns="http://www.w3.org/2000/svg"><g><g><g><g><path d="m387.488 272.47c-1.971 0-3.91-.8-5.301-2.2-.35-.34-.659-.729-.93-1.14-.27-.4-.51-.84-.69-1.29-.189-.46-.329-.93-.43-1.41-.1-.479-.149-.97-.149-1.46s.05-.979.149-1.47c.101-.48.24-.95.43-1.4.181-.45.421-.89.69-1.29.271-.42.58-.8.93-1.149 1.74-1.74 4.33-2.54 6.771-2.051.479.101.95.25 1.399.431.45.189.891.42 1.301.689.409.28.79.59 1.14.931.34.35.66.729.93 1.149.271.4.5.84.69 1.29.18.45.33.92.42 1.4.1.49.15.979.15 1.47s-.051.98-.15 1.46c-.09.48-.24.95-.42 1.41-.19.45-.42.89-.69 1.29-.27.41-.59.8-.93 1.14-.35.351-.73.66-1.14.931-.41.279-.851.51-1.301.689-.449.19-.92.34-1.399.43-.49.1-.98.15-1.47.15z"/></g></g><path d="m491.099 96.791h-253.372c-4.356 0-7.887-3.531-7.887-7.887v-70.81c0-4.356 3.531-7.887 7.887-7.887h253.372c4.356 0 7.887 3.531 7.887 7.887v70.81c0 4.356-3.531 7.887-7.887 7.887z" fill="#daf3f6"/><path d="m491.099 10.207h-19.809c4.356 0 7.887 3.531 7.887 7.887v70.81c0 4.356-3.531 7.887-7.887 7.887h19.809c4.356 0 7.887-3.531 7.887-7.887v-70.81c0-4.355-3.531-7.887-7.887-7.887z" fill="#a6e7f0"/><path d="m274.206 96.791-20.676 31.657c-5.749 8.802.567 20.47 11.08 20.47 2.375 0 4.706-.639 6.748-1.85l84.81-50.277z" fill="#daf3f6"/><path d="m336.359 96.791-73.364 43.796c-2.043 1.211-4.374 1.85-6.748 1.85-1.134 0-2.215-.143-3.242-.396 2.183 3.988 6.374 6.878 11.605 6.878 2.375 0 4.706-.639 6.748-1.85l84.81-50.277h-19.809z" fill="#a6e7f0"/><path d="m190.014 501.794h-182.379v-172.905c0-26.991 13.432-52.212 35.829-67.275l23.122-15.551 61.666 12.813 25.411 25.136c23.261 23.009 36.35 54.367 36.35 87.085v130.697z" fill="#f7f9fa"/><g fill="#e9edf1"><path d="m36.656 420.677h67.707v81.117h-67.707z"/><path d="m36.656 420.677v-66.856c0-18.697 15.157-33.853 33.853-33.853 18.697 0 33.853 15.157 33.853 33.853v66.856z"/><path d="m153.663 284.012-25.411-25.136-61.666-12.813-4.675 3.144 46.533 9.669 25.411 25.136c23.261 23.009 36.35 54.367 36.35 87.085v130.697h19.809v-130.697c0-32.718-13.09-64.077-36.351-87.085z"/></g><path d="m186.236 82.971-8.361 98.588c-2.054 24.222-23.355 42.192-47.577 40.138l-55.508-4.707c-39.397-3.341-68.625-37.987-65.284-77.383l6.03-71.112z" fill="#fed2a4"/><path d="m15.536 68.495-.141 1.668 151.032 12.808-8.361 98.588c-1.702 20.07-16.622 35.834-35.464 39.486l7.696.653c24.222 2.054 45.523-15.917 47.577-40.138l8.361-98.588z" fill="#ffbd86"/><path d="m66.586 215.448h61.666v43.428l-61.666-12.813z" fill="#fed2a4"/><path d="m108.443 215.448v39.312l19.809 4.116v-43.428z" fill="#ffbd86"/><path d="m56.465 420.677h67.707v81.117h-67.707z" fill="#fed2a4"/><path d="m104.363 420.677h19.809v81.117h-19.809z" fill="#ffbd86"/><path d="m56.465 420.677v-66.856c0-18.697 15.157-33.853 33.853-33.853 18.697 0 33.853 15.157 33.853 33.853v66.856z" fill="#a2aee6"/><path d="m90.318 319.968c-3.447 0-6.771.519-9.904 1.476 13.864 4.236 23.949 17.127 23.949 32.378v66.856h19.809v-66.856c0-18.697-15.157-33.854-33.854-33.854z" fill="#8795de"/><g><path d="m487.689 501.794h-141.842v-44.083c0-27.091 10.191-53.191 28.549-73.115l13.095-14.212h65.012l11.866 4.85c14.104 5.764 23.32 19.487 23.32 34.723z" fill="#a6e7f0"/><path d="m376.794 472.684h53.498v-37.215c0-14.773-11.976-26.749-26.749-26.749-14.773 0-26.749 11.976-26.749 26.749z" fill="#6bd9e7"/><path d="m464.369 375.234-11.866-4.85h-19.809l11.866 4.85c14.104 5.764 23.32 19.487 23.32 34.723v91.837h19.809v-91.837c0-15.236-9.216-28.958-23.32-34.723z" fill="#6bd9e7"/><path d="m387.487 327.145h65.012v43.24c-15.2 10.572-49.813 10.572-65.012 0z" fill="#fed2a4"/><path d="m432.694 327.145v43.24c-5.566 3.871-13.738 6.319-22.604 7.355 15.345 1.793 32.775-.654 42.409-7.355v-43.24z" fill="#ffbd86"/></g><path d="m345.847 472.685h141.842v29.108h-141.842z" fill="#a2aee6"/><path d="m376.796 472.686h53.498v29.108h-53.498z" fill="#8795de"/><path d="m467.88 472.685h19.809v29.108h-19.809z" fill="#8795de"/><path d="m186.236 82.971 2.653-31.279c1.377-16.235-10.668-30.512-26.903-31.889l-111.907-9.49c-16.236-1.377-30.513 10.668-32.937 39.246l-9.578 112.951c-.841 9.918 6.517 18.64 16.435 19.481l15.556 1.319c6.765.574 13.279-2.704 16.851-8.478l9.012-14.571 27.46-50.215 2.946-34.742 41.451 15.012c10.393 3.764 21.808 3.566 32.065-.555z" fill="#5d5360"/><g fill="#4b3f4e"><path d="m73.068 110.045-27.46 50.215-9.012 14.571c-2.17 3.509-5.431 6.089-9.171 7.45l12.129 1.029c6.765.574 13.279-2.704 16.851-8.478l9.012-14.571 27.46-50.215 2.946-34.742h-19.809z"/><path d="m161.985 19.803-111.907-9.49c-3.308-.281-6.531.006-9.593.866l101.691 8.624c16.235 1.377 28.28 15.654 26.903 31.889l-2.653 31.279-16.897 6.79c-2.238.899-4.534 1.601-6.86 2.126 8.857 2.003 18.161 1.293 26.669-2.126l16.897-6.79 2.653-31.279c1.377-16.235-10.668-30.512-26.903-31.889z"/></g><path d="m88.452 162.214-23.576-1.999c-9.479-.804-16.512-9.14-15.708-18.619l1.513-17.842c.804-9.479 9.14-16.512 18.619-15.708l23.576 1.999z" fill="#fed2a4"/><path d="m363.179 201.151-12.328 84.156c-2.89 19.725 10.758 38.057 30.483 40.947l54.788 8.026c27.706 4.059 53.456-15.111 57.515-42.817l10.211-69.704z" fill="#fed2a4"/><path d="m363.179 201.151-.416 2.841 121.276 17.766-10.211 69.704c-3.204 21.868-19.924 38.407-40.451 42.415l2.744.402c27.706 4.059 53.456-15.111 57.515-42.817l10.211-69.704z" fill="#ffbd86"/><path d="m396.605 472.686h53.498v29.108h-53.498z" fill="#fed2a4"/><path d="m430.294 472.686h19.809v29.108h-19.809z" fill="#ffbd86"/><path d="m66.586 246.063-13.262 8.919 57.844 33.064c6.146 3.513 13.879-.418 14.663-7.453l2.421-21.717z" fill="#a6e7f0"/><path d="m66.586 246.063-4.675 3.144 46.533 9.669-2.421 14.44c-.44 3.948-3.07 6.918-6.378 8.143l11.524 6.587c6.146 3.513 13.879-.418 14.663-7.453l2.421-21.717z" fill="#6bd9e7"/><path d="m396.603 472.684h53.498v-37.215c0-14.773-11.976-26.749-26.749-26.749-14.773 0-26.749 11.976-26.749 26.749z" fill="#a6e7f0"/><path d="m423.352 408.72c-3.5 0-6.84.679-9.904 1.902 9.868 3.937 16.844 13.574 16.844 24.847v37.215h19.809v-37.215c0-14.773-11.976-26.749-26.749-26.749z" fill="#6bd9e7"/><path d="m503.848 221.758c4.869-33.235-18.126-64.123-51.361-68.992l-86.804-12.716c-10.902-1.597-21.035 5.946-22.632 16.848l-4.307 29.4c-1.005 6.858 1.622 13.746 6.938 18.193l37.086 31.029 4.518-30.838 41.011 38.862 10.711 44.964 39.452 5.78c7.983 1.169 15.402-4.354 16.571-12.336z" fill="#5d5360"/><g fill="#4b3f4e"><path d="m452.487 152.766-86.804-12.716c-3.723-.545-7.346-.004-10.58 1.352l77.575 11.364c33.235 4.869 56.23 35.758 51.361 68.992l-8.818 60.193c-.698 4.766-3.632 8.641-7.576 10.752l10.813 1.584c7.983 1.169 15.402-4.354 16.571-12.336l8.818-60.193c4.869-33.234-18.126-64.123-51.36-68.992z"/><path d="m365.121 220.757 17.646 14.764 4.518-30.839h-19.809z"/></g><path d="m439.426 288.569-17.354-2.542 6.224-42.483 17.354 2.542c7.354 1.077 12.443 7.913 11.366 15.267l-2.322 15.85c-1.078 7.355-7.914 12.444-15.268 11.366z" fill="#fed2a4"/><path d="m445.65 246.087-17.354-2.542-.441 3.013c6.24 1.919 10.328 8.137 9.352 14.796l-2.322 15.85c-.624 4.257-3.182 7.744-6.648 9.726l11.189 1.639c7.354 1.077 14.19-4.011 15.267-11.366l2.322-15.85c1.077-7.354-4.011-14.189-11.365-15.266z" fill="#ffbd86"/></g><g><path d="m362.619 92.966c-2.112-3.563-6.713-4.738-10.276-2.626l-84.811 50.279c-.884.524-1.895.802-2.924.802-3.083 0-4.554-2.103-5.043-3.007-.489-.903-1.444-3.282.241-5.862l20.62-31.567s0-.001.001-.001c3.033-4.132.346-11.717-6.22-11.693h-36.48c-.219 0-.39-.172-.39-.391v-70.81c0-.21.175-.38.39-.38h253.37c.216 0 .391.17.391.38v70.81c0 .219-.172.391-.391.391h-99.757c-4.143 0-7.5 3.357-7.5 7.5s3.357 7.5 7.5 7.5h99.758c8.486 0 15.391-6.904 15.391-15.391v-70.81c0-8.48-6.904-15.38-15.391-15.38h-253.37c-8.486 0-15.39 6.899-15.39 15.38v70.81c0 8.486 6.904 15.391 15.39 15.391h22.622l-13.101 20.057c-4.167 6.378-4.502 14.504-.876 21.206 3.628 6.703 10.615 10.867 18.235 10.867 3.721 0 7.377-1.003 10.575-2.899l84.81-50.279c3.563-2.113 4.738-6.713 2.626-10.277z"/><path d="m135.748 255.742v-26.423c25.71-.85 47.37-20.873 49.603-47.124l11.01-129.868c.837-9.846-2.212-19.43-8.587-26.985-6.373-7.555-15.305-12.176-25.152-13.014l-111.914-9.491c-10.688-.894-20.563 2.929-27.797 10.788-7.49 8.137-11.946 20.014-13.246 35.303l-9.57 112.943c-.582 6.795 1.519 13.408 5.917 18.62 2.003 2.374 4.376 4.323 7.005 5.801 10.388 17.309 26.849 29.907 46.072 35.374v20.4l-19.81 13.323c-24.51 16.484-39.143 43.96-39.143 73.499v172.905c0 4.143 3.358 7.5 7.5 7.5s7.5-3.357 7.5-7.5v-172.904c0-24.536 12.155-47.359 32.514-61.052l5.996-4.032 53.801 30.753c3.954 2.104 9.939 3.495 16.462.403 5.222-2.654 8.727-7.716 9.376-13.537l.705-6.324 14.4 14.244c21.687 21.452 34.125 51.249 34.125 81.753v130.697c0 4.143 3.358 7.5 7.5 7.5s7.5-3.357 7.5-7.5v-130.697c0-34.482-14.061-68.167-38.576-92.417zm-111.137-205.545c1.824-21.454 11.112-33.564 24.833-32.412l111.909 9.489c5.854.498 11.166 3.247 14.957 7.739 3.79 4.493 5.603 10.19 5.105 16.045l-2.26 26.676c-11.765 5.28-25.842 10.793-39.323 5.535l-41.46-15.02c-2.196-.794-4.634-.522-6.598.735-1.965 1.258-3.233 3.358-3.43 5.684l-2.308 27.27-16.103-1.365c-13.585-1.14-25.574 8.964-26.726 22.548l-1.513 17.842c-.836 9.851 4.258 18.861 12.3 23.51l-3.968 6.417c-2.093 3.388-5.875 5.281-9.835 4.949l-15.562-1.321c-2.802-.237-5.342-1.55-7.154-3.697-1.811-2.146-2.676-4.87-2.436-7.676zm10.398 140.255c9.649 1.857 22.011-1.949 27.778-11.677l6.587-10.651 18.445 1.564c3.131.266 7.206-2.023 8.107-6.84.35-4.128-2.712-7.757-6.839-8.107l-23.576-1.998c-5.343-.454-9.322-5.17-8.869-10.513l1.513-17.842c.453-5.344 5.168-9.327 10.512-8.868l23.576 1.999c2.886.249 7.687-2.213 8.108-6.845l2.115-24.987 32.26 11.687c13.104 5.12 29.875 3.424 43.01-2.904l-6.985 82.372c-9.726 3.841-17.699-4.119-18.683-5.159-2.806-3.021-7.528-3.211-10.568-.416-3.05 2.802-3.251 7.547-.449 10.597 4.024 4.573 15.093 11.817 26.247 10.988-6.152 13.952-22.081 23.412-38.442 21.205l-26.336-2.24c-4.138-.355-7.758 2.709-8.109 6.837-.351 4.127 2.71 7.758 6.837 8.108l19.499 1.659v21.237l-46.66-9.697v-24.159c-.143-3.058-2.156-6.798-6.023-7.354-12.693-2.55-24.158-8.882-33.055-17.996zm82.103 91.137c-.42.214-1.269.492-2.222-.055l-47.358-27.07.619-.416 51.89 10.787-1.664 14.927c-.122 1.092-.845 1.613-1.265 1.827z"/><path d="m90.318 312.468c-22.802 0-41.354 18.551-41.354 41.354v147.973c0 4.143 3.358 7.5 7.5 7.5s7.5-3.357 7.5-7.5v-73.617h52.707v73.617c0 4.143 3.358 7.5 7.5 7.5s7.5-3.357 7.5-7.5v-147.973c.001-22.803-18.55-41.354-41.353-41.354zm-26.353 100.709v-59.355c0-14.531 11.822-26.354 26.354-26.354s26.354 11.822 26.354 26.354v59.355z"/><path d="m498.473 172.147c-10.897-14.638-26.843-24.156-44.898-26.802l-86.804-12.716c-7.26-1.061-14.489.763-20.372 5.142-5.882 4.379-9.706 10.785-10.769 18.04l-4.307 29.4c-1.372 9.367 2.285 18.959 9.546 25.032l11.931 9.983-9.374 63.998c-1.688 11.52 1.213 23.008 8.169 32.348 6.901 9.267 16.977 15.313 28.393 17.055v33.832l-11.108 12.056c-19.689 21.368-30.533 49.14-30.533 78.196v44.083c0 4.143 3.357 7.5 7.5 7.5.02 0 .038-.003.058-.003h50.704c4.143 0 7.5-3.357 7.5-7.5v-21.601h38.489v21.601c0 4.143 3.357 7.5 7.5 7.5h37.534c.02 0 .039.003.058.003 4.143 0 7.5-3.357 7.5-7.5v-91.837c0-18.363-10.984-34.719-27.983-41.665l-7.208-2.946v-25.418c21.576-6.375 37.743-24.726 41.061-47.382l10.21-69.698c.001-.005.001-.009.001-.013 2.641-18.053-1.904-36.053-12.798-50.688zm-152.308 15.238 4.307-29.4c.481-3.29 2.217-6.196 4.884-8.182 2.669-1.986 5.949-2.814 9.24-2.332l86.805 12.716c14.091 2.064 26.535 9.493 35.04 20.917 8.504 11.424 12.051 25.476 9.986 39.567l-8.818 60.193c-1.126 3.123-1.823 5.855-8.063 6.002l-19.159-2.807c.83-1.789 1.428-3.72 1.728-5.77l2.322-15.85c1.675-11.434-6.266-22.099-17.7-23.775l-15.004-2.198-39.288-37.229c-2.032-1.926-4.967-2.561-7.614-1.643-2.645.916-4.56 3.229-4.966 6l-2.573 17.563-26.797-22.421c-3.294-2.751-4.953-7.102-4.33-11.351zm96.436 277.796h-38.497v-29.712c0-10.614 8.635-19.249 19.249-19.249 10.613 0 19.248 8.635 19.248 19.249zm-53.493 15v14.11h-35.761v-14.11zm91.08 14.11h-22.591v-14.11h22.591zm.001-84.334v55.224h-22.589v-29.712c0-18.885-15.363-34.249-34.248-34.249s-34.249 15.364-34.249 34.249v29.712h-35.757v-7.47c0-25.28 9.434-49.441 26.564-68.032l9.082-9.857c8.235 3.849 19.142 5.998 31.005 5.998 12.922 0 24.714-2.548 33.148-7.071l8.386 3.427c11.335 4.633 18.658 15.537 18.658 27.781zm-29.026-83.316c-3.302.582-6.247 3.679-6.165 7.38v32.058c-6.153 2.968-15.314 4.742-25 4.742-9.691 0-18.855-1.774-25.01-4.743v-30.246l21.299 3.124c4.108.596 7.908-2.234 8.51-6.332.601-4.099-2.234-7.908-6.332-8.51l-36.04-5.283c-7.56-1.107-14.236-5.092-18.799-11.218-4.562-6.126-6.465-13.66-5.357-21.215l8.037-54.872 11.649 9.747c2.082 1.743 4.949 2.224 7.484 1.256 2.539-.968 4.355-3.232 4.749-5.921l2.424-16.545 30.524 28.926c.954.859 2.292 1.725 4.072 1.977l17.353 2.542c3.252.477 5.51 3.509 5.033 6.76l-2.322 15.85c-.477 3.251-3.517 5.508-6.759 5.032l-.173-.025-17.181-2.518c-4.098-.595-7.907 2.234-8.509 6.333-.601 4.099 2.235 7.908 6.333 8.509l56.386 8.261c1.317.004-.217.358 5.52.107-5.728 12.781-17.449 22.241-31.726 24.824z"/><circle cx="387.488" cy="264.969" r="7.5"/><circle cx="331.365" cy="53.499" r="7.5"/><circle cx="368.978" cy="53.499" r="7.5"/><circle cx="406.59" cy="53.499" r="7.5"/><circle cx="150.358" cy="132.204" r="7.5"/></g></g></svg>