<svg id="Capa_1" enable-background="new 0 0 512 512" height="512" viewBox="0 0 512 512" width="512" xmlns="http://www.w3.org/2000/svg"><g><g><g><path d="m397.213 7.5h-228.853c-23.799 0-43.71 18.862-44.107 42.657-.406 24.308 19.178 44.141 43.393 44.141 20.534 0 37.734-14.261 42.242-33.418 1.351-5.741 6.422-9.83 12.32-9.83h166.51c6.376 0 11.545 5.169 11.545 11.545v432.668c0 5.101 4.135 9.236 9.236 9.236h25.078c5.101 0 9.236-4.135 9.236-9.236v-441.162c.001-25.737-20.863-46.601-46.6-46.601zm-229.568 59.297c-8.78 0-15.898-7.118-15.898-15.898s7.118-15.898 15.898-15.898 15.898 7.118 15.898 15.898c0 8.781-7.117 15.898-15.898 15.898z" fill="#bac5e2"/></g><g><path d="m139.126 50.899c0-23.969 19.431-43.399 43.399-43.399h-14.88c-23.969 0-43.399 19.43-43.399 43.399s19.431 43.399 43.399 43.399c2.538 0 5.021-.23 7.44-.648-20.422-3.53-35.959-21.32-35.959-42.751z" fill="#a7b4d1"/></g><g><path d="m415.143 495.264v-432.668c0-6.376-5.169-11.545-11.545-11.545h-14.88c6.376 0 11.546 5.169 11.546 11.545v432.668c0 5.101 4.135 9.236 9.236 9.236h14.88c-5.101 0-9.237-4.135-9.237-9.236z" fill="#a7b4d1"/></g><g><path d="m199.479 178.44h-63.667v-28.275c0-11.169 9.054-20.223 20.223-20.223h23.222c11.169 0 20.223 9.054 20.223 20.223v28.275z" fill="#e5979d"/></g><g><path d="m171.874 129.942h-15.84c-11.169 0-20.223 9.054-20.223 20.223v28.275h15.84v-28.275c.001-11.169 9.055-20.223 20.223-20.223z" fill="#e17f85"/></g><g><path d="m267.105 222.361v-27.695c0-15.628-12.669-28.297-28.297-28.297h-142.325c-15.628 0-28.297 12.669-28.297 28.297v27.695z" fill="#b8f0ff"/></g><g><path d="m68.186 222.361v156.94c0 15.628 12.669 28.297 28.297 28.297h30.274c4.884 0 8.843 3.959 8.843 8.843v10.933c0 6.837 5.543 12.38 12.38 12.38h39.332c6.837 0 12.38-5.543 12.38-12.38v-10.934c0-4.884 3.959-8.843 8.843-8.843h30.274c15.628 0 28.297-12.669 28.297-28.297v-156.94h-198.92z" fill="#42c3fc"/></g><g><path d="m116.163 166.37h-19.68c-15.628 0-28.297 12.669-28.297 28.297v27.695h19.68v-27.695c0-15.628 12.669-28.297 28.297-28.297z" fill="#8ddcff"/></g><g><g><path d="m87.866 379.301v-156.94h-19.68v156.94c0 15.628 12.669 28.296 28.297 28.296h19.68c-15.628 0-28.297-12.668-28.297-28.296z" fill="#1aa9e8"/></g><g><path d="m155.28 427.373v-10.933c0-4.884-3.959-8.843-8.843-8.843h-19.68c4.884 0 8.843 3.959 8.843 8.843v10.933c0 6.837 5.543 12.38 12.38 12.38h19.68c-6.838-.001-12.38-5.543-12.38-12.38z" fill="#1aa9e8"/></g></g><g><circle cx="142.28" cy="281.075" fill="#b8f0ff" r="21.275"/></g><g><circle cx="189.8" cy="359.984" fill="#b8f0ff" r="18.034"/></g><g><path d="m324.698 274.78h17.653c4.569 0 8.273-3.704 8.273-8.273v-25.194c0-9.444-7.656-17.1-17.1-17.1-9.444 0-17.1 7.656-17.1 17.1v25.194c0 4.569 3.705 8.273 8.274 8.273z" fill="#e9efff"/></g><g><path d="m329.865 266.506v-25.194c0-7.058 4.277-13.114 10.38-15.725-2.063-.883-4.334-1.375-6.72-1.375-9.444 0-17.1 7.656-17.1 17.1v25.194c0 4.569 3.704 8.273 8.274 8.273h13.44c-4.57.001-8.274-3.703-8.274-8.273z" fill="#d3dcfb"/></g><g><path d="m269.717 504.5h-28.974c-7.905 0-14.313-6.408-14.313-14.313v-9.862c0-7.905 6.408-14.313 14.313-14.313h28.974c7.905 0 14.313 6.408 14.313 14.313v9.862c0 7.905-6.408 14.313-14.313 14.313z" fill="#bac5e2"/></g><g><path d="m242.99 490.187v-9.862c0-7.905 6.408-14.313 14.313-14.313h-16.56c-7.905 0-14.313 6.408-14.313 14.313v9.862c0 7.905 6.408 14.313 14.313 14.313h16.56c-7.905 0-14.313-6.408-14.313-14.313z" fill="#a7b4d1"/></g></g><g><path d="m443.813 137.1c-4.143 0-7.5 3.357-7.5 7.5v350.664c0 .957-.779 1.736-1.736 1.736h-25.077c-.957 0-1.736-.779-1.736-1.736v-432.668c0-10.501-8.544-19.045-19.046-19.045h-88.718c-4.143 0-7.5 3.357-7.5 7.5s3.357 7.5 7.5 7.5h88.718c2.23 0 4.046 1.814 4.046 4.045v432.668c0 9.229 7.508 16.736 16.736 16.736h25.077c9.229 0 16.736-7.508 16.736-16.736v-350.664c0-4.143-3.357-7.5-7.5-7.5z"/><path d="m144.247 50.899c0 12.902 10.496 23.398 23.398 23.398 12.901 0 23.397-10.496 23.397-23.398s-10.496-23.398-23.397-23.398c-12.902 0-23.398 10.496-23.398 23.398zm31.796 0c0 4.631-3.767 8.398-8.397 8.398s-8.398-3.768-8.398-8.398 3.768-8.398 8.398-8.398 8.397 3.768 8.397 8.398z"/><path d="m397.213 0h-228.854c-27.995 0-51.146 22.444-51.606 50.032-.229 13.766 4.956 26.748 14.601 36.556 7.87 8.001 17.897 13.067 28.792 14.664v21.191h-4.111c-15.286 0-27.723 12.437-27.723 27.723v8.705h-31.83c-19.738 0-35.796 16.058-35.796 35.796v68.195c0 4.143 3.357 7.5 7.5 7.5s7.5-3.357 7.5-7.5v-33h121.792c4.143 0 7.5-3.357 7.5-7.5s-3.357-7.5-7.5-7.5h-121.791v-20.195c0-11.467 9.329-20.796 20.796-20.796h142.325c11.468 0 20.797 9.329 20.797 20.796v20.195h-33.175c-4.143 0-7.5 3.357-7.5 7.5s3.357 7.5 7.5 7.5h33.175v18.858h-17.16c-4.143 0-7.5 3.357-7.5 7.5s3.357 7.5 7.5 7.5h17.16v21.868h-17.16c-4.143 0-7.5 3.357-7.5 7.5s3.357 7.5 7.5 7.5h17.16v21.868h-17.16c-4.143 0-7.5 3.357-7.5 7.5s3.357 7.5 7.5 7.5h17.16v21.868h-17.16c-4.143 0-7.5 3.357-7.5 7.5s3.357 7.5 7.5 7.5h17.16v4.977c0 11.468-9.329 20.797-20.797 20.797h-30.273c-9.012 0-16.343 7.331-16.343 16.343v10.933c0 2.69-2.189 4.88-4.88 4.88h-39.332c-2.69 0-4.88-2.189-4.88-4.88v-10.934c0-9.012-7.331-16.343-16.343-16.343h-30.275c-11.467 0-20.796-9.329-20.796-20.797v-85.66c0-4.143-3.357-7.5-7.5-7.5s-7.5 3.357-7.5 7.5v85.661c0 19.738 16.058 35.797 35.796 35.797h30.274c.74 0 1.343.603 1.343 1.343v10.933c0 10.962 8.918 19.88 19.88 19.88h12.166v18.004c0 15.163 12.337 27.5 27.5 27.5h31.441c1.276 10.82 10.498 19.243 21.656 19.243h28.975c11.158 0 20.381-8.423 21.657-19.243h22.151c15.163 0 27.5-12.337 27.5-27.5v-182.978h1.326c8.697 0 15.773-7.076 15.773-15.774v-25.193c0-10.95-7.192-20.247-17.1-23.427v-16.833c0-4.143-3.357-7.5-7.5-7.5s-7.5 3.357-7.5 7.5v16.833c-9.907 3.179-17.1 12.477-17.1 23.427v25.193c0 8.698 7.076 15.774 15.773 15.774h1.326v182.977c0 6.893-5.607 12.5-12.5 12.5h-22.15c-1.276-10.821-10.498-19.244-21.657-19.244h-28.975c-11.158 0-20.38 8.423-21.656 19.244h-31.44c-6.893 0-12.5-5.607-12.5-12.5v-18.004h12.166c10.962 0 19.88-8.918 19.88-19.88v-10.933c0-.74.603-1.343 1.343-1.343h30.273c19.738 0 35.797-16.059 35.797-35.797v-184.634c0-19.738-16.059-35.796-35.797-35.796h-31.829v-8.705c0-15.286-12.437-27.723-27.723-27.723h-4.11v-21.199c20.431-2.991 37.193-18.038 42.043-38.644.561-2.384 2.625-4.049 5.02-4.049h44.896c4.143 0 7.5-3.357 7.5-7.5s-3.357-7.5-7.5-7.5h-44.896c-9.389 0-17.457 6.42-19.621 15.612-3.829 16.271-18.198 27.636-34.941 27.636-9.702 0-18.793-3.811-25.597-10.729-6.803-6.917-10.46-16.075-10.298-25.788.325-19.453 16.747-35.281 36.608-35.281h228.854c21.561 0 39.101 17.54 39.101 39.101v57.151c0 4.143 3.357 7.5 7.5 7.5s7.5-3.357 7.5-7.5v-57.151c-.001-29.831-24.27-54.101-54.101-54.101zm-73.288 266.506v-25.193c0-5.293 4.307-9.6 9.6-9.6s9.6 4.307 9.6 9.6v25.193c0 .427-.347.774-.773.774h-17.652c-.429 0-.775-.347-.775-.774zm-89.995 213.819c0-3.757 3.056-6.812 6.812-6.812h28.975c3.757 0 6.813 3.056 6.813 6.812v9.862c0 3.757-3.057 6.812-6.813 6.812h-28.975c-3.757 0-6.812-3.056-6.812-6.812zm-41.951-330.16v8.705h-48.667v-8.705c0-7.016 5.707-12.723 12.723-12.723h23.222c7.014 0 12.722 5.707 12.722 12.723z"/><path d="m142.28 252.3c-15.867 0-28.775 12.908-28.775 28.775 0 15.866 12.908 28.774 28.775 28.774 15.866 0 28.774-12.908 28.774-28.774.001-15.867-12.908-28.775-28.774-28.775zm0 42.55c-7.596 0-13.775-6.179-13.775-13.774s6.18-13.775 13.775-13.775 13.774 6.18 13.774 13.775-6.178 13.774-13.774 13.774z"/><path d="m189.8 385.519c14.08 0 25.534-11.454 25.534-25.534s-11.454-25.535-25.534-25.535-25.534 11.454-25.534 25.534 11.454 25.535 25.534 25.535zm0-36.069c5.809 0 10.534 4.726 10.534 10.534s-4.726 10.534-10.534 10.534-10.534-4.726-10.534-10.534 4.725-10.534 10.534-10.534z"/></g></g></svg>