<svg id="Capa_1" enable-background="new 0 0 512.002 512.002" height="512" viewBox="0 0 512.002 512.002" width="512" xmlns="http://www.w3.org/2000/svg"><g><g><path d="m491.044 82.437h-23.997l-15.385 7.128h-388.391v334.252c0 5.661 3.383 10.559 8.221 12.806h151.922c4.75 0 9.216 2.488 11.517 6.643 4.154 7.5 12.143 12.578 21.323 12.578s17.17-5.079 21.323-12.578c2.301-4.155 6.767-6.643 11.517-6.643h201.95c7.541 0 13.71-6.17 13.71-13.71v-326.765c.001-7.541-6.169-13.711-13.71-13.711z" fill="#ff76aa"/><g><path d="m63.682 422.912v-326.764c0-2.382.618-4.625 1.698-6.582h-7.718l-12.202-7.129h-23.997c-7.541 0-13.71 6.17-13.71 13.71v326.765c0 7.541 6.17 13.71 13.71 13.71h55.929c-7.54.001-13.71-6.169-13.71-13.71z" fill="#ff5595"/></g><path d="m455.463 56.159h-123.838c-8.621 0-17.115 1.121-25.297 3.261l-4.667 8.107v308.833l9.925-5h140.742l14.718-13.72v-289.897c.001-6.398-5.185-11.584-11.583-11.584z" fill="#dbedff"/><path d="m306.329 59.42c-19.241 5.032-36.749 15.735-50.075 31.015l-11.925 2.925v285.078l11.925 20.798 50.075-25.227z" fill="#b5dcff"/><path d="m256.254 158.961v-68.526c-18.992-21.778-46.476-34.276-75.372-34.276h-84.45l-6.27 6.868v305h106.397l59.694 31.209v-122.589l-41.917-18.584v-80.518z" fill="#dbedff"/><path d="m96.432 56.159h-39.388c-6.397 0-11.584 5.186-11.584 11.584v289.897l13.71 10.387h37.262z" fill="#b5dcff"/><path d="m212.247 218.618 72.274 32.043 3.641-3.459v-95.921l-5.575-3.995-68.25 30.259-2.925 4.732v34.76z" fill="#ffa90f"/><path d="m214.337 218.291-2.925-5.536v39.772l2.925 5.536 68.25 30.259 5.575-5.295v-39.772l-5.575 5.295z" fill="#ff9b00"/><path d="m157.965 220.14h16.179l2.185-1.025v-27.922l-2.687-3.373h-15.707c-10.11 0-18.534 7.48-20.074 17.174 2.54 8.718 10.595 15.146 20.104 15.146z" fill="#8479c2"/><path d="m157.936 219.662c-9.671 0-17.808-6.842-19.845-15.921-.321 1.428-.503 2.907-.503 4.428v19.269c0 11.192 9.157 20.349 20.349 20.349h15.707l2.686-1.26v-28.125l-2.686 1.26z" fill="#6e60b8"/><path d="m90.162 389.027 6.27 10.209h159.822c-18.992-21.778-46.476-41.596-75.372-41.596h-90.72z" fill="#b5dcff"/><path d="m96.432 357.64h-50.972v30.013c0 6.398 5.186 11.584 11.584 11.584h39.388z" fill="#8bcaff"/><path d="m331.625 357.64c-10.273 0-20.365 2.514-29.963 6.722v28.165l4.667 6.709h149.134c6.397 0 11.584-5.186 11.584-11.584v-30.012z" fill="#b5dcff"/><path d="m306.329 362.469c-19.241 7.182-36.75 21.487-50.075 36.767h50.075z" fill="#8bcaff"/><path d="m292.108 263.339h9.958c4.203 0 7.841-2.505 9.521-6.09v-109.963c0-5.412-4.428-9.841-9.841-9.841h-9.318c-5.412 0-9.841 4.428-9.841 9.841v109.963c1.68 3.585 5.318 6.09 9.521 6.09z" fill="#ffc365"/><path d="m301.746 262.663h-9.318c-5.412 0-9.841-4.428-9.841-9.841v35.5c0 5.412 4.428 9.841 9.841 9.841h9.318c5.413 0 9.841-4.428 9.841-9.841v-35.5c0 5.412-4.428 9.841-9.841 9.841z" fill="#ffa90f"/><path d="m187.04 222.421h27.297v-44.876h-27.077c-7.827 0-14.173 6.345-14.173 14.173v20.526c1.893 5.902 7.421 10.177 13.953 10.177z" fill="#9790cc"/><path d="m173.087 207.765v36.125c0 7.827 6.345 14.173 14.173 14.173h27.077v-36.125h-27.077c-7.828 0-14.173-6.345-14.173-14.173z" fill="#8479c2"/></g><g><path d="m334.014 234.852c2.928 2.928 7.677 2.931 10.606.001 4.555-4.554 7.063-10.608 7.063-17.049s-2.508-12.495-7.062-17.05c-2.93-2.928-7.678-2.928-10.607 0-2.929 2.93-2.929 7.678 0 10.607 3.56 3.558 3.563 9.322.001 12.884-2.93 2.929-2.93 7.678-.001 10.607z"/><path d="m354.54 255.379c2.931 2.929 7.678 2.928 10.607 0 20.741-20.743 20.74-54.409 0-75.151-2.93-2.928-7.678-2.928-10.607 0-2.929 2.93-2.929 7.678 0 10.607 14.879 14.877 14.88 39.059 0 53.937-2.929 2.93-2.929 7.678 0 10.607z"/><path d="m385.674 275.905c32.036-32.037 32.036-84.165 0-116.202-2.93-2.928-7.678-2.928-10.607 0-2.929 2.93-2.929 7.678 0 10.607 26.188 26.188 26.188 68.8 0 94.987-2.929 2.93-2.929 7.678 0 10.607 2.93 2.93 7.677 2.929 10.607.001z"/><path d="m490.791 74.937h-16.497v-7.194c0-10.523-8.562-19.084-19.084-19.084h-57.34c-4.143 0-7.5 3.357-7.5 7.5s3.357 7.5 7.5 7.5h57.34c2.252 0 4.084 1.832 4.084 4.084v14.694 267.703h-127.921c-28.166 0-52.393 16.645-67.872 30.751v-92.715l12.146 5.385c2.227 7.008 8.792 12.101 16.527 12.101h9.318c9.562 0 17.341-7.779 17.341-17.341v-141.035c0-9.562-7.779-17.341-17.341-17.341h-9.318c-7.735 0-14.3 5.093-16.527 12.101l-12.146 5.385v-54.122c17.48-18.877 42.061-29.65 67.872-29.65h31.497c4.143 0 7.5-3.357 7.5-7.5s-3.357-7.5-7.5-7.5h-31.497c-28.312 0-55.344 11.155-75.372 30.853-20.029-19.697-47.06-30.853-75.372-30.853h-123.838c-10.523 0-19.084 8.562-19.084 19.084v7.194h-16.497c-11.695 0-21.21 9.516-21.21 21.211v326.765c0 11.695 9.515 21.21 21.21 21.21h201.95c2.108 0 4.008 1.064 4.956 2.776 5.617 10.143 16.303 16.444 27.885 16.444s22.268-6.302 27.884-16.443c.949-1.713 2.848-2.777 4.956-2.777h201.95c11.695 0 21.211-9.515 21.211-21.21v-135.886c0-4.143-3.357-7.5-7.5-7.5s-7.5 3.357-7.5 7.5v135.886c0 3.424-2.786 6.21-6.211 6.21h-201.95c-7.56 0-14.485 4.026-18.078 10.509-2.976 5.374-8.632 8.712-14.762 8.712s-11.786-3.338-14.763-8.713c-3.592-6.481-10.519-10.508-18.078-10.508h-201.95c-3.424 0-6.21-2.786-6.21-6.21v-326.765c0-3.425 2.786-6.211 6.21-6.211h16.497v297.716c0 10.443 8.533 19.084 19.084 19.084h199.21 199.209c10.523 0 19.084-8.561 19.084-19.084 0-13.173 0-283.456 0-297.716h16.497c3.425 0 6.211 2.786 6.211 6.211v155.879c0 4.143 3.357 7.5 7.5 7.5s7.5-3.357 7.5-7.5v-155.879c0-11.695-9.516-21.211-21.211-21.211zm-434 316.799c-2.252 0-4.084-1.832-4.084-4.083v-22.513h127.922c23.282 0 43.986 14.26 57.54 26.596zm402.503-26.596v22.513c0 2.251-1.832 4.083-4.084 4.083h-181.377c13.554-12.336 34.258-26.596 57.54-26.596zm-278.96-121.25v-52.173c0-3.677 2.991-6.673 6.673-6.673h19.577v65.519h-19.577c-3.723 0-6.673-3.041-6.673-6.673zm94.5 32.902c-7.875-3.491-46.794-20.746-53.25-23.608v-70.761c6.428-2.85 45.285-20.077 53.25-23.608zm17.341-131.847h9.318c1.269 0 2.341 1.072 2.341 2.341v141.036c0 1.269-1.072 2.341-2.341 2.341h-9.318c-1.269 0-2.341-1.072-2.341-2.341v-141.036c0-1.269 1.072-2.341 2.341-2.341zm-239.468-77.202c0-2.252 1.832-4.084 4.084-4.084h123.838c25.812 0 50.392 10.773 67.872 29.65v60.772l-36.005 15.963h-25.489c-7.771 0-14.598 4.114-18.424 10.276h-10.9c-15.355 0-27.849 12.493-27.849 27.849v19.269c0 15.355 12.493 27.849 27.849 27.849h10.9c3.826 6.162 10.652 10.276 18.424 10.276h25.489l36.005 15.963v99.365c-15.479-14.106-39.706-30.751-67.872-30.751h-127.922c0-24.897 0-270.333 0-282.397zm104.976 172.544c-7.085 0-12.849-5.764-12.849-12.849v-19.269c0-7.085 5.764-12.849 12.849-12.849h7.651v44.966h-7.651z"/></g></g></svg>