<svg id="Capa_1" enable-background="new 0 0 512 512" height="512" viewBox="0 0 512 512" width="512" xmlns="http://www.w3.org/2000/svg"><g><g><g><path d="m409.473 398.018h-306.946c-11.046 0-20-8.954-20-20v-350.518c0-11.046 8.954-20 20-20h306.945c11.046 0 20 8.954 20 20v350.518c.001 11.046-8.954 20-19.999 20z" fill="#e9efff"/></g><g><path d="m314.087 243.739h-14.734c-4.671 0-9.178-1.719-12.663-4.829l-2.272-2.027c-7.831-6.986-17.923-10.834-28.418-10.834s-20.587 3.848-28.42 10.836l-2.27 2.026c-3.485 3.109-7.992 4.828-12.662 4.828h-14.734c-21.855 0-39.571 17.717-39.571 39.571v64.58c0 17.418 3.487 34.419 10.109 50.128h175.099c6.622-15.709 10.109-32.71 10.109-50.128v-64.58c-.002-21.854-17.718-39.571-39.573-39.571z" fill="#d3dcfb"/></g><g><path d="m112.124 378.018v-350.518c0-11.046 8.954-20 20-20h-29.596c-11.046 0-20 8.954-20 20v350.518c0 11.046 8.954 20 20 20h29.596c-11.046 0-20-8.954-20-20z" fill="#d3dcfb"/></g><g><path d="m265 398.918-45.884 102.841c-1.641 3.678-6.872 3.649-8.472-.047l-6.612-15.273c-.954-2.204-3.437-3.312-5.715-2.55l-15.782 5.281c-3.819 1.278-7.335-2.595-5.694-6.273l45.884-102.841z" fill="#e5979d"/></g><g><path d="m238.712 387.189-15.988-7.133-45.884 102.84c-1.641 3.678 1.875 7.551 5.694 6.273l12.552-4.2z" fill="#e17f85"/></g><g><path d="m247 398.918 45.884 102.841c1.641 3.678 6.872 3.649 8.472-.047l6.612-15.273c.954-2.204 3.437-3.312 5.715-2.55l15.782 5.281c3.819 1.278 7.335-2.595 5.694-6.273l-45.884-102.841z" fill="#e5979d"/></g><g><path d="m262.274 392.103-15.274 6.815 45.884 102.841c1.641 3.678 6.872 3.649 8.472-.047l4.836-11.172z" fill="#e17f85"/></g><g><path d="m272.326 449.625 28.759-31.176c17.73-19.22 27.574-44.41 27.574-70.558v-64.579c0-8.048-6.524-14.571-14.571-14.571h-19.828c-7.527 0-14.792-2.769-20.409-7.781l-6.075-5.419c-6.709-5.986-16.841-5.986-23.551 0l-6.075 5.419c-5.617 5.011-12.881 7.781-20.409 7.781h-19.828c-8.048 0-14.571 6.524-14.571 14.571v64.579c0 26.148 9.844 51.339 27.574 70.558l28.759 31.176c8.795 9.534 23.855 9.534 32.651 0z" fill="#ffdd40"/></g><g><path d="m260.271 449.625-28.759-31.176c-17.729-19.22-27.574-44.41-27.574-70.558v-64.579c0-8.048 6.524-14.571 14.571-14.571h19.828c7.527 0 14.792-2.77 20.409-7.781l6.075-5.42c.475-.423.97-.809 1.477-1.173-6.653-4.775-15.839-4.389-22.074 1.173l-6.075 5.42c-5.617 5.011-12.881 7.781-20.409 7.781h-19.828c-8.048 0-14.571 6.524-14.571 14.571v64.579c0 26.148 9.844 51.339 27.574 70.558l28.759 31.176c7.012 7.601 17.998 9.122 26.624 4.604-2.194-1.15-4.244-2.671-6.027-4.604z" fill="#ffc043"/></g><g><path d="m211.964 78.248h-18.321c-1.633 0-2.956-1.324-2.956-2.956v-18.322c0-5.871-4.76-10.631-10.631-10.631h-10.839c-5.871 0-10.631 4.76-10.631 10.631v18.321c0 1.633-1.324 2.956-2.956 2.956h-18.321c-5.871 0-10.631 4.76-10.631 10.631v10.839c0 5.871 4.76 10.631 10.631 10.631h18.321c1.633 0 2.956 1.324 2.956 2.956v18.321c0 5.871 4.76 10.631 10.631 10.631h10.839c5.871 0 10.631-4.76 10.631-10.631v-18.321c0-1.633 1.324-2.956 2.956-2.956h18.321c5.871 0 10.631-4.76 10.631-10.631v-10.838c0-5.871-4.76-10.631-10.631-10.631z" fill="#b3e59f"/></g><g><circle cx="256" cy="353.913" fill="#b3e59f" r="27.153"/></g><g><path d="m241.267 353.913c0-12.859 8.941-23.621 20.943-26.431-1.995-.467-4.072-.722-6.21-.722-14.996 0-27.153 12.157-27.153 27.153s12.157 27.153 27.153 27.153c2.138 0 4.215-.255 6.21-.722-12.002-2.81-20.943-13.573-20.943-26.431z" fill="#95d6a4"/></g></g><g><path d="m429.473 98.94c-4.143 0-7.5 3.357-7.5 7.5v271.578c0 6.893-5.607 12.5-12.5 12.5h-61.753c-4.143 0-7.5 3.357-7.5 7.5s3.357 7.5 7.5 7.5h61.753c15.164 0 27.5-12.337 27.5-27.5v-271.578c0-4.142-3.358-7.5-7.5-7.5z"/><path d="m409.473 0h-306.946c-15.163 0-27.5 12.337-27.5 27.5v350.519c0 15.163 12.337 27.5 27.5 27.5h60.873c4.143 0 7.5-3.357 7.5-7.5s-3.357-7.5-7.5-7.5h-60.873c-6.893 0-12.5-5.607-12.5-12.5v-350.519c0-6.893 5.607-12.5 12.5-12.5h306.945c6.893 0 12.5 5.607 12.5 12.5v49.42c0 4.143 3.357 7.5 7.5 7.5s7.5-3.357 7.5-7.5v-49.42c.001-15.163-12.336-27.5-27.499-27.5z"/><path d="m313.318 415.533c14.794-19.375 22.84-43.03 22.84-67.642v-64.58c0-12.17-9.901-22.071-22.071-22.071h-19.828c-5.693 0-11.168-2.087-15.416-5.876l-6.074-5.421c-9.561-8.527-23.977-8.528-33.537.001l-6.073 5.419c-4.249 3.79-9.724 5.877-15.417 5.877h-19.828c-12.17 0-22.071 9.901-22.071 22.071v64.58c0 24.613 8.046 48.267 22.841 67.643l-28.692 64.308c-1.959 4.393-1.137 9.531 2.097 13.092 3.231 3.561 8.264 4.876 12.827 3.35l13.283-4.444 5.563 12.852c1.91 4.414 6.252 7.284 11.062 7.311h.067c4.783 0 9.125-2.815 11.074-7.187l12.372-27.728c1.688-3.782-.01-8.217-3.793-9.904-3.776-1.688-8.217.01-9.904 3.793l-9.709 21.758-4.016-9.274c-2.521-5.823-8.956-8.696-14.977-6.682l-9.585 3.207 23.186-51.966 24.623 26.694c5.608 6.078 13.568 9.564 21.839 9.564s16.23-3.486 21.839-9.564c0-.001 0-.001 0-.001l24.623-26.693 23.186 51.966-9.583-3.206c-6.018-2.018-12.456.857-14.979 6.682l-4.015 9.273-9.563-21.436c-1.689-3.783-6.129-5.479-9.905-3.794-3.783 1.688-5.481 6.123-3.794 9.905l12.228 27.404c1.95 4.372 6.291 7.188 11.075 7.188h.067c4.81-.026 9.151-2.896 11.062-7.31l5.563-12.853 13.282 4.444c4.561 1.524 9.596.212 12.828-3.35 3.233-3.561 4.056-8.699 2.097-13.092zm-46.505 29.007c-2.817 3.054-6.658 4.735-10.813 4.735s-7.996-1.682-10.813-4.735l-28.759-31.177c-16.499-17.887-25.586-41.139-25.586-65.473v-64.58c0-3.899 3.172-7.071 7.071-7.071h19.828c9.38 0 18.401-3.439 25.402-9.685l6.074-5.419c3.867-3.451 9.699-3.448 13.564-.001l6.075 5.421c7 6.244 16.021 9.684 25.401 9.684h19.828c3.899 0 7.071 3.172 7.071 7.071v64.58c0 24.334-9.087 47.586-25.586 65.473z"/><path d="m180.055 38.839h-10.839c-9.997 0-18.131 8.134-18.131 18.132v13.777h-13.778c-9.997 0-18.131 8.134-18.131 18.131v10.839c0 9.998 8.134 18.132 18.131 18.132h13.778v13.777c0 9.997 8.134 18.131 18.131 18.131h10.839c9.998 0 18.132-8.134 18.132-18.131v-13.777h13.777c9.997 0 18.131-8.134 18.131-18.132v-10.839c0-9.997-8.134-18.131-18.131-18.131h-13.777v-13.777c0-9.998-8.134-18.132-18.132-18.132zm31.909 46.909c1.727 0 3.131 1.404 3.131 3.131v10.839c0 1.727-1.404 3.132-3.131 3.132h-18.321c-5.766 0-10.456 4.69-10.456 10.456v18.321c0 1.727-1.405 3.131-3.132 3.131h-10.839c-1.727 0-3.131-1.404-3.131-3.131v-18.321c0-5.766-4.691-10.456-10.457-10.456h-18.321c-1.727 0-3.131-1.405-3.131-3.132v-10.839c0-1.727 1.404-3.131 3.131-3.131h18.321c5.766 0 10.457-4.691 10.457-10.457v-18.32c0-1.727 1.404-3.132 3.131-3.132h10.839c1.727 0 3.132 1.405 3.132 3.132v18.32c0 5.766 4.69 10.457 10.456 10.457z"/><path d="m385.324 149.758c4.143 0 7.5-3.357 7.5-7.5s-3.357-7.5-7.5-7.5h-129.323c-4.143 0-7.5 3.357-7.5 7.5s3.357 7.5 7.5 7.5z"/><path d="m126.676 187.38h258.648c4.143 0 7.5-3.357 7.5-7.5s-3.357-7.5-7.5-7.5h-258.648c-4.143 0-7.5 3.357-7.5 7.5s3.357 7.5 7.5 7.5z"/><path d="m392.824 217.502c0-4.143-3.357-7.5-7.5-7.5h-258.648c-4.143 0-7.5 3.357-7.5 7.5s3.357 7.5 7.5 7.5h258.648c4.143 0 7.5-3.357 7.5-7.5z"/><path d="m385.324 247.72h-27.044c-4.143 0-7.5 3.357-7.5 7.5s3.357 7.5 7.5 7.5h27.044c4.143 0 7.5-3.357 7.5-7.5s-3.357-7.5-7.5-7.5z"/><path d="m152.36 247.72h-25.685c-4.143 0-7.5 3.357-7.5 7.5s3.357 7.5 7.5 7.5h25.685c4.143 0 7.5-3.357 7.5-7.5s-3.357-7.5-7.5-7.5z"/><path d="m385.324 285.438h-27.044c-4.143 0-7.5 3.357-7.5 7.5s3.357 7.5 7.5 7.5h27.044c4.143 0 7.5-3.357 7.5-7.5s-3.357-7.5-7.5-7.5z"/><path d="m297.553 346.413h-7.726c-.888-4.005-2.47-7.75-4.614-11.105l5.474-5.474c2.929-2.93 2.929-7.678 0-10.607-2.93-2.928-7.678-2.928-10.607 0l-5.474 5.474c-3.355-2.144-7.1-3.727-11.105-4.614v-7.726c0-4.143-3.357-7.5-7.5-7.5s-7.5 3.357-7.5 7.5v7.726c-4.005.888-7.75 2.47-11.105 4.614l-5.474-5.474c-2.93-2.928-7.678-2.928-10.607 0-2.929 2.93-2.929 7.678 0 10.607l5.474 5.474c-2.144 3.355-3.727 7.099-4.614 11.105h-7.726c-4.143 0-7.5 3.357-7.5 7.5s3.357 7.5 7.5 7.5h7.726c.888 4.005 2.47 7.75 4.615 11.105l-5.474 5.473c-2.93 2.929-2.93 7.678-.001 10.606 1.465 1.465 3.384 2.197 5.304 2.197 1.919 0 3.839-.732 5.303-2.196l5.475-5.474c3.355 2.144 7.1 3.727 11.105 4.614v7.727c0 4.143 3.357 7.5 7.5 7.5s7.5-3.357 7.5-7.5v-7.727c4.005-.888 7.75-2.47 11.105-4.614l5.475 5.474c1.464 1.464 3.384 2.196 5.303 2.196s3.839-.732 5.304-2.197c2.929-2.929 2.929-7.678-.001-10.606l-5.474-5.473c2.145-3.355 3.727-7.1 4.615-11.105h7.726c4.143 0 7.5-3.357 7.5-7.5s-3.36-7.5-7.502-7.5zm-41.553 27.152c-10.837 0-19.653-8.816-19.653-19.652 0-10.837 8.816-19.653 19.653-19.653s19.653 8.816 19.653 19.653c0 10.836-8.816 19.652-19.653 19.652z"/><path d="m152.36 285.438h-25.685c-4.143 0-7.5 3.357-7.5 7.5s3.357 7.5 7.5 7.5h25.685c4.143 0 7.5-3.357 7.5-7.5s-3.357-7.5-7.5-7.5z"/></g></g></svg>