<svg id="Capa_1" enable-background="new 0 0 511.989 511.989" height="512" viewBox="0 0 511.989 511.989" width="512" xmlns="http://www.w3.org/2000/svg"><g><g><g><path d="m338.936 58.109-35.62 35.62c-9.48 9.49-15.81 23.34-15.81 36.75v357.18c0 9.3-6.53 15.83-15.82 15.83l-28.301 1h-4.089c-9.29 0-16.83-7.53-16.83-16.83v-357.18c0-13.41-5.32-26.26-14.8-35.75l-34.62-34.61c-6.57-6.57-6.57-17.22 0-23.79l22.9-22.91c6.57-6.57 17.22-6.57 23.8 0 9.87 9.87 22.81 14.81 35.75 14.81 12.006 0 24.021-4.26 33.579-12.771.735-.655 1.456-.334 2.161-1.039l1.01-1c6.57-6.57 16.22-7.57 22.79-1l22.9 22.89c6.58 6.57 7.58 16.23 1 22.8z" fill="#f8f7f7"/><path d="m338.936 59.109-35.62 35.62c-9.48 9.49-14.81 22.34-14.81 35.75v30.98l-10 6.176 10 8.824v49.03l-10 5.39 10 9.609v113.07l-10 6.556 10 8.444v49.04l-10 7.5 10 7.438v55.122c0 9.3-7.53 16.83-16.82 16.83h-30c9.29 0 16.82-7.53 16.82-16.83v-357.18c0-13.41 5.33-26.26 14.81-35.75l35.62-35.62c6.58-6.57 6.58-17.23 0-23.8l-19.87-19.86c.74-.64 1.46-1.32 2.17-2.03l1.01-1c6.57-6.57 17.22-6.57 23.79 0l22.9 22.89c6.58 6.571 6.58 17.231 0 23.801z" fill="#e1e1e1"/><path d="m391.894 283.265-16.499 73.957c-10.145 45.466-43.632 79.346-86.892 91.148l1-7.123-1-4.323v-89.127l10-8.737-10-11.461c-9.274-6.27-20.468-9.942-32.508-9.942-12.481 0-24.056 3.946-33.521 10.657l-10 9.58 10 10.538v100.651c-42.784-12.064-76.806-46.753-86.879-91.862l-16.498-73.957c-15.926-71.418 33.247-139.462 103.377-149.058v107.111l-10 5.775 10 14.249c9.465 6.711 21.04 10.657 33.521 10.657 12.04 0 23.234-3.672 32.508-9.942l10-10.421-10-9.623v-100.165l1-2.891-1-3.892c70.667 9.084 119.401 76.438 103.391 148.201z" fill="#f47c7c"/><path d="m392.896 283.269-16.5 73.95c-10.15 45.47-44.63 80.35-87.89 92.15v-12.65c28.7-16.89 50.23-45.18 57.89-79.5l16.5-73.95c13.63-61.09-20.39-119.71-74.39-141.39v-7.81c70.66 9.079 120.4 77.43 104.39 149.2z" fill="#ee6161"/></g></g><g><path d="m392.547 204.21c-1.657-3.795-6.077-5.527-9.876-3.87-3.795 1.658-5.528 6.08-3.87 9.876 9.838 22.518 12.184 47.213 6.784 71.416l-16.499 73.957c-8.655 38.793-36.243 70.021-73.072 83.523v-94.24c6.587 8.534 10.52 19.217 10.52 30.807 0 4.143 3.357 7.5 7.5 7.5s7.5-3.357 7.5-7.5c0-36.131-29.395-65.525-65.526-65.525s-65.526 29.395-65.526 65.525c0 4.143 3.358 7.5 7.5 7.5 4.143 0 7.5-3.357 7.5-7.5 0-10.98 3.532-21.145 9.504-29.442v92.49c-36.298-13.708-63.493-44.78-72.059-83.139l-5.8-25.996c-.901-4.044-4.912-6.588-8.953-5.688-4.043.902-6.589 4.911-5.688 8.953l5.801 25.998c10.086 45.168 43.056 81.379 86.694 95.759v33.046c0 13.413 10.913 24.326 24.327 24.326h32.387c13.413 0 24.326-10.913 24.326-24.326v-32.71c44.174-14.149 77.53-50.486 87.706-96.095l16.499-73.957c6.096-27.331 3.441-55.233-7.679-80.688zm-162.563 164.349h51.029v49.035h-51.029zm51.03-36.755v21.754h-51.029v-21.17c7.606-4.589 16.51-7.235 26.022-7.235 9.094.002 17.627 2.429 25.007 6.651zm.007 155.858c0 5.143-4.184 9.326-9.326 9.326h-32.387c-5.143 0-9.327-4.184-9.327-9.326l.004-55.068h51.029z"/><path d="m281.014 161.454h-51.029l-.004-30.974c0-15.507-6.038-30.085-17.004-41.052l-34.613-34.613c-3.637-3.636-3.637-9.552-.001-13.188l22.897-22.902c1.761-1.762 4.103-2.731 6.594-2.732 2.492 0 4.834.971 6.596 2.732 10.966 10.965 25.545 17.004 41.052 17.004s30.086-6.039 41.052-17.004l1.004-1.005c3.636-3.637 9.551-3.636 13.189-.001l22.901 22.896c1.763 1.762 2.732 4.104 2.732 6.596.001 2.491-.97 4.833-2.73 6.595l-12.517 12.516c-2.93 2.929-2.93 7.678-.001 10.606 2.929 2.93 7.678 2.929 10.606.001l12.518-12.517c4.595-4.595 7.125-10.704 7.124-17.202 0-6.499-2.531-12.608-7.127-17.202l-22.902-22.896c-9.486-9.485-24.917-9.479-34.401.002l-1.004 1.004c-16.787 16.788-44.103 16.787-60.89 0-4.596-4.595-10.705-7.125-17.203-7.125-6.499.001-12.607 2.532-17.201 7.128l-22.896 22.901c-9.483 9.484-9.482 24.917.001 34.401l34.614 34.612c7.509 7.51 11.894 17.306 12.523 27.817-33.34 6.341-63.268 25.727-82.869 53.91-21.111 30.355-28.299 66.982-20.236 103.135l3.581 16.054c.779 3.493 3.878 5.869 7.313 5.869.541 0 1.09-.06 1.64-.182 4.043-.902 6.589-4.91 5.688-8.953l-3.581-16.054c-7.139-32.009-.777-64.435 17.91-91.305 16.828-24.195 42.234-41.068 70.646-47.191v100.283c-5.972-8.297-9.504-18.462-9.504-29.442 0-4.143-3.357-7.5-7.5-7.5-4.142 0-7.5 3.357-7.5 7.5 0 36.131 29.395 65.525 65.526 65.525s65.526-29.395 65.526-65.525c0-4.143-3.357-7.5-7.5-7.5s-7.5 3.357-7.5 7.5c0 11.59-3.932 22.273-10.52 30.807v-101.875c26.311 5.38 49.821 19.74 66.889 41.029 2.592 3.232 7.311 3.751 10.543 1.16 3.231-2.591 3.751-7.312 1.16-10.543-19.901-24.823-47.572-41.302-78.483-46.897.671-10.437 5.046-20.159 12.509-27.623 2.929-2.929 2.929-7.678-.001-10.607-2.928-2.928-7.677-2.929-10.606.001-10.965 10.966-17.003 25.544-17.003 41.051zm-51.03 95.814v-16.778h51.029v17.363c-7.38 4.222-15.913 6.65-25.007 6.65-9.511-.001-18.416-2.646-26.022-7.235zm51.03-80.814v49.035h-51.029v-49.035z"/></g></g></svg>