<svg id="Capa_1" enable-background="new 0 0 512 512" height="512" viewBox="0 0 512 512" width="512" xmlns="http://www.w3.org/2000/svg"><g><g><path d="m444.22 167.229v150.61h-94.87c-1.97 0-3.86-.35-5.61-.98-6.38-2.3-10.95-8.41-10.95-15.58v-134.05z" fill="#d19a6e"/><path d="m444.22 291.689v26.15h-94.87c-1.97 0-3.86-.35-5.61-.98l22.94-27.18 61.8-12.84 4.97 4.29c3.84 3.31 7.43 6.84 10.77 10.56z" fill="#c38c66"/><path d="m428.484 246.157-61.802-23.856v67.38l61.802-12.842z" fill="#c38c66"/><path d="m190.28 500.061h-182.78v-173.286c0-27.05 13.462-52.327 35.908-67.423l23.173-15.585 61.802 12.841 25.467 25.191c23.312 23.059 36.43 54.487 36.43 87.277z" fill="#f7f9fa"/><path d="m35.327 418.766h67.856v81.295h-67.856z" fill="#e9edf1"/><path d="m35.327 418.766v-67.003c0-18.738 15.19-33.928 33.928-33.928 18.738 0 33.928 15.19 33.928 33.928v67.003z" fill="#e9edf1"/><path d="m153.85 281.799-25.467-25.191-61.803-12.841-4.982 3.351 45.675 9.49 25.467 25.191c23.312 23.059 36.43 54.487 36.43 87.277v130.985h21.11v-130.985c0-32.79-13.118-64.218-36.43-87.277z" fill="#e9edf1"/><path d="m66.58 213.085h61.803v43.523l-61.803-12.841z" fill="#fed2a4"/><path d="m107.273 213.085v39.137l21.11 4.386v-43.523z" fill="#ffbd86"/><path d="m56.437 418.766h67.856v81.295h-67.856z" fill="#fed2a4"/><path d="m103.183 418.766h21.11v81.295h-21.11z" fill="#ffbd86"/><path d="m56.437 418.766v-67.003c0-18.738 15.19-33.928 33.928-33.928 18.738 0 33.928 15.19 33.928 33.928v67.003z" fill="#a2aee6"/><path d="m90.365 317.834c-3.687 0-7.232.596-10.555 1.683 13.568 4.439 23.373 17.193 23.373 32.245v67.003h21.11v-67.003c0-18.737-15.19-33.928-33.928-33.928z" fill="#8795de"/><path d="m66.58 243.767-13.291 8.939 57.971 33.137c6.159 3.521 13.91-.419 14.696-7.469l2.426-21.765z" fill="#a6e7f0"/><path d="m66.58 243.767-4.982 3.351 45.675 9.49-1.035 14.301c-.453 4.066-3.227 7.086-6.672 8.249l11.695 6.685c6.159 3.521 13.909-.419 14.695-7.469l2.426-21.765z" fill="#6bd9e7"/><path d="m183.364 72.957.022 99.159c.005 24.362-19.74 44.116-44.102 44.122l-55.83.012c-39.625.009-71.755-32.107-71.763-71.732l-.016-71.524z" fill="#fed2a4"/><path d="m183.39 172.119c0 24.36-19.74 44.11-44.11 44.12h-11.76c19.88-4.29 34.76-21.97 34.76-43.12l-.03-100.16h21.11z" fill="#ffbd86"/><path d="m183.364 72.957-.007-31.46c-.004-16.329-13.244-29.564-29.573-29.56l-112.556.024c-16.329.004-29.564 13.244-29.558 41.988l.025 113.606c.002 9.975 8.091 18.06 18.066 18.058l15.646-.003c6.805-.002 13.031-3.827 16.107-9.897l7.762-15.316 23.158-52.476-.008-34.943 42.668 11.472c10.698 2.876 22.081 1.71 31.973-3.277z" fill="#5d5360"/><g fill="#4b3f4e"><path d="m71.317 72.977.008 34.943-23.158 52.476-7.762 15.316c-2.654 5.236-7.653 8.796-13.344 9.677.884.133 1.781.223 2.701.223l15.646-.003c6.805-.001 13.031-3.827 16.107-9.897l7.762-15.316 23.158-52.476-.007-29.267z"/><path d="m183.357 41.497c-.004-16.329-13.244-29.564-29.573-29.56l-20.926.005c16.244.096 29.386 13.288 29.389 29.556l.007 31.46-16.297 8.215c-3.108 1.567-6.364 2.755-9.7 3.561 10.357 2.491 21.275 1.245 30.809-3.561l16.297-8.215z"/></g><path d="m449.59 246.159v30.68l-46.97 9.76-14.83 3.08v-43.52z" fill="#ffe5c2"/><path d="m449.59 246.159v30.68l-46.97 9.76v-40.44z" fill="#fed2a4"/><path d="m495.65 370.829v129.23h-153.27v-40.65l-13.2-39.57c-9.01-27.04-3.3-56.82 15.08-78.59l43.53-51.57 14.83-3.08 46.97-9.76 4.97 4.29c10.81 9.33 19.72 20.42 26.45 32.66 9.5 17.28 14.64 36.87 14.64 57.04z" fill="#fe5694"/><g fill="#fd3581"><path d="m481.01 313.789c-1.98 2.47-5.02 4.05-8.43 4.05h-59.15c-5.97 0-10.81-4.84-10.81-10.81v-20.43l46.97-9.76 4.97 4.29c10.81 9.33 19.72 20.42 26.45 32.66z"/><path d="m370.771 418.766h67.856v81.295h-67.856z"/><path d="m438.627 418.766v-33.931c0-18.738-15.19-33.928-33.928-33.928-18.738 0-33.928 15.19-33.928 33.928v33.931z"/><path d="m454.564 281.128-4.97-4.288-17.013 3.535.873.753c26.085 22.507 41.082 55.253 41.082 89.706v129.227h21.11v-129.227c0-34.453-14.996-67.199-41.082-89.706z"/></g><path d="m92.446 160.391-23.751.005c-9.513.002-17.227-7.708-17.229-17.221l-.004-18.021c-.002-9.513 7.708-17.227 17.221-17.229l23.751-.005z" fill="#fed2a4"/><path d="m391.881 418.766h67.856v81.295h-67.856z" fill="#ffe5c2"/><path d="m438.627 418.766h21.11v81.295h-21.11z" fill="#fed2a4"/><path d="m459.737 418.766v-33.931c0-18.738-15.19-33.928-33.928-33.928-18.738 0-33.928 15.19-33.928 33.928v33.931z" fill="#fe5694"/><path d="m425.809 350.907c-3.687 0-7.232.596-10.555 1.683 13.568 4.439 23.373 17.194 23.373 32.245v33.931h21.11v-33.931c0-18.738-15.19-33.928-33.928-33.928z" fill="#fd3581"/><path d="m504.5 106.069-.02 71.52c0 19.85-8.06 37.82-21.09 50.8-12.98 12.94-30.89 20.93-50.67 20.93h-31.48c-37.81-.01-68.45-30.67-68.45-68.48l.02-59.1v-15.71l23.79.01h.01c.01-.01.01 0 .01 0l126.77.03z" fill="#ffe5c2"/><path d="m332.81 106.029 23.79.01c-.49.38-10.61 8.03-23.79 15.7z" fill="#d19a6e"/><path d="m483.39 106.069v122.32c-12.98 12.94-30.89 20.93-50.67 20.93h-30.1v-55.85h21.11l.01-52.48h-21.11s-31.86-6.62-46.01-34.95z" fill="#fed2a4"/><path d="m374.532 36.94h71.659c32.203 0 58.31 26.106 58.31 58.31v211.776c0 5.97-4.839 10.809-10.809 10.809h-59.154c-5.97 0-10.809-4.839-10.809-10.809v-113.562l14.569-16.369-14.558-36.103s-31.87-6.626-46.009-34.963c0 0-25.951 19.766-49.514 27.979-6.7 2.335-13.694-2.692-13.694-9.787v-27.273c.001-33.141 26.867-60.008 60.009-60.008z" fill="#d19a6e"/><g><path d="m446.19 36.94h-21.11c32.204 0 58.31 26.106 58.31 58.31v211.776c0 5.97-4.839 10.809-10.809 10.809h21.11c5.969 0 10.809-4.839 10.809-10.809v-211.776c0-32.204-26.106-58.31-58.31-58.31z" fill="#c38c66"/></g><path d="m423.729 193.464 23.751.005c9.513.002 17.227-7.708 17.229-17.221l.004-18.021c.002-9.513-7.708-17.227-17.221-17.229l-23.751-.005z" fill="#ffe5c2"/><path d="m447.491 140.998-23.751-.005v.005l2.641.001c9.513.002 17.223 7.716 17.221 17.229l-.004 18.021c-.002 9.482-7.666 17.168-17.136 17.216l21.018.005c9.513.002 17.227-7.708 17.229-17.221l.004-18.021c.001-9.514-7.709-17.228-17.222-17.23z" fill="#fed2a4"/><path d="m264.611 221.153-11.611 9.756-11.611-9.756c-8.356-7.021-20.705-6.437-28.361 1.341-7.356 7.473-8.042 19.237-1.604 27.514l31.89 41.002c4.913 6.316 14.459 6.316 19.372 0l31.891-41.002c6.438-8.277 5.752-20.041-1.604-27.514-7.657-7.778-20.006-8.362-28.362-1.341z" fill="#fe5694"/><g><path d="m292.972 222.494c-6.813-6.921-17.335-8.129-25.459-3.369 1.558.912 3.027 2.025 4.349 3.369 7.356 7.473 8.042 19.237 1.604 27.514l-25.345 32.201c-2.087 2.683-5.012 4.215-8.061 4.618l3.253 4.183c4.913 6.316 14.459 6.316 19.372 0l31.891-41.002c6.438-8.277 5.752-20.042-1.604-27.514z" fill="#fd3581"/></g></g><g><path d="m135.88 253.475v-29.735c29.245 1.804 55.111-21.916 55.01-51.623l-.03-130.623c.07-19.795-16.628-37.175-37.081-37.055l-112.553.02c-10.747.007-20.277 4.668-26.831 13.127-6.791 8.761-10.23 20.997-10.225 36.365l.021 90.888c0 .025.003.049.004.074l.005 22.645c0 6.826 2.659 13.245 7.488 18.072 2.198 2.198 4.729 3.939 7.473 5.191 9.935 13.782 23.886 23.923 39.919 29.085v19.865l-19.857 13.356c-24.56 16.519-39.223 44.051-39.223 73.647v173.287c0 4.143 3.357 7.5 7.5 7.5s7.5-3.357 7.5-7.5v-173.287c-.38-26.822 15.435-51.771 38.61-65.246l53.929 30.826c3.959 2.107 9.952 3.5 16.483.403 5.229-2.658 8.738-7.726 9.388-13.554l.71-6.371 14.455 14.298c21.738 21.502 34.205 51.37 34.205 81.945v130.985c0 4.143 3.357 7.5 7.5 7.5s7.5-3.357 7.5-7.5v-130.984c0-34.555-14.09-68.31-38.656-92.609zm3.4-44.736-37.394.012c-4.143.002-7.499 3.361-7.497 7.503s3.359 7.497 7.5 7.497h.003l18.987-.006v23.645l-46.8-9.724v-23.416c.003-3.211-2.284-6.531-5.746-7.292-10.034-2.414-19.218-7.192-26.903-13.848 10.188 1.066 21.835-4.005 26.766-14.006l5.689-11.208 18.562-.004c4.142-.001 7.499-3.359 7.498-7.502-.001-4.142-3.358-7.498-7.5-7.498 0 0-.001 0-.002 0l-23.751.005c-.002 0-.002 0-.003 0-5.36 0-9.723-4.361-9.725-9.723l-.004-18.021c-.001-2.597 1.011-5.039 2.847-6.877 1.837-1.837 4.278-2.849 6.877-2.85l23.751-.006c4.142-.001 7.499-3.359 7.498-7.502 0-.032-.004-.064-.005-.096v-25.059l33.211 8.929c13.539 4.012 30.139.883 42.723-6.556l.024 82.884c-9.401 4.678-18.054-2.608-19.123-3.562-3.053-2.77-7.771-2.559-10.565.48-2.802 3.051-2.6 7.795.451 10.598 4.641 4.385 16.467 10.563 27.156 8.738-5.022 14.228-18.599 24.459-34.525 24.465zm-98.049-189.28 112.554-.02c10.853-.195 22.226 9.497 22.075 22.06v26.841c-11.308 6.28-25.027 13.029-38.823 8.866l-42.66-11.47c-2.248-.601-4.657-.129-6.511 1.291-1.851 1.419-2.937 3.619-2.937 5.952v27.442l-16.248.004c-6.604.001-12.812 2.574-17.481 7.245s-7.239 10.881-7.238 17.485l.004 18.021c.003 9.899 5.855 18.452 14.278 22.396l-3.427 6.751c-1.804 3.567-5.408 5.784-9.406 5.784h-15.659c-.003 0-.007 0-.01 0-2.812 0-5.457-1.096-7.448-3.087-1.995-1.994-3.094-4.645-3.094-7.466l-.03-113.61c-.007-21.585 8.241-34.477 22.061-34.485zm75.995 259.927c-.426.216-1.282.496-2.243-.055l-47.485-27.143.646-.435 52.03 10.81-1.671 14.979c-.123 1.102-.854 1.629-1.277 1.844z"/><path d="m124.293 446.24c-4.143 0-7.5 3.357-7.5 7.5v46.321c0 4.143 3.357 7.5 7.5 7.5s7.5-3.357 7.5-7.5v-46.321c0-4.143-3.357-7.5-7.5-7.5z"/><path d="m90.365 310.335c-22.844 0-41.428 18.584-41.428 41.428v148.299c0 4.143 3.357 7.5 7.5 7.5s7.5-3.357 7.5-7.5v-73.796h60.355c4.143 0 7.5-3.357 7.5-7.5v-67.003c.001-22.844-18.583-41.428-41.427-41.428zm-26.427 100.93v-59.503c0-14.572 11.855-26.428 26.428-26.428s26.428 11.855 26.428 26.428v59.503z"/><path d="m425.81 343.407c-22.844 0-41.429 18.584-41.429 41.428v115.227c0 4.143 3.357 7.5 7.5 7.5s7.5-3.357 7.5-7.5v-73.796h52.856v73.796c0 4.143 3.357 7.5 7.5 7.5s7.5-3.357 7.5-7.5v-115.227c0-22.844-18.584-41.428-41.427-41.428zm-26.429 67.858v-26.431c0-14.572 11.855-26.428 26.429-26.428 14.572 0 26.428 11.855 26.428 26.428v26.431z"/><path d="m446.19 29.44h-71.659c-37.224 0-67.508 30.284-67.508 67.508v27.273c0 5.774 2.812 11.22 7.521 14.566 3.171 2.253 6.957 3.372 10.753 3.278l-.008 159.213c0 12.784 10.024 23.268 22.624 24.013l-9.385 11.119c-19.926 23.602-26.235 56.478-16.464 85.801l12.814 38.415v39.432c0 4.143 3.357 7.5 7.5 7.5s7.5-3.357 7.5-7.5v-40.649c0-.807-.13-1.608-.386-2.373l-13.199-39.568c-8.128-24.395-2.881-51.746 13.696-71.381l41.86-49.592 24.377-5.067v15.597c0 10.096 8.213 18.31 18.309 18.31h43.837c6.4 14.255 9.776 29.884 9.776 45.494v129.229c0 4.143 3.357 7.5 7.5 7.5s7.5-3.357 7.5-7.5v-129.229c0-15.517-2.938-31.052-8.545-45.541 9.67-.481 17.395-8.476 17.395-18.263v-211.775c.002-36.287-29.52-65.81-65.808-65.81zm-122.957 97.12c-.452-.321-1.21-1.052-1.21-2.339v-27.273c0-28.953 23.555-52.508 52.508-52.508h7.517c-10.79 17.796-11.875 46.777-11.869 57.823-7.001 5.086-27.672 18.901-44.429 24.664-1.17.408-2.077-.055-2.517-.367zm26.117 183.779c-4.995 0-9.06-4.064-9.06-9.06v-75.169c9.817 13.19 23.811 23.082 40 27.741v33.085l-19.754 23.403zm66.879-34.231-20.938 4.352v-23.897c1.629.341 18.63.253 20.938.257zm80.771 30.917c0 1.825-1.484 3.31-3.309 3.31h-59.154c-1.824 0-3.309-1.484-3.309-3.31v-78.444c0-4.143-3.357-7.5-7.5-7.5s-7.5 3.357-7.5 7.5v13.238h-14.986c-18.67-.005-35.398-8.457-46.587-21.725 8.63-2.34 14.498-7.608 14.869-7.949 3.051-2.803 3.251-7.547.448-10.597-2.802-3.053-7.547-3.25-10.597-.448-.069.063-6.234 5.5-13.551 5.074-3.543-7.722-5.534-16.298-5.534-25.334l.009-43.603c13.979-6.267 27.361-14.929 35.128-20.311 16.748 24.805 45.22 31.08 46.76 31.402.306.032.244.109 1.587.163l23.715.005c2.598.001 5.04 1.013 6.876 2.85 1.837 1.838 2.848 4.279 2.847 6.877l-.004 18.021c-.001 5.362-4.363 9.724-9.725 9.724-.001 0-.001 0-.002 0l-23.751-.006c-.001 0-.001 0-.002 0-4.142 0-7.499 3.356-7.5 7.498-.001 4.143 3.356 7.501 7.498 7.502l23.751.006h.006c6.603 0 12.811-2.57 17.479-7.238 4.671-4.669 7.244-10.877 7.245-17.481l.004-18.021c.002-6.604-2.568-12.813-7.237-17.485-4.669-4.671-10.878-7.244-17.481-7.245l-22.866-.005c-4.213-1.077-27.877-7.991-39.425-29.381-.026-3.607.06-12.585 1.297-22.617 1.962-15.921 6.021-27.761 11.43-33.339 2.458-2.536 5.085-3.717 8.268-3.717h39.994c28.017 0 50.81 22.793 50.81 50.81v211.776z"/><path d="m259.787 215.411-6.787 5.702-6.787-5.702c-11.273-9.473-28.199-8.674-38.53 1.822-9.953 10.111-10.89 26.182-2.179 37.379l31.89 41.002c3.772 4.851 9.461 7.633 15.606 7.633s11.834-2.782 15.606-7.633l31.89-41.001c8.711-11.198 7.774-27.269-2.179-37.381-10.332-10.496-27.257-11.296-38.53-1.821zm28.869 29.992-31.89 41.002c-1.247 1.603-2.896 1.842-3.767 1.842s-2.52-.239-3.767-1.842l-31.89-41.003c-4.113-5.286-3.671-12.873 1.028-17.646 2.6-2.641 6.081-3.98 9.573-3.98 3.062 0 6.132 1.03 8.619 3.12l11.611 9.756c2.789 2.344 6.859 2.344 9.648 0l11.611-9.756c5.323-4.473 13.314-4.096 18.192.859 4.703 4.774 5.146 12.361 1.032 17.648z"/><circle cx="372.745" cy="167.217" r="7.5"/><circle cx="151.71" cy="125.163" r="7.5"/></g></g></svg>