<svg id="Capa_1" enable-background="new 0 0 511.998 511.998" height="512" viewBox="0 0 511.998 511.998" width="512" xmlns="http://www.w3.org/2000/svg"><g><g><path d="m33.473 498.201-18.872-20.553c-5.969-5.969-5.969-15.648 0-21.617l75.723-73.745 41.319 41.319-25.746 25.746-7.701 3.956-2.909 6.654-17.485 17.485-7.861 1.308-2.744 9.297-11.981 11.981c-.547.547-1.125 1.044-1.729 1.49-5.983 4.43-14.592 2.102-20.014-3.321z" fill="#857e87"/><path d="m42.795 490.84c4.48 4.48 7.99 7.99 10.69 10.68-5.98 4.43-14.47 3.93-19.89-1.49l-21.61-21.61c-5.97-5.97-5.97-15.65 0-21.62l11.979-11.981 6.913-.979 3.691-9.626 17.484-17.486 6.972-1.038 3.637-9.572 25.743-25.747 9.2 9.2-69.56 69.55c-4.69 4.69-4.69 12.29 0 16.97z" fill="#6f6571"/><path d="m461.985 438.63c-16.477-6.613-34.345-7.185-51.448-7.21-17.297-.025-33.829.573-50.482 7.28l-4.412-25.243 4.342-27.997c16.8 6.782 34.382 6.306 51.829 6.231 17.001-.073 33.867.428 50.242-6.161 8.619 16.6 8.589 36.52-.071 53.1z" fill="#f8f7f7"/><path d="m315.675 316.68-30.5 1.607-5.28 6.143-47.09 10.2c-25.17 5.45-48.23 18.03-66.44 36.24l-21.92 21.92-22.722-23.094 21.92-21.92c18.21-18.21 31.146-40.192 36.596-65.362l17.564-83.606 23.612 23.612-11.335 43.75-.257 10.1-5.317 24.701c-.76 3.51 2.33 6.65 5.85 5.95l25.39-4.999 9.43-.102 45.02-10.619z" fill="#ffd064"/><path d="m315.675 316.68-35.78 7.75c-15.91-4.87-30.74-12.42-44.15-22.51l54.45-10.72z" fill="#edc258"/><path d="m221.415 222.42-14.08-14.08-12-12-7.79 35.94c.001.003.002.007.003.01l-10.163 46.92c-5.45 25.17-18.03 48.23-36.24 66.44l-21.92 21.92 12 12 21.92-21.92c18.21-18.21 30.79-41.27 36.24-66.44l5.416-25.004c.764-3.527 5.434-4.316 7.314-1.236 2.367 3.877 4.934 7.648 7.707 11.3z" fill="#edc258"/><path d="m449.43 62.584c44.725 44.725 36.397 125.826-18.564 180.786-48.953 49.45-129.881 67.278-180.787 18.564-44.725-44.725-36.397-125.826 18.564-180.786 19.954-19.953 43.352-33.761 67.205-41.114 18.628-5.743 37.532-7.549 55.289-5.274 22.135 2.837 42.486 12.017 58.293 27.824z" fill="#f8f7f7"/><path d="m132.526 428.744-49.606-49.174c-4.298-4.298-4.298-11.268 0-15.566l9.021-8.739c4.298-4.298 11.268-4.298 15.566 0l1.09.243 49.318 49.318c4.298 4.298 4.298 11.268 0 15.566l-8.244 8.244-1.579.108c-4.298 4.298-11.267 4.298-15.566 0z" fill="#ffe07d"/><path d="m149.671 428.636-1.406 1.414c-4.3 4.29-11.27 4.29-15.57 0l-50.73-50.73c-4.29-4.3-4.29-11.27 0-15.57l9.66-9.65c4.3-4.3 11.27-4.3 15.56 0l1.41 1.41-11.071 11.07c-2.734 2.734-2.734 7.165 0 9.899z" fill="#ffd064"/><path d="m462.055 385.53c-33.18 13.35-68.9 13.32-102.07-.07 2.65-5.08 6.717-8.658 10.977-12.918 3.161-3.159 6.609-5.9 10.245-8.17 2.64-1.649 7.575-5.408 7.575-5.408 20.886-8.738 45.879-4.609 62.883 12.387 4.28 4.279 7.74 9.069 10.39 14.179z" fill="#8ce1a4"/><path d="m461.985 438.63c-2.31 4.419-5.233 8.608-8.768 12.426 0 0-1.249.81-1.779 1.34-22.46 22.45-57.058 21.042-79.518-1.408-4.22-4.23-9.225-7.259-11.865-12.289 33.12-13.339 68.79-13.369 101.93-.069z" fill="#8ce1a4"/><path d="m384.205 431.42c-4.743.966-7.161 8.955-11.838 10.441-3.359 1.067-8.997-4.495-12.312-3.161-8.71-16.62-8.73-36.6-.07-53.24 1.739.701 7.121-2.439 8.871-1.812 2.92 1.047 2.218 5.794 5.169 6.632-1.58 11.67.43 23.74 6.03 34.42 1.21 2.31 2.59 4.56 4.15 6.72z" fill="#e8e8e8"/><path d="m388.782 358.963c-3.55 3.84-6.477 8.047-8.797 12.497-3.1 5.95-5.08 12.32-5.96 18.82-4.72-1.34-9.4-2.95-14.04-4.82 2.65-5.08 6.1-9.85 10.36-14.11 5.46-5.45 11.737-9.587 18.437-12.387z" fill="#7ad396"/><path d="m453.217 451.056c-.5.54-1.022 1.083-1.553 1.613-22.46 22.45-58.86 22.45-81.32 0-4.22-4.23-7.65-8.94-10.29-13.97 7.93-3.19 16-5.62 24.15-7.28 1.81 2.54 3.86 4.96 6.14 7.25 17.001 16.991 41.993 21.117 62.873 12.387z" fill="#7ad396"/><path d="m467.705 44.31c-15.17-15.18-33.56-25.59-53.59-31.37-9.4-2.71-20.11-2.71-30.07-3.4-46.18-3.17-94.35 18.57-133.17 57.38-65.04 65.04-72.99 156.46-17.7 211.75 15.18 14.56 31.37 25.1 49.54 30.94 6.7 2.15 20.09 5.72 20.09 5.72 51.97 8.05 108.45-13.61 147.23-52.79 65.04-65.04 72.97-162.94 17.67-218.23zm-40.72 195.18c-46.61 47.08-123.66 64.05-172.13 17.67-42.58-42.58-34.65-119.8 17.67-172.13 19-18.99 41.28-32.14 63.99-39.14 17.74-5.47 35.73-7.19 52.64-5.02 21.07 2.7 40.45 11.44 55.5 26.49 42.58 42.58 34.65 119.8-17.67 172.13z" fill="#ffe07d"/><path d="m414.865 13.17c-53.1-15.67-117.98 1.4-165.39 48.81-65.04 65.04-72.97 162.94-17.67 218.23 20.89 20.03 45.6 31.26 71.4 35.18-19.22-5.69-37.43-15.87-53.4-31.18-55.3-55.29-47.37-153.19 17.67-218.23 42.17-42.17 98.17-60.34 147.39-52.81z" fill="#ffd064"/></g><g><path d="m220.642 173.984c-3.576 34.835 6.691 66.257 28.913 88.478 53.383 50.861 135.476 30.206 182.731-17.675 55.252-55.252 63.181-137.225 17.675-182.732-45.507-45.505-127.48-37.576-182.733 17.675-26.524 26.524-43.069 59.998-46.586 94.254zm80.682-102.976 18.239 18.239-19.573 19.573c-.662-.612-19.401-19.544-20.303-20.297 6.841-6.624 14.101-12.465 21.637-17.515zm113.492-15.281-23.621 23.621-20.259-20.259 11.4-11.4c11.445.814 22.424 3.476 32.48 8.038zm49.516 74.059c-.679.408-10.336 10.306-11.403 11.296l-20.26-20.259 23.62-23.62c4.576 10.085 7.24 21.1 8.043 32.583zm-15.392 67.625-15.563-15.563 30.321-30.321c-1.909 15.332-6.865 30.959-14.758 45.884zm-6.619-45.722-19.551 19.551-20.259-20.259 19.551-19.551zm-52.622 107.112-16.638-16.638 19.414-19.414 19.958 20.003c-7.063 6.022-14.701 11.417-22.734 16.049zm-27.246-27.245-20.259-20.259 19.448-19.448 20.237 20.282zm-45.373 45.404c-11.124-.835-22.016-3.503-32.289-8.26l16.027-16.027 20.259 20.259-3.707 3.707c-.104.104-.195.214-.29.321zm14.604-14.635-20.259-20.259 20.162-20.162 20.259 20.259zm-96.479-67.505 3.879-3.879 20.259 20.259-16.127 16.127c-4.498-9.912-7.204-20.859-8.011-32.507zm10.855-58.442 13.186 13.186-23.388 23.388c1.543-12.435 5.005-24.747 10.202-36.574zm3.632 43.955 20.162-20.162 20.259 20.259-20.162 20.162zm91.726-29.993 19.619-19.619 20.259 20.259-19.642 19.641zm9.629 30.89-19.46 19.46-20.259-20.259 19.483-19.483zm-20.225-41.509-20.237-20.282 19.585-19.585 20.259 20.259zm-10.608 10.607-19.494 19.495-20.259-20.259 19.517-19.517zm-19.494 40.71 20.259 20.259-20.162 20.162-20.259-20.259zm71.53-9.797 19.653-19.653 20.259 20.259-19.676 19.676zm19.653-40.868-20.259-20.259 19.551-19.551 20.26 20.259zm-30.866-30.867-20.259-20.259 19.55-19.55 20.259 20.259zm-30.867-30.866-15.569-15.569c14.927-7.894 30.558-12.85 45.896-14.758zm-60.568 20.963 19.781 19.825-19.529 19.529-16.657-16.657c4.613-7.984 10.048-15.653 16.237-22.884.057.062.108.127.168.187zm-18.681 141.233 19.029-19.029 20.259 20.259-18.903 18.903c-3.872-2.694-7.615-5.744-11.204-9.172-3.393-3.401-6.453-7.067-9.181-10.961zm87.943 35.524 23.589-23.589 13.175 13.175c-11.871 5.252-24.301 8.846-36.764 10.414zm84.495-43.895-20.278-20.323 19.688-19.688 18.234 18.234c-5.082 7.587-10.967 14.894-17.644 21.777zm25.232-148.779-26.53 26.529-20.26-20.259 26.53-26.53c3.894 2.727 7.583 5.798 11.021 9.236 3.44 3.438 6.512 7.128 9.239 11.024z"/><path d="m473.014 39.002c-22.839-22.838-52.984-36.188-87.177-38.605-33.19-2.349-67.261 5.744-98.517 23.399-3.606 2.037-4.879 6.612-2.842 10.219 2.038 3.607 6.613 4.88 10.219 2.842 59.229-33.456 126.627-28.331 167.71 12.752 52.369 52.369 44.44 145.509-17.702 207.651-54.223 54.925-147.322 75.754-207.652 17.592-56.099-58.778-40.014-149.161 17.73-207.568 3.928-3.929 8.066-7.72 12.301-11.269 3.174-2.661 3.59-7.392.93-10.566-2.66-3.173-7.39-3.589-10.566-.93-4.568 3.83-9.033 7.92-13.271 12.157-39.787 39.788-58.988 91.462-56.399 139.153l-17.719 81.793c-5.157 23.808-16.987 45.496-34.213 62.721l-15.901 15.901-7.45-7.45c-7.215-7.215-18.956-7.214-26.173.001l-9.652 9.653c-3.496 3.495-5.421 8.143-5.421 13.086 0 4.201 1.402 8.18 3.964 11.428l-68.533 68.533c-8.883 8.884-8.883 23.339 0 32.224l21.618 21.617c4.441 4.441 10.276 6.662 16.111 6.662s11.67-2.221 16.112-6.662l68.532-68.532c3.342 2.629 7.381 3.955 11.427 3.955 4.739 0 9.479-1.804 13.087-5.411l9.652-9.653c3.496-3.495 5.421-8.143 5.421-13.087 0-4.943-1.925-9.591-5.42-13.086l-7.45-7.45 15.901-15.901c11.824-11.825 25.655-21.063 41.108-27.459 3.827-1.584 5.646-5.971 4.062-9.798-1.583-3.828-5.969-5.647-9.798-4.062-17.284 7.153-32.754 17.486-45.979 30.712l-15.9 15.901-14.613-14.613 15.901-15.901c19.266-19.267 32.498-43.524 38.266-70.152l10.156-46.881c2.851 8.612 6.532 16.911 11.066 24.775l-8.737 40.552c-.895 4.155.35 8.446 3.329 11.479 2.499 2.048 6.164 4.533 11.414 3.531l41.898-8.229c7.828 4.481 16.063 8.167 24.625 11.037l-36.43 7.891c-4.048.877-6.619 4.87-5.742 8.918.761 3.514 3.868 5.914 7.323 5.914 1.977.085 70.606-15.3 72.582-15.549 49.989 2.833 102.572-19.422 139.137-56.397 67.963-67.964 75.892-170.619 17.675-228.838zm-372.419 405.046-32.626-32.627 17.75-17.75 32.626 32.627zm-28.092 28.093-32.627-32.627 17.485-17.485 32.626 32.627zm-22.588 22.588c-3.037 3.035-7.976 3.035-11.011 0l-21.617-21.616c-3.035-3.036-3.035-7.976 0-11.011l11.98-11.98 32.627 32.627zm102.699-79.641-9.652 9.653c-1.367 1.367-3.593 1.367-4.96 0l-50.727-50.727c-.894-.894-1.026-1.937-1.026-2.479s.133-1.585 1.027-2.479l9.652-9.653c1.367-1.367 3.593-1.367 4.96 0l50.727 50.727c.894.894 1.026 1.937 1.026 2.479 0 .541-.133 1.584-1.027 2.479zm60.021-116.255 4.993-23.171c5.055 6.264 11.008 12.335 18.76 18.506z"/><path d="m365.046 366.046c-12.277 12.277-19.039 28.601-19.039 45.962 0 17.362 6.762 33.686 19.038 45.963 12.672 12.671 29.317 19.007 45.962 19.007s33.29-6.336 45.961-19.007c12.277-12.277 19.039-28.601 19.039-45.963 0-17.361-6.762-33.685-19.038-45.962-25.345-25.343-66.58-25.343-91.923 0zm45.961-4.014c12.804 0 25.607 4.873 35.355 14.621 1.348 1.348 2.598 2.765 3.77 4.233-7.367 2.741-14.897 4.71-22.475 5.872-4.095.627-6.905 4.454-6.277 8.549.567 3.71 3.763 6.365 7.403 6.365.378 0 .761-.028 1.146-.088 9.389-1.438 18.693-3.982 27.751-7.544 2.176 5.658 3.327 11.723 3.327 17.968 0 6.297-1.17 12.411-3.382 18.11-30.286-11.874-62.932-11.85-93.21.068-2.229-5.718-3.408-11.856-3.408-18.178 0-6.269 1.16-12.356 3.353-18.034 9.287 3.667 18.834 6.261 28.47 7.694.374.055.745.082 1.112.082 3.653 0 6.855-2.675 7.408-6.398.609-4.097-2.218-7.912-6.315-8.521-7.795-1.159-15.538-3.174-23.109-6.002 1.159-1.447 2.396-2.845 3.726-4.176 9.748-9.748 22.551-14.621 35.355-14.621zm35.355 85.331c-19.494 19.496-51.214 19.496-70.71 0-1.286-1.286-2.485-2.634-3.611-4.029 25.401-9.424 52.571-9.443 77.978-.056-1.14 1.415-2.354 2.783-3.657 4.085z"/></g></g></svg>