<svg id="Capa_1" enable-background="new 0 0 512 512" height="512" viewBox="0 0 512 512" width="512" xmlns="http://www.w3.org/2000/svg"><g><g><g><path d="m298.36 25.989v-8.489c0-5.523-4.477-10-10-10h-62.217c-5.523 0-10 4.477-10 10v8.489c0 16.729-13.562 30.291-30.291 30.291h-47.469c-19.485 0-35.28 15.795-35.28 35.28v35.76h308.297v-35.76c0-19.485-15.795-35.28-35.28-35.28h-47.469c-16.729 0-30.291-13.562-30.291-30.291z" fill="#fed2a4"/></g><g><path d="m241.103 25.989v-8.489c0-5.523 4.477-10 10-10h-24.96c-5.523 0-10 4.477-10 10v8.489c0 16.729-13.562 30.291-30.291 30.291h24.96c16.729 0 30.291-13.562 30.291-30.291z" fill="#ffbd86"/></g><g><path d="m410.441 83.4h-263.111c-9.91 0-14.356-12.329-6.802-18.745 6.149-5.224 14.113-8.375 22.815-8.375h-24.96c-19.485 0-35.28 15.795-35.28 35.28v35.76h308.297v-35.76c0-2.81-.338-5.54-.959-8.16z" fill="#ffbd86"/></g><g><path d="m436.04 504.5h-360.08c-11.046 0-20-8.954-20-20v-358.06c0-11.046 8.954-20 20-20h360.08c11.046 0 20 8.954 20 20v358.06c0 11.046-8.954 20-20 20z" fill="#42c3fc"/></g><g><path d="m80.92 484.5v-358.06c0-11.046 8.954-20 20-20h-24.96c-11.046 0-20 8.954-20 20v358.06c0 11.046 8.954 20 20 20h24.96c-11.046 0-20-8.954-20-20z" fill="#1aa9e8"/></g><g><g><path d="m377.927 213.417c-5.548-4.108-13.414-2.859-17.778 2.49l-6.854 8.403c-1.694 2.076-4.231 3.281-6.911 3.281h-73.664v-30.623h53.678c6.286 0 12.169-2.793 16.144-7.664l11.202-13.733c4.605-5.645 3.604-14.032-2.32-18.418-5.548-4.108-13.414-2.859-17.778 2.491l-6.854 8.402c-1.694 2.076-4.231 3.281-6.911 3.281h-47.161v-17.42c0-8.852-7.176-16.028-16.028-16.028h-1.478c-8.852 0-16.028 7.176-16.028 16.028v17.42h-47.161c-2.68 0-5.217-1.205-6.911-3.281l-7.083-8.682c-4.605-5.646-13.024-6.35-18.51-1.427-5.138 4.61-5.494 12.566-1.131 17.915l10.974 13.453c3.974 4.87 9.857 7.664 16.143 7.664h53.678v30.623h-73.665c-2.68 0-5.217-1.205-6.911-3.281l-7.083-8.682c-4.605-5.646-13.024-6.35-18.51-1.427-5.138 4.61-5.494 12.566-1.131 17.914l10.974 13.453c3.973 4.87 9.857 7.664 16.143 7.664h80.182v42.623h-40.602c-2.68 0-5.217-1.205-6.911-3.281l-7.083-8.682c-4.605-5.646-13.024-6.35-18.51-1.427-5.138 4.61-5.494 12.566-1.131 17.914l10.974 13.453c3.973 4.87 9.857 7.664 16.143 7.664h47.119v37.261c-8.801-7.297-20.351-11.392-32.871-10.493-23.626 1.697-41.88 20.643-42.769 44.313-.989 26.335 20.067 47.995 46.182 47.995 4.879 0 9.579-.758 13.993-2.161 5.084-1.616 10.366 2.188 10.345 7.524-.034 8.687 4.12 16.854 11.156 21.943l4.281 3.097c3.844 2.78 9.037 2.78 12.881 0l4.792-3.466c6.9-4.991 10.528-13.068 10.646-21.583.074-5.319 5.255-9.132 10.345-7.514 4.413 1.403 9.114 2.161 13.992 2.161 26.114 0 47.17-21.659 46.182-47.994-.888-23.67-19.141-42.617-42.767-44.315-12.512-.899-24.056 3.19-32.856 10.479v-37.248h47.119c6.286 0 12.169-2.793 16.144-7.665l11.202-13.733c4.605-5.645 3.604-14.032-2.32-18.418-5.548-4.108-13.414-2.859-17.778 2.491l-6.854 8.402c-1.694 2.076-4.231 3.281-6.911 3.281h-40.597v-42.623h80.182c6.286 0 12.169-2.793 16.144-7.664l11.202-13.733c4.604-5.644 3.603-14.031-2.321-18.417zm-168.199 196.866c-8.795 0-15.925-7.13-15.925-15.925s7.13-15.925 15.925-15.925 15.925 7.13 15.925 15.925c.001 8.795-7.129 15.925-15.925 15.925zm92.432-31.851c8.795 0 15.925 7.13 15.925 15.925s-7.13 15.925-15.925 15.925-15.925-7.13-15.925-15.925 7.13-15.925 15.925-15.925z" fill="#e9efff"/></g></g><g><path d="m272.72 227.591h19.16v25.641h-19.16z" fill="#d3dcfb"/></g><g><path d="m220.025 227.591h19.161v25.641h-19.161z" fill="#d3dcfb"/></g><g><path d="m272.72 171.328h19.16v25.641h-19.16z" fill="#d3dcfb"/></g><g><path d="m220.025 171.328h19.161v25.641h-19.161z" fill="#d3dcfb"/></g><g><path d="m272.72 295.855h19.16v25.641h-19.16z" fill="#d3dcfb"/></g><g><path d="m220.025 295.855h19.161v25.641h-19.161z" fill="#d3dcfb"/></g><g><path d="m248.179 368.732c1.672 2.504 4.445 4.049 7.455 4.049h.62c3.011 0 5.784-1.545 7.456-4.049 2.507-3.755 5.548-7.121 9.015-9.992-.002.001-.004.003-.006.004v-21.257c-6.045 2.745-11.698 6.318-16.775 10.656-5.073-4.334-10.721-7.904-16.759-10.648v21.262c-.001-.001-.002-.002-.004-.003 3.46 2.868 6.495 6.23 8.998 9.978z" fill="#d3dcfb"/></g><g><path d="m261.998 467.878c-7.036-5.088-11.19-13.256-11.156-21.943.021-5.335-5.261-9.14-10.345-7.524-2.838.902-5.796 1.534-8.843 1.873 1.474 1.415 2.422 3.393 2.413 5.651-.034 8.687 4.12 16.854 11.156 21.943l4.281 3.097c3.844 2.78 9.037 2.78 12.881 0l1.947-1.408z" fill="#d3dcfb"/></g><g><path d="m180.322 392.578c.825-21.969 16.612-39.858 37.766-43.675-3.784-.692-7.727-.929-11.773-.639-23.626 1.697-41.88 20.643-42.769 44.313-.989 26.335 20.067 47.995 46.182 47.995 2.872 0 5.679-.269 8.405-.772-22.086-4.042-38.692-23.771-37.811-47.222z" fill="#d3dcfb"/></g></g><g><path d="m436.04 98.94h-17.14v-7.38c0-23.589-19.191-42.779-42.78-42.779h-47.469c-12.567 0-22.791-10.225-22.791-22.792v-8.489c0-9.649-7.851-17.5-17.5-17.5h-62.217c-9.649 0-17.5 7.851-17.5 17.5v8.488c0 12.567-10.225 22.792-22.792 22.792h-47.469c-23.589 0-42.779 19.19-42.779 42.779v7.381h-19.643c-15.163 0-27.5 12.337-27.5 27.5v200.32c0 4.143 3.357 7.5 7.5 7.5s7.5-3.357 7.5-7.5v-200.32c0-6.893 5.607-12.5 12.5-12.5h360.08c6.893 0 12.5 5.607 12.5 12.5v70.527c0 4.143 3.357 7.5 7.5 7.5s7.5-3.357 7.5-7.5v-70.527c0-15.163-12.337-27.5-27.5-27.5zm-325.437-7.38c0-15.317 12.462-27.779 27.779-27.779h47.469c20.839 0 37.792-16.953 37.792-37.792v-8.489c0-1.379 1.121-2.5 2.5-2.5h62.217c1.379 0 2.5 1.121 2.5 2.5v8.488c0 20.839 16.953 37.792 37.791 37.792h47.469c15.318 0 27.78 12.462 27.78 27.779v7.381h-293.297z"/><path d="m456.04 220.092c-4.143 0-7.5 3.357-7.5 7.5v256.908c0 6.893-5.607 12.5-12.5 12.5h-360.08c-6.893 0-12.5-5.607-12.5-12.5v-126.06c0-4.143-3.357-7.5-7.5-7.5s-7.5 3.357-7.5 7.5v126.06c0 15.163 12.337 27.5 27.5 27.5h360.08c15.163 0 27.5-12.337 27.5-27.5v-256.908c0-4.143-3.358-7.5-7.5-7.5z"/><path d="m165.521 220.092c-.428 0-.829-.19-1.1-.522l-7.083-8.682c-3.493-4.283-8.658-6.986-14.171-7.415-5.592-.444-10.976 1.393-15.159 5.146-8.084 7.254-8.934 19.657-1.934 28.238l10.975 13.453c5.405 6.624 13.406 10.423 21.954 10.423h72.682v27.623h-33.102c-.428 0-.829-.19-1.1-.522l-7.083-8.682c-3.493-4.284-8.659-6.986-14.171-7.415-5.606-.436-10.977 1.393-15.159 5.146-8.084 7.254-8.934 19.657-1.934 28.238l10.975 13.453c5.405 6.624 13.406 10.423 21.954 10.423h39.619v16.377c-7.998-3.589-16.882-5.241-25.907-4.589-27.32 1.962-48.697 24.108-49.727 51.513-.554 14.748 4.768 28.712 14.984 39.319 10.221 10.612 23.962 16.457 38.692 16.457 5.548 0 11.021-.846 16.265-2.514.061-.018.216-.066.417.082.158.116.157.209.157.265-.044 11.073 5.287 21.56 14.261 28.05l4.28 3.096c3.241 2.344 7.038 3.517 10.836 3.516 3.798 0 7.595-1.172 10.835-3.515l4.793-3.466c8.582-6.207 13.594-16.251 13.75-27.556.001-.069.004-.254.216-.406.171-.125.282-.091.357-.065 5.245 1.668 10.718 2.514 16.265 2.514 14.729 0 28.471-5.844 38.691-16.455 10.217-10.607 15.539-24.57 14.986-39.319-.25-6.651-1.681-13.094-4.251-19.146-1.619-3.814-6.027-5.588-9.835-3.972-3.812 1.619-5.591 6.022-3.972 9.835 1.854 4.367 2.887 9.025 3.067 13.846.399 10.638-3.437 20.706-10.799 28.351-7.368 7.648-17.272 11.861-27.889 11.861-4.003 0-7.945-.608-11.72-1.809-4.688-1.491-9.671-.692-13.673 2.191-3.967 2.858-6.375 7.481-6.443 12.366-.091 6.52-2.84 12.209-7.542 15.609l-4.793 3.466c-1.223.885-2.866.885-4.091 0l-4.28-3.096c-5.065-3.664-8.075-9.585-8.051-15.837.019-4.944-2.27-9.469-6.278-12.413-3.979-2.923-9.155-3.776-13.84-2.287-3.774 1.2-7.718 1.809-11.721 1.809-10.617 0-20.521-4.213-27.889-11.862-7.363-7.645-11.198-17.713-10.798-28.352.741-19.745 16.137-35.7 35.811-37.114 13.935-1.002 27.358 5.572 35.089 17.152 3.087 4.623 8.206 7.384 13.693 7.384h.62c5.488 0 10.607-2.761 13.692-7.385 7.731-11.579 21.187-18.143 35.091-17.151 6.328.455 12.473 2.442 17.769 5.747 3.516 2.194 8.141 1.122 10.333-2.392 2.193-3.514 1.122-8.141-2.392-10.333-7.36-4.594-15.879-7.354-24.635-7.983-9.019-.652-17.898.998-25.894 4.582v-16.37h39.619c8.549 0 16.551-3.8 21.955-10.424l11.202-13.732c3.494-4.282 5.104-9.885 4.417-15.371-.696-5.565-3.568-10.472-8.085-13.815-8.729-6.463-21.052-4.805-28.052 3.777l-6.854 8.401c-.271.333-.673.523-1.101.523h-33.103v-27.623h72.682c8.549 0 16.551-3.8 21.955-10.424l11.202-13.732c3.494-4.283 5.104-9.887 4.417-15.372-.697-5.565-3.568-10.471-8.085-13.814-8.728-6.463-21.052-4.804-28.052 3.777l-6.854 8.401c-.271.333-.673.523-1.101.523h-66.165v-15.623h11.661c4.143 0 7.5-3.357 7.5-7.5s-3.357-7.5-7.5-7.5h-11.661v-10.641h39.662c4.954 0 9.591-2.202 12.722-6.041l6.854-8.402c1.896-2.323 5.265-2.861 7.505-1.204 1.188.881 1.943 2.167 2.126 3.624.183 1.458-.228 2.889-1.155 4.025l-11.201 13.732c-2.545 3.118-6.311 4.906-10.333 4.906h-9.438c-4.143 0-7.5 3.357-7.5 7.5s3.357 7.5 7.5 7.5h9.438c8.547 0 16.55-3.799 21.955-10.424l11.202-13.733c3.494-4.283 5.104-9.886 4.416-15.371-.697-5.564-3.567-10.471-8.085-13.815-8.73-6.462-21.052-4.802-28.052 3.778l-6.854 8.403c-.271.331-.671.521-1.099.521h-39.662v-9.92c0-12.974-10.555-23.528-23.528-23.528h-1.478c-12.974 0-23.528 10.555-23.528 23.528v9.92h-39.661c-.428 0-.829-.19-1.1-.522l-7.082-8.682c-3.493-4.283-8.658-6.986-14.171-7.415-5.595-.441-10.976 1.393-15.159 5.146-8.084 7.252-8.934 19.656-1.934 28.237l10.974 13.454c5.405 6.624 13.407 10.423 21.955 10.423h46.178v15.623zm-6.518 25.64c-4.022 0-7.788-1.788-10.331-4.905l-10.975-13.453c-1.896-2.323-1.748-5.729.328-7.591 1.101-.988 2.513-1.466 3.978-1.356 1.466.114 2.783.804 3.712 1.942l7.083 8.682c3.131 3.839 7.769 6.041 12.723 6.041h66.164v10.641h-72.682zm33.063 68.264c-4.022 0-7.788-1.788-10.331-4.905l-10.975-13.453c-1.896-2.322-1.748-5.728.328-7.591 1.103-.988 2.508-1.466 3.979-1.356 1.465.114 2.782.804 3.711 1.942l7.083 8.682c3.131 3.839 7.769 6.041 12.723 6.041h33.102v10.641h-39.62zm121.256-10.641c4.953 0 9.59-2.201 12.723-6.04l6.854-8.403c1.896-2.323 5.263-2.861 7.503-1.204 1.189.881 1.944 2.168 2.127 3.624.183 1.458-.228 2.888-1.156 4.025l-11.203 13.733c-2.543 3.118-6.31 4.906-10.332 4.906h-39.619v-10.641zm33.062-68.263c4.953 0 9.59-2.201 12.723-6.04l6.854-8.403c1.896-2.323 5.264-2.861 7.503-1.204 1.189.881 1.944 2.167 2.127 3.624.183 1.458-.229 2.888-1.156 4.025l-11.202 13.732c-2.543 3.118-6.31 4.906-10.332 4.906h-72.682v-10.641h66.165zm-91.171-89.712h1.478c4.702 0 8.528 3.826 8.528 8.528v201.49c-2.887 2.73-5.494 5.795-7.748 9.171-.298.445-.753.712-1.217.712h-.62c-.465 0-.92-.267-1.219-.713-2.249-3.369-4.851-6.429-7.73-9.154v-201.506c0-4.702 3.826-8.528 8.528-8.528zm-69.706 44.089c-4.022 0-7.789-1.788-10.332-4.904l-10.974-13.453c-1.895-2.324-1.748-5.729.328-7.593 1.101-.987 2.511-1.465 3.978-1.355 1.465.114 2.782.804 3.711 1.942l7.083 8.682c3.131 3.839 7.769 6.041 12.723 6.041h39.661v10.641h-46.178z"/><path d="m302.16 370.933c-12.916 0-23.425 10.509-23.425 23.425 0 12.917 10.509 23.426 23.425 23.426s23.425-10.509 23.425-23.426c-.001-12.917-10.509-23.425-23.425-23.425zm0 31.85c-4.646 0-8.425-3.78-8.425-8.426s3.779-8.425 8.425-8.425 8.425 3.779 8.425 8.425-3.78 8.426-8.425 8.426z"/><path d="m186.303 394.357c0 12.917 10.509 23.426 23.425 23.426 12.917 0 23.426-10.509 23.426-23.426 0-12.916-10.509-23.425-23.426-23.425-12.916.001-23.425 10.509-23.425 23.425zm31.851 0c0 4.646-3.779 8.426-8.426 8.426-4.646 0-8.425-3.78-8.425-8.426s3.779-8.425 8.425-8.425c4.647.001 8.426 3.78 8.426 8.425z"/><path d="m122.86 130.38h-18.32c-9.649 0-17.5 7.851-17.5 17.5v18.32c0 4.143 3.357 7.5 7.5 7.5s7.5-3.357 7.5-7.5v-18.32c0-1.379 1.121-2.5 2.5-2.5h18.32c4.143 0 7.5-3.357 7.5-7.5s-3.358-7.5-7.5-7.5z"/><path d="m424.96 147.88c0-9.649-7.851-17.5-17.5-17.5h-18.32c-4.143 0-7.5 3.357-7.5 7.5s3.357 7.5 7.5 7.5h18.32c1.379 0 2.5 1.121 2.5 2.5v18.32c0 4.143 3.357 7.5 7.5 7.5s7.5-3.357 7.5-7.5z"/><path d="m417.46 437.24c-4.143 0-7.5 3.357-7.5 7.5v18.319c0 1.379-1.121 2.5-2.5 2.5h-18.32c-4.143 0-7.5 3.357-7.5 7.5s3.357 7.5 7.5 7.5h18.32c9.649 0 17.5-7.851 17.5-17.5v-18.319c0-4.142-3.357-7.5-7.5-7.5z"/><path d="m87.04 463.06c0 9.649 7.851 17.5 17.5 17.5h18.32c4.143 0 7.5-3.357 7.5-7.5s-3.357-7.5-7.5-7.5h-18.32c-1.379 0-2.5-1.121-2.5-2.5v-18.32c0-4.143-3.357-7.5-7.5-7.5s-7.5 3.357-7.5 7.5z"/></g></g></svg>