<svg id="Layer_1" enable-background="new 0 0 512 512" height="512" viewBox="0 0 512 512" width="512" xmlns="http://www.w3.org/2000/svg"><g><path clip-rule="evenodd" d="m420 234.309c0 19.309-1.003 39.37-2.884 60.058-2.006 20.688-5.768 41-11.284 60.81-5.517 19.81-13.04 38.617-22.819 56.547-9.655 17.804-22.193 33.477-37.489 46.768s-33.979 23.948-55.92 31.722c-21.943 7.899-47.772 11.786-77.739 11.786-10.532 0-20.939-.752-31.471-2.257-10.406-1.379-19.811-3.26-28.462-5.391-8.526-2.257-15.798-4.639-21.817-7.022-6.018-2.508-10.407-5.015-13.04-7.523-2.758-2.633-4.765-6.269-5.893-11.159-1.254-4.89-1.881-11.786-1.881-20.563 0-8.15.126-14.544.502-19.435.376-4.89 1.128-8.776 2.257-11.409 1.129-2.758 2.508-4.514 4.013-5.392 1.63-.752 3.511-1.254 5.768-1.254 2.884 0 7.147.878 12.538 2.633 5.391 1.63 11.911 3.636 19.685 5.893 7.774 2.131 16.551 4.137 26.331 5.767 9.78 1.755 20.813 2.633 32.85 2.633 20.563 0 37.991-3.636 52.285-11.033 14.168-7.397 25.703-17.303 34.606-29.841 8.902-12.538 15.297-27.082 19.56-43.508 4.137-16.425 6.52-33.728 7.021-51.908-11.284 7.147-24.951 13.29-40.875 18.556s-34.23 7.899-54.792 7.899c-25.328 0-46.768-3.26-64.321-9.905-17.679-6.645-32.098-16.174-43.132-28.587-11.034-12.538-19.058-27.584-24.073-45.514-5.016-17.802-7.524-37.989-7.524-60.432 0-23.822 3.511-45.639 10.658-65.575 7.147-19.81 17.679-37.113 31.596-51.657s31.346-25.829 52.159-33.853c20.813-8.151 44.887-12.163 72.346-12.163 22.067 0 41.376 2.508 57.801 7.649 16.55 5.141 30.719 12.538 42.63 22.067s21.817 21.19 29.716 34.731c8.025 13.541 14.293 28.713 18.807 45.389 4.514 16.55 7.648 34.605 9.529 53.914 1.881 19.308 2.758 39.495 2.758 60.559zm-95.541-13.667c0-26.079-1.505-47.896-4.388-65.324-3.009-17.554-7.398-31.596-13.291-42.003s-13.29-17.93-22.067-22.318-19.184-6.52-30.969-6.52c-11.535 0-21.44 2.006-29.716 6.018-8.401 4.012-15.297 9.655-20.813 16.927-5.517 7.398-9.655 15.923-12.413 25.954-2.633 10.031-4.012 20.939-4.012 32.85 0 12.915 1.129 24.324 3.511 34.104 2.257 9.905 6.018 18.055 11.034 24.449 5.015 6.52 11.535 11.284 19.685 14.419 8.15 3.134 17.929 4.764 29.465 4.764 14.168 0 27.71-2.132 40.248-6.394 12.662-4.262 23.946-9.904 33.726-16.926z" fill="#ff5a58" fill-rule="evenodd"/><g><path d="m315.482 108.389c-6.912-12.207-15.76-21.068-26.297-26.336-10.053-5.026-21.977-7.575-35.442-7.575-13.005 0-24.471 2.361-34.025 6.994-9.75 4.657-17.983 11.354-24.52 19.972-6.381 8.556-10.973 18.133-14.039 29.28-.01.038-.021.076-.03.114-1.983 7.556-3.302 15.583-3.918 23.858-.411 5.507 3.721 10.305 9.229 10.716 5.506.394 10.305-3.722 10.716-9.229.525-7.044 1.637-13.843 3.304-20.21 2.393-8.679 5.917-16.063 10.723-22.507 4.604-6.07 10.216-10.632 17.208-13.973 6.865-3.328 15.395-5.016 25.353-5.016 10.332 0 19.247 1.838 26.498 5.464 6.918 3.459 12.919 9.616 17.837 18.302 5.226 9.228 9.309 22.27 12.126 38.708 2.624 15.855 4.045 35.486 4.233 58.416-7.931 5.106-16.959 9.379-26.925 12.734-11.44 3.89-23.898 5.861-37.029 5.861-10.1 0-18.805-1.379-25.876-4.099-1.328-.511-2.616-1.081-3.827-1.695-4.925-2.495-10.944-.527-13.441 4.398-2.497 4.926-.528 10.944 4.398 13.441 1.816.92 3.731 1.77 5.691 2.522 9.37 3.604 20.491 5.432 33.055 5.432 15.325 0 29.949-2.33 43.438-6.916 13.625-4.588 25.862-10.738 36.369-18.28 2.617-1.879 4.168-4.902 4.168-8.124 0-26.296-1.521-48.823-4.532-67.014-3.264-19.039-7.989-33.838-14.445-45.238z"/><path d="m427.195 172.779c-1.962-20.143-5.271-38.841-9.829-55.557-4.75-17.546-11.43-33.653-19.822-47.815-8.576-14.7-19.378-27.317-32.106-37.5-12.948-10.357-28.395-18.368-45.892-23.803-17.183-5.377-37.635-8.104-60.787-8.104-28.647 0-54.214 4.323-75.943 12.831-22.165 8.546-40.934 20.748-55.787 36.271-14.775 15.44-26.139 34.005-33.784 55.196-7.462 20.811-11.245 44.01-11.245 68.95 0 23.295 2.657 44.54 7.893 63.127 5.348 19.121 14.162 35.751 26.229 49.464 12.051 13.558 27.893 24.09 47.065 31.297 18.5 7.002 41.332 10.553 67.862 10.553 21.578 0 41.069-2.828 57.932-8.405 9.664-3.195 18.555-6.729 26.597-10.564-1.114 10.955-2.976 21.642-5.563 31.909-4.083 15.729-9.982 28.89-18.034 40.231-8 11.268-18.167 20.022-31.048 26.749-12.711 6.578-28.756 9.914-47.688 9.914-11.476 0-21.934-.833-31.083-2.476-.041-.007-.082-.015-.123-.021-8.603-1.434-17.101-3.293-25.26-5.528-6.086-1.768-11.365-3.37-16.025-4.784l-3.377-1.024c-6.412-2.08-11.494-3.092-15.535-3.092-3.48 0-6.831.731-9.957 2.174-.289.133-.571.28-.846.44-3.503 2.041-6.262 5.463-8.202 10.171-1.551 3.651-2.533 8.397-3.002 14.502-.367 4.774-.531 11.005-.531 20.202 0 9.684.708 17.187 2.164 22.929 1.542 6.593 4.47 11.984 8.714 16.036 3.53 3.359 8.792 6.471 16.09 9.511.055.022.109.045.164.066 6.669 2.641 14.387 5.127 22.939 7.391.056.015.111.029.167.043 9.912 2.442 19.558 4.271 29.487 5.588 11.084 1.582 21.827 2.351 32.838 2.351 31.454 0 57.99-4.049 81.077-12.36 22.934-8.125 42.832-19.429 59.14-33.599 16.126-14.011 29.49-30.682 39.71-49.528 9.951-18.245 17.917-37.979 23.673-58.652 5.641-20.255 9.545-41.292 11.61-62.588 1.941-21.354 2.925-41.864 2.925-60.964-.002-21.715-.945-42.417-2.807-61.532zm-20.031 120.623c-1.947 20.077-5.636 39.959-10.965 59.093-5.35 19.211-12.74 37.528-21.977 54.463-9.085 16.753-20.947 31.553-35.257 43.985-14.408 12.519-32.14 22.56-52.749 29.861-20.634 7.429-45.649 11.196-74.35 11.196-10.07 0-19.902-.705-30.057-2.156-.034-.005-.067-.01-.101-.014-9.187-1.218-18.118-2.908-27.3-5.168-7.723-2.047-14.629-4.267-20.528-6.597-6.402-2.674-8.956-4.593-9.899-5.491-1.405-1.342-2.404-3.361-3.053-6.175-.019-.078-.038-.157-.058-.235-.715-2.788-1.567-8.188-1.567-18.078 0-8.665.146-14.422.473-18.668.405-5.269 1.168-7.514 1.477-8.235.022-.051.043-.103.065-.154.064-.158.125-.297.182-.42.11-.008.223-.012.342-.012.671 0 3.337.154 9.443 2.142.067.022.134.043.202.063l3.458 1.049c4.733 1.437 10.098 3.065 16.332 4.875.048.014.096.027.144.04 8.817 2.418 17.992 4.43 27.271 5.978 10.296 1.845 21.922 2.779 34.555 2.779 22.163 0 41.3-4.089 56.913-12.169 15.564-8.126 28.394-19.201 38.131-32.916 9.353-13.173 16.446-28.913 21.103-46.854 4.343-17.239 6.806-35.433 7.32-54.074.102-3.694-1.841-7.144-5.054-8.97-3.214-1.826-7.171-1.732-10.292.245-10.362 6.562-23.37 12.453-38.665 17.511-14.833 4.906-32.212 7.394-51.652 7.394-24.103 0-44.553-3.115-60.803-9.266-16.124-6.062-29.304-14.766-39.143-25.834-10.174-11.562-17.354-25.169-21.955-41.618-4.744-16.84-7.149-36.261-7.149-57.723 0-22.633 3.389-43.561 10.065-62.182 6.685-18.53 16.582-34.727 29.415-48.138 12.804-13.381 29.132-23.957 48.58-31.455 19.442-7.614 42.556-11.474 68.698-11.474 21.124 0 39.566 2.42 54.834 7.198 15.123 4.697 28.362 11.536 39.35 20.326 10.8 8.641 19.994 19.394 27.36 32.02 7.506 12.667 13.48 27.102 17.763 42.922 4.268 15.649 7.371 33.229 9.223 52.253 1.799 18.473 2.712 38.521 2.712 59.59-.001 18.498-.957 38.399-2.837 59.093z"/><path d="m190.299 190.33h-.007c-5.523 0-9.996 4.478-9.996 10s4.48 10 10.003 10 10-4.478 10-10-4.477-10-10-10z"/></g></g></svg>