<svg id="Capa_1" enable-background="new 0 0 511.983 511.983" height="512" viewBox="0 0 511.983 511.983" width="512" xmlns="http://www.w3.org/2000/svg"><g><g><path d="m388.94 26.619 14.158 12.889-12.236 405.359c-1.003 33.212-28.219 59.616-61.452 59.616-33.232 0-60.449-26.404-61.452-59.616l-12.213-404.636 14.136-13.612c-.083-2.745 33.365 6.889 63.983 6.317 26.437-.493 55.159-9.059 55.076-6.317z" fill="#ffe179"/><g><path d="m396.198 13.051c-7.208 2.191-12.979-1.039-22.324.736l-13.013 431.08c-.846 28.044-20.384 51.232-46.452 57.77 4.804 1.205 9.829 1.846 15 1.846 33.232 0 60.449-26.404 61.451-59.616l12.236-405.359-1.733-22.497c.085-2.742-2.539-4.758-5.165-3.96z" fill="#fbd268"/></g><path d="m398.773 7.659c-16.328 4.962-38.472 9.784-64.91 10.277-30.618.572-56-4.868-73.808-10.276-2.628-.798-5.257 1.213-5.175 3.958l.864 28.612c16.243 5.69 41.804 12.503 73.667 12.357 31.936-.146 57.484-7.225 73.686-13.08l.842-27.888c.084-2.742-2.54-4.758-5.166-3.96z" fill="#eaf6ff"/><path d="m394.753 8.838c.776-.109-11.394 3.145-20.878 4.949l-1.034 34.254c12.098-2.498 22.309-5.661 30.258-8.534l.842-27.888c.083-2.742-2.541-4.758-5.167-3.96-1.309.398-2.679.797-4.021 1.179z" fill="#d8ecfe"/><path d="m117.834 392.989c-10.827-8.637-12.975-24.247-4.884-35.487l183.104-254.349 64.849 51.733-207.378 234.984c-9.164 10.384-24.864 11.756-35.691 3.119z" fill="#fef0ae"/><path d="m330.903 147.207-207.378 234.984c-2.737 3.102-6.06 5.393-9.659 6.86 1.158 1.424 2.477 2.749 3.968 3.938 10.827 8.637 26.527 7.265 35.691-3.119l207.378-234.984z" fill="#fee97d"/><ellipse cx="329.41" cy="127.337" fill="#fbd268" rx="42.98" ry="42.974"/><path d="m329.41 84.363c-5.277 0-10.329.956-15 2.695 16.34 6.086 27.981 21.821 27.981 40.279s-11.641 34.193-27.981 40.279c4.671 1.74 9.723 2.695 15 2.695 23.737 0 42.981-19.24 42.981-42.974 0-23.733-19.243-42.974-42.981-42.974z" fill="#f9cb64"/><ellipse cx="329.41" cy="442.796" fill="#fbd268" rx="30.598" ry="30.593"/><path d="m329.41 412.203c-5.452 0-10.567 1.432-15 3.931 9.308 5.246 15.598 15.217 15.598 26.662s-6.29 21.416-15.598 26.662c4.433 2.499 9.548 3.931 15 3.931 16.899 0 30.598-13.697 30.598-30.593s-13.699-30.593-30.598-30.593z" fill="#f9cb64"/></g><path d="m329.41 404.703c-21.007 0-38.098 17.088-38.098 38.093s17.09 38.093 38.098 38.093 38.098-17.088 38.098-38.093-17.09-38.093-38.098-38.093zm0 61.185c-12.736 0-23.098-10.359-23.098-23.093s10.362-23.093 23.098-23.093 23.098 10.359 23.098 23.093-10.362 23.093-23.098 23.093zm67.186-465.402c-20.434 6.207-41.586 9.554-62.87 9.948-24.222.461-48.277-2.896-71.488-9.947-7.43-2.257-15.132 3.638-14.858 11.362l4.233 140.198-57.704 80.156c-2.42 3.361-1.657 8.049 1.705 10.469 3.333 2.399 8.03 1.683 10.469-1.705l74.025-102.826c5.072 23.161 26.026 40.272 50.59 39.637l-182.792 207.129c-6.532 7.395-17.686 8.369-25.392 2.223-7.712-6.152-9.241-17.241-3.48-25.245l66.583-92.488c2.42-3.361 1.657-8.049-1.705-10.469s-8.048-1.656-10.469 1.705l-66.583 92.489c-10.437 14.501-7.669 34.59 6.301 45.734 13.903 11.091 34.11 9.421 45.99-4.021l96.492-109.339 4.817 159.592c.9 36.526 32.117 66.895 68.947 66.895 36.448 0 68.028-30.379 68.957-66.894l2.34-77.551c.125-4.141-3.13-7.599-7.271-7.724-4.134-.104-7.598 3.131-7.723 7.271l-2.34 77.55c-.892 29.354-24.596 52.348-53.963 52.348-29.144 0-53.084-23.265-53.954-52.347l-5.3-175.583 89.282-101.169c12.402-9.205 20.456-23.952 20.456-40.547 0-27.831-22.646-50.474-50.48-50.474-21.61 0-40.085 13.651-47.271 32.778l-16.125 22.398-2.458-81.406c22.776 6.797 46.449 9.955 70.247 9.392 20.873-.494 41.532-3.856 61.47-10.004l-8.507 281.997c-.125 4.141 3.13 7.599 7.271 7.724.077.002.154.003.23.003 4.037 0 7.37-3.211 7.492-7.273l9.672-320.604c.308-7.74-7.472-13.619-14.836-11.382zm-67.186 91.378c19.564 0 35.48 15.913 35.48 35.474s-15.917 35.474-35.48 35.474-35.48-15.913-35.48-35.474 15.916-35.474 35.48-35.474zm66.344-57.746c-20.033 6.709-40.844 10.368-61.949 10.903-24.078.611-47.843-2.82-70.726-10.238l-.561-18.583c23.277 6.577 47.299 9.683 71.487 9.232 21.05-.391 41.977-3.492 62.289-9.228z"/></g></svg>