<svg id="Capa_1" enable-background="new 0 0 512 512" height="512" viewBox="0 0 512 512" width="512" xmlns="http://www.w3.org/2000/svg"><g><g><path d="m334.997 262.986h-13.509v140.181h10.425l5.867-4.483v-133.424z" fill="#dbedff"/><path d="m322.078 402.565v-139.579h-13.429l-2.274 2.274v133.424l3.663 4.483h12.531z" fill="#b5dcff"/><path d="m294.069 186.113 5.657-14.071-.466-3.244-46.16-19.412-4.812 1.281-5.916 13.706z" fill="#b5dcff"/><path d="m242.827 163.319-5.789 13.41 1.5 2.516 48.681 20.472 2.257-2.175 5.022-12.494z" fill="#8bcaff"/><path d="m348.997 213.417h-26.2l-.905 1.698v40.609c0 4.458 2.912 8.233 6.937 9.536h12.219c5.434 0 9.839-4.405 9.839-9.839v-39.856z" fill="#b5dcff"/><path d="m322.078 255.42v-39.856l1.144-2.147h-28.809l-1.144 2.147v39.856c0 5.434 4.406 9.839 9.84 9.839h28.809c-5.435.001-9.84-4.405-9.84-9.839z" fill="#8bcaff"/><path d="m341.047 398.684h-17.366c-3.401 1.698-5.744 5.198-5.744 9.258v32.178l.171.173h31.368l1.411-1.693v-30.075c-.001-5.435-4.406-9.841-9.84-9.841z" fill="#8479c2"/><path d="m318.102 439.627v-31.41c0-4.409 2.826-8.148 6.761-9.533h-21.755c-5.434 0-9.84 4.406-9.84 9.84v30.556l1.197 1.213h24.293z" fill="#6e60b8"/><path d="m89.079 121.219 130.266 36.123c11.406 3.163 23.193 1.399 32.883-4.199 4.138-14.503-.74-30.425-12.98-40.048l-119.245-93.746h-5.507l-7.5 63.151-20 17.63-3.829 7.533c-.453 3.186-1.087 6.256-1.827 9.216 2.113 1.978 4.721 3.504 7.739 4.34z" fill="#ffc365"/><g><path d="m217.448 155.9-125.892-34.91c-4.046-1.122-7.346-3.512-9.635-6.594-1.88 8.487-4.79 16.064-7.747 22.233-4.415 9.212.588 20.17 10.432 22.899l114.876 31.855c17.208 4.772 35.408-3.157 43.631-19.009l6.321-12.184c1.816-3.502 3.035-7.177 3.684-10.899-9.985 7.375-23.068 10.104-35.67 6.609z" fill="#ffa90f"/></g><path d="m109.411 11.022c-9.078-7.137-22.496-2.933-25.863 8.112-4.519 14.83-7.954 35.743-2.087 57.555 2.926 10.876 3.07 21.389 1.707 30.975l17.512-10.61c10.891-6.599 16.667-19.036 15.022-31.664-2.58-19.803 1.135-36.367 4.302-46.041z" fill="#ffdda8"/><path d="m339.075 164.752c-10.412 6.285-17.387 17.686-17.387 30.734s6.975 24.449 17.387 30.734c10.806-5.989 18.124-17.505 18.124-30.734s-7.318-24.746-18.124-30.734z" fill="#60b9fe"/><path d="m322.078 195.486c0-12.998 7.066-24.337 17.561-30.411-5.167-2.99-11.161-4.71-17.561-4.71-19.397 0-35.121 15.724-35.121 35.121s15.724 35.121 35.121 35.121c6.399 0 12.393-1.72 17.561-4.71-10.496-6.074-17.561-17.414-17.561-30.411z" fill="#1ca8ff"/><path d="m420.573 465.745h-24.055c-13.139 0-23.881-10.344-30.211-18.32-4.558-5.743-11.492-9.076-18.823-9.076h-18.582c-8.205 1.971-14.988 8.083-17.648 16.376l-8.762 27.316c-1.951 6.083-.479 12.744 3.854 17.438 2.245 2.432 5.107 4.142 8.234 5.021h105.993c10.702 0 19.378-8.676 19.378-19.378s-8.676-19.377-19.378-19.377z" fill="#6e60b8"/><path d="m303.142 481.826 8.585-26.765c3.194-9.958 12.455-16.714 22.913-16.714h-35.5c-10.458 0-19.719 6.755-22.913 16.714l-8.585 26.765c-1.912 5.96-.469 12.487 3.776 17.086 3.288 3.562 7.915 5.588 12.763 5.588h35.5c-4.848 0-9.475-2.026-12.763-5.588-4.245-4.599-5.688-11.126-3.776-17.086z" fill="#6e60b8"/><path d="m303.142 481.826 8.585-26.765c3.194-9.958 12.455-16.714 22.913-16.714h-35.5c-10.458 0-19.719 6.755-22.913 16.714l-8.585 26.765c-1.912 5.96-.469 12.487 3.776 17.086 3.288 3.562 7.915 5.588 12.763 5.588h35.5c-4.848 0-9.475-2.026-12.763-5.588-4.245-4.599-5.688-11.126-3.776-17.086z" fill="#6353b2"/></g><path d="m67.158 133.389c-6.43 13.418.846 29.389 15.191 33.368l114.877 31.855c15.114 4.189 31.379.133 42.877-10.468l40.196 16.904c1.051 4.564 2.828 8.852 5.218 12.729v37.642c0 8.099 5.588 14.898 13.105 16.795v119.514c-7.517 1.897-13.105 8.697-13.105 16.794v25.301c-7.779 3.629-13.928 10.353-16.684 18.946l-8.585 26.765c-5.13 15.993 6.801 32.465 23.681 32.465h44.128c4.143 0 7.5-3.357 7.5-7.5s-3.357-7.5-7.5-7.5h-44.128c-6.69 0-11.437-6.53-9.397-12.883l8.585-26.766c2.266-7.065 8.768-11.503 15.771-11.503h48.344c4.821 0 9.683 2.124 12.948 6.238 7.661 9.652 20.14 21.158 36.086 21.158h24.055c6.55 0 11.878 5.328 11.878 11.877 0 6.55-5.328 11.878-11.878 11.878h-57.264c-4.143 0-7.5 3.357-7.5 7.5s3.357 7.5 7.5 7.5h57.264c14.82 0 26.878-12.058 26.878-26.878s-12.058-26.877-26.878-26.877h-24.055c-10.482 0-19.747-9.7-24.336-15.482-3.661-4.612-8.436-8.018-13.796-9.982v-24.257c0-8.098-5.588-14.898-13.106-16.794v-42.257c0-4.143-3.357-7.5-7.5-7.5s-7.5 3.357-7.5 7.5v41.713h-16.405v-118.424h16.405v41.712c0 4.143 3.357 7.5 7.5 7.5s7.5-3.357 7.5-7.5v-42.256c7.518-1.897 13.106-8.697 13.106-16.795v-37.643c3.999-6.49 6.312-14.124 6.312-22.29 0-23.501-19.119-42.621-42.62-42.621-8.847 0-17.072 2.711-23.891 7.344l-37.053-15.581c.559-14.151-5.533-28.218-17.25-37.43-12.237-9.621-116.813-91.835-129.839-102.075-13.211-10.387-32.772-4.256-37.671 11.822-6.021 19.755-7.632 41.336-2.156 61.688 4.979 18.516 1.351 37.732-6.808 54.754zm273.636 272.796c1.29 0 2.34 1.049 2.34 2.339v22.325h-42.617v-22.325c0-1.29 1.049-2.339 2.339-2.339zm-37.939-148.425c-1.29 0-2.339-1.05-2.339-2.34v-23.034c13.211 7.631 29.449 7.613 42.617 0v23.034c0 1.29-1.05 2.34-2.34 2.34-11.764 0-26.222 0-37.938 0zm46.59-62.274c0 15.188-12.375 27.621-27.62 27.621-16.289 0-29.217-14.183-27.462-30.565 1.502-13.983 13.344-24.677 27.462-24.677 15.23 0 27.62 12.391 27.62 27.621zm-91.739-35.92 28.779 12.102c-3.461 5.127-5.759 11.088-6.715 16.886l-30.253-12.723c.001 0 .001-.001.001-.002 4.511-8.865 6.7-12.529 8.188-16.263zm-15.182-2.828-6.32 12.183c-6.549 12.627-21.258 19.036-34.97 15.236l-114.877-31.855c-5.236-1.451-8.122-7.32-5.672-12.431 3.577-7.464 7.139-16.901 9.076-27.586l14.553-8.817c13.32-8.07 20.61-23.397 18.572-39.047-1.61-12.364-.605-23.363 1.189-32.131l110.283 86.7c11.369 8.938 14.88 24.813 8.166 37.748zm-152.054-135.418c1.825-5.986 9.094-8.304 14.053-4.402l6.577 5.171c-3.006 10.97-5.417 26.387-3.088 44.27 1.271 9.758-3.231 19.289-11.471 24.281l-5.322 3.224c-.172-6.504-1.101-12.929-2.768-19.124-5.526-20.543-1.952-40.388 2.019-53.42z"/></g></svg>