<svg id="Capa_1" enable-background="new 0 0 512 512" height="512" viewBox="0 0 512 512" width="512" xmlns="http://www.w3.org/2000/svg"><g><g><path d="m288.041 73.45v84.75c0 37.29-30.23 67.52-67.52 67.52h-56.93c-37.29 0-67.52-30.23-67.52-67.52v-84.75z" fill="#f7f9fa"/><path d="m268.064 73.45v84.75c0 37.29-30.23 67.52-67.52 67.52h19.978c37.29 0 67.52-30.23 67.52-67.52v-84.75z" fill="#e9edf1"/><g><path d="m96.074 7.5v65.946h59.03v-6.916c0-32.601-26.429-59.03-59.03-59.03z" fill="#d19a6e"/><path d="m96.074 7.5v3.474c22.768 8.189 39.052 29.968 39.052 55.556v6.917h19.978v-6.917c0-32.601-26.429-59.03-59.03-59.03z" fill="#c38c66"/><path d="m288.042 7.5c-32.601 0-59.03 26.429-59.03 59.03v6.917h59.03z" fill="#5d5360"/><path d="m288.042 7.5c-7.013 0-13.737 1.23-19.978 3.474v62.473h19.978z" fill="#4b3f4e"/></g><g><path d="m442.961 194.78c-19.85 19.85-30.77 46.23-30.77 74.31v97.7c0 41.11-33.44 74.54-74.54 74.54h-28.92v-29.83h28.92c24.64 0 44.7-20.05 44.7-44.71v-97.7c0-4.48.22-8.93.64-13.33 3.03-31.01 16.56-59.76 38.88-82.08 5.82-5.82 15.27-5.82 21.09 0 5.83 5.82 5.83 15.27 0 21.1z" fill="#d19a6e"/></g><path d="m442.961 173.68c-5.285-5.285-13.554-5.754-19.389-1.441.591.437 1.165.906 1.701 1.441 5.83 5.82 5.83 15.27 0 21.1-19.85 19.85-30.77 46.23-30.77 74.31v97.7c0 41.11-33.44 74.54-74.54 74.54h17.689c41.1 0 74.54-33.43 74.54-74.54v-97.7c0-28.08 10.92-54.46 30.77-74.31 5.829-5.83 5.829-15.28-.001-21.1z" fill="#c38c66"/><path d="m192.058 225.718c50.801 0 91.982 41.182 91.982 91.982v186.8h-183.964v-186.799c0-50.801 41.182-91.983 91.982-91.983z" fill="#f7f9fa"/><path d="m116.88 292.286v167.594c-14.794 7.329-24.155 22.412-24.155 38.923v5.697h79.355v-212.214z" fill="#e9edf1"/><path d="m192.058 225.718c-3.376 0-6.707.187-9.989.542 46.101 4.979 81.993 44.016 81.993 91.441v186.799h19.978v-186.799c0-50.801-41.181-91.983-91.982-91.983z" fill="#e9edf1"/><path d="m442.961 194.78c-19.85 19.85-30.77 46.23-30.77 74.31v2.19c-9.81-5.22-20.12-10.69-29.2-15.52 3.03-31.01 16.56-59.76 38.88-82.08 5.82-5.82 15.27-5.82 21.09 0 5.83 5.82 5.83 15.27 0 21.1z" fill="#5d5360"/><path d="m442.961 173.68c-5.285-5.285-13.554-5.754-19.389-1.441.591.437 1.165.906 1.701 1.441 5.83 5.82 5.83 15.27 0 21.1-18.171 18.171-28.852 41.815-30.53 67.225 5.757 3.058 11.687 6.208 17.449 9.275v-2.19c0-28.08 10.92-54.46 30.77-74.31 5.829-5.83 5.829-15.28-.001-21.1z" fill="#4b3f4e"/><g><path d="m298.358 504.5h-51.1v-166.995h32.785c21.764 0 39.407 17.643 39.407 39.407v106.496c0 11.649-9.443 21.092-21.092 21.092z" fill="#e9edf1"/><path d="m280.043 337.505h-19.978c21.764 0 39.407 17.643 39.407 39.407v106.496c0 11.648-9.443 21.092-21.092 21.092h19.978c11.649 0 21.092-9.443 21.092-21.092v-106.496c0-21.764-17.643-39.407-39.407-39.407z" fill="#c8d2dc"/><path d="m136.861 337.51v166.99h-51.1c-11.65 0-21.09-9.44-21.09-21.09v-106.5c0-21.76 17.64-39.4 39.4-39.4z" fill="#e9edf1"/><path d="m116.88 504.5h19.978v-166.995h-19.978" fill="#e9edf1"/><path d="m136.861 337.51v166.99h-44.14v-5.7c0-8.26 2.34-16.15 6.53-22.9s10.23-12.36 17.63-16.02v-122.37z" fill="#c8d2dc"/></g><path d="m136.858 292.286v167.594c-14.794 7.329-24.155 22.412-24.155 38.923v5.697h79.355v-212.214z" fill="#f7f9fa"/><path d="m172.081 292.286h19.978v212.214h-19.978z" fill="#e9edf1"/><path d="m247.258 292.286v167.594c14.794 7.329 24.155 22.412 24.155 38.923v5.697h-79.355v-212.214z" fill="#f7f9fa"/><path d="m247.258 459.88v-167.594h-19.978v167.594c14.794 7.329 24.155 22.412 24.155 38.923v5.697h19.978v-5.697c0-16.51-9.36-31.593-24.155-38.923z" fill="#e9edf1"/><path d="m288.041 73.45v67.52l-36.71-17.61c-13.64-6.55-22.32-20.34-22.32-35.47v-14.44z" fill="#5d5360"/><path d="m268.064 73.45v57.937l19.977 9.583v-67.52z" fill="#4b3f4e"/></g><g><path d="m130.796 154.716v6.764c0 4.143 3.358 7.5 7.5 7.5s7.5-3.357 7.5-7.5v-6.764c0-4.143-3.358-7.5-7.5-7.5s-7.5 3.357-7.5 7.5z"/><path d="m253.32 161.479v-6.764c0-4.143-3.358-7.5-7.5-7.5s-7.5 3.357-7.5 7.5v6.764c0 4.143 3.358 7.5 7.5 7.5s7.5-3.357 7.5-7.5z"/><path d="m192.058 345.023c-4.142 0-7.5 3.357-7.5 7.5v85.671c0 4.143 3.358 7.5 7.5 7.5s7.5-3.357 7.5-7.5v-85.671c0-4.142-3.358-7.5-7.5-7.5z"/><path d="m178.48 162.082h6.078v28.983c0 4.143 3.358 7.5 7.5 7.5s7.5-3.357 7.5-7.5v-28.983h6.078c4.142 0 7.5-3.357 7.5-7.5s-3.358-7.5-7.5-7.5h-27.156c-4.142 0-7.5 3.357-7.5 7.5s3.358 7.5 7.5 7.5z"/><path d="m448.264 168.376c-8.738-8.736-22.957-8.736-31.696 0-27.034 27.072-41.484 62.05-41.717 100.714v97.7c0 15.051-8.992 28.536-22.909 34.354-3.821 1.599-5.624 5.992-4.026 9.813s5.992 5.625 9.813 4.025c19.513-8.159 32.122-27.076 32.122-48.193 0 0 .011-98.489.014-98.883 0 0 10.87 5.776 14.826 7.879v91.003c0 36.966-30.074 67.04-67.04 67.04h-10.7v-56.92c0-21.895-15.086-40.329-35.41-45.47v-13.738c0-37.443-20.797-70.116-51.444-87.088 31.901-8.634 55.444-37.818 55.444-72.412l.001-150.7c0-4.143-3.358-7.5-7.5-7.5-36.491 0-66.201 29.533-66.516 65.95h-31.034c-4.142 0-7.5 3.357-7.5 7.5s3.358 7.5 7.5 7.5h31.018v6.939c0 17.903 10.431 34.479 26.576 42.233l32.454 15.568v12.51c0 33.095-26.925 60.02-60.02 60.02h-56.93c-33.095 0-60.02-26.925-60.02-60.02v-77.25h51.533c4.142 0 7.5-3.357 7.5-7.5 0-.001 0-.001 0-.002s0-.001 0-.002v-6.916c0-36.685-29.845-66.53-66.53-66.53-4.142 0-7.5 3.357-7.5 7.5l-.003 150.7c0 34.595 23.545 63.78 55.447 72.413-30.649 16.972-51.447 49.645-51.447 87.087v13.736c-20.321 5.142-35.405 23.579-35.405 45.476v106.496c0 15.766 12.826 28.592 28.591 28.592h212.604c15.765 0 28.59-12.825 28.59-28.59v-34.58h10.7c45.237 0 82.04-36.803 82.04-82.04v-95.51c-.041-17.594 3.259-34.051 13.087-51.089 4.214-7.257 9.395-14.016 15.486-20.107v-.001c4.236-4.236 6.568-9.867 6.568-15.856.002-5.993-2.332-11.623-6.567-15.851zm-167.722-152.832v50.402h-44.027c.285-25.605 19.343-46.786 44.027-50.402zm-25.964 101.056c-10.975-5.271-18.066-16.54-18.066-28.71v-6.94h44.03v48.104zm-151.004-101.056c24.684 3.616 43.742 24.797 44.026 50.402h-44.026zm208.377 467.866c0 7.493-6.096 13.59-13.59 13.59h-19.506c-.593-17.175-9.592-32.609-24.097-41.531v-163.183c0-4.143-3.358-7.5-7.5-7.5s-7.5 3.357-7.5 7.5v167.595c0 2.851 1.616 5.455 4.171 6.721 11.786 5.839 19.303 17.374 19.94 30.398h-64.311v-23.569c0-4.143-3.358-7.5-7.5-7.5s-7.5 3.357-7.5 7.5v23.569h-64.311c.637-13.024 8.154-24.56 19.94-30.398 2.555-1.266 4.171-3.87 4.171-6.721v-167.595c0-4.143-3.358-7.5-7.5-7.5s-7.5 3.357-7.5 7.5v163.183c-14.505 8.922-23.504 24.357-24.097 41.531h-19.503c-7.494 0-13.591-6.098-13.591-13.592v-106.496c.267-20.983 18.434-34.025 38.537-31.907 4.142 0 7.5-3.357 7.5-7.5s-3.358-7.5-7.5-7.5h-3.132v-12.305c0-46.583 37.902-84.48 84.49-84.48 46.583 0 84.48 37.897 84.48 84.48v12.31h-3.28c-4.142 0-7.5 3.357-7.5 7.5s3.358 7.5 7.5 7.5h6.78c17.595 0 31.91 14.311 31.91 31.9v106.5zm127.847-298.446c-.206 1.204-.469 2.782-2.139 4.513-17.472 17.466-30.231 41.928-32.527 69.556-1.256-.666-11.803-6.272-14.093-7.489 3.523-25.88 15.338-51.972 36.135-72.56 2.891-2.889 7.594-2.89 10.489.004 1.4 1.397 2.171 3.259 2.171 5.239-.001.247-.013.493-.036.737z"/></g></g></svg>