<svg id="Capa_1" enable-background="new 0 0 512 512" height="512" viewBox="0 0 512 512" width="512" xmlns="http://www.w3.org/2000/svg"><g><g><g><path d="m425.06 494.819h-205.805l-11.976-.632c-38.186 0-64.662-32.065-64.662-70.251l-1.787-108.753c0-7.18 3.6-13 10.78-13s13 5.82 13 13v110.385c0 23.849 19.402 43.251 43.251 43.251h217.199c.605 0 1.203-.03 1.793-.09 8.939-.902 18.509-8.47 18.509-17.643 0-8.843-9.075-16.196-17.552-17.521-.897-.14-1.815-.213-2.75-.213h-144.081l-12.498-.905c-24.206 0-40.715-18.789-40.715-42.995 0-24.207 16.509-43.197 40.715-43.197l11.732-.703h112.01c.523 0 1.035-.048 1.532-.141 3.879-.722 8.479-3.178 8.479-7.262l.298-28.098c0-7.18 3.869-13 11.048-13s13 5.82 13 13v27.145c0 18.944-15.413 34.356-34.357 34.356h-123.742c-9.87 0-17.899 8.03-17.899 17.9s8.03 17.899 17.899 17.899h156.579c24.115 0 43.734 19.619 43.734 43.734s-19.62 43.734-43.734 43.734z" fill="#f8f7f7"/></g><path d="m222.86 494.82h-15c-38.18 0-69.25-31.07-69.25-69.25v-110.39c0-7.18 5.82-13 13-13 2.79 0 5.38.88 7.5 2.39-3.33 2.34-5.5 6.22-5.5 10.61v110.39c0 38.18 31.07 69.25 69.25 69.25z" fill="#e8e8e8"/><path d="m171.547 329.851h-17.937l-20.461-1.681c-2.761 0-5-2.239-5-5l-.255-26.119h48.654v27.8c-.001 2.761-2.239 5-5.001 5z" fill="#e8e8e8"/><path d="m153.61 297.051v32.799h-21.63c-2.76 0-5-2.24-5-5v-27.799z" fill="#d8d8d8"/><g fill="#e8e8e8"><path d="m283.48 433.35h-15c-24.21 0-43.9-19.69-43.9-43.9 0-24.2 19.69-43.9 43.9-43.9h15c-24.21 0-43.9 19.7-43.9 43.9 0 24.21 19.69 43.9 43.9 43.9z"/><path d="m421.08 299.43c-3.33 2.35-5.5 6.23-5.5 10.62v27.15c0 4.6-3.75 8.35-8.36 8.35h-15c4.61 0 8.36-3.75 8.36-8.35v-27.15c0-7.18 5.82-13 13-13 2.79 0 5.38.88 7.5 2.38z"/><path d="m457.79 451.09c0 9.77-7.95 17.73-17.73 17.73h-15c9.78 0 17.73-7.96 17.73-17.73 0-9.78-7.95-17.74-17.73-17.74h15c9.78 0 17.73 7.96 17.73 17.74z"/></g><path d="m272.064 298.106-239.915-1.617c-11.046 0-20-8.954-20-20l-2.681-225.574c0-9.32 13.033-23.381 13.033-23.381 1.598-.411 3.273-.63 4.999-.63h248.527c11.046 0 20 8.954 20 20v12.612l-26.601 103.277 26.601 104.923v12.612c0 1.727-.219 3.403-.631 5.002 0-.001-14.014 12.776-23.332 12.776z" fill="#afefa5"/><path d="m295.396 285.329c-2.22 8.62-10.056 15.001-19.366 15.001h-248.53c-5.262 0-10.048-2.032-13.617-5.352 0 0-3.35-10.007-3.35-15.79l-1.448-231.848c0-5.785 4.795-15.085 4.795-15.085 2.399-2.231 5.348-3.88 8.621-4.722l-.001 234.797c0 12.7 10.3 23 23 23z" fill="#8ce1a4"/><path d="m296.027 59.515h-182.995c-11.046 0-20 8.954-20 20v168.2c0 11.046 8.954 20 20 20h182.995z" fill="#8ce1a4"/><path d="m147.46 112.39v102.45c0 19.44-12.3 36.88-30.61 43.41l-102.96 36.72s-1.422-10.967-1.422-16.757l-2.41-230.341c0-5.78 3.832-15.612 3.832-15.612l102.96 36.72c18.31 6.53 30.61 23.98 30.61 43.41z" fill="#8ce1a4"/><path d="m41.77 285.03-27.869 9.965c-3.93-3.64-6.401-8.935-6.401-14.725l2.989-6.334.957-212.681-3.946-14.355c0-5.78 2.468-10.992 6.388-14.652.01.01 0 0 0 0l8.612 3.082v227c0 11.43 8.34 20.91 19.27 22.7z" fill="#7ad396"/><g><path d="m147.46 112.39v102.45c0 19.44-12.3 36.88-30.61 43.41l-15.66 5.58c-4.95-3.64-8.16-9.5-8.16-16.11v-168.2c0-6.62 3.22-12.49 8.17-16.12l15.65 5.58c18.31 6.53 30.61 23.98 30.61 43.41z" fill="#7ad396"/></g><path d="m111.477 243.18-85.898 30.639-16.877 3.628 7.838-116.319-7.455-111.83 13.414 3.016 88.979 31.738c11.982 4.274 19.981 15.62 19.981 28.341v102.447c-.001 12.72-8 24.066-19.982 28.34z" fill="#afefa5"/><path d="m25.58 273.82-18.08 6.45v-233.31l15 5.35v210.02c0 4.19 1.12 8.11 3.08 11.49z" fill="#8ce1a4"/><path d="m481.234 308.404-135.213-1.353c-11.046 0-20-8.954-20-20l-.021-247.562c0-8.584 9.97-21.051 9.97-21.051 2.178-.813 4.536-1.258 6.997-1.258h141.533c11.046 0 20 8.954 20 20v252.87c0 2.463-.445 4.821-1.259 7 0 0-13.424 11.354-22.007 11.354z" fill="#f8f7f7"/><path d="m503.241 297.05c-2.83 7.59-10.151 13-18.741 13h-141.53c-11.05 0-20-8.95-20-20v-252.87c0-8.59 5.41-15.911 13-18.741v258.611c0 11.05 8.95 20 20 20z" fill="#e8e8e8"/><path d="m353.091 167.977 1.143-90.977c0-2.209 1.791-4 4-4l4.816-1.658h110.369c2.209 0 4 1.791 4 4v87.568l-2 7.002c0 2.209-1.791 4-4 4l-114.328-1.935c-2.209 0-4-1.791-4-4z" fill="#afefa5"/><path d="m477.419 162.91.001 9c0 2.209-1.791 4-4 4h-119.37c-2.209 0-4-1.791-4-4v-96.57c0-2.209 1.791-4 4-4l9 .002v81.568c0 5.523 4.477 10 10 10z" fill="#8ce1a4"/><circle cx="413.733" cy="261.942" fill="#e8e8e8" r="24.5"/><path d="m473.419 203.013h-19.426c-2.209 0-4 1.791-4 4v19.426c0 2.209 1.791 4 4 4h19.426c2.209 0 4-1.791 4-4v-19.426c0-2.209-1.791-4-4-4z" fill="#e8e8e8"/><path d="m354.048 203.013h19.426c2.209 0 4 1.791 4 4v19.426c0 2.209-1.791 4-4 4h-19.426c-2.209 0-4-1.791-4-4v-19.426c0-2.209 1.79-4 4-4z" fill="#e8e8e8"/><path d="m443.116 115.581c.129-9.244-7.294-16.935-16.39-16.962-4.489-.014-8.569 1.792-11.569 4.73-.786.77-2.007.769-2.794 0-2.98-2.914-7.041-4.694-11.52-4.661-8.911.065-16.314 7.481-16.491 16.536-.336 17.137 23.535 30.386 28.508 32.959.565.292 1.233.287 1.795-.013 4.894-2.62 28.23-15.972 28.461-32.589z" fill="#ff8086"/></g><g><path d="m484.5 9.681h-141.533c-15.164 0-27.5 12.337-27.5 27.5v252.87c0 15.163 12.336 27.5 27.5 27.5h50.113v19.645c0 .464-.393.856-.857.856h-123.743c-28.342 0-51.399 23.059-51.399 51.4s23.058 51.399 51.399 51.399h49.09c4.142 0 7.5-3.357 7.5-7.5s-3.358-7.5-7.5-7.5h-49.09c-20.071 0-36.399-16.329-36.399-36.399 0-20.071 16.329-36.4 36.399-36.4h123.743c8.744 0 15.857-7.113 15.857-15.856v-19.645h11v19.645c0 14.809-12.048 26.856-26.857 26.856h-123.743c-14.005 0-25.399 11.395-25.399 25.4s11.394 25.399 25.399 25.399h156.58c19.979 0 36.234 16.255 36.234 36.234s-16.254 36.233-36.234 36.233h-217.199c-34.05 0-61.751-27.701-61.751-61.751v-88.218h11v88.218c0 27.984 22.767 50.751 50.751 50.751h217.199c13.914 0 25.234-11.319 25.234-25.233s-11.32-25.234-25.234-25.234h-72.49c-4.142 0-7.5 3.357-7.5 7.5s3.358 7.5 7.5 7.5h72.489c5.643 0 10.234 4.591 10.234 10.234s-4.591 10.233-10.234 10.233h-217.198c-19.713 0-35.751-16.038-35.751-35.751v-88.246c6.631-.297 11.938-5.769 11.938-12.471v-17.023h91.979c15.164 0 27.5-12.337 27.5-27.5v-233.424c0-15.163-12.336-27.5-27.5-27.5h-248.527c-15.072 0-27.345 12.189-27.493 27.226-.001.028-.001.056-.002.085-.001.064-.005.126-.005.189v95.673c0 4.143 3.358 7.5 7.5 7.5s7.5-3.357 7.5-7.5v-84.974l93.958 33.512c8.973 3.201 15.001 11.752 15.001 21.278v102.446c0 9.526-6.028 18.076-15 21.276l-93.959 33.515v-92.053c0-4.143-3.358-7.5-7.5-7.5s-7.5 3.357-7.5 7.5v102.751c0 .063.004.126.005.189.001.029.001.057.002.085.149 15.036 12.422 27.225 27.493 27.225h91.979v17.023c0 6.599 5.144 12.006 11.631 12.456v88.262c0 42.32 34.431 76.751 76.751 76.751h217.199c28.25 0 51.234-22.983 51.234-51.233 0-28.251-22.983-51.234-51.234-51.234h-156.58c-5.734 0-10.399-4.665-10.399-10.399s4.665-10.4 10.399-10.4h123.743c23.08 0 41.857-18.776 41.857-41.856v-19.645h50.42c15.164 0 27.5-12.337 27.5-27.5v-252.87c0-15.163-12.336-27.5-27.5-27.5zm-457 24.722h248.526c6.893 0 12.5 5.607 12.5 12.5v5.112h-175.494c-10.842 0-20.416 6.384-24.863 15.758l-72.179-25.744c1.904-4.478 6.346-7.626 11.51-7.626zm-11.509 250.799 72.166-25.741c4.432 9.384 13.985 15.755 24.875 15.755h53.603c4.142 0 7.5-3.357 7.5-7.5s-3.358-7.5-7.5-7.5h-53.603c-4.426 0-8.361-2.317-10.585-5.852l11.55-4.12c14.93-5.325 24.961-19.554 24.961-35.405v-102.446c0-15.851-10.031-30.079-24.961-35.406l-11.542-4.117c2.231-3.532 6.17-5.854 10.577-5.854h175.495v193.2h-86.892c-4.142 0-7.5 3.357-7.5 7.5s3.358 7.5 7.5 7.5h86.892v5.111c0 6.893-5.607 12.5-12.5 12.5h-248.527c-5.164 0-9.606-3.148-11.509-7.625zm153.056 22.625v14.523h-34.568v-14.523zm327.953-17.776c0 6.893-5.607 12.5-12.5 12.5h-141.533c-6.893 0-12.5-5.607-12.5-12.5v-252.87c0-6.893 5.607-12.5 12.5-12.5h141.533c6.893 0 12.5 5.607 12.5 12.5z"/><path d="m477.419 63.842h-127.371c-4.142 0-7.5 3.357-7.5 7.5v104.57c0 4.143 3.358 7.5 7.5 7.5h127.371c4.142 0 7.5-3.357 7.5-7.5v-28.66c0-4.143-3.358-7.5-7.5-7.5s-7.5 3.357-7.5 7.5v21.16h-112.371v-89.57h112.371v33.41c0 4.143 3.358 7.5 7.5 7.5s7.5-3.357 7.5-7.5v-40.91c0-4.143-3.358-7.5-7.5-7.5z"/><path d="m384.361 51.644h58.744c4.142 0 7.5-3.357 7.5-7.5s-3.358-7.5-7.5-7.5h-58.744c-4.142 0-7.5 3.357-7.5 7.5s3.358 7.5 7.5 7.5z"/><path d="m421.233 233.489v-4.076c0-4.143-3.358-7.5-7.5-7.5s-7.5 3.357-7.5 7.5v4.076c-12.604 3.325-21.925 14.819-21.925 28.453 0 16.225 13.2 29.425 29.425 29.425s29.425-13.2 29.425-29.425c0-13.634-9.321-25.128-21.925-28.453zm-7.5 42.877c-7.954 0-14.425-6.471-14.425-14.425 0-5.205 2.781-9.761 6.925-12.298v5.418c0 4.143 3.358 7.5 7.5 7.5s7.5-3.357 7.5-7.5v-5.418c4.144 2.537 6.925 7.093 6.925 12.298 0 7.955-6.471 14.425-14.425 14.425z"/><path d="m473.419 195.514h-19.426c-6.341 0-11.5 5.159-11.5 11.5v19.426c0 6.341 5.159 11.5 11.5 11.5h19.426c6.341 0 11.5-5.159 11.5-11.5v-19.426c0-6.341-5.159-11.5-11.5-11.5zm-3.5 27.425h-12.426v-12.426h12.426z"/><path d="m384.974 207.014c0-6.341-5.159-11.5-11.5-11.5h-19.426c-6.341 0-11.5 5.159-11.5 11.5v19.426c0 6.341 5.159 11.5 11.5 11.5h19.426c6.341 0 11.5-5.159 11.5-11.5zm-15 15.925h-12.426v-12.426h12.426z"/><path d="m426.673 91.119c-4.651 0-9.106 1.336-12.92 3.793-2.682-1.717-7.69-3.682-12.965-3.726-12.941.096-23.679 10.812-23.935 23.89-.456 23.278 30.17 38.646 33.664 40.321 1.394.454 3.08 1.376 6.586-.049 3.397-1.691 33.199-17.177 33.512-39.663.364-12.106-10.153-24.649-23.942-24.566zm8.944 24.358c-.136 9.792-13.955 19.944-21.914 24.638-8.071-4.625-22.048-14.724-21.852-24.745.099-5.027 4.157-9.146 9.047-9.183 1.851.014 4.661.83 6.991 3.377 1.422 1.789 3.582 2.832 5.867 2.833h.004c2.284 0 4.443-1.041 5.866-2.827 1.753-2.201 4.312-3.429 7.078-3.45 3.78.12 8.589 3.093 8.913 9.357z"/></g></g></svg>