<svg id="Capa_1" enable-background="new 0 0 512 512" height="512" viewBox="0 0 512 512" width="512" xmlns="http://www.w3.org/2000/svg"><g><g><path d="m384.156 106.631 87.678-87.678 10.713 10.712-77.178 98.178z" fill="#dcf2f6"/><path d="m381.96 71.33h123.995v14.849h-123.995z" fill="#bae6ef" transform="matrix(.707 -.707 .707 .707 74.345 336.992)"/><path d="m318.805 235.62-85.698 74.485-29.417-12.402-7.403-24.417 80.092-80.092z" fill="#ffe07d"/><path d="m291.319 178.255 91.057-91.058 31.82 31.819-91.058 101.058z" fill="#eef9fa"/><path d="m228.107 305.105 80.092-80.091 10.606 10.606-80.091 80.092-32.557-9.87-2.467-8.139z" fill="#ffc250"/><path d="m414.196 119.016 10.607 10.607-91.058 91.057-10.607-.606v-10z" fill="#dcf2f6"/><path d="m302.527 230.685-.283.032c-10.052-3.047-17.917-10.913-20.965-20.965l-4.901-16.559 14.94-14.94 31.82 31.819-5.607 15.607z" fill="#bae6ef"/><path d="m323.138 210.074 10.607 10.606-14.94 14.94-16.278-4.935z" fill="#94d8e6"/><path d="m195.829 325.171c-3.924 3.924-14.395 2.957-18.479-1.127-1.332-5.002-.051-10.556 3.873-14.479 4.626-4.626 20-20 20-20l10.606 10.606s-11.374 20.373-16 25z" fill="#bae6ef"/><path d="m191.829 320.171c4.626-4.626 20-20 20-20l10.607 10.607s-15.374 15.374-20 20c-5.858 5.858-15.355 5.858-21.213 0-1.934-1.934-3.216-4.268-3.873-6.734 5.001 1.332 10.555.05 14.479-3.873z" fill="#94d8e6"/><path d="m82.5 414.5h-60c-8.284 0-15 6.716-15 15v60l82 7z" fill="#eef9fa"/><path d="m82.5 486c0 1.933-1.567 3.5-3.5 3.5h-71.5c0 8.284 6.716 15 15 15h60c8.284 0 15-6.716 15-15v-60c0-8.284-6.716-15-15-15z" fill="#dcf2f6"/><path d="m218.167 414.5h-60c-8.284 0-15 6.716-15 15v60l82 7z" fill="#eef9fa"/><path d="m218.167 486c0 1.933-1.567 3.5-3.5 3.5h-71.5c0 8.284 6.716 15 15 15h60c8.284 0 15-6.716 15-15v-60c0-8.284-6.716-15-15-15z" fill="#dcf2f6"/><path d="m353.833 414.5h-60c-8.284 0-15 6.716-15 15v60l82 7z" fill="#eef9fa"/><path d="m353.833 486c0 1.933-1.567 3.5-3.5 3.5h-71.5c0 8.284 6.716 15 15 15h60c8.284 0 15-6.716 15-15v-60c0-8.284-6.716-15-15-15z" fill="#dcf2f6"/><path d="m489.5 414.5h-60c-8.284 0-15 6.716-15 15v60l82 7z" fill="#eef9fa"/><path d="m489.5 486c0 1.933-1.567 3.5-3.5 3.5h-71.5c0 8.284 6.716 15 15 15h60c8.284 0 15-6.716 15-15v-60c0-8.284-6.716-15-15-15z" fill="#dcf2f6"/></g><g><path d="m122.869 396.631c-1.919 0-3.839-.732-5.303-2.196-2.929-2.93-2.929-7.678 0-10.607l53.951-53.951c-1.432-2.991-2.188-6.29-2.188-9.705 0-6.01 2.341-11.66 6.59-15.91l16.822-16.821-3.63-11.978c-.803-2.647-.083-5.522 1.874-7.479l118.591-118.594c2.929-2.928 7.678-2.928 10.606 0 2.929 2.93 2.929 7.678 0 10.607l-18.349 18.349 31.82 31.818 80.542-80.542-31.819-31.819-41.194 41.194c-2.929 2.928-7.678 2.928-10.606 0-2.929-2.93-2.929-7.678 0-10.607l41.194-41.193-15.543-15.543c-2.929-2.93-2.929-7.678 0-10.607 2.929-2.928 7.678-2.928 10.606 0l26.15 26.15 68.244-68.245-6.149-6.148c-2.929-2.93-2.929-7.678 0-10.607 2.929-2.928 7.678-2.928 10.606 0l44.119 44.118c2.929 2.93 2.929 7.678 0 10.607-2.929 2.928-7.678 2.928-10.606 0l-6.15-6.15-16.971 16.972c-2.929 2.928-7.678 2.929-10.606-.001-2.929-2.929-2.929-7.677 0-10.606l16.971-16.971-10.607-10.606-68.244 68.245 10.606 10.606 30.273-30.273c2.929-2.93 7.678-2.929 10.606-.001 2.929 2.93 2.929 7.678 0 10.606l-30.273 30.274 26.149 26.149c2.929 2.93 2.929 7.678 0 10.607-2.929 2.928-7.678 2.928-10.606 0l-15.543-15.544-112.082 112.083c-2.929 2.928-7.678 2.928-10.606 0-2.929-2.93-2.929-7.678 0-10.607l2.447-2.446-4.49-1.361c-12.478-3.782-22.185-13.489-25.968-25.968l-1.361-4.49-67.972 67.972 3.085 10.179 18.555 18.555 10.179 3.086 43.525-43.525c2.929-2.928 7.678-2.928 10.606 0 2.929 2.93 2.929 7.678 0 10.607l-46.703 46.703c-1.956 1.955-4.831 2.676-7.479 1.874l-11.977-3.631-16.822 16.822c-4.25 4.249-9.9 6.59-15.91 6.59-3.415 0-6.714-.756-9.706-2.188l-53.951 53.951c-1.464 1.463-3.384 2.196-5.303 2.196zm366.631 115.369h-60c-12.407 0-22.5-10.094-22.5-22.5v-60c0-12.406 10.093-22.5 22.5-22.5h60c1.084 0 2.152.077 3.196.227l4.906-7.851c2.196-3.513 6.823-4.58 10.335-2.386 3.513 2.195 4.581 6.822 2.386 10.335l-4.313 6.902c3.717 4.015 5.991 9.383 5.991 15.272v60c-.001 12.407-10.094 22.501-22.501 22.501zm-60-90c-4.142 0-7.5 3.358-7.5 7.5v60c0 4.142 3.358 7.5 7.5 7.5h60c4.142 0 7.5-3.358 7.5-7.5v-60c0-.267-.014-.53-.042-.79l-31.099 49.765c-2.904 4.647-9.649 4.712-12.642.122l-14.829-22.739c-2.242-3.438-1.549-8.164 1.82-10.509 3.488-2.428 8.267-1.481 10.574 2.054l8.583 13.16 24.098-38.563zm-75.667 90h-60c-12.426 0-22.5-10.074-22.5-22.5v-60c0-12.426 10.074-22.5 22.5-22.5h35.042c4.107 0 7.688 3.165 7.811 7.27.127 4.247-3.278 7.73-7.497 7.73h-35.356c-4.142 0-7.5 3.358-7.5 7.5v60c0 4.142 3.358 7.5 7.5 7.5h60c4.142 0 7.5-3.358 7.5-7.5v-60c0-.266-.014-.529-.042-.79l-31.099 49.765c-2.904 4.647-9.649 4.712-12.642.122l-14.829-22.739c-2.242-3.438-1.549-8.164 1.82-10.509 3.488-2.428 8.267-1.481 10.574 2.054l8.583 13.16 38.237-61.188c2.236-3.578 6.994-4.619 10.529-2.26 3.416 2.279 4.202 6.992 2.026 10.474l-4.138 6.622c3.791 4.091 5.981 9.514 5.981 15.288v60c0 12.427-10.073 22.501-22.5 22.501zm-135.666 0h-60c-12.407 0-22.5-10.094-22.5-22.5v-60c0-12.406 10.093-22.5 22.5-22.5h60c1.084 0 2.152.077 3.196.227l4.906-7.851c2.195-3.512 6.821-4.581 10.335-2.386 3.513 2.195 4.581 6.822 2.386 10.335l-4.313 6.902c3.717 4.015 5.991 9.383 5.991 15.272v60c-.001 12.407-10.095 22.501-22.501 22.501zm-60-90c-4.142 0-7.5 3.358-7.5 7.5v60c0 4.142 3.358 7.5 7.5 7.5h60c4.142 0 7.5-3.358 7.5-7.5v-60c0-.267-.014-.53-.042-.79l-31.098 49.765c-2.904 4.647-9.649 4.712-12.642.122l-15-23c-2.305-3.533-1.247-8.289 2.381-10.502 3.505-2.139 8.112-.868 10.355 2.572l8.412 12.897 24.097-38.564zm-75.667 90h-60c-12.407 0-22.5-10.094-22.5-22.5v-60c0-12.406 10.093-22.5 22.5-22.5h60c1.084 0 2.152.077 3.196.227l4.906-7.851c2.196-3.513 6.823-4.58 10.335-2.386 3.513 2.195 4.581 6.822 2.386 10.335l-4.313 6.902c3.717 4.015 5.991 9.383 5.991 15.272v60c-.001 12.407-10.094 22.501-22.501 22.501zm-60-90c-4.142 0-7.5 3.358-7.5 7.5v60c0 4.142 3.358 7.5 7.5 7.5h60c4.142 0 7.5-3.358 7.5-7.5v-60c0-.267-.014-.53-.042-.79l-31.098 49.764c-2.904 4.647-9.649 4.712-12.642.122l-14.828-22.738c-2.242-3.438-1.549-8.164 1.819-10.51 3.487-2.429 8.268-1.482 10.574 2.054l8.583 13.16 24.097-38.562zm178.722-121.829-14.696 14.696c-1.417 1.417-2.197 3.301-2.197 5.304s.78 3.887 2.197 5.303v.001c1.417 1.416 3.3 2.196 5.303 2.196s3.887-.78 5.303-2.196l14.697-14.697zm83.547-104.76 3.688 12.167c2.326 7.671 8.294 13.639 15.965 15.964l12.167 3.688 6.458-6.458-31.82-31.819z"/></g></g></svg>