<svg id="Capa_1" enable-background="new 0 0 512 512" height="512" viewBox="0 0 512 512" width="512" xmlns="http://www.w3.org/2000/svg"><g><g><path d="m211.152 430.813 156.511.468c10.683 0 29.616-10.662 29.616-10.662 2.928-4.632 4.623-10.122 4.623-16.008v-367.111c0-16.569-13.431-30-30-30h-166.08c-5.885 0-11.375 1.695-16.007 4.623 0 0-4.982 5.096-7.152 7.946-3.839 5.041-4.745 11.515-4.745 18.34l3.234 362.404c0 16.568 13.432 30 30 30z" fill="#857e87"/><g fill="#6f6571"><path d="m351.18 415.617v-308.227c0-24.853-20.147-45-45-45h-111.364c-2.761 0-5-2.238-5-5l-.001-45.268c-8.41 5.29-13.989 14.688-13.989 25.378v367.11c0 16.569 13.431 30 30 30h166.08c10.68 0 20.073-5.582 25.372-13.992l-41.099-.002c-2.761.001-4.999-2.238-4.999-4.999z"/><path d="m375.904 39.484v166.156c0 1.105-.895 2-2 2h-170.087c-1.105 0-2-.895-2-2v-166.156c0-3.308 2.682-5.991 5.991-5.991h162.106c3.307.001 5.99 2.683 5.99 5.991z"/><path d="m375.904 236.635v165.986c0 3.308-2.682 5.991-5.991 5.991h-162.106c-3.308 0-5.991-2.682-5.991-5.991v-165.986c0-1.105.895-2 2-2h170.087c1.105 0 2.001.896 2.001 2z"/></g><path d="m351.18 234.64v173.97h-143.37c-3.31 0-5.99-2.68-5.99-5.99v-165.98c0-1.11.89-2 2-2z" fill="#635a63"/><path d="m351.18 107.39v100.25h-147.36c-1.11 0-2-.89-2-2v-143.25h104.36c24.81 0 45 20.19 45 45z" fill="#635a63"/><path d="m145.426 500.702 156.511.468c10.683 0 29.616-10.662 29.616-10.662 2.928-4.632 4.623-10.122 4.623-16.008v-367.111c0-16.569-13.431-30-30-30h-166.08c-5.885 0-11.375 1.695-16.007 4.623 0 0-4.982 5.096-7.152 7.946-3.839 5.041-4.745 11.515-4.745 18.34l3.234 362.404c0 16.569 13.431 30 30 30z" fill="#857e87"/><path d="m331.552 490.508c-5.3 8.41-14.693 13.992-25.372 13.992h-166.08c-16.57 0-30-13.43-30-30v-367.11c0-10.69 5.579-20.088 13.988-25.378l.012 385.488c0 12.7 10.29 23 23 23z" fill="#6f6571"/><path d="m310.177 109.374v166.156c0 1.105-.895 2-2 2h-170.087c-1.105 0-2-.895-2-2v-166.156c0-3.308 2.682-5.991 5.991-5.991h162.106c3.308 0 5.99 2.682 5.99 5.991z" fill="#6f6571"/><path d="m310.177 306.525v165.986c0 3.308-2.682 5.991-5.991 5.991h-162.105c-3.308 0-5.991-2.682-5.991-5.991v-165.986c0-1.105.895-2 2-2h170.087c1.104 0 2 .895 2 2z" fill="#6f6571"/><path d="m282.461 160.957c0 2.193-.327 4.31-.936 6.304 0 0-2.168 2.952-3.026 4.403-3.754 6.352-9.699 9.176-17.613 9.176-11.915 0-20.802-7.968-20.802-19.883 0-6.306 2.463-11.364 6.777-15.308 1.466-1.341 4.385-3.997 4.385-3.997 2.902-1.452 6.176-2.269 9.641-2.269 11.915.001 21.574 9.659 21.574 21.574z" fill="#f8f7f7"/><path d="m281.526 167.262c-2.69 8.84-10.916 15.268-20.636 15.268-11.92 0-21.58-9.66-21.58-21.57 0-8.45 4.856-15.778 11.936-19.308-.61 1.99-.936 4.118-.936 6.308 0 11.91 9.66 21.57 21.58 21.57 3.46 0 6.736-.808 9.636-2.268z" fill="#e8e8e8"/><path d="m206.959 220.012c0 2.193-.327 4.31-.936 6.304 0 0-2.168 2.952-3.026 4.403-3.754 6.352-9.699 9.176-17.613 9.176-11.915 0-20.802-7.968-20.802-19.883 0-6.306 2.463-11.364 6.777-15.308 1.466-1.341 4.385-3.997 4.385-3.997 2.902-1.452 6.176-2.269 9.641-2.269 11.915 0 21.574 9.659 21.574 21.574z" fill="#f8f7f7"/><path d="m206.024 226.317c-2.69 8.84-10.916 15.268-20.636 15.268-11.92 0-21.58-9.66-21.58-21.57 0-8.45 4.856-15.778 11.936-19.308-.61 1.99-.936 4.118-.936 6.308 0 11.91 9.66 21.57 21.58 21.57 3.46 0 6.736-.809 9.636-2.268z" fill="#e8e8e8"/><path d="m206.959 357.898c0 2.193-.327 4.31-.936 6.304 0 0-2.168 2.952-3.026 4.403-3.754 6.352-9.699 9.176-17.613 9.176-11.915 0-20.802-7.968-20.802-19.883 0-6.306 2.463-11.364 6.777-15.308 1.466-1.341 4.385-3.997 4.385-3.997 2.902-1.452 6.176-2.269 9.641-2.269 11.915 0 21.574 9.659 21.574 21.574z" fill="#f8f7f7"/><path d="m206.024 364.203c-2.69 8.84-10.916 15.268-20.636 15.268-11.92 0-21.58-9.66-21.58-21.57 0-8.45 4.856-15.778 11.936-19.308-.61 1.99-.936 4.118-.936 6.308 0 11.91 9.66 21.57 21.58 21.57 3.46 0 6.736-.808 9.636-2.268z" fill="#e8e8e8"/><path d="m206.959 432.845c0 2.193-.327 4.31-.936 6.304 0 0-2.168 2.952-3.026 4.403-3.754 6.352-9.699 9.176-17.613 9.176-11.915 0-20.802-7.968-20.802-19.883 0-6.306 2.463-11.364 6.777-15.308 1.466-1.341 4.385-3.997 4.385-3.997 2.902-1.452 6.176-2.269 9.641-2.269 11.915 0 21.574 9.659 21.574 21.574z" fill="#f8f7f7"/><path d="m206.024 439.15c-2.69 8.84-10.916 15.268-20.636 15.268-11.92 0-21.58-9.66-21.58-21.57 0-8.45 4.856-15.778 11.936-19.308-.61 1.99-.936 4.118-.936 6.308 0 11.91 9.66 21.57 21.58 21.57 3.46 0 6.736-.808 9.636-2.268z" fill="#e8e8e8"/><path d="m282.463 357.898c0 2.193-.327 4.31-.936 6.304 0 0-2.168 2.952-3.026 4.403-3.754 6.352-9.699 9.176-17.613 9.176-11.915 0-20.802-7.968-20.802-19.883 0-6.306 2.463-11.364 6.777-15.308 1.466-1.341 4.385-3.997 4.385-3.997 2.902-1.452 6.176-2.269 9.641-2.269 11.915 0 21.574 9.659 21.574 21.574z" fill="#f8f7f7"/><path d="m281.527 364.203c-2.69 8.84-10.916 15.268-20.636 15.268-11.92 0-21.58-9.66-21.58-21.57 0-8.45 4.856-15.778 11.936-19.308-.61 1.99-.936 4.118-.936 6.308 0 11.91 9.66 21.57 21.58 21.57 3.461 0 6.736-.808 9.636-2.268z" fill="#e8e8e8"/><path d="m282.463 432.845c0 2.193-.327 4.31-.936 6.304 0 0-2.168 2.952-3.026 4.403-3.754 6.352-9.699 9.176-17.613 9.176-11.915 0-20.802-7.968-20.802-19.883 0-6.306 2.463-11.364 6.777-15.308 1.466-1.341 4.385-3.997 4.385-3.997 2.902-1.452 6.176-2.269 9.641-2.269 11.915 0 21.574 9.659 21.574 21.574z" fill="#f8f7f7"/><path d="m281.527 439.15c-2.69 8.84-10.916 15.268-20.636 15.268-11.92 0-21.58-9.66-21.58-21.57 0-8.45 4.856-15.778 11.936-19.308-.61 1.99-.936 4.118-.936 6.308 0 11.91 9.66 21.57 21.58 21.57 3.461 0 6.736-.808 9.636-2.268z" fill="#e8e8e8"/></g><g><path d="m371.902 0h-166.08c-20.678 0-37.5 16.822-37.5 37.5v32.39h-28.225c-20.678 0-37.5 16.822-37.5 37.5v73.548c0 4.143 3.358 7.5 7.5 7.5s7.5-3.357 7.5-7.5v-73.548c0-12.406 10.093-22.5 22.5-22.5h166.081c12.407 0 22.5 10.094 22.5 22.5v367.11c0 12.406-10.093 22.5-22.5 22.5h-166.08c-12.407 0-22.5-10.094-22.5-22.5v-258.562c0-4.143-3.358-7.5-7.5-7.5s-7.5 3.357-7.5 7.5v258.562c0 20.678 16.822 37.5 37.5 37.5h166.081c20.678 0 37.5-16.822 37.5-37.5v-32.391h28.224c20.678 0 37.5-16.822 37.5-37.5v-367.109c-.001-20.678-16.823-37.5-37.501-37.5zm22.5 404.609c0 12.406-10.093 22.5-22.5 22.5h-28.224v-11h26.244c7.438 0 13.49-6.051 13.49-13.489v-76.676c0-4.143-3.358-7.5-7.5-7.5s-7.5 3.357-7.5 7.5v75.165h-24.734v-158.968h24.734v48.804c0 4.143 3.358 7.5 7.5 7.5s7.5-3.357 7.5-7.5v-56.304c0-4.143-3.358-7.5-7.5-7.5h-32.234v-12h32.234c4.142 0 7.5-3.357 7.5-7.5v-168.161c0-7.438-6.051-13.49-13.49-13.49h-52.458c-4.142 0-7.5 3.357-7.5 7.5s3.358 7.5 7.5 7.5h50.948v159.15h-24.734v-92.75c0-20.678-16.822-37.5-37.5-37.5h-96.856v-28.9h73.142c4.142 0 7.5-3.357 7.5-7.5s-3.358-7.5-7.5-7.5h-74.651c-7.438 0-13.49 6.052-13.49 13.49v30.41h-11v-32.39c0-12.406 10.093-22.5 22.5-22.5h166.08c12.407 0 22.5 10.094 22.5 22.5v367.109z"/><path d="m136.093 285.03h174.086c4.142 0 7.5-3.357 7.5-7.5v-168.156c0-7.439-6.052-13.491-13.491-13.491h-162.105c-7.438 0-13.49 6.052-13.49 13.491v168.156c0 4.143 3.358 7.5 7.5 7.5zm7.5-174.147h159.086v159.147h-159.086z"/><path d="m128.593 472.511c0 7.438 6.052 13.49 13.49 13.49h47.377c4.142 0 7.5-3.357 7.5-7.5s-3.358-7.5-7.5-7.5h-45.867v-158.977h159.086v158.977h-78.219c-4.142 0-7.5 3.357-7.5 7.5s3.358 7.5 7.5 7.5h79.729c7.439 0 13.491-6.052 13.491-13.49v-167.987c0-4.143-3.358-7.5-7.5-7.5h-174.087c-4.142 0-7.5 3.357-7.5 7.5z"/><path d="m260.89 131.884c-16.031 0-29.074 13.042-29.074 29.073s13.042 29.074 29.074 29.074 29.074-13.043 29.074-29.074-13.043-29.073-29.074-29.073zm0 43.147c-7.76 0-14.074-6.313-14.074-14.074 0-7.76 6.313-14.073 14.074-14.073s14.074 6.313 14.074 14.073c0 7.761-6.314 14.074-14.074 14.074z"/><path d="m185.386 190.938c-16.031 0-29.074 13.043-29.074 29.074s13.042 29.073 29.074 29.073 29.074-13.042 29.074-29.073-13.043-29.074-29.074-29.074zm0 43.147c-7.76 0-14.074-6.313-14.074-14.073 0-7.761 6.313-14.074 14.074-14.074s14.074 6.313 14.074 14.074c0 7.759-6.314 14.073-14.074 14.073z"/><path d="m185.386 328.824c-16.031 0-29.074 13.042-29.074 29.073s13.042 29.074 29.074 29.074 29.074-13.043 29.074-29.074-13.043-29.073-29.074-29.073zm0 43.148c-7.76 0-14.074-6.313-14.074-14.074 0-7.76 6.313-14.073 14.074-14.073s14.074 6.313 14.074 14.073-6.314 14.074-14.074 14.074z"/><path d="m260.89 386.972c16.032 0 29.074-13.043 29.074-29.074s-13.042-29.073-29.074-29.073c-16.031 0-29.074 13.042-29.074 29.073s13.042 29.074 29.074 29.074zm0-43.148c7.761 0 14.074 6.313 14.074 14.073 0 7.761-6.313 14.074-14.074 14.074-7.76 0-14.074-6.313-14.074-14.074 0-7.759 6.313-14.073 14.074-14.073z"/><path d="m185.386 403.771c-16.031 0-29.074 13.043-29.074 29.074s13.042 29.074 29.074 29.074 29.074-13.043 29.074-29.074-13.043-29.074-29.074-29.074zm0 43.148c-7.76 0-14.074-6.313-14.074-14.074s6.313-14.074 14.074-14.074 14.074 6.313 14.074 14.074-6.314 14.074-14.074 14.074z"/><path d="m260.89 461.919c16.032 0 29.074-13.043 29.074-29.074s-13.042-29.074-29.074-29.074c-16.031 0-29.074 13.043-29.074 29.074s13.042 29.074 29.074 29.074zm0-43.148c7.761 0 14.074 6.313 14.074 14.074s-6.313 14.074-14.074 14.074c-7.76 0-14.074-6.313-14.074-14.074s6.313-14.074 14.074-14.074z"/></g></g></svg>