<svg id="Capa_1" enable-background="new 0 0 511.99 511.99" height="512" viewBox="0 0 511.99 511.99" width="512" xmlns="http://www.w3.org/2000/svg"><g><g><path d="m169.486 283.34-2.946-2.256-17.012.609c-1.893 3.783-2.973 8.041-2.973 12.559 0 11.592 7.01 21.528 17.014 25.85l13.926-14.31v-3.408c-.067-7.439-3.114-14.167-8.009-19.044z" fill="#8479c2"/><path d="m147.132 294.635c0-4.7 1.198-9.117 3.295-12.974l-18.804.673-.972 1.416c-4.716 4.897-7.621 11.55-7.621 18.885 0 14.902 11.971 27.002 26.82 27.225h4.223l9.82-10.091c-9.84-4.103-16.761-13.805-16.761-25.134z" fill="#6e60b8"/><path d="m207.124 161.168-45-69.25 26.75-74-6.125-4.309c-18.958 8.401-41.729 12.977-60.615 15.468-.835 1.502-1.477 3.137-1.875 4.882-19.805 86.772 9.26 190.587 24.482 235.741 1.888 5.6 5.133 10.421 9.258 14.189h9.736c12.076 0 23.136-6.917 28.276-17.845 16.169-34.37 20.276-68.99 20.366-94.935z" fill="#dbedff"/><g><path d="m144.979 267.513c-14.929-44.282-43.433-146.095-24.01-231.193.656-2.873 1.971-5.452 3.757-7.594-11.135 1.555-21.085 2.385-28.348 2.825-7.549.458-13.932 5.803-15.649 13.168-18.712 80.257 8.749 176.276 23.131 218.039 4.354 12.644 16.242 21.13 29.614 21.13h23.583c-5.487-3.932-9.788-9.584-12.078-16.375z" fill="#b5dcff"/></g><path d="m168.441 65.027c4.38 20.004 15.882 36.616 28.948 49.765h1.678c-13.11-25.559 4.137-47.144 19.788-60.188 10.476-8.731 12.51-24.05 4.909-35.373l-.004-.005c-7.615-11.344-22.502-14.94-34.637-8.661-2.065 1.068-4.197 2.078-6.374 3.043-5.199 6.134-11.403 14.718-16.479 25.363-.424 8.172.16 16.871 2.171 26.056z" fill="#8479c2"/><g><path d="m201.615 119.236c-1.133-1.763-2.113-3.509-2.959-5.236-13.162-13.001-24.852-29.567-29.239-49.604-2.156-9.85-2.648-19.136-1.986-27.788-8.477 16.732-14.409 38.957-8.68 65.121 7.061 32.251 33.038 55.518 53.627 69.38.033-9.656-.485-18.12-1.151-24.908-.946-9.642-4.374-18.815-9.612-26.965z" fill="#6e60b8"/></g><path d="m172.374 340.668c11.51 5.16 106.671 56.635 145.424 77.642 9.741 5.281 18.122 12.727 24.546 21.755 8.996 12.643 24.587 30.556 42.78 34.353 20.844 4.35 39.05 5.02 47.493 5.06 9.574-13.12 6.087-31.844-7.989-40.482l-22.989-14.107c-3.456-2.121-5.479-7.075-4.496-11.009 9.805-4.71 12.41-17.475 5.236-25.651-4.772-5.438-12.539-7.125-19.125-4.131-10.645 4.84-27.569 10.415-42.521 6.02l-8.107 1.716-19.333-12.333-1.04-5.942c-27.601-18.292-71.161-48.605-98.265-67.579-14.296-10.008-33.614-8.798-46.546 2.919l-7.998 7.246c-.677.614-1.319 1.249-1.939 1.896.321 3.576 2.354 17.016 14.869 22.627z" fill="#dbedff"/><path d="m416.702 495.286c4.803-3.788 9.866-8.491 14.715-14.266.951-1.133 1.79-2.32 2.532-3.542-8.287-.024-26.699-.652-47.825-5.061-18.194-3.797-33.784-21.71-42.78-34.353-6.424-9.028-14.804-16.474-24.546-21.755-38.753-21.008-133.914-72.482-145.424-77.642-11.618-5.208-14.202-17.164-14.771-21.714-18.253 17.566-14.177 48.145 8.484 59.962 6.582 3.432 14.06 6.705 22.492 9.549 24.299 8.197 60.542 27.052 88.159 42.311l6.719-1.774 20.333 11.5 1.444 6.747c8.063 5.668 14.884 12.955 20.014 21.426 8.064 13.315 20.162 23.71 34.605 29.515l12.794 5.143c14.406 5.791 30.864 3.568 43.055-6.046z" fill="#b5dcff"/><path d="m317.797 418.31c1.323.718 2.616 1.483 3.888 2.279l19.045-30.47c-2.525-.742-4.996-1.76-7.369-3.123-4.45-2.556-11.89-7.326-21.111-13.437l-19.496 31.191c9.592 5.187 18.2 9.85 25.043 13.56z" fill="#8479c2"/><path d="m306.244 445.293 16.619-26.588c-1.329-.837-2.679-1.644-4.065-2.395-6.799-3.686-15.34-8.312-24.856-13.459l-16.204 25.925c8.767 4.844 16.672 9.328 23.04 12.991 1.886 1.084 3.695 2.28 5.466 3.526z" fill="#6e60b8"/></g><path d="m163.367 383.566c7.413 3.865 15.34 7.231 23.562 10.005 23.708 7.998 59.112 26.385 86.864 41.728.022.013.043.028.065.041 18.849 10.415 34.653 16.946 45.723 35.22 8.892 14.683 22.466 26.256 38.222 32.589l12.796 5.144c17.1 6.874 36.429 3.976 50.496-7.115 5.775-4.556 11.097-9.714 15.814-15.334 13.974-16.644 9.936-41.856-8.611-53.239-24.212-14.986-23.027-13.835-23.604-14.808 10.288-8.144 12.412-23.87 3.069-34.515-7.008-7.984-18.204-10.4-27.867-6.011-13.093 5.954-30.526 10.418-43.051 3.221-4.029-2.314-10.995-6.75-20.702-13.185-.02-.013-.041-.023-.061-.036-9.558-6.336-21.799-14.625-36.667-24.831-3.416-2.346-8.084-1.477-10.428 1.939-2.344 3.415-1.476 8.083 1.939 10.428 11.954 8.206 22.244 15.194 30.852 20.954l-26.894 43.026c-27.267-14.891-60.224-31.691-83.161-39.428-7.488-2.526-14.695-5.586-21.422-9.093-14.361-7.49-19.111-24.119-13.85-37.396 3.905-8.864 8.076-11.59 16.031-18.631 10.434-9.244 25.594-10.065 36.95-2.115 11.234 7.864 22.22 15.524 32.65 22.766 3.405 2.363 8.077 1.518 10.438-1.884 2.362-3.403 1.519-8.076-1.884-10.438-10.415-7.229-21.385-14.878-32.604-22.732-10.463-7.324-23.018-9.675-34.767-7.251-.565-1.879-1.292-3.702-2.168-5.455 7.518-3.828 13.752-10.04 17.446-17.892 3.738-7.944 7.049-16.368 9.841-25.036 1.271-3.942-.896-8.169-4.839-9.438s-8.169.896-9.438 4.839c-2.597 8.061-5.671 15.884-9.136 23.251-3.98 8.459-12.629 13.536-21.49 13.536h-30.262c-10.079 0-19.193-6.406-22.522-16.072-13.049-37.897-41.405-134.598-22.917-213.896.955-4.092 4.573-7.13 8.8-7.386 15.991-.969 41.888-3.58 66.461-10.568-10.313 18.287-18.624 44.012-11.869 74.863 7.206 32.916 32.306 56.832 53.399 71.677-.188 9.577-.952 20.265-2.708 31.629-.633 4.094 2.173 7.925 6.267 8.558 4.097.621 7.924-2.174 8.558-6.267 3.228-20.89 3.763-42.972 1.751-63.461-1.025-10.449-4.748-20.922-10.766-30.287-11.579-18.021-6.287-36.464 15.731-54.814 13.436-11.198 16.159-30.679 6.348-45.295l-.004-.006c-.004-.007-.009-.014-.013-.02-9.638-14.36-28.658-19.242-44.312-11.143-24.744 12.808-61.82 18.467-89.752 20.16-10.798.655-20.05 8.448-22.499 18.952-19.374 83.095 9.87 183.062 23.344 222.185 3.692 10.72 11.768 19.03 21.805 23.209-1.99 4.424-3.043 9.252-3.043 14.225 0 15.613 10.515 28.964 24.832 33.266-3.362 18.551 5.021 38.157 23.257 47.667zm222.736 7.359c3.598-1.636 7.77-.729 10.386 2.25 3.901 4.447 2.489 11.381-2.848 13.944-7.995 3.844-4.792 18.877 3.821 24.161l22.989 14.107c10.729 6.583 13.06 21.172 4.969 30.81-4.061 4.837-8.642 9.277-13.614 13.199-9.996 7.881-23.642 9.789-35.613 4.977l-12.796-5.144c-12.762-5.129-23.767-14.52-30.986-26.441-4.412-7.284-9.992-13.799-16.454-19.287l28.048-44.875c14.898 2.411 30.433-2.396 42.098-7.701zm-71.814-6.88c3.844 2.51 11.207 7.253 15.193 9.516l-25.843 41.345c-4.641-2.667-9.907-5.66-15.61-8.851zm-100.489-335.202c-27.962 23.305-34.62 49.743-18.747 74.447 4.806 7.479 7.651 15.434 8.457 23.643.253 2.585.509 5.797.702 9.045-16.43-13.246-33.165-32.001-38.387-55.855-8.117-37.077 9.361-65.832 21.325-80.386 6.458-2.959 13.327-7.551 23.02-2.611 12.13 6.185 14.122 22.976 3.63 31.717zm-68.611 272.919c-8.542-2.172-14.911-9.967-14.911-19.127 0-4.065 1.234-7.963 3.521-11.247 29.94-.033 29.75.085 32.366-.097 1.449 2.056 2.482 4.358 3.055 6.799-4.76 2.872-14.473 11.759-17.167 14.536-2.689 2.765-4.988 5.816-6.864 9.136z"/></g></svg>