<svg id="Capa_1" enable-background="new 0 0 511.942 511.942" height="512" viewBox="0 0 511.942 511.942" width="512" xmlns="http://www.w3.org/2000/svg"><g><g><g><path d="m355.725 195.633-39.417-39.417 142.355-142.354c8.501-8.501 22.285-8.501 30.786 0l8.631 8.631c8.501 8.501 8.501 22.284 0 30.786z" fill="#e9efff"/></g><g><path d="m468.362 32.192c8.416-8.416 20.873-10.318 31.122-5.72-.021-.046.611-.027 1.742.041-.877-1.427-1.911-2.784-3.147-4.019l-8.631-8.631c-8.501-8.501-22.284-8.501-30.786 0l-142.354 142.353 14.015 14.015z" fill="#d3dcfb"/></g><g><path d="m288.303 138.449-22.85 22.85 85.189 85.189 22.85-22.85c7.137-7.137 7.137-18.708 0-25.845l-59.344-59.344c-7.136-7.137-18.708-7.137-25.845 0z" fill="#1c8ae5"/></g><g><path d="m350.642 246.488-10.653 90.179c-5.01 42.413-24.158 81.902-54.357 112.101-39.194 39.194-93.545 59.326-148.815 55.122l-12.365-.941c-29.868-2.272-57.934-15.166-79.114-36.347-21.181-21.181-34.075-49.247-36.347-79.114l-.941-12.364c-4.204-55.27 15.928-109.621 55.122-148.815 30.199-30.199 69.689-49.347 112.101-54.357l90.179-10.653z" fill="#42c3fc"/></g><g><path d="m341.526 165.826-27.378-27.378c-7.137-7.137-18.708-7.137-25.845 0l-22.85 22.85 27.378 27.378 22.85-22.85c7.137-7.137 18.708-7.137 25.845 0z" fill="#1e6ee2"/></g><g><path d="m292.831 188.677-27.378-27.378-90.179 10.653c-42.413 5.01-81.902 24.158-112.101 54.357-39.195 39.195-59.327 93.546-55.123 148.815l.941 12.365c2.272 29.868 15.166 57.934 36.347 79.114 4.581 4.581 9.485 8.772 14.659 12.554.035.021.083.025.115.049-13.661-18.727-21.966-40.974-23.743-64.34l-.941-12.365c-4.204-55.27 15.928-109.621 55.122-148.815 30.199-30.199 69.689-49.347 112.101-54.357z" fill="#1aa9e8"/></g><g><path d="m494.49 236.175-26.383-57.423c-2.761-6.009-11.307-5.989-14.039.034l-26.033 57.389c-10.957 24.155 6.704 51.559 33.228 51.559 26.523 0 44.184-27.404 33.227-51.559z" fill="#b8f0ff"/></g><g><path d="m471.734 186.646-3.627-7.895c-2.761-6.009-11.307-5.989-14.039.034l-26.033 57.389c-10.957 24.155 6.704 51.559 33.228 51.559 3.736 0 7.287-.561 10.616-1.562-20.306-6.11-32.025-29.244-22.611-49.997z" fill="#8ddcff"/></g><g><circle cx="178.648" cy="333.27" fill="#deecf1" r="70.564"/></g><path d="m141.352 295.974c25.421-25.421 65.403-27.371 93.082-5.89-1.805-2.325-3.755-4.574-5.89-6.71-27.557-27.557-72.235-27.557-99.792 0s-27.557 72.235 0 99.792c2.136 2.135 4.385 4.085 6.71 5.89-21.481-27.68-19.531-67.661 5.89-93.082z" fill="#d3dcfb"/><g><path d="m207.648 344.151-8.086-8.086c-1.544-1.544-1.544-4.048 0-5.592l8.086-8.086c3.936-3.936 3.936-10.319 0-14.255l-3.863-3.863c-3.936-3.936-10.319-3.936-14.255 0l-8.086 8.086c-1.544 1.544-4.048 1.544-5.592 0l-8.086-8.086c-3.936-3.936-10.319-3.936-14.255 0l-3.863 3.863c-3.936 3.936-3.936 10.319 0 14.255l8.086 8.086c1.544 1.544 1.544 4.048 0 5.592l-8.086 8.086c-3.936 3.936-3.936 10.319 0 14.255l3.863 3.863c3.936 3.936 10.319 3.936 14.255 0l8.086-8.086c1.544-1.544 4.048-1.544 5.592 0l8.086 8.086c3.936 3.936 10.319 3.936 14.255 0l3.863-3.863c3.936-3.936 3.936-10.318 0-14.255z" fill="#b3e59f"/></g></g><g><path d="m374.137 187.829 129.246-129.247c11.411-11.412 11.411-29.98 0-41.393l-8.632-8.631c-11.412-11.41-29.98-11.41-41.393 0l-90.564 90.564c-2.929 2.93-2.929 7.678 0 10.607 2.93 2.928 7.678 2.928 10.607 0l90.564-90.564c5.563-5.564 14.617-5.564 20.179 0l8.631 8.631c5.563 5.562 5.563 14.615 0 20.179l-129.245 129.247-28.811-28.81 18.135-18.134c2.929-2.93 2.929-7.678 0-10.607-2.93-2.928-7.678-2.928-10.607 0l-18.135 18.135-4.66-4.66c-10.051-10.049-26.401-10.049-36.452 0l-21.011 21.011-87.594 10.347c-43.891 5.185-85.273 25.251-116.525 56.502-40.788 40.789-61.672 97.17-57.297 154.687l.94 12.365c2.406 31.636 16.087 61.414 38.521 83.85 22.435 22.434 52.213 36.114 83.85 38.521l12.365.94c5.03.383 10.043.571 15.047.571 52.204 0 102.419-20.648 139.641-57.869 31.25-31.251 51.316-72.634 56.502-116.525.486-4.113-2.455-7.842-6.568-8.328-4.111-.484-7.843 2.455-8.328 6.568-4.792 40.56-23.335 78.801-52.214 107.678-37.689 37.693-89.791 56.995-142.942 52.948l-12.364-.94c-28.064-2.135-54.479-14.271-74.38-34.172-19.902-19.901-32.038-46.316-34.172-74.379l-.94-12.366c-4.043-53.15 15.256-105.251 52.947-142.942 28.879-28.88 67.119-47.422 107.678-52.213l86.566-10.225 80.047 80.046-6.05 51.218c-.486 4.113 2.455 7.842 6.568 8.328 4.113.487 7.843-2.455 8.328-6.568l6.171-52.245 21.011-21.011c10.049-10.05 10.049-26.402 0-36.452zm-5.948 30.505-17.547 17.548-74.583-74.582 17.548-17.547c4.201-4.2 11.037-4.201 15.238 0l59.344 59.344c4.201 4.201 4.201 11.035 0 15.237z"/><path d="m501.305 233.044-26.384-57.424c-2.514-5.471-7.809-8.863-13.825-8.863-.013 0-.026 0-.039 0-6.032.015-11.328 3.436-13.82 8.93l-26.032 57.39c-6.204 13.677-5.051 29.377 3.084 42 8.135 12.622 21.957 20.158 36.974 20.158s28.839-7.536 36.974-20.158c8.135-12.623 9.288-28.323 3.084-42-.006-.012-.011-.023-.016-.033zm-15.677 33.906c-5.361 8.318-14.47 13.284-24.365 13.284s-19.004-4.966-24.365-13.284c-5.36-8.318-6.12-18.665-2.032-27.677l26.032-57.39c.032-.072.056-.1.055-.1.061-.038.227-.037.279-.005.001 0 .025.026.061.104l26.374 57.402c4.08 9.011 3.318 19.351-2.039 27.666z"/><path d="m139.197 351.279c0 4.696 1.829 9.111 5.148 12.43l3.862 3.864c3.321 3.32 7.735 5.148 12.431 5.148s9.11-1.828 12.432-5.148l5.578-5.579 5.578 5.579c3.321 3.32 7.735 5.148 12.432 5.148 4.695 0 9.109-1.828 12.431-5.148l3.863-3.863c6.854-6.854 6.854-18.007 0-24.861 0 0 0-.001-.001-.001l-5.578-5.578 5.579-5.578c6.853-6.854 6.853-18.006 0-24.861l-3.863-3.863c-6.855-6.854-18.007-6.854-24.862 0l-5.578 5.579-5.578-5.579c-6.855-6.854-18.009-6.854-24.862.001l-3.862 3.862c-3.32 3.321-5.148 7.735-5.148 12.432 0 4.695 1.828 9.109 5.148 12.431l5.578 5.578-5.578 5.577c-3.322 3.32-5.15 7.734-5.15 12.43zm23.841-26.109-8.085-8.085c-.658-.657-.756-1.425-.756-1.823 0-.399.098-1.167.756-1.825l3.862-3.862c.657-.658 1.425-.756 1.823-.756.399 0 1.167.098 1.824.756l8.086 8.086c2.164 2.163 5.04 3.354 8.1 3.354s5.936-1.191 8.1-3.354l8.086-8.086c.657-.658 1.425-.756 1.824-.756.398 0 1.166.098 1.823.756l3.863 3.862c1.006 1.006 1.006 2.644.001 3.648l-8.088 8.087c-4.463 4.466-4.463 11.73.002 16.198l8.085 8.084c1.006 1.006 1.006 2.644 0 3.648l-3.863 3.863c-.657.658-1.425.756-1.823.756-.399 0-1.167-.098-1.824-.756l-8.086-8.086c-2.164-2.163-5.04-3.354-8.1-3.354s-5.936 1.191-8.1 3.354l-8.086 8.086c-.657.658-1.425.756-1.824.756-.398 0-1.166-.098-1.823-.755l-3.863-3.864c-.657-.657-.755-1.425-.755-1.823 0-.399.098-1.167.756-1.824l8.086-8.087c4.463-4.466 4.463-11.731-.001-16.198z"/><path d="m237.094 309.535c1.555 3.837 5.927 5.688 9.769 4.132 3.839-1.557 5.688-5.93 4.132-9.769-3.929-9.688-9.698-18.379-17.147-25.828-30.436-30.436-79.962-30.436-110.399 0-30.437 30.438-30.437 79.962.001 110.399 15.218 15.218 35.209 22.827 55.199 22.827s39.981-7.609 55.2-22.827c14.413-14.414 22.529-33.574 22.854-53.952.065-4.142-3.238-7.553-7.38-7.618-.041-.001-.081-.001-.121-.001-4.087 0-7.432 3.28-7.497 7.381-.262 16.461-6.818 31.939-18.462 43.583-24.59 24.588-64.601 24.588-89.187 0-24.589-24.588-24.589-64.597-.001-89.185 24.588-24.59 64.599-24.59 89.187 0 6.021 6.022 10.681 13.039 13.852 20.858z"/></g></g></svg>