<svg id="Capa_1" enable-background="new 0 0 512.003 512.003" height="512" viewBox="0 0 512.003 512.003" width="512" xmlns="http://www.w3.org/2000/svg"><g><g><path d="m154.362 422.092-7.68 82.41h218.64l-7.79-83.63-11.05-118.64h-47.36-86.24-47.36z" fill="#f7f9fa"/><path d="m357.532 420.872-11.05-118.64h-21.597l11.05 118.64 7.79 83.63h21.597z" fill="#e9edf1"/><path d="m165.522 302.232-18.84 202.27h-69.2l25.01-148.94c2.59-15.4 10.54-28.73 21.75-38.21 11.21-9.49 25.68-15.12 41.28-15.12z" fill="#f7f9fa"/><path d="m143.563 306.119-18.478 198.383h21.596l18.84-202.27c-7.678 0-15.08 1.37-21.958 3.887z" fill="#e9edf1"/><path d="m434.522 504.502h-69.2l-18.84-202.27c15.6 0 30.07 5.63 41.28 15.12 11.21 9.48 19.16 22.81 21.75 38.21z" fill="#f7f9fa"/><path d="m409.512 355.562c-2.59-15.4-10.54-28.73-21.75-38.21-11.21-9.49-25.68-15.12-41.28-15.12l.362 3.887c7.094 2.597 13.63 6.414 19.322 11.233 11.21 9.48 19.16 22.81 21.75 38.21l25.01 148.94h21.596z" fill="#e9edf1"/><path d="m146.682 228.779h-19.66c-11.606 0-21.014-9.408-21.014-21.014v-24.001c0-11.606 9.408-21.014 21.014-21.014h19.656z" fill="#ffe5c2"/><path d="m146.678 162.749h-19.656c-.655 0-1.301.039-1.941.098l.004 65.834c.639.058 1.283.098 1.937.098h19.659z" fill="#fed2a4"/><path d="m384.981 228.779h-19.659l.004-66.029h19.656c11.606 0 21.014 9.408 21.014 21.014v24.001c0 11.605-9.409 21.014-21.015 21.014z" fill="#ffe5c2"/><path d="m384.981 162.749h-19.656v.098c10.695.981 19.074 9.965 19.074 20.916v24.001c0 10.952-8.381 19.938-19.077 20.916v.098h19.659c11.606 0 21.014-9.408 21.014-21.014v-24.001c.001-11.605-9.408-21.014-21.014-21.014z" fill="#fed2a4"/><path d="m206.272 316.612 51.524 52.805 47.936-52.805v-25.19h-99.46z" fill="#ffe5c2"/><path d="m284.135 291.422v25.19l-37.527 41.339 11.188 11.466 47.936-52.805v-25.19z" fill="#fed2a4"/><path d="m365.322 150.042v81.59c0 27.82-12.57 52.7-32.34 69.27-8.02 6.73-17.22 12.09-27.25 15.71-9.61 3.49-19.97 5.39-30.78 5.39h-37.9c-10.81 0-21.17-1.9-30.78-5.39-10.03-3.62-19.23-8.98-27.25-15.71-19.77-16.57-32.34-41.45-32.34-69.27v-81.59c0-41.16 33.36-74.52 74.52-74.52h69.6c41.16 0 74.52 33.36 74.52 74.52z" fill="#ffe5c2"/><path d="m290.802 75.522h-21.596c41.16 0 74.52 33.36 74.52 74.52v81.59c0 27.82-12.57 52.7-32.34 69.27-8.02 6.73-17.22 12.09-27.25 15.71-9.61 3.49-19.97 5.39-30.78 5.39h21.596c10.81 0 21.17-1.9 30.78-5.39 10.03-3.62 19.23-8.98 27.25-15.71 19.77-16.57 32.34-41.45 32.34-69.27v-81.59c0-41.16-33.36-74.52-74.52-74.52z" fill="#fed2a4"/><path d="m237.405 75.523h37.193v29.236h-37.193z" fill="#a2aee6"/><path d="m253.002 75.523h21.596v29.236h-21.596z" fill="#8795de"/><path d="m274.598 75.523 21.672-6.256c8.83-2.549 17.267 5.06 15.64 14.106l-4.087 22.723c-1.582 8.794-11.664 13.078-19.092 8.112l-14.133-9.449z" fill="#a2aee6"/><path d="m296.271 69.268-9.743 2.812c2.938 2.716 4.589 6.828 3.786 11.293l-4.087 22.723c-.343 1.905-1.102 3.581-2.128 5.015l4.633 3.097c7.428 4.966 17.511.682 19.092-8.112l4.087-22.723c1.626-9.045-6.81-16.654-15.64-14.105z" fill="#8795de"/><path d="m237.405 75.523-21.672-6.256c-8.83-2.549-17.267 5.06-15.64 14.106l4.087 22.723c1.582 8.794 11.664 13.078 19.092 8.112l14.133-9.449z" fill="#a2aee6"/><path d="m215.733 69.268c-4.471-1.291-8.839.026-11.853 2.812l11.929 3.443v29.236l-9.501 6.352c3.714 5.185 11.145 6.988 16.964 3.097l14.133-9.449v-29.236z" fill="#8795de"/><path d="m285.193 269.13h-54.794v-3.466c0-15.131 12.266-27.397 27.397-27.397 15.131 0 27.397 12.266 27.397 27.397z" fill="#fe5694"/><path d="m257.796 238.267c-3.835 0-7.484.791-10.798 2.214 9.761 4.191 16.599 13.887 16.599 25.183v3.466h21.596v-3.466c0-15.131-12.266-27.397-27.397-27.397z" fill="#fd3581"/><g><path d="m332.982 206.572v94.33c-8.02 6.73-17.22 12.09-27.25 15.71v-110.04z" fill="#a6e7f0"/><path d="m332.982 274.382v26.52c-8.02 6.73-17.22 12.09-27.25 15.71v-11.34c1.94-1.38 3.83-2.84 5.65-4.37 8.77-7.35 16.14-16.35 21.6-26.52z" fill="#6bd9e7"/><path d="m319.385 206.572v94.33c-4.236 3.555-8.81 6.715-13.654 9.451v6.259c10.03-3.62 19.23-8.98 27.25-15.71v-94.33z" fill="#6bd9e7"/><path d="m206.272 206.572v110.04c-10.03-3.62-19.23-8.98-27.25-15.71v-94.33z" fill="#a6e7f0"/><path d="m192.675 206.572v103.781c4.326 2.443 8.865 4.551 13.596 6.259v-110.04z" fill="#6bd9e7"/></g></g><g><path d="m160.527 355.824c-4.12-.373-7.778 2.648-8.163 6.772l-7.46 80.112c-7.026-6.475-14.139-9.248-14.622-9.432-3.874-1.466-8.203.482-9.671 4.356-2.018 14.168 14.774 7.593 22.138 28.219l-3.534 37.954c-.384 4.124 2.648 7.779 6.772 8.163.236.021.471.032.704.032 3.828 0 7.097-2.917 7.459-6.805l13.15-141.21c.383-4.122-2.648-7.777-6.773-8.161z"/><path d="m441.918 503.26-25.01-148.941c-4.832-31.85-34.101-58.522-67.21-59.512 13.856-16.366 21.987-36.866 23.008-58.528h12.276c15.723 0 28.515-12.791 28.515-28.514v-24.001c0-15.723-12.792-28.515-28.515-28.515h-12.159v-5.207c0-18.083-5.768-35.229-16.679-49.585-9.766-12.848-23.329-22.65-38.496-27.915-1.103-2.283-2.653-4.372-4.612-6.139-5.144-4.639-12.188-6.261-18.845-4.342l-20.647 5.96h-9.445c.651-5.893 1.994-14.455 4.741-23.09 6.002-18.869 15.57-28.946 28.438-29.952 4.13-.323 7.216-3.933 6.894-8.062-.323-4.13-3.92-7.226-8.062-6.894-13.439 1.051-31.56 8.905-41.565 40.36-3.375 10.611-4.872 20.979-5.531 27.637h-10.554l-20.647-5.96c-6.656-1.92-13.701-.299-18.844 4.341-5.145 4.64-7.483 11.479-6.257 18.298l4.087 22.725c2.346 12.926 17.699 21.281 30.642 13.019l12.242-8.185h32.64l12.241 8.185c9.91 7.43 28.42 1.534 30.643-13.02l3.308-18.395c23.535 10.735 39.309 34.628 39.309 61.013v81.59c0 24.571-10.81 47.725-29.66 63.525-14.173 11.91-33.289 19.348-53.21 19.345h-37.9c-18.208.073-38.266-6.614-53.212-19.348-18.848-15.797-29.658-38.95-29.658-63.522v-81.59c0-18.065 7.078-35 19.929-47.686 2.948-2.91 2.979-7.659.068-10.606-2.909-2.947-7.659-2.979-10.606-.069-15.729 15.526-24.391 36.253-24.391 58.361v5.207h-12.16c-15.723 0-28.514 12.792-28.514 28.515v24.001c0 15.723 12.792 28.514 28.514 28.514h12.277c1.021 21.663 9.152 42.163 23.007 58.528-32.072.893-62.292 26.799-67.211 59.514l-25.012 148.94c-.686 4.085 2.069 7.953 6.154 8.639.421.07.838.104 1.251.104 3.596 0 6.772-2.595 7.388-6.259l25.01-148.938c3.903-25.849 28.376-47.48 55.634-47.074h12.567c6.295 4.766 13.097 8.714 20.305 11.808l-13.228 182.42c-.299 4.131 2.807 7.723 6.938 8.022.185.014.368.02.55.02 3.895 0 7.187-3.011 7.473-6.958l12.419-171.261 37.749 38.688v35.305c0 4.143 3.358 7.5 7.5 7.5 4.143 0 7.5-3.357 7.5-7.5v-35.462l33.823-37.257 12.327 169.988c.286 3.947 3.577 6.958 7.473 6.958.183 0 .365-.006.55-.02 4.132-.3 7.238-3.892 6.938-8.022l-13.215-182.237c7.369-3.123 14.309-7.135 20.724-11.991h12.567c26.02-.466 51.617 20.185 55.633 47.072l25.01 148.939c.615 3.664 3.791 6.259 7.388 6.259.412 0 .83-.034 1.251-.104 4.084-.686 6.839-4.554 6.154-8.639zm-222.815-395.287c-1.987 1.329-3.904.748-4.637.437-.733-.312-2.482-1.289-2.905-3.64l-4.086-22.724c-.435-2.419.932-3.956 1.54-4.504.781-.211 1.189-1.548 4.638-1.068l16.252 4.691v19.586zm25.803-24.95h22.193v14.235h-22.193zm59.622-.977-4.086 22.723c-.423 2.352-2.173 3.329-2.905 3.641-.731.312-2.651.892-4.637-.436l-10.802-7.223v-19.586l16.252-4.691c2.358-.68 4.03.521 4.638 1.068.608.548 1.976 2.085 1.54 4.504zm68.298 88.203h12.155c7.452 0 13.515 6.062 13.515 13.515v24.001c0 7.451-6.062 13.514-13.515 13.514h-12.159zm-245.804 51.029c-7.452 0-13.514-6.062-13.514-13.514v-24.001c0-7.452 6.062-13.515 13.514-13.515h12.156l.003 51.029h-12.159zm147.93 108.224c3.142 0 6.264-.162 9.365-.457l-26.718 29.431-28.599-29.31c2.669.218 5.353.336 8.051.336z"/><path d="m256.002 190.895c-4.142 0-7.5 3.357-7.5 7.5v10.405c0 4.143 3.358 7.5 7.5 7.5h6.891c4.143 0 7.5-3.357 7.5-7.5 0-3.938-3.033-7.166-6.891-7.476v-2.929c0-4.142-3.358-7.5-7.5-7.5z"/><path d="m381.131 433.277c-.471.178-7.233 2.81-14.077 8.931l-7.414-79.612c-.385-4.123-4.033-7.152-8.163-6.772-4.124.384-7.156 4.039-6.772 8.163l13.15 141.21c.362 3.888 3.631 6.806 7.459 6.806.232 0 .468-.012.704-.033 4.124-.384 7.156-4.039 6.772-8.163l-3.643-39.121c4.535-12.175 17.03-17.273 17.333-17.394 3.851-1.48 5.785-5.796 4.322-9.658-1.469-3.875-5.798-5.823-9.671-4.357z"/><path d="m222.898 265.664v3.466c0 4.143 3.358 7.5 7.5 7.5h54.795c4.143 0 7.5-3.357 7.5-7.5v-3.466c0-19.242-15.655-34.896-34.897-34.896-19.243 0-34.898 15.654-34.898 34.896zm34.898-19.896c9.589 0 17.616 6.819 19.486 15.862h-38.973c1.871-9.043 9.897-15.862 19.487-15.862z"/><path d="m257.796 435.355c-4.142 0-7.5 3.357-7.5 7.5v61.646c0 4.143 3.358 7.5 7.5 7.5 4.143 0 7.5-3.357 7.5-7.5v-61.646c0-4.142-3.358-7.5-7.5-7.5z"/><path d="m315.9 187.608c-3.653-1.957-8.197-.584-10.153 3.067l-6.621 12.354c-1.246 2.324-1.18 5.132.175 7.396 1.354 2.263 3.798 3.647 6.436 3.647h27.242c4.143 0 7.5-3.357 7.5-7.5s-3.357-7.5-7.5-7.5h-14.713l.702-1.311c1.957-3.65.583-8.196-3.068-10.153z"/><path d="m171.526 206.572c0 4.143 3.358 7.5 7.5 7.5h27.242c2.637 0 5.081-1.385 6.435-3.647 1.354-2.264 1.421-5.071.175-7.396l-6.621-12.354c-1.958-3.651-6.505-5.025-10.153-3.067-3.651 1.957-5.024 6.503-3.067 10.153l.702 1.311h-14.712c-4.143 0-7.501 3.358-7.501 7.5z"/><circle cx="285.191" cy="395.635" r="7.5"/></g></g></svg>