<svg id="Capa_1" enable-background="new 0 0 512.067 512.067" height="512" viewBox="0 0 512.067 512.067" width="512" xmlns="http://www.w3.org/2000/svg"><g><g><path d="m475.094 307.959-12.085-51.959-3.814 1.826-3.75 38.875-25.25 62.5-1.65 11.414c2.432 5.459 6.392 10.711 12.83 12.47.151.041.302.083.451.123 9.961 2.726 20.194-3.337 22.589-13.382l10.632-44.594c1.353-5.676 1.369-11.589.047-17.273z" fill="#ffcebe"/><path d="m379.083 62.886-28.722 32.648-29.667 68.333 5.27 8.217c3.986-1.289 8.346-1.911 13.135-1.667 35.443 1.811 30.349 37.208 24.198 47.126-4.038 6.512-12.92 21.321-18.545 30.723-2.863 4.787-8.518 7.082-13.908 5.646-11.348-3.022-31.469-6.943-48.033-2.519-8.206 2.191-13.948 9.588-14.067 18.081-.068 4.859 3.268 9.107 8.006 10.191l64.903 14.851c8.669 1.984 17.723-.77 23.861-7.206 7.733-8.109 18.446-20.605 27.689-35.951 1.481-2.46 5.259-1.321 5.104 1.547-.566 10.478-1.319 25.512-1.544 35.209-.073 3.143-1.54 6.066-4.03 7.986-11.488 8.86-44.709 35.452-55.998 55.073-3.583 6.227-3.581 13.878.029 20.091 3.278 5.641 10.775 7.102 15.932 3.107l42.962-33.288c1.396-1.081 3.283.489 2.47 2.056-6.793 13.089-19.401 41.227-9.19 52.914.079.091.159.181.238.272 7.189 8.173 20.281 6.853 25.922-2.457 16.329-26.95 45.92-80.136 47.415-113.902 2.07-46.758-3.778-90.999 8.445-130.338 1.761-5.668 3.242-10.436 4.532-14.588v-5.008z" fill="#ffdecf"/><path d="m354.024 48.339c-14.289 16.201-32.941 36.016-48.446 47.993-29.676 22.927-69.033 120.091-64.281 137.943s33.682 12.093 41.943-4.111c7.145-14.015 17.207-49.829 42.725-58.08 6.333-45.764 43.855-91.325 57.24-106.328l-25.008-17.418h-4.173z" fill="#ffcebe"/><path d="m500.062 91.938-92.038-65.256c-3.955.11-7.796 2.092-10.069 5.72l-15.733 25.108c-2.36 3.766-2.648 8.248-1.185 12.134l89.279 63.3c5.763 4.086 13.763 2.604 17.68-3.275l14.91-22.378c3.361-5.044 2.101-11.847-2.844-15.353z" fill="#dbedff"/><path d="m382.728 57.748 15.438-24.636c2.447-3.905 6.744-5.892 11.01-5.613l-24.047-17.049c-5.253-3.724-12.556-2.265-15.975 3.191l-14.356 22.911c-3.528 5.631-2.049 13.037 3.372 16.88l23.569 16.711c-1.651-3.921-1.424-8.542.989-12.395z" fill="#b5dcff"/><path d="m37.478 204.107 12.085 51.959 3.814-1.826 3.75-38.875 25.25-62.5 1.65-11.414c-2.432-5.459-6.392-10.711-12.83-12.47-.151-.041-.302-.083-.451-.123-9.961-2.726-20.194 3.337-22.589 13.382l-10.632 44.594c-1.352 5.676-1.369 11.589-.047 17.273z" fill="#ffb1a0"/><path d="m229.333 281.901c-8.261 16.204-20.416 61.558-55.86 59.747-16.965-.867-24.639-9.43-27.359-19.209h-10.086l-29.034 85.096 4.2 26.117 43.181 30.075h4.174c14.289-16.201 32.941-36.015 48.446-47.993 29.676-22.927 69.033-120.091 64.281-137.943s-33.682-12.094-41.943 4.11z" fill="#ffdecf"/><path d="m146.114 322.438c-2.962-10.651-.046-22.746 3.161-27.916 4.038-6.512 12.92-21.321 18.545-30.723 2.863-4.787 8.518-7.082 13.908-5.646 11.348 3.022 31.469 6.943 48.033 2.519 8.206-2.191 13.948-9.588 14.067-18.081.068-4.859-3.268-9.107-8.006-10.19l-64.903-14.851c-8.669-1.984-17.723.77-23.861 7.206-7.733 8.109-18.446 20.605-27.689 35.951-1.481 2.46-5.259 1.321-5.104-1.547.566-10.478 1.319-25.512 1.544-35.209.073-3.143 1.54-6.066 4.03-7.986 11.488-8.86 44.709-35.452 55.998-55.073 3.583-6.227 3.581-13.878-.029-20.091-3.278-5.641-10.775-7.102-15.932-3.107l-42.962 33.289c-1.396 1.081-3.283-.489-2.47-2.056 6.793-13.089 19.401-41.227 9.19-52.914-.079-.091-.159-.181-.238-.272-7.189-8.173-20.281-6.853-25.922 2.457-16.329 26.95-45.92 80.136-47.415 113.902-2.07 46.758 3.778 90.999-8.445 130.338-1.761 5.668-3.242 10.436-4.532 14.588v5.008l80.031 55.741c-4.32-51.921 16.758-95.101 29.001-115.337z" fill="#ffcebe"/><path d="m154.403 458.635-38.891-27.574c-4.083.442-7.955 2.586-10.418 6.282l-17.096 25.66c-1.887 2.833-2.48 6.145-1.95 9.263l41.397 29.351c5.253 3.724 12.556 2.265 15.975-3.191l14.356-22.911c3.527-5.631 2.048-13.037-3.373-16.88z" fill="#dbedff"/><path d="m88.6 463.208 16.737-25.12c2.627-3.943 6.892-6.108 11.278-6.246l-74.358-52.72c-5.763-4.086-13.763-2.604-17.68 3.275l-14.91 22.378c-3.361 5.044-2.101 11.847 2.844 15.353l74.262 52.652c-.676-3.197-.122-6.647 1.827-9.572z" fill="#b5dcff"/></g><path d="m504.148 85.82-43.399-30.771c-3.378-2.396-8.062-1.6-10.456 1.78-2.396 3.379-1.599 8.061 1.78 10.456l43.399 30.771c1.646 1.167 2.059 3.396.94 5.076l-14.911 22.378c-1.652 2.479-4.919 2.843-7.082 1.325-.006-.004-.012-.006-.018-.01l-112.146-79.512c-2.1-1.488-2.803-4.469-1.354-6.779l14.355-22.911c1.131-1.805 3.544-2.286 5.282-1.055l42.979 30.473c3.379 2.396 8.061 1.599 10.456-1.78s1.599-8.061-1.78-10.456l-42.979-30.473c-8.758-6.208-20.967-3.774-26.669 5.326l-14.355 22.911c-2.687 4.287-3.534 9.22-2.769 13.878-17.677 19.829-33.083 34.991-44.681 43.95-20.262 15.653-39.849 56.814-47.329 73.785-3.28 7.442-17.044 39.543-19.764 60.085l-61.385-14.048c-11.115-2.541-22.933 1.025-30.841 9.313-5.525 5.789-12.307 13.514-19.047 22.752.302-6.546.562-13.055.68-18.161.021-.883.426-1.693 1.111-2.222 13.493-10.405 46.148-36.814 57.919-57.272 4.907-8.529 4.891-19.104-.045-27.6-5.547-9.544-18.258-12.048-27.011-5.267l-24.824 19.238c10.638-30.678-1.028-39.086-1.43-40.216-10.505-11.941-29.662-10.181-37.967 3.524-2.392 3.947-5.014 8.372-7.756 13.139-14.228-13.214-37.865-6.142-42.441 13.054l-10.632 44.594c-1.614 6.771-1.634 13.934-.057 20.711l11.89 51.12c-.009 5.844.032 11.627.075 17.327.233 30.73.454 59.757-7.687 85.957l-2.926 9.417c-.056.01-.113.012-.169.023-5.37.994-9.995 4.046-13.022 8.591l-14.91 22.378c-5.649 8.479-3.563 19.736 4.747 25.629l114.934 81.488c8.778 6.224 20.979 3.753 26.668-5.326l14.356-22.911c2.686-4.286 3.533-9.22 2.768-13.877 17.677-19.829 33.083-34.991 44.681-43.951 14.212-10.979 28.146-34.733 37.334-52.728 1.884-3.688.42-8.206-3.27-10.09-3.688-1.883-8.206-.421-10.09 3.27-11.827 23.164-23.908 40.542-33.145 47.677-11.842 9.148-26.563 23.466-43.819 42.611l-111.996-79.409c-.111-.078-.224-.156-.336-.232l2.52-8.108c8.834-28.432 8.604-58.592 8.361-90.523-.105-13.833-.196-27.908.414-41.708 1.388-31.428 30.077-83.514 46.336-110.348 1.471-2.427 3.936-3.963 6.762-4.213 4.888-.431 7.178 2.962 7.336 3.075 6.597 7.551-3.699 33.713-13.076 49.85l-17.712 13.724c-6.862 5.317-11.256 12.985-12.38 21.659l-9.001 74.56c-.496 4.111 2.436 7.848 6.548 8.345 4.15.492 7.851-2.463 8.345-6.548l8.992-74.494c.603-4.649 2.977-8.792 6.684-11.664l18.855-14.609 49.229-38.145c1.57-1.217 3.855-.774 4.854.945 2.248 3.868 2.253 8.69.013 12.583-10.723 18.638-44.102 45.183-54.077 52.875-4.289 3.308-6.82 8.319-6.947 13.751-.321 13.828-1.748 39.001-2.117 45.382-4.699 9.482-8.239 18.976-10.501 28.243-.982 4.024 1.484 8.082 5.508 9.064 4.042.984 8.086-1.499 9.064-5.508 2.104-8.618 5.472-17.519 10.013-26.452 9.731-19.143 22.908-34.828 32.248-44.616 4.277-4.482 10.654-6.418 16.644-5.046l64.981 14.869c1.307.299 2.196 1.511 2.179 2.773-.072 5.124-3.568 9.623-8.504 10.94-15.078 4.029-34.144.149-44.167-2.521-8.569-2.283-17.726 1.438-22.274 9.043-6.302 10.535-14.623 24.398-18.482 30.621-4.953 7.987-8.8 26.458-1.323 40.739 6.596 12.596 19.71 17.896 34.045 17.896 39.276-.005 52.242-47.914 60.392-63.897 3.801-7.453 13.908-11.664 20.984-10.909 4.43.47 6.278 2.507 7.028 5.322 1.008 3.783-1.957 21.017-14.202 51.15-1.56 3.837.287 8.212 4.125 9.771 3.84 1.561 8.212-.287 9.771-4.125 4.323-10.64 12.823-32.965 14.923-48.724l61.413 14.054c11.117 2.542 22.934-1.026 30.841-9.313 5.525-5.789 12.307-13.514 19.047-22.752-.302 6.546-.562 13.055-.68 18.161-.021.883-.425 1.692-1.111 2.221-13.494 10.407-46.151 36.82-57.919 57.273-4.907 8.529-4.891 19.104.045 27.6 2.649 4.559 7.137 7.751 12.312 8.76 5.175 1.008 10.532-.265 14.699-3.493l24.825-19.236c-10.659 30.737 1.039 39.117 1.43 40.216 10.504 11.941 29.662 10.182 37.967-3.524 2.392-3.947 5.014-8.372 7.756-13.139 13.844 12.855 37.762 6.574 42.441-13.054l10.632-44.594c1.614-6.771 1.634-13.934.057-20.711l-11.89-51.12c.009-5.844-.032-11.627-.075-17.327-.233-30.73-.454-59.757 7.687-85.957l2.925-9.416c.056-.01.113-.013.169-.024 5.37-.994 9.995-4.046 13.022-8.591l14.91-22.378c5.646-8.478 3.56-19.735-4.75-25.628zm-459.578 102.753 10.632-44.594c2.089-8.767 14.059-11.998 20.065-2.596-11.067 20.452-23.124 45.419-29.145 67.867l-1.592-6.844c-1.052-4.526-1.039-9.31.04-13.833zm106.596 282.959-14.356 22.912c-1.126 1.797-3.538 2.29-5.281 1.054l-114.934-81.489c-1.646-1.167-2.059-3.396-.94-5.076l14.911-22.378c1.609-2.415 4.832-2.912 7.091-1.321.003.002.006.003.006.003l112.149 79.515c2.076 1.472 2.811 4.456 1.354 6.78zm71.233-193.038c-8.183 16.05-19.259 57.2-48.796 55.664-9.578-.489-15.789-3.697-18.988-9.808-4.588-8.764-1.93-21.503.782-25.875 3.911-6.308 12.277-20.245 18.607-30.827 1.152-1.926 3.383-2.824 5.54-2.249 13.937 3.713 34.177 7.163 51.632 2.589-3.688 2.953-6.749 6.526-8.777 10.506zm20.436-16.986c2.851-2.723 5.082-6.065 6.5-9.772 6.468 1.804 13.545 1.086 19.896-1.179-2.852 2.723-5.082 6.065-6.5 9.772-6.497-1.812-13.575-1.075-19.896 1.179zm165.597 128.476c-3.051 5.035-10.076 5.711-13.853 1.418l-.245-.281c-6.597-7.551 3.699-33.712 13.076-49.849l17.712-13.724c6.862-5.317 11.256-12.985 12.38-21.659l9-74.56c.496-4.112-2.436-7.848-6.548-8.345-4.105-.483-7.848 2.436-8.345 6.548l-8.991 74.494c-.604 4.649-2.977 8.792-6.684 11.664l-18.854 14.61-49.229 38.145c-1.024.794-2.096.735-2.642.628-.547-.106-1.562-.453-2.212-1.573-2.248-3.868-2.253-8.69-.013-12.583 10.72-18.634 44.102-45.183 54.076-52.875 4.289-3.306 6.821-8.317 6.948-13.751.321-13.828 1.748-39.001 2.117-45.382 4.699-9.482 8.239-18.976 10.501-28.243.982-4.024-1.484-8.082-5.508-9.064-4.022-.979-8.082 1.485-9.064 5.508-2.104 8.618-5.472 17.519-10.013 26.452-9.731 19.143-22.908 34.828-32.248 44.616-4.277 4.482-10.653 6.422-16.644 5.046l-64.981-14.869c-1.307-.299-2.196-1.511-2.179-2.773.072-5.124 3.568-9.623 8.504-10.94 15.07-4.028 34.143-.149 44.166 2.52 8.569 2.284 17.727-1.437 22.275-9.043 6.313-10.552 14.644-24.43 18.482-30.62 4.953-7.987 8.8-26.458 1.322-40.739-3.98-7.603-12.678-16.868-31.511-17.83-41.028-2.083-54.15 46.623-62.925 63.831-3.801 7.454-13.92 11.661-20.984 10.91-4.441-.471-6.281-2.516-7.028-5.322-1.348-5.061 4.451-29.462 18.845-62.113 14.397-32.663 30.788-58.705 42.773-67.965 11.842-9.148 26.563-23.466 43.819-42.611l111.997 79.407c.111.078.224.156.336.232l-2.52 8.108c-8.834 28.432-8.604 58.592-8.361 90.523.197 26.132.367 42.843-2.259 54.938-.009.043-.019.086-.028.13-7.191 32.953-32.702 77.581-44.46 96.986zm-127.542-145.906c3.688-2.953 6.749-6.526 8.778-10.507 8.14-15.967 19.267-57.209 48.796-55.663 9.578.489 15.789 3.697 18.988 9.808 4.588 8.764 1.93 21.503-.782 25.875-3.892 6.275-12.267 20.227-18.608 30.827-1.149 1.921-3.378 2.82-5.54 2.248-9.181-2.445-21.093-4.774-33.145-4.774-6.245-.001-12.53.625-18.487 2.186zm186.607 79.415-10.632 44.594c-2.094 8.785-14.068 11.984-20.065 2.596 11.018-20.313 23.139-45.475 29.145-67.866l1.592 6.844c1.052 4.525 1.04 9.308-.04 13.832z"/></g></svg>