<svg id="Capa_1" enable-background="new 0 0 512 512" height="512" viewBox="0 0 512 512" width="512" xmlns="http://www.w3.org/2000/svg"><g><g><path d="m256 504.5c-11.75 0-21.276-9.526-21.276-21.276v-77.126h42.552v77.126c0 11.75-9.526 21.276-21.276 21.276z" fill="#f8a6af"/><path d="m386.16 165.5c2.31 16.46 3.53 33.62 3.53 51.25 0 123.46-59.86 223.55-133.69 223.55s-133.69-100.09-133.69-223.55c0-17.63 1.22-34.79 3.53-51.25z" fill="#f58a97"/><path d="m386.16 165.5h-30c2.31 16.46 3.53 33.62 3.53 51.25 0 114.979-51.921 209.671-118.69 222.141 4.925.92 9.928 1.409 15 1.409 73.83 0 133.69-100.09 133.69-223.55 0-17.63-1.22-34.79-3.53-51.25z" fill="#f07281"/><path d="m410 71.5h-308c-17.673 0-32-14.327-32-32 0-17.673 14.327-32 32-32h308c17.673 0 32 14.327 32 32 0 17.673-14.327 32-32 32z" fill="#f58a97"/><path d="m410 7.5h-30c17.673 0 32 14.327 32 32 0 17.673-14.327 32-32 32h30c17.673 0 32-14.327 32-32 0-17.673-14.327-32-32-32z" fill="#f07281"/><path d="m388 165.5h-264c-13.255 0-24-10.745-24-24v-70h312v70c0 13.255-10.745 24-24 24z" fill="#f8a6af"/><path d="m382 71.5v70c0 13.255-10.745 24-24 24h30c13.255 0 24-10.745 24-24v-70z" fill="#f58a97"/></g><path d="m410 0h-203.765c-4.142 0-7.5 3.357-7.5 7.5s3.358 7.5 7.5 7.5h203.765c13.51 0 24.5 10.99 24.5 24.5s-10.99 24.5-24.5 24.5h-308c-13.509 0-24.5-10.99-24.5-24.5s10.991-24.5 24.5-24.5h69.235c4.142 0 7.5-3.357 7.5-7.5s-3.358-7.5-7.5-7.5h-69.235c-21.78 0-39.5 17.72-39.5 39.5 0 18.505 12.794 34.073 30 38.338v63.662c0 15.109 10.694 27.762 24.91 30.801-1.72 14.567-2.6 29.48-2.6 44.449 0 61.046 14.284 118.551 40.222 161.922 19.865 33.218 44.84 55.306 72.188 64.411v40.137c0 15.869 12.911 28.78 28.78 28.78s28.78-12.911 28.78-28.78v-40.193c15.4-5.168 30.175-14.473 43.677-27.632 20.542-20.021 37.747-48.541 49.755-82.476 1.382-3.905-.663-8.19-4.568-9.572-3.905-1.383-8.19.664-9.572 4.568-11.245 31.777-27.181 58.313-46.084 76.737-24.597 23.973-37.858 27.024-61.988 28.148-25.245 1.176-64.527-17.197-88.095-61.827-22.35-42.324-38.095-95.849-38.095-154.223 0-14.745.881-29.431 2.615-43.75h247.149c1.735 14.324 2.616 29.009 2.616 43.75 0 26.865-2.873 53.089-8.54 77.943-.921 4.038 1.606 8.059 5.646 8.979 3.937.898 8.049-1.566 8.979-5.646 5.916-25.946 8.915-53.292 8.915-81.277 0-14.965-.88-29.877-2.601-44.449 14.216-3.039 24.91-15.692 24.91-30.801v-63.661c17.206-4.265 30-19.832 30-38.338.001-21.78-17.719-39.5-39.499-39.5zm-140.22 446.711v36.508c0 7.599-6.182 13.78-13.78 13.78s-13.78-6.182-13.78-13.78v-36.491c4.548.706 9.145 1.071 13.78 1.071 4.618.001 9.217-.368 13.78-1.088zm134.72-305.211c0 9.098-7.402 16.5-16.5 16.5h-264c-9.098 0-16.5-7.402-16.5-16.5v-62.5h297z"/></g></svg>