<svg id="Capa_1" enable-background="new 0 0 512 512" height="512" viewBox="0 0 512 512" width="512" xmlns="http://www.w3.org/2000/svg"><g><g><path d="m246.435 350.5h-123c-3.866 0-7-3.134-7-7v-267.5c0-37.831 30.668-68.5 68.5-68.5 37.831 0 68.5 30.668 68.5 68.5v267.5c0 3.866-3.134 7-7 7z" fill="#8fd8fa"/><path d="m184.935 7.5c-5.155 0-10.17.588-15 1.667 30.613 6.842 53.5 34.156 53.5 66.833v267.5c0 3.866-3.134 7-7 7h30c3.866 0 7-3.134 7-7v-267.5c0-37.832-30.668-68.5-68.5-68.5z" fill="#6bcdfe"/></g><path d="m341.399 273.34c-32.894 0-59.654 26.761-59.654 59.654v119.351c0 24.623-20.032 44.655-44.655 44.655-24.622 0-44.654-20.032-44.654-44.655v-94.345h54c7.995 0 14.5-6.505 14.5-14.5v-267.5c0-41.906-34.094-76-76.001-76-41.906 0-75.999 34.094-75.999 76v48.68c0 4.143 3.357 7.5 7.5 7.5s7.5-3.357 7.5-7.5v-48.68c0-33.636 27.364-61 61-61s61 27.364 61 61v267h-23.5v-79.312c0-4.143-3.357-7.5-7.5-7.5s-7.5 3.357-7.5 7.5v79.312h-45v-278.049c0-4.143-3.357-7.5-7.5-7.5s-7.5 3.357-7.5 7.5v278.049h-23.5v-183.32c0-4.143-3.357-7.5-7.5-7.5s-7.5 3.357-7.5 7.5v183.82c0 7.995 6.505 14.5 14.5 14.5h54v94.345c0 32.894 26.761 59.655 59.654 59.655s59.655-26.762 59.655-59.655v-119.351c0-24.622 20.032-44.654 44.654-44.654 25.208 0 46.729 19.544 46.665 44.654v171.506c0 4.143 3.357 7.5 7.5 7.5s7.5-3.357 7.5-7.5v-171.506c.018-33.73-28.034-59.654-61.665-59.654zm-126.463-37.152c4.143 0 7.5-3.357 7.5-7.5v-163.737c0-4.143-3.357-7.5-7.5-7.5s-7.5 3.357-7.5 7.5v163.737c0 4.143 3.357 7.5 7.5 7.5z"/></g></svg>