<svg id="Capa_1" enable-background="new 0 0 512.07 512.07" height="512" viewBox="0 0 512.07 512.07" width="512" xmlns="http://www.w3.org/2000/svg"><g><g><path d="m504.5 289.239v94.65c0 14.72-11.94 26.66-26.66 26.66h-443.68c-14.72 0-26.66-11.94-26.66-26.66v-139.28c0-49.94 40.48-90.42 90.43-90.42h285.51c31.67 0 61.04 16.57 77.41 43.69l33.8 55.99c.76 1.26 1.47 2.53 2.14 3.83 5.06 9.72 7.71 20.54 7.71 31.54z" fill="#ffe270"/><path d="m496.79 257.699c-.67-1.3-1.38-2.57-2.14-3.83l-33.8-55.99c-16.37-27.12-45.74-43.69-77.41-43.69h-19.5c31.67 0 61.04 16.57 77.41 43.69l33.8 55.99c.76 1.26 1.47 2.53 2.14 3.83 5.06 9.72 7.71 20.54 7.71 31.54v94.65c0 14.72-11.94 26.66-26.66 26.66h19.5c14.72 0 26.66-11.94 26.66-26.66v-94.65c0-11-2.65-21.82-7.71-31.54z" fill="#ffd15b"/><path d="m496.79 257.699h-489.29v-13.09c0-49.94 40.48-90.42 90.43-90.42h285.51c31.67 0 61.04 16.57 77.41 43.69l33.8 55.99c.76 1.26 1.47 2.53 2.14 3.83z" fill="#f7f9fa"/><path d="m494.65 253.869-33.8-55.99c-16.37-27.12-45.74-43.69-77.41-43.69h-21.5c31.67 0 61.04 16.57 77.41 43.69l33.8 55.99c.76 1.26 1.47 2.53 2.14 3.83h21.5c-.67-1.3-1.38-2.57-2.14-3.83z" fill="#e9edf1"/><path d="m97.92 183.189h224.6v74.51h-286.02v-13.09c0-33.87 27.55-61.42 61.42-61.42z" fill="#a6e7f0"/><path d="m301.02 183.189h21.5v74.51h-21.5z" fill="#6bd9e7"/><path d="m463.08 257.699h-112v-74.51h32.36c21.38 0 41.53 11.37 52.58 29.68z" fill="#a6e7f0"/><path d="m436.02 212.869c-11.05-18.31-31.2-29.68-52.58-29.68h-21.5c21.38 0 41.53 11.37 52.58 29.68l27.06 44.83h21.5z" fill="#6bd9e7"/><path d="m444.1 410.549h-120.33c0-33.23 26.94-60.17 60.17-60.17s60.16 26.94 60.16 60.17z" fill="#f7f9fa"/><path d="m383.94 350.379c-3.672 0-7.26.347-10.75.977 28.096 5.071 49.41 29.635 49.41 59.193h21.5c0-33.23-26.93-60.17-60.16-60.17z" fill="#e9edf1"/><path d="m189.976 410.549h-120.33c0-33.23 26.94-60.17 60.17-60.17s60.16 26.94 60.16 60.17z" fill="#f7f9fa"/><path d="m129.816 350.379c-3.672 0-7.26.347-10.75.977 28.096 5.071 49.41 29.635 49.41 59.193h21.5c0-33.23-26.93-60.17-60.16-60.17z" fill="#e9edf1"/><path d="m504.5 331.806h-19.11c-10.554 0-19.11-8.556-19.11-19.11 0-10.554 8.556-19.11 19.11-19.11h19.11z" fill="#fe5694"/><path d="m485.39 293.587c-.132 0-.259.017-.39.02v38.18c.131.003.258.02.39.02h19.11v-38.22z" fill="#fd3581"/><circle cx="129.811" cy="410.55" fill="#5d5360" r="32.861"/><path d="m129.811 377.69c-3.766 0-7.38.642-10.75 1.808 12.867 4.454 22.111 16.67 22.111 31.052s-9.243 26.598-22.111 31.052c3.37 1.166 6.984 1.808 10.75 1.808 18.148 0 32.861-14.712 32.861-32.861s-14.712-32.859-32.861-32.859z" fill="#4b3f4e"/><circle cx="383.937" cy="410.55" fill="#5d5360" r="32.861"/><path d="m383.937 377.69c-3.766 0-7.38.642-10.75 1.808 12.867 4.454 22.111 16.67 22.111 31.052s-9.243 26.598-22.111 31.052c3.37 1.166 6.984 1.808 10.75 1.808 18.148 0 32.861-14.712 32.861-32.861s-14.713-32.859-32.861-32.859z" fill="#4b3f4e"/><path d="m354.58 81.869v31.58c0 7.3-5.91 13.21-13.2 13.21h-232.76c-7.29 0-13.2-5.91-13.2-13.21v-31.58c0-7.3 5.91-13.21 13.2-13.21h232.76c7.29 0 13.2 5.91 13.2 13.21z" fill="#d19a6e"/><path d="m341.38 68.659h-21.5c7.29 0 13.2 5.91 13.2 13.21v31.58c0 7.3-5.91 13.21-13.2 13.21h21.5c7.29 0 13.2-5.91 13.2-13.21v-31.58c0-7.3-5.91-13.21-13.2-13.21z" fill="#c38c66"/><path d="m208.71 68.659h32.58v58h-32.58z" fill="#f7f9fa"/></g><g><path d="m503.457 254.264c-.74-1.437-1.543-2.872-2.386-4.271l-33.801-55.99c-16.761-28.225-49.857-47.569-83.831-47.313h-53.42v-12.53h11.36c11.414 0 20.7-9.29 20.7-20.71v-31.58c0-11.42-9.286-20.71-20.7-20.71h-232.759c-11.414 0-20.7 9.29-20.7 20.71v31.58c0 11.42 9.286 20.71 20.7 20.71h13.691v12.53h-24.381c-53.999 0-97.93 43.927-97.93 97.92v139.28c0 18.836 15.324 34.16 34.16 34.16h56c3.526 18.682 19.96 32.861 39.652 32.861s36.125-14.179 39.651-32.861h20.518c4.143 0 7.5-3.357 7.5-7.5 0-.052-.004-.102-.004-.154v-145.197h146.103v90.538c0 .173.014.342.026.512-14.685 10.936-24.792 27.681-26.911 46.801h-91.699c-4.143 0-7.5 3.357-7.5 7.5s3.357 7.5 7.5 7.5h98.773 20.516c3.526 18.682 19.959 32.861 39.651 32.861s36.125-14.179 39.652-32.861h54.252c18.836 0 34.16-15.324 34.16-34.16v-90.303c.568-12.5-2.313-27.536-8.543-39.323zm-6.457 70.043h-11.61c-6.401 0-11.609-5.208-11.609-11.61 0-6.401 5.208-11.609 11.609-11.609h11.61zm-149.92-242.438v31.58c0 3.148-2.557 5.71-5.7 5.71h-92.59v-43h92.59c3.143 0 5.7 2.562 5.7 5.71zm-113.29-5.71v43h-17.58v-43zm-96.478 58h36.253c4.143 0 7.5-3.357 7.5-7.5s-3.357-7.5-7.5-7.5h-64.945c-3.144 0-5.7-2.562-5.7-5.71v-31.58c0-3.148 2.557-5.71 5.7-5.71h92.59v50.5c0 4.143 3.357 7.5 7.5 7.5h106.31v12.53h-177.708zm-122.312 110.45c0-45.723 37.202-82.92 82.93-82.92h285.51c27.42-.255 56.483 15.372 70.989 40.065l29.245 48.444h-16.36l-24.873-41.205c-12.397-20.543-35.005-33.305-59.001-33.305h-32.36c-4.143 0-7.5 3.357-7.5 7.5v39.484c0 4.143 3.357 7.5 7.5 7.5s7.5-3.357 7.5-7.5v-31.984h24.859c18.772 0 36.46 9.983 46.159 26.056l20.193 33.454h-119.771v-67.01c0-4.143-3.357-7.5-7.5-7.5h-224.6c-39.79-.242-71.737 34.621-68.92 74.51h-14zm79.056 5.59 21.762-59.51h90.677l-21.761 59.51zm-50.056 0c-2.591-32.653 23.105-60.473 55.846-59.51l-21.762 59.51zm85.812 185.712c-13.984 0-25.361-11.377-25.361-25.36 0-13.984 11.377-25.361 25.361-25.361 13.975 0 25.345 11.363 25.36 25.335 0 .009-.001.017-.001.025 0 .009.001.017.001.026-.014 13.972-11.386 25.335-25.36 25.335zm39.65-32.861c-3.527-18.682-19.959-32.86-39.65-32.86s-36.124 14.179-39.651 32.86h-12.478c3.651-25.504 25.641-45.171 52.138-45.171 26.492 0 48.478 19.667 52.128 45.171zm13.015-34.928c-12.413-15.38-31.401-25.243-52.656-25.243-34.778 0-63.5 26.375-67.245 60.171h-28.416c-10.564 0-19.16-8.596-19.16-19.16v-118.69h167.477zm18.228-117.923 21.761-59.51h92.553v59.51zm183.232 185.712c-13.966 0-25.331-11.349-25.359-25.31 0-.017.003-.034.003-.052 0-.017-.002-.034-.003-.051.028-13.96 11.393-25.309 25.359-25.309 13.984 0 25.361 11.377 25.361 25.361s-11.377 25.361-25.361 25.361zm39.651-32.861c-3.527-18.682-19.96-32.86-39.651-32.86s-36.124 14.179-39.65 32.86h-12.484c3.651-25.504 25.642-45.171 52.139-45.171 26.491 0 48.477 19.667 52.127 45.171zm54.252 0h-26.666c-3.744-33.796-32.462-60.171-67.234-60.171-8.966 0-17.522 1.768-25.36 4.949v-82.629h133.45c2.835 6.602 4.497 13.701 4.874 20.888h-11.514c-14.673 0-26.609 11.937-26.609 26.609s11.937 26.61 26.609 26.61h11.61v44.583c0 10.565-8.596 19.161-19.16 19.161z"/><path d="m75.412 291.458h-38.912c-4.143 0-7.5 3.357-7.5 7.5s3.357 7.5 7.5 7.5h38.912c4.143 0 7.5-3.357 7.5-7.5s-3.357-7.5-7.5-7.5z"/><path d="m75.412 316.552h-38.912c-4.143 0-7.5 3.357-7.5 7.5s3.357 7.5 7.5 7.5h38.912c4.143 0 7.5-3.357 7.5-7.5s-3.357-7.5-7.5-7.5z"/><path d="m322.52 300.458c4.143 0 7.5-3.357 7.5-7.5s-3.357-7.5-7.5-7.5h-17.96c-4.143 0-7.5 3.357-7.5 7.5s3.357 7.5 7.5 7.5z"/><circle cx="383.938" cy="410.554" r="7.5"/><circle cx="129.815" cy="410.554" r="7.5"/></g></g></svg>