<svg id="Capa_1" enable-background="new 0 0 512 512" height="512" viewBox="0 0 512 512" width="512" xmlns="http://www.w3.org/2000/svg"><g><g><path d="m342.114 504.5h-67.993v-185.079h90.598c6.796 0 12.306 5.51 12.306 12.306v137.862c0 19.281-15.63 34.911-34.911 34.911z" fill="#a6e7f0"/><path d="m364.719 319.421h-24.803c6.796 0 12.306 5.51 12.306 12.306v137.862c0 19.281-15.63 34.911-34.911 34.911h24.803c19.281 0 34.911-15.63 34.911-34.911v-137.862c0-6.796-5.51-12.306-12.306-12.306z" fill="#6bd9e7"/><path d="m321.663 504.5h-249.08c-20.57 0-37.24-16.67-37.24-37.24v-451.5c0-4.39 4.93-6.96 8.53-4.45l25.45 17.76c3.83 2.67 8.89 2.78 12.84.27l31.47-20.03c3.79-2.41 8.64-2.41 12.43 0l31.77 20.22c3.79 2.41 8.63 2.41 12.42 0l31.77-20.22c3.8-2.41 8.64-2.41 12.43 0l31.71 20.18c3.82 2.44 8.71 2.41 12.51-.05l28.74-18.65c3.61-2.34 8.38.25 8.38 4.56v449.33c0 17.22 10.14 32.82 25.87 39.82z" fill="#f7f9fa"/><g><path d="m295.793 130.1v92.32c-11.8 11.79-28.1 19.08-46.1 19.08-36.03 0-65.23-29.21-65.23-65.24s29.2-65.24 65.23-65.24c18 0 34.3 7.29 46.1 19.08z" fill="#e9edf1"/></g><g fill="#e9edf1"><path d="m133.026 29.531c3.791 2.413 8.637 2.413 12.428 0l6.188-3.938-25.582-16.283c-3.791-2.413-8.637-2.413-12.428 0l-6.188 3.938z"/><path d="m221.361 29.493c3.822 2.433 8.712 2.411 12.513-.054l6.044-3.921-25.463-16.208c-3.791-2.413-8.636-2.413-12.428 0l-6.188 3.938z"/><path d="m44.518 29.07c3.832 2.674 8.895 2.782 12.837.273l6.463-4.114-19.942-13.918c-3.598-2.511-8.535.063-8.535 4.451v6.903z"/><path d="m295.796 464.68v-449.333c0-4.305-4.771-6.897-8.383-4.554l-16.421 10.654v443.233c0 17.216 10.134 32.819 25.862 39.82h24.803c-15.727-7.001-25.861-22.604-25.861-39.82z"/></g><g><circle cx="411.418" cy="72.74" fill="#ffe270" r="65.24"/></g><path d="m411.418 7.5c-4.242 0-8.385.419-12.402 1.192 30.097 5.794 52.838 32.259 52.838 64.047s-22.74 58.253-52.838 64.047c4.017.773 8.159 1.192 12.402 1.192 36.031 0 65.24-29.209 65.24-65.24s-29.21-65.238-65.24-65.238z" fill="#ffd15b"/><g><circle cx="274.501" cy="176.258" fill="#ffe270" r="65.24"/></g><path d="m274.501 111.019c-4.242 0-8.385.419-12.402 1.192 30.097 5.794 52.838 32.259 52.838 64.047 0 31.789-22.74 58.253-52.838 64.047 4.017.773 8.159 1.192 12.402 1.192 36.031 0 65.239-29.209 65.239-65.24.001-36.03-29.208-65.238-65.239-65.238z" fill="#ffd15b"/><path d="m206.758 95.911h-83.277c-5.723 0-10.362-4.639-10.362-10.362v-15.679c0-5.723 4.639-10.362 10.362-10.362h83.277c5.723 0 10.362 4.639 10.362 10.362v15.679c0 5.723-4.639 10.362-10.362 10.362z" fill="#a2aee6"/><path d="m206.758 59.508h-24.803c5.723 0 10.362 4.639 10.362 10.362v15.679c0 5.723-4.639 10.362-10.362 10.362h24.803c5.723 0 10.362-4.639 10.362-10.362v-15.679c0-5.723-4.64-10.362-10.362-10.362z" fill="#8795de"/><path d="m247.527 349.149h-163.999c-4.904 0-8.88-3.976-8.88-8.88v-29.379c0-4.904 3.976-8.88 8.88-8.88h163.999c4.904 0 8.88 3.976 8.88 8.88v29.379c0 4.904-3.976 8.88-8.88 8.88z" fill="#cdbfba"/><path d="m247.527 302.009h-24.803c4.904 0 8.88 3.976 8.88 8.88v29.379c0 4.904-3.976 8.88-8.88 8.88h24.803c4.904 0 8.88-3.976 8.88-8.88v-29.379c0-4.904-3.976-8.88-8.88-8.88z" fill="#b9acac"/></g><g><path d="m364.723 311.92h-33.668c-4.143 0-7.5 3.357-7.5 7.5s3.357 7.5 7.5 7.5h33.668c2.647 0 4.801 2.158 4.801 4.811v137.859c0 15.114-12.296 27.41-27.41 27.41h-18.724c-12.249-6.061-20.097-18.576-20.097-32.32v-221.636c25.826-11.177 43.947-36.901 43.947-66.786s-18.121-55.608-43.947-66.785v-94.123c0-4.744-2.588-9.099-6.755-11.363-4.165-2.265-9.225-2.069-13.208.513l-28.733 18.646c-1.337.866-3.064.875-4.407.019l-31.713-20.185c-6.211-3.949-14.246-3.951-20.48.002l-31.768 20.219c-1.327.844-3.043.844-4.368.002l-31.774-20.223c-6.219-3.954-14.257-3.954-20.481.002l-31.465 20.028c-1.396.887-3.174.853-4.525-.09l-25.454-17.763c-3.964-2.765-9.09-3.094-13.375-.858-4.283 2.235-6.944 6.627-6.944 11.461v451.5c0 24.67 20.07 44.74 44.74 44.74h269.53c23.385 0 42.41-19.025 42.41-42.41v-137.86c0-10.923-8.882-19.81-19.8-19.81zm-32.483-135.662c0 31.838-25.901 57.74-57.739 57.74s-57.739-25.902-57.739-57.74 25.901-57.739 57.739-57.739 57.739 25.901 57.739 57.739zm-259.657 320.742c-16.398 0-29.74-13.342-29.74-29.74v-447.524l22.191 15.486c6.331 4.413 14.632 4.588 21.156.444l31.466-20.028c1.33-.845 3.052-.847 4.38-.002l31.772 20.223c6.217 3.953 14.251 3.953 20.472-.002l31.759-20.214c1.338-.848 3.06-.849 4.388-.007l31.7 20.175c6.271 4.004 14.367 3.975 20.629-.08l25.537-16.571v85.687c-4.469-.861-9.076-1.328-13.792-1.328-40.108 0-72.739 32.631-72.739 72.739 0 40.109 32.631 72.74 72.739 72.74 4.716 0 9.323-.467 13.792-1.328v217.01c0 12.01 4.226 23.367 11.537 32.32z"/><path d="m411.418 0c-40.109 0-72.74 32.631-72.74 72.739 0 32.769 22.063 61.639 53.654 70.208.658.179 1.318.264 1.969.264 3.302 0 6.327-2.198 7.233-5.538 1.085-3.998-1.277-8.118-5.274-9.202-25.072-6.801-42.582-29.718-42.582-55.731 0-31.838 25.902-57.739 57.74-57.739s57.739 25.901 57.739 57.739c0 25.688-17.234 48.529-41.911 55.546-3.984 1.133-6.296 5.281-5.163 9.265 1.132 3.983 5.277 6.298 9.265 5.163 31.094-8.841 52.81-37.615 52.81-69.974-.001-40.109-32.632-72.74-72.74-72.74z"/><path d="m434.711 89.721c1.824-10.854-4.056-20.657-14.633-24.396-5.447-1.925-11.459-4.241-14.75-6.822-.575-.451-.989-1.803-.667-3.513.156-.828.879-3.597 3.63-4.425 5.867-1.769 9.598 1.181 10.005 1.523l.361.34c2.993 2.816 7.708 2.649 10.494-.371 2.878-3.12 2.553-8.04-.739-10.719-4.062-3.306-6.712-4.623-9.875-5.453v-1.113c0-4.107-3.165-7.688-7.27-7.811-4.247-.127-7.73 3.278-7.73 7.497v1.889c-6.994 2.284-12.194 8.317-13.617 15.865-1.343 7.131 1.014 14.063 6.151 18.093 4.984 3.909 12.082 6.714 19.008 9.162 5.047 1.783 5.198 5.632 4.839 7.767-.608 3.616-3.642 7.52-8.867 7.585-.005 0-.009-.001-.014-.001-.027 0-.052.004-.079.004-5.653.032-7.205-.197-11.33-2.869-3.417-2.213-8.105-1.524-10.453 1.802-2.461 3.487-1.523 8.289 2.019 10.606 4.692 3.07 8.251 4.467 12.343 5.062v1.281c0 4.107 3.165 7.688 7.27 7.811 4.247.127 7.73-3.278 7.73-7.497v-2.389c9.053-2.958 14.842-10.984 16.174-18.908z"/><path d="m266.621 138.291v1.575c-6.993 2.284-12.194 8.317-13.617 15.865-1.344 7.13 1.013 14.063 6.151 18.093 4.986 3.911 12.083 6.715 19.008 9.162 5.046 1.783 5.197 5.632 4.838 7.768-.608 3.616-3.642 7.518-8.866 7.584-.005 0-.009-.001-.014-.001-.027 0-.052.004-.079.004-5.656.03-7.205-.196-11.331-2.869-3.417-2.213-8.105-1.524-10.452 1.802-2.461 3.487-1.523 8.289 2.019 10.606 4.693 3.071 8.252 4.469 12.343 5.064v1.279c0 4.107 3.165 7.688 7.27 7.811 4.247.127 7.73-3.278 7.73-7.497v-2.389c9.052-2.958 14.841-10.984 16.173-18.907 1.824-10.854-4.055-20.659-14.632-24.397-5.446-1.925-11.458-4.24-14.75-6.822-.575-.451-.989-1.803-.667-3.512.156-.829.879-3.598 3.63-4.426 5.866-1.769 9.598 1.181 10.005 1.523l.624.57c3.011 2.749 7.678 2.549 10.443-.449 2.901-3.145 2.549-8.105-.785-10.786-4.199-3.377-6.861-4.705-10.041-5.539v-1.426c0-4.219-3.482-7.623-7.73-7.497-4.105.124-7.27 3.705-7.27 7.811z"/><path d="m123.48 103.411h83.277c9.85 0 17.862-8.013 17.862-17.862v-15.679c0-9.85-8.013-17.862-17.862-17.862h-83.277c-9.849 0-17.861 8.013-17.861 17.862v15.679c0 9.849 8.013 17.862 17.861 17.862zm-2.861-33.541c0-1.578 1.283-2.862 2.861-2.862h83.277c1.578 0 2.862 1.284 2.862 2.862v15.679c0 1.578-1.284 2.862-2.862 2.862h-83.277c-1.578 0-2.861-1.284-2.861-2.862z"/><path d="m74.648 157.479h93.555c4.143 0 7.5-3.357 7.5-7.5s-3.357-7.5-7.5-7.5h-93.555c-4.143 0-7.5 3.357-7.5 7.5s3.358 7.5 7.5 7.5z"/><path d="m74.648 191.692h93.555c4.143 0 7.5-3.357 7.5-7.5s-3.357-7.5-7.5-7.5h-93.555c-4.143 0-7.5 3.357-7.5 7.5s3.358 7.5 7.5 7.5z"/><path d="m74.648 225.906h93.555c4.143 0 7.5-3.357 7.5-7.5s-3.357-7.5-7.5-7.5h-93.555c-4.143 0-7.5 3.357-7.5 7.5s3.358 7.5 7.5 7.5z"/><path d="m74.648 260.12h93.555c4.143 0 7.5-3.357 7.5-7.5s-3.357-7.5-7.5-7.5h-93.555c-4.143 0-7.5 3.357-7.5 7.5s3.358 7.5 7.5 7.5z"/><path d="m247.527 294.509h-163.999c-9.032 0-16.38 7.349-16.38 16.381v29.379c0 9.032 7.348 16.381 16.38 16.381h163.999c9.032 0 16.38-7.349 16.38-16.381v-29.379c0-9.033-7.347-16.381-16.38-16.381zm1.38 45.76c0 .762-.619 1.381-1.38 1.381h-163.999c-.761 0-1.38-.619-1.38-1.381v-29.379c0-.762.619-1.381 1.38-1.381h163.999c.761 0 1.38.619 1.38 1.381z"/><path d="m255.818 377.888h-118.682c-4.143 0-7.5 3.357-7.5 7.5s3.357 7.5 7.5 7.5h118.683c4.143 0 7.5-3.357 7.5-7.5s-3.358-7.5-7.501-7.5z"/><path d="m74.648 392.888h27.354c4.143 0 7.5-3.357 7.5-7.5s-3.357-7.5-7.5-7.5h-27.354c-4.143 0-7.5 3.357-7.5 7.5s3.358 7.5 7.5 7.5z"/><path d="m255.818 412.101h-181.17c-4.143 0-7.5 3.357-7.5 7.5s3.357 7.5 7.5 7.5h181.17c4.143 0 7.5-3.357 7.5-7.5s-3.357-7.5-7.5-7.5z"/><path d="m217.12 446.314h-104.001c-4.143 0-7.5 3.357-7.5 7.5s3.357 7.5 7.5 7.5h104.001c4.143 0 7.5-3.357 7.5-7.5s-3.357-7.5-7.5-7.5z"/></g></g></svg>