<svg id="Capa_1" enable-background="new 0 0 512 512" height="512" viewBox="0 0 512 512" width="512" xmlns="http://www.w3.org/2000/svg"><g><g><path d="m194.07 324.763-65.031 65.031 10.607 10.606 36.741-24.741 28.29-40.289z" fill="#87a0af"/><path d="m131.481 365.688h91.967v15h-91.967z" fill="#607882" transform="matrix(.707 -.707 .707 .707 -211.906 234.791)"/><path d="m490.745 133.481c1.206-.698 2.342-1.562 3.374-2.594 6.366-6.365 5.607-17.445-5-28.052-20.082-20.082-61.131-61.132-62.515-62.515-6.366-6.365-16.686-6.365-23.052 0-1.032 1.032-1.896 2.168-2.594 3.374-25.253 43.74-62.793 62.524-62.793 106.26 0 11.634 3.827 22.374 10.289 31.031 10.425 10.425 24.397 15.289 36.031 15.289 43.736 0 62.521-37.54 106.26-62.793z" fill="#eef9fa"/><path d="m499.726 113.442c-1.005-1.005-4.984-4.984-10.607-10.607 6.366 6.365 6.366 16.686 0 23.052-1.032 1.032-2.167 1.896-3.374 2.594-43.74 25.253-62.524 62.793-106.26 62.793-11.634 0-22.374-3.827-31.031-10.289 9.468 12.683 24.593 20.896 41.637 20.896 43.736 0 62.52-37.54 106.26-62.793 1.206-.697 2.342-1.562 3.374-2.594 6.366-6.366 6.366-16.687.001-23.052z" fill="#dcf2f6"/><path d="m221.147 348.78c30.457-16.012 68.738-39.87 83.298-53.789 10.367-9.91 21.613-24.901 21.846-56.7l-5.368-19.169s-136.796 115.64-136.851 115.641c1.317 5.128 4.052 9.775 7.744 13.466.001 0 15.635 7.752 29.331.551z" fill="#eef9fa"/><path d="m321.032 219.014c-.035.035-.073.073-.108.109l-.632 13.169c-.233 31.799-11.479 46.789-21.846 56.7-14.56 13.918-52.841 37.776-83.298 53.789-13.697 7.201-23.33 5.449-23.33 5.449 8.283 8.283 21.362 11.768 33.937 5.157 30.457-16.013 68.738-39.871 83.298-53.789 10.367-9.91 21.614-24.901 21.846-56.7.067-9.28-3.732-17.751-9.867-23.884z" fill="#dcf2f6"/><path d="m320.924 219.122.01-.203c-6.129-6.078-14.561-9.837-23.794-9.769-31.799.233-46.789 11.479-56.699 21.846-13.918 14.56-37.776 52.841-53.789 83.298-3.66 6.97-4.217 14.092-2.579 20.468.056-.001 21.616-.406 41.68-20.469 20.091-20.091 76.219-76.219 95.171-95.171z" fill="#df646e"/><path d="m128.576 462.989 27.963-65.695-24.088-24.088c-23.255-10.594-74.949-34.142-74.949-34.142l-10.411 69.676 52.698 52.698c10.606 10.605 24.003 10.361 28.787 1.551z" fill="#eef9fa"/><path d="m156.539 397.294-32.963 60.695c-4.785 8.81-16.699 10.537-23.788 3.448l10.606 10.606c7.089 7.089 19.003 5.362 23.788-3.448l32.963-60.695z" fill="#dcf2f6"/><path d="m7.5 338.929c0 20.51 12.786 43.005 39.591 69.81 7.18 7.18 18.82 7.18 26 0s7.18-18.82 0-26c-10.777-10.777-15.565-25.891-15.589-43.676-16.214-7.386-28.219-12.855-30.312-13.808-10.069-4.587-19.69 3.077-19.69 13.674z" fill="#df646e"/><path d="m398.062 409.755c10.633 0 9.367 6.802 20 6.802s68.528 0 68.528 0c9.121 0 12.91-5.387 12.91-18.199 0-4.378-2.236-14.189-6.26-17.753-2.056-.719-4.299-1.048-6.649-1.048 0 0-57.895 0-68.528 0s-9.367 6.802-20 6.802-9.581-6.802-20.457-6.802h-5.5c-4.142 0-7.5 3.358-7.5 7.5v22.5l13 7c10.876 0 9.823-6.802 20.456-6.802z" fill="#e6989e"/><path d="m493.24 380.605c.886 4.509 1.26 9.374 1.26 13.753 0 12.812-2.779 15.199-7.91 15.199 0 0-57.895 0-68.528 0s-9.367-6.802-20-6.802-9.581 6.802-20.457 6.802h-13v7.5c0 4.142 3.358 7.5 7.5 7.5h5.5c10.876 0 9.823-6.802 20.457-6.802s9.367 6.802 20 6.802 68.528 0 68.528 0c9.891 0 17.91-5.739 17.91-22.5 0-12.778-4.663-19.145-11.26-21.452z" fill="#df646e"/><path d="m282.895 409.695c1.371-2.323 4.145-15.138 4.145-15.138l-2.871-4.862c-1.619-2.741-4.791-4.162-7.914-3.544l-26.61 5.264v10.643s23.897 10.359 26.561 10.784c2.665.424 5.318-.824 6.689-3.147z" fill="#87a0af"/><path d="m282.371 402.466c-1.566 2.653-4.597 4.079-7.64 3.593l-25.085-4.002v10.643l26.61 5.264c3.123.618 6.295-.803 7.914-3.544l7.299-12.362-4.428-7.5z" fill="#607882"/><path d="m357.316 204.116c0-6.285-.811-13.076-9.864-22.129-4.978-3.081-10.844-4.864-17.129-4.864-18.004 0-32.6 14.595-32.6 32.6 0 6.285 1.783 12.151 4.864 17.129 8.216 8.216 15.844 9.864 22.129 9.864 18.005 0 32.6-14.595 32.6-32.6z" fill="#87a0af"/><path d="m347.452 181.987c3.081 4.978 4.864 10.845 4.864 17.129 0 18.004-14.595 32.6-32.6 32.6-6.285 0-12.151-1.783-17.129-4.864 5.746 9.283 16.016 15.47 27.736 15.47 18.005 0 32.6-14.595 32.6-32.6 0-11.719-6.187-21.989-15.471-27.735z" fill="#607882"/></g><g><path d="m120.929 483.943c-5.921 0-11.559-2.317-15.837-6.596l-17.553-17.554c-2.929-2.929-2.929-7.678.001-10.606 2.929-2.929 7.678-2.928 10.606.001l17.552 17.553c1.688 1.688 4.012 2.464 6.38 2.118 2.364-.343 4.373-1.743 5.514-3.843l30.29-55.773-29.774-29.773-62.201-28.336c1.726 10.902 5.906 19.721 12.488 26.302 4.889 4.89 7.581 11.39 7.581 18.304s-2.692 13.414-7.581 18.304c-2.703 2.702-5.898 4.733-9.384 6.01l7.136 7.135c2.929 2.93 2.929 7.678 0 10.607-2.93 2.928-7.678 2.928-10.607 0l-23.752-23.752c-28.51-28.511-41.788-52.378-41.788-75.115 0-7.981 3.794-15.188 10.149-19.275 6.017-3.871 13.359-4.316 20.15-1.224l104.032 47.391c1.636.745 3.109 1.769 4.383 3.041l.324.325 36.923-36.922c-.879-7.135.429-14.564 4.05-21.458 15.547-29.571 40.108-69.407 55.007-84.993 9.988-10.448 25.302-22.377 55.985-23.984 3.676-18.345 19.909-32.207 39.319-32.207 1.265 0 2.515.059 3.749.174-2.205-6.207-3.406-12.889-3.406-19.843 0-30.604 16.791-50.187 34.567-70.92 10.026-11.693 20.395-23.785 29.23-39.09 1.039-1.797 2.312-3.453 3.785-4.928 9.282-9.28 24.379-9.278 33.659 0l15.525 15.525c2.929 2.93 2.929 7.678 0 10.607-2.931 2.929-7.679 2.927-10.607 0l-15.525-15.525c-3.43-3.432-9.015-3.43-12.444 0-.55.549-1.022 1.163-1.404 1.824-9.53 16.508-20.847 29.705-30.831 41.351-17.295 20.17-30.955 36.102-30.955 61.155 0 24.497 19.93 44.427 44.427 44.427 25.054 0 40.985-13.66 61.156-30.955 11.644-9.984 24.842-21.301 41.353-30.833.657-.38 1.27-.852 1.818-1.4 1.665-1.665 2.58-3.874 2.58-6.225s-.915-4.56-2.577-6.222l-35.597-35.597c-2.929-2.93-2.929-7.678 0-10.607 2.928-2.928 7.676-2.929 10.607 0l35.596 35.598c4.495 4.494 6.971 10.471 6.971 16.828s-2.476 12.334-6.972 16.829c-1.473 1.475-3.131 2.749-4.925 3.785-15.307 8.837-27.397 19.205-39.091 29.23-20.732 17.777-40.315 34.568-70.92 34.568-6.956 0-13.635-1.201-19.844-3.407.115 1.235.174 2.485.174 3.75 0 19.409-13.861 35.642-32.204 39.319-1.611 30.676-13.538 45.99-23.984 55.977-15.584 14.897-55.42 39.459-84.99 55.006-6.894 3.623-14.324 4.934-21.461 4.058l-37.196 37.196c2.807 4.51 3.079 10.333.476 15.124l-30.289 55.771c-3.42 6.299-9.45 10.501-16.543 11.529-1.105.162-2.209.241-3.301.241zm-68.534-80.508c4.242 4.244 11.148 4.244 15.393 0 4.244-4.243 4.244-11.149 0-15.393-10.832-10.833-16.767-25.656-17.667-44.101l-26.039-11.861c-2.115-.964-4.127-.897-5.815.188-2.045 1.315-3.266 3.806-3.266 6.661-.001 18.245 12.23 39.344 37.394 64.506zm97.251-23.641 10.606 10.606 32.084-32.084c-2.05-1.366-3.998-2.961-5.817-4.779-1.822-1.821-3.42-3.772-4.789-5.826zm45.404-39.251c.651.863 1.348 1.66 2.073 2.386 5.398 5.396 14.839 9.234 25.141 3.819 29.068-15.282 67.54-39.125 81.605-52.571 8.812-8.425 17.831-20.359 19.319-44.989-5.629-1.015-10.854-3.209-15.407-6.315l-30.447 30.447c-2.928 2.928-7.677 2.931-10.606.001-2.93-2.929-2.93-7.678-.001-10.606l30.448-30.448c-3.106-4.554-5.3-9.776-6.315-15.405-24.637 1.486-36.572 10.506-44.997 19.319-13.448 14.067-37.291 52.539-52.572 81.605-1.521 2.894-2.31 5.721-2.54 8.408 7.053-1.691 18.536-6.039 29.699-17.203l24.278-24.277c2.929-2.929 7.678-2.928 10.606.001s2.929 7.678-.001 10.606l-24.276 24.276c-13.069 13.068-26.805 18.603-36.007 20.946zm135.273-155.92c-13.84 0-25.1 11.26-25.1 25.101 0 13.84 11.26 25.1 25.1 25.1s25.1-11.26 25.1-25.1c0-13.841-11.26-25.101-25.1-25.101zm156.267 247.434h-68.527c-7.752 0-11.757-2.908-14.407-4.833-1.974-1.434-2.712-1.97-5.593-1.97-2.919 0-3.759.589-5.79 2.013-2.882 2.021-6.83 4.79-14.667 4.79h-5.5c-8.271 0-15-6.729-15-15v-7.5h-61.356l-5.122 8.676c-3.23 5.474-9.595 8.319-15.828 7.088l-26.608-5.264c-3.514-.695-6.045-3.776-6.045-7.357v-21.285c0-3.581 2.531-6.662 6.045-7.357l26.61-5.264c6.233-1.239 12.595 1.614 15.827 7.089l5.121 8.675h61.356v-7.5c0-8.271 6.729-15 15-15h5.5c7.837 0 11.785 2.769 14.667 4.79 2.031 1.424 2.871 2.013 5.79 2.013 2.881 0 3.619-.536 5.593-1.97 2.65-1.925 6.655-4.833 14.407-4.833h10.254c4.143 0 7.5 3.357 7.5 7.5s-3.357 7.5-7.5 7.5h-10.254c-2.88 0-3.618.536-5.592 1.97-2.65 1.925-6.655 4.833-14.408 4.833-7.653 0-11.554-2.734-14.401-4.731-2.028-1.422-2.954-2.071-6.056-2.071h-5.5v30h5.5c3.102 0 4.027-.649 6.056-2.071 2.848-1.997 6.748-4.731 14.401-4.731 7.753 0 11.758 2.908 14.408 4.833 1.974 1.434 2.712 1.97 5.592 1.97h68.527c10.41 0 10.41-10.131 10.41-15s0-15-10.41-15h-28.273c-4.143 0-7.5-3.357-7.5-7.5s3.357-7.5 7.5-7.5h28.273c15.911 0 25.41 11.215 25.41 30s-9.499 29.997-25.41 29.997zm-229.444-25.519 20.565 4.068 5.047-8.549-5.047-8.549-20.565 4.067z"/></g></g></svg>