<svg id="Capa_1" enable-background="new 0 0 511.991 511.991" height="512" viewBox="0 0 511.991 511.991" width="512" xmlns="http://www.w3.org/2000/svg"><g><g><path d="m13.593 100.522 4.45 21.298 129.087 116.793h248.357l103.398-133.072z" fill="#fdd1d5"/><g><path d="m503.207 97.635c-21.81 123.493-130.857 212.762-253.523 209.662-118.1-2.983-219.892-90.854-240.796-209.662 11.268 14.206 95.733 117.025 240.795 119.951 152.689 3.08 243.336-107.118 253.524-119.951z" fill="#f8a6af"/><g><path d="m452.796 146.875c-41.941 88.934-132.985 147.953-233.112 145.423-31.12-.787-61.105-7.473-88.778-19.061 35.415 20.769 76.026 32.98 118.778 34.061 122.666 3.099 231.714-86.169 253.523-209.662-4.11 5.176-21.322 26.2-50.411 49.239z" fill="#f58a97"/></g><path d="m498.885 105.541c6.767-1.63 7.736-10.881 1.454-13.884-32.939-15.746-77.188-33.456-126.29-42.971-28.147-5.449-51.141-6.909-76.395 0-13.588 3.722-24.871 9.051-33.659 14.156-4.925 2.861-10.972 2.861-15.897 0-8.788-5.106-20.071-10.434-33.659-14.156-25.254-6.909-48.248-5.449-76.395 0-49.101 9.515-93.351 27.225-126.29 42.971-6.282 3.003-5.313 12.254 1.454 13.884 63.527 15.305 145.975 28.811 242.478 28.844 96.83.034 179.532-13.505 243.199-28.844z" fill="#f8a6af"/><path d="m498.885 105.541c6.767-1.63 7.736-10.881 1.454-13.884-32.939-15.746-77.188-33.456-126.29-42.971-28.147-5.449-51.141-6.909-76.395 0-13.588 3.722-24.871 9.051-33.659 14.156-4.925 2.861-10.972 2.861-15.897 0-8.788-5.106-20.071-10.434-33.659-14.156-25.254-6.909-48.248-5.449-76.395 0-49.101 9.515-93.351 27.225-126.29 42.971-6.282 3.003-5.313 12.254 1.454 13.884 63.527 15.305 145.975 28.811 242.478 28.844 96.83.034 179.532-13.505 243.199-28.844z" fill="#f8a6af"/><path d="m500.339 91.657c-32.939-15.746-77.188-33.457-126.29-42.971-23.047-4.462-42.64-6.241-62.847-2.949 5.841.791 11.794 1.766 17.847 2.949 33.958 6.639 63.736 18.389 89.254 32.033 10.062 5.38 7.489 20.449-3.798 22.121-100.856 14.938-127.428 24.636-128.08 31.091 83.65-2.454 155.64-14.701 212.459-28.39 6.768-1.63 7.737-10.881 1.455-13.884z" fill="#f58a97"/><path d="m256.048 467.929c-63.483 0-114.945-51.576-114.945-115.198v-131.822c0-27.211 20.762-50.101 47.831-52.214 1.815-.142 3.666-.246 5.552-.308 23.009-.756 41.567 5.073 53.413 10.176 5.167 2.226 11.001 2.284 16.162.044 10.577-4.59 25.936-9.52 44.851-10.221 4.888-.181 9.578-.064 14.047.283 27.149 2.104 48.033 24.944 48.033 52.234v131.828c.001 63.622-51.462 115.198-114.944 115.198z" fill="#f58a97"/><g><path d="m322.959 168.67c-4.469-.346-9.159-.464-14.047-.283-3.813.141-7.474.461-10.989.909 24.689 4.323 43.069 26.006 43.069 51.607v131.828c0 58.527-43.551 106.856-99.945 114.222 4.91.642 9.916.976 15 .976 63.482 0 114.945-51.576 114.945-115.198v-131.828c.001-27.289-20.884-50.13-48.033-52.233z" fill="#f07281"/></g></g><path d="m169.05 398.342-3.447 1.097c-24.117 7.674-43.013 26.57-50.687 50.687l-1.097 3.447c-1.679 5.277-9.147 5.277-10.826 0l-1.097-3.447c-7.674-24.117-26.57-43.013-50.687-50.687l-3.447-1.097c-5.277-1.679-5.277-9.147 0-10.826l3.447-1.097c24.117-7.674 43.013-26.57 50.687-50.687l1.097-3.447c1.679-5.277 9.147-5.277 10.826 0l1.097 3.447c7.674 24.117 26.57 43.013 50.687 50.687l3.447 1.097c5.277 1.679 5.277 9.147 0 10.826z" fill="#ffe179"/><path d="m169.05 387.516-3.447-1.097c-24.118-7.674-43.015-26.572-50.688-50.69l-1.095-3.443c-1.679-5.278-9.147-5.278-10.826 0l-1.097 3.447c-2.059 6.47-4.932 12.56-8.49 18.162 9.705 15.281 24.55 26.91 42.197 32.524 6.347 2.019 6.347 11 0 13.02-17.647 5.615-32.492 17.243-42.197 32.524 3.558 5.603 6.432 11.692 8.49 18.162l1.097 3.447c1.679 5.278 9.147 5.278 10.826 0l1.097-3.447c7.672-24.116 26.567-43.012 50.683-50.685l3.451-1.098c5.276-1.679 5.276-9.147-.001-10.826z" fill="#fbd268"/></g><path d="m248.547 226.249v168.789c0 4.143 3.358 7.5 7.5 7.5s7.5-3.357 7.5-7.5v-168.789c0-4.143-3.358-7.5-7.5-7.5s-7.5 3.358-7.5 7.5zm255.027-141.359c-43.756-20.917-86.854-35.575-128.099-43.567-40.827-7.903-62.48-4.608-79.802.13-12.291 3.366-24.217 8.381-35.445 14.904-2.579 1.5-5.783 1.498-8.362 0-11.229-6.523-23.154-11.538-35.447-14.905-17.319-4.738-38.973-8.033-79.801-.129-41.242 7.992-84.341 22.65-128.097 43.567-8.536 4.08-11.293 15.047-5.343 22.638 7.742 36.675 23.446 71.722 45.722 101.838 22.483 30.395 51.704 55.889 84.697 74v69.363c0 .887.013 1.772.032 2.657-5.059-6.491-9.01-13.892-11.566-21.927l-1.097-3.448c-1.748-5.493-6.795-9.184-12.56-9.184s-10.812 3.69-12.56 9.185l-1.097 3.446c-6.924 21.763-24.051 38.89-45.814 45.814l-3.448 1.097c-5.493 1.748-9.183 6.796-9.183 12.56s3.69 10.812 9.184 12.56l3.447 1.097c21.763 6.925 38.89 24.052 45.814 45.813l1.097 3.448c1.748 5.493 6.795 9.184 12.56 9.184s10.812-3.69 12.56-9.185l1.097-3.446c4.944-15.54 15.093-28.713 28.415-37.499 21.963 37.529 61.714 60.528 105.569 60.528 27.594 0 53.646-8.98 75.34-25.97 3.261-2.555 3.834-7.269 1.281-10.529-2.554-3.263-7.269-3.834-10.529-1.281-19.03 14.903-41.884 22.78-66.092 22.78-38.204 0-72.865-19.896-92.224-52.416 1.332-.516 2.683-.992 4.053-1.428l3.447-1.097c5.493-1.748 9.184-6.795 9.184-12.56s-3.691-10.812-9.185-12.56l-3.447-1.097c-6.371-2.027-12.341-4.936-17.778-8.572-.994-5.871-1.501-11.902-1.501-17.972v-131.817c-.07-26.42 21.139-44.2 46.138-45.024 21.494-.709 39.158 4.808 50.191 9.561 7.083 3.055 15.144 3.07 22.116.044 17.441-7.571 36.546-10.796 55.337-9.343 23.057 1.783 41.118 21.44 41.118 44.752v131.83c0 21.975-6.56 43.11-18.969 61.121-2.35 3.41-1.49 8.081 1.92 10.431 3.379 2.328 8.061 1.519 10.431-1.921 14.142-20.524 21.617-44.603 21.617-69.631v-69.527c32.941-18.108 62.123-43.549 84.583-73.842 22.317-30.1 38.057-65.141 45.829-101.822 5.761-7.337 3.148-18.595-5.333-22.649zm-369.977 136.02v45.194c-28.148-16.732-53.09-39.232-72.638-65.657-16.854-22.785-29.726-48.562-37.925-75.726 22.472 22.793 60.791 55.097 113.772 76.883-2.077 6.079-3.209 12.578-3.209 19.306zm27.808 172.019c-24.544 8.446-44.495 28.299-52.999 52.999-8.559-24.838-28.161-44.44-53-52.999 24.838-8.559 44.441-28.16 53-52.999 8.554 24.725 28.423 44.563 52.999 52.999zm289.626-192.503c-19.525 26.334-44.432 48.783-72.534 65.508v-45.035c0-6.814-1.16-13.393-3.294-19.54 53.112-21.977 91.82-54.726 113.922-76.933-8.218 27.273-21.149 53.146-38.094 76zm42.991-103.415c-1.343 1.591-3.169 2.706-5.197 3.177-76.258 17.704-154.515 26.697-232.784 26.697h-.351c-19.339-.007-38.937-.568-58.249-1.671-4.136-.233-7.679 2.926-7.915 7.062-.236 4.135 2.925 7.679 7.061 7.914 19.594 1.118 39.478 1.688 59.099 1.695h.356c72.926 0 145.858-7.683 217.205-22.849-21.849 21.021-57.302 49.429-104.726 68.859-9.864-14.904-26.172-25.249-44.977-26.703-21.335-1.649-42.738 1.97-62.474 10.536-3.19 1.385-6.909 1.364-10.206-.059-17.842-7.684-37.423-11.405-56.613-10.777-21.071.689-39.622 9.992-50.83 27.207-47.614-19.396-82.875-47.672-104.914-69.135 40.462 8.61 81.622 14.856 122.72 18.604 4.122.387 7.774-2.662 8.15-6.787s-2.663-7.774-6.788-8.15c-46.744-4.264-93.567-11.81-139.372-22.444-2.018-.468-3.831-1.582-5.159-3.172l-.02-.023c41.555-19.596 82.397-33.379 121.433-40.943 25.822-4.999 48.117-6.935 72.988-.13 11.041 3.024 21.765 7.535 31.873 13.408 7.227 4.197 16.206 4.197 23.433 0 10.108-5.873 20.831-10.384 31.87-13.407 24.873-6.805 47.167-4.872 72.989.129 39.016 7.56 79.835 21.332 121.419 40.939-.008.008-.014.015-.021.023z"/></g></svg>