<svg id="Capa_1" enable-background="new 0 0 511.998 511.998" height="512" viewBox="0 0 511.998 511.998" width="512" xmlns="http://www.w3.org/2000/svg"><g><g><g><path d="m298.685 201.053v83.304c0 19.525 15.828 35.353 35.353 35.353h68.538c19.525 0 35.353-15.828 35.353-35.353v-83.304z" fill="#fed2a4"/><path d="m417.199 201.053v83.304c0 19.525-15.828 35.353-35.353 35.353h20.731c19.525 0 35.353-15.828 35.353-35.353v-83.304z" fill="#ffbd86"/><path d="m298.681 274.943h-18.681c-6.45 0-11.679-5.229-11.679-11.679v-18.694c0-6.45 5.229-11.679 11.679-11.679h18.681z" fill="#fed2a4"/><path d="m281.313 232.891h17.368v42.053h-17.368z" fill="#ffbd86"/><path d="m454.696 274.943h-16.763v-42.053h16.763c7.509 0 13.597 6.087 13.597 13.597v14.859c0 7.51-6.087 13.597-13.597 13.597z" fill="#fed2a4"/><path d="m454.696 232.891h-16.763v.031c7.226.319 12.991 6.261 12.991 13.566v14.859c0 7.305-5.765 13.247-12.991 13.566v.031h16.763c7.509 0 13.597-6.087 13.597-13.597v-14.859c0-7.51-6.087-13.597-13.597-13.597z" fill="#ffbd86"/><g><path d="m458.677 490.765h-181.741v-114.621l59.534-14.084h63.675l58.532 14.084z" fill="#a6e7f0"/><path d="m400.145 362.06h-20.731l58.532 14.084v114.621h20.731v-114.621z" fill="#6bd9e7"/><path d="m336.47 319.71h63.675v42.35c-14.887 10.355-48.788 10.355-63.675 0z" fill="#fed2a4"/><path d="m379.414 319.71v42.35c-5.311 3.694-13.047 6.063-21.472 7.121 15.189 1.908 32.627-.461 42.203-7.121v-42.35z" fill="#ffbd86"/></g><path d="m276.936 376.144c-27.514 10.035-45.821 36.199-45.821 65.486v15.93h45.821z" fill="#a6e7f0"/><path d="m231.115 457.56h45.821v33.205h-45.821z" fill="#fed2a4"/><path d="m256.205 457.56h20.731v33.205h-20.731z" fill="#ffbd86"/><path d="m458.677 376.144c27.514 10.035 45.821 36.199 45.821 65.486v15.93h-45.821z" fill="#a6e7f0"/><path d="m458.677 376.144v11.927c15.593 12.994 25.09 32.466 25.09 53.559v15.93h20.731v-15.93c0-29.287-18.307-55.45-45.821-65.486z" fill="#6bd9e7"/><path d="m458.677 457.56h45.821v33.205h-45.821z" fill="#fed2a4"/><path d="m483.767 457.56h20.731v33.205h-20.731z" fill="#ffbd86"/><path d="m298.685 201.053v-30.498c0-15.842 12.842-28.684 28.684-28.684h81.881c15.842 0 28.684 12.842 28.684 28.684v30.498 31.838l-79.128-31.838v25.52z" fill="#5d5360"/><g fill="#4b3f4e"><path d="m338.074 217.773 20.731 8.799v-25.519h-20.731z"/><path d="m409.249 141.871h-20.731c15.842 0 28.684 12.842 28.684 28.684v30.498 23.497l20.731 8.341v-31.838-30.498c0-15.842-12.842-28.684-28.684-28.684z"/></g><path d="m276.938 457.563h181.741v33.205h-181.741z" fill="#a2aee6"/><path d="m437.948 457.563h20.731v33.205h-20.731z" fill="#8795de"/></g><g><path d="m290.022 490.76h-49.01v.01h-233.51l13.34-53.73c4.79-18.37 18.03-33.36 35.67-40.38l69.71-23.83h45.08l49.43 16.9 20.28 6.93c17.63 7.02 30.87 22.01 35.67 40.38l13.33 53.68z" fill="#ffe270"/><path d="m241.012 396.661v94.11h-20.28v-101.041z" fill="#ffd15b"/><path d="m290.022 490.76v.01h-20.24v-.01l-13.34-66.59c-2.7-10.35-8.09-20.12-15.43-27.51 17.63 7.02 30.87 22.01 35.67 40.38l13.33 53.68z" fill="#ffd15b"/><g><path d="m57.343 343.85-.048-.048c-6.736-6.736-6.736-17.656 0-24.392l22.337-22.337c6.736-6.736 17.656-6.736 24.392 0l.048.048c6.736 6.736 6.736 17.656 0 24.392l-22.337 22.337c-6.735 6.736-17.656 6.736-24.392 0z" fill="#d19a6e"/><path d="m104.073 297.121-.048-.048c-6.089-6.089-15.587-6.654-22.332-1.735.717.523 1.413 1.088 2.06 1.735l.048.048c6.736 6.736 6.736 17.656 0 24.392l-22.338 22.337c-.647.647-1.343 1.212-2.06 1.735 6.746 4.919 16.244 4.353 22.332-1.735l22.337-22.337c6.737-6.736 6.737-17.657.001-24.392z" fill="#c38c66"/><path d="m240.177 343.85.048-.048c6.736-6.736 6.736-17.656 0-24.392l-22.337-22.337c-6.736-6.736-17.656-6.736-24.392 0l-.048.048c-6.736 6.736-6.736 17.656 0 24.392l22.337 22.337c6.735 6.736 17.656 6.736 24.392 0z" fill="#d19a6e"/><path d="m240.225 319.41-22.337-22.337c-6.088-6.089-15.587-6.654-22.332-1.735.717.523 1.413 1.088 2.06 1.735l22.337 22.337c6.736 6.736 6.736 17.656 0 24.392l-.048.048c-.647.647-1.343 1.212-2.06 1.735 6.746 4.919 16.244 4.353 22.332-1.735l.048-.048c6.736-6.736 6.736-17.656 0-24.392z" fill="#c38c66"/></g><path d="m236.986 270.125h-176.452v-67.713c0-28.993 23.504-52.497 52.497-52.497h71.457c28.993 0 52.497 23.504 52.497 52.497v67.713z" fill="#d19a6e"/><path d="m184.489 149.914h-20.273c28.993 0 52.497 23.504 52.497 52.497v67.713h20.273v-67.713c0-28.993-23.504-52.497-52.497-52.497z" fill="#c38c66"/><path d="m122.678 332.268h52.164v41.975c0 5.322-3.235 10.167-8.215 12.045-11.508 4.341-24.227 4.341-35.735 0-4.98-1.878-8.215-6.723-8.215-12.045v-41.975z" fill="#ffe5c2"/><path d="m154.569 332.268v41.975c0 5.322-3.235 10.166-8.214 12.045-2.527.953-5.114 1.684-7.731 2.219 9.305 1.9 19.023 1.169 28.004-2.219 4.98-1.878 8.215-6.723 8.215-12.045v-41.975z" fill="#fed2a4"/><g><path d="m93.139 292.647h-24.366c-7.339 0-13.288-5.949-13.288-13.288v-24.265c0-7.339 5.949-13.288 13.288-13.288h16.856z" fill="#ffe5c2"/><path d="m85.628 241.805h-16.855c-.21 0-.414.022-.622.031l.325 50.796c.1.002.197.015.297.015h24.367z" fill="#fed2a4"/><path d="m228.748 292.647h-23.013l6.157-50.842h16.856c7.339 0 13.288 5.949 13.288 13.288v24.265c0 7.339-5.949 13.289-13.288 13.289z" fill="#ffe5c2"/><path d="m228.748 241.805h-16.856l-.004.031c7.05.325 11.998 6.127 11.998 13.257v24.265c0 7.339-5.277 13.288-12.616 13.288h17.478c7.339 0 13.289-5.949 13.289-13.288v-24.265c-.001-7.339-5.95-13.288-13.289-13.288z" fill="#fed2a4"/><path d="m217.889 241.805v38.143c0 31.56-25.585 57.145-57.145 57.145h-23.969c-31.56 0-57.145-25.585-57.145-57.145v-38.143z" fill="#ffe5c2"/><path d="m197.617 241.805v38.143c0 31.56-25.585 57.145-57.145 57.145h20.273c31.56 0 57.145-25.585 57.145-57.145v-38.143z" fill="#fed2a4"/></g></g><path d="m304.683 38.582-13.935-13.935c-4.564-4.564-11.963-4.564-16.527 0l-18.017 18.017-18.017-18.017c-4.564-4.564-11.963-4.564-16.527 0l-13.935 13.935c-4.564 4.564-4.564 11.963 0 16.527l18.017 18.017-18.017 18.017c-4.564 4.564-4.564 11.963 0 16.527l13.935 13.935c4.564 4.564 11.963 4.564 16.527 0l18.017-18.017 18.017 18.017c4.564 4.564 11.963 4.564 16.527 0l13.935-13.935c4.564-4.564 4.564-11.963 0-16.527l-18.017-18.017 18.017-18.017c4.564-4.564 4.564-11.963 0-16.527z" fill="#fe5694"/><path d="m286.665 73.131 18.017 18.017c4.564 4.564 4.564 11.963 0 16.527l-13.934 13.933c-4.564 4.564-11.963 4.564-16.527 0l-2.977-2.977 19.21-19.22-26.28-26.28 26.28-26.29-19.21-19.21 2.977-2.979c4.563-4.567 11.965-4.569 16.53-.004l13.931 13.931c4.563 4.563 4.564 11.961.002 16.525z" fill="#fd3581"/></g><g><path d="m368.307 263.385c4.142 0 7.5-3.357 7.5-7.5v-4.972c0-4.143-3.358-7.5-7.5-7.5s-7.5 3.357-7.5 7.5v4.972c0 4.143 3.358 7.5 7.5 7.5z"/><path d="m350.782 295.748c1.216.738 2.558 1.09 3.884 1.09 2.535 0 5.008-1.285 6.419-3.609 1.547-2.55 4.247-4.071 7.223-4.071 2.975 0 5.675 1.522 7.223 4.071 2.149 3.541 6.763 4.67 10.303 2.52 3.541-2.149 4.669-6.762 2.52-10.303-4.29-7.068-11.784-11.288-20.045-11.288-8.262 0-15.756 4.22-20.046 11.288-2.15 3.541-1.022 8.154 2.519 10.302z"/><path d="m461.247 369.098c-.681-.304-52.594-12.659-53.603-12.948v-29.251c21.587-2.432 38.684-21.929 37.785-44.456h9.266c11.633 0 21.097-9.464 21.097-21.097v-14.859c0-11.633-9.464-21.097-21.097-21.097h-9.263v-20.437c0-4.143-3.358-7.5-7.5-7.5s-7.5 3.357-7.5 7.5v16.834l-68.828-27.694c-2.311-.93-4.934-.651-6.998.743s-3.302 3.724-3.302 6.215v14.189l-45.12-19.153v-25.534c0-11.681 9.503-21.184 21.184-21.184h81.881c11.681 0 21.184 9.503 21.184 21.184 0 4.143 3.358 7.5 7.5 7.5s7.5-3.357 7.5-7.5c0-19.952-16.232-36.184-36.184-36.184h-81.881c-19.952 0-36.184 16.231-36.184 36.184v54.837h-11.184c-10.576 0-19.179 8.604-19.179 19.179v18.694c0 10.576 8.604 19.18 19.179 19.18h11.184c-1.057 22.037 15.947 41.977 37.785 44.456v29.228l-53.761 12.718c-11.067 3.667-23.129 11.559-31.485 20.825-.096-.037-.191-.073-.288-.106l-61.094-20.885v-27.809c4.71-1.675 9.166-3.885 13.304-6.551l14.835 14.834c8.613 8.924 25.306 10.005 35.047-.047 8.91-8.571 9.994-25.31 0-35l-14.145-14.145c10.22-1.302 18.153-10.035 18.153-20.603v-24.265c0-5.174-1.912-9.901-5.05-13.543v-39.139c0-33.082-26.915-59.997-59.998-59.997h-71.457c-33.083 0-59.997 26.915-59.997 59.997v39.139c-3.138 3.642-5.05 8.369-5.05 13.543v24.265c0 10.568 7.933 19.301 18.153 20.603l-14.146 14.146c-8.923 8.612-10.004 25.307.048 35.046 8.571 8.911 25.31 9.994 34.999.001l14.835-14.835c4.138 2.666 8.594 4.876 13.304 6.551v27.81l-41.826 14.299c-3.92 1.34-6.011 5.604-4.671 9.522 1.065 3.116 3.977 5.076 7.096 5.076.804 0 1.623-.131 2.426-.405l39.326-13.443c2.262 4.325 6.021 7.804 10.718 9.576 6.616 2.495 13.564 3.742 20.515 3.742 6.949 0 13.9-1.248 20.514-3.742 4.698-1.771 8.457-5.252 10.719-9.577l58.41 19.967c15.268 6.142 26.857 19.303 30.999 35.153l13.33 53.68c.006.025.018.047.024.072.819 3.254 3.757 5.666 7.265 5.666h89.392c4.142 0 7.5-3.357 7.5-7.5s-3.358-7.5-7.5-7.5h-83.526l-4.521-18.205h159.81v18.205h-36.65c-4.142 0-7.5 3.357-7.5 7.5s3.358 7.5 7.5 7.5h44.15c4.142 0 7.5-3.357 7.5-7.5v-25.706h30.821v25.705c0 4.143 3.358 7.5 7.5 7.5s7.5-3.357 7.5-7.5v-49.135c.001-32.311-20.394-61.46-50.75-72.532zm-170.066-101.654h-11.181c-2.304 0-4.179-1.875-4.179-4.18v-18.694c0-2.304 1.875-4.179 4.179-4.179h11.181zm52.789 59.765h48.675v30.555c-12.62 6.115-36.055 6.115-48.675 0zm116.823-80.721v14.859c0 3.361-2.735 6.097-6.097 6.097h-9.263v-27.053h9.263c3.362 0 6.097 2.735 6.097 6.097zm-154.608 37.869v-71.974l49.689 21.093c2.317.983 4.972.74 7.07-.649s3.36-3.737 3.36-6.254v-14.418l64.128 25.803-.003 46.399c0 15.358-12.495 27.853-27.854 27.853h-68.539c-15.357-.001-27.851-12.495-27.851-27.853zm-219.054-4.408v-30.644h123.259v30.644c0 27.374-22.271 49.645-49.645 49.645h-23.969c-27.375-.001-49.645-22.271-49.645-49.645zm150.646 51.657c0 2.604-1.014 5.052-2.903 6.941-2.904 2.759-8.769 4.44-13.785-.001l-13.802-13.802c4.594-4.771 8.466-10.239 11.432-16.235l16.203 16.203c1.84 1.842 2.855 4.29 2.855 6.894zm-3.241-52.248c0 3.192-2.597 5.789-5.789 5.789h-3.586c.137-1.717.227-3.447.227-5.198v-30.644h3.358c3.192 0 5.789 2.597 5.789 5.788v24.265zm-121.505-121.944h71.457c24.812 0 44.998 20.186 44.998 44.997v31.931c-1.442-.114-31.434.004-32.457-.037v-24.285c0-4.143-3.358-7.5-7.5-7.5s-7.5 3.357-7.5 7.5v24.285s-113.208-.059-113.995.037v-31.931c0-24.811 20.186-44.997 44.997-44.997zm-50.047 121.944v-24.265c0-3.191 2.597-5.788 5.789-5.788h3.358v30.644c0 1.751.09 3.481.227 5.198-3.818.413-8.448-.255-9.374-5.789zm13.448 59.189c-2.942 2.774-8.763 4.451-13.833-.049-2.76-2.903-4.44-8.769 0-13.785l16.204-16.203c2.966 5.996 6.838 11.464 11.432 16.235zm87.549 40.723c-9.816 3.703-20.626 3.703-30.442 0-2.01-.758-3.361-2.778-3.361-5.027v-29.984c8.443.49 27.435.616 37.165 0v29.984c0 2.249-1.351 4.269-3.362 5.027zm93.44 17.803c3.622-3.53 7.652-6.606 12.015-9.154v19.945c-3.551-4.053-7.583-7.681-12.015-10.791zm27.015 40.077v-55.074l50.752-12.006c8.722 4.864 20.916 7.304 33.12 7.304 12.197 0 24.383-2.437 33.105-7.295l49.765 11.974v68.007h-163.536zm181.741 12.91v-62.129c18.793 11.018 30.821 31.425 30.821 53.699v8.43z"/><path d="m196.804 99.406c0 5.125 1.996 9.943 5.62 13.567l13.935 13.935c3.741 3.74 8.653 5.61 13.566 5.61 4.913-.001 9.827-1.871 13.566-5.61l12.714-12.714 12.714 12.714c7.48 7.48 19.652 7.48 27.133 0l13.935-13.935c3.624-3.624 5.62-8.442 5.62-13.567 0-5.124-1.996-9.942-5.62-13.566l-12.714-12.714 12.714-12.713c3.624-3.624 5.62-8.442 5.62-13.566 0-5.125-1.996-9.943-5.62-13.567l-13.934-13.934c-3.624-3.624-8.442-5.62-13.567-5.62s-9.943 1.996-13.566 5.619l-12.714 12.714-12.713-12.713c-3.624-3.624-8.442-5.62-13.567-5.62s-9.943 1.996-13.566 5.619l-13.935 13.935c-3.624 3.624-5.62 8.442-5.62 13.567 0 5.124 1.996 9.942 5.62 13.566l12.713 12.713-12.713 12.714c-3.625 3.623-5.621 8.442-5.621 13.566zm16.227-2.96 18.017-18.018c2.929-2.929 2.929-7.677 0-10.606l-18.017-18.017c-.791-.79-1.226-1.842-1.226-2.959 0-1.118.435-2.17 1.226-2.96l13.935-13.936c.791-.791 1.842-1.226 2.959-1.226s2.169.435 2.96 1.227l18.017 18.017c2.929 2.928 7.678 2.928 10.606 0l18.018-18.018c.791-.791 1.842-1.226 2.959-1.226s2.169.435 2.96 1.227l13.935 13.935c.791.79 1.226 1.842 1.226 2.96 0 1.117-.435 2.169-1.226 2.959l-18.017 18.017c-1.407 1.407-2.197 3.314-2.197 5.304s.79 3.896 2.197 5.303l18.017 18.019c.791.79 1.226 1.842 1.226 2.959 0 1.118-.435 2.17-1.226 2.96l-13.934 13.933c-.791.791-1.842 1.227-2.96 1.227s-2.169-.436-2.96-1.227l-18.017-18.017c-1.464-1.464-3.384-2.196-5.303-2.196s-3.839.732-5.303 2.196l-18.018 18.017c-.791.791-1.842 1.227-2.96 1.227s-2.169-.436-2.96-1.227l-13.935-13.935c-.791-.79-1.226-1.842-1.226-2.96 0-1.117.436-2.168 1.227-2.959z"/><path d="m148.76 281.481c4.142 0 7.5-3.357 7.5-7.5v-4.981c0-4.143-3.358-7.5-7.5-7.5s-7.5 3.357-7.5 7.5v4.98c0 4.143 3.358 7.501 7.5 7.501z"/><path d="m141.513 311.383c1.553-2.558 4.262-4.085 7.247-4.085s5.694 1.527 7.247 4.085c1.411 2.325 3.884 3.609 6.419 3.609 1.325 0 2.668-.352 3.884-1.09 3.541-2.148 4.669-6.762 2.521-10.303-4.295-7.077-11.798-11.302-20.07-11.302-8.271 0-15.773 4.225-20.069 11.302-2.149 3.541-1.021 8.153 2.52 10.303 3.541 2.151 8.152 1.023 10.301-2.519z"/><path d="m38.717 398.036c-12.338 9.097-21.264 22.276-25.154 37.197l-13.34 53.73c-.999 4.021 1.452 8.089 5.472 9.087.607.15 1.214.223 1.813.223 3.365 0 6.426-2.281 7.273-5.694l13.318-53.646c3.004-11.522 9.937-21.76 19.519-28.825 3.334-2.458 4.044-7.153 1.586-10.487-2.459-3.335-7.154-4.045-10.487-1.585z"/><path d="m220.878 436.215c-4.142 0-7.5 3.357-7.5 7.5v47.056c0 4.143 3.358 7.5 7.5 7.5s7.5-3.357 7.5-7.5v-47.056c0-4.142-3.358-7.5-7.5-7.5z"/><path d="m76.642 436.215c-4.142 0-7.5 3.357-7.5 7.5v47.056c0 4.143 3.358 7.5 7.5 7.5s7.5-3.357 7.5-7.5v-47.056c0-4.142-3.358-7.5-7.5-7.5z"/><circle cx="113.56" cy="270.125" r="7.5"/><circle cx="183.96" cy="270.125" r="7.5"/><circle cx="333.109" cy="252.245" r="7.5"/><circle cx="403.509" cy="252.245" r="7.5"/></g></g></svg>