<svg id="Capa_1" enable-background="new 0 0 512 512" height="512" viewBox="0 0 512 512" width="512" xmlns="http://www.w3.org/2000/svg"><g><g><path d="m205.033 454.177c-2.487 14.559-4.727 26.643-6.394 35.319l297.861 7.004-7-489h-283.843s17.461 106.557 20.027 213.186l24.415 86.94z" fill="#b46e5a"/><path d="m489.5 7.5v478.5c0 1.933-1.567 3.5-3.5 3.5l-287.361-.004c-1.838 9.565-2.982 15-2.982 15l308.843.004v-497z" fill="#915041"/><path d="m255.959 420.056c-12.096 6.986-31.62 20.93-50.926 34.122 8.913-52.189 20.967-136.087 20.967-208.178 0-8.403-.112-16.859-.316-25.314 24.905-14.379 61.384-35.44 65.095-37.583 23.535-13.588 38.864-10.303 45.347.925 6.482 11.228 1.663 26.146-21.872 39.734 0 0 13.603-7.854 19.29-11.137 23.535-13.588 38.864-10.303 45.347.925 6.482 11.228 1.663 26.146-21.872 39.734-4.662 2.692-16.834 9.719-16.834 9.719 23.535-13.588 38.864-10.303 45.347.925 6.482 11.228 1.663 26.146-21.872 39.734-9.431 5.445-53.474 30.873-53.474 30.873 23.535-13.588 38.864-10.303 45.347.925 6.482 11.228 1.663 26.146-21.872 39.734-9.435 5.445-58.103 33.542-77.702 44.862z" fill="#915041"/><path d="m312.988 359.174c-8.565 4.947-52.93 30.571-72.529 41.891s-58.701 40.908-84.774 55.961c-38.15 22.026-96.378.792-96.378.792l-51.807-89.732c-.009-51.895 20.086-98.96 40.268-112.094 49.055-31.925 67.807-49.833 82.94-87.63 5.017-12.531 16.629-16.239 26.153-12.437 14.434 15.178 8.773 66.315-31.765 103.906l153.682-88.729c18.772-10.838 32.317-10.934 40.323-4.835 10.808 21.609-16.848 45.494-16.848 45.494l19.29-11.138c18.772-10.838 32.317-10.934 40.323-4.835 14.298 21.188-33.683 55.213-33.683 55.213 18.772-10.838 32.317-10.934 40.323-4.835 11.284 13.206-7.005 29.5-7.005 29.5l-63.317 46.867c18.772-10.838 32.317-10.934 40.323-4.835 4.95 3.774 2.101 25.524-25.519 41.476z" fill="#bae6ef"/><g fill="#94d8e6"><path d="m321.658 363.193c23.535-13.588 28.355-28.506 21.872-39.734-1.312-2.272-2.993-4.212-5.024-5.76 1.279 9.983-5.576 21.665-24.348 32.503 0 0-58.1 33.542-77.699 44.862s-58.701 40.908-84.774 55.961c-38.15 22.026-92.378 6.792-92.378 6.792l7.5 12.99s54.229 15.234 92.378-6.792c26.073-15.053 65.174-44.642 84.774-55.961 19.599-11.318 77.699-44.861 77.699-44.861z"/><path d="m156.861 155.925c9.027 3.603 16.178 13.951 14.059 29.936-4.94 37.262-26.401 62.757-45.824 73.971-12.166 7.024-26.204 6.543-26.204 6.543-4.141-.114-7.405-3.562-7.291-7.703s3.563-7.405 7.703-7.291h.005c-.001 0-.004 0-.005 0l.101.003-.096-.003c.172 0 10.198.131 18.288-4.539 15.761-9.101 34.141-30.417 38.453-62.951 1.283-9.681 1.347-19.266.811-27.966zm216.669 96.002c-1.312-2.272-2.993-4.212-5.024-5.76 1.279 9.983-5.576 21.665-24.348 32.503-18.95 10.941-80.855 46.682-113.166 65.336-3.587 2.071-4.816 6.658-2.745 10.245s6.658 4.816 10.245 2.745c32.311-18.655 94.216-54.396 113.166-65.336 23.535-13.587 28.354-28.505 21.872-39.733zm-6.64-50.378c-1.312-2.272-2.993-4.212-5.024-5.76 1.279 9.983-5.576 21.665-24.348 32.503-18.95 10.941-80.855 46.682-113.166 65.336-3.587 2.071-4.816 6.658-2.745 10.245s6.658 4.816 10.245 2.745c32.311-18.655 94.216-54.396 113.166-65.336 23.535-13.587 28.354-28.505 21.872-39.733zm-42.765-29.521c-1.312-2.272-2.993-4.212-5.024-5.76 1.279 9.983-5.576 21.665-24.348 32.503-18.95 10.941-62.81 36.263-95.121 54.918-3.587 2.071-4.816 6.658-2.745 10.245s6.658 4.816 10.245 2.745c32.311-18.655 76.171-43.977 95.121-54.918 23.535-13.587 28.354-28.505 21.872-39.733z"/></g></g><g><path d="m504.5 512-106.205-.002c-4.142 0-7.5-3.358-7.5-7.5s3.358-7.5 7.5-7.5l98.705.002v-354.5c0-4.143 3.358-7.5 7.5-7.5s7.5 3.357 7.5 7.5v362c0 1.989-.79 3.896-2.197 5.304-1.407 1.406-3.314 2.196-5.303 2.196zm-139.614-275.999c6.45 2.033 11.695 6.212 15.139 12.177 1.623 2.811 2.702 5.77 3.237 8.804 16.026-8.291 27-23.831 29.404-41.84h-9.649c-4.142 0-7.5-3.357-7.5-7.5s3.358-7.5 7.5-7.5h9.642c-3.34-24.668-22.921-44.249-47.589-47.59v9.642c0 4.143-3.358 7.5-7.5 7.5s-7.5-3.357-7.5-7.5v-9.645c-8.784 1.183-17.101 4.435-24.344 9.512 1.889 1.778 3.533 3.858 4.895 6.218 3.33 5.767 4.372 12.157 3.113 18.541 6.239-2.046 12.058-2.889 17.397-2.521 9.714.675 17.617 5.469 22.254 13.501 2.968 5.14 9.492 20.893-8.499 38.201zm-27.403 72.504c5.264 2.257 9.574 6.063 12.542 11.205 4.637 8.031 4.838 17.273.564 26.023-4.25 8.702-12.723 16.762-25.182 23.955 0 0-58.099 33.542-77.698 44.861-7.965 4.601-19.528 12.502-32.015 21.122-4.422 27.658-8.588 49.693-10.876 61.324l163.477.002c4.142 0 7.5 3.358 7.5 7.5 0 4.143-3.358 7.5-7.5 7.5l-172.639-.002c-2.26 0-4.4-1.02-5.824-2.774-1.424-1.755-1.981-4.059-1.516-6.271.053-.253 4.675-22.3 10.242-55.466-12.625 8.646-25.028 16.909-35.624 23.026-40.422 23.339-95.818 8.174-98.157 7.518-3.988-1.12-6.312-5.262-5.192-9.249 1.121-3.987 5.262-6.311 9.249-5.192.352.098 13.399 3.66 30.617 4.615 15.599.87 37.975-.283 55.983-10.682 13.708-7.914 30.946-19.826 47.617-31.347 14.294-9.878 27.796-19.208 37.156-24.614 19.599-11.321 77.7-44.862 77.7-44.862 12.24-7.066 17.199-13.443 19.204-17.548 2.102-4.305 2.077-8.21-.077-11.94s-5.523-5.705-10.303-6.036c-4.559-.323-12.56.79-24.799 7.856l-59.692 34.463c-3.585 2.069-8.173.843-10.245-2.745-2.071-3.587-.842-8.174 2.745-10.245l113.167-65.337c12.24-7.066 17.199-13.443 19.204-17.548 2.102-4.305 2.077-8.21-.077-11.94s-5.523-5.705-10.303-6.036c-4.56-.325-12.56.79-24.799 7.856-.019.011-97.577 56.336-97.577 56.336-3.587 2.07-8.174.843-10.245-2.745-2.071-3.587-.842-8.174 2.745-10.245l114.412-66.056c16.978-9.803 24.128-20.826 19.127-29.488-2.154-3.73-5.524-5.705-10.303-6.036-4.554-.324-12.559.79-24.799 7.856l-114.412 66.055c-3.587 2.07-8.174.843-10.245-2.745-2.071-3.587-.842-8.174 2.745-10.245l95.122-54.918c12.24-7.066 17.199-13.443 19.204-17.548 2.102-4.305 2.077-8.21-.077-11.94s-5.523-5.705-10.303-6.036c-4.56-.329-12.56.79-24.799 7.856l-153.682 88.729c-13.866 8.004-29.551 7.569-30.211 7.543-4.14-.142-7.381-3.612-7.239-7.752.142-4.132 3.588-7.374 7.728-7.239.119-.001 12.165.265 22.223-5.542 17.308-9.993 37.467-33.226 42.138-68.461 1.856-13.998-4.705-20.856-10.887-22.477-4.771-1.254-11.541.291-14.928 8.75-16.218 40.507-36.583 59.09-85.812 91.128-17.806 11.589-36.866 56.871-36.857 105.808 0 4.142-3.356 7.5-7.499 7.501s-7.501-3.357-7.501-7.499c-.009-50.437 19.176-102.437 43.677-118.382 50.417-32.811 66.131-49.323 80.068-84.132 5.599-13.983 19.025-21.253 32.656-17.685 13.045 3.419 24.893 16.792 21.955 38.958-2.105 15.884-7.012 29.693-13.426 41.328l110.1-63.566c12.459-7.195 23.68-10.508 33.337-9.831.733.051 1.456.126 2.167.223 11.09-9.924 24.846-16.01 39.537-17.559v-10.538c0-4.143 3.358-7.5 7.5-7.5s7.5 3.357 7.5 7.5v10.54c32.949 3.495 59.203 29.749 62.698 62.698h10.541c4.142 0 7.5 3.357 7.5 7.5s-3.358 7.5-7.5 7.5h-10.535c-2.847 27.229-21.066 50.326-47.298 59.292-4.287 8.613-12.72 16.594-25.067 23.723zm85.563 45.827c-4.142 0-7.5-3.357-7.5-7.5v-28.575c0-4.143 3.358-7.5 7.5-7.5s7.5 3.357 7.5 7.5v28.575c0 4.143-3.358 7.5-7.5 7.5zm-199.71-178.471c-3.925.001-7.225-3.052-7.478-7.023-5.423-85.186-17.482-159.386-17.603-160.125-.356-2.172.26-4.391 1.686-6.068 1.425-1.678 3.515-2.645 5.716-2.645h298.843c4.142 0 7.5 3.357 7.5 7.5v105c0 4.143-3.358 7.5-7.5 7.5s-7.5-3.357-7.5-7.5v-97.5h-282.591c3.34 22.198 12.033 83.988 16.419 152.885.263 4.134-2.875 7.698-7.008 7.961-.162.01-.324.015-.484.015z"/></g></g></svg>