<svg id="Capa_1" enable-background="new 0 0 512 512" height="512" viewBox="0 0 512 512" width="512" xmlns="http://www.w3.org/2000/svg"><g><g><path d="m393.34 501.468-272.936-2.723c-22.091 0-40-17.909-40-40l-1.021-407.234c0-13.087 13.575-36.014 13.575-36.014 6.685-5.021 14.995-7.997 24-7.997h278.085c22.091 0 40 17.909 40 40v417c0 9.006-2.976 17.317-7.999 24.003 0 0-9.52 4.555-13.363 7.093-6.316 4.172-12.205 5.872-20.341 5.872z" fill="#857e87"/><path d="m427.043 488.503c-7.3 9.72-18.923 15.997-32.004 15.997h-278.079c-22.09 0-40-17.91-40-40v-417c0-13.08 6.278-24.703 15.998-32.003l.002 440.003c0 18.23 14.77 33 33 33z" fill="#6f6571"/><g fill="#6f6571"><path d="m241 40.5v119.7c0 1.657-1.343 3-3 3h-128.04c-1.657 0-3-1.343-3-3v-112.7c0-5.51 4.48-10 10-10h121.04c1.657 0 3 1.343 3 3z"/><path d="m241 196.2v119.7c0 1.657-1.343 3-3 3h-128.04c-1.657 0-3-1.343-3-3v-119.7c0-1.657 1.343-3 3-3h128.04c1.657 0 3 1.343 3 3z"/><path d="m241 351.9v119.6c0 1.657-1.343 3-3 3h-121.04c-5.52 0-10-4.49-10-10v-112.6c0-1.657 1.343-3 3-3h128.04c1.657 0 3 1.343 3 3z"/><path d="m405.04 47.5v112.7c0 1.657-1.343 3-3 3h-128.04c-1.657 0-3-1.343-3-3v-119.7c0-1.657 1.343-3 3-3h121.04c5.52 0 10 4.49 10 10z"/><path d="m405.04 196.2v119.7c0 1.657-1.343 3-3 3h-128.04c-1.657 0-3-1.343-3-3v-119.7c0-1.657 1.343-3 3-3h128.04c1.657 0 3 1.343 3 3z"/><path d="m402.04 348.9c1.657 0 3 1.343 3 3v112.6c0 5.51-4.48 10-10 10h-121.04c-1.657 0-3-1.343-3-3v-119.6c0-1.657 1.343-3 3-3z"/></g><path d="m352.16 270.19-15.01 15c-7.81 7.81-20.47 7.81-28.27 0-3.9-3.9-5.86-9.01-5.86-14.13s1.96-10.24 5.86-14.14l15.01-15 19.663 7.803z" fill="#f8f7f7"/><path d="m373.02 241.04c0 5.12-1.96 10.24-5.86 14.14l-15 15.01-28.27-28.27 15-15.01c7.81-7.81 20.47-7.81 28.27 0 3.9 3.9 5.86 9.01 5.86 14.13z" fill="#7bb1ff"/><path d="m323.89 241.92-.01-.01" fill="#ff8086"/><g><path d="m188.12 425.84-15.01 15c-7.81 7.81-20.47 7.81-28.27 0-3.9-3.9-5.86-9.02-5.86-14.13 0-5.12 1.96-10.23 5.86-14.14l15.01-15 16.554 11.387z" fill="#f8f7f7"/><path d="m208.98 396.69c0 5.12-1.96 10.23-5.86 14.14l-15 15.01-28.27-28.27 15-15.01c7.81-7.81 20.47-7.81 28.27 0 3.9 3.9 5.86 9.02 5.86 14.13z" fill="#ff8086"/><path d="m159.85 397.57-.01-.01" fill="#f8f7f7"/></g><g><path d="m362.472 75.898 11.121 8.441c6.455 14.349 3.79 31.802-7.996 43.589-11.786 11.786-29.239 14.452-43.589 7.996l-9.306-11.519-10.255-8.043c-6.455-14.349-3.79-31.802 7.996-43.589 11.786-11.786 29.239-14.452 43.589-7.996z" fill="#afefa5"/><path d="m365.597 72.773c3.444 3.444 6.115 7.366 7.996 11.566l-51.585 51.585c-4.2-1.881-8.122-4.552-11.566-7.996s-6.115-7.366-7.996-11.566l51.585-51.585c4.201 1.881 8.122 4.552 11.566 7.996z" fill="#8ce1a4"/></g><g><path d="m198.432 231.598 11.121 8.441c6.455 14.349 3.79 31.802-7.996 43.589-11.786 11.786-29.239 14.452-43.589 7.996l-9.306-11.519-10.255-8.043c-6.455-14.349-3.79-31.802 7.996-43.589 11.786-11.786 29.239-14.452 43.589-7.996z" fill="#ffe07d"/><path d="m201.557 228.473c3.444 3.444 6.115 7.366 7.996 11.566l-51.585 51.585c-4.2-1.881-8.122-4.552-11.566-7.996s-6.115-7.366-7.996-11.566l51.585-51.585c4.201 1.881 8.122 4.552 11.566 7.996z" fill="#ffd064"/></g><g><circle cx="187.194" cy="87.136" fill="#e8e8e8" r="25.786"/><circle cx="160.766" cy="113.564" fill="#f8f7f7" r="25.786"/></g><g><circle cx="351.234" cy="398.486" fill="#e8e8e8" r="25.786"/><circle cx="324.806" cy="424.914" fill="#f8f7f7" r="25.786"/></g></g><g><path d="m395.042 0h-278.084c-26.191 0-47.5 21.309-47.5 47.5v417c0 26.191 21.309 47.5 47.5 47.5h190.349c4.142 0 7.5-3.357 7.5-7.5s-3.358-7.5-7.5-7.5h-190.349c-17.92 0-32.5-14.579-32.5-32.5v-417c0-17.921 14.58-32.5 32.5-32.5h278.085c17.92 0 32.5 14.579 32.5 32.5v417c0 17.921-14.58 32.5-32.5 32.5h-52.736c-4.142 0-7.5 3.357-7.5 7.5s3.358 7.5 7.5 7.5h52.736c26.191 0 47.5-21.309 47.5-47.5v-417c-.001-26.191-21.309-47.5-47.501-47.5z"/><path d="m248.5 37.5c0-4.143-3.358-7.5-7.5-7.5h-124.04c-9.649 0-17.5 7.851-17.5 17.5v115.7c0 4.143 3.358 7.5 7.5 7.5h134.04c4.142 0 7.5-3.357 7.5-7.5zm-15 118.2h-119.04v-108.2c0-1.379 1.122-2.5 2.5-2.5h116.54z"/><path d="m248.5 193.2c0-4.143-3.358-7.5-7.5-7.5h-134.04c-4.142 0-7.5 3.357-7.5 7.5v125.7c0 4.143 3.358 7.5 7.5 7.5h53.806c4.142 0 7.5-3.357 7.5-7.5s-3.358-7.5-7.5-7.5h-46.306v-110.7h119.04v110.7h-37.734c-4.142 0-7.5 3.357-7.5 7.5s3.358 7.5 7.5 7.5h45.234c4.142 0 7.5-3.357 7.5-7.5z"/><path d="m106.96 409.128c-4.142 0-7.5 3.357-7.5 7.5v47.872c0 9.649 7.851 17.5 17.5 17.5h124.04c4.142 0 7.5-3.357 7.5-7.5v-125.6c0-4.143-3.358-7.5-7.5-7.5h-134.04c-4.142 0-7.5 3.357-7.5 7.5v32.728c0 4.143 3.358 7.5 7.5 7.5s7.5-3.357 7.5-7.5v-25.228h119.04v110.6h-116.54c-1.378 0-2.5-1.121-2.5-2.5v-47.872c0-4.143-3.358-7.5-7.5-7.5z"/><path d="m405.04 105.619c4.142 0 7.5-3.357 7.5-7.5v-50.619c0-9.649-7.851-17.5-17.5-17.5h-124.04c-4.142 0-7.5 3.357-7.5 7.5v125.7c0 4.143 3.358 7.5 7.5 7.5h134.04c4.142 0 7.5-3.357 7.5-7.5v-29.342c0-4.143-3.358-7.5-7.5-7.5s-7.5 3.357-7.5 7.5v21.842h-119.04v-110.7h116.54c1.378 0 2.5 1.121 2.5 2.5v50.619c0 4.143 3.358 7.5 7.5 7.5z"/><path d="m263.5 318.9c0 4.143 3.358 7.5 7.5 7.5h134.04c4.142 0 7.5-3.357 7.5-7.5v-125.7c0-4.143-3.358-7.5-7.5-7.5h-134.04c-4.142 0-7.5 3.357-7.5 7.5zm15-118.2h119.04v110.7h-119.04z"/><path d="m263.5 474.5c0 4.143 3.358 7.5 7.5 7.5h124.04c9.649 0 17.5-7.851 17.5-17.5v-115.6c0-4.143-3.358-7.5-7.5-7.5h-134.04c-4.142 0-7.5 3.357-7.5 7.5zm15-118.1h119.04v108.1c0 1.379-1.122 2.5-2.5 2.5h-116.54z"/><path d="m333.589 221.603-30.016 30.016c-5.192 5.192-8.052 12.097-8.052 19.439 0 7.343 2.86 14.247 8.053 19.439 9.521 9.896 28.114 11.1 38.876 0l30.017-30.016c5.192-5.192 8.052-12.097 8.052-19.439 0-7.343-2.86-14.247-8.053-19.439-10.718-10.718-28.159-10.718-38.877 0zm-10.576 61.945c-3.336 0-6.474-1.299-8.833-3.659-4.87-4.869-4.87-12.794 0-17.663l9.705-9.705 17.665 17.665-9.705 9.705c-2.36 2.358-5.496 3.657-8.832 3.657zm38.848-33.674-9.705 9.705-17.665-17.665 9.704-9.704c4.152-3.921 11.871-5.472 17.666.001 4.87 4.869 4.87 12.794 0 17.663z"/><path d="m178.411 446.147 30.016-30.016c10.699-10.699 10.719-28.095.06-38.818-9.512-9.954-28.152-11.184-38.938-.062l-30.017 30.017c-9.898 9.522-11.101 28.115.001 38.879 10.015 9.962 27.623 11.147 38.878 0zm10.576-61.946c2.206.023 5.782.912 8.833 3.66 4.87 4.869 4.87 12.794 0 17.663l-9.705 9.705-17.665-17.665 9.706-9.706c2.359-2.358 5.495-3.657 8.831-3.657zm-38.848 51.338c-4.87-4.869-4.87-12.794 0-17.663l9.705-9.705 17.665 17.665-9.704 9.704c-4.87 4.871-12.795 4.87-17.666-.001z"/><path d="m370.9 67.469c-16.65-17.222-47.712-18.557-65.761 0-18.064 18.078-17.957 47.654 0 65.762 16.663 17.229 47.662 18.594 65.761 0 18.064-18.078 17.958-47.654 0-65.762zm-55.154 55.154c-1.533-1.532-2.874-3.185-4.024-4.927l43.644-43.644c1.743 1.15 3.395 2.491 4.928 4.024 1.533 1.532 2.874 3.185 4.024 4.927l-43.643 43.644c-1.743-1.15-3.396-2.491-4.929-4.024zm0-44.547c6.141-6.142 14.208-9.212 22.274-9.212.43 0 .86.013 1.289.031l-32.744 32.744c-.344-8.491 2.713-17.095 9.181-23.563zm44.548 44.547c-6.468 6.469-15.072 9.526-23.563 9.182l32.743-32.744c.345 8.49-2.712 17.094-9.18 23.562z"/><path d="m216.557 237.387c-1.77-4.106-5.08-9.486-9.697-14.218-16.65-17.222-47.712-18.557-65.761 0-18.064 18.078-17.957 47.654 0 65.762 16.663 17.228 47.663 18.595 65.761 0 13.913-13.913 17.136-34.516 9.697-51.544zm-64.851 40.936c-1.533-1.532-2.874-3.185-4.024-4.927l43.644-43.644c1.743 1.15 3.395 2.491 4.928 4.024 1.533 1.532 2.874 3.185 4.024 4.927l-43.644 43.644c-1.743-1.15-3.395-2.491-4.928-4.024zm0-44.547c5.61-5.677 15.086-9.637 23.563-9.181l-32.744 32.744c-.344-8.491 2.713-17.095 9.181-23.563zm44.548 44.547c-6.469 6.469-15.073 9.527-23.564 9.182l32.744-32.744c.345 8.49-2.712 17.094-9.18 23.562z"/><path d="m160.766 146.85c16.214 0 29.75-11.655 32.688-27.026 15.371-2.938 27.026-16.473 27.026-32.688 0-18.354-14.932-33.286-33.286-33.286-16.214 0-29.75 11.655-32.688 27.026-15.371 2.938-27.026 16.473-27.026 32.688 0 18.354 14.932 33.286 33.286 33.286zm26.428-78c10.083 0 18.286 8.203 18.286 18.286 0 8.128-5.334 15.027-12.682 17.399-3.135-11.106-11.897-19.868-23.003-23.003 2.372-7.349 9.271-12.682 17.399-12.682zm-26.428 26.427c10.083 0 18.286 8.203 18.286 18.286s-8.203 18.286-18.286 18.286-18.286-8.203-18.286-18.286 8.203-18.286 18.286-18.286z"/><path d="m351.234 365.2c-16.214 0-29.75 11.655-32.688 27.026-15.371 2.938-27.026 16.473-27.026 32.688 0 18.354 14.932 33.286 33.286 33.286 16.214 0 29.75-11.655 32.688-27.026 15.371-2.938 27.026-16.473 27.026-32.688 0-18.354-14.932-33.286-33.286-33.286zm-26.428 78c-10.083 0-18.286-8.203-18.286-18.286s8.203-18.286 18.286-18.286 18.286 8.203 18.286 18.286-8.203 18.286-18.286 18.286zm32.032-27.314c-3.135-11.106-11.897-19.868-23.003-23.003 2.373-7.348 9.272-12.682 17.4-12.682 10.083 0 18.286 8.203 18.286 18.286-.001 8.127-5.335 15.026-12.683 17.399z"/></g></g></svg>