<svg id="Capa_1" enable-background="new 0 0 512.008 512.008" height="512" viewBox="0 0 512.008 512.008" width="512" xmlns="http://www.w3.org/2000/svg"><g><g><path d="m15.693 269.558 30.977 5.18.748-.419 2.33-12.897-2.53-3.61-28.469-4.76c-3.741-.626-7.28 1.9-7.906 5.641l-.999 5.972c.9 2.481 3.059 4.427 5.849 4.893z" fill="#ffdda8"/><path d="m46.24 274.202-30.275-5.063c-2.99-.5-5.255-2.73-5.95-5.493l-2.165 12.948c-.625 3.741 1.9 7.28 5.641 7.906l28.122 4.703 3.469-1.947 2.493-13.802z" fill="#ffc365"/><path d="m63.451 150.356c0 12.861 7.37 23.978 18.104 29.427l14.36-31.601-1.194-4.662c-5.094-3.458-11.241-5.48-17.862-5.48-4.189 0-8.185.817-11.848 2.287-1.01 3.164-1.56 6.532-1.56 10.029z" fill="#ffdda8"/><path d="m64.1 151.048c0-3.921.713-7.674 2.009-11.142-12.295 4.41-21.091 16.164-21.091 29.976 0 13.596 8.525 25.196 20.519 29.761l8.003-2.22 8.146-17.927c-10.422-5.232-17.586-15.994-17.586-28.448z" fill="#ffc365"/><path d="m396.458 126.712c-6.693-23.067-18.939-44.03-35.561-60.857-36.398-14.172-94.364-23.526-151.49 22.217l34.882 36.475 6.483.795s.605-.461 1.742-1.245c42.705-29.465 101.766-8.79 117.096 40.777l22.951 74.208c.12-.041.234-.091.357-.128l4.621 2.592 28.559-8.5v-4.185z" fill="#dbedff"/><path d="m364.897 70.075c-9.16-10.08-19.801-18.846-31.714-25.895-34.918-20.66-85.004-29.768-145.675 16.437v4.555l23.193 24.252c59.374-48.689 119.951-34.544 154.196-19.349z" fill="#b5dcff"/><path d="m250.773 125.343-48.728-49.853h-7.381s-180.333 152.099-110.333 381.433l16.583 19.023 15.894 8.5c10.637.532 21.604-1.175 32.271-5.48 36.156-14.592 55.212-54.057 44.732-91.611-34.56-123.849 31.312-212.162 57.409-241.088 5.404-5.99 5.191-15.155-.447-20.924z" fill="#ffc365"/><path d="m84.325 435.087c-17.038-91.384-15.571-237.809 117.72-359.597l-14.537-14.873c-5.717-5.849-15.046-6.197-21.132-.734-136.295 122.326-137.888 270.271-120.722 362.342 6.719 36.038 37.256 60.526 71.155 62.221-16.303-10.917-28.526-28.133-32.484-49.359z" fill="#ffa90f"/><g fill="#b5dcff"><path d="m397.468 296.142-.637.28.325 1.045.631-.277z"/><path d="m439.318 235.601c-1.655-5.439-7.405-8.507-12.844-6.853l-12.308 3.744c-1.756 3.937-2.171 8.493-.818 12.941l20.014 65.797 25.598-7.141v-3.912z"/></g><path d="m414.217 245.745c-1.448-4.759-.796-9.653 1.415-13.699l-22.713 6.909c-5.439 1.655-8.507 7.405-6.853 12.844l13.242 43.534-2.477 1.09 7.167 23 30.078-8.391z" fill="#8bcaff"/><path d="m132.883 393.924c-6.066 4.442-10.012 11.607-10.012 19.702 0 8.094 3.946 15.26 10.012 19.702 6.56-4.106 10.925-11.393 10.925-19.702s-4.366-15.595-10.925-19.702z" fill="#ffdda8"/><path d="m123.39 413.626c0-8.004 4.049-15.063 10.209-19.24-3.715-2.519-8.197-3.992-13.023-3.992-12.831 0-23.232 10.401-23.232 23.232s10.401 23.232 23.232 23.232c4.826 0 9.309-1.473 13.023-3.992-6.16-4.177-10.209-11.235-10.209-19.24z" fill="#ffd086"/><path d="m503.888 359.886-14.568-47.892c-3.224-10.598-14.533-16.632-25.131-13.408l-31.198 9.49 26.29 86.431 31.198-9.49c10.599-3.224 16.633-14.533 13.409-25.131z" fill="#ffc365"/><path d="m433.405 307.95-27.697 8.425-2.877 4.547 23 78.167 6.168 3.717 27.697-8.425z" fill="#ffa90f"/><path d="m370.89 374.699-19.861 6.041c-11.392 3.465-23.594 2.665-34.574-1.942-7.363-3.089-16.409-1.882-22.66 4.711-8.409 8.869-14.226 19.37-16.762 30.39 7.482 11.757 20.078 19.936 34.827 23.256 7.789 1.753 14.983-1.792 18.845-7.65 5.76-8.735 14.275-15.291 24.286-18.335l21.295-6.478 2.045-4.602z" fill="#dbedff"/><path d="m294.561 384.422c6.072-6.403 14.858-7.576 22.009-4.575 10.664 4.475 22.516 5.252 33.581 1.886l20.935-6.368-8.921-30.443-4.773-2.349-21.295 6.477c-10.011 3.045-20.734 2.342-30.383-1.707-6.47-2.715-14.42-1.654-19.913 4.14-13.485 14.222-19.428 33.209-13.999 51.057 1.411 4.64 3.51 8.912 6.17 12.775 2.282-11.205 8.071-21.909 16.589-30.893z" fill="#b5dcff"/><path d="m438.272 423.429-25.618-84.221c-2.997-2.005-6.832-2.711-10.53-1.586l-32.501 9.886c-4.08 1.241-7.041 4.431-8.226 8.237l25.355 83.356c1.921 6.314 8.658 9.909 14.973 7.988l28.558-8.687c6.315-1.921 9.91-8.658 7.989-14.973z" fill="#ffdda8"/><path d="m369.992 347.832 31.379-9.545c4.328-1.316 8.854-.04 11.892 2.925l-13.828-45.46c-1.921-6.314-8.659-9.909-14.973-7.988l-28.558 8.687c-6.314 1.921-9.909 8.658-7.989 14.973l13.828 45.46c.873-4.156 3.922-7.736 8.249-9.052z" fill="#ffc365"/></g><g><path d="m120.322 444.359c16.946 0 30.732-13.786 30.732-30.732s-13.786-30.732-30.732-30.732c-16.945 0-30.731 13.786-30.731 30.732s13.786 30.732 30.731 30.732zm0-46.465c8.675 0 15.732 7.058 15.732 15.732s-7.058 15.732-15.732 15.732-15.731-7.058-15.731-15.732 7.057-15.732 15.731-15.732z"/><path d="m131.283 164.711 3.126-5.117c2.159-3.535 1.044-8.151-2.49-10.311-3.534-2.157-8.15-1.043-10.311 2.49l-3.126 5.117c-2.159 3.535-1.044 8.151 2.49 10.311 3.55 2.167 8.159 1.032 10.311-2.49z"/><path d="m103.748 215.788 2.254-5.557c1.557-3.839-.293-8.213-4.131-9.77-3.84-1.555-8.213.293-9.77 4.131l-2.254 5.557c-1.557 3.839.293 8.213 4.131 9.77 3.832 1.551 8.209-.283 9.77-4.131z"/><path d="m496.243 309.812c-4.257-13.991-18.615-22.055-32.519-18.914l-17.484-57.48c-2.091-6.87-7.971-11.641-14.885-12.481l-8.911-30.71c-1.155-3.979-5.324-6.267-9.293-5.113-3.979 1.154-6.268 5.315-5.113 9.293l8.541 29.434-19.316 5.876-20.74-67.058c-16.6-53.675-78.989-75.624-125.012-47.033-11.214-11.473-41.711-42.674-52.845-54.066 45.229-31.716 89.08-35.401 130.445-10.925 28.97 17.14 50.24 44.9 59.892 78.166l9.28 31.983c1.154 3.979 5.319 6.265 9.293 5.113 3.979-1.154 6.268-5.315 5.113-9.293l-9.28-31.983c-10.72-36.945-34.393-67.806-66.659-86.896-33.063-19.561-85.554-32.712-149.5 13.565-8.273-4.549-18.76-3.609-26.135 3.011-27.246 24.454-50.333 50.964-69.176 79.368-25.933-10.997-54.673 8.147-54.673 36.212 0 13.633 7.197 26.243 18.494 33.347-5.823 14.942-10.652 30.291-14.488 46.027l-21.539-3.602c-7.812-1.307-15.231 3.99-16.539 11.801l-2.993 17.901c-1.311 7.835 3.966 15.23 11.799 16.542l20.996 3.511c-4.828 41.314-3.16 84.255 5.032 128.192 4.624 24.803 19.96 45.981 42.073 58.104 64.514 35.364 140.807-24.243 120.681-96.364-8.143-29.18-11.081-58.482-8.734-87.093.339-4.128-2.733-7.749-6.861-8.088-4.128-.341-7.749 2.733-8.088 6.861-2.493 30.385.614 61.456 9.236 92.351 16.555 59.329-46.115 108.184-99.022 79.18-18.153-9.951-30.742-27.337-34.538-47.7-26.995-144.776 19.34-266.517 118.358-355.387 3.099-2.781 7.823-2.607 10.759.395l63.264 64.726c2.875 2.941 2.982 7.623.243 10.658-17.562 19.465-49.056 60.898-62.667 119.699-.935 4.035 1.58 8.064 5.615 8.998 4.038.938 8.063-1.58 8.998-5.615 12.851-55.51 42.601-94.646 59.19-113.033 5.964-6.609 7.331-15.864 4.205-23.71 37.852-22.369 88.011-3.949 101.452 39.51l21.273 68.784c-4.749 4.494-6.857 11.438-4.829 18.107l7.853 25.817c-1.497.094-2.993.342-4.463.789l-28.558 8.687c-10.286 3.13-16.11 14.044-12.982 24.332l7.293 23.975-14.119 4.295c-8.167 2.487-17.151 1.973-25.298-1.447-9.852-4.134-20.941-1.819-28.257 5.896-33.813 35.66-18.044 87.365 29.854 98.147 10.467 2.355 20.928-2.003 26.754-10.838 4.862-7.375 12.039-12.805 20.207-15.289l14.118-4.295 8.284 27.233c3.126 10.274 14.029 16.112 24.331 12.982l28.558-8.688c10.287-3.129 16.111-14.045 12.982-24.331l-4.09-13.447 51.305-15.606c14.575-4.435 22.833-19.915 18.401-34.489zm-443.978-139.931c0-16.309 15.824-28.056 31.462-23.284-8.46 13.964-15.99 28.573-22.092 42.458-5.786-4.546-9.37-11.606-9.37-19.174zm-37.166 107.326 2.784-16.653 20.119 3.364c-1.113 5.508-2.107 11.049-2.978 16.621zm434.25 17.977-38.9 11.832c-3.159-10.386-16.275-53.501-17.46-57.399-.435-1.429.343-2.935 1.734-3.433 0 0 .007-.001.01-.002 1.579-.543-4.951 1.491 33.671-10.257 1.478-.447 3.036.381 3.485 1.859zm-82.675 104.514-14.118 4.295c-11.508 3.501-21.581 11.095-28.365 21.383-1.834 2.781-5.793 5.621-10.938 4.461-36.555-8.227-48.04-46.006-22.263-73.192 3.197-3.371 7.851-3.945 11.568-2.384 11.364 4.769 23.96 5.467 35.467 1.967l14.119-4.295c1.688 5.545 13.374 43.965 14.53 47.765zm61.175 31.528-28.559 8.688c-2.34.707-4.907-.662-5.615-2.996-4.308-14.163-33.625-110.541-38.837-127.676-.71-2.335.662-4.906 2.996-5.616l28.558-8.687c2.324-.711 4.899.655 5.612 2.988 4.525 14.877 34.524 113.5 38.839 127.685.716 2.351-.639 4.898-2.994 5.614zm60.195-53.385-51.305 15.606c-2.924-9.614-19.001-62.466-21.925-72.08 9.96-3.029 41.346-12.576 51.305-15.605 6.628-2.018 13.75 1.761 15.772 8.415l14.567 47.892c2.019 6.629-1.76 13.749-8.414 15.772z"/></g></g></svg>