<svg id="Capa_1" enable-background="new 0 0 512 512" height="512" viewBox="0 0 512 512" width="512" xmlns="http://www.w3.org/2000/svg"><g><g><path d="m280.513 8.501c96.448.258 174.454 77.609 175.473 174.052.556 52.635-20.872 99.044-56.864 131.815-1.086 1.001-2.662 3.426-2.539 4.899l12.025 180.208c.225 2.705-.909 4.025-3.624 4.025l-29.996 1h-35.01l-15.308-10-19.723 10h-62.623c-2.562 0-4.64-2.077-4.64-4.64v-97.269c0-5.29-4.288-9.578-9.578-9.578h-58.493c-33.184 0-60.695-24.287-65.728-56.055-.542-3.419 9.177-6.925 9.177-10.496l-10-24.577v-31.995c0-2.607-2.114-4.721-4.721-4.721h-26.555c-14.436 0-22.111-17.041-12.547-27.852l42.642-48.227c.763-.863 1.184-1.975 1.184-3.127v-1.941c.223-92.463 71.375-168.269 161.923-175.891 5.116-.431 10.294.356 15.525.37z" fill="#fed2a4"/><path d="m397.579 319.27 12.03 180.21c.22 2.7-1.91 5.02-4.62 5.02h-30c2.71 0 4.84-2.32 4.62-5.02l-12.03-180.21c-.12-1.48.46-2.9 1.54-3.9 35.99-32.77 58.42-80.18 57.87-132.82-.97-91.57-72.25-166.83-162.01-174.42 5.11-.43 10.3-.64 15.53-.63 96.45.26 175.46 78.61 176.48 175.05.55 52.64-21.88 100.05-57.87 132.82-1.08 1-1.66 2.42-1.54 3.9z" fill="#ffbd86"/><path d="m338.979 503.5-16 1h-18.03l-6.58-148.39c-.57-10.65-9.36-18.99-20.03-18.99h-174.41c-.57-3.47-.86-7.03-.86-10.66v-24.34h161.91l13.36 1c29.34 0 52.49 21.95 53.98 51.25 0 .04.01.08.01.12z" fill="#f47c7c"/><path d="m339.979 504.5h-17l-6.65-150.01c0-.04-.01-.08-.01-.12-1.49-29.3-25.64-52.25-54.98-52.25h17c29.34 0 53.49 22.95 54.98 52.25 0 .04.01.08.01.12z" fill="#ee6161"/></g><g><path d="m449.494 182.632c.511 48.302-19.686 94.66-55.447 127.222-2.794 2.575-4.227 6.201-3.937 9.959l5.205 77.995c.265 3.964 3.562 7.002 7.476 7.001.168 0 .338-.005.507-.017 4.134-.275 7.26-3.85 6.984-7.982l-5.125-76.793c38.276-35.359 59.888-85.412 59.337-137.543-.277-26.21-5.994-51.518-16.994-75.219-1.743-3.757-6.203-5.392-9.96-3.646-3.757 1.743-5.39 6.202-3.646 9.96 10.097 21.759 15.346 44.995 15.6 69.063z"/><path d="m412.459 429.432c-.276-4.134-3.852-7.264-7.983-6.984-4.133.275-7.26 3.85-6.984 7.982l4.442 66.57h-54.773l-6.331-142.807c-.005-.115-.012-.231-.021-.347-1.763-33.225-29.173-59.227-62.463-59.227h-44.757c-4.142 0-7.5 3.357-7.5 7.5s3.358 7.5 7.5 7.5h44.757c25.33 0 46.183 19.804 47.488 45.093.004.089.01.177.017.266l6.296 142.022h-20.017l-6.265-141.292c-.783-14.629-12.871-26.088-27.52-26.088h-167.686c-.055-1.046-.086-2.099-.086-3.158v-16.842h90.329c4.142 0 7.5-3.357 7.5-7.5s-3.358-7.5-7.5-7.5h-90.329v-24.73c0-6.738-5.482-12.221-12.221-12.221h-26.559c-3.744 0-6.897-2.038-8.435-5.452s-.976-7.126 1.506-9.932l42.644-48.229c1.976-2.236 3.063-5.11 3.063-8.093v-1.923c.109-45.255 17.84-87.764 49.926-119.694 31.989-31.832 74.422-49.346 119.538-49.346.154 0 .312.001.467.001 54.361.144 105.803 26.855 137.607 71.45 2.405 3.372 7.087 4.158 10.461 1.752 3.373-2.405 4.157-7.089 1.752-10.461-34.605-48.521-90.598-77.584-149.78-77.741-.172 0-.337-.001-.509-.001-49.104 0-95.299 19.065-130.115 53.714-34.926 34.758-54.226 81.029-54.345 130.309v.889l-41.943 47.437c-6.406 7.241-7.918 17.215-3.947 26.03s12.444 14.291 22.112 14.291h23.779v53.793c0 40.832 33.219 74.051 74.051 74.051h58.493c1.146 0 2.079.933 2.079 2.078v97.27c0 6.693 5.446 12.14 12.14 12.14h162.658c3.385 0 6.64-1.429 8.932-3.919 2.276-2.473 3.43-5.805 3.173-9.152zm-184.343-43.919h-58.493c-26.226 0-48.503-17.191-56.182-40.893h164.905c6.675 0 12.184 5.223 12.538 11.821l6.233 140.559h-51.923v-94.409c0-9.417-7.661-17.078-17.078-17.078z"/></g></g></svg>