<svg id="Capa_1" enable-background="new 0 0 512 512" height="512" viewBox="0 0 512 512" width="512" xmlns="http://www.w3.org/2000/svg"><g><g><path d="m391.5 489-7-421.5-272 15v407l271.5 7c4.142 0 7.5-3.358 7.5-7.5z" fill="#eef9fa"/><path d="m399.5 82.5-15-15v414.5c0 4.142-3.358 7.5-7.5 7.5h-264.5c0 8.284 6.716 15 15 15h257c8.284 0 15-6.716 15-15v-45l-7.5-143.5 7.5-143.5z" fill="#dcf2f6"/><path d="m193.71 206.878c9.468-4.18 12.634-17.779 7.073-30.375-1.075-2.434-3.465-6.572-10.212-13.319-4.983-3.342-10.117-4.894-14.172-3.104-9.468 4.18-9.462 24.965-3.901 37.56.376.852.785 1.674 1.218 2.472 7.128 7.127 15.603 8.704 19.994 6.766z" fill="#bae6ef"/><path d="m206.784 182.503c-3.179-7.201-9.56-14.857-16.212-19.319 1.693 2.398 3.137 4.884 4.212 7.319 5.561 12.595 2.394 26.195-7.073 30.375-4.391 1.939-9.365 1.508-13.993-.765 5.98 10.993 17.166 16.663 25.993 12.765 9.467-4.18 12.634-17.779 7.073-30.375z" fill="#94d8e6"/><path d="m287.624 444.5h96.876l7.5-143.5-7.5-143.5h-96.876z" fill="#bae6ef"/><path d="m384.5 157.5h15v287h-15z" fill="#94d8e6"/><path d="m399.5 7.5h-287c-8.284 0-15 6.716-15 15v45l309 7z" fill="#bae6ef"/><path d="m399.5 7.5v56.5c0 1.933-1.567 3.5-3.5 3.5h-298.5v15h317v-60c0-8.284-6.716-15-15-15z" fill="#94d8e6"/></g><g><path d="m384.5 512h-257c-12.407 0-22.5-10.094-22.5-22.5v-98.5c0-4.143 3.358-7.5 7.5-7.5s7.5 3.357 7.5 7.5v98.5c0 4.136 3.364 7.5 7.5 7.5h257c4.136 0 7.5-3.364 7.5-7.5v-37.5h-104.376c-4.143 0-7.5-3.357-7.5-7.5v-167c0-4.143 3.357-7.5 7.5-7.5s7.5 3.357 7.5 7.5v159.5h96.876v-32h-60.376c-4.143 0-7.5-3.357-7.5-7.5s3.357-7.5 7.5-7.5h60.376v-30h-60.376c-4.143 0-7.5-3.357-7.5-7.5s3.357-7.5 7.5-7.5h60.376v-30h-60.376c-4.143 0-7.5-3.357-7.5-7.5s3.357-7.5 7.5-7.5h60.376v-45h-60.376c-4.143 0-7.5-3.357-7.5-7.5s3.357-7.5 7.5-7.5h60.376v-30h-60.376c-4.143 0-7.5-3.357-7.5-7.5s3.357-7.5 7.5-7.5h60.376v-30h-96.876v82.5c0 4.143-3.357 7.5-7.5 7.5s-7.5-3.357-7.5-7.5v-90c0-4.143 3.357-7.5 7.5-7.5h104.376v-60h-272v271c0 4.143-3.358 7.5-7.5 7.5s-7.5-3.357-7.5-7.5v-271h-15c-4.142 0-7.5-3.357-7.5-7.5s3.358-7.5 7.5-7.5v-52.5c0-12.406 10.093-22.5 22.5-22.5h56.218c4.142 0 7.5 3.357 7.5 7.5s-3.358 7.5-7.5 7.5h-56.218c-4.136 0-7.5 3.364-7.5 7.5v52.5h302v-52.5c0-4.136-3.364-7.5-7.5-7.5h-200.782c-4.142 0-7.5-3.357-7.5-7.5s3.358-7.5 7.5-7.5h200.782c12.406 0 22.5 10.094 22.5 22.5v52.5c4.143 0 7.5 3.357 7.5 7.5s-3.357 7.5-7.5 7.5h-15v399.5c0 12.406-10.094 22.5-22.5 22.5zm-207.157-68.062c-4.142 0-7.5-3.357-7.5-7.5 0-19.109 12.446-31.309 23.426-42.071 8.818-8.644 16.433-16.107 16.433-25.38 0-9.597-8.698-17.377-17.907-25.614-10.768-9.633-22.973-20.551-22.973-36.939 0-17.153 11.943-28.062 21.539-36.825 7.159-6.538 13.341-12.185 13.341-18.336 0-9.09-2.73-16.718-8.385-29.738-11.526.722-23.761-7.458-29.68-20.864-3.268-7.401-4.878-16.921-4.308-25.465.74-11.076 5.016-18.884 12.04-21.985 7.023-3.101 15.676-1.002 24.359 5.915 6.698 5.335 12.648 12.938 15.916 20.339 5.925 13.42 3.697 27.986-4.602 36.014 6.202 14.309 9.66 23.972 9.66 35.785 0 12.767-9.265 21.229-18.225 29.412-8.565 7.821-16.655 15.21-16.655 25.749 0 9.682 8.73 17.491 17.974 25.76 10.737 9.604 22.906 20.49 22.906 36.794 0 15.573-10.642 26.005-20.933 36.092-9.733 9.54-18.926 18.551-18.926 31.359 0 4.141-3.358 7.498-7.5 7.498zm2.086-276.996c-1.001.441-2.738 3.348-3.132 9.262-.411 6.146.763 13.199 3.062 18.407 3.75 8.494 11.844 13.823 17.321 11.405s6.992-11.99 3.242-20.484c-2.299-5.208-6.721-10.828-11.539-14.665-4.635-3.692-7.953-4.367-8.954-3.925z"/></g></g></svg>