<svg id="Capa_1" enable-background="new 0 0 512 512" height="512" viewBox="0 0 512 512" width="512" xmlns="http://www.w3.org/2000/svg"><g><g><path d="m474.5 7.5h-437c-4.354 0-8.492.928-12.226 2.596 0 0-14.231 23.583-14.231 35.797l1.021 423.064c0 16.569 13.431 30 30 30l432.298.468c5.987 0 7.084.128 11.766-2.894 4.876-3.147 15.785-9.826 15.785-9.826 1.663-3.729 2.587-7.859 2.587-12.206v-437c0-16.568-13.431-29.999-30-29.999z" fill="#c38c66"/><path d="m501.913 486.706c-4.66 10.49-15.193 17.794-27.413 17.794h-437c-16.57 0-30-13.43-30-30v-437c0-12.22 7.294-22.744 17.774-27.404l.006 442.604c0 18.78 15.22 34 34 34z" fill="#b57f5f"/><g><path d="m450.5 68.5c0-3.866-3.134-7-7-7h-70.8l-38.9 29.585-38.9-29.585h-77.8l-38.9 29.585-38.9-29.585h-70.8c-3.866 0-7 3.134-7 7v70.8l29.585 38.9-29.585 38.9v77.8l29.585 38.9-29.585 38.9v70.8c0 3.866 3.134 7 7 7h70.8l38.9-29.585 38.9 29.585h77.8l38.9-29.585 38.9 29.585h70.8c3.866 0 7-3.134 7-7v-70.8l-29.585-38.9 29.585-38.9v-77.8l-29.585-38.9 29.585-38.9z" fill="#f8f7f7"/><g fill="#b57f5f"><path d="m139.3 61.5h77.8v77.8h-77.8z"/><path d="m294.9 61.5h77.8v77.8h-77.8z"/><path d="m61.5 139.3h77.8v77.8h-77.8z"/><path d="m372.7 139.3h77.8v77.8h-77.8z"/><path d="m61.5 294.9h77.8v77.8h-77.8z"/><path d="m372.7 294.9h77.8v77.8h-77.8z"/><path d="m294.9 372.7h77.8v77.8h-77.8z"/><path d="m139.3 372.7h77.8v77.8h-77.8z"/><path d="m217.1 139.3h77.8v77.8h-77.8z"/><path d="m217.1 294.9h77.8v77.8h-77.8z"/><path d="m139.3 217.1h77.8v77.8h-77.8z"/><path d="m294.9 217.1h77.8v77.8h-77.8z"/></g></g><g><g fill="#f8f7f7"><circle cx="333.8" cy="100.4" r="17"/><circle cx="178.2" cy="100.4" r="17"/><circle cx="100.4" cy="178.2" r="17"/></g><g fill="#857e87"><circle cx="100.4" cy="411.6" r="17"/><circle cx="256" cy="411.6" r="17"/><circle cx="411.6" cy="411.6" r="17"/><circle cx="333.8" cy="333.8" r="17"/><circle cx="178.2" cy="333.8" r="17"/></g><circle cx="256" cy="178.2" fill="#f8f7f7" r="17"/><circle cx="411.6" cy="178.2" fill="#f8f7f7" r="17"/></g></g><g><path d="m474.5 0h-176.205c-4.143 0-7.5 3.357-7.5 7.5s3.357 7.5 7.5 7.5h176.205c12.406 0 22.5 10.094 22.5 22.5v437c0 12.406-10.094 22.5-22.5 22.5h-437c-12.407 0-22.5-10.094-22.5-22.5v-437c0-12.406 10.093-22.5 22.5-22.5h225.795c4.143 0 7.5-3.357 7.5-7.5s-3.357-7.5-7.5-7.5h-225.795c-20.678 0-37.5 16.822-37.5 37.5v437c0 20.678 16.822 37.5 37.5 37.5h437c20.678 0 37.5-16.822 37.5-37.5v-437c0-20.678-16.822-37.5-37.5-37.5z"/><path d="m54 61.5v179.5c0 4.143 3.358 7.5 7.5 7.5s7.5-3.357 7.5-7.5v-16.4h62.8v62.8h-62.8v-11.4c0-4.143-3.358-7.5-7.5-7.5s-7.5 3.357-7.5 7.5v174.5c0 4.143 3.358 7.5 7.5 7.5h389c4.143 0 7.5-3.357 7.5-7.5v-389c0-4.143-3.357-7.5-7.5-7.5h-389c-4.142 0-7.5 3.357-7.5 7.5zm15 148.1v-62.8h62.8v62.8zm303.7-41.4c4.143 0 7.5-3.357 7.5-7.5v-13.9h62.8v62.8h-62.8v-13.9c0-4.143-3.357-7.5-7.5-7.5s-7.5 3.357-7.5 7.5v13.9h-62.8v-62.8h62.8v13.9c0 4.143 3.358 7.5 7.5 7.5zm-21.4 212h13.9v62.8h-62.8v-62.8h13.9c4.143 0 7.5-3.357 7.5-7.5s-3.357-7.5-7.5-7.5h-13.9v-62.8h62.8v62.8h-13.9c-4.143 0-7.5 3.357-7.5 7.5s3.357 7.5 7.5 7.5zm-63.9-155.6v62.8h-62.8v-62.8zm-62.8-15v-62.8h62.8v62.8zm218.4 77.8h-62.8v-62.8h62.8zm-77.8 0h-62.8v-62.8h62.8zm-77.8 15v62.8h-62.8v-62.8zm-77.8 62.8h-62.8v-62.8h62.8zm0 15v62.8h-62.8v-62.8zm15 0h62.8v62.8h-62.8zm155.6-77.8h62.8v62.8h-62.8zm-77.8-170.6v-62.8h62.8v62.8zm-15 0h-62.8v-62.8h62.8zm-77.8 0h-62.8v-62.8h62.8zm0 15v62.8h-62.8v-62.8zm-62.8 77.8h62.8v62.8h-62.8zm-15 77.8v62.8h-62.8v-62.8zm-62.8 77.8h62.8v62.8h-62.8zm311.2 62.8v-62.8h62.8v62.8zm62.8-311.2h-62.8v-62.8h62.8zm-311.2-62.8v62.8h-62.8v-62.8z"/><path d="m333.8 79.4c-11.579 0-21 9.421-21 21s9.421 21 21 21 21-9.421 21-21-9.421-21-21-21zm0 27c-3.309 0-6-2.691-6-6s2.691-6 6-6 6 2.691 6 6-2.692 6-6 6z"/><path d="m178.2 121.4c11.58 0 21-9.421 21-21s-9.42-21-21-21-21 9.421-21 21 9.421 21 21 21zm0-27c3.309 0 6 2.691 6 6s-2.691 6-6 6-6-2.691-6-6 2.692-6 6-6z"/><path d="m100.4 157.2c-11.58 0-21 9.421-21 21s9.42 21 21 21 21-9.421 21-21-9.421-21-21-21zm0 27c-3.309 0-6-2.691-6-6s2.691-6 6-6 6 2.691 6 6-2.692 6-6 6z"/><path d="m100.4 390.6c-11.58 0-21 9.421-21 21s9.42 21 21 21 21-9.421 21-21-9.421-21-21-21zm0 27c-3.309 0-6-2.691-6-6s2.691-6 6-6 6 2.691 6 6-2.692 6-6 6z"/><path d="m256 390.6c-11.58 0-21 9.421-21 21s9.42 21 21 21c11.579 0 21-9.421 21-21s-9.421-21-21-21zm0 27c-3.309 0-6-2.691-6-6s2.691-6 6-6 6 2.691 6 6-2.691 6-6 6z"/><path d="m411.6 390.6c-11.579 0-21 9.421-21 21s9.421 21 21 21 21-9.421 21-21-9.421-21-21-21zm0 27c-3.309 0-6-2.691-6-6s2.691-6 6-6 6 2.691 6 6-2.692 6-6 6z"/><path d="m354.8 333.8c0-11.579-9.421-21-21-21s-21 9.421-21 21 9.421 21 21 21 21-9.421 21-21zm-21 6c-3.309 0-6-2.691-6-6s2.691-6 6-6 6 2.691 6 6-2.692 6-6 6z"/><path d="m178.2 354.8c11.58 0 21-9.421 21-21s-9.42-21-21-21-21 9.421-21 21 9.421 21 21 21zm0-27c3.309 0 6 2.691 6 6s-2.691 6-6 6-6-2.691-6-6 2.692-6 6-6z"/><path d="m256 157.2c-11.58 0-21 9.421-21 21s9.42 21 21 21c11.579 0 21-9.421 21-21s-9.421-21-21-21zm0 27c-3.309 0-6-2.691-6-6s2.691-6 6-6 6 2.691 6 6-2.691 6-6 6z"/><path d="m411.601 199.2c11.579 0 21-9.421 21-21s-9.421-21-21-21-21 9.421-21 21 9.42 21 21 21zm0-27c3.309 0 6 2.691 6 6s-2.691 6-6 6-6-2.691-6-6 2.691-6 6-6z"/><path d="m475.798 107.9h3.404c4.143 0 7.5-3.357 7.5-7.5s-3.357-7.5-7.5-7.5h-3.404c-4.143 0-7.5 3.357-7.5 7.5s3.357 7.5 7.5 7.5z"/><path d="m475.798 185.7h3.404c4.143 0 7.5-3.357 7.5-7.5s-3.357-7.5-7.5-7.5h-3.404c-4.143 0-7.5 3.357-7.5 7.5s3.357 7.5 7.5 7.5z"/><path d="m475.798 263.5h3.404c4.143 0 7.5-3.357 7.5-7.5s-3.357-7.5-7.5-7.5h-3.404c-4.143 0-7.5 3.357-7.5 7.5s3.357 7.5 7.5 7.5z"/><path d="m475.798 341.3h3.404c4.143 0 7.5-3.357 7.5-7.5s-3.357-7.5-7.5-7.5h-3.404c-4.143 0-7.5 3.357-7.5 7.5s3.357 7.5 7.5 7.5z"/><path d="m475.798 419.1h3.404c4.143 0 7.5-3.357 7.5-7.5s-3.357-7.5-7.5-7.5h-3.404c-4.143 0-7.5 3.357-7.5 7.5s3.357 7.5 7.5 7.5z"/><path d="m36.202 92.9h-3.404c-4.142 0-7.5 3.357-7.5 7.5s3.358 7.5 7.5 7.5h3.404c4.142 0 7.5-3.357 7.5-7.5s-3.358-7.5-7.5-7.5z"/><path d="m36.202 170.7h-3.404c-4.142 0-7.5 3.357-7.5 7.5s3.358 7.5 7.5 7.5h3.404c4.142 0 7.5-3.357 7.5-7.5s-3.358-7.5-7.5-7.5z"/><path d="m36.202 248.5h-3.404c-4.142 0-7.5 3.357-7.5 7.5s3.358 7.5 7.5 7.5h3.404c4.142 0 7.5-3.357 7.5-7.5s-3.358-7.5-7.5-7.5z"/><path d="m36.202 326.3h-3.404c-4.142 0-7.5 3.357-7.5 7.5s3.358 7.5 7.5 7.5h3.404c4.142 0 7.5-3.357 7.5-7.5s-3.358-7.5-7.5-7.5z"/><path d="m36.202 404.1h-3.404c-4.142 0-7.5 3.357-7.5 7.5s3.358 7.5 7.5 7.5h3.404c4.142 0 7.5-3.357 7.5-7.5s-3.358-7.5-7.5-7.5z"/><path d="m92.9 475.798v3.404c0 4.143 3.358 7.5 7.5 7.5s7.5-3.357 7.5-7.5v-3.404c0-4.143-3.358-7.5-7.5-7.5s-7.5 3.357-7.5 7.5z"/><path d="m170.7 475.798v3.404c0 4.143 3.358 7.5 7.5 7.5s7.5-3.357 7.5-7.5v-3.404c0-4.143-3.358-7.5-7.5-7.5s-7.5 3.357-7.5 7.5z"/><path d="m248.5 475.798v3.404c0 4.143 3.358 7.5 7.5 7.5 4.143 0 7.5-3.357 7.5-7.5v-3.404c0-4.143-3.357-7.5-7.5-7.5-4.142 0-7.5 3.357-7.5 7.5z"/><path d="m326.3 475.798v3.404c0 4.143 3.357 7.5 7.5 7.5s7.5-3.357 7.5-7.5v-3.404c0-4.143-3.357-7.5-7.5-7.5s-7.5 3.357-7.5 7.5z"/><path d="m404.1 475.798v3.404c0 4.143 3.357 7.5 7.5 7.5s7.5-3.357 7.5-7.5v-3.404c0-4.143-3.357-7.5-7.5-7.5s-7.5 3.357-7.5 7.5z"/><path d="m107.9 36.202v-3.404c0-4.143-3.358-7.5-7.5-7.5s-7.5 3.357-7.5 7.5v3.404c0 4.143 3.358 7.5 7.5 7.5s7.5-3.357 7.5-7.5z"/><path d="m185.7 36.202v-3.404c0-4.143-3.358-7.5-7.5-7.5s-7.5 3.357-7.5 7.5v3.404c0 4.143 3.358 7.5 7.5 7.5s7.5-3.357 7.5-7.5z"/><path d="m263.5 36.202v-3.404c0-4.143-3.357-7.5-7.5-7.5-4.142 0-7.5 3.357-7.5 7.5v3.404c0 4.143 3.358 7.5 7.5 7.5 4.143 0 7.5-3.357 7.5-7.5z"/><path d="m341.3 36.202v-3.404c0-4.143-3.357-7.5-7.5-7.5s-7.5 3.357-7.5 7.5v3.404c0 4.143 3.357 7.5 7.5 7.5s7.5-3.357 7.5-7.5z"/><path d="m419.1 36.202v-3.404c0-4.143-3.357-7.5-7.5-7.5s-7.5 3.357-7.5 7.5v3.404c0 4.143 3.357 7.5 7.5 7.5s7.5-3.357 7.5-7.5z"/></g></g></svg>