<svg id="Capa_1" enable-background="new 0 0 512 512" height="512" viewBox="0 0 512 512" width="512" xmlns="http://www.w3.org/2000/svg"><g><g><path d="m470.551 502v-53.844c0-31.217-20.03-58.911-49.678-68.685l-85.273-28.112-28.021-4.293c-9.882-3.258-16.559-12.489-16.559-22.895v-45.376h-70.044v45.376c0 10.406-6.677 19.637-16.559 22.895l-28.021 4.293-85.272 28.112c-29.647 9.774-49.678 37.468-49.678 68.685v53.844c0 5.523 4.477 10 10 10h409.104c5.524 0 10.001-4.477 10.001-10z" fill="#f58a97"/><g><path d="m420.874 379.471-85.272-28.112-28.021-4.293c-9.883-3.258-16.559-12.489-16.559-22.895v-45.376l-15 15v45.376c0 10.406 6.677 19.637 16.559 22.895l98.293 32.404c29.647 9.774 49.678 37.468 49.678 68.685v48.845h20c5.523 0 10-4.477 10-10v-53.844c-.001-31.217-20.031-58.911-49.678-68.685z" fill="#f07281"/></g><path d="m255.999 394.5c33.331 0 62.647-17.168 79.602-43.141l-28.021-4.292c-9.883-3.258-16.559-12.489-16.559-22.895v-45.376h-85.044v45.376c0 10.406-6.677 19.637-16.559 22.895l-13.021 4.292c16.955 25.973 46.271 43.141 79.602 43.141z" fill="#ffcebf"/><path d="m276.021 293.796v45.376c0 10.406 6.677 19.637 16.559 22.895l26.268 8.66c6.413-5.664 12.058-12.176 16.753-19.367l-13.021-4.292c-9.883-3.258-16.559-12.489-16.559-22.895v-45.376z" fill="#ffb09e"/><g><path d="m350.875 174.955h-189.958v-111.394c0-30.961 25.099-56.061 56.061-56.061h77.837c30.961 0 56.061 25.099 56.061 56.061v111.394z" fill="#e19974"/><path d="m294.814 7.5h-30c30.961 0 56.061 25.099 56.061 56.061v111.395h30v-111.395c0-30.962-25.1-56.061-56.061-56.061z" fill="#dc8758"/><path d="m350.875 127.182v93.401c0 52.583-42.914 80.165-95.699 79.774-52.37-.387-94.259-28.704-94.259-80.964v-92.211c15.989 2.292 43.905 4.086 76.12-5.87 18.551-5.733 33.305-13.748 44.108-20.88 2.73-1.802 6.342-1.463 8.689.815 5.434 5.274 13.378 11.684 24.115 16.861 15.174 7.316 28.948 8.808 36.926 9.074z" fill="#ffcebf"/><g><path d="m320.875 220.583c0 47.238-34.635 86.397-79.944 93.588 4.642.745 9.398 1.15 14.245 1.186 52.786.391 95.699-42.191 95.699-94.774v-93.401c-6.743-.225-17.629-1.326-30-6.08z" fill="#ffb09e"/></g><path d="m311.512 298.117-40.18 23.242c-9.547 5.522-21.326 5.522-30.873 0l-40.18-23.242c-24.364-14.093-39.362-40.068-39.362-68.17v-9.817c10.894-8.22 27.139-18.592 48.64-26.34 18.303-6.596 34.724-9.239 47.145-10.286 12.923 1.104 31.011 4.058 51.203 12.117 18.782 7.496 33.107 16.904 42.97 24.509v9.817c0 28.102-14.999 54.077-39.363 68.17z" fill="#eaf6ff"/><path d="m320.875 229.947c0 28.102-14.998 54.076-39.362 68.169l-40.18 23.242c-.143.083-.292.153-.436.233 9.469 5.276 21.033 5.206 30.436-.233l40.18-23.242c24.364-14.093 39.362-40.068 39.362-68.169 0-8.272 0-1.545 0-9.818-7.397-5.704-17.304-12.422-29.719-18.587-.183 7.394-.281 21.32-.281 28.405z" fill="#d8ecfe"/></g><path d="m360.496 181.342h-9.622v-54.166h9.622c14.957 0 27.083 12.125 27.083 27.083 0 14.957-12.125 27.083-27.083 27.083z" fill="#ffcebf"/><path d="m151.295 181.342h9.622v-54.166h-9.622c-14.957 0-27.083 12.125-27.083 27.083 0 14.957 12.126 27.083 27.083 27.083z" fill="#ffb09e"/></g><path d="m116.447 457.817c-4.142 0-7.5 3.357-7.5 7.5v39.183c0 4.143 3.358 7.5 7.5 7.5s7.5-3.357 7.5-7.5v-39.183c0-4.142-3.358-7.5-7.5-7.5zm192.052-283.489c4.143 0 7.5-3.357 7.5-7.5v-15.357c0-4.143-3.357-7.5-7.5-7.5s-7.5 3.357-7.5 7.5v15.357c0 4.143 3.357 7.5 7.5 7.5zm87.052 283.489c-4.143 0-7.5 3.357-7.5 7.5v39.183c0 4.143 3.357 7.5 7.5 7.5s7.5-3.357 7.5-7.5v-39.183c0-4.142-3.358-7.5-7.5-7.5zm-184.552-290.989v-15.357c0-4.143-3.358-7.5-7.5-7.5s-7.5 3.357-7.5 7.5v15.357c0 4.143 3.358 7.5 7.5 7.5s7.5-3.357 7.5-7.5zm267.05 298.451v-17.119c0-34.528-22.034-64.995-54.832-75.813l-21.445-7.068c-3.934-1.296-8.174.842-9.471 4.775s.842 8.174 4.775 9.471l21.443 7.067c26.635 8.786 44.529 33.528 44.529 61.568v56.34c0 4.143 3.357 7.5 7.5 7.5h.002c4.143 0 7.5-3.357 7.5-7.5v-39.183c.001-.013-.001-.025-.001-.038zm-119.674-235.332v-41.105c19.686.758 36.704-14.461 36.704-34.583 0-19.912-16.853-35.66-36.704-34.583v-56.115c0-35.048-28.514-63.561-63.562-63.561h-77.836c-35.047 0-63.561 28.513-63.561 63.561v56.115c-19.837-1.013-36.705 14.65-36.705 34.583 0 19.646 16.874 35.846 36.705 34.583v41.105c-.009 31.444 17.421 60.709 45.062 75.793v18.429c0 7.185-4.585 13.525-11.408 15.777l-98.292 32.4c-32.795 10.817-54.83 41.284-54.83 75.812v56.34c0 4.143 3.358 7.5 7.5 7.5s7.5-3.357 7.5-7.5v-56.34c0-28.04 17.895-52.782 44.528-61.567l79.961-26.358c19.312 26.256 49.755 41.767 82.562 41.767s63.25-15.511 82.561-41.765l25.155 8.292c3.835 1.269 8.159-.796 9.471-4.775 1.297-3.934-.841-8.174-4.775-9.471l-43.48-14.332c-6.825-2.253-11.411-8.594-11.411-15.778v-18.549c27.48-15.245 44.877-44.216 44.855-75.675zm0-95.271c11.434-1.184 21.704 8.071 21.704 19.583 0 11.26-10.188 20.861-21.704 19.583zm-204.958 39.166c-11.552 1.042-21.705-7.948-21.705-19.583 0-11.653 10.198-20.581 21.705-19.583zm15-38.212c11.545 1.107 23.164 1.126 34.647.048 4.124-.387 7.153-4.044 6.766-8.168-.387-4.123-4.035-7.146-8.168-6.766-11.016 1.035-22.17.955-33.245-.204v-56.979c0-26.776 21.784-48.561 48.561-48.561h77.836c26.777 0 48.562 21.784 48.562 48.561v55.497c-9.068-1.15-17.991-3.763-26.169-7.706-8.162-3.936-15.614-9.146-22.148-15.486-4.912-4.769-12.334-5.465-18.045-1.692-13.106 8.652-27.301 15.372-42.19 19.974-3.958 1.224-6.174 5.423-4.951 9.381s5.422 6.173 9.38 4.951c16.112-4.979 31.475-12.23 45.667-21.552 7.618 7.329 16.287 13.362 25.773 17.937 10.193 4.915 21.366 8.084 32.684 9.303v71.479c-10.307-6.718-21.246-12.423-32.689-16.99-15.493-6.183-37.661-14.051-54.613-12.624-16.761 1.411-33.267 5.013-49.059 10.703-13.556 4.886-26.487 11.269-38.597 19.039v-70.145zm155.015 219.618c-16.547 20.037-41.097 31.752-67.433 31.752s-50.886-11.715-67.433-31.752c14.236-4.039 24.997-15.741 24.913-31.078v-9.753l23.225 13.434c11.837 6.847 26.545 6.848 38.383 0l23.432-13.554v9.873c-.118 14.453 10.456 27.92 24.913 31.078zm-15.675-63.623-40.181 23.241c-7.205 4.168-16.156 4.168-23.361 0l-40.181-23.241c-21.97-12.709-35.618-36.343-35.618-61.678v-6.032c13.434-9.705 28.111-17.458 43.682-23.07 14.36-5.174 29.361-8.475 44.599-9.812 16.641 1.482 32.93 5.368 48.428 11.554 13.607 5.431 26.458 12.582 38.25 21.28v6.081c0 25.334-13.648 48.968-35.618 61.677z"/></g></svg>