<svg id="Capa_1" enable-background="new 0 0 512 512" height="512" viewBox="0 0 512 512" width="512" xmlns="http://www.w3.org/2000/svg"><g><g><path d="m467.075 315.546c1.952 2.911 1.952 6.72 0 9.631-45.626 68.022-122.194 111.748-210.247 111.748-4.587 0-9.145.92-13.672.681-82.38-4.366-154.368-47.95-197.617-112.428-1.952-2.911-1.952-6.72 0-9.631 43.166-64.355 114.951-107.904 197.14-112.413 4.684-.257 9.401.655 14.15.655 88.061-.001 164.62 43.734 210.246 111.757z" fill="#f6f6f6"/><path d="m468.116 325.173c-45.626 68.027-123.239 112.789-211.293 112.789-5.251 0-10.461-.156-15.629-.48 81.562-4.939 152.757-48.335 195.664-112.309 1.948-2.907 1.948-6.721 0-9.628-42.907-63.974-114.091-107.381-195.664-112.32 5.168-.323 10.378-.479 15.629-.479 88.064 0 165.667 44.771 211.293 112.799 1.948 2.908 1.948 6.721 0 9.628z" fill="#e1e1e1"/><path d="m378.073 321.533c0 49.573-28.47 91.232-70.88 110.422-13.935 2.805-28.29 5.501-42.947 5.91-2.399.067-4.806.101-7.221.101-17.419 0-34.428-1.758-50.868-5.102-42.252-19.269-71.617-61.877-71.617-111.332 0-53.591 34.481-99.133 82.455-115.653 12.434-1.965 25.156-3.03 38.121-3.125.636-.005 1.273-.007 1.911-.007 13.375 0 26.511 2.072 39.331 4.068 48.131 16.442 81.715 61.022 81.715 114.718z" fill="#8aaadc"/><path d="m310.019 320.357c0 29.952-23.239 53.192-53.192 53.192-5.426 0-10.666.245-15.609-1.238-22.344-6.703-38.625-27.427-38.625-51.954 0-24.517 16.269-45.235 38.6-51.946 4.95-1.488 10.199-1.245 15.634-1.245 29.952-.001 53.192 23.239 53.192 53.191z" fill="#7a6d79"/><path d="m311.066 320.36c0 29.945-24.287 54.232-54.243 54.232-5.439 0-10.68-.802-15.629-2.292 22.339-6.71 38.614-27.424 38.614-51.94s-16.275-45.241-38.614-51.94c4.949-1.49 10.19-2.292 15.629-2.292 29.955-.001 54.243 24.276 54.243 54.232z" fill="#685e68"/><path d="m379.114 321.537c0 49.565-29.507 92.273-71.924 111.455-14.16 2.855-28.747 4.511-43.657 4.887 48.939-15.973 84.303-61.984 84.303-116.269 0-57.619-39.854-105.922-93.503-118.853.896-.01 1.792-.01 2.688-.01 13.379 0 26.517 1.031 39.333 3.032 48.137 16.431 82.76 62.057 82.76 115.758z" fill="#7398d4"/></g><g><path d="m256.692 157.467c.046.001.092.001.138.001 4.079 0 7.423-3.27 7.496-7.365l1.36-75.935c.074-4.142-3.224-7.56-7.364-7.634-.047-.001-.092-.001-.138-.001-4.079 0-7.423 3.271-7.496 7.365l-1.36 75.935c-.074 4.141 3.224 7.559 7.364 7.634z"/><path d="m177.484 162.734c1.042 3.152 3.973 5.149 7.121 5.149.779 0 1.572-.122 2.354-.38 3.933-1.3 6.068-5.541 4.77-9.475l-20.987-63.543c-1.301-3.934-5.538-6.071-9.475-4.77-3.933 1.3-6.068 5.541-4.77 9.475z"/><path d="m111.144 195.509c1.424 2.271 3.864 3.515 6.359 3.515 1.362 0 2.741-.371 3.979-1.148 3.509-2.202 4.568-6.831 2.366-10.339l-37.566-59.859c-2.202-3.511-6.833-4.567-10.339-2.366-3.509 2.202-4.568 6.831-2.366 10.339z"/><path d="m54.572 257.656c1.782 0 3.572-.633 5.005-1.917 3.083-2.766 3.341-7.507.575-10.591l-47.069-52.482c-2.766-3.083-7.505-3.343-10.591-.575-3.083 2.766-3.341 7.507-.575 10.591l47.069 52.482c1.481 1.651 3.528 2.492 5.586 2.492z"/><path d="m324.933 166.97c.88.336 1.784.495 2.674.495 3.02 0 5.866-1.837 7.008-4.827l23.945-62.716c1.478-3.869-.462-8.204-4.332-9.682-3.867-1.478-8.204.461-9.682 4.332l-23.945 62.716c-1.477 3.869.462 8.204 4.332 9.682z"/><path d="m389.174 195.937c1.302.898 2.787 1.33 4.257 1.33 2.381 0 4.722-1.131 6.178-3.237l40.185-58.16c2.355-3.408 1.5-8.079-1.907-10.435-3.411-2.354-8.08-1.5-10.435 1.907l-40.185 58.16c-2.355 3.409-1.501 8.08 1.907 10.435z"/><path d="m504.5 188.389c-2.167 0-4.119.921-5.488 2.392l-48.618 49.892c-2.892 2.967-2.83 7.715.137 10.605 1.458 1.421 3.347 2.129 5.233 2.129 1.952 0 3.902-.758 5.372-2.266l48.735-50.012c1.365-1.4 2.129-3.291 2.129-5.246 0-4.143-3.358-7.494-7.5-7.494z"/><path d="m422.873 254.655c-3.199-2.628-7.926-2.168-10.556 1.034-2.63 3.2-2.167 7.926 1.034 10.556 18.723 15.384 35.054 33.376 48.536 53.478.257.382.257.896.001 1.276-28.006 41.752-67.395 73.255-112.538 91.504 23.419-23.877 37.264-56.392 37.264-90.969 0-36.774-15.479-70.842-41.187-94.876 14.067 5.408 27.658 12.11 40.588 20.073 3.525 2.175 8.146 1.075 10.318-2.453 2.173-3.526 1.074-8.146-2.453-10.318-41.124-25.327-88.517-38.714-137.054-38.714-87.433 0-168.747 43.41-217.518 116.121-3.665 5.464-3.665 12.524 0 17.987 9.658 14.4 20.807 27.907 33.137 40.146 1.463 1.451 3.373 2.177 5.283 2.177 1.929 0 3.856-.739 5.323-2.217 2.918-2.94 2.9-7.689-.04-10.607-11.626-11.54-22.139-24.276-31.246-37.855-.256-.381-.256-.892 0-1.274 28.822-42.971 69.699-75.084 116.493-93.069-25.719 24.042-41.22 58.119-41.22 94.88 0 34.625 13.907 67.221 37.419 91.125-19.909-8.05-38.816-18.766-56.345-32.026-3.302-2.498-8.007-1.847-10.506 1.457-2.499 3.303-1.847 8.007 1.457 10.506 45.725 34.589 100.277 52.871 157.762 52.871 87.436 0 168.751-43.406 217.52-116.113 3.663-5.463 3.663-12.521-.001-17.985-14.298-21.321-31.616-40.401-51.471-56.715zm-214.052 171.172c-40.583-18.72-66.781-59.597-66.781-104.293 0-48.81 30.876-92.285 76.88-108.373 12.434-1.926 25.101-2.915 37.907-2.915 12.748 0 25.411.982 37.886 2.911 46.029 16.092 76.902 59.532 76.902 108.377 0 44.666-26.114 85.446-66.603 104.198-15.706 3.118-31.831 4.735-48.185 4.735-16.304 0-32.354-1.572-48.006-4.64z"/><path d="m309.1 353.212c6.189-9.828 9.46-21.189 9.46-32.854 0-34.04-27.693-61.733-61.733-61.733s-61.733 27.693-61.733 61.733 27.693 61.733 61.733 61.733c7.326 0 14.499-1.272 21.319-3.781 3.887-1.431 5.879-5.741 4.449-9.629-1.43-3.886-5.736-5.876-9.629-4.449-5.156 1.898-10.587 2.859-16.14 2.859-25.769 0-46.733-20.965-46.733-46.733s20.965-46.733 46.733-46.733c25.769 0 46.733 20.965 46.733 46.733 0 8.833-2.474 17.431-7.153 24.862-2.207 3.505-1.155 8.136 2.351 10.343 3.505 2.206 8.136 1.156 10.343-2.351z"/></g></g></svg>