<svg id="Capa_1" enable-background="new 0 0 512 512" height="512" viewBox="0 0 512 512" width="512" xmlns="http://www.w3.org/2000/svg"><g><g><path d="m336.694 369.955h-161.595c-28.104 0-50.886-22.782-50.886-50.886v-179.886c0-72.726 58.957-131.683 131.683-131.683 72.727 0 131.683 58.957 131.683 131.683v179.886c.001 28.104-22.781 50.886-50.885 50.886z" fill="#e19974"/><path d="m255.897 7.5c-5.073 0-10.076.297-15 .855 65.662 7.447 116.683 63.175 116.683 130.828v179.886c0 28.104-22.782 50.886-50.886 50.886h30c28.104 0 50.886-22.783 50.886-50.886v-179.886c0-72.726-58.957-131.683-131.683-131.683z" fill="#dc8758"/><g><path d="m470.552 502v-53.844c0-31.217-20.03-58.911-49.678-68.685l-85.273-28.112-28.021-4.293c-9.882-3.258-16.559-12.489-16.559-22.895v-45.376h-70.044v45.376c0 10.406-6.677 19.637-16.559 22.895l-28.021 4.293-85.272 28.112c-29.647 9.774-49.678 37.468-49.678 68.685v53.844c0 5.523 4.477 10 10 10h409.104c5.524 0 10.001-4.477 10.001-10z" fill="#aee69c"/><g><path d="m420.875 379.471-85.272-28.112-28.021-4.293c-9.883-3.258-16.559-12.489-16.559-22.895v-45.376l-15 15v45.376c0 10.406 6.677 19.637 16.559 22.895l98.293 32.404c29.647 9.774 49.678 37.468 49.678 68.685v48.845h20c5.523 0 10-4.477 10-10v-53.844c-.001-31.217-20.031-58.911-49.678-68.685z" fill="#89daa4"/></g><path d="m256 394.5c33.331 0 62.647-17.168 79.602-43.141l-28.021-4.292c-9.883-3.258-16.559-12.489-16.559-22.895v-45.376h-85.044v45.376c0 10.406-6.677 19.637-16.559 22.895l-13.021 4.292c16.955 25.973 46.271 43.141 79.602 43.141z" fill="#ffcebf"/><path d="m276.022 293.796v45.376c0 10.406 6.677 19.637 16.559 22.895l26.268 8.66c6.413-5.664 12.058-12.176 16.753-19.367l-13.021-4.292c-9.883-3.258-16.559-12.489-16.559-22.895v-45.376z" fill="#ffb09e"/><g><path d="m151.296 181.5h24.622v-54.166h-24.622c-14.957 0-27.083 12.125-27.083 27.083 0 14.958 12.126 27.083 27.083 27.083z" fill="#ffb09e"/><path d="m347.183 126.985c2.087.154 3.693 1.894 3.693 3.986v89.612c0 52.583-42.914 80.165-95.699 79.774-52.37-.387-94.259-28.704-94.259-80.964v-87.657c0-2.399 2.091-4.251 4.473-3.971 16.442 1.933 42.255 2.63 71.647-6.453 18.558-5.735 33.315-13.754 44.119-20.888 2.723-1.798 6.327-1.46 8.668.813 5.435 5.276 13.381 11.69 24.125 16.871 13.042 6.288 25.051 8.274 33.233 8.877z" fill="#ffcebf"/><path d="m360.497 181.5h-24.622v-54.166h24.622c14.957 0 27.083 12.125 27.083 27.083 0 14.958-12.125 27.083-27.083 27.083z" fill="#ffcebf"/><g><path d="m320.876 220.583c0 47.238-34.635 86.397-79.944 93.588 4.642.745 9.398 1.15 14.245 1.186 52.786.391 95.699-42.191 95.699-94.774v-89.612c0-2.092-1.606-3.833-3.693-3.986-6.689-.493-15.936-1.91-26.214-5.847z" fill="#ffb09e"/></g><path d="m311.513 298.117-40.18 23.242c-9.547 5.522-21.326 5.522-30.873 0l-40.18-23.242c-24.364-14.093-39.362-40.068-39.362-68.17v-9.817c10.894-8.22 27.139-18.592 48.64-26.34 18.303-6.596 34.724-9.239 47.145-10.286 12.923 1.104 31.011 4.058 51.203 12.117 18.782 7.496 33.107 16.904 42.97 24.509v9.817c0 28.102-14.999 54.077-39.363 68.17z" fill="#eaf6ff"/><path d="m320.875 229.947c0 28.102-14.998 54.076-39.362 68.169l-40.18 23.242c-.143.083-.292.153-.436.233 9.469 5.276 21.033 5.206 30.436-.233l40.18-23.242c24.364-14.093 39.362-40.068 39.362-68.169 0-8.272 0-1.545 0-9.818-7.397-5.704-17.304-12.422-29.719-18.587-.188 7.394-.281 21.32-.281 28.405z" fill="#d8ecfe"/></g></g></g><path d="m395.552 457.817c-4.143 0-7.5 3.357-7.5 7.5v39.183c0 4.143 3.357 7.5 7.5 7.5s7.5-3.357 7.5-7.5v-39.183c0-4.142-3.358-7.5-7.5-7.5zm-279.104 0c-4.143 0-7.5 3.357-7.5 7.5v39.183c0 4.143 3.357 7.5 7.5 7.5s7.5-3.357 7.5-7.5v-39.183c0-4.142-3.357-7.5-7.5-7.5zm192.052-283.489c4.143 0 7.5-3.357 7.5-7.5v-15.357c0-4.143-3.357-7.5-7.5-7.5s-7.5 3.357-7.5 7.5v15.357c0 4.143 3.357 7.5 7.5 7.5zm-105 0c4.143 0 7.5-3.357 7.5-7.5v-15.357c0-4.143-3.357-7.5-7.5-7.5s-7.5 3.357-7.5 7.5v15.357c0 4.143 3.357 7.5 7.5 7.5zm219.718 198.019-43.131-14.217c9.547-10.609 14.993-24.466 14.993-39.059v-179.891c0-37.174-14.478-72.124-40.767-98.413s-61.239-40.767-98.413-40.767c-27.541 0-54.171 8.032-77.011 23.228-3.448 2.294-4.385 6.95-2.09 10.398 2.294 3.449 6.949 4.384 10.398 2.09 20.371-13.553 44.128-20.716 68.703-20.716 33.167 0 64.351 12.918 87.806 36.374 20.183 20.182 32.555 46.089 35.617 74.056-7.664-5.691-30.824-5.868-31.589-5.925-10.666-.786-20.936-3.528-30.525-8.153-8.168-3.938-15.624-9.152-22.158-15.495-4.829-4.688-12.408-5.399-18.025-1.69-13.109 8.655-27.308 15.378-42.2 19.98-22.136 6.84-45.201 8.915-68.558 6.171-11.001-1.293-24.624-.939-33.792 5.109 2.796-25.141 13.211-48.923 30.026-68.094 2.731-3.113 2.421-7.853-.693-10.584-3.114-2.729-7.853-2.421-10.584.693-22.257 25.374-34.514 57.954-34.514 91.737v179.891c0 14.618 5.467 28.494 15.048 39.11l-42.979 14.168c-32.796 10.817-54.83 41.284-54.83 75.812v56.34c0 4.143 3.357 7.5 7.5 7.5s7.5-3.357 7.5-7.5v-56.34c0-28.04 17.895-52.782 44.527-61.567l79.962-26.358c7.574 10.259 17.114 19.166 27.864 25.962 3.466 2.191 8.111 1.207 10.348-2.332 2.213-3.501 1.169-8.134-2.332-10.347-7.79-4.925-14.827-11.152-20.735-18.276l3.187-1.05c12.985-4.285 21.71-16.351 21.71-30.022v-9.753l23.224 13.434c5.92 3.424 12.555 5.136 19.192 5.136 6.636 0 13.273-1.712 19.191-5.136l23.432-13.554v9.873c0 13.672 8.725 25.737 21.713 30.023l3.2 1.055c-16.547 20.037-41.097 31.752-67.433 31.752-5.648 0-11.297-.541-16.787-1.607-4.074-.789-8.003 1.866-8.793 5.932s1.866 8.003 5.932 8.793c6.431 1.248 13.042 1.882 19.648 1.882 32.807 0 63.25-15.511 82.561-41.765l79.96 26.357c26.635 8.786 44.529 33.528 44.529 61.568v56.34c0 4.143 3.357 7.5 7.5 7.5s7.5-3.357 7.5-7.5v-56.34c0-34.528-22.034-64.995-54.832-75.813zm-254.8-236.715c24.114 2.328 47.922-.074 70.835-7.153 16.111-4.979 31.474-12.229 45.667-21.552 7.616 7.328 16.285 13.361 25.772 17.937 10.315 4.974 21.296 8.1 32.684 9.309v71.473c-10.307-6.718-21.246-12.423-32.689-16.99-16.424-6.555-36.073-12.509-53.922-12.651-16.253-.129-34.622 5.278-49.75 10.73-13.556 4.886-26.487 11.269-38.597 19.039zm-15.001-.798v39.166c-11.543 1.076-21.705-7.974-21.705-19.583.001-11.646 10.203-20.585 21.705-19.583zm45.063 189.336c0 7.185-4.586 13.525-11.408 15.777l-39.165 12.91c-10.195-8.218-16.198-20.594-16.198-33.787v-136.172c6.487 4.529 13.538 6.287 21.708 6.102v30.394c0 .13.013.257.02.386-.005.117-.021.233-.021.35v9.817c-.009 31.444 17.421 60.708 45.063 75.793v18.43zm69.097-9.304c-7.205 4.168-16.155 4.168-23.362 0l-40.179-23.241c-21.971-12.709-35.619-36.343-35.619-61.678v-6.032c13.435-9.705 28.112-17.458 43.684-23.07 14.358-5.174 29.359-8.475 44.598-9.812 16.641 1.482 32.93 5.368 48.428 11.554 13.607 5.431 26.458 12.582 38.25 21.28v6.081c0 25.335-13.648 48.969-35.619 61.678h.001zm112.503 4.204c0 13.168-5.977 25.525-16.129 33.74l-39.02-12.862c-6.825-2.253-11.411-8.594-11.411-15.778v-18.549c27.477-15.243 44.88-44.216 44.856-75.673v-40.948c7.753.272 15.648-1.847 21.704-6.1zm-21.704-145.07v-39.166c11.428-1.184 21.704 8.071 21.704 19.583 0 11.26-10.19 20.862-21.704 19.583z"/></g></svg>