<svg id="Capa_1" enable-background="new 0 0 505.986 505.986" height="512" viewBox="0 0 505.986 505.986" width="512" xmlns="http://www.w3.org/2000/svg"><g><g><path d="m146.949 111.005c-7.493-20.572-33.756-31.327-62.106-26.825s-41.089 8.914-49.687 62.338 47.25 88.25 47.25 88.25l8.967-1.152 1.783-7.098-1.396-3.803c-11.806-6.077-23.202-15.408-28.386-29.64-12.954-35.563 5.887-61.715 24.921-68.648 15.093-5.498 39.358 2.431 45.065 21.439 1.554 5.178 8.65 5.725 10.946.831 4.449-9.488 7.551-22.216 2.643-35.692z" fill="#e39b74"/><g><path d="m75.471 88.685c3.087-1.716 6.22-3.202 9.371-4.505-9.615 1.527-19.469 4.802-28.915 10.053-39.38 21.893-69.043 120.88 29.872 150.288l3.272-1.753 2.21-8.797c-81.802-34.26-53.193-124.503-15.81-145.286z" fill="#dd8858"/></g><path d="m167.322 318.352-76 74v69l32.076 37.135h4.476 37.993c5.5 0 9.469-5.357 7.775-10.589-3.73-11.522-13.294-17.295-20.442-20.083-6.503-2.537-11.41-8.097-13.168-14.853-5.154-19.803-1.51-39.757 1.549-51 1.516-5.573 5.14-10.315 10.09-13.291 29.918-17.991 46.172-39.604 54.343-53.851v-6.133z" fill="#e39b74"/><path d="m153.642 487.436c-3.73-12.023-13.294-18.047-20.442-20.956-6.503-2.647-11.41-8.45-13.168-15.499-5.154-20.665-1.51-41.486 1.549-53.218 1.516-5.815 5.14-10.763 10.09-13.869 29.918-18.774 46.172-41.327 54.343-56.193v-4.357l-18.691-4.992-76 74v69l32.076 37.135h4.476 17.993c5.499-.001 9.468-5.591 7.774-11.051z" fill="#dd8858"/><path d="m443.34 483.127c-5.013-12.15-15.452-18.45-22.37-21.422-3.083-1.325-5.796-3.291-8.017-5.717l-19.729-108.715c-.31-3.208-.654-6.412-1.059-9.611l-5.231-41.249-2.194-2.477-4.917 1.167-27.395 45.84v52.077l19.478 73 29.382 16-4.257 13.313 2.166 3.043c.686.066 1.378.112 2.078.112h31.837c7.911-.002 13.245-8.047 10.228-15.361z" fill="#e39b74"/><path d="m405.422 461.705c-3.083-1.325-5.796-3.291-8.017-5.717l-19.729-108.715c-.31-3.208-.654-6.412-1.059-9.611l-3.891-30.684-20.298 33.965v52.077l19.478 73 29.382 16-4.257 13.313 2.166 3.043c.686.066 1.378.112 2.078.112h16.291c7.911-.001 13.244-8.045 10.227-15.359-5.013-12.153-15.452-18.452-22.371-21.424z" fill="#dd8858"/><path d="m474.924 104.684c-23.911-1.748-32.813-9.683-47.416-27.12-10.885-12.996-27.568-16.172-37.923-16.805l-1.762 4.592-24.695 17.54v54.754l-7.721 7.873-18.423 36.325c15.396 10.235 38.261 21.423 66.673 23.508l2.553-2.706c1.325-9.23 1.882-14.915 1.882-14.915 12-31.667 47.333-23 55.333-23 5 0 7.786-4.427 9.173-7.747.909-2.177 2.375-4.088 4.224-5.552 9.064-7.18 10.77-22.236 10.666-33.251-.068-7.08-5.503-12.98-12.564-13.496z" fill="#eaae8e"/><path d="m365.655 133.056 2.582-53.794-27.582 19.59-4.82-.819c-7.328 15.344-11.22 34.106-20.833 56.656v9.163s9.46 10.376 26.35 20.794c17.317-25.668 24.303-51.59 24.303-51.59z" fill="#e39b74"/><path d="m399.155 227.852-68.507-33.52-1.743 3.437-55.374 31.502-.876 20.082 64 18.431 51.333 1.569 4.976-3.471c3.335-11.624 6.017-23.166 8.141-33.67z" fill="#eaae8e"/><path d="m302.822 180.717h-4.02c-6.07 5.562-13.156 8.903-21.117 10.72l-2.697 4.415-1.637 37.524c1.106-.206 2.209-.426 3.309-.664 24.408-5.29 42.928-20.298 56.585-37.109z" fill="#e39b74"/><path d="m142.655 229.768-24.75 30.346-45.25 140.083v70.488l28.75 20.208 8.133 7.593h13.86c5.5 0 9.469-5.357 7.775-10.589-3.73-11.522-13.294-17.295-20.442-20.083-6.503-2.537-11.41-8.097-13.168-14.853-5.154-19.803-1.51-39.757 1.549-51 1.516-5.573 5.14-10.315 10.09-13.291 32.432-19.503 48.815-43.27 56.241-57.286 3.215-6.069 10.655-8.467 16.838-5.477 22.334 10.801 51.39 16.035 76.271 18.54l3.984-3.505-7.503-111.173h-112.378z" fill="#eaae8e"/><path d="m255.416 235.451-2.594-38.433-3.868-4.184c-26.084-1.862-57.464-9.437-91.53-9.437-70 0-78 62.667-70.667 102.667 5.774 31.494-12.836 65.881-21.012 79.082-2.433 3.928-3.959 8.342-4.465 12.935l-6.063 55.031c-1.178 10.696.267 21.518 4.21 31.53l9.318 23.659c2.42 6.145 8.353 10.185 14.958 10.185h25.835c-.89-9.358-10.226-18.24-16.413-23.16-4.383-3.486-7.8-8.064-9.681-13.339-7.354-20.621-5.554-46.185-2.966-63.228 1.607-10.583 6.511-20.382 14.018-28.013 22.205-22.574 18.948-41.653 28.66-101.395 9.834-60.496 72.023-30.676 132.26-33.9z" fill="#e39b74"/><path d="m407.87 483.125c-4.972-12.051-15.282-18.345-22.201-21.347-5.519-2.394-10.015-6.694-12.384-12.224-11.036-25.752-14.056-73.969-14.883-98.43-.295-8.733 2.399-17.283 7.568-24.329 6.262-8.537 11.664-18.863 16.31-29.986l-4.457-5.291-105.167-15.667 9.167 67.333 3.967 3.141c5.4.21 10.173.303 14.073.333 6.467.05 11.913 4.811 12.83 11.213 6.931 48.395 24.15 101.384 32.853 126.237 3.016 8.612 11.136 14.377 20.26 14.377h31.837c7.912.001 13.245-8.045 10.227-15.36z" fill="#eaae8e"/><path d="m298.288 161.025-.966 2.951s27.333 28.542 60 41.375 51.404 15.667 51.404 15.667l4.133-2.797.681-7.556c.347-3.845-2.377-7.29-6.198-7.838-45.948-6.586-80.028-36.1-91.955-47.797-2.698-2.645-6.972-2.766-9.83-.294z" fill="#ffc365"/><path d="m409.252 218.644c-56.377-7.744-96.565-43.122-110.521-57.124-.158-.159-.303-.325-.443-.494l-4.485 3.88c-3.184 2.755-3.378 7.632-.406 10.614 13.956 14.003 54.144 49.38 110.521 57.124 4.108.564 7.859-2.425 8.231-6.554l.709-7.868c-1.109.43-2.34.595-3.606.422z" fill="#ffa90f"/><path d="m269.371 185.999-2.414.008-2.469 2.428s-3.326 17.448-4.724 46.333h13.527l3.37-2.056c.269-15.531 1.094-28.629 1.751-36.973.415-5.267-3.757-9.757-9.041-9.74z" fill="#8479c2"/><path d="m262.335 234.768c.818-20.124 2.915-37.383 4.623-48.761l-9.283.031c-4.669.015-8.56 3.577-8.973 8.228-.727 8.181-1.716 21.825-2.058 38.447l2.178 2.056h13.513z" fill="#6e60b8"/><path d="m287.833 337.516c-4.746-15.289-7.625-32.636-9.283-49.999l-3.02-2.749-14.802.221c4.054 33.614 14.552 61.154 14.552 61.154l3.049 3.102c.448-.022.912-.042 1.349-.065 5.866-.314 9.897-6.055 8.155-11.664z" fill="#8479c2"/><path d="m266.72 349.567c3.971-.006 7.966-.142 11.61-.322-8.319-20.122-12.763-42.451-14.833-64.297l-13.091.195-2.078 2.374c1.659 18.704 4.645 37.89 9.699 55.543 1.107 3.866 4.671 6.513 8.693 6.507z" fill="#6e60b8"/><path d="m399.715 265.193c-54.599 6.567-105.102-11.677-123.135-19.279l-3.925 3.437.993 13.451c21.582 8.671 54.633 18.401 94.307 18.401 11.028 0 20.55-.441 32.14-2.122 1.239-.18 2.336-.798 3.141-1.693l1.688-6.111c.912-3.301-1.808-6.493-5.209-6.084z" fill="#6e60b8"/><path d="m400.096 278.082c-11.591 1.681-21.112 2.122-32.14 2.122-39.72 0-72.802-9.753-94.383-18.432l.916 12.412 3.42 5.859c19.851 8.073 50.661 17.306 87.747 17.306 10.156 0 18.925-.406 29.599-1.954 1.901-.276 3.466-1.651 3.977-3.502l4.426-16.027c-.819 1.179-2.094 2.003-3.562 2.216z" fill="#6353b2"/><path d="m259.868 232.712c-.431 8.213-.713 17.388-.713 27.402 0 9.333.736 18.598 1.891 27.402h17.504c-1.831-19.169-2.173-38.353-1.889-54.805h-16.793z" fill="#dbedff"/><path d="m263.751 287.517c-1.978-19.161-2.092-38.032-1.331-54.805h-15.776c-.334 16.206-.052 35.242 1.683 54.805z" fill="#b5dcff"/><path d="m376.988 55.28s-7.333 1.471-10.958 5.48-10.625 24.634-10.625 24.634l21.583 47.662 7.78 4.59c6.391-18.644 7.331-51.455 7.331-69.122 0-7.494-6.184-13.488-13.676-13.305-.483.011-.959.037-1.435.061z" fill="#e39b74"/><path d="m362.241 97.325c-6.071-15.081-.588-32.487 13.194-41.109.508-.318 1.027-.629 1.554-.936-10.46.527-19.139 3.943-26.054 8.269-13.782 8.623-19.265 26.029-13.194 41.109 8.301 20.621 22.421 49.224 36.107 46.756 4.765-.859 8.3-6.126 10.92-13.769-8.861-9.266-16.99-26.563-22.527-40.32z" fill="#dd8858"/></g><g><path d="m475.218 97.204c-21.153-1.546-28.378-7.935-42.214-24.455-11.733-14.01-29.04-18.098-40.056-19.218-4.042-3.881-9.364-5.926-14.959-5.811h-.001c-28.631.7-53.713 20.359-50.166 49.248-6.322 14.037-10.102 29.951-17.42 48.531-3.559-.082-7.15 1.095-10.006 3.565l-11.753 10.169c-3.09 2.674-4.948 6.549-5.099 10.631-.135 3.652 1.117 7.231 3.447 10.012-2.072 1.17-4.297 2.157-6.691 2.964-3.034-2.768-7.019-4.342-11.155-4.342-.017 0-.034 0-.052 0l-1.632.005-150.593-175.881c-2.694-3.146-7.428-3.513-10.575-.819-3.146 2.694-3.513 7.429-.819 10.575l144.011 168.195c-1.996 1.09-3.742 2.573-5.126 4.366-8.378-.795-17.354-2.082-26.776-3.44-18.218-2.626-38.867-5.602-60.411-5.602-29.756 0-54.625 10.689-68.875 36.278-8.953-5.915-15.037-13.179-18.128-21.667-10.607-29.119 2.89-52.642 20.441-59.034 11.932-4.346 31.096 2.494 35.313 16.55 3.529 11.748 19.702 12.985 24.92 1.858 14.768-31.489 1.235-64.42-37.063-72.523-4.053-.852-8.033 1.733-8.891 5.785-.857 4.053 1.733 8.033 5.785 8.891 26.306 5.565 36.621 25.545 28.176 47.743-8.673-19.938-34.862-29.141-53.374-22.397-25.199 9.178-42.921 41.149-29.401 78.262 4.486 12.316 13.264 22.533 26.137 30.444-.957 2.873-1.765 5.762-2.431 8.644-39.781-14.451-50.925-40.372-53.095-60.167-3.438-31.367 14.098-63.472 32.634-73.776 6.264-3.482 12.903-6.116 19.732-7.83 4.018-1.008 6.457-5.082 5.449-9.1s-5.085-6.462-9.1-5.449c-8.099 2.031-15.962 5.15-23.371 9.27-45.189 25.121-72.02 128.817 25.374 162.11-1.515 16.614.535 31.15 1.723 37.628 5.295 28.881-12.23 61.218-20.011 73.78-3.002 4.847-4.919 10.401-5.544 16.063l-6.063 55.031c-1.306 11.861.314 23.999 4.687 35.1l9.318 23.659c3.573 9.073 12.184 14.937 21.936 14.937h82.164c4.997 0 9.737-2.416 12.681-6.462 2.965-4.077 3.778-9.157 2.23-13.938-4.615-14.252-16.063-21.331-24.853-24.76-4.249-1.657-7.478-5.304-8.636-9.756-4.806-18.465-1.105-37.461 1.528-47.143 1.005-3.694 3.391-6.831 6.718-8.831 27.771-16.7 44.391-36.434 53.947-51.521 13.247 3.488 28.253 6.147 44.903 7.962 3.072 3.42 7.518 5.528 12.321 5.528h.017c4.046-.006 8.537-.14 13.356-.397 3.013-.162 5.84-1.135 8.265-2.75 3.895.129 7.739.211 11.459.24 2.771.021 5.069 2.029 5.463 4.776 6.927 48.368 23.773 100.739 33.199 127.651 4.063 11.603 15.049 19.398 27.338 19.398 74.955-.075-7.037-.075 67.307 0 13.243 0 22.212-13.473 17.162-25.72-6.168-14.949-19.152-22.363-26.344-25.452-3.772-1.621-6.728-4.57-8.321-8.306-4.013-9.405-7.307-23.128-9.79-40.788-.576-4.102-4.374-6.96-8.471-6.383-4.103.576-6.96 4.369-6.383 8.471 2.667 18.967 6.316 33.969 10.847 44.587 3.114 7.298 8.867 13.051 16.198 16.201 6.222 2.673 14.465 7.859 18.396 17.391.969 2.347-.687 4.999-3.295 4.999h-17.233c.678-3.42.359-7.245-1.074-10.722h-.001c-5.824-14.116-17.435-21.586-26.148-25.366-3.897-1.691-6.907-4.638-8.476-8.298-10.824-25.255-13.593-75.359-14.28-95.73-.236-6.964 1.937-13.938 6.119-19.639 3.566-4.863 6.955-10.454 9.771-15.765l2.935 23.138c1.004 7.916 1.721 16.008 2.129 24.054.164 3.218.354 6.448.563 9.602.272 4.135 3.878 7.273 7.979 6.988 4.134-.273 7.262-3.846 6.988-7.979-.203-3.079-.389-6.234-.549-9.374-.428-8.419-1.177-16.89-2.229-25.178l-4.281-33.757c.335-.047.669-.093 1.007-.141 4.853-.703 8.829-4.209 10.131-8.929l5.693-20.615c1.867-6.764-2.274-13.807-9.264-15.32 1.494-5.778 2.91-11.767 4.238-17.926 6.914-1.061 11.897-6.671 12.491-13.267l1.39-15.424c.502-5.571-2.171-10.712-6.553-13.619.517-3.942.836-6.769.989-8.199 7.525-18.506 24.917-19.454 42.621-17.68 2.181.218 3.903.391 5.357.391 6.947 0 12.813-4.504 16.094-12.357.412-.988 1.09-1.874 1.961-2.563 11.387-9.021 13.631-26.297 13.509-39.201-.103-10.93-8.675-20.112-19.515-20.904zm-96.863-34.488c3.257-.099 5.992 2.524 5.992 5.808 0 13.092-.504 32.15-2.902 48.597-3.621 24.826-9.127 26.904-9.181 26.914-2.805.519-13.286-6.077-27.818-42.177-8.509-21.149 10.001-38.558 33.909-39.142zm-68.307 97.832c25.409 24.862 59.969 44.482 95.748 49.671l-1.348 14.962c-40.006-5.552-78.317-27.274-105.803-54.767zm76.864 98.217c-34.168 1.966-71.258-5.273-103.084-17.89.064-15.216.677-29.887 1.75-43.787.004-.062.009-.123.014-.184 4.63-1.6 8.831-3.712 12.663-6.368 18.337 15.995 50.932 39.101 93.662 47.72-1.556 7.106-3.229 13.968-5.005 20.509zm-130.992-63.837c.07-.79.726-1.388 1.527-1.391l11.694-.039h.006c.954 0 1.587.81 1.534 1.626 0 .009.002.017.001.026-.744 9.491-1.303 19.659-1.609 30.061h-14.949c.347-10.092.902-20.224 1.796-30.283zm-2.097 45.284h14.992c-.059 12.434.275 26.02 1.309 39.806h-15.089c-1.006-14.007-1.301-27.593-1.212-39.806zm-106.27 142.03c-6.656 4.003-11.438 10.307-13.462 17.75-3.024 11.119-7.251 33.031-1.57 54.857 2.366 9.093 8.983 16.552 17.701 19.952 5.767 2.249 13.229 6.748 16.033 15.406.117.369-.207.778-.641.778h-26.801c.065-1.741-.238-3.793-.758-5.399-4.615-14.252-16.062-21.331-24.853-24.76-4.248-1.657-7.477-5.305-8.636-9.755-4.806-18.467-1.105-37.463 1.528-47.142 1.005-3.696 3.391-6.833 6.718-8.833 34.615-20.816 51.825-46.654 59.003-60.202 1.333-2.513 4.394-3.47 6.946-2.236 4.765 2.304 9.944 4.427 15.512 6.374-8.903 13.076-23.496 29.244-46.72 43.21zm37.74-63.087c-9.869-4.773-21.613-.943-26.73 8.718-6.449 12.173-21.973 35.423-53.479 54.369-6.655 4.002-11.436 10.306-13.462 17.75-3.024 11.118-7.25 33.029-1.569 54.858 2.367 9.092 8.983 16.551 17.7 19.951 5.767 2.249 13.229 6.748 16.033 15.406.118.372-.209.778-.641.778h-39.695c-3.547 0-6.679-2.133-7.979-5.433l-9.318-23.659c-3.483-8.844-4.774-18.513-3.733-27.961l6.063-55.03c.381-3.455 1.552-6.847 3.386-9.808 8.696-14.04 28.249-50.369 22.013-84.384-4.503-24.568-2.457-54.842 13.423-73.896 11.014-13.217 27.791-19.918 49.867-19.918 20.469 0 39.687 2.77 58.271 5.448 8.709 1.255 17.055 2.458 25.036 3.288-3.32 42.9-2.492 94.067 7.608 136.093-20.352-2.633-44.002-7.48-62.794-16.57zm81.163 22.912h-.003c-1.34 0-1.509-1.218-1.664-1.766-4.061-14.379-6.723-29.879-8.407-45.284h15.153c1.686 14.718 4.452 30.46 8.881 44.722.28.9-.382 1.899-1.392 1.952-4.559.244-8.788.37-12.568.376zm99.683 110.442c3.082 7.192 8.868 12.929 16.292 16.149 6.17 2.678 14.346 7.856 18.253 17.327 1.009 2.44-.785 5.001-3.295 5.001h-31.837c-5.925 0-11.222-3.76-13.182-9.356-9.244-26.396-25.761-77.713-32.508-124.82-1.453-10.149-9.947-17.572-20.195-17.649-1.389-.011-2.796-.028-4.217-.054-.092-1.364-.375-2.743-.707-3.814-4.335-13.968-6.95-29.469-8.524-44.009 27.061 9.429 55.01 13.966 83.916 13.532-9.486 19.056-20.18 25.876-19.481 46.561.89 26.353 4.085 74.534 15.485 101.132zm26.075-164.294c-32.234 4.38-71.209.337-107.405-13.414-.336-5.424-.598-10.294-.795-17.797 35.276 13.015 75.129 19.794 112.381 16.072zm79.7-142.664c-2.856 2.261-5.101 5.215-6.491 8.542-.926 2.218-1.924 3.139-2.252 3.139-.706 0-2.239-.153-3.863-.316-12.603-1.26-46.065-4.611-58.483 28.159-.532 1.404-.308 1.344-1.249 8.785-28.219-6.024-55.132-21.812-75.922-41.073 5.017-12.485 8.488-23.919 11.808-33.782 7.569 16.63 21.578 43.012 39.465 39.791 10.93-1.971 17.717-14.525 21.361-39.511 2.259-15.473 3.033-34.011 3.059-49.524 7.492 1.753 16.064 5.343 22.158 12.619 14.398 17.191 25.125 27.774 52.62 29.785h.001c3.115.228 5.579 2.901 5.609 6.087.128 13.507-2.651 23.203-7.821 27.299z"/><path d="m419.254 97.814h-2.75c-4.143 0-7.5 3.357-7.5 7.5s3.357 7.5 7.5 7.5h2.75c4.143 0 7.5-3.357 7.5-7.5s-3.357-7.5-7.5-7.5z"/></g></g></svg>