<svg id="Capa_1" enable-background="new 0 0 512 512" height="512" viewBox="0 0 512 512" width="512" xmlns="http://www.w3.org/2000/svg"><g><g><path d="m474 145h-436l2-71.541c0-8.284 6.716-15 15-15l2-2.459h9.83l6.83 7.995 8.17-7.995h21.34l6.261 7.995 8.739-7.995h28.83l15.661 7.995 20.669-7.995h28.84l6.142 7.995 8.858-7.995h21.33l6.83 7.995 8.17-7.995h21.33l4.491 7.995 10.509-7.995h28.84l17.496 7.995 18.834-7.995h28.83l7 7.995 8-7.995h21.34l6.83 7.995 8.17-7.995h13.83c8.284 0 15 6.716 15 15z" fill="#f8f7f7"/><path d="m474 129v16l-221.33 16-214.67-16v-16z" fill="#e8e8e8"/><path d="m347.706 410.56-183.881.826c-6.08 0-17.835 1.93-17.835 1.93-61.44-7.608-111.346-53.724-123.956-114.107 0 0 2.184-4.46 1.81-6.833-.721-4.575-4.333-9.45-4.619-14.163l-2.049-33.713h477.607l-2.038 33.68c-.247 4.086-4.097 7.763-4.672 11.747-.435 3.012 1.857 9.301 1.857 9.301-12.611 60.352-62.483 106.451-123.89 114.081 0-.001-12.232-2.749-18.334-2.749z" fill="#e8e8e8"/><path d="m17.18 244.5 2.04 33.71c.43 7.16 1.384 14.169 2.814 20.999 51.29 17.73 94.086 55.231 118.316 104.001 1.73 3.47 3.611 6.836 5.641 10.106 5.89.72 11.889 1.104 17.969 1.104h184.05c6.1 0 12.12-.38 18.03-1.11 2.03-3.25 3.9-6.6 5.61-10.05l.08-.15c24.23-48.71 66.98-86.15 118.2-103.88 1.43-6.84 2.39-13.88 2.82-21.05l2.03-33.68z" fill="#d8d8d8"/><path d="m262.292 456h-12.552c-24.558 0-47.837-8.395-66.414-23.064 0 0-20.417-25.276-27.592-39.716-2.131-4.289-8.73-9.302-8.73-9.302-28.414-49.017-74.559-85.55-129.201-101.828l-.303-.09 15.867-72.578-5.867-64.422h457l10 137c-54.776 16.244-101.042 52.837-129.502 101.969 0 0-7.435 3.992-9.542 8.23l-.07.141c-7.18 14.435-26.713 40.623-26.713 40.623-18.573 14.652-41.838 23.037-66.381 23.037z" fill="#f8f7f7"/><path d="m57 56v89h-19v-74c0-8.28 6.72-15 15-15z" fill="#e8e8e8"/><path d="m46.5 145-5.17 72.63-4.695 62.48c-5.96-2.36-12.645 3.829-18.835 1.98l-.3-.09 10-137z" fill="#e8e8e8"/><path d="m183.33 145v287.93c-12.2-9.63-22.37-21.97-29.55-36.4-2.13-4.29-4.39-8.49-6.78-12.61v-238.92z" fill="#7bb1ff"/><path d="m365 145v238.97c-2.36 4.07-4.59 8.22-6.7 12.46l-.07.14c-7.18 14.44-17.348 26.773-29.558 36.393l-.002-287.963z" fill="#7bb1ff"/><g><path d="m422.78 281.137 70.826.45c5.523 0 10-4.477 10-10l.895-3.954v-40c0-5.523-4.477-10-10-10h-49.33l-8.207 2.344-6.793-2.344h-8.67c-1.726 0-3.401.219-4.998.63 0 0-12.566 12.5-12.566 21.82l-1.156 21.055c-.001 11.044 8.953 19.999 19.999 19.999z" fill="#7bb1ff"/><path d="m504.5 267.632v5c0 5.52-4.48 10-10 10h-49.33l-8.427-2.367-6.573 2.367h-8.67c-11.05 0-20-8.95-20-20v-25c0-9.32 6.37-17.15 15-19.37v26.37c0 12.7 10.3 23 23 23z" fill="#62a5f4"/></g><g><path d="m422.78 175.505 70.826.45c5.523 0 10-4.477 10-10l.894-3.955v-40c0-5.523-4.477-10-10-10h-49.33l-8.207 2.344-6.793-2.344h-8.67c-1.726 0-3.401.219-4.998.63 0 0-12.566 12.5-12.566 21.82l-1.156 21.055c0 11.045 8.954 20 20 20z" fill="#7bb1ff"/><path d="m504.5 162v5c0 5.52-4.48 10-10 10h-49.33l-8.427-2.367-6.573 2.367h-8.67c-11.05 0-20-8.95-20-20v-25c0-9.32 6.37-17.15 15-19.37v26.37c0 12.7 10.3 23 23 23z" fill="#62a5f4"/></g><g><path d="m19.174 280.028 69.183.486c9.665 0 21.736-13.851 21.736-13.851.266-1.302.406-2.65.406-4.031v-25c0-11.046-8.954-20-20-20h-12.499l-7.5 3.46-7.5-3.46h-21.67l-21.165 2.267c-5.523 0-10 4.477-10 10l-.991 40.128c0 5.523 4.477 10.001 10 10.001z" fill="#7bb1ff"/><path d="m19.807 174.33 67.89.661c9.665 0 22.396-13.96 22.396-13.96.266-1.302.406-2.65.406-4.031v-25c0-11.046-8.954-20-20-20h-8.67l-8.417 3.046-6.582-3.046h-17.58l-29.002 2.376c-5.523 0-10 4.477-10 10l-.44 39.954c-.001 5.523 4.476 10 9.999 10z" fill="#7bb1ff"/><g fill="#62a5f4"><path d="m38.303 258.032 3.027-40.402h-23.83c-5.523 0-10 4.477-10 10v45c0 5.523 4.477 10 10 10h45.5l7.028-2.447 7.972 2.447h12.5c9.68 0 17.75-6.87 19.6-16h-63.819c-4.654 0-8.326-3.957-7.978-8.598z"/><path d="m46.223 152.402 3.027-40.402h-31.75c-5.523 0-10 4.477-10 10v45c0 5.523 4.477 10 10 10h49.33l6.418-2.67 8.582 2.67h8.67c9.68 0 17.75-6.87 19.6-16h-55.899c-4.654 0-8.326-3.957-7.978-8.598z"/></g></g><path d="m147 56h36.33v97.385h-36.33z" fill="#7bb1ff"/><path d="m328.67 56h36.33v97.385h-36.33z" fill="#7bb1ff"/><g fill="#62a5f4"><path d="m147 129h36.33v16h-36.33z"/><path d="m328.67 129h36.33v16h-36.33z"/></g></g><path d="m512 167v-45c0-9.649-7.851-17.5-17.5-17.5h-13v-33.5c0-12.407-10.094-22.5-22.5-22.5h-406c-12.406 0-22.5 10.093-22.5 22.5v33.5h-13c-9.649 0-17.5 7.851-17.5 17.5v45c0 9.514 7.635 17.263 17.098 17.48l-1.838 25.18c-8.593 1.106-15.26 8.451-15.26 17.34v45c0 7.214 4.389 13.419 10.635 16.094 3.454 26.563 14.037 51.83 30.786 73.379 1.479 1.902 3.691 2.898 5.927 2.898 1.608 0 3.229-.516 4.598-1.579 3.271-2.542 3.861-7.254 1.319-10.524-13.686-17.608-22.784-37.955-26.69-59.411 52.204 18.667 95.72 57.156 120.491 107.011 1.077 2.167 2.228 4.289 3.434 6.374-26.786-2.669-52.666-13.226-74.036-30.405-3.229-2.596-7.95-2.082-10.545 1.146-2.595 3.229-2.082 7.949 1.146 10.544 26.909 21.633 60.311 33.78 94.32 34.365 7.896 9.552 17.313 17.812 27.959 24.41 18.153 11.251 39.038 17.198 60.396 17.198h12.553c21.349 0 42.227-5.942 60.375-17.185 10.656-6.601 20.082-14.867 27.983-24.427 76.425-1.306 141.343-59.182 150.729-133.801 6.237-2.677 10.62-8.879 10.62-16.087v-45c0-8.889-6.667-16.234-15.26-17.34l-1.838-25.18c9.463-.217 17.098-7.966 17.098-17.48zm-15-45v45c0 1.378-1.121 2.5-2.5 2.5h-49.333v-50h49.333c1.379 0 2.5 1.122 2.5 2.5zm-75.5 47.5c-6.984 0-12.667-5.607-12.667-12.5v-25c0-6.893 5.683-12.5 12.667-12.5h8.667v50zm-318.333-61.936c-3.798-1.953-8.103-3.064-12.667-3.064h-8.667v-41h21.334zm-12.667 11.936c6.984 0 12.666 5.607 12.666 12.5-.006 6.696-.012 18.05 0 25 0 6.893-5.682 12.5-12.666 12.5h-8.667v-50zm27.667-56h21.333v74h-21.334s0-73.865.001-74zm36.333 0h21.333v74h-21.333zm36.333 0h21.334v74h-21.334zm36.334 0h21.333v74h-21.333zm36.333 0h21.333v74h-21.333zm36.333 0h21.334v74h-21.334zm36.334 0h21.333v74h-21.333zm36.333 0h21.333v68.5 5.5h-21.333zm57.667 41h-8.667c-4.563 0-8.869 1.111-12.667 3.064v-44.064h21.334zm36.333-33.5v33.5h-21.333v-41h13.833c4.136 0 7.5 3.364 7.5 7.5zm-421 0c0-4.136 3.364-7.5 7.5-7.5h13.833v41h-21.333zm-30.5 96v-45c0-1.378 1.121-2.5 2.5-2.5h49.333v50h-49.333c-1.379 0-2.5-1.122-2.5-2.5zm75.5 57.5c6.893 0 12.5 5.607 12.5 12.5v25c0 6.893-5.607 12.5-12.5 12.5h-12.5v-50zm-27.5 50h-45.418c-.01 0-.02 0-.029 0h-.053c-1.379 0-2.5-1.122-2.5-2.5v-45c0-1.378 1.121-2.5 2.5-2.5h45.5zm-6.173 15h33.673c15.163 0 27.5-12.336 27.5-27.5v-25c0-15.164-12.337-27.5-27.5-27.5h-60.188l1.825-25h58.363c15.255 0 27.666-12.336 27.666-27.5v-4.5h21.334v206.407c-21.67-29.286-50.074-53.132-82.673-69.407zm192.912 159c-21.733 0-42.19-6.907-58.906-19.166v-185.058c0-4.142-3.357-7.5-7.5-7.5s-7.5 3.358-7.5 7.5v171.49c-6.009-6.674-11.189-14.235-15.333-22.574-1.896-3.816-3.903-7.565-6-11.253v-229.439h21.333v56.776c0 4.142 3.357 7.5 7.5 7.5s7.5-3.358 7.5-7.5v-56.776h130.333v164.776c0 4.142 3.357 7.5 7.5 7.5s7.5-3.358 7.5-7.5v-164.776h21.334v229.49c-2.063 3.64-4.043 7.334-5.915 11.096l-.072.146c-4.148 8.339-9.332 15.899-15.347 22.571v-63.527c0-4.142-3.357-7.5-7.5-7.5s-7.5 3.358-7.5 7.5v77.081c-16.711 12.245-37.157 19.143-58.874 19.143zm111.781-42.238c1.201-2.076 2.348-4.188 3.421-6.345l.072-.146c11.232-22.58 26.193-42.834 44.468-60.201 3.002-2.854 3.123-7.601.27-10.603-2.854-3.003-7.601-3.123-10.604-.27-9.79 9.304-18.691 19.383-26.646 30.161v-206.358h21.333v4.5c0 15.164 12.411 27.5 27.667 27.5h58.363l1.825 25h-60.189c-15.163 0-27.5 12.336-27.5 27.5v25c0 15.164 12.337 27.5 27.5 27.5h33.6c-9.641 4.806-18.952 10.281-27.865 16.417-3.412 2.349-4.273 7.019-1.925 10.431 1.455 2.113 3.8 3.248 6.185 3.248 1.466 0 2.947-.429 4.246-1.323 15.438-10.627 32.14-19.158 49.756-25.44-10.708 60.481-62.112 107.401-123.977 113.429zm135.48-134.262c0 1.378-1.121 2.5-2.5 2.5h-.096c-.007 0-.013 0-.02 0h-45.384v-50h45.5c1.379 0 2.5 1.122 2.5 2.5zm-75.5 2.5c-6.893 0-12.5-5.607-12.5-12.5v-25c0-6.893 5.607-12.5 12.5-12.5h12.5v50z"/></g></svg>