<svg id="Capa_1" enable-background="new 0 0 511.999 511.999" height="512" viewBox="0 0 511.999 511.999" width="512" xmlns="http://www.w3.org/2000/svg"><g><g><g><path d="m423.122 337.376v-93.768c0-92.299-74.824-167.123-167.123-167.123-92.3 0-167.123 74.824-167.123 167.123v93.768c0 92.299 74.824 167.123 167.123 167.123 92.3 0 167.123-74.824 167.123-167.123z" fill="#42c3fc"/></g><g><path d="m121.767 337.376v-93.768c0-16.061 2.271-31.59 6.5-46.289h-32.891c-4.229 14.7-6.5 30.229-6.5 46.289v93.768c0 92.3 74.823 167.123 167.123 167.123 5.55 0 11.034-.277 16.445-.806-84.579-8.262-150.677-79.568-150.677-166.317z" fill="#1aa9e8"/></g><g><path d="m255.999 334.838c90.503-28.416 138.857-93.588 161.355-134.869-19.192-71.134-84.154-123.484-161.355-123.484-77.2 0-142.163 52.35-161.355 123.485 22.499 41.281 70.852 106.453 161.355 134.868z" fill="#1c8ae5"/></g><g><path d="m255.999 76.485c-77.201 0-142.163 52.35-161.355 123.485 6.65 12.202 15.562 26.492 27.151 41.303 1.175-85.687 66.825-155.788 150.638-163.981-5.407-.528-10.887-.807-16.434-.807z" fill="#1e6ee2"/></g><g><path d="m145.085 170.677h-17.965c-14.389 0-26.054-11.665-26.054-26.054v-5.188c0-14.389 11.665-26.054 26.054-26.054h17.965z" fill="#f6a96c"/></g><g><path d="m375.248 113.383h17.965c14.389 0 26.054 11.665 26.054 26.054v5.188c0 14.389-11.665 26.054-26.054 26.054h-17.965z" fill="#f6a96c"/></g><g><circle cx="260.166" cy="147.339" fill="#fed2a4" r="122.806"/></g><g><path d="m163.402 147.339c0-63.425 48.083-115.615 109.785-122.118-4.279-.451-8.622-.687-13.021-.687-67.824 0-122.806 54.982-122.806 122.806s54.982 122.806 122.806 122.806c4.399 0 8.742-.236 13.021-.687-61.702-6.505-109.785-58.695-109.785-122.12z" fill="#ffbd86"/></g><g><path d="m269.042 68.348c4.618-7.494 10.538-17.101 16.52-26.81 8.714-14.142-.613-32.674-17.188-33.769-2.713-.179-5.45-.27-8.208-.27-2.593 0-5.167.08-7.72.239-16.793 1.043-26.5 19.481-17.673 33.805l16.515 26.801c4.073 6.609 13.68 6.614 17.754.004z" fill="#ffdd40"/></g><g><path d="m268.568 68.343-16.515-26.801c-8.675-14.078.558-32.118 16.821-33.723-.168-.015-.331-.039-.5-.05-2.713-.179-5.45-.27-8.208-.27-2.593 0-5.167.081-7.72.239-16.793 1.043-26.5 19.481-17.673 33.805l16.515 26.801c4.001 6.493 13.328 6.597 17.519.336-.078-.116-.166-.218-.239-.337z" fill="#ffc043"/></g><g><path d="m272.401 285.976h-24.47c-23.454 0-42.468-19.014-42.468-42.468 0-23.454 19.014-42.468 42.468-42.468h24.47c23.454 0 42.468 19.014 42.468 42.468 0 23.454-19.014 42.468-42.468 42.468z" fill="#e5979d"/></g><g><path d="m224.904 243.508c0-23.455 19.014-42.468 42.468-42.468h-19.44c-23.454 0-42.468 19.014-42.468 42.468 0 23.454 19.013 42.468 42.468 42.468h19.44c-23.455 0-42.468-19.014-42.468-42.468z" fill="#e17f85"/></g><g><path d="m260.166 227.273c-8.966 0-16.234 7.268-16.234 16.234 0 8.966 7.268 16.234 16.234 16.234 8.966 0 16.234-7.268 16.234-16.234.001-8.965-7.268-16.234-16.234-16.234z" fill="#ffdd40"/></g></g><g><path d="m424.737 198.71c-.069-.406-.179-.802-.313-1.191-2.563-9.335-5.89-18.356-9.895-27.002 7.468-6.159 12.237-15.48 12.237-25.894v-5.188c0-18.502-15.052-33.554-33.553-33.554h-9.506c-13.678-40.648-46.894-72.395-88.43-84.031-.546-1.932-1.285-3.832-2.233-5.671-4.782-9.269-13.819-15.211-24.174-15.895-5.581-.369-11.321-.381-16.889-.033-10.589.657-19.817 6.656-24.685 16.046-.933 1.798-1.665 3.657-2.208 5.548-41.551 11.629-74.779 43.378-88.461 84.036h-9.509c-18.501 0-33.553 15.052-33.553 33.554v5.188c0 7.527 2.492 14.483 6.693 20.087-12.065 23.711-18.883 50.52-18.883 78.898v26.537c0 4.143 3.357 7.5 7.5 7.5s7.5-3.357 7.5-7.5v-26.537c0-7.827.586-15.517 1.681-23.045 13.257 21.036 28.865 40.188 46.586 57.092 24.942 23.792 53.431 42.365 84.912 55.474-32.361 8.821-85.228 28.66-119.251 69.436-8.945-19.915-13.929-41.98-13.929-65.188v-29.567c0-4.143-3.357-7.5-7.5-7.5s-7.5 3.357-7.5 7.5v29.565c0 96.287 78.336 174.623 174.623 174.623 49.3 0 96.542-20.994 129.612-57.601 2.776-3.073 2.536-7.815-.538-10.593-3.071-2.774-7.814-2.537-10.593.538-30.231 33.463-73.416 52.655-118.481 52.655-29.887 0-57.876-8.264-81.818-22.615 30.082-36.712 81.681-47.896 104.379-52.806l2.253-.489c8.916-1.945 16.948-4.342 24.557-7.325 53.503-20.983 88.312-56.53 110.252-88.564v12.177c0 29.818-8.272 58.898-23.922 84.095-2.186 3.519-1.104 8.143 2.414 10.328 1.232.766 2.599 1.13 3.95 1.13 2.507 0 4.958-1.257 6.378-3.544 17.127-27.574 26.18-59.391 26.18-92.009v-93.768c.002-15.521-2.058-30.565-5.883-44.897zm-31.524-77.828c10.23 0 18.553 8.323 18.553 18.554v5.188c0 10.23-8.322 18.554-18.553 18.554h-3.7c.632-5.192.958-10.478.958-15.838 0-9.063-.936-17.911-2.706-26.457h5.448zm-152.598-97.68c2.419-4.668 7.017-7.65 12.299-7.979 2.392-.149 4.831-.225 7.253-.225 2.572 0 5.167.086 7.714.254 5.137.34 9.449 3.185 11.833 7.805 2.404 4.661 2.204 10.099-.536 14.546l-16.521 26.811v.001c-.745 1.208-1.879 1.389-2.488 1.389-.61 0-1.747-.181-2.495-1.395l-16.515-26.801c-2.766-4.488-2.964-9.739-.544-14.406zm-15.647 14.345c.74 2.744 1.872 5.416 3.421 7.93l16.515 26.801c3.289 5.338 8.995 8.525 15.265 8.525h.001c6.266 0 11.97-3.185 15.258-8.52 0-.001 0-.001.001-.002l16.519-26.81c1.545-2.508 2.675-5.174 3.417-7.914 46.414 14.916 80.108 58.475 80.108 109.781 0 40.697-21.195 76.534-53.125 97.06.005-.298.022-.593.022-.892 0-27.553-22.416-49.968-49.969-49.968h-24.469c-27.553 0-49.969 22.415-49.969 49.968 0 .291.017.579.022.869-31.924-20.527-53.125-56.344-53.125-97.037.001-51.306 33.692-94.876 80.108-109.791zm-12.005 205.96c0-19.281 15.687-34.968 34.969-34.968h24.469c19.282 0 34.969 15.687 34.969 34.968s-15.687 34.968-34.969 34.968h-24.469c-19.282 0-34.969-15.686-34.969-34.968zm-104.396-104.071c0-10.23 8.322-18.554 18.553-18.554h5.445c-1.77 8.546-2.704 17.394-2.704 26.457 0 5.361.329 10.646.961 15.838h-3.702c-10.23 0-18.553-8.323-18.553-18.554zm-5.842 59.649c2.466-8.466 5.612-16.642 9.382-24.467 4.521 2.272 9.618 3.559 15.012 3.559h6.439c9.188 37.712 34.835 69.034 68.866 85.93 7.864 17.301 25.297 29.368 45.507 29.368h24.469c20.208 0 37.64-12.065 45.505-29.364 34.034-16.896 59.689-48.219 68.877-85.934h6.431c2.729 0 5.378-.335 7.919-.953 3.226 7.024 5.955 14.32 8.146 21.844-22.643 40.554-64.643 93.678-137.768 122.355-5.131 2.012-10.458 3.781-16.102 5.343-85.734-27.964-131.984-90.696-152.683-127.681zm197.169 200.713c-6.86 2.69-14.147 4.861-22.277 6.636l-2.227.482c-22.412 4.848-80.341 17.383-113.762 59.113-17.745-13.051-32.705-29.675-43.805-48.809 37.636-49.693 108.854-68.534 130.213-73.196 10.51-2.293 19.979-5.118 28.951-8.636 36.018-14.125 68.267-35.356 95.849-63.104 15.482-15.575 29.255-32.922 41.115-51.732 1.095 7.53 1.671 15.226 1.671 23.054v53.094c-18.888 34.049-54.121 78.937-115.728 103.098z"/><path d="m191.389 149.53c4.143 0 7.5-3.357 7.5-7.5 0-5.922 4.817-10.739 10.739-10.739s10.74 4.817 10.74 10.739c0 4.143 3.357 7.5 7.5 7.5s7.5-3.357 7.5-7.5c0-14.192-11.547-25.739-25.74-25.739-14.192 0-25.739 11.547-25.739 25.739 0 4.142 3.357 7.5 7.5 7.5z"/><path d="m292.464 149.53c4.143 0 7.5-3.357 7.5-7.5 0-5.922 4.818-10.739 10.74-10.739s10.739 4.817 10.739 10.739c0 4.143 3.357 7.5 7.5 7.5s7.5-3.357 7.5-7.5c0-14.192-11.547-25.739-25.739-25.739-14.193 0-25.74 11.547-25.74 25.739 0 4.142 3.358 7.5 7.5 7.5z"/><path d="m260.166 267.242c13.087 0 23.734-10.647 23.734-23.734s-10.647-23.734-23.734-23.734-23.734 10.647-23.734 23.734c0 13.086 10.647 23.734 23.734 23.734zm0-32.469c4.816 0 8.734 3.918 8.734 8.734s-3.918 8.734-8.734 8.734-8.734-3.918-8.734-8.734 3.918-8.734 8.734-8.734z"/></g></g></svg>