<svg id="Capa_1" enable-background="new 0 0 512 512" height="512" viewBox="0 0 512 512" width="512" xmlns="http://www.w3.org/2000/svg"><g><g><g><path d="m261.085 292.859h-39.971l107.772 160.07h39.755z" fill="#e9efff"/></g><g><path d="m304.892 358.055-41.889-62.341-4.373-2.855h-37.516l43.895 65.196z" fill="#d3dcfb"/></g><g><path d="m241.255 292.859-107.556 160.07h39.755l107.772-160.07z" fill="#e9efff"/></g><g><path d="m237.331 358.055 43.895-65.196h-39.971l-43.807 65.196z" fill="#d3dcfb"/></g><g><path d="m153.577 504.5c-28.482 0-51.571-23.089-51.571-51.571 0-28.482 23.089-51.571 51.571-51.571 28.482 0 51.571 23.089 51.571 51.571 0 28.482-23.089 51.571-51.571 51.571z" fill="#bac5e2"/></g><g><path d="m153.577 433.051c-10.978 0-19.878 8.9-19.878 19.878 0 10.978 8.9 19.878 19.878 19.878 10.978 0 19.878-8.9 19.878-19.878-.001-10.978-8.9-19.878-19.878-19.878z" fill="#e9efff"/></g><g><path d="m348.764 504.5c-28.482 0-51.571-23.089-51.571-51.571 0-28.482 23.089-51.571 51.571-51.571 28.482 0 51.571 23.089 51.571 51.571 0 28.482-23.089 51.571-51.571 51.571z" fill="#bac5e2"/></g><g><path d="m348.764 433.051c-10.978 0-19.878 8.9-19.878 19.878 0 10.978 8.9 19.878 19.878 19.878 10.978 0 19.878-8.9 19.878-19.878-.001-10.978-8.9-19.878-19.878-19.878z" fill="#e9efff"/></g><g><path d="m241.6 170.488v-152.162c0-5.979-4.847-10.826-10.826-10.826h-46.964c-59.788 0-108.256 48.468-108.256 108.256v110.969c0 59.788 48.468 108.256 108.256 108.256h134.721c59.788 0 108.256-48.468 108.256-108.256v-56.237z" fill="#42c3fc"/></g><g><path d="m102.005 226.725v-110.969c0-59.788 48.468-108.256 108.257-108.256h-26.452c-59.788 0-108.256 48.468-108.256 108.256v110.969c0 59.788 48.468 108.256 108.256 108.256h26.452c-59.789 0-108.257-48.468-108.257-108.256z" fill="#1aa9e8"/></g><g><path d="m463.155 60.897h-30.395c-21.34 0-38.639 17.299-38.639 38.639v60.818h32.402v-57.396c0-5.335 4.325-9.66 9.66-9.66h26.972c5.335 0 9.66-4.325 9.66-9.66v-13.081c0-5.335-4.325-9.66-9.66-9.66z" fill="#e9efff"/></g><g><path d="m443.409 189.714h-384.478c-10.906 0-19.746-8.841-19.746-19.746 0-10.906 8.841-19.746 19.746-19.746h384.478c10.906 0 19.746 8.841 19.746 19.746 0 10.905-8.84 19.746-19.746 19.746z" fill="#b8f0ff"/></g><g><path d="m67.625 169.968c0-10.906 8.841-19.747 19.746-19.747h-28.44c-10.906 0-19.746 8.841-19.746 19.747s8.841 19.746 19.746 19.746h28.44c-10.905 0-19.746-8.841-19.746-19.746z" fill="#8ddcff"/></g><g><path d="m241.6 211.538c-22.959 0-41.571-18.612-41.571-41.571 0-22.959 18.612-41.571 41.571-41.571 22.959 0 41.571 18.612 41.571 41.571 0 22.959-18.612 41.571-41.571 41.571z" fill="#ffdd40"/></g><g><path d="m218.389 169.968c0-19.803 13.851-36.36 32.391-40.541-2.955-.667-6.024-1.03-9.18-1.03-22.959 0-41.571 18.612-41.571 41.571 0 22.959 18.612 41.571 41.571 41.571 3.156 0 6.225-.363 9.18-1.03-18.539-4.181-32.391-20.738-32.391-40.541z" fill="#ffc043"/></g></g><g><path d="m153.577 425.551c-15.096 0-27.377 12.281-27.377 27.378s12.281 27.378 27.377 27.378 27.378-12.281 27.378-27.378-12.282-27.378-27.378-27.378zm0 39.756c-6.825 0-12.377-5.553-12.377-12.378s5.553-12.378 12.377-12.378c6.825 0 12.378 5.553 12.378 12.378s-5.553 12.378-12.378 12.378z"/><path d="m348.764 480.307c15.096 0 27.377-12.281 27.377-27.378s-12.281-27.378-27.377-27.378-27.378 12.281-27.378 27.378 12.281 27.378 27.378 27.378zm0-39.756c6.825 0 12.377 5.553 12.377 12.378s-5.552 12.378-12.377 12.378-12.378-5.553-12.378-12.378 5.552-12.378 12.378-12.378z"/><path d="m463.155 53.396h-30.395c-25.441 0-46.139 20.698-46.139 46.14v43.185h-104.233c-7.49-11.175-19.442-19.119-33.288-21.251v-103.145c0-10.104-8.221-18.325-18.325-18.325h-46.965c-63.829 0-115.756 51.928-115.756 115.756v26.965h-9.123c-15.024 0-27.247 12.223-27.247 27.247 0 15.023 12.223 27.246 27.247 27.246h9.123v29.511c0 63.828 51.928 115.756 115.756 115.756h15.068l-35.124 52.272c-3.309-.577-6.706-.896-10.177-.896-32.572 0-59.071 26.499-59.071 59.071s26.498 59.072 59.071 59.072 59.071-26.499 59.071-59.071c0-11.513-3.323-22.26-9.043-31.354l14.44-21.447h66.249l14.44 21.448c-5.72 9.094-9.043 19.84-9.043 31.353 0 32.572 26.499 59.071 59.071 59.071s59.071-26.499 59.071-59.071-26.499-59.071-59.071-59.071c-3.472 0-6.868.318-10.177.896l-35.124-52.272h15.068c63.828 0 115.756-51.928 115.756-115.756v-29.511h9.123c15.023 0 27.246-12.223 27.246-27.246 0-15.024-12.223-27.247-27.246-27.247h-9.386v-39.763c0-1.19.969-2.159 2.16-2.159h26.972c9.462 0 17.16-7.698 17.16-17.16v-13.083c.001-9.462-7.697-17.161-17.159-17.161zm-187.484 116.572c0 18.786-15.284 34.07-34.071 34.07s-34.071-15.284-34.071-34.07c0-18.787 15.284-34.071 34.071-34.071 18.787-.001 34.071 15.284 34.071 34.071zm-192.617-54.212c0-8.123.973-16.022 2.797-23.593l92.344 39.254c.958.407 1.952.6 2.931.6 2.918 0 5.692-1.713 6.906-4.568 1.621-3.812-.156-8.216-3.968-9.836l-93.593-39.785c10.103-24.771 29.787-44.653 54.428-55.009l56.158 84.553c1.444 2.174 3.826 3.352 6.254 3.352 1.425 0 2.866-.406 4.143-1.253 3.451-2.292 4.39-6.947 2.098-10.397l-53.891-81.141c7.74-1.912 15.827-2.933 24.149-2.933h46.965c1.833 0 3.325 1.491 3.325 3.325v103.145c-13.846 2.133-25.798 10.076-33.288 21.251h-117.758zm-36.369 54.212c0-6.753 5.494-12.247 12.247-12.247h135.145c-1.01 3.916-1.547 8.02-1.547 12.247s.537 8.33 1.547 12.246h-135.146c-6.753 0-12.246-5.493-12.246-12.246zm170.264 172.512h21.827l-45.156 67.07c-4.418-4.081-9.457-7.495-14.959-10.087zm-63.372 154.52c-24.301 0-44.071-19.771-44.071-44.071s19.771-44.071 44.071-44.071 44.071 19.771 44.071 44.071-19.771 44.071-44.071 44.071zm74.568-111.872 23.025-34.199 23.026 34.199zm164.69 67.801c0 24.301-19.771 44.071-44.071 44.071s-44.071-19.771-44.071-44.071 19.771-44.071 44.071-44.071 44.071 19.77 44.071 44.071zm-69.155-53.466c-5.502 2.592-10.541 6.006-14.959 10.087l-45.157-67.07h21.827zm95.607-172.738c0 55.557-45.199 100.756-100.756 100.756h-134.721c-55.557 0-100.756-45.199-100.756-100.756v-29.511h117.758c8.812 13.149 23.805 21.824 40.788 21.824 16.984 0 31.976-8.675 40.789-21.824h136.898zm36.368-56.757c0 6.753-5.494 12.246-12.246 12.246h-154.284c1.01-3.916 1.547-8.02 1.547-12.246 0-4.227-.537-8.331-1.547-12.247h154.285c6.752 0 12.245 5.494 12.245 12.247zm9.66-86.329c0 1.191-.969 2.16-2.16 2.16h-26.972c-9.462 0-17.16 7.697-17.16 17.159v39.763h-17.402v-43.185c0-17.171 13.969-31.14 31.139-31.14h30.395c1.191 0 2.16.969 2.16 2.16z"/></g></g></svg>