<svg id="Capa_1" enable-background="new 0 0 511.987 511.987" height="512" viewBox="0 0 511.987 511.987" width="512" xmlns="http://www.w3.org/2000/svg"><g><g><g><path d="m330.95 471.427c0 18.233 14.781 33.014 33.014 33.014s33.014-14.781 33.014-33.014c0-7.385-2.424-14.203-6.521-19.702 0 0-2.979-1.26-4.118-2.398-5.974-5.968-13.265-8.894-22.376-8.894-9.938 0-18.519 3.02-24.571 9.968-.552.634-1.916 1.316-1.916 1.316-4.099 5.501-6.526 12.322-6.526 19.71z" fill="#f8f7f7"/><path d="m390.456 451.727v6.21c0 14.61-11.89 26.49-26.49 26.49-14.61 0-26.49-11.88-26.49-26.49l.001-6.219c6.02-8.07 15.649-13.301 26.489-13.301 10.85 0 20.47 5.229 26.49 13.31z" fill="#e8e8e8"/><path d="m363.965 471.427c7.45 0 13.488-6.039 13.488-13.488v-49.943h-26.977v49.943c0 7.449 6.039 13.488 13.489 13.488z" fill="#857e87"/></g><g><path d="m457.386 201.521-38.656-77.813-1.311-9.998-14.115-21.052 26.845-13.337 4.546 17.453 6.396 4.574 43.139 86.837z" fill="#f8f7f7"/></g><g><path d="m115.008 471.427c0 18.233 14.781 33.014 33.014 33.014s33.014-14.781 33.014-33.014c0-7.385-2.424-14.203-6.521-19.702 0 0-2.979-1.26-4.118-2.398-5.974-5.968-13.265-8.894-22.376-8.894-9.938 0-18.519 3.02-24.571 9.968-.552.634-1.916 1.316-1.916 1.316-4.1 5.501-6.526 12.322-6.526 19.71z" fill="#f8f7f7"/><path d="m174.513 451.727v6.21c0 14.61-11.89 26.49-26.49 26.49-14.61 0-26.49-11.88-26.49-26.49l.001-6.219c6.02-8.07 15.649-13.301 26.489-13.301 10.85 0 20.47 5.229 26.49 13.31z" fill="#e8e8e8"/><path d="m148.022 471.427c7.45 0 13.488-6.039 13.488-13.488v-49.943h-26.977v49.943c.001 7.449 6.04 13.488 13.489 13.488z" fill="#857e87"/></g><g><path d="m352.952 414.034-194.079-176.737-1.497-4.906-28.232-22.167 18.369-18.369 42.842 40.706 7.058 4.736 173.908 158.367z" fill="#f8f7f7"/></g><g><path d="m160.675 412.393-18.369-18.369 172.108-156.726 10.579-7.673 41.075-39.364 18.369 18.369-28.21 23.123-3.272 5.546z" fill="#f8f7f7"/></g><path d="m275.183 308.116 17.88 16.28c-3.63 8.12-9.84 14.83-17.59 19.09l-19.56-17.82-19.5 17.76c-7.73-4.28-13.93-11.01-17.54-19.13l17.77-16.18-17.92-16.32c3.53-8.16 9.67-14.94 17.35-19.29l19.84 18.06 19.9-18.12c7.7 4.33 13.85 11.09 17.41 19.24z" fill="#e8e8e8"/><circle cx="255.993" cy="307.871" fill="#857e87" r="27.592"/><path d="m441.093 101.346-22.363 22.362-15.427-31.052 26.85-13.339z" fill="#e8e8e8"/><path d="m334.1 181.965-301.191 2.365-.364-17.576c0-8.95 11.587-21.477 11.587-21.477 1.891-.593 3.902-.913 5.989-.913h273.042l131.023-131.025c7.804-7.804 20.456-7.804 28.26 0l.001.001c1.474 1.474 2.67 3.121 3.587 4.876 0 0-2.541 16.866-8.871 23.196z" fill="#ff8086"/><path d="m488.303 27.467c0 5.12-1.95 10.23-5.86 14.13l-142.73 142.73-158.805 8.065-150.775-8.065v-19.98c0-8.95 5.887-16.529 13.997-19.069l.003 15.049c0 5.523 4.477 10 10 10h271.496c5.304 0 10.391-2.107 14.142-5.857l146.262-146.253c1.52 2.89 2.27 6.07 2.27 9.25z" fill="#e5646e"/><g><path d="m308.174 214.455c-8.277 0-14.987-6.71-14.987-14.987v-73.108c0-3.358-1.11-6.462-2.983-8.964-2.736-3.654-6.475-7.643-11.381-7.643l-123.489-.17c-4.72 0-6.762 3.983-9.511 7.404-2.064 2.569-3.301 5.829-3.301 9.373v73.108c0 8.277-6.71 14.987-14.987 14.987s-14.987-6.71-14.987-14.987v-73.108c0-20.636 13.973-38.069 32.955-43.334 0 0 7.85 1.068 12.006 1.068l120.691-.427c4.156 0 12.004-.643 12.004-.643 18.983 5.265 32.958 22.698 32.958 43.335v73.108c0 8.278-6.711 14.988-14.988 14.988z" fill="#f8f7f7"/></g><g fill="#e8e8e8"><path d="m323.163 170.326v29.14c0 8.28-6.71 14.99-14.99 14.99s-14.99-6.71-14.99-14.99v-29.14z"/><path d="m142.523 170.326v29.14c0 8.28-6.71 14.99-14.99 14.99s-14.99-6.71-14.99-14.99v-29.14z"/></g><path d="m290.203 83.027v34.37c-2.73-3.65-7.1-6.02-12-6.02l-57.295-5.497-63.395 5.497c-4.91 0-9.27 2.37-12.01 6.02v-34.37c3.83-1.06 7.85-1.63 12.01-1.63l63.395 7.292 57.295-7.292c4.15-.001 8.18.57 12 1.63z" fill="#e8e8e8"/><path d="m157.503 81.396h120.7v29.98h-120.7z" fill="#857e87"/><g><path d="m399.121 416.859-288.851-.681c-7.449 0-11.915-3.795-11.915-11.245 0-5.419 2.05-9.504 6.66-11.649 1.592-.741 4.659-1.831 4.659-1.831.158-.005.317-.008.477-.008h291.687c7.28 0 13.212 5.767 13.479 12.981.006.168-.801.337-.801.507-.001 7.45-7.946 11.926-15.395 11.926z" fill="#857e87"/></g><g><path d="m415.323 404.937c0 3.73-1.51 7.1-3.95 9.54s-5.82 3.95-9.54 3.95h-291.68c-7.45 0-13.49-6.04-13.49-13.49 0-3.73 1.51-7.1 3.95-9.54 2.33-2.33 5.53-3.823 9.06-3.943.27 7.21 6.2 12.973 13.48 12.973h292.16c.01.169.01.34.01.51z" fill="#6f6571"/></g><path d="m384.433 208.627-31.478 28.672-38.541-.001 51.649-47.041z" fill="#e8e8e8"/><path d="m197.413 237.297h-38.54l-29.73-27.07 18.37-18.37z" fill="#e8e8e8"/><path d="m469.312 222.753-427.66-.766c-11.036 0-19.983-8.947-19.983-19.983l-.315-13.528c0-1.657 1.343-3 3-3l10.388-1.145h454.495c1.657 0 3 1.343 3 3v16.983c0 1.72-.217 3.39-.626 4.982.001 0-12.983 13.457-22.299 13.457z" fill="#857e87"/><g><path d="m491.612 209.296c-2.21 8.62-10.039 15-19.359 15h-432.52c-11.04 0-19.99-8.95-19.99-19.98v-16.99c0-1.65 1.35-3 3-3h12v1.97c0 12.7 10.3 23 23 23z" fill="#6f6571"/></g></g><g><path d="m248.488 307.871c0 4.143 3.362 7.505 7.505 7.505s7.505-3.362 7.505-7.505-3.362-7.506-7.505-7.506-7.505 3.364-7.505 7.506z"/><path d="m489.238 176.831h-2.274l-42.862-86.279 43.649-43.648c10.715-10.716 10.714-28.152-.001-38.868-10.715-10.713-28.149-10.715-38.868 0l-52.305 52.307c-2.929 2.929-2.929 7.677 0 10.606 2.93 2.928 7.678 2.927 10.607 0l52.304-52.306c4.87-4.867 12.789-4.866 17.655.001 4.867 4.866 4.867 12.786 0 17.653l-140.534 140.533h-5.948v-29.358l51.774-51.774c2.929-2.93 2.929-7.678 0-10.607-2.93-2.928-7.678-2.928-10.607 0l-41.169 41.169c-.055-28.882-23.565-52.362-52.458-52.362h-120.692c-28.928 0-52.462 23.534-52.462 52.462v10.505h-54.928c-15.154 0-27.483 12.329-27.483 27.483v12.489c-5.738.061-10.388 4.742-10.388 10.494v16.982c0 15.154 12.329 27.483 27.483 27.483h101.967l79.406 72.308c-.106 1.729-.421 3.264.055 7.965l-78.928 71.875h-32.081c-11.573 0-20.988 9.416-20.988 20.989s9.415 20.988 20.988 20.988h16.884v10.878c-11.978 7.284-19.525 20.427-19.525 34.626 0 8.935 2.853 17.408 8.248 24.504 1.476 1.94 3.712 2.96 5.976 2.96 1.582 0 3.178-.498 4.534-1.53 3.297-2.507 3.938-7.212 1.43-10.51-3.394-4.463-5.188-9.796-5.188-15.424 0-5.251 1.648-10.268 4.525-14.452v.962c0 11.573 9.416 20.989 20.99 20.989 11.573 0 20.989-9.416 20.989-20.989v-.955c2.876 4.185 4.523 9.201 4.523 14.445 0 12.072-8.566 22.584-20.369 24.997-4.058.829-6.676 4.791-5.846 8.85.726 3.552 3.851 6 7.34 6 .498 0 1.003-.051 1.51-.154 18.754-3.832 32.365-20.525 32.365-39.692 0-14.186-7.55-27.34-19.523-34.625v-10.88h173.961v10.924c-11.975 7.285-19.523 20.433-19.523 34.626 0 22.34 18.175 40.515 40.515 40.515 22.339 0 40.514-18.175 40.514-40.515 0-14.226-7.54-27.346-19.525-34.629v-10.921h16.884c11.573 0 20.988-9.415 20.988-20.988s-9.415-20.989-20.988-20.989h-32.243l-27.131-24.706c-3.062-2.79-7.807-2.569-10.595.495-2.789 3.062-2.567 7.807.495 10.595l14.953 13.616h-16.271l-53.317-48.553c2.876-2.276 5.393-4.987 7.439-8.042l21.055 19.174c1.438 1.31 3.245 1.955 5.048 1.955 2.037 0 4.067-.825 5.547-2.45 2.789-3.062 2.567-7.807-.495-10.595l-25.512-23.232c.123-1.624.501-3.523.055-8.228l79.264-72.176h102.126c15.154 0 27.483-12.329 27.483-27.483v-16.982c-.002-5.791-4.712-10.501-10.502-10.501zm-19.023 0h-16.72l-31.754-63.918 11.171-11.171zm-199.515-72.959h-105.691v-14.974h105.691zm-120.678 22.488c0-4.129 3.358-7.487 7.487-7.487h120.691c4.128 0 7.486 3.358 7.486 7.487v10.505h-135.664zm0 25.505h135.665v24.966h-135.665zm260.529-27.762 26.195 52.729h-78.924zm-94.89 2.257v50.471h-14.975v-50.471c0-9.77-6.265-18.101-14.986-21.196v-15.51c17.075 3.483 29.961 18.617 29.961 36.706zm-165.652-36.707v15.51c-8.722 3.095-14.987 11.427-14.987 21.197v50.471h-14.975v-50.471c0-18.089 12.887-33.223 29.962-36.707zm-112.373 74.695c0-6.884 5.6-12.483 12.483-12.483h54.928v24.966h-67.411zm126.341 67.449h16.26l53.64 48.852c-2.841 2.312-5.309 5.061-7.313 8.14zm112.109 76.074c0 11.079-9.014 20.092-20.093 20.092s-20.093-9.013-20.093-20.092 9.014-20.093 20.093-20.093 20.093 9.014 20.093 20.093zm-49.326 19.387c2.037 3.061 4.542 5.78 7.411 8.065l-53.388 48.622h-16.273zm-72.747 130.679c0 3.303-2.687 5.989-5.989 5.989s-5.99-2.687-5.99-5.989v-32.015h11.979zm235.466 13.535c0 14.068-11.445 25.515-25.514 25.515s-25.515-11.446-25.515-25.515c0-5.247 1.647-10.263 4.523-14.447v.961c0 11.574 9.416 20.99 20.989 20.99 11.574 0 20.99-9.416 20.99-20.99v-.975c2.879 4.182 4.527 9.199 4.527 14.461zm-19.526-13.485c0 3.303-2.688 5.99-5.99 5.99s-5.989-2.688-5.989-5.99v-32.064h11.979zm37.872-53.053c0 3.302-2.687 5.988-5.988 5.988h-291.687c-3.302 0-5.988-2.687-5.988-5.988 0-3.303 2.687-5.989 5.988-5.989h291.688c3.301 0 5.987 2.686 5.987 5.989zm-99.058-20.989h-105.708l45.801-41.712c3.613.704 8.441 1.126 14.133.028zm-23.405-95.249c-2.012-3.071-4.49-5.809-7.336-8.112l53.567-48.787h16.255zm199.376-84.382c0 6.884-5.6 12.483-12.483 12.483h-193.584c-4.143 0-7.5 3.357-7.5 7.5s3.357 7.5 7.5 7.5h30.646l-45.878 41.784c-3.867-.791-8.947-1.244-15.014.029l-45.911-41.812h41.157c4.143 0 7.5-3.357 7.5-7.5s-3.357-7.5-7.5-7.5h-203.939c-6.884 0-12.483-5.6-12.483-12.483v-12.482h457.49v12.481z"/></g></g></svg>