<svg id="Capa_1" enable-background="new 0 0 512.002 512.002" height="512" viewBox="0 0 512.002 512.002" width="512" xmlns="http://www.w3.org/2000/svg"><g><g><path d="m29.995 400.25 2.1-4.999v-21.439l-2.1-2.946v-31.521l5.1-5.844v-19.25l-5.1-4.291v-31.522l3.017-4.604v-20.166l-3.017-4.614v-35.719l6.183-3.667h89.667v267.333h-91.25l-4.6-3.489z" fill="#b5dcff"/><path d="m92.01 209.668h33.835v267.333h-33.835z" fill="#8bcaff"/><path d="m14.609 182.345h107.401l2.71 1.656v27.25l-2.71 2.084c-57.821 0-100.791 0-107.401 0-3.787 0-6.856-3.069-6.856-6.856v-17.278c0-3.786 3.069-6.856 6.856-6.856z" fill="#ff76aa"/><path d="m92.01 213.335v-30.99h30l2.71 1.656v27.25l-2.71 2.084c-10.539 0-20.578 0-30 0z" fill="#ff5595"/><g fill="#8479c2"><path d="m69.677 370.866h-10.509c-1.979.888-3.359 2.872-3.359 5.181v19.022c0 2.31 1.381 4.293 3.36 5.181h10.509c3.46 0 6.265-2.805 6.265-6.265v-16.855c-.001-3.46-2.806-6.264-6.266-6.264z"/><path d="m30.081 273.861c.102.606.294 1.181.578 1.703-.284-.522-.476-1.097-.578-1.703z"/><path d="m69.677 249.054h-8.189c-3.034 0-5.493 2.459-5.493 5.493v18.398c0 3.033 2.458 5.492 5.491 5.494h8.191c3.46 0 6.265-2.805 6.265-6.265v-16.855c0-3.461-2.805-6.265-6.265-6.265z"/><path d="m30.081 273.861c-.05-.299-.085-.603-.085-.916-.001.313.035.617.085.916z"/><path d="m69.677 309.96h-10.592c-1.942.907-3.29 2.872-3.29 5.157v19.071c0 2.285 1.349 4.25 3.29 5.157h10.593c3.46 0 6.265-2.805 6.265-6.265v-16.855c-.001-3.46-2.806-6.265-6.266-6.265z"/></g><path d="m55.995 272.945v-18.398c0-3.034 2.459-5.493 5.493-5.493h-26c-3.034 0-5.493 2.459-5.493 5.493v18.398c0 3.034 2.459 5.494 5.493 5.494h26c-3.033-.001-5.493-2.46-5.493-5.494z" fill="#6e60b8"/><path d="m61.489 370.866h-31.494v29.385h31.493c-3.034 0-5.493-2.459-5.493-5.494v-18.397c0-3.035 2.46-5.494 5.494-5.494z" fill="#6e60b8"/><path d="m55.995 272.945v-18.398c0-3.034 2.459-5.493 5.493-5.493h-31.493v29.385h31.493c-3.033-.001-5.493-2.46-5.493-5.494z" fill="#6e60b8"/><path d="m61.489 309.96h-31.494v29.385h31.493c-3.034 0-5.493-2.46-5.493-5.494v-18.398c0-3.034 2.46-5.493 5.494-5.493z" fill="#6e60b8"/><path d="m482.512 400.25-2.1-4.999v-21.439l2.1-2.946v-31.521l-5.1-5.844v-19.25l5.1-4.291v-31.522l-3.017-4.604v-20.166l3.017-4.614v-35.719l-6.183-3.667h-89.667v267.333h91.25l4.6-3.489z" fill="#b5dcff"/><path d="m386.662 209.668h33.835v267.333h-33.835z" fill="#8bcaff"/><path d="m497.898 182.345c-6.467 0-49.477 0-107.401 0l-2.71 1.656v27.25l2.71 2.084h107.401c3.787 0 6.856-3.069 6.856-6.856v-17.278c.001-3.786-3.069-6.856-6.856-6.856z" fill="#ff76aa"/><path d="m420.497 213.335v-30.99c-9.422 0-19.46 0-30 0l-2.71 1.656v27.25l2.71 2.084z" fill="#ff5595"/><path d="m465.738 370.866c-1.979.888-3.359 2.872-3.359 5.181v19.022c0 2.31 1.381 4.293 3.36 5.181h16.773v-29.385h-16.774z" fill="#8479c2"/><path d="m442.058 249.054c-3.034 0-5.493 2.459-5.493 5.493v18.398c0 .948.24 1.84.663 2.619-.423-.779-.663-1.67-.663-2.619v-18.398c0-3.034 2.459-5.493 5.493-5.493h26c-3.034 0-5.493 2.459-5.493 5.493v18.398c0 3.033 2.458 5.492 5.491 5.494h14.456v-29.385z" fill="#8479c2"/><path d="m465.654 309.96c-1.942.907-3.29 2.872-3.29 5.157v19.071c0 2.285 1.349 4.25 3.29 5.157h16.858v-29.385z" fill="#8479c2"/><path d="m462.565 394.757v-18.397c0-3.034 2.459-5.494 5.493-5.494h-26c-3.034 0-5.493 2.459-5.493 5.494v18.397c0 3.034 2.459 5.494 5.493 5.494h26c-3.034-.001-5.493-2.46-5.493-5.494z" fill="#6e60b8"/><path d="m462.565 272.945v-18.398c0-3.034 2.459-5.493 5.493-5.493h-26c-3.034 0-5.493 2.459-5.493 5.493v18.398c0 3.034 2.459 5.494 5.493 5.494h26c-3.034-.001-5.493-2.46-5.493-5.494z" fill="#6e60b8"/><path d="m462.565 272.945v-18.398c0-3.034 2.459-5.493 5.493-5.493h-26c-3.034 0-5.493 2.459-5.493 5.493v18.398c0 3.034 2.459 5.494 5.493 5.494h26c-3.034-.001-5.493-2.46-5.493-5.494z" fill="#6e60b8"/><path d="m462.565 333.851v-18.398c0-3.034 2.459-5.494 5.493-5.494h-26c-3.034 0-5.493 2.46-5.493 5.494v18.398c0 3.034 2.459 5.494 5.493 5.494h26c-3.034 0-5.493-2.46-5.493-5.494z" fill="#6e60b8"/><path d="m384.995 131.001h-219.189l-7.319 3.336v339.175l6.319 5.156h216.856l8.835-5.156v-339.175z" fill="#dbedff"/><path d="m160.487 134.337 7.319-3.336h-38.477l-7.319 3.336v339.175l6.319 5.156h38.477l-6.319-5.156z" fill="#b5dcff"/><path d="m396.418 103.347h-71.02l-4.403 2.654-15.79 22.5v5.836h11.957 79.255c3.787 0 6.856-3.069 6.856-6.856v-17.278c.001-3.786-3.069-6.856-6.855-6.856z" fill="#ff76aa"/><path d="m191.495 105.257-4.386-1.91h-30.924c-2.925.83-5.071 3.514-5.071 6.706v17.579c0 3.191 2.146 5.876 5.071 6.706h39.31 11.807v-5.836z" fill="#ff76aa"/><path d="m152.234 127.481v-17.278c0-3.787 3.07-6.856 6.856-6.856h-43c-3.786 0-6.856 3.07-6.856 6.856v17.278c0 3.787 3.07 6.856 6.856 6.856h43c-3.787 0-6.856-3.069-6.856-6.856z" fill="#ff5595"/><path d="m152.234 127.481v-17.278c0-3.787 3.07-6.856 6.856-6.856h-43c-3.786 0-6.856 3.07-6.856 6.856v17.278c0 3.787 3.07 6.856 6.856 6.856h43c-3.787 0-6.856-3.069-6.856-6.856z" fill="#ff5595"/><path d="m152.234 127.481v-17.278c0-3.787 3.07-6.856 6.856-6.856h-43c-3.786 0-6.856 3.07-6.856 6.856v17.278c0 3.787 3.07 6.856 6.856 6.856h43c-3.787 0-6.856-3.069-6.856-6.856z" fill="#ff5595"/><path d="m315.161 373.812h-58.907l-6.14 6.14v93.56l2.958 3.092h66.758l3.547-3.092v-91.485c-.001-4.537-3.679-8.215-8.216-8.215z" fill="#8479c2"/><path d="m232.597 373.812h-5.602l-6.166 7.189v96h31.833l3.592-3.489v-99.7z" fill="#6e60b8"/><path d="m224.382 382.027c0-4.537 3.678-8.215 8.215-8.215h-35.25c-4.537 0-8.215 3.678-8.215 8.215v91.485l3.64 3.489h35.25l-3.64-3.489z" fill="#6353b2"/><path d="m198.297 188.147h-13.302c-2.29.863-3.922 3.068-3.922 5.66v18.063c0 2.593 1.633 4.798 3.923 5.661h13.302c3.256 0 5.896-2.64 5.896-5.896v-17.593c-.001-3.255-2.64-5.895-5.897-5.895z" fill="#8479c2"/><path d="m181.231 211.636v-17.592c0-3.256 2.64-5.896 5.896-5.896h-22.962c-3.256 0-5.896 2.64-5.896 5.896v17.592c0 3.256 2.64 5.896 5.896 5.896h22.963c-3.258 0-5.897-2.64-5.897-5.896z" fill="#6e60b8"/><path d="m270.344 8.874c-30.658 9.316-52.978 37.788-52.978 71.491s22.32 62.175 52.978 71.491c33.497-6.565 58.775-36.071 58.775-71.491s-25.278-64.926-58.775-71.491z" fill="#60b9fe"/><path d="m218.777 80.365c0-34.138 23.481-62.783 55.171-70.69-5.666-1.414-11.59-2.175-17.694-2.175-40.242 0-72.865 32.623-72.865 72.865s32.623 72.865 72.865 72.865c6.104 0 12.028-.761 17.694-2.175-31.69-7.907-55.171-36.552-55.171-70.69z" fill="#1ca8ff"/><path d="m290.791 63.969h-14.201c-2.176 0-3.94-1.764-3.94-3.94v-14.201c0-2.176-1.764-3.94-3.94-3.94h-8.924c-2.176 0-3.94 1.764-3.94 3.94v14.201c0 2.176-1.764 3.94-3.94 3.94h-14.201c-2.176 0-3.94 1.764-3.94 3.94v24.913c0 2.176 1.764 3.94 3.94 3.94h14.201c2.176 0 3.94 1.764 3.94 3.94v14.201c0 2.176 1.763 3.939 3.939 3.94h8.925c2.176 0 3.94-1.764 3.94-3.94v-14.201c0-2.176 1.764-3.94 3.94-3.94h14.201c2.176 0 3.94-1.764 3.94-3.94v-24.913c0-2.176-1.764-3.94-3.94-3.94z" fill="#dbedff"/><path d="m256.846 114.902v-14.201c0-2.176-1.764-3.94-3.94-3.94h-14.201c-2.176 0-3.94-1.764-3.94-3.94v-24.912c0-2.176 1.764-3.94 3.94-3.94h14.201c2.176 0 3.94-1.764 3.94-3.94v-14.201c0-2.176 1.764-3.94 3.94-3.94h-16.989c-2.176 0-3.94 1.764-3.94 3.94v14.201c0 2.176-1.764 3.94-3.94 3.94h-14.201c-2.176 0-3.94 1.764-3.94 3.94v24.913c0 2.176 1.764 3.94 3.94 3.94h14.201c2.176 0 3.94 1.764 3.94 3.94v14.201c0 2.176 1.764 3.94 3.94 3.94h16.989c-2.176-.001-3.94-1.765-3.94-3.941z" fill="#b5dcff"/><path d="m497.898 473.512c-16.745 0-278.437 0-409.831 0-2.646 1.022-4.527 3.583-4.527 6.589v17.812c0 3.006 1.881 5.568 4.527 6.589h409.83c3.787 0 6.856-3.07 6.856-6.856v-17.278c.002-3.786-3.068-6.856-6.855-6.856z" fill="#60b9fe"/><path d="m84.753 497.646v-17.278c0-3.786 3.07-6.856 6.856-6.856-42.639 0-72.367 0-77 0-3.786 0-6.856 3.07-6.856 6.856v17.278c0 3.786 3.07 6.856 6.856 6.856h77c-3.786 0-6.856-3.07-6.856-6.856z" fill="#1ca8ff"/><path d="m273.607 188.147h-13.302c-2.29.863-3.922 3.068-3.922 5.66v18.063c0 2.593 1.633 4.798 3.923 5.661h13.302c3.256 0 5.896-2.64 5.896-5.896v-17.593c-.001-3.255-2.641-5.895-5.897-5.895z" fill="#8479c2"/><path d="m256.54 211.636v-17.592c0-3.256 2.64-5.896 5.896-5.896h-22.962c-3.256 0-5.896 2.64-5.896 5.896v17.592c0 3.256 2.64 5.896 5.896 5.896h22.963c-3.257 0-5.897-2.64-5.897-5.896z" fill="#6e60b8"/><path d="m348.343 188.147h-13.302c-2.29.863-3.922 3.068-3.922 5.66v18.063c0 2.593 1.633 4.798 3.923 5.661h13.302c3.256 0 5.896-2.64 5.896-5.896v-17.593c-.001-3.255-2.64-5.895-5.897-5.895z" fill="#8479c2"/><path d="m331.277 211.636v-17.592c0-3.256 2.64-5.896 5.896-5.896h-22.963c-3.256 0-5.896 2.64-5.896 5.896v17.592c0 3.256 2.64 5.896 5.896 5.896h22.963c-3.257 0-5.896-2.64-5.896-5.896z" fill="#6e60b8"/><path d="m198.297 249.054h-13.302c-2.29.863-3.922 3.068-3.922 5.66v18.063c0 2.593 1.633 4.798 3.923 5.661h13.302c3.256 0 5.896-2.64 5.896-5.896v-17.592c-.001-3.257-2.64-5.896-5.897-5.896z" fill="#8479c2"/><path d="m181.231 272.542v-17.592c0-3.256 2.64-5.896 5.896-5.896h-22.962c-3.256 0-5.896 2.64-5.896 5.896v17.592c0 3.256 2.64 5.896 5.896 5.896h22.963c-3.258 0-5.897-2.64-5.897-5.896z" fill="#6e60b8"/><path d="m273.607 249.054h-13.302c-2.29.863-3.922 3.068-3.922 5.66v18.063c0 2.593 1.633 4.798 3.923 5.661h13.302c3.256 0 5.896-2.64 5.896-5.896v-17.592c-.001-3.257-2.641-5.896-5.897-5.896z" fill="#8479c2"/><path d="m256.54 272.542v-17.592c0-3.256 2.64-5.896 5.896-5.896h-22.962c-3.256 0-5.896 2.64-5.896 5.896v17.592c0 3.256 2.64 5.896 5.896 5.896h22.963c-3.257 0-5.897-2.64-5.897-5.896z" fill="#6e60b8"/><path d="m348.343 249.054h-13.302c-2.29.863-3.922 3.068-3.922 5.66v18.063c0 2.593 1.633 4.798 3.923 5.661h13.302c3.256 0 5.896-2.64 5.896-5.896v-17.592c-.001-3.257-2.64-5.896-5.897-5.896z" fill="#8479c2"/><path d="m331.277 272.542v-17.592c0-3.256 2.64-5.896 5.896-5.896h-22.963c-3.256 0-5.896 2.64-5.896 5.896v17.592c0 3.256 2.64 5.896 5.896 5.896h22.963c-3.257 0-5.896-2.64-5.896-5.896z" fill="#6e60b8"/><path d="m198.297 309.96h-13.302c-2.29.863-3.922 3.068-3.922 5.66v18.063c0 2.593 1.633 4.798 3.923 5.661h13.302c3.256 0 5.896-2.64 5.896-5.896v-17.593c-.001-3.256-2.64-5.895-5.897-5.895z" fill="#8479c2"/><path d="m181.231 333.448v-17.592c0-3.256 2.64-5.896 5.896-5.896h-22.962c-3.256 0-5.896 2.64-5.896 5.896v17.592c0 3.256 2.64 5.896 5.896 5.896h22.963c-3.258 0-5.897-2.64-5.897-5.896z" fill="#6e60b8"/><path d="m273.607 309.96h-13.302c-2.29.863-3.922 3.068-3.922 5.66v18.063c0 2.593 1.633 4.798 3.923 5.661h13.302c3.256 0 5.896-2.64 5.896-5.896v-17.593c-.001-3.256-2.641-5.895-5.897-5.895z" fill="#8479c2"/><path d="m256.54 333.448v-17.592c0-3.256 2.64-5.896 5.896-5.896h-22.962c-3.256 0-5.896 2.64-5.896 5.896v17.592c0 3.256 2.64 5.896 5.896 5.896h22.963c-3.257 0-5.897-2.64-5.897-5.896z" fill="#6e60b8"/><path d="m348.343 309.96h-13.302c-2.29.863-3.922 3.068-3.922 5.66v18.063c0 2.593 1.633 4.798 3.923 5.661h13.302c3.256 0 5.896-2.64 5.896-5.896v-17.593c-.001-3.256-2.64-5.895-5.897-5.895z" fill="#8479c2"/><path d="m331.277 333.448v-17.592c0-3.256 2.64-5.896 5.896-5.896h-22.963c-3.256 0-5.896 2.64-5.896 5.896v17.592c0 3.256 2.64 5.896 5.896 5.896h22.963c-3.257 0-5.896-2.64-5.896-5.896z" fill="#6e60b8"/></g><g><path d="m221.464 104.261h10.641v10.641c0 6.308 5.132 11.44 11.44 11.44h24.913c6.308 0 11.439-5.132 11.439-11.44v-10.641h10.641c6.308 0 11.439-5.132 11.439-11.44v-24.912c0-6.308-5.132-11.44-11.439-11.44h-10.641v-10.641c0-6.308-5.132-11.44-11.439-11.44h-24.913c-6.309 0-11.44 5.132-11.44 11.44v10.641h-10.641c-6.308 0-11.439 5.132-11.439 11.44v24.913c-.001 6.307 5.131 11.439 11.439 11.439zm3.56-32.792h10.641c6.308 0 11.439-5.132 11.439-11.44v-10.641h17.793v10.641c0 6.308 5.132 11.44 11.439 11.44h10.641v17.792h-10.641c-6.308 0-11.439 5.132-11.439 11.44v10.641h-17.793v-10.641c0-6.308-5.132-11.44-11.439-11.44h-10.641z"/><path d="m489.759 220.835h7.887c7.916 0 14.356-6.44 14.356-14.356v-17.278c0-7.916-6.44-14.356-14.356-14.356h-99.901v-33.099c7.175-.789 12.777-6.883 12.777-14.264v-17.278c0-7.916-6.44-14.356-14.356-14.356h-61.31c.982-5.013 1.511-10.186 1.511-15.482-.001-44.314-36.053-80.366-80.366-80.366s-80.365 36.052-80.365 80.365c0 5.296.529 10.469 1.511 15.482h-61.31c-7.916 0-14.356 6.44-14.356 14.356v17.278c0 7.382 5.602 13.475 12.777 14.264v33.099h-99.902c-7.916.001-14.356 6.441-14.356 14.357v17.278c0 7.916 6.44 14.356 14.356 14.356h7.887v245.177h-7.887c-7.916 0-14.356 6.44-14.356 14.356v17.278c0 7.916 6.44 14.356 14.356 14.356h224.145c4.143 0 7.5-3.358 7.5-7.5s-3.357-7.5-7.5-7.5h-223.501v-15.99h482.002v15.99h-223.501c-4.143 0-7.5 3.358-7.5 7.5s3.357 7.5 7.5 7.5h224.145c7.916 0 14.356-6.44 14.356-14.356v-17.278c0-7.916-6.44-14.356-14.356-14.356h-7.887c0-72.346 0-162.549 0-245.177zm-15 171.915h-30.946v-14.385h30.946zm0-60.905h-30.946v-14.385h30.946zm0-60.907h-30.946v-14.385h30.946zm22.243-81.093v15.99c-15.65 0-84.765 0-99.258 0v-15.99zm-166.644-78.998h65.163v15.99h-5.277-68.687c3.671-5.179 6.65-10.729 8.801-15.99zm-74.357-95.847c36.043 0 65.365 29.323 65.365 65.365 0 35.977-29.276 65.365-65.365 65.365-35.865 0-65.365-29.161-65.365-65.365 0-36.042 29.322-65.365 65.365-65.365zm-139.521 95.847h65.163c2.217 5.421 5.216 10.933 8.801 15.99h-68.687-5.277zm-101.48 78.998h99.258v15.99c-12.822 0-84.902 0-99.258 0zm22.243 66.709h30.946v14.385h-30.946zm0 60.906h30.946v14.385h-30.946zm0 60.906h30.946v14.385h-30.946zm0 29.384h32.953c7.164 0 12.993-5.829 12.993-12.994v-18.397c0-7.165-5.829-12.994-12.993-12.994h-32.953v-16.521h32.953c7.164 0 12.993-5.829 12.993-12.994v-18.397c0-7.165-5.829-12.994-12.993-12.994h-32.953v-16.521h32.953c7.164 0 12.993-5.829 12.993-12.994v-18.398c0-7.165-5.829-12.993-12.993-12.993h-32.953v-20.719h77.015v245.177h-77.015zm159.136 58.262v-83.985c0-.394.32-.715.715-.715h51.407v84.7zm67.122 0v-84.7h51.407c.395 0 .715.321.715.715v24.135c0 4.142 3.357 7.5 7.5 7.5s7.5-3.358 7.5-7.5v-24.135c0-8.665-7.05-15.715-15.715-15.715-36.594 0-81.221 0-117.814 0-8.665 0-15.715 7.05-15.715 15.715v83.985h-52.121c0-10.482 0-319.189 0-324.175h74.977c14.479 12.205 32.797 18.893 51.767 18.893 18.336 0 36.823-6.295 51.767-18.893h74.977v324.175h-52.121v-24.85c0-4.142-3.357-7.5-7.5-7.5s-7.5 3.358-7.5 7.5v24.85zm134.243 0v-245.177h77.015v20.719h-32.953c-7.164 0-12.993 5.829-12.993 12.993v18.398c0 7.165 5.829 12.994 12.993 12.994h32.953v16.521h-32.953c-7.164 0-12.993 5.829-12.993 12.994v18.397c0 7.165 5.829 12.994 12.993 12.994h32.953v16.521h-32.953c-7.164 0-12.993 5.829-12.993 12.994v18.397c0 7.165 5.829 12.994 12.993 12.994h32.953v58.261z"/><path d="m313.957 225.032h34.134c7.387 0 13.396-6.009 13.396-13.396v-17.592c0-7.387-6.01-13.396-13.396-13.396h-34.134c-7.387 0-13.396 6.009-13.396 13.396v17.593c.001 7.386 6.009 13.395 13.396 13.395zm1.605-29.385h30.926v14.384h-30.926z"/><path d="m272.78 180.647h-33.559c-7.387 0-13.396 6.009-13.396 13.396v17.593c0 7.387 6.01 13.396 13.396 13.396h33.559c7.387 0 13.396-6.009 13.396-13.396v-17.593c.001-7.386-6.009-13.396-13.396-13.396zm-1.603 29.385h-30.352v-14.385h30.352z"/><path d="m198.045 180.647h-34.134c-7.387 0-13.396 6.009-13.396 13.396v17.592c0 7.387 6.009 13.396 13.396 13.396h34.134c7.387 0 13.396-6.009 13.396-13.396v-17.593c-.001-7.385-6.009-13.395-13.396-13.395zm-1.605 29.385h-30.925v-14.384h30.925z"/><path d="m272.78 241.554h-33.559c-7.387 0-13.396 6.009-13.396 13.396v17.593c0 7.387 6.01 13.396 13.396 13.396h33.559c7.387 0 13.396-6.009 13.396-13.396v-17.593c.001-7.387-6.009-13.396-13.396-13.396zm-1.603 29.384h-30.352v-14.385h30.352z"/><path d="m198.045 241.554h-34.134c-7.387 0-13.396 6.009-13.396 13.396v17.593c0 7.387 6.01 13.396 13.396 13.396h34.133c7.387 0 13.396-6.009 13.396-13.396v-17.593c0-7.387-6.008-13.396-13.395-13.396zm-1.605 29.384h-30.925v-14.385h30.925z"/><path d="m313.957 285.938h34.134c7.385 0 13.395-6.008 13.396-13.396v-17.592c0-7.387-6.01-13.396-13.396-13.396h-34.134c-7.387 0-13.396 6.009-13.396 13.396v17.593c.001 7.386 6.009 13.395 13.396 13.395zm1.605-29.384h30.926v14.384h-30.926z"/><path d="m272.78 302.46h-33.559c-7.387 0-13.396 6.009-13.396 13.396v17.593c0 7.387 6.01 13.396 13.396 13.396h33.559c7.387 0 13.396-6.009 13.396-13.396v-17.593c.001-7.387-6.009-13.396-13.396-13.396zm-1.603 29.385h-30.352v-14.385h30.352z"/><path d="m361.486 333.449v-17.593c0-7.387-6.009-13.396-13.396-13.396h-34.134c-7.387 0-13.396 6.009-13.396 13.396v17.593c0 7.387 6.009 13.396 13.396 13.396h34.134c7.388 0 13.396-6.01 13.396-13.396zm-15-1.604h-30.925v-14.385h30.925z"/><path d="m198.045 302.46h-34.134c-7.387 0-13.396 6.009-13.396 13.396v17.593c0 7.387 6.01 13.396 13.396 13.396h34.133c7.387 0 13.396-6.009 13.396-13.396v-17.593c0-7.387-6.008-13.396-13.395-13.396zm-1.605 29.385h-30.925v-14.385h30.925z"/></g></g></svg>