<svg id="Capa_1" enable-background="new 0 0 512 512" height="512" viewBox="0 0 512 512" width="512" xmlns="http://www.w3.org/2000/svg"><g><g><path d="m148.568 30.901h110.709v63.906h-110.709z" fill="#f58a97" transform="matrix(0 -1 1 0 141.068 266.777)"/><path d="m205.876 7.5h30v110.709h-30z" fill="#f07281"/><path d="m280.923 504.5h-154c-16.569 0-30-13.431-30-30v-57.133l15-91.867-15-91.867v-57.133c0-16.569 13.431-30 30-30h154c16.569 0 30 13.431 30 30v57.133l-15 91.867 15 91.867v57.133c0 16.569-13.432 30-30 30z" fill="#f58a97"/><path d="m280.923 146.5h-30c16.569 0 30 13.432 30 30v298c0 16.568-13.431 30-30 30h30c16.569 0 30-13.432 30-30v-57.133l-15-99.367 15-84.367v-57.133c0-16.568-13.432-30-30-30z" fill="#f07281"/><path d="m259.277 146.5h-110.709v-28.906c0-11.046 8.954-20 20-20h70.709c11.046 0 20 8.954 20 20z" fill="#fdd1d5"/><path d="m239.277 97.594h-30c11.046 0 20 8.954 20 20v28.906h30v-28.906c0-11.046-8.954-20-20-20z" fill="#f6b2bb"/><path d="m342.252 7.5h-191.724c-9.364 0-16.955 7.591-16.955 16.955 0 9.364 7.591 16.955 16.955 16.955h183.692c3.572 0 6.873 1.906 8.66 4.999l7.364 12.752c2.761 4.782 8.876 6.421 13.658 3.661l12.048-6.953c4.784-2.761 6.424-8.878 3.662-13.661l-11.379-19.708c-5.359-9.282-15.263-15-25.981-15z" fill="#fdd1d5"/><path d="m379.612 42.208-11.379-19.708c-5.359-9.282-15.263-15-25.981-15h-30c10.718 0 20.622 5.718 25.981 15l11.379 19.708c2.406 4.168 1.469 9.347-1.976 12.438l2.608 4.517c2.761 4.782 8.876 6.42 13.658 3.661l12.048-6.953c4.784-2.763 6.423-8.879 3.662-13.663z" fill="#f6b2bb"/><path d="m415.078 155.454c0 18.311-14.844 33.155-33.155 33.155s-33.155-14.844-33.155-33.155c0-14.773 21.582-38.338 29.921-46.891 1.773-1.819 4.695-1.819 6.468 0 8.339 8.553 29.921 32.118 29.921 46.891z" fill="#eaf6ff"/><path d="m385.157 108.563c-1.773-1.819-4.695-1.819-6.468 0-2.843 2.916-7.225 7.578-11.766 13.04 8.78 10.56 18.155 24.115 18.155 33.852 0 12.91-7.384 24.089-18.155 29.564 4.505 2.291 9.599 3.59 15 3.59 18.311 0 33.155-14.844 33.155-33.155 0-14.773-21.582-38.338-29.921-46.891z" fill="#d8ecfe"/><path d="m96.923 233.633h214v183.733h-214z" fill="#eaf6ff"/><path d="m280.923 233.633h30v183.733h-30z" fill="#d8ecfe"/><circle cx="203.923" cy="325.5" fill="#aee69c" r="29.442"/></g><path d="m390.526 103.326c-4.646-4.766-12.562-4.765-17.208.001-26.49 27.172-32.05 43.345-32.05 52.127 0 22.417 18.238 40.655 40.655 40.655s40.655-18.238 40.655-40.655c-.001-8.782-5.561-24.955-32.052-52.128zm-8.603 77.783c-14.146 0-25.655-11.509-25.655-25.655 0-7.646 9.994-22.954 25.655-39.437 15.66 16.482 25.655 31.791 25.655 39.437-.001 14.147-11.509 25.655-25.655 25.655zm-14.272-111.791 12.048-6.953c8.267-4.72 11.186-15.723 6.408-23.907l-11.379-19.708c-6.677-11.565-19.121-18.75-32.476-18.75h-75.35c-4.142 0-7.5 3.357-7.5 7.5s3.358 7.5 7.5 7.5h75.35c8.013 0 15.479 4.311 19.485 11.25l11.378 19.708c.751 1.419.414 2.572-.915 3.415l-12.049 6.954c-1.194.688-2.725.278-3.414-.915l-7.364-12.754c-3.116-5.396-8.923-8.748-15.155-8.748h-183.69c-5.213 0-9.455-4.241-9.455-9.455s4.241-9.455 9.455-9.455h81.375c4.142 0 7.5-3.357 7.5-7.5s-3.358-7.5-7.5-7.5h-81.375c-13.484 0-24.455 10.971-24.455 24.455s10.971 24.455 24.455 24.455h13.945v41.49c-13.228 1.983-23.404 13.422-23.404 27.193v21.407h-14.146c-20.678 0-37.5 16.822-37.5 37.5v165.386c0 4.143 3.358 7.5 7.5 7.5s7.5-3.357 7.5-7.5v-100.752h199v168.732h-199v-32.98c0-4.143-3.358-7.5-7.5-7.5s-7.5 3.357-7.5 7.5v97.614c0 20.678 16.822 37.5 37.5 37.5h154c20.678 0 37.5-16.822 37.5-37.5v-298c0-20.678-16.822-37.5-37.5-37.5h-14.146v-21.406c0-13.771-10.177-25.21-23.404-27.193v-41.491h90.847c.891 0 1.72.479 2.165 1.249l7.364 12.753c4.869 8.438 15.669 11.169 23.902 6.406zm-64.228 405.182c0 12.406-10.093 22.5-22.5 22.5h-154c-12.407 0-22.5-10.094-22.5-22.5v-49.634h199zm-123.951-425.59h48.9v41.184h-48.9zm101.451 105.09c12.407 0 22.5 10.094 22.5 22.5v49.634h-199v-49.634c0-12.406 10.093-22.5 22.5-22.5zm-29.146-36.406v21.406h-95.709v-21.406c0-6.893 5.607-12.5 12.5-12.5h70.709c6.893 0 12.5 5.607 12.5 12.5zm-47.854 279.906c39.701 0 72-32.299 72-72 0-39.563-32.517-72-72-72-39.701 0-72 32.299-72 72 0 39.374 32.551 72 72 72zm57-72c0 31.43-25.57 57-57 57-13.016 0-25.02-4.396-34.626-11.767l14.365-14.365c3.822 2.517 8.132 4.349 12.761 5.308v5.571c0 4.143 3.358 7.5 7.5 7.5s7.5-3.357 7.5-7.5v-5.571c4.629-.958 8.939-2.791 12.761-5.308l3.955 3.955c1.464 1.464 3.384 2.196 5.303 2.196s3.839-.732 5.303-2.196c2.929-2.93 2.929-7.678 0-10.607l-3.955-3.955c2.517-3.822 4.349-8.132 5.307-12.761h5.572c4.142 0 7.5-3.357 7.5-7.5s-3.358-7.5-7.5-7.5h-5.572c-.958-4.629-2.79-8.939-5.307-12.761l14.366-14.366c7.371 9.607 11.767 21.61 11.767 34.627zm-76.88 9.273c-1.32-2.819-2.062-5.96-2.062-9.273 0-12.099 9.843-21.942 21.942-21.942 3.313 0 6.454.742 9.273 2.062zm39.759-18.546c1.32 2.819 2.062 5.96 2.062 9.273 0 12.099-9.843 21.942-21.942 21.942-3.313 0-6.454-.742-9.273-2.062zm-76.879 9.273c0-31.43 25.57-57 57-57 13.016 0 25.02 4.396 34.626 11.767l-14.365 14.365c-3.822-2.517-8.132-4.349-12.761-5.308v-5.571c0-4.143-3.358-7.5-7.5-7.5s-7.5 3.357-7.5 7.5v5.571c-4.629.958-8.939 2.791-12.761 5.308l-3.955-3.955c-2.929-2.928-7.678-2.928-10.606 0-2.929 2.93-2.929 7.678 0 10.607l3.955 3.955c-2.517 3.822-4.349 8.132-5.307 12.761h-5.572c-4.142 0-7.5 3.357-7.5 7.5s3.358 7.5 7.5 7.5h5.572c.958 4.629 2.79 8.939 5.307 12.761l-14.366 14.366c-7.372-9.607-11.767-21.61-11.767-34.627z"/></g></svg>