<svg id="Capa_1" enable-background="new 0 0 512.002 512.002" height="512" viewBox="0 0 512.002 512.002" width="512" xmlns="http://www.w3.org/2000/svg"><g><g><path d="m375.65 7.5h-83.755c-8.284 0-15 6.716-15 15v31.373l105.755 31.699z" fill="#87a0af"/><path d="m375.65 7.5v71.072c-24.579-10.377-58.289-20.999-98.755-24.699v77.541h113.755v-108.914c0-8.284-6.715-15-15-15z" fill="#607882"/><path d="m231.895 471.093v-109.813c-14.065 4.69-27.388 9.249-39.82 13.591l19.484 104.838z" fill="#dcf2f6"/><path d="m231.895 361.28v109.812c-4.529.899-8.977 1.772-13.336 2.616l-7 6 10.791 8.15c7.871-1.494 16.063-3.083 24.545-4.766l7.72-16.259-7.72-110.529c-6.061 2.003-11.909 3.946-15 4.976z" fill="#bae6ef"/><path d="m218.559 473.709-26.484-98.838c-42.473 14.833-74.647 27.146-91.201 33.635-7.109 2.787-10.982 10.469-9.006 17.844l17.72 66.132c1.452 2.147 4.528 3.316 7.271 3.311 19.26-.039 101.7-22.084 101.7-22.084z" fill="#e6989e"/><path d="m111.561 492.33c-.662.1-1.319.139-1.972.152l.241.899c1.977 7.378 9.179 12.091 16.732 10.949 17.583-2.658 51.601-8.082 95.789-16.471l-3.791-14.15c-49.642 9.621-87.956 15.743-106.999 18.621z" fill="#df646e"/><path d="m246.895 75.092v392.983c42.969 0 101.634-13.327 154.552-27.228 6.596-1.733 11.203-7.695 11.203-14.515l-7-316.853c0-.458-.055-.906-.136-1.347-24.889-13.985-78.971-38.874-150.977-40.545-4.196-.096-7.642 3.308-7.642 7.505z" fill="#eef9fa"/><path d="m417.247 115.197c-2.547-1.659-6.495-4.121-11.733-7.064.081.441.136.889.136 1.347v309.853c0 6.82-4.607 12.782-11.203 14.515-52.918 13.901-103.569 25.262-147.552 34.228v15.017c44.265-8.787 96.357-20.168 151.268-34.31 13.243-3.41 22.487-15.373 22.487-29.048v-298.255c0-2.538-1.277-4.897-3.403-6.283z" fill="#dcf2f6"/></g><g><path d="m124.291 512.002c-10.037 0-19.036-6.715-21.706-16.681l-3.79-14.142c-1.072-4.001 1.303-8.114 5.303-9.186 4.003-1.075 8.114 1.303 9.186 5.303l3.79 14.143c.989 3.693 4.588 6.05 8.366 5.475 17.78-2.688 48.437-7.592 87.577-14.909l-26.094-97.385c-37.652 13.26-66.565 24.304-83.312 30.868-3.554 1.394-5.488 5.229-4.499 8.92l5.391 20.119c1.072 4.001-1.303 8.114-5.304 9.186-4 1.077-8.113-1.302-9.186-5.303l-5.391-20.119c-2.968-11.076 2.841-22.584 13.512-26.768 24.594-9.641 75.275-28.886 141.259-50.634v-161.544c0-4.143 3.358-7.5 7.5-7.5s7.5 3.357 7.5 7.5v261.979c0 4.143-3.358 7.5-7.5 7.5s-7.5-3.357-7.5-7.5v-84.636c-13.458 4.461-26.243 8.805-38.272 12.973l26.672 99.543c47.735-9.177 106.169-21.632 168.471-37.676 9.941-2.561 16.884-11.522 16.884-21.793v-44.903c0-4.143 3.358-7.5 7.5-7.5s7.5 3.357 7.5 7.5v44.903c0 17.116-11.573 32.051-28.143 36.318-123.282 31.748-231.514 49.524-272.325 55.693-1.136.172-2.27.256-3.389.256zm296.359-159.671c-4.142 0-7.5-3.357-7.5-7.5v-223.352c-15.942-10.387-74.515-44.436-158.777-46.393l.022 84.258c0 4.143-3.358 7.5-7.5 7.5s-7.5-3.357-7.5-7.5v-84.251c0-4.077 1.606-7.892 4.524-10.742 2.908-2.842 6.745-4.378 10.802-4.26 4.976.115 9.871.339 14.674.659v-38.25c0-12.406 10.093-22.5 22.5-22.5h83.755c12.407 0 22.5 10.094 22.5 22.5v46.644c0 4.143-3.358 7.5-7.5 7.5s-7.5-3.357-7.5-7.5v-46.644c0-4.136-3.364-7.5-7.5-7.5h-83.755c-4.136 0-7.5 3.364-7.5 7.5v39.585c72.27 8.056 122.115 37.165 136.946 46.828 4.263 2.777 6.809 7.475 6.809 12.566v223.352c0 4.143-3.358 7.5-7.5 7.5z"/></g></g></svg>