<svg id="Capa_1" enable-background="new 0 0 512 512" height="512" viewBox="0 0 512 512" width="512" xmlns="http://www.w3.org/2000/svg"><g><g><g><path d="m165.173 500.481-28.579 1h-89.74c-21.739 0-39.363-17.623-39.363-39.363v-148.972c0-77.392 59.528-140.881 135.295-147.176 4.086-.34 8.22.487 12.394.487h9.994c21.739 0 38.363 16.623 38.363 38.363v257.299c-.002 21.738-16.625 38.362-38.364 38.362z" fill="#f47c7c"/><path d="m204.54 204.82v257.3c0 21.74-17.63 39.36-39.37 39.36h-30c21.74 0 39.37-17.62 39.37-39.36v-257.3c0-19.43-14.08-35.57-32.59-38.78 4.36-.38 8.77-.58 13.23-.58h9.99c21.74 0 39.37 17.62 39.37 39.36z" fill="#ee6161"/><path d="m346.808 501.481h90.292l28.027-1c21.739 0 38.363-16.623 38.363-38.363v-148.972c0-81.566-65.122-146.689-146.689-146.689h-9.994c-2.308 0-4.57-.801-6.769-.42-18.514 3.209-32.594 19.352-32.594 38.783v257.299c.001 21.738 17.624 39.362 39.364 39.362z" fill="#f47c7c"/><path d="m504.49 313.15v148.97c0 21.74-17.62 39.36-39.36 39.36h-30c21.74 0 39.36-17.62 39.36-39.36v-148.97c0-77.11-59.09-140.41-134.45-147.11 2.2-.38 4.46-.58 6.77-.58h9.99c81.57 0 147.69 66.12 147.69 147.69z" fill="#ee6161"/><path d="m425.794 410.466-42.261-24.259 5.821 30.163c1.636 8.476-3.91 16.674-12.387 18.308-8.475 1.634-16.671-3.912-18.305-12.387l-10.648-55.224c-.172-.893-.724-1.666-1.513-2.119l-88.954-51.063c-.964-.553-2.149-.553-3.112 0l-88.829 50.99c-.789.453-1.341 1.226-1.513 2.119l-10.659 55.294c-1.634 8.477-9.831 14.024-18.308 12.389-8.476-1.634-14.023-9.83-12.389-18.306l4.536-23.539c.506-2.626-2.306-4.634-4.625-3.302l-51.594 29.618c-7.483 4.296-17.032 1.713-21.33-5.769-4.299-7.485-1.716-17.038 5.77-21.336l82.514-47.369c2.384-1.369 1.967-4.927-.668-5.708l-28.135-8.335c-8.275-2.451-12.995-11.146-10.544-19.421 2.451-8.275 11.147-12.996 19.422-10.544l62.43 18.499c.82.243 1.703.139 2.444-.286l55.836-32.056c.971-.557 1.57-1.591 1.57-2.711v-268.383c0-2.877 2.332-5.21 5.21-5.21h11.05l9.789 1c2.877 0-4.79 1.332-4.79 4.21l10 268.372c0 1.119.599 2.154 1.57 2.711l55.878 32.077c.741.425 1.624.529 2.444.286l62.504-18.512c8.275-2.451 16.97 2.27 19.421 10.545 2.451 8.275-2.27 16.971-10.545 19.422l-28.207 8.356c-2.636.781-3.053 4.339-.668 5.708l67.342 38.658c7.487 4.298 10.072 13.853 5.774 21.34-4.302 7.486-13.855 10.071-21.341 5.774z" fill="#8aaadc"/><path d="m256.62 274.1v-263.58h9.79c2.88 0 5.21 2.33 5.21 5.21v268.37c0 .15.01.29.03.44l-13.46-7.73c-.97-.56-1.57-1.59-1.57-2.71z" fill="#7398d4"/></g></g><g><path d="m356.811 157.956h-9.994c-25.84 0-46.862 21.023-46.862 46.863v37.807c0 4.142 3.357 7.5 7.5 7.5s7.5-3.358 7.5-7.5v-37.807c0-17.569 14.293-31.863 31.862-31.863h9.994c77.3 0 140.189 62.889 140.189 140.189v148.973c0 17.569-14.293 31.862-31.862 31.862h-64.548c-4.143 0-7.5 3.358-7.5 7.5s3.357 7.5 7.5 7.5h64.548c25.84 0 46.862-21.022 46.862-46.862v-148.972c0-85.572-69.617-155.19-155.189-155.19z"/><path d="m396.728 414.948-2.719-14.085 28.061 16.107c11.06 6.349 25.225 2.517 31.574-8.543 3.077-5.358 3.883-11.594 2.269-17.559-1.613-5.964-5.453-10.943-10.811-14.02l-58.482-33.572 18.412-5.455c5.923-1.754 10.809-5.71 13.756-11.14s3.604-11.681 1.85-17.603c-3.622-12.228-16.52-19.226-28.742-15.607l-60.708 17.98-16.231-9.318v-26.822c0-4.142-3.357-7.5-7.5-7.5s-7.5 3.358-7.5 7.5v18.211l-20.826-11.955v-130.087h9.171c4.143 0 7.5-3.358 7.5-7.5s-3.357-7.5-7.5-7.5h-9.171v-35.013h9.171c4.143 0 7.5-3.358 7.5-7.5s-3.357-7.5-7.5-7.5h-9.171v-35.013h9.171c4.143 0 7.5-3.358 7.5-7.5s-3.357-7.5-7.5-7.5h-9.171v-20.725c0-7.008-5.701-12.71-12.71-12.71h-20.838c-7.008 0-12.71 5.701-12.71 12.71v20.725h-9.173c-4.143 0-7.5 3.358-7.5 7.5s3.357 7.5 7.5 7.5h9.171v35.013h-9.171c-4.143 0-7.5 3.358-7.5 7.5s3.357 7.5 7.5 7.5h9.171v35.013h-9.171c-4.143 0-7.5 3.358-7.5 7.5s3.357 7.5 7.5 7.5h9.171v130.1l-20.826 11.956v-88.716c0-25.84-21.022-46.863-46.862-46.863h-9.994c-85.572-.001-155.189 69.617-155.189 155.189v148.973c0 25.84 21.022 46.862 46.862 46.862h118.32c25.84 0 46.862-21.022 46.862-46.862v-10.827c0-4.142-3.357-7.5-7.5-7.5s-7.5 3.358-7.5 7.5v10.827c0 17.569-14.293 31.862-31.862 31.862h-118.32c-17.569-.001-31.862-14.294-31.862-31.863v-148.972c0-77.3 62.889-140.189 140.189-140.189h9.994c17.569 0 31.862 14.294 31.862 31.863v97.327l-16.189 9.294-60.634-17.966c-5.925-1.756-12.176-1.098-17.604 1.849-5.429 2.947-9.385 7.832-11.14 13.755-1.754 5.923-1.098 12.174 1.85 17.603s7.833 9.385 13.755 11.139l18.342 5.434-73.656 42.283c-5.358 3.076-9.197 8.055-10.811 14.019-1.613 5.964-.807 12.199 2.271 17.557 6.351 11.056 20.516 14.884 31.566 8.538l43.315-24.865-2.729 14.164c-2.414 12.523 5.811 24.675 18.333 27.089 6.067 1.17 12.227-.093 17.344-3.556s8.579-8.712 9.748-14.778l10.28-53.326 25.958-14.901v63.125c0 4.142 3.357 7.5 7.5 7.5s7.5-3.358 7.5-7.5v-71.734l43.956-25.232 43.955 25.232v115.248c0 25.84 21.022 46.862 46.862 46.862h21.086c4.143 0 7.5-3.358 7.5-7.5s-3.357-7.5-7.5-7.5h-21.086c-17.569 0-31.862-14.293-31.862-31.862v-106.637l26.083 14.973 10.27 53.256c1.169 6.066 4.631 11.314 9.748 14.777 3.872 2.62 8.34 3.98 12.914 3.98 1.47 0 2.951-.141 4.427-.425 6.067-1.169 11.315-4.632 14.777-9.749 3.463-5.118 4.725-11.277 3.554-17.345zm-148.857-396.928h16.258v18.435h-16.258zm0 33.434h16.258v35.013h-16.258zm0 50.013h16.258v35.013h-16.258zm139.405 278.236c-2.545-1.461-5.707-1.303-8.092.401-2.388 1.705-3.562 4.645-3.006 7.525l5.822 30.161c.411 2.132-.032 4.297-1.249 6.096-1.217 1.798-3.061 3.016-5.194 3.427-2.131.413-4.295-.033-6.095-1.25-1.798-1.217-3.015-3.061-3.426-5.193l-10.647-55.222c-.585-3.038-2.459-5.664-5.145-7.206l-88.954-51.064c-1.632-.936-3.461-1.405-5.291-1.405-1.829 0-3.658.469-5.288 1.405l-88.827 50.989c-2.683 1.539-4.558 4.163-5.146 7.206l-10.659 55.294c-.411 2.133-1.628 3.978-3.427 5.195-1.8 1.217-3.966 1.662-6.097 1.25-4.401-.849-7.293-5.12-6.444-9.522l4.535-23.539c.796-4.13-.837-8.214-4.26-10.658-3.426-2.445-7.817-2.66-11.463-.567l-51.596 29.618c-3.886 2.229-8.861.884-11.093-3.001-1.081-1.882-1.364-4.073-.798-6.169.567-2.096 1.916-3.845 3.8-4.926l82.515-47.369c3.692-2.12 5.758-6.222 5.263-10.451s-3.453-7.743-7.535-8.952l-28.136-8.335c-4.296-1.273-6.756-5.803-5.482-10.1.616-2.081 2.006-3.797 3.914-4.833 1.907-1.036 4.105-1.267 6.186-.65l62.428 18.498c2.774.824 5.804.468 8.312-.972l55.836-32.055c3.291-1.889 5.336-5.42 5.336-9.215v-132.634h16.258v132.622c0 3.794 2.044 7.324 5.336 9.215l55.88 32.078c2.507 1.438 5.534 1.792 8.306.972l62.504-18.512c4.289-1.273 8.827 1.187 10.101 5.485.616 2.081.386 4.278-.65 6.186s-2.752 3.298-4.834 3.915l-28.206 8.356c-4.083 1.209-7.041 4.723-7.536 8.952s1.571 8.332 5.264 10.452l67.341 38.658c1.884 1.082 3.234 2.832 3.801 4.928.567 2.097.284 4.289-.797 6.173-2.232 3.889-7.209 5.234-11.1 3.003z"/></g></g></svg>