<svg id="Capa_1" enable-background="new 0 0 511.771 511.771" height="512" viewBox="0 0 511.771 511.771" width="512" xmlns="http://www.w3.org/2000/svg"><g><g><g><path d="m504.502 438.648h-49.118v.01h-234.027l13.369-53.849c4.801-18.411 18.07-33.434 35.749-40.469l69.864-23.883h45.18l49.539 16.937 20.325 6.945c17.669 7.036 30.938 22.058 35.749 40.469l13.359 53.799z" fill="#a2aee6"/><path d="m455.383 344.34v94.318h-20.324v-101.264z" fill="#8795de"/><path d="m504.502 438.648v.01h-20.285v-.01l-13.369-66.737c-2.706-10.373-8.108-20.164-15.464-27.571 17.669 7.036 30.938 22.058 35.749 40.469l13.359 53.799z" fill="#8795de"/><path d="m429.223 308.506h-132.587c-12.22 0-22.127-9.907-22.127-22.127v-136.717c0-29.058 23.556-52.613 52.613-52.613h71.615c29.058 0 52.613 23.556 52.613 52.613v136.717c0 12.22-9.906 22.127-22.127 22.127z" fill="#d19a6e"/><path d="m451.349 149.665v136.712c0 12.227-9.902 22.129-22.129 22.129h-19.132c12.217 0 22.119-9.902 22.119-22.129v-136.712c0-29.064-23.552-52.616-52.606-52.616h19.132c29.064 0 52.616 23.552 52.616 52.616z" fill="#c38c66"/><path d="m336.788 279.805h52.28v42.068c0 5.334-3.242 10.189-8.233 12.071-11.533 4.35-24.281 4.35-35.814 0-4.991-1.882-8.233-6.738-8.233-12.071z" fill="#ffe5c2"/><path d="m368.75 279.805v42.068c0 5.334-3.242 10.189-8.233 12.071-2.532.955-5.125 1.688-7.748 2.224 9.326 1.904 19.065 1.172 28.066-2.224 4.991-1.882 8.233-6.737 8.233-12.071v-42.068z" fill="#fed2a4"/><g><path d="m307.184 240.096h-24.421c-7.355 0-13.318-5.963-13.318-13.318v-24.319c0-7.355 5.963-13.318 13.318-13.318h16.893z" fill="#ffe5c2"/><path d="m299.657 189.142h-16.893c-.21 0-.415.022-.623.031l.326 50.908c.1.002.197.015.297.015h24.421z" fill="#fed2a4"/><path d="m443.092 240.096h-23.064l6.17-50.954h16.893c7.355 0 13.318 5.963 13.318 13.318v24.319c.001 7.354-5.961 13.317-13.317 13.317z" fill="#ffe5c2"/><path d="m443.092 189.142h-16.893l-.004.031c7.066.326 12.024 6.141 12.024 13.287v24.319c0 7.355-5.288 13.318-12.644 13.318h17.516c7.355 0 13.318-5.963 13.318-13.318v-24.319c.001-7.356-5.961-13.318-13.317-13.318z" fill="#fed2a4"/><path d="m432.21 189.142v38.227c0 31.63-25.641 57.271-57.271 57.271h-24.022c-31.63 0-57.271-25.641-57.271-57.271v-38.227z" fill="#ffe5c2"/><path d="m411.893 189.142v38.227c0 31.63-25.641 57.271-57.271 57.271h20.318c31.63 0 57.271-25.641 57.271-57.271v-38.227z" fill="#fed2a4"/></g></g><g><g><path d="m290.646 438.648h-49.118v.01h-234.026l13.369-53.849c4.801-18.411 18.07-33.434 35.749-40.469l69.864-23.883h45.18l49.539 16.937 20.325 6.945c17.669 7.036 30.938 22.058 35.749 40.469l13.359 53.799z" fill="#ffe270"/><path d="m241.528 344.34v94.318h-20.325v-101.264z" fill="#ffd15b"/><path d="m290.646 438.648v.01h-20.285v-.01l-13.369-66.737c-2.706-10.373-8.108-20.164-15.464-27.571 17.669 7.036 30.938 22.058 35.749 40.469l13.359 53.799z" fill="#ffd15b"/><g><path d="m57.454 291.413-.048-.048c-6.751-6.751-6.751-17.695 0-24.446l22.387-22.387c6.751-6.751 17.695-6.751 24.446 0l.048.048c6.751 6.751 6.751 17.695 0 24.446l-22.387 22.387c-6.751 6.75-17.696 6.75-24.446 0z" fill="#d19a6e"/><path d="m104.286 244.58-.048-.048c-6.102-6.102-15.621-6.669-22.382-1.739.719.524 1.416 1.09 2.064 1.739l.048.048c6.751 6.751 6.751 17.695 0 24.446l-22.387 22.387c-.649.649-1.346 1.215-2.064 1.739 6.761 4.93 16.28 4.363 22.382-1.739l22.387-22.387c6.751-6.751 6.751-17.695 0-24.446z" fill="#c38c66"/><path d="m240.691 291.413.048-.048c6.751-6.751 6.751-17.695 0-24.446l-22.387-22.387c-6.751-6.751-17.695-6.751-24.446 0l-.048.048c-6.751 6.751-6.751 17.695 0 24.446l22.387 22.387c6.751 6.75 17.696 6.75 24.446 0z" fill="#d19a6e"/><path d="m240.74 266.918-22.387-22.387c-6.102-6.102-15.621-6.669-22.382-1.739.718.524 1.416 1.09 2.064 1.739l22.387 22.387c6.751 6.751 6.751 17.695 0 24.446l-.048.048c-.649.649-1.346 1.215-2.064 1.739 6.761 4.93 16.28 4.363 22.382-1.739l.048-.048c6.75-6.75 6.75-17.695 0-24.446z" fill="#c38c66"/></g><path d="m237.493 217.525h-176.841v-67.863c0-29.058 23.556-52.613 52.613-52.613h71.615c29.058 0 52.613 23.556 52.613 52.613z" fill="#d19a6e"/><path d="m184.88 97.048h-20.317c29.058 0 52.613 23.556 52.613 52.613v67.863h20.317v-67.863c0-29.057-23.556-52.613-52.613-52.613z" fill="#c38c66"/><path d="m122.933 279.805h52.28v42.068c0 5.334-3.242 10.189-8.233 12.071-11.533 4.35-24.281 4.35-35.814 0-4.991-1.882-8.233-6.738-8.233-12.071z" fill="#ffe5c2"/><path d="m154.895 279.805v42.068c0 5.334-3.242 10.189-8.233 12.071-2.532.955-5.125 1.688-7.748 2.224 9.326 1.904 19.065 1.172 28.066-2.224 4.991-1.882 8.233-6.737 8.233-12.071v-42.068z" fill="#fed2a4"/><g><path d="m93.329 240.096h-24.421c-7.355 0-13.318-5.963-13.318-13.318v-24.319c0-7.355 5.963-13.318 13.318-13.318h16.893z" fill="#ffe5c2"/><path d="m85.801 189.142h-16.893c-.21 0-.415.022-.623.031l.326 50.908c.1.002.197.015.297.015h24.421z" fill="#fed2a4"/><path d="m229.237 240.096h-23.064l6.17-50.954h16.893c7.355 0 13.318 5.963 13.318 13.318v24.319c.001 7.354-5.962 13.317-13.317 13.317z" fill="#ffe5c2"/><path d="m229.237 189.142h-16.893l-.004.031c7.066.326 13.092 6.141 13.092 13.287v24.319c0 7.355-6.356 13.318-13.712 13.318h17.516c7.355 0 13.318-5.963 13.318-13.318v-24.319c.001-7.356-5.962-13.318-13.317-13.318z" fill="#fed2a4"/><path d="m218.355 189.142v38.227c0 31.63-25.641 57.271-57.271 57.271h-24.022c-31.63 0-57.271-25.641-57.271-57.271v-38.227z" fill="#ffe5c2"/><path d="m198.037 189.142v38.227c0 31.63-25.641 57.271-57.271 57.271h20.318c31.63 0 57.271-25.641 57.271-57.271v-38.227z" fill="#fed2a4"/></g></g></g><path d="m350.091 85.861h25.677v25.647h-25.677z" fill="#fe5694"/><path d="m362.928 85.863h12.84v25.64h-12.84z" fill="#fd3581"/><path d="m350.091 85.861-18.216-11.542c-5.549-3.516-12.795.471-12.795 7.04v33.987c0 6.471 7.053 10.473 12.608 7.155l18.403-10.992z" fill="#fe5694"/><path d="m350.09 85.863v25.64l-18.4 11c-3.9 2.33-8.53 1.05-10.94-2.15l14.82-8.85v-25.64l-14.89-9.43c2.45-3.32 7.25-4.61 11.2-2.11z" fill="#fd3581"/><path d="m375.768 85.861 18.216-11.542c5.549-3.516 12.795.471 12.795 7.04v33.987c0 6.471-7.053 10.473-12.608 7.155l-18.403-10.992z" fill="#fe5694"/><path d="m406.776 81.363v33.98c0 6.47-7.05 10.48-12.61 7.16l-4.34-2.59c.85-1.29 1.36-2.84 1.36-4.57v-33.98c0-1.69-.48-3.2-1.28-4.46l4.08-2.58c5.55-3.52 12.79.47 12.79 7.04z" fill="#fd3581"/></g><g><path d="m498.388 382.912c-1.866-7.139-4.869-13.881-8.926-20.038-2.279-3.46-6.93-4.417-10.389-2.137-3.459 2.279-4.416 6.931-2.136 10.389 3.154 4.787 5.488 10.028 6.916 15.49l13.362 53.809 7.287-1.777 7.269-1.848z"/><path d="m458.85 149.661c0-14.456-5.207-28.428-14.661-39.342-7.915-9.137-18.368-15.634-29.911-18.724v-10.236c.337-11.291-13.539-20.17-24.309-13.375l-16.377 10.377h-21.326l-16.376-10.377c-9.358-6.328-24.285.64-24.31 13.375v33.987c.141 10.948 12.07 20.24 23.954 13.593l16.625-9.931h21.539l16.626 9.931c8.421 5.878 24.308-.751 23.954-13.593v-8.025c17.343 6.422 29.572 23.291 29.572 42.341v32.019c-2.232-.075-159.648-.073-161.842 0v-32.019c0-11.154 4.103-21.86 11.552-30.147 2.769-3.08 2.517-7.822-.563-10.591-3.081-2.771-7.823-2.518-10.592.563-9.929 11.044-15.396 25.312-15.396 40.175v39.231c-3.146 3.648-5.062 8.384-5.062 13.567v24.319c0 5.183 1.917 9.919 5.062 13.567v46.033c0 16.336 13.291 29.627 29.627 29.627h32.653v.303c-10.133 4.027-66.017 20.886-73.316 27.135-6.736-6.081-64.241-23.491-73.261-27.135v-27.894c4.728-1.68 9.2-3.898 13.353-6.575l14.877 14.876c8.585 8.947 25.447 10 35.102-.048 9.663-9.664 9.663-25.388 0-35.053l-14.2-14.2c10.251-1.289 18.212-10.042 18.212-20.636v-24.319c0-5.183-1.916-9.918-5.062-13.566v-39.232c0-33.146-26.967-60.113-60.113-60.113h-71.615c-33.146 0-60.113 26.967-60.113 60.113v39.232c-3.145 3.648-5.062 8.383-5.062 13.566v24.319c0 10.594 7.961 19.348 18.212 20.636l-14.2 14.201c-9.663 9.664-9.663 25.388.048 35.1 8.584 8.925 25.349 10.01 35.053.001l14.878-14.877c4.153 2.676 8.624 4.895 13.352 6.575v27.895l-61.239 20.935c-19.305 7.417-35.347 25.07-40.602 45.758l-13.37 53.847c-.999 4.021 1.452 8.089 5.472 9.087.607.15 1.214.223 1.813.223 3.365 0 6.426-2.281 7.273-5.694l13.348-53.764c4.166-15.978 15.785-29.171 31.098-35.326l58.552-20.016c2.264 4.337 6.031 7.827 10.739 9.602 6.628 2.5 13.59 3.75 20.554 3.75 6.962 0 13.927-1.25 20.553-3.75 4.709-1.775 8.477-5.266 10.741-9.603l58.554 20.017c15.306 6.155 26.924 19.35 31.078 35.241l13.383 53.892c.867 3.385 3.906 5.623 7.246 5.623.61 0 1.23-.075 1.849-.231 4.006-1.01 6.435-5.09 5.439-9.1l-13.382-53.888c-2.899-11.096-8.609-21.13-16.329-29.279-.206-1.05 61.721-21.502 63.431-22.275 2.264 4.337 6.031 7.827 10.739 9.602 6.628 2.5 13.59 3.75 20.555 3.75 6.962 0 13.927-1.25 20.553-3.75 4.709-1.775 8.477-5.266 10.741-9.603l58.736 20.079c.804.275 1.622.405 2.426.405 3.119 0 6.032-1.961 7.097-5.077 1.339-3.919-.752-8.183-4.672-9.521l-61.241-20.936v-.302h32.655c16.336 0 29.627-13.291 29.627-29.627v-46.036c3.144-3.647 5.06-8.382 5.06-13.564v-24.319c0-5.182-1.916-9.917-5.06-13.564v-39.235zm-131.007-33.599c.047-.113-1.051.495-1.262-.716v-33.987c-.063.133.389-1.291 1.281-.705l14.729 9.334v17.265zm29.748-22.701h10.677v10.647h-10.677zm41.265 22.71c-.422.241-.714.065-.839-.009l-14.749-8.81v-17.264l14.73-9.334c-.048.114 1.064-.523 1.28.705v33.987c.001.145.001.485-.422.725zm-163.393 169.963c-2.917 2.838-8.845 4.557-13.915.074l-13.844-13.844c4.613-4.789 8.5-10.278 11.476-16.299l16.255 16.255c3.817 3.817 3.817 10.025.028 13.814zm-.408-59.255c0 3.208-2.61 5.817-5.818 5.817h-3.612c.139-1.726.229-3.465.229-5.227v-30.728h3.382c3.208 0 5.818 2.609 5.818 5.817v24.321zm-121.79-122.231h71.615c24.875 0 45.113 20.237 45.113 45.113v32.019c-7.788-.103-30.472-.005-38.224-.037v-41.856c0-4.143-3.358-7.5-7.5-7.5s-7.5 3.357-7.5 7.5v41.856h-42.815c-4.142 0-7.5 3.357-7.5 7.5s3.358 7.5 7.5 7.5h76.9v30.727c0 27.444-22.328 49.771-49.771 49.771h-24.022c-27.444 0-49.771-22.327-49.771-49.771v-30.727h11.158c4.142 0 7.5-3.357 7.5-7.5s-3.358-7.5-7.5-7.5c-7.348.037-22.973-.072-30.297.037v-32.019c.001-24.876 20.238-45.113 45.114-45.113zm-50.175 122.231v-24.319c0-3.208 2.61-5.817 5.818-5.817h3.382v30.728c0 1.761.091 3.5.229 5.227h-3.612c-3.207-.002-5.817-2.611-5.817-5.819zm13.506 59.331c-2.953 2.785-8.796 4.469-13.887-.048-3.816-3.816-3.816-10.024 0-13.84l16.256-16.256c2.976 6.021 6.863 11.51 11.476 16.299zm87.737 40.816c-9.841 3.713-20.68 3.713-30.521 0-2.021-.762-3.378-2.793-3.378-5.054v-30.068c8.477.494 27.493.621 37.279 0v30.068c-.001 2.261-1.359 4.292-3.38 5.054zm284.577-124.467v24.319c0 3.208-2.61 5.817-5.818 5.817h-3.612c.139-1.726.229-3.465.229-5.227v-30.728h3.382c3.21.002 5.819 2.611 5.819 5.819zm-24.2 24.91c0 27.444-22.327 49.771-49.771 49.771h-24.022c-27.444 0-49.771-22.327-49.771-49.771v-30.727h123.564zm-138.564-30.727v30.728c0 1.761.091 3.5.229 5.227h-3.611c-3.208 0-5.818-2.609-5.818-5.817v-24.319c0-3.208 2.61-5.817 5.818-5.817h3.382zm10.489 104.364c-8.065 0-14.627-6.562-14.627-14.627v-38.822c.334.061 6.184.033 7.389.038 6.263 18.999 21.085 34.135 39.891 40.818v12.592h-32.653zm84.933 20.866c0 2.261-1.358 4.291-3.38 5.054-9.841 3.713-20.68 3.713-30.521 0-2.021-.762-3.378-2.793-3.378-5.054v-30.068c8.477.493 27.493.621 37.28 0v30.068zm47.655-20.866h-32.655v-12.592c18.805-6.683 33.628-21.819 39.891-40.818.847-.029 6.068.06 7.392-.038v38.822c-.001 8.065-6.562 14.626-14.628 14.626z"/><path d="m149.073 228.127c4.142 0 7.5-3.357 7.5-7.5v-4.981c0-4.143-3.358-7.5-7.5-7.5s-7.5 3.357-7.5 7.5v4.981c0 4.143 3.357 7.5 7.5 7.5z"/><path d="m149.073 261.637c8.271 0 15.773-4.225 20.069-11.302 2.149-3.541 1.021-8.153-2.52-10.303-3.541-2.148-8.153-1.021-10.303 2.52-1.553 2.558-4.262 4.085-7.247 4.085s-5.694-1.527-7.247-4.085c-2.149-3.542-6.762-4.669-10.303-2.52s-4.669 6.762-2.52 10.303c4.297 7.077 11.8 11.302 20.071 11.302z"/><path d="m362.928 228.127c4.142 0 7.5-3.357 7.5-7.5v-4.981c0-4.143-3.358-7.5-7.5-7.5s-7.5 3.357-7.5 7.5v4.981c0 4.143 3.358 7.5 7.5 7.5z"/><path d="m362.928 261.637c8.271 0 15.773-4.225 20.069-11.302 2.149-3.541 1.021-8.153-2.52-10.303-3.541-2.148-8.153-1.021-10.303 2.52-1.553 2.558-4.262 4.085-7.247 4.085s-5.694-1.527-7.247-4.085c-2.149-3.542-6.763-4.669-10.303-2.52-3.541 2.149-4.669 6.762-2.52 10.303 4.298 7.077 11.8 11.302 20.071 11.302z"/><path d="m221.357 366.456c-4.142 0-7.5 3.357-7.5 7.5v64.701c0 4.143 3.358 7.5 7.5 7.5s7.5-3.357 7.5-7.5v-64.701c0-4.142-3.358-7.5-7.5-7.5z"/><path d="m435.058 366.456c-4.142 0-7.5 3.357-7.5 7.5v64.701c0 4.143 3.358 7.5 7.5 7.5s7.5-3.357 7.5-7.5v-64.701c0-4.142-3.358-7.5-7.5-7.5z"/><path d="m76.787 366.456c-4.142 0-7.5 3.357-7.5 7.5v64.701c0 4.143 3.358 7.5 7.5 7.5s7.5-3.357 7.5-7.5v-64.701c0-4.142-3.358-7.5-7.5-7.5z"/><circle cx="113.871" cy="216.984" r="7.5"/><circle cx="184.272" cy="216.984" r="7.5"/><circle cx="327.728" cy="216.988" r="7.5"/><circle cx="398.128" cy="216.988" r="7.5"/></g></g></svg>