<svg id="Capa_1" enable-background="new 0 0 512.01 512.01" height="512" viewBox="0 0 512.01 512.01" width="512" xmlns="http://www.w3.org/2000/svg"><g><g><g><path d="m173.057 504.51h-37.012l-1.563-1.133c-5.523 0-10-4.477-10-10l.872-12.11c0-4.327 1.404-8.538 4-12l8.703-14.757 16.233-2.995 13.767 2.995 11 14.667c2.596 3.462 4 7.673 4 12v13.333c0 5.523-4.477 10-10 10z" fill="#bde4ff"/><path d="m151.045 454.51-11 14.67c-2.59 3.46-4 7.67-4 12v23.33h-2.99c-5.52 0-10-4.48-10-10v-13.33c0-4.33 1.41-8.54 4-12l11-14.67 6.409-2.417z" fill="#99dbff"/><path d="m168.057 424.51h-30l6.737 15-6.737 15h30v-17l-3.034-5.564z" fill="#e8e8e8"/><path d="m168.055 424.51v13h-12c-2.761 0-5 2.239-5 5v12h-13v-30l14.666-6.849z" fill="#d8d8d8"/></g><g><path d="m276.006 504.51h-37.012l-1.563-1.133c-5.523 0-10-4.477-10-10l.872-12.11c0-4.327 1.404-8.538 4-12l8.703-14.757 16.233-2.995 13.767 2.995 11 14.667c2.596 3.462 4 7.673 4 12v13.333c0 5.523-4.477 10-10 10z" fill="#bde4ff"/><path d="m253.994 454.51-11 14.67c-2.59 3.46-4 7.67-4 12v23.33h-2.99c-5.52 0-10-4.48-10-10v-13.33c0-4.33 1.41-8.54 4-12l11-14.67 6.409-2.417z" fill="#99dbff"/><path d="m271.006 424.51h-30l6.737 15-6.737 15h30v-17l-3.033-5.564z" fill="#e8e8e8"/><path d="m271.004 424.51v13h-12c-2.761 0-5 2.239-5 5v12h-13v-30l14.666-6.849z" fill="#d8d8d8"/></g><g><path d="m378.955 504.51h-37.012l-1.563-1.133c-5.523 0-10-4.477-10-10l.872-12.11c0-4.327 1.404-8.538 4-12l8.703-14.757 16.233-2.995 13.767 2.995 11 14.667c2.596 3.462 4 7.673 4 12v13.333c0 5.523-4.477 10-10 10z" fill="#bde4ff"/><path d="m356.943 454.51-11 14.67c-2.59 3.46-4 7.67-4 12v23.33h-2.99c-5.52 0-10-4.48-10-10v-13.33c0-4.33 1.41-8.54 4-12l11-14.67 6.409-2.417z" fill="#99dbff"/><path d="m373.955 424.51h-30l6.737 15-6.737 15h30v-17l-3.033-5.564z" fill="#e8e8e8"/><path d="m373.953 424.51v13h-12c-2.761 0-5 2.239-5 5v12h-13v-30l14.666-6.849z" fill="#d8d8d8"/></g><path d="m248.005 58.51h23v336h-23z" fill="#f8f7f7"/><path d="m241.005 58.51h14v336h-14z" fill="#e8e8e8"/><path d="m272.005 92.51h-31l-1.174-.995c-4.971 0-7.514-5.268-7.514-10.239l-1.312-43.766h50l-2.862 31.628 2.862 6.522v7.85c0 4.971-4.029 9-9 9z" fill="#e8e8e8"/><path d="m281.005 37.51h-40-10v38.15 7.85c0 4.971 4.029 9 9 9h1v-10.85c0-3.314 2.686-6 6-6h34z" fill="#d8d8d8"/><path d="m339.017 12.763-1.779 1.537c-9.747 8.422-22.198 13.056-35.08 13.056h-78.323c-9.588 0-18.823-3-27.036-7.948-1.893-1.141-3.901-1.738-5.884-1.87 0 0-12.845 7.542-12.571 16.095l.633 20.394c-.275 9.789 9.252 16.82 18.074 11.429 8.339-5.096 17.924-7.794 27.699-7.794h77.841c13.449 0 26.408 5.051 36.31 14.153 3.984 3.662 9.197 5.694 14.608 5.694 11.922 0 20.619-6.565 20.619-18.486l.967-4.885v-25.042c0-11.922-9.664-21.586-21.586-21.586h-.38c-5.181 0-10.19 1.865-14.112 5.253z" fill="#bde4ff"/><path d="m370.775 60.19c-.051.046-.101.091-.153.137-7.299 6.492-18.247 6.836-26.053.963-11.927-8.972-25.893-14.839-41.974-14.63h-77.84c-8.333 0-16.549 1.547-24.246 4.531-4.616 1.79-9.594-1.545-9.594-6.495v-27.157c-7.15-.48-14 5.112-14 13.112v26.72c0 10.34 11.31 16.48 20.14 11.09 8.34-5.1 17.92-7.8 27.7-7.8h73.82 4.02c13.45 0 26.41 5.05 36.31 14.16 1.99 1.83 4.29 3.25 6.76 4.22 2.48.96 5.14 1.47 7.85 1.47 5.96 0 11.35-2.42 15.26-6.32 3.91-3.91 6.32-9.3 6.32-15.27v-4.921c-1.07 2.32-2.54 4.41-4.32 6.19z" fill="#99dbff"/><path d="m286.005 394.51-29.701 5.564-27.785-5.564 15-31h27.486z" fill="#bde4ff"/><path d="m255.005 363.51-15 31-7.688 4.491-6.312-4.491 15-31z" fill="#99dbff"/><path d="m379.289 422.492-246.807.537c-4.418 0-8-3.582-8-8 0-5.559 1.595-8.068 4.995-11.94 2.557-2.912 8.676-7.473 8.676-7.473 2.171-.717 4.492-1.105 6.903-1.105h221.896c10.07 0 18.56 6.766 21.172 16 0 0-.836 1.902-.836 3.982.001 4.417-3.58 7.999-7.999 7.999z" fill="#f8f7f7"/><path d="m388.955 416.51c0 2.21-.89 4.21-2.34 5.66-1.45 1.44-3.45 2.34-5.66 2.34h-249.9c-4.42 0-8-3.58-8-8 0-6.08 2.46-11.58 6.44-15.56 2.41-2.4 5.36-4.25 8.66-5.33-.71 2.17-1.1 4.48-1.1 6.89 0 4.42 3.58 8 8 8h243.07c.54 1.91.83 3.92.83 6z" fill="#e8e8e8"/></g><path d="m381.453 452.01v-20.025c8.314-.267 15-7.097 15-15.475 0-16.267-13.234-29.5-29.5-29.5h-76.246l-12.203-25.219v-114.334c0-4.142-3.358-7.5-7.5-7.5s-7.5 3.358-7.5 7.5v108.553h-15v-256h15v112.447c0 4.142 3.358 7.5 7.5 7.5s7.5-3.358 7.5-7.5v-113.786c5.875-2.528 10-8.37 10-15.161v-15.347h14.087c11.601 0 22.694 4.324 31.234 12.174 5.382 4.948 12.373 7.672 19.684 7.672 16.038 0 29.086-13.048 29.086-29.086v-29.827c0-16.038-13.048-29.086-29.086-29.086-6.824-.219-15.6 3.139-21.175 8.616-8.382 7.242-19.099 11.231-30.177 11.231h-27.046c-4.142 0-7.5 3.358-7.5 7.5s3.358 7.5 7.5 7.5h27.046c14.678 0 28.877-5.285 39.984-14.881 2.557-2.466 6.141-4.837 11.368-4.965 7.767 0 14.086 6.319 14.086 14.086v29.828c0 7.767-6.319 14.086-14.086 14.086-3.541 0-6.926-1.319-9.532-3.715-11.316-10.402-26.014-16.131-41.386-16.131h-77.841c-11.159 0-22.089 3.076-31.61 8.894-2.667 1.63-5.024.647-5.914.148-.846-.474-2.812-1.895-2.812-4.837v-26.719c0-2.96 1.997-4.408 2.854-4.893.86-.486 3.13-1.449 5.66.074 9.797 5.903 20.485 9.024 30.906 9.024h16.277c4.142 0 7.5-3.358 7.5-7.5s-3.358-7.5-7.5-7.5h-16.277c-7.693 0-15.704-2.376-23.165-6.872-6.451-3.886-14.219-3.994-20.78-.287-6.56 3.706-10.477 10.417-10.477 17.953v26.717c0 7.542 3.916 14.242 10.475 17.92 6.651 3.73 14.528 3.568 21.074-.432 6.809-4.161 14.58-6.432 22.542-6.65v15.305c0 6.791 4.125 12.633 10 15.161v263.12l-12.203 25.219h-25.04c-4.142 0-7.5 3.358-7.5 7.5s3.358 7.5 7.5 7.5h170.693c7.995 0 14.5 6.505 14.5 14.5 0 .276-.224.5-.5.5h-249.896c-.276 0-.5-.224-.5-.5 0-7.995 6.505-14.5 14.5-14.5h16.204c4.142 0 7.5-3.358 7.5-7.5s-3.358-7.5-7.5-7.5h-16.204c-16.266 0-29.5 13.233-29.5 29.5 0 8.378 6.686 15.208 15 15.475v20.025l-9.5 12.666c-3.547 4.729-5.5 10.589-5.5 16.5v13.333c0 9.649 7.851 17.5 17.5 17.5h40c9.649 0 17.5-7.851 17.5-17.5v-13.333c0-5.912-1.953-11.771-5.5-16.5l-9.5-12.667v-20h57.948v20l-9.5 12.666c-3.547 4.729-5.5 10.589-5.5 16.5v13.333c0 9.649 7.851 17.5 17.5 17.5h40c9.649 0 17.5-7.851 17.5-17.5v-13.333c0-5.912-1.953-11.771-5.5-16.5l-9.5-12.667v-20h57.948v20l-9.5 12.666c-3.547 4.729-5.5 10.589-5.5 16.5v13.333c0 9.649 7.851 17.5 17.5 17.5h40c9.649 0 17.5-7.851 17.5-17.5v-13.333c0-5.912-1.953-11.771-5.5-16.5zm-107.948-368.5c0 .827-.673 1.5-1.5 1.5h-32c-.827 0-1.5-.673-1.5-1.5v-15.347h35zm-27.797 287.5h20.595l7.742 16h-36.079zm-70.151 123.5c0 1.378-1.122 2.5-2.5 2.5h-40c-1.378 0-2.5-1.122-2.5-2.5v-13.333c0-2.687.888-5.351 2.5-7.5l8.75-11.667h22.5l8.75 11.667c1.612 2.149 2.5 4.812 2.5 7.5zm-15-47.5h-15v-15h15zm117.948 47.5c0 1.378-1.122 2.5-2.5 2.5h-40c-1.378 0-2.5-1.122-2.5-2.5v-13.333c0-2.687.888-5.351 2.5-7.5l8.75-11.667h22.5l8.75 11.667c1.612 2.149 2.5 4.812 2.5 7.5zm-15-47.5h-15v-15h15zm102.948-15v15h-15v-15zm15 62.5c0 1.378-1.122 2.5-2.5 2.5h-40c-1.378 0-2.5-1.122-2.5-2.5v-13.333c0-2.687.888-5.351 2.5-7.5l8.75-11.667h22.5l8.75 11.667c1.612 2.149 2.5 4.812 2.5 7.5z"/></g></svg>