<svg id="Capa_1" enable-background="new 0 0 512 512" height="512" viewBox="0 0 512 512" width="512" xmlns="http://www.w3.org/2000/svg"><g><g><path d="m377.379 504.5h-242.758c-11.046 0-20-8.954-20-20v-57.468h282.759v57.468c-.001 11.046-8.955 20-20.001 20z" fill="#fef0ae"/><path d="m367.379 427.032v57.468c0 11.046-8.954 20-20 20h30c11.046 0 20-8.954 20-20v-57.468z" fill="#fee97d"/><g><path d="m427.512 152.116c-2.023.016-3.955-.828-5.298-2.342-14.986-16.898-36.853-27.553-61.214-27.553-27.151 0-51.197 13.238-66.075 33.602-1.888 2.585-5.284 3.553-8.251 2.351-9.473-3.836-19.825-5.953-30.674-5.953-11.143 0-21.76 2.239-31.44 6.276-2.066.862-4.409.698-6.325-.46-15.248-9.214-33.121-14.52-52.235-14.52-18.646 0-36.112 5.047-51.111 13.846-2.012 1.18-4.458 1.263-6.576.285-8.007-3.694-16.976-5.658-26.43-5.406-30.766.819-56.08 25.51-57.612 56.249-1.425 28.606 17.434 53.032 43.449 60.199 10.782 44.272 50.689 77.139 98.28 77.139 28.954 0 55.063-12.167 73.503-31.665 5.329 1.091 10.846 1.665 16.497 1.665 29.156 0 54.733-15.266 69.219-38.228 10.809 5.267 22.948 8.228 35.781 8.228 19.07 0 36.6-6.543 50.511-17.483 18.16 5.422 39.917 2.513 61.064-14.22 36.596-49.233 1.756-102.38-45.063-102.01z" fill="#eaf6ff"/><g><path d="m427.512 152.116c-2.023.016-3.955-.828-5.298-2.342-14.985-16.898-36.853-27.553-61.214-27.553-19.177 0-36.8 6.61-50.742 17.665 6.624-1.733 13.573-2.665 20.742-2.665 24.362 0 46.229 10.655 61.214 27.553 1.343 1.514 3.275 2.358 5.298 2.342 46.818-.37 81.658 52.777 45.063 102.011-.03.024-.06.046-.09.069 9.867-2.299 20.047-7.123 30.09-15.069 36.596-49.234 1.756-102.381-45.063-102.011z" fill="#d8ecfe"/></g><g><path d="m406.288 459.5h-300.576c-13.668 0-25.608-9.238-29.039-22.468l-39.173-151.032h437l-39.172 151.032c-3.432 13.23-15.372 22.468-29.04 22.468z" fill="#ffe179"/><path d="m444.5 286-39.172 151.032c-3.432 13.23-15.372 22.468-29.039 22.468h30c13.668 0 25.608-9.238 29.039-22.468l39.172-151.032z" fill="#fbd268"/><path d="m486.99 286h-461.98c-9.67 0-17.51-7.839-17.51-17.51 0-9.67 7.839-17.51 17.51-17.51h267.07l42.593 15 40-15h112.317c9.67 0 17.51 7.839 17.51 17.51 0 9.671-7.839 17.51-17.51 17.51z" fill="#fef0ae"/><path d="m486.99 250.98h-30c9.67 0 17.51 7.839 17.51 17.51 0 9.67-7.839 17.51-17.51 17.51h30c9.67 0 17.51-7.839 17.51-17.51 0-9.671-7.839-17.51-17.51-17.51z" fill="#fee97d"/><path d="m364.674 347.786h-62.594c-5.523 0-10-4.477-10-10v-86.806h82.593v86.806c.001 5.523-4.476 10-9.999 10z" fill="#fbd268"/><path d="m344.674 250.98v86.807c0 5.522-4.477 10-10 10h30c5.523 0 10-4.478 10-10v-86.807z" fill="#f9cb64"/></g></g><circle cx="478" cy="34" fill="#eaf6ff" r="26.5"/><path d="m478 7.5c-5.569 0-10.734 1.722-15 4.656 6.944 4.778 11.5 12.777 11.5 21.844s-4.556 17.066-11.5 21.844c4.266 2.935 9.431 4.656 15 4.656 14.635 0 26.5-11.864 26.5-26.5s-11.865-26.5-26.5-26.5z" fill="#d8ecfe"/><circle cx="268.5" cy="94.5" fill="#eaf6ff" r="20"/><path d="m268.5 74.5c-3.647 0-7.056.992-10 2.697 5.972 3.46 10 9.904 10 17.303s-4.028 13.843-10 17.303c2.944 1.705 6.353 2.697 10 2.697 11.046 0 20-8.954 20-20s-8.954-20-20-20z" fill="#d8ecfe"/><circle cx="35.5" cy="35.5" fill="#eaf6ff" r="28"/><path d="m35.5 7.5c-5.52 0-10.663 1.604-15 4.362 7.812 4.968 13 13.694 13 23.638 0 9.943-5.188 18.67-13 23.638 4.337 2.758 9.48 4.362 15 4.362 15.464 0 28-12.536 28-28s-12.536-28-28-28z" fill="#d8ecfe"/></g><path d="m478 68c18.748 0 34-15.252 34-34s-15.252-34-34-34-34 15.252-34 34 15.252 34 34 34zm0-53c10.477 0 19 8.523 19 19s-8.523 19-19 19-19-8.523-19-19 8.523-19 19-19zm-442.5 56c19.575 0 35.5-15.925 35.5-35.5s-15.925-35.5-35.5-35.5-35.5 15.925-35.5 35.5 15.925 35.5 35.5 35.5zm0-56c11.304 0 20.5 9.196 20.5 20.5s-9.196 20.5-20.5 20.5-20.5-9.196-20.5-20.5 9.196-20.5 20.5-20.5zm233 107c15.163 0 27.5-12.337 27.5-27.5s-12.337-27.5-27.5-27.5c-15.164 0-27.5 12.337-27.5 27.5s12.336 27.5 27.5 27.5zm0-40c6.893 0 12.5 5.607 12.5 12.5s-5.607 12.5-12.5 12.5-12.5-5.607-12.5-12.5 5.607-12.5 12.5-12.5zm219.286 161.5c10.188-21.181 10.223-43.681-.264-63.305-11.748-21.983-34.52-35.577-59.506-35.577-.115 0-.234 0-.35.001-16.943-19.004-41.228-29.899-66.666-29.899-28.242 0-55.079 13.572-71.894 36.347-10.549-4.212-21.685-6.347-33.106-6.347-11.796 0-23.273 2.277-34.105 6.766-16.83-10.118-36.152-15.466-55.895-15.466-19.256 0-38.165 5.1-54.699 14.751-9.302-4.272-19.27-6.307-29.621-6.027-34.67.923-63.178 28.761-64.901 63.376-.62 12.513 2.205 24.665 8.057 35.366-13.578.015-24.836 11.439-24.836 25.004 0 13.79 11.219 25.01 25.01 25.01h6.687l37.715 145.415c4.386 16.963 20.148 28.748 37.708 28.085v17.5c0 15.163 12.336 27.5 27.5 27.5h242.76c15.163 0 27.5-12.337 27.5-27.5v-17.5c17.483.34 33.299-10.877 37.707-28.085l14.409-55.555c1.04-4.01-1.367-8.103-5.377-9.143-4.015-1.04-8.104 1.368-9.143 5.377l-14.409 55.555c-2.573 9.922-11.528 16.851-21.779 16.851h-300.577c-10.25 0-19.206-6.93-21.779-16.851l-36.739-141.649h237.387v44.286c0 9.649 7.851 17.5 17.5 17.5h62.594c9.649 0 17.5-7.851 17.5-17.5v-44.286h82.633l-13.547 52.23c-1.04 4.01 1.367 8.103 5.377 9.143 3.908 1.014 8.1-1.325 9.143-5.377l14.523-55.996h6.688c13.525.064 25.01-11.468 25.01-25.01-.001-13.523-10.793-24.567-24.215-24.99zm-365.666 223.5h267.76v17.5c0 6.893-5.607 12.5-12.5 12.5h-242.76c-6.893 0-12.5-5.607-12.5-12.5zm245.054-129.214c0 1.379-1.121 2.5-2.5 2.5h-62.594c-1.379 0-2.5-1.121-2.5-2.5v-79.306h67.594zm-203.57-94.306c-4.142 0-7.5 3.357-7.5 7.5s3.358 7.5 7.5 7.5h120.976v20.02h-259.57c-5.52 0-10.01-4.49-10.01-10.01 0-5.447 4.568-10.035 10.01-10.01h98.594c4.142 0 7.5-3.357 7.5-7.5s-3.358-7.5-7.5-7.5h-80.855c-7.723-9.808-11.615-21.974-10.988-34.617 1.335-26.831 23.438-48.41 50.317-49.126 8.086-.219 15.851 1.375 23.086 4.722 4.362 2.015 9.417 1.779 13.521-.63 14.283-8.38 30.644-12.81 47.314-12.81 17.095 0 33.818 4.647 48.346 13.431 3.927 2.386 8.822 2.751 13.103.971 9.065-3.783 18.671-5.701 28.551-5.701 9.621 0 18.993 1.818 27.84 5.396 6.184 2.521 13.232.507 17.136-4.869 13.969-19.115 36.408-30.526 60.024-30.526 21.228 0 41.493 9.122 55.601 25.028 2.751 3.099 6.71 4.872 10.896 4.872h.071c19.592-.125 37.528 10.438 46.724 27.646 9.188 17.191 7.847 37.491-3.564 56.215h-307.123zm323.386 35.02h-104.816v-20.02h104.816c5.52 0 10.01 4.49 10.01 10.01 0 5.418-4.579 10.037-10.01 10.01z"/></g></svg>