<svg id="Capa_1" enable-background="new 0 0 512 512" height="512" viewBox="0 0 512 512" width="512" xmlns="http://www.w3.org/2000/svg"><g><g><g><path d="m368.582 500.072h-225.164c-26.642 0-48.24-21.598-48.24-48.24v-296.934h321.644v296.934c0 26.642-21.597 48.24-48.24 48.24z" fill="#b8f0ff"/></g><g><path d="m416.822 207.48v-52.582h-321.644v296.935c0 26.642 21.598 48.24 48.24 48.24h31.777c-26.642 0-48.24-21.598-48.24-48.24v-219.39c0-13.786 11.176-24.962 24.962-24.962h264.905z" fill="#8ddcff"/></g><g><g><path d="m434.513 152.013c-9.046 0-16.38-7.334-16.38-16.38s7.334-16.38 16.38-16.38c20.527 0 37.227-16.7 37.227-37.227v-.111c0-20.527-16.7-37.227-37.227-37.227h-357.025c-20.527 0-37.227 16.7-37.227 37.227v.111c0 20.527 16.7 37.227 37.227 37.227h2.144c9.047 0 16.38 7.334 16.38 16.38s-7.333 16.38-16.38 16.38h-2.144c-38.591 0-69.987-31.396-69.987-69.987v-.111c0-38.591 31.396-69.987 69.987-69.987h357.025c38.591 0 69.987 31.396 69.987 69.987v.111c0 38.591-31.396 69.987-69.987 69.987z" fill="#e9efff"/></g></g><g><path d="m469.774 93.94c-4.981 14.7-18.9 25.313-35.26 25.313-9.046 0-16.38 7.334-16.38 16.38s7.334 16.38 16.38 16.38c14.464 0 27.918-4.411 39.086-11.958v-28.021c-.001-6.436-1.374-12.555-3.826-18.094z" fill="#d3dcfb"/></g><g><path d="m79.632 152.013c9.047 0 16.38-7.334 16.38-16.38s-7.333-16.38-16.38-16.38h-2.144c-16.361 0-30.281-10.614-35.261-25.314-2.453 5.539-3.826 11.658-3.826 18.095v28.021c11.169 7.547 24.622 11.958 39.087 11.958z" fill="#d3dcfb"/></g><g><path d="m428.745 179.086h-345.49c-10.965 0-19.855-8.889-19.855-19.855v-47.197c0-10.965 8.889-19.855 19.855-19.855h345.49c10.965 0 19.855 8.889 19.855 19.855v47.197c0 10.966-8.89 19.855-19.855 19.855z" fill="#42c3fc"/></g><g><path d="m95.178 159.231v-47.197c0-10.965 8.889-19.854 19.855-19.854h-31.778c-10.965 0-19.855 8.889-19.855 19.854v47.197c0 10.965 8.889 19.854 19.855 19.854h31.777c-10.965.001-19.854-8.888-19.854-19.854z" fill="#1aa9e8"/></g><g><path d="m112.968 152.112c-9.101 0-16.479-7.378-16.479-16.479 0-9.101 7.378-16.479 16.479-16.479 9.101 0 16.479 7.378 16.479 16.479 0 9.101-7.378 16.479-16.479 16.479z" fill="#1c8ae5"/></g><g><path d="m392.242 152.112c-9.101 0-16.479-7.378-16.479-16.479 0-9.101 7.378-16.479 16.479-16.479 9.101 0 16.479 7.378 16.479 16.479.001 9.101-7.377 16.479-16.479 16.479z" fill="#1c8ae5"/></g></g><g><path d="m416.822 270.54c-4.143 0-7.5 3.357-7.5 7.5v173.792c0 22.464-18.276 40.74-40.74 40.74h-225.164c-22.464 0-40.74-18.276-40.74-40.74v-42.874c0-4.143-3.357-7.5-7.5-7.5s-7.5 3.357-7.5 7.5v42.874c0 30.735 25.005 55.74 55.74 55.74h225.164c30.735 0 55.74-25.005 55.74-55.74v-173.792c0-4.143-3.357-7.5-7.5-7.5z"/><path d="m434.513 4.428h-357.025c-42.727 0-77.488 34.76-77.488 77.487v.11c0 25.478 12.587 49.349 33.67 63.854 1.299.894 2.779 1.322 4.244 1.322 2.386 0 4.731-1.136 6.186-3.25 2.348-3.412 1.485-8.082-1.928-10.43-17.014-11.706-27.172-30.957-27.172-51.496v-.11c0-34.456 28.032-62.487 62.488-62.487h357.024c34.456 0 62.487 28.031 62.487 62.487v.11c0 19.43-8.843 37.434-24.261 49.396-3.272 2.539-3.867 7.251-1.328 10.523 2.54 3.273 7.251 3.866 10.523 1.328 19.109-14.824 30.067-37.148 30.067-61.247v-.11c0-42.727-34.761-77.487-77.487-77.487z"/><path d="m471.688 91.654c3.947 0 7.254-3.084 7.481-7.074.047-.836.071-1.695.071-2.555v-.11c0-24.663-20.064-44.728-44.728-44.728h-357.024c-24.663 0-44.728 20.064-44.728 44.728v.11c0 .288.009.573.019.858l.008.232c.106 4.074 3.442 7.304 7.493 7.304.066 0 .133-.001.2-.003 4.141-.107 7.409-3.553 7.301-7.693l-.012-.365c-.003-.11-.009-.221-.009-.333v-.11c0-16.392 13.336-29.728 29.728-29.728h357.024c16.392 0 29.728 13.336 29.728 29.728v.11c0 .572-.016 1.14-.048 1.703-.234 4.136 2.927 7.679 7.062 7.914.146.008.29.012.434.012z"/><path d="m428.745 84.68h-345.489c-15.083 0-27.354 12.271-27.354 27.354v47.197c0 15.083 12.271 27.354 27.354 27.354h4.422v187.735c0 4.143 3.357 7.5 7.5 7.5s7.5-3.357 7.5-7.5v-187.734h306.645v57.808c0 4.143 3.357 7.5 7.5 7.5s7.5-3.357 7.5-7.5v-57.808h4.423c15.083 0 27.354-12.271 27.354-27.354v-47.197c0-15.084-12.272-27.355-27.355-27.355zm12.355 74.551c0 6.812-5.542 12.354-12.354 12.354h-345.49c-6.812 0-12.354-5.542-12.354-12.354v-47.197c0-6.812 5.542-12.354 12.354-12.354h345.489c6.812 0 12.354 5.542 12.354 12.354v47.197z"/><path d="m112.968 111.653c-13.223 0-23.979 10.757-23.979 23.979s10.757 23.979 23.979 23.979 23.979-10.757 23.979-23.979-10.757-23.979-23.979-23.979zm0 32.959c-4.951 0-8.979-4.028-8.979-8.979s4.028-8.979 8.979-8.979 8.979 4.028 8.979 8.979-4.028 8.979-8.979 8.979z"/><path d="m392.242 111.653c-13.223 0-23.979 10.757-23.979 23.979s10.757 23.979 23.979 23.979 23.979-10.757 23.979-23.979-10.756-23.979-23.979-23.979zm0 32.959c-4.951 0-8.979-4.028-8.979-8.979s4.028-8.979 8.979-8.979 8.979 4.028 8.979 8.979-4.028 8.979-8.979 8.979z"/></g></g></svg>