<svg id="Capa_1" enable-background="new 0 0 512 512" height="512" viewBox="0 0 512 512" width="512" xmlns="http://www.w3.org/2000/svg"><g><g><g><path d="m413.931 249.241c0 49.358-70.156 88.37-157.931 88.37-3.949 0-7.864.919-11.74.76-82.293-3.379-147.19-41.992-147.19-89.13 0-47.035 64.616-85.583 146.654-89.107 4.052-.174 8.146.737 12.277.737 87.774 0 157.93 39.012 157.93 88.37z" fill="#f7e365"/><path d="m414.93 249.24c0 49.36-71.15 89.37-158.93 89.37-5.06 0-10.06-.13-15-.4 80.75-4.24 143.93-42.46 143.93-88.97s-63.18-84.73-143.93-88.97c4.94-.27 9.94-.4 15-.4 87.78 0 158.93 40.01 158.93 89.37z" fill="#ecc52e"/><path d="m187.583 422.565c4.178 0 7.596 3.418 7.596 7.596v69.339c0 2.761 2.239 5 5 5h82.821l28.821-1c2.761 0 4-1.239 4-4v-69.339c0-4.178 4.418-8.596 8.596-8.596h.078c41.528 0 74.077-33.15 73.095-74.902-.919-39.107-31.658-70.092-70.757-71.295-5.97-.184-11.788-.661-17.376.491-17.213 3.547-32.245 13.063-42.838 26.291-5.478 6.841-15.76 6.841-21.238 0-14.031-17.523-35.853-28.531-60.213-27.782-39.1 1.203-70.838 33.187-71.758 72.294-.982 41.751 32.567 75.902 74.095 75.902h.078z" fill="#f8f7f7"/><path d="m324.417 90.435c-4.178 0-8.596-4.418-8.596-8.596v-69.339c0-2.761-1.239-4-4-4l-28.821-1h-82.821c-2.761 0-5 2.239-5 5v69.339c0 4.178-3.418 7.596-7.596 7.596h-.078c-41.528 0-75.077 34.15-74.095 75.902.92 39.107 32.658 71.092 71.757 72.295 24.36.749 46.182-10.258 60.214-27.782 5.478-6.841 15.76-6.841 21.238 0 10.523 13.142 25.429 22.62 42.501 26.221 5.691 1.2 11.622.748 17.712.561 39.099-1.203 69.838-32.187 70.757-71.294.982-41.751-31.567-74.902-73.095-74.902h-.077z" fill="#f8f7f7"/><g fill="#e1e1e1"><path d="m398.59 165.34c-.92 39.1-32.66 71.09-71.76 72.29-5.97.18-11.79-.34-17.38-1.49 33.1-6.84 58.32-36.01 59.14-70.8.98-41.75-32.57-75.9-74.1-75.9h-.07c-4.18 0-7.6-3.42-7.6-7.6v-69.34c0-2.76-2.24-5-5-5h30c2.76 0 5 2.24 5 5v69.34c0 4.18 3.42 7.6 7.6 7.6h.07c41.53 0 75.08 34.15 74.1 75.9z"/><path d="m398.59 346.66c.98 41.75-32.57 75.9-74.1 75.9h-.07c-4.18 0-7.6 3.42-7.6 7.6v69.34c0 2.76-2.24 5-5 5h-30c2.76 0 5-2.24 5-5v-69.34c0-4.18 3.42-7.6 7.6-7.6h.07c41.53 0 75.08-34.15 74.1-75.9-.82-34.79-26.04-63.96-59.14-70.8 5.59-1.15 11.41-1.67 17.38-1.49 39.1 1.2 70.84 33.19 71.76 72.29z"/></g></g></g><g><path d="m386.034 390.44c-3.167-2.67-7.899-2.265-10.568.904-12.701 15.075-31.279 23.722-51.049 23.722-8.324 0-15.096 6.772-15.096 15.096v66.838h-56.061c-4.142 0-7.5 3.358-7.5 7.5s3.358 7.5 7.5 7.5h58.561c6.893 0 12.5-5.607 12.5-12.5v-69.339c0-.036.06-.096.174-.096 24.126 0 46.885-10.591 62.443-29.057 2.668-3.168 2.264-7.9-.904-10.568z"/><path d="m393.163 304.489c19.177-16.137 29.268-35.118 29.268-55.248 0-18.149-8.357-35.583-24.23-50.726 4.892-10.238 7.615-21.442 7.887-33.001.522-22.186-7.719-43.135-23.204-58.988-15.489-15.857-36.226-24.59-58.467-24.59-.036 0-.096-.06-.096-.096v-69.34c0-6.893-5.607-12.5-12.5-12.5h-111.642c-6.893 0-12.5 5.607-12.5 12.5v69.339c0 .036-.06.096-.174.096-20.597 0-40.265 7.694-55.382 21.665-3.042 2.811-3.229 7.556-.417 10.598 2.811 3.042 7.556 3.23 10.598.417 12.337-11.401 28.39-17.68 45.279-17.68 8.324 0 15.096-6.772 15.096-15.096v-66.839h106.642v66.839c0 8.324 6.772 15.096 15.174 15.096 18.091 0 35.017 7.128 47.659 20.071 12.638 12.939 19.364 30.041 18.938 48.154-.399 16.989-7.284 33.061-19.387 45.254-12.103 12.194-28.12 19.197-45.103 19.72-21.179.655-40.9-8.451-54.129-24.973-4.042-5.047-10.046-7.942-16.473-7.942s-12.431 2.895-16.473 7.942c-13.23 16.522-32.943 25.637-54.129 24.973-16.983-.522-33.001-7.525-45.104-19.72-12.102-12.194-18.987-28.266-19.386-45.254-.213-9.069 1.359-17.892 4.673-26.222 1.531-3.849-.348-8.21-4.196-9.741-3.852-1.532-8.21.349-9.741 4.196-4.064 10.215-5.992 21.022-5.731 32.119.272 11.559 2.995 22.764 7.887 33.001-15.873 15.143-24.23 32.577-24.23 50.726 0 20.13 10.091 39.112 29.268 55.248-8.054 12.495-12.571 26.943-12.925 41.998-.521 22.186 7.719 43.135 23.204 58.988 15.489 15.857 36.225 24.59 58.467 24.59.036 0 .096.06.096.096v69.341c0 6.893 5.607 12.5 12.5 12.5h20.393c4.142 0 7.5-3.358 7.5-7.5s-3.358-7.5-7.5-7.5h-17.893v-66.839c0-8.324-6.772-15.096-15.174-15.096-18.091 0-35.017-7.128-47.659-20.071-12.638-12.939-19.364-30.041-18.938-48.154.399-16.989 7.284-33.061 19.386-45.254 12.103-12.194 28.121-19.197 45.104-19.72 21.177-.662 40.899 8.451 54.129 24.973 4.042 5.047 10.046 7.942 16.473 7.942s12.431-2.895 16.473-7.942c13.229-16.522 32.964-25.617 54.129-24.973 16.983.522 33.001 7.525 45.103 19.72 12.102 12.194 18.987 28.266 19.386 45.254.147 6.245-.565 12.438-2.115 18.407-1.041 4.009 1.365 8.103 5.374 9.144 4.006 1.041 8.103-1.365 9.144-5.374 1.899-7.315 2.771-14.895 2.592-22.529-.353-15.056-4.87-29.504-12.924-41.999zm-66.1-37.617c-25.923-.802-50.094 10.353-66.299 30.59-1.615 2.018-3.678 2.318-4.764 2.318s-3.149-.301-4.764-2.318c-16.205-20.238-40.377-31.379-66.299-30.59-20.835.641-40.471 9.216-55.289 24.146-.534.538-1.042 1.096-1.559 1.646-11.735-10.004-23.52-24.708-23.52-43.424 0-13.024 5.923-25.85 17.186-37.477 2.385 3.233 5.014 6.317 7.892 9.217 14.818 14.93 34.453 23.505 55.289 24.146.87.027 1.735.04 2.601.04 24.938-.001 48.037-11.072 63.698-30.63 1.615-2.018 3.678-2.318 4.764-2.318s3.149.301 4.764 2.318c16.206 20.239 40.384 31.381 66.299 30.59 20.835-.641 40.471-9.216 55.289-24.146 2.878-2.9 5.507-5.984 7.892-9.218 11.263 11.627 17.186 24.452 17.186 37.477 0 18.716-11.785 33.42-23.52 43.424-.517-.55-1.025-1.108-1.558-1.646-14.817-14.929-34.452-23.504-55.288-24.145z"/><path d="m165.5 324.365c0-4.142-3.358-7.5-7.5-7.5s-7.5 3.358-7.5 7.5c0 4.142 3.358 7.5 7.5 7.5s7.5-3.358 7.5-7.5z"/><path d="m158 344.913c-4.142 0-7.5 3.358-7.5 7.5 0 4.142 3.358 7.5 7.5 7.5s7.5-3.358 7.5-7.5c0-4.142-3.358-7.5-7.5-7.5z"/><path d="m178 331.865c0 4.142 3.358 7.5 7.5 7.5s7.5-3.358 7.5-7.5c0-4.142-3.358-7.5-7.5-7.5s-7.5 3.358-7.5 7.5z"/><path d="m150.5 191.889c0 4.142 3.358 7.5 7.5 7.5s7.5-3.358 7.5-7.5c0-4.142-3.358-7.5-7.5-7.5s-7.5 3.358-7.5 7.5z"/><path d="m158 171.341c4.142 0 7.5-3.358 7.5-7.5 0-4.142-3.358-7.5-7.5-7.5s-7.5 3.358-7.5 7.5c0 4.143 3.358 7.5 7.5 7.5z"/><path d="m193 184.389c0-4.142-3.358-7.5-7.5-7.5s-7.5 3.358-7.5 7.5c0 4.142 3.358 7.5 7.5 7.5s7.5-3.358 7.5-7.5z"/></g></g></svg>