<svg id="Capa_1" enable-background="new 0 0 512 512" height="512" viewBox="0 0 512 512" width="512" xmlns="http://www.w3.org/2000/svg"><g><g><circle cx="256" cy="256" fill="#5d5360" r="248.5"/><g fill="#4b3f4e"><path d="m179.919 433.829c-12.921-12.921-12.921-33.869 0-46.789l126.158-126.158c12.921-12.921 33.869-12.921 46.789 0 12.921 12.921 12.921 33.869 0 46.789l-126.158 126.158c-12.92 12.921-33.869 12.921-46.789 0z"/><path d="m264.648 442.681c-12.921-12.921-12.921-33.869 0-46.789l126.158-126.158c12.921-12.921 33.869-12.921 46.789 0 12.921 12.921 12.921 33.869 0 46.789l-126.157 126.158c-12.921 12.92-33.869 12.92-46.79 0z"/><path d="m92.82 142.298c-21.312 0-38.589 17.277-38.589 38.589v26.684c0 10.234 4.066 20.05 11.302 27.287l38.288 38.288c7.237 7.237 17.052 11.302 27.287 11.302h67.571c10.234 0 20.05-4.066 27.287-11.302l89.411-89.411c15.024-15.024 15.076-39.368.116-54.456l-63.928-64.477c-14.302-14.425-37.337-15.293-52.684-1.985l-80.781 70.047c-7.017 6.084-15.993 9.434-25.28 9.434z"/><path d="m256 7.5c-3.77 0-7.517.099-11.247.265 132.022 5.882 237.254 114.763 237.254 248.235s-105.232 242.353-237.254 248.235c3.729.166 7.476.265 11.247.265 137.243 0 248.5-111.257 248.5-248.5s-111.257-248.5-248.5-248.5z"/></g><path d="m246.51 401.16c-33.73 14.5-53.6 3.1-68.69-11.81-12.66-12.53-21.96-27.53-33.26-31.81-24.78-9.38-77.05 5.9-82.02-53.76-1.93-23.22 9.98-38.3 23.98-47.93 17.96-12.32 39.35-15.66 39.35-15.66l126.77-13.2 54.91 54.91s.99 92.6-61.04 119.26z" fill="#fe5694"/><path d="m246.51 401.16c-33.73 14.5-53.6 3.1-68.69-11.81.65-.79 1.36-1.57 2.1-2.31l116.39-116.38 11.24 11.24s.99 92.6-61.04 119.26z" fill="#fd3581"/><path d="m262.38 236.73-36.41 36.42c-7.24 7.23-17.06 11.3-27.29 11.3h-67.57c-10.24 0-20.05-4.07-27.29-11.3l-17.3-17.3c17.96-12.32 39.35-15.66 39.35-15.66l126.77-13.2z" fill="#fd3581"/><path d="m307.554 281.898-54.911-54.91-20.372 2.122 52.789 52.789s.982 92.599-61.044 119.261c-6.205 2.667-11.934 4.445-17.257 5.499 10.76 2.43 23.679 1.409 39.75-5.499 62.027-26.663 61.045-119.262 61.045-119.262z" fill="#fd3581"/><path d="m115.313 142.298c-21.312 0-38.589 17.277-38.589 38.589v26.684c0 10.234 4.066 20.05 11.302 27.287l38.288 38.288c7.237 7.237 17.052 11.302 27.287 11.302h67.571c10.234 0 20.05-4.066 27.287-11.302l89.411-89.411c15.024-15.024 15.076-39.368.116-54.456l-63.928-64.477c-14.302-14.425-37.337-15.293-52.684-1.985l-80.781 70.047c-7.016 6.084-15.992 9.434-25.28 9.434z" fill="#f7f9fa"/><path d="m337.986 129.279-63.928-64.477c-10.379-10.468-25.356-13.79-38.658-9.742 5.935 1.802 11.513 5.05 16.164 9.742l63.928 64.477c14.96 15.088 14.908 39.432-.116 54.456l-89.411 89.411c-7.237 7.237-17.052 11.302-27.287 11.302h22.493c10.234 0 20.05-4.065 27.287-11.302l89.411-89.411c15.025-15.025 15.077-39.368.117-54.456z" fill="#e9edf1"/><circle cx="237.507" cy="160.693" fill="#ffe270" r="37.608"/><path d="m237.507 123.085c-3.918 0-7.695.601-11.247 1.712 15.276 4.781 26.361 19.043 26.361 35.896s-11.085 31.114-26.361 35.896c3.551 1.112 7.329 1.712 11.247 1.712 20.77 0 37.608-16.837 37.608-37.608s-16.838-37.608-37.608-37.608z" fill="#ffd15b"/><path d="m202.412 433.829c-12.921-12.921-12.921-33.869 0-46.789l126.158-126.158c12.921-12.921 33.869-12.921 46.789 0 12.921 12.921 12.921 33.869 0 46.789l-126.157 126.158c-12.921 12.921-33.869 12.921-46.79 0z" fill="#d19a6e"/><path d="m375.359 260.882c-9.368-9.368-22.953-11.938-34.641-7.722 4.433 1.599 8.595 4.169 12.148 7.722 12.921 12.92 12.921 33.869 0 46.789l-126.158 126.159c-3.553 3.553-7.715 6.123-12.148 7.722 11.688 4.216 25.274 1.646 34.641-7.722l126.158-126.158c12.921-12.921 12.921-33.869 0-46.79z" fill="#c38c66"/><path d="m287.142 442.681c-12.921-12.921-12.921-33.869 0-46.789l126.158-126.158c12.921-12.921 33.869-12.921 46.789 0 12.921 12.921 12.921 33.869 0 46.789l-126.158 126.158c-12.92 12.92-33.869 12.92-46.789 0z" fill="#d19a6e"/><path d="m460.089 269.734c-9.368-9.368-22.953-11.938-34.641-7.722 4.433 1.599 8.595 4.169 12.148 7.722 12.921 12.92 12.921 33.869 0 46.789l-126.158 126.158c-3.553 3.553-7.715 6.123-12.148 7.722 11.688 4.216 25.274 1.646 34.641-7.722l126.158-126.158c12.921-12.92 12.921-33.869 0-46.789z" fill="#c38c66"/></g><g><path d="m451.487 90.702c-2.676-3.163-7.409-3.556-10.57-.879-3.161 2.676-3.555 7.408-.879 10.57 36.733 43.398 56.962 98.661 56.962 155.607 0 64.374-25.068 124.895-70.587 170.413s-106.039 70.587-170.413 70.587-124.894-25.068-170.413-70.587-70.587-106.039-70.587-170.413 25.068-124.894 70.587-170.413 106.039-70.587 170.413-70.587c59.131 0 115.999 21.624 160.13 60.888 3.095 2.753 7.834 2.477 10.589-.618 2.753-3.095 2.477-7.835-.618-10.589-46.88-41.71-107.289-64.681-170.101-64.681-68.38 0-132.667 26.629-181.02 74.98-48.351 48.352-74.98 112.64-74.98 181.02s26.629 132.668 74.98 181.02c48.353 48.351 112.64 74.98 181.02 74.98s132.668-26.629 181.02-74.98 74.98-112.64 74.98-181.02c0-60.49-21.49-119.194-60.513-165.298z"/><path d="m237.507 205.801c24.872 0 45.107-20.235 45.107-45.108 0-4.38-.628-8.711-1.866-12.874-1.181-3.97-5.354-6.231-9.327-5.05-3.97 1.181-6.231 5.356-5.05 9.327.825 2.773 1.243 5.666 1.243 8.597 0 16.602-13.506 30.108-30.107 30.108-16.602 0-30.108-13.507-30.108-30.108s13.506-30.107 30.108-30.107c3.325 0 6.589.536 9.7 1.595 3.922 1.334 8.182-.764 9.516-4.686s-.764-8.182-4.686-9.516c-4.67-1.588-9.559-2.394-14.53-2.394-24.873 0-45.108 20.235-45.108 45.107 0 24.873 20.235 45.109 45.108 45.109z"/><path d="m182.157 218.909c1.452 1.381 3.311 2.065 5.167 2.065 1.982 0 3.962-.781 5.436-2.332 2.854-3.001 2.735-7.749-.267-10.603-8.376-7.965-14.502-18.003-17.716-29.029-1.159-3.978-5.318-6.26-9.299-5.102-3.977 1.159-6.26 5.322-5.101 9.299 3.955 13.568 11.487 25.914 21.78 35.702z"/><path d="m197.109 439.133c14.478 15.144 41.97 16.063 57.396 0l15.683-15.683c.917 8.965 4.796 17.681 11.65 24.535 7.912 7.912 18.306 11.868 28.698 11.868 10.394 0 20.787-3.956 28.699-11.868l126.157-126.157c15.824-15.825 15.824-41.572 0-57.397-15.767-15.586-41.475-15.818-57.396 0l-15.683 15.683c-.917-8.965-4.797-17.68-11.651-24.535-15.194-15.361-41.84-15.702-57.396 0l-15.716 15.716-23.317-23.317 58.94-58.938c17.893-17.894 17.955-47.071.139-65.041l-63.928-64.477c-17.021-17.169-44.66-18.209-62.924-2.371l-80.78 70.047c-5.653 4.901-12.886 7.601-20.368 7.601-25.414 0-46.089 20.676-46.089 46.089v26.685c0 12.31 4.794 23.884 13.5 32.59l5.687 5.687c-23.61 13.563-35.385 34.042-33.344 58.555 1.864 22.378 10.04 37.566 24.996 46.433 12.535 7.431 27.458 8.873 40.625 10.146 8.135.786 15.818 1.529 21.215 3.572 5.825 2.207 12.075 9.416 18.691 17.048 7.02 8.097 14.856 17.13 24.943 23.839-1.664 10.804 2.846 25.418 11.573 33.69zm10.606-10.608c-9.304-9.23-10.434-25.4 0-36.182l31.294-31.294v71.31c-8.524 5.448-23.06 4.817-31.294-3.834zm46.295-10.11v-72.365l28.141-28.141v72.365zm86.28-65.064 28.14-28.14v72.364l-28.14 28.14zm-47.845 84.026c-9.976-9.976-9.976-26.206 0-36.182l32.845-32.845v71.833c-9.979 7.054-23.917 6.125-32.845-2.806zm162.34-162.34c9.977 9.976 9.977 26.207 0 36.183l-28.215 28.215v-69.796c8.242-3.692 20.478-2.425 28.215 5.398zm-43.215 7.033v72.364l-28.141 28.141v-72.364zm-59.605-23.366c6.552 0 13.104 2.493 18.091 7.481 9.977 9.976 9.977 26.207 0 36.183l-29.766 29.766v-70.62c3.653-1.87 7.663-2.81 11.675-2.81zm-26.675 16.066v72.365l-28.14 28.14v-72.365zm-241.066-93.883c0-17.143 13.947-31.089 31.089-31.089 11.091 0 21.814-4.001 30.194-11.268l80.781-70.048c5.842-5.065 13.104-7.57 20.353-7.57 8.037 0 16.055 3.081 22.092 9.17l63.928 64.477c12.019 12.122 11.977 31.804-.094 43.873l-89.412 89.411c-5.872 5.872-13.678 9.105-21.982 9.105h-67.571c-8.304 0-16.111-3.233-21.983-9.106l-38.289-38.287c-5.873-5.873-9.106-13.68-9.106-21.983zm87.703 190.888c-7.891-9.103-15.344-17.7-24.711-21.25-7.273-2.753-15.925-3.589-25.085-4.474-25.167-2.433-48.937-4.729-52.116-42.894-1.663-19.979 8.241-35.522 29.447-46.26l21.55 21.55c8.705 8.706 20.278 13.5 32.589 13.5h67.571c12.311 0 23.885-4.794 32.589-13.499l19.865-19.865 23.317 23.317-99.835 99.836c-2.647 2.647-4.873 5.601-6.667 8.774-6.877-5.315-12.77-12.109-18.514-18.735z"/><g><circle cx="436.17" cy="196.14" r="7.5"/><circle cx="385.66" cy="196.14" r="7.5"/></g><g><circle cx="410.915" cy="221.395" r="7.5"/><circle cx="410.915" cy="170.885" r="7.5"/></g></g></g></svg>