<svg id="Capa_1" enable-background="new 0 0 512 512" height="512" viewBox="0 0 512 512" width="512" xmlns="http://www.w3.org/2000/svg"><g><g><path d="m405.835 437h45.33v41.009h-45.33z" fill="#857e87"/><path d="m405.83 466h45.34v16h-45.34z" fill="#6f6571"/><path d="m407.128 414.5h-101.394l-17.945 79.115c-1.11 4.996 2.691 9.735 7.809 9.735l6.232 1.15h102.17c4.418 0 8-3.582 8-8v-67z" fill="#e8e8e8"/><path d="m412 414.5v15h-84.676c-5.156 0-9.619 3.581-10.738 8.613l-14.756 66.387h-8.36c-5.12 0-8.92-4.74-7.81-9.74l17.84-80.26 63.775-9.482z" fill="#d8d8d8"/><path d="m465.642 493.862-9.942-.805c-5.484 0-9.929-4.446-9.929-9.929l-.55-47.615c0-5.484 4.445-9.929 9.929-9.929l1.35-1.084h10c1.657 0 3 1.343 3 3v53l-.858 10.362c0 1.657-1.343 3-3 3z" fill="#857e87"/><path d="m469.5 480.5v11c0 1.66-1.34 3-3 3h-12.07c-5.48 0-9.93-4.45-9.93-9.93v-50.14c0-5.48 4.45-9.93 9.93-9.93h2.07v45c0 6.08 4.92 11 11 11z" fill="#6f6571"/><g><path d="m188.5 76.5-2.326 14.757 2.326 5.953v44.29h-100l-3.518-2.261c-5.523 0-10-4.477-10-10l-2.482-52.739z" fill="#e8e8e8"/><path d="m72.5 76.5v20.71 34.29c0 5.523 4.477 10 10 10h6v-37c0-2.761 2.239-5 5-5h85c3.58 0 6.98-.82 10-2.29v-20.71z" fill="#d8d8d8"/><path d="m203.5 62h-2l-71.252-3.29-70.748 3.29h-2c-8.284 0-15-6.716-15-15 0-8.284 6.716-15 15-15h2l71 3.853 71-3.853h2c8.284 0 15 6.716 15 15 0 8.284-6.716 15-15 15z" fill="#857e87"/><path d="m59.5 32h142v30h-142z" fill="#6f6571"/><path d="m178.5 86.5h-90l-3.656-2.5c-5.523 0-10-4.477-10-10l-.578-54.743c0-5.523 4.477-10 10-10l4.234-1.757h90c5.523 0 10 4.477 10 10v16.05l-2.601 10.065 2.601 6.835v26.05c0 5.523-4.477 10-10 10z" fill="#f8f7f7"/><path d="m88.5 7.5v79h-6c-5.52 0-10-4.48-10-10v-26.06l3.995-5.504-3.995-11.376v-16.06c0-5.52 4.48-10 10-10z" fill="#e8e8e8"/></g><g><path d="m127.5 474.5-15 3.509-13.408-3.509.991-291.537c0-35.899 26.427-65.862 62.326-65.862l10.569-.601h201.522v30h-212c-19.33 0-35 15.67-35 35z" fill="#857e87"/></g><g><path d="m176.5 116.5c-35.9 0-65 29.1-65 65v293l-7.564 3.509-6.436-3.509v-293c0-35.9 29.1-65 65-65z" fill="#6f6571"/></g><path d="m137.927 502.862-51.165.193c-1.657 0-3-1.343-3-3l.248-9.33c0-7.249 10.468-15.92 10.468-15.92.976-.2 1.987-.305 3.023-.305h30c8.284 0 15 6.716 15 15v2l-1.573 8.362c-.001 1.657-1.345 3-3.001 3z" fill="#857e87"/><path d="m142.5 491.5v10c0 1.66-1.34 3-3 3h-54c-1.66 0-3-1.34-3-3v-12c0-7.25 5.15-13.31 12-14.7v13.7c0 1.66 1.34 3 3 3z" fill="#6f6571"/><path d="m374.5 287.5h-185c-8.284 0-13.922-6.716-13.922-15 0-7.616 4.599-13.907 11.952-14.872.645-.085 1.302-.128 1.97-.128h185l4.115 15z" fill="#e8e8e8"/><path d="m374.5 273.5 3.041 6.509-3.041 7.491-89.034 7.206-95.966-7.206c-8.28 0-15-6.72-15-15 0-4.14 1.68-7.89 4.4-10.6 2.27-2.28 5.27-3.83 8.63-4.27-.02.29-.03.58-.03.87 0 8.28 6.72 15 15 15z" fill="#d8d8d8"/><path d="m466.836 287.5h-88.221v-171l43.385-4.436 47.5 4.436v156z" fill="#f8f7f7"/><path d="m469.5 272.5v15l-43.656 7.206-51.344-7.206v-171l7.968-2.894 7.032 2.894v149c0 3.866 3.134 7 7 7z" fill="#e8e8e8"/><path d="m469.5 116.5h-93.528l-.11-7.959c0-9.319 5.011-19.191 13.638-21.411 1.598-.411 3.273-.63 5-.63h55c11.046 0 20 8.954 20 20z" fill="#e8e8e8"/><path d="m389.5 87.13v29.37h-15v-10c0-9.32 6.37-17.15 15-19.37z" fill="#d8d8d8"/><path d="m408.45 411.624h-131.266c-20.726 0-40.958-6.324-57.994-18.128-27.455-19.023-42.69-46.783-42.69-80.184v-9.128c0-8.86 5.369-16.083 14.229-16.083l.771-.601h278v21.205c0 5.479-2.796 10.578-7.414 13.525-27.21 17.358-45.041 45.768-49.17 77.269-.001 0-4.509 7.069-4.466 12.125z" fill="#f8f7f7"/><path d="m412.92 399.5c-.61 4.64-.92 9.35-.92 14.1v.9h-135.67c-20.73 0-40.96-6.32-57.99-18.13-13.73-9.51-24.69-22.09-32.22-36.46-7.52-14.37-11.62-30.54-11.62-47.24v-9.13c0-8.86 7.18-16.04 16.04-16.04h.96v10.17c0 16.7 4.1 32.87 11.62 47.24 7.53 14.37 18.49 26.95 32.22 36.46 17.03 11.81 37.26 18.13 57.99 18.13z" fill="#e8e8e8"/></g><path d="m449.5 79h-55c-15.164 0-27.5 12.336-27.5 27.5v2.5h-171c0-5.499 0-35.254 0-39.5h7.5c12.407 0 22.5-10.093 22.5-22.5s-10.093-22.5-22.5-22.5h-7.5v-7c0-9.649-7.851-17.5-17.5-17.5h-42.458c-4.142 0-7.5 3.358-7.5 7.5s3.358 7.5 7.5 7.5h42.458c1.378 0 2.5 1.122 2.5 2.5v19.935l-11.835 6.121-15.89-8.218c-2.161-1.118-4.73-1.118-6.891 0l-15.887 8.218-15.886-8.218c-2.161-1.118-4.73-1.118-6.892 0l-15.886 8.218-11.833-6.12v-19.936c0-1.378 1.122-2.5 2.5-2.5h18.542c4.142 0 7.5-3.358 7.5-7.5s-3.358-7.5-7.5-7.5h-18.542c-9.649 0-17.5 7.851-17.5 17.5v7h-7.5c-12.407 0-22.5 10.093-22.5 22.5s10.093 22.5 22.5 22.5h7.5v62c0 9.649 7.851 17.5 17.5 17.5h15.222c-4.928 9.783-7.722 20.818-7.722 32.5v286.79c-8.729 3.096-15 11.432-15 21.21v15c0 4.142 3.358 7.5 7.5 7.5h60c4.142 0 7.5-3.358 7.5-7.5v-15c0-9.778-6.271-18.114-15-21.21v-286.79c0-15.164 12.336-27.5 27.5-27.5h42.989c4.142 0 7.5-3.358 7.5-7.5s-3.358-7.5-7.5-7.5h-42.989c-23.435 0-42.5 19.065-42.5 42.5v285.5h-15v-285.5c0-31.706 25.794-57.5 57.5-57.5h204.5v15h-126.511c-4.142 0-7.5 3.358-7.5 7.5s3.358 7.5 7.5 7.5h126.511v96h-177.5c-12.407 0-22.5 10.093-22.5 22.5 0 5.913 2.296 11.298 6.04 15.318-3.752 4.172-6.04 9.686-6.04 15.725v9.127c0 25.533 9.004 50.396 25.354 70.009 1.483 1.78 3.616 2.698 5.765 2.698 1.693 0 3.396-.57 4.798-1.739 3.182-2.652 3.611-7.381.958-10.563-14.106-16.923-21.875-38.375-21.875-60.405v-9.127c0-4.71 3.832-8.542 8.542-8.542h271.458v13.705c0 2.933-1.476 5.625-3.948 7.202-31.729 20.241-51.304 53.892-53.374 91.093-20.12 0-110.601 0-128.348 0-16.801 0-33.335-4.501-47.817-13.018-3.568-2.099-8.166-.908-10.267 2.663-2.1 3.57-.908 8.167 2.663 10.267 16.784 9.87 35.949 15.087 55.421 15.087h17.82l-15.808 71.138c-1.025 4.614.083 9.374 3.04 13.061s7.365 5.801 12.091 5.801h110.527c8.547 0 15.5-6.953 15.5-15.5v-7h18.221c2.133 7.216 8.811 12.5 16.708 12.5h15.071c4.142 0 7.5-3.358 7.5-7.5v-70c0-4.142-3.358-7.5-7.5-7.5h-15.071c-7.898 0-14.575 5.284-16.708 12.5h-18.221v-15c0-.011-.002-.022-.002-.033 0-.01.001-.019.001-.029-.291-34.97 17.137-67.076 46.62-85.884 6.813-4.347 10.881-11.766 10.881-19.848 0-14.305 0-63.269 0-78.109 0-4.142-3.358-7.5-7.5-7.5s-7.5 3.358-7.5 7.5v49.403h-80v-156h80v71.596c0 4.142 3.358 7.5 7.5 7.5s7.5-3.358 7.5-7.5c0-5.94 0-86.071 0-89.096 0-15.164-12.336-27.5-27.5-27.5zm-45.5 418h-110.527c-.072 0-.24 0-.39-.187s-.114-.351-.098-.421l16.531-74.392h94.984v74.5c0 .276-.224.5-.5.5zm48-62.571c0-1.339 1.09-2.429 2.429-2.429h7.571v55h-7.571c-1.339 0-2.429-1.09-2.429-2.429zm-15 10.071v30h-17.5v-30zm-233.5-405c4.136 0 7.5 3.364 7.5 7.5s-3.364 7.5-7.5 7.5h-7.5v-15zm-115.114 19.162c1.081.559 2.263.838 3.446.838s2.365-.279 3.446-.838l15.886-8.218 15.886 8.218c2.161 1.118 4.73 1.118 6.892 0l15.887-8.218 15.89 8.218c2.161 1.118 4.729 1.118 6.891 0l8.39-4.339v22.178c0 1.378-1.122 2.5-2.5 2.5h-96c-1.378 0-2.5-1.122-2.5-2.5 0-1.881 0-20.643 0-22.176zm-30.886-4.162c-4.136 0-7.5-3.364-7.5-7.5s3.364-7.5 7.5-7.5h7.5v15zm77.5 442.5h-45v-7.5c0-4.136 3.364-7.5 7.5-7.5h30c4.136 0 7.5 3.364 7.5 7.5zm-27.202-363h-25.298c-1.378 0-2.5-1.122-2.5-2.5v-37.7h101v15.2h-18.5c-21.818 0-41.4 9.701-54.702 25zm81.702 131h177.5v15h-177.5c-4.136 0-7.5-3.364-7.5-7.5s3.364-7.5 7.5-7.5zm192.5-156v-2.5c0-6.893 5.607-12.5 12.5-12.5h55c6.893 0 12.5 5.607 12.5 12.5v2.5z"/></g></svg>