<svg id="Capa_1" enable-background="new 0 0 512 512" height="512" viewBox="0 0 512 512" width="512" xmlns="http://www.w3.org/2000/svg"><g><g><g><path d="m296.592 504.5h-225.905c-34.897 0-63.187-28.29-63.187-63.187v-225.905c0-34.897 28.29-63.187 63.187-63.187h225.905c34.897 0 63.187 28.29 63.187 63.187v225.905c0 34.897-28.29 63.187-63.187 63.187z" fill="#f58a97"/><path d="m296.592 152.222h-30c34.897 0 63.187 28.289 63.187 63.187v225.905c0 34.897-28.29 63.187-63.187 63.187h30c34.897 0 63.187-28.29 63.187-63.187v-225.906c0-34.897-28.29-63.186-63.187-63.186z" fill="#f07281"/></g><circle cx="183.639" cy="328.361" fill="#eaf6ff" r="129.408"/><path d="m217.287 412.757-20.293-42.802c-5.237-11.047-21.473-11.047-26.711 0l-20.293 42.802c-2.76 5.821-11.229 6.051-14.322.388l-4.065-7.441c-11.34-20.761-13.421-45.13-5.784-67.417l.136-.398c1.701-4.963 1.673-10.177-.021-15.021l-12.851-36.736c-9.476-27.089 16.547-53.262 44.921-45.181l18.752 5.341c4.492 1.279 9.271 1.279 13.763 0l18.752-5.341c28.374-8.082 54.397 18.092 44.921 45.181l-12.851 36.736c-1.694 4.844-1.711 10.089-.048 14.943 7.748 22.613 5.625 47.302-5.881 68.367l-3.806 6.967c-3.09 5.663-11.559 5.433-14.319-.388z" fill="#d8ecfe"/><g><path d="m254.194 286.132c9.476-27.089-16.547-53.263-44.921-45.181l-5.085 1.449c16.263 6.929 26.519 25.114 20.006 43.732l-12.851 36.736c-1.694 4.844-1.711 10.089-.048 14.943 6.638 19.372 6.024 40.265-1.52 59.101l7.512 15.845c2.76 5.821 11.228 6.051 14.321.388l3.805-6.967c11.505-21.065 13.629-45.754 5.881-68.367-1.663-4.854-1.646-10.099.048-14.943z" fill="#c4e2ff"/></g></g><path d="m207.218 233.738-18.752 5.341c-3.156.898-6.495.899-9.653 0l-18.752-5.341c-16.229-4.624-33.411.042-44.847 12.172-11.026 11.698-14.469 27.66-9.208 42.698l12.851 36.736c1.147 3.279 1.149 6.776.007 10.109l-.138.402c-8.285 24.18-5.99 50.948 6.298 73.442l4.064 7.442c5.753 10.773 22.52 10.397 27.681-.771l20.293-42.802c1.759-3.71 5.479-3.998 6.578-3.998s4.819.288 6.578 3.998l20.292 42.802c5.126 11.083 21.89 11.634 27.681.771l3.806-6.967c12.452-22.797 14.782-49.912 6.394-74.393-1.126-3.287-1.114-6.758.032-10.036l12.851-36.736c5.261-15.038 1.819-31-9.208-42.698-11.436-12.129-28.619-16.792-44.848-12.171zm39.896 49.917-12.851 36.736c-2.236 6.394-2.259 13.443-.063 19.851 7.026 20.508 5.07 43.23-5.368 62.341l-3.806 6.967c-.046.217-.873.281-.962-.006l-20.292-42.802c-3.677-7.755-11.392-12.572-20.133-12.572s-16.456 4.817-20.133 12.572l-20.293 42.802c-.081.274-.91.213-.962.007l-4.064-7.442c-10.274-18.808-12.196-41.184-5.273-61.387l.138-.401c2.245-6.55 2.232-13.441-.037-19.929l-12.851-36.736c-3.375-9.649-1.146-19.913 5.965-27.456 7.577-8.038 19.004-11.115 29.822-8.035l18.753 5.341c5.846 1.667 12.027 1.666 17.871 0l18.752-5.341c10.822-3.08 22.247-.002 29.822 8.035 7.111 7.542 9.34 17.806 5.965 27.455zm-63.474-92.202c-75.491 0-136.908 61.416-136.908 136.907s61.417 136.908 136.908 136.908 136.907-61.417 136.907-136.908-61.416-136.907-136.907-136.907zm0 258.816c-67.221 0-121.908-54.688-121.908-121.908s54.688-121.907 121.908-121.907 121.907 54.688 121.907 121.907c0 67.22-54.688 121.908-121.907 121.908zm230.86-450.269c-1.273 0-228.993 0-230.86 0-85.767 0-154.7 71.026-152.257 156.688-18.911 12.699-31.383 34.279-31.383 58.72v225.905c0 38.977 31.71 70.687 70.687 70.687h225.905c38.977 0 70.687-31.71 70.687-70.687v-75.861c0-4.143-3.357-7.5-7.5-7.5s-7.5 3.357-7.5 7.5v75.861c0 30.706-24.98 55.687-55.687 55.687h-225.905c-30.707 0-55.687-24.98-55.687-55.687v-225.905c0-30.706 24.98-55.687 55.687-55.687h225.905c30.706 0 55.687 24.98 55.687 55.687v115.044c0 4.143 3.357 7.5 7.5 7.5s7.5-3.357 7.5-7.5v-115.044c0-24.44-12.471-46.02-31.381-58.719 1.744-61.852-33.824-116.381-86.373-141.689h164.975c45.49 0 82.5 37.01 82.5 82.5v384.5c0 8.271-6.729 15-15 15s-15-6.729-15-15v-109.449c0-16.542-13.458-30-30-30h-.137c-16.542 0-30 13.458-30 30v131.949c0 4.143 3.357 7.5 7.5 7.5s7.5-3.357 7.5-7.5v-131.949c0-8.271 6.729-15 15-15h.137c8.271 0 15 6.729 15 15v109.449c0 16.542 13.458 30 30 30s30-13.458 30-30v-384.5c0-53.762-43.738-97.5-97.5-97.5zm-277.563 144.722c3.647-22.487 23.21-39.722 46.703-39.722s43.057 17.235 46.704 39.722zm138.709 0c-3.876-47.356-43.677-84.722-92.006-84.722-8.939 0-17.783 1.282-26.284 3.812-3.97 1.181-6.231 5.356-5.05 9.327s5.354 6.229 9.327 5.05c7.112-2.116 14.516-3.189 22.007-3.189 40.056 0 73.113 30.648 76.942 69.722h-15.1c-3.763-30.783-30.071-54.722-61.842-54.722s-58.078 23.939-61.841 54.722h-15.099c1.971-20.028 11.689-38.552 27.344-51.673 3.175-2.661 3.592-7.392.931-10.565-2.659-3.175-7.391-3.59-10.565-.931-19.068 15.981-30.764 38.687-32.776 63.169h-15.04c3.914-55.639 50.44-99.722 107.046-99.722 56.607 0 103.133 44.083 107.047 99.722zm45.272 4.315c-4.828-1.775-9.908-3.018-15.162-3.701-3.636-64.204-57.03-115.336-122.116-115.336-65.085 0-118.48 51.132-122.116 115.335-5.253.683-10.333 1.925-15.162 3.7 1.751-74.207 62.658-134.035 137.278-134.035s135.528 59.829 137.278 134.037z"/></g></svg>