<svg id="Capa_1" enable-background="new 0 0 512 512" height="512" viewBox="0 0 512 512" width="512" xmlns="http://www.w3.org/2000/svg"><g><g><path d="m256 397.6c74 0 141.3-25.2 180.3-68l-7-165c-38.3 6-139.3 21.4-173.3 21.4-42.3 0-188.3-23.7-188.3-23.7v149.4c19.6 50.6 104.5 85.9 188.3 85.9z" fill="#bae6ef"/><path d="m444.3 162.2s-5.6.9-15 2.4v161c-39 42.8-99.3 65-173.3 65-83.8 0-139.5-25.5-188.3-79v20c43.9 48.1 109.4 74 188.3 74s144.4-25.9 188.3-74z" fill="#94d8e6"/></g><g><path d="m256 413.1c-.1 0-.1 0-.2 0h-.1-.1c-81-.1-147.9-26.5-193.4-76.4-2.8-3-5.4-6.1-8-9.3-35.5-43.7-54.1-101.8-54.2-169.7v-.1-.1s0 0 0-.1c0 0 0 0 0-.1v-.1-.1c0-50.6 21.4-58.2 34.2-58.2 24.1 0 29.8 22.7 34.4 40.9 1.3 5.3 2.7 10.8 4.5 15.6 24.1 3.9 145.7 23 182.9 23 14.8 0 46-3.2 90.2-9.2 4.1-.6 7.9 2.3 8.4 6.4s-2.3 7.9-6.4 8.4c-45.5 6.2-76.5 9.3-92.2 9.3-36.9 0-148.4-17.3-180.8-22.4v74.7c13.2 7.1 28.4 13.2 45.3 18.2 4 1.2 6.2 5.4 5 9.3-1.2 4-5.4 6.2-9.3 5-14.9-4.5-28.7-9.7-41-15.8v23.8c42.7 33.9 105.2 51.8 180.8 51.8 4.1 0 7.5 3.4 7.5 7.5s-3.4 7.5-7.5 7.5c-73.8 0-135.9-16.6-180.8-48.1v23.6c4.7 5 9.7 9.8 14.9 14.3 41.5 36 98 54.9 164.8 55.1h2.2c66.8-.2 123.2-19.2 164.7-55.1 5.2-4.5 10.2-9.3 14.9-14.4v-23.6c-37.5 26.3-87.6 42.4-146.1 46.9-4.1.3-7.7-2.8-8-6.9s2.8-7.7 6.9-8c60.5-4.6 111.3-22.1 147.3-50.6v-23.7c-44.7 22.1-106.9 33.6-180.8 33.6-39.6 0-76.1-3.3-108.4-9.9-4.1-.8-6.7-4.8-5.9-8.8s4.8-6.7 8.8-5.9c31.4 6.4 66.9 9.6 105.5 9.6 75.4 0 137.8-12.2 180.8-35.3v-74.7c-11.1 1.8-31.9 5-55.5 8.4-4.1.6-7.9-2.2-8.5-6.3s2.2-7.9 6.3-8.5c27.2-4 50.6-7.7 59.7-9.1 1.7-4.8 3.1-10.3 4.5-15.6 4.6-18.2 10.3-40.9 34.4-40.9 12.8 0 34.2 7.6 34.2 58.2v.1.1.1.1.1.1c-.1 67.6-18.5 125.4-53.5 168.9-2.8 3.5-5.6 6.8-8.6 10.1-45.5 49.9-112.4 76.3-193.4 76.4h-.1-.1-.1c0-.1-.1-.1-.1-.1zm-221.2-147.9c6.8 16.5 15.3 31.6 25.4 45.3v-146.8c-2.6-6.3-4.4-13.4-6.1-20.2-6.7-26.7-11.5-29.6-19.9-29.6-17.3 0-19.2 30.2-19.2 43.2v.1.1.1.1.1.1c.1 39.7 6.8 76 19.8 107.5zm417-101.5v146.9c10.2-13.8 18.7-29.1 25.6-45.7 12.9-31.5 19.6-67.6 19.6-107.2v-.1s0 0 0-.1c0 0 0 0 0-.1 0 0 0 0 0-.1 0 0 0 0 0-.1v-.1c0-13-1.9-43.2-19.2-43.2-8.4 0-13.2 2.9-19.9 29.6-1.7 6.8-3.5 13.9-6.1 20.2zm-195.8 59.7c-14.7 0-41.1-2.5-51.7-4.1-4.1-.6-6.9-4.5-6.3-8.6s4.5-6.9 8.6-6.3c11.1 1.7 36.6 3.9 49.4 3.9s38.3-2.2 49.4-3.9c4.1-.6 7.9 2.2 8.6 6.3.6 4.1-2.2 7.9-6.3 8.6-10.6 1.7-37 4.1-51.7 4.1z"/></g></g></svg>