<svg id="Capa_1" enable-background="new 0 0 512 512" height="512" viewBox="0 0 512 512" width="512" xmlns="http://www.w3.org/2000/svg"><g><g><path d="m118.404 187.606h-26.973l-.716-33.074c0-7.948 5.466-16.378 13.284-16.893.331-.022.664-.033 1.001-.033 8.284 0 15 6.716 15 15v22.004z" fill="#f8f7f7"/><path d="m120 174.61v13l-15.991 5.702-14.009-5.702v-35c0-7.95 6.18-14.45 14-14.96v31.96c0 2.761 2.239 5 5 5z" fill="#e8e8e8"/><g><path d="m494.5 237.606-11.555 4.256-11.229-4.256v-128.074c0-4.208-4.814-4.734-8.494-6.21-1.15-.461-2.406-.715-3.721-.715h-407c-5.523 0-10 4.477-10 10v125l-12.693 3.485-10.459-3.485-.661-123.45c0-19.33 14.441-36.069 33.771-36.069l9.413-.481h397.628c19.33 0 35 15.67 35 35z" fill="#e8e8e8"/></g><g fill="#d8d8d8"><path d="m64.5 77.61c-19.33 0-35 15.67-35 35v125l-6.408 4.142-5.592-4.142v-125c0-19.33 15.67-35 35-35z"/><path d="m481.5 112.61v125l-5.711 4.996-6.289-4.996v-125c0-5.53-4.48-10-10-10h12c5.52 0 10 4.47 10 10z"/></g><circle cx="467" cy="21.894" fill="#f8f7f7" r="15"/><path d="m469.5 311.22 12 3.386h19c2.209 0 4-1.791 4-4v-69c0-2.209-1.791-4-4-4h-19l-12 2.274z" fill="#857e87"/><path d="m481.5 237.61v77h-12l-8.353-39.72 8.353-37.28z" fill="#6f6571"/><path d="m12.615 313.734 7.885.872h22l9.216-35.753-9.216-41.247h-22l-8.05 1.485c-2.209 0-4 1.791-4 4l.165 66.642c0 2.21 1.791 4.001 4 4.001z" fill="#857e87"/><path d="m20.5 237.61v77h-9c-2.21 0-4-1.79-4-4v-69c0-2.21 1.79-4 4-4z" fill="#6f6571"/><g><path d="m240.394 159.606h35c8.284 0 15 6.716 15 15l-1.981 13h-61.899l.028-11.799c0-7.947 12.848-16.168 12.848-16.168.331-.021.666-.033 1.004-.033z" fill="#857e87"/><path d="m290.39 174.61 6.83 5.931-6.83 7.069-34.39 6.28-30.61-6.28v-13c0-7.95 6.18-14.45 14-14.96v9.96c0 2.761 2.239 5 5 5z" fill="#6f6571"/></g><g><path d="m305.395 159.606h35c8.284 0 15 6.716 15 15l-1.981 13h-61.899l.028-11.799c0-7.947 12.848-16.168 12.848-16.168.332-.021.667-.033 1.004-.033z" fill="#857e87"/><path d="m355.392 174.61 3.92 7.693-3.92 5.307-34.39 6.28-30.61-6.28v-13c0-7.95 6.18-14.45 14-14.96v9.96c0 2.761 2.239 5 5 5z" fill="#6f6571"/></g><g><path d="m370.397 159.606h35c8.284 0 15 6.716 15 15l-1.981 13h-61.899l.028-11.799c0-7.947 12.848-16.168 12.848-16.168.332-.021.667-.033 1.004-.033z" fill="#857e87"/><path d="m420.394 174.61v13l-34.39 6.28-30.61-6.28v-13c0-7.95 6.18-14.45 14-14.96v9.96c0 2.761 2.239 5 5 5z" fill="#6f6571"/></g><path d="m426.495 499.89-344.495-1.89c-19.33 0-35-15.67-35-35l-1.229-232.807c0-11.892 2.66-29.984 11.725-36.309 5.67-3.956 12.566-6.277 20.005-6.277h357c19.33 0 35 15.67 35 35v245c0 7.439-2.321 14.335-6.277 20.006-6.326 9.063-24.837 12.277-36.729 12.277z" fill="#afefa5"/><path d="m463.22 487.61c-6.32 9.07-16.83 15-28.72 15h-357c-19.33 0-35-15.67-35-35v-245c0-11.89 5.93-22.4 15-28.72v259.72c0 18.77 15.22 34 34 34z" fill="#8ce1a4"/><path d="m439.5 227.61v95l-197.216 11.729-169.784-11.729v-95c0-5.53 4.48-10 10-10h347c5.52 0 10 4.47 10 10z" fill="#857e87"/><path d="m439.5 322.61v22.5l-4.5 6.975 4.5 8.025v15l-4.5 6.975 4.5 8.025v15l-4.5 6.975 4.5 8.025v15l-4.5 8.025 4.5 6.975v12.5c0 5.52-4.48 10-10 10h-347c-5.52 0-10-4.48-10-10v-12.5l5.858-7.5-5.858-7.5v-15l5.858-7.5-5.858-7.5v-15l5.858-8.871-5.858-6.129v-15l5.858-7.5-5.858-7.5v-22.5z" fill="#f8f7f7"/><g><path d="m150 270.106c0-13.807-11.193-25-25-25-3.729 0-7.267.816-10.446 2.28 0 0-5.266 4.333-7.572 6.971-3.844 4.396-5.972 9.45-5.972 15.749 0 13.807 10.184 23.554 23.991 23.554 7.333 0 13.34-2.76 17.913-7.789 2.126-2.338 5.526-7.048 5.526-7.048 1.008-2.714 1.56-5.651 1.56-8.717z" fill="#f8f7f7"/><path d="m148.438 278.823c-3.53 9.51-12.698 16.287-23.438 16.287-13.81 0-25-11.2-25-25 0-10.08 5.954-18.783 14.554-22.723-1.01 2.71-1.554 5.653-1.554 8.723 0 13.8 11.19 25 25 25 3.72 0 7.268-.807 10.438-2.287z" fill="#e8e8e8"/></g><g><path d="m412 270.106c0-13.807-11.193-25-25-25-3.729 0-7.267.816-10.446 2.28 0 0-5.266 4.333-7.572 6.971-3.844 4.396-5.972 9.45-5.972 15.749 0 13.807 10.184 23.554 23.991 23.554 7.333 0 13.34-2.76 17.913-7.789 2.126-2.338 5.526-7.048 5.526-7.048 1.008-2.714 1.56-5.651 1.56-8.717z" fill="#f8f7f7"/><path d="m410.438 278.823c-3.53 9.51-12.698 16.287-23.438 16.287-13.81 0-25-11.2-25-25 0-10.08 5.954-18.783 14.554-22.723-1.01 2.71-1.554 5.653-1.554 8.723 0 13.8 11.19 25 25 25 3.72 0 7.268-.807 10.438-2.287z" fill="#e8e8e8"/></g></g><g><path d="m369 210.106h-286.5c-9.649 0-17.5 7.851-17.5 17.5v235c0 9.649 7.851 17.5 17.5 17.5h347c9.649 0 17.5-7.851 17.5-17.5v-235c0-9.649-7.851-17.5-17.5-17.5h-25.5c-4.143 0-7.5 3.358-7.5 7.5s3.357 7.5 7.5 7.5h25.5c1.379 0 2.5 1.122 2.5 2.5v87.5h-352v-87.5c0-1.378 1.122-2.5 2.5-2.5h286.5c4.143 0 7.5-3.358 7.5-7.5s-3.357-7.5-7.5-7.5zm63 195h-352v-15h352zm-352 15h352v15h-352zm352-45h-352v-15h352zm-2.5 90h-347c-1.378 0-2.5-1.122-2.5-2.5v-12.5h352v12.5c0 1.379-1.121 2.5-2.5 2.5zm2.5-135v15h-352v-15z"/><path d="m504.5 230.106h-2.5v-44.106c0-4.142-3.357-7.5-7.5-7.5s-7.5 3.358-7.5 7.5v44.106h-10c-.003-1.299.002-113.069 0-117.5 0-9.649-7.851-17.5-17.5-17.5h-407c-9.649 0-17.5 7.851-17.5 17.5-.003 6.877.005 113.364 0 117.5h-10v-117.5c0-15.164 12.336-27.5 27.5-27.5h67.5c4.142 0 7.5-3.358 7.5-7.5s-3.358-7.5-7.5-7.5h-67.5c-23.435 0-42.5 19.065-42.5 42.5v117.5h-2.5c-4.142 0-7.5 3.358-7.5 7.5v77c0 4.142 3.358 7.5 7.5 7.5h27.5v31.511c0 4.142 3.358 7.5 7.5 7.5s7.5-3.358 7.5-7.5v-131.011c0-15.164 12.336-27.5 27.5-27.5h357c15.163 0 27.5 12.336 27.5 27.5v245c0 15.164-12.337 27.5-27.5 27.5h-357c-15.164 0-27.5-12.336-27.5-27.5v-78.989c0-4.142-3.358-7.5-7.5-7.5s-7.5 3.358-7.5 7.5v78.989c0 23.435 19.065 42.5 42.5 42.5h357c23.435 0 42.5-19.065 42.5-42.5v-145.5h27.5c4.143 0 7.5-3.358 7.5-7.5v-77c0-4.142-3.357-7.5-7.5-7.5zm-489.5 77v-62h20v62zm35-116.865v-77.634c0-1.378 1.122-2.5 2.5-2.5h157.837l-85.431 32.028c-3.774-7.145-11.278-12.028-19.906-12.028-12.407 0-22.5 10.093-22.5 22.5v27.5h-5c-10.481-.001-20.082 3.821-27.5 10.134zm62.5-10.135h-15v-27.5c0-4.136 3.364-7.5 7.5-7.5s7.5 3.364 7.5 7.5zm185.394-5.5c0-4.136 3.364-7.5 7.5-7.5h35c4.136 0 7.5 3.364 7.5 7.5v5.5h-50zm65 0c0-4.136 3.364-7.5 7.5-7.5h35c4.136 0 7.5 3.364 7.5 7.5v5.5h-50zm-80 5.5h-50v-5.5c0-4.136 3.364-7.5 7.5-7.5h35c4.136 0 7.5 3.364 7.5 7.5zm151.606 0h-6.606v-5.5c0-12.407-10.094-22.5-22.5-22.5h-35c-5.758 0-11.016 2.177-15 5.748-3.984-3.571-9.242-5.748-15-5.748h-35c-5.758 0-11.016 2.177-15 5.748-3.984-3.571-9.242-5.748-15-5.748h-35c-12.407 0-22.5 10.093-22.5 22.5v5.5h-90.394v-22.926l125.566-47.074h206.434c1.379 0 2.5 1.122 2.5 2.5v77.634c-7.418-6.312-17.019-10.134-27.5-10.134zm62.5 127h-20v-62h20z"/><path d="m155 85.106h304.5c15.163 0 27.5 12.336 27.5 27.5v38.394c0 4.142 3.357 7.5 7.5 7.5s7.5-3.358 7.5-7.5v-38.394c0-23.435-19.065-42.5-42.5-42.5h-99.737l92.542-34.694c3.657 3.973 8.883 6.481 14.696 6.481 11.028 0 20-8.972 20-20s-8.972-20-20-20c-10.852 0-19.693 8.693-19.974 19.478l-129.996 48.735h-162.031c-4.142 0-7.5 3.358-7.5 7.5s3.358 7.5 7.5 7.5zm312-68.212c2.757 0 5 2.243 5 5s-2.243 5-5 5-5-2.243-5-5 2.243-5 5-5z"/><path d="m95 270.106c0 16.542 13.458 30 30 30s30-13.458 30-30-13.458-30-30-30-30 13.458-30 30zm45 0c0 8.271-6.729 15-15 15s-15-6.729-15-15 6.729-15 15-15 15 6.729 15 15z"/><path d="m357 270.106c0 16.542 13.458 30 30 30s30-13.458 30-30-13.458-30-30-30-30 13.458-30 30zm30-15c8.271 0 15 6.729 15 15s-6.729 15-15 15-15-6.729-15-15 6.729-15 15-15z"/><path d="m337.5 262.606c4.143 0 7.5-3.358 7.5-7.5s-3.357-7.5-7.5-7.5h-163c-4.142 0-7.5 3.358-7.5 7.5s3.358 7.5 7.5 7.5h14v15h-14c-4.142 0-7.5 3.358-7.5 7.5s3.358 7.5 7.5 7.5h163c4.143 0 7.5-3.358 7.5-7.5s-3.357-7.5-7.5-7.5h-14v-15zm-74 0h15v15h-15zm-15 15h-15v-15h15zm-45-15h15v15h-15zm105 15h-15v-15h15z"/></g></g></svg>