<svg id="Capa_1" enable-background="new 0 0 512.002 512.002" height="512" viewBox="0 0 512.002 512.002" width="512" xmlns="http://www.w3.org/2000/svg"><g><g><path d="m381.083 107.12v181.93c0 12.61-10.22 22.83-22.83 22.83h-224.12c-12.61 0-22.83-10.22-22.83-22.83v-181.93c0-55.02 44.6-99.62 99.62-99.62h70.54c55.02 0 99.62 44.6 99.62 99.62z" fill="#ffe270"/><path d="m263.493 311.88h-75.92c.01-.34.02-.68.02-1.02v-64.27h75.87v64.27c0 .34.01.68.03 1.02z" fill="#ffd15b"/><path d="m281.468 7.5h-20.662c55.018 0 99.62 44.601 99.62 99.62v181.926c0 12.611-10.223 22.833-22.834 22.833h20.662c12.611 0 22.833-10.223 22.833-22.833v-181.926c0-55.019-44.601-99.62-99.619-99.62z" fill="#ffd15b"/><path d="m109.578 353.546-26.934 8.6c-23.108 7.378-39.962 27.32-43.386 51.335l-12.979 91.019h83.299z" fill="#fe5694"/><path d="m88.916 360.144v144.356h20.662v-150.954z" fill="#fd3581"/><path d="m382.808 353.546 26.934 8.6c23.108 7.378 39.962 27.32 43.386 51.335l12.979 91.019h-83.299z" fill="#fe5694"/><path d="m453.128 413.48c-3.424-24.014-20.278-43.956-43.386-51.334l-26.934-8.6v6.598l6.272 2.002c23.108 7.378 39.962 27.32 43.386 51.334l12.979 91.02h20.662z" fill="#fd3581"/><path d="m370.62 224.912h-30.418l7.305-60.293h23.114c11.275 0 20.415 9.14 20.415 20.415v19.463c-.001 11.275-9.142 20.415-20.416 20.415z" fill="#fed2a4"/><path d="m370.62 164.619h-20.662c11.275 0 20.415 9.14 20.415 20.415v19.463c0 11.275-9.14 20.415-20.415 20.415h20.662c11.275 0 20.415-9.14 20.415-20.415v-19.463c0-11.275-9.14-20.415-20.415-20.415z" fill="#ffbd86"/><path d="m382.807 353.543v150.957h-273.228v-150.957l33.201-7.255 44.857-9.808c12.039-2.626 20.622-13.295 20.622-25.625v-64.265h75.868v64.265c0 12.33 8.583 22.999 20.622 25.625l44.857 9.808z" fill="#fed2a4"/><path d="m349.606 346.288-44.856-9.808c-12.039-2.626-20.622-13.295-20.622-25.625v-64.264h-20.662v64.264c0 12.33 8.583 22.999 20.622 25.625l44.857 9.808 33.201 7.255v150.957h20.662v-150.958z" fill="#ffbd86"/><path d="m382.803 353.54v150.96h-273.22v-150.96l40.44-8.83v23.47c0 8.26 6.7 14.96 14.96 14.96h162.42c8.26 0 14.96-6.7 14.96-14.96v-23.47z" fill="#a6e7f0"/><path d="m382.803 394.89v109.61h-86.66l8.93-54.66v-47.24c0-4.95 2.01-9.43 5.25-12.68 3.25-3.24 7.73-5.25 12.68-5.25 9.9 0 17.93 8.03 17.93 17.93v33.64h20.66v-17.66z" fill="#6bd9e7"/><g fill="#6bd9e7"><path d="m129.361 349.222v18.957c0 8.261 6.697 14.958 14.957 14.958h20.662c-8.261 0-14.957-6.697-14.957-14.958v-23.469z"/><path d="m342.363 344.71v4.512l19.778 4.318v150.96h20.662v-150.96z"/></g><path d="m147.855 126.508.005 80.457c0 45.359 36.771 82.13 82.13 82.13h35.381c45.359 0 82.13-36.771 82.13-82.13l.005-80.457c-40.139 0-99.826-47.853-99.826-47.853s-52.144 47.853-99.825 47.853z" fill="#fed2a4"/><path d="m247.681 78.656s-3.596 3.299-9.756 8.161c19.082 13.664 59.315 39.692 88.92 39.692l-.005 80.457c0 45.359-36.771 82.131-82.13 82.131h20.662c45.359 0 82.13-36.771 82.13-82.131l.005-80.457c-40.14-.001-99.826-47.853-99.826-47.853z" fill="#ffbd86"/><g fill="#ffe5c2"><ellipse cx="304.917" cy="204.882" rx="15.141" ry="8.553"/><ellipse cx="187.469" cy="204.882" rx="15.141" ry="8.553"/></g><path d="m31.019 447.683v28.409h27.993l5.112 16.136c2.315 7.307 9.097 12.273 16.762 12.273h117.728c7.665 0 14.447-4.966 16.762-12.273l5.112-16.136h27.993v-28.409z" fill="#5d5360"/><g fill="#4b3f4e"><path d="m194.714 492.227c-2.315 7.307-9.097 12.273-16.762 12.273h20.662c7.665 0 14.447-4.966 16.762-12.273l5.112-16.136h-20.662z"/><path d="m227.82 447.683h20.662v28.409h-20.662z"/></g><path d="m316.807 504.5h110.898l13.121-50.39 41.18-68.734c6.01-10.032 4.723-22.82-3.167-31.453-9.534-10.432-25.581-11.532-36.449-2.499l-80.798 67.154v-15.979c0-9.902-8.027-17.929-17.929-17.929-9.902 0-17.929 8.027-17.929 17.929v47.239z" fill="#a2aee6"/><g fill="#8795de"><path d="m340.93 402.599v33.641h20.662v-17.662-15.979c0-9.902-8.027-17.929-17.929-17.929-3.851 0-7.409 1.225-10.331 3.291 4.592 3.247 7.598 8.587 7.598 14.638z"/><path d="m478.84 353.923c-7.747-8.477-19.795-10.792-29.87-6.515 3.405 1.44 6.558 3.616 9.208 6.515 7.89 8.633 9.177 21.421 3.167 31.453l-41.18 68.734-13.121 50.39h20.662l13.121-50.39 41.179-68.734c6.011-10.032 4.724-22.821-3.166-31.453z"/></g><path d="m179.713 447.683h-79.926v-9.217c0-15.489 12.556-28.045 28.045-28.045h23.837c15.489 0 28.045 12.556 28.045 28.045v9.217z" fill="#d19a6e"/><path d="m151.669 410.421h-20.662c15.489 0 28.045 12.556 28.045 28.045v9.217h20.662v-9.217c-.001-15.489-12.557-28.045-28.045-28.045z" fill="#c38c66"/></g><g><path d="m246.193 207.431h6.891c4.143 0 7.5-3.357 7.5-7.5 0-3.938-3.033-7.166-6.891-7.476v-11.929c0-4.143-3.357-7.5-7.5-7.5s-7.5 3.357-7.5 7.5v19.404c0 4.143 3.358 7.501 7.5 7.501z"/><path d="m186.753 158.789c-4.143 0-7.5 3.357-7.5 7.5v13.241c0 4.143 3.357 7.5 7.5 7.5s7.5-3.357 7.5-7.5v-13.241c0-4.143-3.358-7.5-7.5-7.5z"/><path d="m305.634 187.03c4.143 0 7.5-3.357 7.5-7.5v-13.241c0-4.143-3.357-7.5-7.5-7.5s-7.5 3.357-7.5 7.5v13.241c0 4.143 3.357 7.5 7.5 7.5z"/><path d="m271.038 231.649c2.149-3.541 1.021-8.153-2.52-10.303-3.539-2.149-8.152-1.021-10.303 2.52-2.575 4.242-7.069 6.774-12.022 6.774s-9.447-2.532-12.022-6.774c-2.15-3.542-6.764-4.669-10.303-2.52-3.541 2.149-4.669 6.762-2.52 10.303 5.317 8.761 14.605 13.991 24.845 13.991s19.528-5.23 24.845-13.991z"/><path d="m484.376 348.863c-12.257-13.412-32.806-14.822-46.779-3.207l-15.945 13.252c-6.16-3.34-30.204-10.357-37.249-12.695l-78.048-17.06c-5.613-1.227-10.178-4.906-12.667-9.773h64.565c16.724 0 30.33-13.606 30.33-30.33v-63.209c6.079-5.124 9.95-12.787 9.95-21.341v-19.47c0-8.554-3.872-16.217-9.95-21.341v-56.569c0-59.066-48.054-107.12-107.12-107.12h-70.54c-59.065 0-107.119 48.054-107.119 107.12v3.314c0 4.143 3.357 7.5 7.5 7.5s7.5-3.357 7.5-7.5v-3.314c0-50.795 41.324-92.12 92.119-92.12h70.54c50.795 0 92.12 41.325 92.12 92.12v50.158c-.973-.103-1.96-.158-2.96-.158h-15.619l.002-30.611c.101-3.099-2.919-7.753-7.5-7.5-15.019 0-36.095-7.871-60.948-22.764-19.306-11.567-34.04-23.325-34.187-23.442-2.891-2.315-7.035-2.175-9.762.327-.5.458-50.505 45.879-94.755 45.879-1.989 0-3.896.79-5.304 2.197-1.406 1.406-2.196 3.314-2.196 5.303l.005 80.456c0 39.194 25.289 72.587 60.404 84.734v12.681h-66.63c-8.453 0-15.33-6.877-15.33-15.33v-143.281c0-4.143-3.357-7.5-7.5-7.5s-7.5 3.357-7.5 7.5v143.281c0 16.724 13.606 30.33 30.33 30.33h64.565c-2.489 4.868-7.055 8.547-12.668 9.773l-105.665 25.852c-25.536 8.144-44.059 29.647-48.34 56.119-.661 4.089 2.118 7.939 6.207 8.602 4.09.657 7.94-2.119 8.602-6.207 3.373-20.861 17.968-37.807 38.092-44.224l17.147-5.477v50.193c-5.83 5.942-10.237 16.341-9.786 26.172h-61.269c-4.143 0-7.5 3.357-7.5 7.5v23.061l-4.66 32.698c-.585 4.102 2.266 7.899 6.366 8.483.359.052.716.076 1.068.076 3.673 0 6.882-2.701 7.415-6.442l3.131-21.967h16.683l3.453 10.901c3.319 10.472 12.928 17.507 23.912 17.507h117.729c10.984 0 20.594-7.035 23.912-17.508l3.453-10.9h22.503c4.143 0 7.5-3.357 7.5-7.5v-28.409c0-4.143-3.357-7.5-7.5-7.5h-61.269c1.002-19.705-15.369-37.33-35.545-37.262h-23.837c-3.746 0-7.356.586-10.749 1.665v-45.007c1.329-.29 24.402-5.328 25.44-5.555v14.154c0 12.384 10.074 22.458 22.457 22.458h63.142l-6.291 6.291c-2.93 2.929-2.93 7.678-.001 10.606s7.678 2.93 10.606.001l13.757-13.756 13.757 13.756c1.464 1.464 3.384 2.196 5.303 2.196s3.839-.732 5.304-2.197c2.929-2.929 2.929-7.678-.001-10.606l-6.291-6.291h56.967c-1.91 3.568-2.997 7.64-2.997 11.962v46.631l-8.829 54.062c-.667 4.088 2.105 7.943 6.193 8.611 4.086.666 7.942-2.105 8.611-6.193l8.927-54.662c.064-.399.098-.804.098-1.209v-47.239c0-5.75 4.679-10.429 10.429-10.429 5.751 0 10.43 4.679 10.43 10.429v15.979 17.663c0 4.143 3.357 7.5 7.5 7.5s7.5-3.357 7.5-7.5v-14.145l18.478-15.357c.01-.008.019-.016.029-.024l59.585-49.523c7.802-6.483 19.274-5.697 26.119 1.791 5.609 6.138 6.543 15.406 2.27 22.539l-26.514 44.254c-.014.023-.028.047-.042.071l-14.624 24.408c-.367.612-.645 1.273-.824 1.965l-13.121 50.391c-1.044 4.008 1.359 8.104 5.368 9.147.634.165 1.27.244 1.895.244 3.332 0 6.374-2.237 7.253-5.612l12.85-49.349 3.191-5.326 7.675 53.843c.533 3.742 3.742 6.442 7.415 6.442.353 0 .709-.024 1.068-.076 4.101-.584 6.951-4.383 6.366-8.483l-10.285-72.155 25.197-42.056c7.652-12.774 5.98-29.374-4.067-40.367zm-76.918 20.431c.402.129.795.281 1.194.419l-18.339 15.242v-21.136zm-67.457-112.75-.001 47.835h-48.378v-11.71c19.989-6.134 37.021-19.083 48.379-36.125zm33.582 32.506c0 8.453-6.877 15.33-15.33 15.33h-3.252l.001-71.97c7.717-.117 11.163.244 18.581-.158zm-2.96-116.93c7.119 0 12.91 5.791 12.91 12.91v19.47c0 7.119-5.791 12.91-12.91 12.91h-15.621l.001-45.29zm-215.264 34.845-.005-73.302c39.564-3.576 79.113-33.987 92.609-45.317 14.486 10.899 57.329 41.118 92.039 45.204l-.002 73.416c0 41.151-33.479 74.631-74.63 74.631h-35.38c-41.151-.001-74.631-33.481-74.631-74.632zm43.255 290.035h-117.728c-4.415 0-8.278-2.828-9.612-7.037l-2.018-6.371h140.99l-2.018 6.37c-1.335 4.21-5.198 7.038-9.614 7.038zm42.368-28.408h-202.464v-13.409h202.464zm-89.313-50.671c11.427-.075 21.362 10.264 20.545 22.262h-64.927c-.942-11.21 8.583-22.337 20.545-22.262zm5.854-49.742v-17.439l31.713-6.932c14.941-3.172 26.55-17.172 26.527-32.947v-15.398c4.635.742 9.386 1.133 14.227 1.133h35.381c3.81 0 7.565-.241 11.252-.705v14.969c-.173 15.11 11.204 29.714 26.527 32.947l31.713 6.931v17.44c0 4.112-3.345 7.458-7.457 7.458h-162.426c-4.112.001-7.457-3.345-7.457-7.457zm190.299 9.337c1.307-2.845 2.041-6.006 2.041-9.337v-14.154l25.45 5.557v37.841l-6.221 5.17c-.003-12.603-9.222-23.086-21.27-25.077z"/></g></g></svg>