<svg id="Capa_1" enable-background="new 0 0 512 512" height="512" viewBox="0 0 512 512" width="512" xmlns="http://www.w3.org/2000/svg"><g><g><g><path d="m88.877 503.5c-2.709 0-5.262.327-7.499-.861-5.064-2.689-8.513-8.017-8.513-14.15v-85.678c0-43.822 35.256-80.247 79.077-79.99 26.231.154 47.62-21.141 47.62-47.337v-38.97c0-26.075-21.337-47.313-47.412-47.337-43.724-.04-79.285-35.625-79.285-79.359v-86.307c0-6.133 3.449-11.461 8.513-14.15 2.237-1.188 4.79-.861 7.499-.861 8.843 0 15.011 6.168 15.011 15.011v86.308c0 26.075 22.336 48.313 48.412 48.337 43.724.04 78.285 34.625 78.285 78.359v38.341c0 43.822-34.256 79.247-78.077 78.99-26.231-.154-48.62 22.14-48.62 48.336v86.307c0 8.843-6.168 15.011-15.011 15.011z" fill="#8aaadc"/><path d="m231.58 236.52v38.34c0 43.82-35.25 80.24-79.07 79.99-26.23-.16-47.62 21.14-47.62 47.33v86.31c0 8.84-7.17 16.01-16.01 16.01-2.71 0-5.26-.67-7.5-1.86 5.06-2.69 8.51-8.02 8.51-14.15v-86.31c0-26.19 21.39-47.49 47.62-47.33 43.82.25 79.07-36.17 79.07-79.99v-38.34c0-43.74-35.56-79.32-79.28-79.36-26.08-.03-47.41-21.27-47.41-47.34v-86.31c0-4.42-1.79-8.42-4.69-11.32-1.12-1.12-2.41-2.08-3.82-2.83 2.24-1.19 4.79-1.86 7.5-1.86 4.42 0 8.42 1.79 11.32 4.69s4.69 6.9 4.69 11.32v86.31c0 26.07 21.33 47.31 47.41 47.34 43.72.04 79.28 35.62 79.28 79.36z" fill="#7398d4"/><path d="m215.573 503.5c-3.212 0-6.204.054-8.711-1.575-4.394-2.855-7.3-7.806-7.3-13.436v-86.307c0-26.075-21.337-47.313-47.412-47.337-43.724-.04-79.285-35.626-79.285-79.36v-38.341c0-43.822 35.256-80.247 79.077-79.989 26.231.154 47.62-21.14 47.62-47.336v-86.308c0-5.721 3-10.741 7.514-13.573 2.463-1.545 5.376-1.438 8.497-1.438 8.843 0 15.011 6.168 15.011 15.011v85.678c0 43.822-34.256 79.247-78.077 78.99-26.231-.154-48.62 22.14-48.62 48.336v38.97c0 26.076 22.337 48.313 48.412 48.338 43.724.041 78.284 34.625 78.284 78.359v86.307c.002 8.843-6.167 15.011-15.01 15.011z" fill="#f47c7c"/><path d="m104.89 236.52v38.96c0 26.08 21.33 47.32 47.41 47.34 43.72.04 79.28 35.63 79.28 79.36v86.31c0 8.84-7.16 16.01-16.01 16.01-3.12 0-6.04-.89-8.5-2.44 4.51-2.83 7.51-7.85 7.51-13.57v-86.31c0-43.73-35.56-79.32-79.28-79.36-26.08-.02-47.41-21.26-47.41-47.34v-38.96c0-26.2 21.39-47.5 47.62-47.34 43.82.26 79.07-36.17 79.07-79.99v-85.68c0-4.42-1.79-8.42-4.69-11.32-.85-.85-1.79-1.61-2.82-2.25 2.46-1.55 5.38-2.44 8.5-2.44 4.43 0 8.43 1.79 11.32 4.69 2.9 2.9 4.69 6.9 4.69 11.32v85.68c0 43.82-35.25 80.25-79.07 79.99-26.23-.16-47.62 21.14-47.62 47.34z" fill="#ee6161"/><path d="m296.429 503.5c-2.709 0-5.262.327-7.499-.861-5.064-2.689-8.512-8.017-8.512-14.15v-85.678c0-43.822 35.256-80.247 79.077-79.99 26.231.154 47.62-21.141 47.62-47.337v-38.97c0-26.075-21.336-47.313-47.412-47.337-43.724-.04-79.285-35.625-79.285-79.359v-86.307c0-6.133 3.449-11.461 8.512-14.15 2.237-1.188 4.789-.861 7.499-.861 8.843 0 15.011 6.168 15.011 15.011v86.308c0 26.075 22.336 48.313 48.412 48.337 43.724.04 78.285 34.625 78.285 78.359v38.341c0 43.822-34.256 79.247-78.077 78.99-26.231-.154-48.62 22.14-48.62 48.336v86.307c0 8.843-6.168 15.011-15.011 15.011z" fill="#f47c7c"/><path d="m439.132 236.52v38.34c0 43.82-35.25 80.24-79.07 79.99-26.23-.16-47.62 21.14-47.62 47.33v86.31c0 8.84-7.17 16.01-16.01 16.01-2.71 0-5.26-.67-7.5-1.86 5.06-2.69 8.51-8.02 8.51-14.15v-86.31c0-26.19 21.39-47.49 47.62-47.33 43.82.25 79.07-36.17 79.07-79.99v-38.34c0-43.74-35.56-79.32-79.28-79.36-26.08-.03-47.41-21.27-47.41-47.34v-86.31c0-4.42-1.79-8.42-4.69-11.32-1.12-1.12-2.41-2.08-3.82-2.83 2.24-1.19 4.79-1.86 7.5-1.86 4.42 0 8.42 1.79 11.32 4.69s4.69 6.9 4.69 11.32v86.31c0 26.07 21.33 47.31 47.41 47.34 43.72.04 79.28 35.62 79.28 79.36z" fill="#ee6161"/><path d="m423.125 503.5c-3.212 0-6.204.054-8.711-1.575-4.394-2.855-7.3-7.806-7.3-13.436v-86.307c0-26.075-21.336-47.313-47.412-47.337-43.724-.04-79.285-35.626-79.285-79.36v-38.341c0-43.822 35.256-80.247 79.077-79.989 26.231.154 47.62-21.14 47.62-47.336v-86.308c0-5.721 3.001-10.741 7.514-13.573 2.463-1.545 5.376-1.438 8.497-1.438 8.843 0 15.011 6.168 15.011 15.011v85.678c0 43.822-34.256 79.247-78.077 78.99-26.231-.154-48.62 22.14-48.62 48.336v38.97c0 26.076 22.337 48.313 48.412 48.338 43.724.041 78.284 34.625 78.284 78.359v86.307c.001 8.843-6.167 15.011-15.01 15.011z" fill="#8aaadc"/><path d="m312.442 236.52v38.96c0 26.08 21.33 47.32 47.41 47.34 43.72.04 79.28 35.63 79.28 79.36v86.31c0 8.84-7.16 16.01-16.01 16.01-3.12 0-6.04-.89-8.5-2.44 4.51-2.83 7.51-7.85 7.51-13.57v-86.31c0-43.73-35.56-79.32-79.28-79.36-26.08-.02-47.41-21.26-47.41-47.34v-38.96c0-26.2 21.39-47.5 47.62-47.34 43.82.26 79.07-36.17 79.07-79.99v-85.68c0-4.42-1.79-8.42-4.69-11.32-.85-.85-1.79-1.61-2.82-2.25 2.46-1.55 5.38-2.44 8.5-2.44 4.43 0 8.43 1.79 11.32 4.69 2.9 2.9 4.69 6.9 4.69 11.32v85.68c0 43.82-35.25 80.25-79.07 79.99-26.23-.16-47.62 21.14-47.62 47.34z" fill="#7398d4"/></g></g><g><path d="m215.573 0c-12.964 0-23.511 10.547-23.511 23.511v15.582h-79.674v-15.582c0-12.964-10.547-23.511-23.511-23.511s-23.511 10.547-23.511 23.511v85.678c0 24.189 10.148 47.485 27.511 63.976-16.919 15.861-27.511 38.395-27.511 63.35v3.457c0 4.142 3.358 7.5 7.5 7.5s7.5-3.358 7.5-7.5v-3.457c0-39.587 32.206-71.823 71.792-71.859 29.815-.028 54.905-24.98 54.905-54.837v-86.308c0-4.693 3.818-8.511 8.511-8.511s8.511 3.818 8.511 8.511v50.067c0 4.142 3.358 7.5 7.5 7.5s7.5-3.358 7.5-7.5v-50.067c0-12.964-10.547-23.511-23.512-23.511zm-103.185 105.121v-18.014h79.674v18.014zm79.675-51.028v18.014h-79.674v-18.014zm-111.697 55.096v-85.678c0-4.693 3.818-8.511 8.511-8.511s8.511 3.818 8.511 8.511v86.307c0 18.053 9.372 35.285 24.27 45.399-5.95 2.246-11.591 5.126-16.84 8.56-15.396-13.745-24.452-33.766-24.452-54.588zm71.778 40.467c-17.714.019-33.744-12.499-38.373-29.535h76.928c-4.565 16.972-20.117 29.518-38.555 29.535z"/><path d="m231.585 98.735c-4.142 0-7.5 3.358-7.5 7.5v3.583c0 39.587-32.206 71.823-71.791 71.859-29.822.028-54.905 24.991-54.905 54.837v38.97c0 14.688 5.751 28.495 16.192 38.875 10.44 10.379 24.239 16.016 38.972 15.962 18.735-.137 36.488 7.206 49.963 20.603 13.91 13.828 21.57 32.255 21.57 51.886v85.678c0 4.693-3.818 8.511-8.511 8.511s-8.511-3.818-8.511-8.511v-86.307c0-29.996-25.188-54.969-55.164-54.836-18.756.143-36.487-7.207-49.962-20.603-13.91-13.828-21.57-32.255-21.57-51.887v-2.197c0-4.142-3.358-7.5-7.5-7.5s-7.5 3.358-7.5 7.5v2.197c0 23.655 9.232 45.86 25.995 62.524.494.491 1.007.954 1.511 1.431-17.578 16.399-27.505 39.037-27.505 63.37v86.307c0 12.964 10.547 23.511 23.511 23.511s23.511-10.547 23.511-23.511v-15.615h79.674v15.615c0 12.964 10.547 23.511 23.511 23.511s23.511-10.547 23.511-23.511v-85.678c0-23.655-9.232-45.859-25.995-62.524-.494-.491-1.007-.954-1.51-1.431 17.579-16.397 27.505-39.026 27.505-63.371v-38.34c0-24.189-10.149-47.485-27.511-63.976 16.919-15.861 27.511-38.395 27.511-63.35v-3.583c-.002-4.141-3.36-7.499-7.502-7.499zm-119.197 308.111h79.674v18.014h-79.674zm78.312-15h-76.946c4.605-17.171 20.698-29.501 38.471-29.501 10.579 0 20.54 4.115 28.07 11.601 5.071 5.04 8.609 11.193 10.405 17.9zm-93.312 96.643c0 4.693-3.818 8.511-8.511 8.511s-8.511-3.818-8.511-8.511v-86.307c0-20.861 8.827-40.22 24.383-53.892 5.257 3.479 10.849 6.329 16.679 8.544-14.895 10.119-24.04 27.35-24.04 45.348zm15-30.615v-18.014h79.674v18.014zm39.919-261.196c13.243-1.121 27.042 7.952 33.778 18.809h-67.651c7.058-11.271 19.599-18.796 33.873-18.809zm39.756 39.837v11.985h-79.674v-11.985c0-2.049.157-4.062.458-6.029h78.763c.296 1.967.453 3.98.453 6.029zm-79.675 38.97v-11.985h79.674v11.985c0 2.048-.161 4.06-.463 6.029h-78.757c-.299-1.978-.454-3.992-.454-6.029zm6.018 21.029h67.609c-7.165 11.448-20.032 18.728-33.551 18.808-10.659.061-20.72-4.057-28.308-11.6-2.217-2.204-4.134-4.626-5.75-7.208zm105.679-59.369v38.34c0 20.871-8.825 40.222-24.383 53.893-5.27-3.488-10.876-6.343-16.723-8.561 14.883-10.129 24.084-27.317 24.084-45.332v-38.97c0-18.911-9.517-35.597-24.112-45.459 5.892-2.237 11.479-5.096 16.682-8.499 15.396 13.746 24.452 33.766 24.452 54.588z"/><path d="m446.634 109.818v-86.307c0-12.964-10.547-23.511-23.511-23.511-12.965 0-23.512 10.547-23.512 23.511v15.582h-79.674v-15.582c.001-12.964-10.546-23.511-23.51-23.511-12.965 0-23.512 10.547-23.512 23.511v85.678c0 24.189 10.148 47.485 27.511 63.976-16.919 15.861-27.511 38.395-27.511 63.349v38.341c0 24.125 10.014 47.358 27.506 63.956-17.578 16.399-27.506 39.037-27.506 63.37v32.18c0 4.142 3.357 7.5 7.5 7.5 4.142 0 7.5-3.358 7.5-7.5v-32.18c0-20.861 8.827-40.22 24.384-53.892 5.256 3.478 10.848 6.329 16.678 8.543-14.895 10.119-24.04 27.35-24.04 45.349v86.307c0 4.693-3.818 8.511-8.511 8.511-4.694 0-8.512-3.818-8.512-8.511v-21.438c0-4.142-3.358-7.5-7.5-7.5-4.143 0-7.5 3.358-7.5 7.5v21.439c0 12.964 10.547 23.511 23.512 23.511 12.964 0 23.511-10.547 23.511-23.511v-15.615h79.674v15.615c0 12.964 10.547 23.511 23.512 23.511 12.964 0 23.511-10.547 23.511-23.511v-85.678c0-24.12-10.012-47.362-27.504-63.955 17.579-16.396 27.504-39.026 27.504-63.371v-38.34c0-24.189-10.149-47.485-27.511-63.976 16.92-15.862 27.511-38.396 27.511-63.351zm-86.94 39.838c-17.714.019-33.745-12.499-38.373-29.535h76.928c-4.566 16.972-20.117 29.518-38.555 29.535zm39.918-44.535h-79.674v-18.014h79.674zm0-51.028v18.014h-79.674v-18.014zm-111.697 55.096v-85.678c0-4.693 3.818-8.511 8.512-8.511 4.692 0 8.511 3.818 8.511 8.511v86.307c0 18.053 9.372 35.285 24.27 45.399-5.95 2.246-11.591 5.126-16.84 8.56-15.396-13.745-24.453-33.766-24.453-54.588zm69.99 253.205c18.423-.908 35.572 11.631 40.345 29.453h-76.946c4.38-16.333 18.889-28.579 36.601-29.453zm-37.967 44.452h79.674v18.014h-79.674zm0 51.028v-18.014h79.674v18.014zm111.696-55.063v85.678c0 4.693-3.818 8.511-8.511 8.511s-8.512-3.818-8.512-8.511v-86.307c0-30.414-25.443-54.835-55.58-54.835-18.59 0-36.171-7.308-49.546-20.604-13.91-13.828-21.57-32.255-21.57-51.887v-38.341c0-39.587 32.206-71.823 71.792-71.859 29.814-.027 54.904-24.979 54.904-54.837v-63.207c0-.006.001-.013.001-.019s-.001-.013-.001-.019v-23.063c0-4.693 3.818-8.511 8.512-8.511 4.692 0 8.511 3.818 8.511 8.511v86.307c0 39.587-32.205 71.823-71.791 71.859-29.822.028-54.905 24.991-54.905 54.837v38.97c0 30.43 25.438 54.835 55.581 54.835 18.589 0 36.171 7.308 49.545 20.604 13.91 13.83 21.57 32.257 21.57 51.888zm-70.071-206.094c13.631.604 25.367 7.963 32.071 18.769h-67.651c7.547-12.05 21.359-19.401 35.58-18.769zm.573 118.53c-14.453.89-28.516-6.485-36.181-18.733h67.609c-6.63 10.592-18.112 17.912-31.428 18.733zm-42.198-39.762v-11.985h79.674v11.985c0 2.048-.161 4.06-.463 6.029h-78.756c-.3-1.978-.455-3.992-.455-6.029zm79.674-38.97v11.985h-79.674v-11.985c0-2.049.157-4.062.458-6.029h78.763c.296 1.967.453 3.98.453 6.029zm32.022.63v38.34c0 20.871-8.825 40.223-24.382 53.893-5.27-3.487-10.877-6.344-16.723-8.561 14.882-10.129 24.083-27.318 24.083-45.332v-38.97c0-18.911-9.517-35.597-24.112-45.459 5.892-2.237 11.48-5.096 16.682-8.499 15.396 13.745 24.452 33.765 24.452 54.588z"/></g></g></svg>