<svg id="Capa_1" enable-background="new 0 0 512.006 512.006" height="512" viewBox="0 0 512.006 512.006" width="512" xmlns="http://www.w3.org/2000/svg"><g><g><path d="m439.955 155.456c-13.461-5.949-31.339 7.228-47.911 26.042-13.005 14.765-25.869 31.781-44.174 52.563-5.581 6.337-13.457 4.86-15.581-1.823-19.777-21.897 75.108-137.621 52.56-174.153-.359-.199-.718-.4-1.1-.582-16.592-7.921-32.235 11.112-44.356 36.502-5.594 11.717-44.868 94.091-50.175 105.169-4.051 8.457-15.376 8.494-19.346 2.422-24.584-16.528 28.452-172.29-1.159-193.534-.909-.223-1.854-.391-2.854-.477-18.26-1.571-26.934 20.907-30.227 48.848-2.299 19.509-14.488 122.933-16.475 139.797-1.894 16.067-13.645 19.224-19.546 10.845-22.548-20.233 5.602-162.117-22.548-177.768-1.593-.457-3.297-.704-5.132-.704-18.386 0-24.302 23.916-24.302 52.05v193.453c-4.706-18.687-3.841-47.752-42.643-77.581-29.001-22.295-57.714.022-36.505 26.995 16.457 20.928 32.533 61.64 35.634 119.721 1.198 22.43 1.923 43.252 45.349 86.267l19.39 6.962-3.491 8.038-3.158 15 6.205 7.556-9.364 7.444-2.507 11.91c-.219 1.042-.309 2.074-.311 3.09l155.974 7c5.279 0 9.221-4.858 8.133-10.024l-9.667-45.916c9.848-8.746 22.397-25.62 29.776-44.447 12.367-31.549 14.245-107.669 14.245-107.669s52.415-62.094 71.011-83.207c15.046-17.081 24.792-36.597 14.255-49.789z" fill="#bae6ef"/><path d="m268.713 8.061c15.716 3.852 18.302 27.647 15.189 54.06-2.226 18.886-15.643 122.416-15.432 134.761.031 1.838.551 3.413 1.401 4.713-8.289-2.685-14.263-9.606-14.401-17.713-.211-12.346 13.206-115.875 15.432-134.761 1.873-15.892 1.68-30.833-2.189-41.06zm105.543 93.884c-7.058 14.784-47.265 99.003-50.129 106.633-4.281 11.406.373 20.201 8.163 23.66-.871-2.739-.781-6.348.837-10.66 2.864-7.63 43.071-91.848 50.129-106.633 11.842-24.805 16.842-48.4 1.594-56.86 2.149 11.337-2.703 27.329-10.594 43.86zm-192.023 77.416c0 12.433 9.102 24.061 17.377 27.712-2.034-2.888-3.377-7.137-3.377-12.712 0-35.64 0-91.057 0-113.71 0-25.328-4.8-47.226-19.17-51.346 3.712 9.476 5.17 22.39 5.17 36.346zm262.452-20.86c-1.502-1.323-3.085-2.318-4.729-3.045 3.914 12.522-6.393 30.087-21.437 47.167-18.596 21.113-71.011 83.207-71.011 83.207s-1.878 76.121-14.245 107.669c-6.022 15.362-12.85 25.648-18.273 32.161-2.03 2.438-5.032 3.846-8.204 3.846h-157.321c4.769 4.723 10.044 9.71 15.899 15h141.716l3.158 15h-148.032l-3.158 15h154.348l2.269 10.779c.458 2.175-1.202 4.221-3.425 4.221h-156.011c-.016 8.08 6.526 15 14.989 15h140.849c9.528 0 16.641-8.767 14.678-18.09l-8.824-41.91s15.775-10.153 28.142-41.702 15.772-111.062 15.772-111.062c7.456-8.465 48.088-57.007 66.684-78.119 18.595-21.113 29.963-42.97 16.166-55.122z" fill="#94d8e6"/></g><g><path d="m312.067 512.006h-140.849c-6.812 0-13.181-3.034-17.473-8.323-4.292-5.29-5.948-12.146-4.545-18.812l7.939-37.708c-57.831-53.058-59.117-77.275-60.481-102.892l-.033-.633c-1.375-25.743-5.393-49.386-11.942-70.271-1.239-3.952.96-8.161 4.912-9.4 3.954-1.24 8.162.96 9.4 4.912 6.925 22.081 11.167 46.965 12.608 73.96v.003l.034.632c1.255 23.59 2.342 44.003 56.622 93.533h119.661c4.143 0 7.5 3.357 7.5 7.5s-3.357 7.5-7.5 7.5h-116.471l-7.57 35.954c-.468 2.223.085 4.508 1.516 6.271s3.554 2.774 5.824 2.774h140.849c2.271 0 4.393-1.011 5.823-2.774s1.983-4.049 1.516-6.271l-1.254-5.954h-128.105c-4.143 0-7.5-3.357-7.5-7.5s3.357-7.5 7.5-7.5h124.946l-4.411-20.955c-.642-3.044.664-6.168 3.279-7.852.08-.055 14.068-9.688 25.219-38.132 11.772-30.036 15.228-107.864 15.261-108.647.073-1.713.731-3.35 1.865-4.636 2.824-3.206 10.85-12.687 20.142-23.664l.07-.083c2.676-3.161 7.408-3.555 10.57-.879 3.161 2.677 3.555 7.409.879 10.57l-.071.084c-8.184 9.668-14.921 17.626-18.593 21.884-.719 14.365-4.627 81.426-16.158 110.846-8.573 21.87-19.516 35.439-26.827 41.968l7.865 37.36c1.403 6.666-.253 13.522-4.545 18.812s-10.66 8.323-17.472 8.323zm-104.693-307.925c.874 0 3.551-2.082 4.334-8.729l7.132-60.511c.484-4.114 4.235-7.051 8.326-6.57 4.113.484 7.056 4.213 6.57 8.326l-7.132 60.511c-1.304 11.062-8.16 22.646-20.109 21.948-8.555-.503-17.762-8.444-17.762-24.693v-113.712c0-13.395-1.638-44.55-16.803-44.55-15.164 0-16.802 31.155-16.802 44.55v193.453c0 28.022-8.548 59.428-8.912 60.751-.915 3.328-3.935 5.513-7.227 5.513-.658 0-1.326-.087-1.991-.27-3.994-1.098-6.342-5.225-5.246-9.219.083-.302 8.187-30.119 8.373-55.882-.701-2.929-1.275-5.992-1.882-9.225-3.342-17.815-7.5-39.988-37.829-63.304-12.316-9.469-23.947-9.177-29.069-3.996-4.474 4.521-3.312 12.343 3.031 20.409 4.569 5.812 8.901 12.75 12.875 20.625 1.865 3.698.381 8.209-3.317 10.075-3.7 1.863-8.209.381-10.075-3.317-3.525-6.988-7.318-13.081-11.273-18.111-13.631-17.334-9.545-32.505-1.905-40.229 9.45-9.554 28.777-12.797 48.877 2.652 14.925 11.474 24.368 22.867 30.571 33.656v-143.581c0-49.219 17.294-59.55 31.802-59.55s31.803 10.331 31.803 59.55v113.711c-.001 7.165 2.707 9.664 3.64 9.719zm192.747 50.264c-1.712 0-3.433-.583-4.842-1.775-3.161-2.677-3.555-7.409-.879-10.57 2.069-2.444 19.557-23.192 28.49-33.334 8.854-10.052 28.218-34.514 16.838-44.537-11.378-10.021-33.201 12.274-42.056 22.326-5.86 6.653-34.153 41.187-44.174 52.562-5.871 6.668-14.691 8.492-21.447 4.438-5.702-3.423-10.682-11.897-5.946-24.515 2.599-6.924 32.682-70.153 50.382-107.228 5.771-12.088 17.716-40.909 4.031-47.442-13.685-6.544-28.586 20.878-34.356 32.965-1.831 3.834-46.607 97.72-50.181 105.178-3.89 8.119-12.774 12.442-21.603 10.517-7.886-1.721-13.274-8.119-13.407-15.92-.161-9.417 15.004-131.706 15.482-135.768 2.426-20.588.758-36.15-4.578-42.697-1.744-2.14-3.86-3.249-6.659-3.489-6.362-.559-17.655 4.221-22.137 42.254l-5.603 47.542c-.484 4.114-4.203 7.057-8.326 6.57-4.113-.484-7.056-4.212-6.57-8.326l5.603-47.542c5.664-48.062 23.97-56.687 38.318-55.443 6.825.588 12.704 3.686 17.002 8.959 8.233 10.103 10.874 28.247 7.847 53.929-.484 4.113-15.537 124.612-15.381 133.756.007.41.02 1.174 1.607 1.521 1.263.275 3.711.092 4.877-2.342 3.567-7.447 48.341-101.325 50.171-105.16 21.205-44.418 41.26-46.288 54.356-40.039 13.092 6.251 24.247 23.025 3.043 67.442-29.503 61.794-48.148 101.433-49.876 106.036-1.539 4.102-.74 6.164-.377 6.382.151.089 1.202-.05 2.472-1.491 9.843-11.176 38.137-45.709 44.174-52.562 32.533-36.936 52.339-33.258 63.226-23.668 10.887 9.589 17.036 28.772-15.496 65.707-8.825 10.02-26.221 30.659-28.297 33.111-1.483 1.752-3.598 2.653-5.728 2.653z"/></g></g></svg>