<svg id="Capa_1" enable-background="new 0 0 512 512" height="512" viewBox="0 0 512 512" width="512" xmlns="http://www.w3.org/2000/svg"><g><g><path d="m456.432 358.96h-400.577c-8.966 0-16.235-7.269-16.235-16.235v-64.232h433.047v64.232c0 8.967-7.269 16.235-16.235 16.235z" fill="#fe5694"/><path d="m351.813 324.859h-80.153c-9.306 0-16.85-7.544-16.85-16.85v-29.519h113.854v29.519c-.001 9.306-7.545 16.85-16.851 16.85z" fill="#fd3581"/><path d="m448.185 278.494v64.232c0 8.966-7.269 16.235-16.235 16.235h24.482c8.966 0 16.235-7.269 16.235-16.235v-64.232z" fill="#fd3581"/><path d="m434.649 358.96h-357.011l39.761 128.473c3.141 10.148 12.524 17.066 23.147 17.066h231.195c10.622 0 20.006-6.919 23.147-17.066z" fill="#fe5694"/><path d="m410.167 358.96-39.761 128.473c-3.141 10.147-12.525 17.066-23.147 17.066h24.482c10.622 0 20.006-6.919 23.147-17.066l39.761-128.473z" fill="#fd3581"/><path d="m423.182 204.71c0-13.584-11.012-24.595-24.595-24.595h-260.292c-27.167 0-49.19 22.023-49.19 49.19 0 27.167 22.023 49.19 49.19 49.19h259.703c13.336 0 24.694-10.37 25.168-23.698.497-13.992-10.698-25.492-24.579-25.492 13.584-.001 24.595-11.012 24.595-24.595z" fill="#a6e7f0"/><path d="m423.182 204.709c0-13.583-11.011-24.595-24.595-24.595h-24.482c13.583 0 24.595 11.012 24.595 24.595 0 13.583-11.011 24.595-24.595 24.595 13.881 0 25.076 11.5 24.579 25.492-.474 13.328-11.832 23.698-25.168 23.698h24.482c13.336 0 24.694-10.37 25.168-23.698.498-13.992-10.698-25.492-24.579-25.492 13.584 0 24.595-11.011 24.595-24.595z" fill="#6bd9e7"/><path d="m423.182 155.519c0 13.584-11.012 24.595-24.595 24.595h-260.292c-27.167 0-49.19-22.023-49.19-49.19 0-27.167 22.023-49.19 49.19-49.19h259.703c13.336 0 24.694 10.37 25.168 23.698.497 13.992-10.698 25.492-24.579 25.492 13.584.001 24.595 11.012 24.595 24.595z" fill="#95d6a4"/><path d="m398.588 130.925c13.881 0 25.076-11.5 24.579-25.492-.474-13.328-11.832-23.698-25.168-23.698h-24.482c13.336 0 24.694 10.37 25.168 23.698.498 13.992-10.698 25.492-24.579 25.492 13.583 0 24.595 11.011 24.595 24.594 0 13.583-11.011 24.595-24.595 24.595h24.482c13.583 0 24.595-11.011 24.595-24.595-.001-13.583-11.012-24.594-24.595-24.594z" fill="#78c2a4"/><path d="m298.902 81.735h-105.069c-8.258 0-14.952-6.694-14.952-14.952v-44.331c0-8.258 6.694-14.952 14.952-14.952h105.069c19.056 0 34.505 15.448 34.505 34.505v5.226c-.001 19.056-15.449 34.504-34.505 34.504z" fill="#a2aee6"/><path d="m298.902 7.5h-24.482c19.056 0 34.505 15.448 34.505 34.504v5.226c0 19.056-15.448 34.504-34.505 34.504h24.482c19.056 0 34.504-15.448 34.504-34.504v-5.226c0-19.056-15.448-34.504-34.504-34.504z" fill="#8795de"/><path d="m376.295 324.859h-80.153c-9.306 0-16.85-7.544-16.85-16.85v-29.519h113.854v29.519c-.001 9.306-7.545 16.85-16.851 16.85z" fill="#daf3f6"/><path d="m368.663 278.49v29.519c0 9.306-7.544 16.85-16.85 16.85h24.482c9.306 0 16.85-7.544 16.85-16.85v-29.519z" fill="#a6e7f0"/></g><g><path d="m159.995 138.425h29.271c4.143 0 7.5-3.357 7.5-7.5s-3.357-7.5-7.5-7.5h-29.271c-4.143 0-7.5 3.357-7.5 7.5s3.357 7.5 7.5 7.5z"/><path d="m296.141 332.359h80.153c13.427 0 24.351-10.924 24.351-24.351v-22.018h71.734.29c2.692 0 5.045-1.422 6.368-3.552l23.914-23.915c5.488-5.487 7.116-13.664 4.147-20.832-2.97-7.169-9.905-11.802-17.67-11.802h-35.51c-9.031 0-17.517 3.511-23.888 9.881l-3.087 3.08c-1.307-2.317-3.961-6.421-7.746-9.562 7.016-5.891 11.48-14.723 11.48-24.578 0-9.866-4.476-18.704-11.5-24.597 7.026-5.892 11.503-14.728 11.503-24.594 0-9.857-4.467-18.69-11.482-24.583 6.759-5.368 11.974-16.121 11.461-25.771-.605-17.055-15.259-30.931-32.663-30.931h-66.957c6.15-7.308 9.865-16.729 9.865-27.005v-5.226c.002-23.159-18.842-42.003-42.003-42.003h-105.068c-12.38 0-22.452 10.072-22.452 22.452v44.331c0 2.612.453 5.119 1.277 7.452h-34.363c-31.259 0-56.689 25.431-56.689 56.689 0 21.027 11.516 39.403 28.564 49.189-18.608 10.722-30.926 32.313-28.18 55.673l-.019-.019c-6.387-6.373-14.873-9.883-23.895-9.883h-35.509c-7.761 0-14.695 4.633-17.665 11.803-2.971 7.171-1.344 15.351 4.144 20.84l23.073 23.073v61.13c0 13.085 10.649 23.729 23.74 23.729h16.248l38.127 123.191c4.138 13.369 16.319 22.35 30.312 22.35h231.195c13.993 0 26.175-8.981 30.312-22.349l38.127-123.191h16.25c13.091 0 23.74-10.645 23.74-23.729v-28.971c0-4.143-3.357-7.5-7.5-7.5s-7.5 3.357-7.5 7.5v28.971c0 4.813-3.921 8.729-8.74 8.729h-400.571c-4.819 0-8.74-3.916-8.74-8.729v-56.736l224.673-.004v22.019c0 13.426 10.923 24.349 24.349 24.349zm119.048 64.115h-67.789l3.616-30.013h73.462zm-15.385 49.709h-58.394l4.182-34.709h64.954zm-67.513-49.709h-40.952c-4.143 0-7.5 3.357-7.5 7.5s3.357 7.5 7.5 7.5h39.145l-4.182 34.709h-62.658v-79.722h72.263zm-68.648 100.526v-35.817h60.851l-4.315 35.817zm-71.535 0-4.315-35.817h60.85v35.817zm56.535-130.539v30.013h-68.646l-3.616-30.013zm-83.754 30.013h-67.79l-9.289-30.013h73.463zm-63.148 15h64.955l4.182 34.709h-58.394zm80.063 0h66.839v34.709h-62.657zm-57.24 73.742-7.438-24.033h55.559l4.315 35.817h-36.454c-7.378 0-13.801-4.735-15.982-11.784zm263.159 0c-2.181 7.049-8.604 11.784-15.982 11.784h-36.453l4.315-35.817h55.558zm-2.078-177.207c0 5.156-4.194 9.351-9.351 9.351h-80.153c-5.155 0-9.35-4.194-9.35-9.351v-22.019h98.854zm68.275-67.119h35.51c2.489 0 3.495 1.777 3.812 2.542.315.764.861 2.729-.896 4.485l-23.072 23.073h-43.699c2.797-4.294 4.582-9.265 5.007-14.58l10.05-10.026c3.544-3.543 8.262-5.494 13.288-5.494zm-267.539-174.107v-14.666h101.1c4.143 0 7.5-3.357 7.5-7.5s-3.357-7.5-7.5-7.5h-101.1v-14.665c0-4.109 3.343-7.452 7.452-7.452h105.068c14.891 0 27.005 12.114 27.005 27.005v5.226c0 14.891-12.114 27.005-27.005 27.005h-105.068c-4.11-.001-7.452-3.343-7.452-7.453zm-89.776 64.142c0-22.987 18.702-41.689 41.689-41.689h259.703c9.422 0 17.35 7.386 17.673 16.464.477 8.081-6.903 17.951-17.083 17.726h-174.263c-4.143 0-7.5 3.357-7.5 7.5s3.357 7.5 7.5 7.5h174.264c9.426 0 17.095 7.669 17.095 17.095 0 9.408-7.641 17.063-17.043 17.092-.017 0-.033-.001-.05-.001h-260.29c-.027 0-.053.002-.079.002-22.954-.042-41.616-18.727-41.616-41.689zm-77.845 112.504c.317-.765 1.322-2.544 3.808-2.544h35.508c5.021 0 9.744 1.953 13.299 5.501l24.66 24.604h-53.312l-23.069-23.069c-1.759-1.758-1.211-3.728-.894-4.492zm90.063 15.347c-7.876-7.876-12.214-18.344-12.214-29.477-.083-22.367 18.693-41.801 41.686-41.686h260.293c.018 0 .035-.001.053-.001 9.4.028 17.039 7.686 17.039 17.097 0 9.424-7.666 17.09-17.09 17.09-.033 0-.064.004-.097.005h-238.498c-4.143 0-7.5 3.357-7.5 7.5s3.357 7.5 7.5 7.5h238.593c8.727-.1 17.203 7.412 17.087 17.725-.327 9.077-8.256 16.461-17.675 16.461h-.171-259.529c-11.133 0-21.601-4.338-29.477-12.214z"/></g></g></svg>