<svg id="Capa_1" enable-background="new 0 0 511.985 511.985" height="512" viewBox="0 0 511.985 511.985" width="512" xmlns="http://www.w3.org/2000/svg"><g><g><path d="m307.91 16.193-16.999-1h-8c-2.761 0-5 2.238-5 5v58.502h34.999l-1-58.502c0-2.761-1.239-4-4-4z" fill="#8aaadc"/><path d="m312.91 20.195v58.5h-17v-58.5c0-2.76-2.24-5-5-5h17c2.76 0 5 2.24 5 5z" fill="#7398d4"/><path d="m247.493 16.193-16.958-1h-8.042c-2.761 0-5 2.238-5 5v58.502h34.999l-1-58.502c.001-2.761-1.238-4-3.999-4z" fill="#e94444"/><path d="m252.493 20.195v58.5h-17v-58.5c0-2.76-2.24-5-5-5h17c2.76 0 5 2.24 5 5z" fill="#d83131"/><path d="m294.257 303.901c0 28.959-23.476 52.435-52.435 52.435-9.393 0-18.208-2.47-25.833-6.795-3.163-1.794-6.122-3.908-8.832-6.298-10.896-9.608-17.77-23.673-17.77-39.342 0-28.959 23.476-52.435 52.435-52.435s52.435 23.476 52.435 52.435z" fill="#8aaadc"/><path d="m261.416 494.928-3.472-.532-5.678-2.504c-4.962-2.189-7.3-7.944-5.214-12.95 18.478-44.33 27.611-85.638 27.159-122.909-.451-37.214-10.539-71.794-29.982-102.777l24.41-15.946c22.42 35.725 34.051 75.547 34.57 118.359.503 41.427-9.433 86.801-29.544 135.002-2.15 5.153-7.14 6.511-12.249 4.257z" fill="#e94444"/><path d="m274.663 490.675c-2.15 5.15-8.14 7.51-13.25 5.25l-3.47-1.53c1.15-.98 2.1-2.23 2.72-3.72 20.11-48.2 30.05-93.58 29.55-135.01-.49-40.28-10.82-77.92-30.72-111.98l10.15-6.37c22.42 35.72 34.05 75.54 34.57 118.35.5 41.43-9.44 86.81-29.55 135.01z" fill="#d83131"/><path d="m499.003 99.025c-45.09 61.38-107.45 98.99-177.61 131.13-7.23 3.31-14.54 6.56-21.9 9.75-18.99 8.23-36.07 23.03-47.07 40.56-44.52 70.91-104.57 109.18-182.84 117.64-6.763.732-13.349 1.227-19.548-.323-24.216-6.054-42.542-28.059-42.542-54.627v-138.34c0-78.49 63.63-142.11 142.11-142.11h182.12l149.99 1c18.7 0 28.36 20.25 17.29 35.32z" fill="#f47c7c"/><path d="m500.003 99.025c-45.09 61.38-108.45 99.99-178.61 132.13-24.35-49.68-24.42-105 10.33-168.45h149.99c18.7 0 29.36 21.25 18.29 36.32z" fill="#e94444"/><path d="m316.133 219.374c1.59 3.96 3.35 7.89 5.26 11.78-7.23 3.31-14.54 6.56-21.9 9.75-18.99 8.23-35.07 22.03-46.07 39.56-44.52 70.91-105.57 110.18-183.84 118.64-6.76.73-13.35.23-19.55-1.33 73.28-10.73 130.87-49.59 173.39-117.31 11-17.53 27.08-31.33 46.07-39.56 7.36-3.19 14.67-6.44 21.9-9.75 8.35-3.829 16.6-7.739 24.74-11.78z" fill="#ee6161"/><path d="m500.003 99.025c-45.09 61.38-108.45 99.99-178.61 132.13-1.91-3.89-3.67-7.82-5.26-11.78 60.24-29.87 114.15-66.28 153.87-120.35 11.07-15.07.41-36.32-18.29-36.32h30c18.7 0 29.36 21.25 18.29 36.32z" fill="#d83131"/></g><g><path d="m7.5 235.876c4.143 0 7.5-3.358 7.5-7.5v-23.561c0-74.225 60.386-134.611 134.61-134.611h13.391c4.143 0 7.5-3.358 7.5-7.5s-3.357-7.5-7.5-7.5h-13.391c-82.495 0-149.61 67.115-149.61 149.611v23.561c0 4.142 3.357 7.5 7.5 7.5z"/><path d="m508.694 71.771c-5.173-10.219-15.508-16.567-26.971-16.567h-161.306v-35.011c0-6.893-5.607-12.5-12.5-12.5h-25c-6.893 0-12.5 5.607-12.5 12.5v35.011h-10.417v-35.011c0-6.893-5.607-12.5-12.5-12.5h-25c-6.893 0-12.5 5.607-12.5 12.5v35.011h-14.313c-4.143 0-7.5 3.358-7.5 7.5s3.357 7.5 7.5 7.5h123.703c-13.715 27.892-21.276 55.275-22.48 81.551-1.179 25.741 3.714 51.162 14.513 75.682-4.841 2.179-9.802 4.373-14.905 6.585-20.491 8.885-37.589 23.566-49.444 42.454-21.546 34.325-47.443 61.384-76.972 80.424-29.417 18.968-63.503 30.66-101.313 34.751-13.63 1.477-27.324-2.949-37.563-12.141-10.312-9.255-16.226-22.508-16.226-36.359v-82.089c0-4.142-3.357-7.5-7.5-7.5s-7.5 3.358-7.5 7.5v82.089c0 18.104 7.729 35.425 21.205 47.522 11.707 10.508 26.866 16.257 42.418 16.257 2.254-.001 4.518-.121 6.778-.366 40.153-4.345 76.432-16.813 107.829-37.058 8.884-5.729 17.439-12.152 25.672-19.204 10.667 8.763 23.888 13.534 37.926 13.534 8.729 0 17.146-1.848 24.881-5.39.039 35.615-8.879 75.162-26.574 117.61-3.627 8.7.46 18.882 9.109 22.698l9.15 4.037c2.268 1 4.665 1.501 7.066 1.501 2.198 0 4.4-.42 6.508-1.262 4.39-1.754 7.808-5.118 9.623-9.471 11.881-28.475 20.359-56.307 25.2-82.723.747-4.075-1.951-7.982-6.025-8.729-4.068-.746-7.981 1.95-8.728 6.025-4.648 25.365-12.82 52.163-24.29 79.651-.322.773-.909 1.143-1.345 1.317-.369.146-1.114.337-1.955-.034l-9.149-4.036c-1.236-.545-1.827-1.982-1.318-3.203 18.868-45.266 28.2-87.62 27.735-125.886-.338-27.828-5.932-54.415-16.612-79.104 3.342-4.327 7.028-8.342 11.034-12.004 13.255 28.205 20.187 58.741 20.578 90.925.082 6.78-.128 13.767-.624 20.766-.292 4.132 2.819 7.718 6.951 8.011.181.013.359.019.538.019 3.9 0 7.193-3.02 7.474-6.971.524-7.41.747-14.815.659-22.007-.431-35.501-8.309-69.157-23.425-100.147 4.479-2.92 9.216-5.488 14.194-7.647 46.604-20.209 82.299-38.958 112.332-59.006 37.714-25.174 67.559-53.08 91.239-85.313 6.824-9.284 7.835-21.428 2.64-31.692zm-293.542 268.291c14.446-13.963 27.761-30.058 39.828-48.201 5.9 15.905 9.6 32.606 11.049 49.909-7.212 4.632-15.5 7.066-24.199 7.066-9.767 0-19.006-3.081-26.678-8.774zm70.265-317.369h20v32.511h-20zm-60.417 0h20v32.511h-20zm268.968 71.891c-22.629 30.801-51.243 57.531-87.479 81.719-22.864 15.261-49.192 29.793-81.433 44.882-20.938-47.582-17.268-97.09 11.171-150.981h145.498c5.864 0 10.943 3.118 13.587 8.342 2.666 5.268 2.164 11.263-1.344 16.038z"/><path d="m66.555 340.796c-4.142 0-7.5 3.358-7.5 7.5 0 4.142 3.358 7.5 7.5 7.5s7.5-3.358 7.5-7.5c0-4.142-3.358-7.5-7.5-7.5z"/><path d="m91.537 331.596c0 4.142 3.358 7.5 7.5 7.5s7.5-3.358 7.5-7.5c0-4.142-3.358-7.5-7.5-7.5-4.143 0-7.5 3.357-7.5 7.5z"/><path d="m74.055 312.47c0-4.142-3.358-7.5-7.5-7.5s-7.5 3.358-7.5 7.5c0 4.142 3.358 7.5 7.5 7.5s7.5-3.358 7.5-7.5z"/></g></g></svg>