<svg id="Layer_1" enable-background="new 0 0 512 512" height="512" viewBox="0 0 512 512" width="512" xmlns="http://www.w3.org/2000/svg"><g><path clip-rule="evenodd" d="m446.09 486.191c0 2.442-.771 4.755-2.442 6.812-1.671 1.928-4.37 3.598-8.097 4.884-3.727 1.157-8.74 2.185-15.038 2.956-6.169.771-14.138 1.157-23.521 1.157-9.768 0-17.865-.385-24.292-1.157-6.426-.771-11.31-1.799-15.038-2.956-3.599-1.285-6.169-2.956-7.84-4.884-1.671-2.057-2.442-4.37-2.442-6.812v-197.031h-182.763v197.031c0 2.442-.771 4.755-2.313 6.812-1.414 1.928-4.113 3.598-7.84 4.884-3.727 1.157-8.74 2.185-15.038 2.956-6.169.771-14.266 1.157-23.906 1.157-9.511 0-17.48-.385-23.906-1.157-6.426-.771-11.439-1.799-15.166-2.956-3.727-1.285-6.426-2.956-8.097-4.884-1.671-2.057-2.442-4.37-2.442-6.812v-460.382c0-2.442.771-4.755 2.442-6.812 1.671-1.928 4.37-3.599 8.097-4.884s8.74-2.185 15.166-2.956c6.426-.772 14.395-1.157 23.906-1.157 9.639 0 17.737.385 23.906 1.157 6.298.771 11.311 1.799 15.038 2.956 3.728 1.285 6.427 2.956 7.84 4.884 1.542 2.056 2.313 4.37 2.313 6.812v179.295h182.765v-179.295c0-2.442.771-4.755 2.442-6.812 1.671-1.928 4.241-3.599 7.84-4.884 3.728-1.157 8.611-2.185 15.038-2.956 6.426-.772 14.523-1.157 24.291-1.157 9.382 0 17.351.385 23.521 1.157 6.298.771 11.31 1.671 15.038 2.956s6.426 2.956 8.097 4.884c1.671 2.056 2.442 4.37 2.442 6.812v460.382z" fill="#ff5a58" fill-rule="evenodd"/><g><path d="m451.41 12.691c-.067-.083-.136-.164-.205-.244-2.883-3.326-7.053-5.946-12.395-7.788-4.156-1.434-9.425-2.491-17.056-3.425-6.547-.819-14.878-1.234-24.761-1.234-10.122 0-18.696.413-25.482 1.228-6.658.798-12.157 1.889-16.812 3.334-.134.042-.267.086-.398.133-5.107 1.824-9.156 4.432-12.033 7.751-.068.08-.137.16-.203.242-3.063 3.769-4.683 8.306-4.683 13.12v169.294h-36.379c-5.522 0-10 4.477-10 10s4.478 10 10 10h46.379c5.522 0 10-4.477 10-10v-179.293c0-.141 0-.22.104-.374.329-.327 1.238-1.058 3.353-1.836 3.407-1.038 7.798-1.883 13.057-2.514 5.999-.72 13.771-1.085 23.099-1.085 9.057 0 16.552.363 22.306 1.083 6.124.75 10.252 1.539 12.992 2.484 2.438.84 3.423 1.621 3.707 1.886.093.143.093.221.093.356v460.382c0 .135 0 .213-.092.356-.279.259-1.231 1.015-3.566 1.836-2.345.716-6.494 1.721-13.16 2.537-5.728.716-13.223 1.08-22.279 1.08-9.328 0-17.1-.365-23.1-1.085-5.255-.63-9.646-1.476-13.056-2.513-2.114-.779-3.023-1.51-3.353-1.836-.104-.154-.104-.233-.104-.374v-197.032c0-5.523-4.478-10-10-10h-182.766c-5.523 0-10 4.477-10 10v197.031c0 .185-.021.394-.255.731-.214.171-1.047.768-3.016 1.461-2.345.716-6.495 1.721-13.161 2.537-5.728.716-13.354 1.08-22.665 1.08-9.072 0-16.714-.365-22.715-1.085-5.341-.641-9.914-1.515-13.24-2.531-2.333-.822-3.286-1.578-3.564-1.836-.092-.142-.092-.221-.092-.356v-460.383c0-.135 0-.214.092-.356.285-.265 1.27-1.045 3.706-1.886 2.761-.952 6.924-1.741 13.099-2.481 6-.72 13.642-1.085 22.714-1.085 9.312 0 16.937.363 22.69 1.083 6.645.813 10.793 1.818 13.136 2.534 1.968.693 2.802 1.29 3.015 1.46.234.338.255.547.255.732v179.294c0 5.523 4.477 10 10 10h46.386c5.523 0 10-4.477 10-10s-4.477-10-10-10h-36.386v-169.295c0-4.603-1.481-9.019-4.284-12.773-2.65-3.587-6.892-6.405-12.61-8.376-.097-.034-.195-.065-.294-.096-4.504-1.398-10.152-2.52-16.762-3.329-6.547-.82-15.008-1.235-25.146-1.235-9.866 0-18.31.413-25.098 1.228-7.725.927-13.04 1.985-17.235 3.431-5.341 1.842-9.51 4.462-12.393 7.788-.069.08-.137.161-.204.243-3.063 3.769-4.681 8.305-4.681 13.119v460.382c0 4.814 1.619 9.35 4.681 13.119.067.082.135.163.204.243 2.882 3.325 7.051 5.945 12.392 7.787.099.034.198.067.298.098 4.539 1.409 10.238 2.53 16.938 3.334 6.788.814 15.232 1.228 25.098 1.228 10.138 0 18.599-.415 25.121-1.231 6.632-.812 12.28-1.933 16.787-3.331.099-.031.198-.063.296-.097 5.717-1.972 9.959-4.79 12.608-8.376 2.803-3.754 4.284-8.17 4.284-12.773v-187.032h162.765v187.031c0 4.814 1.619 9.352 4.683 13.12.066.082.135.162.203.242 2.877 3.318 6.925 5.926 12.032 7.751.133.047.266.092.4.134 4.657 1.445 10.156 2.536 16.81 3.334 6.787.815 15.361 1.228 25.483 1.228 9.883 0 18.214-.415 24.735-1.231 6.634-.812 12.281-1.933 16.787-3.331.099-.031.197-.063.296-.097 5.342-1.842 9.512-4.462 12.394-7.788.069-.081.138-.162.205-.244 3.063-3.77 4.681-8.305 4.681-13.118v-460.382c.001-4.813-1.617-9.349-4.68-13.118z"/><path d="m256.007 215.103c5.522 0 10-4.477 10-10s-4.478-10-10-10h-.007c-5.523 0-9.996 4.477-9.996 10s4.48 10 10.003 10z"/></g></g></svg>