<svg id="Layer_1" enable-background="new 0 0 512 512" height="512" viewBox="0 0 512 512" width="512" xmlns="http://www.w3.org/2000/svg"><g><path clip-rule="evenodd" d="m390.428 460.419c0 7.49-.258 13.946-.904 19.112-.646 5.165-1.679 9.427-2.841 12.785-1.291 3.486-2.841 5.94-4.778 7.36-1.937 1.55-4.133 2.324-6.586 2.324h-224.305c-8.265 0-15.238-2.453-20.92-7.361-5.682-4.907-8.523-12.913-8.523-24.019v-444.737c0-2.453.775-4.778 2.454-6.844 1.679-1.937 4.39-3.616 8.135-4.907s8.91-2.195 15.367-2.97c6.457-.774 14.463-1.162 24.019-1.162 9.814 0 17.95.387 24.277 1.162 6.199.775 11.364 1.679 15.109 2.97s6.457 2.97 8.135 4.907c1.679 2.066 2.454 4.391 2.454 6.844v393.987h153.799c2.453 0 4.778.646 6.586 2.066 1.937 1.42 3.487 3.616 4.778 6.844 1.291 3.099 2.195 7.231 2.841 12.526.645 5.166.903 11.494.903 19.113z" fill="#ffc144" fill-rule="evenodd"/><g><path d="m399.451 440.095c-.781-6.401-1.896-11.2-3.509-15.094-1.96-4.873-4.576-8.484-7.992-11.031-3.477-2.682-7.84-4.099-12.631-4.099h-143.798v-109.064c0-5.523-4.477-10-10-10s-10 4.477-10 10v119.064c0 5.523 4.477 10 10 10h153.799c.291 0 .476.031.568.052.035.026.069.052.104.078.006.004.589.449 1.407 2.495.018.043.036.087.054.13.88 2.114 1.603 5.442 2.149 9.921.556 4.451.827 10.297.827 17.872s-.271 13.421-.827 17.871c-.495 3.961-1.301 7.641-2.332 10.65-.708 1.886-1.253 2.598-1.38 2.748-.078.059-.155.119-.231.179-.119.096-.178.122-.178.122-.002 0-.049.012-.161.012h-224.306c-5.838 0-10.543-1.612-14.384-4.93-3.356-2.898-5.059-8.433-5.059-16.45v-444.738c0-.143 0-.23.104-.388.285-.265 1.279-1.059 3.746-1.909 2.689-.928 7.04-1.744 13.297-2.495 6.036-.724 13.716-1.091 22.828-1.091 9.404 0 17.164.366 23.037 1.085 6.161.77 10.442 1.588 13.089 2.501 2.466.851 3.461 1.643 3.746 1.909.104.158.104.245.104.388v184.924c0 5.523 4.477 10 10 10s10-4.477 10-10v-184.924c0-4.825-1.623-9.372-4.693-13.15-.066-.082-.134-.163-.203-.242-2.89-3.335-7.073-5.964-12.433-7.813-4.083-1.408-9.365-2.469-17.154-3.442-6.703-.82-15.28-1.236-25.493-1.236-9.905 0-18.387.415-25.211 1.233-7.898.948-13.275 2.01-17.435 3.445-5.36 1.849-9.543 4.477-12.433 7.813-.069.079-.136.16-.202.241-3.071 3.778-4.694 8.326-4.694 13.151v444.737c0 14.091 4.033 24.719 11.986 31.586 7.523 6.498 16.761 9.793 27.456 9.793h224.307c4.636 0 9.014-1.518 12.675-4.391 3.438-2.584 6.078-6.454 8.066-11.82.025-.067.049-.135.073-.203 1.518-4.386 2.632-9.37 3.313-14.815.66-5.282.981-11.939.981-20.352 0-8.529-.311-14.996-.977-20.323z"/><path d="m221.521 245.807h-.007c-5.523 0-9.996 4.477-9.996 10s4.48 10 10.003 10 10-4.477 10-10-4.477-10-10-10z"/></g></g></svg>