<svg id="Layer_1" enable-background="new 0 0 512 512" height="512" viewBox="0 0 512 512" width="512" xmlns="http://www.w3.org/2000/svg"><g><path clip-rule="evenodd" d="m460.351 248.734c0 45.152-5.839 83.686-17.646 115.864-11.807 32.047-28.674 58.126-50.731 78.497-22.057 20.241-48.915 35.161-80.443 44.633-31.528 9.471-69.155 14.272-112.75 14.272h-117.421c-8.433 0-15.44-2.465-21.149-7.396-5.709-4.93-8.563-12.975-8.563-24.133v-428.942c0-11.158 2.854-19.203 8.563-24.133 5.709-4.931 12.716-7.396 21.149-7.396h126.114c43.855 0 81.092 5.19 111.582 15.44 30.62 10.25 56.31 25.431 77.2 45.541 20.889 20.24 36.848 45.152 47.747 74.734 10.899 29.712 16.348 63.965 16.348 103.019zm-103.538 3.503c0-23.354-2.725-44.892-8.174-65.003-5.449-19.981-14.142-37.238-26.209-51.899-12.066-14.662-27.507-26.209-46.32-34.383-18.943-8.174-43.595-12.326-74.345-12.326h-50.472v333.968h52.029c27.377 0 50.472-3.503 69.155-10.639 18.684-7.006 34.383-17.775 46.968-32.047 12.456-14.272 21.798-32.047 28.026-53.326s9.342-46.06 9.342-74.345z" fill="#00ccf2" fill-rule="evenodd"/><g><path d="m453.387 142.258c-11.349-30.8-28.229-57.198-50.195-78.481-21.893-21.076-49.132-37.165-80.948-47.816-31.506-10.591-70.12-15.961-114.77-15.961h-126.113c-10.819 0-20.135 3.306-27.686 9.827-7.98 6.892-12.026 17.558-12.026 31.702v428.942c0 14.144 4.046 24.81 12.026 31.702 7.551 6.521 16.867 9.827 27.686 9.827h117.421c44.267 0 83.169-4.944 115.627-14.695 32.832-9.863 61.204-25.623 84.35-46.863 23.11-21.342 41.053-49.061 53.335-82.398 12.115-33.017 18.258-73.158 18.258-119.309-.001-39.964-5.707-75.784-16.965-106.477zm-20.065 218.883c-11.174 30.33-27.368 55.431-48.109 74.585-20.881 19.163-46.64 33.436-76.558 42.424-30.591 9.19-67.558 13.85-109.873 13.85h-117.421c-6.049 0-10.691-1.578-14.613-4.964-3.383-2.922-5.099-8.495-5.099-16.565v-428.942c0-8.07 1.716-13.643 5.099-16.565 3.921-3.386 8.564-4.964 14.613-4.964h126.113c42.479 0 78.948 5.02 108.408 14.923 28.993 9.705 53.701 24.261 73.415 43.24 19.771 19.157 35.021 43.048 45.317 70.997 10.442 28.466 15.736 61.968 15.736 99.575.001 43.792-5.729 81.615-17.028 112.406z"/><path d="m330.152 128.981c-13.135-15.959-29.976-28.475-50.079-37.21-20.498-8.845-46.112-13.144-78.307-13.144h-50.472c-5.522 0-10 4.477-10 10v121.984c0 5.523 4.478 10 10 10s10-4.477 10-10v-111.985h40.472c29.006 0 52.687 3.872 70.359 11.498 17.151 7.452 31.479 18.073 42.583 31.566 11.216 13.626 19.158 29.385 24.278 48.159 5.267 19.435 7.826 39.842 7.826 62.388 0 27.2-3.008 51.269-8.939 71.536-5.788 19.778-14.523 36.453-25.929 49.521-11.522 13.067-25.982 22.924-43.035 29.319-17.341 6.623-39.407 9.981-65.587 9.981h-42.028v-111.983c0-5.523-4.478-10-10-10s-10 4.477-10 10v121.984c0 5.523 4.478 10 10 10h52.028c28.628 0 53.096-3.801 72.667-11.276 20.098-7.537 37.242-19.244 50.99-34.835 13.357-15.305 23.48-34.514 30.089-57.092 6.466-22.093 9.744-48.051 9.744-77.154 0-24.337-2.787-46.455-8.526-67.634-5.801-21.275-15.267-39.989-28.134-55.623z"/><path d="m151.294 265.611c5.522 0 10-4.477 10-10s-4.478-10-10-10h-.008c-5.522 0-9.996 4.477-9.996 10s4.482 10 10.004 10z"/></g></g></svg>