<svg id="Layer_1" enable-background="new 0 0 511.999 511.999" height="512" viewBox="0 0 511.999 511.999" width="512" xmlns="http://www.w3.org/2000/svg"><g><path clip-rule="evenodd" d="m424.151 462.427c0 7.395-.259 13.623-.908 18.684-.649 5.06-1.687 9.212-2.854 12.326-1.298 3.244-2.854 5.449-4.801 6.617-1.946 1.297-4.022 1.946-6.228 1.946h-289.984c-10.12 0-17.905-2.854-23.355-8.693-5.449-5.839-8.174-14.402-8.174-25.56v-16.607c0-5.19.259-9.731.908-13.883.649-4.282 1.687-8.434 3.244-12.845 1.557-4.282 3.763-8.953 6.617-14.013 2.984-5.06 6.617-11.158 10.899-18.295l190.858-302.699h-189.171c-3.114 0-5.709-.649-7.785-2.076-2.206-1.427-3.893-3.633-5.32-6.617-1.427-3.114-2.465-7.136-3.114-12.196s-.909-11.158-.909-18.294c0-7.525.26-13.883.909-19.073.648-5.32 1.687-9.472 3.114-12.586 1.427-3.244 3.114-5.449 5.32-6.617 2.076-1.297 4.671-1.946 7.785-1.946h271.69c10.38 0 18.035 2.595 22.965 7.914 4.931 5.32 7.396 12.845 7.396 22.446v18.683c0 6.747-.259 12.715-.908 17.646-.649 4.93-1.817 9.731-3.503 14.402-1.557 4.671-3.763 9.471-6.617 14.532-2.725 4.93-6.358 10.769-10.639 17.645l-187.745 298.548h205.519c4.801 0 8.433 2.984 11.029 9.082 2.465 6.098 3.762 16.608 3.762 31.529z" fill="#ffc144" fill-rule="evenodd"/><g><path d="m429.66 427.15c-.022-.056-.045-.111-.069-.167-5.615-13.197-15.085-15.168-20.23-15.168h-187.418l178.132-283.263c4.317-6.936 8.046-12.926 10.859-18.017 3.21-5.69 5.616-10.979 7.354-16.164 1.901-5.29 3.237-10.8 3.971-16.379.668-5.084.994-11.282.994-18.949v-18.683c0-12.202-3.385-22.041-10.062-29.244-6.837-7.376-17.03-11.116-30.299-11.116h-271.69c-4.869 0-9.169 1.104-12.789 3.283-4.006 2.225-7.097 5.889-9.44 11.188-1.866 4.099-3.147 9.159-3.912 15.437-.672 5.377-.985 11.832-.985 20.313 0 7.975.324 14.375.989 19.566.777 6.061 2.066 10.996 3.941 15.09.023.05.046.1.07.149 2.275 4.758 5.153 8.234 8.793 10.622 3.681 2.493 8.165 3.757 13.333 3.757h171.044l-61.757 97.945c-2.946 4.672-1.546 10.848 3.125 13.793 4.672 2.944 10.847 1.547 13.792-3.125l71.425-113.279c1.943-3.081 2.057-6.976.297-10.164-1.759-3.189-5.113-5.17-8.756-5.17h-189.17c-1.36 0-1.99-.229-2.118-.316-.078-.054-.157-.106-.236-.157-.173-.112-.802-.619-1.692-2.458-.992-2.195-1.75-5.3-2.253-9.229-.557-4.34-.827-9.908-.827-17.023 0-7.527.272-13.36.835-17.862.639-5.244 1.592-8.132 2.278-9.631.021-.046.042-.091.062-.137.534-1.214.929-1.754 1.077-1.934.131-.074.261-.151.389-.231.33-.206 1.156-.426 2.486-.426h271.69c7.474 0 12.733 1.585 15.631 4.712 3.139 3.386 4.73 8.651 4.73 15.648v18.684c0 6.786-.269 12.132-.823 16.341-.552 4.194-1.56 8.337-2.995 12.311-.028.078-.055.155-.081.233-1.332 3.994-3.242 8.175-5.883 12.857-2.604 4.713-6.206 10.499-10.352 17.159l-187.744 298.546c-1.938 3.081-2.048 6.973-.288 10.159s5.113 5.164 8.753 5.164h205.519.013c.22.195.92.926 1.777 2.912 1.136 2.862 3.001 10.225 3.001 27.699 0 7.376-.271 13.071-.827 17.411-.625 4.878-1.567 8.108-2.261 9.983-.451 1.11-.801 1.656-.952 1.864-.024.016-.048.031-.071.047-.399.267-.562.267-.68.267h-289.984c-7.331 0-12.58-1.805-16.043-5.515-3.64-3.9-5.485-10.205-5.485-18.738v-16.607c0-4.978.25-8.898.795-12.384.565-3.73 1.451-7.23 2.754-10.927 1.355-3.726 3.334-7.908 5.883-12.436 2.922-4.955 6.54-11.027 10.753-18.05l71.368-113.188c2.946-4.672 1.546-10.848-3.125-13.793-4.671-2.944-10.846-1.546-13.792 3.125l-71.427 113.285c-.04.063-.078.126-.116.188-4.288 7.146-7.968 13.324-10.938 18.361-.032.055-.064.11-.095.165-3.11 5.513-5.568 10.731-7.338 15.599-1.742 4.936-2.952 9.735-3.693 14.628-.702 4.488-1.028 9.391-1.028 15.428v16.607c0 13.764 3.655 24.659 10.864 32.385 7.352 7.875 17.669 11.868 30.665 11.868h289.982c4.134 0 8.033-1.179 11.591-3.505 3.743-2.319 6.598-6.033 8.722-11.344.027-.067.053-.135.079-.202 1.533-4.089 2.713-9.126 3.411-14.566.675-5.266.989-11.606.989-19.955-.001-16.262-1.47-27.801-4.492-35.277z"/><path d="m204.952 250.755c5.523 0 10-4.478 10-10s-4.477-10-10-10h-.007c-5.523 0-9.996 4.478-9.996 10s4.48 10 10.003 10z"/></g></g></svg>