<svg id="Layer_1" enable-background="new 0 0 512 512" height="512" viewBox="0 0 512 512" width="512" xmlns="http://www.w3.org/2000/svg"><g><path clip-rule="evenodd" d="m444.517 462.414c4.498 8.868 7.454 15.809 8.868 21.078 1.414 5.27.514 9.383-2.442 12.082-3.085 2.828-8.483 4.498-16.323 5.269-7.969.771-18.894 1.157-32.903 1.157-11.696 0-21.078-.257-27.762-.771-6.812-.514-12.082-1.285-15.938-2.442s-6.684-2.699-8.483-4.755c-1.799-1.928-3.213-4.499-4.499-7.454l-91.768-175.953-90.997 175.953c-1.542 2.956-3.084 5.526-4.884 7.454-1.8 2.056-4.627 3.599-8.483 4.755-3.985 1.157-9.383 1.928-16.323 2.442s-16.066.771-27.376.771c-13.11 0-23.263-.385-30.461-1.157-7.069-.771-11.953-2.442-14.524-5.269-2.442-2.699-2.956-6.812-1.414-12.082 1.414-5.269 4.627-12.21 9.382-21.078l116.574-212.84-108.473-199.988c-4.499-9.125-7.583-16.323-9.254-21.721-1.542-5.398-1.028-9.382 1.928-12.082 2.828-2.57 8.226-4.241 15.938-4.884 7.84-.643 18.893-.899 33.16-.899 11.825 0 21.207.257 28.147.771s12.338 1.285 16.323 2.442c4.113 1.157 6.941 2.699 8.483 4.755 1.671 1.928 3.213 4.498 4.755 7.455l85.985 161.301 82.9-161.301c1.542-2.956 3.085-5.526 4.756-7.455 1.542-2.056 4.241-3.599 7.84-4.755 3.599-1.157 8.611-1.928 15.038-2.442 6.424-.514 15.292-.771 26.602-.771 12.467 0 22.364.257 29.69.899 7.198.643 12.21 2.314 15.038 5.141 2.699 2.699 3.47 6.812 2.057 12.081-1.414 5.27-4.241 12.339-8.483 21.464l-108.477 198.832z" fill="#ff764e" fill-rule="evenodd"/><g><path d="m463.043 480.9c-1.581-5.892-4.634-13.204-9.608-23.01-.04-.079-.081-.158-.123-.236l-113.217-209.217 105.874-194.061c.104-.188.2-.38.29-.575 4.647-10 7.53-17.336 9.072-23.086 3.147-11.731-1.558-18.658-4.644-21.745-4.533-4.533-11.475-7.16-21.235-8.032-7.299-.64-17.01-.938-30.562-.938-11.519 0-20.737.27-27.403.803-7.548.604-13.046 1.522-17.301 2.89-5.664 1.821-9.772 4.43-12.543 7.969-1.958 2.307-3.774 5.143-5.886 9.19l-74.167 144.311-76.955-144.362c-2.083-3.995-3.899-6.832-5.861-9.143-2.89-3.682-7.321-6.324-13.455-8.048-4.574-1.329-10.412-2.222-18.374-2.812-7.158-.529-16.877-.798-28.886-.798-15.41 0-26.206.296-33.991.934-10.103.842-17.243 3.279-21.85 7.465-4.032 3.682-8.139 10.525-4.8 22.213.02.07.041.14.063.21 1.807 5.837 5.024 13.421 9.837 23.186.058.117.117.233.18.347l32.778 60.429c2.634 4.855 8.704 6.655 13.558 4.022 4.855-2.633 6.656-8.704 4.022-13.558l-32.685-60.257c-4.202-8.538-7.078-15.256-8.551-19.972-.283-1.012-.386-1.703-.42-2.133 1.023-.516 3.702-1.536 9.515-2.02 7.115-.583 17.695-.866 32.344-.866 11.52 0 20.741.25 27.408.744 6.446.478 11.114 1.156 14.354 2.096 2.202.62 3.109 1.17 3.351 1.336.092.116.186.229.282.341.951 1.098 2.078 2.906 3.488 5.61l85.985 161.301c1.738 3.261 5.132 5.296 8.824 5.296h.075c3.721-.028 7.118-2.12 8.819-5.429l82.871-161.248c1.37-2.626 2.497-4.434 3.445-5.528.122-.141.241-.286.355-.434.17-.135.953-.698 2.988-1.352 2.672-.859 6.97-1.53 12.774-1.994 6.14-.49 14.823-.739 25.812-.739 12.778 0 22.204.282 28.8.86 5.882.525 8.063 1.694 8.665 2.105.039.388.017 1.236-.341 2.567-1.205 4.496-3.743 10.893-7.757 19.55l-108.321 198.545c-1.623 2.975-1.629 6.569-.017 9.549l115.739 213.879c4.18 8.251 6.894 14.652 8.068 19.029.311 1.16.335 1.901.305 2.241-.616.448-3.071 1.846-10.374 2.564-7.614.737-18.36 1.11-31.94 1.11-11.51 0-20.593-.25-27.009-.743-6.195-.468-10.845-1.157-13.815-2.048-3.068-.921-3.825-1.755-3.832-1.763-.07-.081-.143-.161-.216-.239-.781-.837-1.669-2.391-2.637-4.618-.094-.215-.195-.428-.305-.637l-91.768-175.951c-1.723-3.304-5.141-5.375-8.866-5.375-.006 0-.012 0-.018 0-3.732.006-7.15 2.091-8.865 5.406l-90.98 175.921c-.858 1.645-2.137 3.98-3.329 5.257-.072.078-.144.157-.214.237-.007.008-.764.842-3.745 1.738-3.159.917-7.828 1.595-14.273 2.073-6.668.493-15.63.744-26.638.744-12.692 0-22.583-.37-29.377-1.098-5.03-.549-7.179-1.475-7.896-1.862-.008-.448.057-1.321.472-2.74.021-.072.041-.145.061-.217 1.108-4.129 3.82-10.149 8.494-18.866l116.574-212.84c1.633-2.98 1.64-6.585.02-9.572l-32.779-60.432c-2.634-4.854-8.703-6.656-13.558-4.022-4.855 2.633-6.656 8.703-4.022 13.558l30.181 55.641-114.001 208.137c-5.5 10.26-8.649 17.393-10.197 23.104-3.333 11.522.838 18.408 3.644 21.509 4.276 4.704 10.898 7.399 20.857 8.486 7.624.816 17.936 1.213 31.526 1.213 11.498 0 20.957-.269 28.115-.798 7.959-.589 13.797-1.483 18.459-2.836 5.727-1.719 9.988-4.213 13.021-7.623 2.752-2.982 4.746-6.493 6.353-9.572l82.151-158.85 82.708 158.581c1.859 4.208 3.808 7.347 6.106 9.84 3.033 3.409 7.296 5.904 13.024 7.624 4.475 1.342 10.212 2.243 18.044 2.834 6.911.531 16.509.8 28.528.8 14.42 0 25.498-.394 33.882-1.205 10.345-1.018 17.367-3.512 22.087-7.837 3.384-3.088 8.579-10.062 5.359-22.058z"/><path d="m140.525 149.58c0-5.523-4.478-10-10-10h-.007c-5.522 0-9.996 4.477-9.996 10s4.48 10 10.003 10 10-4.477 10-10z"/></g></g></svg>