<svg id="Layer_1" enable-background="new 0 0 512 512" height="512" viewBox="0 0 512 512" width="512" xmlns="http://www.w3.org/2000/svg"><g><path clip-rule="evenodd" d="m423.745 158.762c0 27.635-4.262 51.912-12.913 73.09-8.523 21.307-21.049 39.127-37.578 53.591-16.4 14.592-36.545 25.568-60.435 33.187s-52.041 11.364-84.454 11.364h-40.935v156.123c0 2.582-.775 4.778-2.453 6.844-1.679 1.937-4.391 3.616-8.136 4.907s-8.781 2.195-15.109 2.97c-6.198.775-14.334 1.162-24.019 1.162-9.556 0-17.562-.388-24.019-1.162-6.457-.775-11.493-1.808-15.238-2.97-3.745-1.292-6.456-2.97-7.877-4.907-1.55-2.066-2.324-4.391-2.324-6.844v-440.476c0-11.881 3.099-20.791 9.298-26.731 6.198-5.94 14.334-8.91 24.406-8.91h115.446c11.622 0 22.727.387 33.187 1.291s22.986 2.841 37.707 5.682c14.592 2.97 29.443 8.265 44.422 16.142 14.98 7.748 27.893 17.691 38.482 29.701 10.589 12.009 18.724 25.956 24.277 42.097 5.553 16.013 8.265 33.962 8.265 53.849zm-103.824 7.231c0-17.175-3.099-31.38-9.168-42.485-6.07-11.106-13.56-19.37-22.469-24.665-8.91-5.294-18.208-8.652-27.893-10.072-9.814-1.421-19.887-2.066-30.347-2.066h-42.614v166.582h44.939c16.013 0 29.313-2.195 40.16-6.456 10.718-4.262 19.629-10.331 26.473-18.079 6.844-7.619 12.009-16.916 15.625-27.634 3.486-10.718 5.294-22.469 5.294-35.125z" fill="#88df8e" fill-rule="evenodd"/><g><path d="m424.936 101.66c-5.878-17.089-14.704-32.383-26.232-45.458-11.36-12.884-25.286-23.64-41.329-31.938-15.454-8.126-31.294-13.876-47.081-17.09-.034-.006-.067-.013-.101-.02-15.65-3.02-28.322-4.925-38.741-5.825-10.34-.894-21.478-1.329-34.047-1.329h-115.446c-12.691 0-23.231 3.933-31.325 11.69-8.214 7.871-12.379 19.294-12.379 33.951v440.476c0 4.615 1.486 9.043 4.297 12.808 2.656 3.594 6.91 6.419 12.645 8.396.098.034.197.066.295.097 4.557 1.415 10.281 2.542 17.011 3.349 6.819.818 15.301 1.233 25.21 1.233 10.183 0 18.681-.417 25.233-1.236 7.688-.941 12.979-2.002 17.154-3.442 5.36-1.848 9.543-4.477 12.433-7.812.069-.08.137-.161.204-.243 3.113-3.832 4.692-8.256 4.692-13.149v-146.125h30.936c33.429 0 62.866-3.982 87.492-11.836 25.27-8.059 46.817-19.917 63.981-35.189 17.679-15.468 31.23-34.781 40.25-57.334 9.062-22.18 13.656-48.043 13.656-76.872.001-21.035-2.965-40.255-8.808-57.102zm-23.389 126.478c-7.864 19.661-19.599 36.409-34.941 49.833-15.121 13.454-34.24 23.928-56.826 31.131-22.659 7.227-50.051 10.891-81.415 10.891h-40.936c-5.523 0-10 4.477-10 10v156.123c0 .17-.015.247-.013.249-.005.01-.026.053-.082.132-.273.257-1.262 1.057-3.754 1.917-2.757.951-6.908 1.745-13.089 2.501-5.758.72-13.421 1.085-22.778 1.085-9.116 0-16.796-.367-22.828-1.091-5.371-.645-9.968-1.523-13.311-2.545-1.999-.704-2.839-1.31-3.05-1.48-.247-.354-.269-.573-.269-.768v-440.475c0-8.993 2.092-15.558 6.217-19.511 4.304-4.125 10.024-6.13 17.487-6.13h115.446c11.989 0 22.563.41 32.327 1.254 9.707.838 21.687 2.646 36.622 5.527 13.917 2.838 27.951 7.947 41.774 15.215 13.892 7.186 25.861 16.415 35.575 27.432 9.927 11.259 17.229 23.93 22.33 38.761 5.118 14.758 7.713 31.773 7.713 50.572-.001 26.223-4.096 49.542-12.199 69.377z"/><path d="m293.391 90.247c-9.996-5.94-20.611-9.766-31.568-11.373-10.082-1.459-20.477-2.169-31.779-2.169h-42.614c-5.523 0-10 4.477-10 10v38.292c0 5.523 4.477 10 10 10s10-4.477 10-10v-28.291h32.614c10.333 0 19.792.642 28.896 1.96 8.342 1.224 16.496 4.176 24.235 8.775 7.273 4.322 13.599 11.341 18.803 20.864 5.271 9.645 7.943 22.325 7.943 37.689 0 11.435-1.611 22.195-4.788 31.982-3.233 9.563-7.799 17.67-13.627 24.157-5.774 6.537-13.402 11.721-22.634 15.392-9.735 3.825-22.017 5.764-36.504 5.764h-34.939l-.003-28.292c0-5.523-4.478-10-10.001-9.999s-10 4.478-9.999 10.001l.004 38.291c0 5.522 4.478 9.999 10 9.999h44.938c17 0 31.742-2.405 43.855-7.164 12.215-4.857 22.4-11.839 30.217-20.688 7.611-8.472 13.553-18.942 17.662-31.121.012-.034.023-.069.035-.104 3.838-11.801 5.785-24.659 5.785-38.218 0-18.754-3.497-34.662-10.394-47.281-6.947-12.711-15.74-22.288-26.137-28.466z"/><path d="m187.429 179.997c5.523 0 10-4.477 10-10s-4.477-10-10-10h-.007c-5.523 0-9.996 4.477-9.996 10s4.48 10 10.003 10z"/></g></g></svg>