<svg id="Layer_1" enable-background="new 0 0 511.999 511.999" height="512" viewBox="0 0 511.999 511.999" width="512" xmlns="http://www.w3.org/2000/svg"><g><path clip-rule="evenodd" d="m418.214 461.956c0 7.269-.255 13.518-.893 18.619s-1.658 9.182-2.806 12.498c-1.275 3.188-2.933 5.484-4.846 6.887-2.04 1.403-4.336 2.04-6.759 2.04h-278.136c-5.484 0-10.202-.51-14.156-1.531-3.953-1.02-7.269-2.933-9.692-5.739-2.55-2.933-4.336-7.014-5.484-12.497-1.148-5.484-1.658-12.625-1.658-21.297 0-8.289.383-15.303 1.148-21.169s2.04-11.095 4.081-15.686c2.04-4.591 4.591-9.055 7.652-13.39 3.188-4.464 7.141-9.182 12.243-14.411l83.785-89.524c16.706-17.471 30.224-33.284 40.426-47.695 10.202-14.283 18.236-27.418 23.975-39.278 5.738-11.86 9.564-22.7 11.732-32.647s3.188-19.512 3.188-28.439c0-8.162-1.276-15.941-3.954-23.337-2.55-7.269-6.504-13.646-11.605-19.129-5.101-5.484-11.477-9.692-19.257-12.88-7.652-3.061-16.706-4.591-27.291-4.591-14.666 0-27.674 1.913-39.023 5.611-11.35 3.698-21.297 7.907-29.841 12.498-8.672 4.719-15.814 8.927-21.552 12.753-5.739 3.953-10.202 5.866-13.391 5.866-2.295 0-4.208-.765-5.866-2.296-1.658-1.403-2.933-3.953-3.953-7.397-.893-3.57-1.785-8.162-2.423-14.155-.638-5.866-.893-13.008-.893-21.424 0-5.739.128-10.585.511-14.538.382-3.826 1.02-7.142 1.785-10.075.638-2.806 1.658-5.356 2.933-7.524 1.275-2.041 3.443-4.591 6.503-7.652 3.188-2.933 8.927-6.759 17.216-11.35 8.417-4.719 18.619-9.182 30.862-13.518s25.633-8.034 40.426-11.095c14.666-2.933 29.969-4.464 45.91-4.464 25.251 0 47.185 3.188 66.059 9.565 18.747 6.376 34.432 15.176 46.93 26.525 12.497 11.35 21.68 24.74 27.801 40.299 6.121 15.558 9.182 32.264 9.182 50.246 0 15.686-1.53 31.117-4.463 46.293-3.061 15.303-9.31 31.626-18.747 49.225-9.437 17.471-22.827 36.983-40.044 58.28-17.216 21.297-40.044 46.037-68.482 74.221l-56.494 57.77h190.527c2.551 0 4.846.765 6.887 2.296 2.168 1.403 3.953 3.698 5.484 6.887 1.53 3.06 2.551 7.141 3.316 12.243.765 5.098 1.147 11.219 1.147 18.106z" fill="#ff5a58" fill-rule="evenodd"/><g><path d="m426.956 442.363c-.976-6.497-2.317-11.316-4.223-15.153-2.315-4.801-5.178-8.304-8.741-10.694-3.688-2.679-8.041-4.093-12.611-4.093h-166.76l39.823-40.722c28.535-28.282 51.806-53.511 69.164-74.983 17.513-21.663 31.329-41.787 41.079-59.84 10.024-18.693 16.481-35.7 19.752-52.054 3.083-15.946 4.646-32.16 4.646-48.19 0-19.114-3.323-37.252-9.877-53.906-6.681-16.981-16.903-31.799-30.383-44.041-13.361-12.133-30.329-21.752-50.452-28.596-19.817-6.696-43.12-10.091-69.26-10.091-16.317 0-32.424 1.566-47.937 4.67-14.967 3.097-29.01 6.953-41.737 11.462-12.877 4.561-23.479 9.212-32.369 14.196-8.951 4.957-15.212 9.124-19.141 12.737-.103.095-.203.19-.302.289-3.63 3.631-6.218 6.712-7.912 9.422-.048.076-.094.152-.14.23-1.818 3.09-3.173 6.526-4.027 10.217-.962 3.713-1.623 7.464-2.024 11.488-.386 3.981-.558 8.762-.558 15.502 0 9.256.312 16.618.948 22.482.606 5.7 1.479 10.778 2.667 15.525.035.138.072.275.112.411 1.641 5.541 3.84 9.376 6.91 12.045 3.481 3.146 7.798 4.809 12.498 4.809 5.432 0 11.469-2.41 18.994-7.584 5.369-3.575 12.149-7.584 20.68-12.226 8.183-4.396 17.673-8.366 28.208-11.799 10.422-3.396 22.509-5.119 35.925-5.119 9.215 0 17.147 1.304 23.498 3.844 6.544 2.682 11.688 6.097 15.728 10.438 4.269 4.59 7.462 9.849 9.523 15.722 2.228 6.154 3.357 12.861 3.357 19.935 0 8.448-.996 17.3-2.959 26.31-2.043 9.371-5.731 19.606-10.964 30.421-2.405 4.972-.325 10.952 4.646 13.357 4.967 2.402 10.951.326 13.357-4.646 5.917-12.23 10.123-23.964 12.501-34.873 2.269-10.406 3.418-20.691 3.418-30.568 0-9.401-1.531-18.398-4.519-26.649-2.946-8.396-7.562-16.008-13.719-22.629-6.054-6.507-13.507-11.519-22.864-15.354-8.804-3.521-19.234-5.306-31.005-5.306-15.524 0-29.696 2.054-42.121 6.104-11.661 3.8-22.251 8.239-31.524 13.222-9.139 4.973-16.438 9.296-22.318 13.216-.042.028-.084.057-.126.085-3.79 2.611-6.043 3.569-7.099 3.915-.199-.429-.476-1.112-.79-2.149-.934-3.778-1.63-7.893-2.13-12.593-.562-5.162-.834-11.816-.834-20.344 0-5.99.147-10.304.461-13.545.3-3.003.794-5.797 1.511-8.541.026-.104.052-.206.075-.31.379-1.664.976-3.232 1.729-4.548.529-.819 1.83-2.562 4.866-5.612 1.624-1.461 5.684-4.591 15.196-9.859 7.931-4.446 17.519-8.638 29.311-12.814 11.874-4.206 25.033-7.815 39.049-10.716 14.162-2.833 28.948-4.27 43.951-4.27 23.959 0 45.107 3.041 62.839 9.032 17.495 5.95 32.106 14.18 43.428 24.46 11.344 10.303 19.592 22.261 25.217 36.559 5.633 14.313 8.488 29.985 8.488 46.583 0 14.76-1.44 29.696-4.27 44.332-2.866 14.33-8.674 29.528-17.739 46.434-9.152 16.945-22.281 36.037-39.021 56.745-16.911 20.918-39.703 45.615-67.745 73.406-.037.036-.074.073-.11.11l-56.495 57.77c-2.813 2.878-3.629 7.161-2.068 10.87 1.562 3.71 5.193 6.122 9.218 6.122h190.526c.387 0 .577.063.885.295.185.138.374.27.567.395.081.053.827.581 1.903 2.821.023.048.047.096.07.143.931 1.861 1.729 4.976 2.37 9.256.688 4.583 1.037 10.176 1.037 16.624 0 7.305-.267 12.989-.815 17.379-.472 3.774-1.229 7.214-2.25 10.227-.556 1.331-1.077 2.022-1.313 2.261-.169.087-.442.177-.925.177h-278.136c-4.617 0-8.539-.408-11.656-1.212-2.036-.525-3.591-1.397-4.646-2.618-1.372-1.579-2.464-4.266-3.242-7.983-.959-4.584-1.445-11.061-1.445-19.25 0-7.774.358-14.462 1.063-19.877.681-5.224 1.762-9.449 3.304-12.918 1.764-3.97 4.012-7.9 6.651-11.639 3.035-4.252 6.72-8.583 11.263-13.24.048-.049.095-.099.142-.149l83.75-89.486c4.264-4.459 8.338-8.829 12.11-12.991 3.709-4.092 3.398-10.416-.693-14.125-4.09-3.708-10.415-3.4-14.125.693-3.664 4.042-7.63 8.295-11.785 12.641-.024.025-.049.052-.073.078l-83.718 89.451c-5.229 5.367-9.529 10.44-13.179 15.551-3.425 4.852-6.325 9.931-8.619 15.094-2.336 5.255-3.926 11.292-4.859 18.456-.829 6.357-1.231 13.704-1.231 22.462 0 9.697.611 17.334 1.869 23.348 1.509 7.201 4.035 12.765 7.704 16.983 3.69 4.273 8.795 7.346 14.763 8.886 4.749 1.226 10.353 1.847 16.653 1.847h278.137c4.515 0 8.812-1.314 12.426-3.801.083-.057.164-.115.245-.174 3.495-2.563 6.261-6.344 8.219-11.238.058-.146.112-.293.164-.44 1.519-4.385 2.622-9.273 3.279-14.53.652-5.221.97-11.717.97-19.859-.001-7.443-.424-14.035-1.259-19.598z"/><path d="m253.119 259.061c0-5.522-4.478-10-10-10h-.008c-5.522 0-9.996 4.478-9.996 10s4.481 10 10.004 10 10-4.478 10-10z"/></g></g></svg>