<svg id="Capa_1" enable-background="new 0 0 512.002 512.002" height="512" viewBox="0 0 512.002 512.002" width="512" xmlns="http://www.w3.org/2000/svg"><g><g><path d="m287.06 199.342c-10.185 6.298-16.986 17.544-16.986 30.399s6.802 24.101 16.986 30.399c10.806-5.833 18.149-17.258 18.149-30.399s-7.343-24.565-18.149-30.399z" fill="#ff76aa"/><path d="m482.529 7.5h-104.265c-3.905 1.009-6.793 4.545-6.793 8.765v13.443c0 4.22 2.888 7.756 6.793 8.765h104.264c4.911 0 8.893-3.981 8.893-8.892v-13.189c0-4.911-3.981-8.892-8.892-8.892z" fill="#ff76aa"/><path d="m270.684 229.741c0-12.777 6.946-23.924 17.262-29.895-5.079-2.939-10.972-4.63-17.262-4.63-19.068 0-34.525 15.457-34.525 34.525 0 19.067 15.457 34.525 34.525 34.525 6.291 0 12.183-1.691 17.262-4.63-10.316-5.97-17.262-17.118-17.262-29.895z" fill="#ff5595"/><path d="m371.643 29.581v-13.189c0-4.911 3.981-8.892 8.892-8.892h-60.15c-4.911 0-8.892 3.981-8.892 8.892v13.189c0 4.911 3.981 8.892 8.892 8.892h60.15c-4.911.001-8.892-3.981-8.892-8.892z" fill="#ff5595"/><g><path d="m267.18 398.592h-2.529c-14.851 41.822-54.812 71.854-101.663 71.854-59.466 0-107.846-48.38-107.846-107.846 0-48.315 31.936-89.312 75.807-102.989l1.314-3.554v-30.25l-.333-.371v3.669c-53.529 20.71-91.594 72.729-91.594 133.479 0 72.694 54.506 132.883 124.792 141.882 51.446-.766 96.346-29.031 120.607-70.734v-4.092z" fill="#dbedff"/><g><path d="m41.41 362.599c0-60.259 37.758-111.858 90.854-132.401v-4.392l-1.314-1.463c-62.866 14.564-109.864 71.024-109.864 138.256 0 78.246 63.658 141.903 141.903 141.903 3.419 0 6.808-.128 10.167-.367-73.522-5.226-131.746-66.706-131.746-141.536z" fill="#b5dcff"/></g><circle cx="147.799" cy="164.547" fill="#60b9fe" r="25.936"/><path d="m147.799 164.547c0-9.598 5.218-17.973 12.968-22.458-3.816-2.208-8.242-3.479-12.968-3.479-14.324 0-25.936 11.612-25.936 25.936s11.612 25.936 25.936 25.936c4.726 0 9.152-1.27 12.968-3.478-7.75-4.484-12.968-12.858-12.968-22.457z" fill="#1ca8ff"/><path d="m255.576 379.123 58.188 88.684 13.796 1.442c7.685-4.96 10.114-15.147 5.373-23.049l-55.72-92.866c-3.077-5.129-8.62-8.267-14.601-8.267h-97.605v-46.743l-4.118-3.891h-12.285v67.178c0 8.707 6.242 15.946 14.492 17.513h87.622 4.858z" fill="#1ca8ff"/><path d="m149.413 362.094v-67.663h-5.212l-11.625-13.137h-1.626v80.8c0 9.405 7.624 17.029 17.029 17.029h18.463c-9.405 0-17.029-7.624-17.029-17.029z" fill="#0094fd"/><path d="m322.193 463.722-49.601-82.668c-.719-1.198-2.014-1.931-3.411-1.931h-18.463c1.397 0 2.692.733 3.411 1.931l49.601 82.668c4.839 8.064 15.298 10.679 23.363 5.841.163-.098.309-.211.468-.314-2.123-1.369-3.981-3.216-5.368-5.527z" fill="#0094fd"/><path d="m266.99 264.266h-101.983v-48.679c0-6.227-3.354-11.658-8.342-14.627-4.386 3.141-7.251 8.268-7.251 14.073v66.814c0 7.706 5.038 14.229 11.997 16.475h105.58c9.404 0 17.028-7.624 17.028-17.028-.001-9.404-7.625-17.028-17.029-17.028z" fill="#60b9fe"/><path d="m149.7 281.294v-65.707c0-5.939 3.044-11.162 7.654-14.209-2.69-1.778-5.909-2.82-9.375-2.82-9.405 0-17.029 7.624-17.029 17.029v65.707c0 9.404 7.624 17.028 17.029 17.028h18.75c-9.405.001-17.029-7.623-17.029-17.028z" fill="#1ca8ff"/></g></g><g><path d="m123.198 215.587v2.923c-64.146 17.664-109.865 76.342-109.865 144.089 0 82.381 67.022 149.403 149.403 149.403 48.834 0 94.712-24.268 122.531-64.053l11.779 19.632c6.971 11.619 22.076 15.36 33.651 8.413 11.625-6.976 15.389-22.026 8.414-33.653l-55.72-92.866c-4.407-7.346-12.467-11.909-21.033-11.909h-90.104v-31.743h94.482c13.525 0 24.528-11.003 24.528-24.528 0-4.83-1.409-9.335-3.83-13.136 14.722-6.542 25.02-21.295 25.02-38.417 0-23.173-18.853-42.025-42.024-42.025s-42.024 18.852-42.024 42.025c0 10.285 3.719 19.713 9.876 27.025h-66.028v-41.179c0-8.57-4.421-16.123-11.099-20.51 11.671-5.223 19.827-16.938 19.827-30.53 0-18.437-14.999-33.436-33.436-33.436s-33.437 15-33.437 33.436c0 13.673 8.254 25.449 20.038 30.625-6.595 4.401-10.949 11.908-10.949 20.414zm39.539 281.415c-74.11 0-134.403-60.293-134.403-134.403 0-58.717 39.365-111.283 94.864-128.465v20.098c-37.783 13.795-65.756 46.27-73.604 85.956-.804 4.063 1.839 8.009 5.902 8.813 4.063.805 8.009-1.839 8.813-5.902 6.466-32.697 28.636-59.765 58.89-72.734v91.73c0 13.525 11.003 24.529 24.528 24.529h100.745l7.63 12.717c-15.068 38.185-52.149 63.605-93.365 63.605-50.223 0-92.997-37.52-99.496-87.274-.536-4.108-4.306-7.003-8.408-6.465-4.107.537-7.002 4.301-6.465 8.409 7.472 57.198 56.64 100.331 114.369 100.331 43.629 0 83.232-24.771 102.75-62.963l11.243 18.738c-24.522 39.145-67.797 63.28-113.993 63.28zm2.017-144.436h97.604c3.328 0 6.458 1.772 8.17 4.626l55.72 92.867h.001c2.709 4.517 1.248 10.363-3.269 13.073-4.506 2.704-10.369 1.236-13.072-3.269-11.598-19.331-39.404-65.673-50.76-84.599-1.355-2.259-3.797-3.641-6.432-3.641h-104.99c-5.254 0-9.528-4.274-9.528-9.529v-58.198c2.992 1.264 6.226 1.926 9.528 1.926h9.528v39.243c0 4.143 3.358 7.501 7.5 7.501zm105.677-149.85c14.901 0 27.024 12.124 27.024 27.025s-12.123 27.025-27.024 27.025-27.024-12.124-27.024-27.025 12.123-27.025 27.024-27.025zm-3.694 69.05c5.254 0 9.528 4.274 9.528 9.528s-4.274 9.528-9.528 9.528c-24.781 0-93.19 0-119.011 0-5.254 0-9.528-4.274-9.528-9.528 0-15.949 0-49.842 0-65.707 0-5.254 4.274-9.528 9.528-9.528s9.528 4.274 9.528 9.528v48.679c0 4.142 3.357 7.5 7.5 7.5zm-119.191-125.655c10.165 0 18.436 8.271 18.436 18.436s-8.271 18.436-18.436 18.436c-10.166 0-18.437-8.271-18.437-18.436s8.271-18.436 18.437-18.436z"/><path d="m482.276 45.974c9.039 0 16.393-7.354 16.393-16.392v-13.19c-.001-9.038-7.354-16.392-16.393-16.392h-63.571c-4.143 0-7.5 3.358-7.5 7.5s3.357 7.5 7.5 7.5h63.571c.768 0 1.393.625 1.393 1.392v13.189c0 .768-.625 1.392-1.393 1.392h-162.144c-.768 0-1.393-.625-1.393-1.392v-13.189c0-.768.625-1.392 1.393-1.392h63.572c4.143 0 7.5-3.358 7.5-7.5s-3.357-7.5-7.5-7.5h-63.572c-9.039 0-16.393 7.354-16.393 16.392v13.189c0 9.039 7.354 16.392 16.393 16.392h.062l1.148 22.211h-.002c-4.143 0-7.5 3.358-7.5 7.5s3.357 7.5 7.5 7.5h.777l1.11 21.476c-3.94.225-7.068 3.482-7.068 7.478 0 4.142 3.357 7.5 7.5 7.5h.342l1.109 21.458c-4.098.051-7.405 3.385-7.405 7.495 0 4.142 3.357 7.5 7.5 7.5h.68l.178 3.45c.207 4.005 3.52 7.113 7.484 7.113.13 0 .262-.003.393-.01 4.137-.214 7.317-3.741 7.104-7.877l-.138-2.676h17.889l.055 3.192c.07 4.098 3.414 7.371 7.496 7.371.044 0 .088 0 .132-.001 4.142-.071 7.441-3.487 7.37-7.628l-.051-2.934h19.908v3.063c0 4.142 3.357 7.5 7.5 7.5s7.5-3.358 7.5-7.5v-3.063h19.907l-.051 2.934c-.071 4.141 3.229 7.557 7.37 7.628.044 0 .088.001.132.001 4.081 0 7.426-3.273 7.496-7.371l.055-3.192h17.889l-.138 2.676c-.214 4.137 2.967 7.664 7.104 7.877.132.006.263.01.393.01 3.965 0 7.277-3.108 7.484-7.113l.178-3.45h.68c4.143 0 7.5-3.358 7.5-7.5 0-4.11-3.307-7.444-7.405-7.495l1.109-21.458h.342c4.143 0 7.5-3.358 7.5-7.5 0-3.996-3.128-7.253-7.068-7.478l1.11-21.476h.777c4.143 0 7.5-3.358 7.5-7.5s-3.357-7.5-7.5-7.5h-.002l1.148-22.211h.061zm-88.571 37.211v21.454h-20.794l-.37-21.454zm-21.422-15-.383-22.211h21.804v22.211zm36.422 15h21.163l-.37 21.454h-20.793zm0-15v-22.211h21.803l-.382 22.211zm-73.49-22.211h21.683l.383 22.211h-20.917zm22.324 37.211.37 21.454h-19.662l-1.109-21.454zm-17.409 57.907-1.109-21.454h19.145l.369 21.454zm33.408 0-.369-21.454h20.536v21.454zm35.167 0v-21.454h20.535l-.369 21.454zm53.573 0h-18.406l.369-21.454h19.145zm1.884-36.453h-19.662l.37-21.454h20.401zm1.883-36.454h-20.917l.383-22.211h21.683z"/></g></g></svg>