<svg id="Capa_1" enable-background="new 0 0 512.002 512.002" height="512" viewBox="0 0 512.002 512.002" width="512" xmlns="http://www.w3.org/2000/svg"><g><g><path d="m456.295 166.139h-79.271c-5.153 2.128-8.783 7.198-8.783 13.119v99.782c0 5.922 3.63 10.992 8.783 13.119h79.27c7.707 0 13.955-6.248 13.955-13.955v-98.111c.001-7.706-6.247-13.954-13.954-13.954z" fill="#dbedff"/><path d="m368.479 278.205v-98.111c0-7.707 6.248-13.955 13.955-13.955h-24.25c-7.707 0-13.955 6.248-13.955 13.955v98.111c0 7.707 6.248 13.955 13.955 13.955h24.25c-7.707-.001-13.955-6.248-13.955-13.955z" fill="#b5dcff"/><path d="m430.71 207.584h-23.747c-4.394 2.322-6.28 8.22-3.068 12.776l17.012 24.133 16.676-23.656c3.927-5.57-.057-13.253-6.873-13.253z" fill="#ff76aa"/><path d="m404.563 220.838c-3.927-5.571.057-13.254 6.873-13.254h-27.667c-6.815 0-10.8 7.683-6.873 13.254l23.47 33.294c3.35 4.752 10.396 4.752 13.746 0l6.96-9.874z" fill="#ff5595"/><g><path d="m288.352 398.592h-2.529c-14.851 41.822-54.812 71.854-101.663 71.854-59.466 0-107.846-48.38-107.846-107.846 0-48.315 31.936-89.312 75.807-102.989l1.314-3.554v-30.25l-.333-.371v3.669c-53.529 20.71-91.594 72.729-91.594 133.479 0 72.694 54.506 132.883 124.792 141.882 51.446-.766 96.346-29.031 120.607-70.734v-4.092z" fill="#dbedff"/><g><path d="m62.581 362.599c0-60.259 37.758-111.858 90.854-132.401v-4.392l-1.314-1.463c-62.866 14.564-109.863 71.024-109.863 138.256 0 78.246 63.658 141.903 141.903 141.903 3.419 0 6.808-.128 10.167-.367-73.522-5.226-131.747-66.706-131.747-141.536z" fill="#b5dcff"/></g><circle cx="168.97" cy="164.547" fill="#60b9fe" r="25.936"/><path d="m168.971 164.547c0-9.598 5.218-17.973 12.968-22.458-3.816-2.208-8.242-3.479-12.968-3.479-14.324 0-25.936 11.612-25.936 25.936s11.612 25.936 25.936 25.936c4.726 0 9.152-1.27 12.968-3.478-7.751-4.484-12.968-12.858-12.968-22.457z" fill="#1ca8ff"/><path d="m276.748 379.123 58.188 88.684 13.796 1.442c7.685-4.96 10.114-15.147 5.373-23.049l-55.72-92.866c-3.077-5.129-8.62-8.267-14.601-8.267h-97.605v-46.743l-4.118-3.891h-12.285v67.178c0 8.707 6.242 15.946 14.492 17.513h87.622 4.858z" fill="#1ca8ff"/><path d="m170.585 362.094v-67.663h-5.212l-11.625-13.137h-1.626v80.8c0 9.405 7.624 17.029 17.029 17.029h18.463c-9.405 0-17.029-7.624-17.029-17.029z" fill="#0094fd"/><path d="m343.364 463.722-49.601-82.668c-.719-1.198-2.014-1.931-3.411-1.931h-18.462c1.397 0 2.692.733 3.411 1.931l49.601 82.668c4.839 8.064 15.298 10.679 23.363 5.841.163-.098.309-.211.468-.314-2.123-1.369-3.982-3.216-5.369-5.527z" fill="#0094fd"/><path d="m288.161 264.266h-101.982v-48.679c0-6.227-3.354-11.658-8.342-14.627-4.386 3.141-7.251 8.268-7.251 14.073v66.814c0 7.706 5.038 14.229 11.997 16.475h105.58c9.404 0 17.028-7.624 17.028-17.028-.001-9.404-7.625-17.028-17.03-17.028z" fill="#60b9fe"/><path d="m170.872 281.294v-65.707c0-5.939 3.044-11.162 7.654-14.209-2.69-1.778-5.909-2.82-9.375-2.82-9.405 0-17.029 7.624-17.029 17.029v65.707c0 9.404 7.624 17.028 17.029 17.028h18.75c-9.405.001-17.029-7.623-17.029-17.028z" fill="#1ca8ff"/></g><path d="m456.295 133.52h-79.271c-5.153-2.128-8.783-7.198-8.783-13.119v-99.782c0-5.922 3.63-10.992 8.783-13.119h79.27c7.707 0 13.955 6.248 13.955 13.955v98.111c.001 7.706-6.247 13.954-13.954 13.954z" fill="#dbedff"/><path d="m368.479 21.455v98.111c0 7.707 6.248 13.955 13.955 13.955h-24.25c-7.707 0-13.955-6.248-13.955-13.955v-98.111c0-7.707 6.248-13.955 13.955-13.955h24.25c-7.707 0-13.955 6.248-13.955 13.955z" fill="#b5dcff"/><path d="m430.71 92.075h-23.747c-4.394-2.322-6.28-8.22-3.068-12.776l17.012-24.133 16.676 23.656c3.927 5.57-.057 13.253-6.873 13.253z" fill="#ff76aa"/><path d="m404.563 78.822c-3.927 5.571.057 13.254 6.873 13.254h-27.667c-6.815 0-10.8-7.683-6.873-13.254l23.47-33.294c3.35-4.752 10.396-4.752 13.746 0l6.96 9.874z" fill="#ff5595"/></g><g><path d="m144.369 215.587v2.923c-64.145 17.664-109.864 76.342-109.864 144.089 0 82.381 67.022 149.403 149.403 149.403 48.833 0 94.712-24.268 122.531-64.052l11.779 19.631c6.957 11.596 22.054 15.372 33.652 8.413 11.597-6.958 15.371-22.055 8.414-33.652l-55.721-92.866c-4.407-7.346-12.466-11.909-21.032-11.909h-90.105v-31.743h94.483c13.525 0 24.528-11.003 24.528-24.528s-11.003-24.528-24.528-24.528h-94.483v-41.179c0-8.57-4.421-16.123-11.099-20.51 11.671-5.223 19.827-16.938 19.827-30.53 0-18.437-14.999-33.436-33.436-33.436s-33.436 15-33.436 33.436c0 13.673 8.254 25.449 20.038 30.625-6.596 4.399-10.951 11.907-10.951 20.413zm0 146.507c0 13.525 11.003 24.529 24.528 24.529h100.746l7.63 12.716c-15.068 38.186-52.149 63.606-93.365 63.606-55.331 0-100.347-45.015-100.347-100.347 0-40.671 24.052-76.531 60.808-92.224zm39.539 134.908c-74.11 0-134.403-60.293-134.403-134.403 0-58.716 39.365-111.283 94.864-128.465v20.104c-43.93 16.129-75.808 58.3-75.808 108.361 0 63.603 51.744 115.347 115.347 115.347 43.629 0 83.233-24.771 102.75-62.963 1.154 1.923-4.165-6.941 11.244 18.739-24.523 39.145-67.798 63.28-113.994 63.28zm2.018-144.436h97.605c3.327 0 6.457 1.772 8.169 4.626l55.721 92.866c2.703 4.505 1.237 10.37-3.268 13.073-4.503 2.704-10.369 1.237-13.073-3.269-6.039-10.065-44.721-74.535-50.759-84.599-1.355-2.259-3.797-3.641-6.432-3.641h-104.992c-5.254 0-9.528-4.274-9.528-9.529v-58.198c2.96 1.251 6.191 1.926 9.528 1.926h9.528v39.243c.001 4.144 3.358 7.502 7.501 7.502zm101.983-80.8c5.254 0 9.528 4.274 9.528 9.528s-4.274 9.528-9.528 9.528c-24.781 0-93.187 0-119.012 0-5.254 0-9.528-4.274-9.528-9.528 0-6.455 0-57.651 0-65.707 0-5.254 4.274-9.528 9.528-9.528s9.528 4.274 9.528 9.528v48.679c0 4.142 3.357 7.5 7.5 7.5zm-119.191-125.655c10.165 0 18.436 8.271 18.436 18.436s-8.271 18.436-18.436 18.436-18.436-8.271-18.436-18.436 8.271-18.436 18.436-18.436z"/><path d="m393.984 41.206-23.47 33.294c-7.422 10.529.118 25.075 13.003 25.075h46.941c12.879 0 20.427-14.543 13.002-25.075l-23.471-33.294c-6.329-8.98-19.675-8.981-26.005 0zm37.28 42.879c-.254.49-.641.49-.806.49h-46.941c-.165 0-.553 0-.807-.491-.255-.49-.031-.807.063-.941l23.471-33.294c.067-.095.271-.385.742-.385.472 0 .676.29.743.385l23.471 33.294c.095.135.319.452.064.942z"/><path d="m443.46 225.159c7.422-10.527-.116-25.075-13.002-25.075h-46.941c-12.88 0-20.428 14.543-13.003 25.075l23.471 33.294c6.329 8.98 19.676 8.981 26.005 0zm-35.731 24.652c-.067.095-.271.385-.743.385-.471 0-.675-.29-.742-.385l-23.471-33.293c-.095-.135-.318-.452-.063-.942.254-.491.642-.491.807-.491h46.941c.165 0 .552 0 .806.49.255.49.032.807-.063.942z"/><path d="m336.477 278.205c0 11.83 9.625 21.455 21.455 21.455h31.556c4.143 0 7.5-3.358 7.5-7.5s-3.357-7.5-7.5-7.5h-31.556c-3.56 0-6.455-2.896-6.455-6.455v-98.111c0-3.559 2.896-6.455 6.455-6.455h98.11c3.56 0 6.455 2.896 6.455 6.455v98.111c0 3.559-2.896 6.455-6.455 6.455h-31.555c-4.143 0-7.5 3.358-7.5 7.5s3.357 7.5 7.5 7.5h31.555c11.83 0 21.455-9.625 21.455-21.455v-98.111c0-11.83-9.625-21.455-21.455-21.455h-98.11c-11.83 0-21.455 9.625-21.455 21.455z"/><path d="m469.997 60.51c4.143 0 7.5-3.358 7.5-7.5v-31.555c0-11.83-9.625-21.455-21.455-21.455h-98.11c-11.83 0-21.455 9.625-21.455 21.455v98.111c0 11.83 9.625 21.455 21.455 21.455h98.11c11.83 0 21.455-9.625 21.455-21.455v-31.556c0-4.142-3.357-7.5-7.5-7.5s-7.5 3.358-7.5 7.5v31.555c0 3.559-2.896 6.455-6.455 6.455h-98.11c-3.56 0-6.455-2.896-6.455-6.455v-98.11c0-3.559 2.896-6.455 6.455-6.455h98.11c3.56 0 6.455 2.896 6.455 6.455v31.555c0 4.142 3.357 7.5 7.5 7.5z"/></g></g></svg>