<svg id="Capa_1" enable-background="new 0 0 512.014 512.014" height="512" viewBox="0 0 512.014 512.014" width="512" xmlns="http://www.w3.org/2000/svg"><g><g><path d="m378.765 474.449c-5.592-6.956-14.451-10.499-23.274-9.159-11.742 1.783-27.677 1.982-39.435-6.335-20.987-14.845-67.569-26.618-60.403-76.271 4.969-34.428 17.813-141.454 25.223-203.852 2.934-24.706 10.983-48.456 23.558-69.775l-7.551-7.626-64-67.25h-23.396l-10.14 10.786c-4.698 4.998-7.321 11.604-7.321 18.476v32.623c0 51.344 7.137 102.507 22.07 151.632 5.675 18.669 10.215 40.799 10.215 63.822 0 46.356-4.828 96.333-17.445 138.084-5.2 17.207 1.125 34.149 13.243 44.405 25.128-4.58 50.85.804 66.403 5.403 11.298 3.341 23.005 5.102 34.787 5.102h43.183c.11 0 .22-.001.33-.002 15.308-.179 23.546-18.131 13.953-30.063z" fill="#ffc365"/><g><path d="m208.628 443.546c12.203-40.38 16.872-88.716 16.872-133.55 0-22.267-4.391-43.671-9.88-61.727-14.443-47.512-21.345-96.995-21.345-146.653v-31.552c0-6.647 2.537-13.036 7.081-17.869l16.935-18.014h-30.659l-30.554 32.5-3.804 9.207v25.729c0 49.658 6.902 99.141 21.345 146.653 5.489 18.056 9.88 39.459 9.88 61.727 0 44.886-4.68 93.283-16.915 133.691-8.831 29.166 16.782 57.559 46.653 51.528.661-.133 1.328-.276 1.999-.427 4.943-1.112 9.931-1.814 14.881-2.189-17.682-7.89-28.768-28.277-22.489-49.054z" fill="#ffa90f"/></g><g><path d="m314.025 79.853c-15.063 0-23.931-11.159-37.154-29.365-9.298-12.802-19.49-26.833-34.373-35.188-7.306 1.572-18.811 6.632-28.146 22.42 1.293.117 2.604.268 3.942.471 14.131 2.14 23.48 15.015 34.307 29.921 13.504 18.594 30.31 41.735 61.423 41.735 8.283 0 14.997-6.715 14.997-14.997s-6.713-14.997-14.996-14.997z" fill="#ffdda8"/></g><path d="m243.441 15.849c-6.023-3.525-12.816-6.128-20.653-7.315-31.22-4.72-58.096 7.045-73.73 32.303-2.457 3.969-5.926 6.935-10.034 8.579-.021.008-.079.031-.099.04-7.665 3.105-11.351 11.82-8.263 19.493 3.088 7.671 11.822 11.388 19.501 8.316 10.105-4.041 18.542-11.18 24.399-20.641 8.86-14.315 22.427-20.642 40.354-18.852.001-.002.002-.003.003-.005 9.474-16.047 21.436-20.648 28.522-21.918z" fill="#ffd086"/></g><path d="m215.46 502.568c20.005-4.006 40.523-4.286 68.672 4.036 12.141 3.59 24.561 5.41 36.913 5.41 4.997 0-17.049.001 43.602-.003 9.903-.115 18.695-5.78 22.945-14.783 10.095-21.388-10.962-42.759-33.479-39.353-10.084 1.529-24.163 1.899-33.978-5.042-4.601-3.254-10.112-6.252-15.948-9.425-21.719-11.811-46.336-25.197-41.363-59.652 2.014-13.952 5.508-41.122 10.387-80.758.507-4.11-2.416-7.854-6.527-8.359-4.097-.517-7.854 2.415-8.359 6.527-4.867 39.532-8.348 66.599-10.346 80.447-2.836 19.65 1.831 36.473 13.872 50.001 10.083 11.329 23.412 18.577 35.171 24.972 5.438 2.956 10.572 5.749 14.452 8.493 13.896 9.828 32.084 9.57 44.892 7.626 10.839-1.649 22.44 7.995 17.662 18.12-1.806 3.825-5.378 6.139-9.537 6.187l-43.444.002c-10.912 0-21.9-1.613-32.66-4.795-31.039-9.178-53.598-8.835-75.884-4.356-24.273 4.906-45.19-18.227-37.989-42.002 14.246-47.054 17.236-99.855 17.236-135.864 0-20.13-3.434-41.632-10.204-63.909-13.949-45.885-21.021-94.492-21.021-144.471v-21.233c8.388-4.927 15.239-11.854 20.165-19.814 7.789-12.582 19.635-17.478 36.232-14.965 23.927 3.626 35.717 54.523 75.983 68.318-10.425 19.999-17.053 41.492-19.728 64.023-3.854 32.443-7.413 62.129-10.58 88.231-.499 4.112 2.43 7.85 6.542 8.349 4.111.499 7.85-2.43 8.349-6.542 3.169-26.115 6.729-55.813 10.584-88.269 2.628-22.131 9.406-43.167 20.154-62.608 1.806.148 3.649.238 5.549.238 12.405 0 22.497-10.092 22.497-22.497s-10.092-22.497-22.497-22.497c-7.471 0-13.275-3.669-21.419-13.536-2.636-3.196-7.363-3.647-10.558-1.011s-3.647 7.363-1.011 10.558c8.139 9.862 17.768 18.989 32.987 18.989 4.134 0 7.497 3.363 7.497 7.497s-3.363 7.497-7.497 7.497c-49.267 0-56.915-65.861-94.607-71.571-22.54-3.419-40.251 4.16-51.232 21.9-7.469 12.066-18.266 16.525-18.166 16.456-.866.416-1.744.81-2.641 1.169-3.839 1.533-8.219-.326-9.758-4.152-1.445-3.592.013-8.018 4.211-9.778 5.598-2.244 10.302-6.25 13.604-11.586 13.974-22.576 38.121-33.087 66.229-28.835 18.148 2.75 29.938 14.544 38.183 24.512 2.641 3.191 7.369 3.64 10.56.999 3.191-2.64 3.639-7.367.999-10.56-9.943-12.021-24.328-26.271-47.496-29.782-34.331-5.19-63.943 7.847-81.229 35.772-1.605 2.595-3.833 4.518-6.44 5.561l.001.001c-.04.016-.084.034-.131.054v-.001c-11.461 4.642-17.026 17.761-12.405 29.244 3.677 9.135 12.731 14.539 22.07 14.053v15.814c0 51.458 7.291 101.533 21.67 148.833 6.341 20.861 9.556 40.896 9.556 59.547 0 34.996-2.879 86.221-16.593 131.517-10.499 34.654 19.933 68.199 55.301 61.056z"/></g></svg>