<svg id="Capa_1" enable-background="new 0 0 512.002 512.002" height="512" viewBox="0 0 512.002 512.002" width="512" xmlns="http://www.w3.org/2000/svg"><g><g><path d="m268.663 251.715h-11.409v41.5h14.409l2.09-2.205v-35.009z" fill="#dbedff"/><path d="m258.254 251.715h-15.341l-4.16 4.286v35.009l2.285 2.205h17.216z" fill="#b5dcff"/><path d="m270.413 465.882h-13.159v38.62h13.391c1.717 0 3.109-1.392 3.109-3.109v-33.183z" fill="#dbedff"/><path d="m258.254 465.882h-17.341l-2.159 2.328v33.183c0 1.717 1.392 3.109 3.109 3.109h16.391z" fill="#b5dcff"/><path d="m347.983 7.5h-158.624c-11.575 5.213-19.638 16.84-19.638 30.359v187.783c0 13.519 8.063 25.146 19.638 30.359h158.624c17.961 0 32.521-14.561 32.521-32.522v-183.458c0-17.961-14.56-32.521-32.521-32.521z" fill="#60b9fe"/><path d="m170.487 223.479v-183.458c0-17.961 14.561-32.521 32.521-32.521h-38.484c-17.961 0-32.521 14.56-32.521 32.521v183.458c0 17.961 14.561 32.522 32.521 32.522h38.484c-17.96 0-32.521-14.561-32.521-32.522z" fill="#1ca8ff"/><path d="m269.491 290.277c-40.471 9.577-70.587 45.934-70.587 89.332 0 43.399 30.116 79.755 70.587 89.332 43.596-6.405 77.063-43.958 77.063-89.332s-33.467-82.927-77.063-89.332z" fill="#ffc365"/><path d="m200.125 379.61c0-44.03 31.514-80.692 73.215-88.679-5.533-1.06-11.243-1.621-17.086-1.621-49.872 0-90.301 40.429-90.301 90.301s40.429 90.301 90.301 90.301c5.842 0 11.552-.562 17.086-1.621-41.702-7.989-73.215-44.652-73.215-88.681z" fill="#ffa90f"/><circle cx="252.254" cy="335.223" fill="#dbedff" r="14.441"/><path d="m265.261 49.13h-20.432l-11.333 12.918v17.457h5.257c.358-.236.785-.375 1.246-.375h25.262c13.627 0 24.74 10.971 24.969 24.544.236 13.968-11.566 25.4-25.536 25.4h-24.695c-.461 0-.888-.139-1.246-.375l-5.257-.187v27.535l5.257 3.401c.358-.236.785-.375 1.246-.375h24.428c30.167 0 55.339-23.955 55.8-54.118.469-30.699-24.369-55.825-54.966-55.825z" fill="#dbedff"/><g><path d="m238.753 128.7c-.617-.406-1.026-1.103-1.026-1.897v-45.401c0-.794.409-1.491 1.026-1.897v-15.375c0-8.284 6.716-15 15-15h-31.026c-8.284 0-15 6.716-15 15v132.817c0 8.077 6.207 15.027 14.275 15.406 8.614.406 15.725-6.458 15.725-14.983v-36.024c0-.794.409-1.491 1.026-1.897z" fill="#b5dcff"/></g></g><g><path d="m252 357.164c12.099 0 21.941-9.843 21.941-21.941s-9.843-21.941-21.941-21.941-21.94 9.843-21.94 21.941 9.843 21.941 21.94 21.941zm0-28.882c3.827 0 6.941 3.114 6.941 6.941 0 3.828-3.114 6.941-6.941 6.941s-6.94-3.114-6.94-6.941 3.113-6.941 6.94-6.941z"/><path d="m297.767 426.996c3.4-2.365 4.24-7.039 1.875-10.439l-11.078-15.931c-2.037-3.115-5.454-4.967-9.189-4.967h-19.431v-10.302h22.729c4.143 0 7.5-3.358 7.5-7.5s-3.357-7.5-7.5-7.5h-22.805c-.496-3.661-3.626-6.485-7.423-6.485-4.143 0-7.5 3.358-7.5 7.5v28.302c0 6.057 4.928 10.985 10.985 10.985h21.342l10.057 14.461c2.356 3.391 7.026 4.247 10.438 1.876z"/><path d="m225.289 378.238c-5.527 7.019-8.448 15.46-8.448 24.41 0 30.11 32.499 49.061 58.644 34.526 3.62-2.013 4.923-6.58 2.91-10.2-2.013-3.621-6.579-4.923-10.199-2.911-16.05 8.925-36.354-2.607-36.354-21.416 0-5.55 1.81-10.782 5.233-15.13 2.563-3.254 2.002-7.97-1.253-10.532-3.256-2.562-7.972-2.001-10.533 1.253z"/><path d="m199.975 64.13v132.817c0 12.274 9.409 22.332 21.422 22.898 13.178.613 23.578-9.954 23.578-22.475v-30.796h19.2c34.385 0 62.78-27.59 63.299-61.503.533-34.856-27.59-63.441-62.465-63.441h-42.534c-12.406 0-22.5 10.094-22.5 22.5zm112.501 40.712c-.394 25.769-22.062 46.732-48.301 46.732h-24.429c-5.388 0-9.771 4.384-9.771 9.772v36.024c0 4.292-3.582 7.698-7.872 7.491-3.931-.185-7.128-3.736-7.128-7.915v-132.816c0-4.136 3.364-7.5 7.5-7.5h42.534c26.479 0 47.871 21.72 47.467 48.212z"/><path d="m239.747 136.575h24.695c17.967 0 33.343-14.674 33.035-33.027-.298-17.599-14.862-31.917-32.468-31.917h-25.263c-5.388 0-9.771 4.384-9.771 9.772v45.4c0 5.388 4.384 9.772 9.772 9.772zm5.228-49.945h20.034c9.473 0 17.31 7.703 17.47 17.17.168 9.889-8.385 17.774-18.037 17.774h-19.467z"/><path d="m347.73 263.501c22.068 0 40.021-17.954 40.021-40.021v-183.459c0-22.067-17.953-40.021-40.021-40.021h-74.229c-4.143 0-7.5 3.358-7.5 7.5s3.357 7.5 7.5 7.5h74.229c13.797 0 25.021 11.225 25.021 25.021v183.458c0 13.797-11.225 25.021-25.021 25.021-25.76 0-157.91 0-183.458 0-13.797 0-25.021-11.225-25.021-25.021v-183.458c-.001-13.796 11.224-25.021 25.021-25.021h74.229c4.143 0 7.5-3.358 7.5-7.5s-3.357-7.5-7.5-7.5h-74.229c-22.068 0-40.021 17.954-40.021 40.021v183.458c0 22.068 17.953 40.021 40.021 40.021h66.728v21.551c-41.855 11.076-72.801 49.268-72.801 94.557s30.946 83.482 72.801 94.557v27.226c0 5.85 4.76 10.609 10.609 10.609h28.782c5.85 0 10.608-4.759 10.608-10.609v-27.211c36.188-9.506 64.577-39.205 71.317-77.523.718-4.08-2.008-7.968-6.088-8.686-4.076-.72-7.968 2.007-8.686 6.087-6.036 34.322-32.6 60.473-65.795 66.845-1.039.2-2.083.375-3.13.535-.251.038-.5.082-.751.118-1.145.164-2.294.301-3.446.417-.145.015-.288.035-.433.048-5.023.48-10.097.49-15.125.062-.339-.029-.683-.045-1.021-.078-.793-.077-1.581-.187-2.37-.287-.594-.076-1.191-.139-1.781-.227-.603-.09-1.201-.205-1.801-.308-38.956-6.72-68.691-40.729-68.691-81.574 0-46.109 38.488-84.973 86.765-82.698 37.4 1.822 69.101 28.922 76.944 65.038.879 4.047 4.866 6.616 8.921 5.737 4.048-.879 6.616-4.873 5.737-8.921-4.665-21.482-16.666-41.006-33.791-54.977-10.814-8.823-23.398-15.175-36.775-18.716v-21.572h66.731zm-81.73 213.399v20.102h-20v-20.099c3.289.335 6.625.508 10.001.508.043 0 .086-.003.129-.003 1.269-.002 2.537-.034 3.805-.085.261-.01.523-.018.784-.03 1.175-.056 2.349-.137 3.521-.236.395-.033.789-.068 1.183-.106.193-.018.385-.031.577-.051zm0-194.581c-6.56-.669-13.288-.688-20-.003v-18.815h20z"/></g></g></svg>