<svg id="Capa_1" enable-background="new 0 0 512.003 512.003" height="512" viewBox="0 0 512.003 512.003" width="512" xmlns="http://www.w3.org/2000/svg"><g><g><path d="m454.318 7.5h-372.336c-15.582 8.938-26.086 25.724-26.086 44.976v407.051c0 19.251 10.504 36.038 26.086 44.976h372.336c27.855 0 50.437-22.582 50.437-50.437v-396.128c0-27.856-22.581-50.438-50.437-50.438z" fill="#ffc365"/><path d="m57.287 454.065v-396.128c0-27.855 22.582-50.437 50.437-50.437h-49.534c-27.855 0-50.437 22.582-50.437 50.437v396.128c0 27.856 22.582 50.437 50.438 50.437h49.534c-27.856 0-50.438-22.581-50.438-50.437z" fill="#ffa90f"/><path d="m297.905 55.722h-136.303c-12.797 5.523-21.815 18.28-21.815 33.043v339.648l2.72 2.41h185.906l4.906-5.25v-334.437c0-19.478-15.936-35.414-35.414-35.414z" fill="#60b9fe"/><path d="m140.338 91.136c0-19.477 15.936-35.413 35.413-35.413h-38.851c-19.477 0-35.413 15.936-35.413 35.413v334.437l5.926 5.25h38.852l-5.926-5.25v-334.437z" fill="#1ca8ff"/><path d="m294.569 86.43h-128.616v77.393h133.21l3.448-3.698v-65.653c0-4.441-3.601-8.042-8.042-8.042z" fill="#dbedff"/><path d="m167.194 160.125v-65.653c0-4.441 3.6-8.042 8.042-8.042h-35c-4.441 0-8.042 3.6-8.042 8.042v65.653l4.719 3.698h35z" fill="#b5dcff"/><path d="m221.156 224.65c-5.017 3.012-8.386 8.487-8.386 14.765s3.369 11.752 8.386 14.765c5.177-2.89 8.682-8.415 8.682-14.765s-3.505-11.875-8.682-14.765z" fill="#dbedff"/><path d="m212.933 239.415c0-6.254 3.405-11.701 8.453-14.625-2.489-1.442-5.37-2.28-8.453-2.28-9.336 0-16.905 7.569-16.905 16.905s7.569 16.905 16.905 16.905c3.083 0 5.964-.839 8.453-2.28-5.048-2.925-8.453-8.372-8.453-14.625z" fill="#b5dcff"/><path d="m262.53 160.125h-96.577v30.021h96.577l1.967-2.99v-25z" fill="#6e60b8"/><path d="m167.195 182.105v-21.98h-35v21.98c0 4.441 3.6 8.042 8.041 8.042h35c-4.441-.001-8.041-3.601-8.041-8.042z" fill="#6353b2"/><path d="m262.53 190.146h32.039c4.441 0 8.042-3.6 8.042-8.042v-21.98h-40.081z" fill="#ff76aa"/><path d="m424.85 124.47h-6.705c-3.637 1.802-6.144 5.541-6.144 9.875v30.405c0 4.334 2.507 8.073 6.144 9.875h6.705c3.999 0 7.24-3.241 7.24-7.24v-35.675c0-3.999-3.242-7.24-7.24-7.24z" fill="#60b9fe"/><path d="m412.485 164.083v-29.071c0-5.822 4.72-10.542 10.542-10.542h-19.605c-5.823 0-10.542 4.72-10.542 10.542v29.071c0 5.823 4.72 10.543 10.542 10.543h19.605c-5.822 0-10.542-4.72-10.542-10.543z" fill="#1ca8ff"/><path d="m340.151 425.573h-206.124c-2.687.947-4.616 3.501-4.616 6.513v17.682c0 3.011 1.929 5.566 4.617 6.513h206.124c3.72 0 6.736-3.016 6.736-6.736v-17.236c-.001-3.72-3.017-6.736-6.737-6.736z" fill="#dbedff"/><path d="m129.585 449.544v-17.236c0-3.72 3.016-6.736 6.736-6.736h-41.667c-3.72 0-6.736 3.016-6.736 6.736v17.236c0 3.72 3.016 6.736 6.736 6.736h41.667c-3.72.001-6.736-3.015-6.736-6.736z" fill="#b5dcff"/></g><g><path d="m309.858 182.105c0-7.935 0-75.808 0-87.633 0-8.57-6.972-15.542-15.542-15.542h-154.333c-8.57 0-15.542 6.972-15.542 15.542v87.633c0 8.57 6.972 15.542 15.542 15.542h154.333c8.571-.001 15.542-6.972 15.542-15.542zm-169.875-88.175h154.333c.299 0 .542.243.542.542v58.153c-15.807 0-139.027 0-155.417 0v-58.153c0-.299.244-.542.542-.542zm-.541 88.175v-14.48h115.335v15.021h-114.794c-.297 0-.541-.242-.541-.541zm130.335-14.48h25.081v14.48c0 .299-.243.542-.542.542h-24.539z"/><path d="m212.681 263.82c13.457 0 24.405-10.948 24.405-24.405s-10.948-24.405-24.405-24.405-24.405 10.948-24.405 24.405 10.948 24.405 24.405 24.405zm0-33.81c5.187 0 9.405 4.219 9.405 9.405s-4.219 9.405-9.405 9.405-9.405-4.219-9.405-9.405 4.218-9.405 9.405-9.405z"/><path d="m288.325 384.503c3.513-2.196 4.58-6.823 2.384-10.335l-22.663-36.249c-2.484-3.973-6.765-6.345-11.45-6.345h-38.893v-21.696h44.574c4.143 0 7.5-3.358 7.5-7.5s-3.357-7.5-7.5-7.5h-44.574v-13.748c0-4.142-3.357-7.5-7.5-7.5s-7.5 3.358-7.5 7.5v51.94c0 7.446 6.058 13.504 13.504 13.504h39.56l22.224 35.546c2.199 3.518 6.828 4.575 10.334 2.383z"/><path d="m154.288 338.193c0 34.515 28.08 62.595 62.595 62.595 18.464 0 35.896-8.095 47.825-22.209 2.674-3.164 2.276-7.896-.887-10.569-3.166-2.675-7.897-2.277-10.57.887-9.073 10.735-22.329 16.892-36.368 16.892-26.244 0-47.595-21.351-47.595-47.595 0-16.966 9.143-32.778 23.859-41.264 3.589-2.069 4.82-6.655 2.751-10.244s-6.655-4.82-10.243-2.75c-19.347 11.155-31.367 31.946-31.367 54.257z"/><path d="m454.065 0h-180.563c-4.143 0-7.5 3.358-7.5 7.5s3.357 7.5 7.5 7.5h180.563c23.676 0 42.938 19.262 42.938 42.937v396.127c0 23.676-19.262 42.938-42.938 42.938h-396.127c-23.676 0-42.938-19.261-42.938-42.937v-396.128c0-23.675 19.262-42.937 42.938-42.937h180.564c4.143 0 7.5-3.358 7.5-7.5s-3.357-7.5-7.5-7.5h-180.564c-31.948 0-57.938 25.991-57.938 57.937v396.128c0 31.947 25.99 57.937 57.938 57.937h396.128c31.947 0 57.938-25.991 57.938-57.938v-396.126c-.001-31.947-25.991-57.938-57.939-57.938z"/><path d="m297.652 48.222h-161.005c-23.662 0-42.913 19.251-42.913 42.914v326.971c-7.539.352-13.569 6.578-13.569 14.203v17.235c0 7.85 6.387 14.236 14.236 14.236h245.497c7.85 0 14.236-6.386 14.236-14.236v-17.235c0-7.625-6.03-13.85-13.568-14.203v-76.247c0-4.142-3.357-7.5-7.5-7.5s-7.5 3.358-7.5 7.5v76.213h-216.832v-326.937c0-15.392 12.521-27.914 27.913-27.914h161.005c15.392 0 27.914 12.522 27.914 27.914v215.724c0 4.142 3.357 7.5 7.5 7.5s7.5-3.358 7.5-7.5v-62.173h14.038c8.115 0 14.717 6.602 14.717 14.717v98.396c0 17.236 14.022 31.258 31.258 31.258s31.258-14.022 31.258-31.258c0-31.773 0-235.579 0-257.914 0-6.997-3.17-13.468-8.698-17.755l-22.15-17.183c-3.273-2.54-7.985-1.944-10.522 1.329-2.539 3.273-1.944 7.984 1.329 10.523l22.15 17.184c1.838 1.425 2.892 3.577 2.892 5.903v17.083h-13.668c-9.949 0-18.043 8.094-18.043 18.042v29.071c0 9.949 8.094 18.042 18.043 18.042h13.667v175.675c0 8.964-7.293 16.258-16.258 16.258s-16.258-7.293-16.258-16.258v-98.396c0-16.386-13.331-29.717-29.717-29.717h-14.038v-138.551c0-23.663-19.251-42.914-42.914-42.914zm41.483 384.851v15.708h-243.97v-15.708zm64.035-265.947c-1.678 0-3.043-1.365-3.043-3.042v-29.071c0-1.678 1.365-3.042 3.043-3.042h13.667v32.247 2.91h-13.667z"/></g></g></svg>