<svg id="Capa_1" enable-background="new 0 0 512.002 512.002" height="512" viewBox="0 0 512.002 512.002" width="512" xmlns="http://www.w3.org/2000/svg"><g><g><path d="m165.662 197.921v-26.884l-2.641-1.98h-26.06c-9.625 0-17.501 7.875-17.501 17.501v9.375l2.201 1.988z" fill="#60b9fe"/><path d="m119.461 195.933v25.617l2.201 3.612h44v-29.229z" fill="#1ca8ff"/><path d="m465.221 241.029v-2.818c0-9.202-7.459-16.661-16.661-16.661h-367.514l-3.884 3.612v72.458l3.884 3.5h386.491v-58.083z" fill="#dbedff"/><path d="m81.046 221.55h-32.592l-4.625 5.237v74.333h37.217z" fill="#b5dcff"/><path d="m469.329 320.256v-17.636l-4.109-3.131h-417.933l-3.458 3.131v17.636z" fill="#8479c2"/><path d="m420.4 155.879h-220.398c-6.6 0-12 5.4-12 12v80.641c0 6.6 5.4 12 12 12h220.398c6.6 0 12-5.4 12-12v-80.641c0-6.6-5.4-12-12-12z" fill="#b5dcff"/><path d="m190.002 248.519v-80.641c0-6.6 5.4-12 12-12h-27c-6.6 0-12 5.4-12 12v80.641c0 6.6 5.4 12 12 12h27c-6.6 0-12-5.4-12-12z" fill="#8bcaff"/><circle cx="80.42" cy="188.416" fill="#60b9fe" r="33.133"/><path d="m80.42 193.797c13.268 0 24.739-7.612 30.341-18.695-5.128-11.667-16.779-19.819-30.341-19.819s-25.213 8.152-30.341 19.819c5.603 11.083 17.074 18.695 30.341 18.695z" fill="#60b9fe"/><path d="m80.42 193.3c-13.246 0-24.672-7.775-29.975-19.008-2.023 4.285-3.159 9.072-3.159 14.125 0 18.299 14.834 33.133 33.134 33.133s33.133-14.834 33.133-33.133c0-5.053-1.136-9.84-3.159-14.125-5.302 11.233-16.728 19.008-29.974 19.008z" fill="#1ca8ff"/><path d="m47.287 319.256-3.458 3.131v14.233l3.458 2.403h417.933l4.109-5.236v-11.4l-4.109-3.131z" fill="#6e60b8"/><path d="m41.357 89.957h-9.907c-3.275 0-5.93 2.655-5.93 5.93v320.227c0 3.275 2.655 5.93 5.93 5.93h9.907c3.275 0 5.93-2.655 5.93-5.93v-320.226c0-3.276-2.655-5.931-5.93-5.931z" fill="#9790cc"/><path d="m498.824 241.029h-9.907c-3.275 0-5.93 2.655-5.93 5.93v169.156c0 3.275 2.655 5.93 5.93 5.93h9.907c3.275 0 5.93-2.655 5.93-5.93v-169.156c.001-3.275-2.654-5.93-5.93-5.93z" fill="#9790cc"/><g fill="#8479c2"><path d="m27.52 416.115v-320.227c0-3.275 2.655-5.93 5.93-5.93h-19.767c-3.275 0-5.93 2.655-5.93 5.93v320.227c0 3.275 2.655 5.93 5.93 5.93h19.767c-3.275 0-5.93-2.655-5.93-5.93z"/><path d="m484.988 416.115v-169.156c0-3.275 2.655-5.93 5.93-5.93h-25.698v175.086c0 3.275 2.655 5.93 5.93 5.93h19.767c-3.274 0-5.929-2.655-5.929-5.93z"/></g></g><path d="m504.502 321.537c4.143 0 7.5-3.357 7.5-7.5v-67.078c0-7.405-6.025-13.43-13.431-13.43h-26.563c-2.187-11.089-11.981-19.479-23.702-19.479h-8.659v-46.172c0-10.752-8.748-19.5-19.5-19.5h-116.003c-4.143 0-7.5 3.358-7.5 7.5s3.357 7.5 7.5 7.5h116.004c2.439 0 4.5 2.061 4.5 4.5v79.086c0 3.339-2.716 6.055-6.055 6.055h-242.289c-3.339 0-6.055-2.716-6.055-6.055 0-14.209 0-56.486 0-79.086 0-2.439 2.061-4.5 4.5-4.5h94.395c4.143 0 7.5-3.358 7.5-7.5s-3.357-7.5-7.5-7.5h-94.395c-8.537 0-15.793 5.523-18.428 13.178h-19.612c-8.014 0-15.154 3.794-19.732 9.676-6.486-13.839-20.543-23.45-36.809-23.45-9.712 0-18.636 3.429-25.634 9.135v-61.03c0-7.405-6.024-13.43-13.43-13.43h-27.674c-7.406 0-13.43 6.025-13.43 13.43v320.228c0 7.405 6.024 13.43 13.43 13.43h27.675c7.405 0 13.43-6.024 13.43-13.43v-69.592h402.934v69.592c0 7.405 6.024 13.43 13.43 13.43h27.674c7.405 0 13.431-6.024 13.431-13.43v-67.078c0-4.143-3.357-7.5-7.5-7.5s-7.5 3.357-7.5 7.5v65.508h-24.534c0-51.141 0-114.71 0-166.016h24.534v65.508c-.002 4.142 3.355 7.5 7.498 7.5zm-84.355-53.518c10.752 0 19.5-8.748 19.5-19.5 0-5.715 0-10.795 0-19.469h8.659c5.052 0 9.161 4.109 9.161 9.16v53.778h-402.933v-62.938h100.715v19.469c0 10.752 8.748 19.5 19.5 19.5zm-293.439-81.461c0-5.515 4.486-10.001 10.001-10.001h18.54v37.493h-28.541zm-46.54-23.775c14.134 0 25.633 11.499 25.633 25.633s-11.499 25.634-25.633 25.634c-14.135 0-25.634-11.499-25.634-25.633s11.499-25.634 25.634-25.634zm-40.634 251.762h-24.534v-317.088h24.534zm15-83.022v-24.534h402.934v24.534z"/></g></svg>