<svg id="Capa_1" enable-background="new 0 0 512.002 512.002" height="512" viewBox="0 0 512.002 512.002" width="512" xmlns="http://www.w3.org/2000/svg"><g><g><path d="m286.268 9.31c-117.453 20.741-206.679 123.287-206.679 246.691s89.226 225.949 206.679 246.691c123.088-14.821 218.486-119.608 218.486-246.691s-95.398-231.871-218.486-246.691z" fill="#dbedff"/><path d="m81.326 256.001c0-124.743 91.917-228.007 211.714-245.786-12.005-1.781-24.286-2.715-36.786-2.715-137.244 0-248.501 111.258-248.501 248.501s111.257 248.501 248.501 248.501c12.5 0 24.782-.934 36.787-2.715-119.798-17.779-211.715-121.043-211.715-245.786z" fill="#b5dcff"/><path d="m391.412 249.419-14.5-53.75 1.588-10.247c-12.392-21.417-30.25-39.275-51.667-51.667h-11.504l-52.333-11.585-6.742-7.307c-4.651 0-9.247.232-13.783.672-47.265 28.913-78.809 81.002-78.809 140.467 0 52.282 24.385 98.861 62.398 129.002l21.269 4.833 8.925 7.304c25.712 0 49.817-6.879 70.579-18.892l2.994-9.745 40.168-38.792 8.505-3.13c12.013-20.762 18.892-44.867 18.892-70.579z" fill="#1ca8ff"/><path d="m166.863 256.001c0-60.124 32.564-112.635 81.012-140.879-22.567 1.322-43.711 7.934-62.201 18.633l-3.33 8.415-42.682 41.5-5.655 1.753c-12.013 20.762-18.892 44.867-18.892 70.579l4.881 5.168 17.333 55.667-3.322 9.745c12.392 21.417 30.25 39.275 51.667 51.667h10.654l35.691 8.11c-39.563-29.735-65.156-77.056-65.156-130.358z" fill="#0094fd"/><path d="m282.069 211.288 44.764-77.533c-20.762-12.013-44.867-18.892-70.579-18.892v95.307z" fill="#60b9fe"/><path d="m198.098 356.729c12.235 15.78 27.273 29.278 44.373 39.738 4.535.44 9.132.672 13.782.672v-92.187l-23.745-7.823z" fill="#60b9fe"/><path d="m199.65 354.042-13.975 24.206c18.49 10.698 39.635 17.31 62.201 18.633-18.79-10.954-35.189-25.556-48.226-42.839z" fill="#1ca8ff"/><g fill="#60b9fe"><path d="m171.134 206.857 40.036 23.115 7.992-2.233 11.52-16.029-32.584-56.437c-11.847 15.279-21.061 32.699-26.964 51.584z"/><path d="m378.5 326.58-78.648-45.407-18.699 17.957 45.679 79.118c21.418-12.393 39.276-30.25 51.668-51.668z"/><path d="m163.662 256.001c0 17.119 2.621 33.624 7.472 49.144l41.715-24.084 4.563-17.641-14.125-7.418h-39.625z"/><path d="m296.263 232.902 11.399 23.099h89.73c0-25.712-6.879-49.817-18.892-70.579z"/></g><path d="m271.184 202.425c-21.406 8.384-36.574 29.199-36.574 53.576 0 24.378 15.169 45.192 36.575 53.576 23.464-6.526 40.69-28.033 40.69-53.576-.001-25.544-17.227-47.051-40.691-53.576z" fill="#6e60b8"/><path d="m235.923 256.001c0-24.548 15.91-45.366 37.975-52.745-5.546-1.855-11.475-2.875-17.645-2.875-30.718 0-55.62 24.902-55.62 55.62s24.902 55.62 55.62 55.62c6.17 0 12.099-1.02 17.645-2.875-22.065-7.379-37.975-28.197-37.975-52.745z" fill="#6353b2"/><circle cx="256.254" cy="256.001" fill="#8479c2" r="23.099"/><path d="m199.65 157.96-13.975-24.206c-21.418 12.392-39.275 30.25-51.667 51.668l39.908 23.041c5.613-18.433 14.402-35.479 25.734-50.503z" fill="#1ca8ff"/><path d="m166.863 256.001h-51.749c0 25.712 6.879 49.817 18.892 70.579l39.908-23.041c-4.579-15.041-7.051-31-7.051-47.538z" fill="#1ca8ff"/></g><g><path d="m107.362 256.001c0 81.96 66.679 148.639 148.639 148.639s148.639-66.679 148.639-148.639-66.679-148.639-148.639-148.639-148.639 66.679-148.639 148.639zm282.063-7.5h-70.765c-.724-6.084-2.306-11.907-4.639-17.338l61.265-35.371c8.108 15.999 13.09 33.837 14.139 52.709zm-14.139 67.709-61.265-35.371c2.333-5.431 3.915-11.254 4.639-17.338h70.765c-1.049 18.872-6.031 36.71-14.139 52.709zm-71.165-60.209c0 26.533-21.587 48.12-48.12 48.12s-48.12-21.587-48.12-48.12 21.587-48.12 48.12-48.12 48.12 21.587 48.12 48.12zm-55.62 62.659v70.765c-18.872-1.049-36.71-6.031-52.709-14.14l35.371-61.265c5.431 2.334 11.254 3.916 17.338 4.64zm15 0c6.084-.724 11.907-2.306 17.338-4.639l35.371 61.265c-15.999 8.108-33.837 13.09-52.709 14.14zm-140.924-55.159h70.765c.724 6.084 2.306 11.907 4.64 17.338l-61.265 35.371c-8.109-15.999-13.091-33.837-14.14-52.709zm14.139-67.709 61.265 35.371c-2.334 5.431-3.916 11.254-4.64 17.338h-70.765c1.05-18.872 6.032-36.71 14.14-52.709zm111.785-2.45c-6.084.724-11.907 2.306-17.338 4.639l-35.371-61.265c15.999-8.108 33.837-13.09 52.709-14.14zm15 0v-70.765c18.872 1.049 36.71 6.031 52.709 14.14l-35.371 61.265c-5.431-2.335-11.254-3.916-17.338-4.64zm-80.685-49.101 35.366 61.257c-4.804 3.606-9.079 7.881-12.685 12.685l-61.256-35.366c10.081-15.344 23.232-28.495 38.575-38.576zm-38.575 184.945 61.256-35.366c3.606 4.804 7.881 9.079 12.685 12.685l-35.366 61.257c-15.343-10.082-28.494-23.233-38.575-38.576zm184.945 38.575-35.366-61.257c4.804-3.606 9.079-7.881 12.685-12.685l61.256 35.366c-10.081 15.344-23.232 28.495-38.575 38.576zm38.575-184.945-61.256 35.366c-3.606-4.804-7.881-9.079-12.685-12.685l35.366-61.257c15.343 10.082 28.494 23.233 38.575 38.576z"/><path d="m256.001 225.401c-16.873 0-30.6 13.727-30.6 30.6s13.727 30.6 30.6 30.6 30.6-13.727 30.6-30.6-13.727-30.6-30.6-30.6zm0 46.2c-8.602 0-15.6-6.998-15.6-15.6s6.998-15.6 15.6-15.6 15.6 6.998 15.6 15.6-6.998 15.6-15.6 15.6z"/><path d="m441.434 90.422c-3.17 2.666-3.579 7.397-.913 10.567 36.423 43.31 56.481 98.36 56.481 155.012 0 55.349-19.239 109.411-54.173 152.23-2.618 3.21-2.139 7.934 1.07 10.553 3.21 2.618 7.935 2.139 10.553-1.07 37.111-45.488 57.55-102.919 57.55-161.713 0-60.178-21.309-118.657-60.001-164.666-2.666-3.17-7.397-3.579-10.567-.913z"/><path d="m256.001 512.002c64.612 0 126.317-24.153 173.747-68.01 3.041-2.813 3.227-7.558.415-10.599-2.813-3.041-7.559-3.228-10.599-.415-44.649 41.286-102.737 64.023-163.563 64.023-132.889.001-241.001-108.111-241.001-241s108.112-241.001 241.001-241.001c59.502 0 116.645 21.875 160.901 61.595 3.082 2.766 7.824 2.51 10.592-.572 2.767-3.083 2.51-7.825-.572-10.592-47.015-42.194-107.715-65.431-170.921-65.431-141.483 0-256.001 114.498-256.001 256.001 0 141.483 114.498 256.001 256.001 256.001z"/></g></g></svg>