<svg id="Capa_1" enable-background="new 0 0 512.002 512.002" height="512" viewBox="0 0 512.002 512.002" width="512" xmlns="http://www.w3.org/2000/svg"><g><g><path d="m452.663 82.437h-378.523v410.43c0 5.228 3.175 9.714 7.702 11.635h382.661c6.978 0 12.635-5.657 12.635-12.635v-380.595z" fill="#60b9fe"/><path d="m76.14 492.867v-410.43h-14.977l-25.792 28.835v380.595c0 6.978 5.657 12.635 12.635 12.635h35.836c-4.527-1.922-7.702-6.407-7.702-11.635z" fill="#1ca8ff"/><g><path d="m216.413 189.357v88.599l15.625 4.838 2.145-.78v-82.577c0-7.945-6.356-14.461-14.232-14.756z" fill="#9790cc"/><path d="m219.95 184.681c-.185-.007-.366-.028-.552-.028h-15.603l-.077 5.579v83.793l16.232 5.026z" fill="#8479c2"/><path d="m322.849 300.107 4.179-3.25v-3.514c0-6.231-5.098-11.329-11.329-11.329h-81.517v5.348l10.607 10.362z" fill="#9790cc"/><path d="m243.903 296.857 18.426 18h62.433l2.266-2.463v-15.537z" fill="#8479c2"/><path d="m168.634 172.969c10.968 0 19.859 8.891 19.859 19.859v82.862h14.336l1.825-3.421v-79.807c0-19.923-16.209-36.132-36.132-36.132h-8.922l-3.187 2.901v13.737h12.221z" fill="#dbedff"/><path d="m168.523 184.653c4.306 0 7.81 3.503 7.81 7.809v79.807l2.497 3.421h11.664v-84.862c0-10.968-8.891-19.859-19.859-19.859h-14.221v9.763l3.187 3.921z" fill="#b5dcff"/><path d="m159.6 172.969v-16.638h-29.568c-7.821 0-14.161 6.34-14.161 14.161 0 .847.088 1.672.23 2.477z" fill="#9790cc"/><path d="m159.6 170.969h-43.705c.254 7.598 6.477 13.684 14.137 13.684h29.568z" fill="#8479c2"/><path d="m315.482 327.857c4.686 0 8.844 3.001 10.321 7.447l22.527 67.818 10.939-.861 4.478-1.953-21.406-72.25c-2.638-8.932-12.735-17.529-24.984-17.529h-50.527v3.328l5.185 14z" fill="#dbedff"/><path d="m275.163 336.357 5.443 2.495h33.793c.949 0 1.786.625 2.056 1.535l18.315 61.819 4.227 1.652 11.931-.939-23.124-69.614c-1.477-4.447-5.636-7.447-10.321-7.447h-46.208z" fill="#b5dcff"/><path d="m375.125 418.423h40.567c.093-.655.157-1.319.157-2 0-7.821-6.34-14.161-14.161-14.161h-34.328-.885l-1.729 4.012 8.833 8.083z" fill="#dbedff"/><path d="m379.746 430.584h1.838 20.104c7.821 0 14.161-6.34 14.161-14.161h-41.485z" fill="#b5dcff"/><path d="m360.641 399.09c-10.709 5.313-18.075 16.351-18.075 29.116s7.366 23.803 18.075 29.116c12.221-4.036 21.044-15.542 21.044-29.116s-8.823-25.08-21.044-29.116z" fill="#6e60b8"/><path d="m343.7 428.206c0-12.802 7.848-23.767 18.993-28.359-3.598-1.483-7.538-2.306-11.672-2.306-16.936 0-30.664 13.729-30.664 30.665s13.729 30.665 30.664 30.665c4.134 0 8.073-.823 11.672-2.306-11.145-4.592-18.993-15.557-18.993-28.359z" fill="#6353b2"/><path d="m197.449 346.026c-7.08 3.402-11.974 10.63-11.974 19.01s4.894 15.608 11.974 19.01c7.758-2.841 13.306-10.268 13.306-19.01s-5.548-16.17-13.306-19.01z" fill="#6e60b8"/><path d="m185.982 365.036c0-8.397 5.108-15.6 12.386-18.673-2.421-1.022-5.082-1.588-7.875-1.588-11.19 0-20.261 9.071-20.261 20.261s9.071 20.261 20.261 20.261c2.793 0 5.454-.566 7.875-1.588-7.278-3.073-12.386-10.276-12.386-18.673z" fill="#6353b2"/><path d="m190.493 271.201c-.135 0-.268.005-.403.005-43.881 8.673-77.078 47.441-77.078 93.829 0 46.389 33.197 85.157 77.078 93.83.134.001.268.005.402.005 51.741 0 93.835-42.094 93.835-93.835s-42.093-93.834-93.834-93.834zm0 159.454c-36.182 0-65.619-29.437-65.619-65.619s29.437-65.619 65.619-65.619c36.183 0 65.619 29.436 65.619 65.619s-29.436 65.619-65.619 65.619z" fill="#ff76aa"/><g><path d="m114.659 365.036c0-48.705 37.301-88.856 84.834-93.401-2.963-.283-5.964-.434-9-.434-51.74 0-93.834 42.094-93.834 93.834s42.094 93.835 93.834 93.835c3.036 0 6.037-.15 9-.434-47.534-4.544-84.834-44.696-84.834-93.4z" fill="#ff5595"/></g></g><path d="m138.254 7.5h60.5v59.214h-60.5z" fill="#ff76aa"/><path d="m138.254 7.5h27.756v59.214h-27.756z" fill="#ff5595"/><path d="m255.254 7.5h60.5v59.214h-60.5z" fill="#ff76aa"/><path d="m255.254 7.5h28.615v59.214h-28.615z" fill="#ff5595"/><path d="m372.254 7.5h60.5v59.214h-60.5z" fill="#ff76aa"/><path d="m372.254 7.5h28.615v59.214h-28.615z" fill="#ff5595"/><path d="m22.254 18.736v47.978h59.5v-59.214h-48.376c-6.144 0-11.124 5.03-11.124 11.236z" fill="#ff76aa"/><path d="m53.139 7.5h-19.761c-6.144 0-11.124 5.03-11.124 11.236v47.978h30.885z" fill="#ff5595"/><path d="m22.254 86.876c0 16.154 13.096 29.25 29.25 29.25 16.154 0 30.25-13.096 30.25-29.25v-20.75h-59.5z" fill="#ffc365"/><path d="m53.139 83.864v-17.738h-30.885v20.75c0 16.154 13.096 29.25 29.25 29.25 5.583 0 10.918-1.565 15.512-4.279-8.431-6.424-13.877-16.566-13.877-27.983z" fill="#ffa90f"/><path d="m138.254 86.876c0 16.154 14.096 29.25 30.25 29.25 16.154 0 30.25-13.096 30.25-29.25v-20.75h-60.5z" fill="#ffc365"/><path d="m166.01 83.864v-17.738h-27.756v20.75c0 16.154 14.096 29.25 30.25 29.25 4.648 0 9.123-1.089 13.144-3.018-9.428-6.308-15.638-17.05-15.638-29.244z" fill="#ffa90f"/><path d="m255.254 86.876c0 16.154 14.096 29.25 30.25 29.25 16.154 0 30.25-13.096 30.25-29.25v-20.75h-60.5z" fill="#ffc365"/><path d="m283.869 83.864v-17.738h-28.615v20.75c0 16.154 14.096 29.25 30.25 29.25 4.842 0 9.494-1.183 13.642-3.266-9.225-6.338-15.277-16.959-15.277-28.996z" fill="#ffa90f"/><path d="m372.254 66.126v20.75c0 16.154 14.096 29.25 30.25 29.25 16.154 0 30.25-13.096 30.25-29.25v-20.75z" fill="#ffc365"/><path d="m400.869 83.864v-17.738h-28.615v20.75c0 16.154 14.096 29.25 30.25 29.25 4.842 0 9.494-1.183 13.642-3.266-9.225-6.338-15.277-16.959-15.277-28.996z" fill="#ffa90f"/><path d="m80.754 7.5h58.5v59.214h-58.5z" fill="#ffc365"/><path d="m80.754 7.5h27.441v59.214h-27.441z" fill="#ffa90f"/><path d="m197.754 7.5h58.5v59.214h-58.5z" fill="#ffc365"/><path d="m197.754 7.5h27.543v59.214h-27.543z" fill="#ffa90f"/><path d="m314.754 7.5h58.5v59.214h-58.5z" fill="#ffc365"/><path d="m314.754 7.5h29.25v59.214h-29.25z" fill="#ffa90f"/><path d="m479.13 7.5h-47.376v59.214h58.5v-47.978c0-6.206-4.98-11.236-11.124-11.236z" fill="#ffc365"/><path d="m431.754 7.5h29.25v59.214h-29.25z" fill="#ffa90f"/><path d="m80.754 86.876c0 16.154 13.096 29.25 29.25 29.25 16.154 0 29.25-13.096 29.25-29.25v-20.75h-58.5z" fill="#ff76aa"/><path d="m108.196 83.864v-17.738h-27.442v20.75c0 16.154 13.096 29.25 29.25 29.25 4.851 0 9.423-1.188 13.45-3.278-9.214-6.34-15.258-16.954-15.258-28.984z" fill="#ff5595"/><path d="m197.754 86.876c0 16.154 13.096 29.25 29.25 29.25 16.154 0 29.25-13.096 29.25-29.25v-20.75h-58.5z" fill="#ff76aa"/><path d="m225.298 83.864v-17.738h-27.543v20.75c0 16.154 13.096 29.25 29.25 29.25 4.875 0 9.468-1.199 13.51-3.309-9.191-6.343-15.217-16.942-15.217-28.953z" fill="#ff5595"/><path d="m314.754 86.876c0 16.154 13.096 29.25 29.25 29.25 16.154 0 29.25-13.096 29.25-29.25v-20.75h-58.5z" fill="#ff76aa"/><path d="m344.004 83.864v-17.738h-29.25v20.75c0 16.154 13.096 29.25 29.25 29.25 5.268 0 10.205-1.399 14.474-3.836-8.77-6.394-14.474-16.742-14.474-28.426z" fill="#ff5595"/><path d="m431.754 66.126v20.75c0 16.154 13.096 29.25 29.25 29.25 16.154 0 29.25-13.096 29.25-29.25v-20.75z" fill="#ff76aa"/><path d="m461.004 83.864v-17.738h-29.25v20.75c0 16.154 13.096 29.25 29.25 29.25 5.268 0 10.205-1.399 14.474-3.836-8.77-6.394-14.474-16.742-14.474-28.426z" fill="#ff5595"/></g><g><path d="m263.359 365.036c0-40.318-32.801-73.119-73.119-73.119-40.317 0-73.118 32.801-73.118 73.119 0 40.317 32.801 73.118 73.118 73.118 40.319 0 73.119-32.8 73.119-73.118zm-130.784 7.131h30.837c.583 2.192 1.427 4.278 2.499 6.222l-21.863 21.862c-6.109-7.993-10.185-17.611-11.473-28.084zm11.798-42.76 21.807 21.807c-1.073 1.86-1.937 3.854-2.558 5.953h-30.953c1.411-10.369 5.562-19.871 11.704-27.76zm103.439 27.76h-30.953c-.622-2.099-1.486-4.093-2.558-5.953l21.807-21.807c6.142 7.889 10.294 17.391 11.704 27.76zm-57.572 20.63c-7.036 0-12.761-5.725-12.761-12.761 0-7.037 5.725-12.762 12.761-12.762 7.037 0 12.762 5.725 12.762 12.762 0 7.036-5.725 12.761-12.762 12.761zm13.354-37.091c-1.835-1.011-3.797-1.816-5.854-2.394v-30.895c10.33 1.338 19.816 5.389 27.716 11.426zm-20.854-2.394c-2.056.578-4.019 1.382-5.853 2.393l-21.862-21.862c7.9-6.037 17.386-10.088 27.715-11.426zm-6.322 50.784c1.969 1.135 4.088 2.035 6.322 2.663v30.895c-10.512-1.361-20.147-5.536-28.129-11.751zm21.322 2.663c2.234-.628 4.353-1.528 6.322-2.663l21.807 21.807c-7.982 6.215-17.618 10.39-28.13 11.751v-30.895zm16.831-13.37c1.071-1.944 1.915-4.03 2.498-6.222h30.837c-1.288 10.473-5.364 20.09-11.473 28.084z"/><path d="m312.604 428.206c0 21.044 17.121 38.164 38.165 38.164 17.628 0 32.496-12.016 36.861-28.286h13.806c11.944 0 21.661-9.717 21.661-21.661s-9.717-21.661-21.661-21.661h-31.762l-20.392-68.827c-2.241-7.589-7.855-14.089-15.006-18.206v-14.386c0-10.382-8.446-18.828-18.829-18.828h-11.539v-14.306c0-14.79-12.032-26.823-26.822-26.823h-35.656v-33.948c0-12.287-9.997-22.284-22.284-22.284h-10.022c-6.214-16.528-22.179-28.322-40.854-28.322-14.278 0-24.042 0-38.491 0-11.944 0-21.661 9.717-21.661 21.661s9.717 21.661 21.661 21.661h29.568 8.923c.165 0 .311.145.311.309v73.577c-45.503 9.948-79.674 50.554-79.674 98.997 0 48.64 34.67 90.512 82.438 99.561 4.066.77 7.994-1.902 8.765-5.974.771-4.069-1.903-7.993-5.974-8.765-40.693-7.709-70.229-43.382-70.229-84.822 0-47.69 38.661-85.926 85.607-86.317 48.047-.4 87.062 38.575 87.062 86.317 0 41.44-29.536 77.113-70.23 84.822-4.07.771-6.744 4.695-5.974 8.765.682 3.599 3.828 6.105 7.36 6.105.463 0 .934-.043 1.404-.132 47.769-9.049 82.439-50.92 82.439-99.561 0-6.382-.6-12.626-1.733-18.685h20.305l15.699 52.988c-8.101 7.004-13.242 17.343-13.242 28.867zm38.165 23.164c-12.773 0-23.165-10.392-23.165-23.164 0-12.85 10.48-23.165 23.165-23.165 12.758 0 23.164 10.382 23.164 23.165 0 12.645-10.282 23.164-23.164 23.164zm50.667-41.608c3.673 0 6.661 2.988 6.661 6.661s-2.988 6.661-6.661 6.661h-12.843c-.575-4.341-2.025-9.043-4.388-13.322zm-85.99-120.247c2.075 0 3.829 1.753 3.829 3.828v9.758c-.1-.007-1.39-.071-2.171-.071h-13.197v-13.515zm-45.107 13.514c-3.594-4.632-7.867-9.272-12.611-13.515h31.179v13.515zm-58.437-36.995v-17.648h14.527v21.997c-4.504-1.73-9.555-3.264-14.527-4.349zm65.183-17.648c6.519 0 11.822 5.304 11.822 11.823v14.306h-47.477v-26.129zm-65.184-56.233h7.244c4.017 0 7.284 3.268 7.284 7.284v33.948h-14.527v-40.924c0-.102 0-.205-.001-.308zm-82.123-15c-3.673 0-6.661-2.988-6.661-6.661s2.988-6.661 6.661-6.661h22.068v13.322zm53.802 86.766v-71.457c0-8.441-6.868-15.309-15.311-15.309h-1.423v-13.322h1.423c13.654 0 25.099 9.609 27.946 22.418.002.009.002.018.004.027.336 1.517.548 3.053.635 4.586.001.02.004.039.005.059.028.514.043 1.029.043 1.541v71.457c-4.604-.3-9.104-.275-13.322 0zm155.682 127.896-16.323-55.095c-.944-3.185-3.87-5.369-7.191-5.369h-29.931c-1.567-4.432-3.565-9.034-5.817-13.322h37.105c8.245 0 15.934 5.866 17.792 12.16l17.747 59.896c-4.473-.216-9.141.387-13.382 1.73z"/><path d="m351.517 420.706h-1.497c-4.143 0-7.5 3.357-7.5 7.5s3.357 7.5 7.5 7.5h1.497c4.143 0 7.5-3.357 7.5-7.5s-3.358-7.5-7.5-7.5z"/><path d="m476.885 278.701c4.143 0 7.5-3.357 7.5-7.5v-156.212c8.012-6.747 13.116-16.843 13.116-28.113 0-11.39 0-50.789 0-68.252 0-10.27-8.355-18.624-18.623-18.624-53.317 0-381.136 0-445.753 0-10.27 0-18.624 8.354-18.624 18.624v68.252c0 11.27 5.104 21.367 13.117 28.114v376.877c0 11.103 9.032 20.136 20.135 20.136h416.497c11.103 0 20.135-9.033 20.135-20.136v-185.666c0-4.143-3.357-7.5-7.5-7.5s-7.5 3.357-7.5 7.5v185.665c0 2.832-2.304 5.136-5.135 5.136h-416.497c-2.831 0-5.135-2.304-5.135-5.136v-369.262c14.046 3.386 28.948-1.777 37.883-13.502 14.804 19.426 43.81 19.276 58.5 0 14.736 19.337 43.744 19.363 58.5 0 14.734 19.334 43.743 19.364 58.5 0 14.745 19.349 43.773 19.325 58.5 0 14.803 19.424 43.812 19.274 58.5 0 14.843 19.477 43.85 19.224 58.5 0 8.994 11.802 23.963 16.86 37.884 13.502v148.598c0 4.142 3.357 7.499 7.5 7.499zm5.616-260.077v40.002h-43.5v-43.626h39.877c1.998 0 3.623 1.626 3.623 3.624zm-58.5 40.002h-43.5v-43.626h43.5zm-58.5 0h-43.5v-43.626h43.5zm-58.5 0h-43.5v-43.626h43.5zm-58.5 0h-43.5v-43.626h43.5zm-58.5 0h-43.5v-43.626h43.5zm-58.5 0h-43.5v-43.626h43.5zm-102 28.25v-13.25h43.5v13.25c0 11.993-9.757 21.75-21.75 21.75-12.207 0-21.75-9.966-21.75-21.75zm0-68.252c0-1.998 1.626-3.624 3.624-3.624h39.876v43.626h-43.5zm58.5 68.252v-13.25h43.5v13.25c0 11.993-9.757 21.75-21.75 21.75s-21.75-9.757-21.75-21.75zm58.5 0v-13.25h43.5v13.25c0 11.993-9.757 21.75-21.75 21.75s-21.75-9.757-21.75-21.75zm58.5 0v-13.25h43.5v13.25c0 11.993-9.757 21.75-21.75 21.75s-21.75-9.757-21.75-21.75zm58.5 0v-13.25h43.5v13.25c0 11.993-9.757 21.75-21.75 21.75s-21.75-9.757-21.75-21.75zm58.5 0v-13.25h43.5v13.25c0 11.993-9.757 21.75-21.75 21.75s-21.75-9.757-21.75-21.75zm58.5 0v-13.25h43.5v13.25c0 11.993-9.757 21.75-21.75 21.75s-21.75-9.757-21.75-21.75zm58.5 0v-13.25h43.5v13.25c0 12.054-9.84 21.75-21.75 21.75-11.993 0-21.75-9.757-21.75-21.75z"/></g></g></svg>