<svg id="Capa_1" enable-background="new 0 0 512.002 512.002" height="512" viewBox="0 0 512.002 512.002" width="512" xmlns="http://www.w3.org/2000/svg"><g><g><path d="m151.809 449.693h-73.5l-2.99 3.66v37.261c0 7.639 6.25 13.888 13.888 13.888h51.792c7.639 0 13.888-6.25 13.888-13.888v-37.382z" fill="#6e60b8"/><path d="m110.652 490.614v-37.261l2.991-3.66h-35.334l-2.99 3.66v37.261c0 7.639 6.25 13.888 13.888 13.888h35.333c-7.638 0-13.888-6.25-13.888-13.888z" fill="#6353b2"/><path d="m462.031 260.767h-8.694c-6.023 2.279-10.344 8.099-10.344 14.895v27.71c0 6.828 4.361 12.672 10.43 14.927h8.608c8.463 0 15.386-6.924 15.386-15.386v-26.759c.001-8.463-6.923-15.387-15.386-15.387z" fill="#dbedff"/><path d="m443.54 302.912v-26.759c0-8.463 6.924-15.386 15.387-15.386h-33.823c-5.862 0-10.98 3.325-13.576 8.179l-1.865 3.956 11 33.958 16.583 12.333 2.229-.894h19.452c-8.463 0-15.387-6.924-15.387-15.387z" fill="#b5dcff"/><path d="m101.206 269.414c-2.511-5.104-7.757-8.647-13.802-8.647h-8.324c-6.344 2.054-10.966 8.025-10.966 15.03v27.473c0 6.9 4.49 12.785 10.688 14.922l11.861-9.165 12.333-35.667z" fill="#dbedff"/><path d="m68.524 302.912v-26.759c0-8.463 6.924-15.386 15.386-15.386h-33.434c-8.463 0-15.387 6.924-15.387 15.386v26.759c0 8.463 6.924 15.386 15.387 15.386h22.942 5.245l.845-.653c-6.334-1.905-10.984-7.799-10.984-14.733z" fill="#b5dcff"/><path d="m169.496 196.526h172.576c-18.434-6.868-34.258-19.093-45.582-34.782l-4.766-2.038h-104.06l-8.335 5.987z" fill="#ff76aa"/><path d="m187.665 159.706h-29.438c-11.787 0-22.265 7.505-26.06 18.664l-4.815 14.161 5.312 3.995h43.106z" fill="#ff5595"/><path d="m389.306 203.599-6.656-3.197-52.362-9.876-3.287 2.005h-156.231l-37.153 116.495h287.046l3.544-2.796z" fill="#8479c2"/><path d="m177.06 192.531h-49.709l-38.664 113.699 1.976 2.796h37.152l13.973-7.318z" fill="#6e60b8"/><circle cx="374.492" cy="106.103" fill="#60b9fe" r="98.603"/><path d="m312.924 106.103c0-48.127 34.482-88.193 80.086-96.859-5.999-1.14-12.187-1.744-18.518-1.744-54.457 0-98.603 44.146-98.603 98.603s44.146 98.603 98.603 98.603c6.331 0 12.519-.604 18.518-1.744-45.604-8.666-80.086-48.732-80.086-96.859z" fill="#1ca8ff"/><circle cx="370.125" cy="57.635" fill="#dbedff" r="15.769"/><path d="m434.496 449.693h-73.5l-2.99 3.66v37.261c0 7.639 6.25 13.888 13.888 13.888h51.792c7.639 0 13.888-6.25 13.888-13.888v-37.382z" fill="#6e60b8"/><path d="m393.339 490.614v-37.261l2.991-3.66h-35.333l-2.99 3.66v37.261c0 7.639 6.25 13.888 13.888 13.888h35.333c-7.639 0-13.889-6.25-13.889-13.888z" fill="#6353b2"/><path d="m404.575 301.708h-269.299c-16.517 7.515-28.081 24.177-28.081 43.424v97.82c0 4.058 1.675 7.739 4.362 10.4h324.281c7.639 0 13.888-6.25 13.888-13.888v-92.604c.001-24.833-20.317-45.152-45.151-45.152z" fill="#ff76aa"/><path d="m108.263 440.934v-94.802c0-21.022 14.228-38.87 33.525-44.424h-33.47c-24.833 0-45.152 20.318-45.152 45.152v92.604c0 7.639 6.25 13.888 13.888 13.888h38.538c-4.361-2.435-7.329-7.094-7.329-12.418z" fill="#ff5595"/><path d="m395.833 336.721c-11.567 5.803-19.521 17.743-19.521 31.565s7.955 25.763 19.522 31.565c12.396-5.119 21.122-17.321 21.122-31.565-.001-14.244-8.727-26.446-21.123-31.565z" fill="#ffc365"/><path d="m377.003 368.286c0-13.801 8.193-25.68 19.976-31.063-4.317-1.972-9.111-3.08-14.167-3.08-18.856 0-34.142 15.286-34.142 34.142s15.286 34.142 34.142 34.142c5.056 0 9.85-1.108 14.167-3.08-11.783-5.381-19.976-17.26-19.976-31.061z" fill="#ffa90f"/><path d="m312.167 429.048h-70.311c-4.359 1.886-7.412 6.222-7.412 11.273v26.063c0 5.052 3.052 9.388 7.412 11.274h70.311c6.513 0 11.792-5.28 11.792-11.792v-25.025c.001-6.513-5.279-11.793-11.792-11.793z" fill="#dbedff"/><path d="m234.933 465.865v-25.025c0-6.513 5.28-11.792 11.792-11.792h-46c-6.513 0-11.792 5.28-11.792 11.792v25.025c0 6.513 5.28 11.792 11.792 11.792h46c-6.512.001-11.792-5.279-11.792-11.792z" fill="#b5dcff"/><path d="m143.101 336.721c-11.567 5.803-19.521 17.743-19.521 31.565s7.955 25.763 19.522 31.565c12.396-5.119 21.122-17.321 21.122-31.565-.001-14.244-8.727-26.446-21.123-31.565z" fill="#ffc365"/><path d="m124.272 368.286c0-13.801 8.193-25.68 19.976-31.063-4.317-1.972-9.111-3.08-14.167-3.08-18.856 0-34.142 15.286-34.142 34.142s15.286 34.142 34.142 34.142c5.056 0 9.85-1.108 14.167-3.08-11.784-5.381-19.976-17.26-19.976-31.061z" fill="#ffa90f"/></g><g><path d="m382.56 326.644c-22.962 0-41.643 18.681-41.643 41.643s18.681 41.643 41.643 41.643c22.961 0 41.642-18.681 41.642-41.643s-18.681-41.643-41.642-41.643zm0 68.285c-14.69 0-26.643-11.952-26.643-26.643s11.952-26.643 26.643-26.643 26.642 11.952 26.642 26.643-11.952 26.643-26.642 26.643z"/><path d="m88.186 368.286c0 22.962 18.681 41.643 41.642 41.643 22.962 0 41.643-18.681 41.643-41.643s-18.681-41.643-41.643-41.643c-22.961.001-41.642 18.681-41.642 41.643zm68.284 0c0 14.69-11.952 26.643-26.643 26.643s-26.642-11.952-26.642-26.643 11.951-26.643 26.642-26.643 26.643 11.953 26.643 26.643z"/><path d="m301.138 342.202h-89.503c-4.143 0-7.5 3.357-7.5 7.5s3.357 7.5 7.5 7.5h89.503c4.143 0 7.5-3.357 7.5-7.5s-3.357-7.5-7.5-7.5z"/><path d="m300.752 374.711h-89.502c-4.143 0-7.5 3.357-7.5 7.5s3.357 7.5 7.5 7.5h89.503c4.143 0 7.5-3.357 7.5-7.5s-3.358-7.5-7.501-7.5z"/><path d="m369.872 80.904c12.831 0 23.27-10.438 23.27-23.269s-10.438-23.27-23.27-23.27c-12.83 0-23.269 10.438-23.269 23.27 0 12.831 10.439 23.269 23.269 23.269zm0-31.538c4.56 0 8.27 3.71 8.27 8.27s-3.71 8.269-8.27 8.269-8.269-3.709-8.269-8.269 3.709-8.27 8.269-8.27z"/><path d="m370.356 89.608c-4.143 0-7.5 3.357-7.5 7.5v30.903c0 6.234 5.071 11.306 11.306 11.306h23.664l11.188 16.088c2.357 3.39 7.028 4.248 10.439 1.875 3.4-2.364 4.24-7.038 1.875-10.439l-12.103-17.404c-2.097-3.21-5.617-5.119-9.463-5.119h-21.906v-12.628h25.508c4.143 0 7.5-3.357 7.5-7.5s-3.357-7.5-7.5-7.5h-25.529c-.219-3.947-3.478-7.082-7.479-7.082z"/><path d="m374.59 173.682c7.204 0 14.324-1.841 20.589-5.324 3.62-2.013 4.923-6.579 2.91-10.199s-6.579-4.922-10.199-2.91c-4.041 2.246-8.64 3.434-13.3 3.434-15.12 0-27.422-12.302-27.422-27.422 0-6.218 2.027-12.078 5.862-16.948 2.563-3.254 2.002-7.97-1.253-10.532-3.254-2.563-7.969-2.002-10.532 1.253-5.938 7.541-9.077 16.61-9.077 26.228 0 23.389 19.031 42.42 42.422 42.42z"/><path d="m484.666 302.912v-26.759c0-12.62-10.267-22.887-22.887-22.887h-36.928c-3.598 0-7.064.851-10.17 2.399l-15.766-46.363c46.645-11.152 81.428-53.187 81.428-103.199 0-58.505-47.597-106.103-106.103-106.103s-106.104 47.598-106.104 106.104c0 16.511 3.793 32.153 10.55 46.103h-120.712c-15.004 0-28.33 9.544-33.161 23.749l-27.174 79.911c-3.201-1.669-6.79-2.599-10.488-2.599h-36.928c-12.62 0-22.887 10.267-22.887 22.887v26.759c0 12.62 10.267 22.887 22.887 22.887h9.6c-2.829 6.454-4.41 13.575-4.41 21.062v92.604c0 8.483 4.977 15.806 12.152 19.261v31.887c0 11.794 9.595 21.389 21.388 21.389h51.793c11.793 0 21.388-9.595 21.388-21.389v-29.761h19.047v5.013c0 10.638 8.654 19.292 19.292 19.292h38.027c4.143 0 7.5-3.357 7.5-7.5s-3.357-7.5-7.5-7.5h-38.027c-2.366 0-4.292-1.926-4.292-4.292 0-8.752 0-16.272 0-25.024 0-2.367 1.926-4.293 4.292-4.293h111.441c2.366 0 4.292 1.926 4.292 4.293v25.024c0 2.366-1.926 4.292-4.292 4.292h-38.414c-4.143 0-7.5 3.357-7.5 7.5s3.357 7.5 7.5 7.5h38.414c10.638 0 19.292-8.654 19.292-19.292v-5.013h19.046v29.761c0 11.794 9.595 21.389 21.389 21.389h51.792c11.794 0 21.389-9.595 21.389-21.389v-31.887c7.176-3.455 12.152-10.779 12.152-19.261v-36.179c0-4.143-3.357-7.5-7.5-7.5s-7.5 3.357-7.5 7.5v36.179c0 3.224-2.402 5.89-5.509 6.32-.029.003-.057.002-.086.006-.147.018-.276.031-.398.042-.129.008-.258.02-.389.02h-.007c-13.119 0-96.943 0-104.379 0v-5.012c0-10.638-8.654-19.293-19.292-19.293h-111.441c-10.638 0-19.292 8.655-19.292 19.293v5.012c-9.701 0-90.352 0-104.38 0-.134 0-.264-.012-.396-.02-.121-.01-.25-.023-.397-.042-.029-.004-.059-.003-.088-.007-3.106-.431-5.507-3.097-5.507-6.32v-92.606c0-20.727 16.931-37.652 37.651-37.652h296.258c20.612 0 37.651 16.818 37.651 37.652v21.426c0 4.143 3.357 7.5 7.5 7.5s7.5-3.357 7.5-7.5v-21.426c0-7.486-1.581-14.607-4.41-21.062h9.214c12.622.001 22.889-10.266 22.889-22.886zm-54.844 157.941v29.761c0 3.522-2.866 6.389-6.389 6.389h-51.792c-3.522 0-6.389-2.866-6.389-6.389v-29.761zm-55.582-445.853c50.234 0 91.104 40.869 91.104 91.104 0 50.388-41.037 91.103-91.104 91.103-50.317 0-91.104-40.958-91.104-91.103 0-50.235 40.869-91.104 91.104-91.104zm-216.266 152.206h129.518c4.646 6.594 9.964 12.552 15.818 17.825h-165.74l1.444-4.246c2.762-8.122 10.382-13.579 18.96-13.579zm-107.751 143.593c-4.349 0-7.887-3.538-7.887-7.887v-26.759c0-4.349 3.538-7.887 7.887-7.887h36.928c2.064 0 4.038.849 5.496 2.279l-10.345 30.422c-4.67 2.632-8.897 5.955-12.548 9.831h-19.531zm96.911 150.054v29.761c0 3.522-2.865 6.389-6.388 6.389h-51.792c-3.522 0-6.388-2.866-6.388-6.389v-29.761zm-39.069-166.645c-2.302 0-5.234.191-7.817.577 4.102-12.063 29.361-86.342 32.221-94.754h192.341c18.053 9.502 38.611 13.596 59.099 11.737 3.146 9.252 24.691 72.61 28.23 83.017-2.495-.373-5.437-.577-7.817-.577zm322.021 6.76-10.444-30.712c1.421-1.263 3.262-1.989 5.209-1.989h36.928c4.349 0 7.887 3.538 7.887 7.887v26.759c0 4.349-3.538 7.887-7.887 7.887h-19.145c-3.651-3.877-7.878-7.2-12.548-9.832z"/></g></g></svg>