<svg id="Capa_1" enable-background="new 0 0 512.002 512.002" height="512" viewBox="0 0 512.002 512.002" width="512" xmlns="http://www.w3.org/2000/svg"><g><g><path d="m461.913 420.022h-27.865l-4.107 4.021v39.458c0 6.899 5.644 12.543 12.543 12.543h11.173c6.899 0 12.543-5.644 12.543-12.543v-39.458z" fill="#6e60b8"/><path d="m431.94 463.502v-39.458l4.107-4.021h-34.26l-4.107 4.021v39.458c0 6.899 5.644 12.543 12.543 12.543h34.26c-6.898 0-12.543-5.644-12.543-12.543z" fill="#6353b2"/><path d="m236.367 420.022h-27.865l-4.107 4.021v39.458c0 6.899 5.644 12.543 12.543 12.543h11.173c6.899 0 12.543-5.644 12.543-12.543v-39.458z" fill="#6e60b8"/><path d="m206.394 463.502v-39.458l4.107-4.021h-34.26l-4.107 4.021v39.458c0 6.899 5.644 12.543 12.543 12.543h34.26c-6.899 0-12.543-5.644-12.543-12.543z" fill="#6353b2"/><path d="m492.212 207.327h-13.469c-6.899 0-12.543 5.644-12.543 12.543h-3.87v15.728l3.879-.662c.092 6.821 5.693 12.374 12.534 12.374h13.469c6.899 0 12.543-5.644 12.543-12.543v-14.897c0-6.899-5.644-12.543-12.543-12.543z" fill="#dbedff"/><path d="m172.134 219.87c0-6.899-5.644-12.543-12.543-12.543h-13.469c-6.899 0-12.543 5.644-12.543 12.543v14.896c0 6.899 5.644 12.543 12.543 12.543h13.469c6.899 0 12.543-5.644 12.543-12.543l3.863.665v-15.561z" fill="#dbedff"/><path d="m492.212 246.309h-13.469c-6.842 0-12.442-5.553-12.534-12.374l-3.879.662v33.925l3.879-.662c.092 6.821 5.693 12.374 12.534 12.374h13.469c6.899 0 12.543-5.644 12.543-12.543v-33.925c0 6.899-5.644 12.543-12.543 12.543z" fill="#b5dcff"/><path d="m159.591 246.309h-13.469c-6.899 0-12.543-5.644-12.543-12.543v33.925c0 6.899 5.644 12.543 12.543 12.543h13.469c6.899 0 12.543-5.644 12.543-12.543l3.863.665v-33.925l-3.863-.665c0 6.899-5.644 12.543-12.543 12.543z" fill="#b5dcff"/><path d="m12.677 459.189c-3.017 1.505-4.923 4.586-4.923 7.958v3.199c0 4.229 4.448 6.981 8.232 5.093l143.384-71.522h15.419v-20.145l-2.654-4.123z" fill="#8479c2"/><path d="m172.134 364.649-159.458 79.54c-3.017 1.505-4.923 4.586-4.923 7.958v16c0-3.372 1.906-6.453 4.923-7.958l159.458-79.54 2.654 4.123v-16z" fill="#6e60b8"/><path d="m466.2 134.42v-48.38c0-7.171-3.907-13.809-10.238-17.175-39.097-20.787-86.156-32.916-136.795-32.916-28.855 0-56.546 3.944-82.266 11.178l-35.905 21.562v319.667l4.397 6.247v4.92h251.769l9.037-4.92v-33.803l-9.037-9.274v-28.217l9.037-9.273v-33.802l-13.537-9.912v-130.317z" fill="#ffc365"/><path d="m205.394 112.24c0-26.447 12.342-49.929 31.507-65.114-19.416 5.461-37.711 12.796-54.529 21.738-6.331 3.366-10.238 10.005-10.238 17.175v48.381l10.029 8.602v127.3l-10.029 9.911v33.802l10.029 9.273v28.217l-10.029 9.274v33.802l3.029 4.92h30.231z" fill="#ffa90f"/><path d="m351.831 75.886h-26.917c-5.357 1.476-9.326 6.391-9.326 12.2v5.389c0 5.809 3.969 10.724 9.326 12.2h26.917c6.755 0 12.282-5.527 12.282-12.282v-5.226c0-6.754-5.527-12.281-12.282-12.281z" fill="#60b9fe"/><path d="m315.971 93.394v-5.226c0-6.755 5.527-12.282 12.282-12.282h-41.75c-6.755 0-12.282 5.527-12.282 12.282v5.226c0 6.755 5.527 12.282 12.282 12.282h41.75c-6.755 0-12.282-5.527-12.282-12.282z" fill="#1ca8ff"/><path d="m200.997 134.42h265.203v145.813h-265.203z" fill="#8479c2"/><path d="m172.134 134.42h33.26v145.813h-33.26z" fill="#6e60b8"/><path d="m304.446 134.42h29.441v145.813h-29.441z" fill="#6e60b8"/><path d="m451.699 314.036c-6.899 0-12.543 5.644-12.543 12.543v21.678c0 6.898 5.643 12.542 12.541 12.543h14.503v-46.764z" fill="#60b9fe"/><path d="m440.156 348.257v-21.678c0-6.899 5.645-12.543 12.543-12.543h-26.044c-6.899 0-12.543 5.644-12.543 12.543v21.678c0 6.899 5.644 12.543 12.543 12.543h26.044c-6.899 0-12.543-5.645-12.543-12.543z" fill="#1ca8ff"/><path d="m211.68 314.036h-10.683v46.764h10.683c6.899 0 12.543-5.645 12.543-12.543v-21.678c0-6.899-5.645-12.543-12.543-12.543z" fill="#60b9fe"/><path d="m172.134 314.036h33.26v46.764h-33.26z" fill="#1ca8ff"/><path d="m472.408 394.602h-105.682l-4.896 2.086h-86l-4.222-2.086h-59.123c-3.621 0-6.557 2.936-6.557 6.557v16.328c0 3.621 2.936 6.557 6.557 6.557h59.123l2.555-4.021h89.833l2.729 4.021h105.682c3.621 0 6.557-2.936 6.557-6.557v-16.328c.001-3.621-2.935-6.557-6.556-6.557z" fill="#dbedff"/><g><path d="m206.928 417.487v-16.328c0-3.621 2.936-6.557 6.557-6.557h-47.559c-3.621 0-6.557 2.936-6.557 6.557v16.328c0 3.621 2.936 6.557 6.557 6.557h47.559c-3.621 0-6.557-2.936-6.557-6.557z" fill="#b5dcff"/></g><path d="m358.974 385.543h-36.866c-4.281.001-7.75 3.472-7.75 7.752v32.054c0 4.281 3.471 7.752 7.752 7.752h36.864c4.281 0 7.752-3.471 7.752-7.752v-32.054c0-4.281-3.471-7.752-7.752-7.752z" fill="#8479c2"/><path d="m315.358 425.35v-32.054c0-4.281 3.471-7.752 7.752-7.752h-43.75c-4.282 0-7.752 3.471-7.752 7.752v32.054c0 4.281 3.471 7.752 7.752 7.752h43.75c-4.281 0-7.752-3.471-7.752-7.752z" fill="#6e60b8"/></g><g><path d="m286.25 113.175h65.329c10.907 0 19.781-8.874 19.781-19.781v-5.227c0-10.908-8.874-19.782-19.781-19.782h-65.329c-10.907 0-19.781 8.874-19.781 19.782v5.227c0 10.907 8.874 19.781 19.781 19.781zm-4.781-25.007c0-2.592 2.189-4.782 4.781-4.782h65.329c2.592 0 4.781 2.19 4.781 4.782v5.227c0 2.592-2.189 4.781-4.781 4.781h-65.329c-2.592 0-4.781-2.189-4.781-4.781z"/><path d="m260.902 330.809h116.023c4.143 0 7.5-3.357 7.5-7.5s-3.357-7.5-7.5-7.5h-116.023c-4.143 0-7.5 3.357-7.5 7.5s3.358 7.5 7.5 7.5z"/><path d="m384.426 351.526c0-4.143-3.357-7.5-7.5-7.5h-116.024c-4.143 0-7.5 3.357-7.5 7.5s3.357 7.5 7.5 7.5h116.023c4.143 0 7.501-3.357 7.501-7.5z"/><path d="m491.959 199.827h-13.469c-1.744 0-3.428.247-5.043.668 0-26.112 0-91.369 0-114.455 0-10.016-5.448-19.134-14.218-23.797-41.581-22.108-90.102-33.794-140.315-33.794s-98.733 11.685-140.314 33.794c-8.77 4.662-14.218 13.78-14.218 23.797v114.455c-1.615-.421-3.299-.668-5.044-.668h-13.469c-11.052 0-20.043 8.991-20.043 20.043v47.82c0 11.053 8.991 20.044 20.043 20.044h13.469c1.745 0 3.429-.247 5.044-.668v72.943l-155.306 77.469c-5.598 2.792-9.076 8.413-9.076 14.668v18.2c0 9.829 10.338 16.168 19.08 11.804l132.536-66.111v1.448c0 7.315 5.618 13.337 12.766 13.991v32.023c0 11.052 8.991 20.043 20.043 20.043h43.433c11.052 0 20.043-8.991 20.043-20.043v-31.958h17.282c2.38 5.33 7.721 9.059 13.925 9.059h22.307c4.143 0 7.5-3.357 7.5-7.5s-3.357-7.5-7.5-7.5h-22.307c-.139 0-.252-.113-.252-.252 0-12.04 0-24.931 0-32.055 0-.139.113-.252.252-.252h79.614c.139 0 .252.113.252.252v32.055c0 .139-.113.252-.252.252h-22.308c-4.143 0-7.5 3.357-7.5 7.5s3.357 7.5 7.5 7.5h22.308c6.204 0 11.545-3.729 13.925-9.059h17.281v31.958c0 11.052 8.991 20.043 20.043 20.043h43.434c11.052 0 20.043-8.991 20.043-20.043v-32.023c7.147-.655 12.765-6.676 12.765-13.991v-16.328c0-7.315-5.618-13.336-12.765-13.991 0-37.923 0-65.313 0-100.102 1.615.421 3.299.668 5.043.668h13.469c11.052 0 20.043-8.991 20.043-20.044v-47.82c-.001-11.052-8.992-20.043-20.044-20.043zm-33.512 153.472h-32.046c-2.733 0-5.043-2.31-5.043-5.043v-21.678c0-2.733 2.31-5.043 5.043-5.043h32.046zm-291.831 63.245c0-3.812 0-10.847 0-14.441h97.239v14.441c-32.306 0-64.735 0-97.239 0zm12.766-95.008h32.045c2.733 0 5.043 2.31 5.043 5.043v21.678c0 2.78-2.263 5.043-5.043 5.043h-32.045zm0-179.615h117.312v130.813h-117.312c0-54.709 0-72.019 0-130.813zm154.253 67.821c-4.143 0-7.5 3.357-7.5 7.5v55.491h-14.441v-130.812h14.441v40.321c0 4.143 3.357 7.5 7.5 7.5s7.5-3.357 7.5-7.5v-40.321h117.313v130.813h-117.313v-55.492c0-4.143-3.358-7.5-7.5-7.5zm-147.994-134.255c39.422-20.959 85.507-32.038 133.273-32.038 47.768 0 93.853 11.079 133.274 32.038 3.86 2.053 6.259 6.097 6.259 10.553v40.881c-34.148 0-120.703 0-154.254 0h-124.811v-40.881c0-4.457 2.398-8.5 6.259-10.553zm-26.303 197.247h-13.469c-2.733 0-5.043-2.31-5.043-5.044v-47.82c0-2.733 2.31-5.043 5.043-5.043h13.469c2.734 0 5.044 2.31 5.044 5.043v47.82c0 2.734-2.31 5.044-5.044 5.044zm-144.338 194.689v-15.277c0-.531.296-1.008.771-1.246l148.61-74.129v10.39c-6.339.571-11.729 5.552-12.631 12.05zm217.9-3.921c0 2.733-2.31 5.043-5.043 5.043h-43.433c-2.733 0-5.043-2.31-5.043-5.043v-31.958h53.519zm46.207-85.458c-5.95 0-11.469 3.526-13.938 9.059h-85.788v-18.803h32.045c11.052 0 20.043-8.991 20.043-20.043v-21.678c0-11.052-8.991-20.043-20.043-20.043h-32.045v-18.802h279.065v18.802h-32.046c-11.052 0-20.043 8.991-20.043 20.043v21.678c0 11.052 8.991 20.043 20.043 20.043h32.046v18.803h-85.788c-2.394-5.364-7.825-9.059-13.938-9.059zm94.867 24.058h97.238v14.441c-32.504 0-64.933 0-97.238 0zm84.473 61.4c0 2.733-2.31 5.043-5.043 5.043h-43.434c-2.733 0-5.043-2.31-5.043-5.043v-31.958h53.52zm38.555-195.812c0 2.734-2.31 5.044-5.043 5.044h-13.469c-2.733 0-5.043-2.31-5.043-5.044v-47.82c0-2.733 2.31-5.043 5.043-5.043h13.469c2.733 0 5.043 2.31 5.043 5.043z"/></g></g></svg>