<svg id="Capa_1" enable-background="new 0 0 512.002 512.002" height="512" viewBox="0 0 512.002 512.002" width="512" xmlns="http://www.w3.org/2000/svg"><g><g><path d="m216.412 40.526v88.599l15.625 4.838 2.145-.78v-82.576c0-7.945-6.356-14.461-14.232-14.756z" fill="#9790cc"/><path d="m219.95 35.85c-.185-.007-.366-.028-.552-.028h-15.603l-.077 5.579v83.793l16.232 5.026z" fill="#8479c2"/><path d="m322.849 151.276 4.179-3.25v-3.514c0-6.231-5.098-11.329-11.329-11.329h-81.517v5.348l10.607 10.362z" fill="#9790cc"/><path d="m243.902 148.026 18.427 18h62.432l2.266-2.462v-15.538z" fill="#8479c2"/><path d="m168.634 24.138c10.968 0 19.859 8.891 19.859 19.859v82.862h14.336l1.825-3.421v-79.806c0-19.923-16.209-36.132-36.132-36.132h-8.923l-3.187 2.901v13.737z" fill="#dbedff"/><path d="m168.522 35.822c4.306 0 7.81 3.503 7.81 7.809v79.807l2.497 3.421h11.664v-84.861c0-10.968-8.891-19.859-19.859-19.859h-14.221v9.763l3.187 3.921h8.922z" fill="#b5dcff"/><path d="m159.599 24.138v-16.638h-29.568c-7.821 0-14.161 6.34-14.161 14.161 0 .847.088 1.672.23 2.477z" fill="#9790cc"/><path d="m159.599 22.138h-43.705c.254 7.598 6.477 13.684 14.137 13.684h29.568z" fill="#8479c2"/><path d="m315.481 179.026c4.686 0 8.844 3.001 10.321 7.447l22.527 67.818 10.939-.861 4.478-1.953-21.406-72.25c-2.638-8.932-12.735-17.529-24.984-17.529h-50.526v3.328l5.185 14z" fill="#dbedff"/><path d="m275.162 187.526 5.443 2.495h33.793c.949 0 1.786.625 2.056 1.535l18.315 61.819 4.227 1.652 11.931-.939-23.124-69.614c-1.477-4.447-5.636-7.447-10.321-7.447h-46.208z" fill="#b5dcff"/><path d="m375.124 269.592h40.567c.093-.655.157-1.319.157-2 0-7.821-6.34-14.161-14.161-14.161h-34.329-.885l-1.729 4.012 8.833 8.083z" fill="#dbedff"/><path d="m379.746 281.753h1.838 20.104c7.821 0 14.161-6.34 14.161-14.161h-41.485z" fill="#b5dcff"/><path d="m360.64 250.259c-10.709 5.313-18.075 16.351-18.075 29.116s7.365 23.803 18.075 29.116c12.221-4.036 21.044-15.542 21.044-29.116s-8.822-25.08-21.044-29.116z" fill="#6e60b8"/><path d="m343.699 279.375c0-12.802 7.848-23.767 18.993-28.359-3.598-1.483-7.538-2.306-11.672-2.306-16.936 0-30.664 13.729-30.664 30.665s13.729 30.665 30.664 30.665c4.134 0 8.073-.823 11.672-2.306-11.145-4.592-18.993-15.557-18.993-28.359z" fill="#6353b2"/><path d="m197.448 197.195c-7.08 3.402-11.974 10.63-11.974 19.01s4.894 15.608 11.974 19.01c7.758-2.841 13.306-10.268 13.306-19.01s-5.547-16.169-13.306-19.01z" fill="#6e60b8"/><path d="m185.981 216.205c0-8.397 5.108-15.6 12.386-18.673-2.421-1.022-5.082-1.588-7.875-1.588-11.19 0-20.261 9.071-20.261 20.261s9.071 20.261 20.261 20.261c2.793 0 5.454-.566 7.875-1.588-7.277-3.073-12.386-10.276-12.386-18.673z" fill="#6353b2"/><path d="m190.492 122.371c-.135 0-.268.005-.403.005-43.881 8.673-77.078 47.441-77.078 93.829 0 46.389 33.197 85.157 77.078 93.83.134.001.268.005.402.005 51.741 0 93.835-42.094 93.835-93.835s-42.093-93.834-93.834-93.834zm0 159.453c-36.182 0-65.619-29.437-65.619-65.619s29.437-65.619 65.619-65.619c36.183 0 65.619 29.436 65.619 65.619s-29.436 65.619-65.619 65.619z" fill="#ff76aa"/><g><path d="m114.658 216.205c0-48.705 37.301-88.856 84.834-93.401-2.963-.283-5.964-.434-9-.434-51.74 0-93.834 42.094-93.834 93.834s42.094 93.835 93.834 93.835c3.036 0 6.037-.15 9-.434-47.534-4.544-84.834-44.695-84.834-93.4z" fill="#ff5595"/></g><path d="m409.502 310.04h-244.395c-3.505 0-6.347 2.842-6.347 6.347v15.629c0 3.505 2.842 6.347 6.347 6.347h244.395c3.505 0 6.347-2.842 6.347-6.347v-15.629c0-3.506-2.842-6.347-6.347-6.347z" fill="#ffc365"/><path d="m409.502 476.18h-244.395c-3.505 0-6.347 2.842-6.347 6.347v15.629c0 3.505 2.842 6.347 6.347 6.347h244.395c3.505 0 6.347-2.842 6.347-6.347v-15.629c0-3.506-2.842-6.347-6.347-6.347z" fill="#ffc365"/><g fill="#ffa90f"><path d="m160.76 332.015v-15.629c0-3.505 2.842-6.347 6.347-6.347h-64.102c-3.505 0-6.347 2.842-6.347 6.347v15.629c0 3.505 2.842 6.347 6.347 6.347h64.102c-3.505 0-6.347-2.842-6.347-6.347z"/><path d="m160.76 498.155v-15.629c0-3.505 2.842-6.347 6.347-6.347h-64.102c-3.505 0-6.347 2.842-6.347 6.347v15.629c0 3.505 2.842 6.347 6.347 6.347h64.102c-3.505 0-6.347-2.842-6.347-6.347z"/></g></g><g><path d="m190.239 143.086c-40.317 0-73.118 32.801-73.118 73.119s32.801 73.119 73.118 73.119c40.318 0 73.12-32.801 73.12-73.119s-32.801-73.119-73.12-73.119zm46.193 108.336-21.863-21.862c1.072-1.945 1.916-4.031 2.499-6.224h30.838c-1.288 10.473-5.364 20.091-11.474 28.086zm-103.858-28.086h30.837c.583 2.192 1.427 4.278 2.499 6.223l-21.862 21.863c-6.11-7.995-10.186-17.613-11.474-28.086zm11.799-42.761 21.807 21.808c-1.073 1.86-1.937 3.854-2.558 5.953h-30.953c1.41-10.369 5.562-19.872 11.704-27.761zm45.867 48.392c-7.037 0-12.762-5.725-12.762-12.762s5.725-12.762 12.762-12.762c7.036 0 12.761 5.725 12.761 12.762s-5.725 12.762-12.761 12.762zm13.354-37.092c-1.835-1.011-3.797-1.816-5.854-2.394v-30.895c10.33 1.338 19.816 5.389 27.716 11.427zm-20.854-2.394c-2.057.578-4.02 1.383-5.855 2.394l-21.862-21.863c7.9-6.038 17.387-10.089 27.717-11.427zm-6.323 50.784c1.969 1.136 4.089 2.036 6.323 2.664v30.895c-10.512-1.361-20.148-5.537-28.13-11.752zm21.323 2.664c2.234-.628 4.353-1.528 6.322-2.664l21.807 21.807c-7.982 6.215-17.618 10.39-28.13 11.752v-30.895zm19.118-34.593c-.622-2.099-1.486-4.093-2.559-5.954l21.808-21.807c6.142 7.889 10.294 17.392 11.705 27.761z"/><path d="m351.516 271.875h-1.497c-4.143 0-7.5 3.357-7.5 7.5s3.357 7.5 7.5 7.5h1.497c4.143 0 7.5-3.357 7.5-7.5s-3.358-7.5-7.5-7.5z"/><path d="m102.752 468.68c-7.635 0-13.847 6.212-13.847 13.847v15.629c0 7.635 6.212 13.847 13.847 13.847h135.749c4.143 0 7.5-3.357 7.5-7.5s-3.357-7.5-7.5-7.5h-134.596v-13.323h304.191v13.322h-134.595c-4.143 0-7.5 3.357-7.5 7.5s3.357 7.5 7.5 7.5h135.748c7.636 0 13.848-6.212 13.848-13.847v-15.629c0-7.635-6.212-13.847-13.848-13.847h-25.028l-100.514-26.955 101.468-27.21c3.222-.866 5.551-3.785 5.551-7.244 0-3.491-2.404-6.403-5.551-7.244l-101.468-27.21 100.513-26.954h25.028c7.636 0 13.848-6.212 13.848-13.847v-15.629c0-7.635-6.212-13.847-13.848-13.847h-28.18c2.993-3.907 5.25-8.404 6.559-13.287h13.807c11.943 0 21.66-9.717 21.66-21.661s-9.717-21.661-21.66-21.661h-31.763l-6.135-20.71c-1.178-3.971-5.348-6.235-9.322-5.061-3.971 1.177-6.236 5.351-5.061 9.322l3.488 11.773c-4.654-.226-9.355.446-13.382 1.729l-16.322-55.095c-.944-3.185-3.87-5.369-7.191-5.369h-29.933c-1.61-4.54-3.553-9.02-5.816-13.321h37.105c8.258 0 15.938 5.879 17.793 12.158l4.287 14.473c1.177 3.971 5.348 6.235 9.321 5.062 3.972-1.177 6.237-5.35 5.062-9.321l-4.286-14.468c-2.242-7.588-7.856-14.087-15.006-18.204v-14.385c0-10.383-8.446-18.829-18.829-18.829h-11.538v-14.305c0-14.79-12.033-26.823-26.823-26.823h-35.655v-33.95c0-12.287-9.997-22.284-22.284-22.284h-10.023c-6.214-16.528-22.178-28.322-40.851-28.322-14.278 0-24.042 0-38.491 0-11.944 0-21.661 9.717-21.661 21.661s9.717 21.661 21.661 21.661h38.491c.165 0 .31.145.31.31v73.577c-45.503 9.948-79.674 50.553-79.674 98.996 0 36.461 19.359 68.481 48.334 86.335h-34.488c-7.635 0-13.847 6.212-13.847 13.847v15.629c0 7.635 6.212 13.847 13.847 13.847h22.529l100.513 26.954-101.468 27.21c-3.326.892-5.728 4.042-5.547 7.622.17 3.282 2.439 6.031 5.547 6.866l101.468 27.21-100.513 26.955zm224.851-189.305c0-12.878 10.508-23.164 23.165-23.164 13.358 0 24.137 11.394 23.086 24.966-.001.008 0 .017 0 .025-.936 11.922-10.928 21.338-23.085 21.338-12.775 0-23.166-10.392-23.166-23.165zm73.833-18.444c3.673 0 6.66 2.988 6.66 6.661s-2.987 6.661-6.66 6.661h-12.844c-.586-4.376-2.043-9.077-4.388-13.322zm-91.29-63.41 15.698 52.988c-8.101 7.003-13.242 17.342-13.242 28.866 0 8.706 2.937 16.736 7.863 23.165h-77.225c28.976-17.854 48.335-49.874 48.335-86.335 0-6.382-.6-12.626-1.733-18.685h20.304zm-98.245-80.318v-17.647h14.527v21.997c-4.752-1.82-9.727-3.301-14.527-4.35zm58.436 36.995c-3.751-4.82-7.951-9.347-12.61-13.515h31.18v13.515zm45.108-13.514c2.075 0 3.829 1.754 3.829 3.829v9.758c-.102-.007-1.318-.072-2.171-.072h-13.196v-13.515zm-38.361-41.128c6.52 0 11.823 5.304 11.823 11.823v14.305h-47.479v-26.128zm-65.184-56.234h7.244c4.017 0 7.284 3.268 7.284 7.284v33.949h-14.527v-40.923c0-.104 0-.206-.001-.31zm-82.122-15c-3.673 0-6.661-2.988-6.661-6.661s2.988-6.661 6.661-6.661h22.068v13.322zm53.801 86.767v-71.457c0-8.441-6.868-15.31-15.31-15.31h-1.423v-13.322h1.423c15.869 0 28.632 12.947 28.632 28.632v71.457c-4.398-.289-8.992-.283-13.322 0zm-79.674 101.116c0-47.822 39.076-86.643 86.916-86.319 47.725.318 85.754 39.298 85.754 86.319 0 47.605-38.73 86.335-86.336 86.335-47.604 0-86.334-38.729-86.334-86.335zm0 101.335h304.191v13.322h-304.191zm79.289 28.322h143.114l-71.557 19.189zm-27.968 61.409 99.525-26.689 99.525 26.689-99.525 26.69zm99.525 42.219 71.558 19.19h-143.116z"/></g></g></svg>