<svg id="Capa_1" enable-background="new 0 0 512.002 512.002" height="512" viewBox="0 0 512.002 512.002" width="512" xmlns="http://www.w3.org/2000/svg"><g><g><path d="m148.086 110.315-3.989 3.544v163.167h18.667l5.435-3.96v-138.971c0-11.901-8.738-21.855-20.113-23.78z" fill="#9790cc"/><path d="m148.086 110.315c-1.305-.221-2.643-.342-4.009-.342h-21.108l-2.974 9.386v135.479l5.333 22.187h22.758z" fill="#8479c2"/><path d="m306.411 291.796 4.176-2.209c-2.795-9.518-11.624-16.521-22.014-16.521h-159.417l-2.328 4.793 6.826 13.937z" fill="#8479c2"/><path d="m132.572 289.587 10.256 20.939h163.958l4.727-1.962v-12.558c0-2.227-.328-4.38-.927-6.419z" fill="#6e60b8"/><path d="m136.293 43.322c5.363 0 9.943-3.445 11.683-8.225-.762-5.911-5.837-10.521-11.946-10.521h-28.131v18.746z" fill="#9790cc"/><path d="m136.03 43.02h-28.131v21.743h28.131c6.631 0 12.056-5.425 12.056-12.056v-16.075c0-.977-.131-1.923-.353-2.834-1.285 5.273-6.049 9.222-11.703 9.222z" fill="#8479c2"/><path d="m288.113 198.72h-42.002c-5.052 1.608-8.74 6.354-8.74 11.921v19.404h57.33c1.864 0 3.705-.286 5.469-.827v-18.442c-.001-6.631-5.426-12.056-12.057-12.056z" fill="#9790cc"/><path d="m249.878 198.72h-39c-6.631 0-12.056 5.425-12.056 12.056v19.269h39v-19.269c0-6.631 5.425-12.056 12.056-12.056z" fill="#8479c2"/><path d="m106.661 264.526 31 63h183l7.858-5.358c-.738-7.635-7.168-13.604-14.996-13.604h-162.71c-4.673 0-8.798-2.81-10.508-7.157l-12.718-32.332c-2.469-6.276-3.939-12.817-4.424-19.499l-7.693-2.05h-8.808v17z" fill="#dbedff"/><path d="m328.519 322.168h-177.775c-8.328 0-15.945-4.693-19.688-12.132l-13.058-25.945c-5.744-11.413-9.102-23.854-9.905-36.565h-12.307l-2.812 2.316c.544 10.382 2.738 20.542 6.563 30.266l12.719 32.333c6.276 15.954 21.41 26.263 38.555 26.263v5.655h169.516l3.226-9.5c3.086-2.76 5.039-6.759 5.039-11.224.001-.495-.026-.984-.073-1.467z" fill="#b5dcff"/><path d="m106.661 96.651v115.875h14.875l1.433-2.165v-101.057c0-8.323-6.747-15.07-15.07-15.07z" fill="#dbedff"/><path d="m107.899 212.526v-118.292c-8.323 0-15.07 6.747-15.07 15.07v101.057l2.083 2.165z" fill="#b5dcff"/><path d="m119.17 207.963c-7.235 4.688-12.03 12.819-12.03 22.082s4.795 17.394 12.03 22.082c8.025-4.105 13.523-12.449 13.523-22.082 0-9.634-5.498-17.978-13.523-22.082z" fill="#60b9fe"/><path d="m107.899 230.045c0-9.176 4.988-17.181 12.397-21.469-3.648-2.111-7.879-3.325-12.397-3.325-13.693 0-24.794 11.101-24.794 24.794 0 13.694 11.101 24.794 24.794 24.794 4.518 0 8.75-1.214 12.397-3.325-7.409-4.288-12.397-12.294-12.397-21.469z" fill="#1ca8ff"/><g><path d="m101.334 338.705c-5.454 2.349-9.274 7.768-9.274 14.083v17.839c1.857-.167 3.784-.267 5.799-.267 26.803 0 64.136 18.667 64.136 66l5.777 5.492h60.918l5.971-7.69s2.682-70.755 65.508-87.946v-7.511c-5.878 0-90.444 0-198.835 0z" fill="#ff76aa"/></g><g><path d="m92.822 353.273c0-8.046 6.522-14.568 14.568-14.568-13.699 0-27.797 0-42.189 0-8.046 0-14.568 6.522-14.568 14.568v28.762l7.696 4.324s11.133-13.989 34.494-15.804v-17.282z" fill="#ff5595"/></g><path d="m343.814 336.053c-31.142 7.099-57.082 28.615-70.134 57.213h2.224c9.556-13.776 25.631-25.49 52.689-25.49 65.696 0 65.818 69.5 65.818 69.5l3.3 4.575h21.775c4.22 0 7.708-3.392 7.711-7.612 0-.026 0-.052 0-.078 0-49.443-36.103-90.448-83.383-98.108z" fill="#dbedff"/><g><path d="m346.876 336.598c-6.239-1.213-12.683-1.849-19.28-1.836-52.805.104-96.716 42.082-99.096 94.833-.187 4.144-.117 8.234.191 12.257h29.193l4.028-5.038s.313-21.659 12.13-40.714c12.671-30.345 39.997-53.084 72.834-59.502z" fill="#b5dcff"/></g><path d="m105.371 364.226c-31.99 7.209-55.893 35.768-55.893 69.936s23.903 62.727 55.893 69.936c35.314-3.751 62.827-33.627 62.827-69.936s-27.512-66.185-62.827-69.936z" fill="#6e60b8"/><path d="m50.632 434.162c0-34.91 25.437-63.864 58.783-69.379-3.762-.622-7.619-.961-11.557-.961-38.848 0-70.34 31.492-70.34 70.34s31.492 70.34 70.34 70.34c3.938 0 7.795-.339 11.557-.961-33.346-5.515-58.783-34.469-58.783-69.379z" fill="#6353b2"/><path d="m109.368 401.112c-12.694 5.609-21.57 18.279-21.57 33.05s8.875 27.441 21.57 33.05c13.672-4.761 23.486-17.755 23.486-33.05s-9.814-28.288-23.486-33.05z" fill="#dbedff"/><path d="m88.529 434.162c0-14.796 9.187-27.438 22.163-32.557-3.975-1.568-8.301-2.439-12.833-2.439-19.328 0-34.996 15.668-34.996 34.996s15.668 34.996 34.996 34.996c4.532 0 8.858-.871 12.833-2.439-12.977-5.12-22.163-17.761-22.163-32.557z" fill="#b5dcff"/><path d="m335.31 364.226c-31.99 7.209-55.893 35.768-55.893 69.936s23.903 62.727 55.893 69.936c35.314-3.751 62.827-33.627 62.827-69.936s-27.513-66.185-62.827-69.936z" fill="#6e60b8"/><path d="m280.571 434.162c0-34.91 25.437-63.864 58.783-69.379-3.762-.622-7.619-.961-11.557-.961-38.848 0-70.34 31.492-70.34 70.34s31.492 70.34 70.34 70.34c3.938 0 7.795-.339 11.557-.961-33.346-5.515-58.783-34.469-58.783-69.379z" fill="#6353b2"/><path d="m339.307 401.112c-12.694 5.609-21.57 18.279-21.57 33.05s8.875 27.441 21.57 33.05c13.672-4.761 23.486-17.755 23.486-33.05s-9.815-28.288-23.486-33.05z" fill="#dbedff"/><path d="m318.467 434.162c0-14.796 9.187-27.438 22.163-32.557-3.975-1.568-8.301-2.439-12.833-2.439-19.328 0-34.996 15.668-34.996 34.996s15.668 34.996 34.996 34.996c4.532 0 8.858-.871 12.833-2.439-12.976-5.12-22.163-17.761-22.163-32.557z" fill="#b5dcff"/></g><g><path d="m97.606 391.666c-23.433 0-42.496 19.063-42.496 42.496s19.063 42.496 42.496 42.496 42.496-19.063 42.496-42.496-19.064-42.496-42.496-42.496zm0 69.992c-15.161 0-27.496-12.335-27.496-27.496s12.335-27.496 27.496-27.496 27.496 12.335 27.496 27.496-12.335 27.496-27.496 27.496z"/><path d="m370.04 434.162c0-23.433-19.063-42.496-42.496-42.496s-42.496 19.063-42.496 42.496 19.063 42.496 42.496 42.496 42.496-19.063 42.496-42.496zm-42.496 27.496c-15.161 0-27.496-12.335-27.496-27.496s12.335-27.496 27.496-27.496 27.496 12.335 27.496 27.496-12.335 27.496-27.496 27.496z"/><path d="m481.914 403.758-48.02 19.49c-5.161-51.228-46.596-91.917-98.406-95.697 2.105-11.848-5.465-22.981-16.727-25.807v-5.737c0-16.784-13.655-30.439-30.44-30.439h-112.876v-28.021h119.002c4.861 0 9.803-1.37 14.12-4.139l44.25-28.373c3.486-2.235 4.501-6.875 2.265-10.362-2.236-3.486-6.875-4.5-10.361-2.265l-37.305 23.92v-5.55c0-10.783-8.772-19.557-19.556-19.557h-77.235c-10.783 0-19.556 8.773-19.556 19.557v11.769h-15.624v-37.429c0-4.143-3.357-7.5-7.5-7.5s-7.5 3.357-7.5 7.5v37.429h-21.383c-1.398-5.915-4.434-11.305-8.847-15.598v-89.474h13.608c9.165 0 16.621 7.457 16.621 16.622v16.021c0 4.143 3.357 7.5 7.5 7.5s7.5-3.357 7.5-7.5v-16.021c0-17.437-14.186-31.622-31.621-31.622h-14.668c-2.144-6.735-7.368-12.105-14.01-14.453v-15.758h20.631c10.783 0 19.556-8.773 19.556-19.557v-16.075c0-10.783-8.772-19.556-19.556-19.556h-20.631v-9.576c0-4.143-3.357-7.5-7.5-7.5s-7.5 3.357-7.5 7.5v80.521c-8.769 3.099-15.07 11.468-15.07 21.284v97.673c-5.995 5.866-9.725 14.038-9.725 23.068 0 9.224 3.894 17.551 10.117 23.442.844 10.075 3.129 19.94 6.837 29.368l12.719 32.334c2.401 6.103 5.905 11.5 10.225 16.017h-50.301c-12.168 0-22.067 9.899-22.067 22.067v25.598c-14.261 14.117-23.114 33.688-23.114 55.292 0 42.921 34.919 77.84 77.84 77.84 37.723 0 69.255-26.977 76.341-62.65h77.259c5.735 28.947 27.559 52.687 56.978 60.22 4.012 1.03 8.099-1.394 9.126-5.405 1.027-4.013-1.393-8.099-5.405-9.126-27.779-7.113-47.2-32.169-47.2-60.878 0-34.65 28.189-62.841 62.84-62.841 4.331 0 8.562.44 12.649 1.279 28.609 5.869 50.191 31.243 50.191 61.562 0 28.56-19.281 53.729-47.2 60.878-4.013 1.027-6.433 5.113-5.405 9.126 1.029 4.016 5.119 6.434 9.126 5.405 29.42-7.533 51.245-31.273 56.979-60.22h15.35c6.456 0 11.973-4.028 14.177-9.72l54.145-21.976c3.838-1.558 5.687-5.932 4.129-9.77-1.559-3.839-5.931-5.688-9.772-4.13zm-275.845-192.982c0-2.47 2.086-4.557 4.556-4.557h77.235c2.47 0 4.556 2.087 4.556 4.557v11.769h-86.347zm97.692 85.23v5.059h-153.201c-1.594 0-2.945-.921-3.528-2.402l-7.118-18.096h148.407c8.513-.001 15.44 6.925 15.44 15.439zm-196.114-48.667c-9.45 0-17.295-7.701-17.295-17.294 0-9.538 7.793-17.294 17.295-17.294 9.51 0 17.294 7.745 17.294 17.294 0 9.527-7.773 17.294-17.294 17.294zm52.798 18.227h-26.416c-1.558-4.137-2.646-8.324-3.264-12.976 4.113-4.2 6.958-9.386 8.298-15.046h21.382zm-24.668-233.49c2.47 0 4.556 2.086 4.556 4.556v16.075c0 2.47-2.086 4.557-4.556 4.557h-20.631v-25.188zm-35.701 166.562v-89.333c0-4.174 3.396-7.57 7.57-7.57s7.569 3.396 7.569 7.57v.669 88.664c-5.028-1.205-10.42-1.132-15.139 0zm18.908 111.059-12.719-32.333c-1.989-5.057-3.505-10.261-4.537-15.563 5.187.956 10.601.584 15.297-.839 1.671 7.445 3.983 12.329 4.899 14.85l.001.001 11.148 28.338c2.846 7.236 9.71 11.912 17.487 11.912h162.71c5.941 0 9.505 6.542 6.475 11.482-7.128.52-14.133 1.754-20.93 3.659h-148.255c-14.042.001-26.437-8.441-31.576-21.507zm-21.378 187.305c-34.65 0-62.84-28.189-62.84-62.84 0-34.636 28.175-62.84 62.84-62.84 34.642 0 62.84 28.181 62.84 62.84-.001 34.541-28.101 62.84-62.84 62.84zm77.839-62.65c0-.063 0-.126 0-.189 0-42.922-34.919-77.841-77.84-77.841-13.659 0-27.502 3.628-39.726 10.892v-13.94c0-3.897 3.17-7.067 7.067-7.067h201.917c-28.465 19.635-46.307 52.33-46.219 88.146h-45.199zm243.789 0h-13.85c0-.048 0-.095 0-.143 0-.016.001-.031.001-.046 0-42.922-34.919-77.841-77.841-77.841-42.616 0-77.84 34.539-77.84 78.03h-14.048c-.161-51.064 41.503-91.989 91.702-92.09h.187c50.509 0 91.899 40.784 91.901 91.976-.001-.001-.062.114-.212.114z"/></g></g></svg>