<svg id="Capa_1" enable-background="new 0 0 512.002 512.002" height="512" viewBox="0 0 512.002 512.002" width="512" xmlns="http://www.w3.org/2000/svg"><g><g><path d="m491.044 82.437h-23.997l-15.385 7.128h-388.392v334.252c0 5.661 3.383 10.559 8.221 12.806h151.922c4.75 0 9.216 2.488 11.517 6.643 4.154 7.5 12.143 12.578 21.323 12.578s17.17-5.079 21.323-12.578c2.301-4.155 6.767-6.643 11.517-6.643h201.95c7.541 0 13.71-6.17 13.71-13.71v-326.765c.002-7.541-6.168-13.711-13.709-13.711z" fill="#60b9fe"/><g><path d="m63.682 422.912v-326.764c0-2.382.618-4.625 1.698-6.582h-7.718l-12.202-7.129h-23.997c-7.541 0-13.71 6.17-13.71 13.71v326.765c0 7.541 6.17 13.71 13.71 13.71h55.929c-7.54.001-13.71-6.169-13.71-13.71z" fill="#1ca8ff"/></g><path d="m455.463 56.159h-123.838c-8.621 0-17.115 1.121-25.297 3.261l-4.667 8.107v308.833l9.925-5h140.742l14.718-13.72v-289.897c.001-6.398-5.185-11.584-11.583-11.584z" fill="#dbedff"/><path d="m306.329 59.42c-19.241 5.032-36.749 15.735-50.075 31.015l-11.925 2.925v285.078l11.925 20.798 50.075-25.227z" fill="#b5dcff"/><path d="m180.882 56.159h-84.45l-6.27 6.868v305h106.397l59.694 31.209v-308.801c-18.992-21.777-46.475-34.276-75.371-34.276z" fill="#dbedff"/><path d="m96.432 56.159h-39.388c-6.397 0-11.584 5.186-11.584 11.584v289.897l13.71 10.387h37.262z" fill="#b5dcff"/><path d="m90.162 389.027 6.27 10.209h159.822c-18.992-21.778-46.476-41.596-75.372-41.596h-90.72z" fill="#b5dcff"/><path d="m96.432 357.64h-50.972v30.013c0 6.398 5.186 11.584 11.584 11.584h39.388z" fill="#8bcaff"/><path d="m331.625 357.64c-10.273 0-20.365 2.514-29.963 6.722v28.165l4.667 6.709h149.134c6.397 0 11.584-5.186 11.584-11.584v-30.012z" fill="#b5dcff"/><path d="m306.329 362.469c-19.241 7.182-36.75 21.487-50.075 36.767h50.075z" fill="#8bcaff"/></g><g><path d="m92.22 110.273c0-4.143-3.357-7.5-7.5-7.5s-7.5 3.357-7.5 7.5v5.5c0 4.143 3.357 7.5 7.5 7.5s7.5-3.357 7.5-7.5z"/><path d="m125.303 110.273c0-4.143-3.357-7.5-7.5-7.5s-7.5 3.357-7.5 7.5v5.5c0 4.143 3.357 7.5 7.5 7.5s7.5-3.357 7.5-7.5z"/><path d="m217.053 123.273c4.143 0 7.5-3.357 7.5-7.5v-5.5c0-4.143-3.357-7.5-7.5-7.5s-7.5 3.357-7.5 7.5v5.5c0 4.143 3.357 7.5 7.5 7.5z"/><path d="m92.22 150.086c0-4.143-3.357-7.5-7.5-7.5s-7.5 3.357-7.5 7.5v5.5c0 4.143 3.357 7.5 7.5 7.5s7.5-3.357 7.5-7.5z"/><path d="m125.303 150.086c0-4.143-3.357-7.5-7.5-7.5s-7.5 3.357-7.5 7.5v5.5c0 4.143 3.357 7.5 7.5 7.5s7.5-3.357 7.5-7.5z"/><path d="m150.886 163.086c4.143 0 7.5-3.357 7.5-7.5v-5.5c0-4.143-3.357-7.5-7.5-7.5s-7.5 3.357-7.5 7.5v5.5c0 4.143 3.357 7.5 7.5 7.5z"/><path d="m209.553 155.586c0 4.143 3.357 7.5 7.5 7.5s7.5-3.357 7.5-7.5v-5.5c0-4.143-3.357-7.5-7.5-7.5s-7.5 3.357-7.5 7.5z"/><path d="m92.22 189.9c0-4.143-3.357-7.5-7.5-7.5s-7.5 3.357-7.5 7.5v5.5c0 4.143 3.357 7.5 7.5 7.5s7.5-3.357 7.5-7.5z"/><path d="m143.386 195.4c0 4.143 3.357 7.5 7.5 7.5s7.5-3.357 7.5-7.5v-5.5c0-4.143-3.357-7.5-7.5-7.5s-7.5 3.357-7.5 7.5z"/><path d="m209.553 195.4c0 4.143 3.357 7.5 7.5 7.5s7.5-3.357 7.5-7.5v-5.5c0-4.143-3.357-7.5-7.5-7.5s-7.5 3.357-7.5 7.5z"/><path d="m183.97 202.9c4.143 0 7.5-3.357 7.5-7.5v-5.5c0-4.143-3.357-7.5-7.5-7.5s-7.5 3.357-7.5 7.5v5.5c0 4.142 3.357 7.5 7.5 7.5z"/><path d="m92.22 229.713c0-4.143-3.357-7.5-7.5-7.5s-7.5 3.357-7.5 7.5v5.5c0 4.143 3.357 7.5 7.5 7.5s7.5-3.357 7.5-7.5z"/><path d="m125.303 229.713c0-4.143-3.357-7.5-7.5-7.5s-7.5 3.357-7.5 7.5v5.5c0 4.143 3.357 7.5 7.5 7.5s7.5-3.357 7.5-7.5z"/><path d="m143.386 235.213c0 4.143 3.357 7.5 7.5 7.5s7.5-3.357 7.5-7.5v-5.5c0-4.143-3.357-7.5-7.5-7.5s-7.5 3.357-7.5 7.5z"/><path d="m209.553 235.213c0 4.143 3.357 7.5 7.5 7.5s7.5-3.357 7.5-7.5v-5.5c0-4.143-3.357-7.5-7.5-7.5s-7.5 3.357-7.5 7.5z"/><path d="m176.47 235.213c0 4.143 3.357 7.5 7.5 7.5s7.5-3.357 7.5-7.5v-5.5c0-4.143-3.357-7.5-7.5-7.5s-7.5 3.357-7.5 7.5z"/><path d="m125.303 269.527c0-4.143-3.357-7.5-7.5-7.5s-7.5 3.357-7.5 7.5v5.5c0 4.143 3.357 7.5 7.5 7.5s7.5-3.357 7.5-7.5z"/><path d="m143.386 275.027c0 4.143 3.357 7.5 7.5 7.5s7.5-3.357 7.5-7.5v-5.5c0-4.143-3.357-7.5-7.5-7.5s-7.5 3.357-7.5 7.5z"/><path d="m209.553 275.027c0 4.143 3.357 7.5 7.5 7.5s7.5-3.357 7.5-7.5v-5.5c0-4.143-3.357-7.5-7.5-7.5s-7.5 3.357-7.5 7.5z"/><path d="m176.47 275.027c0 4.143 3.357 7.5 7.5 7.5s7.5-3.357 7.5-7.5v-5.5c0-4.143-3.357-7.5-7.5-7.5s-7.5 3.357-7.5 7.5z"/><path d="m84.72 301.839c-4.143 0-7.5 3.357-7.5 7.5v5.5c0 4.143 3.357 7.5 7.5 7.5s7.5-3.357 7.5-7.5v-5.5c0-4.142-3.358-7.5-7.5-7.5z"/><path d="m117.803 301.839c-4.143 0-7.5 3.357-7.5 7.5v5.5c0 4.143 3.357 7.5 7.5 7.5s7.5-3.357 7.5-7.5v-5.5c0-4.142-3.358-7.5-7.5-7.5z"/><path d="m209.553 314.839c0 4.143 3.357 7.5 7.5 7.5s7.5-3.357 7.5-7.5v-5.5c0-4.143-3.357-7.5-7.5-7.5s-7.5 3.357-7.5 7.5z"/><path d="m294.949 123.273c4.143 0 7.5-3.357 7.5-7.5v-5.5c0-4.143-3.357-7.5-7.5-7.5s-7.5 3.357-7.5 7.5v5.5c0 4.143 3.358 7.5 7.5 7.5z"/><path d="m361.116 123.273c4.143 0 7.5-3.357 7.5-7.5v-5.5c0-4.143-3.357-7.5-7.5-7.5s-7.5 3.357-7.5 7.5v5.5c0 4.143 3.358 7.5 7.5 7.5z"/><path d="m427.282 123.273c4.143 0 7.5-3.357 7.5-7.5v-5.5c0-4.143-3.357-7.5-7.5-7.5s-7.5 3.357-7.5 7.5v5.5c0 4.143 3.358 7.5 7.5 7.5z"/><path d="m394.199 123.273c4.143 0 7.5-3.357 7.5-7.5v-5.5c0-4.143-3.357-7.5-7.5-7.5s-7.5 3.357-7.5 7.5v5.5c0 4.143 3.358 7.5 7.5 7.5z"/><path d="m294.949 163.086c4.143 0 7.5-3.357 7.5-7.5v-5.5c0-4.143-3.357-7.5-7.5-7.5s-7.5 3.357-7.5 7.5v5.5c0 4.143 3.358 7.5 7.5 7.5z"/><path d="m427.282 163.086c4.143 0 7.5-3.357 7.5-7.5v-5.5c0-4.143-3.357-7.5-7.5-7.5s-7.5 3.357-7.5 7.5v5.5c0 4.143 3.358 7.5 7.5 7.5z"/><path d="m394.199 163.086c4.143 0 7.5-3.357 7.5-7.5v-5.5c0-4.143-3.357-7.5-7.5-7.5s-7.5 3.357-7.5 7.5v5.5c0 4.143 3.358 7.5 7.5 7.5z"/><path d="m294.949 202.9c4.143 0 7.5-3.357 7.5-7.5v-5.5c0-4.143-3.357-7.5-7.5-7.5s-7.5 3.357-7.5 7.5v5.5c0 4.142 3.358 7.5 7.5 7.5z"/><path d="m328.032 202.9c4.143 0 7.5-3.357 7.5-7.5v-5.5c0-4.143-3.357-7.5-7.5-7.5s-7.5 3.357-7.5 7.5v5.5c0 4.142 3.358 7.5 7.5 7.5z"/><path d="m361.116 202.9c4.143 0 7.5-3.357 7.5-7.5v-5.5c0-4.143-3.357-7.5-7.5-7.5s-7.5 3.357-7.5 7.5v5.5c0 4.142 3.358 7.5 7.5 7.5z"/><path d="m394.199 202.9c4.143 0 7.5-3.357 7.5-7.5v-5.5c0-4.143-3.357-7.5-7.5-7.5s-7.5 3.357-7.5 7.5v5.5c0 4.142 3.358 7.5 7.5 7.5z"/><path d="m294.949 242.713c4.143 0 7.5-3.357 7.5-7.5v-5.5c0-4.143-3.357-7.5-7.5-7.5s-7.5 3.357-7.5 7.5v5.5c0 4.143 3.358 7.5 7.5 7.5z"/><path d="m328.032 242.713c4.143 0 7.5-3.357 7.5-7.5v-5.5c0-4.143-3.357-7.5-7.5-7.5s-7.5 3.357-7.5 7.5v5.5c0 4.143 3.358 7.5 7.5 7.5z"/><path d="m361.116 242.713c4.143 0 7.5-3.357 7.5-7.5v-5.5c0-4.143-3.357-7.5-7.5-7.5s-7.5 3.357-7.5 7.5v5.5c0 4.143 3.358 7.5 7.5 7.5z"/><path d="m427.282 242.713c4.143 0 7.5-3.357 7.5-7.5v-5.5c0-4.143-3.357-7.5-7.5-7.5s-7.5 3.357-7.5 7.5v5.5c0 4.143 3.358 7.5 7.5 7.5z"/><path d="m394.199 242.713c4.143 0 7.5-3.357 7.5-7.5v-5.5c0-4.143-3.357-7.5-7.5-7.5s-7.5 3.357-7.5 7.5v5.5c0 4.143 3.358 7.5 7.5 7.5z"/><path d="m361.116 282.527c4.143 0 7.5-3.357 7.5-7.5v-5.5c0-4.143-3.357-7.5-7.5-7.5s-7.5 3.357-7.5 7.5v5.5c0 4.142 3.358 7.5 7.5 7.5z"/><path d="m427.282 282.527c4.143 0 7.5-3.357 7.5-7.5v-5.5c0-4.143-3.357-7.5-7.5-7.5s-7.5 3.357-7.5 7.5v5.5c0 4.142 3.358 7.5 7.5 7.5z"/><path d="m394.199 282.527c4.143 0 7.5-3.357 7.5-7.5v-5.5c0-4.143-3.357-7.5-7.5-7.5s-7.5 3.357-7.5 7.5v5.5c0 4.142 3.358 7.5 7.5 7.5z"/><path d="m294.949 322.339c4.143 0 7.5-3.357 7.5-7.5v-5.5c0-4.143-3.357-7.5-7.5-7.5s-7.5 3.357-7.5 7.5v5.5c0 4.143 3.358 7.5 7.5 7.5z"/><path d="m328.032 322.339c4.143 0 7.5-3.357 7.5-7.5v-5.5c0-4.143-3.357-7.5-7.5-7.5s-7.5 3.357-7.5 7.5v5.5c0 4.143 3.358 7.5 7.5 7.5z"/><path d="m427.282 322.339c4.143 0 7.5-3.357 7.5-7.5v-5.5c0-4.143-3.357-7.5-7.5-7.5s-7.5 3.357-7.5 7.5v5.5c0 4.143 3.358 7.5 7.5 7.5z"/><path d="m394.199 322.339c4.143 0 7.5-3.357 7.5-7.5v-5.5c0-4.143-3.357-7.5-7.5-7.5s-7.5 3.357-7.5 7.5v5.5c0 4.143 3.358 7.5 7.5 7.5z"/><path d="m490.791 429.123h-83.658c-4.143 0-7.5 3.357-7.5 7.5s3.357 7.5 7.5 7.5h83.658c11.695 0 21.211-9.515 21.211-21.21v-326.765c0-11.695-9.516-21.211-21.211-21.211h-16.497v-7.194c0-10.522-8.562-19.084-19.084-19.084h-123.837c-28.312 0-55.344 11.156-75.372 30.853-20.028-19.698-47.06-30.853-75.372-30.853h-45.326c-4.143 0-7.5 3.357-7.5 7.5s3.357 7.5 7.5 7.5h45.326c25.812 0 50.392 10.773 67.872 29.65v287.582c-15.479-14.106-39.706-30.751-67.872-30.751h-127.921c0-24.897 0-270.333 0-282.397 0-2.252 1.832-4.084 4.084-4.084h43.511c4.143 0 7.5-3.357 7.5-7.5s-3.357-7.5-7.5-7.5h-43.511c-10.522 0-19.084 8.561-19.084 19.084v7.194h-16.498c-11.695 0-21.21 9.516-21.21 21.211v326.765c0 11.695 9.515 21.21 21.21 21.21h201.95c2.108 0 4.008 1.064 4.956 2.776 5.617 10.143 16.303 16.444 27.885 16.444s22.268-6.302 27.884-16.443c.949-1.713 2.849-2.777 4.957-2.777h83.291c4.143 0 7.5-3.357 7.5-7.5s-3.357-7.5-7.5-7.5h-83.291c-7.56 0-14.486 4.026-18.079 10.509-2.976 5.374-8.632 8.712-14.762 8.712s-11.786-3.338-14.763-8.713c-3.592-6.481-10.519-10.508-18.078-10.508h-201.95c-3.424 0-6.21-2.786-6.21-6.21v-326.765c0-3.425 2.786-6.211 6.21-6.211h16.498c0 2.538-.001 291.031-.001 297.716 0 10.523 8.562 19.084 19.084 19.084h199.21 199.209c10.523 0 19.084-8.561 19.084-19.084 0-13.173 0-283.456 0-297.716h16.497c3.425 0 6.211 2.786 6.211 6.211v326.765c0 3.423-2.786 6.21-6.211 6.21zm-35.581-37.387h-181.377c13.554-12.336 34.258-26.596 57.54-26.596h127.921v22.513c0 2.251-1.832 4.083-4.084 4.083zm-123.837-328.077h123.837c2.252 0 4.084 1.832 4.084 4.084v282.397h-127.921c-28.166 0-52.393 16.645-67.872 30.751v-287.582c17.48-18.877 42.061-29.65 67.872-29.65zm-150.744 301.481c23.282 0 43.986 14.26 57.54 26.596h-181.377c-2.252 0-4.084-1.832-4.084-4.083v-22.513z"/></g></g></svg>