<svg id="Capa_1" enable-background="new 0 0 512.002 512.002" height="512" viewBox="0 0 512.002 512.002" width="512" xmlns="http://www.w3.org/2000/svg"><g><g><path d="m240.091 504.481c10.369.489 18.93-7.774 18.93-18.036v-28.792l-4.357-2.39h-26.167l-5.589 2.39v28.282c-.001 9.723 7.471 18.089 17.183 18.546z" fill="#b5dcff"/><path d="m256.746 419.596h-31.166l-2.673 1.944v36.113h36.113v-36.113z" fill="#dbedff"/><path d="m380.74 175.005-20.126-43.161c-9.124-19.566-28.969-32.208-50.558-32.208h-26.654l-27.239 3.544v207.5l3.5 7.49c1.826-6.309 7.361-11.148 14.177-11.468 8.942-.421 16.324 6.705 16.324 15.554v163.68c0 9.723 7.472 18.089 17.184 18.546 10.369.488 18.929-7.774 18.929-18.036v-328.967c0-3.286 4.462-4.282 5.851-1.304 3.039 6.516 7.914 17.003 15.883 34.093 2.706 5.803 4.137 12.254 4.137 18.657v79.192c0 9.723 7.471 18.089 17.183 18.546 10.369.488 18.929-7.774 18.929-18.036v-79.702c0-11.642-2.6-23.371-7.52-33.92z" fill="#60b9fe"/><g><path d="m259.663 137.429c0-16.566 9.721-30.969 23.739-37.794h-44.274c-21.679 0-41.395 12.56-50.557 32.208l-20.128 43.163c-4.918 10.55-7.519 22.278-7.519 33.919v1.392l1.989 2.362h32.75l1.374-2.362v-1.392c0-6.403 1.431-12.855 4.136-18.657 7.969-17.089 12.844-27.576 15.884-34.093 1.389-2.978 5.85-1.982 5.85 1.304v194.228l3.255 2.306h29.333l3.524-2.306v-29.012c0-1.561.225-3.082.643-4.526v-180.74z" fill="#1ca8ff"/></g><path d="m193.913 244.429h-30.333l-2.656 2.001v41.687c0 9.723 7.471 18.089 17.183 18.546 10.369.488 18.93-7.774 18.93-18.036v-42.197z" fill="#1ca8ff"/><path d="m289.56 11.318c-9.234 5.639-15.412 15.791-15.412 27.403s6.177 21.764 15.412 27.403c9.685-5.301 16.253-15.584 16.253-27.403s-6.569-22.102-16.253-27.403z" fill="#60b9fe"/><path d="m274.592 38.721c0-11.554 6.281-21.635 15.61-27.034-4.593-2.658-9.922-4.187-15.61-4.187-17.243 0-31.221 13.978-31.221 31.221s13.978 31.221 31.221 31.221c5.688 0 11.017-1.529 15.61-4.187-9.329-5.4-15.61-15.48-15.61-27.034z" fill="#1ca8ff"/><path d="m253.33 399.763 5.69-1.981v-46.075h-36.113v35.075l2.589 3.981z" fill="#dbedff"/><g><path d="m259.02 421.54v-23.758l-36.113-11v34.758z" fill="#b5dcff"/></g><path d="m159.924 210.317h37.113v36.113h-37.113z" fill="#dbedff"/><path d="m131.498 210.317h29.426v36.113h-29.426z" fill="#b5dcff"/></g><g><path d="m313.06 38.721c0-21.351-17.37-38.721-38.72-38.721s-38.721 17.37-38.721 38.721 17.37 38.721 38.721 38.721 38.72-17.371 38.72-38.721zm-38.72 23.72c-13.08 0-23.721-10.641-23.721-23.721s10.64-23.72 23.721-23.72 23.721 10.641 23.721 23.721-10.641 23.72-23.721 23.72z"/><path d="m116.495 277.79c0 4.058 3.224 7.354 7.25 7.487v210.763c0 4.142 3.357 7.5 7.5 7.5s7.5-3.358 7.5-7.5v-210.75h14.427v2.827c0 14.211 11.161 26.067 25.576 26.067 14.414 0 25.536-11.785 25.536-25.557 0-14.075 0-62.314 0-79.702 0-5.315 1.188-10.67 3.433-15.487 2.858-6.128 5.318-11.408 7.438-15.96v308.458c0 13.958 10.687 25.395 24.33 26.038 14.845.695 26.782-11.186 26.782-25.528 0-39.58 0-133.412 0-163.75 0-4.489 3.441-8.303 7.672-8.502 4.676-.208 8.473 3.484 8.473 8.063v163.68c0 13.958 10.688 25.396 24.331 26.038 14.902.7 26.781-11.245 26.781-25.528v-230.446c0-4.142-3.357-7.5-7.5-7.5s-7.5 3.358-7.5 7.5v230.444c0 6.018-5.011 10.834-11.076 10.544-5.534-.261-10.036-5.22-10.036-11.055v-163.68c0-12.825-10.656-23.681-24.178-23.046-12.318.58-21.967 10.896-21.967 23.486v21.512h-21.112v-186.727c0-4.997-3.407-9.242-8.285-10.324-4.868-1.079-9.751 1.324-11.862 5.849-8.688 18.654-12.391 26.601-15.886 34.095-2.304 4.942-3.817 10.287-4.471 15.718h-21.218c.726-8.507 2.955-16.923 6.554-24.641l20.128-43.163c7.897-16.935 25.074-27.877 43.76-27.877h17.965c4.143 0 7.5-3.358 7.5-7.5s-3.357-7.5-7.5-7.5h-17.965c-24.49 0-47.003 14.342-57.354 36.538l-20.129 43.163c-4.518 9.691-7.239 20.292-7.996 30.98h-14.652v-4.777c0-4.142-3.357-7.5-7.5-7.5s-7.5 3.358-7.5 7.5v72.263c-4.025.133-7.249 3.429-7.249 7.487zm134.772 172.363h-21.112v-21.113h21.112zm0-36.113h-21.112v-17.133l21.112 6.431zm-21.112 71.896v-20.783h21.112v21.292c0 5.941-4.93 10.828-11.077 10.544-5.533-.26-10.035-5.219-10.035-11.053zm21.112-126.729v28.451l-21.112-6.431v-22.02zm-112.522-88.917v-16.36h14.427v16.36zm50.539 18.336c0 5.998-4.991 10.835-11.077 10.544-5.533-.261-10.035-5.22-10.035-11.054v-34.186h21.112zm0-70.809v21.113c-10.41 0-40.109 0-50.539 0v-21.113z"/><path d="m395.508 288.626v-79.702c0-12.729-2.843-25.554-8.223-37.09l-20.126-43.161c-10.35-22.196-32.863-36.539-57.356-36.539h-17.963c-4.143 0-7.5 3.358-7.5 7.5s3.357 7.5 7.5 7.5h17.963c18.688 0 35.865 10.942 43.762 27.878l20.127 43.161c4.459 9.564 6.816 20.197 6.816 30.75v79.702c0 2.914-1.162 5.627-3.271 7.64-2.108 2.01-4.88 3.044-7.806 2.904-5.534-.261-10.036-5.22-10.036-11.054v-79.192c0-7.49-1.674-15.038-4.839-21.827-2.155-4.621-4.251-9.114-15.884-34.094-2.11-4.525-6.995-6.932-11.862-5.85-4.878 1.082-8.285 5.327-8.285 10.324v63.522c0 4.142 3.357 7.5 7.5 7.5s7.5-3.358 7.5-7.5v-43.518c2.12 4.551 4.579 9.83 7.437 15.957 2.246 4.817 3.434 10.173 3.434 15.487v79.192c0 13.958 10.688 25.395 24.331 26.038.417.02.832.029 1.246.029 6.601 0 12.816-2.482 17.618-7.064 5.031-4.8 7.917-11.54 7.917-18.493z"/></g></g></svg>