<svg id="Capa_1" enable-background="new 0 0 512.002 512.002" height="512" viewBox="0 0 512.002 512.002" width="512" xmlns="http://www.w3.org/2000/svg"><g><g><path d="m495.529 141.105-484.701 279.842c-1.903 1.099-3.075 3.129-3.075 5.327v7.417c0 4.735 5.125 7.694 9.226 5.326l484.701-279.842c1.903-1.099 3.075-3.129 3.075-5.327v-7.417c0-4.734-5.126-7.693-9.226-5.326z" fill="#9790cc"/><path d="m495.529 123.855-484.701 279.842c-1.903 1.099-3.075 3.129-3.075 5.327v19.25c0-2.197 1.172-4.228 3.075-5.327l484.701-279.842c4.1-2.367 9.226.592 9.226 5.327v-19.25c0-4.735-5.126-7.694-9.226-5.327z" fill="#8479c2"/><path d="m320.597 310.04h-248.463c-3.505 0-6.347 2.842-6.347 6.347v15.629c0 3.505 2.842 6.347 6.347 6.347h248.463c3.505 0 6.347-2.842 6.347-6.347v-15.629c0-3.506-2.842-6.347-6.347-6.347z" fill="#ffc365"/><path d="m66.787 332.015v-15.629c0-3.505 2.842-6.347 6.347-6.347h-59.035c-3.505 0-6.347 2.842-6.347 6.347v15.629c0 3.505 2.841 6.347 6.347 6.347h59.034c-3.504 0-6.346-2.842-6.346-6.347z" fill="#ffa90f"/><path d="m499.411 286.105h-27.962c-1.357.969-2.25 2.548-2.25 4.343v32.993c0 2.951-2.392 5.343-5.343 5.343h-22.906c-.874.624-1.938 1-3.094 1h-37.317c-1.357.969-2.25 2.548-2.25 4.343v32.993c0 2.951-2.392 5.343-5.343 5.343h-22.906c-.874.624-1.937 1-3.093 1h-37.317c-1.357.969-2.25 2.548-2.25 4.343v32.994c0 2.951-2.392 5.343-5.343 5.343h-22.907c-.874.624-1.938 1-3.094 1h-37.317c-1.357.969-2.25 2.548-2.25 4.343v32.993c0 2.951-2.392 5.343-5.343 5.343h-22.906c-.874.624-1.937 1-3.093 1h-37.317c-1.357.969-2.25 2.548-2.25 4.343v32.993c0 2.951 2.392 5.343 5.343 5.343h-28c-.456 0-.892-.075-1.314-.182.913.729 2.055 1.182 3.314 1.182h334.509c2.951 0 5.343-2.392 5.343-5.343v-207.71c0-2.95-2.393-5.343-5.344-5.343z" fill="#8479c2"/><g fill="#6e60b8"><path d="m471.2 324.442v-32.993c0-2.951 2.392-5.343 5.343-5.343h-28c-2.951 0-5.343 2.392-5.343 5.343v32.993c0 2.951-2.392 5.343-5.343 5.343h28c2.95 0 5.343-2.392 5.343-5.343z"/><path d="m400.29 368.121v-32.993c0-2.951 2.392-5.343 5.343-5.343h-28c-2.951 0-5.343 2.392-5.343 5.343v32.993c0 2.951-2.392 5.343-5.343 5.343h28c2.95 0 5.343-2.392 5.343-5.343z"/><path d="m258.469 455.479v-32.993c0-2.951 2.392-5.343 5.343-5.343h-28c-2.951 0-5.343 2.392-5.343 5.343v32.993c0 2.951-2.392 5.343-5.343 5.343h28c2.951.001 5.343-2.392 5.343-5.343z"/><path d="m187.559 499.159v-32.993c0-2.951 2.392-5.343 5.343-5.343h-28c-2.951 0-5.343 2.392-5.343 5.343v32.993c0 2.951 2.392 5.343 5.343 5.343h28c-2.95 0-5.343-2.392-5.343-5.343z"/><path d="m329.379 411.8v-32.993c0-2.951 2.392-5.343 5.343-5.343h-28c-2.951 0-5.343 2.392-5.343 5.343v32.993c0 2.951-2.392 5.343-5.343 5.343h28c2.951 0 5.343-2.392 5.343-5.343z"/></g><g><path d="m127.507 40.526v88.599l15.625 4.838 2.145-.78v-82.576c0-7.945-6.356-14.461-14.232-14.756z" fill="#9790cc"/><path d="m131.044 35.85c-.185-.007-.366-.028-.552-.028h-15.603l-.077 5.579v83.793l16.232 5.026z" fill="#8479c2"/><path d="m233.943 151.276 4.179-3.25v-3.514c0-6.231-5.098-11.329-11.329-11.329h-81.517v5.348l10.607 10.362z" fill="#9790cc"/><path d="m154.997 148.026 18.427 18h62.432l2.266-2.462v-15.538z" fill="#8479c2"/><path d="m79.728 24.138c10.968 0 19.859 8.891 19.859 19.859v82.862h14.336l1.825-3.421v-79.807c.001-19.922-16.208-36.131-36.131-36.131h-8.923l-3.187 2.901v13.737z" fill="#dbedff"/><path d="m79.617 35.822c4.306 0 7.81 3.503 7.81 7.809v79.807l2.497 3.421h11.664v-84.861c0-10.968-8.891-19.859-19.859-19.859h-14.222v9.763l3.187 3.921h8.923z" fill="#b5dcff"/><path d="m70.694 24.138v-16.638h-29.569c-7.821 0-14.161 6.34-14.161 14.161 0 .847.088 1.672.23 2.477z" fill="#9790cc"/><path d="m70.694 22.138h-43.706c.254 7.598 6.477 13.684 14.137 13.684h29.568v-13.684z" fill="#8479c2"/><path d="m226.576 179.026c4.686 0 8.844 3.001 10.321 7.447l22.527 67.818 10.939-.861 4.478-1.953-21.406-72.25c-2.638-8.932-12.735-17.529-24.984-17.529h-50.527v3.328l5.185 14z" fill="#dbedff"/><path d="m186.257 187.526 5.443 2.495h33.793c.949 0 1.786.625 2.056 1.535l18.315 61.819 4.227 1.652 11.931-.939-23.124-69.614c-1.477-4.447-5.636-7.447-10.321-7.447h-46.208z" fill="#b5dcff"/><path d="m286.219 269.592h40.567c.093-.655.157-1.319.157-2 0-7.821-6.34-14.161-14.161-14.161h-34.329-.885l-1.729 4.012 8.833 8.083z" fill="#dbedff"/><path d="m290.84 281.753h1.838 20.104c7.821 0 14.161-6.34 14.161-14.161h-41.485z" fill="#b5dcff"/><path d="m271.735 250.259c-10.709 5.313-18.075 16.351-18.075 29.116s7.365 23.803 18.075 29.116c12.221-4.036 21.044-15.542 21.044-29.116s-8.823-25.08-21.044-29.116z" fill="#6e60b8"/><path d="m254.794 279.375c0-12.802 7.848-23.767 18.993-28.359-3.598-1.483-7.538-2.306-11.672-2.306-16.936 0-30.664 13.729-30.664 30.665s13.729 30.665 30.664 30.665c4.134 0 8.073-.823 11.672-2.306-11.145-4.592-18.993-15.557-18.993-28.359z" fill="#6353b2"/><path d="m108.543 197.195c-7.08 3.402-11.974 10.63-11.974 19.01s4.894 15.608 11.974 19.01c7.758-2.841 13.306-10.268 13.306-19.01s-5.548-16.169-13.306-19.01z" fill="#6e60b8"/><path d="m97.076 216.205c0-8.397 5.108-15.6 12.386-18.673-2.421-1.022-5.082-1.588-7.875-1.588-11.19 0-20.261 9.071-20.261 20.261s9.071 20.261 20.261 20.261c2.793 0 5.454-.566 7.875-1.588-7.278-3.073-12.386-10.276-12.386-18.673z" fill="#6353b2"/><path d="m101.587 122.371c-.135 0-.268.005-.403.005-43.881 8.673-77.078 47.441-77.078 93.829 0 46.389 33.197 85.157 77.078 93.83.134.001.268.005.402.005 51.741 0 93.835-42.094 93.835-93.835s-42.093-93.834-93.834-93.834zm0 159.453c-36.182 0-65.619-29.437-65.619-65.619s29.437-65.619 65.619-65.619c36.183 0 65.619 29.436 65.619 65.619s-29.436 65.619-65.619 65.619z" fill="#ff76aa"/><g><path d="m25.753 216.205c0-48.705 37.301-88.856 84.834-93.401-2.963-.283-5.964-.434-9-.434-51.74 0-93.834 42.094-93.834 93.834s42.094 93.835 93.834 93.835c3.036 0 6.037-.15 9-.434-47.534-4.544-84.834-44.695-84.834-93.4z" fill="#ff5595"/></g></g></g><g><path d="m101.334 143.086c-40.317 0-73.118 32.801-73.118 73.119s32.801 73.119 73.118 73.119c40.318 0 73.12-32.801 73.12-73.119s-32.802-73.119-73.12-73.119zm46.193 108.336-21.863-21.862c1.072-1.945 1.916-4.031 2.499-6.224h30.838c-1.288 10.473-5.364 20.091-11.474 28.086zm-103.858-28.086h30.837c.583 2.192 1.427 4.278 2.499 6.223l-21.862 21.863c-6.11-7.995-10.186-17.613-11.474-28.086zm11.798-42.761 21.807 21.807c-1.073 1.86-1.937 3.854-2.558 5.953h-30.953c1.41-10.368 5.562-19.871 11.704-27.76zm45.868 48.392c-7.037 0-12.762-5.725-12.762-12.762s5.725-12.762 12.762-12.762c7.036 0 12.761 5.725 12.761 12.762s-5.725 12.762-12.761 12.762zm13.353-37.092c-1.834-1.011-3.797-1.816-5.854-2.394v-30.895c10.33 1.338 19.816 5.389 27.716 11.427zm-20.853-2.394c-2.057.578-4.019 1.383-5.854 2.394l-21.863-21.863c7.9-6.038 17.386-10.089 27.716-11.426v30.895zm-6.323 50.784c1.969 1.136 4.089 2.036 6.323 2.664v30.895c-10.512-1.361-20.148-5.537-28.13-11.752zm21.323 2.664c2.234-.628 4.353-1.528 6.322-2.664l21.808 21.807c-7.982 6.215-17.618 10.39-28.13 11.752zm19.118-34.593c-.622-2.099-1.486-4.093-2.559-5.954l21.808-21.807c6.142 7.889 10.294 17.392 11.705 27.761z"/><path d="m262.61 271.875h-1.497c-4.143 0-7.5 3.357-7.5 7.5s3.357 7.5 7.5 7.5h1.497c4.143 0 7.5-3.357 7.5-7.5s-3.357-7.5-7.5-7.5z"/><path d="m491.526 117.359-212.502 122.689-18.649-62.945c-2.242-7.588-7.855-14.087-15.006-18.204v-14.385c0-10.383-8.446-18.829-18.829-18.829h-11.538v-14.306c0-14.79-12.033-26.822-26.823-26.822h-35.655v-33.951c0-12.287-9.997-22.284-22.284-22.284h-10.022c-6.216-16.528-22.18-28.322-40.854-28.322-14.277 0-24.041 0-38.491 0-11.944 0-21.661 9.717-21.661 21.661s9.717 21.661 21.661 21.661h38.491c.165 0 .31.145.31.31v73.576c-45.503 9.948-79.674 50.554-79.674 98.997 0 36.461 19.358 68.481 48.334 86.335h-34.487c-7.635 0-13.847 6.212-13.847 13.847v15.629c0 7.635 6.212 13.847 13.847 13.847h81.902l-88.924 51.34c-4.21 2.431-6.825 6.96-6.825 11.82v24.667c0 10.491 11.355 17.086 20.476 11.821l172.599-99.649h38.123c4.143 0 7.5-3.357 7.5-7.5s-3.357-7.5-7.5-7.5c-3.652 0-214.345 0-216.197 0v-13.322h304.19v13.322h-52.993c-4.143 0-7.5 3.357-7.5 7.5s3.357 7.5 7.5 7.5h54.146c7.635 0 13.847-6.212 13.847-13.847v-15.629c0-7.635-6.212-13.847-13.847-13.847h-28.18c2.994-3.906 5.25-8.404 6.559-13.287h13.808c13.106 0 23.31-11.629 21.438-24.736l171.208-98.847c4.211-2.43 6.826-6.96 6.826-11.822v-24.666c-.001-10.503-11.368-17.08-20.477-11.822zm-328.451 228.503-148.075 85.491v-21.55l110.749-63.94h37.326zm100.662-104.606c-4.288-.206-8.984.341-13.382 1.729l-16.322-55.095c-.944-3.185-3.87-5.369-7.191-5.369h-29.933c-1.553-4.463-3.691-9.277-5.816-13.322h37.105c8.243 0 15.934 5.867 17.793 12.16zm-140.741-124.053v-17.647h14.527v21.997c-4.86-1.855-9.777-3.314-14.527-4.35zm58.436 36.995c-3.321-4.307-7.71-9.132-12.609-13.515h31.179v13.515zm45.108-13.514c2.075 0 3.829 1.754 3.829 3.829v9.757c-.096-.006-.192-.004-.289-.01-.626-.037-1.253-.062-1.882-.062h-13.196v-13.515h11.538zm-38.361-41.128c6.52 0 11.823 5.304 11.823 11.822v14.306h-47.479v-26.128zm-65.184-56.234h7.244c4.017 0 7.284 3.268 7.284 7.284v33.949h-14.527v-40.923c0-.104 0-.206-.001-.31zm-82.122-15c-3.673 0-6.661-2.988-6.661-6.661s2.988-6.661 6.661-6.661h22.068v13.322zm53.801 86.767v-71.457c0-8.441-6.868-15.31-15.31-15.31h-1.423v-13.322h1.423c15.869 0 28.632 12.947 28.632 28.632v71.457c-4.482-.296-9.023-.283-13.322 0zm-79.674 101.116c0-47.092 38.064-85.92 85.605-86.316 48.256-.413 87.064 38.845 87.064 86.316 0 47.605-38.73 86.335-86.336 86.335-47.604 0-86.333-38.729-86.333-86.335zm187.67 0c0-6.382-.6-12.626-1.733-18.685h20.305l15.698 52.988c-6.208 5.367-10.677 12.691-12.425 21.01l-53.729 31.021h-16.451c28.976-17.852 48.335-49.873 48.335-86.334zm-1.885 86.335 24.058-13.89c1.29 5.148 3.615 9.846 6.696 13.89zm37.924-23.624c.247-13.034 11.28-23.347 24.367-22.673 11.421.595 20.963 9.606 21.874 21.324 1.048 13.473-9.629 24.973-23.087 24.973-12.796 0-23.394-10.499-23.154-23.624zm73.821-4.663h-12.844c-.571-4.312-2.026-9.046-4.388-13.322h17.231c3.655 0 6.66 2.988 6.66 6.661.001 3.673-2.986 6.661-6.659 6.661zm184.472-121.184-170.173 98.249c-3.806-3.35-8.926-5.388-14.299-5.388h-13.695l198.167-114.412z"/><path d="m499.159 278.605h-50.869c-7.082 0-12.843 5.762-12.843 12.843v30.837h-58.067c-7.081 0-12.843 5.762-12.843 12.843v30.836h-58.067c-7.082 0-12.843 5.762-12.843 12.844v30.836h-58.067c-7.081 0-12.843 5.761-12.843 12.843v30.836h-58.067c-7.082 0-12.843 5.762-12.843 12.844v32.993c0 7.081 5.761 12.843 12.843 12.843h334.51c7.082 0 12.843-5.762 12.843-12.843v-79.96c0-4.143-3.357-7.5-7.5-7.5s-7.5 3.357-7.5 7.5v77.803h-330.196v-28.68h58.067c7.081 0 12.843-5.762 12.843-12.843v-30.836h58.066c7.082 0 12.844-5.762 12.844-12.844v-30.836h58.066c7.082 0 12.844-5.761 12.844-12.843v-30.836h58.066c7.082 0 12.844-5.762 12.844-12.844v-30.836h46.555v90.594c0 4.143 3.357 7.5 7.5 7.5s7.5-3.357 7.5-7.5v-92.751c0-7.081-5.761-12.843-12.843-12.843z"/></g></g></svg>