<svg id="Capa_1" enable-background="new 0 0 512.002 512.002" height="512" viewBox="0 0 512.002 512.002" width="512" xmlns="http://www.w3.org/2000/svg"><g><g><path d="m444.881 7.5h-151.776c-11.454 4.215-19.68 15.257-19.68 28.127v141.434c0 12.87 8.227 23.912 19.681 28.127h73.655 5.402l27.438 23.17 2.94.626 20.814-20.264c2.326-2.264 5.443-3.531 8.689-3.531h12.837c16.175 0 29.41-13.234 29.41-29.41v-138.87c-.001-16.175-13.235-29.409-29.41-29.409z" fill="#ff76aa"/><path d="m402.54 213.218c0-4.435-3.595-8.03-8.029-8.03h-27.75c4.435 0 8.029 3.595 8.029 8.03v28.602c0 5.294 6.368 7.982 10.162 4.289l17.588-17.124z" fill="#ff5595"/><path d="m273.968 175.779v-138.869c0-16.175 13.234-29.41 29.409-29.41h-27.75c-16.175 0-29.409 13.234-29.409 29.41v138.869c0 16.175 13.234 29.409 29.409 29.409h27.75c-16.174 0-29.409-13.234-29.409-29.409z" fill="#ff5595"/><g><path d="m284.312 398.592h-2.529c-14.851 41.822-54.812 71.854-101.663 71.854-59.466 0-107.846-48.38-107.846-107.846 0-48.315 31.936-89.312 75.807-102.989l1.314-3.554v-30.25l-.333-.371v3.669c-53.529 20.71-91.594 72.729-91.594 133.479 0 72.694 54.506 132.883 124.792 141.882 51.446-.766 96.346-29.031 120.607-70.734v-4.092z" fill="#dbedff"/><g><path d="m58.541 362.599c0-60.259 37.758-111.858 90.854-132.401v-4.392l-1.314-1.463c-62.866 14.564-109.864 71.024-109.864 138.256 0 78.246 63.658 141.903 141.903 141.903 3.419 0 6.808-.128 10.167-.367-73.522-5.226-131.746-66.706-131.746-141.536z" fill="#b5dcff"/></g><circle cx="164.93" cy="164.547" fill="#60b9fe" r="25.936"/><path d="m164.93 164.547c0-9.598 5.218-17.973 12.968-22.458-3.816-2.208-8.242-3.479-12.968-3.479-14.324 0-25.936 11.612-25.936 25.936s11.612 25.936 25.936 25.936c4.726 0 9.152-1.27 12.968-3.478-7.75-4.484-12.968-12.858-12.968-22.457z" fill="#1ca8ff"/><path d="m272.707 379.123 58.188 88.684 13.796 1.442c7.685-4.96 10.114-15.147 5.373-23.049l-55.72-92.866c-3.077-5.129-8.62-8.267-14.601-8.267h-97.605v-46.743l-4.118-3.891h-12.285v67.178c0 8.707 6.242 15.946 14.492 17.513h87.622 4.858z" fill="#1ca8ff"/><path d="m166.544 362.094v-67.663h-5.212l-11.625-13.137h-1.626v80.8c0 9.405 7.624 17.029 17.029 17.029h18.463c-9.405 0-17.029-7.624-17.029-17.029z" fill="#0094fd"/><path d="m339.324 463.722-49.601-82.668c-.719-1.198-2.014-1.931-3.411-1.931h-18.463c1.397 0 2.692.733 3.411 1.931l49.601 82.668c4.839 8.064 15.298 10.679 23.363 5.841.163-.098.309-.211.468-.314-2.123-1.369-3.981-3.216-5.368-5.527z" fill="#0094fd"/><path d="m284.121 264.266h-101.983v-48.679c0-6.227-3.354-11.658-8.342-14.627-4.386 3.141-7.251 8.268-7.251 14.073v66.814c0 7.706 5.038 14.229 11.997 16.475h105.58c9.404 0 17.028-7.624 17.028-17.028-.001-9.404-7.625-17.028-17.029-17.028z" fill="#60b9fe"/><path d="m166.831 281.294v-65.707c0-5.939 3.044-11.162 7.654-14.209-2.69-1.778-5.909-2.82-9.375-2.82-9.405 0-17.029 7.624-17.029 17.029v65.707c0 9.404 7.624 17.028 17.029 17.028h18.75c-9.405.001-17.029-7.623-17.029-17.028z" fill="#1ca8ff"/></g></g><g><path d="m401.99 68.463c-2.212-20.038-18.423-35.781-38.545-37.436-22.896-1.893-42.947 14.456-45.645 37.195-.487 4.113 2.452 7.843 6.565 8.331 4.103.485 7.843-2.452 8.331-6.564 1.741-14.684 14.713-25.227 29.52-24.013 12.771 1.05 23.461 11.425 24.863 24.133 1.606 14.531-8.354 27.775-22.677 30.152-6.967 1.157-12.023 7.06-12.023 14.035v28.229c0 4.142 3.357 7.5 7.5 7.5s7.5-3.358 7.5-7.5v-27.557c21.902-3.911 37.072-24.234 34.611-46.505z"/><path d="m360.001 159.411c-4.143 0-7.5 3.358-7.5 7.5v4.502c0 4.142 3.357 7.5 7.5 7.5s7.5-3.358 7.5-7.5v-4.502c0-4.142-3.357-7.5-7.5-7.5z"/><path d="m140.329 215.587v2.923c-64.146 17.664-109.865 76.342-109.865 144.089 0 82.381 67.022 149.403 149.403 149.403 48.833 0 94.712-24.268 122.531-64.053l11.779 19.631c6.957 11.596 22.055 15.371 33.652 8.413 11.598-6.958 15.372-22.054 8.414-33.652l-55.721-92.866c-4.407-7.346-12.466-11.909-21.032-11.909h-90.105v-31.743h94.483c13.525 0 24.528-11.003 24.528-24.528s-11.003-24.528-24.528-24.528h-33.834c-4.143 0-7.5 3.358-7.5 7.5s3.357 7.5 7.5 7.5h33.834c5.254 0 9.528 4.274 9.528 9.528s-4.274 9.528-9.528 9.528c-24.781 0-93.187 0-119.012 0-5.254 0-9.528-4.274-9.528-9.528 0-6.455 0-57.651 0-65.707 0-5.254 4.274-9.528 9.528-9.528s9.528 4.274 9.528 9.528v48.679c0 4.142 3.357 7.5 7.5 7.5h33.149c4.143 0 7.5-3.358 7.5-7.5s-3.357-7.5-7.5-7.5h-25.649v-41.179c0-8.57-4.421-16.123-11.099-20.51 11.671-5.223 19.827-16.938 19.827-30.53 0-18.437-14.999-33.436-33.436-33.436s-33.436 15-33.436 33.436c0 13.673 8.254 25.449 20.038 30.625-6.595 4.4-10.949 11.908-10.949 20.414zm0 146.507c0 13.525 11.003 24.528 24.528 24.528h100.746l7.63 12.717c-15.068 38.186-52.149 63.606-93.365 63.606-55.331 0-100.347-45.015-100.347-100.347 0-40.672 24.052-76.531 60.808-92.224zm39.539 134.908c-74.11 0-134.403-60.293-134.403-134.403 0-58.716 39.365-111.283 94.864-128.465v20.104c-43.932 16.13-75.808 58.301-75.808 108.361 0 63.603 51.744 115.347 115.347 115.347 43.629 0 83.233-24.771 102.75-62.963.06.101 11.108 18.512 11.244 18.739-24.523 39.145-67.798 63.28-113.994 63.28zm-5.483-191.179v39.243c0 4.142 3.357 7.5 7.5 7.5h97.605c3.327 0 6.457 1.772 8.169 4.626l55.721 92.866c2.703 4.506 1.237 10.37-3.268 13.073-4.508 2.705-10.371 1.236-13.073-3.268-8.288-13.813-43.225-72.042-50.759-84.599-1.355-2.259-3.797-3.641-6.432-3.641h-104.991c-5.254 0-9.528-4.274-9.528-9.528v-58.198c2.927 1.237 6.141 1.926 9.528 1.926zm-9.708-159.712c10.165 0 18.436 8.271 18.436 18.436s-8.271 18.436-18.436 18.436-18.436-8.271-18.436-18.436 8.271-18.436 18.436-18.436z"/><path d="m474.038 97.953c4.143 0 7.5-3.358 7.5-7.5v-53.543c0-20.352-16.558-36.91-36.91-36.91h-169.253c-20.353 0-36.91 16.558-36.91 36.91v138.869c0 20.352 16.558 36.909 36.91 36.909h91.133c.292 0 .529.237.529.529v28.602c0 5.435 3.235 10.312 8.242 12.425 4.995 2.108 10.75 1.038 14.65-2.762l38.402-37.388c.931-.907 2.159-1.406 3.458-1.406h12.837c20.353 0 36.91-16.558 36.91-36.91v-50.325c0-4.142-3.357-7.5-7.5-7.5s-7.5 3.358-7.5 7.5v50.325c0 12.081-9.829 21.91-21.91 21.91h-12.837c-5.229 0-10.173 2.009-13.921 5.658l-35.832 34.886v-25.014c0-8.563-6.967-15.529-15.529-15.529h-91.133c-12.081 0-21.91-9.829-21.91-21.909v-138.87c0-12.081 9.829-21.91 21.91-21.91h169.253c12.081 0 21.909 9.829 21.909 21.91v53.543c.002 4.142 3.359 7.5 7.502 7.5z"/></g></g></svg>