<svg id="Capa_1" enable-background="new 0 0 512.002 512.002" height="512" viewBox="0 0 512.002 512.002" width="512" xmlns="http://www.w3.org/2000/svg"><g><g><path d="m380.74 175.005-20.126-43.161c-9.124-19.566-28.969-32.208-50.558-32.208h-29.871s-28.137 2.794-28.137 19.794 0 187.254 0 187.254l7.973 10.433c2.112-5.785 7.39-10.113 13.82-10.415 8.942-.421 16.324 6.705 16.324 15.554v163.68c0 9.723 7.472 18.089 17.184 18.546 10.369.488 18.929-7.774 18.929-18.036v-328.967c0-3.286 4.462-4.282 5.851-1.304 3.039 6.516 7.914 17.003 15.883 34.093 2.706 5.802 4.137 12.254 4.137 18.657v79.192c0 9.723 7.472 18.089 17.183 18.546 10.37.489 18.93-7.774 18.93-18.036v-79.702c-.002-11.642-2.602-23.371-7.522-33.92z" fill="#60b9fe"/><g><path d="m260.02 126.104c0-12.58 8.574-23.248 20.165-26.468h-41.057c-21.679 0-41.395 12.56-50.557 32.208l-20.128 43.163c-4.918 10.55-7.519 22.279-7.519 33.919v1.392l.926 1.925h31.875l3.312-1.925v-1.392c0-6.403 1.431-12.855 4.135-18.657 7.969-17.089 12.845-27.576 15.884-34.093 1.389-2.978 5.851-1.982 5.851 1.304v179.269l2.38 3.057h32.625l1.107-3.057v-14.053c0-1.948.361-3.828 1-5.579v-191.013z" fill="#1ca8ff"/></g><path d="m288.406 10.722c-9.648 5.607-16.147 16.036-16.147 27.999s6.499 22.393 16.147 27.999c10.312-5.098 17.406-15.718 17.406-27.999s-7.094-22.902-17.406-27.999z" fill="#60b9fe"/><path d="m272.871 38.721c0-11.907 6.667-22.255 16.471-27.52-4.393-2.359-9.414-3.701-14.75-3.701-17.243 0-31.221 13.978-31.221 31.221s13.978 31.221 31.221 31.221c5.336 0 10.357-1.341 14.75-3.701-9.804-5.266-16.471-15.613-16.471-27.52z" fill="#1ca8ff"/><path d="m195.162 244.054h-30.895l-3.344 2.376v41.687c0 9.723 7.472 18.089 17.184 18.546 10.369.489 18.93-7.774 18.93-18.036v-42.197z" fill="#1ca8ff"/><path d="m260.109 336.747h-18.86c-.477.553-.775 1.263-.775 2.05v29.519c0 7.491 4.225 13.982 10.415 17.258 7.14-2.635 12.24-9.481 12.24-17.536v-28.271c.001-1.667-1.351-3.02-3.02-3.02z" fill="#ffc365"/><path d="m240.964 368.039v-28.271c0-1.668 1.353-3.021 3.021-3.021h-22.167c-1.668 0-3.021 1.352-3.021 3.021v28.271c0 10.332 8.376 18.708 18.708 18.708h6.917c2.719 0 5.294-.593 7.625-1.635-6.528-2.92-11.083-9.459-11.083-17.073z" fill="#ffa90f"/><path d="m159.923 210.317h37.113v36.113h-37.113z" fill="#dbedff"/><path d="m131.498 210.317h29.426v36.113h-29.426z" fill="#b5dcff"/></g><g><path d="m235.618 38.721c0 21.351 17.37 38.721 38.721 38.721s38.721-17.37 38.721-38.721-17.37-38.721-38.721-38.721-38.721 17.37-38.721 38.721zm62.442 0c0 13.08-10.641 23.721-23.721 23.721s-23.721-10.642-23.721-23.721 10.641-23.721 23.721-23.721 23.721 10.641 23.721 23.721z"/><path d="m116.495 277.79c0 4.058 3.224 7.354 7.25 7.487v210.763c0 4.142 3.357 7.5 7.5 7.5s7.5-3.358 7.5-7.5v-210.75h14.426v2.827c0 13.958 10.688 25.395 24.331 26.038 14.898.698 26.782-11.242 26.782-25.528 0-15.492 0-62.413 0-78.31v-1.392c0-5.314 1.187-10.67 3.432-15.487 2.858-6.128 5.318-11.407 7.438-15.959v33.395c0 4.142 3.357 7.5 7.5 7.5s7.5-3.358 7.5-7.5v-53.395c0-4.997-3.407-9.242-8.285-10.324-4.872-1.079-9.752 1.325-11.862 5.85-12.048 25.869-14.527 31.183-15.886 34.095-2.304 4.942-3.816 10.287-4.47 15.717h-21.219c.726-8.506 2.955-16.921 6.554-24.641l20.128-43.163c7.897-16.935 25.074-27.877 43.76-27.877h70.929c18.688 0 35.864 10.942 43.761 27.878l20.127 43.161c4.459 9.562 6.816 20.195 6.816 30.75v79.702c0 5.993-4.984 10.834-11.077 10.544-5.533-.261-10.035-5.22-10.035-11.054v-79.192c0-7.49-1.674-15.038-4.84-21.827-4.867-10.438-8.58-18.413-11.426-24.524l-4.457-9.57c-2.11-4.524-6.99-6.928-11.864-5.849-4.878 1.082-8.284 5.328-8.284 10.324v212.588c0 4.142 3.357 7.5 7.5 7.5s7.5-3.358 7.5-7.5v-192.588c2.12 4.551 4.58 9.831 7.438 15.958 2.246 4.817 3.434 10.173 3.434 15.487v79.192c0 13.957 10.687 25.395 24.33 26.038 14.866.697 26.782-11.204 26.782-25.528v-79.702c0-12.731-2.844-25.557-8.223-37.09l-20.126-43.161c-10.35-22.196-32.863-36.539-57.355-36.539h-70.929c-24.49 0-47.004 14.342-57.354 36.538l-20.129 43.164c-4.518 9.692-7.238 20.293-7.996 30.98h-14.651v-4.777c0-4.142-3.357-7.5-7.5-7.5s-7.5 3.358-7.5 7.5v72.263c-4.026.134-7.25 3.43-7.25 7.488zm22.25-7.5v-16.36h14.426v16.36zm50.539 18.336c0 5.976-4.97 10.835-11.077 10.544-5.534-.261-10.036-5.22-10.036-11.054v-34.186h21.113zm0-70.809v21.113c-10.41 0-40.112 0-50.539 0v-21.113z"/><path d="m306.742 511.973c14.843.695 26.781-11.181 26.781-25.528v-81.378c0-4.142-3.357-7.5-7.5-7.5s-7.5 3.358-7.5 7.5v81.378c0 5.966-4.949 10.827-11.076 10.544-5.534-.261-10.036-5.22-10.036-11.054v-163.68c0-12.912-10.742-23.678-24.177-23.046-12.318.58-21.968 10.896-21.968 23.486v6.553h-21.112v-83.374c0-4.142-3.357-7.5-7.5-7.5s-7.5 3.358-7.5 7.5v85.571c-2.494 1.925-4.11 4.936-4.11 8.323v28.271c0 13.078 9.628 23.947 22.167 25.896v102.105c0 4.142 3.357 7.5 7.5 7.5s7.5-3.358 7.5-7.5v-102.105c12.539-1.95 22.166-12.819 22.166-25.896v-28.271c0-3.388-1.616-6.398-4.11-8.323v-8.75c0-4.489 3.442-8.303 7.673-8.502 4.68-.21 8.472 3.488 8.472 8.063v163.681c-.001 13.957 10.687 25.394 24.33 26.036zm-51.365-143.934c0 6.18-5.028 11.208-11.208 11.208h-6.917c-6.18 0-11.208-5.028-11.208-11.208v-23.792h29.333z"/></g></g></svg>