<svg id="Capa_1" enable-background="new 0 0 512.002 512.002" height="512" viewBox="0 0 512.002 512.002" width="512" xmlns="http://www.w3.org/2000/svg"><g><g><path d="m256.146 223.072-175.671 32.032v1.656l178.506 32.146 172.837-32.24v-1.75z" fill="#c4bde1"/><path d="m244.412 261.572-5.542-1.376c-8.554.38-17.102 1.033-25.63 1.974-20.628 2.275-43.063 2.241-64.367 1.084l-2.961 7.318 9.5 22.321 51.583 48.012c21.667 12.833 51.985 14.845 51.985 14.845 24.246-.283 45.798-4.298 64.81-10.634v-6.169z" fill="#ff0263"/><path d="m258.981 355.75c-71.938-15.557-102.218-74.039-110.108-92.496-26.215-1.423-50.716-4.548-68.01-7.185l-.825-2.328h-3.663l-.804.142c13.507 22.601 68.861 101.895 180.683 101.895.916 0 1.819-.017 2.727-.028z" fill="#e50255"/><path d="m436.275 253.588h-5.504v2.615c-31.489 4.765-85.918 10.995-131.503 5.968-5.576-.615-11.16-1.106-16.749-1.481v1.592l66.392 69.919h5.118c47.839-25.256 74.156-63.677 82.905-78.317z" fill="#ff0263"/><path d="m182.332 199.494-72.17 54.247 1.475 3.581c12.552-.791 25.002-3.155 37.054-7.047 20.269-6.546 42.285-11.467 66.1-14.159v-5.294z" fill="#ff3581"/><path d="m79.595 255.876c.109.017.219.034.329.051 10.528 1.619 21.156 2.061 31.713 1.395 18.855-6.162 49.768-32.579 73.591-55.034l-23.565-22.745h-3.445c-.503.557-1.01 1.109-1.499 1.686-17.076 20.128-42.418 42.635-79.174 60.808-6.447 3.186-5.057 12.744 2.05 13.839z" fill="#ff0263"/><path d="m434.963 242.036c-36.755-18.173-62.098-40.68-79.174-60.808-22.979-27.087-62.557-32.83-92.658-13.969-4.191 2.626-9.563 2.626-13.754 0-2.75-1.723-5.582-3.234-8.471-4.548l-11.619-2.076-24.875 16.563v8.457l46.167 46.418 5.059 1.734c.207 0 .41-.006.617-.006 40.244 0 76.008 6.284 107.562 16.475 22.188 7.166 45.722 9.195 68.768 5.652.11-.017.219-.034.329-.051 7.105-1.096 8.495-10.654 2.049-13.841z" fill="#ff3581"/><path d="m211.995 175.906c10.477-10.839 21.242-13.253 28.911-13.195-18.439-8.391-39.287-8.512-57.38-1.015v2.96l19.875 19.983c3.318-3.319 6.223-6.281 8.594-8.733z" fill="#ff0263"/><g><path d="m504.755 256.001c0-137.227-111.231-248.474-248.452-248.5-68.458 12.981-127.144 53.54-164.076 109.694 2.256.019 4.517.874 6.253 2.61l293.969 293.97c3.759 3.759 3.439 9.975-.724 13.281-83.718 66.472-204.94 62.626-284.32-11.531 36.894 45.345 89.178 77.653 148.898 88.977 137.221-.027 248.452-111.274 248.452-248.501zm-384.697-157.774c-3.759-3.759-3.439-9.975.724-13.281 85.651-68.007 210.566-62.426 289.759 16.767s84.774 204.108 16.767 289.76c-3.306 4.163-9.521 4.483-13.28.724z" fill="#ff76aa"/><g><path d="m121.713 427.801c-6.843-5.372-13.441-11.207-19.747-17.513-79.192-79.193-84.774-204.107-16.767-289.759 2.374-2.99 6.247-3.986 9.635-2.923 7.141-10.629 15.086-20.671 23.739-30.05.545-.974 1.274-1.868 2.209-2.609.275-.219.556-.428.832-.645 40.386-42.242 95.524-70.246 157.14-75.777-7.413-.665-14.914-1.025-22.5-1.025-137.244 0-248.501 111.258-248.501 248.501s111.257 248.501 248.501 248.501c7.586 0 15.087-.359 22.5-1.025-61.566-5.526-116.664-33.491-157.041-75.676z" fill="#ff5595"/></g></g></g><g><path d="m115.865 79.073c-7.648 6.073-8.304 17.517-1.363 24.458 11.194 11.194 286.181 286.182 293.969 293.97 6.907 6.906 18.354 6.323 24.458-1.363 71.251-89.737 63.798-218.592-17.337-299.727-81.137-81.137-209.989-88.589-299.727-17.338zm158.071 162.678c28.749 1.404 56.562 6.194 82.954 14.3-38.067 1.649-53.544-1.309-71.278-2.624zm28.288 28.288c40.475 3.855 86.963-.571 117.788-4.753-12.414 16.735-33.57 39.963-64.9 57.641zm128.676-21.481c-21.489 3.255-43.967 1.384-65.032-5.42-33.846-10.931-69.956-16.59-107.375-16.83-7.829-7.829-53.878-53.878-61.159-61.159 16.251-3.455 33.458-.526 47.808 8.465 6.598 4.133 15.123 4.134 21.719 0 26.943-16.884 62.605-11.522 82.957 12.466 21.559 25.413 48.83 46.414 81.135 62.47-.018.003-.036.005-.053.008zm-9.719 138.251c-.513.646-1.502.687-2.103.085l-52.989-52.989c42.939-25.36 67.31-60.12 76.525-75.338 1.842-2.066 3.102-4.674 3.558-7.629.994-6.448-2.276-12.727-8.138-15.624-30.606-15.132-56.438-34.962-76.779-58.937-12.266-14.458-29.408-23.97-48.271-26.781-18.774-2.799-37.982 1.217-54.088 11.308-1.758 1.103-4.031 1.102-5.789 0-20.367-12.761-45.41-15.604-67.945-7.927l-60.053-60.053c-.606-.606-.556-1.595.085-2.104 38.482-30.555 84.655-45.6 130.693-45.6 54.173 0 108.152 20.851 149.098 61.796 75.743 75.743 82.705 196.028 16.196 279.793z"/><path d="m256.001 0c-141.492 0-256.001 114.497-256.001 256.001 0 141.483 114.497 256.001 256.001 256.001 141.483 0 256.001-114.497 256.001-256.001 0-141.483-114.497-256.001-256.001-256.001zm0 497.002c-132.889 0-241.001-108.113-241.001-241.001s108.112-241.001 241.001-241.001 241.001 108.113 241.001 241.001-108.112 241.001-241.001 241.001z"/><path d="m103.53 114.502c-6.913-6.913-18.363-6.312-24.458 1.364-27.841 35.065-44.451 77.264-48.035 122.037-.33 4.129 2.749 7.744 6.878 8.075 4.161.33 7.745-2.749 8.074-6.877 3.346-41.794 18.848-81.182 44.83-113.906.519-.654 1.513-.678 2.104-.085l54.77 54.77c-19.851 22.405-44.624 41.047-73.724 55.435-8.957 4.428-10.978 16.07-4.588 23.247 13.939 23.008 64.799 94.156 164.306 103.658 4.121.397 7.785-2.63 8.179-6.753.394-4.124-2.63-7.785-6.753-8.179-76.674-7.322-122.319-54.007-143.11-81.998 83.498 11.324 116.965 3.973 143.661 2.561l73.677 73.677c-13 3.427-26.53 5.565-40.377 6.373-4.136.241-7.292 3.789-7.051 7.924.232 3.987 3.538 7.063 7.48 7.063.147 0 .295-.004.443-.013 17.809-1.039 35.152-4.143 51.629-9.223l65.428 65.428c.604.602.559 1.593-.085 2.104-132.092 104.876-327.494 18.427-340.815-148.281-.331-4.129-3.936-7.21-8.074-6.878-4.129.33-7.208 3.944-6.879 8.074 9.299 116.357 106.57 207.69 225.078 207.685 49.312-.002 98.797-16.125 140.018-48.854 7.649-6.074 8.305-17.515 1.364-24.458zm54.797 76.011 40.196 40.196c-17.944 2.813-35.508 6.978-52.39 12.43-21.036 6.794-43.486 8.669-64.927 5.434-.053-.008-.108-.017-.162-.025 30.373-15.079 56.341-34.584 77.283-58.035zm-3.181 65.54c18.233-5.596 37.258-9.638 56.683-12.039l9.788 9.788c-13.275 1.141-29.946 3.832-66.471 2.251z"/></g></g></svg>