<svg id="Capa_1" enable-background="new 0 0 512.005 512.005" height="512" viewBox="0 0 512.005 512.005" width="512" xmlns="http://www.w3.org/2000/svg"><g><g><path d="m341.438 8.011c-8.003-2.13-16.222 2.634-18.352 10.64l-15.642 58.804-16.933-51.744c-1.973-6.029-7.73-10.33-14.256-10.33-6.547 0-12.29 4.323-14.256 10.33l-16.932 51.743-15.642-58.803c-1.046-3.929-3.562-7.069-6.795-9.004-4.271 3.726-6.313 9.677-4.758 15.524l29.335 110.285c.776 2.915 2.365 5.443 4.483 7.376 2.83-1.821 5.046-4.579 6.147-7.943l18.417-56.283 18.418 56.283c2.021 6.178 7.783 10.335 14.252 10.335.142 0 .284-.002.426-.006 6.641-.187 12.366-4.719 14.074-11.138l28.652-107.717c2.131-8.006-2.633-16.222-10.638-18.352z" fill="#60b9fe"/><g><path d="m247.337 134.08-28.652-107.717c-1.603-6.028.704-12.172 5.357-15.751-3.565-2.726-8.299-3.842-12.967-2.601-8.006 2.13-12.77 10.346-10.641 18.352l28.652 107.717c1.708 6.419 7.435 10.951 14.074 11.138.143.004.284.006.426.006 3.378 0 6.558-1.142 9.119-3.106-2.563-1.967-4.494-4.752-5.368-8.038z" fill="#1ca8ff"/></g><path d="m451.039 103.672c-7.361 7.45-17.177 11.553-27.639 11.553-21.427 0-38.858-17.432-38.858-38.858s17.432-38.859 38.858-38.859c10.462 0 20.277 4.103 27.639 11.553 5.82 5.891 15.318 5.95 21.213.127 5.893-5.823 5.949-15.32.127-21.213-11.307-11.444-25.887-18.42-41.649-20.076-32.598 5.747-57.45 34.246-57.45 68.467s24.852 62.72 57.45 68.467c15.762-1.656 30.342-8.632 41.649-20.075 5.822-5.893 5.766-15.39-.127-21.212-5.893-5.826-15.391-5.768-21.213.126z" fill="#60b9fe"/><g><path d="m373.875 76.366c0-34.702 25.809-63.476 59.237-68.172-3.19-.448-6.432-.687-9.712-.687-37.969 0-68.858 30.89-68.858 68.859s30.89 68.858 68.858 68.858c3.28 0 6.521-.239 9.712-.687-33.428-4.696-59.237-33.469-59.237-68.171z" fill="#1ca8ff"/></g><g><path d="m281.906 398.594h-2.529c-14.851 41.822-54.812 71.854-101.663 71.854-59.466 0-107.846-48.38-107.846-107.846 0-48.315 31.936-89.312 75.807-102.989l1.314-3.554v-30.25l-.333-.371v3.669c-53.529 20.71-91.594 72.729-91.594 133.479 0 72.694 54.506 132.883 124.792 141.882 51.446-.766 96.346-29.031 120.607-70.734v-4.092z" fill="#dbedff"/><g><path d="m56.135 362.602c0-60.259 37.758-111.858 90.854-132.401v-4.392l-1.314-1.463c-62.866 14.564-109.864 71.024-109.864 138.256 0 78.246 63.658 141.903 141.903 141.903 3.419 0 6.808-.128 10.167-.367-73.522-5.226-131.746-66.706-131.746-141.536z" fill="#b5dcff"/></g><circle cx="162.524" cy="164.55" fill="#60b9fe" r="25.936"/><path d="m162.524 164.55c0-9.598 5.218-17.973 12.968-22.458-3.816-2.208-8.242-3.479-12.968-3.479-14.324 0-25.936 11.612-25.936 25.936s11.612 25.936 25.936 25.936c4.726 0 9.152-1.27 12.968-3.478-7.75-4.484-12.968-12.859-12.968-22.457z" fill="#1ca8ff"/><path d="m270.301 379.126 58.188 88.684 13.796 1.442c7.685-4.96 10.114-15.147 5.373-23.049l-55.72-92.866c-3.077-5.129-8.62-8.267-14.601-8.267h-97.605v-46.743l-4.118-3.891h-12.285v67.178c0 8.707 6.242 15.946 14.492 17.513h87.622 4.858z" fill="#1ca8ff"/><path d="m164.138 362.097v-67.663h-5.212l-11.625-13.137h-1.626v80.8c0 9.405 7.624 17.029 17.029 17.029h18.463c-9.405 0-17.029-7.624-17.029-17.029z" fill="#0094fd"/><path d="m336.918 463.725-49.601-82.668c-.719-1.198-2.014-1.931-3.411-1.931h-18.463c1.397 0 2.692.733 3.411 1.931l49.601 82.668c4.839 8.064 15.298 10.679 23.363 5.841.163-.098.309-.211.468-.314-2.123-1.369-3.981-3.216-5.368-5.527z" fill="#0094fd"/><path d="m281.715 264.269h-101.983v-48.679c0-6.227-3.354-11.658-8.342-14.627-4.386 3.141-7.251 8.268-7.251 14.073v66.814c0 7.706 5.038 14.229 11.997 16.475h105.58c9.404 0 17.028-7.624 17.028-17.028-.001-9.404-7.625-17.028-17.029-17.028z" fill="#60b9fe"/><path d="m164.425 281.297v-65.707c0-5.939 3.044-11.162 7.654-14.209-2.69-1.778-5.909-2.82-9.375-2.82-9.405 0-17.029 7.624-17.029 17.029v65.707c0 9.404 7.624 17.028 17.029 17.028h18.75c-9.405.001-17.029-7.623-17.029-17.028z" fill="#1ca8ff"/></g></g><g><path d="m137.923 215.59v2.923c-64.146 17.664-109.865 76.342-109.865 144.088 0 82.381 67.022 149.403 149.403 149.403 48.833 0 94.712-24.268 122.531-64.053l11.779 19.631c6.971 11.619 22.076 15.36 33.652 8.413 11.597-6.958 15.371-22.054 8.414-33.652l-22.521-37.534c-2.133-3.552-6.738-4.703-10.29-2.572s-4.704 6.738-2.573 10.29l22.521 37.534c2.703 4.505 1.237 10.37-3.268 13.073-4.507 2.705-10.371 1.236-13.073-3.268-8.288-13.813-43.225-72.042-50.759-84.599-1.355-2.259-3.797-3.641-6.432-3.641h-104.991c-5.254 0-9.528-4.274-9.528-9.528v-58.198c2.992 1.264 6.226 1.926 9.528 1.926h9.528v39.243c0 4.142 3.357 7.5 7.5 7.5h97.605c3.327 0 6.457 1.772 8.169 4.626l15.12 25.2c2.133 3.552 6.738 4.703 10.29 2.572s4.704-6.738 2.573-10.29l-15.12-25.199c-4.407-7.346-12.466-11.909-21.032-11.909h-90.105v-31.743h94.483c13.525 0 24.528-11.003 24.528-24.528s-11.003-24.528-24.528-24.528h-94.483v-41.18c0-8.57-4.421-16.123-11.099-20.51 11.671-5.223 19.827-16.938 19.827-30.53 0-18.437-14.999-33.436-33.436-33.436s-33.436 15-33.436 33.436c0 13.673 8.254 25.449 20.038 30.625-6.596 4.401-10.95 11.908-10.95 20.415zm39.539 281.415c-74.11 0-134.403-60.293-134.403-134.403 0-58.716 39.365-111.283 94.864-128.465v20.104c-43.93 16.129-75.808 58.3-75.808 108.361 0 63.603 51.744 115.347 115.347 115.347 43.629 0 83.233-24.771 102.75-62.963.06.101 11.108 18.512 11.244 18.739-24.523 39.145-67.798 63.28-113.994 63.28zm-15.011-110.38h100.746l7.63 12.717c-15.068 38.186-52.149 63.606-93.365 63.606-55.331 0-100.347-45.015-100.347-100.347 0-40.671 24.052-76.531 60.808-92.224v91.719c0 13.526 11.003 24.529 24.528 24.529zm119.012-114.856c5.254 0 9.528 4.274 9.528 9.528s-4.274 9.528-9.528 9.528c-24.781 0-93.187 0-119.012 0-5.254 0-9.528-4.274-9.528-9.528 0-15.949 0-49.842 0-65.707 0-5.254 4.274-9.528 9.528-9.528s9.528 4.274 9.528 9.528v48.679c0 4.142 3.357 7.5 7.5 7.5zm-119.192-125.655c10.165 0 18.436 8.271 18.436 18.436s-8.271 18.436-18.436 18.436-18.436-8.271-18.436-18.436 8.271-18.436 18.436-18.436z"/><path d="m343.115.764c-12.016-3.198-24.332 3.941-27.529 15.96l-9.136 34.348-9.063-27.693c-2.987-9.124-11.78-15.496-21.384-15.496-9.605 0-18.399 6.373-21.384 15.497l-9.062 27.69-9.136-34.347c-3.191-11.988-15.539-19.146-27.527-15.959-11.989 3.189-19.149 15.539-15.961 27.528l28.652 107.718c2.543 9.559 11.225 16.429 21.117 16.707 9.994.272 18.911-6.022 22.011-15.494l11.289-34.5 11.29 34.5c3.034 9.272 11.626 15.502 21.38 15.502.21 0 .422-.003.637-.009 9.887-.278 18.568-7.148 21.111-16.708l16.421-61.735c-.955 34.959 21.323 64.807 53.354 74.921 3.955 1.248 8.163-.944 9.411-4.894 1.247-3.95-.944-8.163-4.895-9.41-25.674-8.107-42.924-31.626-42.924-58.525 0-33.833 27.525-61.358 61.358-61.358 16.522 0 32.021 6.477 43.644 18.238 2.906 2.941 2.878 7.7-.063 10.606-2.942 2.907-7.699 2.878-10.607-.063-8.781-8.887-20.491-13.781-32.974-13.781-25.563 0-46.358 20.796-46.358 46.358s20.796 46.358 46.358 46.358c12.482 0 24.192-4.895 32.975-13.782 2.905-2.942 7.652-2.982 10.605-.062 2.948 2.912 2.978 7.658.063 10.605-8.499 8.601-19.177 14.447-30.879 16.907-4.054.852-6.648 4.829-5.797 8.882.851 4.045 4.82 6.65 8.883 5.796 14.59-3.067 27.89-10.343 38.463-21.042 8.72-8.825 8.635-23.099-.189-31.817-8.837-8.737-23.08-8.659-31.82.188-5.941 6.013-13.862 9.324-22.304 9.324-17.291 0-31.358-14.067-31.358-31.358s14.067-31.358 31.358-31.358c8.441 0 16.362 3.312 22.304 9.324 8.721 8.825 22.994 8.909 31.819.19 8.824-8.72 8.91-22.994.19-31.819-14.458-14.634-33.747-22.694-54.31-22.694-29.043 0-54.346 16.302-67.253 40.233l3.179-11.95c3.189-11.988-3.972-24.337-15.959-27.526zm1.463 23.671-28.652 107.717c-.848 3.186-3.741 5.477-7.033 5.569l-.219.003c-3.25 0-6.112-2.077-7.124-5.167l-18.418-56.283c-2.249-6.872-12.007-6.87-14.256 0l-18.417 56.283c-1.012 3.091-3.874 5.167-7.124 5.167l-.215-.003c-3.296-.093-6.189-2.383-7.037-5.569l-28.653-107.716c-1.063-3.997 1.324-8.114 5.32-9.177 3.994-1.061 8.111 1.323 9.176 5.32l15.642 58.803c1.92 7.219 12.071 7.448 14.376.405l16.932-51.743c2.241-6.85 12.014-6.846 14.256 0l16.933 51.744c2.315 7.073 12.463 6.791 14.376-.405l15.642-58.804c1.063-4 5.168-6.388 9.174-5.321h.002c3.995 1.064 6.381 5.181 5.319 9.177z"/></g></g></svg>