<svg id="Capa_1" enable-background="new 0 0 512.014 512.014" height="512" viewBox="0 0 512.014 512.014" width="512" xmlns="http://www.w3.org/2000/svg"><g><g><path d="m499.787 140.617-2.474-3.691s-14.065-5.201-22.815 3.691-43.962 41.684-43.962 41.684l-.441 6.303 13.042 12.562c1.094 1.094 1.668 2.498 1.774 3.929l48.938-48.939c4.251-4.251 6.215-9.941 5.938-15.539z" fill="#9790cc"/><path d="m474.571 144.128c6.552-6.552 17.196-7.716 25.216-3.511-.243-4.914-2.207-9.757-5.938-13.489-7.983-7.983-22.045-7.983-30.028 0l-47.861 47.861 14.135 13.615z" fill="#8479c2"/><path d="m489.031 36.234-3.867-5.058s-11.917-3.05-21.417 5.058-91.708 89.067-91.708 89.067l.189 6.356 15.097 15.097 95.691-95.691c4.073-4.074 6.072-9.46 6.015-14.829z" fill="#9790cc"/><path d="m464.287 39.599c6.676-6.677 16.875-7.785 24.745-3.364-.055-5.221-2.054-10.425-6.015-14.386-8.034-8.034-21.18-8.034-29.213 0l-95.691 95.691 14.117 14.117z" fill="#8479c2"/><path d="m494.748 83.411s-13.25-5.794-22.75 2.735-70.583 68.726-70.583 68.726l-.649 5.738 15.287 15.286 75.17-75.171c4.022-4.022 6.053-9.304 6.09-14.58z" fill="#9790cc"/><path d="m472.695 89.698c6.669-6.669 16.796-7.852 24.618-3.552.037-5.301-1.94-10.596-5.941-14.597-7.983-7.983-21.112-7.916-29.176.148l-75.171 75.171 14.25 14.25z" fill="#8479c2"/><path d="m436.498 21.426s-14.167-.75-20.333 3.5c-6.167 4.25-72.125 71.75-72.125 71.75l-.644 5.501 15.132 15.132 74.726-74.725c5.058-5.058 6.927-12.134 5.62-18.674z" fill="#9790cc"/><path d="m416.976 28.598c5.904-5.904 14.557-7.459 21.898-4.688-.765-3.826-2.612-7.47-5.559-10.416-7.983-7.983-21.073-7.955-29.089.061l-75.674 75.674c1.33.16 2.62.723 3.639 1.742l11.206 11.206z" fill="#8479c2"/><path d="m275.706 44.367c-7.147 1.496-13.352 6.634-15.792 14.031l-16.526 50.115 19.026-.421 2.875 2.295s1.185.368.967 0l14.771-44.793c2.546-7.721.191-15.916-5.321-21.227z" fill="#9790cc"/><path d="m260.374 58.827c2.449-7.426 8.798-12.522 16.032-13.783-2.258-2.392-5.116-4.274-8.444-5.371-10.722-3.536-22.386 2.344-25.922 13.065l-18.243 55.322.951.865 19.246-.426z" fill="#8479c2"/><path d="m266.038 110.02c-1.151-1.938-3.262-3.1-5.515-3.036l-17.352.496c-.121.274-.23.556-.313.851l-19.428 69.5c-.621 2.221.004 4.603 1.634 6.234l4.58 4.58h1.594l49.077-49.302v-5.276z" fill="#dbedff"/><path d="m225.616 184.193c-1.585-1.585-2.192-3.902-1.589-6.061l18.89-67.575c.354-1.264 1.09-2.339 2.057-3.129l-20.835.595c-2.718.078-5.069 1.915-5.801 4.534l-18.89 67.575c-.604 2.159.004 4.476 1.589 6.061l13.576 13.576h5.551l10.49-10.538z" fill="#8bcaff"/><path d="m443.136 201.166-100.252-100.252-109.68 109.68c-3.177 3.177-5.052 7.427-5.256 11.916l-.724 15.924 48.632 48.632 10.059-2.39 82.5-74.5 36.75 29.586h8.154l29.817-29.817c2.425-2.425 2.425-6.355 0-8.779z" fill="#dbedff"/><g><path d="m228.395 239.575.768-16.885c.202-4.441 2.057-8.647 5.201-11.791l109.253-109.253-11.051-11.05c-2.424-2.424-6.355-2.424-8.779 0l-109.174 109.173-1.009 22.186c-.079 1.743.578 3.438 1.812 4.672l12.979 12.979c.001-.01 0-.021 0-.031z" fill="#b5dcff"/></g><path d="m279.041 343.493-78.573-78.573c-4.717-1.567-10.133-.503-13.87 3.234l-31.918 31.917 87.984 88.392h7.266l29.111-29.111c4.362-4.36 4.362-11.497 0-15.859z" fill="#dbedff"/><path d="m187.013 268.972c4.007-4.007 9.999-4.873 14.881-2.626l-28.203-28.203c-4.361-4.361-11.498-4.361-15.859 0l-29.111 29.111-2.056 4.672 28.631 28.763z" fill="#b5dcff"/><path d="m171.142 458.509-46.811-52.333 28.667-31-.28-10.71-3.387-11.457-25.781-24.408-79.247 79.247c-3.363 3.363-4.686 8.011-3.998 12.398l80.991 80.991c4.361 4.361 11.498 4.362 15.859 0l34.239-34.239z" fill="#dbedff"/><path d="m45.893 408.137 78.622-78.622-27.351-25.894h-4.811l-76.407 76.407c-4.361 4.361-4.361 11.498 0 15.859l26.523 26.523c-1.554-4.868-.421-10.428 3.424-14.273z" fill="#b5dcff"/><path d="m175.016 382.212-29.062 29.062c-6.534 6.534-8.537 15.937-6.039 24.247l31.479 31.479 42.168-42.168v-4.03z" fill="#b5dcff"/><path d="m146.949 412.123 28.504-28.504h.968l-19.132-19.153h-4.571l-26.479 26.479c-8.497 8.497-8.497 22.402 0 30.899l15.453 15.453c-3.262-8.432-1.519-18.398 5.257-25.174z" fill="#8bcaff"/><path d="m392.424 218.868c-7.469-.713-15.186 1.774-20.906 7.494l-74.076 74.076 72.831-18.844c1.073-.277 2.051-.837 2.835-1.62l40.211-40.211z" fill="#b5dcff"/><path d="m371.869 226.802c5.782-5.782 13.638-8.216 21.173-7.317l-6.684-6.683c-10.007-10.007-26.232-10.007-36.239 0l-74.264 74.264 12.551 12.552c1.555 1.555 3.816 2.171 5.944 1.62l4.158-1.076z" fill="#8bcaff"/><path d="m248.057 386.11-93.005-93.005c-4.866-1.133-10.198.175-13.972 3.949l-18.926 18.926c-3.774 3.774-5.082 9.106-3.949 13.972l93.005 93.005c5.343 5.343 14.087 5.343 19.43 0l17.417-17.417c5.343-5.343 5.343-14.087 0-19.43z" fill="#ffc365"/><path d="m122.608 316.178 18.669-18.67c3.895-3.894 9.473-5.134 14.446-3.732l-24.648-24.648c-5.343-5.343-14.087-5.343-19.43 0l-17.417 17.417c-5.343 5.343-5.343 14.087 0 19.43l24.648 24.648c-1.402-4.973-.163-10.551 3.732-14.445z" fill="#ffa90f"/><path d="m293.069 302.279-53.572-53.572c-5.508-2.151-12.028-1.024-16.458 3.407l-8.756 8.756c-4.43 4.43-5.558 10.951-3.407 16.458l53.572 53.572c5.607 5.607 14.783 5.607 20.39 0l8.23-8.23c5.608-5.608 5.608-14.784.001-20.391z" fill="#9790cc"/><path d="m215.016 261.362 8.515-8.515c4.694-4.694 11.805-5.587 17.422-2.684l-26.048-26.048c-5.607-5.607-14.783-5.607-20.39 0l-8.23 8.23c-5.607 5.607-5.607 14.783 0 20.39l26.048 26.048c-2.904-5.616-2.012-12.727 2.683-17.421z" fill="#8479c2"/></g><path d="m10.39 401.191 33.996 33.997c2.929 2.927 7.677 2.929 10.607 0 2.929-2.93 2.929-7.678 0-10.606l-33.996-33.998c-1.424-1.423-1.424-3.828 0-5.251l70.863-70.864 49.998 49.997-21.175 21.175c-11.442 11.443-11.442 30.063 0 41.507l39.852 39.852-28.935 28.935c-1.422 1.425-3.828 1.424-5.252-.001l-46.605-46.604c-2.929-2.928-7.677-2.928-10.607 0-2.929 2.93-2.929 7.678 0 10.607l46.605 46.604c7.297 7.295 19.168 7.298 26.467.001 7.478-7.478 66.391-66.391 72.841-72.841 7.548 2.061 15.334-.134 20.641-5.441l17.419-17.418c5.582-5.583 7.385-13.522 5.441-20.643l25.544-25.544c6.931-6.932 7.264-17.986 1.026-25.331 2.082-1.03 4.039-2.392 5.771-4.123l6.229-6.23c5.914-5.913 7.804-14.463 5.37-22.159l69.408-17.958c2.369-.612 4.535-1.852 6.262-3.579 9.818-9.819 60.287-60.288 70.026-70.027 1.886-1.885 3.146-4.225 3.696-6.771l15.577-15.577c2.929-2.93 2.929-7.678 0-10.607-2.93-2.928-7.678-2.928-10.607 0l-11.116 11.116-18.42-18.42 42.576-42.576c5.082-5.061 13.33-5.053 18.402.018 5.079 5.078 5.079 13.343 0 18.421l-6.692 6.692c-2.929 2.93-2.929 7.678 0 10.607 2.93 2.928 7.678 2.928 10.607 0l6.692-6.692c10.927-10.928 10.927-28.708 0-39.636-3.324-3.323-7.283-5.629-11.489-6.931l9.011-9.012c10.927-10.928 10.927-28.708-.001-39.636-3.324-3.323-7.283-5.629-11.489-6.931l3.135-3.135c10.927-10.928 10.927-28.708 0-39.635-10.922-10.92-28.714-10.922-39.636 0l-3.132 3.132c-1.324-4.296-3.676-8.227-6.935-11.485-10.919-10.92-28.712-10.92-39.635.001l-73.324 73.324c-2.703.499-5.191 1.793-7.175 3.778l-36.646 36.646-7.389-12.444 13.701-41.551c4.84-14.675-3.162-30.553-17.839-35.394-14.665-4.834-30.556 3.169-35.394 17.84l-17.063 51.742c-3.224 1.716-5.701 4.692-6.739 8.406l-18.892 67.575c-1.33 4.76.015 9.888 3.509 13.383l11.238 11.238-.494 10.865c-6.495-.82-13.288 1.236-18.266 6.212l-6.23 6.23c-1.731 1.731-3.093 3.689-4.123 5.77-7.345-6.236-18.399-5.903-25.33 1.026l-25.547 25.547c-7.332-1.992-15.158-.042-20.639 5.439l-17.418 17.418c-5.582 5.583-7.385 13.523-5.44 20.644l-72.84 72.84c-7.295 7.297-7.295 19.168 0 26.466zm120.901 15.349c-5.595-5.595-5.595-14.697 0-20.292l21.175-21.176 49.998 49.999-31.321 31.321zm161.644-122.749-6.726-6.726 68.961-68.96c7.065-7.068 18.564-7.069 25.632 0l21.657 21.656-34.66 34.659zm192.88-216.937c5.079 5.078 5.079 13.343 0 18.421-16.21 16.21-53.48 53.48-69.107 69.107l-18.421-18.421 69.107-69.107c5.078-5.08 13.343-5.08 18.421 0zm-26.775-49.703c5.058-5.058 13.363-5.059 18.421.001 5.079 5.078 5.079 13.342 0 18.421-14.427 14.426-81.314 81.313-89.781 89.78l-18.421-18.421c8.012-8.011 75.634-75.634 89.781-89.781zm-49.703-8.353c5.057-5.059 13.362-5.06 18.422 0 5.057 5.057 5.059 13.36.001 18.419l-69.109 69.109-18.42-18.42zm-81.413 78.015c15.927 15.927-17.355-17.354 108.742 108.743l-23.6 23.599-21.656-21.657c-12.915-12.913-33.93-12.915-46.847 0l-68.96 68.96-54.732-54.733.851-18.709c4.388-4.388 95.49-95.491 106.202-106.203zm-79.013-41.726c2.242-6.802 9.609-10.546 16.449-8.292 6.821 2.25 10.541 9.63 8.291 16.451l-11.967 36.291c-.053-.005-.108-.001-.162-.005-.485-.039-.973-.059-1.466-.046l-26.032.744zm-23.859 60.406c7.721-.221 25.442-.727 34.672-.991l10.914 18.382c-3.516 3.516 15.024-15.024-56.278 56.279l-7.739-7.739zm-32.717 121.157 6.229-6.23c2.699-2.697 7.087-2.699 9.784 0 7.714 7.714 68.77 68.771 78.163 78.164 2.68 2.678 2.682 7.103 0 9.782l-6.23 6.23c-2.697 2.699-7.086 2.699-9.783 0l-78.163-78.163c-2.698-2.698-2.698-7.086 0-9.783zm-29.453 6.796c1.422-1.424 3.83-1.424 5.252 0 35.214 35.214 70.299 70.299 105.351 105.351 1.424 1.423 1.424 3.829 0 5.252l-23.567 23.568-110.604-110.604zm-63.605 48.403 17.419-17.418c2.458-2.46 6.462-2.367 8.822.001l116.982 116.982c2.379 2.379 2.473 6.349.001 8.822l-17.419 17.417c-2.493 2.495-6.472 2.358-8.822 0-13.183-13.183-103.09-103.09-116.982-116.982-.01-.01-.018-.021-.028-.031-2.378-2.426-2.411-6.353.027-8.791z"/></g></svg>