<svg id="Capa_1" enable-background="new 0 0 512.004 512.004" height="512" viewBox="0 0 512.004 512.004" width="512" xmlns="http://www.w3.org/2000/svg"><g><g><path d="m362.002 175.005-20.126-43.161c-9.124-19.566-28.969-32.208-50.558-32.208h-52.035v223.059l1 5.82v-5.82c0-8.385 6.444-15.6 14.82-15.994 8.942-.421 16.324 6.705 16.324 15.554v163.68c0 9.723 7.472 18.089 17.184 18.546 10.369.488 18.929-7.774 18.929-18.036v-328.966c0-3.286 4.462-4.282 5.851-1.304 3.039 6.516 7.914 17.003 15.883 34.093 2.706 5.802 4.137 12.254 4.137 18.657v79.192c0 9.723 7.471 18.088 17.183 18.546 10.369.489 18.929-7.774 18.929-18.036v-79.702c-.001-11.642-2.601-23.371-7.521-33.92z" fill="#60b9fe"/><path d="m169.833 131.843-13.573 29.107v4.461l26.289 17.25 3.877-.954c5.659-12.142 9.401-20.188 11.894-25.533 1.388-2.978 5.85-1.982 5.85 1.304v328.457c0 9.723 7.471 18.089 17.183 18.546 10.369.489 18.93-7.774 18.93-18.036v-163.75-223.059h-19.893c-21.68 0-41.395 12.56-50.557 32.207z" fill="#1ca8ff"/><path d="m180.673 228.367h49.25v-16.455l-2.44-3.601h-32.583l-3.101 2.351-10.25-3.875-.095-6.404c-.93-2.614-.943-5.527.152-8.213.261-.641.538-1.275.83-1.902 1.428-3.063 2.754-5.906 3.99-8.56l-30.166-20.757-6.554 14.055c-2.206 4.731-3.771 9.37-4.883 13.625 3.925 12.945 14.614 39.736 35.85 39.736z" fill="#dbedff"/><path d="m229.923 242.341v-15.974c-15.246 0-34.657 0-49.25 0-20.734 0-31.413-25.537-35.561-38.794-.503 1.829-.932 3.601-1.28 5.279-1.585 7.643-.874 15.58 1.978 22.846 2.126 5.417 5.403 10.295 9.583 14.322l4.655 1.39 31.875 9.75 2.976 3.262h32.583z" fill="#b5dcff"/><path d="m254.423 228.367s8.287-.429 11.845-8.614c-2.639-6.7-9.169-11.442-16.806-11.442h-21.979v20.056z" fill="#b5dcff"/><path d="m267.508 226.985c.099-2.961-.534-5.758-1.703-8.255-3.764 7.245-11.382 7.637-11.382 7.637s-11.728 0-26.94 0v18.056h21.506c9.813 0 18.191-7.63 18.519-17.438z" fill="#8bcaff"/><path d="m180.673 228.367h14.226v-20.056h-2.028c-1.935 0-3.869-.389-5.589-1.275-2.84-1.462-4.847-3.891-5.829-6.653l-18.324 20.84c4.814 4.291 10.617 7.144 17.544 7.144z" fill="#b5dcff"/><path d="m180.673 226.367c-6.453 0-11.929-2.477-16.541-6.285l-8.739 9.939c.455.439.913.876 1.39 1.294l2.848 2.497c7.801 6.84 17.822 10.611 28.197 10.611h7.072v-18.056c-5.015 0-9.839 0-14.227 0z" fill="#8bcaff"/><path d="m269.947 10.864c-9.708 5.497-16.271 15.904-16.271 27.857s6.563 22.359 16.271 27.857c10.16-5.15 17.128-15.687 17.128-27.857s-6.968-22.707-17.128-27.857z" fill="#60b9fe"/><path d="m254.093 38.721c0-11.915 6.677-22.268 16.491-27.53-4.388-2.353-9.402-3.69-14.73-3.69-17.243 0-31.221 13.978-31.221 31.221s13.978 31.221 31.221 31.221c5.327 0 10.341-1.338 14.73-3.69-9.814-5.264-16.491-15.617-16.491-27.532z" fill="#1ca8ff"/></g><g><g><path d="m255.601 77.441c21.351 0 38.721-17.37 38.721-38.721s-17.371-38.72-38.721-38.72-38.721 17.37-38.721 38.721 17.37 38.72 38.721 38.72zm0-62.441c13.08 0 23.721 10.641 23.721 23.721s-10.641 23.721-23.721 23.721-23.721-10.642-23.721-23.721 10.641-23.721 23.721-23.721z"/><path d="m369.27 254.423c-4.143 0-7.5 3.357-7.5 7.5v26.703c0 5.927-4.891 10.809-11.076 10.545-5.534-.262-10.037-5.221-10.037-11.055v-79.192c0-7.49-1.674-15.038-4.839-21.826-5.454-11.695-7.338-15.747-15.884-34.093-2.109-4.525-6.984-6.93-11.862-5.851-4.878 1.082-8.285 5.327-8.285 10.324v328.967c0 6.041-5.042 10.837-11.077 10.543-5.534-.26-10.036-5.219-10.036-11.054v-163.68c0-12.957-10.831-23.713-24.177-23.046-12.318.58-21.967 10.896-21.967 23.485v56.759c0 4.143 3.357 7.5 7.5 7.5s7.5-3.357 7.5-7.5v-56.759c0-4.489 3.441-8.303 7.672-8.503 4.675-.207 8.472 3.48 8.472 8.063v163.68c0 13.959 10.688 25.396 24.331 26.038 14.834.695 26.782-11.175 26.782-25.527v-308.964c2.12 4.551 4.579 9.83 7.437 15.958 2.246 4.816 3.434 10.172 3.434 15.486v79.192c0 13.957 10.688 25.395 24.331 26.038 14.927.697 26.782-11.268 26.782-25.528v-26.703c-.001-4.142-3.359-7.5-7.501-7.5z"/><path d="m368.546 171.835-20.126-43.162c-10.351-22.196-32.863-36.538-57.355-36.538h-70.928c-24.491 0-47.004 14.342-57.354 36.538l-13.571 29.104c-.001.001-.001.002-.002.003-6.754 14.482-10.376 21.025-12.973 33.549-6.839 32.963 22.505 60.594 51.338 60.594h8.842v234.012c0 13.958 10.688 25.396 24.33 26.037 14.671.72 26.783-11.037 26.783-25.526v-71.992c0-4.143-3.357-7.5-7.5-7.5s-7.5 3.357-7.5 7.5v71.992c0 6.042-5.042 10.837-11.077 10.543-5.534-.26-10.036-5.219-10.036-11.054v-234.012h37.282.037c12.764 0 24.053-9.129 25.819-22.332 1.531-12.168-5.705-23.483-16.961-27.376l36.579-94.973c17.463 1.137 33.196 11.78 40.654 27.771l20.126 43.162c4.46 9.563 6.817 20.196 6.817 30.75v17.999c0 4.143 3.357 7.5 7.5 7.5s7.5-3.357 7.5-7.5v-17.999c0-12.73-2.844-25.555-8.224-37.09zm-129.066 28.976v-93.675h38.659l-36.078 93.675zm-63.104-65.798c7.897-16.935 25.074-27.877 43.761-27.877h4.343v93.675h-13.063v-43.333c0-11.275-15.378-14.696-20.147-4.474l-8.151 17.497-17.632-12.133zm-10.648 94.324 15.2-17.287c1.815 1.336 3.914 2.395 6.219 3.032v21.831c-7.522-.091-15.1-2.588-21.419-7.576zm-14.804-34.962c2.053-9.904 5.043-15.596 8.133-22.221l17.637 12.136c-2.177 4.67-4.124 8.163-3.569 13.919l-17.798 20.242c-4.56-7.244-6.106-15.868-4.403-24.076zm41.694 6.436c-3.159 0-6.03-2.24-3.639-7.375 4.138-8.876 2.476-5.31 7.437-15.958v23.333c-2.18 0-2.471 0-3.798 0zm9.529 36.112v-21.112h17.583v21.112c-6.491 0-11.161 0-17.583 0zm32.583 0v-21.112h14.479c5.613 0 10.219 4.423 10.534 9.923.364 6.173-4.883 11.19-11.044 11.19h-13.969z"/></g></g></g></svg>