<svg id="Capa_1" enable-background="new 0 0 512.007 512.007" height="512" viewBox="0 0 512.007 512.007" width="512" xmlns="http://www.w3.org/2000/svg"><g><g><path d="m149.131 421.403 13.461 13.461c4.322 4.322 10.539 5.573 15.973 3.781 1.018-4.836-.341-10.073-4.096-13.829l-13.018-13.018h-3.542l-8.779 8.772v.833z" fill="#b5dcff"/><path d="m162.487 434.382-13.018-13.018v-1.132l-9.417 9.409v3.555l13.018 13.018c5.909 5.909 15.49 5.909 21.399 0 2.381-2.381 3.785-5.36 4.248-8.452-5.431 2.13-11.842 1.008-16.23-3.38z" fill="#8bcaff"/><path d="m127.739 291.069c-3.657-3.657-8.721-5.045-13.45-4.175-2.141 5.616-.969 12.204 3.555 16.728l12.719 12.719 10.194-10.28v-1.975z" fill="#b5dcff"/><path d="m118.34 303.718c-4.59-4.59-5.598-11.388-3.058-16.967-3.267.38-6.436 1.812-8.942 4.318-5.909 5.909-5.909 15.49 0 21.399l13.018 13.018 2.566-.432 8.839-8.913z" fill="#8bcaff"/><path d="m260.236 169.634h-3.449l-10.027 10.193 82.544 82.544 8.692-8.199 1.414-5.365z" fill="#b5dcff"/><path d="m248.157 178.407-9.32 9.473v3.153l79.174 79.174h2.985l9.758-9.204z" fill="#8bcaff"/><path d="m192.634 377.891 13.461 13.461c4.322 4.322 10.539 5.573 15.973 3.781 1.018-4.836-.341-10.073-4.096-13.829l-13.018-13.018h-3.542l-8.779 8.772v.833z" fill="#b5dcff"/><path d="m205.99 390.87-13.018-13.018v-1.132l-9.417 9.409v3.555l13.018 13.018c5.909 5.909 15.49 5.909 21.399 0 2.381-2.381 3.785-5.36 4.248-8.452-5.431 2.131-11.842 1.008-16.23-3.38z" fill="#8bcaff"/><path d="m84.228 334.583c-3.657-3.657-8.721-5.045-13.45-4.175-2.141 5.616-.969 12.204 3.555 16.728l12.719 12.719 10.194-10.28v-1.975z" fill="#b5dcff"/><path d="m74.829 347.232c-4.59-4.59-5.598-11.388-3.058-16.967-3.267.38-6.436 1.812-8.942 4.318-5.909 5.909-5.909 15.49 0 21.399l13.018 13.018 2.566-.432 8.839-8.913z" fill="#8bcaff"/><path d="m177.241 333.51c-3.295.483-6.342 2.031-8.676 4.406l-104.05 105.904-1.405.978 10.385 10.269h2.267l108.325-108.325c3.98-3.98 5.227-9.663 3.785-14.791z" fill="#dbedff"/><path d="m183.889 325.143c-6.019-6.019-15.689-6.109-21.598-.199l-108.326 108.325v2.486l10.152 10.038 1.398-.974 104.05-105.903c2.334-2.376 5.381-3.923 8.676-4.406l9.913-1.454c-.587-2.89-2.01-5.658-4.265-7.913z" fill="#b5dcff"/><path d="m422.225 204.755-9.276-9.211-87.523 87.523c-11.301 11.301-25.45 19.403-40.916 23.428l-23.604 6.143c-20.73 5.396-39.693 16.253-54.839 31.4l-80.45 80.45c-4.307 4.307-5.492 10.541-3.586 15.924 5.066 1.379 10.707.091 14.685-3.887l79.605-79.605c11.182-11.182 25.182-19.198 40.486-23.182l23.355-6.079c20.512-5.338 39.276-16.082 54.263-31.07l88.292-88.292z" fill="#dbedff"/><path d="m128.649 424.662 79.605-79.605c14.987-14.987 33.751-25.731 54.263-31.07l23.356-6.079c15.304-3.983 29.304-11.999 40.486-23.182l87.891-87.891-9.962-9.892h-3.014l-88.248 88.248c-11.182 11.182-25.182 19.199-40.486 23.182l-23.356 6.079c-20.512 5.339-39.275 16.083-54.263 31.07l-79.605 79.605c-5.909 5.909-5.909 15.49 0 21.399 2.767 2.767 6.34 4.221 9.963 4.397-2.145-5.437-1.026-11.865 3.37-16.261z" fill="#b5dcff"/><path d="m321.037 102.38-9.202-9.784-87.196 87.196c-15.196 15.197-26.09 34.223-31.503 55.021l-6.164 23.681c-4.039 15.518-12.167 29.713-23.505 41.052l-80.716 80.716c-4.732 4.731-5.713 11.78-2.971 17.487 4.921 1.144 10.301-.186 14.137-4.021l79.605-79.605c14.987-14.987 25.731-33.751 31.07-54.263l6.078-23.356c3.983-15.304 11.999-29.304 23.182-40.486l88.248-88.248z" fill="#dbedff"/><path d="m84.94 380.329 79.605-79.605c11.182-11.182 19.198-25.182 23.182-40.487l6.079-23.355c5.338-20.511 16.082-39.276 31.069-54.263l88.445-88.445-8.032-8.539h-3.851l-88.984 88.984c-14.987 14.987-25.731 33.752-31.07 54.263l-6.078 23.355c-3.983 15.304-12 29.304-23.182 40.487l-79.605 79.605c-5.909 5.909-5.909 15.49 0 21.399 2.713 2.713 6.2 4.165 9.75 4.386-3.032-5.718-2.144-12.97 2.672-17.785z" fill="#b5dcff"/><path d="m26.039 470.606c9.417 9.417 19.168 19.168 27.72 27.719l22.004-43.258c-4.152-4.152-7.69-7.691-11.248-11.248z" fill="#6e60b8"/><path d="m53.965 433.269-43.258 22.004 16.333 16.333 38.476-26.786c-3.661-3.661-7.283-7.282-11.551-11.551z" fill="#6353b2"/><g><path d="m56.724 508.791c-1.919 0-3.839-.732-5.303-2.197l-48.972-48.971c-2.929-2.929-2.929-7.678 0-10.606 2.929-2.929 7.678-2.929 10.606 0l48.972 48.972c2.929 2.929 2.929 7.678 0 10.606-1.464 1.464-3.383 2.196-5.303 2.196z" fill="#8479c2"/></g><path d="m299.692 10.923-2.113 2.5 5.083 48.833 143.75 146 55.625 9.625 2.515-2.098c1.13-6.997-2.948-13.99-9.921-16.264l-21.587-7.039c-5.235-1.707-9.994-4.627-13.887-8.521-5.082-5.081-122.573-122.573-127.641-127.641-3.894-3.894-6.813-8.652-8.521-13.887l-7.039-21.587c-2.274-6.974-9.267-11.051-16.264-9.921z" fill="#ffc365"/><path d="m501.555 215.602-22.23-3.898c-15.092-2.646-29.876-10.576-41.63-22.33-2.158-2.158-109.436-109.436-111.595-111.594-11.753-11.753-19.683-26.538-22.33-41.63l-3.898-22.23c-.181-1.031-.232-2.033-.181-2.997-.829.134-1.657.325-2.478.609-6.264 2.168-10.295 8.268-9.834 14.881l1.704 24.425c1.157 16.581 8.267 32.186 20.02 43.939 2.158 2.158 109.437 109.437 111.595 111.595 11.753 11.753 27.358 18.863 43.939 20.02l24.425 1.704c6.612.461 12.713-3.57 14.881-9.833.284-.821.475-1.65.609-2.478-.964.049-1.965-.003-2.997-.183z" fill="#ffa90f"/></g><g><path d="m51.168 506.594c2.93 2.929 7.678 2.929 10.607 0 2.751-2.751 2.917-7.107.5-10.053l19.17-37.19 23.867-23.867c1.099 2.322 2.577 4.474 4.447 6.344 8.139 8.14 20.957 8.828 29.896 1.841l7.849 7.849c8.847 8.845 23.16 8.846 32.006 0 8.823-8.824 8.823-23.182 0-32.005l-7.714-7.714 11.506-11.506 7.714 7.714c8.844 8.845 23.158 8.846 32.006 0 8.842-8.842 8.846-23.161 0-32.005l-7.714-7.715 6.062-6.062c10.239-10.239 23.059-17.58 37.072-21.227l23.354-6.079c21.802-5.674 41.747-17.094 57.679-33.024l19.379-19.379c2.929-2.929 2.929-7.678 0-10.606-2.93-2.929-7.678-2.929-10.607 0l-19.378 19.379c-14.046 14.045-31.629 24.112-50.85 29.115l-23.354 6.079c-16.596 4.319-31.776 13.012-43.902 25.137-33.304 33.304-44.577 44.577-79.604 79.604-2.982 2.982-7.809 2.984-10.791 0-2.983-2.983-2.983-7.81 0-10.792l79.604-79.605c14.044-14.044 31.627-24.112 50.848-29.115l23.355-6.079c16.595-4.319 31.775-13.011 43.901-25.137 17.625-17.625 65.211-65.211 82.943-82.944l10.793 10.793-38.817 38.816c-2.929 2.929-2.929 7.678 0 10.606 2.929 2.929 7.677 2.929 10.607 0l39.309-39.309c11.797 8.974 26.017 14.372 40.952 15.414l24.424 1.704c9.943.694 19.212-5.388 22.491-14.862 4.059-11.73-2.277-24.479-14.075-28.326l-21.587-7.039c-4.093-1.334-7.865-3.649-10.909-6.693l-127.64-127.641c-3.045-3.044-5.359-6.817-6.693-10.909l-7.039-21.587c-3.848-11.798-16.595-18.134-28.326-14.075-9.447 3.27-15.559 12.518-14.861 22.489l1.703 24.425c.824 11.809 4.385 23.164 10.27 33.234l-84.723 84.724c-15.93 15.93-27.35 35.875-33.024 57.677l-6.078 23.355c-3.647 14.013-10.987 26.833-21.228 37.073l-6.062 6.062-7.714-7.714c-8.823-8.823-23.182-8.825-32.007 0-8.823 8.824-8.823 23.182.001 32.006l7.714 7.714-11.506 11.506-7.714-7.714c-8.825-8.825-23.182-8.823-32.005 0-8.843 8.841-8.847 23.16-.001 32.006l7.849 7.849c-6.916 8.872-6.314 21.742 1.84 29.897 1.896 1.895 4.055 3.358 6.352 4.439l-23.875 23.873-37.19 19.171c-2.947-2.416-7.302-2.25-10.053.501-2.929 2.929-2.929 7.678 0 10.606zm117.736-76.475c2.983 2.983 2.983 7.809 0 10.793-2.981 2.982-7.808 2.982-10.791 0l-7.715-7.714 10.792-10.792zm43.511-43.511c2.982 2.983 2.983 7.81 0 10.792-2.981 2.982-7.809 2.983-10.792 0l-7.714-7.714 10.793-10.793zm-161.256 98.763-27.739-27.738 29.066-14.983 13.654 13.655zm219.239-194.256-23.356 6.079c-19.981 5.201-38.392 15.24-53.593 29.141-1.086-2.348-2.57-4.556-4.503-6.489-1.908-1.907-4.106-3.408-6.481-4.512 13.897-15.199 23.933-33.607 29.133-53.585l6.078-23.355c3.61-13.867 10.841-26.562 20.915-36.748l68.556 68.556c-10.187 10.073-22.882 17.304-36.749 20.913zm120.015-104.171-51.257 51.257-21.215-21.214c-2.928-2.93-7.677-2.929-10.606 0s-2.929 7.678.001 10.606l21.215 21.214-10.793 10.793-68.567-68.566 10.793-10.793 22.602 22.603c2.93 2.929 7.678 2.93 10.607 0 2.929-2.929 2.929-7.678 0-10.606l-22.603-22.604 51.257-51.256zm-90.999-168.325c3.777-1.306 7.911.721 9.158 4.55l7.039 21.587c2.063 6.327 5.642 12.159 10.348 16.865l127.641 127.641c4.707 4.707 10.539 8.285 16.866 10.348l21.587 7.039c3.815 1.244 5.863 5.367 4.55 9.159-1.057 3.054-4.069 5.031-7.271 4.805l-24.425-1.704c-15.167-1.058-28.991-7.669-39.157-17.841l-111.594-111.596c-10.162-10.162-16.784-23.992-17.843-39.157l-1.703-24.426c-.225-3.223 1.751-6.213 4.804-7.27zm-188.023 288.549c-2.976-2.976-2.976-7.817 0-10.793 2.974-2.975 7.817-2.976 10.792 0l7.715 7.715-10.792 10.792zm-43.511 32.719c2.974-2.975 7.815-2.975 10.792 0l7.714 7.713-10.793 10.792-7.713-7.714c-2.983-2.982-2.983-7.808 0-10.791zm9.689 48.538c-2.976-2.976-2.976-7.817 0-10.793 64.536-64.535 40.949-40.948 79.605-79.604 12.125-12.126 20.817-27.307 25.136-43.901l6.078-23.355c5.003-19.221 15.071-36.804 29.116-50.849l83.034-83.035c2.575 2.887 5.451 5.578 10.702 10.883-6.703 6.703-69.742 69.742-82.945 82.944-12.125 12.125-20.816 27.306-25.136 43.9l-6.078 23.355c-5.003 19.221-15.071 36.804-29.116 50.849-6.325 6.325-68.765 68.766-79.615 79.615-2.975 2.966-7.808 2.963-10.781-.009zm21.389 10.616c.003-.003.007-.006.01-.009 8.406-8.406 61.173-61.173 68.579-68.579 2.983-2.983 7.808-2.983 10.791 0s2.983 7.81 0 10.792l-103.021 103.022c-3.775-3.775-7.018-7.018-10.793-10.793z"/></g></g></svg>