<svg id="Capa_1" enable-background="new 0 0 512.002 512.002" height="512" viewBox="0 0 512.002 512.002" width="512" xmlns="http://www.w3.org/2000/svg"><g><g><path d="m179.712 194.196c-15.124 17.991-23.778 38.855-23.778 61.104 0 42.819 32.056 80.5 80.619 102.447 29.912 2.854 60.357-.803 88.88-10.988v-7.045z" fill="#60b9fe"/><path d="m156.735 255.426c0-22.067 8.594-42.759 23.613-60.595l-16.186-16.164h-6.82c-23.168 12.833-43.703 30.243-59.792 50.798-12.229 15.624-12.229 37.447-.001 53.071 18.116 23.145 41.86 42.315 68.664 55.438 22.965 11.243 47.701 17.899 72.763 19.993-49.442-21.566-82.241-59.43-82.241-102.541z" fill="#1ca8ff"/><path d="m414.958 229.466c-18.116-23.146-41.86-42.316-68.664-55.439-34.966-17.118-74.032-23.61-112.113-19.526-14.517 6.789-27.544 14.949-38.702 24.212l152.933 154.622h6.753c23.168-12.834 43.704-30.243 59.793-50.799 12.228-15.624 12.228-37.446 0-53.07z" fill="#60b9fe"/><path d="m235.732 154.336c-16.53 1.647-32.889 5.276-48.658 10.907v4.972l8.911 9.009c11.315-9.608 24.719-18.013 39.747-24.888z" fill="#1ca8ff"/><path d="m183.829 200.894h-4.26c-.054.026-.109.051-.164.077-2.534 1.241-5.031 2.555-7.497 3.92-10.023 15.44-15.616 32.526-15.616 50.511 0 18.713 6.049 36.454 16.85 52.378 2.067 1.122 4.15 2.215 6.263 3.25 37.932 18.57 81.673 22.494 122.077 11.777v-3.759z" fill="#dbedff"/><path d="m156.735 255.426c0-18.327 5.938-35.701 16.55-51.283-20.244 10.96-38.165 25.995-52.111 43.813-3.708 4.737-3.708 11.353-.001 16.089 14.241 18.194 32.621 33.493 53.39 44.507-11.416-16.049-17.828-34.074-17.828-53.126z" fill="#b5dcff"/><path d="m391.333 247.956c-15.338-19.596-35.474-35.843-58.23-46.985-7.601-3.721-15.437-6.844-23.431-9.388l-1.177 2.799h-92.283v6.513l109.221 110.214 7.43-.075.075.075c.054-.027.11-.051.164-.077 22.757-11.142 42.893-27.389 58.23-46.985 3.709-4.738 3.709-11.354.001-16.091z" fill="#dbedff"/><path d="m272.496 289.715-52.106-52h-1.214c1.288 27.907 20.187 51.191 45.852 59.016 2.944-.393 5.827-.977 8.638-1.74z" fill="#8479c2"/><path d="m219.8 237.126-23.638-23.59h-3.952c-1.507 5.55-2.324 11.384-2.324 17.412 0 36.654 29.713 66.367 66.367 66.367 3.429 0 6.793-.273 10.08-.779-26.217-7.39-45.594-31.058-46.533-59.41z" fill="#6e60b8"/><path d="m309.675 191.575c-20.905-6.658-42.899-9.265-64.671-7.879-8.408 6.399-15.213 14.781-19.754 24.442l71.079 70.409 5.075 1.025c13.045-12.119 21.217-29.414 21.217-48.625 0-14.742-4.813-28.356-12.946-39.372z" fill="#8479c2"/><path d="m245.506 183.665c-11.621.707-23.182 2.533-34.481 5.53v4.854l14.499 14.362c4.499-9.839 11.404-18.347 19.982-24.746z" fill="#6e60b8"/><path d="m269.871 199.264c-12.083 5.695-20.459 17.962-20.459 32.206 0 .438.011.872.03 1.305l24.223 24.224h5.165c7.289-6.323 11.905-15.645 11.905-26.051 0-14.207-8.593-26.403-20.864-31.684z" fill="#6e60b8"/><g><path d="m250.078 230.948c0-13.998 8.346-26.039 20.329-31.442-4.32-1.948-9.107-3.04-14.153-3.04-10.406 0-19.729 4.616-26.051 11.905v5.165l19.981 19.981c-.063-.849-.106-1.704-.106-2.569z" fill="#6353b2"/></g><g><path d="m504.755 256.001c0-137.227-111.231-248.474-248.452-248.5-68.458 12.981-127.144 53.54-164.076 109.694 2.256.019 4.517.874 6.253 2.61l293.969 293.97c3.759 3.759 3.439 9.975-.724 13.281-83.718 66.472-204.94 62.626-284.32-11.531 36.894 45.345 89.178 77.653 148.898 88.977 137.221-.027 248.452-111.274 248.452-248.501zm-384.697-157.774c-3.759-3.759-3.439-9.975.724-13.281 85.651-68.007 210.566-62.426 289.759 16.767s84.774 204.108 16.767 289.76c-3.306 4.163-9.521 4.483-13.28.724z" fill="#ff76aa"/><g><path d="m121.713 427.801c-6.843-5.372-13.441-11.207-19.747-17.513-79.192-79.193-84.774-204.107-16.767-289.759 2.374-2.99 6.247-3.986 9.635-2.923 7.141-10.629 15.086-20.671 23.739-30.05.545-.974 1.274-1.868 2.209-2.609.275-.219.556-.428.832-.645 40.386-42.242 95.524-70.246 157.14-75.777-7.413-.665-14.914-1.025-22.5-1.025-137.244 0-248.501 111.258-248.501 248.501s111.257 248.501 248.501 248.501c7.586 0 15.087-.359 22.5-1.025-61.566-5.527-116.664-33.491-157.041-75.676z" fill="#ff5595"/></g></g></g><g><path d="m415.592 96.41c-81.137-81.136-209.99-88.587-299.727-17.337-3.646 2.895-5.889 7.226-6.154 11.883-.268 4.679 1.479 9.263 4.791 12.575 13.887 13.887 279.457 279.457 293.969 293.97 3.092 3.091 7.288 4.818 11.637 4.818.312 0 .625-.009.938-.027 4.657-.267 8.988-2.51 11.883-6.155 71.251-89.738 63.798-218.593-17.337-299.727zm-185.499 96.387c.38-.059.76-.117 1.14-.174 2.969-.442 5.945-.806 8.925-1.089.289-.028.579-.054.868-.08.332-.03.665-.049.997-.077-4.286 1.516-8.308 3.724-11.909 6.55l-4.396-4.396c.043-.008.085-.014.128-.022 1.413-.257 2.829-.491 4.247-.712zm58.928 64.038c5.754-7.334 8.962-16.422 8.962-25.888 0-18.26-11.722-33.826-28.033-39.59 11.754.974 23.423 3.18 34.823 6.627 6.613 9.75 10.096 21.094 10.096 32.963 0 13.88-4.976 27.341-13.841 37.894zm-33.02-52.869c14.878 0 26.981 12.104 26.981 26.982 0 5.463-1.658 10.737-4.678 15.171-7.684-7.684-29.83-29.83-37.474-37.474 4.435-3.021 9.708-4.679 15.171-4.679zm55.662 75.511c11.646-13.381 18.206-30.677 18.206-48.53 0-8.701-1.502-17.176-4.399-25.163 22.928 10.459 43.764 26.426 59.706 46.793 1.577 2.016 1.577 4.83 0 6.845-13.614 17.395-31.197 32.029-51.032 42.535zm109.518 107.332c-.31.39-.71.491-.991.507-.297.017-.731-.042-1.111-.422l-52.001-52.001c20.558-12.72 38.932-29.077 53.535-47.734 14.357-18.345 14.357-43.97 0-62.315-34.279-43.796-86.834-73.215-146.479-78.262-4.144-.356-7.758 2.714-8.106 6.841-.349 4.127 2.714 7.756 6.841 8.105 55.157 4.667 104.013 31.781 135.932 72.56 10.098 12.902 10.098 30.924 0 43.825-14.234 18.186-32.351 34.024-52.64 46.062l-10.971-10.971c20.062-11.31 37.831-26.491 51.798-44.337 5.837-7.458 5.837-17.875 0-25.334-33.223-42.447-86.788-68.962-145.42-67.497-12.934.317-25.75 1.988-38.5 5.046l-12.271-12.271c12.449-3.597 25.298-5.971 38.339-7.077 4.128-.35 7.189-3.98 6.84-8.107-.351-4.127-4.015-7.195-8.107-6.839-16.765 1.422-33.233 4.817-49.038 10.057l-63.721-63.721c-.38-.38-.439-.814-.423-1.111.017-.282.117-.683.508-.992 38.482-30.555 84.655-45.6 130.693-45.6 54.173 0 108.152 20.851 149.098 61.796 75.742 75.742 82.704 196.027 16.195 279.792z"/><path d="m256.001 0c-141.492 0-256.001 114.497-256.001 256.001 0 141.492 114.497 256.001 256.001 256.001 141.492 0 256.001-114.497 256.001-256.001 0-141.492-114.497-256.001-256.001-256.001zm0 497.002c-132.889 0-241.001-108.113-241.001-241.001s108.112-241.001 241.001-241.001 241.001 108.113 241.001 241.001-108.112 241.001-241.001 241.001z"/><path d="m103.53 114.502c-3.314-3.313-7.896-5.056-12.575-4.792-4.657.267-8.988 2.51-11.883 6.155-27.841 35.065-44.451 77.264-48.035 122.037-.33 4.129 2.749 7.744 6.878 8.075 4.156.33 7.745-2.749 8.074-6.877 3.346-41.794 18.848-81.182 44.83-113.906.31-.39.711-.491.993-.507.3-.017.732.043 1.11.422l52.002 52.002c-20.559 12.72-38.932 29.076-53.533 47.732-14.359 18.345-14.36 43.971-.001 62.317 38.06 48.623 98.244 79.017 164.638 79.017 22.672 0 45.397-3.584 67.161-10.802l63.704 63.704c.381.38.439.814.423 1.112-.017.281-.117.682-.508.992-132.512 105.211-327.522 18.071-340.815-148.28-.331-4.129-3.951-7.209-8.074-6.878-4.129.33-7.208 3.944-6.879 8.074 9.291 116.261 106.49 207.69 225.078 207.685 49.312-.002 98.797-16.125 140.018-48.854 3.645-2.894 5.889-7.225 6.155-11.882.268-4.679-1.479-9.262-4.791-12.576-2.492-2.492-285.132-285.132-293.97-293.97zm93.626 114.84 60.452 60.452c-.536.015-1.071.022-1.607.022-32.46 0-58.867-26.408-58.867-58.868 0-.535.008-1.071.022-1.606zm-13.462-13.463c-1.032 4.954-1.56 10.005-1.56 15.068 0 40.731 33.137 73.868 73.867 73.868 5.059 0 10.109-.528 15.068-1.561l15.216 15.216c-61.366 11.22-122.908-12.352-159.458-59.048-1.577-2.015-1.577-4.829.001-6.844 13.604-17.382 31.171-32.007 51.032-42.533zm-80.491 62.035c-10.099-12.902-10.099-30.924.001-43.826 14.232-18.185 32.349-34.022 52.638-46.061l10.97 10.97c-20.061 11.31-37.829 26.491-51.795 44.335-5.839 7.458-5.84 17.876-.002 25.335 32.194 41.13 83.757 67.567 140.829 67.566 14.396 0 28.857-1.713 43.076-5.129l12.287 12.287c-76.168 22.021-159.404-3.388-208.004-65.477z"/></g></g></svg>