<svg id="Capa_1" enable-background="new 0 0 512.003 512.003" height="512" viewBox="0 0 512.003 512.003" width="512" xmlns="http://www.w3.org/2000/svg"><g><g><path d="m470.478 441.574c2.926 5.068 8.246 7.878 13.706 7.856 2.687-4.574 2.914-10.419.072-15.341l-24.759-42.884-3-2.848h-16.743z" fill="#6e60b8"/><path d="m83.222 387.024h-9.439l-3.602 3.594-25.231 43.702c-4.036 6.99-2 15.798 4.445 20.385 2.104-1.284 3.926-3.097 5.245-5.382l33.555-58.119z" fill="#6e60b8"/><path d="m470.929 440.972-30.377-52.614h-13.056l-3.184 2.848 33.555 58.119c4.207 7.287 13.525 9.783 20.811 5.576 2.666-1.539 4.682-3.766 5.972-6.323-5.442.184-10.807-2.56-13.721-7.606z" fill="#6353b2"/><path d="m45.503 434.089 24.759-42.884 4.19-4.181h-17.25l-4.19 4.181-24.759 42.884c-4.207 7.287-1.711 16.604 5.576 20.812 5.253 3.033 11.553 2.566 16.241-.652-6.493-4.458-8.572-13.224-4.567-20.16z" fill="#6353b2"/><path d="m471.686 55.053h-396.363c-18.264 0-33.07 14.806-33.07 33.069v270.014c0 18.264 14.806 33.069 33.07 33.069h396.363c18.264 0 33.069-14.806 33.069-33.069v-270.013c0-18.264-14.806-33.07-33.069-33.07z" fill="#8479c2"/><path d="m44.253 358.136v-270.014c0-18.264 14.806-33.069 33.07-33.069h-36.5c-18.264 0-33.069 14.806-33.069 33.069v270.014c0 18.264 14.806 33.069 33.069 33.069h36.5c-18.264.001-33.07-14.805-33.07-33.069z" fill="#6e60b8"/><path d="m469.186 85.053h-386.455v276.152h.491l9.941-7.848h186.833l6.391 7.848h45.469l11.139-10.515h124.335v-124.86l7.425-9.845v-125.363c0-3.076-2.494-5.569-5.569-5.569z" fill="#60b9fe"/><g><path d="m84.222 355.636v-265.014c0-3.076 2.494-5.569 5.569-5.569h-46.469c-3.076 0-5.569 2.494-5.569 5.569v265.013c0 3.076 2.494 5.57 5.569 5.57h39.9l2.395-1.891c-.865-.982-1.395-2.267-1.395-3.678z" fill="#1ca8ff"/></g><path d="m370.646 215.984c-1.696 1.777-2.743 4.179-2.743 6.829v137.524l4.385-2.063h61.625l6.641 2.931h28.631c3.076 0 5.569-2.494 5.569-5.57v-139.651z" fill="#dbedff"/><g><path d="m368.305 225.484c0-5.247 4.253-9.5 9.5-9.5h-36.447c-5.247 0-9.5 4.253-9.5 9.5v135.721h34.201l2.247-1.057v-134.664z" fill="#b5dcff"/></g><path d="m416.042 302.47c-13.361 6.147-22.699 19.669-22.699 35.273v23.463h47.211v-23.745c0-16.019-10.248-29.76-24.512-34.991z" fill="#ffc365"/><path d="m417.431 303.018c-4.362-1.803-9.131-2.805-14.125-2.805-20.487 0-37.248 16.762-37.248 37.248v23.745h28.25v-23.745c0-15.493 9.589-28.849 23.123-34.443z" fill="#ffa90f"/><path d="m412.733 258.507c-6.802 3.976-11.379 11.342-11.379 19.789s4.578 15.813 11.379 19.789c7.385-3.525 12.489-11.06 12.489-19.789.001-8.729-5.103-16.264-12.489-19.789z" fill="#ffdecf"/><path d="m401.889 278.296c0-8.401 4.728-15.693 11.667-19.372-3.059-1.622-6.546-2.544-10.25-2.544-12.104 0-21.917 9.813-21.917 21.917s9.812 21.917 21.917 21.917c3.704 0 7.191-.922 10.25-2.544-6.938-3.681-11.667-10.974-11.667-19.374z" fill="#ffcebe"/><g><path d="m204.197 252.421h-22.352v43.852h14.06l12.493-12.822v-3.636-25.46z" fill="#ffcebe"/><path d="m182.764 252.421h-20.855l-2.306 1.915v24.145l1.163 3.664 12.104 14.128h9.894z" fill="#ffb1a0"/><path d="m214.334 172.233-23.518 17.638h-21.312v29.428c0 18.018 10.426 33.632 25.555 41.171 18.07-4.655 31.46-21.089 31.46-40.591v-27.45z" fill="#ffdecf"/><path d="m184.607 261.789c3.903 0 7.677-.551 11.263-1.556-15.284-7.243-25.886-22.809-25.886-40.816v-29.547h-24.897l-3.605 2.889v27.118c0 21.905 17.164 41.912 43.125 41.912z" fill="#ffcebe"/><path d="m223.796 137.59c-4.005.308-7.679-2.21-8.45-6.152-1.298-6.638-4.585-13.226-17.423-13.226-.346 0-10.534 0-21.08 0-13.103 3.362-22.787 15.252-22.787 29.403v33.314c0 5.349 3.288 9.924 7.951 11.83h24.791c11.307 0 21.128-6.344 26.111-15.664.386-.722 1.483-.44 1.483.379 0 8.407 6.878 15.285 15.285 15.285 4.406 0 8.012-3.605 8.012-8.012v-33.9c0-7.984-6.968-13.789-13.893-13.257z" fill="#fbc56c"/><g><path d="m154.812 180.297v-32.485c0-16.347 13.252-29.599 29.599-29.599-12.941 0-30.57 0-31.03 0-16.347 0-29.6 13.252-29.6 29.599v32.485c0 6.883 5.58 12.463 12.463 12.463h31.03c-6.882 0-12.462-5.579-12.462-12.463z" fill="#daac5d"/></g><path d="m259.93 292.059c-5.882-2.278-11.945-4.626-17.591-6.813l-11.347 2.288-46.187 21.748-51.068-24.145h-6.597l-4.049 1.581c-5.09 5.784-13.087 16.634-13.087 27.745v46.741h56.389l3.11-2.057h31.03l2.684 2.057h83.171c0-11.142 0-18.58 0-30.523 0-17.102-10.509-32.445-26.458-38.622z" fill="#dbedff"/><path d="m196.389 293.658-1.334-.917c-7.119 0-13.381 0-20.499 0l-1.194.917-7.948 13.719v1.175l7.915 17.271 1.268.907h20.935l.75-.907 7.915-17.271v-1.42z" fill="#60b9fe"/><path d="m220.425 276.776c-3.496-1.383-7.461-.747-10.355 1.653l-13.173 10.923c-2.061 1.709-2.489 4.702-.991 6.921l8.679 12.853c1.722 2.55 5.269 3.058 7.638 1.094l30.116-24.974c-11.923-4.617-18.352-7.06-21.914-8.47z" fill="#b5dcff"/><path d="m172.713 289.353-13.363-11.082c-2.891-2.397-6.849-3.034-10.343-1.658-3.667 1.445-10.167 3.954-21.867 8.523l30.248 25.084c2.369 1.965 5.916 1.456 7.638-1.094l8.679-12.853c1.498-2.218 1.069-5.212-.992-6.92z" fill="#b5dcff"/><path d="m196.326 326.05-6.892 35.155h13.784z" fill="#60b9fe"/><path d="m196.281 325.824c-7.244 0-15.709 0-22.953 0l-6.936 35.382h23.593l6.616-33.748z" fill="#1ca8ff"/><g fill="#b5dcff"><path d="m109.576 291.997c-15.893 6.207-26.354 21.523-26.354 38.585v30.624h27.259c0-15.946 0-37.183 0-46.447 0-12.107 9.812-23.9 14.373-28.728z"/><path d="m109.576 291.997c-15.893 6.207-26.354 21.523-26.354 38.585v30.624h27.259c0-15.946 0-37.183 0-46.447 0-12.107 9.812-23.9 14.373-28.728z"/></g></g></g><g><path d="m238.502 92.553c4.143 0 7.5-3.357 7.5-7.5s-3.357-7.5-7.5-7.5h-195.433c-7.206 0-13.069 5.864-13.069 13.07v265.013c0 7.207 5.863 13.07 13.069 13.07h425.863c7.206 0 13.069-5.863 13.069-13.07v-139.652-125.361c0-7.206-5.863-13.069-13.069-13.069h-195.43c-4.143 0-7.5 3.357-7.5 7.5s3.357 7.5 7.5 7.5h193.5v115.931h-125.898c-9.374 0-17 7.626-17 17v128.222h-30.47v-23.024c0-20.046-12.559-38.378-31.249-45.617h-.001c-.119-.046-39.353-15.223-39.454-15.263-2.356-.932-4.837-1.326-7.285-1.223v-10.492c11.054-9.069 18.12-22.828 18.12-38.209v-20.249c6.444-1.884 11.17-7.837 11.17-14.883v-33.899c0-12.411-10.77-21.623-21.967-20.735-.327.015-.5-.097-.515-.114-2.504-12.797-10.842-19.286-24.783-19.286h-44.542c-20.457 0-37.1 16.643-37.1 37.1v32.484c0 10.242 7.755 18.698 17.7 19.826v19.755c0 15.527 6.986 29.165 18.121 38.159v10.374c-1.974.074-3.95.478-5.846 1.225-8.446 3.328 19.918-7.78-39.41 15.375-18.908 7.385-31.125 25.272-31.125 45.57v23.125h-30.468v-261.153zm-49.217 207.688c.16.246 1.365 2.024 6.085 9.017l-4.155 9.065h-13.325l-4.155-9.065c4.242-6.283 5.941-8.795 6.084-9.017zm-10.036 33.082h10.606l3.996 20.382h-18.598zm194.057 20.383v-16.245c0-16.403 13.345-29.748 29.748-29.748s29.748 13.345 29.748 29.748v16.245zm15.331-75.41c0-7.949 6.468-14.416 14.417-14.416s14.416 6.467 14.416 14.416-6.467 14.417-14.416 14.417-14.417-6.468-14.417-14.417zm-49.533-52.812c0-1.103.897-2 2-2h125.897v130.222h-19.2v-16.245c0-16.857-9.373-31.562-23.178-39.191 4.865-5.25 7.846-12.269 7.846-19.974 0-16.22-13.196-29.416-29.416-29.416-16.221 0-29.417 13.196-29.417 29.416 0 7.705 2.982 14.724 7.847 19.974-13.805 7.629-23.178 22.333-23.178 39.191v16.245h-19.201zm-60.469 105.197v23.023h-69.497l-5.284-26.953 3.615-7.887c3.147.307 6.645-.678 9.288-2.87l26.727-22.164 13.484 5.223c12.96 5.018 21.667 17.729 21.667 31.628zm-61.222-46.93c2.312.915 7.728 2.997 10.041 3.886l-18.323 15.195c-.65-.962-5.372-7.956-6.099-9.032.518-.43-2.606 2.161 11.571-9.596.788-.654 1.865-.828 2.81-.453zm-86.384-103.454v-32.484c0-12.186 9.914-22.1 22.1-22.1h44.542c8.058 0 9.216 2.838 10.063 7.165 1.476 7.555 8.529 12.801 16.384 12.19 2.709-.215 5.818 2.307 5.818 5.78v33.899c0 .264-.249.513-.512.513-4.31 0-7.784-3.561-7.784-7.785 0-3.81-2.581-7.117-6.276-8.044-3.694-.925-7.54.8-9.321 4.129-3.857 7.217-11.328 11.7-19.496 11.7-10.141 0-40.405 0-50.554 0-2.737 0-4.964-2.226-4.964-4.963zm17.7 19.963h37.816c8.881 0 17.675-3.208 24.543-9.273 2.024 2.74 4.65 5.007 7.677 6.616v22.275c0 19.045-15.539 34.41-34.411 34.41-20.946 0-35.625-16.094-35.625-34.41zm51.917 66.268v9.762l-8.787 7.288c-.601.498-1.157 1.052-1.667 1.663h-11.277c-.529-.633-1.09-1.185-1.666-1.662l-10.397-8.623v-8.546c10.655 3.679 22.985 3.906 33.794.118zm-49.141 17.063c.941-.373 2.018-.199 2.806.453 12.353 10.244 11.593 9.614 11.763 9.755-.44.652-5.533 8.193-6.099 9.032-2.199-1.823 2.973 2.465-18.49-15.333 3.127-1.218 7.581-2.947 10.02-3.907zm-61.035 46.99c0-14.074 8.472-26.478 21.582-31.598l13.449-5.253c3.779 3.134 24.428 20.258 26.846 22.263 2.458 2.039 5.856 3.189 9.29 2.871l3.614 7.887-5.284 26.954h-69.497z"/><path d="m471.434 47.553h-430.865c-22.37 0-40.569 18.2-40.569 40.57v270.014c0 22.105 17.774 40.125 39.78 40.549l-18.275 31.653c-6.268 10.856-2.535 24.789 8.322 31.059 10.948 6.317 24.839 2.444 31.056-8.323l31.39-54.368h327.457l31.39 54.368c6.269 10.859 20.152 14.617 31.056 8.321 10.882-6.282 14.605-20.172 8.322-31.057l-18.275-31.653c22.006-.424 39.78-18.444 39.78-40.549v-107.86c0-4.143-3.357-7.5-7.5-7.5s-7.5 3.357-7.5 7.5v107.859c0 14.099-11.471 25.569-25.569 25.569-19.294 0-412.311 0-430.864 0-14.099.001-25.57-11.47-25.57-25.569v-270.013c0-14.099 11.471-25.569 25.569-25.569h430.864c14.099 0 25.569 11.471 25.569 25.569v127.154c0 4.143 3.357 7.5 7.5 7.5s7.5-3.357 7.5-7.5v-127.154c.001-22.37-18.198-40.57-40.568-40.57zm-16.52 351.153 22.594 39.133c2.133 3.693.861 8.435-2.832 10.567-3.69 2.133-8.433.862-10.565-2.832l-27.06-46.868zm-379.962 0-27.06 46.868c-2.131 3.692-6.871 4.965-10.566 2.831-3.693-2.133-4.964-6.873-2.831-10.566l22.594-39.133z"/></g></g></svg>