<svg id="Capa_1" enable-background="new 0 0 512.002 512.002" height="512" viewBox="0 0 512.002 512.002" width="512" xmlns="http://www.w3.org/2000/svg"><g><g><path d="m504.755 328.579v-270.642c0-27.855-22.582-50.437-50.437-50.437h-370.906c-15.942 9.207-26.736 26.435-26.736 46.072v404.858c0 19.637 10.793 36.865 26.736 46.072h370.906c27.855 0 50.437-22.582 50.437-50.437v-92.074l-4.092-2.49v-28.375z" fill="#60b9fe"/><g><path d="m57.268 455.087v-398.172c0-22.8 14.792-42.302 35.249-49.415h-34.327c-27.855 0-50.437 22.581-50.437 50.437v396.128c0 2.561.194 5.076.563 7.535l7.931 2.068 7.833 24.417-.347 2.796c9.017 8.443 21.129 13.622 34.457 13.622h34.327c-20.457-7.115-35.249-26.616-35.249-49.416z" fill="#1ca8ff"/></g><path d="m324.913 267.999-3.676.121c-3.521 44.24-34.347 83.592-79.601 95.718-57.44 15.391-116.693-18.818-132.084-76.259-12.505-46.669 7.732-94.534 46.569-119.099l1.459-2.811-5.494-22.167h-1.792c-46.614 33.916-70.081 94.27-54.292 153.197 15.323 57.186 63.34 97.03 118.559 104.878 11.864-.068 23.906-1.633 35.889-4.844 50.557-13.547 87.431-52.92 100.248-100.128v-3.521z" fill="#b5dcff"/><g><path d="m97.368 296.392c-15.749-58.775 7.973-118.99 54.843-152.386l-1.881-7.591-3.337-2.002c-56.955 30.339-87.738 97.039-70.337 161.98 17.898 66.798 80.879 109.708 147.45 104.8-58.534-4.326-110.71-44.986-126.738-104.801z" fill="#8bcaff"/></g><path d="m172.843 65.581c-2.187-8.159-8.031-14.36-15.295-17.316-11.486 5.304-17.841 18.247-14.455 30.884 2.115 7.894 7.588 13.979 14.465 17.166 11.958-4.846 18.71-17.951 15.285-30.734z" fill="#dbedff"/><path d="m143.406 79.006c-3.37-12.578 3.11-25.472 14.71-30.499-5.189-2.257-11.147-2.845-17.037-1.267-13.836 3.708-22.047 17.929-18.34 31.765 3.708 13.836 17.929 22.047 31.765 18.339 1.258-.337 2.469-.764 3.629-1.267-6.999-3.041-12.599-9.125-14.727-17.071z" fill="#b5dcff"/><path d="m56.959 448.566v5.823c0 9.33 2.372 18.129 6.528 25.84l441.268-118.238v-33.412z" fill="#dbedff"/><g><path d="m57.268 455.087v-6.604l-48.952 13.117c1.721 11.487 7.321 21.7 15.417 29.281l39.988-10.715c-4.108-7.458-6.453-16.007-6.453-25.079z" fill="#b5dcff"/></g><path d="m304.903 253.164 3.469.254 77.167 67.583 14.241-.359c.045-.046.095-.084.14-.131 6.537-6.761 6.356-17.541-.405-24.078l-77.857-75.281c-4.3-4.158-10.466-5.754-16.243-4.206l-94.279 25.262-12.098-45.15-3.373-1.306-13.291 1.84 17.859 66.65c1.764 6.583 7.06 11.271 13.302 12.582l88.482-23.709c.963-.259 1.96-.228 2.886.049z" fill="#b5dcff"/><path d="m200.646 263.47-17.674-65.962-8.975 1.243-10.446-10.167-1.818.839 20.913 78.047c2.434 9.084 11.771 14.475 20.855 12.041l12.825-3.437c-7.219-.323-13.711-5.252-15.68-12.604z" fill="#8bcaff"/><path d="m393.841 316.916-68.768-66.492c-1.339-1.294-3.259-1.792-5.058-1.31l-15.113 4.049c.801.239 1.55.66 2.171 1.26l68.768 66.492c6.714 6.492 17.389 6.35 23.938-.274-2.153-.793-4.183-2.027-5.938-3.725z" fill="#8bcaff"/><path d="m309.585 149.806c-2.434-9.084-11.771-14.475-20.855-12.041l-98.508 26.395-12.599-47.02c-1.267-4.728-4.411-8.44-8.409-10.585-5.931 4.043-8.967 11.517-7.004 18.842l17.353 64.761c1.169 4.365 3.916 7.868 7.449 10.119l110.533-29.617c9.083-2.432 14.474-11.77 12.04-20.854z" fill="#dbedff"/><g><path d="m179.733 189.423-17.006-63.468c-1.986-7.413 1.241-14.991 7.432-18.853-3.859-2.399-8.655-3.272-13.391-2.003-9.084 2.434-14.475 11.771-12.041 20.855l17.006 63.468c2.434 9.084 11.771 14.475 20.855 12.041l5.513-1.477c-3.978-2.147-7.106-5.851-8.368-10.563z" fill="#b5dcff"/></g></g><g><path d="m57.938 512.002h180.564c4.143 0 7.5-3.358 7.5-7.5s-3.357-7.5-7.5-7.5h-180.564c-5.768 0-11.27-1.151-16.299-3.222l455.363-122.014v82.299c0 23.676-19.261 42.938-42.937 42.938h-180.563c-4.143 0-7.5 3.358-7.5 7.5s3.357 7.5 7.5 7.5h180.563c31.946 0 57.937-25.991 57.937-57.938 0-53.586 0-200.706 0-253.679 0-4.142-3.357-7.5-7.5-7.5s-7.5 3.358-7.5 7.5v122.439l-185.976 49.832c19.149-16.582 34.062-37.957 42.89-62.262l16.458 15.914c9.724 9.402 25.282 9.138 34.683-.584 9.401-9.723 9.141-25.282-.582-34.684h-.001l-77.857-75.281c-6.157-5.953-15.119-8.275-23.397-6.059l-87.035 23.321-8.216-30.661 91.265-24.455c13.094-3.509 20.853-16.946 17.343-30.041-3.508-13.094-16.938-20.851-30.04-17.344l-91.264 24.454-10.659-39.775c-2.192-8.183-8.278-14.386-16.014-16.952 9.911-8.067 14.75-21.487 11.235-34.608-4.772-17.807-23.138-28.413-40.951-23.643-17.846 4.783-28.427 23.099-23.642 40.951 3.567 13.318 14.602 22.477 27.271 24.406-5.225 5.958-7.484 14.331-5.284 22.543l.757 2.823c-57.385 33.663-86.363 102.174-68.828 167.614 15.272 56.997 61.716 97.477 116.084 108.026l-170.242 45.616v-394.039c0-23.676 19.262-42.937 42.938-42.937h396.128c23.676 0 42.937 19.262 42.937 42.937v107.448c0 4.142 3.357 7.5 7.5 7.5s7.5-3.358 7.5-7.5v-107.448c-.001-31.947-25.991-57.937-57.938-57.937h-396.127c-31.948 0-57.938 25.99-57.938 57.937v396.128c0 31.752 25.83 57.937 57.938 57.937zm439.064-173.648v17.882l-471.203 126.259c-4.087-4.612-7.09-10.028-8.813-15.521 26.185-7.017 454.63-121.818 480.016-128.62zm-293.364-94.205c1.071 4 5.181 6.374 9.186 5.303l94.278-25.262c3.217-.861 6.698.041 9.09 2.353l77.857 75.281h-.001c3.777 3.652 3.879 9.696.227 13.474-3.651 3.777-9.696 3.879-13.474.227-21.519-20.807-8.417-8.139-70.926-68.579-1.905-1.843-4.627-2.53-7.154-1.853l-101.414 27.173c-5.066 1.359-10.31-1.663-11.67-6.737l-15.059-56.201c2.99.415 6.398.264 9.699-.619l9.203-2.466zm-28.49 25.262c3.501 13.063 16.975 20.844 30.041 17.344l97.313-26.075 10.661 10.309c-4.672 40.784-33.909 74.935-73.721 85.603-53.544 14.35-108.607-17.619-122.899-70.955-10.527-39.286 3.425-80.149 34.867-104.82 2.262 8.442 20.635 77.011 23.738 88.594zm7.577-103.309c1.069 3.993 5.177 6.376 9.186 5.304l98.509-26.395c5.086-1.363 10.305 1.649 11.669 6.737 1.362 5.086-1.649 10.306-6.737 11.669-25.359 6.795-89.737 24.045-114.956 30.803-5.022 1.348-10.291-1.594-11.67-6.738-5.393-20.128-5.725-21.367-17.007-63.468-1.359-5.075 1.663-10.311 6.738-11.67 5.083-1.365 10.306 1.65 11.67 6.737zm-52.995-89.037c-2.637-9.841 3.193-19.942 13.036-22.579 9.82-2.633 19.949 3.22 22.58 13.036 2.631 9.819-3.218 19.949-13.037 22.58-9.838 2.637-19.941-3.193-22.579-13.037zm-46.084 217.386c-15.196-56.716 9.223-117.679 58.383-148.64l5.204 19.418c-38.26 26.95-58.136 75.934-45.179 124.29 16.462 61.435 79.839 98.021 141.271 81.562 42.142-11.292 73.984-45.469 82.952-87.412l15.71 15.19c-23.258 75.769-94.49 90.754-94.7 90.875-71.279 18.545-144.544-24.021-163.641-95.283z"/></g></g></svg>