<svg id="Capa_1" enable-background="new 0 0 512.001 512.001" height="512" viewBox="0 0 512.001 512.001" width="512" xmlns="http://www.w3.org/2000/svg"><g><g><path d="m390.891 107.12v181.93c0 12.61-10.22 22.83-22.83 22.83h-224.121c-12.61 0-22.83-10.22-22.83-22.83v-181.93c0-55.02 44.6-99.62 99.62-99.62h70.54c55.02 0 99.621 44.6 99.621 99.62z" fill="#ffe270"/><path d="m295.19 296v15.88h-140.25v-15.88c0-7.71 6.26-13.96 13.97-13.96h112.31c7.72 0 13.97 6.25 13.97 13.96z" fill="#ffd15b"/><path d="m291.275 7.5h-22.335c55.018 0 99.62 44.601 99.62 99.62v181.926c0 12.611-10.223 22.834-22.834 22.834h22.335c12.611 0 22.834-10.223 22.834-22.834v-181.926c0-55.019-44.601-99.62-99.62-99.62z" fill="#ffd15b"/><path d="m119.385 353.546-26.934 8.6c-23.108 7.378-39.962 27.32-43.386 51.335l-12.978 91.019h83.299v-150.954z" fill="#5d5360"/><path d="m97.05 360.678v143.822h22.335v-150.954z" fill="#4b3f4e"/><path d="m392.616 353.546 26.934 8.6c23.108 7.378 39.962 27.32 43.386 51.335l12.979 91.019h-83.299z" fill="#5d5360"/><path d="m462.935 413.481c-3.424-24.014-20.278-43.956-43.386-51.334l-26.934-8.6v7.132l4.598 1.468c23.108 7.378 39.962 27.32 43.386 51.334l12.979 91.019h22.335z" fill="#4b3f4e"/><path d="m380.427 224.912h-30.418l7.305-60.293h23.114c11.275 0 20.415 9.14 20.415 20.415v19.463c-.001 11.275-9.141 20.415-20.416 20.415z" fill="#fed2a4"/><path d="m380.427 164.619h-22.335c11.275 0 20.415 9.14 20.415 20.415v19.463c0 11.275-9.14 20.415-20.415 20.415h22.335c11.275 0 20.415-9.14 20.415-20.415v-19.463c0-11.275-9.14-20.415-20.415-20.415z" fill="#ffbd86"/><path d="m392.61 353.54v150.96h-273.22v-150.96l33.2-7.25 2.35-.51 22.75-4.98 19.75-4.32c12.04-2.63 20.63-13.29 20.63-25.62v-64.27h75.86v64.27c0 12.33 8.59 22.99 20.63 25.62l44.85 9.81z" fill="#5d5360"/><path d="m359.413 346.288-44.857-9.808c-12.039-2.626-20.622-13.295-20.622-25.625v-64.265h-22.335v64.265c0 12.33 8.583 22.999 20.622 25.625l44.857 9.808 33.201 7.255v150.957h22.335v-150.957z" fill="#4b3f4e"/><path d="m219.9 340.8v163.7h-64.96v-158.72l22.75-4.98z" fill="#4b3f4e"/><path d="m157.662 126.508.005 80.457c0 45.359 36.771 82.13 82.13 82.13h35.381c45.359 0 82.13-36.771 82.13-82.13l.005-80.457c-40.139 0-99.826-47.853-99.826-47.853s-52.144 47.853-99.825 47.853z" fill="#fed2a4"/><path d="m257.488 78.656s-3.908 3.584-10.553 8.786c19.414 13.816 58.883 39.066 88.043 39.066l-.005 80.457c0 45.359-36.771 82.13-82.131 82.13h22.335c45.359 0 82.13-36.771 82.13-82.13l.005-80.457c-40.137 0-99.824-47.852-99.824-47.852z" fill="#ffbd86"/><path d="m303.56 340.799h-126.28v-44.798c0-7.712 6.252-13.965 13.965-13.965h112.315c7.712 0 13.965 6.252 13.965 13.965v30.834c-.001 7.712-6.253 13.964-13.965 13.964z" fill="#daf3f6"/><path d="m303.56 282.036h-22.335c7.712 0 13.965 6.252 13.965 13.965v30.834c0 7.712-6.252 13.965-13.965 13.965h22.335c7.712 0 13.964-6.252 13.964-13.965v-30.834c0-7.713-6.252-13.965-13.964-13.965z" fill="#a6e7f0"/><path d="m177.279 340.799h64.956v163.701h-64.956z" fill="#daf3f6"/><path d="m219.9 340.799h22.335v163.701h-22.335z" fill="#a6e7f0"/><g fill="#ffe5c2"><ellipse cx="314.724" cy="204.882" rx="15.141" ry="8.553"/><ellipse cx="197.277" cy="204.882" rx="15.141" ry="8.553"/></g></g><g><path d="m483.339 503.441-12.979-91.02c-3.805-26.683-22.854-49.222-48.53-57.42l-26.882-8.583c-1.068-.363-69.397-15.167-70.341-15.419.507-1.434.419-9.08.413-11.619h43.04c16.724 0 30.33-13.606 30.33-30.33v-63.209c6.078-5.124 9.95-12.787 9.95-21.341v-19.47c0-15.39-12.52-27.91-27.91-27.91h-15.62v-30.61c0-4.142-3.358-7.5-7.5-7.5-15.02 0-36.094-7.871-60.946-22.761-19.304-11.567-34.037-23.324-34.184-23.441-2.886-2.312-7.031-2.174-9.758.324-.501.459-50.605 45.878-94.762 45.878-1.989 0-3.897.791-5.304 2.197-1.406 1.406-2.197 3.314-2.196 5.304l.01 80.449c0 27.201 12.353 52.483 32.749 69.26-7.712 3.257-13.139 10.896-13.139 19.78v8.38h-25.84c-8.453 0-15.33-6.877-15.33-15.33v-181.93c0-50.795 41.325-92.12 92.12-92.12h70.54c50.795 0 92.12 41.325 92.12 92.12v23.657c0 4.142 3.358 7.5 7.5 7.5s7.5-3.358 7.5-7.5v-23.657c.001-59.066-48.053-107.12-107.119-107.12h-70.54c-59.066 0-107.12 48.054-107.12 107.12v181.93c0 16.724 13.606 30.33 30.33 30.33h25.84v15.472c-.665.188-51.904 11.26-52.728 11.566l-26.882 8.583c-25.676 8.198-44.725 30.737-48.53 57.42l-12.979 91.02c-.585 4.101 2.265 7.899 6.366 8.483.359.051.715.076 1.068.076 3.673 0 6.882-2.701 7.416-6.442l12.979-91.02c2.999-21.027 18.01-38.788 38.243-45.249l17.152-5.477v140.688c0 4.142 3.358 7.5 7.5 7.5h.003s.002 0 .003 0c4.142 0 7.5-3.358 7.5-7.5v-144.921l42.889-9.373v154.294c0 4.142 3.358 7.5 7.5 7.5s7.5-3.358 7.5-7.5v-156.2h49.956v156.2c0 4.142 3.358 7.5 7.5 7.5s7.5-3.358 7.5-7.5v-44.704l44.65-40.884c1.551-1.42 2.435-3.428 2.435-5.531v-65.081c6.199.17 12.788.305 19.013-3.865l69.277 15.144v144.921c0 4.142 3.358 7.5 7.5 7.5h.003s.002 0 .003 0c4.142 0 7.5-3.358 7.5-7.5v-140.686l17.152 5.477c20.233 6.46 35.244 24.222 38.243 45.249l12.979 91.02c.534 3.742 3.742 6.442 7.416 6.442.352 0 .709-.025 1.068-.076 4.098-.586 6.948-4.384 6.363-8.485zm-118.528-331.321h15.62c7.118 0 12.91 5.791 12.91 12.91v19.47c0 7.119-5.792 12.91-12.91 12.91h-15.621zm-.002 60.29c7.717-.117 11.163.244 18.581-.158v56.798c.078 9.199-8.867 16.546-18.582 15.33zm-82.989 177.669-32.085 29.379v-91.158h32.085zm28.201-105.699h-97.634c-4.142 0-7.5 3.358-7.5 7.5s3.358 7.5 7.5 7.5h97.634v7.45c-.731 3.452-.822 5.305-6.46 6.47l-118.78-.001v-37.299c0-3.562 2.898-6.46 6.46-6.46h112.32c3.562 0 6.46 2.898 6.46 6.46zm-3.604-29.627c-.937-.125-1.885-.213-2.856-.213h-95.439c-26.139-12.266-42.951-38.617-42.951-67.581l-.009-73.294c39.563-3.576 79.114-33.985 92.611-45.314 14.486 10.898 57.327 41.117 92.038 45.201l-.001 73.454c-.018 29.225-16.975 55.568-43.393 67.747zm43.392-18.104-.001 47.731h-24.788v-8.38c0-4.503-1.401-8.682-3.78-12.137 11.576-6.926 21.282-16.264 28.569-27.214z"/><path d="m256 207.43h6.891c4.142 0 7.5-3.358 7.5-7.5 0-3.937-3.033-7.166-6.891-7.476v-11.929c0-4.142-3.358-7.5-7.5-7.5s-7.5 3.358-7.5 7.5v19.404c0 4.143 3.358 7.501 7.5 7.501z"/><path d="m196.56 158.789c-4.142 0-7.5 3.358-7.5 7.5v13.242c0 4.142 3.358 7.5 7.5 7.5s7.5-3.358 7.5-7.5v-13.242c0-4.142-3.358-7.5-7.5-7.5z"/><path d="m315.441 158.789c-4.142 0-7.5 3.358-7.5 7.5v13.242c0 4.142 3.358 7.5 7.5 7.5s7.5-3.358 7.5-7.5v-13.242c0-4.142-3.358-7.5-7.5-7.5z"/><path d="m278.326 221.347c-3.541-2.148-8.154-1.021-10.303 2.519-2.575 4.242-7.069 6.775-12.022 6.775s-9.447-2.533-12.022-6.775c-2.149-3.54-6.762-4.668-10.303-2.519s-4.668 6.762-2.519 10.303c5.318 8.76 14.606 13.991 24.845 13.991s19.527-5.23 24.845-13.991c2.148-3.541 1.02-8.153-2.521-10.303z"/><path d="m209.757 473.02c-4.142 0-7.5 3.358-7.5 7.5v23.98c0 4.142 3.358 7.5 7.5 7.5s7.5-3.358 7.5-7.5v-23.98c0-4.143-3.358-7.5-7.5-7.5z"/><circle cx="278.74" cy="476.179" r="7.5"/></g></g></svg>