<svg id="Capa_1" enable-background="new 0 0 511.986 511.986" height="512" viewBox="0 0 511.986 511.986" width="512" xmlns="http://www.w3.org/2000/svg"><g><g><path d="m493.765 426.735-14.722-33.672c-2.014-4.607-7.383-6.709-11.99-4.695-8.701 3.804-18.838-.165-22.642-8.866l-3.212-7.347c-1.732-3.96-1.603-8.487.352-12.342l12.324-24.313-16.927-5.413c-8.575-2.742-12.593-12.566-8.396-20.531l5.597-10.624c1.291-2.45 1.396-5.354.287-7.891l-16.13-36.891 33.207-14.519c22.482-9.83 32.739-36.024 22.909-58.506l-64.273-146.997c-9.83-22.482-36.024-32.739-58.507-22.909l-142.9 62.48c-22.482 9.83-32.739 36.024-22.909 58.507l64.271 146.995c9.83 22.482 36.024 32.739 58.507 22.909l33.207-14.519 75.461 172.587c4.483 10.253 16.429 14.93 26.681 10.447l39.358-17.21c10.252-4.482 14.929-16.427 10.447-26.68zm-179.857-304.744c-13.889 6.073-30.071-.264-36.144-14.152-6.073-13.889.264-30.071 14.153-36.144s30.071.264 36.144 14.153c6.072 13.888-.264 30.071-14.153 36.143z" fill="#ffe270"/><g fill="#ffd15b"><path d="m290.133 121.991c.303-.132.597-.275.892-.417-5.718-2.745-10.52-7.468-13.261-13.735-5.94-13.586-.002-29.361 13.26-35.727-6.953-3.338-15.262-3.749-22.883-.417-13.889 6.073-20.225 22.255-14.153 36.144 6.073 13.888 22.256 20.225 36.145 14.152z"/><path d="m493.765 426.735-14.722-33.672c-2.014-4.607-7.383-6.709-11.99-4.695-8.701 3.804-18.838-.165-22.642-8.866l-3.212-7.347c-1.732-3.96-1.603-8.487.352-12.342l12.324-24.313-16.927-5.413c-8.575-2.742-12.593-12.566-8.396-20.531l5.597-10.624c1.291-2.45 1.396-5.354.287-7.891l-16.13-36.891 33.207-14.519c22.482-9.83 32.739-36.024 22.909-58.506l-64.273-146.997c-8.979-20.536-31.61-30.861-52.595-25.006 12.425 3.459 23.25 12.267 28.82 25.006l64.271 146.995c9.83 22.482-.427 48.676-22.909 58.506l-33.207 14.519 16.13 36.891c1.109 2.537 1.004 5.441-.287 7.891l-5.597 10.624c-4.196 7.966-.179 17.789 8.396 20.531l16.927 5.413-12.324 24.313c-1.954 3.855-2.083 8.382-.352 12.342l3.212 7.347c3.804 8.701 13.941 12.67 22.642 8.866 4.607-2.014 9.976.088 11.99 4.695l14.722 33.672c4.483 10.252-.194 22.198-10.447 26.681l-35.123 15.358c5.572 3.8 12.904 4.753 19.539 1.852l39.358-17.21c10.255-4.481 14.932-16.426 10.45-26.679z"/></g><path d="m288.022 162.424c0-74.973-60.777-135.75-135.75-135.75s-135.75 60.777-135.75 135.75c0 60.41 39.463 111.594 94.013 129.202v171.119c0 6.428 3.015 12.483 8.143 16.358l33.59 25.378 33.6-25.378c5.13-3.875 8.145-9.931 8.145-16.36v-24.063c0-5.028-4.076-9.105-9.105-9.105-9.496 0-17.194-7.698-17.194-17.194v-8.019c0-4.322 1.932-8.418 5.266-11.167l21.032-17.34-13.34-11.741c-6.759-5.948-6.504-16.558.532-22.175l9.384-7.492c2.164-1.728 3.424-4.346 3.424-7.115v-35.708c54.55-17.61 94.01-68.792 94.01-129.2zm-135.749-92.736c15.158 0 27.447 12.288 27.447 27.447s-12.288 27.447-27.447 27.447c-15.158 0-27.447-12.288-27.447-27.447s12.288-27.447 27.447-27.447z" fill="#e9edf1"/><g fill="#c8d2dc"><path d="m140.385 72.389c-3.597-1.731-7.629-2.701-11.888-2.701-15.158 0-27.447 12.288-27.447 27.447s12.288 27.447 27.447 27.447c4.259 0 8.291-.97 11.888-2.701-9.206-4.43-15.559-13.846-15.559-24.746s6.354-20.316 15.559-24.746z"/><path d="m152.273 26.675c-4.006 0-7.969.184-11.888.524 69.404 6.023 123.862 64.26 123.862 135.226 0 60.407-39.461 111.59-94.007 129.2v35.708c0 2.769-1.26 5.388-3.424 7.115l-9.384 7.492c-7.036 5.617-7.29 16.227-.532 22.175l13.34 11.741-21.032 17.34c-3.335 2.749-5.266 6.845-5.266 11.167v8.019c0 9.496 7.698 17.194 17.194 17.194 5.029 0 9.105 4.076 9.105 9.105v24.063c0 6.429-3.015 12.485-8.145 16.36l-21.711 16.398 11.886 8.98 33.6-25.378c5.13-3.875 8.145-9.931 8.145-16.36v-24.063c0-5.028-4.076-9.105-9.105-9.105-9.496 0-17.194-7.698-17.194-17.194v-8.019c0-4.322 1.932-8.418 5.266-11.167l21.032-17.34-13.34-11.741c-6.759-5.948-6.504-16.558.532-22.175l9.384-7.492c2.164-1.728 3.424-4.346 3.424-7.115v-35.708c54.547-17.611 94.007-68.793 94.007-129.2 0-74.973-60.777-135.75-135.749-135.75z"/></g></g><g><path d="m152.273 62.188c-19.27 0-34.947 15.678-34.947 34.947s15.677 34.946 34.947 34.946 34.947-15.677 34.947-34.946-15.678-34.947-34.947-34.947zm0 54.893c-10.999 0-19.947-8.948-19.947-19.946 0-10.999 8.948-19.947 19.947-19.947s19.947 8.948 19.947 19.947c0 10.998-8.949 19.946-19.947 19.946z"/><path d="m500.637 423.726-14.728-33.68c-2.65-6.043-8.622-9.948-15.214-9.948-2.292 0-4.529.47-6.646 1.396-4.899 2.142-10.626-.101-12.767-4.998l-3.21-7.337c-.836-1.92-.775-4.093.164-5.951l12.329-24.318c.994-1.961 1.078-4.258.229-6.285-.848-2.028-2.542-3.582-4.636-4.251l-16.926-5.408c-3.714-1.848-5.834-3.986-4.049-9.895l5.603-10.626c2.366-4.492 2.557-9.734.525-14.385l-13.128-30.024 26.332-11.512c25.166-10.359 38.602-42.625 26.777-68.385l-64.271-146.999c-11.472-26.226-42.147-38.239-68.385-26.777l-77.196 33.754c-3.795 1.66-5.526 6.082-3.867 9.877s6.079 5.526 9.876 3.867l77.194-33.753c18.659-8.154 40.477.391 48.634 19.043l64.27 146.998c7.954 17.011-.275 41.011-19.043 48.631l-33.203 14.516c-2.484 2.035-5.822 3.128-3.868 9.877l16.132 36.895c.192.44.172.96-.051 1.385l-5.604 10.628c-5.91 10.534-.626 27.227 12.75 31.172l8.542 2.729-8.352 16.473c-2.964 5.866-3.157 12.688-.526 18.727l3.213 7.344c5.451 12.475 20.038 18.187 32.519 12.734.213-.094.428-.141.639-.141.485 0 1.163.255 1.474.965l14.723 33.67c2.817 6.45-.136 13.991-6.584 16.811l-39.351 17.21c-6.451 2.816-13.99-.13-16.809-6.575l-75.459-172.583c-1.66-3.796-6.083-5.529-9.876-3.867-.001 0-.002.001-.003.002l-33.198 14.513c-18.661 8.15-40.476-.391-48.634-19.042l-4.836-11.065c26.936-25.914 43.779-64.435 43.379-102.71 0-11.171-1.287-22.046-3.718-32.488 3.574 1.201 7.339 1.852 11.16 1.852 4.667 0 9.408-.94 13.951-2.926 17.655-7.721 25.739-28.364 18.02-46.021-7.72-17.655-28.364-25.738-46.021-18.021-8.244 3.605-14.399 10.029-17.835 17.65-25.761-38.156-69.401-63.294-118.803-63.294-78.986 0-143.246 64.26-143.246 143.246 0 30.905 9.689 60.337 28.02 85.113 16.867 22.799 39.599 39.809 65.988 49.445v89.151c0 4.143 3.358 7.5 7.5 7.5s7.5-3.357 7.5-7.5v-94.502c0-3.255-2.099-6.138-5.196-7.138-25.604-8.266-47.643-24.13-63.733-45.878-16.407-22.176-25.079-48.522-25.079-76.192 0-70.715 57.531-128.246 128.246-128.246s128.245 57.531 128.245 128.246c.658 54.076-36.351 105.688-88.812 122.07-2.888.943-5.312 3.854-5.196 7.241v35.595c0 .493-.219.95-.602 1.256l-9.386 7.489c-5.09 4.064-8.099 10.131-8.255 16.644-.156 6.515 2.559 12.721 7.451 17.028l6.729 5.923-14.237 11.737c-5.08 4.183-7.994 10.364-7.994 16.96v8.017c0 13.614 11.076 24.69 24.69 24.69.361.284.891-.482 1.604 1.604v24.068c0 4.05-1.931 7.925-5.168 10.368l-29.07 21.97-29.074-21.972c-3.234-2.44-5.165-6.315-5.165-10.365v-41.385c0-4.143-3.358-7.5-7.5-7.5s-7.5 3.357-7.5 7.5v41.385c0 8.728 4.16 17.078 11.124 22.335l33.592 25.387c1.338 1.011 2.93 1.517 4.522 1.517s3.184-.506 4.522-1.517l33.588-25.384c6.968-5.259 11.128-13.61 11.128-22.338v-24.068c.047-7.743-6.688-16.618-16.604-16.604-5.343 0-9.69-4.347-9.69-9.69v-8.017c0-2.096.921-4.057 2.532-5.383l21.034-17.341c1.695-1.398 2.692-3.469 2.728-5.666s-.894-4.299-2.543-5.751l-13.336-11.738c-2.128-1.874-2.396-4.193-2.367-5.41.029-1.214.408-3.516 2.618-5.28l9.382-7.485c3.971-3.167 6.249-7.898 6.249-12.982v-30.35c14.083-5.143 27.124-12.383 38.788-21.485l2.934 6.713c8.522 19.482 27.639 31.12 47.662 31.12 6.933 0 13.976-1.396 20.723-4.344l26.331-11.511 72.456 165.712c4.554 10.414 14.771 16.635 25.475 16.634 3.709 0 7.477-.747 11.087-2.325l39.352-17.21c14.02-6.132 20.444-22.532 14.315-36.561zm-205.716-345.159c2.593-1.134 5.298-1.67 7.962-1.67 7.69 0 15.033 4.472 18.305 11.956 4.406 10.077-.208 21.86-10.285 26.267-10.078 4.406-21.862-.207-26.267-10.285-4.406-10.078.208-21.862 10.285-26.268z"/><path d="m296.226 256.115c1.232 2.817 3.986 4.498 6.876 4.498 1.003 0 2.022-.202 3-.63l116.418-50.895c3.795-1.659 5.527-6.081 3.868-9.876-1.66-3.796-6.081-5.53-9.876-3.868l-116.418 50.895c-3.796 1.66-5.528 6.081-3.868 9.876z"/><path d="m103.037 220.878c0 4.143 3.358 7.5 7.5 7.5h83.479c4.142 0 7.5-3.357 7.5-7.5s-3.358-7.5-7.5-7.5h-83.479c-4.142 0-7.5 3.357-7.5 7.5z"/><path d="m131.405 178.966c-4.142 0-7.5 3.357-7.5 7.5s3.358 7.5 7.5 7.5h41.742c4.142 0 7.5-3.357 7.5-7.5s-3.358-7.5-7.5-7.5z"/></g></g></svg>