<svg id="Capa_1" enable-background="new 0 0 511.966 511.966" height="512" viewBox="0 0 511.966 511.966" width="512" xmlns="http://www.w3.org/2000/svg"><g><g><path d="m438.298 120.451v283.186h-348.098v-283.186c0-13.833 11.214-25.047 25.047-25.047h298.003c13.834-.001 25.048 11.213 25.048 25.047z" fill="#fe5694"/><path d="m204.039 95.403h75.977v308.235h-75.977z" fill="#fd3581"/><path d="m413.25 95.403h-22.222c13.833 0 25.047 11.214 25.047 25.047v283.186h22.222v-283.185c.001-13.834-11.213-25.048-25.047-25.048z" fill="#fd3581"/><path d="m90.205 211.526h348.092v75.989h-348.092z" fill="#a6e7f0"/><path d="m204.037 211.526h75.979v75.989h-75.979z" fill="#6bd9e7"/><path d="m416.076 211.528h22.222v75.984h-22.222z" fill="#6bd9e7"/><path d="m226.261 95.403h75.977v308.235h-75.977z" fill="#a6e7f0"/><path d="m280.015 95.403h22.222v308.235h-22.222z" fill="#6bd9e7"/><path d="m289.608 26.218h-50.719c-6.975 0-12.629 5.654-12.629 12.629v56.556h75.977v-56.556c0-6.975-5.654-12.629-12.629-12.629z" fill="#daf3f6"/><path d="m289.608 26.218h-22.222c6.975 0 12.629 5.654 12.629 12.629v56.556h22.222v-56.556c0-6.975-5.654-12.629-12.629-12.629z" fill="#a6e7f0"/><path d="m143.369 9.488 82.891 37.777v48.138l-101.056-46.055c-7.808-3.558-12.819-11.349-12.819-19.93-.001-15.938 16.481-26.539 30.984-19.93z" fill="#a6e7f0"/><path d="m143.369 9.488c-6.903-3.146-14.251-2.387-20.06.985l80.73 36.792v38.011l22.222 10.127v-48.138z" fill="#6bd9e7"/><path d="m385.129 9.488-82.892 37.777v48.138l101.057-46.055c7.808-3.558 12.819-11.349 12.819-19.93 0-15.938-16.481-26.539-30.984-19.93z" fill="#a6e7f0"/><path d="m385.129 9.488-2.162.985c6.395 3.712 10.924 10.593 10.924 18.945 0 8.581-5.011 16.371-12.819 19.93l-78.835 35.928v10.127l101.057-46.055c7.808-3.559 12.819-11.349 12.819-19.93 0-15.938-16.481-26.539-30.984-19.93z" fill="#6bd9e7"/><g><path d="m18.879 341.168h124.637l127.429 62.47h122.192l64.591-35.139c9.314-5.067 20.853-3.399 28.35 4.099 9.582 9.582 9.301 25.203-.621 34.433l-62.225 57.893c-6.005 5.587-13.3 9.602-21.233 11.687l-84.653 22.249c-25.197 6.622-51.572 7.414-77.121 2.314l-94.964-18.955h-126.382z" fill="#fed2a4"/><g><path d="m486.079 372.598c-7.413-7.413-18.772-9.116-28.03-4.256 2.1 1.101 4.066 2.514 5.808 4.256 9.582 9.582 9.301 25.203-.621 34.433l-62.225 57.893c-6.005 5.587-13.3 9.602-21.233 11.687l-84.653 22.249c-10.651 2.799-21.514 4.545-32.435 5.256 18.335 1.189 36.792-.56 54.657-5.256l84.653-22.248c7.933-2.085 15.228-6.1 21.233-11.687l62.225-57.893c9.922-9.231 10.204-24.852.621-34.434z" fill="#ffbd86"/></g><path d="m143.516 341.168 43.996-11.181c14.713-3.739 30.066-4.216 44.983-1.396l80.345 15.188h25.553c13.845 0 25.069 11.224 25.069 25.069 0 12.498-9.206 23.087-21.583 24.826l-70.935 9.963h-127.428z" fill="#fed2a4"/><g><path d="m338.393 343.779h-22.222c13.845 0 25.069 11.224 25.069 25.069 0 12.498-9.206 23.087-21.583 24.826l-70.935 9.963h22.222l70.935-9.963c12.377-1.738 21.582-12.328 21.582-24.826.002-13.845-11.222-25.069-25.068-25.069z" fill="#ffbd86"/></g></g></g><path d="m491.382 367.29c-9.776-9.777-25.088-11.988-37.236-5.378l-62.915 34.226h-35.067c7.826-4.734 15.123-16.412 14.799-27.293 0-17.957-14.609-32.566-32.566-32.566h-24.85l-3.811-.72v-40.542h121.062v46.761c0 4.142 3.358 7.5 7.5 7.5s7.5-3.358 7.5-7.5v-221.327c0-17.946-14.6-32.546-32.546-32.546h-76.474l69.628-31.732c10.454-4.764 17.209-15.266 17.209-26.755 0-10.048-5.045-19.292-13.497-24.729-8.45-5.435-18.954-6.193-28.099-2.026l-72.549 33.064c-1.507-9.619-9.827-17.008-19.862-17.008h-50.718c-10.035 0-18.354 7.39-19.862 17.008l-72.549-33.063c-9.143-4.167-19.648-3.41-28.099 2.026s-13.497 14.68-13.497 24.729c0 11.488 6.755 21.99 17.209 26.755l69.628 31.732h-76.47c-17.946 0-32.546 14.6-32.546 32.546v213.213h-63.828c-4.142 0-7.5 3.358-7.5 7.5s3.358 7.5 7.5 7.5h124.643c.44-.022.959-.025 1.847-.231l43.995-11.176c12.98-3.213 27.37-4.005 41.744-1.297l80.346 15.188c.459.087.926.13 1.393.13h25.553c9.686 0 17.566 7.88 17.566 17.566.016 7.437-5.766 16.103-15.124 17.406l-70.877 9.953-51.361 6.818c-4.106.545-6.993 4.315-6.448 8.421.5 3.771 3.722 6.514 7.425 6.514.329 0 .662-.022.996-.066l50.869-6.752h121.696c.889-.078 2.032-.063 3.598-.919l64.577-35.13c6.351-3.454 14.353-2.3 19.461 2.809 3.104 3.105 4.814 7.23 4.814 11.617 0 4.614-1.86 8.885-5.238 12.027l-62.231 57.895c-5.085 4.733-11.315 8.163-18.023 9.918l-84.652 22.25c-23.953 6.3-49.454 7.066-73.749 2.218l-94.967-18.957c-.483-.096-.975-.145-1.468-.145h-126.385c-4.142 0-7.5 3.358-7.5 7.5s3.358 7.5 7.5 7.5h125.644l94.24 18.812c11.485 2.292 23.214 3.434 34.949 3.434 15.36 0 30.728-1.958 45.549-5.855l84.644-22.248c9.092-2.38 17.543-7.03 24.436-13.446l62.229-57.893c6.369-5.923 10.021-14.31 10.021-23.01.002-8.396-3.268-16.288-9.206-22.226zm-181.647-87.274v-60.989h121.062v60.989zm121.061-159.565v83.576h-121.061v-101.122h103.515c9.675 0 17.546 7.871 17.546 17.546zm-42.557-104.138c4.547-2.073 9.563-1.709 13.764.992 4.201 2.703 6.611 7.117 6.611 12.113 0 5.627-3.309 10.772-8.43 13.105l-90.446 41.22v-31.654zm-154.478 22.534c0-2.828 2.301-5.129 5.129-5.129h50.719c2.828 0 5.129 2.301 5.129 5.129v8.418 40.638h-60.977v-40.638zm-113.877-9.429c0-4.996 2.41-9.41 6.611-12.113 2.398-1.542 5.062-2.322 7.752-2.322 2.022 0 4.061.441 6.011 1.33l78.502 35.776v31.654l-90.447-41.22c-5.12-2.334-8.429-7.478-8.429-13.105zm-4.634 73.487h103.505v177.111h-121.05v-60.989h93.013c4.142 0 7.5-3.358 7.5-7.5s-3.358-7.5-7.5-7.5h-93.013v-83.576c0-9.675 7.871-17.546 17.545-17.546zm70.415 219.815-43.083 10.944h-44.877v-38.648h121.051v24.412c-11.121-.572-22.218.526-33.091 3.292zm48.091-1.522v-218.293h60.979v229.818l-60.83-11.499c-.049-.01-.1-.017-.149-.026z"/></g></svg>