<svg id="Capa_1" enable-background="new 0 0 512 512" height="512" viewBox="0 0 512 512" width="512" xmlns="http://www.w3.org/2000/svg"><g><g><g><circle cx="190.761" cy="201.595" fill="#ffe270" r="65.24"/></g><path d="m190.761 136.355c-3.503 0-6.94.284-10.294.816 31.138 4.937 54.946 31.896 54.946 64.424 0 32.527-23.807 59.487-54.946 64.424 3.354.532 6.79.816 10.294.816 36.031 0 65.24-29.209 65.24-65.24-.001-36.031-29.21-65.24-65.24-65.24z" fill="#ffd15b"/><g><circle cx="301.652" cy="75.594" fill="#ffe270" r="65.24"/></g><path d="m301.652 10.355c-3.503 0-6.94.284-10.294.816 31.139 4.937 54.946 31.896 54.946 64.424 0 32.527-23.807 59.487-54.946 64.424 3.354.532 6.79.816 10.294.816 36.031 0 65.24-29.209 65.24-65.24s-29.209-65.24-65.24-65.24z" fill="#ffd15b"/><path d="m504.5 348.654v77.539c0 18.524-15.017 33.54-33.54 33.54h-418.3c-24.941 0-45.16-20.219-45.16-45.16v-47.73l28.22-111.539c4.209-16.637 19.179-28.291 36.34-28.291h251.39c13.47 0 25.9 7.22 32.57 18.92l39.44 69.18h75.5c18.524 0 33.54 15.017 33.54 33.541z" fill="#a6e7f0"/><g fill="#6bd9e7"><path d="m335.433 245.933 39.44 69.18h20.588l-39.44-69.18c-6.67-11.7-19.1-18.92-32.57-18.92h-20.588c13.47 0 25.9 7.22 32.57 18.92z"/><path d="m470.96 315.113h-20.588c18.524 0 33.54 15.017 33.54 33.54v77.539c0 18.524-15.016 33.54-33.54 33.54h20.588c18.524 0 33.54-15.016 33.54-33.54v-77.539c0-18.523-15.016-33.54-33.54-33.54z"/></g><path d="m72.06 257.013h121.12v71.11h-144.94l16.56-65.46c.84-3.33 3.83-5.65 7.26-5.65z" fill="#e9edf1"/><path d="m172.593 257.013h20.588v71.11h-20.588z" fill="#c8d2dc"/><path d="m368.34 328.123h-144.28v-71.11h99.39c2.69 0 5.18 1.45 6.51 3.78z" fill="#e9edf1"/><path d="m329.96 260.793c-1.33-2.33-3.82-3.78-6.51-3.78h-20.588c2.69 0 5.18 1.45 6.51 3.78l38.38 67.33h20.588z" fill="#c8d2dc"/><circle cx="367.088" cy="459.736" fill="#5d5360" r="41.909"/><path d="m367.088 417.827c-3.374 0-6.651.41-9.794 1.162 18.419 4.412 32.115 20.975 32.115 40.746 0 19.772-13.696 36.335-32.115 40.746 3.143.753 6.42 1.163 9.794 1.163 23.146 0 41.909-18.763 41.909-41.909 0-23.144-18.763-41.908-41.909-41.908z" fill="#4b3f4e"/><circle cx="103.483" cy="459.736" fill="#5d5360" r="41.909"/><path d="m103.483 417.827c-3.374 0-6.651.41-9.794 1.162 18.419 4.412 32.115 20.975 32.115 40.746 0 19.772-13.696 36.335-32.115 40.746 3.143.753 6.42 1.163 9.794 1.163 23.146 0 41.909-18.763 41.909-41.909 0-23.144-18.764-41.908-41.909-41.908z" fill="#4b3f4e"/><path d="m504.5 365.643v35.97h-29.905c-9.933 0-17.985-8.052-17.985-17.985 0-9.933 8.052-17.985 17.985-17.985z" fill="#fe5694"/><path d="m483.913 365.643h20.588v35.97h-20.588z" fill="#fd3581"/><g fill="#cdbfba"><path d="m103.483 475.148c-8.498 0-15.412-6.913-15.412-15.412s6.914-15.412 15.412-15.412 15.412 6.914 15.412 15.412-6.914 15.412-15.412 15.412z"/><path d="m367.531 475.148c-8.498 0-15.412-6.913-15.412-15.412s6.914-15.412 15.412-15.412 15.412 6.914 15.412 15.412-6.914 15.412-15.412 15.412z"/></g></g><g><path d="m470.96 307.61h-71.143l-37.282-65.396c-7.984-14.005-22.96-22.705-39.085-22.705h-109.597c2.35-9.084-3.273-21.988-14.433-25.331-5.447-1.926-11.459-4.243-14.748-6.817-.576-.452-.99-1.807-.667-3.521.156-.827.88-3.593 3.625-4.419 5.873-1.767 9.602 1.181 10.007 1.523l2.744 2.495c3.029 2.754 7.712 2.549 10.488-.459 2.879-3.12 2.563-8.003-.673-10.75-5.968-5.067-8.83-6.574-12.317-7.489v-1.114c0-4.107-3.164-7.688-7.269-7.811-4.247-.128-7.731 3.277-7.731 7.497v1.891c-6.988 2.28-12.188 8.307-13.613 15.851-1.348 7.132 1.005 14.068 6.15 18.109 4.987 3.904 12.08 6.708 19 9.155 4.283 1.622 6.517 5.79 3.519 11.189h-62.067c-1.882-5.756-2.848-11.76-2.848-17.92 0-31.832 25.902-57.729 57.74-57.729 13.894 0 27.318 5.003 37.8 14.088 10.381 8.997 17.229 21.386 19.281 34.883.622 4.096 4.45 6.905 8.542 6.288 4.095-.623 6.91-4.447 6.288-8.542-2.588-17.021-11.213-32.634-24.287-43.964-13.209-11.448-30.123-17.753-47.625-17.753-40.109 0-72.74 32.626-72.74 72.729 0 6.108.747 12.102 2.224 17.92h-48.183c-20.617 0-38.55 13.961-43.611 33.95l-28.22 111.542c-.152.602-.229 1.22-.229 1.84v47.73c-.078 29.356 24.93 53.789 54.641 52.659 3.821 25.01 26.462 43.911 52.969 41.747 24.004-1.96 43.295-21.359 45.133-45.373 2.218-28.982-20.738-53.277-49.261-53.277-24.693 0-45.212 18.208-48.839 41.902-18.195 1.035-35.431-12.389-38.89-30.156h15.66c4.107 0 7.688-3.165 7.811-7.27.127-4.247-3.278-7.73-7.497-7.73h-16.727v-39.299l27.991-110.634c3.374-13.325 15.327-22.631 29.069-22.631h251.39c10.749 0 20.732 5.799 26.054 15.135l39.44 69.181c1.334 2.34 3.821 3.785 6.516 3.785h75.5c14.382 0 26.04 11.659 26.04 26.04v9.493h-21.826c-14.257 0-26.301 11.667-26.06 25.922.235 13.852 11.575 25.047 25.482 25.047h22.404v17.076c0 14.382-11.659 26.04-26.04 26.04h-55.033c-3.627-23.695-24.147-41.902-48.839-41.902s-45.212 18.208-48.839 41.902h-137.5c-4.107 0-7.688 3.165-7.811 7.27-.127 4.247 3.278 7.73 7.497 7.73h137.812c3.621 23.701 24.144 41.916 48.841 41.916s45.22-18.215 48.841-41.916h55.031c22.666 0 41.04-18.374 41.04-41.04v-77.537c0-22.665-18.374-41.04-41.04-41.04zm-367.477 117.717c18.973 0 34.409 15.436 34.409 34.409s-15.436 34.409-34.409 34.409-34.409-15.436-34.409-34.409 15.435-34.409 34.409-34.409zm263.605 68.819c-18.97 0-34.404-15.431-34.409-34.401 0-.005.001-.01.001-.015 0-.004-.001-.007-.001-.011.01-18.966 15.441-34.392 34.408-34.392 18.973 0 34.409 15.436 34.409 34.409s-15.435 34.41-34.408 34.41zm107.507-100.033c-5.782 0-10.485-4.704-10.485-10.485s4.704-10.484 10.485-10.484h22.405v20.97h-22.405z"/><path d="m200.68 328.123v-71.11c0-4.143-3.358-7.5-7.5-7.5h-121.12c-6.875 0-12.851 4.653-14.531 11.311l-16.56 65.46c-.567 2.243-.068 4.622 1.353 6.447s3.605 2.893 5.918 2.893h144.94c4.142-.001 7.5-3.358 7.5-7.501zm-15-7.5h-127.808l14.182-56.11h.006 113.62z"/><path d="m103.483 482.649c12.634 0 22.912-10.278 22.912-22.912s-10.278-22.912-22.912-22.912-22.913 10.278-22.913 22.911 10.279 22.913 22.913 22.913zm0-30.825c4.363 0 7.912 3.55 7.912 7.912s-3.549 7.912-7.912 7.912-7.912-3.55-7.912-7.912 3.549-7.912 7.912-7.912z"/><path d="m301.652 148.334c40.109 0 72.74-32.631 72.74-72.739 0-40.109-32.631-72.74-72.74-72.74-40.108 0-72.739 32.631-72.739 72.74 0 40.108 32.631 72.739 72.739 72.739zm0-130.479c31.838 0 57.74 25.902 57.74 57.74s-25.902 57.739-57.74 57.739c-31.837 0-57.739-25.901-57.739-57.739s25.902-57.74 57.739-57.74z"/><path d="m281.698 107.392c4.561 2.949 8.062 4.305 12.074 4.888v1.279c0 4.107 3.164 7.688 7.269 7.811 4.247.128 7.731-3.277 7.731-7.497v-2.389c9.052-2.958 14.841-10.984 16.173-18.908 1.825-10.854-4.055-20.658-14.632-24.396-5.448-1.926-11.461-4.242-14.75-6.821-.576-.451-.99-1.803-.667-3.512.156-.829.88-3.598 3.631-4.427 5.869-1.768 9.598 1.181 10.003 1.523l2.339 2.225c3.005 2.858 7.768 2.702 10.579-.346 2.841-3.08 2.563-7.893-.594-10.649-5.748-5.019-8.604-6.52-12.083-7.432v-1.112c0-4.107-3.164-7.688-7.269-7.811-4.247-.128-7.731 3.277-7.731 7.497v1.89c-6.994 2.284-12.194 8.317-13.617 15.865-1.344 7.13 1.013 14.063 6.15 18.093 4.983 3.908 12.081 6.713 19.008 9.161 5.046 1.783 5.197 5.632 4.838 7.768-.608 3.618-3.645 7.523-8.877 7.584-.001 0-.003 0-.004 0-.02 0-.039.003-.059.003-5.759.037-7.273-.201-11.573-3.014-3.716-2.431-8.789-1.139-10.833 2.956-1.722 3.456-.351 7.673 2.894 9.771z"/><path d="m231.56 393.128v-57.505h136.78c2.672 0 5.143-1.422 6.485-3.732s1.354-5.16.031-7.481l-38.382-67.334c-2.663-4.665-7.653-7.562-13.023-7.562h-99.39c-4.142 0-7.5 3.357-7.5 7.5v136.115c0 4.143 3.358 7.5 7.5 7.5s7.499-3.358 7.499-7.501zm0-128.615 91.884-.006 31.987 56.116h-25.858l-11.479-20.485c-2.024-3.613-6.595-4.899-10.209-2.877-3.614 2.024-4.902 6.596-2.877 10.209l7.37 13.153h-80.818z"/><path d="m367.53 436.824c-12.634 0-22.912 10.278-22.912 22.912s10.278 22.912 22.912 22.912 22.912-10.278 22.912-22.912-10.278-22.912-22.912-22.912zm0 30.825c-4.363 0-7.912-3.55-7.912-7.912s3.549-7.912 7.912-7.912 7.912 3.55 7.912 7.912-3.549 7.912-7.912 7.912z"/></g></g></svg>