<svg id="Capa_1" enable-background="new 0 0 511.998 511.998" height="512" viewBox="0 0 511.998 511.998" width="512" xmlns="http://www.w3.org/2000/svg"><g><g><path d="m165.393 279.108c-27.435 10.006-45.689 36.095-45.689 65.297v32.971h45.689z" fill="#fe5694"/><path d="m165.393 279.108c-7.084 2.584-13.55 6.247-19.254 10.753v87.516h19.254z" fill="#fd3581"/><path d="m119.709 377.38h57.3v96.9h-57.3z" fill="#ffe5c2"/><path d="m342.989 465.48v39.02h-212.68v-30.22h46.7v-85.21c11.73-6.02 25.03-9.42 39.13-9.42h41.03c47.4 0 85.82 38.43 85.82 85.83z" fill="#fe5694"/><path d="m177.009 389.07v85.21h-46.7v-8.8c0-33.3 18.97-62.18 46.7-76.41z" fill="#fed2a4"/><path d="m177.009 377.38v96.9h-27.19l5.36-44.03-1.95-5.14c-4.69-12.32-7.09-25.39-7.09-38.57v-9.16z" fill="#fed2a4"/><path d="m346.61 279.108c27.435 10.006 45.689 36.095 45.689 65.297v32.971h-45.689z" fill="#fe5694"/><path d="m346.61 279.108v10.752c16.385 12.942 26.436 32.883 26.436 54.545v32.971h19.253v-32.971c0-29.202-18.254-55.29-45.689-65.297z" fill="#fd3581"/><path d="m335.502 377.376h56.797v96.907h-56.797z" fill="#ffe5c2"/><path d="m373.046 377.376h19.253v96.907h-19.253z" fill="#fed2a4"/><path d="m317.992 272.969 28.615 6.141v107.707c0 13.178-2.403 26.246-7.09 38.563l-1.956 5.14 9.046 73.98h-181.219l9.046-74.254-1.956-5.14c-4.687-12.317-7.09-25.385-7.09-38.563v-107.433l28.665-6.061z" fill="#fe5694"/><path d="m346.607 386.817v-107.707l-28.615-6.141-19.195.012 28.557 6.129v107.707c0 13.178-2.403 26.246-7.09 38.563l-1.956 5.14 9.046 73.98h19.253l-9.046-73.98 1.956-5.14c4.688-12.316 7.09-25.384 7.09-38.563z" fill="#fd3581"/><path d="m317.992 272.969c-13.267 20.132-36.083 33.42-61.995 33.42-25.881 0-48.667-13.247-61.944-33.339l25.57-5.407c7.096-1.508 12.182-7.769 12.182-15.036v-47.978h49.39v48.019c0 7.247 5.056 13.509 12.142 15.026z" fill="#ffe5c2"/><path d="m293.337 267.672c-7.086-1.518-12.142-7.779-12.142-15.026v-48.019h-19.253v48.019c0 7.247 5.056 13.509 12.142 15.026l24.655 5.297c-11.597 17.598-30.49 29.965-52.369 32.8 3.152.408 6.365.62 9.627.62 25.911 0 48.727-13.287 61.995-33.42z" fill="#fed2a4"/><path d="m346.61 165.641h-181.217v-46.792c0-42.001 34.049-76.05 76.05-76.05h29.117c42.001 0 76.05 34.049 76.05 76.05z" fill="#d19a6e"/><path d="m270.56 42.798h-19.253c42.001 0 76.05 34.049 76.05 76.05v46.792h19.253v-46.792c0-42.001-34.048-76.05-76.05-76.05z" fill="#c38c66"/><circle cx="336.01" cy="36.656" fill="#d19a6e" r="29.156"/><path d="m336.01 7.5c-3.375 0-6.612.58-9.627 1.635 11.37 3.977 19.529 14.793 19.529 27.521s-8.159 23.544-19.529 27.521c3.015 1.055 6.252 1.634 9.627 1.634 16.102 0 29.156-13.053 29.156-29.156s-13.054-29.155-29.156-29.155z" fill="#c38c66"/><path d="m201.874 178.199h-24.105c-11.579 0-20.966-9.387-20.966-20.966 0-11.579 9.387-20.966 20.966-20.966h9.307z" fill="#ffe5c2"/><path d="m335.233 178.199h-24.896l15.589-41.932h9.307c11.579 0 20.966 9.387 20.966 20.966 0 11.579-9.387 20.966-20.966 20.966z" fill="#ffe5c2"/><path d="m187.076 136.267h-9.307c-2.871 0-5.605.58-8.097 1.624l.372 38.819c2.393.95 4.994 1.488 7.725 1.488h24.105z" fill="#fed2a4"/><path d="m335.233 136.267h-9.307l-.533 1.435c7.828 3.041 13.386 10.628 13.386 19.531 0 11.579-9.387 20.966-20.966 20.966h17.42c11.579 0 20.966-9.387 20.966-20.966 0-11.579-9.387-20.966-20.966-20.966z" fill="#fed2a4"/><path d="m325.923 136.267v17.147c0 38.341-31.081 69.422-69.422 69.422-38.341 0-69.422-31.081-69.422-69.422v-17.147s77.299-10.071 98.939-49.486c0 0 10.528 39.543 39.905 49.486z" fill="#ffe5c2"/><path d="m286.018 86.781c-3.247 5.914-7.753 11.162-13.057 15.82 5.982 12.189 16.677 27.902 33.708 33.666v17.147c0 35.072-26.013 64.053-59.795 68.742 3.148.437 6.358.68 9.626.68 38.341 0 69.422-31.081 69.422-69.422v-17.147c-29.376-9.943-39.904-49.486-39.904-49.486z" fill="#fed2a4"/><path d="m152.467 504.498h-21.208c-9.462 0-17.132-7.67-17.132-17.132v-20.483c0-9.462 7.67-17.132 17.132-17.132h21.208c7.136 0 12.921 5.785 12.921 12.921v28.906c0 7.135-5.785 12.92-12.921 12.92z" fill="#ffe5c2"/><path d="m362.249 465.48v39.02h-212.69v-39.02c0-47.4 38.43-85.83 85.83-85.83h41.03c42.03 0 77 30.21 84.39 70.1.95 5.1 1.44 10.36 1.44 15.73z" fill="#fe5694"/><path d="m362.249 465.48v39c-.27.01-.55.02-.83.02h-21.21c-7.14 0-12.92-5.79-12.92-12.92v-28.91c0-7.14 5.78-12.92 12.92-12.92h20.6c.95 5.1 1.44 10.36 1.44 15.73z" fill="#fd3581"/><path d="m276.417 379.649h-19.253c47.401 0 85.828 38.426 85.828 85.828v39.021h19.253v-39.021c0-47.401-38.426-85.828-85.828-85.828z" fill="#fd3581"/><path d="m152.467 449.75h-19.253c7.136 0 12.921 5.785 12.921 12.921v28.906c0 7.136-5.785 12.921-12.921 12.921h19.253c7.136 0 12.921-5.785 12.921-12.921v-28.906c0-7.136-5.785-12.921-12.921-12.921z" fill="#fed2a4"/><path d="m359.531 504.498h21.208c9.462 0 17.132-7.67 17.132-17.132v-20.483c0-9.462-7.67-17.132-17.132-17.132h-21.208c-7.136 0-12.921 5.785-12.921 12.921v28.906c0 7.135 5.785 12.92 12.921 12.92z" fill="#ffe5c2"/><path d="m380.74 449.75h-19.253c9.462 0 17.132 7.67 17.132 17.132v20.483c0 9.462-7.67 17.132-17.132 17.132h19.253c9.462 0 17.132-7.67 17.132-17.132v-20.483c0-9.461-7.671-17.132-17.132-17.132z" fill="#fed2a4"/><path d="m263.325 419.799-7.423 6.237-7.423-6.237c-5.341-4.488-13.235-4.115-18.13.857-4.702 4.777-5.141 12.297-1.026 17.588l20.386 26.21c3.14 4.038 9.243 4.038 12.383 0l20.386-26.21c4.115-5.291 3.677-12.811-1.026-17.588-4.891-4.972-12.786-5.345-18.127-.857z" fill="#f7f9fa"/><g><path d="m281.455 420.656c-4.892-4.97-12.781-5.344-18.122-.863.322.271.634.557.934.863 4.702 4.777 5.141 12.297 1.025 17.588l-14.194 18.505c-1.32 1.697-3.165 2.672-5.092 2.942l3.704 4.763c3.141 4.038 9.243 4.038 12.384 0l20.386-26.21c4.115-5.291 3.677-12.811-1.025-17.588z" fill="#e9edf1"/></g></g><g><path d="m256.501 167.921c4.143 0 7.5-3.358 7.5-7.5v-9.966c0-4.142-3.357-7.5-7.5-7.5s-7.5 3.358-7.5 7.5v9.966c0 4.142 3.357 7.5 7.5 7.5z"/><path d="m276.577 190.143c2.149-3.541 1.021-8.154-2.52-10.303-3.542-2.149-8.153-1.021-10.303 2.52-1.554 2.56-4.266 4.088-7.254 4.088s-5.7-1.528-7.254-4.088c-2.149-3.541-6.764-4.669-10.303-2.52-3.541 2.149-4.669 6.762-2.52 10.303 4.297 7.079 11.802 11.305 20.076 11.305s15.781-4.226 20.078-11.305z"/><path d="m399.799 451.297v-106.892c.087-31.926-20.849-62.252-51.616-72.628l-53.271-11.44c-3.33-.714-5.809-3.465-6.168-6.845-.437-4.119-4.119-7.104-8.25-6.667-4.119.437-7.104 4.131-6.666 8.25 1.045 9.844 8.254 17.853 17.936 19.928l12.928 2.78c-12.504 13.378-30.022 21.108-48.691 21.108-18.61 0-36.092-7.69-48.597-21l13.777-2.915c10.505-2.235 18.129-11.641 18.129-22.366v-24.235c5.532 1.268 11.281 1.961 17.192 1.961 30.888 0 57.565-18.309 69.793-44.636 20.208 2.484 36.975-8.987 37.405-28.47 0-8.457-3.713-16.059-9.59-21.277v-17.103c0-16.905-5.062-32.644-13.728-45.808 18.157-2.169 32.284-17.654 32.284-36.386-.001-20.212-16.444-36.656-36.656-36.656-21.218-.055-38.775 18.84-36.453 40.496-9.038-3.356-18.806-5.197-28.998-5.197h-29.119c-46.07 0-83.551 37.48-83.551 83.55v18.016c-4.766 4.485-8.639 12.666-8.59 20.363.407 21.473 19.348 30.46 37.409 28.47 7.679 16.533 21.056 29.892 37.6 37.549v29.361c0 3.688-2.629 6.924-6.242 7.693 0 0-53.902 11.267-55.244 11.759-30.276 11.043-50.618 40.115-50.618 72.343l.005 72.445c0 4.142 3.357 7.5 7.5 7.5s7.5-3.358 7.5-7.5v-31.974h30.68c-.111 7.045.673 16.818 2.405 25.109-7.061 9.555-12.301 20.475-15.313 32.265h-13.722c-13.583 0-24.633 11.05-24.633 24.632v20.483c0 13.583 11.05 24.632 24.633 24.632h21.208c11.26 0 20.421-9.161 20.421-20.421v-28.906c0-8.556-5.296-15.889-12.776-18.922 6.18-21.783 22.664-41.143 44.689-50.405 3.812-1.619 5.591-6.022 3.972-9.835s-6.027-5.588-9.835-3.972c-9.516 4.041-18.131 9.547-25.623 16.203-.281-3.058-.426-6.128-.426-9.199v-48.061c0-4.142-3.357-7.5-7.5-7.5s-7.5 3.358-7.5 7.5v31.397h-30.685v-25.471c0-25.792 16.184-49.066 40.316-58.08l23.256-4.917c12.08 16.005 29.436 26.859 48.785 30.814l-1.975 1.975c-2.929 2.929-2.929 7.678.001 10.606 2.928 2.93 7.677 2.929 10.606 0l7.806-7.806 7.806 7.806c1.465 1.465 3.384 2.197 5.304 2.197 1.919 0 3.839-.732 5.303-2.197 2.93-2.929 2.93-7.677.001-10.606l-1.975-1.975c19.376-3.96 36.746-14.837 48.822-30.88l23.217 4.981c24.136 9.012 40.322 32.289 40.322 58.082v25.471h-30.689v-31.397c0-4.142-3.357-7.5-7.5-7.5s-7.5 3.358-7.5 7.5v48.341c0 3.041-.142 6.083-.418 9.111-7.337-6.562-15.759-12.015-25.05-16.058-3.798-1.653-8.217.087-9.869 3.884-1.653 3.798.086 8.217 3.885 9.87 20.845 9.085 37.553 27.409 44.055 50.185-7.39 3.076-12.602 10.367-12.602 18.859v28.906c0 11.26 9.161 20.421 20.421 20.421h21.208c13.583 0 24.633-11.05 24.633-24.632v-20.483c-.001-5.907-2.093-11.335-5.574-15.584zm-55.037-284.547c-2.326 2.607-8.233 4.504-13.322 3.95 1.282-5.561 1.983-11.341 1.983-17.286v-9.644h1.807c7.427 0 13.47 6.038 13.47 13.46-.001 3.593-1.404 6.979-3.938 9.52zm-9.532-37.98h-7.941c-22.229-8.323-32.133-37.701-33.77-43.064v-31.438c25.791 9.001 45.828 35.074 45.591 64.583v10.191c-1.27-.174-2.564-.272-3.88-.272zm-20.875-92.114c0-11.941 9.715-21.656 21.655-21.656s21.655 9.715 21.655 21.656-9.715 21.656-21.655 21.656c-10.555.165-21.564-8.951-21.655-21.656zm-141.466 82.194c0-37.799 30.752-68.55 68.551-68.55h29.119c2.694 0 5.346.173 7.96.477v33.994c-19.985 32.926-86.091 43.151-91.981 43.999-5.901.144-7.418-.384-13.649.423zm4.88 51.85c-7.427 0-13.47-6.043-13.47-13.47-.038-6.642 6.276-14.368 15.28-13.46v9.644c0 5.945.7 11.725 1.983 17.286zm16.81-17.286v-10.74c17.411-3.066 64.729-13.565 89.261-40.23 5.652 12.585 16.462 30.468 34.583 38.887v12.083c0 34.144-27.778 61.922-61.922 61.922s-61.922-27.778-61.922-61.922zm-36.691 338.163c0 2.989-2.432 5.421-5.421 5.421h-21.208c-5.312 0-9.633-4.321-9.633-9.632v-20.483c0-5.311 4.321-9.632 9.633-9.632h21.208c2.989 0 5.421 2.432 5.421 5.421zm226.911-106.7v57.714c-1.322-.22-2.677-.34-4.06-.34h-13.913c-2.983-11.666-8.159-22.494-15.125-31.99 1.504-7.11 2.54-16.971 2.408-25.384zm5.573 102.489c0 5.311-4.321 9.632-9.633 9.632h-21.208c-2.989 0-5.421-2.432-5.421-5.421v-28.906c0-2.989 2.432-5.421 5.421-5.421h21.208c5.312 0 9.633 4.321 9.633 9.632z"/><path d="m258.5 414.056-2.598 2.183-2.598-2.183c-8.28-6.957-20.711-6.37-28.299 1.338-7.311 7.426-7.998 19.229-1.601 27.454l20.386 26.21c2.928 3.764 7.343 5.923 12.111 5.923 4.77 0 9.185-2.159 12.112-5.924l20.386-26.21c6.398-8.226 5.71-20.029-1.602-27.454-7.586-7.707-20.015-8.295-28.297-1.337zm18.061 19.583-20.386 26.21c-.039.05-.104.133-.272.133s-.232-.083-.271-.133l-20.386-26.21c-1.8-2.314-1.605-5.634.45-7.723 1.138-1.155 2.661-1.742 4.189-1.742 1.34 0 2.683.451 3.771 1.365l7.422 6.237c2.791 2.345 6.86 2.344 9.649 0l7.423-6.237h.001c2.33-1.958 5.827-1.79 7.959.377 2.056 2.09 2.25 5.41.451 7.723z"/><circle cx="221.289" cy="156.779" r="7.5"/><circle cx="291.719" cy="156.779" r="7.5"/></g></g></svg>