<svg id="Capa_1" enable-background="new 0 0 512.002 512.002" height="512" viewBox="0 0 512.002 512.002" width="512" xmlns="http://www.w3.org/2000/svg"><g><g><path d="m176.021 37.776h159.96v55.007h-159.96z" fill="#a2aee6"/><path d="m313.841 37.78h22.14v55h-22.14z" fill="#8795de"/><path d="m376.766 504.5h-241.53v-143.455l91.266-16.777h58.998l91.266 16.777z" fill="#5d5360"/><path d="m285.5 344.268h-21.141l91.266 16.777v143.455h21.141v-143.455z" fill="#4b3f4e"/><path d="m135.236 361.045c-40.872 9.648-74.415 38.726-89.764 77.816l-25.773 65.639h115.537z" fill="#5d5360"/><path d="m135.236 361.045c-7.303 1.724-14.367 4.079-21.141 6.99v136.465h21.141z" fill="#4b3f4e"/><path d="m376.766 361.045c40.872 9.648 74.415 38.726 89.764 77.816l25.773 65.639h-115.537z" fill="#5d5360"/><path d="m466.529 438.861c-15.349-39.09-48.891-68.168-89.764-77.816v6.99c31.133 13.38 56.017 38.721 68.623 70.826l25.773 65.639h21.141z" fill="#4b3f4e"/><path d="m376.761 344.27c0 29.69-12.04 56.58-31.49 76.04-19.46 19.45-46.35 31.49-76.04 31.49h-26.46c-59.39 0-107.53-48.14-107.53-107.53l28.02-3.96 92.74-13.1 93.51 13.21z" fill="#ffe270"/><path d="m349.511 340.42-93.51-13.21-10.571 1.493 82.94 11.717 27.25 3.85c0 29.69-12.04 56.58-31.49 76.04-19.46 19.45-46.35 31.49-76.04 31.49h21.141c29.69 0 56.58-12.04 76.04-31.49 19.45-19.46 31.49-46.35 31.49-76.04z" fill="#ffd15b"/><path d="m349.511 340.42-7.04 29.3c-10.55 30.29-39.4 52.08-73.24 52.08h-26.46c-33.84 0-62.69-21.79-73.24-52.08l-6.27-29.41 92.74-13.1z" fill="#a2aee6"/><path d="m256.001 327.21-10.571 1.493 82.94 11.717-7.04 29.3c-10.55 30.29-39.4 52.08-73.24 52.08h21.141c33.84 0 62.69-21.79 73.24-52.08l7.04-29.3z" fill="#8795de"/><path d="m363.231 130.065v73.265h-214.46v-73.265c0-11.997 4.66-22.942 12.36-31.285 9.05-9.816 22.31-16.015 37.08-16.015h115.58c27.31-.001 49.44 21.181 49.44 47.3z" fill="#5d5360"/><path d="m313.795 82.766h-21.141c27.305 0 49.44 21.177 49.44 47.3v73.26h21.141v-73.26c.001-26.123-22.135-47.3-49.44-47.3z" fill="#4b3f4e"/><path d="m335.981 155.36v96.35c0 23.26-18.86 42.11-42.12 42.11h-75.72c-23.26 0-42.12-18.85-42.12-42.11v-96.35c0-8.31 6.74-15.04 15.04-15.04h129.88c8.3 0 15.04 6.73 15.04 15.04z" fill="#fed2a4"/><path d="m320.937 140.319h-21.141c8.306 0 15.039 6.733 15.039 15.039v96.356c0 23.257-18.853 42.11-42.11 42.11h21.141c23.257 0 42.11-18.853 42.11-42.11v-96.356c0-8.306-6.733-15.039-15.039-15.039z" fill="#ffbd86"/><path d="m176.022 240.502h-21.891c-9.513 0-17.225-7.712-17.225-17.225v-15.64c0-9.513 7.712-17.225 17.225-17.225h21.891z" fill="#fed2a4"/><path d="m154.881 190.412h21.141v50.09h-21.141z" fill="#ffbd86"/><path d="m357.871 240.502h-21.891v-50.09h21.891c9.513 0 17.225 7.712 17.225 17.225v15.64c0 9.513-7.712 17.225-17.225 17.225z" fill="#fed2a4"/><path d="m357.871 190.412h-21.141c9.513 0 17.225 7.712 17.225 17.225v15.64c0 9.513-7.712 17.225-17.225 17.225h21.141c9.513 0 17.225-7.712 17.225-17.225v-15.64c0-9.513-7.711-17.225-17.225-17.225z" fill="#ffbd86"/><path d="m226.502 293.824h58.998v50.445c-17.732 12.334-41.265 12.334-58.997 0v-50.445z" fill="#fed2a4"/><path d="m264.359 293.824v50.445c-5.821 4.049-12.268 6.759-18.928 8.15 13.63 2.846 28.158.135 40.069-8.15v-50.445z" fill="#ffbd86"/><path d="m123.116 7.5c-7.618 0-13.794 6.176-13.794 13.794 0 7.046 5.31 12.959 12.316 13.714l118.395 12.761c10.614 1.144 21.321 1.144 31.935 0l118.395-12.761c7.005-.755 12.316-6.668 12.316-13.714 0-7.618-6.176-13.794-13.794-13.794h-265.769z" fill="#5d5360"/><path d="m402.681 21.29c0 7.05-5.31 12.96-12.32 13.72l-20.87 2.25.03-.01c11.87-1.28 14.33-8.91 14.33-15.96 0-3.81-1.54-7.25-4.04-9.75-2.49-2.5-5.94-4.04-9.75-4.04h18.82c3.81 0 7.26 1.54 9.76 4.04s4.04 5.94 4.04 9.75z" fill="#4b3f4e"/></g><g><path d="m256.001 234.47h5.562c4.142 0 7.5-3.358 7.5-7.5 0-3.472-2.359-6.393-5.562-7.247v-8.414c0-4.142-3.358-7.5-7.5-7.5s-7.5 3.358-7.5 7.5v15.661c0 4.142 3.358 7.5 7.5 7.5z"/><path d="m208.027 192.318c-4.142 0-7.5 3.358-7.5 7.5v10.688c0 4.142 3.358 7.5 7.5 7.5s7.5-3.358 7.5-7.5v-10.688c0-4.142-3.358-7.5-7.5-7.5z"/><path d="m303.975 218.005c4.142 0 7.5-3.358 7.5-7.5v-10.688c0-4.142-3.358-7.5-7.5-7.5s-7.5 3.358-7.5 7.5v10.688c0 4.142 3.358 7.5 7.5 7.5z"/><path d="m284.971 240.145c-3.541-2.148-8.153-1.021-10.303 2.519-3.998 6.585-10.976 10.517-18.667 10.517s-14.669-3.932-18.667-10.517c-2.149-3.54-6.761-4.669-10.303-2.519-3.541 2.149-4.668 6.762-2.519 10.303 6.741 11.104 18.513 17.733 31.489 17.733s24.749-6.629 31.489-17.733c2.15-3.541 1.022-8.154-2.519-10.303z"/><path d="m499.284 501.759-25.774-65.639c-15.579-39.677-48.896-69.614-89.756-81.005.333-3.583.507-7.2.507-10.844 0-3.737-2.751-6.903-6.451-7.426l-84.81-11.98v-23.545c28.813.689 52.333-24.425 50.481-53.318h14.391c13.633 0 24.725-11.092 24.725-24.725v-15.64c0-8.926-4.755-16.762-11.865-21.109v-56.463c0-19.753-10.919-37.095-27.25-46.74v-35.72l32.873-3.543v50.214c0 4.142 3.358 7.5 7.5 7.5s7.5-3.358 7.5-7.5v-51.84c10.744-1.253 18.826-10.305 18.826-21.143-.002-11.741-9.554-21.293-21.295-21.293h-51.769c-4.142 0-7.5 3.358-7.5 7.5s3.358 7.5 7.5 7.5h51.769c3.47 0 6.293 2.823 6.293 6.293 0 3.222-2.416 5.912-5.619 6.257l-118.395 12.762c-10.062 1.085-20.266 1.085-30.327 0l-118.396-12.761c-3.204-.345-5.619-3.035-5.619-6.257 0-3.47 2.823-6.293 6.293-6.293h178.711c4.142 0 7.5-3.358 7.5-7.5s-3.358-7.5-7.5-7.5h-178.711c-11.741 0-21.293 9.552-21.293 21.293 0 10.901 8.173 20.003 19.012 21.171l47.687 5.14v35.724c-4.763 2.801-9.127 6.271-12.904 10.367-2.808 3.045-2.615 7.79.43 10.598 3.045 2.807 7.79 2.615 10.598-.43 7.968-8.643 19.474-13.599 31.566-13.599h115.58c23.126 0 41.94 17.854 41.94 39.8v52.848h-12.25v-27.553c0-12.429-10.111-22.54-22.54-22.54h-129.88c-12.429 0-22.54 10.111-22.54 22.54v27.552h-12.25v-52.848c0-4.142-3.358-7.5-7.5-7.5s-7.5 3.358-7.5 7.5v56.463c-7.11 4.347-11.865 12.183-11.865 21.109v15.64c0 13.633 11.091 24.725 24.725 24.725h14.391c-1.945 28.584 21.376 53.904 50.481 53.318v23.545l-84.811 11.979c-3.7.523-6.451 3.689-6.451 7.426 0 3.657.179 7.272.515 10.842-40.864 11.39-74.184 41.328-89.764 81.008l-25.773 65.639c-1.514 3.855.384 8.208 4.24 9.722.9.354 1.827.521 2.739.521 2.994 0 5.823-1.805 6.983-4.761l25.773-65.639c13.274-33.807 41.022-59.672 75.283-70.69v133.589c0 4.142 3.358 7.5 7.5 7.5s7.5-3.358 7.5-7.5v-103.495c19.806 34.785 57.224 58.295 100.035 58.295h26.46c30.721 0 59.608-11.963 81.345-33.688 7.389-7.393 13.646-15.615 18.69-24.455v103.343c0 4.142 3.358 7.5 7.5 7.5s7.5-3.358 7.5-7.5v-133.588c34.261 11.019 62.008 36.883 75.283 70.69l25.773 65.639c1.16 2.956 3.989 4.761 6.983 4.761.912 0 1.839-.167 2.739-.521 3.853-1.514 5.752-5.867 4.238-9.722zm-301.073-426.494c-5.006 0-9.941.641-14.69 1.863v-27.907l55.709 6.004c5.564.6 11.167.899 16.771.899s11.207-.3 16.771-.899l55.709-6.004v27.902c-4.689-1.206-9.611-1.859-14.69-1.859h-115.58zm159.661 122.647c5.362 0 9.725 4.362 9.725 9.725v15.64c0 5.362-4.362 9.725-9.725 9.725h-14.391v-35.09zm-203.742 35.09c-5.362 0-9.725-4.363-9.725-9.725v-15.64c0-5.362 4.362-9.725 9.725-9.725h14.391v35.09zm29.391 18.708v-96.35c0-4.158 3.382-7.54 7.54-7.54h129.88c4.158 0 7.54 3.382 7.54 7.54v96.35c0 19.084-15.531 34.61-34.62 34.61h-75.72c-19.089 0-34.62-15.526-34.62-34.61zm94.479 49.614v38.824c-13.562 7.776-30.435 7.776-43.997 0v-38.824zm61.969 113.681c-18.901 18.891-44.023 29.294-70.738 29.294h-26.46c-52.979 0-96.47-41.398-99.822-93.544l14.435-2.039c5.64 47.937 39.516 79.727 85.386 80.583h26.46c9.022 0 17.914-1.414 26.427-4.203 3.936-1.29 6.082-5.526 4.792-9.462-1.29-3.937-5.527-6.082-9.462-4.792-7.003 2.294-14.323 3.458-21.757 3.458h-26.46c-41.401-.734-66.296-30.742-70.498-67.686l46.729-6.6v4.255c0 2.455 1.202 4.755 3.217 6.157 10.103 7.027 21.942 10.541 33.781 10.541s23.678-3.514 33.781-10.541c2.016-1.402 3.217-3.702 3.217-6.157v-4.255l47.291 6.68c-3.093 16.584-8.852 35.833-22.25 47.748-2.969 2.889-3.033 7.637-.145 10.605 1.47 1.511 3.422 2.27 5.375 2.27 1.885 0 3.772-.707 5.23-2.125 16.666-15.132 22.902-36.922 26.71-56.391l13.844 1.955c-1.54 24.276-11.732 46.89-29.083 64.249z"/><path d="m200.681 472.88c-3.995-1.095-8.121 1.258-9.214 5.253l-6.676 24.386c-1.094 3.995 1.258 8.121 5.253 9.214.663.182 1.329.268 1.985.268 3.295 0 6.317-2.189 7.229-5.521l6.676-24.386c1.094-3.994-1.258-8.12-5.253-9.214z"/><path d="m320.535 478.134c-1.093-3.994-5.215-6.344-9.214-5.253-3.995 1.094-6.347 5.219-5.253 9.214l6.676 24.386c.912 3.332 3.934 5.521 7.229 5.521.655 0 1.322-.087 1.985-.268 3.995-1.094 6.347-5.219 5.253-9.214z"/></g></g></svg>