<svg id="Capa_1" enable-background="new 0 0 512.002 512.002" height="512" viewBox="0 0 512.002 512.002" width="512" xmlns="http://www.w3.org/2000/svg"><g><g><path d="m402.011 359.65v144.85h-292.02v-144.85l14.93-2.47 22.35-3.71 15.86-2.63 22.36-3.71 29.22-4.84h82.58l29.22 4.84 38.22 6.34z" fill="#95d6a4"/><g fill="#78c2a4"><path d="m124.922 435.851h217.461v68.649h-217.461z"/><path d="m163.131 350.84v96.92c0 10.56-8.55 19.11-19.1 19.11-5.27 0-10.05-2.14-13.51-5.59-3.46-3.46-5.6-8.24-5.6-13.52v-90.58l22.35-3.71z"/><path d="m364.727 353.467-38.214-6.336-29.226-4.844h-22.353l29.226 4.844 38.213 6.336 37.283 6.185v144.848h22.353v-144.848z"/><path d="m342.373 353.467v94.297c0 10.552-8.554 19.107-19.107 19.107-10.552 0-19.107-8.554-19.107-19.107v-100.633z"/></g><path d="m147.275 435.849h217.451v68.651h-217.451z" fill="#a2aee6"/><path d="m342.377 435.849v11.911c0 10.559-8.558 19.107-19.107 19.107-5.275 0-10.059-2.142-13.512-5.595s-5.595-8.237-5.595-13.512v-11.911z" fill="#8795de"/><path d="m342.378 435.851h22.353v68.649h-22.353z" fill="#8795de"/><path d="m214.719 281.303h82.565v63.234c0 8.424-5.12 16.091-13.002 19.064-18.215 6.87-38.347 6.87-56.561 0-7.882-2.973-13.002-10.641-13.002-19.064z" fill="#fed2a4"/><path d="m274.93 281.303v63.234c0 8.424-5.12 16.091-13.002 19.064-5.559 2.097-11.297 3.545-17.104 4.362 13.221 1.86 26.801.411 39.457-4.362 7.882-2.973 13.002-10.64 13.002-19.064v-63.234z" fill="#ffbd86"/><path d="m109.993 359.648c-27.911 11.112-48.871 34.839-56.457 63.907l-21.124 80.945h77.581z" fill="#95d6a4"/><path d="m109.993 359.648c-8.089 3.22-15.588 7.506-22.353 12.668v132.184h22.353z" fill="#78c2a4"/><path d="m402.009 359.648c27.911 11.112 48.871 34.839 56.457 63.907l21.124 80.945h-77.581z" fill="#95d6a4"/><path d="m458.466 423.554c-7.586-29.068-28.546-52.794-56.457-63.906v12.668c16.578 12.65 28.716 30.594 34.104 51.238l21.124 80.946h22.353z" fill="#78c2a4"/><path d="m185.489 347.131v100.632c0 10.552-8.554 19.107-19.107 19.107-10.552 0-19.107-8.554-19.107-19.107v-94.297z" fill="#a2aee6"/><path d="m163.136 350.837v96.926c0 6.374-3.133 12.003-7.93 15.474 3.145 2.276 6.998 3.632 11.177 3.632 10.552 0 19.107-8.554 19.107-19.107v-100.631z" fill="#8795de"/><path d="m364.727 353.467v94.297c0 10.552-8.554 19.107-19.107 19.107-10.552 0-19.107-8.554-19.107-19.107v-100.633z" fill="#a2aee6"/><path d="m326.513 347.131v3.706l15.86 2.63v94.297c0 6.374-3.133 12.003-7.93 15.474 3.145 2.276 6.998 3.632 11.177 3.632 10.552 0 19.107-8.554 19.107-19.107v-94.297z" fill="#8795de"/><path d="m365.421 152.504 12.054-19.954c10.619-17.578 16.231-37.725 16.231-58.261 0-16.466-13.348-29.814-29.814-29.814h-32.633c0-20.42-16.554-36.974-36.974-36.974h-138.263c-20.42 0-36.974 16.554-36.974 36.974v30.779c0 20.29 5.479 40.204 15.858 57.639l11.675 19.612h218.84" fill="#ffe270"/><g fill="#ffd15b"><path d="m308.905 44.474h22.353c0-20.42-16.554-36.974-36.974-36.974h-22.353c20.421 0 36.974 16.554 36.974 36.974z"/><path d="m363.892 44.474h-22.353c16.466 0 29.814 13.348 29.814 29.814 0 20.537-5.613 40.683-16.231 58.261l-12.054 19.954h22.353l12.054-19.954c10.618-17.578 16.231-37.725 16.231-58.261 0-16.466-13.348-29.814-29.814-29.814z"/></g><path d="m352.498 122.646 12.922 29.857-.005 80.881c0 30.684-24.875 55.559-55.559 55.559h-107.711c-30.684 0-55.559-24.875-55.559-55.559l-.005-80.881 12.922-29.857c4.307-9.951 14.114-16.393 24.957-16.393h143.081c10.844.001 20.65 6.442 24.957 16.393z" fill="#fed2a4"/><path d="m352.498 122.646c-4.307-9.951-14.114-16.393-24.957-16.393h-22.353c10.843 0 20.65 6.441 24.957 16.393l12.923 29.857-.005 80.881c0 30.684-24.875 55.559-55.559 55.559h22.353c30.685 0 55.559-24.875 55.559-55.559l.005-80.881z" fill="#ffbd86"/><path d="m146.581 218.591h-26.679c-11.616 0-21.033-9.417-21.033-21.033v-24.022c0-11.616 9.417-21.033 21.033-21.033h26.679z" fill="#fed2a4"/><path d="m124.228 152.504h22.353v66.088h-22.353z" fill="#ffbd86"/><path d="m392.1 218.591h-26.679v-66.088h26.679c11.616 0 21.033 9.417 21.033 21.033v24.022c0 11.617-9.417 21.033-21.033 21.033z" fill="#fed2a4"/><path d="m392.1 152.504h-22.353c11.616 0 21.033 9.417 21.033 21.033v24.022c0 11.616-9.417 21.033-21.033 21.033h22.353c11.616 0 21.033-9.417 21.033-21.033v-24.022c0-11.616-9.417-21.033-21.033-21.033z" fill="#ffbd86"/><circle cx="191.236" cy="185.329" fill="#f7f9fa" r="44.655"/><path d="m191.236 140.674c-3.86 0-7.605.49-11.177 1.411 19.254 4.962 33.479 22.442 33.479 43.245s-14.225 38.283-33.479 43.245c3.572.92 7.317 1.411 11.177 1.411 24.662 0 44.655-19.993 44.655-44.655s-19.992-44.657-44.655-44.657z" fill="#e9edf1"/><circle cx="320.766" cy="185.329" fill="#f7f9fa" r="44.655"/><path d="m320.766 140.674c-3.86 0-7.605.49-11.177 1.411 19.254 4.962 33.479 22.442 33.479 43.245s-14.225 38.283-33.479 43.245c3.572.92 7.317 1.411 11.177 1.411 24.663 0 44.655-19.993 44.655-44.655s-19.993-44.657-44.655-44.657z" fill="#e9edf1"/></g><g><path d="m486.847 502.606-21.124-80.945c-8.109-31.032-31.875-58.651-62.735-69.449l-98.2-16.284v-39.485c41.609 2.167 70.883-31.06 68.129-70.352h19.184c15.732 0 28.532-12.8 28.532-28.533v-24.022c0-15.732-12.8-28.532-28.532-28.532h-13.387l5.181-8.576c11.325-18.748 17.312-40.236 17.312-62.14 0-20.575-16.739-37.314-37.314-37.314h-25.766c-3.575-20.965-21.874-36.974-43.842-36.974h-138.264c-24.522 0-44.474 19.951-44.474 44.474v30.779c0 21.631 5.849 42.889 16.913 61.476l4.927 8.275h-13.486c-15.732 0-28.532 12.8-28.532 28.532v24.022c0 15.733 12.8 28.533 28.532 28.533h19.184c-2.931 41.38 28.447 72.291 68.129 70.352v39.485l-98.211 16.286c-30.393 10.677-54.554 37.964-62.725 69.447l-21.124 80.945c-1.046 4.008 1.355 8.104 5.363 9.15.635.166 1.271.245 1.898.245 3.33 0 6.372-2.235 7.252-5.608l21.124-80.945c5.991-22.955 21.235-42.454 41.699-53.931v132.983c0 4.143 3.357 7.5 7.5 7.5s0 0 0 0c4.143 0 7.5-3.357 7.5-7.5v-138.49l22.282-3.695v142.185c0 4.143 3.357 7.5 7.5 7.5s7.5-3.357 7.5-7.5v-32.799c3.51 1.709 7.448 2.67 11.606 2.67 14.671 0 26.607-11.936 26.607-26.606v-4.414h126.023v4.414c0 14.671 11.937 26.606 26.607 26.606 4.159 0 8.097-.961 11.606-2.67v32.799c0 4.143 3.357 7.5 7.5 7.5s7.5-3.357 7.5-7.5v-142.184l22.282 3.695v35.078c0 4.143 3.357 7.5 7.5 7.5s7.5-3.357 7.5-7.5v-29.572c20.465 11.477 35.709 30.977 41.7 53.932l21.124 80.945c.88 3.373 3.921 5.608 7.252 5.608.627 0 1.264-.079 1.898-.245 4.014-1.046 6.416-5.143 5.37-9.151zm-128.928-317.201c-.042 20.452-16.691 37.079-37.153 37.079-20.487 0-37.155-16.668-37.155-37.155s16.668-37.155 37.155-37.155c20.462 0 37.112 16.627 37.153 37.08zm47.714-11.869v24.022c0 7.462-6.07 13.533-13.532 13.533h-19.18v-51.088h19.18c7.461.001 13.532 6.071 13.532 13.533zm-19.427-99.248c0 19.17-5.239 37.976-15.151 54.384l-4.531 7.5-7.143-16.504c-5.498-12.705-17.996-20.914-31.84-20.914h-17.573l25.726-46.78h28.198c12.304 0 22.314 10.009 22.314 22.314zm-259.658.965v-30.779c0-16.252 13.222-29.474 29.473-29.474h138.264c15.642 0 28.47 12.249 29.412 27.658l-32.985 59.982c-2.456 3.975.666 11.64 6.579 11.114h30.25c7.858 0 14.953 4.66 18.074 11.872l8.5 19.64c-9.047-7.544-20.676-12.092-33.35-12.092-26.212 0-47.96 19.438-51.608 44.655h-26.313c-3.648-25.217-25.397-44.655-51.608-44.655-12.674 0-24.303 4.548-33.35 12.092l8.501-19.641c3.121-7.211 10.216-11.871 18.074-11.871h77.489c4.143 0 7.5-3.357 7.5-7.5s-3.357-7.5-7.5-7.5h-77.489c-13.844 0-26.342 8.209-31.84 20.913l-7.098 16.399-4.174-7.011c-9.683-16.266-14.801-34.87-14.801-53.802zm27.535 110c.041-20.452 16.691-37.08 37.153-37.08 20.487 0 37.155 16.668 37.155 37.155s-16.668 37.155-37.155 37.155c-20.462 0-37.112-16.627-37.153-37.079zm-15.002 25.839h-19.18c-7.462 0-13.532-6.071-13.532-13.533v-24.022c0-7.462 6.07-13.532 13.532-13.532h19.18zm15.005 22.293-.001-11.496c9.467 9.618 22.621 15.596 37.151 15.596 26.212 0 47.96-19.438 51.608-44.655h26.313c3.648 25.217 25.397 44.655 51.608 44.655 14.53 0 27.685-5.978 37.151-15.596l-.001 11.496c0 26.5-21.56 48.059-48.06 48.059h-107.709c-26.5-.001-48.06-21.559-48.06-48.059zm135.701 63.058v48.096c0 5.368-3.274 10.211-8.146 12.049-16.533 6.23-34.746 6.233-51.277 0-4.874-1.838-8.148-6.681-8.148-12.049v-48.096zm-111.798 151.321c0 6.399-5.207 11.606-11.607 11.606-6.399 0-11.606-5.207-11.606-11.606v-87.935l23.214-3.849v91.784zm15-19.414v-74.857l14.988-2.485c2.108 8.869 8.451 16.356 17.093 19.616 9.973 3.76 20.451 5.639 30.93 5.639s20.96-1.88 30.934-5.639c8.641-3.26 14.983-10.747 17.091-19.616l14.988 2.485v74.857zm164.238 19.414c0 6.399-5.207 11.606-11.606 11.606-6.4 0-11.607-5.207-11.607-11.606v-91.784l23.214 3.849v87.935z"/><path d="m402.009 428.746c-4.143 0-7.5 3.357-7.5 7.5v68.254c0 4.143 3.357 7.5 7.5 7.5s7.5-3.357 7.5-7.5v-68.254c0-4.142-3.358-7.5-7.5-7.5z"/><path d="m256.001 262.563c10.93 0 20.844-5.583 26.521-14.935 2.149-3.54 1.021-8.153-2.52-10.303-3.538-2.149-8.153-1.022-10.303 2.52-2.934 4.832-8.055 7.718-13.698 7.718s-10.765-2.886-13.698-7.718c-2.149-3.542-6.764-4.669-10.303-2.52-3.541 2.149-4.669 6.763-2.52 10.303 5.677 9.352 15.591 14.935 26.521 14.935z"/><path d="m277.967 462.676h-43.932c-4.143 0-7.5 3.357-7.5 7.5s3.357 7.5 7.5 7.5h43.932c4.143 0 7.5-3.357 7.5-7.5s-3.358-7.5-7.5-7.5z"/><circle cx="316.491" cy="185.55" r="7.5"/><circle cx="196.828" cy="185.55" r="7.5"/></g></g></svg>