<svg id="Capa_1" enable-background="new 0 0 512.001 512.001" height="512" viewBox="0 0 512.001 512.001" width="512" xmlns="http://www.w3.org/2000/svg"><g><g><path d="m382.27 387.747h-252.539v-279.078c0-55.874 45.295-101.169 101.169-101.169h50.202c55.874 0 101.169 45.295 101.169 101.169v279.078z" fill="#d19a6e"/><g fill="#c38c66"><path d="m334.727 352.06c-19.4 35.05-56.75 58.78-99.64 58.78s-80.24-23.73-99.64-58.78l43.22-9.45c11.6-2.53 19.87-12.81 19.87-24.69v-61.92h73.1v61.92c0 11.88 8.27 22.16 19.87 24.69z"/><path d="m132.331 147.635s121.912-17.766 154.828-70.07h20.913c5.252 17.446.549 60.625 29.771 70.07l-.005 43.589c0 46.691-37.851 84.542-84.542 84.542h-36.419c-46.691 0-84.542-37.851-84.542-84.542z"/><path d="m281.102 7.5h-21.434c55.874 0 101.169 45.295 101.169 101.169v279.078h21.434v-279.078c-.001-55.874-45.296-101.169-101.169-101.169z"/></g><path d="m124.37 359.054-25.951 8.286c-22.265 7.109-38.504 26.323-41.803 49.462l-12.506 87.698h80.26z" fill="#fe5694"/><path d="m102.936 365.898v138.602h21.434v-145.446z" fill="#fd3581"/><path d="m387.632 359.054 25.951 8.286c22.265 7.109 38.504 26.323 41.803 49.462l12.505 87.699h-80.26v-145.447z" fill="#fe5694"/><path d="m455.386 416.802c-3.299-23.138-19.539-42.352-41.803-49.462l-25.951-8.286v6.844l4.518 1.442c22.265 7.109 38.504 26.323 41.803 49.462l12.505 87.699h21.434z" fill="#fd3581"/><path d="m158.531 209.7h-29.08c-11.6 0-21.01-9.41-21.01-21.02v-20.03c0-11.61 9.41-21.02 21.01-21.02h23.79z" fill="#ffe5c2"/><path d="m158.531 209.7h-24.16c-1.33-5.95-2.03-12.13-2.03-18.48l-.01-43.59h20.91z" fill="#fed2a4"/><path d="m382.549 209.698h-31.311l7.519-62.063h23.792c11.606 0 21.014 9.408 21.014 21.014v20.034c0 11.606-9.408 21.015-21.014 21.015z" fill="#ffe5c2"/><path d="m382.549 147.635h-21.434c11.606 0 21.014 9.408 21.014 21.014v20.034c0 11.606-9.408 21.014-21.014 21.014h21.434c11.606 0 21.014-9.408 21.014-21.014v-20.034c0-11.606-9.408-21.014-21.014-21.014z" fill="#fed2a4"/><path d="m387.631 359.05v145.45h-263.26v-145.45l31.99-6.99 43.22-9.45h112.84l43.22 9.45z" fill="#fe5694"/><path d="m387.631 359.05v145.45h-21.43v-145.45l-31.99-6.99-43.22-9.45h21.43l43.22 9.45z" fill="#fd3581"/><path d="m355.641 352.06c-19.4 35.05-56.75 58.78-99.64 58.78s-80.24-23.73-99.64-58.78l43.22-9.45c11.6-2.53 19.87-12.81 19.87-24.69v-61.92h73.1v61.92c0 11.88 8.27 22.16 19.87 24.69z" fill="#ffe5c2"/><path d="m312.421 342.61c-11.6-2.53-19.87-12.81-19.87-24.69v-61.92h-20.913v61.92c0 11.88 8.27 22.16 19.87 24.69l43.22 9.45c-17.805 32.168-50.733 54.785-89.183 58.29 3.445.314 6.93.49 10.457.49 42.89 0 80.24-23.73 99.64-58.78z" fill="#fed2a4"/><path d="m153.244 147.635s121.912-17.766 154.828-70.07c0 0 9.202 56.662 50.684 70.07l-.005 43.589c0 46.691-37.851 84.542-84.542 84.542h-36.419c-46.691 0-84.542-37.851-84.542-84.542z" fill="#ffe5c2"/><path d="m308.073 77.565c-4.102 6.518-9.587 12.499-16.045 17.977 6.246 17.807 19.566 43.609 45.816 52.093l-.005 43.589c0 46.691-37.851 84.542-84.542 84.542h20.913c46.691 0 84.542-37.851 84.542-84.542l.005-43.589c-41.482-13.407-50.684-70.07-50.684-70.07z" fill="#fed2a4"/><g fill="#ffc8dd"><ellipse cx="314.008" cy="205.32" rx="15.141" ry="8.553"/><ellipse cx="196.56" cy="205.32" rx="15.141" ry="8.553"/></g></g><g><path d="m124.37 425.727c-4.142 0-7.5 3.358-7.5 7.5v71.273c0 4.142 3.358 7.5 7.5 7.5s7.5-3.358 7.5-7.5v-71.273c0-4.142-3.358-7.5-7.5-7.5z"/><path d="m475.316 503.442-12.505-87.699c-3.681-25.813-22.108-47.617-46.947-55.547-1.025-.295-101.845-24.913-101.845-24.913-8.094-1.765-13.968-9.067-13.968-17.362v-38.353c29.965-8.779 53.638-32.421 62.463-62.367h12.257v105.109c0 4.142 3.358 7.5 7.5 7.5s7.5-3.358 7.5-7.5v-106.038c12.236-3.207 21.29-14.36 21.29-27.591v-20.03c0-13.231-9.055-24.385-21.29-27.591v-32.39c.291-60.334-49.967-108.829-108.67-108.67h-50.2c-59.921 0-108.67 48.749-108.67 108.67v32.389c-12.236 3.207-21.29 14.36-21.29 27.591v20.03c0 13.231 9.055 24.385 21.29 27.591v135.599c-.18.04-25.624 8.182-26.093 8.326-24.838 7.931-43.266 29.734-46.947 55.547l-12.505 87.699c-.585 4.101 2.266 7.899 6.366 8.483.359.051.715.076 1.068.076 3.673 0 6.882-2.701 7.416-6.442l12.504-87.699c2.875-20.157 17.264-37.183 36.66-43.375 13.729-4.951 37.59-11.344 51.952-13.939 19.439 31.582 52.17 52.422 88.628 56.882l-10.496 10.496c-2.929 2.929-2.929 7.678 0 10.606 2.929 2.929 7.678 2.929 10.606 0l14.61-14.61 14.61 14.61c1.464 1.464 3.384 2.197 5.303 2.197s3.839-.732 5.303-2.197c2.929-2.929 2.929-7.678 0-10.606l-10.496-10.496c36.459-4.46 69.189-25.3 88.628-56.882 13.346 2.324 39.411 9.346 51.952 13.939 19.396 6.193 33.785 23.219 36.66 43.375l12.505 87.699c.534 3.742 3.742 6.442 7.416 6.442.352 0 .709-.025 1.068-.076 4.101-.584 6.952-4.383 6.367-8.483zm-79.255-334.792v20.03c0 7.455-6.061 13.52-13.51 13.52h-16.956c.43-3.601.657-7.263.657-10.977v-36.093h16.298c7.45 0 13.511 6.065 13.511 13.52zm-21.29-59.98v31.46h-14.775c-33.7-11.785-43.39-57.792-44.422-63.235v-55.321c34.64 13.759 59.197 47.613 59.197 87.096zm-143.87-93.67h50.2c6.676 0 13.188.708 19.472 2.041v58.266c-31.225 45.79-139.318 63.49-147.87 64.823h-15.472v-31.46c0-51.65 42.02-93.67 93.67-93.67zm-32.922 320.283-6.114 1.337-54.635 11.942v-131.361h12.292c3.422 11.619 9.101 22.546 16.806 32.027 11.791 14.509 27.825 25.114 45.622 30.325v38.367c.215 6.821-5.441 15.581-13.971 17.363zm-82.038-146.602v-20.03c0-7.455 6.061-13.52 13.51-13.52h16.3v36.09c0 3.682.237 7.347.675 10.98h-16.975c-7.45 0-13.51-6.065-13.51-13.52zm227.763 168.447c-19.719 28.738-52.465 46.212-87.704 46.212s-67.984-17.475-87.704-46.212l32.882-7.19c14.933-3.256 25.772-16.722 25.772-32.018v-44.04c.056-3.297-2.306-6.731-5.881-7.443-16.842-3.722-32.148-13.193-43.1-26.669-11.104-13.664-17.219-30.905-17.219-48.547v-37.208c23.831-4.132 106.176-20.85 143.76-59.924 5.713 18.053 18.914 46.986 46.741 58.739v38.396c0 42.481-34.561 77.042-77.042 77.042h-19.692c-4.142 0-7.5 3.358-7.5 7.5s3.358 7.5 7.5 7.5h19.692c3.668 0 7.284-.222 10.84-.642v35.297c0 15.295 10.839 28.761 25.768 32.017z"/><path d="m256.001 207.431h6.891c4.142 0 7.5-3.358 7.5-7.5 0-3.937-3.033-7.166-6.891-7.476v-11.929c0-4.142-3.358-7.5-7.5-7.5s-7.5 3.358-7.5 7.5v19.404c0 4.143 3.358 7.501 7.5 7.501z"/><path d="m196.56 158.789c-4.142 0-7.5 3.358-7.5 7.5v13.242c0 4.142 3.358 7.5 7.5 7.5s7.5-3.358 7.5-7.5v-13.242c0-4.142-3.358-7.5-7.5-7.5z"/><path d="m315.442 187.031c4.142 0 7.5-3.358 7.5-7.5v-13.242c0-4.142-3.358-7.5-7.5-7.5s-7.5 3.358-7.5 7.5v13.242c0 4.142 3.357 7.5 7.5 7.5z"/><path d="m280.845 231.651c2.149-3.541 1.021-8.154-2.519-10.303-3.541-2.149-8.154-1.021-10.303 2.519-2.575 4.242-7.069 6.775-12.022 6.775s-9.447-2.533-12.022-6.775c-2.149-3.541-6.762-4.668-10.303-2.519s-4.668 6.762-2.519 10.303c5.318 8.76 14.606 13.991 24.845 13.991 10.237 0 19.526-5.231 24.843-13.991z"/><path d="m387.631 425.727c-4.142 0-7.5 3.358-7.5 7.5v71.273c0 4.142 3.358 7.5 7.5 7.5s7.5-3.358 7.5-7.5v-71.273c0-4.142-3.358-7.5-7.5-7.5z"/></g></g></svg>