<svg id="Capa_1" enable-background="new 0 0 512.001 512.001" height="512" viewBox="0 0 512.001 512.001" width="512" xmlns="http://www.w3.org/2000/svg"><g><g><path d="m221.03 408.758h-213.194v-77.968c0-35.135 31.475-61.905 66.154-56.267l31.293 3.217c6.059.985 12.238.985 18.297 0l31.296-3.217c34.679-5.639 66.154 21.132 66.154 56.267z" fill="#e9edf1"/><g><path d="m154.885 274.522c26.68 4.357 47.782 27.503 47.782 56.268v77.969h18.363v-77.969c0-35.131-31.47-61.9-66.145-56.268z" fill="#c8d2dc"/></g><path d="m114.43 417.771v35.51c0 11.53-3.72 21.81-10.7 28.45-5.15 4.92-12.08 7.86-20.6 7.86h-33.99c-20.05 0-41.3-16.26-41.3-36.31v-35.51c0-8.87 4.65-13.71 11.58-16.35 8.73-3.33 21.07-3.17 32.25-3.17h26.46c20.05 0 36.3-.53 36.3 19.52z" fill="#e9edf1"/><path d="m114.43 417.771v35.51c0 11.53-3.72 21.81-10.7 28.45h-23.24c-33.73 0-61.07-27.34-61.07-61.07v-19.24c8.73-3.33 21.07-3.17 32.25-3.17h26.46c20.05 0 36.3-.53 36.3 19.52z" fill="#c8d2dc"/><path d="m44.02 434.001h-21c-.74 0-1.46-.05-2.17-.15-7.36-1.05-13.01-7.38-13.01-15.03v-14.47c0-7.14 4.93-13.14 11.58-14.75 1.15-.28 2.36-.43 3.6-.43h17.18z" fill="#fed2a4"/><path d="m44.02 434.001h-21c-.74 0-1.46-.05-2.17-.15-.94-4.25-1.43-8.66-1.43-13.19v-31.06c1.15-.28 2.36-.43 3.6-.43h17.18z" fill="#ffbd86"/><path d="m205.847 434.003h-22.618l5.432-44.833h17.187c8.384 0 15.18 6.796 15.18 15.18v14.472c-.001 8.385-6.798 15.181-15.181 15.181z" fill="#fed2a4"/><path d="m205.847 389.171h-17.187l-.052.433c6.67 1.599 11.635 7.586 11.635 14.747v14.472c0 8.384-6.796 15.18-15.18 15.18h20.785c8.384 0 15.18-6.796 15.18-15.18v-14.472c-.001-8.384-6.798-15.18-15.181-15.18z" fill="#ffbd86"/><path d="m57.759 352.416c-10.729 5.143-17.556 15.987-17.555 27.885l.002 40.357c0 33.728 27.342 61.071 61.071 61.071h26.308c33.728 0 61.071-27.342 61.071-61.071l.002-40.357c.001-11.899-6.826-22.742-17.555-27.885l-56.672-27.167z" fill="#fed2a4"/><path d="m171.103 352.416-56.672-27.167-10.392 4.982 46.28 22.185c10.729 5.143 17.556 15.987 17.555 27.885l-.002 40.357c0 33.729-27.342 61.071-61.071 61.071h20.785c33.728 0 61.071-27.342 61.071-61.071l.002-40.357c0-11.898-6.826-22.742-17.556-27.885z" fill="#ffbd86"/><path d="m304.471 429.023h-14.885c-11.52 0-20.859-9.339-20.859-20.859v-7.792c0-11.52 9.339-20.859 20.859-20.859h14.885z" fill="#ffe5c2"/><path d="m289.586 379.512c-2.051 0-4.027.308-5.9.86v47.791c1.872.552 3.849.86 5.9.86h14.885v-49.511z" fill="#fed2a4"/><path d="m483.305 429.023h-14.885v-49.511h14.885c11.52 0 20.859 9.339 20.859 20.859v7.792c0 11.521-9.339 20.86-20.859 20.86z" fill="#ffe5c2"/><path d="m483.305 379.512h-14.885v.86c8.645 2.547 14.96 10.53 14.96 20v7.792c0 9.47-6.315 17.453-14.96 20v.86h14.885c11.52 0 20.859-9.339 20.859-20.859v-7.792c0-11.522-9.339-20.861-20.859-20.861z" fill="#fed2a4"/><path d="m468.42 440.105c0 22.988-18.636 41.623-41.625 41.623h-80.698c-22.989 0-41.625-18.635-41.625-41.623v-117.74c0-23.91 19.383-43.292 43.294-43.292h77.36c23.911 0 43.294 19.383 43.294 43.292z" fill="#ffe5c2"/><path d="m461.931 379.512h-16.163c-6.868 0-12.436-5.568-12.436-12.436v-42.346c0-7.68 6.226-13.906 13.906-13.906h.788c7.68 0 13.906 6.226 13.906 13.906v54.782z" fill="#fed2a4"/><path d="m425.126 279.073h-20.785c23.911 0 43.294 19.383 43.294 43.292v117.741c0 22.988-18.636 41.623-41.625 41.623h20.785c22.989 0 41.625-18.635 41.625-41.623v-117.741c0-23.91-19.384-43.292-43.294-43.292z" fill="#fed2a4"/><path d="m306.335 379.512h-16.163v-54.782c0-7.68 6.226-13.906 13.906-13.906h.788c7.68 0 13.906 6.226 13.906 13.906v42.346c-.001 6.868-5.569 12.436-12.437 12.436z" fill="#e9edf1"/><path d="m482.715 379.512h-16.163c-6.868 0-12.436-5.568-12.436-12.436v-42.346c0-7.68 6.226-13.906 13.906-13.906h.788c7.68 0 13.906 6.226 13.906 13.906v54.782z" fill="#c8d2dc"/><path d="m216.767 132.883h-183.377l.14-77.262c0-17.998 14.591-32.589 32.589-32.589h118.199c17.998 0 32.589 14.591 32.589 32.589z" fill="#5d5360"/><path d="m184.318 23.032h-20.785c17.998 0 32.589 14.591 32.589 32.589l-.14 77.262h20.785l.14-77.262c0-17.999-14.59-32.589-32.589-32.589z" fill="#4b3f4e"/><path d="m59.229 102.557-15.98 30.325v60.593c0 22.988 18.635 41.623 41.623 41.623h80.694c22.988 0 41.623-18.635 41.623-41.623v-60.593l-15.796-29.975c-4.635-8.797-14.771-13.178-24.355-10.528l-33.734 9.327c-3.531.976-7.255 1.019-10.807.124l-39.382-9.924c-9.466-2.386-19.335 2.015-23.886 10.651z" fill="#fed2a4"/><g><path d="m191.393 102.907c-4.635-8.797-14.771-13.178-24.355-10.528l-5.573 1.541c3.801 1.929 7.04 4.998 9.143 8.988l15.796 29.975v60.593c0 22.988-18.635 41.623-41.623 41.623h20.785c22.988 0 41.623-18.635 41.623-41.623v-60.593z" fill="#ffbd86"/></g><path d="m43.244 182.393h-14.885c-11.52 0-20.859-9.339-20.859-20.859v-7.792c0-11.52 9.339-20.859 20.859-20.859h14.885z" fill="#fed2a4"/><path d="m28.359 132.883c-2.051 0-4.027.308-5.9.86v47.791c1.872.552 3.849.86 5.9.86h14.885v-49.511z" fill="#ffbd86"/><path d="m222.078 182.393h-14.885v-49.511h14.885c11.52 0 20.859 9.339 20.859 20.859v7.792c0 11.521-9.339 20.86-20.859 20.86z" fill="#fed2a4"/><path d="m222.078 132.883h-14.885v.86c8.645 2.547 14.96 10.53 14.96 20v7.792c0 9.47-6.315 17.453-14.96 20v.86h14.885c11.52 0 20.859-9.339 20.859-20.859v-7.792c0-11.522-9.339-20.861-20.859-20.861z" fill="#ffbd86"/><path d="m493.596 230.002h-206.09v-131.539c0-42.001 34.049-76.05 76.05-76.05h53.989c42.001 0 76.05 34.049 76.05 76.05v131.539z" fill="#d19a6e"/><path d="m449.284 128.71v19.5c0 43.603-35.347 78.95-78.95 78.95-43.603 0-78.95-35.347-78.95-78.95v-19.5s87.908-11.453 112.518-56.278h20.785c.001 0-1.647 47.396 24.597 56.278z" fill="#c38c66"/><path d="m417.546 22.413h-20.785c42.001 0 76.05 34.049 76.05 76.05v131.539h20.785v-131.539c0-42.001-34.049-76.05-76.05-76.05z" fill="#c38c66"/><path d="m328.99 176.4h-27.41c-1.8 0-3.55-.2-5.23-.58-10.66-2.38-18.61-11.9-18.61-23.27 0-6.59 2.67-12.55 6.98-16.86 1.92-1.92 4.17-3.51 6.66-4.69 3.09-1.47 6.55-2.29 10.2-2.29h10.59z" fill="#ffe5c2"/><path d="m328.99 176.4h-27.41c-1.8 0-3.55-.2-5.23-.58-3.22-8.6-4.97-17.9-4.97-27.61v-17.21c3.09-1.47 6.55-2.29 10.2-2.29h10.59z" fill="#fed2a4"/><path d="m480.657 176.397h-28.312l17.728-47.687h10.584c13.168 0 23.843 10.675 23.843 23.843 0 13.169-10.675 23.844-23.843 23.844z" fill="#ffe5c2"/><path d="m480.657 128.71h-10.584l-.729 1.96c8.455 3.665 14.371 12.081 14.371 21.883 0 13.168-10.675 23.843-23.843 23.843h20.785c13.168 0 23.843-10.675 23.843-23.843 0-13.168-10.675-23.843-23.843-23.843z" fill="#fed2a4"/><path d="m470.069 128.71v19.5c0 43.603-35.347 78.95-78.95 78.95-43.603 0-78.95-35.347-78.95-78.95v-19.5s87.908-11.453 112.518-56.278c.001 0 11.973 44.971 45.382 56.278z" fill="#ffe5c2"/><path d="m424.688 72.432c-3.533 6.436-8.376 12.18-14.071 17.305 6.735 13.953 18.977 32.309 38.668 38.974v19.5c0 40.078-29.87 73.157-68.558 78.247 3.403.448 6.867.702 10.392.702 43.603 0 78.95-35.347 78.95-78.95v-19.5c-33.409-11.307-45.381-56.278-45.381-56.278z" fill="#fed2a4"/><g fill="#ffc8dd"><ellipse cx="431.892" cy="172.024" rx="12.481" ry="7.05"/><ellipse cx="349.349" cy="172.024" rx="12.481" ry="7.05"/></g><g fill="#ffe5c2"><ellipse cx="155.187" cy="423.82" rx="12.481" ry="7.05"/><ellipse cx="72.644" cy="423.82" rx="12.481" ry="7.05"/></g></g><g><path d="m205.816 281.653c-14.376-12.228-33.291-17.531-51.92-14.568l-31.083 3.194c-4.513.698-9.982 1.072-16.763 0l-31.081-3.194c-18.631-2.963-37.544 2.341-51.92 14.568-14.434 12.277-22.713 30.187-22.713 49.137l.004 122.491c0 25.074 25.764 43.81 48.8 43.81h33.99c10.097 0 14.884-3.601 20.187-7.862h24.269c30.545 0 56.479-20.079 65.322-47.728h12.943c12.505 0 22.68-10.174 22.68-22.68v-88.031c-.001-18.95-8.28-36.86-22.715-49.137zm-173.048 11.427c11.078-9.423 25.664-13.487 40.019-11.154 8.152.942 26.532 2.59 34.145 3.614v34.988l-52.414 25.125c-13.179 6.16-22.342 21.004-21.813 36.018-5.936.193-10.952-.733-17.368 1.343v-52.224c-.001-14.543 6.352-28.288 17.431-37.71zm-17.428 124.69v-13.42c0-4.234 3.445-7.68 7.68-7.68h9.685l.001 23.987c0 1.97.103 3.915.266 5.843h-9.952c-3.449.022-8.135-3.564-7.68-8.73zm0 35.511v-13.121c2.4.866 4.985 1.341 7.68 1.341h12.935c5.682 17.765 18.421 32.395 34.907 40.59h-21.722c-19.036-.001-33.8-15.487-33.8-28.81zm112.245 20.947h-26.308c-29.539 0-53.571-24.031-53.571-53.57l-.002-40.358c0-8.958 5.219-17.249 13.297-21.122l53.43-25.611 53.43 25.611c8.078 3.873 13.298 12.164 13.297 21.123l-.002 40.356c0 29.54-24.031 53.571-53.571 53.571zm85.945-55.407c0 4.234-3.445 7.68-7.68 7.68h-9.96c.164-1.928.266-3.873.266-5.843l.001-23.987h9.692c4.234 0 7.68 3.445 7.68 7.68v14.47zm0-35.809c-2.593-1.529-13.697-1.414-17.371-1.341.645-14.444-8.286-29.625-21.813-36.018l-52.414-25.125v-34.988c.633-.237 32.92-3.43 34.148-3.615 14.354-2.332 28.941 1.732 40.019 11.154s17.432 23.167 17.432 37.71v52.223z"/><path d="m114.431 417.78c4.142 0 7.5-3.357 7.5-7.5v-9.855c0-4.143-3.358-7.5-7.5-7.5s-7.5 3.357-7.5 7.5v9.855c0 4.142 3.358 7.5 7.5 7.5z"/><path d="m131.836 429.412c-3.54-2.149-8.153-1.021-10.303 2.52-1.521 2.507-4.177 4.003-7.102 4.003s-5.58-1.497-7.102-4.004c-2.15-3.54-6.764-4.668-10.303-2.519-3.541 2.149-4.668 6.763-2.519 10.304 4.265 7.024 11.713 11.219 19.924 11.219s15.66-4.194 19.924-11.22c2.15-3.542 1.022-8.154-2.519-10.303z"/><path d="m490.215 372.868v-48.138c0-10.596-7.747-19.394-17.869-21.088-7.593-19.127-26.283-32.071-47.226-32.071h-77.35c-7.881 0-15.438 1.759-22.461 5.227-3.714 1.834-5.238 6.331-3.404 10.046 1.833 3.714 6.332 5.238 10.045 3.403 4.939-2.439 10.262-3.676 15.819-3.676h77.35c13.701 0 26.035 7.858 32.015 19.762-6.285 3.734-10.518 10.572-10.518 18.397v42.346c0 9.036 6.047 16.676 14.304 19.113v53.911c0 18.819-15.311 34.131-34.13 34.131h-80.69c-18.814 0-34.12-15.312-34.12-34.131v-53.914c8.25-2.442 14.291-10.079 14.291-19.11v-42.346c0-11.803-9.603-21.405-21.406-21.405-11.386-.539-22.231 9.368-22.193 21.405v48.138c-12.306 3.095-21.445 14.25-21.445 27.503v7.792c0 15.638 12.722 28.359 28.359 28.359h7.394c-1.867 27.959 20.693 52.789 49.12 52.708h80.69c27.09 0 49.13-22.04 49.13-49.131v-3.577h7.385c15.637 0 28.359-12.722 28.359-28.359v-7.792c0-13.254-9.141-24.41-21.449-27.503zm-192.544-48.138c-.038-2.673 2.808-6.639 7.193-6.405 3.532 0 6.406 2.873 6.406 6.405v42.346c0 2.722-2.214 4.937-4.936 4.937h-8.664v-47.283zm-.7 96.793h-7.385c-7.366 0-13.359-5.993-13.359-13.359v-7.792c-.091-6.819 6.312-13.639 13.945-13.359h6.8v34.51zm178.244-49.511h-8.663c-2.722 0-4.936-2.215-4.936-4.937v-42.345c0-3.532 2.874-6.405 6.406-6.405 2.9-.252 6.744 1.889 7.193 6.405zm21.449 36.152c0 7.366-5.993 13.359-13.359 13.359h-7.385v-34.511h6.795c6.638-.383 13.943 5.609 13.949 13.359z"/><path d="m378.945 390.467v20.076c0 4.143 3.358 7.5 7.5 7.5s7.5-3.357 7.5-7.5v-20.076c0-4.143-3.358-7.5-7.5-7.5s-7.5 3.358-7.5 7.5z"/><path d="m357.161 439.477c6.269 10.325 17.216 16.49 29.285 16.49s23.016-6.165 29.285-16.49c2.149-3.541 1.022-8.154-2.519-10.304-3.541-2.148-8.153-1.021-10.303 2.519-3.526 5.808-9.68 9.275-16.462 9.275s-12.937-3.468-16.462-9.275c-2.149-3.54-6.762-4.668-10.303-2.519s-4.671 6.763-2.521 10.304z"/><path d="m413.477 313.504c0-4.143-3.358-7.5-7.5-7.5h-39.063c-4.142 0-7.5 3.357-7.5 7.5s3.358 7.5 7.5 7.5h39.063c4.142 0 7.5-3.357 7.5-7.5z"/><path d="m224.281 125.476.127-69.855c0-22.105-17.984-40.089-40.089-40.089h-118.2c-22.105 0-40.089 17.983-40.089 40.075l-.126 69.888c-14.491 1.25-25.904 13.437-25.904 28.247v7.792c0 15.638 12.722 28.359 28.359 28.359h7.389c-1.869 27.957 20.692 52.787 49.123 52.706 4.142 0 7.5-3.357 7.5-7.5s-3.358-7.5-7.5-7.5c-18.815 0-34.123-15.308-34.123-34.123v-58.738l15.115-28.684c2.948-5.594 9.286-8.422 15.419-6.877l39.381 9.924c4.802 1.211 9.864 1.153 14.639-.167l33.734-9.327c6.141-1.694 12.751 1.161 15.721 6.796l14.931 28.335v58.738c0 18.815-15.308 34.123-34.123 34.123h-45.535c-4.142 0-7.5 3.357-7.5 7.5s3.358 7.5 7.5 7.5h45.535c27.086 0 49.123-22.036 49.123-49.123v-3.583h7.389c15.637 0 28.359-12.722 28.359-28.359v-7.792c.002-14.896-11.545-27.137-26.155-28.266zm-188.536 49.417h-7.385c-7.367 0-13.36-5.993-13.36-13.359v-7.792c0-7.366 5.993-13.359 13.359-13.359h7.385v34.51zm162.283-75.482c-6.232-11.825-20.103-17.821-32.988-14.261l-33.733 9.326c-2.276.63-4.689.656-6.978.08l-39.382-9.924c-12.864-3.242-26.168 2.692-32.354 14.429l-11.682 22.168.119-65.609c0-13.834 11.255-25.089 25.089-25.089h118.199c13.834 0 25.089 11.255 25.089 25.075l-.118 65.173zm37.41 62.123c0 7.366-5.993 13.359-13.359 13.359h-7.385v-34.511h7.385c7.366 0 13.359 5.993 13.359 13.359z"/><path d="m132.719 163.914v-20.075c0-4.143-3.358-7.5-7.5-7.5s-7.5 3.357-7.5 7.5v20.075c0 4.143 3.358 7.5 7.5 7.5s7.5-3.358 7.5-7.5z"/><path d="m108.756 185.063c-2.149-3.542-6.763-4.669-10.303-2.52-3.541 2.149-4.669 6.762-2.52 10.303 6.269 10.327 17.216 16.492 29.285 16.492s23.016-6.165 29.285-16.492c2.149-3.541 1.021-8.153-2.52-10.303-3.542-2.148-8.153-1.021-10.303 2.52-3.526 5.808-9.68 9.275-16.462 9.275s-12.936-3.467-16.462-9.275z"/><path d="m280.01 175.261v54.737c0 4.143 3.358 7.5 7.5 7.5s7.5-3.357 7.5-7.5v-46.796c2.662.914 14.075.689 17.376.699 13.613 29.912 43.784 50.76 78.733 50.76s65.12-20.848 78.733-50.76c6.53-.171 9.298.448 16.248-.478v46.575c0 4.143 3.358 7.5 7.5 7.5s7.5-3.357 7.5-7.5v-53.696c5.919-4.983 10.988-14.296 10.9-23.753 0-9.476-4.233-17.976-10.9-23.727v-30.361c0-20.942-7.785-40.977-21.92-56.412-14.044-15.335-33.137-24.844-53.762-26.772-3.493-.317-7.635 2.289-8.23 7.469v47.678c-22.85 38.14-99.068 49.859-105.541 50.788-7.551.22-8.286-.599-16.636.694v-23.445c0-37.799 30.751-68.55 68.55-68.55h26.021c4.142 0 7.5-3.357 7.5-7.5s-3.358-7.5-7.5-7.5h-26.022c-46.07 0-83.55 37.48-83.55 83.55v31.363c-5.384 4.957-9.821 13.953-9.77 22.727 0 8.931 3.759 16.995 9.77 22.71zm195.05-6.36c1.635-6.632 2.509-13.561 2.509-20.69v-12c9.268-1.293 19.455 5.96 19.431 16.34.389 10.526-10.779 18.101-21.94 16.35zm-6.942-116.722c11.596 12.662 17.982 29.099 17.982 46.282v23.232c-1.243-.547-12.368-.513-14.731-.482-25.983-9.639-37.398-43.959-39.182-49.845v-39.872c13.744 2.99 26.288 10.155 35.931 20.685zm-45.61 36.205c6.222 14.338 18.66 35.783 40.061 45.425v14.401c0 39.397-32.052 71.45-71.45 71.45s-71.45-32.053-71.45-71.45v-13.078c19.202-3.308 75.104-15.339 102.839-46.748zm-117.839 47.827v12c0 7.13.874 14.058 2.509 20.69-10.735 1.586-21.736-4.757-21.938-16.351-.214-9.145 8.788-17.62 19.429-16.339z"/><path d="m390.551 163.37c4.142 0 7.5-3.357 7.5-7.5v-11.334c0-4.143-3.358-7.5-7.5-7.5s-7.5 3.357-7.5 7.5v11.334c0 4.142 3.358 7.5 7.5 7.5z"/><path d="m390.551 201.499c9.046 0 17.252-4.621 21.952-12.36 2.149-3.541 1.022-8.154-2.519-10.304-3.541-2.149-8.154-1.022-10.303 2.519-1.956 3.222-5.369 5.146-9.129 5.146-3.761 0-7.174-1.923-9.129-5.145-2.149-3.541-6.763-4.669-10.303-2.52-3.541 2.149-4.669 6.762-2.52 10.303 4.698 7.74 12.904 12.361 21.951 12.361z"/><circle cx="83.64" cy="147.744" r="7.5"/><circle cx="166.8" cy="147.744" r="7.5"/><circle cx="350.5" cy="151.729" r="7.5"/><circle cx="430.6" cy="151.729" r="7.5"/><circle cx="79.61" cy="402.701" r="7.5"/><circle cx="149.25" cy="402.701" r="7.5"/><circle cx="344.865" cy="394.978" r="7.5"/><circle cx="428.146" cy="394.978" r="7.5"/></g></g></svg>