<svg id="Capa_1" enable-background="new 0 0 511.998 511.998" height="512" viewBox="0 0 511.998 511.998" width="512" xmlns="http://www.w3.org/2000/svg"><g><g><path d="m368.689 376.567v127.93h-232.64v-127.93l42.69-5.78 34.37-5.4 12.31-1.94h53.9l12.3 1.94 34.38 5.4z" fill="#a6e7f0"/><path d="m325.999 370.787-34.38-5.4-12.3-1.94h-18.6l12.301 1.94 34.379 5.4 42.691 5.78v127.93h18.599v-127.93z" fill="#6bd9e7"/><path d="m136.047 376.564v127.933h-58.617l11.495-62.555 4.462-17.091c5.732-21.969 21.568-39.892 42.66-48.287z" fill="#ffe5c2"/><path d="m117.448 387.48v117.018h18.599v-127.934c-6.802 2.707-13.053 6.41-18.599 10.916z" fill="#fed2a4"/><path d="m427.307 504.497h-58.617v-127.933c21.092 8.394 36.928 26.318 42.66 48.286l4.462 17.091z" fill="#ffe5c2"/><path d="m415.812 441.942-4.462-17.091c-5.732-21.969-21.568-39.892-42.66-48.286v10.916c11.651 9.465 20.177 22.487 24.061 37.371l4.462 17.091 11.495 62.555h18.599z" fill="#fed2a4"/><path d="m136.047 376.564v84.231l-47.122-18.853 4.462-17.091c5.732-21.969 21.568-39.892 42.66-48.287z" fill="#a6e7f0"/><path d="m117.448 387.48v65.874l18.599 7.441v-84.231c-6.802 2.707-13.053 6.41-18.599 10.916z" fill="#6bd9e7"/><path d="m415.812 441.942-47.122 18.853v-84.231c21.092 8.394 36.928 26.318 42.66 48.286z" fill="#a6e7f0"/><path d="m411.35 424.851c-5.732-21.969-21.568-39.892-42.66-48.286v10.916c11.651 9.465 20.177 22.487 24.061 37.371l4.462 17.091-28.522 11.412v7.441l47.122-18.853z" fill="#6bd9e7"/><g><path d="m143.013 331.188c-8.071-8.071-8.071-21.157 0-29.229l26.656-26.656c8.071-8.071 21.157-8.071 29.229 0 8.071 8.071 8.071 21.157 0 29.229l-26.656 26.656c-8.072 8.071-21.158 8.071-29.229 0z" fill="#d19a6e"/><path d="m198.897 275.303c-6.472-6.472-16.164-7.741-23.914-3.833 1.915.965 3.716 2.234 5.315 3.833 8.071 8.071 8.071 21.157 0 29.229l-26.656 26.656c-1.599 1.599-3.4 2.868-5.315 3.833 7.75 3.908 17.442 2.639 23.914-3.833l26.656-26.656c8.072-8.072 8.072-21.158 0-29.229z" fill="#c38c66"/><path d="m361.725 331.188c8.071-8.071 8.071-21.157 0-29.229l-26.656-26.656c-8.071-8.071-21.157-8.071-29.229 0-8.071 8.071-8.071 21.157 0 29.229l26.656 26.656c8.071 8.071 21.157 8.071 29.229 0z" fill="#d19a6e"/><path d="m361.725 301.959-26.656-26.656c-6.472-6.472-16.164-7.741-23.914-3.833 1.915.965 3.716 2.234 5.315 3.833l26.656 26.656c8.071 8.071 8.071 21.157 0 29.229-1.599 1.599-3.4 2.868-5.315 3.833 7.75 3.908 17.442 2.639 23.914-3.833 8.071-8.072 8.071-21.158 0-29.229z" fill="#c38c66"/></g><path d="m357.88 243.047h-211.022v-80.904c0-28.713 23.277-51.99 51.99-51.99h107.042c28.713 0 51.99 23.277 51.99 51.99z" fill="#d19a6e"/><path d="m305.89 110.153h-18.599c28.713 0 51.99 23.277 51.99 51.99v80.904h18.599v-80.904c0-28.714-23.277-51.99-51.99-51.99z" fill="#c38c66"/><path d="m178.669 269.977h-29.14c-8.77 0-15.89-7.11-15.89-15.89v-18.15c0-8.78 7.12-15.89 15.89-15.89h20.16z" fill="#ffe5c2"/><path d="m178.669 269.977h-25.87c-1.11-4.88-1.7-9.96-1.7-15.18v-34.75h18.59z" fill="#fed2a4"/><path d="m355.203 269.981h-27.521l7.363-49.935h20.158c8.777 0 15.892 7.115 15.892 15.892v18.151c0 8.777-7.115 15.892-15.892 15.892z" fill="#ffe5c2"/><path d="m355.203 220.046h-18.599c8.777 0 15.892 7.115 15.892 15.892v18.151c0 8.777-7.115 15.892-15.892 15.892h18.599c8.777 0 15.892-7.115 15.892-15.892v-18.151c0-8.777-7.115-15.892-15.892-15.892z" fill="#fed2a4"/><path d="m221.176 317.365h62.385v47.779c0 6.365-3.869 12.158-9.824 14.405-13.763 5.191-28.974 5.191-42.737 0-5.955-2.246-9.824-8.04-9.824-14.405z" fill="#ffe5c2"/><path d="m264.962 317.365v47.779c0 6.365-3.869 12.158-9.824 14.405-3.927 1.481-7.973 2.525-12.069 3.161 10.258 1.593 20.832.549 30.668-3.161 5.955-2.246 9.824-8.04 9.824-14.405v-47.779z" fill="#fed2a4"/><path d="m325.042 198.71 10.003 21.337-.003 34.748c0 37.744-30.597 68.341-68.341 68.341h-28.665c-37.744 0-68.341-30.597-68.341-68.341v-34.748l10-21.337z" fill="#ffe5c2"/><path d="m325.042 198.71h-18.599l10.003 21.337-.003 34.748c0 37.744-30.597 68.341-68.341 68.341h18.599c37.744 0 68.341-30.597 68.341-68.341l.003-34.748z" fill="#fed2a4"/><path d="m312.319 111.087c0 6.91-2.8 13.16-7.33 17.69-4.52 4.52-10.79 7.33-17.69 7.33h-69.86c-18.86.47-31.43-21.56-21.64-37.58l2.26-3.89 22.43-38.66 26.27-45.26c2.5-4.29 8.69-4.29 11.19 0l26.28 45.26 22.45 38.66 2.26 3.89c2.21 3.81 3.37 8.16 3.38 12.56z" fill="#ffe270"/><path d="m308.939 98.527-2.26-3.89-22.45-38.66-26.28-45.26c-2.5-4.29-8.69-4.29-11.19 0l-3.704 6.381 22.575 38.879 22.45 38.66 2.26 3.89c2.21 3.81 3.37 8.16 3.38 12.56 0 6.91-2.8 13.16-7.33 17.69-4.52 4.52-10.79 7.33-17.69 7.33h18.599c6.9 0 13.17-2.81 17.69-7.33 4.53-4.53 7.33-10.78 7.33-17.69-.01-4.4-1.17-8.75-3.38-12.56z" fill="#ffd15b"/><g><path d="m213.109 365.387v99.07h-34.37v-93.67z" fill="#a2aee6"/></g><path d="m194.51 368.31v96.147h18.599v-99.07z" fill="#8795de"/><g><path d="m325.999 370.787v93.67h-34.38v-99.07z" fill="#a2aee6"/></g><path d="m291.619 365.387v2.922l15.78 2.478v93.67h18.6v-93.67z" fill="#8795de"/><path d="m165.739 442.067h173.26v62.43h-173.26z" fill="#cdbfba"/><path d="m320.399 442.067h18.599v62.43h-18.599z" fill="#b9acac"/><path d="m165.739 442.067h86.63l-2.43 6.723c-5.405 14.955-18.948 25.453-34.778 26.96-14.503 1.38-28.653-5.015-37.2-16.813z" fill="#fe5694"/><path d="m233.77 442.067-2.43 6.723c-4.781 13.227-15.932 22.955-29.397 26.072 4.268.994 8.726 1.316 13.218.888 15.83-1.507 29.373-12.005 34.778-26.96l2.43-6.723z" fill="#fd3581"/><path d="m338.999 442.067-11.474 16.435c-8.357 11.97-22.433 18.612-36.985 17.453l-.056-.004c-15.688-1.25-29.287-11.343-35.026-25.997l-3.089-7.887z" fill="#fe5694"/><path d="m320.399 442.067-11.474 16.435c-5.91 8.465-14.686 14.248-24.462 16.509 1.963.455 3.973.776 6.02.94l.055.004c14.552 1.159 28.628-5.483 36.985-17.453l11.474-16.435z" fill="#fd3581"/><path d="m306.679 94.637h-108.62l22.43-38.66h63.74z" fill="#a2aee6"/><path d="m284.229 55.977h-18.6l22.451 38.66h18.599z" fill="#8795de"/><g fill="#ffc8dd"><ellipse cx="297.236" cy="262.347" rx="15.141" ry="8.553"/><ellipse cx="207.501" cy="262.347" rx="15.141" ry="8.553"/></g></g><g><path d="m423.189 440.586c-.034-.181-.073-.361-.12-.539l-4.462-17.09c-6.24-23.891-24.891-45.774-48.976-53.83l-78.573-11.423v-31.104c6.268-2.132 12.173-5.051 17.587-8.659l18.551 18.55c5.488 5.488 12.698 8.232 19.913 8.232 7.212 0 14.428-2.745 19.923-8.232 5.319-5.32 8.249-12.394 8.249-19.918s-2.93-14.599-8.25-19.919l-19.182-19.176h7.35c12.902 0 23.399-10.493 23.399-23.39v-18.15c0-12.897-10.497-23.39-23.399-23.39h-15.389l-7.268-15.508v-33.909c0-4.142-3.357-7.5-7.5-7.5s-7.5 3.358-7.5 7.5v28.079h-26.48v-28.079c0-4.142-3.357-7.5-7.5-7.5s-7.5 3.358-7.5 7.5v28.079h-88.866v-28.079c0-4.142-3.357-7.5-7.5-7.5s-7.5 3.358-7.5 7.5v33.909l-7.268 15.508h-10.568v-50.4c0-19.933 13.237-37.128 31.779-42.634 3 12.733 17.459 24.947 31.388 24.094h69.772c13.832.157 27.468-9.643 31.406-24.063 18.486 5.54 31.674 22.708 31.674 42.603v26.32c0 4.142 3.357 7.5 7.5 7.5s7.5-3.358 7.5-7.5v-26.32c0-28.003-19.544-51.976-46.333-58.016-.72-3.286-1.93-6.454-3.623-9.373l-50.994-87.818c-2.533-4.346-7.047-6.941-12.076-6.941-5.027 0-9.542 2.595-12.081 6.953l-50.919 87.74c-1.791 2.949-3.029 6.147-3.736 9.457-26.75 6.067-46.258 30.02-46.258 57.998v52.732c-7.818 3.791-13.221 11.805-13.221 21.058v18.15c0 12.897 10.497 23.39 23.4 23.39h7.35l-19.183 19.176c-5.32 5.32-8.25 12.394-8.25 19.918s2.93 14.599 8.253 19.922c5.494 5.487 12.706 8.229 19.919 8.229s14.427-2.745 19.915-8.233l18.549-18.55c5.414 3.608 11.319 6.526 17.586 8.658v31.104l-78.575 11.423c-23.553 7.912-42.647 29.405-48.973 53.829l-4.462 17.091c-.198.742-11.466 62.4-11.615 63.095-.748 4.074 1.947 7.983 6.021 8.732 3.171.593 7.405-1.301 8.732-6.021l9.839-53.544 33.901 13.564v38.625c0 4.142 3.357 7.5 7.5 7.5h.001s.001 0 .001 0c4.143 0 7.5-3.358 7.5-7.5v-121.376l27.69-3.749v55.196h-5.5c-3.341-.016-7.587 2.802-7.5 7.5v62.43c0 4.142 3.357 7.5 7.5 7.5s7.5-3.358 7.5-7.5v-39.407c9.914 12.338 26.168 19.717 42.632 18.126 15.151-1.442 28.659-9.995 36.593-22.608 8.42 13.521 24.422 23.041 41.302 22.975 14.578 0 28.515-6.63 37.733-17.933v38.847c0 4.142 3.357 7.5 7.5 7.5s7.5-3.358 7.5-7.5v-62.43c.02-3.454-3.121-7.733-7.5-7.5h-5.5v-55.196l27.689 3.749v121.377c0 4.142 3.357 7.5 7.5 7.5h.001s.001 0 .001 0c4.143 0 7.5-3.358 7.5-7.5v-38.625l33.902-13.564 9.838 53.544c.516 2.838 4.154 6.85 8.732 6.021 4.074-.749 6.77-4.658 6.021-8.732zm-123.503-317.112c-3.312 3.311-7.71 5.134-12.388 5.134h-69.859c-14.522.183-23.004-17.545-12.894-30.207l20.265-34.923h55.1l13.739 23.66h-58.868c-4.143 0-7.5 3.358-7.5 7.5s3.357 7.5 7.5 7.5h67.581c3.536 5.697 3.355 15.419-2.676 21.336zm-47.332-107.456 18.849 32.46h-37.687zm-154.501 421.418 2.791-10.692c4.13-15.826 14.247-29.415 27.902-37.993v60.966zm162.016-2.869v-15.887c0-4.142-3.357-7.5-7.5-7.5s-7.5 3.358-7.5 7.5v15.888h-24.26v-52.978c2.183 2.14 4.795 3.861 7.743 4.976 7.743 2.92 15.877 4.381 24.015 4.381s16.278-1.461 24.025-4.383c2.94-1.112 5.547-2.828 7.727-4.963v52.968h-24.25zm-73.63-57.366 19.37-3.043v15.735c0 5.34-4.345 9.685-9.686 9.685-5.34 0-9.685-4.344-9.685-9.685v-12.692zm112.88-3.044 19.38 3.044v12.686c0 5.343-4.347 9.69-9.69 9.69s-9.689-4.347-9.689-9.69v-15.73zm-121.924-119.363v-33.078l7.268-15.507h135.812l7.268 15.507v33.078c0 33.548-27.293 60.841-60.841 60.841h-28.665c-33.549 0-60.842-27.293-60.842-60.841zm183.086 61.778c0 3.518-1.369 6.825-3.853 9.309-5.14 5.133-13.496 5.135-18.626.003l-17.494-17.493c6.313-6.315 11.504-13.745 15.288-21.951l20.828 20.821c2.488 2.487 3.857 5.793 3.857 9.311zm3.317-80.634v18.15c0 4.626-3.768 8.39-8.399 8.39h-13.045c.255-2.527.388-5.09.388-7.683v-27.247h12.657c4.632-.001 8.399 3.763 8.399 8.39zm-222.46 18.149v-18.15c0-4.626 3.769-8.39 8.4-8.39h12.656v27.247c0 2.593.132 5.156.388 7.683h-13.044c-4.631.001-8.4-3.763-8.4-8.39zm25.798 71.797c-5.132 5.13-13.488 5.131-18.624 0-2.487-2.487-3.856-5.794-3.856-9.312s1.369-6.825 3.855-9.311l20.829-20.821c3.784 8.206 8.975 15.636 15.288 21.95zm71.1 4.751h28.665c3.17 0 6.288-.218 9.357-.598v35.11c0 3.292-1.998 6.26-4.966 7.382-12.076 4.554-25.375 4.554-37.441.002-2.975-1.125-4.973-4.092-4.973-7.385v-35.11c3.07.381 6.188.599 9.358.599zm-51.797 81.961c2.975 1.274 6.249 1.982 9.685 1.982s6.71-.708 9.686-1.982v21.972h-19.37v-21.972zm28.21 55.688c-13.454 1.663-27.061-6.885-34.016-18.716h61.04c-5.093 10.395-15.354 17.605-27.024 18.716zm106.926-14.075c-6.804 9.746-18.401 15.208-30.296 14.266-11.881-.947-22.461-8.271-27.611-18.907h61.147zm-22.256-19.642v-21.973c2.977 1.275 6.251 1.983 9.689 1.983s6.713-.708 9.69-1.984v21.974zm77.071 15.15v-60.966c13.656 8.578 23.773 22.167 27.903 37.994l2.791 10.691z"/><path d="m252.369 261.541h5.211c4.143 0 7.5-3.358 7.5-7.5 0-3.344-2.188-6.176-5.211-7.144v-7.531c0-4.142-3.357-7.5-7.5-7.5s-7.5 3.358-7.5 7.5v14.675c0 4.142 3.357 7.5 7.5 7.5z"/><path d="m207.417 226.393c-4.143 0-7.5 3.358-7.5 7.5v10.014c0 4.142 3.357 7.5 7.5 7.5s7.5-3.358 7.5-7.5v-10.014c0-4.142-3.358-7.5-7.5-7.5z"/><path d="m297.321 251.407c4.143 0 7.5-3.358 7.5-7.5v-10.014c0-4.142-3.357-7.5-7.5-7.5s-7.5 3.358-7.5 7.5v10.014c0 4.142 3.357 7.5 7.5 7.5z"/><path d="m272.72 284.271c2.149-3.541 1.021-8.154-2.52-10.303-3.54-2.148-8.153-1.021-10.303 2.519-1.613 2.658-4.428 4.244-7.529 4.244s-5.916-1.586-7.529-4.244c-2.149-3.542-6.763-4.667-10.303-2.519-3.541 2.149-4.669 6.762-2.52 10.303 4.356 7.176 11.964 11.46 20.352 11.46s15.996-4.284 20.352-11.46z"/><path d="m74.347 138.136c1.919 0 3.839-.732 5.304-2.197l19.098-19.098c4.538-4.538 7.037-10.572 7.037-16.99v-5.928c0-2.412.939-4.679 2.645-6.384l21.059-21.058c2.929-2.929 2.929-7.678 0-10.606-2.929-2.929-7.677-2.929-10.607 0l-21.06 21.058c-4.538 4.538-7.037 10.572-7.037 16.99v5.928c0 2.412-.939 4.679-2.645 6.384l-19.098 19.098c-2.929 2.929-2.929 7.678 0 10.606 1.466 1.465 3.385 2.197 5.304 2.197z"/><path d="m440.922 277.333-21.058 21.058c-4.538 4.538-7.037 10.572-7.037 16.991v5.928c0 2.412-.939 4.679-2.645 6.384l-19.097 19.097c-2.93 2.929-2.93 7.678-.001 10.606 1.465 1.465 3.384 2.197 5.304 2.197 1.919 0 3.839-.732 5.304-2.197l19.098-19.097c4.538-4.538 7.037-10.572 7.037-16.991v-5.928c0-2.412.939-4.679 2.645-6.384l21.058-21.058c2.929-2.929 2.929-7.678 0-10.606-2.931-2.929-7.679-2.929-10.608 0z"/><path d="m415.486 102.304c1.919 0 3.839-.732 5.304-2.197 4.538-4.538 7.037-10.572 7.037-16.991v-5.928c0-2.412.939-4.679 2.645-6.384 2.929-2.929 2.929-7.678 0-10.606-2.93-2.929-7.678-2.929-10.607 0-4.538 4.538-7.037 10.572-7.037 16.991v5.928c0 2.412-.939 4.679-2.645 6.384-2.929 2.929-2.929 7.678 0 10.606 1.464 1.464 3.384 2.197 5.303 2.197z"/><path d="m81.847 347.83v-3.582h3.582c4.143 0 7.5-3.358 7.5-7.5s-3.357-7.5-7.5-7.5h-3.582v-3.582c0-4.142-3.357-7.5-7.5-7.5s-7.5 3.358-7.5 7.5v3.582h-3.582c-4.143 0-7.5 3.358-7.5 7.5s3.357 7.5 7.5 7.5h3.582v3.582c0 4.142 3.357 7.5 7.5 7.5s7.5-3.358 7.5-7.5z"/><path d="m448.732 173.42h-3.582v-3.582c0-4.142-3.357-7.5-7.5-7.5s-7.5 3.358-7.5 7.5v3.582h-3.582c-4.143 0-7.5 3.358-7.5 7.5s3.357 7.5 7.5 7.5h3.582v3.582c0 4.142 3.357 7.5 7.5 7.5s7.5-3.358 7.5-7.5v-3.582h3.582c4.143 0 7.5-3.358 7.5-7.5s-3.357-7.5-7.5-7.5z"/><circle cx="74.348" cy="233.892" r="7.5"/></g></g></svg>