<svg id="Capa_1" enable-background="new 0 0 512 512" height="512" viewBox="0 0 512 512" width="512" xmlns="http://www.w3.org/2000/svg"><g><g><g><path d="m411.096 13.753h-220.733c-5.136 0-9.3 4.164-9.3 9.3v159.434c0 43.07 21.218 83.376 56.725 107.755h125.883c35.507-24.379 56.725-64.684 56.725-107.755v-159.433c.001-5.137-4.163-9.301-9.3-9.301z" fill="#a2aee6"/><path d="m411.096 13.753h-21.818c5.136 0 9.3 4.164 9.3 9.3v159.434c0 43.071-21.218 83.376-56.725 107.755h21.818c35.507-24.379 56.725-64.684 56.725-107.755v-159.433c0-5.137-4.163-9.301-9.3-9.301z" fill="#8795de"/><path d="m458.763 49.871h-38.366v32.277h38.366c7.422 0 13.46 6.038 13.46 13.46v67.625c0 5.151-3.002 9.916-7.648 12.141-.137.065-.273.133-.409.202l-44.764 23.009c-1.876 15.129-6.383 29.682-13.177 43.065l72.515-37.274c15.656-7.604 25.759-23.725 25.759-41.142v-67.626c.001-25.219-20.516-45.737-45.736-45.737z" fill="#a2aee6"/><path d="m458.763 49.871h-21.818c25.219 0 45.737 20.517 45.737 45.737v67.625c0 17.418-10.104 33.539-25.76 41.142l-44.435 22.84c-1.801 4.936-3.889 9.758-6.262 14.434l72.515-37.274c15.656-7.604 25.76-23.725 25.76-41.142v-67.625c0-25.219-20.517-45.737-45.737-45.737z" fill="#8795de"/></g><g><path d="m237.534 221.753h-220.734c-5.136 0-9.3 4.164-9.3 9.3v159.434c0 43.07 21.218 83.376 56.725 107.755h125.883c35.507-24.379 56.725-64.684 56.725-107.755v-159.434c.001-5.136-4.163-9.3-9.299-9.3z" fill="#fe5694"/><path d="m237.533 221.753h-21.818c5.136 0 9.3 4.164 9.3 9.3v159.435c0 43.07-21.218 83.376-56.725 107.755h21.818c35.507-24.379 56.725-64.685 56.725-107.755v-159.435c.001-5.136-4.163-9.3-9.3-9.3z" fill="#fd3581"/><path d="m285.201 257.871h-38.366v32.277h38.366c7.422 0 13.46 6.038 13.46 13.46v67.625c0 5.151-3.002 9.916-7.649 12.141-.137.065-.273.133-.409.202l-44.764 23.009c-1.876 15.129-6.383 29.682-13.177 43.065l72.515-37.274c15.656-7.604 25.76-23.725 25.76-41.142v-67.625c0-25.221-20.517-45.738-45.736-45.738z" fill="#fe5694"/><path d="m285.201 257.871h-21.819c25.219 0 45.737 20.517 45.737 45.737v67.625c0 17.417-10.104 33.538-25.759 41.142l-44.435 22.84c-1.801 4.937-3.889 9.758-6.262 14.434l72.515-37.274c15.656-7.604 25.76-23.725 25.76-41.142v-67.625c-.001-25.22-20.518-45.737-45.737-45.737z" fill="#fd3581"/></g></g><g><path d="m458.764 42.371h-30.864v-19.313c0-9.264-7.537-16.8-16.801-16.8h-220.739c-9.264 0-16.801 7.536-16.801 16.8v159.431c0 10.726 1.247 21.37 3.701 31.765h-99.871c-4.143 0-7.5 3.357-7.5 7.5s3.357 7.5 7.5 7.5h160.145c.993 0 1.801.808 1.801 1.801v159.434c.392 37.833-19.156 77.57-51.59 100.255h-121.155c-32.349-23.105-51.59-60.408-51.59-100.257v-159.433c0-.993.808-1.801 1.8-1.801h25.193c4.143 0 7.5-3.357 7.5-7.5s-3.357-7.5-7.5-7.5h-25.193c-9.264 0-16.8 7.537-16.8 16.801v159.434c0 45.559 22.423 88.152 59.98 113.938 1.25.858 2.729 1.317 4.245 1.317h125.883c20.604-8.961 37.25-31.373 48.132-50.528l70.294-36.132c18.168-8.863 29.903-27.635 29.903-47.85v-67.625c0-29.354-23.882-53.236-53.237-53.236h-30.866v-19.317c0-9.264-7.537-16.801-16.801-16.801h-44.803c-2.761-10.353-4.17-21.012-4.17-31.765v-159.431c0-.992.808-1.8 1.801-1.8h220.739c.993 0 1.801.808 1.801 1.8v159.431c.552 38.109-19.974 78.833-52.752 101.066-3.398 2.367-4.234 7.042-1.867 10.44 1.458 2.093 3.79 3.214 6.161 3.214 1.479 0 2.975-.438 4.28-1.348 17.945-12.501 32.83-29.318 43.075-48.644l70.299-36.134c18.168-8.862 29.903-27.635 29.903-47.851v-67.624c0-29.355-23.882-53.237-53.236-53.237zm-204.43 348.116v-92.749h31.867c2.812.478 4.96 2.925 4.96 5.869v67.625c.045 1.427-1.147 4.258-3.986 5.672l-32.892 16.906c.026-1.106.051-2.213.051-3.323zm30.866-125.116c21.084 0 38.237 17.152 38.237 38.236v67.625c0 14.54-8.454 28.041-21.537 34.396-.051.024-.101.05-.151.076l-54.322 27.922c.289-2.041 1.616-1.781 5.307-22.154l41.282-21.219.234-.116c7.236-3.464 11.911-10.885 11.911-18.905v-67.625c0-10.52-7.799-19.229-17.914-20.713-1.303-.187-.493-.121-3.047-.247h-30.866v-17.276zm142.7-175.724h30.863c3.286 0 5.96 2.674 5.96 5.961v67.624c.045 1.428-1.148 4.258-3.986 5.673l-32.888 16.905c.027-1.107.051-2.214.051-3.322zm69.1 73.585c0 14.541-8.453 28.042-21.536 34.396-.051.024-.102.05-.152.076l-54.322 27.922c2.375-7.215 4.148-14.615 5.305-22.152l41.284-21.221.235-.116c7.235-3.464 11.91-10.885 11.91-18.905v-67.624c0-11.558-9.402-20.961-20.96-20.961h-30.864v-17.276h30.863c21.084 0 38.236 17.153 38.236 38.237v67.624z"/><path d="m308.247 90.559c-1.316-3.203-4.404-5.273-7.868-5.273-.001 0-.002 0-.002 0-3.465.001-6.554 2.073-7.869 5.279-.024.059-.048.118-.07.178l-16.69 43.823c-1.475 3.87.469 8.203 4.34 9.678 3.866 1.476 8.203-.468 9.678-4.34l10.586-27.795 10.482 27.774c1.133 3.003 3.987 4.854 7.018 4.854.88 0 1.775-.156 2.647-.485 3.875-1.462 5.831-5.789 4.368-9.665l-16.539-43.824c-.026-.069-.053-.137-.081-.204z"/><path d="m222.533 135.876c-.106 2.832 2.162 8.116 7.616 8.201.37-.001 9.096-.035 12.589-.097 14.155-.247 24.43-12.431 24.43-28.971 0-17.114-10.247-29.066-24.918-29.066h-12.217c-1.991 0-3.901.792-5.309 2.202-1.406 1.409-2.195 3.32-2.191 5.312v.03.001zm19.717-34.933c9.203 0 9.918 10.767 9.918 14.066 0 6.871-2.997 13.856-9.693 13.973-1.168.021-2.989.038-4.879.053-.015-4.858-.041-23.021-.049-28.092z"/><path d="m381.917 115.01c0-17.114-10.247-29.066-24.919-29.066h-12.217c-1.991 0-3.901.792-5.309 2.202-1.406 1.409-2.195 3.32-2.191 5.312v.03.001 42.389c-.106 2.832 2.162 8.116 7.616 8.201.37-.001 9.096-.035 12.589-.097 14.157-.249 24.431-12.432 24.431-28.972zm-29.573 14.025c-.015-4.858-.041-23.021-.049-28.092h4.703c9.204 0 9.919 10.767 9.919 14.066 0 6.871-2.997 13.856-9.694 13.973-1.168.021-2.99.039-4.879.053z"/><path d="m155.68 323.01c0-15.69-12.766-28.456-28.456-28.456s-28.456 12.766-28.456 28.456 12.766 28.456 28.456 28.456 28.456-12.766 28.456-28.456zm-41.912 0c0-7.42 6.036-13.456 13.456-13.456s13.456 6.036 13.456 13.456-6.036 13.456-13.456 13.456-13.456-6.036-13.456-13.456z"/><path d="m45.392 294.574c-3.826.255-7.006 3.062-7.75 6.918l-7.366 40.814c-.735 4.076 1.973 7.978 6.049 8.713 4.071.735 7.978-1.972 8.713-6.049l2.453-13.595 4.15 14.066c.025.088.054.175.082.262 1.157 3.45 4.371 5.762 8.007 5.762h.04c3.652-.018 6.865-2.362 7.995-5.837.028-.087.055-.174.08-.263l4.003-14.042 2.623 13.723c.777 4.069 4.712 6.742 8.774 5.958 4.068-.777 6.736-4.706 5.958-8.774l-7.82-40.917c-.766-3.756-3.973-6.53-7.8-6.746-3.812-.235-7.325 2.179-8.51 5.823-.028.087-.055.174-.08.262l-5.37 18.839-5.58-18.912c-.026-.089-.054-.176-.083-.263-1.22-3.634-4.738-5.991-8.568-5.742z"/><path d="m180.955 344.971 2.453-13.595 4.15 14.066c.026.09.055.18.085.269 1.159 3.447 4.372 5.755 8.005 5.755.016 0 .032 0 .048-.001 3.652-.02 6.863-2.368 7.988-5.843.027-.085.054-.17.078-.255l4.003-14.043 2.622 13.723c.778 4.067 4.707 6.737 8.775 5.959s6.736-4.706 5.959-8.775l-7.82-40.917c-.766-3.758-3.976-6.532-7.804-6.746-3.82-.234-7.327 2.182-8.508 5.83-.027.084-.054.169-.078.254l-5.37 18.84-5.58-18.912c-.026-.091-.055-.181-.085-.27-1.223-3.635-4.731-5.979-8.575-5.734-3.825.259-7.003 3.069-7.741 6.917l-7.367 40.814c-.735 4.076 1.973 7.977 6.049 8.713 4.071.735 7.978-1.972 8.713-6.049z"/></g></g></svg>