<svg id="Capa_1" enable-background="new 0 0 512 512" height="512" viewBox="0 0 512 512" width="512" xmlns="http://www.w3.org/2000/svg"><g><g><path d="m254.499 275.927h-197.264v-180.94c0-42.001 34.049-76.05 76.05-76.05h45.164c42.001 0 76.05 34.049 76.05 76.05z" fill="#d19a6e"/><path d="m178.448 18.937h-19.82c42.001 0 76.05 34.049 76.05 76.05v180.94h19.82v-180.94c.001-42.002-34.048-76.05-76.05-76.05z" fill="#c38c66"/><path d="m57.235 260.171c-29.865 10.893-49.735 39.291-49.735 71.079v35.891h49.735z" fill="#fe5694"/><path d="m37.415 367.141h19.82v-106.97c-7.244 2.642-13.893 6.321-19.82 10.822z" fill="#fd3581"/><path d="m7.5 367.141h49.735v125.918h-49.735z" fill="#ffe5c2"/><path d="m37.415 367.141h19.82v125.918h-19.82z" fill="#fed2a4"/><path d="m254.499 260.171c29.864 10.892 49.735 39.291 49.735 71.079v35.891h-49.735z" fill="#fd3581"/><path d="m196.508 247.723 26.838 5.765 31.149 6.686v232.887h-197.266v-232.887l31.204-6.598 27.834-5.886z" fill="#fe5694"/><path d="m235.013 325.744-18.861 6.022c-16.182 5.167-27.984 19.132-30.382 35.948l-9.089 125.344h58.332z" fill="#fd3581"/><path d="m223.346 253.488-26.838-5.765-80.241-.033-.038.008 60.459.025 26.839 5.765 31.149 6.686v232.887h19.819v-232.887z" fill="#fd3581"/><path d="m223.346 253.488c-14.442 21.915-39.278 36.379-67.484 36.379-28.173 0-52.976-14.42-67.429-36.291l27.834-5.886c7.724-1.641 13.261-8.457 13.261-16.368v-36.227h53.764v36.271c0 7.888 5.503 14.705 13.217 16.357z" fill="#ffe5c2"/><path d="m96.95 166.329h-26.24c-.94 0-1.86-.06-2.77-.17-11.3-1.36-20.06-10.99-20.06-22.65 0-6.31 2.56-12.01 6.69-16.14 2.37-2.37 5.25-4.22 8.47-5.36 2.39-.86 4.98-1.33 7.67-1.33h10.13z" fill="#ffe5c2"/><path d="m96.95 166.329h-26.24c-.94 0-1.86-.06-2.77-.17-3.17-8.33-4.9-17.37-4.9-26.81v-17.34c2.39-.86 4.98-1.33 7.67-1.33h10.13z" fill="#fed2a4"/><path d="m196.508 247.723c-7.713-1.652-13.217-8.468-13.217-16.357v-36.271h-19.82v36.271c0 7.888 5.503 14.705 13.217 16.357l26.838 5.766c-12.724 19.308-33.519 32.826-57.576 35.77 3.249.398 6.556.608 9.912.608 28.206 0 53.042-14.464 67.484-36.379z" fill="#fed2a4"/><path d="m231.979 120.682v18.665c0 41.736-33.833 75.569-75.569 75.569-41.736 0-75.569-33.833-75.569-75.569v-18.665s84.143-10.963 107.7-53.868c0 0 11.46 43.045 43.438 53.868z" fill="#ffe5c2"/><path d="m188.541 66.814c-3.371 6.14-7.987 11.624-13.416 16.517 6.442 13.361 18.166 30.965 37.035 37.351v18.665c0 38.374-28.61 70.045-65.659 74.901 3.245.425 6.548.668 9.91.668 41.736 0 75.569-33.833 75.569-75.569v-18.665c-31.979-10.823-43.439-53.868-43.439-53.868z" fill="#fed2a4"/><path d="m254.832 325.744-18.861 6.022c-16.182 5.167-27.984 19.132-30.382 35.948l-9.089 125.344h58.332z" fill="#a2aee6"/><path d="m235.971 331.767c-.325.104-.637.233-.959.344v160.948h19.82v-167.315z" fill="#8795de"/><path d="m457.75 212.23h-214.497v-78.445c0-35.349 31.667-62.284 66.558-56.611l31.484 3.236c6.096.991 12.313.991 18.409 0l31.487-3.236c34.891-5.673 66.558 21.261 66.558 56.611v78.445z" fill="#e9edf1"/><g><path d="m391.191 77.175-.779.08c26.582 4.611 47.518 27.789 47.518 56.531v78.445h19.82v-78.445c0-35.35-31.667-62.284-66.559-56.611z" fill="#c8d2dc"/></g><path d="m350.5 221.299v45.5c0 3.11-.38 6.12-1.12 9.01-.9 3.56-2.33 6.92-4.2 9.98-6.41 10.52-17.99 17.54-31.21 17.54h-34.19c-20.17 0-36.53-16.36-36.53-36.53v-45.5c0-10.2 6.12-15.1 14.77-17.47 8.47-2.3 19.36-2.17 29.34-2.17h26.61c20.18 0 36.53-.54 36.53 19.64z" fill="#e9edf1"/><path d="m350.5 221.299v45.5c0 6.95-1.94 13.46-5.32 18.99h-25.71c-33.94 0-61.45-27.51-61.45-61.44v-20.52c8.47-2.3 19.36-2.17 29.34-2.17h26.61c20.18 0 36.53-.54 36.53 19.64z" fill="#c8d2dc"/><path d="m349.38 275.809c-.9 3.56-2.33 6.92-4.2 9.98-6.41 10.52-17.99 17.54-31.21 17.54h-24.34c-.01-.11-.01-.22-.01-.33v-13.22c0-7.72 6.25-13.97 13.96-13.97z" fill="#c8d2dc"/><path d="m279.66 237.629h-21.13c-8.44 0-15.28-6.84-15.28-15.27v-14.56c0-8.27 6.57-15 14.77-15.27.17-.01.34-.01.51-.01h17.29z" fill="#fed2a4"/><path d="m446.168 325.744 18.861 6.022c16.182 5.167 27.984 19.132 30.382 35.948l9.089 125.344h-58.332z" fill="#a2aee6"/><path d="m495.411 367.715c-2.398-16.817-14.2-30.781-30.382-35.948l-18.861-6.022v6.367c15.682 5.407 27.073 19.125 29.423 35.604l9.089 125.344h19.82z" fill="#8795de"/><path d="m442.474 237.629h-22.757l5.465-45.107h17.292c8.435 0 15.273 6.838 15.273 15.273v14.561c0 8.435-6.838 15.273-15.273 15.273z" fill="#fed2a4"/><path d="m442.474 192.523h-17.292l-.003.025c8.2.268 14.769 6.983 14.769 15.247v14.561c0 8.435-6.838 15.273-15.273 15.273h17.799c8.435 0 15.273-6.838 15.273-15.273v-14.561c0-8.434-6.838-15.272-15.273-15.272z" fill="#ffbd86"/><path d="m446.167 325.742v167.317h-191.334v-167.317l23.25-5.08 31.412-6.868c8.431-1.839 14.441-9.31 14.441-17.944v-45.003h53.128v45.003c0 8.634 6.011 16.106 14.441 17.944l31.412 6.868z" fill="#a2aee6"/><path d="m279.66 237.629h-20.17c-.96-4.32-1.47-8.82-1.47-13.43v-31.67c.17-.01.34-.01.51-.01h17.29z" fill="#ffbd86"/><path d="m422.917 320.662-31.412-6.868c-8.431-1.839-14.441-9.31-14.441-17.944v-45.003h-19.82v45.003c0 8.634 6.01 16.106 14.441 17.944l31.412 6.868 23.25 5.08v167.317h19.82v-167.317z" fill="#8795de"/><path d="m293.482 155.543c-10.795 5.175-17.663 16.084-17.663 28.056l.002 40.603c0 33.935 27.509 61.444 61.444 61.444h26.469c33.935 0 61.444-27.509 61.444-61.444l.002-40.603c.001-11.971-6.868-22.881-17.663-28.056l-57.017-27.332z" fill="#fed2a4"/><path d="m407.519 155.543-57.019-27.332-9.91 4.75 47.108 22.582c10.795 5.175 17.663 16.084 17.663 28.056l-.002 40.603c0 33.935-27.509 61.444-61.444 61.444h19.82c33.935 0 61.444-27.509 61.444-61.444l.002-40.603c.001-11.971-6.867-22.881-17.662-28.056z" fill="#ffbd86"/><path d="m379.619 316.818h-58.238c-7.712 0-13.965-6.252-13.965-13.965v-13.221c0-7.712 6.252-13.965 13.965-13.965h58.238c7.712 0 13.965 6.252 13.965 13.965v13.221c0 7.713-6.252 13.965-13.965 13.965z" fill="#a2aee6"/><path d="m379.619 275.668h-19.819c7.712 0 13.965 6.252 13.965 13.965v13.221c0 7.712-6.252 13.965-13.965 13.965h19.82c7.712 0 13.965-6.252 13.965-13.965v-13.221c-.001-7.713-6.253-13.965-13.966-13.965z" fill="#8795de"/><path d="m316.231 393.131h-5.134c-8.483 0-15.361-6.877-15.361-15.361v-17.325h35.855v17.325c.001 8.484-6.876 15.361-15.36 15.361z" fill="#a6e7f0"/><path d="m390.623 393.131h-5.134c-8.483 0-15.361-6.877-15.361-15.361v-17.325h35.855v17.325c.001 8.484-6.877 15.361-15.36 15.361z" fill="#a6e7f0"/><g fill="#ffc8dd"><ellipse cx="194.681" cy="159.329" rx="12.481" ry="7.05"/><ellipse cx="119.139" cy="159.329" rx="12.481" ry="7.05"/></g><g fill="#ffe5c2"><ellipse cx="389.76" cy="223.896" rx="12.481" ry="7.05"/><ellipse cx="314.218" cy="223.896" rx="12.481" ry="7.05"/></g></g><g><path d="m155.862 156.083c4.143 0 7.5-3.357 7.5-7.5v-9.916c0-4.143-3.357-7.5-7.5-7.5s-7.5 3.357-7.5 7.5v9.916c0 4.142 3.358 7.5 7.5 7.5z"/><path d="m173.351 167.871c-3.54-2.148-8.153-1.022-10.304 2.519-1.54 2.537-4.226 4.051-7.185 4.051s-5.645-1.514-7.185-4.051c-2.149-3.541-6.762-4.667-10.304-2.519-3.54 2.149-4.668 6.763-2.519 10.304 4.283 7.054 11.762 11.266 20.007 11.266s15.724-4.212 20.007-11.266c2.151-3.541 1.023-8.155-2.517-10.304z"/><path d="m511.98 492.516-9.089-125.344c-2.343-18.984-16.71-36.675-35.581-42.551l-66.892-16.562c.418-1.67.665-3.408.665-5.206v-13.221c0-2.37-.401-4.645-1.114-6.778 14.055-8.709 24.444-22.198 29.421-37.726h13.079c12.562 0 22.78-10.215 22.78-22.77v-88.57c0-19.056-8.326-37.064-22.843-49.409-14.455-12.292-33.472-17.62-52.195-14.641l-31.277 3.209c-4.124.687-10.517.991-16.869 0l-31.277-3.209c-30.927-5.552-64.575 15.348-72.668 46.648-.895-1.28-2.184-2.284-3.736-2.809-25.442-8.611-36.602-42.1-38.343-47.837v-37.031c18.789 4.935 34.769 17.679 43.766 35.673 1.852 3.706 6.359 5.21 10.062 3.354 3.705-1.852 5.207-6.356 3.354-10.062-14.258-28.52-42.908-46.235-74.772-46.235h-45.17c-46.069 0-83.55 37.48-83.55 83.55v26.647c-5.213 4.781-9.394 13.581-9.351 21.873 0 8.285 3.447 16.208 9.351 21.875v89.74c-29.95 13.167-49.731 43.106-49.731 76.127v161.808c0 4.143 3.357 7.5 7.5 7.5s7.5-3.357 7.5-7.5v-118.419h34.729v118.421c0 4.143 3.357 7.5 7.5 7.5 1.297 0 2.516-.329 3.58-.908 2.338-1.27 3.925-3.747 3.925-6.595l-.005-160.487c0-4.143-3.357-7.5-7.5-7.5s-7.5 3.357-7.5 7.5v27.069h-34.729v-28.39c1.55-44.354 32.332-64.775 70.149-69.315 13.281 17.767 32.548 29.73 54.009 33.846l-1.712 1.712c-2.929 2.93-2.929 7.678 0 10.607 2.93 2.928 7.678 2.928 10.607 0l7.806-7.807 7.806 7.807c1.465 1.464 3.385 2.196 5.304 2.196s3.839-.732 5.304-2.196c2.929-2.93 2.929-7.678 0-10.607l-1.711-1.711c21.493-4.12 40.781-16.111 54.068-33.924l9.122 1.96v2.98c0 24.278 19.752 44.03 44.03 44.03h8.133l-54.222 13.793c-18.24 5.718-33.186 22.909-35.582 42.551l-9.088 125.344c-.3 4.131 2.807 7.723 6.938 8.022.185.014.367.02.55.02 3.896 0 7.187-3.011 7.473-6.958l2.061-28.422h41.288v27.88c0 4.143 3.357 7.5 7.5 7.5h.001s.001 0 .001 0c4.143 0 7.5-3.357 7.5-7.5v-27.88h33.563c4.143 0 7.5-3.357 7.5-7.5s-3.357-7.5-7.5-7.5h-33.563v-24.819h176.336v24.819h-107.48c-4.143 0-7.5 3.357-7.5 7.5s3.357 7.5 7.5 7.5h107.477v27.88c0 4.143 3.357 7.5 7.5 7.5h.001s.001 0 .001 0c4.143 0 7.5-3.357 7.5-7.5v-27.88h41.289l2.061 28.422c.286 3.947 3.577 6.958 7.473 6.958.183 0 .365-.006.55-.02 4.131-.299 7.237-3.891 6.937-8.022zm-58.31-107.248h35.494l1.819 25.091h-37.313zm34.28-16.74.126 1.74h-34.406v-34.256l9.078 2.899c13.274 4.238 23.143 15.848 25.202 29.617zm-89.467 9.243c0 4.334-3.526 7.86-7.86 7.86h-5.134c-4.334 0-7.86-3.526-7.86-7.86v-17.325c0-4.143-3.357-7.5-7.5-7.5s-7.5 3.357-7.5 7.5v9.825h-23.537v-9.825c0-4.143-3.357-7.5-7.5-7.5s-7.5 3.357-7.5 7.5v17.325c0 4.334-3.526 7.86-7.86 7.86h-5.134c-4.334 0-7.86-3.526-7.86-7.86v-54.938l7.168-1.567c3.216 1.925 6.962 3.052 10.975 3.052h58.238c4.013 0 7.759-1.127 10.975-3.052l7.889 1.725zm-12.399-88.138v13.221c0 1.777-.721 3.389-1.886 4.559-.049.042-.095.089-.144.132-1.159 1.096-2.718 1.774-4.435 1.774h-58.238c-1.719 0-3.279-.679-4.438-1.777-.047-.042-.092-.087-.139-.128-1.165-1.17-1.886-2.782-1.886-4.559v-13.221c0-1.781.724-3.397 1.894-4.567.001-.001.002-.002.004-.004 1.17-1.17 2.785-1.894 4.567-1.894h58.238c3.563-.001 6.463 2.899 6.463 6.464zm4.314-18.533c-3.172-1.852-6.848-2.932-10.779-2.932h-58.238c-3.931 0-7.606 1.08-10.778 2.932-16.704-9.521-27.282-27.475-27.282-46.901v-40.601c0-9.029 5.262-17.389 13.401-21.296l53.778-25.776 53.773 25.774c8.145 3.909 13.406 12.269 13.406 21.298v40.601c.001 19.426-10.577 37.38-27.281 46.901zm-139.648-49.801v-13.5c0-4.29 3.49-7.78 7.78-7.78h9.79v24.181c0 1.991.097 3.968.268 5.93h-10.058c-3.492.02-8.239-3.605-7.78-8.831zm199.5 1.06c0 4.284-3.49 7.77-7.78 7.77h-10.058c.171-1.962.268-3.939.268-5.93v-24.181h9.79c4.29 0 7.78 3.49 7.78 7.78zm-89.571-134.511 31.277-3.209c28.646-5.689 59.078 18.807 58.294 49.149v52.599c-2.619-1.56-13.849-1.445-17.57-1.369.662-14.522-8.31-29.806-21.918-36.243l-52.762-25.289v-35.271c.894-.105 1.787-.225 2.679-.367zm-92.369 7.959c10.503-9.163 26.466-13.638 40.734-11.168l31.277 3.209c.891.142 1.785.262 2.679.366v35.271l-52.766 25.291c-13.258 6.211-22.456 21.136-21.914 36.241h-9.79c-2.731 0-5.351.484-7.78 1.369v-52.599c0-14.647 6.4-28.49 17.56-37.98zm-43.831 29.962v13.578c0 37.533-30.536 68.068-68.069 68.068s-68.069-30.535-68.069-68.068v-12.248c18.579-3.226 71.418-14.71 98.021-44.432 6.024 13.724 17.889 33.893 38.117 43.102zm-102.449 105.495c-.043 3.093-2.496 8.084-7.313 9.087l-49.986 10.57v-77.701c1.362.683 13.53.651 16.135.609 8.322 18.159 22.993 32.81 41.165 41.108v16.327zm-46.36-72.435c-9.097 1.458-20.056-3.974-20.291-15.32-.095-8.221 7.762-16.559 17.961-15.33v11.169c.001 6.709.821 13.228 2.33 19.481zm57.61-132.39c9.295.042 39.302-.085 47.761.05v38.315c-21.796 36.227-94.212 47.441-100.697 48.375-6.957.197-7.997-.533-15.614.61v-18.8c0-37.799 30.751-68.55 68.55-68.55zm76.863 231.882c-26.729 31.251-80.985 31.931-108.457.119l16.14-3.414c9.921-1.894 19.43-12.321 19.205-23.707v-11.209c6.222 1.493 12.706 2.306 19.38 2.306s13.158-.813 19.38-2.306v11.259c0 11.353 8.055 21.312 19.144 23.682zm-12.066-17.936c-4.223-.902-7.287-4.694-7.287-9.016v-16.432c21.358-9.753 37.903-28.276 44.96-50.955v84.495zm52.673 26.414v-23.039c2.429.885 5.049 1.369 7.78 1.369h13.078c4.978 15.528 15.367 29.017 29.422 37.726-.713 2.133-1.114 4.408-1.114 6.778v6.196h-20.136c-16.008 0-29.03-13.023-29.03-29.03zm-38.914 118.469h35.494v25.091h-37.313zm26.417-46.357 9.077-2.899v34.256h-34.406c.908-13.708 11.781-27.104 25.329-31.357zm-31.123 111.267 1.799-24.819h38.401v24.819zm55.202-39.819v-78.582l25.905-5.664v51.659c0 12.605 10.255 22.86 22.86 22.86h5.134c9.979 0 18.479-6.429 21.59-15.36h26.077c3.112 8.932 11.612 15.36 21.59 15.36h5.134c12.605 0 22.86-10.255 22.86-22.86v-51.501l25.185 5.506v78.582zm191.338 39.819v-24.819h38.401l1.8 24.819z"/><path d="m350.5 221.26c4.143 0 7.5-3.357 7.5-7.5v-9.916c0-4.143-3.357-7.5-7.5-7.5s-7.5 3.357-7.5 7.5v9.916c0 4.143 3.357 7.5 7.5 7.5z"/><path d="m367.987 233.049c-3.543-2.149-8.154-1.021-10.303 2.52-1.539 2.536-4.225 4.05-7.185 4.05-2.959 0-5.645-1.514-7.185-4.051-2.149-3.54-6.762-4.668-10.304-2.519-3.54 2.149-4.668 6.763-2.519 10.304 4.283 7.054 11.762 11.266 20.007 11.266 8.246 0 15.726-4.212 20.008-11.267 2.15-3.542 1.022-8.155-2.519-10.303z"/><circle cx="385.54" cy="206.132" r="7.5"/><circle cx="315.465" cy="206.132" r="7.5"/><circle cx="190.9" cy="140.865" r="7.5"/><circle cx="120.825" cy="140.865" r="7.5"/></g></g></svg>