<svg id="Capa_1" enable-background="new 0 0 511.993 511.993" height="512" viewBox="0 0 511.993 511.993" width="512" xmlns="http://www.w3.org/2000/svg"><g><g><path d="m351.18 395.566c-5.46 8.07-12.74 14.51-21.1 18.94-8.35 4.43-17.77 6.85-27.51 6.85h-245.2c-19.48 0-37.69-9.66-48.61-25.79-.87-1.28-1.26-2.68-1.26-4.04 0-3.77 2.99-7.27 7.26-7.27h330.42c5.81 0 9.26 6.5 6 11.31z" fill="#f7f9fa"/><path d="m351.18 395.566c-5.46 8.07-12.74 14.51-21.1 18.94-8.35 4.43-17.77 6.85-27.51 6.85h-113.7c-19.48 0-37.69-9.66-48.61-25.79-.87-1.28-1.26-2.68-1.26-4.04 0-3.77 3-7.27 7.27-7.27h198.91c5.81 0 9.26 6.5 6 11.31z" fill="#e9edf1"/><path d="m438.397 261.172c9.163-4.479 20.227-.884 25.007 8.125 2.733 5.152 7.691 8.754 13.436 9.762 10.046 1.762 16.883 11.174 15.455 21.272-.817 5.775 1.077 11.603 5.132 15.795 7.091 7.33 7.091 18.963 0 26.294-4.055 4.192-5.949 10.02-5.132 15.795 1.428 10.098-5.409 19.51-15.455 21.272-5.744 1.008-10.702 4.61-13.436 9.762-4.78 9.009-15.844 12.604-25.007 8.125-5.24-2.561-11.368-2.561-16.608 0-9.163 4.479-20.227.884-25.007-8.125-2.733-5.152-7.691-8.754-13.436-9.762-10.046-1.762-16.883-11.174-15.455-21.272.817-5.775-1.077-11.603-5.132-15.795-7.091-7.33-7.091-18.963 0-26.294 4.055-4.192 5.949-10.02 5.132-15.795-1.428-10.098 5.409-19.51 15.455-21.272 5.744-1.008 10.702-4.61 13.436-9.762 4.78-9.009 15.844-12.604 25.007-8.125 5.239 2.561 11.368 2.561 16.608 0z" fill="#d19a6e"/><g><path d="m417.843 261.172c.649-.317 1.308-.583 1.973-.82-5.532-1.973-11.511-1.202-16.287 1.754 4.678 1.569 9.822 1.261 14.314-.934z" fill="#d19a6e"/><path d="m497.426 316.126c-4.055-4.192-5.949-10.02-5.132-15.795 1.428-10.099-5.409-19.51-15.455-21.272-5.745-1.008-10.703-4.61-13.436-9.762-4.78-9.009-15.844-12.604-25.007-8.125-.748.366-1.515.673-2.294.934 2.758 1.707 5.121 4.127 6.747 7.191 2.734 5.152 7.692 8.754 13.436 9.762 10.046 1.762 16.883 11.173 15.455 21.272-.817 5.775 1.077 11.603 5.132 15.795 7.091 7.33 7.091 18.963 0 26.293-4.055 4.192-5.949 10.02-5.132 15.795 1.428 10.098-5.41 19.51-15.455 21.272-5.744 1.008-10.702 4.61-13.436 9.762-1.626 3.064-3.989 5.484-6.747 7.191.779.261 1.546.568 2.294.934 9.163 4.479 20.227.884 25.007-8.125 2.733-5.152 7.691-8.754 13.436-9.762 10.046-1.762 16.883-11.174 15.455-21.272-.817-5.775 1.077-11.603 5.132-15.795 7.092-7.33 7.092-18.963 0-26.293z" fill="#c38c66"/><path d="m417.843 397.373c-4.492-2.196-9.635-2.503-14.314-.934 4.776 2.956 10.755 3.727 16.287 1.754-.665-.237-1.325-.503-1.973-.82z" fill="#d19a6e"/></g><path d="m360.111 261.172c9.163-4.479 20.227-.884 25.007 8.125 2.733 5.152 7.691 8.754 13.436 9.762 10.046 1.762 16.883 11.174 15.455 21.272-.817 5.775 1.077 11.603 5.132 15.795 7.091 7.33 7.091 18.963 0 26.294-4.055 4.192-5.949 10.02-5.132 15.795 1.428 10.098-5.409 19.51-15.455 21.272-5.744 1.008-10.702 4.61-13.436 9.762-4.78 9.009-15.844 12.604-25.007 8.125-5.24-2.561-11.368-2.561-16.608 0-9.163 4.479-20.227.884-25.007-8.125-2.733-5.152-7.691-8.754-13.436-9.762-10.046-1.762-16.883-11.174-15.455-21.272.817-5.775-1.077-11.603-5.132-15.795-7.091-7.33-7.091-18.963 0-26.294 4.055-4.192 5.949-10.02 5.132-15.795-1.428-10.098 5.409-19.51 15.455-21.272 5.744-1.008 10.702-4.61 13.436-9.762 4.78-9.009 15.844-12.604 25.007-8.125 5.24 2.561 11.368 2.561 16.608 0z" fill="#d19a6e"/><g><path d="m339.557 261.172c.649-.317 1.308-.583 1.973-.82-5.532-1.973-11.511-1.202-16.287 1.754 4.679 1.569 9.822 1.261 14.314-.934z" fill="#d19a6e"/><path d="m419.141 316.126c-4.055-4.192-5.949-10.02-5.132-15.795 1.428-10.099-5.409-19.51-15.455-21.272-5.745-1.008-10.703-4.61-13.436-9.762-4.78-9.009-15.844-12.604-25.007-8.125-.748.366-1.515.673-2.294.934 2.758 1.707 5.121 4.127 6.747 7.191 2.734 5.152 7.692 8.754 13.436 9.762 10.046 1.762 16.883 11.173 15.455 21.272-.817 5.775 1.077 11.603 5.132 15.795 7.091 7.33 7.091 18.963 0 26.293-4.055 4.192-5.949 10.02-5.132 15.795 1.428 10.098-5.41 19.51-15.455 21.272-5.744 1.008-10.702 4.61-13.436 9.762-1.626 3.064-3.989 5.484-6.747 7.191.779.261 1.546.568 2.294.934 9.163 4.479 20.227.884 25.007-8.125 2.733-5.152 7.691-8.754 13.436-9.762 10.046-1.762 16.883-11.174 15.455-21.272-.817-5.775 1.077-11.603 5.132-15.795 7.091-7.33 7.091-18.963 0-26.293z" fill="#c38c66"/></g><path d="m454.632 421.36h-245.205c-19.478 0-37.688-9.662-48.609-25.791-3.26-4.814.189-11.314 6.003-11.314h330.416c5.814 0 9.263 6.5 6.003 11.314-10.919 16.129-29.129 25.791-48.608 25.791z" fill="#cdbfba"/><path d="m497.238 384.254h-20.554c5.814 0 9.263 6.5 6.003 11.314-10.921 16.129-29.13 25.791-48.609 25.791h20.554c19.479 0 37.688-9.662 48.609-25.791 3.26-4.814-.189-11.314-6.003-11.314z" fill="#b9acac"/><path d="m174.438 384.254h-51.76c-36.489 0-66.069-29.58-66.069-66.069v-83.44c0-3.815 3.093-6.908 6.908-6.908h170.082c3.815 0 6.908 3.093 6.908 6.908v83.44c0 36.489-29.58 66.069-66.069 66.069z" fill="#f7f9fa"/><path d="m233.598 227.836h-20.554c3.815 0 6.908 3.093 6.908 6.908v83.44c0 36.489-29.58 66.069-66.069 66.069h20.554c36.489 0 66.069-29.58 66.069-66.069v-83.44c.001-3.815-3.092-6.908-6.908-6.908z" fill="#e9edf1"/><path d="m176.231 271.633h23.479c2.835 0 5.133 2.298 5.133 5.133v30.402c0 2.835-2.298 5.133-5.133 5.133h-23.479c-2.835 0-5.133-2.298-5.133-5.133v-30.402c0-2.835 2.298-5.133 5.133-5.133z" fill="#ffe270"/><path d="m199.71 271.633h-18.513c2.835 0 5.133 2.298 5.133 5.133v30.402c0 2.835-2.298 5.133-5.133 5.133h18.513c2.835 0 5.133-2.298 5.133-5.133v-30.402c-.001-2.835-2.299-5.133-5.133-5.133z" fill="#ffd15b"/></g><g><path d="m510.268 384.591c-2.455-4.91-9.183-8.515-15.607-7.837 3.68-4.906 6.338-13.18 4.95-21.178 0-2.987 1.139-5.808 3.202-7.938 4.796-4.944 7.438-11.465 7.438-18.362 0-6.891-2.639-13.413-7.434-18.369-3.067-3.556-3.555-6.95-2.836-13.251 0-12.845-9.188-23.774-21.857-25.99-1.599-.717-4.259-.171-8.098-5.885-6.713-12.654-22.05-17.636-34.918-11.344-1.551.758-3.282 1.158-5.008 1.158-1.756 0-3.443-.39-5.017-1.158-3.725-1.821-8.213-.274-10.031 3.445-1.818 3.722-.276 8.213 3.445 10.031 3.59 1.755 7.603 2.682 11.603 2.682 3.994 0 8.004-.927 11.596-2.683 5.556-2.72 12.18-.566 15.08 4.898 3.322 6.2 10.189 12.16 18.772 13.632 5.466.956 9.433 5.672 9.433 11.213-1.252 7.227.729 17.418 7.06 23.685 2.069 2.14 3.21 4.958 3.21 7.936 0 2.977-1.138 5.788-3.207 7.921-4.793 4.947-7.433 11.474-7.433 18.379 1.329 5.809-.773 15.109-9.078 16.525-2.619.483-6.883 1.873-10.955 4.652h-48.199c3.68-4.919 6.352-13.168 4.942-21.188 0-2.975 1.141-5.795 3.21-7.937 4.791-4.953 7.43-11.472 7.43-18.354 0-6.876-2.636-13.396-7.427-18.361-3.081-3.578-3.558-6.944-2.833-13.259 0-12.846-9.193-23.775-21.863-25.989-1.475-.633-4.605-.399-8.092-5.886-6.715-12.656-22.059-17.639-34.928-11.344-1.719.362-3.553 2.366-10.015.005-3.647-1.789-7.548-2.696-11.593-2.696-9.794 0-18.735 5.376-23.334 14.032-1.173 1.299-1.5 3.999-8.107 5.89-12.66 2.212-21.849 13.142-21.849 25.988.305 3.442 1.081 9.232-2.841 13.256-4.79 4.952-7.429 11.474-7.429 18.364 0 6.896 2.641 13.417 7.434 18.359 3.067 3.555 3.555 6.948 2.836 13.25 0 5.924 1.972 11.427 5.317 15.868h-68.345c17.676-13.449 29.115-34.695 29.115-58.569v-83.44c0-7.944-6.464-14.408-14.409-14.408h-99.857c-4.142 0-7.5 3.357-7.5 7.5s3.358 7.5 7.5 7.5h46.729v28.797h-4.239c-6.966 0-12.633 5.667-12.633 12.633v30.401c0 6.966 5.667 12.633 12.633 12.633h23.479c6.965 0 12.632-5.667 12.632-12.633v-30.401c0-6.966-5.667-12.633-12.632-12.633h-4.24v-28.797h37.537v82.849c0 32.295-26.274 58.569-58.569 58.569h-51.76c-32.295 0-58.569-26.274-58.569-58.569v-82.849h34.354c4.142 0 7.5-3.357 7.5-7.5s-3.358-7.5-7.5-7.5h-34.946c-7.945 0-14.409 6.464-14.409 14.408v20.953h-20.839c-15.587.003-28.269 12.684-28.269 28.272v30.019c0 13.23 9.002 24.555 21.838 27.527l34.396 8.229c5.087 10.668 12.671 19.922 21.989 27.012h-63.461c-5.472 0-10.464 3.003-13.029 7.836-2.565 4.834-2.252 10.651.815 15.184 12.332 18.213 32.825 29.086 54.819 29.086h397.264c21.994 0 42.488-10.873 54.819-29.086 3.07-4.531 3.382-10.349.818-15.183zm-312.926-79.791h-18.744v-25.667h18.744zm-172.067 22.112c-6.05-1.401-10.275-6.716-10.275-12.926v-30.019c0-7.316 5.953-13.27 13.269-13.27h20.839v47.487c0 5.063.515 10.009 1.494 14.787zm292.031 49.835c-3.225-2.342-7.006-3.947-10.955-4.648-5.465-.955-9.431-5.671-9.431-11.213 1.252-7.231-.729-17.418-7.066-23.691-2.065-2.13-3.203-4.941-3.203-7.918 0-2.978 1.14-5.796 3.205-7.931 5.503-5.854 8.543-14.494 7.064-23.689 0-5.542 3.966-10.258 9.427-11.212 6.909-1.234 14.713-5.928 18.776-13.63 1.989-3.743 5.854-6.068 10.087-6.068 7.929 1.801 18.102 6.747 28.195 1.167 5.56-2.722 12.189-.567 15.087 4.894 1.24 2.341 2.807 4.455 4.655 6.283 2.687 2.908 8.587 6.409 14.111 7.354 5.471.956 9.441 5.672 9.441 11.213-1.265 7.22.713 17.391 7.041 23.677 2.076 2.151 3.219 4.973 3.219 7.943s-1.141 5.784-3.214 7.929c-4.789 4.956-7.426 11.477-7.426 18.361 1.342 5.842-.759 15.103-9.082 16.535-3.947.701-7.733 2.311-10.91 4.628-.011.008-.021.017-.032.024h-68.982c-.001-.003-.004-.005-.007-.008zm-259.938 37.113c-16.849 0-32.56-8.251-42.131-22.105h107.44 29.4c.047 2.81.892 5.598 2.531 8.02 3.632 5.364 7.976 10.085 12.854 14.086h-110.094zm397.264 0h-245.205c-16.849 0-32.56-8.251-42.131-22.105h329.467c-9.565 13.851-25.278 22.105-42.131 22.105z"/><path d="m105.473 148.918c1.746 0 3.166 1.42 3.166 3.166v29.864c0 4.143 3.358 7.5 7.5 7.5s7.5-3.357 7.5-7.5v-29.864c0-10.017-8.149-18.166-18.166-18.166-1.746 0-3.166-1.42-3.166-3.166v-40.119c0-4.143-3.358-7.5-7.5-7.5s-7.5 3.357-7.5 7.5v40.119c0 10.017 8.15 18.166 18.166 18.166z"/><path d="m137.892 126.251h10.666c1.746 0 3.166 1.42 3.166 3.166v52.531c0 4.143 3.358 7.5 7.5 7.5s7.5-3.357 7.5-7.5v-52.531c0-10.017-8.149-18.166-18.166-18.166h-10.666c-4.142 0-7.5 3.357-7.5 7.5s3.358 7.5 7.5 7.5z"/><circle cx="455.31" cy="329.272" r="7.5"/><g><circle cx="377.06" cy="329.272" r="7.5"/><circle cx="326.55" cy="329.272" r="7.5"/></g><g><circle cx="351.805" cy="354.527" r="7.5"/><circle cx="351.805" cy="304.018" r="7.5"/></g></g></g></svg>