<svg id="Capa_1" enable-background="new 0 0 512 512" height="512" viewBox="0 0 512 512" width="512" xmlns="http://www.w3.org/2000/svg"><g><g><path d="m112.565 335.567-26.658 8.512c-22.871 7.303-39.553 27.041-42.942 50.809l-12.847 109.607h82.447z" fill="#5d5360"/><path d="m90.157 342.722v161.773h22.408v-168.928z" fill="#4b3f4e"/><path d="m399.436 335.567 26.658 8.512c22.871 7.303 39.553 27.041 42.942 50.809l12.846 109.606h-82.447v-168.927z" fill="#5d5360"/><path d="m469.036 394.889c-3.389-23.769-20.071-43.506-42.942-50.809l-26.658-8.512v7.155l4.251 1.357c22.871 7.303 39.553 27.041 42.942 50.809l12.846 109.606h22.407z" fill="#4b3f4e"/><path d="m399.435 335.569v168.931h-286.869v-168.931l39.929-8.054 65.959-13.303h75.092l65.96 13.303z" fill="#5d5360"/><path d="m350.673 454.192v22.39c0 4.478-3.635 8.106-8.113 8.097l-13.057-.025-23.34 19.85h-155.19c-30.628-38.231-.656-95.714 47.82-94.42h90.86s32.23 9.77 38.16 36.01h14.763c4.472 0 8.097 3.626 8.097 8.098z" fill="#4b3f4e"/><path d="m359.506 327.515-65.96-13.303h-22.407l105.888 21.357v168.931h22.408v-168.931z" fill="#4b3f4e"/><path d="m218.455 250.009h75.091v64.205l-37.546 26.116-37.545-26.116z" fill="#ffe5c2"/><path d="m271.138 250.009v64.205l-26.342 18.323 11.204 7.793 37.546-26.116v-64.205z" fill="#fed2a4"/><path d="m256 340.33 21.319 21.291c4.934 4.928 13.057 4.473 17.409-.976l31.775-39.782-32.958-6.648z" fill="#a6e7f0"/><path d="m293.546 314.214-5.037 3.504 15.587 3.144-24.253 30.221c-2.222 2.782-5.427 4.253-8.689 4.38l6.164 6.156c4.934 4.928 13.057 4.472 17.409-.976l31.775-39.782z" fill="#6bd9e7"/><path d="m256 340.33-21.319 21.291c-4.934 4.928-13.057 4.473-17.409-.976l-31.757-39.789 32.939-6.641z" fill="#a6e7f0"/><path d="m218.455 314.214-17.372 3.503 32.51 22.613-11.617 11.73c-2.446 2.442-5.674 3.558-8.839 3.404l4.135 5.181c4.352 5.449 12.475 5.904 17.409.976l21.319-21.291z" fill="#6bd9e7"/><path d="m303.16 7.5h-94.32c-40.423 0-73.191 32.769-73.191 73.192v25.643h14.801v110.382c0 29.601 23.996 53.597 53.597 53.597h103.908c29.601 0 53.597-23.996 53.597-53.597v-110.383h14.801v-25.643c-.001-40.422-32.77-73.191-73.193-73.191z" fill="#ffe5c2"/><path d="m385.176 160.278v-63.432c0-12.71-10.304-23.014-23.014-23.014-12.71 0-23.014 10.304-23.014 23.014v63.432z" fill="#fed2a4"/><path d="m303.16 7.5h-22.407c40.423 0 73.192 32.769 73.192 73.191v25.643h-14.801v110.382c0 29.601-23.996 53.597-53.597 53.597h22.407c29.601 0 53.597-23.996 53.597-53.597v-110.382h14.801v-25.643c0-40.422-32.769-73.191-73.192-73.191z" fill="#fed2a4"/><path d="m150.444 160.278v-63.432c0-12.71-10.304-23.014-23.014-23.014-12.71 0-23.014 10.304-23.014 23.014v63.432z" fill="#e9edf1"/><path d="m127.43 73.832c-4.068 0-7.888 1.06-11.204 2.912 7.044 3.935 11.81 11.46 11.81 20.101v63.432h22.407v-63.431c.001-12.71-10.302-23.014-23.013-23.014z" fill="#c8d2dc"/><path d="m407.583 160.278v-63.432c0-12.71-10.303-23.014-23.014-23.014-12.71 0-23.014 10.304-23.014 23.014v63.432z" fill="#e9edf1"/><path d="m384.57 73.832c-4.068 0-7.888 1.06-11.204 2.912 7.044 3.935 11.81 11.46 11.81 20.101v63.432h22.407v-63.431c0-12.71-10.303-23.014-23.013-23.014z" fill="#c8d2dc"/><path d="m150.444 202.445h-25.013c-11.606 0-21.014-9.408-21.014-21.014v-21.725c0-11.606 9.408-21.014 21.014-21.014h25.013z" fill="#ffe5c2"/><path d="m128.037 138.691h22.407v63.754h-22.407z" fill="#fed2a4"/><path d="m386.569 202.445h-25.013v-63.754h25.013c11.606 0 21.014 9.408 21.014 21.014v21.725c0 11.607-9.408 21.015-21.014 21.015z" fill="#ffe5c2"/><path d="m386.569 138.691h-22.407c11.606 0 21.014 9.408 21.014 21.014v21.725c0 11.606-9.408 21.014-21.014 21.014h22.407c11.606 0 21.014-9.408 21.014-21.014v-21.725c0-11.606-9.408-21.014-21.014-21.014z" fill="#fed2a4"/><path d="m373.081 454.192v22.39c0 4.478-3.635 8.106-8.113 8.097l-13.057-.025-23.34 19.85h-155.191c-30.628-38.231-.656-95.714 47.82-94.42h90.86s32.23 9.77 38.16 36.01h14.763c4.472 0 8.098 3.626 8.098 8.098z" fill="#fe5694"/><g><path d="m221.2 410.084c-.962-.026-1.914-.02-2.861 0z" fill="#fe5694"/><path d="m364.983 446.094h-14.763c-5.93-26.24-38.16-36.01-38.16-36.01h-22.407s32.23 9.77 38.16 36.01h14.763c4.472 0 8.097 3.625 8.097 8.097v22.39c0 4.478-3.635 8.106-8.113 8.097l-13.057-.025-23.34 19.85h22.407l23.34-19.85 13.057.025c4.478.008 8.113-3.619 8.113-8.097v-22.39c.001-4.471-3.625-8.097-8.097-8.097z" fill="#fd3581"/></g><g><path d="m231.698 391.6h49.09v51.122h-49.09z" fill="#95d6a4"/></g><path d="m258.38 391.6h22.407v51.122h-22.407z" fill="#78c2a4"/></g><g><path d="m489.331 503.622-12.846-109.606c-.008-.062-.016-.124-.024-.186-3.771-26.439-22.646-48.772-48.086-56.896-.924-.241-26.295-8.502-27.537-8.734l-99.788-20.126v-30.264h6.9c33.69 0 61.1-27.405 61.1-61.09v-6.774h17.52c15.723 0 28.514-12.792 28.514-28.515l-.004-84.581c0-16.828-13.687-30.52-30.51-30.52-15.413-.327-30.809 13.525-30.511 30.52l-.01 119.87c0 25.414-20.681 46.09-46.1 46.09h-103.9c-25.419 0-46.1-20.676-46.1-46.09l-.01-119.87c0-10.629-5.387-20.189-14.078-25.709 4.656-31.844 32.3-56.141 64.979-56.141h94.32c22.591 0 43.327 11.396 55.47 30.486 2.223 3.494 6.857 4.525 10.354 2.303 3.495-2.223 4.526-6.858 2.303-10.354-14.911-23.44-40.379-37.435-68.127-37.435h-94.32c-39.257 0-72.607 28.549-79.407 66.402-15.99-1.473-32.919 12.702-32.513 30.448l-.003 84.581c0 15.723 12.792 28.515 28.515 28.515h17.519v6.774c0 33.685 27.409 61.09 61.1 61.09h6.9v30.265l-99.786 20.125c-.729.071-26.387 8.418-27.54 8.734-25.441 8.123-44.316 30.456-48.086 56.896-.009.062-.017.124-.024.186l-12.846 109.606c-.482 4.114 2.462 7.84 6.576 8.322.296.034.591.052.882.052 3.752 0 6.992-2.811 7.44-6.628l12.835-109.511c2.994-20.743 17.816-38.258 37.786-44.634l16.877-5.389v158.66c-.009 3.224 2.615 7.076 7.501 7.505 4.142 0 7.5-3.357 7.5-7.5v-162.792l62.443-12.594 28.903 36.214c6.296 8.035 20.098 10.102 28.569 1.601l16.019-15.998 16.019 15.997c6.93 7.243 21.345 7.75 28.569-1.602l28.921-36.209 62.425 12.591v162.793c0 4.143 3.357 7.5 7.5 7.5 2.896-.021 7.513-2.826 7.501-7.505v-158.66l16.877 5.389c19.97 6.376 34.793 23.89 37.786 44.635l12.834 109.51c.447 3.817 3.688 6.628 7.439 6.628.292 0 .587-.018.883-.052 4.115-.483 7.06-4.209 6.577-8.323zm-102.761-308.677h-17.514l.004-48.754h17.51c6.917-.086 13.814 6.408 13.514 14.146v21.093c-.001 7.453-6.063 13.515-13.514 13.515zm-12.966-109.072c2.929-2.93 6.824-4.543 10.967-4.543 8.552 0 15.51 6.962 15.51 15.52v37.753c-4.024-2.174-8.625-3.411-13.511-3.411h-17.51v-34.342c0-4.142 1.616-8.042 4.544-10.977zm-257.14-.001c2.929-2.929 6.823-4.542 10.966-4.542 6.636-.56 15.993 7.026 15.51 15.52v34.342h-17.509c-4.886 0-9.487 1.237-13.511 3.411v-37.753c0-4.142 1.616-8.042 4.544-10.978zm8.967 109.073c-7.452 0-13.515-6.062-13.515-13.515v-21.084c-.401-6.728 5.65-14.151 13.515-14.156h17.509l.004 48.754h-17.513zm160.619 82.865v32.481l-30.05 20.903-30.05-20.903v-32.481zm-56.668 78.503c-1.155 1.155-2.5 1.263-3.203 1.222-.7-.039-2.027-.295-3.045-1.569l-24.093-30.187 17.758-3.58 27.553 19.164zm59.486-.35c-1.021 1.277-2.347 1.533-3.047 1.572-.699.037-2.048-.068-3.203-1.222l-14.969-14.95 27.552-19.164 17.771 3.585z"/><path d="m256 143.646c-4.142 0-7.5 3.357-7.5 7.5v19.933c0 4.143 3.358 7.5 7.5 7.5h7.078c4.143 0 7.5-3.357 7.5-7.5 0-4.001-3.132-7.27-7.078-7.488v-12.444c0-4.143-3.357-7.501-7.5-7.501z"/><path d="m201.94 140.246c-4.142 0-7.5 3.357-7.5 7.5v6.801c0 4.143 3.358 7.5 7.5 7.5s7.5-3.357 7.5-7.5v-6.801c0-4.142-3.358-7.5-7.5-7.5z"/><path d="m302.561 147.746v6.801c0 4.143 3.357 7.5 7.5 7.5s7.5-3.357 7.5-7.5v-6.801c0-4.143-3.357-7.5-7.5-7.5s-7.5 3.358-7.5 7.5z"/><path d="m226.219 200.542c-3.541 2.149-4.668 6.763-2.519 10.303 6.915 11.391 18.99 18.19 32.3 18.19 13.311 0 25.385-6.8 32.3-18.19 2.149-3.54 1.021-8.153-2.52-10.303-3.539-2.148-8.153-1.022-10.303 2.52-4.172 6.871-11.453 10.974-19.478 10.974s-15.307-4.103-19.478-10.974c-2.148-3.542-6.761-4.67-10.302-2.52z"/><path d="m281.889 35.095h-51.778c-4.142 0-7.5 3.357-7.5 7.5s3.358 7.5 7.5 7.5h51.778c4.143 0 7.5-3.357 7.5-7.5s-3.358-7.5-7.5-7.5z"/><path d="m278.214 72.892c0-4.143-3.357-7.5-7.5-7.5h-29.428c-4.142 0-7.5 3.357-7.5 7.5s3.358 7.5 7.5 7.5h29.428c4.143 0 7.5-3.358 7.5-7.5z"/><path d="m193.7 407.925c-19.924 8.7-35.327 27.999-39.207 50.349-3.007-1.575-6.409-5.028-8.349-12.49-1.042-4.01-5.138-6.412-9.146-5.372-4.009 1.042-6.414 5.137-5.372 9.146 4.125 15.865 13.907 22.302 22.052 24.279.885 12.769 5.593 25.05 13.848 35.354 1.481 1.85 3.659 2.811 5.858 2.811 1.645 0 3.301-.538 4.685-1.646 3.232-2.591 3.753-7.311 1.164-10.543-9.717-12.129-13.008-27.17-9.265-42.353 3.943-15.996 15.06-29.374 29.737-35.787 3.795-1.659 5.528-6.08 3.87-9.876s-6.079-5.531-9.875-3.872z"/><path d="m364.981 438.59h-9.191c-11.597-27.136-39.051-35.215-43.729-36.01h-23.772v-10.98c0-4.143-3.357-7.5-7.5-7.5h-49.089c-4.142 0-7.5 3.357-7.5 7.5v43.622h-7.335c-4.142 0-7.5 3.357-7.5 7.5s3.358 7.5 7.5 7.5h78.274c4.143 0 7.5-3.357 7.5-7.5s-3.357-7.5-7.5-7.5h-6.85v-17.642h22.541c4.977 1.775 27.717 10.873 32.076 30.163.772 3.419 3.811 5.847 7.315 5.847h14.761c.331 0 .6.269.6.6v22.391c0 .062 0 .252-.176.428-.173.172-.358.159-.417.172l-13.06-.03c-.006 0-.012 0-.018 0-1.78 0-3.503.634-4.859 1.787l-23.34 19.851c-3.155 2.684-3.537 7.417-.854 10.572 1.483 1.744 3.593 2.641 5.717 2.641 1.717 0 3.444-.587 4.855-1.787l21.231-18.057 10.292.023c7.291.061 15.635-6.271 15.627-15.6v-22.391c0-8.602-6.998-15.6-15.599-15.6zm-125.783-3.368v-36.122h34.089v36.122z"/><circle cx="317.42" cy="469.702" r="7.5"/></g></g></svg>