<svg id="Capa_1" enable-background="new 0 0 511.979 511.979" height="512" viewBox="0 0 511.979 511.979" width="512" xmlns="http://www.w3.org/2000/svg"><g><g><path d="m97.064 205.71v82.456c0 19.326 15.667 34.994 34.994 34.994h67.841c19.326 0 34.994-15.667 34.994-34.994v-82.456z" fill="#ffe5c2"/><path d="m213.789 205.71v82.456c0 19.326-15.667 34.994-34.994 34.994h21.104c19.326 0 34.994-15.667 34.994-34.994v-82.456z" fill="#fed2a4"/><path d="m97.061 278.849h-18.491c-6.385 0-11.56-5.176-11.56-11.56v-18.504c0-6.385 5.176-11.56 11.56-11.56h18.491z" fill="#ffe5c2"/><path d="m79.91 237.224h17.151v41.625h-17.151z" fill="#fed2a4"/><path d="m251.489 278.849h-16.593v-41.625h16.593c7.433 0 13.458 6.026 13.458 13.458v14.708c0 7.434-6.025 13.459-13.458 13.459z" fill="#ffe5c2"/><path d="m251.489 237.224h-16.593v.028c7.172.295 12.901 6.186 12.901 13.43v14.708c0 7.245-5.728 13.136-12.901 13.43v.028h16.593c7.433 0 13.458-6.026 13.458-13.458v-14.708c0-7.432-6.025-13.458-13.458-13.458z" fill="#fed2a4"/><g><path d="m255.429 504.476h-179.892v-125.455l58.928-13.941h63.027l57.937 13.941z" fill="#a6e7f0"/><path d="m197.492 365.08h-21.104l57.937 13.941v125.455h21.104v-125.455z" fill="#6bd9e7"/><path d="m134.465 323.16h63.027v41.92c-14.735 10.249-48.292 10.249-63.027 0z" fill="#ffe5c2"/><path d="m176.388 323.16v41.92c-5.196 3.614-12.735 5.948-20.962 7.013 15.102 1.956 32.526-.378 42.065-7.013v-41.92z" fill="#fed2a4"/></g><path d="m75.537 379.021c-27.234 9.933-45.355 35.831-45.355 64.82v15.768h45.355z" fill="#a6e7f0"/><path d="m75.536 379.021c-7.87 2.871-14.973 7.081-21.104 12.307v68.281h21.104z" fill="#6bd9e7"/><path d="m30.182 459.609h45.355v44.867h-45.355z" fill="#ffe5c2"/><path d="m54.433 459.609h21.104v44.867h-21.104z" fill="#fed2a4"/><path d="m255.429 379.021c27.234 9.933 45.355 35.831 45.355 64.82v15.768h-45.355z" fill="#a6e7f0"/><path d="m255.429 379.021v12.307c15.084 12.859 24.251 31.901 24.251 52.512v15.768h21.104v-15.768c0-28.988-18.121-54.886-45.355-64.819z" fill="#6bd9e7"/><path d="m255.429 459.609h45.355v44.867h-45.355z" fill="#ffe5c2"/><path d="m279.68 459.609h21.104v44.867h-21.104z" fill="#fed2a4"/><path d="m75.538 459.612h179.892v44.867h-179.892z" fill="#a2aee6"/><path d="m234.327 459.612h21.104v44.867h-21.104z" fill="#8795de"/><path d="m206.504 147.13h-81.048c-15.68 0-28.392 12.711-28.392 28.392v61.702l15.385 17.28c5.624 6.317 13.68 9.931 22.138 9.931h62.146c8.252 0 16.13-3.44 21.739-9.491l16.424-17.719v-31.515-30.188c0-15.68-12.712-28.392-28.392-28.392z" fill="#5d5360"/><path d="m206.504 147.13h-21.104c15.68 0 28.392 12.712 28.392 28.392v30.188 31.514l-16.424 17.719c-5.609 6.052-13.487 9.491-21.739 9.491h21.104c8.252 0 16.13-3.44 21.739-9.491l16.424-17.719v-31.514-30.188c0-15.68-12.712-28.392-28.392-28.392z" fill="#4b3f4e"/><path d="m399.242 217.773-82.575-135.906 82.575-74.388 82.576 74.388z" fill="#a2aee6"/><path d="m399.242 7.479-10.551 9.505 72.023 64.883-72.023 118.54 10.551 17.366 82.576-135.906z" fill="#8795de"/></g><path d="m488.63 84.991c1.219-2.581.848-6.402-1.792-8.696l-82.575-74.388c-2.592-2.382-7.153-2.697-10.04 0l-82.576 74.389c-2.494 2.227-3.361 6.347-1.39 9.467l81.482 134.107v158.9c0 18.932-8.782 36.174-24.094 47.306-16.999 12.999-40.572 13.909-60.319 5.769-4.33-27.053-23.065-50.289-49.328-59.868-.236-.09-.004.006-.815-.246.015.003-51.997-12.512-52.191-12.559v-28.825c21.341-2.437 38.259-21.714 37.401-43.996h9.096c11.557 0 20.959-9.401 20.959-20.958v-14.708c0-11.557-9.402-20.958-20.959-20.958h-9.093v-54.203c0-19.791-16.101-35.892-35.892-35.892h-81.048c-19.791 0-35.892 16.101-35.892 35.892v26.532c0 4.143 3.358 7.5 7.5 7.5s7.5-3.357 7.5-7.5v-26.532c0-11.52 9.372-20.892 20.892-20.892h81.048c11.52 0 20.892 9.372 20.892 20.892l-.003 58.765-14.421 15.558c-4.176 4.506-10.095 7.09-16.238 7.09h-62.146c-6.312 0-12.339-2.704-16.536-7.418l-15.385-17.279c-1.272-1.375-3.213-2.525-5.605-2.513h-18.492c-10.51 0-19.061 8.55-19.061 19.06v18.505c0 10.51 8.55 19.06 19.061 19.06h10.994c-1.012 21.811 15.81 41.504 37.401 43.996v28.802c-.769.234-53.088 12.46-53.999 12.828-30.077 10.971-50.285 39.851-50.285 71.865v60.636c0 4.143 3.358 7.5 7.5 7.5s7.5-3.357 7.5-7.5v-37.367h30.354v37.367c0 1.554.473 2.998 1.282 4.195 1.348 1.996 3.631 3.308 6.22 3.308h179.893c4.142 0 7.5-3.357 7.5-7.5v-37.37h30.353v37.367c0 4.143 3.358 7.5 7.5 7.5s7.5-3.357 7.5-7.5v-56.55c21.808 7.967 48.296 5.009 68.183-9.718 19.239-13.986 30.273-35.651 30.273-59.438v-158.89l81.488-134.117c.116-.228.122-.186.403-.775zm-240.701 367.121h-18.494c-4.142 0-7.5 3.357-7.5 7.5s3.358 7.5 7.5 7.5h18.494v29.864h-164.891v-29.864h111.124c4.142 0 7.5-3.357 7.5-7.5s-3.358-7.5-7.5-7.5h-111.126v-67.158l50.148-11.864c8.642 4.81 20.713 7.222 32.794 7.222 12.074 0 24.138-2.409 32.779-7.214l49.171 11.832v67.182zm-105.964-121.452h48.027v30.12c-12.468 6.019-35.56 6.02-48.027 0zm115.482-79.977v14.708c0 3.285-2.673 5.958-5.959 5.958h-9.093v-26.624h9.093c3.286 0 5.959 2.673 5.959 5.958zm-167.886 20.666h-10.991c-2.239 0-4.061-1.821-4.061-4.06v-18.505c0-2.238 1.822-4.06 4.061-4.06h10.991zm15.003 16.817v-31.24l2.284 2.565c7.041 7.908 17.151 12.443 27.739 12.443h62.146c10.306 0 20.234-4.335 27.239-11.893l3.42-3.69v31.814c0 15.16-12.333 27.494-27.494 27.494h-67.841c-15.159.001-27.493-12.333-27.493-27.493zm-66.882 163.943v-8.269c0-21.975 11.842-42.111 30.354-53.02v61.288h-30.354zm225.247 0v-61.288c18.513 10.908 30.354 31.045 30.354 53.02v8.269h-30.354zm73.268-377.742 55.542-50.035v50.035zm70.543-50.04 55.548 50.04h-55.548zm-7.5 85.269c-4.142 0-7.5 3.357-7.5 7.5v73.886l-61.74-101.615h138.485l-61.745 101.624v-73.895c0-4.143-3.358-7.5-7.5-7.5z"/></g></svg>