<svg id="Capa_1" enable-background="new 0 0 511.988 511.988" height="512" viewBox="0 0 511.988 511.988" width="512" xmlns="http://www.w3.org/2000/svg"><g><g><path d="m119.379 353.533-26.934 8.6c-23.108 7.378-39.962 27.32-43.386 51.335l-12.979 91.019h83.299z" fill="#a2aee6"/><path d="m97.378 360.558v143.929h22.001v-150.954z" fill="#8795de"/><path d="m392.604 89.407v102.03h-273.22v-102.03c0-50.48 45.22-88.94 95.04-80.84l28.43 4.62c8.7 1.42 17.58 1.42 26.28 0l28.43-4.62c49.82-8.1 95.04 30.36 95.04 80.84z" fill="#e9edf1"/><path d="m340.634 150.547v40.89h-213.28l-.01-40.89c0-17.09 9.81-32.67 25.23-40.06l81.42-39.03 22-.004 59.42 39.035c15.42 7.389 25.23 22.969 25.22 40.059z" fill="#c8d2dc"/><g><path d="m299.818 8.234c39.34 5.348 70.79 39.08 70.79 81.175v102.025h22.001v-102.025c0-49.717-43.866-87.776-92.791-81.175z" fill="#c8d2dc"/></g><path d="m255.994 212.867v63.56c0 7.32-2.16 14.14-5.87 19.85-6.5 10.03-17.8 16.67-30.66 16.67h-63.56c-20.17 0-36.53-16.35-36.53-36.52v-63.56c0-8.62 2.98-16.54 7.98-22.78 6.69-8.38 16.99-13.75 28.55-13.75h63.56c20.18 0 36.53 16.35 36.53 36.53z" fill="#e9edf1"/><path d="m255.994 212.867v63.56c0 7.32-2.16 14.14-5.87 19.85h-35.03c-48.46 0-87.74-39.29-87.74-87.75v-18.44c6.69-8.38 16.99-13.75 28.55-13.75h63.56c20.18 0 36.53 16.35 36.53 36.53z" fill="#c8d2dc"/><path d="m392.609 353.533 26.934 8.6c23.108 7.378 39.962 27.32 43.386 51.335l12.979 91.019h-83.299z" fill="#a2aee6"/><path d="m462.929 413.468c-3.424-24.014-20.278-43.956-43.386-51.334l-26.934-8.6v7.025l4.932 1.575c23.108 7.378 39.962 27.32 43.386 51.334l12.979 91.02h22.001z" fill="#8795de"/><path d="m154.834 227.707h-30.18c-12.05 0-21.81-9.77-21.81-21.81v-20.8c0-12.04 9.76-21.81 21.81-21.81h24.69z" fill="#fed2a4"/><path d="m154.834 227.707h-25.37c-1.38-6.17-2.11-12.59-2.11-19.18l-.01-45.24h22z" fill="#ffbd86"/><path d="m387.334 227.703h-32.497l7.804-64.413h24.693c12.045 0 21.81 9.765 21.81 21.81v20.793c0 12.046-9.765 21.81-21.81 21.81z" fill="#fed2a4"/><path d="m387.334 163.291h-22.001c12.045 0 21.81 9.765 21.81 21.81v20.793c0 12.045-9.765 21.81-21.81 21.81h22.001c12.045 0 21.81-9.765 21.81-21.81v-20.793c0-12.046-9.765-21.81-21.81-21.81z" fill="#ffbd86"/><path d="m392.608 353.53v150.957h-273.228v-150.957l33.201-7.255 44.857-9.808c12.039-2.626 20.622-13.295 20.622-25.625v-64.265h75.868v64.265c0 12.33 8.583 22.999 20.622 25.625l44.857 9.808z" fill="#a2aee6"/><path d="m359.407 346.275-44.857-9.808c-12.039-2.626-20.622-13.295-20.622-25.625v-64.265h-22.001v64.265c0 12.33 8.583 22.999 20.622 25.625l44.857 9.808 33.201 7.255v150.957h22.001v-150.957z" fill="#8795de"/><path d="m174.571 110.484c-15.415 7.39-25.223 22.969-25.222 40.064l.003 57.982c0 48.459 39.284 87.743 87.743 87.743h37.798c48.459 0 87.743-39.284 87.743-87.743l.003-57.982c.001-17.095-9.807-32.674-25.222-40.064l-81.423-39.031z" fill="#fed2a4"/><path d="m337.417 110.484-81.423-39.031-11.001 5.273 70.422 33.758c15.415 7.39 25.223 22.969 25.222 40.064l-.003 57.982c0 48.459-39.284 87.743-87.743 87.743h22.001c48.459 0 87.743-39.284 87.743-87.743l.004-57.982c.001-17.095-9.806-32.674-25.222-40.064z" fill="#ffbd86"/><path d="m303.553 340.786h-95.119c-7.712 0-13.965-6.252-13.965-13.965v-30.834c0-7.712 6.252-13.965 13.965-13.965h95.119c7.712 0 13.965 6.252 13.965 13.965v30.834c0 7.713-6.252 13.965-13.965 13.965z" fill="#a2aee6"/><path d="m303.553 282.023h-22.001c7.712 0 13.965 6.252 13.965 13.965v30.834c0 7.712-6.252 13.965-13.965 13.965h22.001c7.712 0 13.964-6.252 13.964-13.965v-30.834c.001-7.713-6.251-13.965-13.964-13.965z" fill="#8795de"/><g fill="#daf3f6"><path d="m209.766 210.518h-12.748c-10.618 0-19.226-8.608-19.226-19.226v-27.449h51.201v27.449c0 10.618-8.608 19.226-19.227 19.226z"/><path d="m315.999 210.518h-12.748c-10.618 0-19.226-8.608-19.226-19.226v-27.449h51.201v27.449c-.001 10.618-8.609 19.226-19.227 19.226z"/></g></g><g><path d="m483.333 503.429-12.979-91.02c-3.302-25.222-22.929-49.645-48.53-57.42-.928-.265-26.409-8.492-27.62-8.789l-69.599-15.213c.266-1.349.413-2.74.413-4.165v-30.834c0-2.062-.309-4.051-.854-5.94 20.754-12.514 35.635-32.106 42.206-54.841h20.964c16.162 0 29.31-13.148 29.31-29.31v-20.8c0-11.587-6.759-21.623-16.54-26.377v-69.313c0-26.264-11.474-51.085-31.479-68.101-20.004-17.015-46.344-24.356-72.264-20.142l-28.435 4.621c-6.797 1.098-15.067 1.389-23.869-.001l-28.429-4.62c-25.918-4.212-52.26 3.127-72.265 20.142-20.005 17.016-31.479 41.837-31.479 68.101v38.734c0 4.142 3.358 7.5 7.5 7.5s7.5-3.358 7.5-7.5v-38.734c0-21.857 9.548-42.515 26.197-56.675 16.648-14.16 38.569-20.271 60.14-16.762l28.424 4.619c2.276.371 4.561.648 6.849.842v45.304l-77.161 36.989c-17.914 8.585-29.489 26.964-29.489 46.825l.001 5.238h-17.191c-16.162 0-29.31 13.148-29.31 29.31v20.8c0 11.582 6.754 21.615 16.53 26.372v44.158c0 24.273 19.752 44.02 44.03 44.02h31.066v6.375c0 1.424.147 2.814.412 4.161l-69.598 15.217c-1.116.261-26.537 8.478-27.62 8.789-25.573 8.229-44.519 30.532-48.53 57.42l-12.979 91.02c-.585 4.101 2.265 7.899 6.366 8.483.359.051.715.076 1.068.076 3.673 0 6.882-2.701 7.416-6.442l6.094-42.739h62.28v41.68c0 4.142 3.358 7.5 7.5 7.5h.003s.002 0 .003 0c4.142 0 7.5-3.358 7.5-7.5v-41.68h175.856c4.142 0 7.5-3.358 7.5-7.5s-3.358-7.5-7.5-7.5h-175.857v-40.23h258.22v40.23h-47.152c-4.142 0-7.5 3.358-7.5 7.5s3.358 7.5 7.5 7.5h47.152v41.68c0 4.142 3.358 7.5 7.5 7.5h.003s.002 0 .003 0c4.142 0 7.5-3.358 7.5-7.5v-41.68h62.28l6.094 42.739c.534 3.742 3.742 6.442 7.416 6.442.352 0 .709-.025 1.068-.076 4.1-.585 6.95-4.383 6.365-8.483zm-66.071-134.151c12.608 4.026 23.187 12.441 30.097 23.299h-47.249v-28.776zm-176.618-35.992v-43.763h30.7v43.763zm-32.21 0c-1.735 0-3.31-.691-4.472-1.807-.169-.204-.349-.396-.538-.579-.908-1.113-1.454-2.533-1.454-4.078v-30.834c0-1.553.551-2.98 1.468-4.096.018-.02.035-.04.053-.06 1.187-1.41 2.962-2.308 4.944-2.308h17.209v43.763h-17.21zm77.91-43.763h17.209c3.564 0 6.464 2.9 6.464 6.464v30.834c0 3.564-2.9 6.464-6.464 6.464h-17.209zm28.804-11.571c-3.348-2.16-7.323-3.429-11.595-3.429h-95.119c-4.272 0-8.247 1.269-11.595 3.429-24.747-14.267-39.883-40.668-39.986-69.426l-.006-37.183h13.444v19.949c0 14.737 11.989 26.726 26.726 26.726h12.748c14.737 0 26.727-11.989 26.727-26.726v-3.821h12.001v18.931c0 4.142 3.358 7.5 7.5 7.5s7.5-3.358 7.5-7.5v-18.931h13.03v3.821c0 14.737 11.989 26.726 26.726 26.726h12.749c14.737 0 26.726-11.989 26.726-26.726v-19.949h12.415l-.006 37.184c.368 26.728-15.04 55.404-39.985 69.425zm86.496-72.055c0 7.891-6.419 14.31-14.31 14.31h-17.918c.466-3.84.718-7.736.718-11.678l.006-37.742h17.193c7.891 0 14.31 6.419 14.31 14.31v20.8zm-131.307-185.307 28.43-4.62c21.571-3.507 43.491 2.602 60.139 16.762 16.649 14.16 26.197 34.817 26.197 56.675v66.38h-14.961l.001-5.24c0-19.859-11.575-38.238-29.488-46.823l-77.162-36.989v-45.304c2.288-.193 4.57-.47 6.844-.841zm-92.521 96.66 78.178-37.476 78.179 37.476c12.739 6.106 20.971 19.175 20.971 33.295l-.001 5.797h-19.918c-4.142 0-7.5 3.358-7.5 7.5v27.449c0 6.466-5.26 11.726-11.726 11.726h-12.749c-6.466 0-11.726-5.26-11.726-11.726v-27.449c0-4.142-3.358-7.5-7.5-7.5s-7.5 3.358-7.5 7.5v8.627h-40.032v-8.627c0-4.142-3.358-7.5-7.5-7.5s-7.5 3.358-7.5 7.5v27.449c0 6.466-5.261 11.726-11.727 11.726h-12.748c-6.466 0-11.726-5.26-11.726-11.726v-27.449c0-4.142-3.358-7.5-7.5-7.5h-20.947l-.001-5.796c.001-14.12 8.233-27.19 20.973-33.296zm-67.472 67.847c0-7.891 6.419-14.31 14.31-14.31h17.193l.006 37.74c0 3.943.252 7.839.719 11.68h-17.918c-7.891 0-14.31-6.419-14.31-14.31zm45.56 120.35c-16.007 0-29.03-13.019-29.03-29.02v-41.22h18.744c6.571 22.735 21.452 42.327 42.206 54.841-.545 1.889-.854 3.877-.854 5.94v9.459zm-61.178 63.831 17.152-5.477v28.776h-47.248c6.909-10.858 17.488-19.273 30.096-23.299zm-42.988 78.529 4.746-33.281c.337-2.362.833-4.681 1.464-6.949h53.931v40.23zm75.146-55.23v-33.011l69.295-15.148c3.479 2.43 7.7 3.868 12.255 3.868h95.119c4.556 0 8.777-1.437 12.255-3.868l69.295 15.148v33.011zm273.225 55.23v-40.23h53.931c.63 2.269 1.127 4.587 1.464 6.949l4.746 33.281z"/><path d="m203.392 192.681c4.142 0 7.5-3.358 7.5-7.5v-5.21c0-4.142-3.358-7.5-7.5-7.5s-7.5 3.358-7.5 7.5v5.21c0 4.142 3.358 7.5 7.5 7.5z"/><path d="m309.624 192.516c4.142 0 7.5-3.358 7.5-7.5v-5.21c0-4.142-3.358-7.5-7.5-7.5s-7.5 3.358-7.5 7.5v5.21c0 4.142 3.358 7.5 7.5 7.5z"/><path d="m278.32 233.739c-3.541-2.149-8.154-1.021-10.303 2.519-2.575 4.242-7.069 6.775-12.022 6.775s-9.447-2.533-12.022-6.775c-2.149-3.54-6.762-4.668-10.303-2.519s-4.668 6.762-2.519 10.303c5.318 8.76 14.606 13.991 24.845 13.991s19.527-5.23 24.845-13.991c2.147-3.541 1.019-8.154-2.521-10.303z"/></g></g></svg>