<svg id="Capa_1" enable-background="new 0 0 512.002 512.002" height="512" viewBox="0 0 512.002 512.002" width="512" xmlns="http://www.w3.org/2000/svg"><g><g><path d="m358.305 108.67v279.08h-252.54v-279.08c0-55.88 45.29-101.17 101.17-101.17h50.2c55.87 0 101.17 45.29 101.17 101.17z" fill="#d19a6e"/><g fill="#c38c66"><path d="m358.305 289.32v98.43h-92.68l19.49-41.26 3.28-6.95c13.71-28.59 40.61-46.6 69.91-50.22z"/><path d="m174.394 256h73.1v85.359h-73.1z"/><path d="m108.188 147.635s121.912-17.766 154.828-70.07h21.09s-2.338 59.749 29.594 70.07l-.005 43.589c0 46.691-37.851 84.542-84.542 84.542h-36.419c-46.691 0-84.542-37.851-84.542-84.542z"/><path d="m257.135 7.5h-21.09c55.874 0 101.169 45.295 101.169 101.169v279.078h21.09v-279.078c0-55.874-45.295-101.169-101.169-101.169z"/></g><path d="m100.403 359.054-25.951 8.286c-22.265 7.109-38.504 26.323-41.803 49.462l-12.505 87.698h80.26v-145.446z" fill="#fd3581"/><path d="m74.452 367.34c-22.265 7.109-38.504 26.323-41.803 49.462l-12.506 87.698h59.169v-138.712z" fill="#fe5694"/><path d="m134.565 209.7h-29.08c-11.61 0-21.01-9.41-21.01-21.02v-20.03c0-11.61 9.4-21.02 21.01-21.02h23.79z" fill="#ffe5c2"/><path d="m134.565 209.7h-24.34c-1.33-5.95-2.03-12.13-2.03-18.48l-.01-43.59h21.09z" fill="#fed2a4"/><path d="m358.582 209.698h-31.311l7.519-62.063h23.792c11.606 0 21.014 9.408 21.014 21.014v20.034c.001 11.606-9.408 21.015-21.014 21.015z" fill="#ffe5c2"/><path d="m358.582 147.635h-21.09c11.606 0 21.014 9.408 21.014 21.014v20.034c0 11.606-9.408 21.014-21.014 21.014h21.09c11.606 0 21.014-9.408 21.014-21.014v-20.034c.001-11.606-9.408-21.014-21.014-21.014z" fill="#fed2a4"/><path d="m363.665 359.05v145.45h-263.26v-145.45l31.99-6.99 43.22-9.45c11.6-2.53 19.87-12.81 19.87-24.69v-61.92h73.1v61.92c0 11.88 8.27 22.16 19.87 24.69l17.75 3.88 25.47 5.57z" fill="#fe5694"/><path d="m195.484 256h73.1v61.92h-73.1z" fill="#ffe5c2"/><path d="m247.494 256h21.09v61.92h-21.09z" fill="#fed2a4"/><path d="m129.278 147.635s121.912-17.766 154.828-70.07c0 0 9.202 56.662 50.684 70.07l-.005 43.589c0 46.691-37.851 84.542-84.542 84.542h-36.419c-46.691 0-84.542-37.851-84.542-84.542z" fill="#ffe5c2"/><path d="m284.106 77.565c-4.131 6.564-9.665 12.583-16.182 18.092 6.263 17.803 19.582 43.512 45.776 51.977l-.005 43.589c0 46.691-37.851 84.542-84.542 84.542h21.09c46.691 0 84.542-37.851 84.542-84.542l.005-43.589c-41.482-13.406-50.684-70.069-50.684-70.069z" fill="#fed2a4"/><g fill="#ffc8dd"><ellipse cx="290.759" cy="207.882" rx="15.141" ry="8.553"/><ellipse cx="173.312" cy="207.882" rx="15.141" ry="8.553"/></g><path d="m232.034 317.92v44.923c0 15.539-7.838 30.029-20.843 38.534l-17.29 11.307c-20.45 13.373-47.784 8.443-62.273-11.233l-31.224-42.401 95.08-41.13z" fill="#f7f9fa"/><path d="m210.944 317.92v44.923c0 15.539-7.838 30.029-20.843 38.534l-17.29 11.307c-4.605 3.011-9.561 5.086-14.639 6.282 11.865 2.785 24.783.876 35.729-6.282l17.29-11.307c13.005-8.504 20.843-22.995 20.843-38.534v-44.923z" fill="#e9edf1"/><path d="m363.665 359.05-31.22 42.4c-14.49 19.68-41.83 24.61-62.28 11.23l-12.47-8.15-4.82-3.15c-13-8.51-20.84-23-20.84-38.54v-44.92h36.55l25.73 11.13z" fill="#f7f9fa"/><path d="m363.665 359.05v145.45h-153.2l47.23-99.97 12.47 8.15c20.45 13.38 47.79 8.45 62.28-11.23z" fill="#fd3581"/><path d="m363.665 359.05-31.22 42.4c-14.49 19.68-41.83 24.61-62.28 11.23l-12.47-8.15 27.42-58.04 3.28-6.95c1.76-3.67 3.74-7.17 5.92-10.49z" fill="#e9edf1"/><path d="m268.584 317.92h-21.09l95.08 41.13-31.224 42.401c-6.733 9.144-16.242 15.097-26.544 17.515 17.472 4.114 36.408-2.271 47.634-17.515l31.224-42.401z" fill="#e9edf1"/><path d="m483.052 422.77-39.14 81.64-.04.09h-212.32l74.65-158.01 3.28-6.95c21.41-44.63 74.95-63.47 119.58-42.06l11.93 5.71c44.63 21.41 63.47 74.95 42.06 119.58z" fill="#a6e7f0"/><path d="m440.992 303.19-11.93-5.71c-15.9-7.627-32.93-10.142-49.236-8.207 9.521 1.136 19.019 3.828 28.146 8.207l11.93 5.71c44.63 21.41 63.47 74.95 42.06 119.58l-39.14 81.64-.04.09h21.09l.04-.09 39.14-81.64c21.41-44.63 2.57-98.17-42.06-119.58z" fill="#6bd9e7"/><path d="m364.342 453.187-4.243-2.035c-29.395-14.096-41.798-49.352-27.702-78.747l7.296-15.214c8.625-17.986 30.197-25.575 48.183-16.95l45.559 21.847c17.986 8.625 25.575 30.197 16.95 48.183l-7.296 15.214c-14.096 29.395-49.352 41.798-78.747 27.702z" fill="#ffe5c2"/><path d="m433.434 362.088-45.559-21.847c-8.498-4.075-17.794-4.526-26.149-1.976 1.708.524 3.399 1.18 5.059 1.976l45.559 21.847c17.986 8.625 25.575 30.197 16.95 48.183l-7.296 15.214c-8.507 17.741-24.725 29.278-42.708 32.55 25.533 4.664 52.035-8.018 63.798-32.55l7.296-15.214c8.625-17.986 1.036-39.558-16.95-48.183z" fill="#fed2a4"/></g><g><path d="m100.403 447.725c-4.143 0-7.5 3.358-7.5 7.5v49.275c0 4.142 3.357 7.5 7.5 7.5s7.5-3.358 7.5-7.5v-49.275c0-4.142-3.357-7.5-7.5-7.5z"/><path d="m232.034 209.431h6.891c4.143 0 7.5-3.358 7.5-7.5 0-3.937-3.033-7.166-6.891-7.476v-11.929c0-4.142-3.357-7.5-7.5-7.5s-7.5 3.358-7.5 7.5v19.404c0 4.143 3.357 7.501 7.5 7.501z"/><path d="m172.593 160.789c-4.143 0-7.5 3.358-7.5 7.5v13.242c0 4.142 3.357 7.5 7.5 7.5s7.5-3.358 7.5-7.5v-13.242c0-4.142-3.357-7.5-7.5-7.5z"/><path d="m291.475 160.789c-4.143 0-7.5 3.358-7.5 7.5v13.242c0 4.142 3.357 7.5 7.5 7.5s7.5-3.358 7.5-7.5v-13.242c0-4.142-3.357-7.5-7.5-7.5z"/><path d="m254.359 223.348c-3.538-2.149-8.153-1.021-10.303 2.519-2.575 4.242-7.069 6.775-12.022 6.775s-9.447-2.533-12.022-6.775c-2.149-3.542-6.764-4.668-10.303-2.519-3.541 2.149-4.669 6.762-2.52 10.303 5.318 8.76 14.605 13.991 24.845 13.991s19.526-5.23 24.845-13.991c2.149-3.541 1.021-8.154-2.52-10.303z"/><path d="m444.23 296.425-11.924-5.707c-23.391-11.221-49.753-12.658-74.23-4.048-21.021 7.395-38.471 21.453-50.106 40.117l-31.884-13.795v-33.426c29.965-8.78 53.637-32.421 62.462-62.366h12.258v41.583c0 4.142 3.357 7.5 7.5 7.5s7.5-3.358 7.5-7.5v-42.512c12.236-3.206 21.29-14.36 21.29-27.591v-20.03c0-13.231-9.054-24.385-21.29-27.591v-32.389c.291-60.334-49.967-108.829-108.671-108.67h-50.2c-59.921 0-108.67 48.749-108.67 108.67v32.389c-12.236 3.206-21.29 14.36-21.29 27.591v20.03c0 13.231 9.054 24.385 21.29 27.591v135.532c-.661.395-25.367 8.093-26.095 8.392-24.839 7.931-43.267 29.734-46.946 55.547l-12.506 87.699c-.585 4.101 2.266 7.899 6.366 8.483.359.051.716.076 1.068.076 3.673 0 6.882-2.701 7.415-6.442l12.506-87.699c2.874-20.157 17.264-37.183 36.659-43.375l20.826-6.65 28.03 38.064c10.454 14.196 26.677 21.79 43.164 21.79 10.07 0 20.24-2.834 29.253-8.728l17.29-11.307c6.973-4.56 12.635-10.572 16.74-17.485 4.105 6.913 9.765 12.926 16.737 17.489l15.462 10.105-39.463 83.533c-1.77 3.745-.168 8.215 3.577 9.985 1.035.489 2.126.721 3.199.721 2.811 0 5.506-1.588 6.786-4.298l77.91-164.919c9.489-19.781 26.113-34.684 46.81-41.964s42.987-6.066 62.771 3.425l11.924 5.707c40.838 19.591 58.128 68.746 38.542 109.576l-39.141 81.64c-.032.067-.104.225-.134.293-1.679 3.787.051 8.172 3.837 9.851 3.729 1.652 8.099-.021 9.835-3.686l39.127-81.612c23.163-48.285 2.717-106.417-45.584-129.589zm-183.144 13.995h-58.101v-27.797c3.557.419 7.172.641 10.84.641h36.419c3.668 0 7.285-.222 10.842-.642zm-10.842-42.155h-36.419c-42.481 0-77.042-34.561-77.042-77.042l-.004-37.208c23.837-4.133 106.184-20.853 143.766-59.925 5.714 18.056 18.908 47.003 46.745 58.751l-.004 38.383c0 42.48-34.561 77.041-77.042 77.041zm121.851-99.615v20.03c0 7.455-6.061 13.52-13.51 13.52h-16.957c.43-3.6.657-7.262.657-10.976l.004-36.094h16.296c7.45 0 13.51 6.065 13.51 13.52zm-21.29-59.98v31.46h-14.776c-33.703-11.786-43.393-57.802-44.423-63.237v-55.32c34.642 13.759 59.199 47.613 59.199 87.097zm-143.87-93.67h50.2c6.675 0 13.187.707 19.471 2.041v58.266c-31.225 45.79-139.317 63.49-147.87 64.823h-15.471v-31.46c0-51.65 42.021-93.67 93.67-93.67zm-114.96 173.681v-20.03c0-7.455 6.061-13.52 13.51-13.52h16.294l.004 36.093c0 3.714.227 7.376.657 10.977h-16.955c-7.449 0-13.51-6.065-13.51-13.52zm21.29 28.52h12.256c8.825 29.946 32.498 53.588 62.464 62.367v33.425l-74.72 32.322zm143.718 177.904c-10.926-7.152-17.448-19.214-17.448-32.265 0-.007-.001-.013-.001-.019v-9.857c0-4.142-3.357-7.5-7.5-7.5s-7.5 3.358-7.5 7.5v9.879c0 13.054-6.522 25.112-17.447 32.257l-17.29 11.307c-17.108 11.188-40.006 7.059-52.13-9.403l-25.635-34.812 85.005-36.771h69.996l33.897 14.665-30.228 63.986z"/><path d="m398.854 379.47c-3.729-1.81-8.214-.251-10.021 3.475l-6.073 12.521c-1.808 3.727-.252 8.214 3.475 10.021 1.055.512 2.17.753 3.268.753 2.783 0 5.458-1.556 6.754-4.228l6.073-12.521c1.806-3.727.251-8.214-3.476-10.021z"/><path d="m388.201 417.895c-2.493 1.609-5.569 1.8-8.232.508s-4.419-3.826-4.697-6.779c-.389-4.124-4.046-7.15-8.171-6.763-4.123.389-7.151 4.047-6.763 8.17.774 8.216 5.665 15.269 13.084 18.868 3.267 1.584 6.756 2.37 10.23 2.37 4.416 0 8.809-1.268 12.688-3.774 3.479-2.248 4.479-6.89 2.23-10.37-2.247-3.479-6.892-4.476-10.369-2.23z"/><path d="m449.851 428.728 7.296-15.214c5.038-10.505 5.683-22.343 1.816-33.334-3.866-10.99-11.781-19.817-22.286-24.854l-45.56-21.847c-21.686-10.398-47.789-1.217-58.188 20.47l-7.295 15.214c-7.058 14.719-8.446 31.151-4.057 46.723v88.614c0 4.142 3.357 7.5 7.5 7.5s7.5-3.358 7.5-7.5v-61.589c5.662 6.171 12.499 11.273 20.278 15.004l4.242 2.034c30.823 15.871 74.052 1.631 88.754-31.221zm-42.887 19.842c-12.981 4.568-26.969 3.806-39.379-2.146l-4.242-2.034c-24.595-11.179-36.797-43.449-24.183-68.742l7.295-15.214c4.915-10.25 15.175-16.242 25.849-16.242 4.143 0 8.351.903 12.328 2.811l45.56 21.847c6.893 3.305 12.086 9.096 14.622 16.307 2.537 7.21 2.114 14.978-1.191 21.87l-7.296 15.215c-5.952 12.41-16.379 21.76-29.363 26.328z"/><circle cx="419.355" cy="405.169" r="7.5"/><circle cx="366.315" cy="379.589" r="7.5"/></g></g></svg>