<svg id="Capa_1" enable-background="new 0 0 512.001 512.001" height="512" viewBox="0 0 512.001 512.001" width="512" xmlns="http://www.w3.org/2000/svg"><g><g><path d="m220.744 124.543h-154.517l.118-65.102c0-15.166 12.294-27.46 27.46-27.46h99.596c15.166 0 27.46 12.294 27.46 27.46z" fill="#5d5360"/><path d="m193.402 31.98h-19.807c15.166 0 27.46 12.294 27.46 27.46l-.118 65.102h19.807l.118-65.102c0-15.165-12.294-27.46-27.46-27.46z" fill="#4b3f4e"/><path d="m233.256 482.016h-180.298v-215.357l66.077-13.973h49.137l65.084 13.973z" fill="#cdbfba"/><path d="m168.172 252.686h-19.807l65.083 13.973v215.357h19.808v-215.357z" fill="#b9acac"/><path d="m278.745 183.481h180.298l42.553 155.519h-265.403s42.552-162.264 42.552-155.519z" fill="#f7f9fa"/><g><path d="m278.746 183.481c0-.275-.072-.264-.208 0z" fill="#f7f9fa"/><path d="m459.044 183.481h-20.404l42.552 155.519h20.404z" fill="#e9edf1"/></g><path d="m87.999 98.99-13.465 25.552v51.058c0 19.37 15.702 35.072 35.073 35.072h67.994c19.37 0 35.072-15.702 35.072-35.072v-51.057l-13.31-25.258c-3.906-7.412-12.446-11.104-20.522-8.871l-28.425 7.859c-2.975.823-6.113.859-9.107.104l-33.184-8.362c-7.975-2.01-16.291 1.698-20.126 8.975z" fill="#fed2a4"/><g><path d="m199.363 99.285c-3.906-7.412-12.446-11.104-20.522-8.871l-6.215 1.718c2.866 1.637 5.302 4.067 6.929 7.153l13.31 25.258v51.057c0 19.37-15.703 35.073-35.073 35.073h19.807c19.37 0 35.073-15.703 35.073-35.073v-51.057z" fill="#ffbd86"/></g><path d="m74.531 166.261h-9.26c-11.52 0-20.859-9.339-20.859-20.859 0-11.52 9.339-20.859 20.859-20.859h9.26z" fill="#fed2a4"/><path d="m65.271 124.543c-2.626 0-5.128.506-7.443 1.391v38.936c2.314.886 4.817 1.391 7.443 1.391h9.26v-41.719h-9.26z" fill="#ffbd86"/><path d="m221.936 166.261h-9.26v-41.719h9.26c11.52 0 20.859 9.339 20.859 20.859 0 11.521-9.339 20.86-20.859 20.86z" fill="#fed2a4"/><path d="m221.936 124.543h-9.26v1.391c7.84 3 13.417 10.573 13.417 19.468 0 8.895-5.577 16.468-13.417 19.468v1.391h9.26c11.52 0 20.859-9.339 20.859-20.859 0-11.52-9.339-20.859-20.859-20.859z" fill="#ffbd86"/><path d="m119.035 210.672h49.137v42.014l-24.568 17.089-24.569-17.089z" fill="#fed2a4"/><path d="m148.365 210.672v42.014l-14.665 10.201 9.904 6.888 24.568-17.089v-42.014z" fill="#ffbd86"/><path d="m52.961 266.659v215.36h-45.46v-150.39c0-29.06 18.16-55.01 45.46-64.97z" fill="#cdbfba"/><path d="m33.153 277.881v204.138h19.807v-215.36c-7.32 2.671-13.975 6.5-19.807 11.222z" fill="#b9acac"/><path d="m233.256 266.659c27.296 9.956 45.457 35.912 45.457 64.966v32.804h-45.457z" fill="#b9acac"/><path d="m278.745 293.836c-27.296 9.956-45.457 35.911-45.457 64.966v32.804h45.457z" fill="#f7f9fa"/><path d="m278.745 293.836c-7.32 2.67-13.975 6.499-19.807 11.222v86.548h19.807z" fill="#e9edf1"/><path d="m278.745 391.606h-45.457v90.41l45.453.003 15-40.1z" fill="#ffe5c2"/><path d="m278.746 391.606h-19.808l14.995 50.313-14.999 40.099 19.807.001 15-40.1z" fill="#fed2a4"/><path d="m459.044 293.836c27.296 9.956 45.457 35.911 45.457 64.966v32.804h-45.457z" fill="#f7f9fa"/><path d="m459.044 293.836v11.222c15.915 12.887 25.65 32.481 25.65 53.744v32.804h19.807v-32.804c0-29.054-18.162-55.01-45.457-64.966z" fill="#e9edf1"/><path d="m459.044 391.606h45.457v90.41h-45.46l-15-40.097z" fill="#ffe5c2"/><path d="m484.693 391.606h19.807v90.41h-19.807z" fill="#fed2a4"/><path d="m406.041 282.458 24.53 5.27 28.47 6.11.003 97.768-15.001 50.311 14.998 40.101h-180.3l15-40.101-15-50.311v-97.768l28.52-6.03 25.44-5.38z" fill="#f7f9fa"/><path d="m459.044 391.606-.003-97.768-28.47-6.11-24.53-5.27-73.34-.03-.039.008 53.571.022 24.53 5.27 28.47 6.11.003 97.768-15.001 50.311 14.998 40.101h19.808l-14.998-40.101z" fill="#e9edf1"/><path d="m368.891 320.978v8.191c0 28.581-26.547 49.759-54.413 43.409l-35.765-8.15.028-70.59 28.52-6.03h61.63z" fill="#e9edf1"/><path d="m349.083 287.808v33.17 8.191c0 21.592-15.155 38.95-34.58 43.414 27.857 6.331 54.388-14.842 54.388-43.414v-8.191-33.17z" fill="#c8d2dc"/><path d="m368.891 320.978v8.191c0 28.581 26.547 49.759 54.413 43.409l35.765-8.15-.028-70.59-28.52-6.03h-61.63z" fill="#e9edf1"/><path d="m459.041 293.838-28.52-6.03h-19.807l28.52 6.03.028 70.59-35.765 8.15c-.009.002-.017.003-.026.005 6.287 1.445 13.019 1.548 19.833-.005l35.765-8.15z" fill="#c8d2dc"/><path d="m430.571 287.728c-13.2 20.03-35.9 33.25-61.68 33.25-25.75 0-48.42-13.18-61.63-33.17l25.44-5.38c7.06-1.5 12.12-7.73 12.12-14.96v-47.735h49.14v47.775c0 7.21 5.03 13.44 12.08 14.95z" fill="#ffe5c2"/><path d="m406.041 282.458c-7.05-1.51-12.08-7.74-12.08-14.95v-47.775h-19.807v47.775c0 7.21 5.03 13.44 12.08 14.95l24.53 5.27c-11.48 17.421-30.149 29.685-51.777 32.586 3.24.435 6.545.664 9.905.664 25.78 0 48.48-13.22 61.68-33.25z" fill="#fed2a4"/><path d="m143.604 269.775-27.026 29.538-23.973-41.038 26.43-5.589z" fill="#daf3f6"/><path d="m143.604 269.775 27.025 29.538 23.928-40.961-26.385-5.666z" fill="#daf3f6"/><path d="m168.172 252.686-4.672 3.25 11.25 2.416-16.21 27.748 12.089 13.213 23.928-40.961z" fill="#a6e7f0"/><path d="m116.578 299.313 27.026 82.778 27.025-82.778-27.025-29.538z" fill="#fe5694"/><path d="m143.604 269.775-9.904 10.825 17.121 18.713-17.121 52.443 9.904 30.335 27.025-82.778z" fill="#fd3581"/><path d="m52.958 266.659 45.323 115.432 44.826 50.694.497-50.694-27.026-82.778-23.973-41.038z" fill="#5d5360"/><path d="m116.578 299.313-23.973-41.038-17.629 3.728 21.795 37.31 27.025 82.778-.28 28.539 19.591 22.155.497-50.694z" fill="#4b3f4e"/><path d="m233.256 266.659-44.33 115.432-45.819 50.694.497-50.694 27.025-82.778 23.928-40.961z" fill="#5d5360"/><path d="m194.557 258.352-2.207 3.778 21.098 4.529-44.329 115.432-25.795 28.539-.217 22.155 45.819-50.694 44.33-115.432z" fill="#4b3f4e"/><path d="m410.836 87.471h-82.889v-36.488c0-11.6 9.404-21.004 21.004-21.004h40.882c11.6 0 21.004 9.404 21.004 21.004v36.488z" fill="#e9edf1"/><path d="m389.832 29.979h-19.807c11.6 0 21.003 9.404 21.003 21.004v36.488h19.807v-36.488c.001-11.6-9.403-21.004-21.003-21.004z" fill="#c8d2dc"/><path d="m459.044 183.481h-180.299v-48.706c0-42.001 34.049-76.05 76.05-76.05h28.198c42.001 0 76.05 34.049 76.05 76.05v48.706z" fill="#d19a6e"/><path d="m382.993 58.725h-19.807c42.001 0 76.05 34.049 76.05 76.05v48.706h19.807v-48.706c.001-42.001-34.048-76.05-76.05-76.05z" fill="#c38c66"/><path d="m315.041 193.439h-23.983c-11.52 0-20.859-9.339-20.859-20.859 0-11.52 9.339-20.859 20.859-20.859h9.26z" fill="#ffe5c2"/><path d="m300.318 151.72h-9.26c-2.625 0-5.127.506-7.441 1.391l.031 38.948c2.305.878 4.796 1.38 7.41 1.38h23.983z" fill="#fed2a4"/><path d="m438.461 151.72v17.06c0 38.146-30.923 69.07-69.07 69.07-38.146 0-69.07-30.923-69.07-69.07v-17.06s76.906-10.02 98.437-49.235c.001 0 10.475 39.343 39.703 49.235z" fill="#ffe5c2"/><path d="m447.724 193.439h-24.769l15.51-41.719h9.26c11.52 0 20.859 9.339 20.859 20.859-.001 11.521-9.34 20.86-20.86 20.86z" fill="#ffe5c2"/><g fill="#fed2a4"><path d="m447.724 151.72h-9.26l-.455 1.225c8.078 2.876 13.872 10.569 13.872 19.634 0 11.52-9.339 20.859-20.859 20.859h16.702c11.52 0 20.859-9.339 20.859-20.859 0-11.52-9.339-20.859-20.859-20.859z"/><path d="m398.759 102.485c-3.323 6.053-7.969 11.408-13.444 16.14 5.988 12.069 16.579 27.423 33.339 33.095v17.06c0 34.782-25.714 63.547-59.166 68.352 3.235.465 6.539.718 9.904.718 38.146 0 69.07-30.924 69.07-69.07v-17.06c-29.229-9.892-39.703-49.235-39.703-49.235z"/></g></g><g><path d="m52.961 374.477c-4.142 0-7.5 3.358-7.5 7.5v100.042c0 4.142 3.358 7.5 7.5 7.5s7.5-3.358 7.5-7.5v-100.042c0-4.142-3.358-7.5-7.5-7.5z"/><path d="m508.925 337.429c-.029-.137-.053-.273-.09-.41l-39.866-145.664c4.596-5.187 7.112-11.786 7.112-18.776 0-8.421-3.693-15.992-9.54-21.191v-16.61c0-33.439-19.755-62.338-48.2-75.679v-8.121c0-15.715-12.79-28.5-28.51-28.5h-40.88c-15.715 0-28.5 12.785-28.5 28.5v7.664c-28.984 13.125-49.21 42.304-49.21 76.136v17.525c-4.736 4.467-8.59 12.613-8.54 20.276 0 6.5 2.203 12.492 5.895 17.28-2.796 9.505-7.516 26.575-14.072 50.899-1.078 4 1.291 8.115 5.29 9.193.654.176 1.31.26 1.956.26 3.307 0 6.335-2.205 7.237-5.55 5.474-20.309 9.65-35.502 12.478-45.39 3.603 1.802 13.884 1.781 18.442 1.667 7.641 16.439 20.943 29.723 37.393 37.344v29.186c0 2.82-2.029 6.362-6.171 7.622-7.399 1.944-53.436 10.419-58.453 13.077-8.633-12.681-22.736-23.811-37.866-28.843l-59.158-12.7v-28.453c24.427 1.151 45.566-19.564 44.5-44.411 15.653 1.004 30.202-12.11 30.123-28.359 0-13.464-9.435-24.759-22.039-27.641l.106-58.321c0-19.277-15.683-34.96-34.96-34.96h-99.597c-19.277 0-34.96 15.683-34.96 34.946l-.106 58.384c-12.498 2.959-21.828 14.203-21.828 27.592-.091 15.846 13.843 29.224 30.122 28.359-1.105 24.442 19.652 45.51 44.501 44.411v28.434l-60.129 12.715c-30.168 10.205-51.539 40.048-51.405 72.308v150.39c0 4.142 3.358 7.5 7.5 7.5s7.5-3.358 7.5-7.5v-150.39c0-22.04 11.885-42.238 30.46-53.172v68.458c0 4.142 3.358 7.5 7.5 7.5s7.5-3.358 7.5-7.5v-40.627l30.839 78.543c.32.816.782 1.57 1.362 2.227l42.945 48.567v46.391c0 4.142 3.358 7.5 7.5 7.5s7.5-3.358 7.5-7.5v-46.345l43.884-48.552c.619-.685 1.106-1.478 1.438-2.34l29.828-77.671v174.907c0 4.142 3.358 7.5 7.5 7.5.005 0 .011-.001.016-.001s.011.001.016.001c4.142 0 7.5-3.358 7.5-7.5v-82.911h32.361l12.685 42.544-14.118 37.742c-1.452 3.879.517 8.201 4.397 9.652.866.324 1.753.478 2.626.478 3.039 0 5.898-1.861 7.025-4.875l13.178-35.23h81.931c4.142 0 7.5-3.358 7.5-7.5s-3.358-7.5-7.5-7.5h-81.543l-13.085-43.887v-16.691l26.569 6.054c13.792 3.403 31.831-.001 43.994-10.054 4.888-3.899 8.943-8.562 12.082-13.741 3.14 5.18 7.195 9.842 12.083 13.741 12.268 9.619 27.921 13.589 43.993 10.054l26.574-6.055v16.678l-13.089 43.901h-22.403c-4.142 0-7.5 3.358-7.5 7.5s3.358 7.5 7.5 7.5h22.789l13.178 35.23c1.127 3.014 3.986 4.875 7.025 4.875.873 0 1.761-.153 2.626-.478 3.88-1.451 5.849-5.772 4.397-9.652l-14.118-37.742 12.685-42.544h32.369v82.911c0 4.142 3.358 7.5 7.5 7.5s7.5-3.358 7.5-7.5v-123.212c.002-7.35-1.073-14.531-3.074-21.373zm-47.312-50.639c-.274-.084-.452-.154-1.04-.293l-52.962-11.372c-3.564-.764-6.151-3.967-6.151-7.617v-29.225c16.451-7.621 29.753-20.906 37.395-37.345 6.208-.143 10.107.576 16.871-1.145l27.051 98.839c-6.28-4.969-13.389-9.006-21.164-11.842zm-13.892-127.57c7.367 0 13.36 5.993 13.36 13.36.299 7.75-7.922 14.764-17.082 13.36 1.269-5.521 1.963-11.259 1.963-17.159v-9.561zm3.82-24.441v9.705c-1.475-.349-9.251-.259-11.723-.265-22.079-8.279-31.925-37.461-33.558-42.808v-31.11c26.378 9.549 45.281 34.845 45.281 64.478zm-116.09-83.8c0-7.444 6.056-13.5 13.5-13.5h40.88c7.449 0 13.51 6.056 13.51 13.5v2.768c-6.517-1.637-13.332-2.518-20.35-2.518h-28.2c-6.658 0-13.128.806-19.34 2.284zm-49.21 83.8c0-37.798 30.751-68.55 68.55-68.55h28.2c2.8 0 5.555.189 8.268.516v33.729c-19.851 32.688-85.429 42.874-91.455 43.745-5.84.142-7.41-.377-13.563.414zm4.82 51.16c-7.367 0-13.36-5.993-13.36-13.36-.037-6.567 6.194-14.251 15.121-13.36v9.561c0 5.9.693 11.639 1.963 17.159zm16.761-17.159v-10.654c17.344-3.058 64.348-13.502 88.759-39.99 5.63 12.52 16.378 30.272 34.38 38.646v11.998c0 33.949-27.62 61.569-61.57 61.569s-61.569-27.62-61.569-61.569zm44.498 98.69v-24.062c5.494 1.256 11.202 1.942 17.071 1.942 5.868 0 11.576-.686 17.069-1.942v24.101c0 10.677 7.574 20.049 18.005 22.283l12.796 2.75c-12.434 13.27-29.834 20.938-48.371 20.938-18.482 0-35.843-7.627-48.271-20.829l13.64-2.884c10.466-2.225 18.061-11.602 18.061-22.297zm-92.892 27.922c-7.243 4.931-13.541 11.043-18.668 18.012v-34.954c7.311 4.291 13.67 10.062 18.668 16.942zm-141.51-8.655-13.596-23.274 13.092-2.768 14.869 10.342zm37.006-15.7 14.858-10.334 13.076 2.808-13.569 23.227zm-29.857 30.109 18.537-20.261 18.536 20.261-18.537 56.778zm110.229-155.744c.036 7.341-6.955 14.131-15.119 13.359v-26.719c7.041-.812 15.111 5.074 15.119 13.36zm-141.491-105.922h99.596c11.006 0 19.96 8.954 19.96 19.946l-.091 50.163-7.273-13.801c-5.507-10.451-17.769-15.752-29.155-12.604l-28.425 7.859c-1.72.476-3.544.497-5.276.061l-33.184-8.362c-11.37-2.866-23.128 2.379-28.594 12.751l-7.61 14.442.092-50.495c0-11.006 8.954-19.96 19.96-19.96zm-26.775 119.282c-7.088.87-15.149-5.239-15.119-13.359-.023-7.13 6.837-14.224 15.119-13.359zm15.004 16.837v-49.202l12.6-23.911c2.229-4.229 7.023-6.367 11.66-5.2l33.185 8.363c4.246 1.069 8.72 1.017 12.937-.148l28.425-7.859c4.642-1.284 9.643.878 11.888 5.139l12.445 23.616v49.202c0 15.204-12.369 27.573-27.572 27.573h-67.994c-15.205 0-27.574-12.369-27.574-27.573zm78.639 42.573v30.595l-17.069 11.872-17.069-11.872v-30.595zm-97.496 53.992 25.683-5.431 20.837 35.67 26.395 80.846-.294 29.949-31.021-35.082zm119.249 105.934-31.626 34.99.292-29.768 26.418-80.917 20.784-35.578 24.819 5.328zm58.362-19.296c0-22.036 11.88-42.23 30.448-53.163l.005 78.467h-30.453zm106.666-.69c-8.855 7.064-20.268 9.67-31.308 7.155l-29.901-6.813v-58.536c-.11.023 17.584-3.718 17.743-3.751 13.84 18.329 34.632 29.876 57.402 31.967.392 10.506-4.812 22.908-13.936 29.978zm74.18 7.155c-21.807 5.643-46.534-13.188-45.243-37.133 22.772-2.09 43.557-13.637 57.397-31.968l17.753 3.753v58.534zm44.91 18.839.002-78.471c18.572 10.932 30.455 31.128 30.455 53.168v25.304h-30.457z"/><path d="m143.604 158.19c4.142 0 7.5-3.358 7.5-7.5v-16.916c0-4.142-3.358-7.5-7.5-7.5s-7.5 3.358-7.5 7.5v16.916c0 4.142 3.358 7.5 7.5 7.5z"/><path d="m143.604 190.146c10.585 0 20.187-5.407 25.685-14.464 2.149-3.541 1.021-8.153-2.52-10.303-3.54-2.149-8.153-1.021-10.303 2.52-2.755 4.538-7.563 7.248-12.862 7.248s-10.108-2.709-12.863-7.248c-2.148-3.541-6.762-4.669-10.303-2.52s-4.669 6.762-2.52 10.303c5.498 9.057 15.1 14.464 25.686 14.464z"/><path d="m368.895 182.981c4.142 0 7.5-3.358 7.5-7.5v-9.916c0-4.142-3.358-7.5-7.5-7.5s-7.5 3.358-7.5 7.5v9.916c0 4.142 3.358 7.5 7.5 7.5z"/><path d="m388.902 205.072c2.149-3.541 1.022-8.153-2.519-10.303-3.541-2.149-8.153-1.021-10.303 2.519-1.54 2.536-4.225 4.05-7.185 4.05s-5.646-1.514-7.185-4.049c-2.15-3.541-6.763-4.669-10.303-2.52-3.541 2.149-4.669 6.762-2.52 10.303 4.282 7.055 11.761 11.266 20.007 11.266s15.725-4.212 20.008-11.266z"/><circle cx="108.57" cy="137.063" r="7.5"/><circle cx="178.64" cy="137.063" r="7.5"/><circle cx="333.906" cy="171.853" r="7.5"/><circle cx="403.975" cy="171.853" r="7.5"/></g></g></svg>