<svg id="Capa_1" enable-background="new 0 0 512.003 512.003" height="512" viewBox="0 0 512.003 512.003" width="512" xmlns="http://www.w3.org/2000/svg"><g><g><path d="m325.961 295.01v209.49h-244.75v-209.49l92.48-17h59.79z" fill="#f7f9fa"/><path d="m325.961 377.1v127.4h-120.65v-48.64c0-14.49 4.53-28.21 12.46-39.55 7.94-11.34 19.27-20.3 32.89-25.27l58.93-13.94z" fill="#e9edf1"/><path d="m233.479 278.014h-20.519l92.482 17v209.486h20.52v-209.486z" fill="#e9edf1"/><path d="m81.214 295.014-21.224 6.777c-18.209 5.814-31.49 21.528-34.188 40.452l-10.228 83.617h65.639v-130.846z" fill="#a2aee6"/><path d="m60.694 301.566v124.294h20.52v-130.846z" fill="#8795de"/><path d="m325.962 295.014 21.224 6.777c18.209 5.814 31.49 21.528 34.188 40.452l10.227 83.618h-65.639z" fill="#e9edf1"/><path d="m314.251 135.194h-221.327v-77.594c0-27.669 22.43-50.099 50.099-50.099h121.129c27.669 0 50.099 22.43 50.099 50.099z" fill="#5d5360"/><path d="m264.152 7.5h-20.52c27.669 0 50.099 22.43 50.099 50.099v77.595h20.52v-77.594c0-27.669-22.43-50.1-50.099-50.1z" fill="#4b3f4e"/><path d="m286.628 86.587v97.64c0 23.567-19.105 42.671-42.671 42.671h-80.739c-23.567 0-42.671-19.105-42.671-42.671v-97.64c0-8.416 6.823-15.239 15.239-15.239h17.722c8.88 12.354 23.164 19.678 38.378 19.678h23.402c15.214 0 29.498-7.324 38.378-19.678h17.722c8.418-.001 15.24 6.822 15.24 15.239z" fill="#fed2a4"/><g><path d="m171.367 91.025h20.52c-15.214 0-29.498-7.324-38.378-19.678h-17.723c-.893 0-1.763.092-2.614.24 8.892 12.206 23.082 19.438 38.195 19.438z" fill="#fed2a4"/><path d="m271.389 71.347h-17.722c-.059.082-.124.158-.184.24 7.168 1.242 12.625 7.476 12.625 14.999v97.64c0 23.567-19.104 42.671-42.671 42.671h20.52c23.567 0 42.671-19.104 42.671-42.671v-97.64c0-8.416-6.822-15.239-15.239-15.239z" fill="#ffbd86"/></g><path d="m120.543 172.865h-22.413c-9.513 0-17.225-7.712-17.225-17.225v-16.308c0-9.513 7.712-17.225 17.225-17.225h22.413z" fill="#fed2a4"/><path d="m100.023 122.108h20.52v50.757h-20.52z" fill="#ffbd86"/><path d="m309.045 172.865h-22.413v-50.757h22.413c9.513 0 17.225 7.712 17.225 17.225v16.308c0 9.512-7.712 17.224-17.225 17.224z" fill="#fed2a4"/><path d="m309.045 122.108h-20.52c9.513 0 17.225 7.712 17.225 17.225v16.308c0 9.513-7.712 17.225-17.225 17.225h20.52c9.513 0 17.225-7.712 17.225-17.225v-16.308c0-9.513-7.712-17.225-17.225-17.225z" fill="#ffbd86"/><path d="m173.696 226.898h59.784v51.116l-29.892 20.792-29.892-20.792z" fill="#fed2a4"/><path d="m212.96 226.898v51.116l-19.632 13.655 10.26 7.137 29.891-20.792v-51.116z" fill="#ffbd86"/><path d="m203.588 298.806 16.973 16.951c3.928 3.923 10.395 3.561 13.86-.777l25.627-32.081-26.568-4.884z" fill="#6bd9e7"/><path d="m203.588 298.806-16.973 16.951c-3.928 3.923-10.395 3.561-13.86-.777l-25.627-32.081 26.568-4.884z" fill="#a6e7f0"/><path d="m15.574 425.86h65.639v78.64h-65.639z" fill="#fed2a4"/><path d="m60.694 425.86h20.52v78.64h-20.52z" fill="#ffbd86"/><path d="m292.708 217.733v82.457c0 19.327 15.667 34.994 34.994 34.994h67.842c19.327 0 34.994-15.667 34.994-34.994v-82.457z" fill="#fed2a4"/><path d="m410.017 217.733v82.457c0 19.327-15.667 34.994-34.994 34.994h20.52c19.327 0 34.994-15.667 34.994-34.994v-82.457z" fill="#ffbd86"/><path d="m292.705 290.873h-18.491c-6.385 0-11.56-5.176-11.56-11.56v-18.504c0-6.385 5.176-11.56 11.56-11.56h18.491z" fill="#fed2a4"/><path d="m275.513 249.247h17.192v41.625h-17.192z" fill="#ffbd86"/><path d="m447.133 290.873h-16.593v-41.625h16.593c7.433 0 13.459 6.026 13.459 13.459v14.708c0 7.432-6.026 13.458-13.459 13.458z" fill="#fed2a4"/><path d="m447.133 249.247h-16.593v.03c7.153.316 12.859 6.198 12.859 13.428v14.708c0 7.231-5.707 13.113-12.859 13.428v.03h16.593c7.433 0 13.458-6.026 13.458-13.459v-14.708c.001-7.431-6.025-13.457-13.458-13.457z" fill="#ffbd86"/><g><path d="m451.074 504.5h-179.894v-113.455l58.929-13.942h63.027l57.938 13.942z" fill="#a6e7f0"/><path d="m393.136 377.103h-20.52l57.937 13.942v113.455h20.52v-113.455z" fill="#6bd9e7"/><path d="m330.109 335.184h63.027v41.92c-14.735 10.249-48.292 10.249-63.027 0z" fill="#fed2a4"/><path d="m372.616 335.184v41.92c-5.257 3.657-12.914 6.002-21.254 7.049 15.034 1.888 32.296-.456 41.774-7.049v-41.92z" fill="#ffbd86"/></g><path d="m271.18 391.045c-27.234 9.933-45.355 35.831-45.355 64.82v15.768h45.355z" fill="#a6e7f0"/><path d="m271.18 391.045c-7.62 2.779-14.524 6.81-20.52 11.806v68.782h20.52z" fill="#6bd9e7"/><path d="m225.825 471.633h45.355v32.867h-45.355z" fill="#fed2a4"/><path d="m250.66 471.633h20.52v32.867h-20.52z" fill="#ffbd86"/><path d="m451.074 391.045c27.234 9.933 45.355 35.831 45.355 64.82v15.768h-45.355z" fill="#a6e7f0"/><path d="m451.074 391.045v11.806c15.434 12.862 24.835 32.135 24.835 53.014v15.768h20.52v-15.768c0-28.989-18.121-54.887-45.355-64.82z" fill="#6bd9e7"/><path d="m451.074 471.633h45.355v32.867h-45.355z" fill="#fed2a4"/><path d="m475.909 471.633h20.52v32.867h-20.52z" fill="#ffbd86"/><path d="m292.708 217.733v-30.188c0-15.68 12.712-28.392 28.392-28.392h81.048c15.681 0 28.392 12.712 28.392 28.392v30.188 31.514l-78.324-31.514v25.26z" fill="#5d5360"/><g fill="#4b3f4e"><path d="m331.697 234.283 20.52 8.71v-25.26h-20.52z"/><path d="m402.148 159.153h-20.52c15.681 0 28.392 12.712 28.392 28.392v30.188 23.258l20.52 8.256v-31.514-30.188c.001-15.681-12.711-28.392-28.392-28.392z"/></g><path d="m271.182 471.636h179.893v32.867h-179.893z" fill="#a2aee6"/><path d="m430.555 471.636h20.52v32.868h-20.52z" fill="#8795de"/></g><g><path d="m203.587 166.652h5.636c4.143 0 7.5-3.357 7.5-7.5 0-3.498-2.396-6.438-5.636-7.267v-8.603c0-4.143-3.357-7.5-7.5-7.5s-7.5 3.357-7.5 7.5v15.869c0 4.144 3.358 7.501 7.5 7.501z"/><path d="m154.975 124.14c-4.143 0-7.5 3.357-7.5 7.5v10.829c0 4.143 3.357 7.5 7.5 7.5s7.5-3.357 7.5-7.5v-10.829c0-4.143-3.357-7.5-7.5-7.5z"/><path d="m252.201 149.969c4.143 0 7.5-3.357 7.5-7.5v-10.829c0-4.143-3.357-7.5-7.5-7.5s-7.5 3.357-7.5 7.5v10.829c0 4.142 3.357 7.5 7.5 7.5z"/><path d="m203.587 200.813c13.115 0 25.012-6.699 31.824-17.922 2.149-3.541 1.021-8.153-2.52-10.303-3.539-2.148-8.153-1.022-10.303 2.52-4.069 6.703-11.173 10.705-19.002 10.705s-14.932-4.002-19.001-10.705c-2.149-3.542-6.764-4.668-10.303-2.52-3.541 2.149-4.669 6.762-2.52 10.303 6.815 11.223 18.711 17.922 31.825 17.922z"/><path d="m453.643 383.999c-.629-.293-52.048-12.527-53.007-12.805v-28.826c21.038-2.526 37.401-20.471 37.401-42.178v-1.816h9.096c11.557 0 20.958-9.402 20.958-20.959v-14.708c0-11.557-9.401-20.959-20.958-20.959h-9.093v-54.202c0-19.791-16.101-35.893-35.892-35.893h-68.378v-12.323c0-8.988-4.825-16.868-12.02-21.195v-60.534c.001-31.761-25.837-57.601-57.598-57.601h-71.297c-4.143 0-7.5 3.357-7.5 7.5s3.357 7.5 7.5 7.5h71.297c23.489 0 42.6 19.11 42.6 42.601v57.01h-12.623v-28.024c0-12.538-10.201-22.739-22.739-22.739h-17.723c-2.414 0-4.681 1.162-6.09 3.122-7.451 10.367-19.521 16.556-32.288 16.556h-23.402c-12.767 0-24.837-6.188-32.288-16.556-1.409-1.96-3.676-3.122-6.09-3.122h-17.722c-12.538 0-22.739 10.201-22.739 22.739v28.021h-12.626v-57.007c0-23.49 19.11-42.601 42.6-42.601h14.716c4.143 0 7.5-3.357 7.5-7.5s-3.357-7.5-7.5-7.5h-14.716c-31.761 0-57.6 25.84-57.6 57.601v60.533c-7.193 4.329-12.016 12.211-12.016 21.2v16.308c0 13.633 11.092 24.725 24.725 24.725h14.917c-2.07 30.033 22.929 55.628 53.148 54.032v37.366c-1.968.432-85.348 15.556-87.264 16.107l-21.224 6.776c-20.809 6.645-36.247 24.912-39.332 46.538-.007.049-.014.099-.02.148l-10.226 83.616c-.014.144-.025.302-.056.91v78.64c0 4.143 3.357 7.5 7.5 7.5s7.5-3.357 7.5-7.5v-71.14h50.637v71.14c0 4.143 3.357 7.5 7.5 7.5h.001s.001 0 .001 0c4.143 0 7.5-3.357 7.5-7.5v-203.243l55.352-10.175 22.83 28.579c2.343 2.951 7.654 6.364 13.135 6.319 4.439 0 8.728-1.764 11.885-4.917l4.173-4.168v43.091c0 4.143 3.357 7.5 7.5 7.5s7.5-3.357 7.5-7.5v-43.091l4.173 4.168c5.888 6.134 18.561 6.93 25.02-1.404l21.046-26.345c3.397 3.129 7.916 5.058 12.888 5.058h10.994c-1.011 21.811 15.811 41.503 37.401 43.995v28.803c-.769.234-53.088 12.46-53.998 12.828-30.078 10.97-50.286 39.851-50.286 71.866v48.636c0 4.143 3.357 7.5 7.5 7.5s7.5-3.357 7.5-7.5v-25.367h30.355v25.367c0 1.554.473 2.998 1.282 4.195 1.348 1.996 3.63 3.308 6.22 3.308h179.894c4.143 0 7.5-3.357 7.5-7.5v-25.37h30.353v25.367c0 4.143 3.357 7.5 7.5 7.5s7.5-3.357 7.5-7.5v-48.635c-.002-32.016-20.21-60.897-50.287-71.866zm-340.6-218.634h-14.913c-5.362 0-9.725-4.362-9.725-9.725v-16.308c0-5.362 4.362-9.726 9.725-9.726h14.913zm330.531 298.771h-24.151c-4.143 0-7.5 3.357-7.5 7.5s3.357 7.5 7.5 7.5h24.151v17.864h-164.892v-17.864h105.563c4.143 0 7.5-3.357 7.5-7.5s-3.357-7.5-7.5-7.5h-105.565v-67.158l50.148-11.864c8.642 4.81 20.713 7.222 32.794 7.222 12.074 0 24.138-2.409 32.779-7.214l49.172 11.832v67.182zm-105.965-121.452h48.027v30.12c-12.469 6.02-35.559 6.02-48.027 0zm115.482-79.978v14.708c0 3.286-2.673 5.959-5.958 5.959h-9.093v-26.626h9.093c3.285 0 5.958 2.673 5.958 5.959zm-30.05-75.161-.003 50.599-68.021-27.369c-.903-.363-1.854-.542-2.799-.542-1.477 0-2.941.436-4.199 1.285-2.064 1.395-3.302 3.724-3.302 6.215v13.929l-44.509-18.893v-25.225c0-11.521 9.372-20.893 20.893-20.893h81.049c11.518.001 20.891 9.373 20.891 20.894zm-167.888 73.263v13.563l-14.173-2.606v-37.367c17.123 1.044 34.928-7.89 44.228-21.661v29.01h-10.994c-10.51 0-19.061 8.551-19.061 19.061zm53.889-131.198c5.365 0 9.729 4.36 9.729 9.72v12.406c-9.8.631-18.536 5.211-24.64 12.163v-34.289zm-180.995 54.617v-97.64c0-4.268 3.472-7.739 7.739-7.739h14.053c10.348 12.389 25.787 19.678 42.047 19.678h23.402c16.26 0 31.699-7.289 42.047-19.678h14.054c4.268 0 7.739 3.472 7.739 7.739v97.64c0 19.394-15.777 35.171-35.171 35.171h-80.739c-19.393-.001-35.171-15.778-35.171-35.171zm97.933 50.17v39.698l-22.393 15.574-22.392-15.574v-39.698zm-201.933 183.963 9.188-75.129c2.302-15.939 13.691-29.396 29.035-34.296l11.44-3.653v113.078zm157.268-107.91c-.476.474-1.02.547-1.384.527-.37-.021-.898-.155-1.316-.679l-17.806-22.29 11.169-2.053 19.961 13.884zm47.245-.151c-.418.523-.946.658-1.315.679-.368.02-.91-.053-1.385-.527l-10.624-10.61 14.069-9.785 5.893-4.098 11.17 2.053zm41.593-30.987v-18.505c0-2.239 1.821-4.061 4.061-4.061h10.991v26.626h-10.991c-2.24.001-4.061-1.82-4.061-4.06zm30.055 20.877v-71.125l49.078 20.832c2.318.984 4.972.739 7.07-.649s3.36-3.737 3.36-6.254v-14.158l63.321 25.478v45.877c0 15.16-12.334 27.494-27.494 27.494h-67.842c-15.159 0-27.493-12.334-27.493-27.495zm-66.883 163.944v-8.268c0-21.976 11.843-42.113 30.355-53.021v61.288h-30.355zm225.249 0v-61.288c18.513 10.907 30.354 31.045 30.354 53.021v8.268h-30.354z"/><path d="m362.125 281.521c4.143 0 7.5-3.357 7.5-7.5v-4.972c0-4.143-3.357-7.5-7.5-7.5s-7.5 3.357-7.5 7.5v4.972c0 4.143 3.357 7.5 7.5 7.5z"/><path d="m362.125 314.973c8.262 0 15.755-4.219 20.046-11.286 2.149-3.541 1.021-8.154-2.519-10.304-3.541-2.147-8.153-1.022-10.304 2.519-1.548 2.55-4.248 4.071-7.224 4.071s-5.676-1.521-7.224-4.071c-2.149-3.541-6.761-4.668-10.304-2.519-3.54 2.149-4.668 6.763-2.519 10.304 4.293 7.067 11.786 11.286 20.048 11.286z"/><circle cx="397.261" cy="270.386" r="7.5"/><circle cx="326.992" cy="270.386" r="7.5"/></g></g></svg>