<svg id="Capa_1" enable-background="new 0 0 512 512" height="512" viewBox="0 0 512 512" width="512" xmlns="http://www.w3.org/2000/svg"><g><g><path d="m494.803 398.508h-477.606c-5.355 0-9.697-4.341-9.697-9.697v-136.065c0-5.355 4.341-9.697 9.697-9.697h477.606c5.355 0 9.697 4.341 9.697 9.697v136.065c0 5.356-4.341 9.697-9.697 9.697z" fill="#f7f9fa"/><path d="m133.76 243.049h205.319v155.459h-205.319z" fill="#e9edf1"/><path d="m494.803 243.049h-19.581c5.355 0 9.697 4.342 9.697 9.697v136.065c0 5.355-4.341 9.697-9.697 9.697h19.581c5.355 0 9.697-4.342 9.697-9.697v-136.065c0-5.355-4.341-9.697-9.697-9.697z" fill="#e9edf1"/><path d="m153.341 243.049h205.319v155.459h-205.319z" fill="#d19a6e"/><path d="m339.078 243.049h19.581v155.459h-19.581z" fill="#c38c66"/><path d="m323.096 320.779h35.563v77.729h-35.563z" fill="#a2aee6"/><path d="m339.201 320.779h19.458v77.729h-19.458z" fill="#8795de"/><path d="m287.964 320.779h35.132v77.729h-35.132z" fill="#95d6a4" transform="matrix(-1 0 0 -1 611.061 719.287)"/><path d="m303.638 320.779h19.458v77.729h-19.458z" fill="#78c2a4"/><path d="m238.824 285.76h-85.483v35.019h93.146v-27.356c0-4.233-3.431-7.663-7.663-7.663z" fill="#a6e7f0"/><path d="m238.824 285.76h-19.458c4.232 0 7.662 3.431 7.662 7.663v27.356h19.458v-27.356c.001-4.233-3.43-7.663-7.662-7.663z" fill="#6bd9e7"/><g><path d="m74.478 398.508h40.856l-25.771 58.676h-31.428z" fill="#d19a6e"/><path d="m95.711 398.508-25.771 58.676h19.623l25.771-58.676z" fill="#c38c66"/><path d="m437.522 398.508h-40.856l25.771 58.676h31.428z" fill="#d19a6e"/><path d="m437.523 398.508h-19.582l16.343 58.676h19.581z" fill="#c38c66"/></g><path d="m397.151 54.816h-282.302c-1.916 0-3.469 1.553-3.469 3.469v147c0 1.916 1.553 3.469 3.469 3.469h282.303c1.916 0 3.469-1.553 3.469-3.469v-147c0-1.916-1.554-3.469-3.47-3.469z" fill="#5d5360"/><path d="m397.151 54.816h-19.581c1.916 0 3.469 1.553 3.469 3.469v147c0 1.916-1.553 3.469-3.469 3.469h19.581c1.916 0 3.469-1.553 3.469-3.469v-147c.001-1.916-1.553-3.469-3.469-3.469z" fill="#4b3f4e"/></g><g><path d="m494.803 235.549h-101.05c-4.142 0-7.5 3.357-7.5 7.5s3.358 7.5 7.5 7.5h101.05c1.211 0 2.197.985 2.197 2.197v136.065c0 1.211-.985 2.196-2.197 2.196h-128.644v-147.958c0-4.143-3.358-7.5-7.5-7.5h-35.608l-8.373-19.294h82.474c6.048 0 10.969-4.921 10.969-10.97v-147c0-6.048-4.921-10.969-10.969-10.969h-210.639c-4.142 0-7.5 3.357-7.5 7.5s3.358 7.5 7.5 7.5h206.607v138.938h-274.241v-138.938h32.457c4.142 0 7.5-3.357 7.5-7.5s-3.358-7.5-7.5-7.5h-36.488c-6.048 0-10.969 4.921-10.969 10.969v147c0 6.049 4.921 10.97 10.969 10.97h82.474l-8.373 19.294h-171.752c-9.483 0-17.197 7.715-17.197 17.197v136.065c0 9.482 7.714 17.196 17.197 17.196h47.406l-13.693 49.164c-.629 2.259-.166 4.682 1.252 6.549s3.628 2.964 5.973 2.964h31.428c2.976 0 5.67-1.76 6.867-4.484l23.801-54.191h271.539l23.801 54.191c1.196 2.725 3.891 4.484 6.867 4.484h31.428c2.345 0 4.554-1.097 5.973-2.964 1.418-1.867 1.881-4.29 1.252-6.549l-13.693-49.163h47.406c9.482 0 17.197-7.714 17.197-17.196v-136.066c-.001-9.482-7.715-17.197-17.198-17.197zm-281.13-19.294h84.653l8.373 19.294h-101.399zm137.486 34.294v62.729h-97.172v-19.856c0-8.36-6.802-15.162-15.163-15.162h-77.983v-27.711zm-190.318 42.711h77.983c.09 0 .163.072.163.162v19.856h-78.146zm-145.841 95.552v-136.066c0-1.212.985-2.197 2.197-2.197h128.644v140.459h-128.644c-1.212 0-2.197-.986-2.197-2.196zm69.666 60.872h-16.656l12.165-43.676h23.674zm76.175-121.406h119.624v62.729h-119.624zm134.623 0h20.132v62.729h-20.132zm35.132 62.73v-62.729h20.563v62.729zm113.394 58.676h-16.656l-19.183-43.676h23.674z"/><path d="m245.648 94.063-22.819 22.819c-2.929 2.93-2.929 7.678 0 10.607 1.464 1.464 3.384 2.196 5.303 2.196s3.839-.732 5.303-2.196l22.819-22.819c2.929-2.93 2.929-7.678 0-10.607-2.928-2.927-7.677-2.927-10.606 0z"/><path d="m235.466 157.951c1.464 1.464 3.384 2.196 5.303 2.196s3.839-.732 5.303-2.196l53.281-53.28c2.929-2.93 2.929-7.678 0-10.607-2.929-2.928-7.678-2.928-10.606 0l-53.281 53.28c-2.929 2.929-2.929 7.677 0 10.607z"/><circle cx="390.565" cy="320.779" r="7.5"/><circle cx="121.44" cy="320.778" r="7.5"/></g></g></svg>