<svg id="Capa_1" enable-background="new 0 0 512 512" height="512" viewBox="0 0 512 512" width="512" xmlns="http://www.w3.org/2000/svg"><g><g><path d="m337.793 291.204v115.104h-225.768v-94.758z" fill="#fe5694"/><path d="m233.268 300.624v105.684h-121.243v-94.758z" fill="#ffe5c2"/><path d="m300.306 131.465v82.648c0 19.371 15.704 35.075 35.075 35.075h67.999c19.371 0 35.075-15.704 35.075-35.075v-82.648z" fill="#ffe5c2"/><path d="m417.887 131.465v82.648c0 19.371-15.703 35.075-35.075 35.075h20.567c19.371 0 35.075-15.704 35.075-35.075v-82.648z" fill="#fed2a4"/><path d="m300.302 204.774h-18.534c-6.399 0-11.587-5.188-11.587-11.587v-18.547c0-6.399 5.188-11.587 11.587-11.587h18.534z" fill="#ffe5c2"/><path d="m283.071 163.052h17.232v41.721h-17.232z" fill="#fed2a4"/><path d="m455.089 204.774h-16.631v-41.721h16.631c7.45 0 13.49 6.04 13.49 13.49v14.742c-.001 7.449-6.04 13.489-13.49 13.489z" fill="#ffe5c2"/><path d="m455.089 163.052h-16.631v.03c7.169.316 12.889 6.212 12.889 13.459v14.742c0 7.247-5.72 13.143-12.889 13.459v.03h16.631c7.45 0 13.49-6.04 13.49-13.49v-14.742c-.001-7.448-6.04-13.488-13.49-13.488z" fill="#fed2a4"/><path d="m459.038 439.242h-180.31v-113.719l59.065-34.319h63.174l58.071 13.974z" fill="#fe5694"/><path d="m400.967 291.204h-20.568l58.071 13.974v134.064h20.568v-134.064z" fill="#fd3581"/><path d="m337.793 249.187h63.173v42.017c-14.77 10.273-48.404 10.273-63.173 0z" fill="#ffe5c2"/><path d="m380.399 249.187v42.017c-5.27 3.665-12.944 6.015-21.303 7.065 15.069 1.893 32.37-.458 41.87-7.065v-42.017z" fill="#fed2a4"/><path d="m233.268 406.298h45.46v32.944h-45.46z" fill="#fed2a4"/><path d="m258.161 406.298h20.568v32.944h-20.568z" fill="#ffbd86"/><path d="m504.5 365.908v40.389h-45.459v-101.116c30.438 8.69 45.459 31.678 45.459 60.727z" fill="#fe5694"/><path d="m504.5 365.908v40.389h-20.567v-15.805c0-47.199-9.425-60.589-24.892-73.487v-11.826c30.438 8.692 45.459 31.68 45.459 60.729z" fill="#fd3581"/><path d="m459.038 406.298h45.46v32.944h-45.46z" fill="#ffe5c2"/><path d="m483.931 406.298h20.568v32.944h-20.568z" fill="#fed2a4"/><path d="m74.538 151.813v82.648c0 19.371 15.704 35.075 35.075 35.075h67.999c19.371 0 35.075-15.704 35.075-35.075v-82.648z" fill="#fed2a4"/><path d="m192.118 151.813v82.648c0 19.371-15.704 35.075-35.075 35.075h20.567c19.371 0 35.075-15.704 35.075-35.075v-82.648z" fill="#ffbd86"/><path d="m74.534 225.122h-18.533c-6.399 0-11.587-5.188-11.587-11.587v-18.547c0-6.399 5.188-11.587 11.587-11.587h18.534v41.721z" fill="#fed2a4"/><path d="m57.303 183.401h17.232v41.721h-17.232z" fill="#ffbd86"/><path d="m229.321 225.122h-16.631v-41.721h16.631c7.45 0 13.49 6.04 13.49 13.49v14.742c-.001 7.45-6.04 13.489-13.49 13.489z" fill="#fed2a4"/><path d="m229.321 183.401h-16.631v.03c7.169.316 12.889 6.212 12.889 13.459v14.742c0 7.247-5.72 13.143-12.889 13.459v.03h16.631c7.45 0 13.49-6.04 13.49-13.49v-14.741c-.001-7.45-6.04-13.489-13.49-13.489z" fill="#ffbd86"/><path d="m74.538 151.813v-30.258c0-15.717 12.741-28.458 28.458-28.458h81.236c15.717 0 28.458 12.741 28.458 28.458v30.258 31.587l-78.505-31.587v25.319z" fill="#5d5360"/><g fill="#4b3f4e"><path d="m113.617 168.402 20.567 8.73v-25.319h-20.567z"/><path d="m184.232 93.097h-20.568c15.717 0 28.458 12.741 28.458 28.458v30.258 23.312l20.568 8.276v-31.587-30.258c-.001-15.718-12.742-28.459-28.458-28.459z"/></g><path d="m278.732 398.401v7.897h-45.459v32.948h-180.309v-32.948h-45.459v-7.897c0-14.535 4.544-28.285 12.491-39.645 3.502-5.01 7.669-9.554 12.402-13.493 6.002-5.01 12.927-9.048 20.567-11.836l59.061-21.876h63.169l37.512 14.128 20.567 7.748c27.292 9.96 45.458 35.914 45.458 64.974z" fill="#a6e7f0"/><path d="m233.273 333.426v105.82h-20.567v-113.568z" fill="#6bd9e7"/><path d="m112.025 269.536h63.173v42.017c-14.77 10.273-48.404 10.273-63.173 0z" fill="#fed2a4"/><path d="m154.631 269.536v42.017c-5.27 3.665-12.944 6.015-21.303 7.065 15.069 1.893 32.37-.458 41.87-7.065v-42.017z" fill="#ffbd86"/><path d="m52.964 333.426v72.872h-20.567v-61.036c6.003-5.01 12.928-9.048 20.567-11.836z" fill="#6bd9e7"/><path d="m7.5 406.301h45.46v32.944h-45.46z" fill="#fed2a4"/><path d="m32.393 406.301h20.568v32.944h-20.568z" fill="#ffbd86"/><path d="m278.732 398.401v7.897h-20.567v-15.805c0-20.924-9.425-44.179-24.893-57.067 27.294 9.961 45.46 35.915 45.46 64.975z" fill="#6bd9e7"/><path d="m52.962 406.304h180.31v32.944h-180.31z" fill="#a2aee6"/><path d="m212.704 406.304h20.568v32.944h-20.568z" fill="#8795de"/><path d="m91.189 342.861-35.964 12.793c-5.912 2.103-12.41-.985-14.514-6.897l-3.647-10.252c-2.103-5.912.985-12.41 6.897-14.514l35.964-12.793c5.912-2.103 12.41.985 14.514 6.897l3.647 10.252c2.104 5.913-.984 12.411-6.897 14.514z" fill="#ffe5c2"/><path d="m91.191 342.861-35.965 12.789c-4.405 1.568-9.137.248-12.134-2.966l27.611-9.822c5.913-2.103 8.999-8.602 6.895-14.515l-3.641-10.248c-.536-1.508-1.359-2.828-2.381-3.929l8.354-2.966c5.913-2.103 12.402.982 14.505 6.895l3.651 10.248c2.103 5.913-.982 12.411-6.895 14.514z" fill="#fed2a4"/><path d="m423.413 72.752h-108.048c-8.317 0-15.059 6.742-15.059 15.059v43.654h138.166v-43.654c0-8.317-6.742-15.059-15.059-15.059z" fill="#ffe270"/><path d="m438.474 87.809v43.653h-20.587v-43.653c0-8.314-6.746-15.06-15.06-15.06h20.587c8.314-.001 15.06 6.746 15.06 15.06z" fill="#ffd15b"/></g><g><path d="m512 365.908c0-2.808-.132-5.605-.391-8.316-.395-4.124-4.039-7.161-8.18-6.752-4.123.394-7.146 4.057-6.752 8.18.214 2.238.322 4.556.322 6.889v32.89h-30.462v-82.909c7.636 3.471 13.944 8.198 18.811 14.133 1.483 1.808 3.635 2.744 5.804 2.744 1.674 0 3.356-.557 4.752-1.7 3.203-2.627 3.67-7.353 1.044-10.556-8.178-10.189-21.391-18.533-36.155-22.624l-52.326-12.591v-28.922c21.396-2.436 38.354-21.763 37.487-44.099h9.135c11.573 0 20.989-9.416 20.989-20.989v-14.742c0-11.573-9.416-20.989-20.989-20.989h-9.135l.019-67.741c0-12.439-10.12-22.56-22.56-22.56h-15.988c-4.143 0-7.5 3.357-7.5 7.5s3.357 7.5 7.5 7.5h15.988c4.168 0 7.56 3.392 7.56 7.56v36.153h-123.167v-36.155c0-4.168 3.392-7.56 7.56-7.56h57.333c4.143 0 7.5-3.357 7.5-7.5s-3.357-7.5-7.5-7.5h-57.333c-12.439 0-22.56 10.12-22.56 22.56v67.741h-11.037c-10.524 0-19.087 8.562-19.087 19.087v18.547c0 10.524 8.562 19.087 19.087 19.087h11.037c-1.022 21.862 15.842 41.61 37.487 44.099v27.977l-147.595 13.302v-20.929c21.397-2.436 38.355-21.763 37.487-44.1h9.135c11.574 0 20.99-9.416 20.99-20.989v-14.742c0-11.574-9.416-20.99-20.99-20.99h-9.131v-54.346c0-19.827-16.131-35.957-35.958-35.957h-81.236c-19.827 0-35.957 16.13-35.957 35.957v54.344h-11.037c-10.525 0-19.088 8.562-19.088 19.088v18.547c0 10.524 8.562 19.087 19.088 19.087h11.037c-1.022 21.862 15.841 41.611 37.487 44.1v29.608l-7.084 2.624c-1.583-1.674-3.467-3.069-5.611-4.087-4.549-2.162-9.67-2.424-14.418-.734l-35.964 12.793c-4.747 1.689-8.552 5.125-10.715 9.676-1.738 3.658-2.225 7.683-1.481 11.588-4.907 3.784-10.75 9.67-15.402 16.268-9.057 12.945-13.845 28.142-13.845 43.942l-.005 40.845c0 4.143 3.357 7.5 7.5 7.5s7.5-3.357 7.5-7.5v-25.444h30.46v25.444c0 1.554.473 2.998 1.282 4.195 1.348 1.996 3.63 3.308 6.22 3.308h180.31c2.849 0 5.326-1.588 6.596-3.927.577-1.063.905-2.281.905-3.575v-25.445h30.456v25.441c0 1.554.473 2.998 1.282 4.195 1.348 1.996 3.63 3.308 6.22 3.308 4.143 0 7.5-3.357 7.5-7.5l-.002-135.864 49.734-4.482c8.693 5.031 21.048 7.556 33.417 7.556 12.102 0 24.194-2.415 32.853-7.232l49.305 11.865v128.155c0 4.143 3.357 7.5 7.5 7.5s7.5-3.357 7.5-7.5v-25.444h30.46v25.444c0 4.143 3.357 7.5 7.5 7.5s7.5-3.357 7.5-7.5zm-66.043-195.355h9.132c3.303 0 5.989 2.687 5.989 5.989v14.742c0 3.303-2.687 5.989-5.989 5.989h-9.132zm-153.154 26.72h-11.034c-2.254 0-4.087-1.833-4.087-4.087v-18.546c0-2.254 1.833-4.087 4.087-4.087h11.034zm-225.769 20.349h-11.033c-2.254 0-4.088-1.833-4.088-4.087v-18.547c0-2.254 1.834-4.088 4.088-4.088h11.033zm240.772-3.51v-75.147h123.148v75.147c0 15.205-12.37 27.575-27.575 27.575h-67.998c-15.205.001-27.575-12.37-27.575-27.575zm-214.103 135.816c9.799-3.486 14.935-14.295 11.45-24.094l-1.176-3.305 7.254-2.687c8.623 4.641 20.502 6.962 32.381 6.962 11.867 0 23.733-2.317 32.354-6.949l49.805 18.76v60.189h-113.746c-4.143 0-7.5 3.357-7.5 7.5s3.357 7.5 7.5 7.5h113.743v17.942h-165.304v-17.942h16.157c4.143 0 7.5-3.357 7.5-7.5s-3.357-7.5-7.5-7.5h-16.159v-37.052zm132.066-27.343-29.467-11.099 29.467-2.656zm-58.071-15.331c-12.503 6.043-35.672 6.043-48.173 0v-30.218h48.173zm103.531 91.544h-30.457v-53.562c18.088 10.531 30.747 31.551 30.457 53.562zm-35.918-201.907v14.742c0 3.303-2.688 5.989-5.99 5.989h-9.131v-26.722h9.131c3.302 0 5.99 2.688 5.99 5.991zm-153.273-75.336c0-11.556 9.401-20.957 20.957-20.957h81.236c11.557 0 20.958 9.401 20.958 20.957v50.744l-68.205-27.443c-.903-.363-1.854-.542-2.799-.542-1.477 0-2.941.436-4.199 1.285-2.064 1.395-3.302 3.724-3.302 6.215v13.987l-44.646-18.951zm0 112.906v-71.317l49.216 20.891c2.319.984 4.973.741 7.07-.649 2.099-1.389 3.36-3.737 3.36-6.254v-14.217l63.505 25.552-.004 45.994c0 15.205-12.37 27.575-27.574 27.575h-67.999c-15.204 0-27.574-12.37-27.574-27.575zm-37.756 98.578c.442-.933 1.222-1.636 2.193-1.981l35.964-12.793c.959-.34 3.703-.515 4.957 2.408l3.625 10.187c.714 2.007-.338 4.221-2.345 4.935l-35.964 12.793c-.973.348-2.019.292-2.952-.15-.932-.442-1.636-1.222-1.981-2.194l-3.646-10.252c-.347-.973-.294-2.021.149-2.953zm-29.277 65.361c-.022-16.37 6.884-33.19 19.552-45.024 1.766 3.248 5.492 7.767 10.905 9.469v35.953h-30.457zm256.224-45.452c-7.75-10.525-18.167-19.09-30.46-24.566v-20.903l30.46-2.745zm122.238-66.043c-12.502 6.043-35.672 6.043-48.174 0v-30.218h48.174z"/><path d="m143.613 212.206c4.143 0 7.5-3.357 7.5-7.5v-4.933c0-4.143-3.357-7.5-7.5-7.5s-7.5 3.357-7.5 7.5v4.933c0 4.143 3.358 7.5 7.5 7.5z"/><path d="m143.613 245.395c8.218 0 15.671-4.197 19.938-11.228 2.149-3.541 1.021-8.153-2.52-10.303-3.54-2.149-8.153-1.021-10.303 2.52-1.524 2.512-4.185 4.011-7.116 4.011s-5.591-1.499-7.115-4.011c-2.149-3.542-6.763-4.669-10.303-2.52-3.541 2.149-4.669 6.762-2.52 10.303 4.269 7.03 11.722 11.228 19.939 11.228z"/><path d="m369.389 186.675c4.143 0 7.5-3.357 7.5-7.5v-4.933c0-4.143-3.357-7.5-7.5-7.5s-7.5 3.357-7.5 7.5v4.933c0 4.142 3.357 7.5 7.5 7.5z"/><path d="m369.389 219.863c8.218 0 15.671-4.197 19.938-11.228 2.149-3.541 1.021-8.153-2.52-10.303-3.539-2.148-8.153-1.021-10.303 2.52-1.524 2.512-4.185 4.011-7.116 4.011s-5.591-1.499-7.115-4.011c-2.15-3.542-6.764-4.668-10.303-2.52-3.541 2.149-4.669 6.762-2.52 10.303 4.269 7.031 11.722 11.228 19.939 11.228z"/><circle cx="404.252" cy="175.568" r="7.5"/><circle cx="334.532" cy="175.568" r="7.5"/><circle cx="178.657" cy="200.862" r="7.5"/><circle cx="108.937" cy="200.862" r="7.5"/></g></g></svg>