<svg id="Capa_1" enable-background="new 0 0 512 512" height="512" viewBox="0 0 512 512" width="512" xmlns="http://www.w3.org/2000/svg"><g><g><circle cx="418.584" cy="33.418" fill="#d8ecfe" r="25.918"/><circle cx="189.14" cy="41.5" fill="#d8ecfe" r="19"/><g><g><g><path d="" style="fill:#fff;stroke:#000;stroke-width:15;stroke-linecap:round;stroke-linejoin:round;stroke-miterlimit:10"/><path d="m480.928 414.089-53.332-53.332c-5.482-5.482-8.701-12.827-9.017-20.574l-.819-20.121c-.715-17.573-4.562-34.877-11.358-51.099l-31.637-75.51c-5.457-13.025-22.38-16.355-32.366-6.37l-.303.303c-4.62 4.62-6.733 11.045-5.773 17.395 2.019 13.363 5.576 36.903 7.743 51.249.586 3.875-4.116 6.246-6.887 3.474l-11.236-11.236-83.327-83.327c-7.878-7.878-20.651-7.878-28.53 0-7.878 7.878-7.878 20.651 0 28.53l69.065 69.065-93.391-93.391-28.873 28.186 93.734 93.734-69.065-69.065-28.53 28.529 69.065 69.065-44.032-44.032c-7.568-7.568-19.844-8.356-27.896-1.302-4.604 4.033-6.906 9.616-6.896 15.2-.01 5.163 1.958 10.326 5.894 14.263l63.259 63.259c6.399 6.399 13.817 11.69 21.95 15.657l57.351 27.974c8.486 4.139 16.225 9.66 22.902 16.336l74.72 74.72c1.562 1.562 4.095 1.562 5.657 0l81.926-81.926c1.564-1.559 1.564-4.092.002-5.654z" fill="#ffdfd2"/><g><path d="m480.928 414.089-53.332-53.332c-5.482-5.482-8.701-12.827-9.017-20.574l-.819-20.121c-.716-17.573-4.562-34.878-11.358-51.099l-31.636-75.509c-5.456-13.023-22.377-16.355-32.363-6.373l-.306.305c-.025.522-.042.881-.067 1.403 1.085 1.378 2.011 2.936 2.735 4.664l31.637 75.51c6.796 16.221 10.643 33.525 11.358 51.098l.819 20.122c.315 7.747 3.534 15.091 9.017 20.574l24.76 24.76c17.342 17.342 17.342 45.459 0 62.801l-41.182 41.182 12.172 12.172c1.562 1.562 4.095 1.562 5.657 0l81.926-81.926c1.561-1.562 1.561-4.095-.001-5.657z" fill="#ffd3c0"/></g></g></g><g><g><path d="" style="fill:#fff;stroke:#000;stroke-width:15;stroke-linecap:round;stroke-linejoin:round;stroke-miterlimit:10"/><path d="m227.552 274.056c21.088 2.624 42.267-2.222 60.634-12.91.068-.04.137-.079.205-.118l.469-.266c9.883-5.608 22.539-3.006 29.263 6.332 13.678 18.995 37.987 28.406 61.475 21.779 29.607-8.353 47.199-39.612 39.259-69.818-2.787-10.602-8.292-19.714-15.531-26.803-2.243-2.197-2.584-5.743-.762-8.277 6.377-8.869 8.764-20.551 5.481-31.969-3.824-13.3-14.358-22.815-26.767-25.836-3.324-.809-5.533-4.074-4.864-7.457 1.265-6.397.87-13.254-1.539-19.947-6.246-17.353-23.817-27.374-41.62-23.747-4.286.873-8.207 2.465-11.693 4.611-1.991 1.226-4.484 1.315-6.508.113-12.964-7.693-28.846-10.244-44.354-5.785-23.605 6.788-39.32 27.794-40.786 51.283-.2 3.203-2.661 5.779-5.823 5.98-2.538.161-5.096.595-7.638 1.326-11.142 3.204-19.541 11.347-23.579 21.429-.741 1.851-2.305 3.211-4.208 3.738-30.158 8.357-48.003 40.249-39.107 71.186 6.695 23.282 26.578 39.125 48.979 41.546z" fill="#eaf6ff"/><g><path d="m418.858 219.055c-2.787-10.602-8.292-19.714-15.531-26.803-2.243-2.197-2.584-5.743-.762-8.277 6.377-8.869 8.764-20.552 5.481-31.969-3.824-13.3-14.358-22.815-26.767-25.836-3.324-.809-5.533-4.074-4.864-7.458 1.265-6.397.87-13.254-1.539-19.947-6.246-17.353-23.817-27.374-41.62-23.747-2.743.559-5.335 1.415-7.761 2.52 8.735 3.99 15.859 11.442 19.381 21.227 2.409 6.693 2.804 13.55 1.539 19.947-.669 3.384 1.54 6.648 4.864 7.458 12.409 3.021 22.942 12.536 26.767 25.836 3.283 11.418.896 23.1-5.481 31.969-1.822 2.534-1.481 6.081.762 8.277 7.239 7.089 12.744 16.201 15.531 26.803 7.94 30.206-9.652 61.465-39.259 69.818-.075.021-.15.038-.226.059 9.6 2.669 19.99 2.829 30.226-.059 29.607-8.352 47.199-39.612 39.259-69.818z" fill="#d8ecfe"/></g></g></g><path d="" style="fill:#fff;stroke:#000;stroke-width:15;stroke-linecap:round;stroke-linejoin:round;stroke-miterlimit:10"/><g><g><g><path d="" fill="#ffcebf"/><path d="m122.902 497.429 49.089-49.089c5.482-5.482 12.827-8.701 20.574-9.017l20.121-.819c17.573-.715 34.877-4.562 51.099-11.358l75.51-31.637c13.025-5.457 16.355-22.38 6.37-32.366l-.303-.303c-4.62-4.62-11.045-6.733-17.395-5.773-13.363 2.019-36.903 5.576-51.249 7.743-3.875.585-6.246-4.116-3.474-6.887l11.236-11.236 83.327-83.327c7.878-7.878 7.878-20.651 0-28.53-7.878-7.878-20.651-7.878-28.53 0l-69.065 69.065 93.391-93.391c7.735-7.735 8.307-20.337.853-28.341-7.827-8.404-20.988-8.581-29.038-.532l-93.734 93.734 69.065-69.065c7.878-7.878 7.878-20.651 0-28.53-7.878-7.878-20.651-7.878-28.529 0l-69.065 69.065 44.032-44.032c7.568-7.568 8.356-19.844 1.302-27.896-4.033-4.604-9.616-6.906-15.2-6.896-5.163-.01-10.326 1.958-14.263 5.894l-63.259 63.259c-6.399 6.399-11.69 13.817-15.657 21.95l-27.974 57.351c-4.139 8.486-9.66 16.225-16.336 22.902l-70.477 70.477c-3.905 3.905-3.905 10.237 0 14.142l73.441 73.441c3.901 3.907 10.233 3.907 14.138.002z" fill="#ffcebf"/><g fill="#ffb09e"><path d="m258.486 174.908c-3.66-4.178-8.598-6.454-13.654-6.833.413 5.849-1.675 11.868-6.092 16.285l-53.669 53.669c-5.093 5.093-5.093 13.351 0 18.444 5.093 5.093 13.351 5.093 18.444 0l53.669-53.669c7.568-7.567 8.356-19.844 1.302-27.896z"/><path d="m310.747 177.772c-3.301-3.301-7.464-5.2-11.764-5.735.741 5.962-1.157 12.189-5.734 16.766l-60.316 60.316c-4.832 4.832-4.832 12.666 0 17.498 4.832 4.832 12.666 4.832 17.498 0l60.316-60.316c7.878-7.878 7.878-20.651 0-28.529z"/><g><path d="m349.446 245-82.933 82.933c-5.07 5.07-5.07 13.29 0 18.359 5.07 5.07 13.29 5.07 18.359 0l82.933-82.933c7.878-7.878 7.878-20.651 0-28.529-3.498-3.498-7.962-5.435-12.533-5.826.49 5.724-1.446 11.616-5.826 15.996z"/><path d="m276.863 297.243 86.738-86.738c7.63-7.63 8.319-20.021 1.115-28.054-3.626-4.043-8.46-6.24-13.411-6.639.442 5.855-1.625 11.895-6.063 16.333l-86.738 86.738c-5.07 5.07-5.07 13.29 0 18.359 5.07 5.071 13.289 5.071 18.359.001z"/><path d="m345.664 363.143-.303-.303c-3.385-3.385-7.738-5.417-12.321-5.888.754 8.206-3.613 16.639-12.105 20.197l-75.51 31.636c-16.221 6.796-33.526 10.643-51.098 11.358l-20.121.819c-7.747.315-15.091 3.534-20.574 9.016l-49.089 49.089c-3.905 3.905-10.237 3.905-14.142 0l18.359 18.359c3.905 3.905 10.237 3.905 14.142 0l49.089-49.089c5.482-5.482 12.827-8.701 20.574-9.016l20.121-.819c17.573-.715 34.877-4.562 51.098-11.358l75.51-31.636c13.025-5.456 16.355-22.379 6.37-32.365z"/></g></g></g></g></g></g></g><path d="m418.584 66.836c18.427 0 33.418-14.991 33.418-33.418s-14.991-33.418-33.418-33.418-33.418 14.991-33.418 33.418 14.992 33.418 33.418 33.418zm0-51.836c10.155 0 18.418 8.263 18.418 18.418s-8.263 18.418-18.418 18.418-18.418-8.263-18.418-18.418 8.263-18.418 18.418-18.418zm-229.443 53c14.612 0 26.5-11.888 26.5-26.5s-11.888-26.5-26.5-26.5-26.5 11.888-26.5 26.5 11.887 26.5 26.5 26.5zm0-38c6.341 0 11.5 5.159 11.5 11.5s-5.159 11.5-11.5 11.5-11.5-5.159-11.5-11.5 5.158-11.5 11.5-11.5zm299.915 381.616-56.155-56.154c-4.166-4.175-6.59-9.708-6.824-15.588l-.82-20.121c-.669-16.327-3.879-32.31-9.537-47.577 11.104-15.301 15.561-35.378 10.396-55.023-2.95-11.221-8.781-21.438-16.891-29.61 7.56-11.012 9.758-24.66 6.026-37.603-4.336-15.092-16.275-26.825-31.286-30.825 1.32-7.617.622-15.507-2.035-22.882-7.527-20.942-28.635-32.952-50.172-28.562-4.805.977-9.357 2.731-13.554 5.226-13.496-7.792-29.22-10.425-44.365-7.408-4.062.809-6.7 4.757-5.892 8.819s4.758 6.701 8.819 5.892c11.765-2.342 24.001-.214 34.469 5.998 4.405 2.605 9.875 2.532 14.259-.181 2.841-1.749 5.953-2.976 9.256-3.647 14.171-2.884 28.081 5.074 33.066 18.943 1.857 5.157 2.286 10.668 1.238 15.944-1.444 7.309 3.148 14.425 10.452 16.201 10.216 2.488 18.388 10.391 21.329 20.631 2.544 8.823.954 18.122-4.363 25.513-3.958 5.503-3.268 13.246 1.602 18.008 6.514 6.379 11.193 14.456 13.534 23.358 6.894 26.222-8.378 53.444-34.047 60.686-6.232 1.762-12.63 2.25-18.931 1.49l14.478-14.478c10.79-10.79 10.79-28.348 0-39.138-3.17-3.169-6.972-5.475-11.123-6.799l6.92-6.92c10.779-10.78 11.235-27.805 1.037-38.757-10.553-11.333-28.961-11.694-39.83-.723l-7.276 7.277c-1.297-4.076-3.559-7.91-6.786-11.138-10.682-10.682-28.537-10.698-39.137 0l-7.304 7.305c-1.095-3.533-2.919-6.88-5.482-9.807-10.45-11.931-29.319-12.537-40.408-1.363-1.365 1.375-63.393 63.371-64.617 64.675-.913-2.083-1.697-4.234-2.333-6.45-3.766-13.094-2.206-26.802 4.394-38.598 6.454-11.534 16.931-19.807 29.467-23.282 4.167-1.134 7.608-4.192 9.204-8.179 3.347-8.36 10.158-14.56 18.688-17.01 1.991-.572 4.024-.927 6.043-1.054 6.879-.437 12.396-6.023 12.832-12.996.718-11.478 5.375-22.419 13.111-30.808 2.808-3.045 2.616-7.79-.429-10.599-3.045-2.807-7.789-2.615-10.598.429-9.852 10.683-15.863 24.531-16.989 39.089-2.724.245-5.447.756-8.112 1.521-12.82 3.683-23.081 12.881-28.242 25.287-16.229 4.646-29.732 15.38-38.066 30.276-8.569 15.316-10.601 33.098-5.72 50.064 1.538 5.358 3.719 10.445 6.501 15.183-2.023 3.099-3.856 6.328-5.489 9.676l-27.974 57.351c-3.783 7.756-8.796 14.783-14.899 20.887l-77.548 77.548c-2.929 2.93-2.929 7.678 0 10.607 2.929 2.928 7.678 2.928 10.606 0l77.549-77.549c7.281-7.281 13.261-15.665 17.773-24.917l27.974-57.351c3.612-7.404 8.396-14.111 14.22-19.935l63.259-63.26c5.073-5.131 13.745-4.808 18.519.641 4.357 4.974 3.949 12.696-.921 17.608l-44.074 44.073c-2.929 2.93-2.929 7.678 0 10.607 2.929 2.928 7.678 2.928 10.606 0l44.032-44.031c.021-.022.044-.044.065-.066l24.968-24.967c4.846-4.908 13.043-4.879 17.922 0 4.859 4.859 4.903 13.073 0 17.922l-69.064 69.065c-2.929 2.93-2.929 7.678 0 10.607 2.929 2.928 7.678 2.928 10.606 0l93.735-93.735c4.955-5.029 13.406-4.856 18.245.34 4.589 4.928 4.29 12.97-.667 17.927l-24.188 24.188c-.047.046-.093.091-.139.137l-69.064 69.065c-2.929 2.93-2.929 7.678 0 10.607 2.93 2.928 7.678 2.928 10.607 0l69.158-69.159c4.862-4.817 12.982-4.751 17.828.094 4.942 4.941 4.942 12.981 0 17.923l-94.562 94.562c-3.54 3.541-4.402 8.921-2.145 13.39 2.257 4.467 7.108 6.964 12.043 6.217l51.25-7.742c13.824-2.304 20.811 18.603 7.309 24.108-15.019 6.123-49.89 20.903-64.702 27.108-3.82 1.601-5.619 5.995-4.019 9.815 1.619 3.865 6.076 5.594 9.815 4.019l21.076-8.83c5.356 3.238 10.311 7.108 14.752 11.55l77.55 77.55c2.93 2.928 7.679 2.93 10.607 0s2.929-7.678 0-10.607l-77.55-77.55c-2.807-2.807-5.793-5.413-8.923-7.829l27.189-11.392c28.713-12.008 15.752-57.834-15.347-52.774l-40.905 6.18 60.079-60.078c6.005 1.819 12.162 2.747 18.337 2.747 5.786 0 11.588-.803 17.281-2.412 8.414-2.374 15.972-6.389 22.433-11.608 3.613 11.62 5.696 23.646 6.197 35.886l.82 20.114c.386 9.646 4.361 18.73 11.2 25.584l56.16 56.16c2.93 2.928 7.679 2.93 10.607 0s2.935-7.676.006-10.606zm-249.285 15.55c-8.961 2.176-18.177 3.47-27.391 3.844l-20.121.819c-9.656.394-18.738 4.374-25.572 11.207l-56.16 56.16c-2.929 2.93-2.929 7.678 0 10.607 2.928 2.929 7.677 2.928 10.606 0l56.16-56.16c4.163-4.163 9.694-6.587 15.576-6.826l20.121-.819c10.199-.415 20.4-1.847 30.32-4.256 4.025-.978 6.496-5.032 5.519-9.058s-5.034-6.5-9.058-5.518z"/></g></svg>