<svg id="Capa_1" enable-background="new 0 0 512 512" height="512" viewBox="0 0 512 512" width="512" xmlns="http://www.w3.org/2000/svg"><g><g><path d="m504.5 402.882c0 2.009-.855 3.922-2.365 5.247-9.235 8.109-26.167 20.621-50.641 27.371-29.952 8.262-55.022 3.433-66.386.499v-351.91c12.628 2.257 33.489 4.33 58.244-1.053 21.715-4.723 38.624-13.486 50.315-21.145 4.658-3.051 10.832.285 10.832 5.854v335.137z" fill="#eaf6ff"/><g><path d="m493.668 61.89c-5.318 3.484-11.728 7.193-19.168 10.65v330.341c0 2.009-.855 3.922-2.365 5.247-9.234 8.109-26.167 20.621-50.64 27.371-6.619 1.826-12.999 3.01-19.046 3.719 12.841 1.492 29.948 1.549 49.046-3.719 24.473-6.751 41.406-19.262 50.64-27.371 1.51-1.326 2.365-3.238 2.365-5.247v-335.137c0-5.568-6.174-8.905-10.832-5.854z" fill="#d8ecfe"/></g><path d="m385.108 442.736c0 7.411-4.087 14.23-10.647 17.679-33.393 17.559-94.181 43.13-173.689 44.059-84.177.983-148.506-26.133-182.598-44.047-6.571-3.453-10.674-10.27-10.674-17.694v-356.708h377.608z" fill="#eaf6ff"/><path d="m355.108 86.025v306.152c0 41.458-26.282 78.449-65.526 91.818-29.555 10.069-66.093 18.526-108.231 20.191 6.353.251 12.818.365 19.42.288 79.507-.928 140.295-26.5 173.689-44.059 6.56-3.449 10.647-10.268 10.647-17.679v-356.711z" fill="#d8ecfe"/><ellipse cx="196.304" cy="86.025" fill="#d8ecfe" rx="188.804" ry="78.525"/><path d="m196.304 7.5c-5.049 0-10.051.085-15 .246 97.26 3.18 173.804 37.011 173.804 78.279s-76.544 75.099-173.804 78.279c4.949.162 9.951.246 15 .246 104.273 0 188.804-35.157 188.804-78.525s-84.53-78.525-188.804-78.525z" fill="#c4e2ff"/><ellipse cx="196.304" cy="86.025" fill="#b3dafe" rx="74.909" ry="31.155"/></g><path d="m196.304 124.681c39.95 0 82.409-13.548 82.409-38.655s-42.459-38.656-82.409-38.656c-39.949 0-82.408 13.548-82.408 38.655s42.458 38.656 82.408 38.656zm0-62.311c41.149 0 67.409 14.01 67.409 23.655s-26.26 23.655-67.409 23.655c-41.148 0-67.408-14.01-67.408-23.655s26.259-23.655 67.408-23.655zm308.196 239.431c4.143 0 7.5-3.358 7.5-7.5v-226.557c0-5.334-2.913-10.223-7.604-12.757-4.69-2.534-10.376-2.293-14.838.63-14.701 9.63-30.783 16.389-47.8 20.09-16.499 3.588-33.308 4.194-50.045 1.833-4.386-20.87-24.949-39.794-59.024-53.965-36.552-15.203-84.988-23.575-136.385-23.575-18.74 0-37.266 1.122-55.062 3.333-4.11.511-7.028 4.257-6.518 8.368s4.26 7.027 8.367 6.518c17.185-2.136 35.089-3.219 53.213-3.219 49.466 0 95.856 7.964 130.625 22.424 32.208 13.396 50.68 31.11 50.68 48.601s-18.472 35.205-50.68 48.601c-34.769 14.46-81.159 22.424-130.625 22.424s-95.855-7.964-130.624-22.424c-32.208-13.395-50.68-31.109-50.68-48.601 0-24.998 37.024-49.349 94.324-62.037 4.045-.896 6.597-4.9 5.701-8.944s-4.903-6.594-8.943-5.701c-30.674 6.792-56.624 16.985-75.046 29.477-20.304 13.767-31.036 30.091-31.036 47.205v356.708c0 10.249 5.627 19.573 14.686 24.333 41.071 21.58 106.092 45.843 186.175 44.907 77.483-.905 139.07-24.928 177.091-44.92 8.279-4.353 13.671-12.536 14.524-21.75 18.956 3.423 40.179 3.174 61.013-2.573 24.836-6.851 42.854-19.533 53.595-28.965 3.125-2.744 4.917-6.71 4.917-10.883v-73.581c0-4.142-3.357-7.5-7.5-7.5s-7.5 3.358-7.5 7.5v73.356c-9.582 8.378-25.552 19.56-47.5 25.614-22.553 6.22-42.626 4.732-56.892 1.775v-337.249c17.511 2.133 35.076 1.321 52.338-2.433 18.515-4.027 36.023-11.324 52.053-21.694v225.63c0 4.143 3.357 7.501 7.5 7.501zm-126.892 140.935c0 4.657-2.544 8.888-6.638 11.041-36.563 19.226-95.786 42.328-170.286 43.198-78.239.922-140.565-22.98-179.021-43.187-4.11-2.16-6.663-6.396-6.663-11.055v-322.941c10.155 10.78 25.292 20.521 44.919 28.684 36.552 15.202 84.988 23.574 136.385 23.574s99.833-8.372 136.386-23.574c19.627-8.163 34.764-17.904 44.919-28.684v322.944z"/></g></svg>