<svg id="Capa_1" enable-background="new 0 0 512.099 512.099" height="512" viewBox="0 0 512.099 512.099" width="512" xmlns="http://www.w3.org/2000/svg"><g><g><g><g><g><path d="m84.802 169.218c-2.793 8.893-9.101 33.13 0 61.613 10.397 32.538 34.232 49.738 43.574 55.59 1.354.848 2.165 2.33 2.165 3.927v23.56c0 9.647 7.82 17.468 17.467 17.468 9.647 0 17.467-7.821 17.467-17.468v-23.56c0-1.597.812-3.079 2.165-3.927 9.342-5.852 33.177-23.051 43.574-55.59 9.101-28.482 2.793-52.72 0-61.613z" fill="#f6a7d2"/><path d="m211.215 169.218h-30c2.793 8.893 9.101 33.13 0 61.613-10.397 32.538-34.232 49.738-43.574 55.59-1.354.848-2.165 2.33-2.165 3.927v23.56c0 3.262-.911 6.305-2.468 8.918 3.047 5.114 8.615 8.551 15 8.551 9.647 0 17.468-7.821 17.468-17.468v-23.56c0-1.597.812-3.079 2.165-3.927 9.342-5.852 33.177-23.051 43.574-55.59 9.101-28.484 2.793-52.722 0-61.614z" fill="#f28cc4"/><path d="m89.776 175.392h116.464c10.424 0 18.875-8.451 18.875-18.876 0-10.425-8.451-18.876-18.875-18.876h-116.464c-10.424 0-18.875 8.451-18.875 18.876 0 10.425 8.451 18.876 18.875 18.876z" fill="#f6c2e0"/><path d="m206.24 137.64h-30c10.425 0 18.875 8.451 18.875 18.876 0 10.425-8.451 18.876-18.875 18.876h30c10.425 0 18.875-8.451 18.875-18.876.001-10.425-8.45-18.876-18.875-18.876z" fill="#f6a7d2"/></g><g><path d="m304.288 132.195-5.854-15.336c-14.236-37.276-57.895-53.751-93.261-35.198-4.356 2.288-9.041 3.377-13.677 3.377-9.491 0-18.742-4.586-24.397-12.918-3.427-5.065-5.065-10.79-5.065-16.445 0-10.051 5.165-19.892 14.546-25.387l9.811-5.755c36.545-21.41 81.542-22.589 119.166-3.117 8.842 4.566 17.054 10.181 24.487 16.675 7.433 6.504 14.087 13.887 19.791 22.03l91.363 130.34 2.021 2.868c3.565 5.058 5.479 11.095 5.479 17.283v104.206z" fill="#ffcebf"/><path d="m336.35 94.076c3.636-7.272 2.533-16.044-2.848-22.139-10.064-11.402-22.179-20.874-35.763-27.909-17.823-9.221-37.294-13.817-56.746-13.817-21.609 0-43.189 5.675-62.42 16.944l-9.821 5.755c-2.513 1.472-4.71 3.264-6.598 5.279.416 4.822 2.026 9.616 4.945 13.931.518.763 1.076 1.484 1.652 2.184 17.888-9.365 37.55-14.093 57.242-14.093 19.451 0 38.923 4.596 56.746 13.817 17.673 9.152 32.859 22.429 44.278 38.714z" fill="#ffb09e"/><path d="m327.017 112.743c-11.419-16.285-26.605-29.563-44.278-38.714-17.823-9.222-37.294-13.817-56.746-13.817-21.609 0-43.189 5.675-62.42 16.944l-9.821 5.755c-14.666 8.592-19.002 27.764-9.471 41.832 5.645 8.332 14.896 12.918 24.397 12.918 4.636 0 9.321-1.089 13.677-3.377 9.94-5.215 20.53-7.663 30.93-7.663 26.644 0 52.09 16.045 62.32 42.851l5.854 15.346c14.726 38.575-1.928 82.044-38.683 100.957l-87.396 44.029c-10.83 5.575-17.184 17.164-16.035 29.283 1.469 15.466 15.315 26.985 30.591 26.985 1.259 0 2.528-.08 3.796-.24l94.549-12.019c34.427-4.346 68.784 8.662 91.682 34.708l31.67 36.017 48.033 58.212c.968 1.174 2.41 1.853 3.932 1.853 2.815 0 5.097-2.282 5.097-5.097v-217.099z" fill="#ffcebf"/><g><path d="m227.777 315.774c21.205-10.911 35.7-30.003 41.358-51.606-6.964 8.753-15.832 16.19-26.358 21.606l-87.396 44.029c-10.83 5.575-17.184 17.164-16.035 29.283.039.409.091.814.147 1.217.297-.166.584-.344.888-.5z" fill="#ffb09e"/></g></g></g></g></g><path d="m435.056 194.765c2.395 3.418 7.088 4.191 10.446 1.837 3.392-2.377 4.214-7.055 1.837-10.446l-91.36-130.34c-2.376-3.391-7.054-4.214-10.446-1.837s-4.214 7.055-1.837 10.446zm11.926 305.062-49.562-60.065c-.05-.061-.102-.12-.153-.179l-31.669-36.016c-24.577-27.956-61.312-41.863-98.26-37.196-3.062.387-94.595 12.199-97.401 12.199-11.892 0-22.049-8.87-23.123-20.193-.864-9.11 3.847-17.709 11.941-21.877l87.454-44.059c40.2-20.686 58.367-68.104 42.259-110.299l-5.855-15.347c-5.488-14.381-15.112-26.495-27.832-35.03-12.328-8.273-26.677-12.646-41.495-12.646-11.888 0-23.788 2.947-34.417 8.522-9.781 5.131-22.191 2.025-28.378-7.107-7.023-10.365-3.744-24.9 7.055-31.154 20.537-11.894 44.726-21.67 68.448-21.67 18.459 0 36.89 4.488 53.298 12.978 16.526 8.558 30.906 21.131 41.585 36.36 2.377 3.392 7.056 4.214 10.446 1.835 3.392-2.378 4.213-7.055 1.835-10.446-12.062-17.202-28.303-31.403-46.972-41.07-18.531-9.588-39.346-14.656-60.192-14.656-18.845 0-37.456 4.085-54.517 11.893-1.267-2.811-1.939-5.84-1.939-8.933 0-7.753 4.149-14.998 10.837-18.912l9.805-5.756c34.541-20.232 76.386-21.328 111.935-2.929 6.661 3.444 13.041 7.583 18.961 12.299 3.239 2.581 7.957 2.047 10.54-1.192 2.581-3.24 2.047-7.958-1.192-10.54-6.684-5.326-13.891-10-21.417-13.891-40.146-20.778-87.401-19.54-126.414 3.313l-9.803 5.755c-11.258 6.589-18.251 18.794-18.251 31.853 0 5.543 1.249 10.962 3.65 15.947l-8.226 4.82c-18.783 10.84-24.015 36.294-11.027 53.701h-49.16c-14.543 0-26.375 11.832-26.375 26.375 0 8.97 4.505 16.904 11.367 21.672-2.822 13.967-3.984 33.421 2.885 54.928 10.208 31.939 32.262 50.301 45.384 58.797v22c0 9.967 5.876 18.584 14.345 22.581-4.257 6.786-6.298 14.909-5.502 23.301 1.798 18.94 18.515 33.777 38.057 33.777 5.756 0 93.605-11.601 99.286-12.318 32.012-4.042 63.821 8.005 85.11 32.22l31.592 35.928 49.487 59.974c2.649 3.21 7.38 3.633 10.559 1.011 3.195-2.637 3.647-7.364 1.011-10.558zm-225.735-321.641c6.863-4.767 11.368-12.702 11.368-21.673 0-9.119-4.653-17.171-11.708-21.909 21.539 2.717 39.793 16.842 47.691 37.537l5.855 15.348c13.379 35.045-1.714 74.43-35.05 91.584l-66.426 33.465v-20.627c13.135-8.5 35.173-26.849 45.384-58.799 6.869-21.504 5.707-40.959 2.886-54.926zm-83.21 135.724v-23.56c0-4.203-2.118-8.045-5.679-10.287-11.185-7.004-31.307-23.011-40.417-51.515-5.645-17.673-4.983-33.754-2.795-45.675.64.031 25.32.016 25.995.016 4.143 0 7.5-3.358 7.5-7.5s-3.357-7.5-7.5-7.5h-25.365c-6.272 0-11.375-5.103-11.375-11.376 0-6.272 5.103-11.375 11.375-11.375h116.464c6.272 0 11.375 5.103 11.375 11.375 0 6.273-5.103 11.376-11.375 11.376h-56.099c-4.143 0-7.5 3.358-7.5 7.5s3.357 7.5 7.5 7.5c.474 0 56.265.009 56.726-.016 2.188 11.92 2.85 28.001-2.795 45.673-9.117 28.526-29.233 44.52-40.431 51.526-3.547 2.232-5.665 6.075-5.665 10.277v23.56c.025 5.396-4.565 9.96-9.971 9.96-5.495.001-9.968-4.467-9.968-9.959z"/></g></svg>