<svg id="Capa_1" enable-background="new 0 0 512.001 512.001" height="512" viewBox="0 0 512.001 512.001" width="512" xmlns="http://www.w3.org/2000/svg"><g><g><g><path d="m324.353 501.414c8.838 3.665 18.716 4.113 27.794 1.09 37.317-12.426 65.232-62.591 65.232-122.586s-27.915-110.16-65.232-122.586c-9.078-3.023-18.956-2.575-27.794 1.09-68.049 28.221-144.527 28.221-212.576 0-8.838-3.665-18.716-4.113-27.794-1.09-37.317 12.426-65.232 62.591-65.232 122.586s27.915 110.16 65.232 122.586c9.078 3.023 18.956 2.575 27.794-1.09 68.049-28.221 144.527-28.221 212.576 0z" fill="#a3d8a4"/><path d="m93.354 463.174c-17.219-8.784-34.603-41.419-34.603-83.256s17.384-74.472 34.603-83.256c1.789-.913 3.89-.958 5.751-.205 37.962 15.351 77.968 23.132 118.961 23.132 40.992 0 80.999-7.781 118.96-23.131 1.862-.753 3.962-.707 5.751.205 17.219 8.784 34.602 41.418 34.602 83.256 0 41.837-17.384 74.472-34.603 83.256-1.789.913-3.889.958-5.751.205-37.962-15.351-77.968-23.131-118.959-23.131-40.992 0-80.999 7.781-118.96 23.132-1.863.751-3.963.706-5.752-.207z" fill="#e0f0cf"/></g><path d="m260.881 287.435c-1.51-1.341-2.395-3.246-2.344-5.265.492-19.62-15.281-36.141-35.27-36.141-18.444 0-33.553 14.161-35.138 32.116-.202 2.287-1.612 4.285-3.662 5.319-9.441 4.76-15.742 14.835-14.958 26.299.911 13.318 11.595 24.174 24.898 25.279 8.055.669 15.45-2.166 20.838-7.143 2.538-2.345 6.474-2.345 9.012 0 5.384 4.974 12.774 7.808 20.823 7.144 13.447-1.11 24.193-12.182 24.936-25.654.482-8.738-3.151-16.64-9.135-21.954z" fill="#d8ecfe"/><g><path d="m260.881 287.435c-1.51-1.341-2.395-3.246-2.344-5.265.492-19.62-15.281-36.141-35.27-36.141-5.366 0-10.445 1.205-14.996 3.347 12.301 5.794 20.625 18.463 20.266 32.794-.051 2.019.834 3.924 2.344 5.265 5.984 5.314 9.617 13.216 9.135 21.954-.486 8.816-5.256 16.602-12.262 21.244 4.9 3.237 10.901 4.941 17.326 4.411 13.447-1.11 24.193-12.182 24.936-25.654.482-8.739-3.151-16.641-9.135-21.955z" fill="#c4e2ff"/></g><g><path d="m467.664 198.898c3.665-8.838 4.113-18.716 1.09-27.794-12.426-37.317-62.591-65.232-122.586-65.232s-110.16 27.915-122.586 65.232c-3.023 9.078-2.575 18.956 1.09 27.794 28.221 68.049 28.221 144.527 0 212.576-3.665 8.838-4.113 18.716-1.09 27.794 12.426 37.317 62.591 65.232 122.586 65.232s110.16-27.915 122.586-65.232c3.023-9.078 2.575-18.956-1.09-27.794-28.221-68.049-28.221-144.527 0-212.576z" fill="#bee49d"/><path d="m467.664 411.474c-28.221-68.049-28.221-144.527 0-212.576 3.665-8.838 4.113-18.716 1.09-27.794-12.426-37.317-62.591-65.232-122.586-65.232-5.078 0-10.079.216-15 .605 53.21 4.205 96.212 30.469 107.586 64.627 3.023 9.078 2.575 18.956-1.09 27.794-28.221 68.049-28.221 144.527 0 212.576 3.665 8.838 4.113 18.716 1.09 27.794-11.374 34.158-54.376 60.423-107.586 64.627 4.921.389 9.922.605 15 .605 59.995 0 110.16-27.915 122.586-65.232 3.024-9.078 2.576-18.956-1.09-27.794z" fill="#a3d8a4"/><path d="m429.425 429.897c-8.784 17.219-41.419 34.603-83.256 34.603s-74.472-17.384-83.256-34.603c-.913-1.789-.958-3.89-.205-5.751 15.351-37.962 23.132-77.968 23.132-118.961 0-40.992-7.781-80.999-23.131-118.96-.753-1.862-.707-3.962.205-5.751 8.784-17.219 41.418-34.602 83.256-34.602 41.837 0 74.472 17.384 83.256 34.603.913 1.789.958 3.89.205 5.751-15.351 37.962-23.131 77.968-23.131 118.959 0 40.992 7.781 80.999 23.132 118.96.751 1.862.705 3.963-.207 5.752z" fill="#e0f0cf"/></g><path d="m393.083 111.719c-1.557-1.383-2.47-3.347-2.418-5.43.508-20.233-15.759-37.271-36.372-37.271-19.021 0-34.602 14.604-36.237 33.12-.208 2.358-1.663 4.419-3.777 5.485-9.736 4.909-16.234 15.299-15.426 27.121.94 13.735 11.957 24.93 25.677 26.069 8.307.69 15.933-2.233 21.489-7.366 2.617-2.418 6.677-2.418 9.294 0 5.552 5.13 13.173 8.053 21.474 7.368 13.868-1.144 24.949-12.562 25.716-26.456.498-9.011-3.249-17.16-9.42-22.64z" fill="#d8ecfe"/><g><path d="m393.083 111.719c-1.557-1.383-2.47-3.347-2.417-5.43.508-20.233-15.759-37.271-36.373-37.271-5.352 0-10.432 1.156-15.005 3.231 12.948 5.869 21.753 19.076 21.377 34.04-.052 2.082.86 4.047 2.417 5.43 6.171 5.48 9.918 13.629 9.421 22.64-.512 9.286-5.636 17.461-13.117 22.207 4.966 3.142 10.977 4.779 17.401 4.249 13.868-1.144 24.949-12.562 25.716-26.456.498-9.011-3.249-17.16-9.42-22.64z" fill="#c4e2ff"/></g><circle cx="467.751" cy="33" fill="#d8ecfe" r="25.5"/><path d="m467.751 7.5c-4.646 0-8.998 1.249-12.75 3.42 7.62 4.41 12.75 12.643 12.75 22.08s-5.13 17.67-12.75 22.08c3.752 2.171 8.104 3.42 12.75 3.42 14.083 0 25.5-11.417 25.5-25.5s-11.417-25.5-25.5-25.5z" fill="#c4e2ff"/><circle cx="152.751" cy="213" fill="#d8ecfe" r="25.5"/><g fill="#c4e2ff"><path d="m152.751 187.5c-4.646 0-8.998 1.249-12.75 3.42 7.62 4.41 12.75 12.643 12.75 22.08s-5.13 17.67-12.75 22.08c3.752 2.171 8.104 3.42 12.75 3.42 14.083 0 25.5-11.417 25.5-25.5s-11.417-25.5-25.5-25.5z"/><circle cx="152.751" cy="48" r="16.5"/></g></g><path d="m152.751 72c13.233 0 24-10.767 24-24s-10.767-24-24-24-24 10.767-24 24 10.766 24 24 24zm0-33c4.962 0 9 4.038 9 9s-4.038 9-9 9-9-4.038-9-9 4.037-9 9-9zm0 207c18.196 0 33-14.804 33-33s-14.804-33-33-33-33 14.804-33 33 14.803 33 33 33zm0-51c9.925 0 18 8.075 18 18s-8.075 18-18 18-18-8.075-18-18 8.074-18 18-18zm323.116-26.269c-9.465-28.427-38.406-51.909-77.701-63.221.042-11.547-4.36-22.439-12.475-30.76-8.321-8.532-19.472-13.231-31.398-13.231-22.395 0-41.497 17.339-43.669 39.551-.518.267-1.014.563-1.514.852-46.481 9.102-81.92 34.616-92.645 66.812-3.562 10.711-3.109 22.443 1.279 33.04 5.062 12.206 9.195 24.667 12.398 37.333-2.265-.368-4.561-.576-6.87-.576-19.266 0-36.02 13.161-41.153 31.133-23.173-3.111-45.837-9.206-67.469-18.173-5.853-2.422-12.012-3.65-18.308-3.65-5.046 0-10.003.799-14.73 2.375-23.471 7.817-43.483 28.564-56.351 58.417-1.639 3.804.115 8.217 3.919 9.856 3.721 1.604 8.197-.069 9.856-3.919 10.99-25.5 28.236-43.769 47.317-50.124 3.196-1.065 6.557-1.605 9.988-1.605 4.317 0 8.547.845 12.568 2.508 20.313 8.42 41.49 14.449 63.142 17.989-6.194 6.234-9.858 14.658-10.078 23.655-20.459-3.759-40.616-9.621-60.036-17.476-3.907-1.596-8.275-1.429-11.996.463-19.227 9.814-38.69 43.859-38.69 89.94 0 46.089 19.465 80.128 38.672 89.921 3.731 1.902 8.101 2.06 11.989.492 37.323-15.052 76.67-22.691 116.934-22.575 4.072 9.167 10.267 17.825 18.272 25.634-6.346-.426-12.704-.651-19.048-.651-37.642 0-74.369 7.315-109.166 21.743-7.258 3.013-15.266 3.333-22.556.9-34.823-11.589-60.098-60.148-60.098-115.464 0-11.428 1.058-22.727 3.143-33.582.782-4.067-1.882-7.999-5.95-8.78-4.064-.782-7.999 1.882-8.78 5.95-2.265 11.785-3.413 24.036-3.413 36.412 0 30.412 6.75 59.005 19.519 82.688 12.749 23.645 30.805 40.339 50.837 47.006 4.777 1.594 9.757 2.387 14.748 2.387 6.205 0 12.427-1.226 18.298-3.663 32.963-13.668 67.758-20.598 103.417-20.598 14.418 0 28.919 1.179 43.13 3.484 24.576 13.868 53.451 20.776 84.972 20.776 30.412 0 59.005-6.75 82.688-19.519 23.645-12.749 40.339-30.805 47.006-50.837 3.576-10.715 3.122-22.452-1.276-33.046-13.668-32.963-20.598-67.758-20.598-103.417 0-35.663 6.93-70.454 20.597-103.405 4.399-10.598 4.853-22.335 1.279-33.045zm-158.212-54.411c4.491-2.264 7.434-6.57 7.872-11.522 1.302-14.736 13.937-26.28 28.766-26.28 7.849 0 15.186 3.091 20.66 8.704 5.494 5.634 8.412 13.049 8.215 20.876-.107 4.255 1.691 8.347 4.935 11.228 4.743 4.212 7.263 10.27 6.913 16.619-.563 10.227-8.698 18.557-18.845 19.395-5.875.485-11.473-1.434-15.767-5.401-5.459-5.045-14.014-5.045-19.473-.001-4.3 3.971-9.909 5.889-15.779 5.401-10.038-.834-18.127-9.048-18.815-19.107-.572-8.341 3.872-16.157 11.318-19.912zm-129.817 175.842c4.368-2.194 7.343-6.546 7.764-11.354 0-.006.001-.012.002-.018.001-.007.003-.014.003-.021.001-.006 0-.012.001-.018 1.275-14.147 13.414-25.221 27.663-25.221 3.662 0 7.17.688 10.47 2.04 3.04 16.275 4.59 32.843 4.59 49.611 0 7.28-.304 14.521-.88 21.72-2.986-.829-5.755-2.343-8.097-4.505-5.385-4.984-13.822-4.984-19.208 0-4.109 3.803-9.479 5.641-15.118 5.169-9.623-.795-17.376-8.67-18.036-18.321-.55-7.996 3.709-15.488 10.846-19.082zm29.902 118.441c-2.422 5.853-3.65 12.012-3.65 18.308 0 1.978.127 3.941.371 5.883-40.615.442-80.29 8.347-117.975 23.554-12.649-6.718-30.236-34.643-30.236-76.427 0-41.776 17.585-69.708 30.225-76.432 22.25 8.984 45.4 15.473 68.88 19.319 5.223 10.851 15.929 18.674 28.432 19.707 9.477.792 18.893-2.333 25.962-8.582 4.633 4.094 10.147 6.814 16.067 8.009-3.121 22.826-9.151 45.137-18.076 66.661zm242.993-212.577c-14.427 34.784-21.742 71.508-21.742 109.154 0 37.642 7.315 74.369 21.743 109.166 3.013 7.257 3.333 15.266.9 22.556-11.588 34.823-60.148 60.098-115.463 60.098-55.312 0-103.875-25.276-115.475-60.102-1.065-3.196-1.605-6.557-1.605-9.988 0-4.317.845-8.547 2.508-12.567 14.42-34.779 21.732-71.507 21.732-109.163 0-37.66-7.312-74.384-21.73-109.149-3.007-7.261-3.327-15.274-.904-22.561 7.448-22.359 31.056-41.591 62.416-51.91-1.431 4.324-2.065 8.958-1.74 13.696.299 4.365 1.405 8.529 3.167 12.341-18.358 7.137-32.355 17.797-38.313 29.473-1.884 3.704-2.053 8.071-.469 11.971 14.985 37.058 22.583 76.136 22.583 116.148 0 40.003-7.598 79.081-22.573 116.124-1.596 3.907-1.429 8.275.464 11.996 9.813 19.227 43.859 38.69 89.939 38.69 46.089 0 80.128-19.465 89.921-38.672 1.896-3.691 2.077-8.059.492-11.989-14.985-37.068-22.583-76.146-22.583-116.149 0-4.142-3.357-7.5-7.5-7.5s-7.5 3.358-7.5 7.5c0 41.87 7.94 82.774 23.598 121.574-6.719 12.651-34.645 30.237-76.428 30.237-41.775 0-69.709-17.585-76.432-30.225 15.661-38.808 23.602-79.713 23.602-121.585 0-41.879-7.939-82.783-23.604-121.59 4.712-8.889 17.922-17.87 34.361-23.526 6.132 5.163 14.371 8.338 22.765 8.337 8.753 0 17.268-3.216 23.804-9.052 7.264 6.486 16.97 9.737 26.737 8.931 6.202-.512 11.954-2.637 16.851-5.94 13.6 5.613 24.247 13.542 28.345 21.261-11.125 27.562-18.405 56.41-21.639 85.745-.453 4.117 2.517 7.823 6.634 8.277.278.031.556.045.83.045 3.774 0 7.023-2.841 7.446-6.679 3.09-28.037 10.059-55.611 20.72-81.978 1.576-3.929 1.394-8.296-.489-11.959-5.116-10.03-16.164-19.332-30.955-26.303 2.794-4.752 4.525-10.193 4.845-15.987.18-3.266-.089-6.485-.761-9.591 26.642 10.874 45.716 28.203 52.406 48.293 2.43 7.285 2.11 15.293-.904 22.552zm7.018-196.026c-18.196 0-33 14.804-33 33s14.804 33 33 33 33-14.804 33-33-14.804-33-33-33zm0 51c-9.925 0-18-8.075-18-18s8.075-18 18-18 18 8.075 18 18-8.075 18-18 18z"/></g></svg>