<svg id="Capa_1" enable-background="new 0 0 512 512" height="512" viewBox="0 0 512 512" width="512" xmlns="http://www.w3.org/2000/svg"><g><g><path d="m294.265 109.5h-76.53l7.174-24.392c5.191-17.648 7.826-35.948 7.826-54.343 0-12.849 10.416-23.265 23.265-23.265 12.849 0 23.265 10.416 23.265 23.265 0 18.395 2.635 36.696 7.826 54.343z" fill="#a6d6f8"/><path d="m287.091 85.108c-5.19-17.648-7.826-35.948-7.826-54.343 0-12.849-10.416-23.265-23.265-23.265-5.717 0-10.949 2.066-15 5.487 5.053 4.268 8.265 10.646 8.265 17.778 0 18.395 2.635 36.696 7.826 54.343l7.174 24.392h30z" fill="#8ecbfb"/><path d="m320 209.5h-128v-82c0-11.046 8.954-20 20-20h88c11.046 0 20 8.954 20 20z" fill="#eaf6ff"/><path d="m300 107.5h-30c11.046 0 20 8.954 20 20v82h30v-82c0-11.046-8.954-20-20-20z" fill="#d8ecfe"/><circle cx="256" cy="343.677" fill="#a6d6f8" r="160.823"/><path d="m256 182.854c-5.059 0-10.06.245-15 .702 81.786 7.566 145.823 76.36 145.823 160.121s-64.038 152.555-145.823 160.121c4.94.457 9.941.702 15 .702 88.82 0 160.823-72.003 160.823-160.823s-72.003-160.823-160.823-160.823z" fill="#8ecbfb"/><circle cx="256" cy="343.677" fill="#fff" r="80.295"/><path d="m290.382 350.462c0 18.988-15.393 34.382-34.382 34.382s-34.382-15.393-34.382-34.382c0-15.7 23.505-39.198 31.646-46.865 1.539-1.449 3.933-1.449 5.472 0 8.14 7.667 31.646 31.164 31.646 46.865z" fill="#a6d6f8"/><path d="m258.736 303.597c-1.539-1.449-3.933-1.449-5.472 0-2.799 2.636-7.413 7.143-12.264 12.56 9.26 10.341 19.382 24.001 19.382 34.304 0 13.61-7.91 25.371-19.382 30.943 4.533 2.202 9.622 3.438 15 3.438 18.988 0 34.382-15.393 34.382-34.382 0-15.699-23.506-39.196-31.646-46.863z" fill="#8ecbfb"/><path d="m354.5 504.5h-197c-8.284 0-15-6.716-15-15 0-8.284 6.716-15 15-15h197c8.284 0 15 6.716 15 15 0 8.284-6.716 15-15 15z" fill="#eaf6ff"/><path d="m354.5 474.5h-30c8.284 0 15 6.716 15 15s-6.716 15-15 15h30c8.284 0 15-6.716 15-15s-6.716-15-15-15z" fill="#d8ecfe"/></g><path d="m366.598 470.544c36.397-31.805 57.722-78.13 57.722-126.865 0-67.264-39.661-125.43-96.82-152.364v-63.815c-.001-15.384-12.78-27.926-28.217-27.5l-4.996-17c-4.984-16.999-7.527-34.557-7.527-52.24 0-8.229-3.201-15.952-9-21.736-5.804-5.819-13.532-9.024-21.76-9.024s-15.956 3.205-21.747 9.01c-5.812 5.798-9.013 13.521-9.013 21.75 0 17.678-2.532 35.252-7.526 52.236l-4.997 17.004c-15.42-.346-28.21 12.043-28.217 27.5v63.664c-18.606 8.739-35.64 20.962-50.326 36.363-2.858 2.997-2.746 7.745.252 10.604 2.997 2.857 7.744 2.744 10.604-.252 14.222-14.914 30.859-26.556 49.066-34.591.624-.182 1.212-.444 1.758-.772 18.728-7.981 39.074-12.166 60.146-12.166 84.541 0 153.32 68.783 153.32 153.33 0 48.537-23.226 94.448-62.231 123.32h-42.377c-4.142 0-7.5 3.357-7.5 7.5s3.358 7.5 7.5 7.5h49.788c4.136 0 7.5 3.364 7.5 7.5s-3.364 7.5-7.5 7.5h-197c-4.136 0-7.5-3.364-7.5-7.5s3.364-7.5 7.5-7.5h112.212c4.142 0 7.5-3.357 7.5-7.5s-3.358-7.5-7.5-7.5h-104.8c-39.005-28.872-62.231-74.784-62.231-123.32 0-28.012 7.622-55.416 22.04-79.25 2.144-3.544 1.009-8.155-2.535-10.299-3.546-2.146-8.155-1.009-10.299 2.535-15.837 26.176-24.207 56.265-24.207 87.014 0 48.734 21.325 95.059 57.722 126.865-6.249 4.001-10.402 11-10.402 18.955 0 12.406 10.093 22.5 22.5 22.5h197c12.407 0 22.5-10.094 22.5-22.5 0-7.955-4.153-14.954-10.402-18.956zm-134.493-383.317c5.398-18.357 8.135-37.355 8.135-56.467 0-4.214 1.636-8.167 4.62-11.143 2.97-2.977 6.926-4.617 11.14-4.617s8.17 1.64 11.154 4.631c2.97 2.962 4.606 6.915 4.606 11.129 0 19.092 2.751 38.11 8.134 56.465l3.754 12.775h-55.297zm80.395 97.89c-17.669-6.316-36.688-9.767-56.5-9.767-19.606 0-38.635 3.31-56.5 9.649v-57.499c0-6.893 5.607-12.5 12.5-12.5h88c6.893 0 12.5 5.607 12.5 12.5zm-14.619 165.345c0-17.662-21.304-40.363-34.002-52.323-4.418-4.161-11.34-4.162-15.757-.001-12.699 11.961-34.003 34.662-34.003 52.324 0 23.094 18.788 41.882 41.881 41.882s41.881-18.788 41.881-41.882zm-68.762 0c0-8.011 10.465-23.174 26.881-39.104 16.415 15.93 26.881 31.094 26.881 39.104 0 14.822-12.059 26.882-26.881 26.882s-26.881-12.06-26.881-26.882zm114.675-6.785c0-48.41-39.384-87.795-87.794-87.795s-87.794 39.385-87.794 87.795 39.384 87.795 87.794 87.795 87.794-39.385 87.794-87.795zm-160.588 0c0-40.14 32.655-72.795 72.794-72.795s72.794 32.655 72.794 72.795-32.655 72.795-72.794 72.795-72.794-32.656-72.794-72.795z"/></g></svg>