<svg id="Capa_1" enable-background="new 0 0 512 512" height="512" viewBox="0 0 512 512" width="512" xmlns="http://www.w3.org/2000/svg"><g><g><g><path d="m314.5 504.5h-117c-16.569 0-30-13.431-30-30v-93h177v93c0 16.569-13.431 30-30 30z" fill="#e0f0cf"/><path d="m314.5 381.5v93c0 16.569-13.431 30-30 30h30c16.569 0 30-13.431 30-30v-93z" fill="#cbe7af"/><path d="m392.768 7.5h-273.536c-6.155 0-10.849 5.507-9.874 11.584l58.142 362.416h177l58.142-362.416c.975-6.077-3.719-11.584-9.874-11.584z" fill="#bee49d"/><path d="m392.768 7.5h-30c6.155 0 10.849 5.507 9.874 11.584l-58.142 362.416h30l58.142-362.416c.975-6.077-3.719-11.584-9.874-11.584z" fill="#a3d8a4"/><path d="m394.874 67.5 7.767-48.416c.975-6.077-3.719-11.584-9.874-11.584h-273.535c-6.155 0-10.849 5.507-9.874 11.584l7.767 48.416z" fill="#e0f0cf"/><path d="m392.768 7.5h-30c6.155 0 10.849 5.507 9.874 11.584l-7.768 48.416h30l7.767-48.416c.976-6.077-3.718-11.584-9.873-11.584z" fill="#cbe7af"/><path d="m197.5 504.5h117c16.569 0 30-13.431 30-30v-15h-177v15c0 16.569 13.431 30 30 30z" fill="#bee49d"/><path d="m314.5 459.5v15c0 16.569-13.431 30-30 30h30c16.569 0 30-13.431 30-30v-15z" fill="#a3d8a4"/><path d="m302.692 459.5c0-25.787-20.905-46.692-46.692-46.692s-46.692 20.905-46.692 46.692z" fill="#a3d8a4"/><path d="m256 412.808c-5.249 0-10.29.879-15 2.477 18.426 6.25 31.692 23.678 31.692 44.216h30c0-25.788-20.905-46.693-46.692-46.693z" fill="#9bcc9b"/></g><circle cx="256" cy="220.135" fill="#fff" r="80.295"/><path d="m295.612 223.67-2.251.716c-15.753 5.012-28.096 17.355-33.109 33.109l-.716 2.251c-1.097 3.447-5.975 3.447-7.072 0l-.716-2.251c-5.012-15.753-17.355-28.096-33.109-33.109l-2.251-.716c-3.447-1.097-3.447-5.975 0-7.072l2.251-.716c15.753-5.012 28.096-17.355 33.109-33.109l.716-2.251c1.097-3.447 5.975-3.447 7.072 0l.716 2.251c5.012 15.753 17.355 28.096 33.109 33.109l2.251.716c3.447 1.098 3.447 5.975 0 7.072z" fill="#bee49d"/><path d="m295.612 216.599-2.249-.716c-15.754-5.012-28.098-17.355-33.11-33.109l-.716-2.251c-1.097-3.447-5.975-3.447-7.072 0l-.716 2.251c-2.237 7.029-5.94 13.372-10.748 18.695 5.966 6.606 13.637 11.637 22.361 14.413 4.146 1.319 4.146 7.185 0 8.504-8.724 2.776-16.394 7.807-22.361 14.413 4.807 5.323 8.511 11.666 10.748 18.695l.716 2.251c1.097 3.447 5.975 3.447 7.072 0l.716-2.251c5.012-15.753 17.354-28.095 33.107-33.108l2.253-.717c3.446-1.096 3.446-5.974-.001-7.07z" fill="#a3d8a4"/></g><path d="m245.317 178.248-.716 2.251c-4.268 13.413-14.823 23.969-28.234 28.236l-2.253.716c-4.672 1.487-7.812 5.78-7.812 10.683s3.139 9.196 7.81 10.683l2.253.717c13.413 4.269 23.968 14.823 28.236 28.235l.716 2.253c1.487 4.672 5.78 7.811 10.683 7.811s9.196-3.139 10.683-7.812l.716-2.251c4.268-13.413 14.823-23.968 28.237-28.236l2.25-.716c4.672-1.487 7.812-5.78 7.812-10.684 0-4.902-3.139-9.195-7.813-10.683l-2.25-.715c-13.413-4.269-23.968-14.824-28.236-28.237l-.716-2.25c-1.486-4.673-5.779-7.812-10.683-7.812s-9.196 3.139-10.683 7.811zm38.433 41.887c-12.152 5.773-21.976 15.597-27.75 27.749-5.773-12.151-15.598-21.976-27.75-27.749 12.152-5.773 21.976-15.598 27.75-27.75 5.773 12.152 15.597 21.975 27.75 27.75zm122.336-213.987c-3.33-3.907-8.184-6.148-13.318-6.148h-273.536c-5.134 0-9.988 2.241-13.318 6.148-3.33 3.906-4.774 9.055-3.96 14.124l58.046 361.826v92.402c0 20.678 16.822 37.5 37.5 37.5h117c20.678 0 37.5-16.822 37.5-37.5v-92.402l8.033-50.07c.656-4.09-2.127-7.938-6.217-8.594-4.087-.655-7.938 2.128-8.593 6.217l-7.116 44.349h-164.214l-47.968-299h51.597c4.142 0 7.5-3.357 7.5-7.5s-3.358-7.5-7.5-7.5h-54.004l-6.755-42.104c-.203-1.714.734-2.83 2.468-2.896h16.769v11.193c0 4.143 3.358 7.5 7.5 7.5s7.5-3.357 7.5-7.5v-11.193h30v11.193c0 4.143 3.358 7.5 7.5 7.5s7.5-3.357 7.5-7.5v-11.193h30v11.193c0 4.143 3.358 7.5 7.5 7.5s7.5-3.357 7.5-7.5v-11.193h30v11.193c0 4.143 3.358 7.5 7.5 7.5s7.5-3.357 7.5-7.5v-11.193h30v11.193c0 4.143 3.358 7.5 7.5 7.5s7.5-3.357 7.5-7.5v-11.193h30v11.193c0 4.143 3.358 7.5 7.5 7.5s7.5-3.357 7.5-7.5v-11.193h16.768c1.76.078 2.667 1.177 2.468 2.896l-6.754 42.104h-175.96c-4.142 0-7.5 3.357-7.5 7.5s3.358 7.5 7.5 7.5h173.553l-35.312 220.113c-.656 4.089 2.127 7.937 6.217 8.593 4.089.651 7.937-2.127 8.593-6.217l44.473-277.217c.814-5.069-.629-10.217-3.96-14.124zm-231.086 382.852h162v63h-27.339c-3.665-26.343-26.325-46.692-53.661-46.692s-49.996 20.349-53.661 46.692h-27.339zm119.472 63h-76.943c3.509-18.036 19.425-31.692 38.472-31.692s34.962 13.656 38.471 31.692zm-119.472 15h162v7.5c0 12.406-10.093 22.5-22.5 22.5h-117c-12.407 0-22.5-10.094-22.5-22.5zm-6.794-246.865c0 48.41 39.384 87.794 87.794 87.794s87.794-39.384 87.794-87.794-39.384-87.795-87.794-87.795-87.794 39.385-87.794 87.795zm160.588 0c0 40.139-32.655 72.794-72.794 72.794s-72.794-32.655-72.794-72.794c0-40.14 32.655-72.795 72.794-72.795s72.794 32.655 72.794 72.795z"/></g></svg>