<svg id="Capa_1" enable-background="new 0 0 511.999 511.999" height="512" viewBox="0 0 511.999 511.999" width="512" xmlns="http://www.w3.org/2000/svg"><g><g><g><path d="m305.641 418.077-124.667-87.052-87.052-124.667c-5.651-8.093-4.684-19.075 2.297-26.055l84.084-84.084c6.98-6.98 17.962-7.948 26.055-2.297l124.667 87.052 87.052 124.667c5.651 8.093 4.684 19.075-2.297 26.055l-84.084 84.084c-6.98 6.981-17.961 7.949-26.055 2.297z" fill="#c1e3f7"/><path d="m418.077 305.641-87.052-124.667-124.667-87.052c-8.094-5.651-19.075-4.684-26.055 2.297l-.27.27 120.992 84.486 87.052 124.667c5.651 8.094 4.684 19.075-2.297 26.055l-83.814 83.814 3.675 2.566c8.094 5.651 19.075 4.684 26.055-2.297l84.084-84.084c6.98-6.98 7.948-17.961 2.297-26.055z" fill="#a6d6f8"/><path d="m120.564 489.59-98.154-98.155c-21.59-21.59-19.448-57.197 4.574-76.044l95.88-75.223c43.664-34.257 83.048-73.641 117.305-117.305l75.223-95.88c18.847-24.022 54.454-26.163 76.044-4.574l98.154 98.154c21.59 21.59 19.448 57.197-4.574 76.044l-95.88 75.223c-43.664 34.257-83.048 73.641-117.305 117.305l-75.223 95.88c-18.847 24.023-54.454 26.164-76.044 4.575z" fill="#a6d6f8"/><path d="m489.589 120.564-15-15c21.59 21.59 19.448 57.197-4.574 76.044l-95.88 75.223c-43.664 34.257-83.048 73.641-117.305 117.305l-75.223 95.88c-18.847 24.022-54.454 26.163-76.044 4.574l15 15c21.59 21.59 57.197 19.448 76.044-4.574l75.223-95.88c34.257-43.664 73.641-83.048 117.305-117.305l95.88-75.223c24.023-18.847 26.164-54.454 4.574-76.044z" fill="#8ecbfb"/><path d="m156.533 473.958c-5.422 0-10.526-2.118-14.372-5.965l-98.154-98.154c-5.636-5.635-6.133-12.206-5.928-15.62.206-3.415 1.486-9.878 7.756-14.797l95.88-75.223c45.542-35.731 86.751-76.94 122.482-122.483l75.223-95.88c3.886-4.953 9.734-7.794 16.045-7.794 5.422 0 10.526 2.118 14.372 5.965l98.154 98.154c5.636 5.635 6.133 12.206 5.928 15.62-.206 3.415-1.486 9.878-7.756 14.797l-95.88 75.223c-45.542 35.731-86.751 76.94-122.482 122.483l-75.223 95.88c-3.886 4.953-9.734 7.794-16.045 7.794z" fill="#eaf6ff"/><path d="m190.288 321.712c-8.407-8.407-8.407-22.036 0-30.443l100.981-100.981c8.407-8.407 22.036-8.407 30.443 0 8.407 8.407 8.407 22.036 0 30.443l-100.982 100.981c-8.406 8.406-22.036 8.406-30.442 0z" fill="#a6d6f8"/></g><path d="m471.914 435.838-2.251.716c-15.753 5.012-28.096 17.355-33.109 33.109l-.716 2.251c-1.097 3.447-5.975 3.447-7.072 0l-.716-2.251c-5.012-15.753-17.355-28.096-33.109-33.109l-2.251-.716c-3.447-1.097-3.447-5.975 0-7.072l2.251-.716c15.753-5.012 28.096-17.355 33.109-33.109l.716-2.251c1.097-3.447 5.975-3.447 7.072 0l.716 2.251c5.012 15.753 17.355 28.096 33.109 33.109l2.251.716c3.447 1.097 3.447 5.975 0 7.072z" fill="#eaf6ff"/><path d="m471.914 428.766-2.251-.716c-15.753-5.012-28.096-17.355-33.109-33.109l-.716-2.251c-1.097-3.447-5.975-3.447-7.072 0l-.716 2.251c-2.237 7.029-5.94 13.372-10.748 18.695 5.966 6.606 13.637 11.638 22.361 14.413 4.146 1.319 4.146 7.185 0 8.504-8.724 2.776-16.394 7.807-22.361 14.413 4.807 5.323 8.511 11.666 10.748 18.695l.716 2.251c1.097 3.447 5.975 3.447 7.072 0l.716-2.251c5.012-15.753 17.355-28.096 33.109-33.109l2.251-.716c3.447-1.095 3.447-5.973 0-7.07z" fill="#d8ecfe"/><path d="m119.309 83.233-2.251.716c-15.753 5.012-28.096 17.355-33.109 33.109l-.716 2.251c-1.097 3.447-5.975 3.447-7.072 0l-.716-2.251c-5.012-15.753-17.355-28.096-33.109-33.109l-2.251-.716c-3.447-1.097-3.447-5.975 0-7.072l2.251-.716c15.754-5.012 28.096-17.355 33.109-33.108l.716-2.251c1.097-3.447 5.975-3.447 7.072 0l.716 2.251c5.012 15.753 17.355 28.096 33.109 33.109l2.251.716c3.447 1.096 3.447 5.974 0 7.071z" fill="#eaf6ff"/><path d="m119.309 76.162-2.251-.716c-15.753-5.012-28.096-17.355-33.109-33.109l-.716-2.251c-1.097-3.447-5.975-3.447-7.072 0l-.716 2.251c-2.237 7.029-5.94 13.372-10.748 18.695 5.966 6.606 13.637 11.638 22.361 14.413 4.146 1.319 4.146 7.185 0 8.504-8.724 2.776-16.394 7.807-22.361 14.413 4.807 5.323 8.511 11.666 10.748 18.695l.716 2.251c1.097 3.447 5.975 3.447 7.072 0l.716-2.251c5.013-15.754 17.356-28.097 33.11-33.109l2.25-.716c3.447-1.096 3.447-5.974 0-7.07z" fill="#d8ecfe"/></g><path d="m474.188 421.619-2.251-.716c-13.413-4.268-23.968-14.823-28.235-28.235l-.716-2.252c-1.487-4.672-5.78-7.811-10.683-7.811s-9.196 3.139-10.683 7.812l-.716 2.251c-4.268 13.413-14.823 23.968-28.235 28.235l-2.252.716c-4.672 1.487-7.811 5.78-7.811 10.683 0 4.902 3.139 9.195 7.812 10.683l2.251.716c13.413 4.268 23.968 14.823 28.235 28.235l.716 2.252c1.487 4.672 5.78 7.811 10.683 7.811 4.902 0 9.195-3.139 10.683-7.812l.716-2.251c4.268-13.413 14.823-23.968 28.235-28.235l2.251-.716c4.672-1.487 7.811-5.78 7.811-10.683 0-4.902-3.139-9.195-7.811-10.683zm-41.886 38.433c-5.773-12.152-15.597-21.976-27.75-27.75 12.152-5.773 21.976-15.597 27.75-27.75 5.774 12.152 15.598 21.977 27.75 27.75-12.153 5.773-21.977 15.597-27.75 27.75zm-394.491-369.672 2.251.716c13.413 4.268 23.968 14.823 28.235 28.235l.716 2.252c1.487 4.672 5.78 7.811 10.683 7.811s9.196-3.139 10.683-7.812l.716-2.251c4.268-13.413 14.823-23.968 28.235-28.235l2.251-.716c4.672-1.487 7.811-5.78 7.811-10.683 0-4.902-3.139-9.195-7.812-10.683l-2.251-.716c-13.413-4.268-23.968-14.823-28.235-28.235l-.716-2.252c-1.485-4.672-5.778-7.811-10.681-7.811-4.902 0-9.195 3.139-10.683 7.812l-.716 2.251c-4.268 13.412-14.823 23.968-28.236 28.235l-2.252.716c-4.672 1.487-7.811 5.78-7.811 10.683s3.14 9.196 7.812 10.683zm41.886-38.432c5.773 12.152 15.597 21.976 27.75 27.75-12.152 5.773-21.976 15.597-27.75 27.75-5.774-12.152-15.598-21.977-27.75-27.75 12.153-5.774 21.977-15.598 27.75-27.75zm415.196 63.313-98.154-98.154c-11.807-11.806-28.138-18.007-44.804-17.001-16.667 1.002-32.137 9.112-42.444 22.249l-68.139 86.849-30.702-21.436c-11.095-7.74-26.09-6.416-35.654 3.148l-84.08 84.08c-9.564 9.563-10.888 24.558-3.146 35.657l21.433 30.699-86.849 68.139c-13.137 10.307-21.246 25.777-22.249 42.444s5.194 32.997 17.001 44.804l41.974 41.974c2.929 2.929 7.678 2.929 10.606 0 2.929-2.929 2.929-7.678 0-10.606l-41.974-41.974c-8.774-8.774-13.379-20.911-12.634-33.297s6.771-23.883 16.534-31.542c141.429-104.535 184.383-143.906 289.68-289.68 7.659-9.763 19.156-15.789 31.542-16.534 12.392-.744 24.522 3.86 33.297 12.634l98.154 98.154c8.774 8.774 13.379 20.911 12.634 33.297s-6.771 23.883-16.534 31.542c-137.948 108.225-182.492 153.054-289.68 289.68-7.659 9.763-19.156 15.789-31.542 16.534-12.394.742-24.522-3.86-33.297-12.634l-31.344-31.343c-2.929-2.929-7.678-2.929-10.606 0-2.929 2.929-2.929 7.678 0 10.606l31.344 31.343c11.834 11.84 28.194 18 44.804 17.001 16.667-1.002 32.137-9.112 42.444-22.249l68.139-86.849 30.702 21.435c11.045 7.709 26.051 6.452 35.654-3.148l84.08-84.08c9.564-9.563 10.888-24.558 3.146-35.657l-21.433-30.699 86.849-68.139c13.137-10.307 21.246-25.777 22.249-42.444s-5.195-32.996-17.001-44.803zm-373.886 116.796-20.937-29.988c-3.575-5.125-2.964-12.05 1.452-16.466l84.08-84.08c4.416-4.416 11.341-5.027 16.463-1.454l29.991 20.939c-32.603 41.114-69.934 78.446-111.049 111.049zm290.921 77.873c3.575 5.125 2.964 12.05-1.452 16.466l-84.08 84.08c-4.416 4.416-11.341 5.027-16.463 1.454l-29.991-20.939c32.603-41.115 69.935-78.446 111.049-111.049zm-226.944 17.085c13.399 11.234 27.882 10.767 41.05 0l100.981-100.981c11.316-11.317 11.316-29.732 0-41.05-11.317-11.316-29.732-11.316-41.049 0l-100.982 100.982c-11.317 11.317-11.317 29.732 0 41.049zm10.607-30.443 100.981-100.981c5.469-5.468 14.367-5.469 19.836 0 5.468 5.469 5.468 14.368 0 19.836l-100.981 100.981c-5.469 5.467-14.368 5.468-19.836 0-5.469-5.468-5.469-14.367 0-19.836zm-14.71-75.581c-14.047 12.977-28.782 25.528-43.794 37.307l-95.88 75.224c-8.579 6.731-10.332 15.575-10.613 20.247s.398 13.663 8.11 21.374l98.154 98.154c5.263 5.263 12.25 8.162 19.676 8.162 8.629 0 16.627-3.887 21.946-10.665l75.223-95.88c35.359-45.07 76.141-85.851 121.21-121.211l95.88-75.224c8.579-6.731 10.332-15.575 10.613-20.247s-.398-13.663-8.11-21.374l-98.154-98.154c-5.263-5.263-12.25-8.162-19.676-8.162-8.629 0-16.627 3.887-21.946 10.665l-75.223 95.88c-16.252 20.715-33.867 40.767-52.356 59.597-2.902 2.956-2.858 7.704.097 10.606 2.956 2.902 7.705 2.859 10.606-.097 18.876-19.225 36.861-39.697 53.455-60.847l75.223-95.879c2.456-3.129 6.153-4.924 10.145-4.924 3.419 0 6.64 1.338 9.069 3.768l98.154 98.155c3.382 3.381 3.903 7.231 3.744 9.866s-1.138 6.396-4.899 9.347l-95.88 75.223c-46.016 36.102-87.652 77.739-123.753 123.754l-75.223 95.879c-2.456 3.129-6.153 4.924-10.145 4.924-3.419 0-6.64-1.338-9.069-3.768l-98.155-98.156c-3.382-3.381-3.903-7.231-3.744-9.866s1.138-6.396 4.899-9.347l95.88-75.223c15.329-12.026 30.373-24.841 44.714-38.09 3.042-2.811 3.23-7.556.42-10.599-2.811-3.042-7.555-3.23-10.598-.419z"/></g></svg>