<svg id="Capa_1" enable-background="new 0 0 512 512" height="512" viewBox="0 0 512 512" width="512" xmlns="http://www.w3.org/2000/svg"><g><g><path d="m433.633 185.133c0-98.104-79.529-177.633-177.632-177.633-98.237 0-177.478 79.109-177.633 177.346-.14 88.724 64.771 162.309 149.69 175.727 3.414.539 5.942 3.456 5.942 6.913v30.014c0 3.866-3.134 7-7 7h-42c-3.866 0-7 3.134-7 7v30c0 3.866 3.134 7 7 7h42c3.866 0 7 3.134 7 7v42c0 3.866 3.134 7 7 7h30c3.866 0 7-3.134 7-7v-42c0-3.866 3.134-7 7-7h42c3.866 0 7-3.134 7-7v-30c0-3.866-3.134-7-7-7h-42c-3.866 0-7-3.134-7-7v-30.016c0-3.452 2.52-6.37 5.93-6.909 84.834-13.398 149.703-86.842 149.703-175.442z" fill="#f6a7d2"/><g fill="#f28cc4"><path d="m248 455.5v42c0 3.866-3.134 7-7 7h30c3.866 0 7-3.134 7-7v-42c0-3.866 3.134-7 7-7h-30c-3.866 0-7 3.134-7 7z"/><path d="m256.001 7.5c-5.064 0-10.073.222-15.028.634 91.095 7.605 162.66 83.939 162.66 176.999 0 88.6-64.869 162.044-149.703 175.442-3.409.538-5.93 3.457-5.93 6.909v30.016c0 3.866 3.134 7 7 7h30c-3.866 0-7-3.134-7-7v-30.016c0-3.452 2.52-6.37 5.93-6.909 84.834-13.398 149.703-86.842 149.703-175.442 0-98.104-79.529-177.633-177.632-177.633z"/><path d="m327 404.5h-30c3.866 0 7 3.134 7 7v30c0 3.866-3.134 7-7 7h30c3.866 0 7-3.134 7-7v-30c0-3.866-3.134-7-7-7z"/></g><circle cx="256" cy="185.132" fill="#fff" r="132.229"/><path d="m181.08 123.581v68.239c0 42.077 30.338 78.023 71.816 85.093l3.104.529 3.104-.529c41.478-7.07 71.816-43.016 71.816-85.093v-69.317c0-3.943-3.336-7.095-7.268-6.794-8.518.652-20.924.294-34.695-4.652-12.46-4.475-21.59-11.108-27.596-16.5-2.88-2.585-7.316-2.233-9.777.754-4.185 5.08-10.424 11.102-19.236 15.746-16.672 8.785-33.254 7.734-43.125 5.846-4.221-.808-8.143 2.38-8.143 6.678z" fill="#8795de"/><path d="m323.632 115.711c-8.518.649-20.914.288-34.674-4.654-12.451-4.472-21.578-11.099-27.584-16.489-2.879-2.584-7.323-2.251-9.782.735-2.152 2.613-4.852 5.475-8.162 8.271 4.441 2.738 9.603 5.355 15.528 7.483.185.066.369.132.553.197 24.735 8.687 41.41 31.876 41.41 58.093v22.474c0 37.937-24.667 70.88-59.92 82.179 3.847 1.233 7.815 2.218 11.896 2.913l3.104.529 3.104-.529c41.478-7.071 71.816-43.017 71.816-85.094v-69.315c-.001-3.952-3.35-7.094-7.289-6.793z" fill="#6c7fd8"/></g><path d="m256.001 0c-46.312 0-90.591 17.083-124.68 48.101-3.064 2.788-3.288 7.531-.5 10.595 2.787 3.063 7.53 3.288 10.595.5 31.321-28.5 72.015-44.196 114.585-44.196 93.811 0 170.132 76.322 170.132 170.133 0 40.764-14.639 80.193-41.219 111.024-26.307 30.514-62.585 50.761-102.152 57.01-7.104 1.121-12.261 7.142-12.261 14.317v30.016c0 7.995 6.505 14.5 14.5 14.5h41.5v29h-41.501c-7.995 0-14.5 6.505-14.5 14.5v41.5h-29v-41.5c0-7.995-6.505-14.5-14.5-14.5h-41.5v-29h41.5c7.995 0 14.5-6.505 14.5-14.5v-30.014c0-7.175-5.161-13.198-12.271-14.322-39.611-6.259-75.917-26.54-102.229-57.108-26.589-30.89-41.197-70.381-41.132-111.199.058-36.646 11.5-71.491 33.091-100.769 2.458-3.333 1.749-8.029-1.585-10.487-3.334-2.459-8.029-1.75-10.487 1.585-23.5 31.868-35.956 69.783-36.019 109.648-.07 44.417 15.827 87.392 44.764 121.008 28.541 33.158 67.902 55.194 110.868 62.077v29.081h-41.5c-7.995 0-14.5 6.505-14.5 14.5v30c0 7.995 6.505 14.5 14.5 14.5h41.5v41.5c0 7.995 6.505 14.5 14.5 14.5h30c7.995 0 14.5-6.505 14.5-14.5v-41.5h41.5c7.995 0 14.5-6.505 14.5-14.5v-30c0-7.995-6.505-14.5-14.5-14.5h-41.5v-29.081c42.914-6.875 82.241-28.872 110.774-61.968 28.927-33.553 44.858-76.461 44.858-120.819 0-102.081-83.049-185.132-185.131-185.132zm-4.365 284.306c.95.162 3.436.635 4.364.635 1.181 0 3.228-.442 4.365-.635 45.229-7.71 78.056-46.606 78.056-92.486v-16.408c0-4.142-3.358-7.5-7.5-7.5s-7.5 3.358-7.5 7.5v16.408c0 38.545-27.579 71.222-65.575 77.699l-1.846.314-1.844-.314c-37.998-6.477-65.576-39.154-65.576-77.699v-67.408c11.895 2.157 29.509 2.636 47.264-6.72 8.021-4.226 15.105-9.962 21.066-17.056 8.708 7.693 18.634 13.573 29.512 17.479 11.879 4.267 24.326 5.992 36.999 5.13v17.167c0 4.142 3.358 7.5 7.5 7.5s7.5-3.358 7.5-7.5v-17.908c0-3.981-1.674-7.815-4.593-10.52-2.899-2.686-6.813-4.052-10.747-3.753-10.832.829-21.46-.595-31.588-4.233-9.277-3.332-17.729-8.386-25.121-15.022-2.88-2.585-6.747-3.901-10.6-3.612-3.868.291-7.504 2.178-9.976 5.178-4.784 5.806-10.484 10.476-16.944 13.879-14.296 7.535-28.674 6.941-38.219 5.115-4.234-.812-8.561.296-11.872 3.034-3.292 2.722-5.181 6.735-5.181 11.01v68.239c0 45.881 32.827 84.777 78.056 92.487zm27.522-124.378-36.6 36.6-9.716-9.716c-2.929-2.929-7.678-2.929-10.606 0-2.929 2.929-2.929 7.678 0 10.606l11.435 11.435c2.45 2.451 5.668 3.675 8.887 3.675 3.218 0 6.438-1.225 8.888-3.675l38.319-38.319c2.929-2.929 2.929-7.678 0-10.606-2.929-2.929-7.678-2.929-10.607 0zm-23.158 164.934c77.047 0 139.729-62.683 139.729-139.729s-62.682-139.73-139.729-139.73-139.729 62.682-139.729 139.729 62.682 139.73 139.729 139.73zm0-264.459c68.776 0 124.729 55.953 124.729 124.729s-55.953 124.73-124.729 124.73-124.729-55.954-124.729-124.729 55.953-124.73 124.729-124.73z"/></g></svg>