<svg id="Capa_1" enable-background="new 0 0 512 512" height="512" viewBox="0 0 512 512" width="512" xmlns="http://www.w3.org/2000/svg"><g><g><path d="m494.37 438.307-49.87-24.935v-314.744l49.87-24.935c4.654-2.327 10.13 1.057 10.13 6.261v352.092c0 5.204-5.476 8.588-10.13 6.261z" fill="#f6c2e0"/><path d="m494.37 73.693-19.87 9.935v344.745l19.87 9.935c4.654 2.327 10.13-1.057 10.13-6.261v-352.093c0-5.204-5.476-8.588-10.13-6.261z" fill="#f6a7d2"/><path d="m17.63 438.307 49.87-24.935v-314.744l-49.87-24.935c-4.654-2.327-10.13 1.057-10.13 6.261v352.092c0 5.204 5.476 8.588 10.13 6.261z" fill="#f6c2e0"/><path d="m67.5 98.628h377v314.745h-377z" fill="#f6a7d2"/><path d="m363 256c0-47.4-30.823-87.596-73.517-101.65-2.879-.948-4.794-3.677-4.794-6.708v-49.014h-57.378v49.014c0 3.031-1.915 5.76-4.794 6.708-42.694 14.055-73.517 54.251-73.517 101.65s30.823 87.596 73.517 101.65c2.879.948 4.794 3.677 4.794 6.708v49.014h57.378v-49.014c0-3.031 1.915-5.76 4.794-6.708 42.694-14.054 73.517-54.25 73.517-101.65z" fill="#8795de"/><g><g><g><path d="m258.443 258.443-4.886-4.886 16.912-42.549c6.241-15.701 26.514-19.885 38.461-7.938 11.947 11.947 7.763 32.22-7.938 38.461z" fill="#f6a7d2"/><path d="m308.93 203.07c-9.009-9.009-22.75-8.841-31.641-1.483.561.467 1.112.953 1.641 1.483 11.947 11.947 7.763 32.22-7.938 38.461l-15.029 5.974-2.406 6.052 4.886 4.886 42.549-16.912c15.7-6.24 19.885-26.514 7.938-38.461z" fill="#f28cc4"/><path d="m258.443 258.443-4.886-4.886-42.549 16.912c-15.701 6.241-19.885 26.514-7.938 38.461 11.947 11.947 32.22 7.763 38.461-7.938z" fill="#f6a7d2"/></g></g><g><g><path d="m259.455 256h-6.91l-18.128-42.045c-6.689-15.515 4.687-32.809 21.583-32.809 16.896 0 28.272 17.294 21.583 32.809z" fill="#bee49d"/><path d="m256 181.146c-5.829 0-11 2.06-15 5.393 7.594 6.329 10.964 17.254 6.583 27.416l-6.583 15.268 11.545 26.777h6.91l18.128-42.045c6.689-15.515-4.687-32.809-21.583-32.809z" fill="#a3d8a4"/><path d="m259.455 256h-6.91l-18.128 42.045c-6.689 15.515 4.687 32.809 21.583 32.809 16.896 0 28.272-17.294 21.583-32.809z" fill="#bee49d"/><path d="m277.583 298.045-18.128-42.045h-6.91l-11.545 26.777 6.583 15.268c4.382 10.162 1.011 21.087-6.583 27.416 4 3.334 9.171 5.393 15 5.393 16.896 0 28.272-17.294 21.583-32.809z" fill="#a3d8a4"/></g></g><g><g><path d="m258.443 253.557-4.886 4.886-42.549-16.912c-15.701-6.241-19.885-26.514-7.938-38.461 11.947-11.947 32.22-7.763 38.461 7.938z" fill="#f6a7d2"/><path d="m258.443 253.557-4.886 4.886 16.912 42.549c6.241 15.701 26.514 19.885 38.461 7.938 11.947-11.947 7.763-32.22-7.938-38.461z" fill="#f6a7d2"/><path d="m300.992 270.469-42.549-16.912-4.886 4.886 2.406 6.052 15.029 5.973c15.701 6.241 19.885 26.514 7.938 38.461-.53.53-1.081 1.016-1.641 1.483 8.891 7.358 22.632 7.526 31.641-1.483 11.947-11.946 7.762-32.219-7.938-38.46z" fill="#f28cc4"/></g></g><g><g><path d="m256 252.545v6.91l-42.045 18.128c-15.515 6.689-32.809-4.687-32.809-21.583 0-16.896 17.294-28.272 32.809-21.583z" fill="#bee49d"/><path d="m256 252.545v6.91l42.045 18.128c15.515 6.689 32.809-4.687 32.809-21.583 0-16.896-17.294-28.272-32.809-21.583z" fill="#bee49d"/><path d="m298.045 234.417-6.542 2.821c5.588 4.206 9.351 10.883 9.351 18.762 0 7.879-3.763 14.556-9.351 18.762l6.542 2.821c15.515 6.689 32.809-4.687 32.809-21.583 0-16.896-17.294-28.272-32.809-21.583z" fill="#a3d8a4"/></g></g><circle cx="256.5" cy="256" fill="#eaf6ff" r="33.5"/><path d="m256.5 222.5c-5.394 0-10.486 1.282-15 3.547 10.968 5.504 18.5 16.846 18.5 29.953s-7.532 24.449-18.5 29.953c4.514 2.265 9.606 3.547 15 3.547 18.501 0 33.5-14.999 33.5-33.5s-14.999-33.5-33.5-33.5z" fill="#d8ecfe"/></g></g><path d="m321.991 228.655c.875-2.907 1.329-5.944 1.329-9.035 0-8.233-3.228-15.994-9.087-21.854-8.228-8.229-20.179-10.97-30.888-7.757-5.24-9.729-15.531-16.36-27.346-16.36-10.467 0-20.148 5.218-25.899 13.959-.516.784-.979 1.591-1.417 2.407-2.915-.881-5.962-1.336-9.063-1.336-8.233 0-15.994 3.227-21.854 9.086-8.228 8.228-10.969 20.18-7.757 30.888-9.729 5.24-16.36 15.531-16.36 27.346 0 10.467 5.219 20.149 13.96 25.9.784.516 1.591.98 2.408 1.418-3.226 10.715-.487 22.68 7.748 30.915 5.859 5.859 13.62 9.086 21.854 9.086 3.101 0 6.148-.455 9.063-1.336.438.817.902 1.624 1.417 2.407 5.751 8.741 15.433 13.959 25.899 13.959 11.645 0 22.042-6.522 27.337-16.377.889.268 1.789.512 2.709.702 2.1.433 4.209.645 6.303.645 8.13 0 15.999-3.201 21.884-9.086 5.86-5.86 9.088-13.621 9.088-21.854 0-3.101-.456-6.148-1.337-9.063.816-.438 1.623-.902 2.406-1.417 8.741-5.75 13.96-15.433 13.96-25.9.002-11.812-6.628-22.103-16.357-27.343zm-37.522-11.73c1.7-3.948 2.562-8.082 2.562-12.285 0-.01-.001-.019-.001-.028 5.207-1.779 11.72-1.116 16.597 3.762 3.026 3.026 4.693 7.021 4.693 11.247 0 1.816-.325 3.633-.92 5.351-.013 0-.026-.001-.04-.001-4.205 0-8.338.862-12.292 2.563l-6.594 2.845c-2.023-2.519-4.336-4.793-6.889-6.775zm-41.837-21.071c3.012-4.578 7.885-7.204 13.368-7.204 8.092 0 16.03 6.737 16.03 15.99 0 2.152-.45 4.291-1.336 6.347l-2.473 5.729c-3.716-1.111-7.648-1.716-11.721-1.716-4.397 0-8.631.704-12.604 1.991l-2.588-6c-2.188-5.056-1.673-10.582 1.324-15.137zm-34.258 12.519c3.025-3.026 7.02-4.693 11.246-4.693 1.854 0 3.666.32 5.381.92-.004 4.172.823 8.365 2.532 12.33l3.133 7.262c-2.365 1.925-4.508 4.111-6.394 6.508l-7.346-3.17c-3.948-1.699-8.081-2.561-12.286-2.561-.009 0-.018.001-.028.001-1.78-5.206-1.116-11.718 3.762-16.597zm-12.52 60.996c-4.578-3.012-7.204-7.885-7.204-13.369 0-8.136 6.725-16.03 15.989-16.03 2.153 0 4.292.45 6.349 1.336l6.3 2.719c-1.16 3.79-1.789 7.81-1.789 11.975s.629 8.185 1.789 11.975l-6.297 2.718c-5.091 2.213-10.557 1.689-15.137-1.324zm31.678 25.702c-1.708 3.964-2.536 8.156-2.531 12.328-1.716.6-3.528.92-5.381.92-4.227 0-8.221-1.667-11.246-4.693-4.884-4.884-5.543-11.405-3.756-16.615.005 0 .011.001.016.001 4.161 0 8.344-.842 12.298-2.546l7.34-3.167c1.886 2.398 4.028 4.583 6.394 6.508zm28.468 28.279c-5.483 0-10.356-2.625-13.368-7.204-2.996-4.555-3.507-10.073-1.325-15.136l2.589-6.001c3.974 1.287 8.208 1.991 12.604 1.991 1.428 0 2.838-.074 4.229-.218l2.771 6.978c1.591 4.003 3.964 7.546 6.909 10.489-2.418 4.952-7.498 9.101-14.409 9.101zm.5-41.35c-14.337 0-26-11.664-26-26s11.663-26 26-26 26 11.664 26 26c0 14.337-11.663 26-26 26zm47.126 21.627c-3.877 3.877-9.178 5.461-14.548 4.357-5.34-1.098-9.605-4.651-11.638-9.763l-2.277-5.734c5.169-2.655 9.703-6.371 13.312-10.866l6.597 2.846c3.953 1.705 8.133 2.545 12.294 2.545.01 0 .019-.001.029-.001.6 1.723.927 3.546.927 5.368-.002 4.227-1.669 8.221-4.696 11.248zm12.52-34.258c-4.572 3.008-10.059 3.523-15.134 1.325l-5.418-2.338c1.236-3.901 1.906-8.051 1.906-12.356s-.671-8.455-1.906-12.356l5.412-2.335c2.062-.888 4.201-1.338 6.354-1.338 8.968 0 15.989 8.004 15.989 16.03.001 5.483-2.625 10.356-7.203 13.368zm188.977-201.749c-4.308-2.663-9.583-2.898-14.108-.635l-48.285 24.143h-373.459l-48.286-24.143c-4.529-2.264-9.801-2.027-14.108.635-4.307 2.661-6.877 7.272-6.877 12.334v72.725c0 4.142 3.357 7.5 7.5 7.5s7.5-3.358 7.5-7.5v-71.916l45 22.5v305.475l-45 22.5v-243.559c0-4.142-3.357-7.5-7.5-7.5s-7.5 3.358-7.5 7.5v244.367c0 5.062 2.57 9.673 6.877 12.334 4.315 2.666 9.59 2.894 14.108.635l48.285-24.143h373.459l48.285 24.143c4.52 2.26 9.793 2.032 14.108-.635 4.307-2.661 6.877-7.272 6.877-12.334v-352.092c.001-5.062-2.569-9.673-6.876-12.334zm-285.312 338.253h-144.811v-299.745h144.811v41.218c-46.857 15.594-78.311 59.21-78.311 108.654s31.454 93.06 78.311 108.655zm217.189 0h-144.811v-41.218c19.785-6.587 37.418-18.494 51.012-34.453 2.687-3.153 2.308-7.887-.846-10.573-3.153-2.686-7.888-2.308-10.572.846-11.892 13.959-27.329 24.351-44.646 30.051-5.95 1.959-9.948 7.518-9.948 13.832v41.514h-42.379v-41.514c0-6.314-3.998-11.873-9.949-13.832-40.888-13.46-68.361-51.447-68.361-94.526s27.473-81.066 68.362-94.526c5.95-1.959 9.948-7.518 9.948-13.832v-41.514h42.379v41.514c0 6.314 3.998 11.873 9.949 13.832 40.889 13.46 68.362 51.447 68.362 94.526 0 12.84-2.408 25.332-7.157 37.13-1.547 3.842.313 8.211 4.156 9.758 3.845 1.547 8.212-.315 9.758-4.157 5.47-13.587 8.243-27.963 8.243-42.731 0-49.444-31.454-93.06-78.311-108.655v-41.218h144.811zm60 25.364-45-22.5v-305.474l45-22.5zm-115.272-65.82-14.279-14.279c-2.93-2.929-7.678-2.929-10.607 0s-2.929 7.678 0 10.606l1.476 1.476h-26.138c-4.143 0-7.5 3.358-7.5 7.5s3.357 7.5 7.5 7.5h26.138l-1.477 1.477c-2.929 2.929-2.929 7.678.001 10.606 2.93 2.929 7.677 2.928 10.606 0l14.279-14.28c2.401-2.737 3.261-7.327.001-10.606zm-49.548-216.637h26.137l-1.476 1.476c-2.929 2.929-2.929 7.678 0 10.606 2.929 2.929 7.677 2.929 10.607 0l14.279-14.279c2.562-2.49 3.221-7.45 0-10.606l-14.279-14.28c-2.929-2.929-7.678-2.93-10.606 0-2.93 2.929-2.93 7.677-.001 10.606l1.477 1.477h-26.138c-4.143 0-7.5 3.358-7.5 7.5s3.357 7.5 7.5 7.5zm72.82 243.72c4.143 0 7.5-3.358 7.5-7.5v-258c0-4.142-3.357-7.5-7.5-7.5s-7.5 3.358-7.5 7.5v258c0 4.142 3.357 7.5 7.5 7.5z"/></g></svg>