<svg id="Capa_1" enable-background="new 0 0 512 512" height="512" viewBox="0 0 512 512" width="512" xmlns="http://www.w3.org/2000/svg"><g><g><path d="m359.519 287.008h-207.038v-175.99c0-57.171 46.347-103.518 103.519-103.518 57.172 0 103.519 46.347 103.519 103.519z" fill="#e19974"/><path d="m256 7.5c-5.095 0-10.102.375-15 1.086 50.062 7.268 88.519 50.356 88.519 102.433v175.99h30v-175.99c0-57.172-46.347-103.519-103.519-103.519z" fill="#dc8758"/><path d="m339.323 143.927h-24.804v-40.392h24.804c11.154 0 20.196 9.042 20.196 20.196 0 11.154-9.042 20.196-20.196 20.196z" fill="#ffcebf"/><path d="m172.677 143.927h24.804v-40.392h-24.804c-11.154 0-20.196 9.042-20.196 20.196 0 11.154 9.042 20.196 20.196 20.196z" fill="#ffb09e"/><g><g><path d="m418.397 387.881v-78.992c0-20.386-13.44-38.332-33.004-44.067l-70.535-20.676c-9.782-2.867-16.502-11.84-16.502-22.033v-21.156h-84.713v21.156c0 10.193-6.72 19.166-16.502 22.033l-70.535 20.676c-19.563 5.735-33.004 23.681-33.004 44.067v78.992z" fill="#f6a7d2"/><g><path d="m385.393 264.822-70.535-20.676c-9.782-2.867-16.502-11.84-16.502-22.033v-21.156h-30v36.156c0 10.193 6.72 19.166 16.502 22.033l70.535 20.676c19.563 5.735 33.004 23.68 33.004 44.067v63.992h30v-78.992c0-20.387-13.44-38.332-33.004-44.067z" fill="#f28cc4"/></g><path d="m188.227 246.759c10.39 27.32 36.807 46.741 67.773 46.741s57.383-19.421 67.773-46.741l-8.915-2.613c-9.782-2.867-16.502-11.84-16.502-22.033v-21.156h-84.713v21.156c0 10.193-6.72 19.166-16.502 22.033z" fill="#ffcebf"/><path d="m284.858 259.146 27.083 7.939c4.976-6.036 9.002-12.885 11.832-20.325l-8.915-2.613c-9.782-2.867-16.502-11.84-16.502-22.033v-21.156h-30v36.156c0 10.192 6.721 19.164 16.502 22.032z" fill="#ffb09e"/></g></g><path d="m329.519 106.927v46.562c0 24.831-12.311 46.787-31.162 60.098-11.973 8.454-26.585 9.719-42.357 9.719 0 0-30.384-1.264-42.357-9.718-18.851-13.31-31.162-35.267-31.162-60.098v-46.144c0-2.123 1.65-3.87 3.77-3.99 15.098-.852 33.787-3.494 54.275-10.22 10.18-3.342 19.254-7.184 27.192-11.083 1.235-.607 2.69-.556 3.861.167 6.147 3.794 13.473 7.725 21.969 11.252 12.126 5.035 23.335 7.879 32.658 9.518 1.916.336 3.313 1.991 3.313 3.937z" fill="#ffcebf"/><path d="m326.205 102.989c-9.323-1.639-20.531-4.483-32.658-9.518-8.497-3.528-15.824-7.459-21.972-11.254-1.169-.722-2.623-.772-3.857-.166-4.54 2.231-9.465 4.438-14.742 6.548 3.299 1.671 6.813 3.312 10.571 4.872 8.596 3.569 16.731 6.038 24.06 7.756 6.962 1.632 11.911 7.793 11.911 14.943v37.319c.237 4.506 1.051 28.423-16.731 46.693-17.026 17.493-44.291 22.812-69.144 13.405 7.982 5.382 19.781 11.451 34.745 13.03 2.646.279 5.188.396 7.612.391 40.603 0 73.519-32.915 73.519-73.519v-46.562c0-1.946-1.397-3.601-3.314-3.938z" fill="#ffb09e"/><g><g><path d="m110.156 503.954 291.281.546c16.386.028 29.692-13.23 29.719-29.613l.307-120.478c.028-16.383-13.233-29.686-29.619-29.714l-291.281-.546c-16.386-.028-29.691 13.23-29.719 29.613l-.307 120.478c-.028 16.383 13.233 29.686 29.619 29.714z" fill="#8795de"/></g><path d="m401.844 324.696-291.281-.546c-.589-.001-1.174.02-1.755.053l263.036.493c16.386.028 29.646 13.331 29.619 29.713l-.307 120.478c-.027 15.793-12.395 28.678-27.964 29.56l28.245.053c16.386.028 29.691-13.23 29.719-29.613l.307-120.478c.028-16.382-13.233-29.685-29.619-29.713z" fill="#6c7fd8"/><g><path d="m447.984 441.752h-14.139c-14.884 0-26.949-12.066-26.949-26.949v-15.955c0-14.884 12.066-26.949 26.949-26.949h14.139c9.456 0 17.121 7.665 17.121 17.121v35.611c0 9.455-7.666 17.121-17.121 17.121z" fill="#ffcebf"/><path d="m447.984 371.898h-14.139c-3.109 0-6.093.533-8.872 1.502 5.968 2.675 10.132 8.656 10.132 15.619v35.612c0 6.963-4.164 12.944-10.132 15.619 2.779.969 5.763 1.502 8.872 1.502h14.139c9.456 0 17.121-7.665 17.121-17.121v-35.612c0-9.455-7.666-17.121-17.121-17.121z" fill="#ffb09e"/><path d="m64.016 441.752h14.139c14.884 0 26.949-12.066 26.949-26.949v-15.955c0-14.884-12.066-26.949-26.949-26.949h-14.139c-9.456 0-17.121 7.665-17.121 17.121v35.611c0 9.455 7.666 17.121 17.121 17.121z" fill="#ffcebf"/><path d="m78.155 371.898h-14.139c-2.492 0-4.853.544-6.989 1.502 10.523 3.669 18.077 13.673 18.077 25.447v15.955c0 11.774-7.554 21.779-18.077 25.447 2.136.958 4.497 1.502 6.989 1.502h14.139c14.884 0 26.949-12.065 26.949-26.949v-15.955c.001-14.883-12.065-26.949-26.949-26.949z" fill="#ffb09e"/></g><g><path d="m355.806 358.848c-1.298 1.166-3.313 1.166-4.612 0-6.807-6.114-17.504-6.082-24.264.644-18.897 18.805 11.382 41.709 25.287 47.092.829.321 1.737.321 2.566 0 13.905-5.383 44.183-28.287 25.287-47.092-6.76-6.726-17.457-6.758-24.264-.644z" fill="#f6a7d2"/><path d="m380.069 359.492c-6.759-6.726-17.456-6.758-24.264-.644-1.298 1.166-3.313 1.166-4.612 0-3.545-3.184-8.145-4.685-12.694-4.457 4.186.209 8.33 1.878 11.569 5.101 13.737 13.671 1.486 29.505-11.569 39.202 4.904 3.642 9.921 6.42 13.717 7.89.829.321 1.737.321 2.566 0 13.905-5.383 44.184-28.287 25.287-47.092z" fill="#f28cc4"/><path d="m160.806 358.848c-1.298 1.166-3.313 1.166-4.612 0-6.807-6.114-17.504-6.082-24.264.644-18.897 18.805 11.382 41.709 25.287 47.092.829.321 1.737.321 2.566 0 13.904-5.383 44.183-28.287 25.287-47.092-6.76-6.726-17.457-6.758-24.264-.644z" fill="#f6a7d2"/><path d="m185.069 359.492c-6.759-6.726-17.456-6.758-24.264-.644-1.298 1.166-3.313 1.166-4.612 0-3.545-3.184-8.145-4.685-12.694-4.457 4.186.209 8.33 1.878 11.569 5.101 13.737 13.671 1.486 29.505-11.569 39.202 4.904 3.642 9.921 6.42 13.717 7.89.829.321 1.737.321 2.566 0 13.905-5.383 44.184-28.287 25.287-47.092z" fill="#f28cc4"/></g></g></g><path d="m200.167 436.972c4.142 0 7.5-3.357 7.5-7.5s-3.358-7.5-7.5-7.5h-19.888c-4.142 0-7.5 3.357-7.5 7.5v49.069c0 4.143 3.358 7.5 7.5 7.5s7.5-3.357 7.5-7.5v-17.5h10.808c4.142 0 7.5-3.357 7.5-7.5s-3.358-7.5-7.5-7.5h-10.808v-9.069zm49.953-66.219c1.554-2.741 2.452-5.9 2.452-9.27 0-10.407-8.467-18.874-18.875-18.874h-14.358c-4.142 0-7.5 3.357-7.5 7.5v49.432c-.021 4.065 3.424 7.521 7.5 7.5h.033c.001 0 13.196-.059 16.833-.059 11.472 0 20.806-9.333 20.806-20.806 0-6.119-2.672-11.613-6.891-15.423zm-23.281-13.144h6.858c2.136 0 3.875 1.738 3.875 3.874s-1.738 3.874-3.875 3.874c-1.067 0-6.858.014-6.858.014zm9.367 34.373c-1.753 0-5.718.014-9.366.027v-11.633c.542-.002 9.366-.006 9.366-.006 3.201 0 5.806 2.604 5.806 5.806s-2.605 5.806-5.806 5.806zm67.377 37.579v48.98c0 4.143 3.358 7.5 7.5 7.5h20.638c4.142 0 7.5-3.357 7.5-7.5s-3.358-7.5-7.5-7.5h-13.138v-9.49h11.617c4.142 0 7.5-3.357 7.5-7.5s-3.358-7.5-7.5-7.5h-11.617v-9.49h13.138c4.142 0 7.5-3.357 7.5-7.5s-3.358-7.5-7.5-7.5h-20.638c-4.142 0-7.5 3.357-7.5 7.5zm-10.922-71.5c4.142 0 7.5-3.357 7.5-7.5s-3.358-7.5-7.5-7.5h-20.638c-4.142 0-7.5 3.357-7.5 7.5v48.98c0 4.143 3.358 7.5 7.5 7.5h20.638c4.142 0 7.5-3.357 7.5-7.5s-3.358-7.5-7.5-7.5h-13.138v-9.49h11.617c4.142 0 7.5-3.357 7.5-7.5s-3.358-7.5-7.5-7.5h-11.617v-9.49zm56.846 55.516c1.288.499 2.641.749 3.993.749s2.704-.25 3.99-.748c9.967-3.858 31.772-17.667 35.561-35.726 1.269-6.047.964-15.063-7.691-23.677-8.639-8.597-22.043-9.679-31.86-3.025-9.817-6.651-23.222-5.57-31.86 3.025-8.656 8.613-8.96 17.63-7.691 23.677 3.788 18.059 25.594 31.868 35.558 35.725zm-17.286-48.768c3.824-3.805 9.957-3.979 13.961-.382 4.172 3.748 10.464 3.748 14.636 0 4.003-3.594 10.135-3.427 13.961.382 4.167 4.146 4.108 7.503 3.592 9.964-1.939 9.244-15.495 20.064-24.871 24.225-9.374-4.159-22.932-14.979-24.871-24.225-.516-2.461-.575-5.818 3.592-9.964zm-134.17 13.044c1.269-6.047.964-15.063-7.691-23.677-8.639-8.597-22.044-9.679-31.86-3.025-9.816-6.651-23.221-5.57-31.86 3.025-8.656 8.613-8.96 17.63-7.691 23.677 3.789 18.059 25.594 31.867 35.559 35.725 1.288.499 2.641.749 3.993.749s2.704-.25 3.99-.748c9.966-3.859 31.772-17.668 35.56-35.726zm-14.68-3.081c-1.939 9.244-15.495 20.064-24.871 24.225-9.374-4.159-22.932-14.979-24.871-24.225-.516-2.461-.575-5.817 3.592-9.964 3.824-3.805 9.957-3.979 13.961-.382 4.172 3.748 10.464 3.748 14.636 0 4.003-3.594 10.135-3.427 13.961.382 4.167 4.147 4.108 7.504 3.592 9.964zm106.837 62.289c4.142 0 7.5-3.357 7.5-7.5s-3.358-7.5-7.5-7.5h-20.638c-4.142 0-7.5 3.357-7.5 7.5v48.98c0 4.143 3.358 7.5 7.5 7.5h20.638c4.142 0 7.5-3.357 7.5-7.5s-3.358-7.5-7.5-7.5h-13.138v-9.49h11.617c4.142 0 7.5-3.357 7.5-7.5s-3.358-7.5-7.5-7.5h-11.617v-9.49zm157.775-72.663h-9.046l.023-9.975c.037-10.951-4.74-21.242-13.06-28.341v-17.192c0-23.555-15.791-44.636-38.4-51.267l-20.479-6.002v-140.601c0-29.645-11.547-57.523-32.518-78.504-20.98-20.968-48.859-32.516-78.503-32.516-61.217 0-111.02 49.803-111.02 111.02v73.138c0 4.143 3.358 7.5 7.5 7.5s7.5-3.357 7.5-7.5v-35.802c4.945 2.629 9.468 3.172 15.001 3.075-.991 26.162 11.953 50.843 31.159 65.848v4.832c0 6.819-4.569 12.924-11.109 14.843-6.483 1.902-28.279 8.297-35.051 10.272v-28.068c0-4.143-3.358-7.5-7.5-7.5s-7.5 3.357-7.5 7.5v32.464l-20.481 6.002c-22.608 6.63-38.399 27.711-38.399 51.266v16.91c-8.122 7.075-12.744 17.169-12.76 27.94l-.029 10.659h-9.294c-13.576 0-24.621 11.045-24.621 24.621v35.611c0 13.576 11.045 24.621 24.621 24.621h9.085l-.061 24.975c-.152 20.095 16.834 37.312 37.104 37.224l190.04.406h.017c4.134 0 7.491-3.348 7.5-7.484.009-4.142-3.342-7.507-7.484-7.516l-190.047-.406c-12.103.042-22.209-10.172-22.129-22.191l.065-26.478c14.159-4.28 24.499-17.442 24.499-32.979v-15.955c0-15.463-10.242-28.578-24.298-32.921l.033-12.153c-.043-12.077 10.114-22.175 22.164-22.123h.042s291.102.55 291.285.55c12.013.014 22.217 10.115 22.129 22.193l-.026 11.465c-14.179 4.268-24.538 17.439-24.538 32.99v15.955c0 15.475 10.258 28.597 24.33 32.93l-.065 27.143c.034 11.974-10.153 22.185-22.163 22.124h-.042l-66.24-.135h-.017c-4.135 0-7.491 3.348-7.5 7.484-.008 4.143 3.343 7.507 7.485 7.516l66.241.134h.07c20.46 0 37.126-16.627 37.164-37.093l.062-25.655h9.261c13.576 0 24.621-11.045 24.621-24.621v-35.611c0-13.577-11.044-24.622-24.621-24.622zm-350.379 34.45v15.955c0 10.725-8.725 19.449-19.449 19.449h-14.138c-5.305 0-9.621-4.316-9.621-9.621v-35.611c0-5.305 4.316-9.621 9.621-9.621h14.139c10.723-.001 19.448 8.724 19.448 19.449zm239.415-262.418v-25.39c7.708-1.023 15.001 4.773 15.001 12.69 0 7.989-7.365 13.413-15.001 12.7zm15.001 11.927v98.869c-8.806-2.133-27.287-7.994-35.048-10.271-6.542-1.92-11.112-8.024-11.112-14.844v-4.832c19.45-15.231 31.837-39.366 31.159-65.848 5.12.171 10.511-.698 15.001-3.074zm-177.039-11.927c-7.791.645-15.001-4.548-15.001-12.699 0-7.923 7.302-13.668 15.001-12.69zm-14.218-37.692c6.048-47.167 46.451-83.738 95.237-83.738 25.639 0 49.752 9.988 67.896 28.122 15.208 15.216 24.683 34.629 27.347 55.619-3.613-1.73-7.657-2.701-11.923-2.701 0 0-11.235-.335-11.815-.438-10.664-1.875-21.121-4.923-31.081-9.059-7.212-2.994-14.246-6.597-20.909-10.71-3.374-2.08-7.523-2.272-11.104-.514-8.467 4.16-17.291 7.756-26.224 10.688-16.847 5.531-34.462 8.848-52.356 9.858-8.943.507-17.115-.867-25.068 2.873zm29.218 54.751v-42.857c18.062-1.29 35.836-4.774 52.883-10.371 8.993-2.952 17.879-6.529 26.444-10.644 6.839 4.107 14.017 7.73 21.363 10.78 10.071 4.182 20.602 7.354 31.347 9.443v43.648c0 36.402-29.616 66.019-66.019 66.019s-66.018-29.615-66.018-66.018zm30.824 72.965c10.649 5.158 22.59 8.053 35.195 8.053s24.546-2.896 35.195-8.053c1.732 11.844 10.412 21.879 22.172 25.074-11.177 20.902-33.304 34.472-57.367 34.472s-46.19-13.57-57.367-34.472c11.707-3.324 20.45-13.145 22.172-25.074zm190.095 91.861c-2.923-.732-5.955-1.112-9.046-1.115l-32.204-.061v-7.439c0-4.143-3.358-7.5-7.5-7.5s-7.5 3.357-7.5 7.5v7.411l-197.3-.372v-7.039c0-4.143-3.358-7.5-7.5-7.5s-7.5 3.357-7.5 7.5v7.01l-31.776-.06h-.07c-3.217 0-6.369.413-9.403 1.201v-8.962c0-16.94 11.358-32.104 27.619-36.872l55.271-16.198c13.241 27.281 41.349 45.181 72.009 45.181s58.768-17.9 72.009-45.18c2.824.363 49.266 14.437 55.27 16.198 16.263 4.769 27.621 19.932 27.621 36.872zm46.704 106.316c0 5.305-4.316 9.621-9.621 9.621h-14.139c-10.724 0-19.449-8.725-19.449-19.449v-15.955c0-10.725 8.725-19.449 19.449-19.449h14.139c5.305 0 9.621 4.316 9.621 9.621zm-201.864 17.325c0-11.219-9.454-20.347-21.074-20.347h-13.136c-.003 0-.005 0-.008 0s-.005 0-.008 0c-4.142 0-7.5 3.357-7.5 7.5v49.432c0 4.143 3.358 7.5 7.5 7.5s7.5-3.357 7.5-7.5v-10.492l13.596 15.448c2.745 3.119 7.487 3.402 10.585.675 3.109-2.736 3.412-7.476.675-10.585l-11.261-12.795c7.692-3.037 13.131-10.33 13.131-18.836zm-21.074 5.347c-1.338 0-3.448.008-5.586.018-.01-2.063-.021-8.542-.027-10.711h5.613c3.292 0 6.074 2.448 6.074 5.347s-2.782 5.346-6.074 5.346zm58.834-302.303c4.142 0 7.5-3.357 7.5-7.5v-15.358c0-4.143-3.358-7.5-7.5-7.5s-7.5 3.357-7.5 7.5v15.358c0 4.143 3.358 7.5 7.5 7.5zm-75 0c4.142 0 7.5-3.357 7.5-7.5v-15.358c0-4.143-3.358-7.5-7.5-7.5s-7.5 3.357-7.5 7.5v15.358c0 4.143 3.358 7.5 7.5 7.5zm20.155 53.065c3.43 2.087 9.037 4.632 16.272 4.909 7.242.278 14.463-2.359 18.197-4.51 3.589-2.067 4.822-6.653 2.754-10.242-2.068-3.588-6.655-4.82-10.243-2.754-2.158 1.242-5.681 2.68-10.132 2.518-4.019-.154-7.141-1.573-9.052-2.735-3.539-2.153-8.153-1.028-10.306 2.51-2.152 3.538-1.029 8.152 2.51 10.304z"/></g></svg>