<svg id="Capa_1" enable-background="new 0 0 512 512" height="512" viewBox="0 0 512 512" width="512" xmlns="http://www.w3.org/2000/svg"><g><g><path d="m302.419 81.151h-92.837v-27.232c-.001-25.637 20.782-46.419 46.418-46.419 25.636 0 46.419 20.782 46.419 46.419z" fill="#fcd1e8"/><path d="m256 7.5c-5.251 0-10.293.885-15 2.492 18.272 6.239 31.419 23.542 31.419 43.927v27.232h30v-27.232c0-25.637-20.783-46.419-46.419-46.419z" fill="#f6c2e0"/><path d="m304.46 109.665 10.651-42.605c1.105-4.418-2.237-8.698-6.791-8.698h-104.64c-4.554 0-7.896 4.28-6.791 8.698l10.651 42.605c1.105 4.418-2.237 8.698-6.791 8.698h-41.249c-22.091 0-40 17.909-40 40v306.137c0 22.091 17.909 40 40 40h193c22.091 0 40-17.909 40-40v-306.138c0-22.091-17.909-40-40-40h-41.249c-4.554 0-7.896-4.279-6.791-8.697z" fill="#f6a7d2"/><g><path d="m285.111 67.06-10.651 42.604c-1.104 4.418 2.237 8.698 6.791 8.698h30c-4.554 0-7.896-4.28-6.791-8.698l10.651-42.604c1.104-4.418-2.237-8.698-6.791-8.698h-30c4.554 0 7.895 4.28 6.791 8.698z" fill="#f28cc4"/></g><path d="m352.5 148.362c5.514 0 10 4.486 10 10v306.138c0 5.514-4.486 10-10 10h-193c-5.514 0-10-4.486-10-10v-306.138c0-5.514 4.486-10 10-10z" fill="#fff"/><circle cx="256" cy="103.362" fill="#fcd1e8" r="15"/><g><path d="m352.5 118.362h-30c22.091 0 40 17.909 40 40v306.138c0 22.091-17.909 40-40 40h30c22.091 0 40-17.909 40-40v-306.138c0-22.091-17.909-40-40-40z" fill="#f28cc4"/></g><circle cx="256" cy="311.431" fill="#fcd1e8" r="53"/><path d="m256 258.431c-5.212 0-10.242.765-15 2.167 21.963 6.471 38 26.774 38 50.833s-16.037 44.362-38 50.833c4.758 1.402 9.788 2.167 15 2.167 29.271 0 53-23.729 53-53s-23.729-53-53-53z" fill="#f6c2e0"/></g><path d="m392.5 400.495c4.143 0 7.5-3.357 7.5-7.5v-234.633c0-26.191-21.309-47.5-47.5-47.5h-40.608l10.495-41.983c1.09-4.362.129-8.896-2.638-12.44-2.454-3.142-6.008-5.088-9.916-5.491-1.407-28.3-25.707-50.948-53.833-50.948-28.734 0-52.286 22.594-53.834 50.948-3.907.403-7.461 2.349-9.915 5.491-2.767 3.544-3.728 8.078-2.638 12.439l10.495 41.984h-40.608c-26.191 0-47.5 21.309-47.5 47.5v306.138c0 26.191 21.309 47.5 47.5 47.5h193c26.191 0 47.5-21.309 47.5-47.5v-36.505c0-4.143-3.357-7.5-7.5-7.5s-7.5 3.357-7.5 7.5v36.505c0 17.921-14.579 32.5-32.5 32.5h-193c-17.921 0-32.5-14.579-32.5-32.5v-306.138c0-17.921 14.579-32.5 32.5-32.5h41.249c4.496 0 8.662-2.032 11.43-5.576 2.767-3.544 3.728-8.078 2.638-12.44l-10.495-41.983h26.908c4.143 0 7.5-3.357 7.5-7.5s-3.357-7.5-7.5-7.5h-14.018c1.565-20.036 18.357-35.863 38.788-35.863 19.93 0 37.346 15.908 38.791 35.862h-28.561c-4.143 0-7.5 3.357-7.5 7.5s3.357 7.5 7.5 7.5h41.449l-10.495 41.983c-1.09 4.362-.129 8.896 2.638 12.44 2.768 3.544 6.934 5.576 11.43 5.576h41.248c17.921 0 32.5 14.579 32.5 32.5v234.633c0 4.144 3.357 7.501 7.5 7.501zm-114-297.133c0-12.406-10.094-22.5-22.5-22.5s-22.5 10.094-22.5 22.5 10.094 22.5 22.5 22.5 22.5-10.093 22.5-22.5zm-30 0c0-4.136 3.364-7.5 7.5-7.5s7.5 3.364 7.5 7.5-3.364 7.5-7.5 7.5-7.5-3.364-7.5-7.5zm-106.5 55v306.138c-.008 9.57 8.145 17.52 17.5 17.5h193c9.649 0 17.5-7.851 17.5-17.5v-306.138c.015-9.524-8.135-17.521-17.5-17.5h-193c-9.649 0-17.5 7.851-17.5 17.5zm15 199.035 38.923-38.923c1.311 11.252 5.72 21.565 12.352 30.073l-51.275 51.275zm0 106.066v-42.426l61.882-61.882c8.508 6.632 18.821 11.041 30.072 12.353zm53.5-152.031c0-25.089 20.411-45.5 45.5-45.5s45.5 20.411 45.5 45.5-20.411 45.5-45.5 45.5-45.5-20.411-45.5-45.5zm144.5 153.068c0 1.379-1.121 2.5-2.5 2.5h-50.543l53.043-53.043zm0-71.758-74.258 74.258h-42.425l116.683-116.683zm0-63.639-137.897 137.897h-42.425l97.195-97.196c20.62-5.614 36.886-21.879 42.5-42.499l40.627-40.627zm0-63.64-38.924 38.924c-1.312-11.251-5.721-21.565-12.353-30.072l51.277-51.278zm0-106.066v42.425l-61.884 61.885c-8.508-6.632-18.822-11.041-30.074-12.352zm-17.68-3.535-97.198 97.198c-20.616 5.615-36.879 21.877-42.493 42.493l-40.629 40.63v-42.425l137.896-137.896zm-63.639 0-116.681 116.681v-42.426l74.256-74.255zm-116.681 53.041v-50.54c0-1.379 1.121-2.5 2.5-2.5h50.541z"/></g></svg>