<svg id="Capa_1" enable-background="new 0 0 512 512" height="512" viewBox="0 0 512 512" width="512" xmlns="http://www.w3.org/2000/svg"><g><g><path d="m97.56 63.5c-7.596 24.185-24.752 90.101 0 167.561 28.042 87.757 92.029 134.487 117.867 150.778 4.067 2.565 6.529 7.03 6.529 11.839v76.779c0 18.802 15.242 34.043 34.043 34.043 18.802 0 34.043-15.242 34.043-34.043v-76.779c0-4.808 2.461-9.274 6.529-11.839 25.838-16.291 89.826-63.021 117.867-150.778 24.752-77.46 7.596-143.376 0-167.561z" fill="#f6a7d2"/><path d="m414.44 63.5h-30c7.596 24.185 24.752 90.101 0 167.561-28.042 87.757-92.029 134.487-117.867 150.778-4.067 2.565-6.529 7.03-6.529 11.839v76.779c0 13.417-7.765 25.017-19.043 30.563 4.526 2.226 9.616 3.48 15 3.48 18.802 0 34.043-15.242 34.043-34.043v-76.779c0-4.808 2.461-9.274 6.529-11.839 25.838-16.291 89.826-63.021 117.867-150.778 24.751-77.46 7.595-143.376 0-167.561z" fill="#f28cc4"/><path d="m414 78.5h-316c-19.606 0-35.5-15.894-35.5-35.5 0-19.606 15.894-35.5 35.5-35.5h316c19.606 0 35.5 15.894 35.5 35.5 0 19.606-15.894 35.5-35.5 35.5z" fill="#f6c2e0"/><path d="m414 7.5h-30c19.606 0 35.5 15.894 35.5 35.5 0 19.606-15.894 35.5-35.5 35.5h30c19.606 0 35.5-15.894 35.5-35.5 0-19.606-15.894-35.5-35.5-35.5z" fill="#f6a7d2"/></g><path d="m340.83 221.139 17.543-24.379c2.419-3.362 1.655-8.049-1.707-10.469-3.362-2.419-8.049-1.654-10.469 1.707l-6.3 8.755c-1.129-4.744-2.665-9.397-4.557-13.83-13.582-31.835-44.725-52.406-79.341-52.406s-65.759 20.571-79.341 52.406c-1.625 3.81.146 8.216 3.956 9.841 3.808 1.625 8.216-.146 9.841-3.956 11.22-26.299 36.947-43.292 65.544-43.292s54.324 16.993 65.548 43.302c1.613 3.78 2.919 7.778 3.855 11.835l-11.943-8.72c-3.344-2.442-8.037-1.71-10.479 1.634-2.443 3.346-1.711 8.038 1.634 10.48l25.704 18.767c2.731 1.894 7.905 2.097 10.512-1.675zm-131.811 18.809c2.443-3.346 1.711-8.038-1.634-10.48l-25.704-18.768c-3.08-2.313-8.139-1.797-10.511 1.676l-17.543 24.38c-2.419 3.362-1.655 8.049 1.707 10.469 3.333 2.399 8.03 1.68 10.469-1.707l6.3-8.755c1.127 4.739 2.667 9.401 4.557 13.831 13.581 31.835 44.724 52.406 79.34 52.406s65.759-20.571 79.341-52.406c1.625-3.81-.146-8.216-3.956-9.841-3.811-1.627-8.216.145-9.841 3.956-11.22 26.298-36.947 43.291-65.544 43.291s-54.324-16.993-65.548-43.302c-1.615-3.785-2.918-7.774-3.856-11.835l11.942 8.72c3.347 2.442 8.038 1.71 10.481-1.635zm247.981-196.948c0-23.71-19.29-43-43-43h-220.122c-4.142 0-7.5 3.358-7.5 7.5s3.358 7.5 7.5 7.5h220.122c15.439 0 28 12.561 28 28s-12.561 28-28 28h-316c-15.439 0-28-12.561-28-28s12.561-28 28-28h60.878c4.142 0 7.5-3.358 7.5-7.5s-3.358-7.5-7.5-7.5h-60.878c-23.71 0-43 19.29-43 43 0 18.937 12.31 35.042 29.344 40.764-8.262 36.528-12.944 90.072 6.072 149.579 27.346 85.586 87.557 133.75 121.021 154.846 1.893 1.19 3.023 3.244 3.023 5.492v19.215c-.826-.083-1.653-.159-2.478-.248-4.123-.436-7.815 2.54-8.256 6.659s2.54 7.815 6.659 8.256c1.356.145 2.716.276 4.075.409v23.882c-.82-.085-1.643-.163-2.461-.252-4.119-.45-7.821 2.522-8.271 6.641-.45 4.117 2.523 7.82 6.641 8.271 1.361.149 2.726.283 4.091.419v3.528c0 22.905 18.635 41.54 41.54 41.54 11.096 0 21.528-4.321 29.373-12.167 7.846-7.846 12.167-18.277 12.167-29.374v-3.528c1.365-.136 2.731-.271 4.092-.419 4.118-.45 7.09-4.153 6.64-8.271-.451-4.118-4.155-7.089-8.271-6.64-.819.09-1.641.168-2.461.252v-23.881c1.36-.132 2.719-.265 4.075-.41 4.119-.441 7.1-4.138 6.659-8.256s-4.151-7.094-8.256-6.659c-.824.088-1.652.166-2.478.249v-19.217c0-2.248 1.13-4.301 3.029-5.496 23.874-15.05 58.321-41.893 86.853-84.301 2.312-3.437 1.401-8.097-2.036-10.409-3.437-2.313-8.098-1.401-10.409 2.036-28.498 42.358-63.862 68.295-82.4 79.981-6.285 3.953-10.037 10.753-10.037 18.189v20.456c-8.078.519-16.178.811-24.226.856-9.585.059-19.237-.228-28.854-.848v-20.464c0-7.436-3.752-14.236-10.03-18.185-31.73-20.003-88.828-65.663-114.726-146.718-18.192-56.931-13.466-108.134-5.483-142.777h313.557c7.983 34.643 12.71 85.846-5.483 142.777-4.075 12.752-9.156 25.266-15.104 37.191-1.848 3.707-.342 8.21 3.365 10.059 1.075.536 2.217.79 3.341.79 2.754 0 5.405-1.522 6.718-4.154 6.288-12.61 11.661-25.839 15.968-39.32 19.016-59.507 14.334-113.051 6.072-149.579 17.035-5.722 29.345-21.827 29.345-40.764zm-227.54 386.164c9.65.598 19.307.882 28.938.828 8.02-.045 16.09-.328 24.142-.827v23.956c-8.648.568-17.325.866-25.946.879-9.019.021-18.093-.278-27.134-.874zm0 38.985c9.05.572 18.131.864 27.156.85 8.613-.013 17.281-.304 25.924-.851v2.311c0 7.089-2.761 13.754-7.774 18.767-5.012 5.013-11.677 7.774-18.766 7.774-14.634 0-26.54-11.906-26.54-26.54z"/></g></svg>