<svg id="Capa_1" enable-background="new 0 0 512 512" height="512" viewBox="0 0 512 512" width="512" xmlns="http://www.w3.org/2000/svg"><g><g><path d="m439.382 504.5h-366.764c-16.569 0-30-13.431-30-30v-394c0-16.569 13.431-30 30-30h366.764c16.569 0 30 13.431 30 30v394c0 16.569-13.432 30-30 30z" fill="#8795de"/><path d="m439.382 50.5h-30c16.569 0 30 13.431 30 30v394c0 16.569-13.431 30-30 30h30c16.569 0 30-13.431 30-30v-394c0-16.569-13.432-30-30-30z" fill="#6c7fd8"/><path d="m72.618 464.5v-327c0-5.523 4.477-10 10-10h346.764c5.523 0 10 4.477 10 10v327c0 5.523-4.477 10-10 10h-346.764c-5.523 0-10-4.477-10-10z" fill="#fff"/><g fill="#8795de"><path d="m122.618 197.5c-11.046 0-20-8.954-20-20 0-11.046 8.954-20 20-20 11.046 0 20 8.954 20 20 0 11.046-8.954 20-20 20z"/><path d="m389.382 197.5c-11.046 0-20-8.954-20-20 0-11.046 8.954-20 20-20 11.046 0 20 8.954 20 20 0 11.046-8.954 20-20 20z"/><path d="m300.461 197.5c-11.046 0-20-8.954-20-20 0-11.046 8.954-20 20-20 11.046 0 20 8.954 20 20 0 11.046-8.955 20-20 20z"/><path d="m211.539 197.5c-11.046 0-20-8.954-20-20 0-11.046 8.954-20 20-20 11.046 0 20 8.954 20 20 0 11.046-8.954 20-20 20z"/><path d="m122.618 279.833c-11.046 0-20-8.954-20-20 0-11.046 8.954-20 20-20 11.046 0 20 8.954 20 20 0 11.046-8.954 20-20 20z"/><path d="m389.382 279.833c-11.046 0-20-8.954-20-20 0-11.046 8.954-20 20-20 11.046 0 20 8.954 20 20 0 11.046-8.954 20-20 20z"/><path d="m300.461 279.833c-11.046 0-20-8.954-20-20 0-11.046 8.954-20 20-20 11.046 0 20 8.954 20 20 0 11.046-8.955 20-20 20z"/><path d="m211.539 279.833c-11.046 0-20-8.954-20-20 0-11.046 8.954-20 20-20 11.046 0 20 8.954 20 20 0 11.046-8.954 20-20 20z"/><path d="m122.618 362.167c-11.046 0-20-8.954-20-20 0-11.046 8.954-20 20-20 11.046 0 20 8.954 20 20 0 11.045-8.954 20-20 20z"/><path d="m389.382 444.5c-11.046 0-20-8.954-20-20 0-11.046 8.954-20 20-20 11.046 0 20 8.954 20 20 0 11.046-8.954 20-20 20z"/><path d="m300.461 444.5c-11.046 0-20-8.954-20-20 0-11.046 8.954-20 20-20 11.046 0 20 8.954 20 20 0 11.046-8.955 20-20 20z"/></g><path d="m213.479 323.877c-1.092.981-2.788.981-3.88 0-5.727-5.143-14.726-5.117-20.412.542-15.897 15.82 9.575 35.089 21.273 39.617.698.27 1.461.27 2.159 0 11.697-4.529 37.17-23.797 21.273-39.617-5.687-5.659-14.686-5.685-20.413-.542z" fill="#f6a7d2"/><path d="m302.4 323.877c-1.092.981-2.788.981-3.88 0-5.727-5.143-14.726-5.117-20.412.542-15.897 15.82 9.575 35.089 21.273 39.617.698.27 1.461.27 2.159 0 11.697-4.529 37.17-23.797 21.273-39.617-5.687-5.659-14.686-5.685-20.413-.542z" fill="#f6a7d2"/><path d="m391.322 323.877c-1.092.981-2.788.981-3.88 0-5.727-5.143-14.726-5.117-20.412.542-15.897 15.82 9.575 35.089 21.273 39.617.698.27 1.461.27 2.159 0 11.697-4.529 37.17-23.797 21.273-39.617-5.687-5.659-14.687-5.685-20.413-.542z" fill="#f6a7d2"/><path d="m411.734 324.419c-5.686-5.659-14.685-5.685-20.412-.542-1.092.981-2.788.981-3.88 0-3.605-3.237-8.505-4.422-13.06-3.448 2.682.574 5.245 1.893 7.352 3.99 10.715 10.663 2.635 22.892-7.352 31.119 4.831 3.979 10.107 7.022 13.921 8.499.698.27 1.461.27 2.159 0 11.697-4.529 37.169-23.798 21.272-39.618z" fill="#f28cc4"/><path d="m322.813 324.419c-5.686-5.659-14.685-5.685-20.412-.542-1.092.981-2.788.981-3.88 0-3.605-3.237-8.505-4.422-13.06-3.448 2.682.574 5.245 1.893 7.352 3.99 10.715 10.663 2.635 22.892-7.352 31.119 4.831 3.979 10.107 7.022 13.921 8.499.698.27 1.461.27 2.159 0 11.696-4.529 37.169-23.798 21.272-39.618z" fill="#f28cc4"/><path d="m233.892 324.419c-5.686-5.659-14.685-5.685-20.412-.542-1.092.981-2.788.981-3.88 0-3.605-3.237-8.505-4.422-13.06-3.448 2.682.574 5.245 1.893 7.352 3.99 10.715 10.663 2.635 22.892-7.352 31.119 4.831 3.979 10.107 7.022 13.921 8.499.698.27 1.461.27 2.159 0 11.696-4.529 37.169-23.798 21.272-39.618z" fill="#f28cc4"/><path d="m213.479 406.21c-1.092.981-2.788.981-3.88 0-5.727-5.143-14.726-5.117-20.412.542-15.897 15.82 9.575 35.089 21.273 39.617.698.27 1.461.27 2.159 0 11.697-4.529 37.17-23.797 21.273-39.617-5.687-5.659-14.686-5.685-20.413-.542z" fill="#f6a7d2"/><path d="m124.558 406.21c-1.092.981-2.788.981-3.88 0-5.727-5.143-14.726-5.117-20.412.542-15.897 15.82 9.575 35.089 21.273 39.617.698.27 1.461.27 2.159 0 11.697-4.529 37.17-23.797 21.273-39.617-5.687-5.659-14.686-5.685-20.413-.542z" fill="#f6a7d2"/><path d="m233.892 406.752c-5.686-5.659-14.685-5.685-20.412-.542-1.092.981-2.788.981-3.88 0-3.605-3.237-8.505-4.422-13.06-3.448 2.682.574 5.245 1.893 7.352 3.99 10.715 10.663 2.635 22.892-7.352 31.119 4.831 3.979 10.107 7.022 13.921 8.499.698.27 1.461.27 2.159 0 11.696-4.529 37.169-23.798 21.272-39.618z" fill="#f28cc4"/><path d="m144.97 406.752c-5.686-5.659-14.685-5.685-20.412-.542-1.092.981-2.788.981-3.88 0-3.605-3.237-8.505-4.422-13.06-3.448 2.682.574 5.245 1.893 7.352 3.99 10.715 10.663 2.635 22.892-7.352 31.119 4.831 3.979 10.107 7.022 13.921 8.499.698.27 1.461.27 2.159 0 11.697-4.529 37.17-23.798 21.272-39.618z" fill="#f28cc4"/></g><path d="m389.382 205c15.164 0 27.5-12.336 27.5-27.5s-12.336-27.5-27.5-27.5-27.5 12.336-27.5 27.5 12.336 27.5 27.5 27.5zm0-40c6.893 0 12.5 5.607 12.5 12.5s-5.607 12.5-12.5 12.5-12.5-5.607-12.5-12.5 5.607-12.5 12.5-12.5zm-301.202 257.443c3.288 15.67 22.071 27.599 30.651 30.92 1.221.473 2.504.709 3.788.709s2.566-.236 3.787-.709c8.581-3.322 27.364-15.251 30.652-30.921 1.128-5.375.864-13.384-6.796-21.006-7.481-7.447-18.987-8.545-27.643-3.122-8.655-5.425-20.162-4.324-27.643 3.122-7.661 7.623-7.924 15.631-6.796 21.007zm17.377-10.375c2.77-2.756 7.21-2.883 10.11-.278 3.963 3.559 9.939 3.559 13.902 0 2.898-2.602 7.339-2.48 10.11.278 3.1 3.084 3.069 5.518 2.697 7.294-1.523 7.261-12.145 15.795-19.758 19.318-7.613-3.522-18.235-12.058-19.758-19.318-.373-1.775-.403-4.209 2.697-7.294zm283.825-124.735c15.164 0 27.5-12.336 27.5-27.5s-12.336-27.5-27.5-27.5-27.5 12.336-27.5 27.5 12.336 27.5 27.5 27.5zm0-40c6.893 0 12.5 5.607 12.5 12.5s-5.607 12.5-12.5 12.5-12.5-5.607-12.5-12.5 5.607-12.5 12.5-12.5zm27.642 71.77c-7.481-7.446-18.986-8.547-27.643-3.122-8.654-5.424-20.161-4.324-27.643 3.122-7.66 7.624-7.924 15.631-6.796 21.007 3.288 15.67 22.071 27.599 30.646 30.918 1.224.475 2.509.712 3.793.712 1.283 0 2.566-.237 3.785-.71 8.581-3.322 27.364-15.25 30.652-30.92 1.13-5.376.867-13.384-6.794-21.007zm-7.884 17.927c-1.523 7.259-12.142 15.792-19.759 19.318-7.613-3.523-18.234-12.057-19.758-19.318-.373-1.776-.403-4.21 2.697-7.295 2.77-2.756 7.21-2.882 10.11-.278 3.963 3.559 9.939 3.559 13.902 0 2.898-2.602 7.339-2.48 10.11.278 3.101 3.084 3.071 5.518 2.698 7.295zm30.242-12.904c4.142 0 7.5-3.358 7.5-7.5v-179.126c0-9.649-7.851-17.5-17.5-17.5h-346.764c-9.649 0-17.5 7.851-17.5 17.5v327c0 9.649 7.851 17.5 17.5 17.5h346.764c9.649 0 17.5-7.851 17.5-17.5v-112.874c0-4.142-3.358-7.5-7.5-7.5s-7.5 3.358-7.5 7.5v112.874c0 1.378-1.122 2.5-2.5 2.5h-346.764c-1.378 0-2.5-1.122-2.5-2.5v-327c0-1.378 1.122-2.5 2.5-2.5h346.764c1.378 0 2.5 1.122 2.5 2.5v179.126c0 4.142 3.358 7.5 7.5 7.5zm-250.323-227.626h133.883c4.142 0 7.5-3.358 7.5-7.5s-3.358-7.5-7.5-7.5h-133.883c-4.142 0-7.5 3.358-7.5 7.5s3.358 7.5 7.5 7.5zm200.323 300.5c-15.164 0-27.5 12.336-27.5 27.5s12.336 27.5 27.5 27.5 27.5-12.336 27.5-27.5-12.337-27.5-27.5-27.5zm0 40c-6.893 0-12.5-5.607-12.5-12.5s5.607-12.5 12.5-12.5 12.5 5.607 12.5 12.5-5.608 12.5-12.5 12.5zm50-394h-25.648c-.68-9.673-2.664-18.667-5.764-25.87-6.412-14.904-15.264-17.13-19.97-17.13-15.365 0-24.131 20.586-25.729 43h-154.094c-4.142 0-7.5 3.358-7.5 7.5s3.358 7.5 7.5 7.5h154.088c.68 9.673 2.664 18.666 5.763 25.87 6.413 14.904 15.265 17.13 19.972 17.13 9.559 0 17.655-8.482 22.215-23.272 1.221-3.958-.999-8.156-4.958-9.376-3.957-1.22-8.156 1-9.376 4.958-2.986 9.682-6.822 12.69-7.881 12.69-2.506 0-9.207-9.598-10.698-28h62.081c12.407 0 22.5 10.093 22.5 22.5v394c0 12.407-10.093 22.5-22.5 22.5h-366.765c-12.407 0-22.5-10.093-22.5-22.5v-394c0-12.407 10.093-22.5 22.5-22.5h19.648c.68 9.673 2.664 18.666 5.763 25.87 6.412 14.904 15.264 17.13 19.971 17.13 9.559 0 17.655-8.482 22.215-23.272 1.221-3.958-.999-8.156-4.958-9.376-3.958-1.22-8.156 1-9.376 4.958-2.986 9.682-6.822 12.69-7.881 12.69-2.506 0-9.207-9.598-10.698-28h65.876c4.142 0 7.5-3.358 7.5-7.5s-3.358-7.5-7.5-7.5h-29.443c-.68-9.673-2.664-18.667-5.764-25.87-6.413-14.904-15.265-17.13-19.971-17.13-15.365 0-24.131 20.586-25.73 43h-19.652c-20.678 0-37.5 16.822-37.5 37.5v394c0 20.678 16.822 37.5 37.5 37.5h366.764c20.678 0 37.5-16.822 37.5-37.5v-394c0-20.678-16.822-37.5-37.5-37.5zm-62.081 0c1.491-18.402 8.193-28 10.698-28 2.506 0 9.208 9.598 10.699 28zm-259.301-28c2.506 0 9.208 9.598 10.699 28h-21.397c1.49-18.402 8.192-28 10.698-28zm4.618 272.333c15.164 0 27.5-12.336 27.5-27.5s-12.336-27.5-27.5-27.5-27.5 12.336-27.5 27.5 12.337 27.5 27.5 27.5zm0-40c6.893 0 12.5 5.607 12.5 12.5s-5.607 12.5-12.5 12.5-12.5-5.607-12.5-12.5 5.608-12.5 12.5-12.5zm205.485 71.77c-7.481-7.444-18.988-8.545-27.642-3.122-8.655-5.424-20.161-4.323-27.643 3.122-7.66 7.623-7.923 15.631-6.796 21.006 3.288 15.67 22.071 27.599 30.646 30.919 1.223.475 2.508.711 3.793.711 1.283 0 2.566-.236 3.786-.709 8.581-3.322 27.364-15.251 30.652-30.921 1.128-5.375.865-13.383-6.796-21.006zm-7.884 17.926c-1.523 7.26-12.143 15.794-19.758 19.318-7.613-3.523-18.234-12.058-19.758-19.318-.373-1.776-.403-4.21 2.696-7.294 2.769-2.756 7.211-2.884 10.11-.279 3.963 3.561 9.94 3.561 13.903.001 2.898-2.602 7.339-2.479 10.111.278 3.099 3.084 3.068 5.518 2.696 7.294zm-81.037-17.926c-7.481-7.444-18.988-8.545-27.642-3.122-8.656-5.424-20.161-4.323-27.643 3.122-7.66 7.623-7.924 15.631-6.796 21.006 3.288 15.67 22.071 27.599 30.648 30.919 1.223.474 2.507.711 3.792.711 1.283 0 2.566-.237 3.785-.71 8.581-3.322 27.364-15.251 30.652-30.921 1.127-5.374.864-13.382-6.796-21.005zm-7.885 17.926c-1.523 7.26-12.142 15.793-19.758 19.318-7.613-3.523-18.234-12.058-19.758-19.318-.373-1.776-.403-4.21 2.696-7.294 2.77-2.757 7.211-2.883 10.111-.278 3.964 3.56 9.94 3.559 13.902 0 2.898-2.602 7.339-2.479 10.111.278 3.099 3.084 3.069 5.518 2.696 7.294zm-19.757 61.285c-8.656-5.425-20.162-4.323-27.643 3.122-7.66 7.623-7.923 15.631-6.796 21.006 3.288 15.67 22.071 27.6 30.653 30.922 1.221.473 2.503.708 3.786.708s2.566-.236 3.787-.709c8.581-3.322 27.364-15.251 30.652-30.921 1.127-5.375.864-13.383-6.796-21.006-7.482-7.445-18.989-8.546-27.643-3.122zm-3.062 2.307c-.003.003-.007.006-.01.009 0 0-.001 0-.001.001zm22.819 18.742c-1.523 7.261-12.145 15.795-19.758 19.318-7.613-3.522-18.234-12.058-19.758-19.318-.373-1.776-.403-4.21 2.696-7.294 2.77-2.757 7.211-2.882 10.111-.278 3.964 3.56 9.94 3.56 13.902 0 2.898-2.602 7.339-2.48 10.111.278 3.099 3.084 3.069 5.518 2.696 7.294zm69.163-214.363c15.164 0 27.5-12.336 27.5-27.5s-12.336-27.5-27.5-27.5-27.5 12.336-27.5 27.5 12.337 27.5 27.5 27.5zm0-40c6.893 0 12.5 5.607 12.5 12.5s-5.607 12.5-12.5 12.5-12.5-5.607-12.5-12.5 5.608-12.5 12.5-12.5zm-88.92 40c15.164 0 27.5-12.336 27.5-27.5s-12.336-27.5-27.5-27.5-27.5 12.336-27.5 27.5 12.336 27.5 27.5 27.5zm0-40c6.893 0 12.5 5.607 12.5 12.5s-5.607 12.5-12.5 12.5-12.5-5.607-12.5-12.5 5.607-12.5 12.5-12.5zm0 122.333c15.164 0 27.5-12.336 27.5-27.5s-12.336-27.5-27.5-27.5-27.5 12.336-27.5 27.5 12.336 27.5 27.5 27.5zm0-40c6.893 0 12.5 5.607 12.5 12.5s-5.607 12.5-12.5 12.5-12.5-5.607-12.5-12.5 5.607-12.5 12.5-12.5zm-88.922 122.334c15.164 0 27.5-12.336 27.5-27.5s-12.336-27.5-27.5-27.5-27.5 12.336-27.5 27.5 12.337 27.5 27.5 27.5zm0-40c6.893 0 12.5 5.607 12.5 12.5s-5.607 12.5-12.5 12.5-12.5-5.607-12.5-12.5 5.608-12.5 12.5-12.5zm177.842 67.333c-15.164 0-27.5 12.336-27.5 27.5s12.336 27.5 27.5 27.5 27.5-12.336 27.5-27.5-12.336-27.5-27.5-27.5zm0 40c-6.893 0-12.5-5.607-12.5-12.5s5.607-12.5 12.5-12.5 12.5 5.607 12.5 12.5-5.607 12.5-12.5 12.5zm-177.842-232c15.164 0 27.5-12.336 27.5-27.5s-12.336-27.5-27.5-27.5-27.5 12.336-27.5 27.5 12.337 27.5 27.5 27.5zm0-40c6.893 0 12.5 5.607 12.5 12.5s-5.607 12.5-12.5 12.5-12.5-5.607-12.5-12.5 5.608-12.5 12.5-12.5zm177.842 122.333c15.164 0 27.5-12.336 27.5-27.5s-12.336-27.5-27.5-27.5-27.5 12.336-27.5 27.5 12.337 27.5 27.5 27.5zm0-40c6.893 0 12.5 5.607 12.5 12.5s-5.607 12.5-12.5 12.5-12.5-5.607-12.5-12.5 5.608-12.5 12.5-12.5z"/></g></svg>