<svg id="Capa_1" enable-background="new 0 0 512 512" height="512" viewBox="0 0 512 512" width="512" xmlns="http://www.w3.org/2000/svg"><g><g><g><g><path d="m321.344 436h-130.688c-7.485 0-13.824-5.518-14.857-12.931l-13.199-94.788h186.8l-13.199 94.788c-1.032 7.413-7.372 12.931-14.857 12.931z" fill="#c1e3f7"/><path d="m319.4 328.281-13.199 94.788c-1.032 7.413-7.372 12.931-14.857 12.931h30c7.485 0 13.824-5.518 14.857-12.931l13.199-94.788z" fill="#a6d6f8"/><path d="m321.344 76h-130.688c-7.485 0-13.824 5.518-14.857 12.931l-13.199 94.788h186.8l-13.199-94.788c-1.032-7.413-7.372-12.931-14.857-12.931z" fill="#c1e3f7"/><path d="m336.201 88.931c-1.032-7.413-7.372-12.931-14.857-12.931h-30c7.485 0 13.824 5.518 14.857 12.931l13.199 94.788h30z" fill="#a6d6f8"/></g><g><path d="m504.5 190.11v131.78c0 28.986-25.42 51.452-54.287 47.977l-115.22-13.866c-52.471-6.315-105.514-6.315-157.985 0l-115.22 13.866c-28.868 3.475-54.288-18.991-54.288-47.977v-131.78c0-28.986 25.42-51.452 54.287-47.977l115.22 13.866c52.471 6.315 105.514 6.315 157.985 0l115.22-13.866c28.868-3.475 54.288 18.991 54.288 47.977z" fill="#a6d6f8"/><g><path d="m450.213 142.132-11.351 1.366c20.337 5.572 35.639 24.125 35.639 46.611v131.78c0 22.486-15.301 41.039-35.639 46.611l11.352 1.366c28.867 3.474 54.287-18.991 54.287-47.977v-131.779c-.001-28.987-25.421-51.452-54.288-47.978z" fill="#8ecbfb"/></g><path d="m474.5 321.89c0 7.132-3.86 11.62-6.161 13.661-2.329 2.065-7.316 5.401-14.542 4.532l-115.22-13.867c-54.794-6.594-110.36-6.594-165.154 0l-115.22 13.867c-7.226.87-12.213-2.466-14.542-4.532-2.301-2.041-6.161-6.529-6.161-13.661v-131.78c0-7.132 3.86-11.62 6.161-13.661 2.329-2.065 7.316-5.401 14.542-4.532l115.22 13.867c54.794 6.594 110.36 6.594 165.154 0l115.22-13.867c7.226-.87 12.213 2.466 14.542 4.532 2.301 2.041 6.161 6.529 6.161 13.661z" fill="#eaf6ff"/></g></g><g><path d="m319.852 218.022c0 35.265-28.588 63.852-63.852 63.852s-63.852-28.588-63.852-63.852c0-29.112 43.515-87.147 58.699-106.511 2.625-3.347 7.681-3.347 10.305 0 15.185 19.364 58.7 77.399 58.7 106.511z" fill="#8795de"/><path d="m261.153 111.511c-2.625-3.347-7.681-3.347-10.305 0-2.581 3.292-5.982 7.703-9.847 12.897 18.874 25.364 48.852 69.451 48.852 93.614 0 30.096-20.828 55.313-48.852 62.063 4.813 1.159 9.832 1.789 15 1.789 35.265 0 63.852-28.588 63.852-63.852-.001-29.112-43.516-87.147-58.7-106.511z" fill="#6c7fd8"/><g><path d="m242.558 239.706c-3.219 0-6.437-1.225-8.887-3.675l-11.435-11.435c-2.929-2.929-2.929-7.678 0-10.606 2.929-2.929 7.678-2.929 10.606 0l9.716 9.716 36.6-36.6c2.929-2.929 7.678-2.929 10.606 0 2.929 2.929 2.929 7.678 0 10.606l-38.319 38.319c-2.449 2.449-5.669 3.675-8.887 3.675z" fill="#fff"/></g></g></g><path d="m232.842 213.989c-2.929-2.929-7.678-2.929-10.606 0-2.929 2.929-2.929 7.678 0 10.606l11.435 11.435c2.45 2.451 5.668 3.675 8.887 3.675 3.218 0 6.438-1.225 8.888-3.675l38.319-38.319c2.929-2.929 2.929-7.678 0-10.606-2.929-2.929-7.678-2.929-10.606 0l-36.6 36.6zm260.384-65.592c-11.983-10.629-27.987-15.628-43.913-13.713l-97.531 11.741-8.154-58.527c-1.537-11.059-11.119-19.398-22.288-19.398h-130.68c-11.169 0-20.751 8.339-22.289 19.396l-8.154 58.529-97.532-11.741c-15.922-1.914-31.928 3.084-43.911 13.713-11.931 10.583-18.774 25.787-18.774 41.713v131.78c0 15.926 6.843 31.13 18.774 41.713 11.983 10.629 27.985 15.629 43.913 13.713l97.531-11.741 8.154 58.527c1.538 11.059 11.12 19.397 22.289 19.397h34.573c4.142 0 7.5-3.358 7.5-7.5s-3.358-7.5-7.5-7.5h-34.574c-3.725 0-6.919-2.778-7.432-6.465l-8.116-58.253c53.656-6.678 108.121-6.676 161.775 0l-8.116 58.255c-.512 3.685-3.707 6.463-7.432 6.463h-61.063c-4.142 0-7.5 3.358-7.5 7.5s3.358 7.5 7.5 7.5h61.063c11.169 0 20.751-8.339 22.289-19.396l8.154-58.529 97.532 11.741c15.791 1.898 31.92-3.078 43.911-13.713 11.932-10.582 18.775-25.786 18.775-41.712v-131.78c0-15.926-6.843-31.13-18.774-41.713zm-309.997-58.434c.512-3.685 3.707-6.463 7.432-6.463h130.68c3.725 0 6.919 2.778 7.432 6.465l8.116 58.253c-12.525 1.543-25.123 2.735-37.726 3.572-11.604-18.119-24.163-34.776-32.107-44.907-2.682-3.421-6.711-5.383-11.055-5.383s-8.373 1.962-11.055 5.383c-7.944 10.131-20.503 26.788-32.107 44.907-12.583-.833-25.23-2.025-37.726-3.572zm129.123 128.059c0 31.073-25.279 56.352-56.352 56.352s-56.352-25.279-56.352-56.352c0-31.747 34.618-72.639 56.352-100.926 23.333 30.386 56.352 67.919 56.352 100.926zm184.648 103.868c0 11.639-5.003 22.753-13.728 30.491-8.776 7.784-20.5 11.445-32.166 10.042l-115.221-13.87c-53.009-6.375-106.763-6.375-159.772 0l-115.218 13.87c-11.67 1.402-23.392-2.258-32.167-10.042-8.725-7.738-13.728-18.852-13.728-30.491v-131.78c0-11.639 5.003-22.753 13.728-30.491 8.776-7.784 20.502-11.446 32.166-10.042l115.221 13.87c9.246 1.112 18.596 2.024 27.926 2.753-2.79 4.823-5.417 9.654-7.783 14.406-7.326-.642-14.683-1.399-21.942-2.272l-115.218-13.86c-10.155-1.221-17.15 3.466-20.414 6.365-3.244 2.876-8.684 9.204-8.684 19.271v131.78c0 10.066 5.44 16.395 8.679 19.266 3.099 2.748 12.107 7.467 20.417 6.37l115.221-13.86c54.201-6.528 109.166-6.528 163.368 0l115.218 13.86c10.154 1.222 17.151-3.466 20.414-6.365 3.243-2.876 8.684-9.205 8.684-19.271v-131.78c0-10.066-5.44-16.395-8.679-19.266-3.269-2.905-10.266-7.592-20.417-6.37l-43.282 5.207c-4.113.495-7.045 4.229-6.551 8.342.495 4.112 4.226 7.046 8.342 6.551l43.284-5.207c4.094-.495 6.973 1.19 8.666 2.695 1.659 1.471 3.637 4.062 3.637 8.048v131.78c0 3.987-1.978 6.577-3.642 8.053-1.688 1.5-4.565 3.186-8.663 2.69l-115.218-13.86c-55.392-6.671-111.563-6.671-166.953 0l-115.222 13.86c-4.098.493-6.973-1.19-8.666-2.695-1.659-1.471-3.637-4.061-3.637-8.048v-131.78c0-3.987 1.978-6.577 3.642-8.053 1.688-1.5 4.562-3.187 8.663-2.69l115.22 13.86c5.728.689 11.518 1.302 17.306 1.852-3.234 8.458-5.183 16.306-5.183 22.944 0 39.344 32.008 71.352 71.352 71.352s71.352-32.008 71.352-71.352c0-6.637-1.949-14.485-5.183-22.943 5.788-.55 11.578-1.164 17.306-1.852l37.083-4.46c4.113-.495 7.045-4.229 6.551-8.342s-4.232-7.048-8.342-6.551l-37.083 4.46c-7.259.872-14.617 1.63-21.942 2.272-2.366-4.752-4.992-9.583-7.783-14.406 9.33-.728 18.68-1.641 27.927-2.753l115.218-13.87c11.667-1.403 23.392 2.258 32.167 10.042 8.726 7.737 13.729 18.851 13.729 30.49z"/></g></svg>