<svg id="Capa_1" enable-background="new 0 0 512.001 512.001" height="512" viewBox="0 0 512.001 512.001" width="512" xmlns="http://www.w3.org/2000/svg"><g><g><g><g><path d="m112.094 504.501c-53.809-137.562-42.416-218.924-20.712-268.347 9.405-21.417 29.559-56.903 40.626-113.117 9.385-47.671 7.947-88.462 5.247-115.536-.509-3.979 2.591-7.5 6.602-7.5h164.878c4.011 0 7.111 3.521 6.602 7.5-2.699 27.073-4.138 67.864 5.247 115.536 11.067 56.214 31.221 91.701 40.626 113.117 21.704 49.423 33.097 130.785-20.712 268.347-1.942 4.549-6.411 7.5-11.357 7.5h-205.69c-4.946 0-9.415-2.951-11.357-7.5z" fill="#ffcebf"/></g><g fill="#ffb09e"><path d="m361.21 236.154c-9.405-21.417-29.559-56.903-40.626-113.117-9.385-47.671-7.947-88.462-5.247-115.536.509-3.979-2.591-7.5-6.602-7.5h-30c4.011 0 7.111 3.521 6.602 7.5-2.699 27.073-4.138 67.864 5.247 115.536 11.067 56.214 31.221 91.701 40.626 113.117 21.704 49.423 33.097 130.785-20.712 268.347-1.942 4.549-6.411 7.5-11.356 7.5h30c4.946 0 9.415-2.951 11.356-7.5 53.809-137.562 42.416-218.924 20.712-268.347z"/><path d="m265.957 325.929c-3.474-2.25-8.121-1.255-10.37 2.224-4.322 6.681-9.367 12.916-14.995 18.532-4.473 4.463-9.335 8.558-14.499 12.212-5.974-3.874-11.456-8.433-16.34-13.591-4.818-5.089-9.04-10.751-12.55-16.83-2.07-3.587-6.657-4.815-10.245-2.745-3.587 2.07-4.816 6.657-2.745 10.245 4.096 7.094 9.023 13.703 14.647 19.643 5.936 6.27 12.631 11.77 19.936 16.407v132.475c0 4.143 3.357 7.5 7.5 7.5s7.5-3.357 7.5-7.5v-132.695c6.208-4.308 12.047-9.17 17.392-14.504 6.379-6.365 12.096-13.432 16.993-21.003 2.25-3.477 1.255-8.121-2.224-10.37z"/></g></g><g><path d="m288.317 346.626h45.219v60.219h-45.219z" fill="#eaf6ff" transform="matrix(.707 -.707 .707 .707 -175.324 330.202)"/><path d="m305.624 339.458-15 15 10.607 10.607c9.375 9.375 9.375 24.574 0 33.949l15 15 31.975-31.975z" fill="#d8ecfe"/><path d="m427.677 493.486c14.688-14.687 14.688-38.501 0-53.188l-63.916-63.916c-2.734-2.734-7.166-2.734-9.9 0l-43.288 43.288c-2.734 2.734-2.734 7.166 0 9.9l63.916 63.916c14.688 14.687 38.501 14.687 53.188 0z" fill="#a6d6f8"/><path d="m427.677 440.298-63.916-63.916c-2.734-2.734-7.166-2.734-9.899 0l-10.05 10.05 53.865 53.865c14.688 14.688 14.688 38.5 0 53.188-3.441 3.441-7.386 6.065-11.594 7.894 13.754 5.977 30.347 3.353 41.594-7.894 14.688-14.687 14.688-38.5 0-53.187z" fill="#8ecbfb"/><g><circle cx="228.271" cy="304.093" fill="#a6d6f8" r="94.372"/><path d="m228.271 209.721c-5.105 0-10.114.411-15 1.191 44.99 7.187 79.372 46.166 79.372 93.18s-34.381 85.994-79.372 93.18c4.886.781 9.895 1.192 15 1.192 52.12 0 94.372-42.252 94.372-94.372s-42.252-94.371-94.372-94.371z" fill="#8ecbfb"/><circle cx="228.271" cy="304.093" fill="#eaf6ff" r="57.596"/></g></g></g><path d="m75.272 365.245c4.126-.364 7.175-4.005 6.811-8.131-3.96-44.816 1.479-84.498 16.167-117.944 1.631-3.715 3.583-7.84 5.843-12.616 10.353-21.879 25.997-54.942 35.274-102.068 7.527-38.235 9.328-77.845 5.352-117.728-.411-4.123-4.094-7.136-8.207-6.719-4.122.411-7.13 4.085-6.719 8.207 3.83 38.418 2.1 76.552-5.143 113.342-8.918 45.295-24.082 77.344-34.116 98.551-2.309 4.879-4.302 9.092-6.019 13-15.713 35.782-21.559 77.938-17.374 125.296.345 3.901 3.618 6.84 7.462 6.84.221-.001.444-.011.669-.03zm357.709 69.75-50.72-50.721c9.065-58.202 4.302-109.037-14.187-151.136-1.716-3.908-3.709-8.122-6.017-13.001-10.032-21.207-25.192-53.254-34.112-98.544-7.246-36.796-8.978-74.931-5.146-113.347.411-4.121-2.597-7.796-6.719-8.207-4.122-.417-7.796 2.597-8.207 6.719-3.979 39.881-2.177 79.492 5.354 117.733 9.279 47.12 24.92 80.182 35.27 102.06 2.26 4.777 4.211 8.902 5.842 12.617 16.168 36.814 21.076 81.111 14.651 131.843-5.66-5.578-14.802-5.561-20.432.068l-.354.354-26.581-26.581c5.474-12.488 8.519-26.274 8.519-40.759 0-20.746-6.199-40.71-17.929-57.733-2.351-3.412-7.021-4.272-10.431-1.921-3.411 2.35-4.271 7.021-1.921 10.431 9.996 14.51 15.28 31.53 15.28 49.224 0 47.901-38.97 86.872-86.871 86.872s-86.87-38.972-86.87-86.874 38.971-86.871 86.872-86.871c17.463 0 34.3 5.158 48.69 14.916 3.428 2.326 8.092 1.43 10.416-1.998 2.325-3.428 1.431-8.092-1.998-10.416-16.884-11.45-36.632-17.502-57.108-17.502-56.173 0-101.872 45.699-101.872 101.871 0 52.978 40.65 96.632 92.396 101.428v98.981c0 4.143 3.357 7.5 7.5 7.5s7.5-3.357 7.5-7.5v-98.701c17.674-.951 34.167-6.416 48.334-15.276l23.491 23.491-.353.353c-5.651 5.654-5.651 14.853.001 20.506l38.647 38.647c-3.199 9.257-6.678 18.729-10.405 28.248-1.51 3.857.394 8.208 4.251 9.718 3.767 1.474 8.19-.349 9.718-4.251 2.883-7.365 5.616-14.704 8.202-21.948l13.503 13.503c17.589 17.588 46.207 17.589 63.795 0 17.588-17.59 17.588-46.208.001-63.796zm-138.614-53.45c7.7-6.581 14.412-14.285 19.876-22.859l23.354 23.353-9.158 9.158-12.213 12.209zm128.006 106.637c-11.59 11.589-31.145 11.55-42.58 0l-63.562-63.562 42.581-42.582 63.562 63.563c11.739 11.74 11.739 30.842-.001 42.581zm-335.7-97.026c-.729-4.077-4.618-6.796-8.702-6.063-4.077.729-6.792 4.624-6.063 8.702 6.231 34.879 17.401 73.045 33.202 113.439 1.526 3.902 5.94 5.729 9.717 4.252 3.857-1.509 5.761-5.858 4.252-9.717-15.444-39.481-26.346-76.697-32.406-110.613zm159.031-110.116-32.307 32.307-8.177-8.178c-2.93-2.928-7.678-2.928-10.607 0-2.929 2.93-2.929 7.678 0 10.607l10.264 10.264c4.699 4.697 12.341 4.696 17.042 0l34.393-34.393c2.929-2.93 2.929-7.678 0-10.607-2.93-2.928-7.678-2.928-10.608 0zm-17.432-42.043c-35.895 0-65.097 29.202-65.097 65.096 0 35.895 29.202 65.097 65.097 65.097 35.894 0 65.096-29.202 65.096-65.097-.001-35.894-29.203-65.096-65.096-65.096zm0 115.192c-27.623 0-50.097-22.474-50.097-50.097s22.474-50.096 50.097-50.096 50.096 22.473 50.096 50.096-22.473 50.097-50.096 50.097z"/></g></svg>