<svg id="Capa_1" enable-background="new 0 0 512.017 512.017" height="512" viewBox="0 0 512.017 512.017" width="512" xmlns="http://www.w3.org/2000/svg"><g><g><g><path d="m236.671 58.781h38.675v53.675h-38.675z" fill="#d8ecfe"/><path d="m359.486 58.781h-139.37c-14.155 0-25.63-11.475-25.63-25.63 0-15.534 13.708-27.497 29.1-25.394l136.848 18.697c3.468.474 6.052 3.436 6.052 6.936v18.391c0 3.866-3.134 7-7 7z" fill="#a6d6f8"/><path d="m336.852 23.233-.366 28.549c0 3.866-3.134 7-7 7h30c3.866 0 7-3.134 7-7v-18.392c0-3.5-2.585-6.462-6.052-6.936z" fill="#8ecbfb"/></g><path d="m317.531 163.951h-123.045v-50.668c0-5.523 4.477-10 10-10h103.045c5.523 0 10 4.477 10 10z" fill="#eaf6ff"/><path d="m307.531 103.283h-30c5.523 0 10 4.477 10 10v50.668h30v-50.668c0-5.523-4.477-10-10-10z" fill="#d8ecfe"/><path d="m323.43 504.517h-134.843c-15.592 0-28.585-11.944-29.894-27.481l-24.944-296c-1.475-17.5 12.332-32.519 29.894-32.519h184.731c17.562 0 31.369 15.019 29.894 32.519l-24.944 296c-1.309 15.537-14.302 27.481-29.894 27.481z" fill="#a6d6f8"/><path d="m348.374 148.517h-30c17.562 0 31.369 15.019 29.894 32.519l-24.944 296c-1.309 15.537-14.302 27.481-29.894 27.481h30c15.592 0 28.585-11.944 29.894-27.481l24.944-296c1.475-17.5-12.332-32.519-29.894-32.519z" fill="#8ecbfb"/><path d="m188.046 468.105-23.764-282c-.344-4.083 2.877-7.588 6.975-7.588h169.502c4.098 0 7.319 3.504 6.975 7.588l-23.764 282c-.305 3.625-3.337 6.412-6.975 6.412h-121.973c-3.639 0-6.67-2.787-6.976-6.412z" fill="#fff"/><circle cx="256.008" cy="311.517" fill="#a6d6f8" r="49.5"/><path d="m256.008 262.017c-5.23 0-10.268.817-15 2.32 20.004 6.354 34.5 25.072 34.5 47.18s-14.496 40.825-34.5 47.18c4.732 1.503 9.77 2.32 15 2.32 27.338 0 49.5-22.162 49.5-49.5s-22.162-49.5-49.5-49.5z" fill="#8ecbfb"/></g><path d="m340.759 171.017h-169.501c-4.046 0-7.937 1.708-10.675 4.687s-4.114 7-3.774 11.031l15.921 188.928c.348 4.127 3.966 7.175 8.104 6.844 4.127-.348 7.191-3.976 6.844-8.104l-15.875-188.386h168.413l-23.68 281h-121.055l-4.865-57.736c-.348-4.127-3.966-7.175-8.104-6.844-4.127.348-7.191 3.976-6.844 8.104l4.904 58.194c.628 7.448 6.975 13.282 14.449 13.282h121.973c7.474 0 13.82-5.834 14.448-13.282l23.765-281.999c.34-4.031-1.035-8.052-3.773-11.031-2.737-2.979-6.629-4.688-10.675-4.688zm35.222-17.879c-7.081-7.703-17.144-12.121-27.607-12.121h-23.346v-27.73c0-9.649-7.851-17.5-17.5-17.5h-24.683v-29.505h76.641c7.995 0 14.5-6.505 14.5-14.5v-18.392c0-7.214-5.39-13.391-12.537-14.366l-51.556-7.044c-4.1-.559-7.886 2.311-8.446 6.415s2.312 7.886 6.415 8.446l51.124 6.985v17.455h-138.87c-9.997 0-18.13-8.133-18.13-18.13 0-10.843 9.88-19.475 20.584-17.964l50.482 6.897c4.1.566 7.886-2.312 8.446-6.415.561-4.104-2.312-7.886-6.415-8.446l-50.483-6.897c-19.702-2.822-37.615 13.029-37.615 32.825 0 18.268 14.862 33.13 33.13 33.13h9.055v29.505h-24.683c-9.649 0-17.5 7.851-17.5 17.5v27.73h-23.346c-10.463 0-20.526 4.418-27.607 12.121-7.082 7.703-10.639 18.102-9.761 28.528l24.944 296c1.624 19.262 18.038 34.351 37.368 34.351h134.845c19.331 0 35.744-15.089 37.367-34.351l24.944-296c.879-10.425-2.678-20.824-9.76-28.527zm-131.81-86.856h23.674v29.505h-23.674zm-42.183 47.004c0-1.379 1.122-2.5 2.5-2.5h103.04c1.379 0 2.5 1.121 2.5 2.5v27.73h-108.04zm168.807 67.121-24.944 296c-.974 11.558-10.821 20.61-22.42 20.61h-134.844c-11.598 0-21.446-9.053-22.42-20.61l-24.944-296c-.535-6.348 1.545-12.427 5.856-17.117 4.312-4.689 10.194-7.272 16.564-7.272h184.731c6.371 0 12.254 2.583 16.564 7.272 4.312 4.69 6.392 10.769 5.857 17.117zm-65.286 234.11c0-4.143-3.357-7.5-7.5-7.5h-84c-4.142 0-7.5 3.357-7.5 7.5s3.358 7.5 7.5 7.5h84c4.142 0 7.5-3.357 7.5-7.5zm-49.501-160c-31.43 0-57 25.57-57 57s25.57 57 57 57 57-25.57 57-57-25.57-57-57-57zm0 99c-23.159 0-42-18.841-42-42s18.841-42 42-42 42 18.841 42 42-18.841 42-42 42zm-26.999 83.5c-4.142 0-7.5 3.357-7.5 7.5s3.358 7.5 7.5 7.5h54c4.143 0 7.5-3.357 7.5-7.5s-3.357-7.5-7.5-7.5zm91.5-228.5c0-4.143-3.357-7.5-7.5-7.5h-114c-4.142 0-7.5 3.357-7.5 7.5s3.358 7.5 7.5 7.5h114c4.142 0 7.5-3.357 7.5-7.5zm-46.5 95.5h-10.5v-10.5c0-4.143-3.358-7.5-7.5-7.5s-7.5 3.357-7.5 7.5v10.5h-10.5c-4.142 0-7.5 3.357-7.5 7.5s3.358 7.5 7.5 7.5h10.5v10.5c0 4.143 3.358 7.5 7.5 7.5s7.5-3.357 7.5-7.5v-10.5h10.5c4.143 0 7.5-3.357 7.5-7.5s-3.358-7.5-7.5-7.5z"/></g></svg>