<svg id="Capa_1" enable-background="new 0 0 512.001 512.001" height="512" viewBox="0 0 512.001 512.001" width="512" xmlns="http://www.w3.org/2000/svg"><g><g><path d="m393.395 31.231s-91.899 4.771-141.395 4.771-118.395-20.557-118.395-20.557c-22.11 13.009-31.546 40.316-31.546 69.204 0 42.115 9.35 78.388 30.695 105.067 35.476 25.636 75.598 40.273 124.247 40.273 103.242 0 143.942-57 143.942-144.34-.001-13.741-1.347-36.382-7.548-54.418z" fill="#b46e5a"/><path d="m378.395 15.445c22.11 13.009 31.546 40.316 31.546 69.204h.001c0 90.006-42.7 153.34-153.942 153.34-59.191 0-98.975-17.933-123.247-48.273 32.252 21.159 74.598 33.273 123.247 33.273 103.242 0 138.942-56 138.942-143.34 0-11.082-1.547-27.537-1.547-27.537 0 6.629-4.345 12.48-10.698 14.37-19.212 5.717-62.201 16.569-111.697 16.569s-92.485-10.852-111.697-16.569c-6.161-1.833-10.42-7.393-10.674-13.772 0-10.769 0-23.024 0-34.196 23.954 4.661 71.729 12.987 107.371 12.987 49.497 0 122.395-16.055 122.395-16.056z" fill="#915041"/><path d="m365.609 44.657c2.853-.916 4.787-3.564 4.787-6.56l-7-28.68c-5.083-1.246-10.619-1.917-16.642-1.917-39.485 0-61.023 15.001-90.753 15.001-29.734 0-51.272-15.001-90.759-15.001-12.58 0-23.06 2.899-31.636 7.945v21.667c0 .201.016.399.024.598 16.871 12.702 68.225 22.341 114.37 22.341 55.501 0 102.821-10.645 117.609-15.394z" fill="#eef9fa"/><path d="m363.395 9.417v21.68c0 2.996-1.934 5.644-4.787 6.56-14.787 4.749-55.107 15.394-110.608 15.394-46.146 0-92.708-9.431-114.371-15.341.253 6.379 4.513 11.939 10.674 13.772 19.212 5.717 62.201 16.569 111.697 16.569s92.485-10.852 111.697-16.569c6.354-1.891 10.698-7.741 10.698-14.37v-21.666c-4.471-2.631-9.465-4.672-15-6.029z" fill="#dcf2f6"/><path d="m254 334.621c69.542 0 117.395-67.81 117.395-131.101v-35.017c0-9.43-3.357-25.19-11.497-34.038-12.634-11.279-30.664-18.344-50.691-18.344-21.394 0-40.515 8.056-53.207 20.707-12.691-12.651-31.813-20.707-53.207-20.707-38.212 0-69.188 25.691-69.188 57.382v30.017c0 30.272 8.639 58.263 23.278 81.023 23.318 33.01 63.044 50.078 97.117 50.078z" fill="#e6989e"/><path d="m359.898 134.465c2.258 6.682 3.497 14.608 3.497 24.038v40.017c0 71.291-46.853 128.101-116.395 128.101-34.073 0-66.415-16.224-90.117-42.078 22.244 34.583 58.349 57.078 99.117 57.078 67.597 0 122.395-61.83 122.395-138.101v-30.017c0-15.082-7.025-28.796-18.497-39.038z" fill="#df646e"/><path d="m280.267 471.235c0-7.72 0-229.438 0-238.949 0-5.037-3.477-13.671-10.214-18.052-4.248-2.059-9.015-3.214-14.052-3.214-17.82 0-32.266 14.446-32.266 32.266v228.949c0 5.538 1.397 10.75 3.856 15.304 4.338 6.177 17.705 10.473 24.411 10.473 15.461 0 28.265-12.313 28.265-26.777z" fill="#fff3bf"/><path d="m270.053 214.234c2.058 4.248 3.214 9.015 3.214 14.052v238.949c0 14.464-12.535 26.19-27.997 26.19-6.706 0-12.859-2.208-17.68-5.886 5.452 10.099 16.129 16.962 28.411 16.962 17.82 0 32.266-14.446 32.266-32.266 0-9.511 0-219.438 0-228.949 0-12.783-7.434-23.828-18.214-29.052z" fill="#ffe07d"/></g><g><path d="m256 512.001c-21.927 0-39.766-17.839-39.766-39.767v-228.948c0-21.927 17.839-39.766 39.766-39.766s39.767 17.839 39.767 39.766v82.796c44.65-18.745 75.128-67.767 75.128-122.562v-30.017c0-27.505-27.673-49.882-61.688-49.882-17.513 0-33.987 5.958-45.707 16.437v39.309c0 4.142-3.358 7.5-7.5 7.5s-7.5-3.358-7.5-7.5v-39.309c-11.72-10.479-28.193-16.437-45.707-16.437-34.015 0-61.688 22.377-61.688 49.882v30.017c0 23.109 5.383 45.816 15.567 65.666 9.833 19.165 23.898 35.294 40.675 46.646 3.431 2.321 4.33 6.984 2.009 10.415-2.321 3.43-6.983 4.331-10.415 2.009-18.861-12.762-34.635-30.82-45.616-52.222-11.265-21.96-17.22-47.034-17.22-72.514v-10.114c-20.934-26.737-31.546-63.313-31.546-108.757 0-23.13 5.568-43.173 16.103-57.961 12.437-17.459 31.31-26.688 54.58-26.688 22.132 0 39.035 4.544 53.949 8.553 12.871 3.46 23.986 6.448 36.81 6.448 12.822 0 23.936-2.988 36.806-6.448 14.912-4.009 31.815-8.553 53.947-8.553 23.271 0 42.146 9.228 54.584 26.687 10.536 14.789 16.104 34.832 16.104 57.962 0 4.142-3.358 7.5-7.5 7.5s-7.5-3.358-7.5-7.5c0-10.498-1.656-36.256-16.547-53.333v5.796c0 9.88-6.604 18.745-16.059 21.559-21.188 6.304-64.15 16.88-113.836 16.88-17.918 0-36.621-1.402-55.586-4.167-4.099-.598-6.937-4.405-6.339-8.503s4.399-6.941 8.503-6.339c18.251 2.661 36.226 4.01 53.422 4.01 47.785 0 89.152-10.186 109.558-16.257 3.143-.935 5.337-3.888 5.337-7.182v-17.174c-6.589-3.099-14.544-4.939-24.141-4.939-20.151 0-35.352 4.087-50.053 8.039-13.318 3.581-25.897 6.962-40.7 6.962-14.805 0-27.385-3.382-40.705-6.962-14.701-3.952-29.903-8.039-50.054-8.039-9.596 0-17.548 1.839-24.137 4.938v17.174c0 3.293 2.195 6.247 5.337 7.182 8.065 2.399 16.679 4.626 25.601 6.618 4.042.902 6.588 4.911 5.686 8.954s-4.908 6.59-8.954 5.686c-9.26-2.067-18.213-4.382-26.611-6.88-9.456-2.813-16.06-11.679-16.06-21.559v-5.797c-14.89 17.076-16.546 42.835-16.546 53.333 0 32.495 5.708 59.879 17.004 81.741 4.201-32.441 36.787-57.77 76.231-57.77 19.985 0 38.983 6.536 53.207 18.125 14.224-11.589 33.222-18.125 53.207-18.125 39.439 0 72.021 25.32 76.229 57.755 7.496-14.523 12.549-31.504 15.081-50.743.54-4.106 4.305-6.999 8.415-6.458 4.106.541 6.998 4.308 6.458 8.415-4.004 30.433-13.924 55.926-29.493 75.815v10.114c0 32.155-9.158 62.634-26.484 88.144-16.062 23.647-38.541 41.455-63.644 50.509v130.062c-.002 21.929-17.842 39.768-39.769 39.768zm0-293.481c-13.656 0-24.766 11.11-24.766 24.766v228.949c0 13.656 11.11 24.767 24.766 24.767s24.767-11.11 24.767-24.767v-228.949c0-13.657-11.111-24.766-24.767-24.766z"/></g></g></svg>