<svg id="Capa_1" enable-background="new 0 0 512.035 512.035" height="512" viewBox="0 0 512.035 512.035" width="512" xmlns="http://www.w3.org/2000/svg"><g><g><path d="m259.028 341.772-126.847-126.847-3.38 3.38c-13.543 13.543-19.025 33.301-14.002 51.782 5.202 19.14 14.779 36.474 27.582 50.878 16.052 16.052 37.738 28.379 56.877 33.581 17.547 4.77 46.333-.697 59.77-12.774z" fill="#94d8e6"/><path d="m242.935 336.532c-13.436 12.078-32.13 16.784-49.677 12.014-19.139-5.202-36.474-14.779-50.877-27.581 16.127 18.144 37.375 31.635 61.484 38.188 18.482 5.023 38.24-.459 51.782-14.001l3.38-3.38z" fill="#6bbdd5"/><path d="m459.429 289.705c-7.002 7.002-16.312 10.858-26.214 10.858s-19.212-3.856-26.214-10.858c-1.814-1.814-3.4-3.771-4.759-5.835-13.518-13.518-14.303-37.746.152-52.201l77.781-77.781c12.668-12.669 19.646-29.512 19.646-47.428 0-15.387-5.638-31.814-20.638-46.814-26.309-21.024-64.895-19.368-89.256 4.994l-32.816 32.815 10.607 10.607 38.816-27.817c14.455-14.454 40.897-9.455 51.2.848 2.064 1.359 4.021 2.944 5.835 4.758 7.002 7.002 10.858 16.312 10.858 26.214 0 9.903-3.857 19.212-10.858 26.215l-77.781 77.781c-12.668 12.669-19.646 29.512-19.646 47.427 0 15.387 5.159 29.974 14.638 41.814 14.21 14.21 33.005 19.621 47.829 19.621 17.176 0 34.351-6.538 47.428-19.614l28.482-39.482.016-21.23z" fill="#dcf2f6"/><path d="m493.82 101.461c0-15.387-5.16-29.974-14.638-41.814 1.934 1.546 3.808 3.202 5.599 4.993 12.668 12.668 19.646 29.512 19.646 47.427 0 17.916-6.977 34.759-19.646 47.428l-77.781 77.781c-12.641 12.64-14.226 32.213-4.759 46.594-2.082-1.375-4.043-2.966-5.848-4.771-14.455-14.455-14.455-37.975 0-52.429l77.781-77.781c12.669-12.669 19.646-29.512 19.646-47.428zm-71.211 218.464c-14.824 0-29.641-4.882-41.829-14.621 1.558 1.946 3.22 3.826 5.008 5.614 13.076 13.076 30.252 19.614 47.427 19.614s34.352-6.538 47.428-19.614l23.86-23.859.016-21.229-34.482 34.482c-13.077 13.075-30.253 19.613-47.428 19.613zm-22.076-244.679-32.816 32.817 10.606 10.607 32.816-32.817c12.641-12.64 32.213-14.226 46.594-4.758-1.375-2.082-2.966-4.043-4.771-5.848-14.455-14.455-37.974-14.455-52.429-.001z" fill="#bae6ef"/><path d="m302.877 88.507c-9.637 9.637-12.992 12.485-35.685 34.588-5.594 5.448-12.305 9.616-19.67 12.213l-43.651 15.39c-7.589 2.676-14.481 7.018-20.171 12.708l-51.519 51.519c15.088 55.513 57.301 101.334 110.754 121.607 0 0 56.353-46.234 62.028-51.909s10.01-12.547 12.687-20.114l15.322-43.303c2.677-7.566 7.012-14.439 12.687-20.114l34.902-34.902c20.703-20.703 22.936-57.054 6.156-77.128-22.952-23.554-60.656-23.74-83.84-.555z" fill="#eef9fa"/><path d="m259.028 341.772 51.542-51.542c5.675-5.675 10.01-12.548 12.687-20.114l15.322-43.303c2.677-7.566 7.012-14.439 12.687-20.114l34.902-34.902c22.888-22.888 23.138-59.552.549-82.734 12.311 16.859 9.547 51.425-11.156 72.128l-34.902 34.902c-5.675 5.675-10.01 12.547-12.687 20.114l-15.322 43.303c-2.677 7.566-7.012 14.438-12.687 20.114l-54.922 54.922c-.685.685-1.39 1.344-2.106 1.987 5.262 1.995 10.628 3.753 16.093 5.239z" fill="#dcf2f6"/></g><g><path d="m146.186 474.508c-.651 0-1.313-.085-1.972-.265-19.021-5.17-37.185-13.073-53.985-23.488-3.521-2.183-4.605-6.806-2.422-10.327 2.183-3.52 6.805-4.605 10.327-2.422 15.566 9.651 32.394 16.973 50.015 21.763 3.997 1.086 6.356 5.208 5.27 9.205-.907 3.338-3.932 5.534-7.233 5.534zm8.804-40.807c-.651 0-1.313-.085-1.972-.265-54.294-14.756-97.19-57.652-111.946-111.946-1.086-3.998 1.273-8.118 5.27-9.205 4-1.088 8.119 1.273 9.205 5.27 13.368 49.182 52.224 88.039 101.406 101.406 3.997 1.086 6.356 5.208 5.27 9.205-.908 3.339-3.933 5.535-7.233 5.535zm-86.534-.806c-1.747 0-3.502-.607-4.923-1.844-30.755-26.784-52.633-61.626-63.269-100.757-1.086-3.998 1.273-8.118 5.27-9.205 4-1.086 8.119 1.273 9.205 5.271 9.855 36.26 30.134 68.55 58.646 93.38 3.124 2.72 3.45 7.458.73 10.582-1.483 1.702-3.566 2.573-5.659 2.573zm99.03-36.308c-.651 0-1.313-.085-1.972-.265-42.355-11.512-75.817-44.974-87.329-87.329-1.086-3.998 1.273-8.118 5.27-9.205 4-1.088 8.119 1.273 9.205 5.27 10.123 37.243 39.546 66.667 76.789 76.789 3.997 1.086 6.356 5.207 5.27 9.205-.907 3.339-3.932 5.535-7.233 5.535zm50.103-28.107c-5.247 0-10.521-.685-15.691-2.09-45.753-12.436-81.9-48.583-94.336-94.336-5.684-20.912.422-43.54 15.936-59.053l32.9-32.9c2.929-2.929 7.678-2.929 10.606 0 2.929 2.929 2.929 7.678 0 10.606l-26.399 26.399c8.126 27.085 23.191 52.145 43.7 72.637 20.477 20.461 45.498 35.491 72.54 43.603l48.422-48.422c4.854-4.854 8.63-10.841 10.919-17.312l15.323-43.303c3.031-8.566 8.029-16.491 14.455-22.916 2.929-2.928 7.677-2.928 10.607 0 2.929 2.929 2.928 7.678 0 10.607-4.854 4.854-8.63 10.84-10.92 17.312l-15.322 43.303c-3.03 8.565-8.028 16.489-14.454 22.915l-54.922 54.922c-11.68 11.681-27.391 18.028-43.364 18.028zm-88.638-138.751c-7.836 11.119-10.494 25.217-6.914 38.391 11.046 40.641 43.155 72.75 83.796 83.795 13.172 3.58 27.271.923 38.391-6.914-26.217-9.262-50.402-24.542-70.521-44.646-20.155-20.138-35.474-44.361-44.752-70.626zm304.264 108.303c-19.939 0-38.666-7.746-52.73-21.811-14.085-14.085-21.842-32.812-21.842-52.731 0-19.918 7.757-38.646 21.842-52.73l77.781-77.781c5.585-5.586 8.662-13.013 8.662-20.912s-3.076-15.325-8.662-20.911c-11.53-11.529-30.292-11.528-41.822 0l-11.44 11.44c3.989 8.689 6.059 18.199 5.993 27.995-.118 17.519-7.052 34.036-19.525 46.509l-12.901 12.902c-2.929 2.929-7.678 2.93-10.606 0-2.929-2.929-2.929-7.677 0-10.606l12.901-12.902c20.116-20.116 20.328-51.829.481-72.197-9.677-9.931-22.635-15.45-36.488-15.54-.114 0-.229-.001-.343-.001-13.728 0-26.619 5.337-36.334 15.053-5.045 5.045-8.442 8.302-13.583 13.232-4.747 4.552-11.248 10.785-22.172 21.425-6.329 6.165-14.077 10.976-22.408 13.914l-43.652 15.39c-6.491 2.289-12.495 6.071-17.361 10.938-2.929 2.929-7.678 2.929-10.606 0-2.929-2.929-2.929-7.678 0-10.606 6.441-6.442 14.388-11.448 22.98-14.478l43.652-15.39c6.294-2.219 12.148-5.854 16.93-10.512 10.966-10.681 17.492-16.938 22.256-21.507 5.073-4.865 8.425-8.079 13.359-13.012 12.55-12.55 29.205-19.447 46.938-19.447.148 0 .295 0 .444.001 10.086.065 19.805 2.358 28.604 6.643l11.064-11.063c14.065-14.065 32.792-21.811 52.731-21.811s38.666 7.746 52.73 21.811c14.085 14.085 21.842 32.812 21.842 52.73 0 19.919-7.757 38.646-21.842 52.731l-77.781 77.781c-11.53 11.53-11.53 30.292 0 41.823 5.585 5.585 13.012 8.661 20.911 8.661s15.326-3.076 20.911-8.661c2.929-2.929 7.678-2.929 10.606 0 2.929 2.929 2.929 7.678 0 10.606-8.418 8.418-19.611 13.055-31.518 13.055s-23.099-4.636-31.518-13.055c-17.379-17.379-17.379-45.657 0-63.036l77.781-77.781c11.252-11.252 17.449-26.212 17.449-42.125s-6.197-30.872-17.449-42.124c-11.231-11.231-26.191-17.417-42.124-17.417s-30.893 6.186-42.125 17.417l-8.744 8.744c1.948 1.595 3.819 3.31 5.603 5.142 1.74 1.786 3.369 3.651 4.881 5.587l8.866-8.866c17.379-17.378 45.656-17.377 63.035 0 8.419 8.42 13.055 19.613 13.055 31.518s-4.636 23.099-13.055 31.518l-77.781 77.781c-11.252 11.252-17.449 26.212-17.449 42.124s6.197 30.873 17.449 42.125c11.231 11.231 26.191 17.417 42.124 17.417s30.893-6.186 42.125-17.417l23.859-23.859c2.929-2.929 7.678-2.929 10.606 0 2.929 2.929 2.929 7.678 0 10.606l-23.859 23.859c-14.065 14.065-32.792 21.811-52.731 21.811zm48.215-62.827c-1.919 0-3.839-.732-5.303-2.197-2.929-2.929-2.929-7.678 0-10.606l23.105-23.105c2.929-2.929 7.678-2.929 10.606 0 2.929 2.929 2.929 7.678 0 10.606l-23.105 23.105c-1.465 1.465-3.384 2.197-5.303 2.197z"/></g></g></svg>