<svg id="Capa_1" enable-background="new 0 0 512 512" height="512" viewBox="0 0 512 512" width="512" xmlns="http://www.w3.org/2000/svg"><g><g><path d="m398.063 220.394c0-50.878-26.752-95.501-66.951-120.593 16.617 18.128 26.762 42.287 26.762 68.817 0 56.264-45.611 101.875-101.875 101.875-53.555 0-97.455-41.325-101.559-93.826-15.671 14.407-23.597 36.977-23.597 57.728 0 65.524 43.568 121.91 122.029 128.024 1.04.022 2.082.04 3.127.04 78.46-.002 142.064-63.606 142.064-142.065z" fill="#87a0af"/><path d="m140.844 234.394c0-20.751 4.901-40.354 13.597-57.728-.208-2.656-.316-5.339-.316-8.048 0-26.53 10.144-50.689 26.762-68.817-40.199 25.092-66.951 69.714-66.951 120.593 0 77.414 61.922 140.36 138.936 142.024-63.233-8.379-112.028-62.5-112.028-128.024z" fill="#607882"/><path d="m158.798 305.435c-26.543-26.543-37.078-59.662-37.078-96.456 0-67.856 55.008-122.864 122.864-122.864 36.833 0 69.34 9.952 96.542 37.153 26.987 23.672 44.03 58.407 44.03 97.126 0 32.549-12.045 62.282-31.914 84.996 8.652-2.579 29.34 76.363 29.34 76.363 43.256-38.967 80.312-92.03 80.312-167.359 0-55.736-19.924-107.851-62.484-150.41-37.949-35.055-88.674-56.484-144.41-56.484-117.578 0-212.894 95.316-212.894 212.894 0 80.145 44.293 149.934 109.729 186.255 0 0 28.901-80.296 22.813-85.14s-11.729-10.225-16.85-16.074z" fill="#eef9fa"/><path d="m400.41 63.984c35.055 37.949 56.484 88.674 56.484 144.41 0 62.804-27.201 119.249-70.457 158.216l-13.428-50.114h.012c-2.202-8.439-11.127-13.685-19.779-11.107-23.675 27.063-58.46 44.161-97.242 44.161-30.375 0-58.297-10.491-80.352-28.041l-22.813 85.14c30.563 16.965 65.732 26.639 103.166 26.639 117.578 0 212.894-95.316 212.894-212.894-.001-61.842-26.378-117.515-68.485-156.41z" fill="#dcf2f6"/><path d="m332.661 290.943c-16.823 6.956-42.902 14.54-76.661 14.549s-59.842-7.56-76.669-14.507c-9.1-3.757-18.983 1.588-21.34 10.511l-32.526 121.389s51.072 20.034 130.983 20.034 130.151-19.966 130.151-19.966l-46.852-133.186c-2.319-.152-4.728.201-7.086 1.176z" fill="#ffc250"/><path d="m354.009 301.497h.012c-1.732-6.638-7.627-11.295-14.274-11.73l35.666 133.119h11.122z" fill="#e69824"/><path d="m358.151 408.884c-22.418 9.262-57.17 19.358-102.151 19.358s-79.733-10.096-102.151-19.358c-13.885-5.737-29.14 4.431-29.14 19.454v46.162l254.582 7v-58.615c0-5.218-3.223-10.454-7.678-14.909-4.248-1.134-8.926-.966-13.462.908z" fill="#ffe07d"/><path d="m372.291 474.5 7 7 8-7v-46.162c0-10.116-6.92-18.021-15.678-20.361.441 1.698.678 3.492.678 5.361z" fill="#ffc250"/><path d="m256 91.238c32.612 0 62.396 12.092 85.126 32.03-23.672-26.988-58.407-44.03-97.126-44.03-71.331 0-129.156 57.825-129.156 129.156 0 38.679 17.015 73.371 43.954 97.041-19.893-22.72-31.954-52.47-31.954-85.041 0-71.331 57.825-129.156 129.156-129.156z" fill="#dcf2f6"/><path d="m379.291 488.5-7-14h-247.582v8.934c0 2.11.319 4.144.896 6.066l245.686 7c4.418 0 8-3.582 8-8z" fill="#eef9fa"/><path d="m372.291 474.5v7c0 4.418-3.582 8-8 8h-238.686c2.606 8.676 10.645 15 20.17 15h220.451c11.634 0 21.066-9.431 21.066-21.066v-8.934z" fill="#dcf2f6"/></g><g><path d="m366.226 512h-220.452c-15.751 0-28.565-12.814-28.565-28.565v-55.097c0-2.467.325-4.947.966-7.371l6.351-23.672c-26.469-19.714-48.473-45.43-63.781-74.588-16.445-31.323-25.138-66.702-25.138-102.312 0-48.801 15.624-95.039 45.183-133.714 2.515-3.291 7.22-3.92 10.514-1.405 3.291 2.515 3.92 7.222 1.404 10.513-27.542 36.038-42.101 79.125-42.101 124.606 0 33.191 8.098 66.159 23.419 95.339 13.344 25.416 32.145 48.026 54.707 65.881l20.4-76.042c-19.233-24.114-29.789-54.234-29.789-85.179 0-75.353 61.304-136.656 136.656-136.656s136.656 61.304 136.656 136.656c0 30.941-10.555 61.06-29.784 85.173l30.953 115.421c.646 2.476.966 4.931.966 7.35v55.097c0 15.751-12.814 28.565-28.565 28.565zm-5.236-96.185c-22.002 9.09-58.08 19.926-105.016 19.926s-83.014-10.836-105.016-19.926m.001 0 .02-.048c-1.596-.658-3.345-1.021-5.178-1.021-7.506 0-13.591 6.085-13.591 13.591v38.663h53.176c4.143 0 7.5 3.358 7.5 7.5s-3.357 7.5-7.5 7.5h-53.176v1.435c0 7.48 6.085 13.565 13.565 13.565h220.451c7.48 0 13.565-6.085 13.565-13.565v-1.435h-164.406c-4.143 0-7.5-3.358-7.5-7.5s3.357-7.5 7.5-7.5h164.406v-38.663c0-7.506-6.137-13.591-13.643-13.591-1.833 0-3.582.363-5.178 1.021l.02.048m-215.331-16.073c3.678 0 7.421.714 11.044 2.21 20.746 8.571 54.812 18.789 99.287 18.789s78.541-10.218 99.287-18.789c5.734-2.368 11.855-2.749 17.536-1.404l-26.042-97.108c-.609-2.334-2.196-4.264-4.366-5.344-2.17-1.079-4.61-1.158-6.879-.221-14.533 6.009-30.304 10.297-46.873 12.746-4.097.6-7.911-2.225-8.516-6.323-.606-4.097 2.225-7.91 6.322-8.516 15.355-2.269 29.936-6.229 43.336-11.77 6.239-2.579 13.271-2.341 19.292.654 2.606 1.297 4.915 3.046 6.833 5.135 14.081-20.275 21.735-44.541 21.735-69.407 0-19.092-4.421-37.171-12.292-53.267.007.496.01.994.01 1.491 0 60.31-49.065 109.375-109.374 109.375s-109.374-49.065-109.374-109.375c0-.498.003-.994.01-1.491-7.871 16.096-12.292 34.175-12.292 53.267 0 24.874 7.661 49.15 21.751 69.429 1.92-2.083 4.23-3.829 6.838-5.123 6.014-2.982 13.032-3.218 19.261-.647 15.406 6.36 40.704 13.939 73.745 13.939h.06c4.142-.001 7.501 3.356 7.502 7.498.001 4.162-3.38 7.485-7.562 7.502-35.502 0-62.808-8.196-79.47-15.074-2.261-.934-4.701-.857-6.869.219-2.168 1.075-3.756 2.998-4.357 5.274l-26.043 97.075c2.103-.491 4.27-.744 6.46-.744zm21.12-261.969c-3.42 9.893-5.153 20.264-5.153 30.845 0 52.038 42.336 94.375 94.374 94.375s94.374-42.336 94.374-94.375c0-10.582-1.733-20.953-5.153-30.845-22.236-23.994-54.006-39.035-89.221-39.035s-66.985 15.041-89.221 39.035zm-99.279 344.227h-60c-4.143 0-7.5-3.358-7.5-7.5s3.357-7.5 7.5-7.5h60c4.143 0 7.5 3.358 7.5 7.5s-3.357 7.5-7.5 7.5zm335.233-99.854c-1.981 0-3.96-.781-5.435-2.33-2.855-3-2.737-7.748.264-10.603 19.959-18.992 35.659-41.36 46.665-66.482 11.391-26.002 17.166-53.704 17.166-82.336.001-113.255-92.138-205.395-205.393-205.395-53.781 0-104.629 20.644-143.177 58.128-2.97 2.888-7.718 2.821-10.605-.148s-2.821-7.718.148-10.605c41.363-40.223 95.925-62.375 153.634-62.375 58.869 0 114.215 22.925 155.842 64.552s64.552 96.973 64.552 155.842c0 30.716-6.2 60.443-18.427 88.355-11.81 26.958-28.653 50.957-50.064 71.33-1.452 1.381-3.312 2.067-5.17 2.067zm-146.733-147.401c-22.902 0-45.804-8.717-63.239-26.152-2.929-2.929-2.929-7.678 0-10.606 2.928-2.928 7.676-2.93 10.607 0 29.021 29.021 76.242 29.021 105.264 0 2.931-2.929 7.679-2.928 10.607 0 2.929 2.929 2.929 7.678 0 10.606-17.435 17.435-40.337 26.152-63.239 26.152zm0-49.002c-16.513 0-32.036-6.43-43.713-18.106-2.929-2.929-2.929-7.678 0-10.606 2.928-2.929 7.676-2.93 10.607 0 8.843 8.843 20.6 13.713 33.105 13.713s24.263-4.87 33.105-13.713c2.931-2.929 7.679-2.928 10.607 0 2.929 2.929 2.929 7.678 0 10.606-11.675 11.676-27.198 18.106-43.711 18.106zm0-47.701c-11.143 0-22.284-4.241-30.768-12.724-2.929-2.929-2.929-7.678 0-10.606 2.93-2.929 7.678-2.929 10.607 0 11.115 11.116 29.205 11.116 40.32 0 2.93-2.929 7.678-2.929 10.607 0s2.929 7.678 0 10.606c-8.482 8.482-19.623 12.724-30.766 12.724zm218.5-60.977c-4.143 0-7.5-3.358-7.5-7.5v-22.5h-22.5c-4.143 0-7.5-3.358-7.5-7.5s3.357-7.5 7.5-7.5h22.5v-22.5c0-4.142 3.357-7.5 7.5-7.5s7.5 3.358 7.5 7.5v22.5h22.5c4.143 0 7.5 3.358 7.5 7.5s-3.357 7.5-7.5 7.5h-22.5v22.5c0 4.143-3.357 7.5-7.5 7.5z"/></g></g></svg>