<svg id="Capa_1" enable-background="new 0 0 512 512" height="512" viewBox="0 0 512 512" width="512" xmlns="http://www.w3.org/2000/svg"><g><g><path d="m412.594 7.5h-75v482l82 7z" fill="#ffe07d"/><path d="m412.594 7.5v478.5c0 1.933-1.567 3.5-3.5 3.5h-71.5v15h90v-497z" fill="#ffc250"/><path d="m236.086 145.855-43.892-15.937s19.905-34.12 19.905-67.573c0-19.515-7.108-37.898-20.502-50.363-5.932-2.903-12.493-4.482-19.403-4.482-26.457 0-47.905 22.956-47.905 56.113s27.905 66.306 27.905 66.306l-47.469 16.184c-12.151 4.143-20.319 15.558-20.319 28.395v65.067c0 46.731 6.004 74.328 14.933 87.491l16.043 9.509c6.474 54.54 24.448 143.123 24.448 143.123l-5.515 9.812 64.637 7-6.531-16.812s25.615-93.663 30.749-146.421c15.143-1.922 24.676-32.169 24.676-98.97v-73.511c.001-5.486-4.492-11.094-11.76-14.931z" fill="#ebae9d"/><path d="m113.091 306.849c0 7.394.87 17.739 2.292 29.716h-.977c-5.492 0-10.639-2.982-15.067-9.509-.791-7.946-1.249-14.853-1.249-20.208 0-26.835 8.489-65.706 8.489-65.706v-51.318c0-5.671 4.597-10.268 10.268-10.268 2.614 0 4.732 2.119 4.732 4.732v56.853c.001.001-8.488 38.872-8.488 65.708zm65.65-184.132c-.954 1.227-1.193 2.866-.641 4.319.659 1.735 2.322 2.883 4.178 2.883h9.917s27.905-33.148 27.905-66.306c0-24.498-11.715-43.414-28.502-51.63 8.656 11.652 13.502 28.847 13.502 48.363 0 30.802-20.5 54.831-26.359 62.371zm57.345 23.138c2.662 4.544 4.761 9.445 4.761 14.932v73.511c0 52.696-4.793 76.516-14.25 85.052.363-4.741.565-8.964.565-12.501 0-26.835-7.896-65.706-7.896-65.706v-56.853c0-2.553-2.027-4.694-4.58-4.731-5.74-.083-10.42 4.545-10.42 10.266v51.318s7.896 38.871 7.896 65.706c0 38.888-23.984 159.143-26.524 171.765-.14.695-.025 1.415.322 2.033l2.496 4.441c1.109 1.974-.317 4.412-2.581 4.412h-51.559l-8.431 15h88.482l-13.945-24.812s17.974-88.583 24.448-143.123h.977c16.568 0 30-27.098 30-97v-65.511c0-12.621-7.898-23.892-19.761-28.199z" fill="#e09380"/></g><g><path d="m427.595 512h-343.19c-4.143 0-7.5-3.358-7.5-7.5s3.357-7.5 7.5-7.5h37.093l10.432-18.56c-3.031-15.122-16.994-85.763-23.269-135.079-26.069-6.652-31.755-59.225-31.755-103.796 0-4.142 3.357-7.5 7.5-7.5s7.5 3.358 7.5 7.5c0 32.071 2.814 56.374 8.366 72.236 1.28 3.659 3.392 8.725 6.266 12.423-.605-6.722-.947-12.619-.947-17.375 0-25.504 7.234-60.609 8.489-66.503v-56.056c0-4.142 3.357-7.5 7.5-7.5s7.5 3.358 7.5 7.5v56.854c0 .538-.058 1.074-.173 1.6-.083.381-8.316 38.408-8.316 64.106 0 39.841 26.325 170.038 26.592 171.348.357 1.764.069 3.598-.812 5.167l-7.666 13.635h23.922v-181.235c0-4.142 3.357-7.5 7.5-7.5s7.5 3.358 7.5 7.5v181.235h23.922l-7.665-13.637c-.882-1.569-1.17-3.402-.812-5.167.047-.228 4.681-23.101 10.013-52.292.744-4.075 4.647-6.774 8.726-6.03 4.074.744 6.774 4.651 6.03 8.726-4.287 23.473-8.128 42.89-9.517 49.838l10.432 18.562h111.339v-482h-121.373c11.7 11.484 18.878 28.705 18.878 48.613 0 25.415-14.597 50.176-23.326 62.712l34.372 12.48c14.775 5.364 24.702 19.53 24.702 35.249v65.511c0 44.571-5.688 97.144-31.757 103.796-1.795 14.083-4.374 31.112-7.726 51.001-.688 4.085-4.557 6.839-8.642 6.149-4.085-.688-6.838-4.557-6.149-8.642 6.927-41.111 10.589-70.511 10.589-85.021 0-25.783-7.669-63.832-7.746-64.213-.1-.492-.15-.992-.15-1.493v-56.854c0-4.142 3.357-7.5 7.5-7.5s7.5 3.358 7.5 7.5v56.11c1.135 5.728 7.896 40.919 7.896 66.449 0 4.588-.316 10.388-.946 17.374 2.873-3.697 4.984-8.763 6.265-12.421 5.552-15.862 8.366-40.165 8.366-72.236v-65.511c0-9.431-5.956-17.93-14.821-21.149l-43.892-15.937c-2.303-.836-4.053-2.745-4.686-5.112-.634-2.367-.07-4.894 1.508-6.768.257-.307 26.143-31.515 26.143-61.476 0-27.712-17.371-48.611-40.406-48.611s-40.405 20.899-40.405 48.613c0 29.961 25.886 61.169 26.147 61.48 1.59 1.896 2.145 4.456 1.479 6.838s-2.46 4.287-4.802 5.085l-47.469 16.184c-9.115 3.108-15.239 11.666-15.239 21.296v35.067c0 4.142-3.357 7.5-7.5 7.5s-7.5-3.358-7.5-7.5v-35.067c0-16.05 10.207-30.314 25.399-35.494l37.69-12.851c-8.743-12.589-23.207-37.241-23.207-62.541 0-19.908 7.178-37.128 18.878-48.613h-51.26c-4.143 0-7.5-3.358-7.5-7.5s3.357-7.5 7.5-7.5h343.189c4.143 0 7.5 3.358 7.5 7.5v358.701c0 4.142-3.357 7.5-7.5 7.5s-7.5-3.358-7.5-7.5v-351.198h-75v26.417h22.5c4.143 0 7.5 3.358 7.5 7.5s-3.357 7.5-7.5 7.5h-22.5v26.417h52.5c4.143 0 7.5 3.358 7.5 7.5s-3.357 7.5-7.5 7.5h-52.5v26.417h22.5c4.143 0 7.5 3.358 7.5 7.5s-3.357 7.5-7.5 7.5h-22.5v26.417h52.5c4.143 0 7.5 3.358 7.5 7.5s-3.357 7.5-7.5 7.5h-52.5v26.417h22.5c4.143 0 7.5 3.358 7.5 7.5s-3.357 7.5-7.5 7.5h-22.5v26.415h52.5c4.143 0 7.5 3.358 7.5 7.5s-3.357 7.5-7.5 7.5h-52.5v26.417h22.5c4.143 0 7.5 3.358 7.5 7.5s-3.357 7.5-7.5 7.5h-22.5v26.417h52.5c4.143 0 7.5 3.358 7.5 7.5s-3.357 7.5-7.5 7.5h-52.5v26.417h22.5c4.143 0 7.5 3.358 7.5 7.5s-3.357 7.5-7.5 7.5h-22.5v26.417h52.5c4.143 0 7.5 3.358 7.5 7.5s-3.357 7.5-7.5 7.5h-52.5v26.417h22.5c4.143 0 7.5 3.358 7.5 7.5s-3.357 7.5-7.5 7.5h-22.5v26.415h75v-100.799c0-4.142 3.357-7.5 7.5-7.5s7.5 3.358 7.5 7.5v108.299c.001 4.142-3.357 7.5-7.499 7.5z"/></g></g></svg>