<svg id="Capa_1" enable-background="new 0 0 512.031 512.031" height="512" viewBox="0 0 512.031 512.031" width="512" xmlns="http://www.w3.org/2000/svg"><g><g><path d="m152.486 496.515c35.238 0 67.763-9.71 113.694-49.761 18.162-15.836 21.252-28.128 3.867-60.448-30.504-50.624-74.098-69.812-117.561-69.812-41.552 0-94.723 20.648-142.264 85.724 32.905 69.361 100.711 94.297 142.264 94.297z" fill="#eef9fa"/><path d="m292.306 436.509c-6.199-19.379-13.716-36.024-22.259-50.202 9.222 17.144 9.124 42.12-3.867 53.448-45.932 40.051-78.456 49.761-113.694 49.761-41.552 0-94.723-22.219-142.264-87.296-3.601 4.929-3.601 11.642 0 16.571 47.541 65.076 100.712 85.724 142.264 85.724 35.238 0 70.831-9.71 118.843-49.761h7.581c9.478.001 16.284-9.216 13.396-18.245z" fill="#dcf2f6"/><path d="m225.496 389.505c0-18.761-4.097-36.158-23.475-55.536-13.552-10.923-30.775-17.475-49.535-17.475-43.636 0-79.01 35.374-79.01 79.01 0 18.761 6.552 35.984 17.474 49.536 17.935 17.935 36.775 23.475 55.536 23.475 43.636 0 79.01-35.374 79.01-79.01z" fill="#e09380"/><path d="m202.021 333.97c10.923 13.552 17.475 30.775 17.475 49.536 0 43.636-35.374 79.01-79.01 79.01-18.761 0-35.984-6.552-49.536-17.475 14.483 17.968 36.66 29.475 61.536 29.475 43.636 0 79.01-35.374 79.01-79.01 0-24.876-11.506-47.054-29.475-61.536z" fill="#b46e5a"/><path d="m137.486 395.505c0 1.515.229 2.975.647 4.353 4.057 4.057 7.839 5.647 9.353 5.647 8.284 0 15-6.716 15-15 0-1.515-.237-3.943-5.647-9.353-1.378-.418-2.839-.647-4.353-.647-8.284 0-15 6.716-15 15z" fill="#495959"/><path d="m142.486 400.505c-1.515 0-2.975-.229-4.353-.647 1.866 6.16 7.584 10.647 14.353 10.647 8.284 0 15-6.716 15-15 0-6.77-4.486-12.487-10.647-14.353.417 1.378.647 2.839.647 4.353 0 8.284-6.716 15-15 15z" fill="#3f4a4a"/><path d="m364.03 218.872c35.238 0 67.763-9.71 113.694-49.761 18.162-15.836 21.252-28.128 3.867-60.448-30.504-50.623-74.098-69.811-117.561-69.811-41.552 0-94.723 20.648-142.264 85.724 32.905 69.36 100.712 94.296 142.264 94.296z" fill="#dcf2f6"/><path d="m503.85 158.866c-6.199-19.379-13.716-36.024-22.259-50.202 9.222 17.144 9.124 42.12-3.867 53.448-45.932 40.051-78.456 49.761-113.694 49.761-41.552 0-94.723-22.219-142.264-87.296-3.601 4.929-3.601 11.642 0 16.571 47.541 65.076 100.712 85.724 142.264 85.724 35.238 0 70.831-9.71 118.843-49.761h7.581c9.478 0 16.284-9.217 13.396-18.245z" fill="#bae6ef"/><path d="m437.04 111.862c0-18.761-4.097-36.158-23.475-55.536-13.552-10.923-30.775-17.475-49.535-17.475-43.636 0-79.01 35.374-79.01 79.01 0 18.761 6.552 35.984 17.474 49.536 17.935 17.935 36.775 23.475 55.536 23.475 43.636 0 79.01-35.374 79.01-79.01z" fill="#b46e5a"/><path d="m413.565 56.326c10.923 13.552 17.475 30.775 17.475 49.536 0 43.636-35.374 79.01-79.01 79.01-18.761 0-35.984-6.552-49.536-17.475 14.483 17.968 36.66 29.475 61.536 29.475 43.636 0 79.01-35.374 79.01-79.01 0-24.875-11.506-47.053-29.475-61.536z" fill="#915041"/><path d="m328.758 117.862c0 6.923 2.003 13.375 5.449 18.823 8.708 8.708 17.9 11.449 24.823 11.449 19.48 0 35.272-15.792 35.272-35.272 0-6.923-3.35-16.725-11.448-24.823-5.448-3.446-11.9-5.449-18.824-5.449-19.48 0-35.272 15.792-35.272 35.272z" fill="#495959"/><path d="m353.03 142.134c-6.923 0-13.375-2.003-18.823-5.449 6.25 9.881 17.267 16.449 29.823 16.449 19.48 0 35.272-15.792 35.272-35.272 0-12.557-6.567-23.573-16.448-29.823 3.446 5.448 5.448 11.9 5.448 18.823 0 19.48-15.792 35.272-35.272 35.272z" fill="#3f4a4a"/><path d="m440.395 390.505c0-4.054-1.156-9.73-8.689-17.263-3.385-1.716-7.209-2.689-11.263-2.689-13.781 0-24.952 11.171-24.952 24.952 0 4.054.973 7.879 2.689 11.263 6.199 6.199 13.209 8.689 17.263 8.689 13.781 0 24.952-11.171 24.952-24.952z" fill="#fff3bf"/><path d="m431.706 373.242c1.716 3.384 2.689 7.209 2.689 11.263 0 13.781-11.171 24.952-24.952 24.952-4.054 0-7.879-.973-11.263-2.689 4.116 8.12 12.537 13.689 22.263 13.689 13.781 0 24.952-11.171 24.952-24.952 0-9.726-5.569-18.147-13.689-22.263z" fill="#ffe07d"/></g><g><path d="m152.485 512.015c-26.823 0-54.493-8.201-80.017-23.716-3.54-2.151-4.665-6.765-2.514-10.304 2.152-3.542 6.767-4.666 10.305-2.513 23.176 14.087 48.15 21.534 72.226 21.534 18.85 0 35.353-2.974 51.937-9.36 19.695-7.584 40.01-20.23 62.102-38.66 1.349-1.125 3.049-1.741 4.805-1.741h7.581c2.12 0 4.056-.984 5.309-2.701 1.231-1.687 1.575-3.786.944-5.76-12.798-40.007-32.015-70.145-57.118-89.576-1.626-1.258-3.273-2.47-4.942-3.635 10.007 14.113 15.895 31.344 15.895 49.922 0 11.676-2.289 23.007-6.803 33.677-1.613 3.815-6.018 5.599-9.829 3.985-3.815-1.614-5.6-6.015-3.985-9.83 3.728-8.81 5.617-18.174 5.617-27.832 0-39.431-32.079-71.51-71.511-71.51-39.431 0-71.51 32.079-71.51 71.51s32.079 71.51 71.51 71.51c19.101 0 37.059-7.438 50.565-20.945 2.93-2.93 7.678-2.929 10.607 0s2.929 7.678-.001 10.606c-16.34 16.34-38.064 25.338-61.172 25.338-47.702 0-86.51-38.808-86.51-86.51 0-19.35 6.387-37.238 17.162-51.665-30.451 17.885-53.24 44.16-66.86 62.803-1.688 2.31-1.688 5.413 0 7.722 12.946 17.724 26.97 32.907 41.679 45.128 3.186 2.647 3.623 7.375.976 10.562s-7.375 3.623-10.562.976c-15.658-13.01-30.531-29.097-44.205-47.816-5.554-7.601-5.554-17.817.001-25.419 22.649-31.004 48.169-54.363 75.848-69.429 23.283-12.673 48.344-19.371 72.472-19.371 39.926 0 112.109 16.269 146.964 125.229 2.106 6.587.971 13.576-3.116 19.174-4.109 5.628-10.46 8.856-17.424 8.856h-4.879c-53.299 43.798-91.329 49.761-121.547 49.761zm267.958-20.847c-4.143 0-7.5-3.358-7.5-7.5v-33.21c0-4.142 3.357-7.5 7.5-7.5s7.5 3.358 7.5 7.5v33.21c0 4.142-3.357 7.5-7.5 7.5zm76.344-44.08c-1.272 0-2.562-.324-3.743-1.006l-28.762-16.605c-3.587-2.071-4.816-6.658-2.745-10.245 2.07-3.587 6.655-4.817 10.245-2.745l28.762 16.605c3.587 2.071 4.816 6.658 2.745 10.245-1.388 2.405-3.91 3.751-6.502 3.751zm-152.688 0c-2.592 0-5.113-1.345-6.502-3.751-2.071-3.587-.842-8.174 2.745-10.245l28.762-16.605c3.585-2.071 8.175-.842 10.245 2.745 2.071 3.587.842 8.174-2.745 10.245l-28.762 16.605c-1.181.682-2.471 1.006-3.743 1.006zm76.344-19.131c-17.895 0-32.452-14.558-32.452-32.452s14.558-32.452 32.452-32.452 32.451 14.558 32.451 32.452-14.557 32.452-32.451 32.452zm0-49.904c-9.623 0-17.452 7.829-17.452 17.452s7.829 17.452 17.452 17.452 17.451-7.829 17.451-17.452-7.827-17.452-17.451-17.452zm-267.958 39.952c-12.406 0-22.5-10.093-22.5-22.5s10.094-22.5 22.5-22.5 22.5 10.093 22.5 22.5-10.093 22.5-22.5 22.5zm0-30c-4.136 0-7.5 3.365-7.5 7.5 0 4.136 3.364 7.5 7.5 7.5s7.5-3.364 7.5-7.5c0-4.135-3.364-7.5-7.5-7.5zm315.554-12.474c-2.592 0-5.113-1.345-6.502-3.751-2.071-3.587-.842-8.174 2.745-10.245l28.762-16.605c3.586-2.071 8.175-.842 10.245 2.745 2.071 3.587.842 8.174-2.745 10.245l-28.762 16.605c-1.18.682-2.47 1.006-3.743 1.006zm-95.192 0c-1.272 0-2.562-.324-3.743-1.006l-28.762-16.605c-3.587-2.071-4.816-6.658-2.745-10.245 2.07-3.587 6.656-4.817 10.245-2.745l28.762 16.605c3.587 2.071 4.816 6.658 2.745 10.245-1.389 2.405-3.91 3.751-6.502 3.751zm-79.863-20.858c-2.617 0-5.158-1.372-6.537-3.813-9.727-17.222-21.422-28.337-24.092-30.759-36.193-19.229-69.104-27.443-109.869-27.443-14.215 0-26.574 1.328-38.897 4.178-4.044.931-8.064-1.582-8.997-5.617-.934-4.036 1.581-8.063 5.616-8.997 13.462-3.113 26.896-4.563 42.278-4.563 43.691 0 78.896 8.861 117.72 29.629.477.255.924.561 1.334.912.635.542 15.68 13.528 27.968 35.284 2.037 3.606.765 8.182-2.842 10.219-1.166.658-2.433.97-3.682.97zm127.459-6.62c-4.143 0-7.5-3.358-7.5-7.5v-33.21c0-4.142 3.357-7.5 7.5-7.5s7.5 3.358 7.5 7.5v33.21c0 4.142-3.357 7.5-7.5 7.5zm-395.968-5.863c-2.228 0-4.433-.988-5.911-2.878-2.553-3.262-1.978-7.976 1.284-10.529 20.844-16.31 40.503-28.292 60.101-36.631 3.811-1.62 8.216.153 9.838 3.965s-.153 8.216-3.965 9.838c-18.376 7.819-36.932 19.15-56.729 34.642-1.373 1.073-3.002 1.593-4.618 1.593zm479.82-78.675h-496.774c-4.143 0-7.5-3.358-7.5-7.5s3.357-7.5 7.5-7.5h496.775c4.143 0 7.5 3.358 7.5 7.5s-3.358 7.5-7.501 7.5zm-140.266-29.143c-26.823 0-54.493-8.201-80.017-23.716-3.54-2.151-4.665-6.765-2.514-10.305s6.766-4.666 10.305-2.513c23.176 14.087 48.15 21.534 72.226 21.534 18.85 0 35.354-2.974 51.937-9.36 19.696-7.584 40.011-20.23 62.103-38.66 1.349-1.125 3.049-1.741 4.805-1.741h7.58c2.121 0 4.057-.984 5.31-2.701 1.231-1.687 1.575-3.786.943-5.759-12.798-40.008-32.015-70.146-57.118-89.577-1.626-1.259-3.273-2.47-4.942-3.636 10.007 14.113 15.895 31.345 15.895 49.923 0 11.675-2.288 23.005-6.802 33.676-1.613 3.816-6.015 5.599-9.829 3.986-3.814-1.614-5.6-6.014-3.985-9.829 3.727-8.812 5.616-18.176 5.616-27.833 0-39.431-32.08-71.51-71.511-71.51s-71.51 32.08-71.51 71.51 32.079 71.51 71.51 71.51c19.102 0 37.06-7.438 50.565-20.945 2.93-2.93 7.678-2.928 10.607 0 2.929 2.929 2.929 7.678 0 10.606-16.34 16.34-38.064 25.338-61.173 25.338-47.701 0-86.51-38.809-86.51-86.51 0-19.35 6.387-37.238 17.162-51.665-30.451 17.885-53.24 44.16-66.86 62.803-1.688 2.31-1.688 5.413 0 7.722 12.95 17.726 26.973 32.909 41.679 45.128 3.186 2.647 3.623 7.375.976 10.562s-7.375 3.623-10.562.976c-15.655-13.007-30.527-29.094-44.204-47.816-5.555-7.602-5.555-17.817 0-25.42 22.649-31.004 48.169-54.363 75.848-69.429 23.283-12.672 48.344-19.371 72.472-19.371 39.926 0 112.109 16.269 146.964 125.229 2.107 6.586.972 13.575-3.115 19.173-4.109 5.629-10.46 8.857-17.425 8.857h-4.878c-53.3 43.8-91.33 49.763-121.548 49.763zm0-73.738c-23.584 0-42.771-19.188-42.771-42.772s19.188-42.772 42.771-42.772c23.585 0 42.772 19.188 42.772 42.772s-19.187 42.772-42.772 42.772zm0-70.544c-15.313 0-27.771 12.458-27.771 27.772s12.458 27.772 27.771 27.772 27.772-12.458 27.772-27.772-12.458-27.772-27.772-27.772zm-238.645 60.213c-1.92 0-3.839-.732-5.304-2.197l-19.638-19.638-19.637 19.638c-2.931 2.93-7.679 2.928-10.607 0-2.929-2.929-2.929-7.678 0-10.606l19.638-19.638-19.638-19.638c-2.929-2.929-2.929-7.678 0-10.606 2.931-2.93 7.679-2.929 10.607 0l19.637 19.638 19.638-19.638c2.928-2.928 7.676-2.93 10.607 0 2.929 2.929 2.929 7.678 0 10.606l-19.638 19.638 19.638 19.638c2.929 2.929 2.929 7.678 0 10.606-1.464 1.465-3.384 2.197-5.303 2.197zm379.143-73.273c-2.617 0-5.158-1.372-6.537-3.813-9.727-17.221-21.421-28.337-24.091-30.759-36.193-19.23-69.104-27.443-109.87-27.443-14.215 0-26.574 1.328-38.897 4.178-4.042.931-8.063-1.582-8.997-5.617s1.581-8.063 5.616-8.997c13.462-3.113 26.896-4.563 42.278-4.563 43.691 0 78.897 8.861 117.721 29.629.477.255.924.561 1.334.912.635.542 15.679 13.528 27.967 35.284 2.037 3.606.765 8.182-2.842 10.219-1.165.657-2.433.97-3.682.97zm-268.507-12.483c-2.228 0-4.432-.988-5.911-2.878-2.553-3.262-1.978-7.976 1.284-10.529 20.84-16.308 40.498-28.29 60.1-36.63 3.811-1.623 8.215.152 9.838 3.964 1.622 3.811-.153 8.216-3.965 9.838-18.379 7.821-36.935 19.152-56.729 34.642-1.372 1.073-3.001 1.593-4.617 1.593z"/></g></g></svg>