<svg id="Capa_1" enable-background="new 0 0 512.081 512.081" height="512" viewBox="0 0 512.081 512.081" width="512" xmlns="http://www.w3.org/2000/svg"><g><g><path d="m139.58 401.006c45.039-45.041 87.054-23.842 146.98 19.37 36.593 26.387 73.432 53.671 115.225 53.671 21.563 0 39.835-5.397 55.082-20.644 32.928-32.928 32.378-81.785-4.994-119.158l-11.584-11.583-21.213 21.214 22.184 22.184c19.777 19.778 19.777 51.959 0 71.737-9.581 9.581-22.319 14.857-35.869 14.857-32.105 0-65.949-24.404-98.679-48.005-27.495-19.827-55.926-40.328-85.599-48.427-35.926-9.805-67.701-.262-97.141 29.178l-48.733 48.733 10.606 10.606z" fill="#e6989e"/><path d="m462.474 344.847-10.601-10.601c31.469 31.476 31.467 82.685-.006 114.158-15.247 15.247-33.519 20.644-55.082 20.644-41.794 0-76.633-29.285-113.225-55.671-59.926-43.212-103.941-62.411-148.98-17.37l-48.733 48.733 10.607 10.607 48.733-48.733c45.039-45.041 84.054-20.842 143.98 22.37 36.593 26.387 74.432 53.671 116.226 53.671 21.563 0 41.835-8.397 57.082-23.644 31.474-31.475 31.474-82.689-.001-114.164z" fill="#df646e"/><path d="m151.422 126.655c-7.346-5.491-13.378-6.225-17.092-2.51-6.421 6.421-8.608 17.997-8.608 17.997l5.802 21.214c.007-.001 20.739-8.439 27.158-14.858 3.715-3.716-1.76-16.343-7.26-21.843z" fill="#e6989e"/><path d="m157.289 131.788c-2.032-2.032-3.99-3.73-5.867-5.133 5.491 7.345 6.224 13.378 2.51 17.092-6.419 6.419-17.99 8.607-17.997 8.608l-4.411 11h15.411s11.576-2.187 17.997-8.608c4.663-4.664 2.343-12.973-7.643-22.959z" fill="#df646e"/><path d="m223.068 55.009c-5.491-7.346-6.225-13.378-2.51-17.092 6.421-6.421 17.997-8.608 17.997-8.608l21.214 5.802c-.001.007-8.439 20.739-14.858 27.158-3.715 3.714-16.343-1.76-21.843-7.26z" fill="#e6989e"/><path d="m228.201 60.875c-2.032-2.032-3.73-3.99-5.133-5.867 7.345 5.491 13.378 6.224 17.092 2.51 6.419-6.419 8.607-17.99 8.608-17.997l11-4.411v15.411s-2.187 11.576-8.608 17.997c-4.663 4.664-12.972 2.344-22.959-7.643z" fill="#df646e"/><path d="m335.677 314.345c-7.512 7.512-26.14 19.705-59.483 11.773-45.813-17.514-133.004-61.536-161.373-95.053-1.306-1.86-2.446-3.644-3.427-5.343-16.499-28.576-2.606-66.647 14.328-83.581l10.213 10.213c-15.358 34.913-10.213 48.713 6.426 65.277 16.535 19.581 66.444 57.236 193.316 96.714zm75.082-75.082c7.512-7.512 19.705-26.14 11.773-59.483-17.514-45.813-61.536-133.004-95.053-161.373-1.86-1.306-3.644-2.446-5.343-3.427-28.576-16.499-66.647-2.606-83.581 14.328l10.213 10.213c34.913-15.358 48.713-10.213 65.277 6.426 19.58 16.535 57.236 66.444 96.714 193.316z" fill="#eef9fa"/><path d="m135.935 152.354 11 11c-9.315 9.315-17.88 32.958-9.56 47.368 1.123 1.945 2.752 4.263 4.986 6.908-8.555-7.49-13.502-13.606-15.986-17.908-8.32-14.409.245-38.052 9.56-47.368zm160.201-122.392c-14.408-8.321-38.053.245-47.369 9.561l11 11c9.315-9.316 32.961-17.882 47.369-9.561 1.945 1.123 4.263 2.752 6.908 4.986-7.489-8.556-13.605-13.502-17.908-15.986zm13.4 293.011c-92.825-30.401-163.449-64.592-194.716-91.907 16.136 22.977 58.46 57.807 161.373 95.053 17.139 2.581 29.029 1.168 33.343-3.146zm112.996-143.193c-37.246-102.913-72.076-145.237-95.053-161.373 27.315 31.267 61.506 101.891 91.907 194.716 4.315-4.315 5.727-16.205 3.146-33.343z" fill="#dcf2f6"/><path d="m122.356 447.406c0-11.325-5.165-25.515-14.913-35.262-8.477-6.228-18.937-9.913-30.262-9.913-28.263 0-51.175 22.912-51.175 51.175 0 11.325 3.685 21.786 9.913 30.262 10.125 10.125 23.937 14.913 35.262 14.913 28.263 0 51.175-22.912 51.175-51.175z" fill="#eef9fa"/><path d="m107.443 412.144c6.228 8.477 9.913 18.937 9.913 30.262 0 28.264-22.912 51.176-51.175 51.176-11.325 0-21.785-3.686-30.262-9.913 9.314 12.679 24.324 20.913 41.262 20.913 28.263 0 51.175-22.912 51.175-51.176 0-16.938-8.235-31.948-20.913-41.262z" fill="#dcf2f6"/><path d="m448.837 281.565c-8.285-30.543-21.938-45.502-29.451-68.441-2.007 9.021-4.918 17.769-8.627 26.14 4.81 15.457 9.646 32.053 14.481 49.873 3.546 13.073 1.079 25.071-6.77 32.92s-19.849 10.316-32.921 6.77c-17.82-4.834-34.416-9.671-49.873-14.48-8.371 3.71-17.119 6.621-26.14 8.627 22.939 7.513 37.898 21.165 68.441 29.451 46.126 12.511 83.373-24.735 70.86-70.86z" fill="#e6989e"/><path d="m454.192 281.282c-10.605-39.092-21.228-72.673-31.661-101.501.368 11.383-.746 22.557-3.146 33.343 7.513 22.939 14.795 47.229 21.683 72.621 10.403 38.348-20.563 69.314-58.911 58.911-25.393-6.888-49.683-14.171-72.622-21.683-10.786 2.399-21.96 3.514-33.343 3.146 28.828 10.433 62.409 21.056 101.501 31.661 49.798 13.508 90.008-26.702 76.499-76.498z" fill="#df646e"/></g><g><path d="m77.181 512.081c-32.354 0-58.676-26.322-58.676-58.675 0-32.354 26.322-58.676 58.676-58.676 7.933 0 15.5 1.582 22.409 4.447l19.081-19.081c2.929-2.929 7.678-2.929 10.606 0 2.929 2.929 2.929 7.678 0 10.606l-16.267 16.268c3.97 3.07 7.537 6.637 10.606 10.606l16.267-16.267c23.164-23.165 46.539-30.752 73.56-23.875 24.423 6.215 49.658 23.506 80.11 45.465 35.627 25.69 72.466 52.255 111.839 52.255 19.56 0 37.948-7.617 51.778-21.447 28.551-28.55 28.551-75.006 0-103.557l-7.19-7.19c-1.544 1.955-3.211 3.83-4.994 5.614-1.784 1.784-3.657 3.449-5.612 4.993l7.19 7.19c22.702 22.703 22.702 59.642.001 82.344-10.998 10.998-25.62 17.054-41.173 17.054-34.527 0-69.369-25.124-103.064-49.421-26.954-19.437-54.825-39.534-83.188-47.276-24.801-6.77-47.115-3.606-68.213 9.671-3.506 2.206-8.136 1.153-10.342-2.353s-1.153-8.136 2.353-10.342c24.506-15.422 51.473-19.274 80.152-11.447 30.984 8.458 59.975 29.362 88.011 49.579 31.765 22.905 64.608 46.588 94.292 46.588 11.546 0 22.401-4.496 30.566-12.66 16.853-16.854 16.853-44.277-.001-61.131l-9.745-9.745c-14.979 6.876-32.702 8.222-50.481 3.399-198.675-53.896-254.963-108.057-270.833-135.544-18.691-32.374-3.094-72.561 13.972-91.024 1.093-4.318 4.001-13.454 10.156-19.608 3.041-3.041 14.446-11.475 33.565 7.645 19.119 19.117 10.684 30.524 7.644 33.565-6.029 6.029-14.918 8.943-19.338 10.087-3.37 4.068-6.452 10.433-8.089 16.846-2.072 8.117-1.695 15.216 1.061 19.99 2.071 3.587.842 8.174-2.745 10.245-3.586 2.072-8.174.842-10.245-2.745-8.869-15.362-3.074-37.379 5.977-50.59l-10.723-10.723c-5.748 7.736-10.445 17.923-12.807 28.102-2.477 10.678-3.696 26.408 4.562 40.712 9.509 16.47 43.093 54.254 159.771 96.682 11.558.25 23.129-1.127 34.375-4.031-31.446-10.441-59.602-21.333-84.166-32.57-32.591-14.911-58.298-30.111-76.407-45.18-3.184-2.649-3.617-7.378-.968-10.562 2.65-3.185 7.378-3.617 10.562-.968 20.123 16.745 68.186 47.709 174.084 80.969 14.486-6.76 27.98-16.161 39.702-27.882 11.723-11.723 21.124-25.219 27.885-39.708-5.091-16.226-10.295-31.641-15.579-46.139-1.418-3.892.587-8.196 4.479-9.615 3.892-1.421 8.197.586 9.615 4.478 3.299 9.052 6.565 18.451 9.793 28.176 2.851-11.04 4.238-22.381 4.044-33.736-24.188-66.554-57.912-138.02-96.694-160.411-14.304-8.258-30.034-7.039-40.713-4.562-10.179 2.361-20.365 7.059-28.102 12.807l10.723 10.724c13.212-9.052 35.229-14.85 50.592-5.977 8.811 5.087 40.551 29.032 79.027 123.548 1.562 3.836-.282 8.212-4.118 9.774-3.837 1.561-8.214-.283-9.774-4.119-37.62-92.419-67.105-113.024-72.634-116.216-4.773-2.757-11.873-3.134-19.989-1.062-6.414 1.637-12.779 4.72-16.849 8.09-1.144 4.42-4.058 13.309-10.086 19.337-3.041 3.04-14.447 11.474-33.565-7.644-5.746-5.746-9.5-11.298-11.158-16.502-2.081-6.53-.8-12.75 3.515-17.064 6.154-6.154 15.289-9.062 19.608-10.155 18.463-17.067 58.651-32.663 91.024-13.973 27.487 15.87 81.648 72.158 135.544 270.833 4.823 17.78 3.479 35.501-3.398 50.479l9.745 9.746c34.399 34.4 34.399 90.372.001 124.77-16.664 16.664-38.819 25.841-62.386 25.841-44.217 0-83.054-28.005-120.612-55.088-28.14-20.292-53.209-37.541-75.036-43.095-21.671-5.515-39.946.637-59.254 19.945l-19.081 19.081c2.866 6.908 4.447 14.477 4.447 22.409 0 32.355-26.322 58.676-58.675 58.676zm0-102.351c-24.083 0-43.676 19.593-43.676 43.676s19.593 43.675 43.676 43.675 43.675-19.593 43.675-43.675c0-24.083-19.593-43.676-43.675-43.676zm234.102-79.501c20.576 6.716 43.288 13.506 68.376 20.312 21.065 5.716 41.014 1.132 54.721-12.574 13.707-13.707 18.29-33.652 12.574-54.721-4.774-17.601-11.676-41.607-20.378-68.081-1.889 8.33-4.521 16.521-7.854 24.467 4.696 15.206 9.291 31.083 13.756 47.541 4.27 15.739 1.097 30.386-8.704 40.187-9.803 9.803-24.451 12.974-40.188 8.705-16.509-4.479-32.365-9.066-47.544-13.754-8.042 3.372-16.327 6.024-24.759 7.918zm44.136-17.734c10.207 3.022 20.893 6.054 32.094 9.093 10.406 2.823 19.759 1.062 25.653-4.834 5.896-5.896 7.658-15.246 4.835-25.653-2.977-10.973-6.01-21.678-9.093-32.095-6.469 10.791-14.329 20.903-23.458 30.032-9.129 9.127-19.24 16.988-30.031 23.457zm-221.358-172.622 15.143 15.143c3.351-1.065 7.77-2.917 10.426-5.573.063-.063.081-.094.081-.095.227-.519-.205-4.738-7.724-12.257-7.517-7.518-11.74-7.952-12.258-7.724s-.032.018-.094.081c-2.655 2.653-4.508 7.069-5.574 10.425zm102.225-102.226c-3.351 1.065-7.77 2.917-10.425 5.573-.063.063-.081.095-.081.095-.226.519.208 4.741 7.724 12.257 7.517 7.518 11.74 7.954 12.258 7.724s.032-.018.094-.081c2.655-2.655 4.513-7.095 5.574-10.424z"/></g></g></svg>