<svg id="Capa_1" enable-background="new 0 0 512 512" height="512" viewBox="0 0 512 512" width="512" xmlns="http://www.w3.org/2000/svg"><g><g><path d="m383.293 429-7-421.5h-284.5c-4.142 0-7.5 3.358-7.5 7.5v414.5l291.5 7c4.142 0 7.5-3.358 7.5-7.5z" fill="#bae6ef"/><path d="m383.793 7.5h-7.5v414.5c0 4.142-3.358 7.5-7.5 7.5h-284.5v7.5c0 4.142 3.358 7.5 7.5 7.5h292c4.142 0 7.5-3.358 7.5-7.5v-422c0-4.142-3.358-7.5-7.5-7.5z" fill="#94d8e6"/><path d="m412.207 489-7-258.265-70-8.235-85 10v257l154.5 7c4.142 0 7.5-3.358 7.5-7.5z" fill="#ffe07d"/><path d="m405.207 230.735v251.265c0 4.142-3.358 7.5-7.5 7.5h-147.5c0 8.284 6.716 15 15 15h140c8.284 0 15-6.716 15-15v-45l-8-83.5 8-83.5v-45z" fill="#ffc250"/><path d="m405.207 277.5h-76.876v167h76.876l7-83.5z" fill="#eef9fa"/><path d="m405.207 277.5h15v167h-15z" fill="#dcf2f6"/><path d="m405.207 172.5h-140c-8.284 0-15 6.716-15 15v30l162 7z" fill="#eef9fa"/><path d="m405.207 172.5v41.5c0 1.933-1.567 3.5-3.5 3.5h-151.5v15h170v-45c0-8.284-6.716-15-15-15z" fill="#dcf2f6"/></g><g><path d="m405.207 512h-140c-12.407 0-22.5-10.094-22.5-22.5v-37.5h-150.914c-8.271 0-15-6.729-15-15v-343.459c0-4.143 3.358-7.5 7.5-7.5s7.5 3.357 7.5 7.5v343.459h150.914v-16.659c0-4.143 3.358-7.5 7.5-7.5s7.5 3.357 7.5 7.5v69.159c0 4.136 3.364 7.5 7.5 7.5h140c4.136 0 7.5-3.364 7.5-7.5v-37.5h-84.376c-4.142 0-7.5-3.357-7.5-7.5v-167c0-4.143 3.358-7.5 7.5-7.5h84.376v-30h-155v150.341c0 4.143-3.358 7.5-7.5 7.5s-7.5-3.357-7.5-7.5v-15.341h-114.591c-4.142 0-7.5-3.357-7.5-7.5s3.358-7.5 7.5-7.5h114.591v-30h-114.591c-4.142 0-7.5-3.357-7.5-7.5s3.358-7.5 7.5-7.5h114.591v-30h-48.611c-4.142 0-7.5-3.357-7.5-7.5s3.358-7.5 7.5-7.5h48.611v-30h-114.591c-4.142 0-7.5-3.357-7.5-7.5s3.358-7.5 7.5-7.5h114.591v-37.5c0-12.406 10.093-22.5 22.5-22.5h140c12.407 0 22.5 10.094 22.5 22.5v37.5c4.142 0 7.5 3.357 7.5 7.5s-3.358 7.5-7.5 7.5v249.5c0 12.406-10.093 22.5-22.5 22.5zm-69.376-75h76.876v-30h-40.376c-4.142 0-7.5-3.357-7.5-7.5s3.358-7.5 7.5-7.5h40.376v-23.5h-40.376c-4.142 0-7.5-3.357-7.5-7.5s3.358-7.5 7.5-7.5h40.376v-23.5h-40.376c-4.142 0-7.5-3.357-7.5-7.5s3.358-7.5 7.5-7.5h40.376v-30h-76.876zm-78.124-212h155v-37.5c0-4.136-3.364-7.5-7.5-7.5h-140c-4.136 0-7.5 3.364-7.5 7.5zm-93.611 60h-35.98c-4.142 0-7.5-3.357-7.5-7.5s3.358-7.5 7.5-7.5h35.98c4.142 0 7.5 3.357 7.5 7.5s-3.358 7.5-7.5 7.5zm41.727-104.999c-2.358 0-4.68-1.11-6.141-3.186l-23.615-33.57-23.652 33.574c-2.385 3.387-7.064 4.199-10.451 1.812-3.386-2.385-4.198-7.063-1.812-10.45l26.747-37.967-20.516-29.165c-3.011.011-6.601.028-9.62.045v30.365c0 4.143-3.358 7.5-7.5 7.5s-7.5-3.357-7.5-7.5v-78.959c0-4.143 3.358-7.5 7.5-7.5h21.008c16.091 0 29.182 12.57 29.182 28.021 0 11.146-6.812 20.792-16.648 25.303l13.271 18.864 19.701-27.966c2.385-3.387 7.064-4.197 10.451-1.812 3.386 2.386 4.198 7.064 1.812 10.451l-22.796 32.359 26.708 37.965c2.383 3.388 1.569 8.066-1.819 10.449-1.313.924-2.819 1.367-4.31 1.367zm-69.059-120.001v26.094c4.516-.025 10.283-.053 13.508-.053 7.688 0 14.182-5.963 14.182-13.021s-6.495-13.02-14.183-13.02zm254.529 90c-4.142 0-7.5-3.357-7.5-7.5v-127.5h-292v48.541c0 4.143-3.358 7.5-7.5 7.5s-7.5-3.357-7.5-7.5v-48.541c0-8.271 6.729-15 15-15h292c8.271 0 15 6.729 15 15v127.5c0 4.143-3.358 7.5-7.5 7.5z"/></g></g></svg>