<svg id="Capa_1" enable-background="new 0 0 512.008 512.008" height="512" viewBox="0 0 512.008 512.008" width="512" xmlns="http://www.w3.org/2000/svg"><g><g><path d="m474.504 489.5c-.275-18.242-6.956-36.704-18.169-51.299-6.112-4.637-12.898-8.311-20.236-10.684l-46.435-15.021h-267.32l-46.435 15.021c-26.665 8.625-46.155 34.245-51.761 61.984l231.856 5.008z" fill="#eef9fa"/><path d="m456.335 438.201c10.454 13.608 16.969 30.577 18.026 47.595.125 2.01-1.488 3.705-3.502 3.705h-97.905l23.534-47.569c3.815-7.711 2.854-17.071-2.45-23.847l-4.375-5.588-60.483-19.565h-146.353l-60.483 19.565-4.375 5.588c-5.303 6.775-6.265 16.136-2.45 23.847l23.534 47.569h-114.905c-1.003 4.961-1.568 9.989-1.644 15h140.706l92.794-9.992 92.794 9.992h140.706c-.382-25.323-13.098-51.072-33.169-66.3z" fill="#dcf2f6"/><path d="m318.798 332.449v31.6l10 114.61h-145.588l10-114.61v-31.6z" fill="#915041"/><path d="m215.139 381.021c-7.13-5.272-13.897-10.191-20.193-15.119 7.456 8.381 13.264 21.107 13.264 33.029v90.577h95.588s0-66.844 0-93.538c-12.253 6.408-21.593 8.08-32.794 8.08-17.232-.001-30.053-3.946-55.865-23.029z" fill="#b46e5a"/><path d="m133.628 186.067c0-11.206-11.825-18.469-21.82-13.402s-16.913 17.694-16.913 42.351 14.509 53.049 41.919 53.049h238.38c27.41 0 41.919-28.392 41.919-53.049s-6.918-37.284-16.913-42.351-21.82 2.195-21.82 13.402z" fill="#915041"/><path d="m370.38 108.55c0-39.332-6.525-58.497-29.228-77.832-22.028-14.008-52.051-23.218-85.148-23.218-67.587 0-122.376 38.393-122.376 77.662v23.388z" fill="#bae6ef"/><path d="m341.152 30.718c14.472 17.03 22.228 37.112 22.228 54.444 0 .698.056 4.864.107 8.472.036 2.545-2.56 4.255-4.9 3.255-19.601-8.384-51.317-15.389-102.583-15.389-74.373 0-107.594 14.741-122.376 27.05v30.382h244.752s0-50.847 0-53.77c0-20.039-14.273-39.847-37.228-54.444z" fill="#94d8e6"/><path d="m370.38 239.452-7-123.521c-16.848-11.057-49.698-19.43-107.376-19.43-94.537 0-122.376 22.494-122.376 42.432v100.519c0 64.865 27.964 83.068 66.512 111.569 25.811 19.084 38.633 23.029 55.865 23.029 0 0 22.053-3.945 47.865-23.029 38.546-28.501 66.51-46.704 66.51-111.569z" fill="#b46e5a"/><g fill="#915041"><path d="m363.38 115.93v123.521c0 64.865-27.964 83.068-66.512 111.569-25.811 19.084-40.865 23.029-40.865 23.029 17.232 0 30.053-3.945 55.865-23.029 38.548-28.501 66.512-46.704 66.512-111.569 0 0 0-55.938 0-100.519 0-7.773-4.233-15.935-15-23.002z"/><path d="m280.31 226.001-12.16-28.352c-4.368-10.184-19.925-10.184-24.292 0l-12.16 28.352c-3.376 7.871-.718 16.712 8.751 20.688s21.641 3.976 31.11 0 12.127-12.817 8.751-20.688z"/><path d="m256.004 276.956c-30.562 0-43.563 19.574-43.623 19.664 4.642 3.811 12.011 6.995 20.136 6.995h46.973c8.125 0 15.494-3.184 20.136-6.995-.059-.09-13.06-19.664-43.622-19.664z"/></g><path d="m303.798 430.192v59.315h-95.588s0-32.924 0-59.315l-47.876-29.985 32.876 104.293h125.588l32.876-104.293z" fill="#6bbdd5"/><path d="m303.798 489.508s0-31.078 0-59.315l-47.794 29.934-47.794-29.934v59.315z" fill="#94d8e6"/><path d="m303.798 408.021-47.794 52.105-6.678-2.644-3.499-8.451-37.617-41.01-10 19.495 10 24.886 17.262 18.819 7.339 3.553 2.838 7.543 6.596 7.191 13.759 5 13.759-5 34.035-37.106 10-24.697z" fill="#bae6ef"/><path d="m242.245 489.508h27.518l-13.759 15zm-59.803-109.58-22.108 20.279 47.876 52.195c0-16.076 0-33.633 0-44.381zm169.232 20.279-22.108-20.279-25.768 28.093v44.381zm-105.847 48.824-20.354 22.191 10.177 11.095 20.354-22.191z" fill="#94d8e6"/><path d="m193.21 504.5v-140.451c-8.766 0-17.046 4.033-22.45 10.936l-40.98 52.345c-1.779 2.272-2.096 5.363-.817 7.949l34.247 69.22h30z" fill="#eef9fa"/><path d="m348.798 504.5 34.247-69.22c1.28-2.586.962-5.677-.817-7.949l-40.98-52.345c-5.404-6.903-13.683-10.936-22.45-10.936v140.45z" fill="#eef9fa"/></g><g><path d="m256.004 512.008c-2.102 0-4.106-.882-5.527-2.431l-49.767-54.257v49.18c0 4.143-3.358 7.5-7.5 7.5s-7.5-3.357-7.5-7.5v-131.573c-3.523 1.343-6.654 3.629-9.043 6.682l-40.981 52.345 9.497 19.194c1.837 3.713.316 8.212-3.396 10.049-3.712 1.835-8.211.315-10.048-3.396l-9.497-19.194c-2.543-5.142-1.902-11.382 1.633-15.898l2.96-3.781-48.619 15.727c-27.016 8.738-47.743 38.815-48.213 69.961-.062 4.103-3.408 7.387-7.497 7.387-.039 0-.077 0-.116-.001-4.142-.062-7.448-3.471-7.386-7.612.571-37.88 25.214-73.209 58.595-84.006l69.763-22.567 21.492-27.451c5.271-6.735 12.649-11.292 20.854-13.029v-7.645c-26.432-19.626-48.015-37.652-56.126-74.697-27.431-4.433-42.189-33.612-42.189-59.976 0-25.469 7.073-41.968 21.021-49.04 5.606-2.842 11.959-3.207 17.711-1.15v-79.667c.002-45.367 60.692-85.162 129.879-85.162s129.876 39.795 129.876 85.162v79.663c5.751-2.057 12.104-1.692 17.711 1.15 13.949 7.072 21.021 23.571 21.021 49.04 0 26.364-14.755 55.546-42.189 59.976-8.111 37.046-29.694 55.071-56.126 74.697v7.645c8.205 1.737 15.583 6.294 20.855 13.029l21.492 27.451 39.883 12.901c3.941 1.274 6.103 5.503 4.828 9.444-1.275 3.94-5.501 6.103-9.444 4.827l-18.739-6.061 2.96 3.781c3.536 4.517 4.177 10.757 1.634 15.897l-34.247 69.222c-1.836 3.712-6.335 5.23-10.048 3.396-3.713-1.837-5.233-6.336-3.396-10.049l34.247-69.221-40.98-52.345c-2.39-3.053-5.521-5.339-9.044-6.682v131.577c0 4.143-3.358 7.5-7.5 7.5s-7.5-3.357-7.5-7.5v-49.18l-49.767 54.257c-1.421 1.549-3.426 2.431-5.527 2.431zm-10.177-29.692 10.177 11.096 55.294-60.282v-22.191zm-45.117-49.186 34.939 38.092 10.177-11.096-45.117-49.187v22.191zm0-44.382 55.293 60.283 55.294-60.283v-28.056c-24.757 17.522-38.373 20.857-55.294 20.857s-30.536-3.335-55.294-20.857v28.056zm-59.583-249.815v100.519c0 58.755 23.616 76.161 59.363 102.508l4.108 3.031c24.797 18.333 36.333 21.56 51.406 21.56s26.609-3.227 51.405-21.56l4.107-3.031c35.748-26.347 59.364-43.753 59.364-102.508v-100.519c0-16.114-30.086-34.933-114.876-34.933-17.411 0-33.263.784-47.114 2.33-4.124.455-7.827-2.506-8.286-6.622-.459-4.117 2.505-7.826 6.622-8.286 14.402-1.607 30.814-2.422 48.778-2.422 44.062 0 77.578 4.829 99.615 14.354 4.443 1.92 10.068 4.803 15.261 8.785v-26.977c0-33.12-49.128-70.162-114.876-70.162s-114.877 37.042-114.877 70.162v26.933c7.508-5.737 18.621-11.148 34.955-15.263 4.016-1.013 8.093 1.423 9.105 5.44s-1.424 8.093-5.441 9.104c-24.542 6.184-38.619 16.228-38.619 27.557zm244.753 47.133v53.385c0 6.964-.318 13.427-.93 19.456 16.073-5.778 24.663-25.693 24.663-43.892 0-13.307-2.222-30.296-12.805-35.661-3.387-1.718-6.262-.363-7.341.3-1.078.662-3.587 2.614-3.587 6.412zm-267.297-7.547c-1.023 0-2.17.221-3.383.836-10.583 5.365-12.805 22.354-12.805 35.661 0 18.198 8.59 38.113 24.663 43.892-.612-6.03-.93-12.492-.93-19.456v-53.385c0-3.799-2.508-5.75-3.587-6.412-.693-.426-2.125-1.136-3.958-1.136zm44.633 333.483c-2.763 0-5.42-1.532-6.728-4.176l-11.305-22.85c-1.837-3.713-.316-8.212 3.396-10.049 3.713-1.835 8.211-.315 10.048 3.396l11.305 22.85c1.837 3.713.316 8.212-3.396 10.049-1.069.529-2.203.78-3.32.78zm326.285-.002c-4.089 0-7.435-3.283-7.497-7.387-.47-31.146-21.197-61.223-48.213-69.961-3.941-1.274-6.103-5.503-4.828-9.444 1.275-3.94 5.503-6.103 9.444-4.827 33.381 10.797 58.024 46.126 58.595 84.006.062 4.142-3.244 7.55-7.386 7.612-.037.001-.076.001-.115.001zm-210.01-200.885h-46.974c-11.381 0-26.157-6.072-31.182-16.233-1.836-3.713-.315-8.212 3.398-10.048 2.559-1.266 5.492-.937 7.669.607 7.363-6.777 21.445-15.985 43.602-15.985 22.164 0 36.24 9.203 43.603 15.984 2.177-1.543 5.109-1.872 7.668-.606 3.713 1.836 5.234 6.335 3.398 10.048-5.026 10.161-19.801 16.233-31.182 16.233zm-54.972-16.318c2.396.798 5.105 1.318 7.998 1.318h46.974c2.894 0 5.605-.521 8-1.319-5.792-4.67-16.012-10.34-31.487-10.34-15.468 0-25.691 5.672-31.485 10.341zm31.485-37.608c-6.383 0-12.766-1.194-18.458-3.585-6.3-2.646-10.852-7.067-13.164-12.789-2.252-5.572-2.102-11.884.423-17.771l12.16-28.353c3.222-7.514 10.518-12.182 19.039-12.182s15.816 4.668 19.039 12.182l12.16 28.353c2.525 5.887 2.675 12.198.423 17.771-2.312 5.722-6.863 10.144-13.163 12.789-5.693 2.391-12.076 3.585-18.459 3.585zm0-59.678c-.921 0-4.022.223-5.253 3.094l-12.16 28.353c-.937 2.186-1.044 4.4-.301 6.239.781 1.932 2.532 3.515 5.063 4.578 7.568 3.177 17.736 3.177 25.303 0 2.531-1.063 4.282-2.646 5.063-4.578.743-1.839.636-4.054-.301-6.239l-12.161-28.353c-1.231-2.872-4.332-3.094-5.253-3.094zm48.308 7.594c-4.142 0-7.5-3.357-7.5-7.5v-16.757c0-4.143 3.358-7.5 7.5-7.5s7.5 3.357 7.5 7.5v16.757c0 4.143-3.357 7.5-7.5 7.5zm-96.617 0c-4.142 0-7.5-3.357-7.5-7.5v-16.757c0-4.143 3.358-7.5 7.5-7.5s7.5 3.357 7.5 7.5v16.757c0 4.143-3.358 7.5-7.5 7.5zm69.978-52.553c-2.337 0-4.64-1.09-6.104-3.135-2.411-3.368-1.636-8.053 1.732-10.464 10.942-7.834 24.999-12.148 39.582-12.148 17.482 0 30.435 7.001 35.192 10.011 3.5 2.214 4.543 6.848 2.329 10.348-2.215 3.5-6.848 4.541-10.348 2.328-7.608-4.812-17.766-7.687-27.173-7.687-11.311 0-22.556 3.406-30.85 9.344-1.323.947-2.848 1.403-4.36 1.403zm-43.339 0c-1.512 0-3.037-.456-4.36-1.403-8.294-5.938-19.539-9.344-30.85-9.344-9.407 0-19.565 2.873-27.173 7.687-3.5 2.216-8.134 1.172-10.348-2.328-2.215-3.5-1.172-8.133 2.328-10.348 4.757-3.01 17.709-10.011 35.192-10.011 14.583 0 28.64 4.314 39.582 12.148 3.368 2.411 4.143 7.096 1.732 10.464-1.462 2.045-3.766 3.135-6.103 3.135z"/></g></g></svg>