<svg id="Capa_1" enable-background="new 0 0 512.002 512.002" height="512" viewBox="0 0 512.002 512.002" width="512" xmlns="http://www.w3.org/2000/svg"><g><g><path d="m186.104 364.824-7.897-99.803h-56.033c-15.803 33.051-17.78 84.069-5.93 121.614l59.476-7.539c6.19-2.002 10.384-7.766 10.384-14.272z" fill="#ffe07d"/><path d="m178.207 265.021v95.596c0 3.549-2.288 6.694-5.665 7.786l-56.298 18.233c1.694 5.367 3.67 10.459 5.93 15.184h133.827v-136.799z" fill="#ffc250"/><path d="m182.824 392.931-49.18 15.927 122.358 61.268 123.135-61.035-49.957-16.16c-3.833-1.24-6.897-3.924-8.677-7.331l-127.294-20.776v13.835c-.002 6.506-4.195 12.27-10.385 14.272z" fill="#ebae9d"/><path d="m271.001 404.049c15.753 0 27.826-3.305 49.5-18.45-1.095-2.095-1.706-4.463-1.706-6.941v-46.21h-125.588v32.374c9.644 7.166 18.304 13.516 21.929 16.197 25.812 19.085 38.633 23.03 55.865 23.03z" fill="#e09380"/><path d="m133.625 186.067c0-11.206-11.825-18.469-21.82-13.402s-16.913 17.694-16.913 42.351 14.509 53.049 41.919 53.049h238.38c27.41 0 41.919-28.392 41.919-53.049s-6.918-37.284-16.913-42.351-21.82 2.195-21.82 13.402z" fill="#e09380"/><path d="m368.263 82.885s-6.162-21.893-23.592-42.23c-22.293-20.424-53.775-33.155-88.67-33.155-67.587 0-122.376 47.758-122.376 106.671v70l15 .116z" fill="#fff3bf"/><path d="m378.377 114.171c0-28.496-12.82-54.382-33.706-73.516 10.196 16.63 14.503 33.856 14.503 33.856s-3.993-3.913-13.368-9.408c-22.19-13.005-55.225-2.603-89.805-2.603s-65.615-11.402-87.805 1.603c-11.523 6.753-19.572 28.468-19.572 47.602v72.582l229.753 1.78s0-44.157 0-71.896z" fill="#ffe07d"/><path d="m343.806 79.103c-22.19-13.005-53.225-1.603-87.805-1.603s-65.615-11.402-87.805 1.603c-21.18 12.413-34.572 66.372-34.572 105.068v55.281c0 64.865 27.964 83.068 66.512 111.569 25.811 19.084 38.633 23.029 55.865 23.029 0 0 22.053-3.945 47.865-23.029 38.548-28.501 66.512-46.704 66.512-111.569 0 0-6.081-131.308-6.998-133.467-5.344-12.574-11.955-22.416-19.574-26.882z" fill="#ebae9d"/><path d="m363.377 239.452c0 64.865-27.964 83.068-66.512 111.569-25.811 19.084-40.865 23.029-40.865 23.029 17.232 0 30.053-3.945 55.865-23.029 38.548-28.501 66.512-46.704 66.512-111.569 0 0 0-24.074 0-55.281 0-24.777-5.49-55.811-15-78.19z" fill="#e09380"/><path d="m256.001 245.132c3.519 0 7.038-.994 10.118-2.982 6.16-3.976 10.048-12.817 7.852-20.688l-4.115-14.748c-3.913-14.026-23.799-14.026-27.712 0l-4.115 14.748c-2.196 7.871 1.693 16.712 7.852 20.688 3.081 1.987 6.601 2.982 10.12 2.982" fill="#e09380"/><path d="m454.054 437.627c-18.256-15.829-38.684-26.11-55.366-32.584-.01.012-48.803 49.007-142.688 49.007s-142.678-48.995-142.688-49.007c-30.524 11.846-73.612 36.436-92.904 84.457l468.203 7c-5.629-20.922-18.338-42.654-34.557-58.873z" fill="#bae6ef"/><path d="m496.612 504.5c-7.852-29.179-24.09-50.861-42.558-66.873 11.109 12.877 20.467 28.481 26.259 47.36.688 2.243-1.009 4.514-3.355 4.514h-456.549c-1.916 4.769-3.609 9.758-5.019 15h481.222z" fill="#94d8e6"/><path d="m256.001 434.05c-67.987 0-109.069-38.907-109.069-38.907s-14.291 2.399-33.619 9.9c.01.012 48.803 59.007 142.688 59.007s142.678-58.995 142.688-59.007c-19.328-7.501-33.619-9.9-33.619-9.9s-41.082 38.907-109.069 38.907z" fill="#eef9fa"/></g><g><path d="m496.607 512.002c-3.308 0-6.337-2.206-7.237-5.553-9.645-35.843-33.63-64.206-71.288-84.303-5.985-3.194-11.848-5.912-17.373-8.211-11.389 11.753-48.036 44.729-108.795 54.721-4.083.682-7.946-2.096-8.617-6.184-.672-4.087 2.096-7.945 6.184-8.617 49.7-8.173 81.718-32.675 95.691-45.683-7.971-2.607-14.314-4.156-17.951-4.951-10.946 9.122-50.722 38.328-111.22 38.328-60.489 0-100.262-29.198-111.215-38.324-3.635.798-9.977 2.352-17.93 4.951 6.62 6.138 17.351 14.901 32.18 23.333 29.223 16.615 61.847 25.04 96.965 25.04 4.142 0 7.5 3.357 7.5 7.5s-3.358 7.5-7.5 7.5c-82.213 0-130.808-43.212-144.708-57.607-5.655 2.35-11.658 5.136-17.771 8.417-37.429 20.09-61.28 48.382-70.889 84.09-1.076 4-5.192 6.369-9.191 5.293-4-1.076-6.37-5.191-5.293-9.191 10.614-39.442 37.832-71.822 78.71-93.639 30.541-16.299 57.694-20.976 58.835-21.166 2.32-.391 4.688.333 6.396 1.951.075.07 1.648 1.521 4.607 3.812l23.82-7.712c3.104-1.005 5.19-3.872 5.19-7.135v-28.974c-26.432-19.626-48.015-37.652-56.126-74.697-1.117-.181-2.216-.403-3.291-.664-10.75 27.03-13.237 65.726-6.076 98.103.895 4.045-1.659 8.049-5.704 8.943-4.044.892-8.048-1.658-8.943-5.704-7.927-35.842-5.142-77.37 6.994-107.413-16.467-11.083-25.17-32.992-25.17-53.24 0-25.469 7.073-41.968 21.021-49.04 5.606-2.843 11.959-3.208 17.711-1.15v-50.654c0-20.256 6.107-40.152 17.66-57.539 11.112-16.723 27.001-30.791 45.949-40.685 3.672-1.915 8.203-.494 10.12 3.177 1.917 3.672.495 8.203-3.177 10.12-16.712 8.726-30.682 21.067-40.398 35.689-7.678 11.555-12.553 24.374-14.361 37.603 5.816-13.531 13.286-24.511 22.487-29.903 16.905-9.908 37.375-7.563 59.049-5.081 10.511 1.202 21.378 2.447 32.549 2.447 4.835 0 10.029-.235 15.878-.72 4.131-.335 7.751 2.728 8.093 6.855.342 4.129-2.728 7.752-6.856 8.094-6.263.519-11.863.771-17.115.771-12.027 0-23.327-1.294-34.254-2.546-19.944-2.284-37.171-4.256-49.758 3.12-7.926 4.645-15.887 18.631-21.841 38.372-5.65 18.734-9.023 41.248-9.023 60.225v55.28c0 58.755 23.616 76.161 59.363 102.508l4.108 3.031c24.797 18.333 36.333 21.56 51.406 21.56s26.609-3.227 51.405-21.56l4.107-3.031c35.748-26.347 59.364-43.753 59.364-102.508v-55.28c0-18.977-3.374-41.49-9.023-60.225-5.954-19.741-13.915-33.728-21.84-38.372-9.921-5.815-22.612-5.684-34.848-4.675-4.141.34-7.75-2.73-8.091-6.858s2.73-7.751 6.858-8.091c14.69-1.21 30.148-1.239 43.665 6.683 9.206 5.396 16.679 16.385 22.497 29.926-6.683-49.232-55.303-87.559-114.095-87.559-10.648 0-21.193 1.258-31.341 3.738-4.023.988-8.083-1.481-9.066-5.504s1.481-8.083 5.504-9.066c11.312-2.766 23.055-4.168 34.903-4.168 71.614 0 129.876 51.217 129.876 114.171v50.654c5.751-2.057 12.104-1.692 17.711 1.15 13.949 7.072 21.021 23.571 21.021 49.04 0 26.364-14.755 55.546-42.189 59.976-8.106 37.024-29.668 55.05-56.079 74.662l.489 29.304c.053 3.206 2.139 6.023 5.19 7.011l23.292 7.534c2.961-2.291 4.534-3.742 4.61-3.814 1.707-1.604 4.074-2.333 6.386-1.941 1.141.19 28.294 4.867 58.835 21.166 40.878 21.816 68.096 54.196 78.71 93.639 1.077 4-1.293 8.115-5.293 9.191-.652.175-1.308.259-1.953.259zm-323.995-107.879c17.832 10.332 46.569 22.427 83.389 22.427 36.824 0 65.562-12.097 83.396-22.432l-11.992-3.879c-9.154-2.96-15.412-11.413-15.572-21.032l-.312-18.675c-24.898 17.66-38.548 21.018-55.52 21.018-16.921 0-30.536-3.335-55.294-20.857v17.97c0 9.789-6.257 18.392-15.57 21.406zm213.265-218.057v53.385c0 6.964-.318 13.427-.93 19.456 16.073-5.778 24.663-25.693 24.663-43.892 0-13.307-2.222-30.296-12.805-35.661-3.387-1.718-6.262-.362-7.341.3-1.078.662-3.587 2.614-3.587 6.412zm-267.297-7.547c-1.022 0-2.17.221-3.383.836-10.583 5.365-12.805 22.354-12.805 35.661 0 18.198 8.59 38.112 24.663 43.892-.612-6.03-.93-12.492-.93-19.456v-53.385c0-3.799-2.508-5.75-3.587-6.412-.693-.426-2.125-1.136-3.958-1.136zm137.421 124.743c-18.177 0-36.354-4.836-52.213-14.507-3.537-2.156-4.655-6.771-2.499-10.309 2.157-3.535 6.77-4.654 10.308-2.498 26.975 16.449 61.833 16.449 88.808 0 3.536-2.156 8.151-1.037 10.308 2.498 2.157 3.537 1.038 8.152-2.499 10.309-15.859 9.671-34.036 14.507-52.213 14.507zm0-50.63c-5.043 0-9.949-1.446-14.186-4.182-9.227-5.957-13.959-18.426-11.009-29.004l4.115-14.749c2.671-9.572 11.142-16.004 21.08-16.004s18.409 6.432 21.08 16.004l4.115 14.748c2.951 10.579-1.782 23.049-11.009 29.005-4.237 2.736-9.143 4.182-14.186 4.182zm0-48.939c-1.226 0-5.329.363-6.632 5.035l-4.115 14.748c-1.321 4.734 1.362 10.22 4.696 12.372 3.614 2.332 8.487 2.334 12.101 0 3.334-2.152 6.017-7.638 4.696-12.373l-4.115-14.747c-1.302-4.671-5.405-5.035-6.631-5.035zm48.309 1.412c-4.142 0-7.5-3.357-7.5-7.5v-16.757c0-4.143 3.358-7.5 7.5-7.5s7.5 3.357 7.5 7.5v16.757c0 4.143-3.358 7.5-7.5 7.5zm-96.618 0c-4.142 0-7.5-3.357-7.5-7.5v-16.757c0-4.143 3.358-7.5 7.5-7.5s7.5 3.357 7.5 7.5v16.757c0 4.143-3.358 7.5-7.5 7.5zm69.978-52.553c-2.337 0-4.64-1.09-6.104-3.135-2.411-3.368-1.636-8.053 1.732-10.465 10.942-7.833 24.999-12.147 39.582-12.147 17.482 0 30.435 7.001 35.192 10.011 3.5 2.214 4.543 6.848 2.329 10.348s-6.847 4.544-10.348 2.328c-7.608-4.812-17.766-7.687-27.173-7.687-11.311 0-22.556 3.406-30.85 9.344-1.322.947-2.848 1.403-4.36 1.403zm-43.338 0c-1.512 0-3.037-.456-4.36-1.403-8.294-5.938-19.539-9.344-30.85-9.344-9.407 0-19.565 2.873-27.173 7.687-3.5 2.216-8.134 1.172-10.348-2.328-2.215-3.5-1.172-8.133 2.328-10.348 4.757-3.01 17.709-10.011 35.192-10.011 14.583 0 28.64 4.314 39.582 12.147 3.368 2.412 4.143 7.097 1.732 10.465-1.463 2.045-3.767 3.135-6.103 3.135z"/></g></g></svg>