<svg id="Capa_1" enable-background="new 0 0 512.002 512.002" height="512" viewBox="0 0 512.002 512.002" width="512" xmlns="http://www.w3.org/2000/svg"><g><g><path d="m451.561 166.539 40.505-85.354c-98.003-63.31-114.976-73.685-161.67-73.685 0 0-3.492 29.686-74.396 44-70.904-14.314-74.396-44-74.396-44-48.605 0-64.989 11.23-174.104 81.718l43.135 74.713 67.085-21.732v305c0 16.965 5.955 26.476 19.621 33.638 20.408 10.696 83.248 16.837 118.659 8.663.015-.003.031 0 .046 0l.644-211.084 37.039 208.189c64.532 0 106.962-21.735 124.03-40.096 1.762-1.895 2.51-4.512 2.057-7.06-7.322-41.157-33.537-189.114-33.537-189.114v-120.795z" fill="#bae6ef"/><g fill="#94d8e6"><path d="m50.636 163.932 7.361 12.75 59.724-34.482v-4.01c0-5.773-6.25-9.382-11.25-6.495z"/><path d="m296.281 500.946c99.253-17.658 132.945-42.19 128.732-65.868s-30.733-172.743-30.733-172.743v-120.135l59.724 34.482 50.497-87.463c-4.291-2.772-8.423-5.442-12.434-8.033l-44.353 76.822c-.966 1.674-3.107 2.248-4.781 1.281l-52.402-30.254c-5-2.887-11.25.722-11.25 6.495v114.805s27.205 152.91 33.389 187.671c.381 2.144-.244 4.346-1.726 5.942-14.414 15.521-51.319 30.935-117.213 42.658z"/><path d="m117.721 447.2v15c0 24.05 37.468 42.301 138.279 42.301 0 0 .061-15 .046-15-100.811 0-138.325-18.251-138.325-42.301z"/><path d="m294.454 163.698c-2.529 0-4.998-1.28-6.411-3.598-4.007-6.573-14.288-22.588-22.042-31.822-7.754 9.234-18.035 25.249-22.042 31.822-2.157 3.537-6.77 4.656-10.308 2.501-3.536-2.155-4.656-6.771-2.501-10.307.795-1.305 4.169-6.801 8.61-13.466-2.584.715-5.036 1.122-7.297 1.122-12.406 0-22.5-10.094-22.5-22.5s10.094-22.5 22.5-22.5c9.064 0 22.848 5.479 33.537 13.023 10.689-7.543 24.473-13.023 33.537-13.023 12.406 0 22.5 10.094 22.5 22.5s-10.094 22.5-22.5 22.5c-2.261 0-4.713-.407-7.297-1.122 4.441 6.665 7.815 12.161 8.61 13.466 2.155 3.536 1.035 8.151-2.501 10.307-1.217.743-2.565 1.097-3.895 1.097zm-14.518-46.816c7.532 4.214 15.383 8.069 19.602 8.069 4.136 0 7.5-3.364 7.5-7.5s-3.364-7.5-7.5-7.5c-4.339 0-12.227 2.729-19.602 6.931zm-47.472-6.931c-4.136 0-7.5 3.364-7.5 7.5s3.364 7.5 7.5 7.5c4.219 0 12.069-3.855 19.602-8.069-7.376-4.202-15.263-6.931-19.602-6.931z"/><path d="m294.454 333.698c-2.529 0-4.998-1.28-6.411-3.598-4.007-6.573-14.288-22.588-22.042-31.822-7.754 9.234-18.035 25.249-22.042 31.822-2.157 3.537-6.77 4.656-10.308 2.501-3.536-2.155-4.656-6.771-2.501-10.307.795-1.305 4.169-6.801 8.61-13.466-2.584.715-5.036 1.122-7.297 1.122-12.406 0-22.5-10.094-22.5-22.5s10.094-22.5 22.5-22.5c9.064 0 22.848 5.479 33.537 13.023 10.689-7.543 24.473-13.023 33.537-13.023 12.406 0 22.5 10.094 22.5 22.5s-10.094 22.5-22.5 22.5c-2.261 0-4.713-.407-7.297-1.122 4.441 6.665 7.815 12.161 8.61 13.466 2.155 3.536 1.035 8.151-2.501 10.307-1.217.743-2.565 1.097-3.895 1.097zm-14.518-46.816c7.532 4.214 15.383 8.069 19.602 8.069 4.136 0 7.5-3.364 7.5-7.5s-3.364-7.5-7.5-7.5c-4.339 0-12.227 2.729-19.602 6.931zm-47.472-6.931c-4.136 0-7.5 3.364-7.5 7.5s3.364 7.5 7.5 7.5c4.219 0 12.069-3.855 19.602-8.069-7.376-4.202-15.263-6.931-19.602-6.931z"/><path d="m256.001 58.501c70.904-14.314 84.929-29.792 84.929-40.938 0-4.442-3.515-7.749-5.765-9.414-1.441-.412-3.025-.648-4.769-.648-19.812 0-36.3 15-74.396 15s-54.584-15-74.396-15c-7.161 0-11.765 3.795-13.795 8.777.001 18.167 27.31 29.932 88.192 42.223z"/></g><path d="m335.165 8.149c.507 1.394.765 2.894.765 4.414 0 11.146-9.025 24.624-79.929 38.938-60.882-12.291-83.12-25.206-88.191-35.223-.793 1.946-1.205 4.067-1.205 6.223 0 14.347 18.492 29.686 89.396 44 70.904-14.314 89.396-29.653 89.396-44 0-6.332-3.441-12.413-10.232-14.352z" fill="#6bbdd5"/></g><g><path d="m256.001 512.001c-48.432 0-85.234-4.22-109.387-12.541-16.603-5.72-36.393-16.827-36.393-37.26v-307.01l-48.474 27.986c-3.585 2.07-8.173.842-10.245-2.745l-50.496-87.462c-1.998-3.461-.932-7.881 2.426-10.05l6.432-4.155c17.192-11.108 32.039-20.701 45.011-28.939 3.496-2.221 8.132-1.186 10.352 2.311 2.221 3.496 1.187 8.131-2.311 10.352-12.921 8.207-27.746 17.785-44.911 28.876l-.44.284 43.18 74.79 53.229-30.731c2.32-1.34 5.18-1.34 7.5 0s3.75 3.815 3.75 6.495v320c0 9.306 8.842 17.07 26.278 23.078 21.354 7.357 53.963 11.284 97.001 11.688v-198.879c-5.908 8.263-11.749 17.431-14.542 22.012-2.157 3.537-6.77 4.656-10.308 2.501-3.536-2.155-4.656-6.771-2.501-10.307.795-1.305 4.169-6.801 8.61-13.466-2.584.715-5.036 1.122-7.297 1.122-12.406 0-22.5-10.094-22.5-22.5s10.094-22.5 22.5-22.5c9.064 0 22.848 5.48 33.537 13.023 10.689-7.543 24.473-13.023 33.537-13.023 12.406 0 22.5 10.094 22.5 22.5s-10.094 22.5-22.5 22.5c-2.261 0-4.713-.407-7.297-1.122 4.441 6.665 7.815 12.161 8.61 13.466 2.155 3.536 1.035 8.151-2.501 10.307-3.537 2.152-8.151 1.035-10.308-2.501-1.857-3.047-5.063-8.123-8.74-13.612l33.043 185.725c42.302-7.936 73.72-17.514 93.453-28.497 16.115-8.969 23.46-18.162 21.83-27.324l-14.383-80.848c-.726-4.078 1.992-7.972 6.07-8.697 4.081-.729 7.971 1.991 8.697 6.07l14.383 80.848c1.976 11.104-1.504 27.586-29.303 43.058-22.321 12.423-57.816 23.023-105.499 31.507-4.077.725-7.972-1.992-8.697-6.07l-25.396-142.744v144.986c0 4.141-3.358 7.498-7.5 7.498zm13.935-235.119c7.532 4.214 15.383 8.069 19.602 8.069 4.136 0 7.5-3.364 7.5-7.5s-3.364-7.5-7.5-7.5c-4.339 0-12.227 2.729-19.602 6.931zm-47.472-6.931c-4.136 0-7.5 3.364-7.5 7.5s3.364 7.5 7.5 7.5c4.219 0 12.069-3.855 19.602-8.069-7.376-4.202-15.263-6.931-19.602-6.931zm182.488 59.918c-3.566 0-6.729-2.553-7.375-6.188l-10.681-60.033c-.077-.434-.116-.873-.116-1.313v-120.135c0-2.68 1.43-5.155 3.75-6.495s5.18-1.34 7.5 0l53.229 30.731 43.18-74.789-15.398-9.945c-3.48-2.245-4.481-6.888-2.235-10.368 2.245-3.48 6.888-4.48 10.368-2.235l21.397 13.82c3.357 2.168 4.425 6.589 2.426 10.05l-50.497 87.463c-2.071 3.587-6.658 4.814-10.245 2.745l-48.475-27.987v106.482l10.564 59.382c.726 4.078-1.992 7.972-6.07 8.697-.443.08-.887.118-1.322.118zm-148.951-80.515c-4.143 0-7.5-3.357-7.5-7.5v-113.765c-5.908 8.263-11.749 17.431-14.542 22.012-2.157 3.537-6.77 4.656-10.308 2.501-3.536-2.155-4.656-6.771-2.501-10.307.795-1.305 4.169-6.801 8.61-13.466-2.584.715-5.036 1.122-7.297 1.122-12.406 0-22.5-10.094-22.5-22.5s10.094-22.5 22.5-22.5c7.05 0 16.954 3.314 26.037 8.337v-20.678c-30.877-6.527-52.963-13.584-67.401-21.525-14.801-8.141-21.995-17.49-21.995-28.584 0-2.149.285-4.303.852-6.381-19.664 2.468-37.205 9.802-69.739 29.394-3.55 2.138-8.156.992-10.294-2.556-2.137-3.549-.993-8.157 2.556-10.294 43.595-26.253 63.05-32.663 99.126-32.663 9.546 0 18.223 2.961 27.409 6.095 12.232 4.175 26.098 8.905 46.987 8.905s34.755-4.73 46.987-8.905c9.187-3.134 17.863-6.095 27.409-6.095 44.147 0 64.313 10.003 131.391 52.789 3.492 2.228 4.518 6.864 2.29 10.356-2.229 3.493-6.864 4.517-10.356 2.29-54.522-34.777-75.946-46.117-101.677-49.319.567 2.079.853 4.233.853 6.384 0 11.094-7.194 20.443-21.995 28.584-14.438 7.941-36.524 14.998-67.401 21.525v20.678c9.083-5.022 18.987-8.337 26.037-8.337 12.406 0 22.5 10.094 22.5 22.5s-10.094 22.5-22.5 22.5c-2.261 0-4.713-.407-7.297-1.122 4.441 6.665 7.815 12.161 8.61 13.466 2.155 3.536 1.035 8.151-2.501 10.307-3.537 2.153-8.151 1.035-10.308-2.501-2.793-4.581-8.634-13.749-14.542-22.012v113.765c0 4.142-3.358 7.5-7.5 7.5zm13.935-142.472c7.532 4.214 15.383 8.069 19.602 8.069 4.136 0 7.5-3.364 7.5-7.5s-3.364-7.5-7.5-7.5c-4.339 0-12.227 2.729-19.602 6.931zm-47.472-6.931c-4.136 0-7.5 3.364-7.5 7.5s3.364 7.5 7.5 7.5c4.219 0 12.069-3.855 19.602-8.069-7.376-4.202-15.263-6.931-19.602-6.931zm-40.86-84.95c-6.959 0-7.5 5.74-7.5 7.5 0 7.35 10.68 21.802 81.896 36.347 71.217-14.545 81.896-28.997 81.896-36.347 0-1.76-.541-7.5-7.5-7.5-7.057 0-13.9 2.335-22.564 5.291-12.677 4.326-28.453 9.709-51.832 9.709s-39.155-5.383-51.832-9.709c-8.663-2.956-15.507-5.291-22.564-5.291z"/></g></g></svg>