<svg id="Capa_1" enable-background="new 0 0 512 512" height="512" viewBox="0 0 512 512" width="512" xmlns="http://www.w3.org/2000/svg"><g><g><path d="m400.411 63.984c35.055 37.949 56.484 88.674 56.484 144.41 0 62.804-27.201 119.249-70.457 158.216l-13.428-50.114h.012c-2.202-8.439-11.127-13.685-19.779-11.107-23.675 27.063-58.46 44.161-97.242 44.161-30.375 0-58.297-10.491-80.352-28.041l-22.813 85.14c30.563 16.965 65.732 26.639 103.166 26.639 117.578 0 212.894-95.316 212.894-212.894-.002-61.842-26.379-117.515-68.485-156.41z" fill="#dcf2f6"/><path d="m400.411 63.984c-24.971-23.067-55.475-40.231-89.297-49.274l-110.224.008c-90.861 24.285-157.784 107.159-157.784 205.676 0 80.145 44.293 149.934 109.729 186.255 0 0 28.901-80.296 22.813-85.14s-11.728-10.226-16.85-16.075c-26.543-26.543-37.078-59.662-37.078-96.456 0-59.664 42.53-109.387 98.926-120.526l35.354-1.073 34.291 5.04c18.511 5.681 35.515 15.528 50.835 30.849 26.987 23.672 44.03 58.407 44.03 97.126 0 32.549-12.045 62.282-31.914 84.996 8.652-2.579 29.34 76.363 29.34 76.363 43.256-38.967 80.312-92.03 80.312-167.359 0-55.736-19.924-107.851-62.483-150.41z" fill="#eef9fa"/><path d="m341.126 123.268c-13.437-15.319-30.441-27.428-49.712-35.04l-72.578-6.532c-59.284 11.709-103.992 63.979-103.992 126.698 0 38.679 17.015 73.371 43.954 97.041-19.893-22.72-31.954-52.47-31.954-85.041 0-59.767 40.6-110.044 95.722-124.777l33.434-8.238 33.434 8.238c19.411 5.19 37.022 14.783 51.692 27.651z" fill="#dcf2f6"/><path d="m256 7.5c-19.061 0-37.531 2.519-55.111 7.218l17.947 66.978 72.578 6.532 19.699-73.518c-17.578-4.701-36.052-7.21-55.113-7.21z" fill="#bae6ef"/><path d="m244 79.238c-8.612 0-17.024.85-25.164 2.458l3.73 13.921c10.665-2.851 21.87-4.379 33.434-4.379s22.77 1.527 33.434 4.379l1.98-7.389c-14.679-5.799-30.673-8.99-47.414-8.99z" fill="#94d8e6"/><path d="m332.661 290.943c-16.823 6.956-42.902 14.54-76.661 14.549s-59.842-7.56-76.669-14.507c-9.1-3.757-18.983 1.588-21.34 10.511l-32.526 121.389s51.072 20.034 130.983 20.034 130.151-19.966 130.151-19.966l-46.852-133.186c-2.319-.152-4.727.201-7.086 1.176z" fill="#94d8e6"/><path d="m354.009 301.497h.012c-1.732-6.638-7.627-11.295-14.274-11.73l35.666 133.119h11.122z" fill="#6bbdd5"/><path d="m358.152 408.884c-22.418 9.262-57.17 19.358-102.151 19.358s-79.733-10.096-102.151-19.358c-13.885-5.737-29.14 4.431-29.14 19.454v46.162l254.582 7v-58.615c0-5.218-3.223-10.454-7.678-14.909-4.249-1.134-8.927-.966-13.462.908z" fill="#bae6ef"/><path d="m372.291 474.5 7 7 8-7v-46.162c0-10.116-6.92-18.021-15.678-20.361.441 1.698.678 3.492.678 5.361z" fill="#94d8e6"/><path d="m379.291 488.5-7-14h-247.582v8.934c0 2.11.319 4.144.896 6.066l245.686 7c4.418 0 8-3.582 8-8z" fill="#eef9fa"/><path d="m372.291 474.5v7c0 4.418-3.582 8-8 8h-238.686c2.606 8.676 10.645 15 20.17 15h220.451c11.634 0 21.066-9.431 21.066-21.066v-8.934z" fill="#dcf2f6"/></g><g><path d="m124.526 397.294c-26.48-19.716-48.467-45.421-63.781-74.588-16.446-31.323-25.138-66.702-25.138-102.312 0-48.801 15.624-95.039 45.183-133.714 2.516-3.291 7.223-3.919 10.513-1.405 3.291 2.515 3.92 7.222 1.405 10.513-27.543 36.037-42.101 79.125-42.101 124.606 0 33.191 8.098 66.159 23.419 95.339 13.348 25.423 32.159 48.041 54.729 65.898l20.38-76.057c-19.233-24.114-29.79-54.236-29.79-85.18 0-60.497 39.517-111.939 94.093-129.871l-17.826-66.526c-30.789 9.435-59.109 26.106-82.788 49.131-2.969 2.887-7.717 2.822-10.605-.148s-2.821-7.718.148-10.605c41.364-40.223 95.925-62.375 153.633-62.375 58.869 0 114.215 22.925 155.842 64.552s64.552 96.973 64.552 155.842c0 30.716-6.2 60.443-18.427 88.355-11.81 26.958-28.653 50.957-50.064 71.33-2.998 2.855-7.746 2.739-10.604-.263-2.855-3-2.737-7.748.264-10.603 19.959-18.992 35.659-41.36 46.665-66.482 11.391-26.002 17.166-53.704 17.166-82.336 0-92.254-61.133-170.497-145.02-196.341l-17.812 66.479c43.063 14.129 77.45 49.195 89.531 94.719 1.062 4.003-1.321 8.11-5.325 9.173-4.003 1.063-8.109-1.321-9.173-5.325-10.79-40.659-41.576-71.947-80.095-84.44v45.85c0 4.142-3.357 7.5-7.5 7.5s-7.5-3.358-7.5-7.5v-49.677c-4.913-.924-9.926-1.552-15-1.864v51.541c0 4.142-3.357 7.5-7.5 7.5-4.142 0-7.5-3.358-7.5-7.5v-51.544c-5.09.311-10.096.937-15 1.857v49.685c0 4.142-3.358 7.5-7.5 7.5s-7.5-3.358-7.5-7.5v-45.858c-48.786 15.846-84.156 61.744-84.156 115.744 0 24.874 7.662 49.15 21.751 69.429 1.92-2.084 4.231-3.83 6.839-5.124 6.012-2.982 13.031-3.218 19.259-.646 8.923 3.684 21.164 7.776 36.307 10.569v-24.56c0-4.142 3.358-7.5 7.5-7.5s7.5 3.358 7.5 7.5v26.741c4.782.513 9.784.88 15 1.061v-27.802c0-4.142 3.358-7.5 7.5-7.5 4.143 0 7.5 3.358 7.5 7.5v27.797c5.216-.184 10.218-.553 15-1.069v-26.728c0-4.142 3.357-7.5 7.5-7.5s7.5 3.358 7.5 7.5v24.538c15.139-2.8 27.375-6.899 36.295-10.587 6.241-2.581 13.273-2.342 19.298.654 2.605 1.297 4.913 3.044 6.83 5.131 14.079-20.274 21.733-44.54 21.733-69.404 0-4.142 3.357-7.5 7.5-7.5s7.5 3.358 7.5 7.5c0 30.945-10.551 61.059-29.784 85.173l30.953 115.421c.646 2.476.966 4.931.966 7.35v55.097c0 15.751-12.814 28.565-28.565 28.565h-220.451c-15.751 0-28.565-12.814-28.565-28.565v-55.097c0-2.467.325-4.947.966-7.371zm236.464 18.521c-22.002 9.09-58.08 19.926-105.016 19.926s-83.014-10.836-105.016-19.926m.001 0 .02-.048c-1.596-.658-3.345-1.021-5.178-1.021-7.506 0-13.591 6.085-13.591 13.591v38.663h53.176c4.143 0 7.5 3.358 7.5 7.5s-3.357 7.5-7.5 7.5h-53.176v1.435c0 7.48 6.085 13.565 13.565 13.565h220.451c7.48 0 13.565-6.085 13.565-13.565v-1.435h-164.406c-4.143 0-7.5-3.358-7.5-7.5s3.357-7.5 7.5-7.5h164.406v-38.663c0-7.506-6.137-13.591-13.643-13.591-1.833 0-3.582.363-5.178 1.021l.02.048m-14.251-112.492c-.031-.115.026.116 0 0-.652-2.153-2.253-4.194-4.329-5.227-2.171-1.079-4.614-1.16-6.884-.222-16.667 6.891-43.993 15.108-79.524 15.118-.02 0-.043 0-.063 0-35.502 0-62.808-8.196-79.47-15.074-2.263-.934-4.702-.856-6.87.219-2.167 1.076-3.756 2.998-4.358 5.275l-26.024 97.124-.019-.049c2.103-.492 4.27-.745 6.46-.745 3.678 0 7.421.714 11.044 2.21 20.746 8.571 54.812 18.789 99.287 18.789s78.541-10.218 99.287-18.789c5.734-2.368 11.855-2.749 17.536-1.404zm-90.739-219.585c9.579 0 18.972.998 28.073 2.909l17.813-66.48c-14.757-3.38-30.118-5.167-45.886-5.167-15.622 0-30.999 1.742-45.896 5.133l17.82 66.504c9.066-1.9 18.455-2.899 28.076-2.899zm23.966 165.824c-2.359 0-4.681-1.109-6.141-3.185l-17.812-25.32-17.84 25.324c-2.385 3.387-7.064 4.198-10.451 1.812s-4.198-7.064-1.812-10.451l20.935-29.718-17.729-25.201c-2.383-3.388-1.569-8.066 1.819-10.45 3.389-2.383 8.066-1.568 10.45 1.819l14.636 20.806 14.661-20.81c2.384-3.386 7.062-4.197 10.45-1.812 3.387 2.385 4.197 7.064 1.812 10.451l-17.755 25.204 20.904 29.715c2.384 3.388 1.569 8.066-1.818 10.45-1.313.923-2.819 1.366-4.309 1.366z"/></g></g></svg>