<svg id="Capa_1" enable-background="new 0 0 512 512" height="512" viewBox="0 0 512 512" width="512" xmlns="http://www.w3.org/2000/svg"><g><g><path d="m398.141 489-7-451.5h-112.349l-23.307 13-22.676-13h-158.668c-8.284 0-15 6.716-15 15v437l331.5 7c4.143 0 7.5-3.358 7.5-7.5z" fill="#e09380"/><path d="m391.141 37.5v246.649l-35.914 36.695 20.914 20.914 15-15v155.242c0 4.142-3.358 7.5-7.5 7.5h-324.5c0 8.284 6.716 15 15 15h317c8.284 0 15-6.716 15-15v-437c0-8.284-6.715-15-15-15z" fill="#b46e5a"/><path d="m232.808 37.5v30l56.174 3.476-5.34-22.414c-.963-4.043-2.633-7.766-4.85-11.062" fill="#b46e5a"/><path d="m368.141 459-7-391.5h-51.494l-77.006 10-73.25-10h-55.25c-8.284 0-15 6.716-15 15v377l271.5 7c4.143 0 7.5-3.358 7.5-7.5z" fill="#eef9fa"/><path d="m361.141 67.5v264.97l-82.371 64.05c-5.858 5.858-41.213 50.711-35.355 56.569s50.711-29.498 56.569-35.355l61.158-61.158v95.424c0 4.142-3.358 7.5-7.5 7.5h-264.5c0 8.284 6.716 15 15 15h257c8.284 0 15-6.716 15-15v-377c-.001-8.284-6.716-15-15.001-15z" fill="#dcf2f6"/><path d="m321.99 70.158c-3.766-1.702-7.941-2.658-12.342-2.658h-24.073c-14.741 0-19.533-5.46-21.392-13.262l-10.19-35.489c-.624-2.619-3.505-4.583-6.07-7.612-4.48-2.263-9.503-3.555-14.77-3.634-16.039-.239-29.951 11.112-33.669 26.716l-5.184 21.757c-1.61 6.756-7.646 11.524-14.592 11.524h-24.073c-11.102 0-20.789 6.036-25.977 15l202.362 8.743c.001-4.401-3.46-17.022-10.03-21.085z" fill="#87a0af"/><path d="m250.643 18.562c-.624-2.619-1.548-5.102-2.72-7.425 8.698 4.393 15.344 12.449 17.72 22.425l5.34 22.414c1.61 6.756 7.646 11.524 14.592 11.524h-9.613c-8.02 0-14.991-5.59-16.85-13.391zm89.005 78.938c0-12.167-7.248-22.635-17.658-27.342 1.188 2.628 2.012 5.456 2.402 8.42.274 2.081-1.382 3.922-3.481 3.922h-191.252c-2.554 4.414-4.023 9.534-4.023 15z" fill="#607882"/><path d="m432.263 253.027c3.781-3.78 6.153-13.896 1.582-18.467-5.597-2.735-12.537-1.791-17.188 2.86-3.019 3.019-145.473 145.473-148.492 148.492l5.75 15.463c-.001.001 153.683-143.683 158.348-148.348z" fill="#bae6ef"/><path d="m437.869 237.421c-1.207-1.207-2.573-2.151-4.025-2.86-.623 4.923-2.801 9.686-6.582 13.467-4.665 4.665-153.349 153.349-153.349 153.349l15.463 5.75c3.019-3.019 145.473-145.474 148.492-148.492 5.859-5.859 5.859-15.356.001-21.214z" fill="#94d8e6"/><path d="m232.808 442.482c1.652 1.653 47.614-44.309 45.962-45.962l-10.606-10.607c-5.858 5.858-41.213 50.711-35.356 56.569z" fill="#87a0af"/><path d="m232.808 442.482c5.858 5.858 50.711-29.498 56.569-35.355l-10.607-10.607c-4.191 4.191-31.027 31.027-45.962 45.962z" fill="#607882"/></g><g><path d="m391.141 512h-317c-12.406 0-22.5-10.094-22.5-22.5v-30c0-4.143 3.357-7.5 7.5-7.5s7.5 3.357 7.5 7.5v30c0 4.136 3.364 7.5 7.5 7.5h317c4.136 0 7.5-3.364 7.5-7.5v-126.712c0-4.143 3.357-7.5 7.5-7.5s7.5 3.357 7.5 7.5v126.712c0 12.406-10.093 22.5-22.5 22.5zm-30-30h-257c-12.406 0-22.5-10.094-22.5-22.5v-295c0-4.143 3.357-7.5 7.5-7.5s7.5 3.357 7.5 7.5v295c0 4.136 3.364 7.5 7.5 7.5h257c4.136 0 7.5-3.364 7.5-7.5v-121.031c-28.479 28.479-56.902 56.902-68.532 68.531h16.032c4.143 0 7.5 3.357 7.5 7.5s-3.357 7.5-7.5 7.5h-32.817c-5.247 4.142-11.621 8.943-17.941 13.35-21.887 15.259-31.797 18.514-37.878 12.436-4.823-4.824-3.77-12.062 4.499-25.785h-82.862c-4.143 0-7.5-3.357-7.5-7.5s3.357-7.5 7.5-7.5h92.852c8.469-11.866 17.763-23.285 20.867-26.39l3.61-3.61h-117.33c-4.143 0-7.5-3.357-7.5-7.5s3.357-7.5 7.5-7.5h132.329l87.171-87.171v-192.33c0-4.136-3.364-7.5-7.5-7.5h-21.511c4.718 6.271 7.518 14.065 7.518 22.5 0 4.143-3.357 7.5-7.5 7.5h-214.012c-4.143 0-7.5-3.357-7.5-7.5 0-8.435 2.8-16.229 7.518-22.5h-21.512c-4.136 0-7.5 3.364-7.5 7.5v52c0 4.143-3.357 7.5-7.5 7.5s-7.5-3.357-7.5-7.5v-52c0-12.406 10.094-22.5 22.5-22.5h75.567c3.487 0 6.488-2.369 7.296-5.762l2.201-9.238h-115.065c-4.136 0-7.5 3.364-7.5 7.5v380.98c0 4.143-3.357 7.5-7.5 7.5s-7.5-3.357-7.5-7.5v-380.98c0-12.406 10.094-22.5 22.5-22.5h118.718c5.342-17.602 21.645-30 39.81-30 .2 0 .396.002.597.005 18.963.283 35.276 13.368 39.673 31.819l5.34 22.414c.808 3.393 3.809 5.762 7.296 5.762h75.567c12.406 0 22.5 10.094 22.5 22.5v177.329l15-15v-192.329c0-4.136-3.364-7.5-7.5-7.5h-94.561c-4.143 0-7.5-3.357-7.5-7.5s3.357-7.5 7.5-7.5h94.561c12.406 0 22.5 10.094 22.5 22.5v177.617c8.812-6.713 21.485-6.045 29.531 2 4.249 4.249 6.59 9.899 6.59 15.91 0 3.415-.756 6.714-2.188 9.705l6.204 6.204c8.772 8.773 8.772 23.048.001 31.82l-42.335 42.335c-2.93 2.928-7.678 2.928-10.607 0-2.929-2.93-2.929-7.678 0-10.607l42.336-42.334c2.923-2.924 2.923-7.683-.001-10.607l-5.304-5.303-1.151 1.151c-10.074 10.074-30.64 30.641-53.076 53.076v136.033c-.001 12.406-10.094 22.5-22.501 22.5zm-92.634-85.137c-7.3 8.88-18.647 24.313-24.713 34.635 10.321-6.066 25.755-17.415 34.634-24.715zm10.263-10.95 10.606 10.606c22.803-22.802 111.833-111.833 136.734-136.734l6.454-6.454v-.001c1.417-1.416 2.197-3.3 2.197-5.303s-.78-3.887-2.196-5.303c-2.926-2.924-7.683-2.926-10.606 0zm-144.349-295.913h196.441c-3.096-8.73-11.437-15-21.215-15h-24.073c-10.463 0-19.463-7.108-21.888-17.285l-5.34-22.414c-2.804-11.771-13.21-20.117-25.306-20.298-12.25-.205-23.326 8.63-26.262 20.956l-5.183 21.756c-2.423 10.177-11.423 17.285-21.886 17.285h-24.073c-9.779 0-18.12 6.27-21.215 15zm151.72 242h-137c-4.143 0-7.5-3.357-7.5-7.5s3.357-7.5 7.5-7.5h137c4.143 0 7.5 3.357 7.5 7.5s-3.357 7.5-7.5 7.5zm10-45h-147c-4.143 0-7.5-3.357-7.5-7.5s3.357-7.5 7.5-7.5h147c4.143 0 7.5 3.357 7.5 7.5s-3.357 7.5-7.5 7.5zm20-45h-167c-4.143 0-7.5-3.357-7.5-7.5s3.357-7.5 7.5-7.5h167c4.143 0 7.5 3.357 7.5 7.5s-3.357 7.5-7.5 7.5zm-22.75-45c-4.143 0-7.5-3.357-7.5-7.5v-15.25h-15.25c-4.143 0-7.5-3.357-7.5-7.5s3.357-7.5 7.5-7.5h15.25v-15.25c0-4.143 3.357-7.5 7.5-7.5s7.5 3.357 7.5 7.5v15.25h15.25c4.143 0 7.5 3.357 7.5 7.5s-3.357 7.5-7.5 7.5h-15.25v15.25c0 4.143-3.357 7.5-7.5 7.5zm-55.25 0h-89c-4.143 0-7.5-3.357-7.5-7.5s3.357-7.5 7.5-7.5h89c4.143 0 7.5 3.357 7.5 7.5s-3.357 7.5-7.5 7.5zm-89.001-45c-4.123 0-7.476-3.33-7.499-7.458-.023-4.142 3.315-7.519 7.458-7.542h89.043c4.123 0 7.476 3.33 7.499 7.458.023 4.142-3.315 7.519-7.458 7.542h-89c-.013 0-.028 0-.043 0z"/></g></g></svg>