<svg id="Capa_1" enable-background="new 0 0 512 512" height="512" viewBox="0 0 512 512" width="512" xmlns="http://www.w3.org/2000/svg"><g><g><path d="m406 7.5h-166.972l-133.786 270s-14.243 67.336-14.243 155.349v56.651l314.5 7c4.142 0 7.5-3.358 7.5-7.5z" fill="#495959"/><path d="m406 7.5v474.5c0 4.142-3.358 7.5-7.5 7.5h-307.5c0 8.284 6.716 15 15 15h270c8.284 0 45-92.883 45-101.168v-380.832c0-8.284-6.716-15-15-15z" fill="#3f4a4a"/><path d="m106 7.5c-8.284 0-15 6.716-15 15v187.81h72.001v-202.81z" fill="#eef9fa"/><path d="m163.001 7.5-72.001 202.81v45.251h88.067v-248.061z" fill="#dcf2f6"/><path d="m110.546 403.639c90.16 21.889 163.734.99 204.527-53.983 15.572-20.985 30.228-62.364 31.386-88.263 3.054-68.309-31.782-130.493-114.091-190.011-12.506-9.043-17.462-30.407-12.299-44.95l2.838-18.932h-43.84l-88.067 248.061v147.127s13.678-.474 19.546.951z" fill="#87a0af"/><path d="m119.882 410.024c88.502 21.487 162.724-4.028 202.767-57.991 6.646-8.956 17.668-13.423 28.7-11.789 23.052 3.414 31.685-3.417 35.54-14.274 3.848-10.838 1.47-21.564-18.474-33.425-9.561-5.686-15.454-16.04-14.957-27.152 2.998-67.054-31.198-133.095-111.993-191.518-12.276-8.877-17.141-24.848-12.073-39.124l9.636-27.251h-16.122l-7.515 21.251c-5.068 14.276-.203 35.247 12.073 44.124 80.795 58.423 114.991 119.464 111.993 186.518-1.137 25.422-15.523 66.041-30.809 86.64-40.043 53.963-112.265 74.478-200.767 52.991-5.76-1.398-11.736.246-16.882 3.664v30.161c.001-15.149 14.162-26.399 28.883-22.825z" fill="#607882"/><path d="m302.211 294.878c14.215-40.041 5.434-96.577-33.64-135.651-30.089-26.442-77.425-13.937-90.827 23.812l-43.746 123.222c-7.763 21.867-1.338 44.519 13.346 59.293 11.2 8.738 23.122 10.511 33.813 10.488 60.15-.132 103.441-31.553 121.054-81.164z" fill="#dcf2f6"/><path d="m268.571 159.227c28.68 33.725 42.855 90.61 28.64 130.651-17.613 49.611-60.904 81.032-121.055 81.164-10.691.023-20.486-1.914-28.813-5.488 10.041 10.103 23.944 16.522 39.813 16.488 60.15-.132 103.442-31.553 121.055-81.164 17.386-48.972 5.037-102.388-39.64-141.651z" fill="#bae6ef"/><path d="m406 388.332v93.668c0 4.142-3.358 7.5-7.5 7.5h-37.5c0 8.284 6.716 15 15 15h30c8.284 0 15-6.716 15-15v-86.168c0-8.284-6.716-15-15-15z" fill="#dcf2f6"/><path d="m406 482v-93.668h-30c-8.284 0-15 6.716-15 15v86.168h37.5c4.142 0 7.5-3.358 7.5-7.5z" fill="#eef9fa"/></g><g><path d="m406 512h-300c-12.406 0-22.5-10.094-22.5-22.5v-467c0-12.406 10.094-22.5 22.5-22.5h300c12.406 0 22.5 10.094 22.5 22.5v44.997c0 4.143-3.357 7.5-7.5 7.5s-7.5-3.357-7.5-7.5v-44.997c0-4.136-3.364-7.5-7.5-7.5h-161.638l-7.903 22.26c-3.948 11.123-.083 23.681 9.4 30.538 40.161 29.04 70.289 60.969 89.547 94.897 18.546 32.674 27.141 67.339 25.544 103.032-.366 8.204 3.962 16.009 11.298 20.371 20.421 12.145 27.522 26.007 21.709 42.38-5.823 16.403-20.125 22.677-43.707 19.185-8.346-1.233-16.614 2.15-21.577 8.839-21.106 28.443-51.215 49.191-87.07 60.001-37.009 11.157-79.711 11.438-123.49.81-4.735-1.15-9.649-.072-13.494 2.95-3.889 3.057-6.118 7.645-6.118 12.586v56.651c0 4.136 3.364 7.5 7.5 7.5h248.785c-.832-2.347-1.285-4.872-1.285-7.5v-86.168c0-12.406 10.094-22.5 22.5-22.5h30c2.628 0 5.153.453 7.5 1.285v-284.62c0-4.143 3.357-7.5 7.5-7.5s7.5 3.357 7.5 7.5v392.003c-.001 12.406-10.095 22.5-22.501 22.5zm-30-15h30c4.136 0 7.5-3.364 7.5-7.5v-86.168c0-4.136-3.364-7.5-7.5-7.5h-30c-4.136 0-7.5 3.364-7.5 7.5v86.168c0 4.136 3.364 7.5 7.5 7.5zm-261.661-95.144c2.433 0 4.885.29 7.312.88 81.726 19.838 154.616-.783 194.976-55.173 8.266-11.139 21.998-16.788 35.82-14.738 22.844 3.38 25.682-4.597 27.375-9.365 4.516-12.72-7.852-20.074-15.241-24.469-12.097-7.192-19.23-20.195-18.615-33.934 1.468-32.829-6.475-64.777-23.604-94.958-18.189-32.045-46.885-62.375-85.291-90.147-14.845-10.733-20.909-30.353-14.746-47.71l6.12-17.242h-44.083l-32.947 92.804c-1.385 3.904-5.675 5.945-9.576 4.559-3.904-1.386-5.944-5.673-4.559-9.576l31.165-87.787h-62.445c-4.136 0-7.5 3.364-7.5 7.5v189.519l27.971-78.786c1.385-3.904 5.675-5.946 9.576-4.559 3.903 1.386 5.944 5.673 4.559 9.576l-42.106 118.604v149.434c4.818-2.915 10.275-4.432 15.839-4.432zm276.661 80.144c-4.143 0-7.5-3.357-7.5-7.5v-56.168c0-4.143 3.357-7.5 7.5-7.5s7.5 3.357 7.5 7.5v56.168c0 4.143-3.357 7.5-7.5 7.5zm-203.975-92.459c-20.887 0-39.811-9.818-51.939-26.955-12.111-17.111-15.16-39.105-8.155-58.834l43.746-123.223c7.151-20.145 23.783-35.385 44.488-40.767 20.595-5.354 42.41-.183 58.357 13.831 45.31 39.818 60.919 95.815 41.756 149.793-6.232 17.558-15.495 32.961-27.532 45.781-2.836 3.02-7.579 3.17-10.602.334-3.02-2.835-3.169-7.581-.334-10.602 10.61-11.301 18.797-24.938 24.333-40.531 17.033-47.981 3.007-97.891-37.523-133.508-12.386-10.886-28.672-14.745-44.682-10.581-16.121 4.19-28.56 15.587-34.127 31.268l-43.746 123.223c-5.454 15.364-3.171 31.82 6.264 45.15 9.278 13.109 23.744 20.621 39.698 20.621h.112c24.483-.053 46.292-5.453 64.821-16.052 3.592-2.057 8.177-.81 10.233 2.786s.81 8.177-2.786 10.233c-20.815 11.907-45.119 17.974-72.235 18.032-.048.001-.098.001-.147.001z"/></g></g></svg>