<svg id="Capa_1" enable-background="new 0 0 512.031 512.031" height="512" viewBox="0 0 512.031 512.031" width="512" xmlns="http://www.w3.org/2000/svg"><g><g><path d="m440.093 486.945-83.845-290.979c-3.839-13.256-13.177-32.832-26.864-43.858-9.404-6.161-19.993-10.559-31.259-12.834l-33.062 84.253c9.001 4.903 15.919 15.723 18.96 26.222l34.688 119.781 19.455 14.236-14.094 15.764c-2.478 16.529-16.69 30-34.835 30h-80.448c-4.427 14.382-7.052 22.911-7.052 22.911l-27.446-8.952 4.296-13.959h-87.434c-6.677 0-12.551 4.414-14.408 10.828l-14.24 49.172 370.384 7c4.995.001 8.594-4.788 7.204-9.585z" fill="#dcf2f6"/><path d="m254.413 227.498 3.529-12.191 22.521-77.809c6.022 0 11.929.618 17.663 1.776-6.829 22.187-26.499 86.096-26.499 86.097 5.109 5.863 9.356 13.879 12.397 24.379-3.818-13.181-15.888-22.252-29.611-22.252zm196.68 267.447-31.975-110.414-20-15 11.312-15-44.182-152.565c-6.093-21.04-19.453-38.451-36.864-49.858 7.385 9.785 13.025 21.602 16.864 34.858l52.87 182.565h-80.407l4.344 15c1.474 5.089 1.741 10.174 1.018 15h83.734l24.768 85.526c.648 2.239-1.031 4.474-3.362 4.474h-366.708l-1.568 5.414c-1.389 4.797 2.21 9.586 7.204 9.586h375.748c4.995 0 8.594-4.789 7.204-9.586z" fill="#bae6ef"/><path d="m201.737 452.442s2.625-8.529 7.052-22.911h-30.201l-4.296 13.959z" fill="#dcf2f6"/><path d="m394.774 354.531h-143.173l-4.344 15 158.861 7z" fill="#eef9fa"/><path d="m419.118 384.531-8.688-30h-15.656l3.048 10.526c.648 2.239-1.031 4.474-3.362 4.474h-147.203l-4.344 15z" fill="#dcf2f6"/><path d="m262.093 47.131-65.118-11.942-5.592 18.458 66.741 24.227z" fill="#dcf2f6"/><path d="m262.093 47.131-7.519 24.816-63.191-18.3-7.601 25.088 77.398 22.415 13.194-43.547z" fill="#bae6ef"/><path d="m280.434 28.685c-1.034-.658-2.171-1.188-3.408-1.546l-66.014-19.118c-6.984-2.023-14.286 2-16.309 8.984-.164.565-.282 1.16-.369 1.772l77.268 28.353c.001.001 10.199-9.493 8.832-18.445z" fill="#87a0af"/><path d="m280.434 28.685c-2.194 4.413-6.706 8.585-9.123 10.621-.978.824-2.304 1.097-3.533.741l-73.444-21.269c-.983 6.953 2.64 16.411 2.64 16.411l77.398 22.414s9.614-7.171 11.637-14.156c1.666-5.748-.769-11.703-5.575-14.762z" fill="#607882"/><path d="m189.961 343.031-7-39.484-15 .211v35.773l18.5 7c1.933 0 3.5-1.567 3.5-3.5z" fill="#607882"/><path d="m182.961 303.547v32.484c0 1.933-1.567 3.5-3.5 3.5h-11.5v7.5c0 4.142 3.358 7.5 7.5 7.5h15c4.142 0 7.5-3.358 7.5-7.5v-43.694z" fill="#495959"/><path d="m122.244 327.467 15.193-37.11-12.789-7.841-19.125 30.232 11.892 15.806c1.634 1.033 3.796.546 4.829-1.087z" fill="#607882"/><path d="m137.437 290.357-17.366 27.452c-1.033 1.634-3.195 2.12-4.829 1.087l-9.719-6.148-4.01 6.338c-2.214 3.5-1.172 8.133 2.329 10.348l12.676 8.019c3.5 2.214 8.133 1.172 10.348-2.329l23.359-36.926z" fill="#495959"/><path d="m151.959 300.138c49.607 14.366 71.263-18.714 73.127-25.033l-122.357-35.434c-1.756 6.062.014 18.867 7.331 32.056 10.33 14.28 26.199 23.865 41.899 28.411z" fill="#87a0af"/><path d="m225.085 275.105c-1.864 6.319-29.52 32.399-79.127 18.033-15.7-4.547-27.413-12.456-35.899-21.411 8.032 14.478 22.753 29.419 46.899 36.411 46.143 13.363 78.732-16.225 82.465-28.881z" fill="#607882"/><path d="m172.452 63.269c-7.957-2.304-16.276 2.278-18.581 10.236l-51.144 166.167 122.357 35.434 33.039-88.169s21.557-89.215 22.513-92.321c-.103-.032-.201-.075-.305-.105z" fill="#eef9fa"/><path d="m280.637 94.616c-.956 3.106-55.552 180.49-55.552 180.49l14.339 4.152 51.144-166.167c2.274-7.853-2.166-16.046-9.931-18.475z" fill="#dcf2f6"/></g><g><path d="m443.889 512.031h-375.747c-4.761 0-9.131-2.183-11.992-5.989-2.86-3.806-3.741-8.611-2.417-13.184l15.808-54.586c2.769-9.562 11.657-16.241 21.612-16.241h76.808c4.142 0 7.5 3.358 7.5 7.5s-3.358 7.5-7.5 7.5h-76.807c-3.319 0-6.281 2.226-7.204 5.414l-15.808 54.586h375.748l-30.407-105h-33.621c-4.142 0-7.5-3.358-7.5-7.5s3.358-7.5 7.5-7.5h29.277l-4.344-15h-147.558l-4.344 15h96.968c4.142 0 7.5 3.358 7.5 7.5s-3.358 7.5-7.5 7.5h-17.957c.57 10.055-2.446 19.997-8.736 28.228-8.146 10.659-20.513 16.772-33.931 16.772h-91.276c-4.142 0-7.5-3.358-7.5-7.5s3.358-7.5 7.5-7.5h91.276c8.705 0 16.728-3.966 22.012-10.88 4.25-5.562 6.197-12.325 5.612-19.12h-223.948c-4.142 0-7.5-3.358-7.5-7.5s3.358-7.5 7.5-7.5h144.364l7.12-24.586c.929-3.207 3.865-5.414 7.204-5.414h52.786l-27.568-95.195c-2.295-7.926-8.443-13.885-16.182-16.002l-14.032 45.589c-2.875 9.662-14.837 21.464-29.112 28.718-3.462 1.76-7.488 3.494-12.031 4.958v31.932c0 8.271-6.729 15-15 15h-15c-8.271 0-15-6.729-15-15v-30.244c-1.834-.417-3.698-.897-5.589-1.444-1.882-.545-3.715-1.137-5.498-1.771l-16.17 25.562c-2.142 3.386-5.474 5.735-9.383 6.615-3.909.879-7.927.184-11.313-1.958l-12.676-8.019c-6.99-4.422-9.079-13.706-4.658-20.695l17.101-27.033c-15.423-18.486-19.735-40.155-16.752-50.458.001-.002.001-.005.002-.007 0 0 0 0 0-.001.002-.007.004-.014.006-.021 0 0 0 0 0-.001.011-.036.021-.072.033-.107l11.787-38.294c1.218-3.958 5.417-6.181 9.374-4.961 3.959 1.218 6.181 5.416 4.962 9.374l-9.548 31.023 122.286 35.413 48.953-159.048c.539-1.909.309-3.915-.649-5.654-.967-1.754-2.559-3.028-4.483-3.585l-107.88-31.242c-3.972-1.15-8.14 1.146-9.29 5.118-.012.04-.023.08-.036.12l-29.997 97.46c-1.218 3.959-5.415 6.182-9.374 4.962-3.959-1.218-6.181-5.416-4.962-9.374l29.979-97.404c3.478-11.878 15.96-18.733 27.852-15.29l7.608 2.203 6.945-22.922c-1.438-4.494-3.645-13.336-1.592-20.427 3.17-10.945 14.651-17.271 25.599-14.102l66.015 19.118c5.302 1.536 9.689 5.044 12.353 9.879s3.285 10.417 1.75 15.72c-2.069 7.144-8.744 13.479-12.342 16.483l-6.919 22.839 8.464 2.451c5.772 1.672 10.549 5.491 13.449 10.755s3.576 11.342 1.905 17.115c-.012.041-.024.081-.036.12l-4.772 15.505c37.937 4.902 69.691 31.794 80.489 69.078l8.243 28.462c1.152 3.979-1.139 8.138-5.118 9.291-3.981 1.151-8.139-1.14-9.291-5.118l-8.243-28.462c-9.365-32.339-37.393-55.427-70.57-58.665l-23.423 76.101c12.523 3.578 22.446 13.297 26.175 26.175l28.776 99.368h80.447l-24.372-84.159c-1.152-3.979 1.139-8.138 5.118-9.291s8.138 1.14 9.291 5.118l67.811 234.159c1.324 4.573.443 9.378-2.417 13.184-2.861 3.804-7.232 5.986-11.993 5.986zm-268.428-193.113v28.113h15v-28.613c-4.669.582-9.679.796-15 .5zm-52.285-20.048-15.325 24.226 12.676 8.019 15.045-23.783c-4.551-2.549-8.678-5.402-12.396-8.462zm-13.201-49.292c2.318 14.495 15.003 41.491 49.07 51.356 7.426 2.15 14.438 3.064 20.956 3.065 23.282.002 40.327-11.652 47.96-20.253zm86.58-187.137 62.989 18.242 7.651-25.254c.465-1.534 1.409-2.878 2.693-3.837 3.063-2.303 8.027-7.155 8.917-10.23.869-3-.865-6.149-3.866-7.018l-66.015-19.118c-3.002-.869-6.149.865-7.018 3.866-.653 2.255.034 6.488.985 10.003l45.457 13.164c3.979 1.152 6.27 5.312 5.118 9.291s-5.309 6.27-9.291 5.118l-42.172-12.213z"/></g></g></svg>