<svg id="Capa_1" enable-background="new 0 0 512.011 512.011" height="512" viewBox="0 0 512.011 512.011" width="512" xmlns="http://www.w3.org/2000/svg"><g><g><path d="m489.506 407.659h-482v75l489 7z" fill="#fff3bf"/><path d="m489.506 407.659v71.5c0 1.933-1.567 3.5-3.5 3.5h-478.5v15h497v-90z" fill="#ffe07d"/><path d="m497.506 80.755c0-17.212-6.973-36.657-20.86-50.543-12.517-9.92-28.332-15.86-45.543-15.86-40.539 0-73.403 32.864-73.403 73.403 0 17.212 5.94 33.027 15.86 45.543 12.347 12.347 33.332 20.86 50.543 20.86 40.539 0 73.403-32.863 73.403-73.403z" fill="#eef9fa"/><path d="m476.646 30.212c9.92 12.517 15.86 28.332 15.86 45.543 0 40.539-32.864 73.403-73.403 73.403-17.212 0-33.026-5.94-45.543-15.86 13.445 16.965 34.216 27.86 57.543 27.86 40.539 0 73.403-32.864 73.403-73.403 0-23.327-10.895-44.098-27.86-57.543z" fill="#dcf2f6"/><path d="m146.661 323.763-22.509-103.36h-67.626c-7.364 0-13.639 5.346-14.809 12.616l-13.039 81.013c11.171 9.305 42.324 14.683 61.662 14.683 14.846 0 41.178-2.117 56.321-4.952z" fill="#94d8e6"/><path d="m138.962 233.019c-1.17-7.271-7.445-12.616-14.809-12.616l15.509 96.36c-15.143 2.835-34.475 4.952-49.322 4.952-19.337 0-46.272-3.592-61.662-7.683l-2.311 14.359 63.973 26.523 63.973-26.523z" fill="#6bbdd5"/><path d="m90.339 362.914c22.96 0 42.29-1.515 65.125-7.644 14.019-3.762 15.337-18.586 7.53-26.7-2.715-.915-5.724-1.044-8.682-.179-14.871 4.35-43.632 8.324-63.973 8.324-20.342 0-49.101-3.975-63.973-8.324-7.683-2.247-15.734 2.16-17.981 9.844-.211.722-.383 1.431-.517 2.126 1.797 4.999 7.034 11.957 12.081 13.433 25.186 7.365 45.686 9.12 70.39 9.12z" fill="#bae6ef"/><path d="m172.293 338.235c-1.382-4.725-4.962-8.203-9.299-9.665 1.583 10.004-1.081 16.522-10.493 19.048-21.795 5.85-40.246 7.296-62.161 7.296-23.58 0-43.147-1.675-67.187-8.706-4.818-1.409-10.52-3.293-15.284-5.848-2.005 10.394 4.48 17.688 15.284 20.848 24.04 7.03 43.607 8.706 67.187 8.706s43.148-1.674 67.187-8.706c11.525-3.37 18.136-11.447 14.766-22.973z" fill="#94d8e6"/><path d="m312.328 323.763-22.509-103.36h-67.626c-7.364 0-13.639 5.346-14.809 12.616l-13.039 81.013c11.171 9.305 42.324 14.683 61.662 14.683 14.846 0 41.178-2.117 56.321-4.952z" fill="#94d8e6"/><path d="m304.628 233.019c-1.17-7.271-7.445-12.616-14.809-12.616l15.509 96.36c-15.143 2.835-34.475 4.952-49.322 4.952-19.337 0-46.272-3.592-61.662-7.683l-2.311 14.359 63.973 26.523 63.973-26.523z" fill="#6bbdd5"/><path d="m256.006 362.914c22.96 0 42.29-1.515 65.125-7.644 14.019-3.762 15.337-18.586 7.53-26.7-2.715-.915-5.724-1.044-8.682-.179-14.871 4.35-43.632 8.324-63.973 8.324-20.342 0-49.101-3.975-63.973-8.324-7.683-2.247-15.734 2.16-17.981 9.844-.211.722-.383 1.431-.517 2.126 1.797 4.999 7.034 11.957 12.081 13.433 25.186 7.365 45.686 9.12 70.39 9.12z" fill="#bae6ef"/><path d="m337.959 338.235c-1.382-4.725-4.962-8.203-9.299-9.665 1.583 10.004-1.081 16.522-10.493 19.048-21.795 5.85-40.246 7.296-62.161 7.296-23.58 0-43.147-1.675-67.187-8.706-4.818-1.409-10.52-3.293-15.284-5.848-2.005 10.394 4.48 17.688 15.284 20.848 24.04 7.03 43.607 8.706 67.187 8.706s43.148-1.674 67.187-8.706c11.526-3.37 18.137-11.447 14.766-22.973z" fill="#94d8e6"/><path d="m477.995 323.763-22.509-103.36h-67.626c-7.364 0-13.639 5.346-14.809 12.616l-13.039 81.013c11.171 9.305 42.324 14.683 61.662 14.683 14.845 0 41.178-2.117 56.321-4.952z" fill="#94d8e6"/><path d="m470.295 233.019c-1.17-7.271-7.445-12.616-14.809-12.616l15.509 96.36c-15.143 2.835-34.475 4.952-49.322 4.952-19.337 0-46.272-3.592-61.662-7.683l-2.311 14.359 63.973 26.523 63.973-26.523z" fill="#6bbdd5"/><path d="m421.672 362.914c22.96 0 42.29-1.515 65.125-7.644 14.019-3.762 15.337-18.586 7.53-26.7-2.715-.915-5.724-1.044-8.682-.179-14.871 4.35-43.632 8.324-63.973 8.324-20.342 0-49.101-3.975-63.973-8.324-7.683-2.247-15.734 2.16-17.981 9.844-.211.722-.383 1.431-.517 2.126 1.797 4.999 7.034 11.957 12.081 13.433 25.186 7.365 45.686 9.12 70.39 9.12z" fill="#bae6ef"/><path d="m503.626 338.235c-1.382-4.725-4.962-8.203-9.299-9.665 1.583 10.004-1.081 16.522-10.493 19.048-21.795 5.85-40.246 7.296-62.161 7.296-23.58 0-43.147-1.675-67.187-8.706-4.818-1.409-10.52-3.293-15.284-5.848-2.005 10.394 4.48 17.688 15.284 20.848 24.04 7.03 43.607 8.706 67.187 8.706s43.148-1.674 67.187-8.706c11.525-3.37 18.137-11.447 14.766-22.973z" fill="#94d8e6"/></g><g><path d="m504.506 505.159h-173.1c-4.143 0-7.5-3.357-7.5-7.5s3.357-7.5 7.5-7.5h165.6v-75h-37.087v15.241h22.5c4.143 0 7.5 3.357 7.5 7.5s-3.357 7.5-7.5 7.5h-60c-4.143 0-7.5-3.357-7.5-7.5s3.357-7.5 7.5-7.5h22.5v-15.241h-354.222c-4.143 0-7.5-3.357-7.5-7.5s3.357-7.5 7.5-7.5h354.222v-23.467c-7.656.541-15.305.722-23.246.722-23.109 0-43.736-1.531-69.293-9.007-5.542-1.621-10.101-4.141-13.541-7.34-3.488 3.243-8.082 5.743-13.541 7.34-25.556 7.476-46.183 9.007-69.292 9.007-23.106 0-43.732-1.531-69.292-9.007-5.459-1.597-10.054-4.097-13.541-7.34-3.441 3.199-8 5.719-13.542 7.34-25.556 7.476-46.183 9.007-69.292 9.007-7.941 0-15.59-.181-23.246-.722v53.708h22.5c4.143 0 7.5 3.357 7.5 7.5s-3.357 7.5-7.5 7.5h-60c-4.143 0-7.5-3.357-7.5-7.5s3.357-7.5 7.5-7.5h22.5v-15.241h-37.087v75h286.4c4.143 0 7.5 3.357 7.5 7.5s-3.357 7.5-7.5 7.5h-293.9c-4.143 0-7.5-3.357-7.5-7.5v-90c0-4.143 3.357-7.5 7.5-7.5h44.587v-25.024c-9.824-1.366-19.972-3.489-31.046-6.728-7.545-2.206-13.438-6.14-17.042-11.374-4.101-5.956-5.075-13.185-2.817-20.903 2.58-8.824 10.24-14.81 18.865-15.706l14.26-88.597c1.764-10.966 11.106-18.925 22.214-18.925h67.626c11.105 0 20.448 7.959 22.214 18.924l14.26 88.598c4.688.486 9.09 2.477 12.547 5.609 5.486-4.971 13.354-7.065 20.966-4.84 13.247 3.874 41.269 8.021 61.867 8.021 17.73 0 40.956-3.072 55.528-6.397l-14.262-88.607c-.589-3.655-3.703-6.308-7.405-6.308h-67.626c-3.702 0-6.816 2.653-7.405 6.309l-10.82 67.23c-.658 4.089-4.508 6.873-8.596 6.213-4.09-.658-6.871-4.507-6.213-8.596l10.82-67.231c1.766-10.966 11.108-18.925 22.214-18.925h67.626c11.107 0 20.45 7.959 22.214 18.925l14.262 88.602c4.67.496 9.052 2.483 12.496 5.604 3.457-3.132 7.858-5.122 12.547-5.609l14.26-88.597c1.766-10.966 11.108-18.925 22.214-18.925h67.626c11.107 0 20.45 7.959 22.214 18.925l14.26 88.596c8.627.896 16.284 6.882 18.865 15.707 2.258 7.719 1.283 14.947-2.817 20.903-3.604 5.234-9.497 9.168-17.042 11.374-11.074 3.238-21.222 5.361-31.046 6.728v25.024h44.587c4.143 0 7.5 3.357 7.5 7.5v90c-.002 4.143-3.36 7.5-7.502 7.5zm-349.086-151.148c4.137-1.21 7.295-3.157 8.897-5.483 1.498-2.175 1.751-4.853.776-8.187-1.083-3.702-4.981-5.832-8.677-4.751-16.26 4.756-45.902 8.625-66.078 8.625-20.171 0-49.813-3.869-66.077-8.625-3.705-1.08-7.596 1.049-8.678 4.751-.975 3.334-.722 6.012.776 8.187 1.602 2.326 4.761 4.273 8.897 5.483 23.849 6.975 43.266 8.403 65.081 8.403 21.821 0 41.239-1.429 65.083-8.403zm35.504 0c23.848 6.975 43.265 8.403 65.081 8.403 21.819 0 41.237-1.429 65.082-8.403 4.137-1.21 7.296-3.157 8.897-5.483 1.498-2.175 1.751-4.853.776-8.187-1.083-3.702-4.982-5.832-8.677-4.751-16.26 4.756-45.903 8.625-66.079 8.625-20.172 0-49.814-3.869-66.078-8.625-3.705-1.08-7.596 1.049-8.678 4.751-.975 3.334-.722 6.012.776 8.187 1.604 2.325 4.764 4.273 8.9 5.483zm164.671-18.421c-3.705-1.08-7.595 1.049-8.677 4.751-.975 3.334-.722 6.012.776 8.187 1.602 2.326 4.761 4.273 8.897 5.483 23.844 6.975 43.262 8.403 65.081 8.403 21.815 0 41.232-1.429 65.081-8.403 4.137-1.21 7.296-3.157 8.897-5.483 1.498-2.175 1.751-4.853.776-8.187-1.083-3.702-4.981-5.832-8.677-4.751-8.399 2.456-20.945 4.81-34.421 6.458-4.113.507-7.853-2.423-8.355-6.533-.503-4.112 2.422-7.853 6.533-8.355 9.405-1.15 18.504-2.696 25.646-4.328l-14.263-88.621c-.589-3.655-3.703-6.308-7.405-6.308h-67.626c-3.702 0-6.816 2.653-7.405 6.309l-14.263 88.617c14.575 3.321 37.771 6.387 55.481 6.387 4.143 0 7.5 3.357 7.5 7.5s-3.357 7.5-7.5 7.5c-20.174-.001-49.816-3.87-66.076-8.626zm-320.737-12.763c14.578 3.322 37.773 6.388 55.48 6.388 17.711 0 40.906-3.065 55.481-6.387l-14.263-88.618c-.589-3.654-3.703-6.308-7.405-6.308h-67.625c-3.702 0-6.816 2.652-7.405 6.308zm396.244-154.169c-44.609 0-80.902-36.293-80.902-80.902 0-4.143 3.357-7.5 7.5-7.5s7.5 3.357 7.5 7.5c0 36.339 29.563 65.902 65.902 65.902s65.903-29.563 65.903-65.902-29.564-65.903-65.903-65.903c-25.403 0-48.112 14.191-59.263 37.036-1.817 3.722-6.303 5.268-10.03 3.45-3.723-1.817-5.267-6.308-3.45-10.03 13.687-28.038 41.56-45.456 72.743-45.456 44.61 0 80.903 36.293 80.903 80.903.001 44.609-36.292 80.902-80.903 80.902zm23.59-73.402h-23.59c-4.143 0-7.5-3.357-7.5-7.5v-43.404c0-4.143 3.357-7.5 7.5-7.5s7.5 3.357 7.5 7.5v35.903h16.09c4.143 0 7.5 3.357 7.5 7.5s-3.357 7.501-7.5 7.501z"/></g></g></svg>