<svg id="Capa_1" enable-background="new 0 0 512.002 512.002" height="512" viewBox="0 0 512.002 512.002" width="512" xmlns="http://www.w3.org/2000/svg"><g><g><path d="m497.502 81.66c0-19.355-8.128-41.1-23.094-56.066-13.948-11.308-31.712-18.094-51.067-18.094-44.823 0-81.16 36.337-81.16 81.16 0 19.355 6.786 37.119 18.094 51.067 16.857 16.857 36.711 23.094 56.066 23.094 44.824-.001 81.161-36.337 81.161-81.161z" fill="#ffe07d"/><path d="m474.408 25.594c11.308 13.948 18.094 31.711 18.094 51.066 0 44.823-36.337 81.16-81.16 81.16-19.355 0-37.118-6.786-51.066-18.094 14.88 18.354 37.598 30.094 63.066 30.094 44.823 0 81.16-36.337 81.16-81.16 0-25.468-11.74-48.186-30.094-63.066z" fill="#ffc250"/><path d="m132.829 48.053c0-10.066-3.542-22.15-13.472-32.081-7.687-5.336-17.016-8.472-27.082-8.472-26.263 0-47.553 21.29-47.553 47.553 0 10.066 3.136 19.395 8.472 27.081 10.018 10.018 22.015 13.472 32.081 13.472 26.263.001 47.554-21.29 47.554-47.553z" fill="#e6989e"/><path d="m119.356 15.972c5.336 7.686 8.472 17.015 8.472 27.081 0 26.263-21.29 47.553-47.553 47.553-10.066 0-19.395-3.136-27.081-8.472 8.587 12.368 22.884 20.472 39.081 20.472 26.263 0 47.553-21.29 47.553-47.553.001-16.197-8.104-30.494-20.472-39.081z" fill="#df646e"/><path d="m389.9 231.641c0-61.821-22.779-108.575-59.387-135.832-21.221-12.495-46.5-18.31-74.511-18.31-83.216 0-142.376 51.227-142.376 176.916 0 0-23.13 23.13-48 48 9.417 9.417 20.527 17.669 32.729 24.845h291.545s0-90.204 0-95.619z" fill="#b46e5a"/><path d="m446.378 302.416c-24.87-24.87-48-48-48-48 0-83.381-26.043-133.981-67.865-158.606 29.207 28.481 48.167 73.788 52.103 134.473.35 5.403-7.17 7.104-9.151 2.065-10.474-26.89-37.583-43.497-63.555-52.072-42.701-14.098-93.164-23.624-103.885-51.149l-2.717-6.976c-2.1-5.391-9.857-5.02-11.125 1.307-10.532 52.549-27.497 82.899-58.557 113.958v37.761c0 10.16-3.965 19.918-11.051 27.199l-24.22 24.885c9.172 5.394 18.961 10.183 29.122 14.392l-11.469 27.688c33.589 13.913 57.16 17.522 89.704 17.522h100.578c32.544 0 56.115-3.609 89.704-17.522l-11.469-27.688c23.682-9.809 45.357-22.741 61.853-39.237z" fill="#915041"/><path d="m205.671 402.58c-.417 6.075-4.48 11.343-10.339 13.24l-35.258 11.415s34.008 35.845 95.927 35.845 96.154-35.784 96.154-35.784l-34.421-11.134z" fill="#ebae9d"/><path d="m317.735 416.161-.668-.216c-6.102-1.974-10.274-7.609-10.381-14.022l-.394-35.061h-100.579v34.687c0 .346-.018.689-.041 1.031 18.631 16.814 41.667 26.542 65.33 26.542 16.284-.001 32.272-4.61 46.733-12.961z" fill="#e09380"/><path d="m355.378 273.021-7-53.743c-38.809-40.763-117.53-26.419-142.354-90.152-8.598 45.436-27.365 83.968-57.399 114.002v29.893c0 72.822 51.979 126.1 107.376 126.1 47.77-3.537 99.377-50.093 99.377-126.1z" fill="#ebae9d"/><path d="m348.378 219.278v53.743c0 72.822-55.581 121.333-92.376 126.1 55.397 0 107.376-53.279 107.376-126.1v-29.893c-3.765-9.665-8.892-17.435-15-23.85z" fill="#e09380"/><path d="m214.395 316.682h83.213c6.191 0 10.15 6.509 7.406 12.059-17.633 35.654-80.392 35.654-98.025 0-2.744-5.55 1.215-12.059 7.406-12.059z" fill="#eef9fa"/><path d="m256.002 286.682c2.84 0 5.679-.802 8.165-2.406 4.97-3.208 8.108-10.342 6.336-16.693l-1.796-6.439c-3.588-12.86-21.82-12.86-25.408 0l-1.796 6.439c-1.772 6.352 1.366 13.485 6.336 16.693 2.483 1.604 5.323 2.406 8.163 2.406" fill="#e09380"/><path d="m396.972 438.04c-6.958-4.294-13.89-7.778-20.352-10.584-.001.001-41.248 34.622-120.619 34.622s-120.618-34.621-120.619-34.622c-23.076 10.019-52.181 28.69-66.803 62.043l370.117 7c-5.951-22.117-24.482-45.906-41.724-58.459z" fill="#bae6ef"/><path d="m448.697 504.5c-8.716-32.39-30.329-53.255-51.725-66.46 12.847 11.728 24.105 27.04 30.402 46.936.71 2.242-.996 4.524-3.348 4.524h-355.446c-2.063 4.705-3.846 9.693-5.274 15z" fill="#94d8e6"/><path d="m256.002 448.079c-54.448 0-87.349-31.159-87.349-31.159s-14.675 2.464-33.27 10.537c.001.001 41.248 50.622 120.619 50.622s120.618-50.621 120.619-50.622c-18.595-8.073-33.27-10.537-33.27-10.537s-32.901 31.159-87.349 31.159z" fill="#eef9fa"/></g><g><path d="m448.692 512.002c-3.309 0-6.337-2.206-7.237-5.553-7.577-28.158-26.403-50.489-55.956-66.374-2.368-1.272-4.714-2.451-7.019-3.542-8.542 8.779-30.229 28.134-64.74 39.761-3.927 1.322-8.18-.787-9.502-4.713s.787-8.18 4.713-9.502c26.774-9.021 44.917-22.977 54.448-31.784-7.855-2.81-14.275-4.454-17.944-5.285-9.677 7.912-41.566 30.569-89.453 30.569s-79.776-22.657-89.453-30.57c-3.666.831-10.084 2.475-17.938 5.284 14.792 13.65 50.902 40.286 107.391 40.286 8.216 0 16.4-.575 24.325-1.71 4.103-.58 7.899 2.263 8.486 6.362.587 4.101-2.261 7.899-6.361 8.486-8.626 1.235-17.525 1.861-26.45 1.861-68.683 0-110.192-36.454-122.476-49.047-2.305 1.091-4.653 2.271-7.021 3.543-29.553 15.885-48.379 38.216-55.956 66.374-1.076 4-5.189 6.37-9.191 5.293-3.999-1.076-6.369-5.191-5.293-9.191 8.61-31.997 30.663-58.25 63.774-75.921 24.672-13.167 46.651-16.952 47.575-17.106 2.324-.393 4.688.333 6.396 1.951.052.049 1.059.976 2.956 2.472l16.257-5.263c3.104-1.005 5.189-3.872 5.189-7.135v-7.251c-27.651-.502-51.535-4.136-85.074-18.028-1.838-.761-3.298-2.221-4.059-4.059-.762-1.838-.762-3.902 0-5.74l8.638-20.854c-23.406-10.463-42.691-23.192-57.396-37.897-1.406-1.407-2.196-3.314-2.196-5.304s.79-3.896 2.196-5.304l45.815-45.815c.32-40.8 6.926-75.427 19.648-102.955 12.475-26.994 30.854-47.373 54.63-60.57 3.619-2.009 8.188-.704 10.197 2.918 2.01 3.621.704 8.187-2.918 10.197-20.933 11.62-37.181 29.703-48.293 53.747-12.127 26.241-18.276 59.812-18.276 99.782 0 1.989-.79 3.896-2.196 5.304l-42.543 42.542c14.073 12.542 32.187 23.442 53.962 32.463 3.827 1.585 5.645 5.972 4.059 9.799l-8.564 20.677c23.186 8.957 41.173 12.471 60.588 13.648-3.66-3.241-7.17-6.742-10.497-10.488-22.446-25.266-34.808-59.125-34.808-95.339v-29.894c0-1.989.79-3.896 2.196-5.304 28.236-28.236 46.854-65.276 55.334-110.093.622-3.288 3.347-5.766 6.679-6.073 3.324-.311 6.465 1.628 7.679 4.746 13.204 33.898 43.355 43.604 75.277 53.88 19.917 6.411 36.715 12.341 50.183 21.11s24.809 20.819 31.895 39.011c.338.868.512 1.791.512 2.723v29.894c0 36.214-12.361 70.073-34.808 95.339-3.327 3.746-6.837 7.247-10.497 10.488 21.314-1.293 40.91-5.402 67.551-16.437 3.826-1.587 8.214.231 9.799 4.059 1.586 3.827-.231 8.214-4.059 9.799-33.459 13.859-57.31 17.509-84.877 18.024l.194 7.433c.055 3.278 2.141 6.095 5.191 7.082l15.887 5.139c1.882-1.495 2.879-2.422 2.933-2.473 1.708-1.618 4.077-2.341 6.396-1.951.924.154 22.903 3.939 47.575 17.106 33.111 17.671 55.164 43.924 63.774 75.921 1.076 4-1.294 8.115-5.293 9.191-.653.177-1.308.261-1.954.261zm-255.768-87.52c14.23 7.753 35.866 16.097 63.077 16.097 27.352 0 48.965-8.33 63.148-16.078l-4.393-1.421c-9.153-2.96-15.411-11.413-15.571-21.033l-.145-5.498c-13.692 6.564-28.354 10.072-43.04 10.072-14.598 0-29.168-3.464-42.789-9.952v4.88c0 9.789-6.257 18.392-15.57 21.406zm-36.799-178.282v26.821c0 32.538 11.017 62.858 31.021 85.377 18.757 21.113 43.854 33.223 68.855 33.223s50.099-12.109 68.855-33.223c20.005-22.519 31.021-52.839 31.021-85.377v-28.449c-6.49-15.773-17.216-25.917-30.233-33.378-4.211-2.032-11.17-4.568-19.666-4.568-9.754 0-19.44 2.931-26.577 8.04-3.367 2.413-8.054 1.636-10.464-1.731-2.412-3.368-1.637-8.053 1.731-10.464 4.359-3.122 9.271-5.617 14.529-7.424-.502-.161-1.002-.322-1.506-.484-27.991-9.011-56.77-18.272-74.826-44.128-4.047 15.143-9.299 29.363-15.735 42.621 3.873-.864 8.2-1.43 12.893-1.43 13.003 0 25.543 3.852 35.31 10.845 3.368 2.411 4.144 7.096 1.731 10.464-2.409 3.367-7.096 4.145-10.464 1.731-7.137-5.109-16.823-8.04-26.577-8.04-12.003 0-20.938 5.062-23.39 6.613-.333.211-.676.392-1.026.544-7.415 11.728-15.915 22.544-25.482 32.417zm99.877 116.78c-24.948 0-46.305-11.846-55.735-30.915-2.458-4.971-2.185-10.742.732-15.438 2.896-4.662 7.903-7.445 13.396-7.445h83.213c5.493 0 10.501 2.783 13.396 7.445 2.917 4.696 3.19 10.468.732 15.438-9.43 19.07-30.786 30.915-55.734 30.915zm-42.29-37.565c5.396 10.909 19.338 22.565 42.29 22.565s36.895-11.656 42.29-22.565c.056-.113.228-.46-.03-.875-.223-.358-.514-.358-.653-.358h-83.213c-.14 0-.431 0-.653.358-.259.415-.087.762-.031.875zm170.817 23.74c-2.943 0-5.735-1.743-6.932-4.632-1.586-3.827.231-8.214 4.059-9.799 21.775-9.021 39.889-19.921 53.962-32.463l-42.543-42.542c-1.406-1.407-2.196-3.314-2.196-5.304 0-68.013-17.565-116.352-51.526-143.55-.16-.117-.315-.241-.466-.371-21.32-16.877-49.043-25.494-82.885-25.494-14.509 0-28.133 1.639-40.493 4.87-4.015 1.045-8.106-1.352-9.153-5.358-1.048-4.008 1.352-8.105 5.358-9.153 13.598-3.556 28.499-5.359 44.288-5.359 30.722 0 57.051 6.614 78.684 19.462-.003-.268-.004-.534-.004-.802 0-48.888 39.772-88.66 88.66-88.66s88.66 39.772 88.66 88.66-39.772 88.66-88.66 88.66c-9.579 0-19.062-1.55-28.064-4.547 6.774 22.676 10.354 48.913 10.589 78.523l45.816 45.815c1.406 1.407 2.196 3.314 2.196 5.304s-.79 3.896-2.196 5.304c-16.125 16.124-37.754 29.872-64.286 40.862-.939.39-1.912.574-2.868.574zm3.876-195.63c10.681 5.76 22.711 8.795 34.937 8.795 40.616 0 73.66-33.044 73.66-73.66s-33.044-73.66-73.661-73.66-73.66 33.044-73.66 73.66c0 4.077.334 8.15.996 12.144 15.957 13.394 28.595 31.043 37.728 52.721zm-132.403 140.657c-4.35 0-8.579-1.247-12.232-3.605-7.956-5.135-12.037-15.887-9.493-25.009l1.798-6.439c2.524-9.05 10.533-15.13 19.928-15.13s17.403 6.08 19.929 15.13l1.796 6.438c2.545 9.124-1.536 19.876-9.492 25.011-3.655 2.357-7.885 3.604-12.234 3.604zm0-35.184c-1.014 0-4.403.3-5.48 4.161l-1.797 6.438c-.88 3.158.969 6.949 3.18 8.377 2.447 1.58 5.748 1.58 8.195 0 2.211-1.428 4.06-5.219 3.179-8.378l-1.796-6.438c-1.078-3.86-4.468-4.16-5.481-4.16zm42.387 6.107c-4.143 0-7.5-3.357-7.5-7.5v-16.757c0-4.143 3.357-7.5 7.5-7.5s7.5 3.357 7.5 7.5v16.757c0 4.143-3.357 7.5-7.5 7.5zm-84.775 0c-4.143 0-7.5-3.357-7.5-7.5v-16.757c0-4.143 3.357-7.5 7.5-7.5s7.5 3.357 7.5 7.5v16.757c0 4.143-3.358 7.5-7.5 7.5zm-206.119-55.949c-1.274 0-2.565-.324-3.748-1.009-3.585-2.073-4.812-6.661-2.737-10.247l57.482-99.406c-12.935-10.083-21.27-25.808-21.27-43.44 0-10.567 3.004-20.836 8.688-29.694 2.237-3.487 6.875-4.5 10.362-2.263 3.486 2.236 4.499 6.876 2.263 10.362-4.13 6.438-6.312 13.904-6.312 21.595 0 22.085 17.968 40.053 40.053 40.053 22.086 0 40.054-17.968 40.054-40.053-.001-22.086-17.969-40.054-40.055-40.054-4.578 0-9.064.765-13.335 2.271-3.904 1.378-8.19-.669-9.568-4.576-1.379-3.905.67-8.189 4.576-9.568 5.878-2.075 12.044-3.127 18.327-3.127 30.356 0 55.054 24.697 55.054 55.054s-24.697 55.053-55.054 55.053c-7.359 0-14.387-1.452-20.81-4.084l-57.472 99.387c-1.389 2.403-3.908 3.746-6.498 3.746zm415.846-73.064c-26.154 0-47.432-21.277-47.432-47.432 0-4.143 3.357-7.5 7.5-7.5s7.5 3.357 7.5 7.5c0 17.883 14.549 32.432 32.432 32.432s32.432-14.549 32.432-32.432c0-4.143 3.357-7.5 7.5-7.5s7.5 3.357 7.5 7.5c0 26.154-21.277 47.432-47.432 47.432zm14.445-56.551c-4.143 0-7.5-3.357-7.5-7.5v-15c0-4.143 3.357-7.5 7.5-7.5s7.5 3.357 7.5 7.5v15c0 4.143-3.358 7.5-7.5 7.5zm-30 0c-4.143 0-7.5-3.357-7.5-7.5v-15c0-4.143 3.357-7.5 7.5-7.5s7.5 3.357 7.5 7.5v15c0 4.143-3.358 7.5-7.5 7.5z"/></g></g></svg>