<svg id="Capa_1" enable-background="new 0 0 512 512" height="512" viewBox="0 0 512 512" width="512" xmlns="http://www.w3.org/2000/svg"><g><g><path d="m319.206 288.534c-9.385 11.096-20.719 17.084-37.283 17.084-9.739 0-18.818-3.43-25.944-9.267-7.06 5.788-16.082 9.267-25.902 9.267-9.691 0-18.692-3.326-25.781-9.068-.084 1.171-7.142 9.347-7.142 10.529v189.421l125.691-7v-182.421c.001-6.424-1.267-12.712-3.639-18.545z" fill="#df646e"/><path d="m204.154 307.079c0-1.182.058-2.358.142-3.529 7.089 5.741 16.09 9.068 25.781 9.068 9.82 0 18.842-3.479 25.902-9.267 7.126 5.837 16.204 9.267 25.944 9.267 16.563 0 30.85-9.897 37.283-24.084-2.554-6.279-6.39-12.031-11.36-16.839h-103.692c-9.587 9.276-15 22.044-15 35.384v197.421h133.691v-15h-118.691z" fill="#ca4646"/><path d="m177.333 84.438c10.862-17.677 43.32 14.092 89.667 14.092s75.923-32.203 87.667-13.092c.435.707.855 1.49 1.264 2.34 4.838-14.854 6.366-26.432 2.736-32.34-11.744-19.112-56.32 13.092-102.667 13.092s-90.923-32.203-102.667-13.092c-6.792 11.054 4.463 41.949 21.705 77.048-2.448-22.346-2.401-40.405 2.295-48.048z" fill="#ca4646"/><path d="m355.93 87.777c-.408-.85-.829-1.632-1.264-2.34-11.743-19.111-41.319 13.093-87.666 13.093s-78.805-31.769-89.667-14.092c-4.696 7.643-4.743 25.703-2.295 48.048 30.88 62.862 80.962 139.209 80.962 139.209s79.502-121.196 99.93-183.918z" fill="#df646e"/><path d="m300.846 269.691c0-63.676 111.449-121.207 67.336-218.864-1.988-4.4-11.415-15.533-14.263-19.408-20.735-15.516-52.886-23.919-97.919-23.919-66.847 0-105.348 18.49-120.181 51.327-38.78 85.85 68.336 152.999 68.336 212.868 0 2.621.392 5.149 1.116 7.533 3.649 4.254 10.466 10.39 20.807 10.39 14.317 0 21.923-5.939 21.923-14.923 0-173.172-109.245-177.14-87.667-212.258 13.366-21.753 41.319 13.093 87.666 13.093s68.828-28.151 88.116-15.348c6.572 4.362 7.551 10.256 7.551 10.256 18.957 30.852-87.667 38.752-87.667 201.257 0 2.211.278 4.357.799 6.406 4.661 6.712 12.309 11.517 21.124 11.517 14.317 0 22.923-9.627 22.923-19.927z" fill="#f6c4c8"/><path d="m168.333 70.438c11.744-19.112 41.32 13.092 87.667 13.092s75.923-32.203 87.667-13.092c0 0-1.902-9.4-7.457-15-18.958-19.112-48.863 13.092-95.21 13.092-36.262 0-68.273-33.145-83.667-8.092-24.851 40.442 83.667 44.752 83.667 207.257 0 8.983-7.606 14.923-21.923 14.923-4.661 0-9.456-1.236-13.807-3.39 3.228 10.642 13.111 18.39 24.807 18.39 14.317 0 25.923-11.606 25.923-25.923 0-162.505-106.624-170.405-87.667-201.257z" fill="#e6989e"/><path d="m376.181 58.827c-4.841-10.716-12.219-19.892-22.263-27.408 2.849 3.875 5.276 8.009 7.263 12.408 44.113 97.657-68.336 160.192-68.336 223.868 0 8.983-7.606 14.923-21.923 14.923-5.425 0-10.778-1.668-14.124-4.517 2.852 11.218 13.018 19.517 25.124 19.517 14.317 0 25.923-11.606 25.923-25.923.001-59.868 107.116-127.017 68.336-212.868z" fill="#e6989e"/><path d="m260.634 325.565c-1.46-.474-3.015-.738-4.634-.738-8.284 0-15 6.716-15 15 0 5.062 3.206 12.281 6.654 18.582 11.673 0 21.144-24.68 12.98-32.844z" fill="#eef9fa"/><path d="m271 339.827c0-6.666-4.352-12.309-10.366-14.262.233 1.052.366 2.141.366 3.262 0 8.695-9.45 23.746-13.346 29.582 4.01 7.33 8.346 13.418 8.346 13.418s15-21.049 15-32z" fill="#dcf2f6"/></g><g><path d="m322.846 512c-4.143 0-7.5-3.357-7.5-7.5v-81.849c0-4.143 3.357-7.5 7.5-7.5s7.5 3.357 7.5 7.5v81.849c0 4.143-3.358 7.5-7.5 7.5zm-66.846 0c-4.143 0-7.5-3.357-7.5-7.5v-130.32c-4.39-6.436-15-23.152-15-34.353 0-12.406 10.094-22.5 22.5-22.5s22.5 10.094 22.5 22.5c0 11.2-10.61 27.917-15 34.353v130.32c0 4.143-3.357 7.5-7.5 7.5zm0-179.673c-4.136 0-7.5 3.364-7.5 7.5 0 3.844 3.523 11.278 7.497 18.107 3.976-6.836 7.503-14.276 7.503-18.107 0-4.136-3.364-7.5-7.5-7.5zm-66.846 179.673c-4.143 0-7.5-3.357-7.5-7.5v-197.421c0-14.119 5.399-27.928 14.9-38.321-1.369-20.459-16.658-43.283-32.802-67.385-28.149-42.025-60.055-89.657-34.77-145.633 1.706-3.775 6.147-5.455 9.923-3.748 3.774 1.705 5.452 6.147 3.747 9.923-21.854 48.379 6.318 90.438 33.562 131.11 18.225 27.209 35.438 52.908 35.438 78.67 0 10.158 8.265 18.423 18.423 18.423s18.423-8.265 18.423-18.423c0-101.968-42.979-140.734-68.656-163.896-7.662-6.911-13.714-12.37-17.438-18.2-4.954-7.758-5.109-15.525-.463-23.088 4.468-7.271 11.334-10.448 20.406-9.452 6.638.731 14.035 3.613 22.601 6.95 13.747 5.355 30.855 12.021 51.05 12.021s37.303-6.665 51.05-12.021c8.565-3.337 15.963-6.219 22.601-6.95 9.069-1.002 15.939 2.182 20.406 9.452 4.647 7.562 4.491 15.33-.463 23.088-3.723 5.83-9.774 11.289-17.437 18.2-6.317 5.698-13.478 12.156-20.824 20.201-2.793 3.06-7.537 3.273-10.596.48s-3.273-7.537-.48-10.596c7.837-8.582 15.283-15.299 21.854-21.225 15.796-14.247 18.063-17.581 15.167-22.296-2.49-4.05-6.66-3.439-24.782 3.621-14.916 5.813-33.48 13.045-56.494 13.045s-41.578-7.232-56.495-13.044c-18.123-7.06-22.293-7.673-24.782-3.621-2.896 4.714-.629 8.048 15.168 22.296 13.461 12.143 31.897 28.772 46.993 56.104 8.361 15.138 14.717 31.688 19.117 49.877 5.506-22.786 14.07-42.995 25.782-60.977 2.261-3.472 6.906-4.452 10.377-2.191 3.472 2.26 4.452 6.906 2.191 10.377-20.76 31.875-30.852 71.73-30.852 121.845 0 10.158 8.265 18.423 18.423 18.423s18.423-8.265 18.423-18.423c0-25.762 17.214-51.461 35.438-78.67 27.244-40.673 55.416-82.731 33.562-131.11-14.061-31.131-52.196-46.915-113.345-46.915-43.786 0-75.989 8.137-95.714 24.185-3.216 2.615-7.938 2.129-10.551-1.084-2.614-3.213-2.129-7.937 1.084-10.551 22.469-18.281 57.857-27.55 105.181-27.55 67.575 0 110.31 18.754 127.017 55.739 25.285 55.977-6.62 103.608-34.77 145.634-16.144 24.102-31.433 46.926-32.802 67.385 9.501 10.394 14.9 24.202 14.9 38.321v85.572c0 4.143-3.357 7.5-7.5 7.5s-7.5-3.357-7.5-7.5v-85.572c0-6.519-1.564-12.947-4.457-18.721-5.78 10.01-16.6 16.76-28.966 16.76-10.446 0-19.789-4.818-25.923-12.348-6.134 7.529-15.477 12.348-25.923 12.348-12.366 0-23.186-6.75-28.966-16.76-2.893 5.773-4.457 12.202-4.457 18.721v197.421c.001 4.143-3.356 7.5-7.499 7.5z"/></g></g></svg>