<svg id="Capa_1" enable-background="new 0 0 512 512" height="512" viewBox="0 0 512 512" width="512" xmlns="http://www.w3.org/2000/svg"><g><g><path d="m137.869 275.938 154.567-16.401 70.077-101.931c0-50.499-11.589-94.497-54.771-127.321-25.119-14.84-57.922-22.785-98.473-22.785-107.149 0-160.245 55.429-160.245 147.105 0 31.412 6.246 57.383 18.755 77.966 16.447 23.429 46.39 36.773 70.09 43.367z" fill="#fff3bf"/><path d="m307.742 30.284c31.564 27.204 46.771 68.822 46.771 119.321 0 2.946-.058 5.84-.162 8.693-22.521 3.028-40.808 11.075-54.501 24.074-14.838 14.086-23.461 33.053-25.77 56.47-12.748-2.596-26.616-3.93-41.555-3.93-43.961 0-78.695 11.496-102.657 33.025-23.699-6.593-45.548-17.619-62.09-35.366 5.954 9.797 13.319 18.38 22.118 25.736l-40.872 73.78 88.884-49.239c20.294 5.908 44.07 8.862 71.361 8.862 107.149 0 160.244-45.429 160.244-137.105 0-56.98-20.518-99.952-61.771-124.321z" fill="#ffe07d"/><path d="m99.891 213.699c0 5.858 2.374 11.161 6.213 15l106.468-96.468-82.681 51.468z" fill="#ffe07d"/><path d="m121.105 234.912 30-30c0-5.858-2.374-11.161-6.213-15l-38.787 38.787c3.838 3.839 9.142 6.213 15 6.213z" fill="#ffc250"/><path d="m189.891 123.699-60 60c0 5.858 2.374 11.161 6.213 15l76.468-66.468c-3.839-3.839-16.823-8.532-22.681-8.532z" fill="#eef9fa"/><path d="m204.891 129.912-68.787 68.787c3.839 3.839 9.142 6.213 15 6.213l60-60c.001-5.858-2.374-11.161-6.213-15z" fill="#dcf2f6"/><path d="m214.769 126.928-5-12.579c-2.648-1.188-5.575-1.863-8.664-1.863l-11.213 11.213c0 5.858 2.374 11.161 6.213 15l16.468-6.468c1.406-1.407 2.196-3.314 2.196-5.303z" fill="#87a0af"/><path d="m209.769 114.349v7.579c0 1.989-.79 3.897-2.197 5.303l-11.468 11.468c3.839 3.839 9.142 6.213 15 6.213l11.213-11.213c.001-8.626-5.156-16.035-12.548-19.35z" fill="#607882"/><path d="m358.213 318.707h22.487c50.357 0 74.275-23.742 74.275-65.673 0-31.636-6.783-53.916-29.779-70.971-13.082-6.623-29.57-10.148-49.496-10.148-54.565 0-83.387 26.397-86.903 70.644z" fill="#bae6ef"/><path d="m462.975 252.034c0-32.882-12.547-57.196-37.779-69.971 15.506 15.664 22.779 38.529 22.779 64.971 0 41.93-21.918 64.673-72.275 64.673-3.866 0-7.653-.098-11.36-.291-12.622-34.038-38.434-57.571-75.543-68.857-.244 3.075-.373 6.231-.373 9.475 0 49.93 28.918 74.673 87.275 74.673 14.863 0 27.805-1.614 38.857-4.831l48.418 26.823-22.266-40.192c14.859-12.426 22.267-31.223 22.267-56.473z" fill="#94d8e6"/><path d="m234.526 464.83c76.041 0 115.687-33.632 115.687-97.538 0-39.097-4.166-69.743-42.365-100.611-19.445-10.929-44.535-16.77-75.321-16.77-84.041 0-125.687 43.475-125.687 115.381 0 23.556 4.478 43.211 13.445 59.002 20.917 30.215 65.987 40.536 114.241 40.536z" fill="#eef9fa"/><path d="m307.847 266.682c23.935 21.757 35.365 54.514 35.365 93.611 0 66.572-36.979 97.538-115.687 97.538-48.254 0-84.833-10.763-107.241-33.536 4.876 8.587 11.075 16.035 18.612 22.337l-32.057 57.868 69.715-38.621c15.917 4.634 34.566 6.951 55.971 6.951 84.041 0 125.687-35.632 125.687-107.538.001-45.564-16.729-79.705-50.365-98.61z" fill="#dcf2f6"/><path d="m211.811 417.5c7.543 0 20.715-3.675 20.715-3.675s13.172 3.675 20.715 3.675c15.024 0 36.689-31.82 36.689-52.419 0-14.353-4.128-27.187-14.926-36.617-5.563-3.153-12.199-4.945-19.815-4.945-8.252 0-22.663 3.675-22.663 3.675s-14.411-3.675-22.663-3.675c-25.19 0-39.741 19.504-39.741 43.563 0 5.811 1.098 12.222 3.073 18.605 8.411 18.475 26.998 31.813 38.616 31.813z" fill="#df646e"/><path d="m275.004 328.464c6.592 9.447 8.926 19.264 8.926 33.617 0 20.599-15.665 48.419-30.689 48.419-6.365 0-16.739-2.617-19.823-3.434-.588-.156-1.195-.156-1.783 0-3.084.817-13.458 3.434-19.823 3.434-11.618 0-28.438-10.583-38.616-24.814 6.205 20.047 21.152 39.814 38.616 39.814 7.543 0 20.715-3.675 20.715-3.675s13.172 3.675 20.715 3.675c23.024 0 41.689-34.36 41.689-58.419-.001-16.785-7.091-31.342-19.927-38.617z" fill="#ca4646"/><path d="m232.526 327.193c18.297-5.492 28.658-24.742 23.165-43.039-18.297 5.493-28.658 24.743-23.165 43.039z" fill="#94d8e6"/></g><g><path d="m106.842 512c-1.942 0-3.862-.753-5.306-2.196-2.366-2.366-2.878-6.012-1.257-8.938l29.16-52.637c-19.98-19.229-30.1-47.092-30.1-82.936 0-22.485 3.848-42.162 11.481-58.865l-58.162 32.221c-2.925 1.622-6.572 1.109-8.938-1.257s-2.878-6.012-1.257-8.938l37.951-68.507c-25.814-24.147-38.891-59.548-38.891-105.341 0-28.18 4.899-53.174 14.562-74.289 1.724-3.768 6.174-5.42 9.94-3.699 3.767 1.724 5.423 6.175 3.699 9.941-8.76 19.143-13.202 42.037-13.202 68.047 0 44.438 12.488 76.481 38.177 97.959 2.758 2.306 3.492 6.244 1.75 9.389l-28.204 50.911 60.777-33.669c1.285-1.366 2.611-2.698 3.979-3.997 22.917-21.755 56.4-32.786 99.522-32.786 43.123 0 76.607 11.031 99.523 32.786 12.309 11.686 21.274 26.138 26.844 43.212 5.27.529 10.904.797 16.808.797 14.09 0 26.463-1.522 36.774-4.524 1.92-.559 3.981-.329 5.731.641l25.547 14.152-9.595-17.32c-1.742-3.145-1.008-7.083 1.75-9.389 13.167-11.009 19.567-27.604 19.567-50.732 0-47.508-27.586-72.619-79.775-72.619-21.749 0-39.401 4.38-52.468 13.018-12.277 8.116-20.521 20.089-24.504 35.586-1.03 4.011-5.116 6.43-9.13 5.397-4.013-1.03-6.429-5.118-5.397-9.13 4.936-19.21 15.285-34.137 30.76-44.366 12.538-8.289 28.239-13.286 46.807-14.915.164-3.399.246-6.879.246-10.399 0-44.319-12.652-78.803-37.605-102.492-25.938-24.63-64.677-37.116-115.137-37.116-2.07 0-3.998.825-5.428 2.324-1.429 1.497-2.162 3.468-2.063 5.549.185 3.93 3.736 7.127 7.915 7.127h13.871c9.273 0 17.238 5.322 20.787 13.89s1.68 17.963-4.877 24.521l-8.114 8.113c-4.25 4.25-6.59 9.9-6.59 15.91v25.02c3.184 4.623 5.049 10.22 5.049 16.245 0 1.989-.79 3.896-2.197 5.304l-101.214 101.213c-1.406 1.406-3.314 2.196-5.303 2.196-15.833 0-28.713-12.881-28.713-28.714 0-1.989.79-3.896 2.197-5.304l101.213-101.213c1.406-1.406 3.314-2.196 5.303-2.196 3.018 0 5.93.469 8.664 1.336v-13.887c0-10.017 3.901-19.434 10.984-26.517l8.114-8.113c3.288-3.288 2.076-7.088 1.625-8.174-.45-1.086-2.279-4.63-6.929-4.63h-13.871c-12.274 0-22.333-9.409-22.898-21.422-.126-2.68.211-5.3.978-7.773-46.018 3.57-80.507 19.016-102.706 46.047-2.628 3.2-7.354 3.666-10.556 1.036-3.201-2.629-3.665-7.354-1.036-10.556 28.516-34.725 74.204-52.332 135.795-52.332 54.432 0 96.646 13.873 125.467 41.234 28.053 26.633 42.277 64.776 42.277 113.371 0 3.311-.068 6.591-.204 9.813 30.017.188 53.422 8.057 69.576 23.393 15.984 15.175 24.09 36.782 24.09 64.223 0 24.788-6.838 44.263-20.346 57.998l19.406 35.031c1.621 2.927 1.108 6.572-1.257 8.938-2.366 2.365-6.011 2.878-8.938 1.257l-45.732-25.334c-10.999 2.843-23.732 4.282-37.908 4.282-4.419 0-8.713-.14-12.847-.417 1.903 9.79 2.859 20.298 2.859 31.503 0 34.81-9.561 62.155-28.417 81.276-2.908 2.95-7.658 2.982-10.605.074-2.95-2.908-2.983-7.656-.074-10.605 15.989-16.216 24.097-40.018 24.097-70.745 0-34.301-9.754-60.953-28.991-79.216-20.036-19.021-50.046-28.665-89.196-28.665s-69.159 9.645-89.195 28.665c-19.237 18.263-28.992 44.915-28.992 79.216 0 34.347 9.605 59.073 29.364 75.593 2.758 2.306 3.492 6.244 1.75 9.389l-19.391 35.003 46.85-25.953c1.748-.97 3.811-1.2 5.73-.641 15.149 4.41 33.278 6.646 53.883 6.646 28.491 0 52.083-4.271 70.122-12.696 3.753-1.75 8.217-.131 9.97 3.622 1.752 3.753.131 8.217-3.622 9.97-20.041 9.359-45.77 14.104-76.469 14.104-20.687 0-39.182-2.15-55.035-6.395l-67.018 37.125c-1.14.633-2.391.941-3.631.941zm.84-295.485c1.112 5.306 5.301 9.495 10.607 10.606l18.537-18.537c-4.396-2.539-8.067-6.21-10.607-10.606zm30-30c1.114 5.297 5.315 9.492 10.607 10.606l48.536-48.537c-4.395-2.539-8.067-6.21-10.607-10.605zm60-60c1.114 5.297 5.314 9.492 10.606 10.606l6.238-6.238c-1.112-5.307-5.301-9.495-10.606-10.606zm55.558 306.485c-6.718 0-16.443-2.307-20.714-3.412-4.271 1.105-13.997 3.412-20.714 3.412-28.535 0-49.189-39.375-49.189-65.919 0-12.733 3.545-24.218 10.251-33.213 2.475-3.322 7.173-4.008 10.496-1.53 3.321 2.476 4.006 7.175 1.53 10.495-4.76 6.386-7.276 14.771-7.276 24.248 0 21.763 16.903 50.919 34.189 50.919 5.326 0 15.305-2.454 18.701-3.399 1.316-.367 2.711-.367 4.027 0 3.396.945 13.375 3.399 18.701 3.399 7.803 0 16.256-6.115 23.192-16.776 6.783-10.428 10.997-23.511 10.997-34.143 0-17.95-9.97-36.062-32.241-36.062-5.991 0-17.03 2.479-20.797 3.439-1.234.315-2.521.312-3.739-.002-3.782-.962-14.822-3.438-20.789-3.438-.875 0-1.755.028-2.614.085-4.134.258-7.703-2.862-7.973-6.995s2.861-7.703 6.995-7.974c1.183-.077 2.392-.116 3.592-.116 4.061 0 9.169.725 13.683 1.552-.064-6.993 1.633-13.928 5.038-20.253 5.322-9.889 14.184-17.114 24.952-20.347 3.968-1.188 8.148 1.061 9.34 5.027 3.583 11.938 1.588 24.248-4.473 34.115 26.085 1.557 44.027 22.075 44.027 50.968-.003 26.545-20.658 65.92-49.192 65.92zm-3.62-137.584c-3.214 2.35-5.888 5.405-7.828 9.011-1.941 3.605-3.019 7.52-3.21 11.497 6.555-4.812 10.633-12.386 11.038-20.508zm146.903-17.782c-1.92 0-3.839-.732-5.304-2.196l-15.52-15.52-15.521 15.52c-2.929 2.929-7.678 2.928-10.606-.001s-2.929-7.677.001-10.606l15.52-15.519-15.52-15.52c-2.93-2.93-2.93-7.678-.001-10.606 2.931-2.931 7.68-2.928 10.606-.001l15.521 15.52 15.52-15.52c2.93-2.929 7.678-2.928 10.607.001s2.929 7.677 0 10.606l-15.521 15.52 15.521 15.519c2.929 2.93 2.929 7.678 0 10.606-1.464 1.464-3.384 2.197-5.303 2.197zm-119.641-80.887c-4.411 0-8-3.589-8-8s3.589-8 8-8 8 3.589 8 8-3.589 8-8 8zm0-31c-4.143 0-7.5-3.357-7.5-7.5v-18.601c0-4.143 3.357-7.5 7.5-7.5 5.812 0 11.22-2.325 15.229-6.547 4.006-4.22 6.045-9.753 5.742-15.581-.566-10.921-9.586-19.648-20.534-19.869-10.671-.241-19.768 7.549-21.234 18.058-.572 4.103-4.368 6.968-8.464 6.392-4.103-.572-6.964-4.361-6.392-8.464 2.516-18.03 18.167-31.378 36.393-30.981 18.772.378 34.239 15.352 35.212 34.088.518 9.977-2.979 19.454-9.845 26.687-5.022 5.29-11.558 8.906-18.606 10.42v11.899c-.001 4.142-3.359 7.499-7.501 7.499z"/></g></g></svg>