<svg id="Capa_1" enable-background="new 0 0 512.002 512.002" height="512" viewBox="0 0 512.002 512.002" width="512" xmlns="http://www.w3.org/2000/svg"><g><g><path d="m489.501 198.367h-35v40l42 7z" fill="#dcf2f6"/><path d="m489.501 198.367v40h-35v15h50v-55z" fill="#bae6ef"/><path d="m92.813 112.83c-49.245 13.996-85.312 59.304-85.312 113.037 0 29.104 10.587 55.733 28.113 76.257 15.38 15.005 40.273 26.476 57.199 30.707z" fill="#e6989e"/><path d="m92.813 112.83c-7.74 5.588-12.812 15.367-12.812 25.536v175c0 2.555.321 5.034.924 7.402.353 1.386.802 2.733 1.339 4.035-16.926-4.231-33.351-12.087-46.649-22.679 21.551 25.238 53.598 41.243 89.387 41.243v-235c-11.162 0-21.96 1.556-32.189 4.463z" fill="#df646e"/><path d="m451.501 335.367c8.284 0 15-6.716 15-15l-7-207.977c-4.414-2.554-9.534-4.023-15-4.023h-319.5c-16.569 0-30 13.432-30 30v175c0 5.2 1.45 10.091 3.95 14.355 0 0 9.24 7.645 22.325 7.645z" fill="#eef9fa"/><path d="m459.501 112.39v200.977c0 8.284-6.716 15-15 15h-333.225c-4.16 0-8.269-.227-12.325-.645 5.466 9.321 15.957 15.645 27.325 15.645h318.225c16.568 0 30-13.432 30-30v-175c0-11.103-6.036-20.789-15-25.977z" fill="#dcf2f6"/><path d="m416.51 138.367h-276.509v160l283.509 7z" fill="#607882"/><path d="m416.51 138.367v160h-276.509v15h291.509v-175z" fill="#495959"/></g><g><path d="m214.51 411.135c-15.316 0-30.518-4.731-45.357-14.14-24.816-15.733-49.984-15.734-74.803 0-29.723 18.845-61.144 18.843-90.864 0-3.499-2.218-4.536-6.852-2.318-10.35 2.218-3.5 6.854-4.536 10.35-2.318 24.818 15.734 49.983 15.733 74.802 0 29.723-18.844 61.143-18.843 90.865 0 16.095 10.204 32.485 13.81 48.724 10.72 4.07-.778 7.996 1.896 8.77 5.965.775 4.069-1.896 7.996-5.965 8.771-4.742.901-9.479 1.352-14.204 1.352zm165.741-.007c-15.286 0-30.571-4.711-45.433-14.132-24.817-15.734-49.982-15.734-74.802 0-3.495 2.218-8.132 1.181-10.35-2.318s-1.181-8.132 2.318-10.35c29.722-18.846 61.145-18.844 90.864 0 24.818 15.734 49.986 15.734 74.803 0 29.724-18.845 61.145-18.843 90.864 0 3.499 2.218 4.536 6.852 2.318 10.35-2.219 3.499-6.855 4.535-10.35 2.318-24.819-15.734-49.984-15.733-74.802 0-14.859 9.421-30.144 14.132-45.43 14.132zm64.25-60.261h-319.5c-68.925 0-125-56.075-125-125s56.075-125 125-125h95.456c4.143 0 7.5 3.358 7.5 7.5s-3.357 7.5-7.5 7.5h-95.456c-12.406 0-22.5 10.093-22.5 22.5v175c0 12.407 10.094 22.5 22.5 22.5h319.5c12.406 0 22.5-10.093 22.5-22.5v-175c0-12.407-10.094-22.5-22.5-22.5h-194.044c-4.143 0-7.5-3.358-7.5-7.5s3.357-7.5 7.5-7.5h194.044c20.678 0 37.5 16.822 37.5 37.5v52.5h22.5c4.143 0 7.5 3.358 7.5 7.5v55c0 4.142-3.357 7.5-7.5 7.5h-22.5v52.5c0 20.677-16.822 37.5-37.5 37.5zm-352.728-229.873c-44.465 14.12-76.772 55.794-76.772 104.872s32.308 90.752 76.772 104.872c-2.729-5.196-4.272-11.107-4.272-17.372v-175c0-6.264 1.544-12.175 4.272-17.372zm390.228 124.873h15v-40h-15zm-50.491 75h-81.568c-4.143 0-7.5-3.358-7.5-7.5s3.357-7.5 7.5-7.5h74.068v-160h-276.509v160h172.44c4.143 0 7.5 3.358 7.5 7.5s-3.357 7.5-7.5 7.5h-179.94c-4.143 0-7.5-3.358-7.5-7.5v-175c0-4.142 3.357-7.5 7.5-7.5h291.509c4.143 0 7.5 3.358 7.5 7.5v175c0 4.142-3.358 7.5-7.5 7.5zm-236.281-42.099c-18.047 0-32.729-14.682-32.729-32.729v-40.346c0-18.046 14.682-32.729 32.729-32.729 18.046 0 32.728 14.682 32.728 32.729v40.346c0 18.047-14.682 32.729-32.728 32.729zm0-90.803c-9.775 0-17.729 7.953-17.729 17.729v40.346c0 9.775 7.953 17.729 17.729 17.729s17.728-7.953 17.728-17.729v-40.346c0-9.776-7.952-17.729-17.728-17.729zm86.399 105.543c-.008 0-.015 0-.023 0l-28.765-.089c-2.85-.009-5.448-1.632-6.707-4.19-1.258-2.558-.957-5.607.775-7.87.078-.104 2.599-3.469 19.902-28.192l.611-.871c2.913-4.143 4.313-6.267 4.313-9.267 0-3.829-3.115-6.944-6.944-6.944-3.312 0-6.177 2.351-6.812 5.589-.798 4.065-4.737 6.71-8.805 5.914-4.064-.798-6.713-4.741-5.914-8.805 2.015-10.255 11.069-17.699 21.531-17.699 12.101 0 21.944 9.844 21.944 21.944 0 7.88-3.581 12.972-7.044 17.896l-.592.842c-5.052 7.219-8.856 12.635-11.719 16.696l14.271.044c4.142.013 7.489 3.381 7.477 7.523-.012 4.136-3.367 7.479-7.499 7.479zm68.313-14.74c-1.78 0-3.56-.631-4.98-1.892-38.476-34.168-54.089-48.814-54.089-68.38 0-19.592 15.939-35.531 35.531-35.531 8.812 0 17.126 3.23 23.538 8.924 6.411-5.694 14.725-8.924 23.538-8.924 19.592 0 35.53 15.939 35.53 35.531 0 19.565-15.613 34.211-54.088 68.38-1.42 1.261-3.199 1.892-4.98 1.892zm-23.538-90.803c-11.321 0-20.531 9.21-20.531 20.531 0 11.382 9.544 21.91 44.069 52.73 34.525-30.821 44.068-41.348 44.068-52.73 0-11.321-9.21-20.531-20.53-20.531-6.983 0-13.428 3.52-17.24 9.416-1.382 2.137-3.753 3.428-6.298 3.428s-4.916-1.29-6.298-3.427c-3.813-5.897-10.257-9.417-17.24-9.417z"/></g></g></svg>