<svg id="Capa_1" enable-background="new 0 0 512 512" height="512" viewBox="0 0 512 512" width="512" xmlns="http://www.w3.org/2000/svg"><g><g><path d="m327.341 251.366c-.613-.444-1.232-.885-1.875-1.313-4.995-3.33-8.372-7.533-9.814-12.071l-59.653-7-59.653 7c-1.441 4.538-4.819 8.741-9.814 12.071-12.417 8.278-19.393 19.506-19.393 31.213v193.234c0 5.466 1.469 10.586 4.023 15l150.697 7c8.284 0 15-6.716 15-15v-208.235c.001-5.048-4.955-15.821-9.518-21.899z" fill="#eef9fa"/><path d="m315.653 237.981h-119.306c.518-1.632.793-3.306.793-5 0-1.534-.793-49.965-.793-49.965h118.513v49.965c0 1.694.275 3.368.793 5zm11.688 13.385c1.667 4.789 2.519 9.851 2.519 14.9v208.234c0 8.284-6.716 15-15 15h-143.697c5.188 8.964 14.874 15 25.977 15h117.72c16.569 0 30-13.431 30-30v-193.235c0-11.101-6.282-21.766-17.519-29.899z" fill="#dcf2f6"/><path d="m240.713 7.5c-7.829 0-14.353 6.019-14.947 13.826-2.773 36.429-16.86 75.324-49.489 109.867-2.642 2.797-4.137 6.487-4.137 10.334l159.72 7c0-10.466-1.495-14.537-4.137-17.334-32.283-34.177-51.757-97.206-56.389-123.691-.016 0-.031-.002-.047-.002h-30.574z" fill="#fff3bf"/><path d="m339.86 141.528c0-3.847-1.495-7.537-4.137-10.334-32.629-34.543-46.716-73.438-49.489-109.867-.593-7.791-7.092-13.799-14.9-13.823 2.982 36.405 17.106 89.514 49.389 123.691 2.642 2.797 4.137 6.487 4.137 10.334h-152.72v36.26l152.22 7c4.142 0 7.5-3.358 7.5-7.5z" fill="#ffe07d"/><path d="m324.86 170.288c0 4.142-3.358 7.5-7.5 7.5h-145.22v7.5c0 4.142 3.358 7.5 7.5 7.5h152.72c4.142 0 7.5-3.358 7.5-7.5v-43.76h-15z" fill="#ffc250"/><path d="m273.5 365.868c0-10.601-11.037-35.917-11.037-35.917-2.908-4.915-10.019-4.914-12.927.001-10.431 17.632-15.237 28.469-15.944 38.341-.307 4.293.542 8.437 2.277 12.08 4.254 4.268 11.49 7.912 14.564 7.988 12.686.312 23.067-9.878 23.067-22.493z" fill="#bae6ef"/><path d="m262.463 329.951s5.037 19.316 5.037 29.917c0 12.615-10.381 22.805-23.067 22.493-3.074-.076-5.958-.786-8.564-1.988 3.54 7.431 10.786 12.772 19.564 12.988 12.686.312 23.067-9.878 23.067-22.493 0-10.601-4.692-21.74-16.037-40.917z" fill="#94d8e6"/></g><g><path d="m314.86 512h-117.72c-20.678 0-37.5-16.822-37.5-37.5v-94.241c0-4.143 3.358-7.5 7.5-7.5s7.5 3.357 7.5 7.5v94.241c0 12.406 10.093 22.5 22.5 22.5h117.72c12.407 0 22.5-10.094 22.5-22.5v-193.234c0-9.203-5.701-18.071-16.053-24.973-8.864-5.91-13.947-14.406-13.947-23.312v-2.5h-102.72v2.5c0 8.905-5.083 17.401-13.946 23.312-10.353 6.901-16.054 15.77-16.054 24.973v68.993c0 4.143-3.358 7.5-7.5 7.5s-7.5-3.357-7.5-7.5v-68.993c0-14.172 8.286-27.822 22.733-37.453 4.618-3.079 7.267-7.027 7.267-10.831v-2.5h-17.5c-4.142 0-7.5-3.357-7.5-7.5s3.358-7.5 7.5-7.5h17.5v-15.193h-10c-8.271 0-15-6.729-15-15v-43.761c0-5.764 2.196-11.263 6.185-15.484 19.233-20.361 32.899-43.507 40.619-68.792 1.21-3.961 5.403-6.19 9.363-4.983 3.961 1.209 6.193 5.401 4.983 9.363-8.109 26.559-22.201 50.901-41.906 72.396h122.976c4.142 0 7.5 3.357 7.5 7.5s-3.358 7.5-7.5 7.5h-127.22v36.261h152.72v-43.761c0-1.917-.742-3.758-2.089-5.184-30.457-32.244-48.27-71.82-51.515-114.449-.294-3.866-3.575-6.895-7.469-6.895h-30.575c-3.894 0-7.175 3.028-7.469 6.895-.203 2.665-.466 5.359-.783 8.007-.492 4.113-4.223 7.049-8.337 6.557-4.113-.492-7.048-4.225-6.556-8.338.291-2.434.533-4.911.719-7.363.887-11.641 10.737-20.758 22.426-20.758h30.575c11.689 0 21.54 9.117 22.426 20.756 2.98 39.163 19.393 75.571 47.462 105.287 3.988 4.222 6.185 9.721 6.185 15.484v43.761c0 8.271-6.729 15-15 15h-10v15.193h17.5c4.142 0 7.5 3.357 7.5 7.5s-3.358 7.5-7.5 7.5h-17.5v2.5c0 3.804 2.649 7.752 7.268 10.831 14.447 9.631 22.732 23.281 22.732 37.453v193.235c0 20.678-16.822 37.5-37.5 37.5zm-110.22-296.519h102.72v-15.193h-102.72zm95.22 245.387h-12.36c-4.142 0-7.5-3.357-7.5-7.5s3.358-7.5 7.5-7.5h12.36c4.142 0 7.5 3.357 7.5 7.5s-3.358 7.5-7.5 7.5zm-42.36 0h-45.36c-4.142 0-7.5-3.357-7.5-7.5s3.358-7.5 7.5-7.5h45.36c4.142 0 7.5 3.357 7.5 7.5s-3.358 7.5-7.5 7.5zm42.36-30h-87.72c-4.142 0-7.5-3.357-7.5-7.5s3.358-7.5 7.5-7.5h87.72c4.142 0 7.5 3.357 7.5 7.5s-3.358 7.5-7.5 7.5zm-43.848-30.001c-.254 0-.508-.003-.763-.009-8.098-.199-15.594-3.651-21.107-9.722-5.716-6.293-8.643-14.814-8.03-23.379.768-10.731 5.368-22.013 16.97-41.624 2.729-4.614 7.559-7.368 12.919-7.368s10.189 2.754 12.918 7.367c10.818 18.288 17.081 31.47 17.081 44.736 0 8.153-3.214 15.779-9.051 21.474-5.652 5.514-13.062 8.525-20.937 8.525zm-.026-67.13c-10.154 17.205-14.336 27.034-14.913 35.091-.322 4.495 1.199 8.95 4.171 12.223 2.73 3.006 6.414 4.715 10.373 4.812 4.099.105 7.94-1.412 10.857-4.257 2.918-2.848 4.526-6.661 4.526-10.737 0-8.681-3.923-18.389-14.992-37.099-.013-.023-.022-.033-.022-.033zm43.874-29.971h-87.72c-4.142 0-7.5-3.357-7.5-7.5s3.358-7.5 7.5-7.5h87.72c4.142 0 7.5 3.357 7.5 7.5s-3.358 7.5-7.5 7.5z"/></g></g></svg>