<svg id="Capa_1" enable-background="new 0 0 511.979 511.979" height="512" viewBox="0 0 511.979 511.979" width="512" xmlns="http://www.w3.org/2000/svg"><g><g><path d="m495.491 192.787c5.845-5.847 4.601-16.605-5.971-27.177l-53.076-53.058c-5.859-5.857-15.356-5.855-21.213.004l-304.142 304.242 74.258 74.234z" fill="#eef9fa"/><path d="m500.094 176.181-10.574-10.571c5.824 5.86 5.816 15.33-.029 21.177l-304.144 304.245 10.607 10.607 60.621-60.641 80.408-89.756 88.443-79.151 74.672-74.697c5.857-5.859 5.855-15.356-.004-21.213z" fill="#dcf2f6"/><path d="m215.949 400.383 30.018 30.009 91.016-79.15 77.835-89.756-30.018-30.01z" fill="#ffe07d"/><path d="m216.281 343.742h238.831v15h-238.831z" fill="#ffc250" transform="matrix(.707 -.707 .707 .707 -150.044 340.314)"/><path d="m309.434 83.567-20.607-.607-.003.004-205.108 205.172 21.216 21.212z" fill="#dcf2f6"/><path d="m94.325 298.741-10.609-10.605-.001.002 21.217 21.21 205.109-205.174-.607-20.607z" fill="#bae6ef"/><path d="m333.753 18.671c-18.924 18.924-22.671 42.032-44.925 64.289l10.607 10.607c23.995-18.452 51.094-20.27 70.019-39.195 9.294-9.294 9.728-29.158-1.407-40.294-10.886-6.228-25-4.701-34.294 4.593z" fill="#eef9fa"/><path d="m374.06 18.671c-1.836-1.836-3.863-3.363-6.013-4.593 6.228 10.885 4.701 24.999-4.593 34.294-18.925 18.925-41.761 22.937-64.019 45.195l10.607 10.607c22.258-22.258 45.094-26.27 64.019-45.195 11.129-11.131 11.129-29.177-.001-40.308z" fill="#dcf2f6"/><path d="m91.125 375.597 45.019-55.019-74.243-74.243-50.019 50.019c-5.858 5.858-5.858 15.355 0 21.213l53.029 53.03c10.608 10.606 20.357 10.858 26.214 5z" fill="#ffe07d"/><path d="m136.144 320.578-50.019 50.019c-5.858 5.858-15.355 5.858-21.213 0l10.606 10.606c5.858 5.858 15.355 5.858 21.213 0l50.019-50.019z" fill="#ffc250"/></g><g><path d="m195.954 509.138c-1.919 0-3.838-.732-5.302-2.196l-84.867-84.838c-2.93-2.928-2.931-7.677-.002-10.606l219.228-219.308c2.929-2.93 7.678-2.93 10.606-.002 2.93 2.928 2.93 7.677.002 10.606l-213.926 214.004 74.258 74.234 50.018-50.034-35.323-35.311c-1.407-1.406-2.197-3.314-2.198-5.303 0-1.989.79-3.897 2.196-5.304l168.851-168.907c2.929-2.93 7.678-2.93 10.606-.002l35.325 35.312 69.367-69.393c2.924-2.925 2.923-7.683-.002-10.607l-63.649-63.628c-2.925-2.924-7.684-2.923-10.607.002l-62.916 62.937c-2.929 2.93-7.678 2.93-10.606.002-2.93-2.928-2.93-7.677-.002-10.606l62.916-62.937c8.771-8.774 23.045-8.777 31.82-.006l63.65 63.629c8.774 8.772 8.776 23.046.005 31.82l-188.11 188.18c-2.929 2.929-7.678 2.93-10.606.002-2.93-2.928-2.93-7.677-.002-10.606l108.139-108.179-30.021-30.01-158.247 158.298 30.019 30.009 28.109-28.118c2.929-2.93 7.678-2.93 10.606-.002 2.93 2.929 2.93 7.677.002 10.606l-94.034 94.064c-1.463 1.466-3.384 2.198-5.303 2.198zm-109.828-116.052c-5.762 0-11.523-2.193-15.91-6.579l-63.636-63.637c-8.773-8.772-8.773-23.047 0-31.819l50.019-50.019c1.406-1.407 3.314-2.197 5.303-2.197s3.897.79 5.303 2.197l26.503 26.503 59.971-60.011c2.929-2.929 7.676-2.931 10.607-.003 2.93 2.928 2.931 7.677.003 10.607l-59.975 60.014 10.607 10.607 184.513-184.574-10.609-10.605-102.537 102.559c-2.928 2.93-7.677 2.93-10.606.001-2.929-2.928-2.93-7.677-.001-10.606l107.839-107.863c.006-.007.013-.013.02-.02 10.826-10.833 17.108-22.125 23.182-33.046 5.854-10.524 11.907-21.407 21.728-31.228 14.036-14.037 36.876-14.037 50.914 0 6.8 6.799 10.545 15.84 10.545 25.457s-3.745 18.657-10.545 25.457c-9.8 9.801-20.604 15.914-31.051 21.826-10.87 6.151-22.109 12.511-32.967 23.369l-189.818 189.88 26.525 26.525c2.929 2.929 2.929 7.678 0 10.606l-50.019 50.019c-4.385 4.387-10.147 6.58-15.908 6.58zm10.606-11.883h.01zm-34.831-124.261-44.715 44.716c-2.924 2.924-2.924 7.682 0 10.606l63.636 63.636c2.925 2.924 7.684 2.925 10.607 0l44.715-44.716zm237.36-174.149 10.944 10.94c10.43-9.199 20.72-15.022 30.719-20.68 10.015-5.667 19.475-11.021 27.832-19.378 3.967-3.967 6.151-9.241 6.151-14.851 0-5.609-2.185-10.883-6.151-14.85-8.188-8.188-21.512-8.188-29.701 0-8.337 8.337-13.626 17.846-19.225 27.913-5.603 10.074-11.368 20.44-20.569 30.906z"/></g></g></svg>