<svg id="Capa_1" enable-background="new 0 0 511.987 511.987" height="512" viewBox="0 0 511.987 511.987" width="512" xmlns="http://www.w3.org/2000/svg"><g><g><path d="m60.914 491.011 202.149-208.149-58.547-38.547-192.149 192.149c-6.506 6.505-6.505 17.053 0 23.558l24.989 24.989c6.506 6.505 17.053 12.505 23.558 6z" fill="#ffe07d"/><path d="m60.914 485.011c-6.505 6.505-17.052 6.505-23.557.001l10.606 10.606c6.505 6.505 17.053 6.505 23.558 0l192.149-192.15-.607-20.607z" fill="#ffc250"/><path d="m260.085 212.304c-9.415 9.415-21.79 15.188-34.938 16.413-3.536.329-6.86 1.827-9.371 4.338l-11.26 11.26 48.547 48.547 16.26-6.26c2.511-2.511 4.008-5.835 4.338-9.371 1.225-13.147 6.998-25.523 16.413-34.937l45-55-24.989-24.989z" fill="#dcf2f6"/><path d="m335.074 187.293-50 50c-9.415 9.415-15.188 21.79-16.413 34.937-.33 3.536-1.827 6.86-4.338 9.371l-11.26 11.26 10.607 10.607 11.26-11.26c2.511-2.511 4.008-5.835 4.338-9.371 1.225-13.147 6.998-25.523 16.413-34.938l50-50z" fill="#bae6ef"/><path d="m265.999 61.576c-23.395 23.395-43.846 50.978-44.592 70.495l62.897-52.897 57.411-67.411c-21.203 2.433-52.321 26.419-75.716 49.813z" fill="#ffe07d"/><path d="m358.187 16.504c-4.154-4.154-9.827-5.503-16.472-4.741l-120.308 120.308c-.234 6.116 1.463 11.442 5.617 15.596l69.325-61.325z" fill="#ffc250"/><path d="m358.187 16.504-131.163 131.163c42.881 42.881 84.516 56.549 126.702 71.322l44.806-31.696 30.978-44.088c-14.773-42.185-28.443-83.821-71.323-126.701z" fill="#eef9fa"/><path d="m429.51 143.205-75.784 75.784c5.203 1.822 10.414 3.663 15.637 5.576l42.206-26.728 23.517-38.995c-1.913-5.223-3.754-10.434-5.576-15.637z" fill="#dcf2f6"/><path d="m483.608 284.916 11.828-11.828c2.693-2.693 1.17-11.006-2.159-14.334-31.458-34.305-46.263-67.337-58.191-99.912l-65.723 65.723c32.574 11.928 65.606 26.734 99.911 58.193 2.93 2.928 11.642 4.85 14.334 2.158z" fill="#607882"/><path d="m502.084 267.959c-3.079-3.079-6.002-6.147-8.807-9.205 1.721 3.313.852 7.641-1.841 10.334l-11.828 11.828c-2.693 2.693-7.021 3.562-10.333 1.842 3.058 2.804 6.125 5.727 9.204 8.806 3.233 3.233 8.502 3.192 11.736-.041l11.828-11.828c3.233-3.234 3.274-8.503.041-11.736z" fill="#495959"/></g><g><path d="m59.741 507.996c-6.452 0-12.52-2.513-17.082-7.076l-35.596-35.595c-9.418-9.419-9.418-24.745 0-34.165l51.632-51.632c2.931-2.929 7.679-2.928 10.607 0 2.929 2.929 2.929 7.678 0 10.606l-51.632 51.632c-3.571 3.571-3.571 9.381 0 12.952l35.596 35.595c1.729 1.73 4.029 2.682 6.475 2.682s4.746-.952 6.476-2.682l186.847-186.846-48.547-48.547-113.214 113.215c-2.93 2.928-7.678 2.929-10.607 0s-2.929-7.678 0-10.606l129.777-129.777c3.698-3.698 8.662-6.007 13.979-6.502 11.436-1.065 22.207-6.125 30.331-14.249l15.709-15.709c-16.136-9.697-32.404-21.955-48.771-38.321-7.29-7.29-13.192-21.331.089-46.82 9.882-18.966 26.601-37.592 38.886-49.877 10.358-10.357 30.979-29.563 52.708-41.816 22.63-12.762 39.483-13.859 50.088-3.255 42.773 42.773 57.498 84.9 71.738 125.641 14.176 40.554 28.833 82.489 72.158 125.814 6.148 6.148 6.13 16.171-.041 22.342l-11.828 11.828c-6.171 6.172-16.193 6.19-22.343.041-43.327-43.327-85.262-57.985-125.816-72.16-4.392-1.535-8.801-3.076-13.223-4.657l-11.568 11.567c-2.929 2.929-7.678 2.927-10.606 0-2.929-2.929-2.929-7.678.001-10.607l6.689-6.689c-11.434-4.415-22.961-9.358-34.565-15.413l-18.698 18.699c-10.592 10.591-24.636 17.188-39.546 18.577-1.842.171-3.533.943-4.763 2.173l-5.957 5.957 48.547 48.547 5.956-5.957c1.23-1.229 2.002-2.922 2.174-4.765 1.389-14.909 7.986-28.953 18.578-39.543 2.929-2.929 7.678-2.929 10.606 0s2.929 7.678-.001 10.607c-8.123 8.123-13.183 18.894-14.248 30.329-.497 5.318-2.806 10.283-6.502 13.979l-203.41 203.408c-4.562 4.563-10.63 7.075-17.083 7.075zm323.148-286.35c32.594 12.694 66.115 29.835 100.895 64.614.294.295.812.275 1.128-.041l11.828-11.828c.205-.205.249-.439.249-.601.001-.211-.068-.389-.208-.528-34.776-34.777-51.919-68.302-64.612-100.895zm-145.184-74.053c38.42 36.326 75.475 49.277 114.604 62.954 5.021 1.755 10.064 3.518 15.128 5.338l58.97-58.97c-1.82-5.063-3.581-10.103-5.337-15.124-13.677-39.129-26.63-76.186-62.956-114.606l-18.561 18.561c-2.929 2.928-7.677 2.929-10.607 0-2.929-2.929-2.929-7.678 0-10.606l16.132-16.132c-.061 0-.12-.001-.182-.001-15.216 0-44.06 18.34-73.593 47.873-16.315 16.314-29.168 32.722-36.19 46.202-3.543 6.8-6.856 15.235-6.098 21.989l77.931-77.931c2.93-2.929 7.678-2.928 10.607 0 2.929 2.929 2.929 7.678 0 10.606z"/></g></g></svg>