<svg id="Capa_1" enable-background="new 0 0 512 512" height="512" viewBox="0 0 512 512" width="512" xmlns="http://www.w3.org/2000/svg"><g><g><path d="m174.752 77.481-22.752 7.766-25.365-7.766h-104.135c-8.284 0-15 6.716-15 15v194.615l306.501 7c8.284 0 15-6.716 15-15l-7-201.615z" fill="#94d8e6"/><path d="m322.001 77.481v194.615c0 8.284-6.716 15-15 15h-171.674l4.971-18.553c3.416.363 6.883.553 10.396.553 53.741 0 97.307-43.566 97.307-97.307 0-45.438-31.144-83.598-73.249-94.307h-48.117c-42.105 10.709-73.249 48.87-73.249 94.307 0 39.725 23.807 73.885 57.93 89.004l-7.048 26.303h-96.768c0 8.284 6.716 15 15 15h128.501l15 15 15-15h29.999l15 15 15-15h81.001c8.284 0 15-6.716 15-15v-194.615c0-8.284-6.716-15-15-15z" fill="#6bbdd5"/><path d="m451.968 190.409-21.465 10.905v233.204c0 2.39.574 4.642 1.568 6.647 2.089 1.897 5.836 2.621 7.067 2.621 7.856 0 14.225-6.369 14.225-14.225z" fill="#dcf2f6"/><path d="m451.968 190.409-6.465 10.905v229.46c0 5.934-4.81 10.744-10.744 10.744-.93 0-1.827-.131-2.688-.353 2.452 4.945 7.538 8.353 13.432 8.353 8.284 0 15-6.716 15-15v-234.109z" fill="#bae6ef"/><path d="m437.524 70.462c-7.807-5.04-17.092-7.979-27.055-7.98-22.607 0-42.481 15.25-48.331 37.086l-81.749 305.1c-2.343 8.743-10.301 14.85-19.353 14.85-4.376 0-8.416-1.426-11.715-3.816-10.671-4.513-16.321-11.612-16.321-21.22v-84.387l-22 7v82.387c0 5.432.882 10.66 2.49 15.561 7.567 15.659 25.303 28.019 48.352 28.019 19.89 0 34.376-9.419 39.524-28.631l81.749-305.1c2.942-10.979 8.587-20.656 19.953-20.656 9.913 0 15.133 2.568 20.948 9.124 3.977 3.664 6.488 8.897 6.488 14.718v88.797h15l7-103.797c0-9.963-6.87-20.036-14.98-27.055z" fill="#607882"/><path d="m226 317.096h-15v-15h30v97.387c0 6.672 3.291 12.577 8.321 16.22-14.146-2.273-23.321-11.613-23.321-21.221zm175.417-233.411c-11.366 0-21.36 7.668-24.302 18.647l-81.749 305.1c-5.147 19.212-19.634 28.63-39.524 28.631-17.14 0-33.946-7.859-42.352-21.019 6.56 19.992 25.388 34.474 47.546 34.474 22.606 0 42.48-15.251 48.33-37.086l81.749-305.1c2.343-8.744 10.301-14.85 19.353-14.85 5.227 0 9.977 2.028 13.548 5.318-4.097-8.351-12.686-14.115-22.599-14.115zm59.087 28.833c0-17.625-9.169-33.14-22.98-42.056 5.04 7.807 7.98 17.092 7.98 27.056v103.797h15z" fill="#495959"/><path d="m498.5 318.6c0-31.399-7.396-61.903-24.472-78.979-7.941-5.42-17.444-8.307-28.524-8.307-39.519 0-58.996 36.691-58.996 94.286 0 31.399 5.803 56.564 17.472 72.979 7.101 7.101 24.444 14.307 35.524 14.307 39.519.001 58.996-36.69 58.996-94.286z" fill="#607882"/><path d="m474.028 239.621c11.669 16.415 17.472 41.58 17.472 72.979 0 57.596-19.477 94.286-58.996 94.286-11.08 0-20.583-2.887-28.524-8.307 9.735 13.695 23.55 21.307 41.524 21.307 39.519 0 58.996-36.691 58.996-94.286 0-41.447-10.088-72.066-30.472-85.979z" fill="#495959"/><path d="m173 389.702v-79.606l-22 7v73.606c0 15.889-12.927 28.816-28.816 28.816-5.285 0-10.325-1.417-14.704-4.02-18.679-7.468-21.777-23.911-19.439-32.634l30.002-144.298-14.915-3.997-37.755 140.91c-4.711 17.581-1.149 35.929 9.744 50.467 8.787 8.787 24.69 16.332 43.297 16.332 30.326 0 54.586-26.856 54.586-52.576z" fill="#607882"/><path d="m80.35 379.244 37.693-140.678 14.062 3.768-37.755 140.91c-2.337 8.723-.524 17.836 4.973 25 2.28 2.972 5.054 5.409 8.158 7.254-8.758-.208-16.804-4.276-22.158-11.254-5.498-7.164-7.311-16.277-4.973-25zm70.651-77.148v15h15v72.606c0 25.72-20.319 46.645-50.645 46.645-18.607 0-30.904-3.931-40.239-10.402.139.185.265.377.406.561 11.222 14.624 28.229 23.011 46.663 23.011 32.431 0 58.816-26.385 58.816-58.816v-88.606h-30.001z" fill="#495959"/><path d="m230.001 153.789c0-23.815-9.936-49.712-28.766-68.542-16.913-14.205-38.726-22.766-62.542-22.766-53.741 0-97.307 43.566-97.307 97.307 0 23.815 8.56 45.628 22.766 62.542 15.999 15.999 44.726 28.766 68.542 28.766 53.741 0 97.307-43.566 97.307-97.307z" fill="#eef9fa"/><path d="m201.235 85.247c14.205 16.913 22.766 38.726 22.766 62.542 0 53.741-43.566 97.307-97.307 97.307-23.815 0-45.628-8.56-62.542-22.766 17.85 21.252 44.616 34.766 74.542 34.766 53.741 0 97.307-43.566 97.307-97.307 0-29.926-13.514-56.692-34.766-74.542z" fill="#dcf2f6"/><path d="m150.693 156.789c0-2.333-.489-5.493-5.498-10.502-1.969-.95-4.169-1.498-6.502-1.498-8.284 0-15 6.716-15 15 0 2.333.548 4.532 1.498 6.502 4.316 4.316 8.169 5.498 10.502 5.498 8.285 0 15-6.716 15-15z" fill="#607882"/><path d="m145.195 146.287c.95 1.969 1.498 4.169 1.498 6.502 0 8.284-6.716 15-15 15-2.333 0-4.533-.548-6.502-1.498 2.424 5.023 7.55 8.498 13.502 8.498 8.284 0 15-6.716 15-15 0-5.952-3.474-11.078-8.498-13.502z" fill="#495959"/></g><g><path d="m445.504 457.019c-12.407 0-22.5-10.093-22.5-22.5v-11.246c-28.246-11.307-43.996-45.525-43.996-97.672 0-4.142 3.358-7.5 7.5-7.5s7.5 3.358 7.5 7.5c0 32.412 6.69 86.786 51.496 86.786s51.496-54.374 51.496-86.786-6.69-86.787-51.496-86.787c-33.428 0-45.278 30.772-49.333 56.587-.643 4.091-4.488 6.89-8.573 6.245-4.092-.643-6.888-4.481-6.246-8.573 5.347-34.037 19.849-56.419 41.652-65.143v-115.412c0-6.912-5.624-12.535-12.536-12.536-5.663 0-10.642 3.821-12.108 9.291l-13.084 48.832c-1.072 4.001-5.186 6.375-9.186 5.304-4.001-1.072-6.375-5.185-5.304-9.186l13.084-48.832c3.22-12.017 14.157-20.409 26.598-20.409 15.183 0 27.536 12.353 27.536 27.536v81.297h15v-81.297c0-23.454-19.081-42.535-42.535-42.536-19.218 0-36.113 12.964-41.086 31.527l-81.749 305.1c-3.22 12.016-14.157 20.409-26.597 20.409-15.184 0-27.537-12.353-27.537-27.536v-89.887h-15v89.887c0 23.454 19.082 42.536 42.537 42.536 19.217 0 36.112-12.965 41.085-31.527l59.655-222.644c1.072-4.001 5.189-6.375 9.186-5.304 4.001 1.072 6.375 5.185 5.304 9.186l-59.655 222.644c-6.727 25.108-29.58 42.645-55.574 42.645-31.726 0-57.537-25.811-57.537-57.536v-89.887h-14.999v81.106c0 36.567-29.749 66.316-66.316 66.316-20.784 0-39.96-9.457-52.613-25.945-12.652-16.489-16.824-37.459-11.444-57.535l32.341-120.708c-33.593-17.48-56.584-52.625-56.584-93.04 0-29.27 12.059-55.774 31.471-74.807h-42.857c-4.136 0-7.5 3.364-7.5 7.5v194.614c0 4.136 3.364 7.5 7.5 7.5h30.664c4.142 0 7.5 3.358 7.5 7.5s-3.358 7.5-7.5 7.5h-30.664c-12.407 0-22.5-10.093-22.5-22.5v-194.615c0-12.407 10.093-22.5 22.5-22.5h62.21c15.777-9.52 34.252-15 53.983-15 57.791 0 104.807 47.016 104.807 104.807s-47.016 104.807-104.807 104.807c-1.594 0-3.183-.036-4.76-.107l-8.067 30.107h141.134c4.136 0 7.5-3.364 7.5-7.5v-194.614c0-4.136-3.364-7.5-7.5-7.5h-31.383c-4.142 0-7.5-3.358-7.5-7.5s3.358-7.5 7.5-7.5h86.383c12.407 0 22.5 10.093 22.5 22.5v43.933l10.393-38.787c6.727-25.109 29.581-42.645 55.576-42.645 31.725 0 57.535 25.811 57.535 57.536v115.41c28.246 11.306 43.996 45.525 43.996 97.673 0 52.147-15.75 86.366-43.996 97.673v11.245c0 12.406-10.093 22.5-22.5 22.5zm-7.5-30.041v7.541c0 4.136 3.365 7.5 7.5 7.5 4.136 0 7.5-3.364 7.5-7.5v-7.541c-4.864.543-10.136.543-15 0zm-333.613-168.146-31.774 118.588c-4.163 15.535-.935 31.762 8.855 44.521 9.791 12.759 24.63 20.077 40.712 20.077 28.296 0 51.316-23.02 51.316-51.316v-81.106h-15v81.106c0 20.025-16.292 36.316-36.316 36.316-11.381 0-21.883-5.179-28.812-14.208-6.929-9.03-9.213-20.514-6.268-31.507l31.774-118.586c-4.96-.953-9.8-2.258-14.487-3.885zm144.109 50.764v89.887c0 6.912 5.624 12.536 12.536 12.536 5.663 0 10.642-3.821 12.108-9.292l24.954-93.131zm-126.653 0-20.253 75.589c-1.729 6.453-.388 13.194 3.679 18.494s10.23 8.34 16.911 8.34c11.754 0 21.316-9.562 21.316-21.316v-81.106h-21.653zm166.368-15h13.902l27.383-102.2c0-.004 0-.009 0-.013v-99.902c0-4.136-3.364-7.5-7.5-7.5h-33.785c.832 2.347 1.285 4.872 1.285 7.5v194.614c0 2.629-.453 5.154-1.285 7.501zm-149.522-224.615c-49.52 0-89.807 40.287-89.807 89.807s40.287 89.807 89.807 89.807 89.807-40.287 89.807-89.807-40.287-89.807-89.807-89.807zm299.311 138.833v15.409c4.869-.545 10.138-.544 15-.001v-15.408zm-299.311-4.697c-4.142 0-7.5-3.358-7.5-7.5v-15.613c-8.73-3.095-15-11.437-15-21.215s6.27-18.12 15-21.215v-46.093c0-4.142 3.358-7.5 7.5-7.5s7.5 3.358 7.5 7.5v46.092c8.73 3.095 15 11.437 15 21.215s-6.27 18.12-15 21.215v15.613c0 4.143-3.358 7.501-7.5 7.501zm0-51.828c-4.136 0-7.5 3.365-7.5 7.5 0 4.136 3.364 7.5 7.5 7.5 4.135 0 7.5-3.364 7.5-7.5s-3.364-7.5-7.5-7.5z"/></g></g></svg>