<svg id="Capa_1" enable-background="new 0 0 512 512" height="512" viewBox="0 0 512 512" width="512" xmlns="http://www.w3.org/2000/svg"><g><g><path d="m496.5 422.953-7-320.471c-2.232-1.29-4.651-2.317-7.232-3.011-41.95-11.271-136.64-33.685-226.268-33.685s-184.318 22.414-226.268 33.686c-13.113 3.523-22.232 15.398-22.232 28.977v287.765c0 5.466 1.469 10.586 4.023 15l469.716 7c8.429 0 15.261-6.833 15.261-15.261z" fill="#eef9fa"/><path d="m489.5 102.482v313.471c0 8.428-6.832 15.26-15.26 15.26h-462.717c5.188 8.964 14.874 15 25.977 15h437c16.568 0 30-13.432 30-30v-287.764c0-10.906-5.89-20.703-15-25.967z" fill="#dcf2f6"/><path d="m466.499 400.713-7.014-275.693c0-.161-.015-.319-.02-.479-25.052-6.302-63.18-14.901-105.809-21.051h-195.311c-44.807 6.465-84.656 15.636-109.566 22.003-6.64 1.697-11.278 7.678-11.278 14.531v261.188l421.499 7c4.141.002 7.499-3.357 7.499-7.499z" fill="#607882"/><path d="m474.484 140.021c0-6.854-4.638-12.834-11.278-14.531-1.209-.309-2.464-.626-3.742-.948.005.16.02.318.02.479l.014 268.693c0 4.142-3.358 7.5-7.5 7.5h-414.498c0 8.284 6.716 15 15 15h406.999c8.285 0 15-6.716 15-15.001z" fill="#495959"/><path d="m252 162.307c42.151 0 79.174-24.47 87.4-60.75-27.118-3.46-55.607-5.771-83.4-5.771-32.709 0-66.389 3.194-97.655 7.705 1.044 3.522 2.355 6.957 3.898 10.296 17.957 29.592 53.403 48.52 89.757 48.52z" fill="#bae6ef"/><path d="m339.4 101.557c-16.141 31.649-53.783 53.75-92.4 53.75-33.418 0-66.099-16.555-84.758-41.52 15.308 33.125 54.022 56.52 93.758 56.52 43.741 0 86.249-28.345 97.656-66.816-4.7-.678-9.459-1.322-14.256-1.934z" fill="#94d8e6"/></g><g><path d="m474.5 453.714h-211.165c-4.142 0-7.5-3.358-7.5-7.5s3.358-7.5 7.5-7.5h211.165c12.407 0 22.5-10.093 22.5-22.5v-287.766c0-10.158-6.858-19.096-16.678-21.734-37.409-10.05-134.155-33.428-224.322-33.428-31.113 0-65.736 2.757-102.908 8.194-4.103.599-7.907-2.237-8.506-6.335-.6-4.099 2.237-7.907 6.335-8.506 37.889-5.542 73.242-8.352 105.079-8.352 88.646 0 181.033 21.266 228.214 33.942 16.36 4.396 27.786 19.29 27.786 36.22v287.765c0 20.677-16.822 37.5-37.5 37.5zm-241.165 0h-195.835c-20.678 0-37.5-16.822-37.5-37.5v-287.766c0-16.93 11.426-31.824 27.786-36.22 20.192-5.425 52.169-13.322 89.841-20.135 4.079-.735 7.978 1.97 8.715 6.046s-1.97 7.978-6.046 8.715c-37.162 6.721-68.703 14.51-88.619 19.86-9.819 2.639-16.677 11.576-16.677 21.734v287.765c0 12.407 10.093 22.5 22.5 22.5h195.835c4.142 0 7.5 3.358 7.5 7.5s-3.357 7.501-7.5 7.501zm226.164-30h-406.999c-12.407 0-22.5-10.093-22.5-22.5v-261.188c0-10.288 6.958-19.252 16.921-21.798 43.752-11.182 129.093-29.942 209.079-29.942 79.984 0 165.316 18.756 209.063 29.937 9.963 2.546 16.921 11.509 16.921 21.797l.006 76.003c0 4.142-3.357 7.5-7.5 7.5s-7.5-3.357-7.5-7.5l-.006-76.003c0-3.429-2.317-6.417-5.635-7.264-24.111-6.162-61.029-14.661-102.61-20.949-6.926 17.955-20.356 34.215-38.251 46.18-19.115 12.781-42.018 19.819-64.488 19.819-22.454 0-45.342-7.029-64.449-19.793-17.914-11.967-31.36-28.237-38.291-46.206-41.584 6.289-78.512 14.79-102.625 20.953-3.318.848-5.636 3.835-5.636 7.265v261.188c0 4.136 3.364 7.5 7.5 7.5h406.999c2.003 0 3.887-.78 5.304-2.197s2.196-3.3 2.196-5.304l-.009-155.189c0-4.142 3.357-7.5 7.5-7.5 4.142 0 7.5 3.357 7.5 7.5l.009 155.189c0 6.01-2.34 11.661-6.59 15.911-4.248 4.25-9.899 6.591-15.909 6.591zm-203.499-296.272c4.142 0 7.5 3.358 7.5 7.5v27.57c34.856-2.73 67.194-24.169 79.917-52.888-28.318-3.78-58.253-6.338-87.417-6.338-29.159 0-59.101 2.559-87.416 6.338 12.722 28.715 45.069 50.156 79.916 52.887v-27.569c0-4.142 3.358-7.5 7.5-7.5z"/></g></g></svg>