<svg id="Capa_1" enable-background="new 0 0 512 512" height="512" viewBox="0 0 512 512" width="512" xmlns="http://www.w3.org/2000/svg"><g><g><path d="m46.848 477.326c0-7.919-10.717-34.811-10.717-34.811-2.911-4.909-10.003-4.909-12.913 0-11.88 20.036-15.718 31.892-15.718 39.811 0 3.276.716 6.383 1.992 9.182 4.035 4.064 8.691 7.992 15.182 7.992 12.246 0 22.174-9.928 22.174-22.174z" fill="#df646e"/><path d="m36.131 442.515s4.717 20.892 4.717 28.811c0 12.246-9.928 22.174-22.174 22.174-3.276 0-6.383-.716-9.182-1.992 3.492 7.662 11.212 12.992 20.182 12.992 12.246 0 22.174-9.928 22.174-22.174 0-7.919-3.838-19.775-15.717-39.811z" fill="#ca4646"/><path d="m104.659 440.554 24.752-36.752-41.82-21.82-20.752 20.752c-5.858 5.858-5.858 15.355-.001 21.213l10.607 10.607c10.608 10.607 21.356 11.858 27.214 6z" fill="#eef9fa"/><path d="m98.659 434.554c-5.858 5.858-15.355 5.858-21.213 0l10.607 10.607c5.858 5.858 15.355 5.858 21.213 0l20.752-20.752-.606-20.607z" fill="#dcf2f6"/><path d="m157.302 312.271-69.71 69.711 31.819 31.82 80.318-59.104z" fill="#607882"/><path d="m110.277 376.75h98.586v15h-98.586z" fill="#495959" transform="matrix(.707 -.707 .707 .707 -224.969 225.378)"/><path d="m499.893 133.656c0-24.56-10.413-49.745-46.412-85.744-25.111-23.447-55.183-40.412-79.744-40.412-52.692 0-258.723 206.031-258.723 258.723 0 15.866 21.313 45.605 47.439 72.717 34.336 34.336 62.851 53.439 78.717 53.439 52.693 0 258.723-206.031 258.723-258.723z" fill="#eef9fa"/><path d="m453.482 47.912c23.447 25.112 40.412 55.183 40.412 79.744 0 52.692-206.031 258.723-258.723 258.723-15.866 0-45.605-21.313-72.717-47.439 29.59 30.707 65.354 58.045 83.324 58.045 52.692 0 258.723-206.031 258.723-258.723-.001-28.131-22.256-63.493-51.019-90.35z" fill="#dcf2f6"/><path d="m424.966 115.318c-5.894 5.894-7.307 14.562-4.261 21.798 8.429 8.429 21.103 6.832 26.997.938s8.322-17.737-.938-26.997c-7.236-3.047-15.904-1.633-21.798 4.261z" fill="#e6989e"/><path d="m453.109 115.318c-1.877-1.877-4.04-3.291-6.345-4.261 3.046 7.236 1.633 15.904-4.261 21.798s-14.562 7.307-21.798 4.261c.97 2.305 2.384 4.468 4.261 6.345 7.771 7.771 20.372 7.771 28.143 0s7.772-20.372 0-28.143z" fill="#df646e"/><path d="m368.539 58.891c-5.894 5.894-7.307 14.562-4.261 21.798 8.429 8.429 21.103 6.832 26.997.938s8.322-17.737-.938-26.997c-7.236-3.047-15.904-1.633-21.798 4.261z" fill="#bae6ef"/><path d="m386.075 76.427c-5.894 5.894-14.562 7.307-21.798 4.261.97 2.305 2.384 4.468 4.261 6.345 7.772 7.772 20.372 7.772 28.143 0 7.771-7.771 7.771-20.372 0-28.143-1.877-1.878-4.041-3.291-6.345-4.261 3.047 7.236 1.633 15.904-4.261 21.798z" fill="#94d8e6"/><path d="m254.077 347.423 155.606-155.605c5.858-5.858 4.606-16.607-6-27.213l-66.893-66.894c-5.858-5.858-15.355-5.858-21.213 0l-155.606 155.606c-5.858 5.858-5.858 15.355 0 21.213l66.893 66.893c10.606 10.606 21.355 11.858 27.213 6z" fill="#607882"/><path d="m403.683 164.604c5.857 5.858 5.857 15.355 0 21.213l-155.606 155.606c-5.858 5.858-15.355 5.858-21.213 0l10.606 10.607c5.858 5.858 15.355 5.858 21.213 0l155.606-155.606c5.858-5.858 5.858-15.355 0-21.213z" fill="#495959"/></g><g><path d="m29.674 512c-16.362 0-29.674-13.312-29.674-29.674 0-10.478 5.327-24.344 16.766-43.636 2.731-4.607 7.557-7.357 12.908-7.357s10.177 2.75 12.908 7.357c11.438 19.292 16.766 33.158 16.766 43.636 0 16.362-13.312 29.674-29.674 29.674zm.006-65.66c-9.744 16.416-14.68 28.524-14.68 35.986 0 8.091 6.583 14.674 14.674 14.674s14.674-6.583 14.674-14.674c0-7.462-4.936-19.57-14.668-35.986zm68.979 13.813c-3.842 0-7.682-1.461-10.606-4.386l-31.82-31.82c-5.848-5.849-5.848-15.365 0-21.213l80.926-80.926c-16.638-20.334-29.644-41.363-29.644-55.586 0-14.163 11.962-44.564 68.946-108.967 2.746-3.102 7.486-3.391 10.587-.646 3.103 2.745 3.392 7.484.647 10.587-31.511 35.611-65.181 80.327-65.181 99.026 0 13.112 20.765 43.035 50.496 72.767s59.654 50.496 72.767 50.496c5.558 0 28.581-4.227 91.516-58.611 40.931-35.37 84.18-79.671 115.69-118.503 2.609-3.216 7.332-3.709 10.55-1.098 3.217 2.61 3.708 7.333 1.099 10.549-32.035 39.478-75.973 84.488-117.531 120.402-32.869 28.403-77.129 62.262-101.323 62.262-14.223 0-35.252-13.006-55.586-29.644l-80.925 80.925c-2.925 2.924-6.767 4.386-10.608 4.386zm-10.606-25.599 10.606 10.607 20.752-20.752-31.819-31.82-20.752 20.752 10.606 10.606 4.843-4.842c2.928-2.929 7.677-2.929 10.606 0s2.929 7.678-.001 10.607zm10.145-52.572 31.819 31.82 48.743-48.743c-5.687-5.076-11.196-10.303-16.356-15.463s-10.388-10.67-15.464-16.356zm149.879-18.059c-6.01 0-11.66-2.341-15.91-6.59l-77.5-77.5c-8.771-8.773-8.771-23.047 0-31.82l155.605-155.605c4.251-4.25 9.9-6.59 15.91-6.59 6.011 0 11.66 2.341 15.91 6.59l77.5 77.5c4.249 4.25 6.59 9.9 6.59 15.91s-2.341 11.66-6.591 15.91l-117.93 117.93c-2.931 2.929-7.679 2.928-10.607 0-2.929-2.929-2.929-7.678 0-10.606l117.931-117.931c1.417-1.417 2.197-3.3 2.197-5.303s-.78-3.887-2.196-5.303l-77.501-77.5c-1.416-1.417-3.299-2.197-5.303-2.197-2.003 0-3.887.78-5.304 2.197l-155.604 155.605c-2.925 2.924-2.925 7.683 0 10.607l77.5 77.5c1.416 1.417 3.3 2.197 5.303 2.197s3.887-.78 5.303-2.197l15.675-15.675c2.929-2.928 7.677-2.93 10.607 0 2.929 2.929 2.929 7.678 0 10.606l-15.675 15.675c-4.25 4.249-9.9 6.59-15.91 6.59zm68.535-100.543c-1.427 1.427-3.422 2.277-5.598 2.192-4.133-.162-7.354-3.639-7.202-7.771.007-.192.347-12.863-4.667-28.123-1.107 1.707-2.408 3.325-3.904 4.82-11.515 11.515-30.252 11.515-41.768 0-11.515-11.515-11.515-30.252 0-41.768 11.515-11.515 30.252-11.515 41.768 0 1.069 1.069 2.04 2.201 2.91 3.383 21.744 27.643 20.705 60.851 20.65 62.256-.077 1.966-.901 3.723-2.189 5.011zm-52.532-60.041c-5.667 5.667-5.667 14.888 0 20.554 5.667 5.667 14.887 5.667 20.554 0 5.095-5.095 5.61-13.064 1.542-18.739-.007-.008-.013-.016-.02-.024-.104-.132-.203-.265-.297-.401-.374-.483-.782-.948-1.225-1.391-5.666-5.666-14.886-5.667-20.554.001zm108.661 3.912c-11.515 11.515-30.252 11.515-41.768 0l-24.917-24.917c-11.516-11.516-11.516-30.253 0-41.768 11.515-11.515 30.252-11.515 41.768-.001l24.917 24.917c11.516 11.516 11.516 30.253 0 41.769zm-56.078-56.079c-5.667 5.667-5.667 14.888 0 20.555l24.917 24.917c5.667 5.667 14.888 5.668 20.555 0s5.668-14.888 0-20.555l-24.917-24.917c-5.668-5.666-14.889-5.666-20.555 0zm65.948-105.597c-15.126 0-27.387 12.262-27.387 27.387s12.262 27.387 27.387 27.387 27.387-12.262 27.387-27.387-12.261-27.387-27.387-27.387zm0 39.781c-6.845 0-12.394-5.549-12.394-12.394s5.549-12.394 12.394-12.394 12.394 5.549 12.394 12.394-5.548 12.394-12.394 12.394zm56.427 16.646c-15.126 0-27.387 12.262-27.387 27.387s12.262 27.387 27.387 27.387 27.387-12.262 27.387-27.387-12.261-27.387-27.387-27.387zm0 39.782c-6.845 0-12.394-5.549-12.394-12.394s5.549-12.394 12.394-12.394 12.394 5.549 12.394 12.394-5.549 12.394-12.394 12.394zm38.787 58.004c-1.512 0-3.039-.456-4.362-1.404-3.366-2.413-4.14-7.098-1.728-10.465 21.983-30.674 25.265-44.277 25.265-49.656 0-48.384-74.879-123.263-123.263-123.263-24.173 0-96.801 56.91-165.344 129.562-2.844 3.012-7.59 3.15-10.602.308-3.014-2.842-3.151-7.589-.309-10.602 61.011-64.667 142.191-134.268 176.255-134.268 56.856 0 138.263 81.407 138.263 138.263 0 12.935-9.183 32.035-28.071 58.394-1.465 2.043-3.767 3.131-6.104 3.131z"/></g></g></svg>