<svg id="Capa_1" enable-background="new 0 0 511.965 511.965" height="512" viewBox="0 0 511.965 511.965" width="512" xmlns="http://www.w3.org/2000/svg"><g><g><path d="m22.269 350.745 138.95 138.95c11.716 11.716 35.711 6.716 47.426-5l287.05-287.049c11.716-11.716 11.716-30.711 0-42.426l-138.95-138.951c-11.716-11.716-30.711-11.716-42.426 0l-287.05 287.05c-11.716 11.715-16.716 35.71-5 47.426z" fill="#eef9fa"/><path d="m197.646 495.696 11-11c-11.716 11.716-30.71 11.716-42.426 0l-138.95-138.95c-11.716-11.716-11.716-30.711 0-42.426l-11 11c-11.716 11.716-11.716 30.711 0 42.426l138.95 138.95c11.716 11.715 30.71 11.715 42.426 0z" fill="#dcf2f6"/><path d="m115.333 323.966c0-2.997-1.694-8.246-6.838-13.39-2.558-1.169-5.393-1.838-8.39-1.838-11.172 0-20.229 9.057-20.229 20.229 0 2.997.669 5.832 1.838 8.39 5.272 5.272 10.393 6.838 13.39 6.838 11.172 0 20.229-9.057 20.229-20.229z" fill="#ffe07d"/><path d="m108.495 310.575c1.169 2.559 1.838 5.394 1.838 8.39 0 11.172-9.057 20.229-20.229 20.229-2.997 0-5.832-.669-8.39-1.838 3.19 6.979 10.215 11.838 18.39 11.838 11.172 0 20.229-9.057 20.229-20.229 0-8.174-4.859-15.2-11.838-18.39z" fill="#ffc250"/><path d="m172.548 266.75c0-2.997-1.694-8.246-6.838-13.39-2.558-1.169-5.393-1.838-8.39-1.838-11.172 0-20.229 9.057-20.229 20.229 0 2.997.669 5.832 1.838 8.39 5.272 5.272 10.393 6.838 13.39 6.838 11.173 0 20.229-9.057 20.229-20.229z" fill="#ffe07d"/><path d="m165.71 253.36c1.169 2.559 1.838 5.394 1.838 8.39 0 11.172-9.057 20.229-20.229 20.229-2.997 0-5.832-.669-8.39-1.838 3.19 6.979 10.215 11.838 18.39 11.838 11.172 0 20.229-9.057 20.229-20.229 0-8.175-4.859-15.2-11.838-18.39z" fill="#ffc250"/><path d="m229.764 209.535c0-2.997-1.694-8.246-6.838-13.39-2.558-1.169-5.393-1.838-8.39-1.838-11.172 0-20.229 9.057-20.229 20.229 0 2.997.669 5.832 1.838 8.39 5.272 5.272 10.393 6.838 13.39 6.838 11.172 0 20.229-9.057 20.229-20.229z" fill="#ffe07d"/><path d="m222.925 196.145c1.169 2.559 1.838 5.394 1.838 8.39 0 11.172-9.057 20.229-20.229 20.229-2.997 0-5.832-.669-8.39-1.838 3.19 6.979 10.215 11.838 18.39 11.838 11.172 0 20.229-9.057 20.229-20.229.001-8.175-4.858-15.201-11.838-18.39z" fill="#ffc250"/><path d="m286.979 152.32c0-2.997-1.694-8.246-6.838-13.39-2.558-1.169-5.393-1.838-8.39-1.838-11.172 0-20.229 9.057-20.229 20.229 0 2.997.669 5.832 1.838 8.39 5.272 5.272 10.393 6.838 13.39 6.838 11.172-.001 20.229-9.057 20.229-20.229z" fill="#ffe07d"/><path d="m280.141 138.929c1.169 2.559 1.838 5.394 1.838 8.39 0 11.172-9.057 20.229-20.229 20.229-2.997 0-5.832-.669-8.39-1.838 3.19 6.979 10.215 11.838 18.39 11.838 11.172 0 20.229-9.057 20.229-20.229 0-8.174-4.859-15.2-11.838-18.39z" fill="#ffc250"/><path d="m344.195 95.104c0-2.997-1.694-8.246-6.838-13.39-2.558-1.169-5.393-1.838-8.39-1.838-11.172 0-20.229 9.057-20.229 20.229 0 2.997.669 5.832 1.838 8.39 5.272 5.272 10.393 6.838 13.39 6.838 11.172 0 20.229-9.057 20.229-20.229z" fill="#ffe07d"/><path d="m337.356 81.714c1.169 2.559 1.838 5.394 1.838 8.39 0 11.172-9.057 20.229-20.229 20.229-2.997 0-5.832-.669-8.39-1.838 3.19 6.979 10.215 11.838 18.39 11.838 11.172 0 20.229-9.057 20.229-20.229.001-8.175-4.859-15.2-11.838-18.39z" fill="#ffc250"/><path d="m198.228 406.861c0-2.997-1.694-8.246-6.838-13.39-2.558-1.169-5.393-1.838-8.39-1.838-11.172 0-20.229 9.057-20.229 20.229 0 2.997.669 5.832 1.838 8.39 5.272 5.272 10.393 6.838 13.39 6.838 11.172-.001 20.229-9.057 20.229-20.229z" fill="#ffe07d"/><path d="m191.39 393.47c1.169 2.559 1.838 5.394 1.838 8.39 0 11.172-9.057 20.229-20.229 20.229-2.997 0-5.832-.669-8.39-1.838 3.19 6.979 10.215 11.838 18.39 11.838 11.172 0 20.229-9.057 20.229-20.229 0-8.175-4.859-15.2-11.838-18.39z" fill="#ffc250"/><path d="m255.443 349.645c0-2.997-1.694-8.246-6.838-13.39-2.558-1.169-5.393-1.838-8.39-1.838-11.172 0-20.229 9.057-20.229 20.229 0 2.997.669 5.832 1.838 8.39 5.272 5.272 10.393 6.838 13.39 6.838 11.173 0 20.229-9.057 20.229-20.229z" fill="#ffe07d"/><path d="m248.605 336.255c1.169 2.559 1.838 5.394 1.838 8.39 0 11.172-9.057 20.229-20.229 20.229-2.997 0-5.832-.669-8.39-1.838 3.19 6.979 10.215 11.838 18.39 11.838 11.172 0 20.229-9.057 20.229-20.229 0-8.175-4.859-15.2-11.838-18.39z" fill="#ffc250"/><path d="m312.659 292.43c0-2.997-1.694-8.246-6.838-13.39-2.558-1.169-5.393-1.838-8.39-1.838-11.172 0-20.229 9.057-20.229 20.229 0 2.997.669 5.832 1.838 8.39 5.272 5.272 10.393 6.838 13.39 6.838 11.172-.001 20.229-9.057 20.229-20.229z" fill="#ffe07d"/><path d="m305.82 279.039c1.169 2.559 1.838 5.394 1.838 8.39 0 11.172-9.057 20.229-20.229 20.229-2.997 0-5.832-.669-8.39-1.838 3.19 6.979 10.215 11.838 18.39 11.838 11.172 0 20.229-9.057 20.229-20.229.001-8.174-4.858-15.2-11.838-18.39z" fill="#ffc250"/><path d="m369.874 235.214c0-2.997-1.694-8.246-6.838-13.39-2.558-1.169-5.393-1.838-8.39-1.838-11.172 0-20.229 9.057-20.229 20.229 0 2.997.669 5.832 1.838 8.39 5.272 5.272 10.393 6.838 13.39 6.838 11.172 0 20.229-9.057 20.229-20.229z" fill="#ffe07d"/><path d="m363.036 221.824c1.169 2.559 1.838 5.394 1.838 8.39 0 11.172-9.057 20.229-20.229 20.229-2.997 0-5.832-.669-8.39-1.838 3.19 6.979 10.215 11.838 18.39 11.838 11.172 0 20.229-9.057 20.229-20.229 0-8.175-4.859-15.2-11.838-18.39z" fill="#ffc250"/><path d="m427.09 177.999c0-2.997-1.694-8.246-6.838-13.39-2.558-1.169-5.393-1.838-8.39-1.838-11.172 0-20.229 9.057-20.229 20.229 0 2.997.669 5.832 1.838 8.39 5.272 5.272 10.393 6.838 13.39 6.838 11.172 0 20.229-9.057 20.229-20.229z" fill="#ffe07d"/><path d="m420.251 164.609c1.169 2.559 1.838 5.394 1.838 8.39 0 11.172-9.057 20.229-20.229 20.229-2.997 0-5.832-.669-8.39-1.838 3.19 6.979 10.215 11.838 18.39 11.838 11.172 0 20.229-9.057 20.229-20.229.001-8.175-4.859-15.2-11.838-18.39z" fill="#ffc250"/></g><g><path d="m0 335.532c0-9.604 3.655-19.206 10.966-26.518l29.335-29.335c2.93-2.929 7.678-2.929 10.607 0 2.928 2.928 2.93 7.676 0 10.607l-29.335 29.335c-4.25 4.249-6.591 9.899-6.591 15.91 0 6.01 2.341 11.66 6.591 15.909l138.95 138.95c4.249 4.25 9.899 6.591 15.909 6.591 6.011 0 11.661-2.341 15.91-6.591l190.808-190.806c2.93-2.929 7.678-2.929 10.607 0 2.928 2.931 2.928 7.679 0 10.607l-190.807 190.808c-14.622 14.621-38.412 14.621-53.034 0l-138.95-138.95c-7.311-7.312-10.966-16.914-10.966-26.517zm59.104-71.549c0-1.92.732-3.839 2.196-5.304l247.715-247.713c14.622-14.621 38.412-14.621 53.033 0l138.951 138.951c14.62 14.621 14.622 38.411 0 53.033l-86.241 86.242c-2.93 2.929-7.678 2.929-10.607 0-2.929-2.93-2.927-7.678 0-10.607l86.241-86.241c4.25-4.25 6.591-9.9 6.591-15.91s-2.341-11.66-6.591-15.91l-138.951-138.952c-8.772-8.772-23.047-8.772-31.819 0l-247.714 247.715c-2.93 2.929-7.678 2.929-10.607 0-1.464-1.465-2.197-3.385-2.197-5.304zm13.272 64.983c0-15.29 12.438-27.729 27.729-27.729s27.729 12.438 27.729 27.729c0 15.289-12.438 27.729-27.729 27.729s-27.729-12.44-27.729-27.729zm40.457 0c0-7.019-5.71-12.729-12.729-12.729s-12.729 5.71-12.729 12.729 5.71 12.729 12.729 12.729 12.729-5.711 12.729-12.729zm16.758-57.216c0-15.29 12.438-27.729 27.729-27.729s27.729 12.439 27.729 27.729-12.438 27.729-27.729 27.729-27.729-12.439-27.729-27.729zm40.457 0c0-7.019-5.71-12.729-12.729-12.729s-12.729 5.71-12.729 12.729c0 7.02 5.71 12.729 12.729 12.729s12.729-5.709 12.729-12.729zm-14.777 140.11c0-15.29 12.439-27.729 27.729-27.729s27.729 12.438 27.729 27.729-12.438 27.729-27.729 27.729c-15.29 0-27.729-12.439-27.729-27.729zm40.457 0c0-7.019-5.71-12.729-12.729-12.729s-12.729 5.71-12.729 12.729 5.71 12.729 12.729 12.729 12.729-5.71 12.729-12.729zm-14.576-88.548c0-1.92.732-3.839 2.196-5.304l134.66-134.659c2.93-2.929 7.678-2.929 10.607 0 2.928 2.929 2.928 7.678 0 10.606l-134.66 134.66c-2.93 2.929-7.678 2.929-10.607 0-1.463-1.464-2.196-3.384-2.196-5.303zm5.655-108.777c0-15.29 12.438-27.729 27.729-27.729 15.289 0 27.729 12.439 27.729 27.729s-12.439 27.729-27.729 27.729c-15.291 0-27.729-12.439-27.729-27.729zm40.457 0c0-7.019-5.71-12.729-12.729-12.729s-12.729 5.71-12.729 12.729 5.71 12.729 12.729 12.729 12.729-5.71 12.729-12.729zm-14.779 140.111c0-15.29 12.439-27.729 27.729-27.729s27.729 12.438 27.729 27.729-12.438 27.729-27.729 27.729-27.729-12.439-27.729-27.729zm40.458 0c0-7.019-5.71-12.729-12.729-12.729-7.02 0-12.729 5.71-12.729 12.729s5.71 12.729 12.729 12.729c7.019-.001 12.729-5.711 12.729-12.729zm-8.922-197.326c0-15.29 12.438-27.729 27.729-27.729s27.729 12.439 27.729 27.729-12.439 27.729-27.729 27.729-27.729-12.44-27.729-27.729zm40.458 0c0-7.019-5.71-12.729-12.729-12.729s-12.729 5.71-12.729 12.729 5.71 12.729 12.729 12.729c7.02-.001 12.729-5.711 12.729-12.729zm-14.778 140.11c0-15.289 12.439-27.729 27.729-27.729s27.729 12.439 27.729 27.729-12.438 27.729-27.729 27.729c-15.289-.001-27.729-12.439-27.729-27.729zm40.457 0c0-7.019-5.71-12.729-12.729-12.729s-12.729 5.71-12.729 12.729 5.71 12.729 12.729 12.729 12.729-5.711 12.729-12.729zm-8.921-197.326c0-15.29 12.438-27.729 27.729-27.729 15.289 0 27.729 12.439 27.729 27.729s-12.439 27.729-27.729 27.729-27.729-12.439-27.729-27.729zm40.457 0c0-7.019-5.71-12.729-12.729-12.729s-12.729 5.71-12.729 12.729 5.71 12.729 12.729 12.729 12.729-5.71 12.729-12.729zm-14.777 140.11c0-15.29 12.438-27.729 27.729-27.729s27.729 12.439 27.729 27.729-12.438 27.729-27.729 27.729-27.729-12.439-27.729-27.729zm40.457 0c0-7.019-5.71-12.729-12.729-12.729s-12.729 5.71-12.729 12.729 5.71 12.729 12.729 12.729 12.729-5.71 12.729-12.729zm16.758-57.215c0-15.29 12.438-27.729 27.729-27.729s27.729 12.439 27.729 27.729-12.438 27.729-27.729 27.729-27.729-12.439-27.729-27.729zm40.457 0c0-7.019-5.71-12.729-12.729-12.729s-12.729 5.71-12.729 12.729 5.71 12.729 12.729 12.729 12.729-5.71 12.729-12.729z"/></g></g></svg>