<svg id="Capa_1" enable-background="new 0 0 512 512" height="512" viewBox="0 0 512 512" width="512" xmlns="http://www.w3.org/2000/svg"><g><g><path d="m224.485 429.372c30.873-32.705 52.851-220.818 34.898-226.806l-88.138-29.399-101.236 34.407c0 96.222 20.069 192.009 42.143 223.395 4.264 3.39 8.421 5.078 12.279 5.078 27.401 0 22.579-126.723 47.773-148.955 12.27 50.116 16.874 88.883 21.832 115.062 0 0 7.658 27.14 8.814 28.522 4.683 5.596 11.825 9.088 21.635-1.304z" fill="#fff3bf"/><path d="m206.612 431.667c-1.612 0-3.761-.991-3.761-.991 8.882-8.882 17.462-17.462 26.801-26.801-7.153 17.517-15.049 27.792-23.04 27.792zm-34.408-144.575c-24.426 99.762-18.472 154.575-45.408 154.575-4.851 0-9.796-3.803-14.644-10.697 1.226.455 2.442.697 3.644.697 25.205 0 18.322-42.458 40.673-143.762 1.792-8.118 13.35-8.776 15.735-.813zm87.18-84.527c-.335 53.899-6.054 107.312-14.752 148.993-16.798 16.798-34.103 34.103-50.595 50.595 4.912 25.934 10.171 39.513 23.575 39.513 26.936 0 56.788-116.737 56.788-234.093z" fill="#ffe07d"/><path d="m297.212 92.584c0-21.025-6.727-43.096-22.407-56.564-7.925-4.438-17.293-6.942-28.002-6.942-16.58 0-74.599 15.897-74.599 15.897s-58.019-15.897-74.599-15.897c-37.282 0-58.409 30.223-58.409 67.506 0 42.252 13.497 77.19 22.626 95.99l208.577 7s26.813-43.155 26.813-106.99z" fill="#eef9fa"/><path d="m274.805 36.02c11.636 13.49 15.407 33.539 15.407 54.564 0 63.835-24.813 101.99-24.813 101.99h-203.577c4.663 9.603 8.187 15 8.187 15h204.391s30.813-47.155 30.813-110.99c-.001-26.574-10.742-49.551-30.408-60.564z" fill="#dcf2f6"/><path d="m467.804 65.678c0-16.554-7.315-39.247-18.222-50.153-6.384-5.112-13.713-8.025-21.512-8.025-24.706 0-44.733 29.181-44.733 65.178 0 16.554 4.244 31.657 11.222 43.153 9.552 9.552 20.713 15.025 28.511 15.025 24.706 0 44.734-29.181 44.734-65.178z" fill="#eef9fa"/><path d="m449.582 15.525c6.979 11.496 11.222 26.599 11.222 43.153 0 35.997-20.028 65.178-44.733 65.178-7.798 0-15.128-2.913-21.511-8.025 8.196 13.502 20.167 22.025 33.511 22.025 24.706 0 44.733-29.181 44.733-65.178 0-24.634-9.383-46.071-23.222-57.153z" fill="#dcf2f6"/><path d="m344.083 247.017c5.818-5.818 3.908-14.362 3.883-14.477-5.004-1.337-10.563-.056-14.489 3.87-3.09 3.09-239.392 239.392-242.483 242.483-5.858 5.858-5.858 15.355 0 21.213 50.165-50.165 250.37-250.37 253.089-253.089z" fill="#87a0af"/><path d="m112.207 500.107c3.09-3.09 239.393-239.392 242.483-242.483 5.858-5.858 5.858-15.355 0-21.213-1.932-1.932-4.262-3.213-6.724-3.87.026.115 1.936 8.659-3.883 14.477-2.719 2.719-202.924 202.924-253.089 253.089 5.858 5.857 15.355 5.857 21.213 0z" fill="#607882"/></g><g><path d="m101.601 512c-6.01 0-11.66-2.341-15.91-6.59-4.249-4.25-6.59-9.9-6.59-15.91s2.341-11.66 6.591-15.91c.654-.654 11.775-11.776 28.921-28.921-5.104-3.927-9.979-10.446-14.719-19.639-6.768-13.129-13.294-32.01-18.873-54.602-11.614-47.028-18.338-105.474-18.509-160.702-5.937-9.797-30.815-54.367-30.815-113.142 0-29.159 12.211-53.91 32.664-66.207 3.548-2.134 8.157-.987 10.292 2.563s.987 8.158-2.563 10.292c-15.899 9.56-25.393 29.504-25.393 53.352 0 51.386 20.859 91.836 27.553 103.49h97.955c4.143 0 7.5 3.358 7.5 7.5s-3.357 7.5-7.5 7.5h-94.655c.57 52.466 7.07 107.366 18.033 151.756 5.303 21.473 11.404 39.221 17.644 51.326 5.36 10.4 9.75 14.525 12.237 15.66l12.587-12.587c3.524-10.44 6.118-26.395 9.372-46.405 3.894-23.947 8.739-53.75 17.496-89.516.822-3.356 3.83-5.716 7.285-5.716s6.463 2.36 7.285 5.716c7.489 30.588 12.117 56.814 15.736 78.747 22.503-22.503 45.552-45.552 66.002-66.002 3.398-27.254 5.328-55.742 5.63-82.979h-64.653c-4.143 0-7.5-3.358-7.5-7.5s3.357-7.5 7.5-7.5h67.947c6.684-11.678 27.561-52.265 27.561-103.49 0-17-4.809-32.271-13.54-43-9.055-11.125-21.977-17.006-37.369-17.006-12.768 0-56.748 11.283-72.617 15.631-1.297.355-2.666.355-3.963 0-15.869-4.348-59.85-15.631-72.617-15.631-4.143 0-7.5-3.358-7.5-7.5s3.357-7.5 7.5-7.5c15.877 0 63.112 12.516 74.599 15.625 11.486-3.108 58.722-15.625 74.599-15.625 20.059 0 37.004 7.793 49.003 22.538 10.902 13.396 16.906 32.03 16.906 52.468 0 58.775-24.879 103.345-30.815 113.142-.074 23.263-1.333 47.547-3.682 71.34 28.648-28.648 49.064-49.065 49.959-49.959 4.25-4.25 9.899-6.59 15.909-6.59 3.415 0 6.714.756 9.705 2.188l51.178-51.177c8.467-8.467 13.733-19.282 15.19-30.976-11.425-2.352-21.839-9.796-29.9-21.542-9.298-13.547-14.419-31.422-14.419-50.332s5.12-36.785 14.419-50.332c9.889-14.41 23.318-22.346 37.813-22.346s27.925 7.936 37.815 22.346c9.298 13.547 14.418 31.422 14.418 50.332s-5.12 36.785-14.418 50.332c-8.238 12.003-18.932 19.514-30.651 21.688-1.548 15.652-8.393 30.167-19.661 41.436l-51.178 51.177c1.432 2.992 2.188 6.291 2.188 9.706 0 6.01-2.341 11.66-6.591 15.91-.647.648-49.161 49.163-49.161 49.163-2.929 2.927-7.678 2.93-10.606 0-2.93-2.929-2.93-7.678-.001-10.607 0 0 48.51-48.51 49.16-49.161 1.419-1.419 2.199-3.303 2.199-5.306s-.78-3.887-2.196-5.303c-1.417-1.417-3.301-2.197-5.304-2.197s-3.887.78-5.304 2.197c-3.091 3.09-239.392 239.392-242.481 242.482-1.417 1.417-2.197 3.301-2.197 5.304s.78 3.886 2.196 5.303c1.417 1.417 3.301 2.197 5.304 2.197s3.887-.78 5.303-2.197c1.164-1.163 171.32-171.319 171.32-171.319 2.93-2.929 7.678-2.929 10.607 0s2.929 7.678 0 10.606l-22.169 22.169c-9.223 42.713-25.149 92.907-49.05 92.907-13.054 0-19.925-8.778-24.208-19.65-41.517 41.516-74.748 74.748-75.895 75.894-4.248 4.25-9.899 6.591-15.908 6.591zm103.649-94.33c4.369 15.153 8.652 16.496 12.362 16.496 4.753 0 16.943-14.634 28.669-57.526zm-33.046-96.313c-4.346 21.249-7.375 39.882-9.976 55.875-1.416 8.708-2.712 16.676-4.03 23.851 7.727-7.726 15.763-15.762 23.963-23.963-2.596-15.97-5.621-34.562-9.957-55.763zm255.866-306.357c-20.183 0-37.233 26.414-37.233 57.678s17.051 57.678 37.233 57.678 37.233-26.413 37.233-57.678-17.05-57.678-37.233-57.678z"/></g></g></svg>