<svg id="Capa_1" enable-background="new 0 0 512 512" height="512" viewBox="0 0 512 512" width="512" xmlns="http://www.w3.org/2000/svg"><g><g><path d="m447.212 387.44c-7.174-17.028-21.077-47.268-37.297-55.121-.174.118-.347.236-.515.369l-16.727 13.273-3.316 21.5 46.065 32.545c9.259 0 14.163-6.935 11.79-12.566z" fill="#e6989e"/><path d="m455.716 393.151c-7.811-18.539-19.708-42.312-34.949-59.452-2.789-3.136-7.432-3.695-10.852-1.38 13.493 16.663 24.124 38.093 31.297 55.121 2.372 5.631-1.018 10.986-5.791 12.566l6.249 4.415c7.687 5.43 17.7-2.598 14.046-11.27z" fill="#df646e"/><path d="m341.904 410.75 54.703-39.635-10.107-23.238-40.403 12.54-2.72-17.99-24.292 16.088-15.018 29.727 8.31 18.022c7.823 9.643 21.99 9.947 29.527 4.486z" fill="#607882"/><path d="m392.673 345.961 8.934 30.155-54.701 39.634c-11.704 8.48-28.239 4.155-34.292-8.97l-.238-.516c7.454 4.09 16.991 3.947 24.528-1.514l52.697-38.181c1.202-.871 1.724-2.405 1.302-3.828l-4.404-14.864zm-53.364-30.437-42.286 57.443 7.043 15.274 39.31-45.815z" fill="#495959"/><path d="m195.737 491.545 2.313-32.966h-64.942c-4.431 0-7.555 2.726-8.792 6.133 16.295 9.667 41.849 27.975 61.555 32.567 4.294 1 8.627-1.502 9.866-5.734z" fill="#e6989e"/><path d="m198.051 458.579-7.313 24.966c-1.24 4.232-5.572 6.734-9.867 5.733-19.706-4.591-40.259-14.9-56.555-24.567-1.396 3.843-.391 8.552 3.852 11.193 17.074 10.631 40.496 23.172 62.821 28.373 4.295 1 8.627-1.501 9.867-5.733l6.003-20.492z" fill="#df646e"/><path d="m147.389 234.213 59.696-45.827-38.164-10.375c-10.437 11.096-17.409 19.865-17.409 19.865l-34.01-22.122.003.001c2.751-7.676.994-16.604-5.27-22.679-8.007-7.765-20.955-8.034-29.257-.586-9.245 8.294-9.535 22.523-.869 31.189l42.809 42.809c10.873 10.872 16.543 11.473 22.471 7.725z" fill="#ebae9d"/><path d="m143.541 228.56c-5.928 3.748-13.663 2.887-18.622-2.072l10.873 10.873c4.96 4.96 12.694 5.82 18.622 2.072l41.774-26.41 10.899-24.636z" fill="#e09380"/><path d="m400.745 230.035-7-86.2c-13.126-3.479-28.501-6.942-44.599-9.8l-10 27.872 30.563 15 8.407 39.691-.001-.003c-7.394 3.492-12.473 11.081-12.309 19.837.052 2.761.641 5.408 1.666 7.839 5.065 5.065 10.259 8.187 14.701 8.187 12.849 0 18.572-12.413 18.572-22.423z" fill="#ebae9d"/><path d="m397.709 144.902c-1.294-.355-2.622-.711-3.964-1.067v86.2c0 10.011-8.426 18.054-18.572 17.424-2.372-.147-5.047-1.412-7.701-3.187 3.087 7.317 10.135 12.664 18.432 13.179 12.479.775 22.842-9.117 22.842-21.429v-76.651c-.001-6.76-4.519-12.678-11.037-14.469z" fill="#e09380"/><path d="m339.146 161.907 10 15h20.563l-2.589-12.225c-.343-1.618-1.771-2.775-3.424-2.775z" fill="#e09380"/><path d="m330.493 273.512-74.718 10-73.614 175.067 12.908 10.178 127.459-136.555c10.576-12.326 23.17-39.909 7.965-58.69z" fill="#87a0af"/><path d="m316.436 327.308-121.367 141.449 11.789 9.296 123.854-144.347c12.056-14.051 17.03-32.462 14.243-50.193l-14.461-10v10c1.37 15.62-3.482 31.469-14.058 43.795z" fill="#607882"/><path d="m330.493 263.512-17.759-38.61v-55.995l36.411-7v-27.872c-22.511-3.996-46.42-6.805-67.516-6.805l-53.525 6.684c-19.568 5.098-43.36 27.274-59.184 44.097l18.005 23.12 29.91-1.163 38.939 83.544h74.718v-20z" fill="#eef9fa"/><path d="m186.927 201.131 9.261 11.892 20.65-13.055-4.708-10.102c-.891-1.912-3.259-2.607-5.043-1.48z" fill="#dcf2f6"/><path d="m305.735 165.407v56.537l19.443 41.715c2.97 6.372 4.722 13.091 5.316 19.853h14.461c-.89-5.666-2.566-11.262-5.066-16.624l-19.154-41.095v-48.887h28.411v-15h-39.911c-1.933.001-3.5 1.568-3.5 3.501z" fill="#dcf2f6"/><path d="m262 109.746c13.501-18.853 24.172-33.591 24.172-52.309 0-14.768-4.859-32.743-22.122-44.892-7.736-3.263-16.87-5.043-27.264-5.043-38.224 0-55.226 15.579-55.226 56.357 0 0-14.255 14.244-14.082 18.693.163 4.189 8.183 8.479 14.082 12.394 0 9.273.944 17.492 2.055 23.968 0 0 36.581 6 46.147 6 13.372 0 24.625-4.536 32.238-15.168z" fill="#ebae9d"/><path d="m293.172 58.437c0-21.469-10.47-38.024-29.122-45.892 9.16 11.323 14.122 26.124 14.122 40.892 0 18.718-8.671 31.456-22.172 50.309-7.613 10.632-18.866 15.167-32.237 15.167-9.566 0-36.337 0-40.147 0 .218 1.269.442 2.478.667 3.607 1.319 6.621 7.113 11.393 13.864 11.393h29.96l13.223 28.371 40.301-35.055s-4.99-11.037-6.324-13.986c-6.325-13.986 17.865-24.53 17.865-54.806z" fill="#e09380"/><path d="m201.781 89.792c-8.734-12.218-20.221-25.933-20.221-25.933l-24.008 22.271c-2.52 2.338-3.128 6.089-1.476 9.104l12.98 23.68 26.09 7c5.952 0 6.635-21.835 6.635-36.122z" fill="#dcf2f6"/><path d="m201.781 89.792c-1.549 11.423-5.684 29.122-11.635 29.122h-21.09l6.087 11.105c1.317 2.402 3.838 3.895 6.577 3.895h16.427c7.66 0 13.313-19.322 13.313-26.842-.001-2.859-4.323-9.789-9.679-17.28z" fill="#bae6ef"/></g><g><path d="m7.5 511.998c-4.142 0-7.5-3.357-7.5-7.5s3.358-7.5 7.5-7.5h142.999c-9.854-4.878-18.892-10.116-26.295-14.726-6.465-4.026-9.404-11.648-7.312-18.968 2.09-7.312 8.607-12.226 16.217-12.226h44.071l25.01-59.478c1.606-3.817 6.003-5.611 9.821-4.007 3.818 1.606 5.612 6.003 4.006 9.821l-24.728 58.809 14.563 11.483 119.168-138.885c9.148-10.662 13.662-24.245 13.137-37.81h-77.398l-33.598 79.901c-1.605 3.817-6.001 5.613-9.821 4.007-3.818-1.606-5.612-6.003-4.006-9.821l34.241-81.431-33.934-72.806-55.219 34.909c-1.576.997-3.264 1.789-5.021 2.365v17.137c-.165 17.075-9.727 32.311-24.954 39.832-15.297 7.558-33.294 5.879-46.972-4.378-24.058-18.041-48.947-27.19-73.975-27.19-4.142 0-7.5-3.357-7.5-7.5s3.358-7.5 7.5-7.5c28.346 0 56.262 10.158 82.975 30.191 9.264 6.947 20.976 8.043 31.328 2.93 10.282-5.079 16.486-14.97 16.598-26.456v-66.907l-24.987-16.252c-2.989-1.944-4.18-5.707-2.905-8.995 1.753-5.11.393-10.817-3.494-14.587-5.156-4.999-13.691-5.174-19.027-.387-2.9 2.602-4.556 6.167-4.661 10.04-.105 3.877 1.346 7.521 4.087 10.263l35.915 35.914c2.929 2.93 2.929 7.678 0 10.607-2.929 2.928-7.678 2.928-10.606 0l-35.915-35.915c-5.601-5.602-8.69-13.356-8.475-21.276.218-8.032 3.641-15.418 9.639-20.799 11.267-10.106 28.612-9.761 39.486.785 6.661 6.46 9.742 15.666 8.551 24.648l12.392 8.06v-60.486c0-12.075 4.43-18.748 10.052-23.449-1.89-5.53-.404-11.75 4-15.834l24.007-22.271c1.507-1.397 3.524-2.109 5.571-1.986 2.051.129 3.959 1.094 5.279 2.669.31.37 7.678 9.178 15.177 19.072 15.199 20.056 16.472 25.463 16.472 28.956 0 3.249-1.25 11.658-4.421 19.343h13.567c2.915 0 5.566 1.689 6.798 4.332l9.017 19.345 28.577-24.856-4.025-8.902c-4.657-10.298.84-18.787 6.155-26.997 5.177-7.996 11.045-17.059 11.045-30.897 0-12.954-4.319-23.796-12.49-31.352-8.549-7.905-21.134-12.084-36.395-12.084-24.937 0-38.068 6.698-43.908 22.396-1.444 3.882-5.761 5.856-9.644 4.414-3.882-1.444-5.859-5.762-4.415-9.645 10.726-28.832 38.219-32.166 57.967-32.166 38.809 0 63.885 22.938 63.885 58.436 0 18.271-7.776 30.28-13.454 39.05-4.521 6.982-6.246 10.083-5.078 12.666l4.351 9.624c37.956.717 82.946 9.578 113.205 17.894 9.743 2.677 16.548 11.6 16.548 21.699v76.651c0 7.963-3.329 15.659-9.134 21.114-5.886 5.533-13.581 8.301-21.672 7.8-14.934-.926-26.852-13.385-27.132-28.362-.175-9.32 4.157-18.047 11.38-23.576l-6.056-28.59h-35.396v32.387c0 4.143-3.358 7.5-7.5 7.5s-7.5-3.357-7.5-7.5v-39.887c0-4.143 3.358-7.5 7.5-7.5h20.911v-29.061c-19.158-3.174-39.114-5.391-57.229-5.6l-38.166 33.196c-1.776 1.545-4.176 2.167-6.481 1.677-2.304-.489-4.244-2.032-5.239-4.168l-10.369-22.245c-11.52 4.928-26.056 15.995-42.358 32.289-1.015 1.014-2.01 2.022-2.983 3.02l19.106 24.534 14.902-9.422c1.822-1.151 4.051-1.463 6.12-.856 2.068.606 3.775 2.074 4.686 4.028l36.92 79.212h74.896c-.665-2.015-1.451-4.003-2.36-5.954l-10.028-21.518c-1.75-3.754-.125-8.216 3.629-9.966 3.755-1.75 8.217-.125 9.966 3.63l10.028 21.517c8.47 18.171 8.548 38.838.955 56.744l4.566 30.202 36.903-11.453 15.628-12.401c6.557-5.203 16.06-4.366 21.634 1.903 16.234 18.256 28.676 43.533 36.255 61.522 2.95 7.003.952 14.909-4.972 19.673-5.933 4.771-14.096 5.026-20.312.636l-35.681-25.209-50.357 36.485c-7.402 5.364-16.72 7.111-25.562 4.8-8.844-2.313-16.111-8.401-19.939-16.702l-10.698-23.2-81.504 94.99-4.479 15.287h133.833c4.142 0 7.5 3.357 7.5 7.5s-3.358 7.5-7.5 7.5zm125.608-45.919c-.349 0-1.409 0-1.794 1.349-.389 1.359.519 1.925.817 2.11 15.603 9.715 38.774 22.36 60.559 27.436.434.104.848-.129.967-.536l4.579-15.632-18.676-14.727zm172.742-91.881 13.575 29.441c1.941 4.21 5.627 7.298 10.113 8.472 4.484 1.17 9.21.285 12.965-2.435l50.405-36.52-5.268-17.781-39.321 12.203c-2.086.647-4.354.354-6.207-.809-1.852-1.161-3.105-3.072-3.433-5.233l-3.291-21.767zm102.209-2.707 37.939 26.804c.286.203 1.152.817 2.257-.073 1.089-.876.683-1.842.549-2.159-7.139-16.946-18.771-40.656-33.642-57.38-.291-.326-.774-.381-1.101-.119l-12.758 10.124zm-26.937-148.02c-4.858 2.388-7.92 7.396-7.818 12.821.135 7.221 5.874 13.227 13.064 13.673 3.909.245 7.632-1.092 10.471-3.76 2.842-2.67 4.407-6.287 4.407-10.184v-76.651c0-3.367-2.271-6.343-5.523-7.235-11.321-3.111-24.751-6.301-39.076-9.086v26.358h13.062c3.543 0 6.603 2.479 7.337 5.946l8.407 39.691c.745 3.52-1.113 7.022-4.331 8.427zm-227.722-18.336v26.065l31.787-20.096-16.738-21.493c-6.747 7.517-11 12.85-11.065 12.932-1.049 1.318-2.459 2.196-3.984 2.592zm2.418-94.769c-1.647 2.267-2.418 5.11-2.418 9.548v64.048c9.535-10.956 26.623-29.317 44.668-42.548h-16.349c-5.479 0-10.519-2.985-13.153-7.79zm25.008-35.595-18.174 16.858 19.067 34.785h15.616c2.658-2.384 6.425-13.078 6.616-18.894-1.362-4.358-12.144-19.173-23.125-32.749zm323.674 437.227h-131.544c-4.142 0-7.5-3.357-7.5-7.5s3.358-7.5 7.5-7.5h131.544c4.142 0 7.5 3.357 7.5 7.5s-3.358 7.5-7.5 7.5z"/></g></g></svg>