<svg id="Capa_1" enable-background="new 0 0 512 512" height="512" viewBox="0 0 512 512" width="512" xmlns="http://www.w3.org/2000/svg"><g><g><path d="m178.579 31.826c31.871-17.031 70.812-24.326 110.978-24.326 40.976 0 75.166 8.874 102.771 24.087v110h-213.749z" fill="#df646e"/><path d="m100.909 186.4c-1.914 9.255-6.124 17.175-14.587 22.788-37.911 25.141-53.362 28.953-55.322 42.951-1.996 14.257 29.912 39.572 29.912 39.572l-8.966 32.722c-.179.653-.306 1.307-.405 1.961l14.692 19.58c7.534 44.026 15.925 70.505 25.515 85.51 11.729 7.561 27.946 10.745 43.918 10.745h80v47.271l166.407 7s0-19.694 0-49.623c0-40.832 14.706-81.489 36.084-122.644v-137.833z" fill="#eef9fa"/><path d="m418.158 324.233v27.923c-15.664 26.331-28.084 53.518-28.084 87.722v64.623h-174.407v-15h151.907c4.142 0 7.5-3.358 7.5-7.5v-42.123c0-40.832 15.215-70.908 33.204-100.012 3.227-5.224 6.545-10.416 9.88-15.633zm-196.619 109.163c-.818-4.061-4.772-6.69-8.833-5.872-20.555 4.14-54.296 8.113-78.255 8.113-15.972 0-30.87-1.934-42.702-4.153 5.649 8.84 11.714 13.7 18.265 15.814 30.926 9.978 105.654-5.068 105.654-5.068 4.059-.819 6.688-4.774 5.871-8.834zm-115.753-84.361c1.095-3.995-1.257-8.121-5.251-9.216l-48.994-13.426c-1.276 8.406 3.906 16.624 12.308 18.926l32.722 8.966c4.004 1.096 8.121-1.256 9.215-5.25z" fill="#dcf2f6"/><path d="m414.277 345.866c25.924-41.943 69.849-103.961 51.801-155.067-13.675-9.999-35.454-22.381-59.465-22.381-50.936 0-92.227 41.292-92.227 92.227 0 22.412 7.997 42.955 21.29 58.937 17.651 18.094 42.525 27.29 64.937 27.29 4.643 0 9.205-.344 13.664-1.006z" fill="#f6c4c8"/><path d="m466.078 190.799c-.202 67.191-31.877 107.124-57.801 149.067-4.459.662-9.021 1.006-13.664 1.006-22.412 0-42.955-7.997-58.937-21.29 16.917 20.339 42.414 33.29 70.937 33.29 3.91 0 7.763-.244 11.545-.716 25.571-42.984 59.785-83.687 62.726-148.909 0 0-5.547-5.678-14.806-12.448z" fill="#e6989e"/><path d="m370.453 197.645c0-23.963-7.964-47.964-28.921-68.92-17.011-14.301-38.957-22.921-62.92-22.921-54.036 0-97.84 43.805-97.84 97.84 0 23.963 8.619 45.909 22.92 62.92 19.478 19.478 44.957 28.921 68.92 28.921 54.037 0 97.841-43.804 97.841-97.84z" fill="#87a0af"/><path d="m341.533 128.726c14.301 17.011 22.921 38.957 22.921 62.92 0 54.036-43.805 97.84-97.84 97.84-23.963 0-45.909-8.62-62.92-22.921 17.948 21.348 44.847 34.921 74.92 34.921 54.036 0 97.84-43.805 97.84-97.84-.001-30.074-13.573-56.973-34.921-74.92z" fill="#607882"/><path d="m474.065 198.265c.015-1.028.022-2.063.022-3.104 0-67.014-21.663-121.078-81.761-163.569-39.21 12.753-67.554 49.591-67.554 93.054 0 23.963 8.619 45.909 22.92 62.92 16.76 18.425 43.957 27.921 67.92 27.921 20.589-.002 42.692-6.361 58.453-17.222z" fill="#bae6ef"/><path d="m392.331 31.589c-.002 0-.003.001-.005.002 46.959 39.831 73.761 91.555 73.761 158.569 0 1.041-.007 2.076-.022 3.104-15.761 10.861-34.864 17.221-55.452 17.221-23.963 0-45.909-8.62-62.92-22.921 17.948 21.348 44.847 34.921 74.92 34.921 21.833 0 41.993-7.154 58.271-19.242.134-2.978.203-6.007.203-9.09 0-66.772-28.897-129.573-88.756-162.564z" fill="#94d8e6"/><path d="m321.002 213.261c-4.832 0-79.946 0-84.779 0-9.726 0-17.611 7.885-17.611 17.611 0 8.284 6.716 15 15 15h90c8.284 0 15-6.716 15-15 .001-9.726-7.884-17.611-17.61-17.611z" fill="#eef9fa"/><path d="m272.453 123.645c0-23.963-8.684-48.683-28.921-68.92-17.011-14.301-38.957-22.921-62.92-22.921-.679 0-1.357.007-2.034.021-45.265 24.189-76.269 68.019-76.269 138.487 0 5.652-.364 11.066-1.402 16.088 1.515 2.125 3.12 4.18 4.796 6.174 19.317 19.317 44.951 28.911 68.908 28.911 54.038 0 97.842-43.804 97.842-97.84z" fill="#ffe07d"/><path d="m243.533 54.726c14.301 17.011 22.921 38.957 22.921 62.92 0 54.036-43.805 97.84-97.84 97.84-23.957 0-45.899-8.616-62.908-22.911 17.948 21.342 44.841 34.911 74.908 34.911 54.036 0 97.84-43.805 97.84-97.84-.001-30.074-13.573-56.973-34.921-74.92z" fill="#ffc250"/></g><g><path d="m390.073 512c-4.143 0-7.5-3.357-7.5-7.5v-64.622c0-30.853 9.378-55.872 22.249-79.521-28.82-.513-55.896-13.39-74.522-35.507-2.669-3.168-2.263-7.899.905-10.567 3.168-2.669 7.9-2.263 10.567.905 16.155 19.183 39.789 30.185 64.841 30.185 2.343 0 4.699-.097 7.035-.288 3.989-6.578 8.156-13.124 12.367-19.74 19.987-31.401 40.557-63.719 46.115-107.688-15.154 8.102-32.023 12.33-49.518 12.33-14.248 0-27.847-2.844-40.254-7.993-3.962 22.557-15.188 43.222-32.205 58.974-19.52 18.068-44.927 28.02-71.541 28.02-36.548 0-69.954-18.52-89.362-49.538-2.196-3.512-1.131-8.14 2.38-10.337 3.511-2.196 8.138-1.132 10.337 2.38 16.648 26.609 45.301 42.495 76.646 42.495 22.825 0 44.613-8.533 61.352-24.027 15.729-14.561 25.69-34.011 28.3-55.104-30.534-18.467-50.992-51.995-50.992-90.209 0-.888.011-1.775.032-2.658-10.181-4.824-21.283-7.709-32.585-8.476.812 5.261 1.233 10.649 1.233 16.134 0 29.896-12.519 56.924-32.59 76.115h67.639c13.847 0 25.111 11.265 25.111 25.111 0 12.406-10.094 22.5-22.5 22.5h-90c-12.406 0-22.5-10.094-22.5-22.5 0-.13.001-.259.003-.389-9.66 2.928-19.899 4.502-30.503 4.502-33.977 0-66.056-16.534-85.812-44.229-1.287-1.804-1.661-3.983-1.215-5.989.823-4.029 1.224-8.76 1.224-14.455 0-58.284 20.255-102.851 60.202-132.463 33.404-24.763 79.929-37.851 134.546-37.851 62.569 0 114.43 20.46 149.977 59.167 31.632 34.444 49.053 82.384 49.053 134.986 0 60.822-25.376 100.69-49.917 139.245-21.135 33.204-41.097 64.566-41.097 106.479v64.623c-.001 4.143-3.358 7.5-7.501 7.5zm-73.96-273.628h7.5c4.136 0 7.5-3.364 7.5-7.5 0-5.575-4.536-10.111-10.111-10.111h-4.889zm-30 0h15v-17.611h-15zm-30 0h15v-17.611h-15zm-19.889-17.611c-5.575 0-10.11 4.536-10.11 10.111 0 4.136 3.364 7.5 7.5 7.5h7.5v-17.611zm-127.367-36.222c17.058 22.253 43.65 35.446 71.757 35.446 49.813 0 90.34-40.526 90.34-90.34s-40.526-90.341-90.34-90.341c-.029 0-.058 0-.087 0-5.869 3.224-11.404 6.758-16.582 10.596-35.92 26.627-54.134 67.14-54.134 120.412 0 5.318-.314 10.007-.954 14.227zm253.722-144.66c2.234 0 4.445.994 5.924 2.895 2.544 3.27 1.956 7.981-1.313 10.524-22.19 17.265-34.917 43.271-34.917 71.348 0 49.813 40.526 90.34 90.341 90.34 18.343 0 35.88-5.418 50.906-15.696.045-1.695.067-3.406.067-5.136 0-48.835-16.018-93.171-45.101-124.841-32.63-35.532-80.67-54.313-138.928-54.313-30.695 0-58.554 4.307-82.579 12.645 35.274 9.123 63.438 36.111 74.226 70.692 12.94.319 25.754 3.031 37.653 7.938 4.46-25.537 18.174-48.519 39.121-64.815 1.369-1.065 2.991-1.581 4.6-1.581zm-146.912 472.121c-4.143 0-7.5-3.357-7.5-7.5v-53.254c-21.239 3.713-74.326 11.621-100.457 3.188-22.458-7.245-36.453-37.04-48.07-102.606-11.662-4.422-18.288-17.111-14.927-29.379l7.691-28.068c-3.186-2.738-7.93-7.008-12.626-11.937-12.082-12.682-17.383-22.935-16.205-31.346 1.869-13.351 12.084-19.493 30.629-30.646 7.12-4.281 15.98-9.609 26.558-16.578 3.457-2.279 8.11-1.322 10.389 2.137s1.322 8.11-2.137 10.389c-10.834 7.139-19.842 12.556-27.079 16.907-17.189 10.338-22.667 13.893-23.504 19.871-.275 1.966 1.965 8.14 12.105 18.81 7.28 7.659 14.965 13.787 15.041 13.848 2.352 1.868 3.364 4.96 2.57 7.856l-8.966 32.722c-.671 2.447-.349 5.009.908 7.213 1.256 2.205 3.296 3.788 5.743 4.459l32.722 8.967c3.994 1.095 6.346 5.221 5.251 9.216-1.096 3.994-5.217 6.345-9.216 5.251l-18.874-5.172c9.83 52.235 21.53 78.949 36.602 83.812 23.843 7.693 81.62-1.204 101.871-5.283 2.2-.443 4.491.124 6.231 1.55 1.74 1.424 2.749 3.554 2.749 5.803v62.27c.001 4.143-3.356 7.5-7.499 7.5zm189.46-185.67c-4.411 0-8-3.589-8-8s3.589-8 8-8 8 3.589 8 8-3.589 8-8 8zm0-26.5c-4.143 0-7.5-3.357-7.5-7.5v-9.685c0-4.143 3.357-7.5 7.5-7.5 2.075 0 4.007-.831 5.438-2.34 1.431-1.507 2.159-3.484 2.051-5.569-.198-3.832-3.487-7.012-7.331-7.09-3.814-.109-7.062 2.693-7.586 6.443-.048.345-.072.703-.072 1.056 0 4.143-3.357 7.5-7.5 7.5s-7.5-3.357-7.5-7.5c0-1.038.072-2.088.215-3.121 1.554-11.126 11.092-19.379 22.286-19.379.153 0 .306.001.46.005 11.733.236 21.401 9.596 22.009 21.309.323 6.233-1.861 12.155-6.153 16.675-2.458 2.59-5.497 4.538-8.816 5.715v3.481c-.001 4.143-3.358 7.5-7.501 7.5zm-93.514-109.069h-9c-4.143 0-7.5-3.357-7.5-7.5v-25.213c0-4.143 3.357-7.5 7.5-7.5s7.5 3.357 7.5 7.5v17.713h1.5c4.143 0 7.5 3.357 7.5 7.5s-3.357 7.5-7.5 7.5zm139.9-4.696c-1.919 0-3.839-.732-5.304-2.196-17.93-17.93-47.103-17.93-65.032 0-2.931 2.929-7.679 2.927-10.607 0-2.929-2.93-2.929-7.678 0-10.607 11.52-11.519 26.834-17.862 43.124-17.862 16.289 0 31.604 6.344 43.123 17.862 2.929 2.93 2.929 7.678 0 10.607-1.465 1.464-3.385 2.196-5.304 2.196zm-270.9-1.08c-24.432 0-45.546-16.561-51.347-40.272-.984-4.023 1.479-8.083 5.503-9.067 4.024-.985 8.083 1.479 9.067 5.503 4.153 16.979 19.276 28.837 36.776 28.837 17.499 0 32.622-11.858 36.775-28.837.984-4.023 5.044-6.485 9.067-5.503 4.023.984 6.487 5.044 5.503 9.067-5.799 23.712-26.912 40.272-51.344 40.272zm246.177-43.516c-.001 0-.001 0 0 0-6.785-.001-13.146-2.74-17.911-7.716-2.865-2.991-2.763-7.738.229-10.604 2.99-2.865 7.738-2.764 10.604.229 1.909 1.993 4.423 3.091 7.078 3.091 2.656 0 5.171-1.098 7.08-3.092 2.863-2.991 7.611-3.094 10.604-.228 2.991 2.865 3.093 7.613.228 10.604-4.766 4.976-11.128 7.716-17.912 7.716zm-53.645 0c-.001 0-.001 0 0 0-6.785-.001-13.146-2.74-17.911-7.716-2.865-2.991-2.763-7.738.229-10.604 2.99-2.865 7.739-2.764 10.604.229 1.909 1.993 4.423 3.091 7.078 3.091 2.656 0 5.171-1.098 7.08-3.092 2.863-2.991 7.611-3.094 10.604-.228 2.991 2.865 3.093 7.613.228 10.604-4.767 4.976-11.128 7.716-17.912 7.716zm-177.532-6.484c-4.143 0-7.5-3.357-7.5-7.5v-25.213c0-4.143 3.357-7.5 7.5-7.5s7.5 3.357 7.5 7.5v25.213c0 4.143-3.357 7.5-7.5 7.5zm-30 0c-4.143 0-7.5-3.357-7.5-7.5v-25.213c0-4.143 3.357-7.5 7.5-7.5s7.5 3.357 7.5 7.5v25.213c0 4.143-3.357 7.5-7.5 7.5zm147.354-66.129c-1.92 0-3.839-.732-5.304-2.196l-7.561-7.562-7.561 7.562c-2.93 2.928-7.678 2.928-10.607 0-2.929-2.93-2.929-7.678 0-10.607l7.562-7.561-7.562-7.561c-2.929-2.93-2.929-7.678 0-10.607 2.93-2.928 7.678-2.928 10.607 0l7.561 7.562 7.561-7.562c2.928-2.928 7.676-2.929 10.607 0 2.929 2.93 2.929 7.678 0 10.607l-7.562 7.561 7.562 7.561c2.929 2.93 2.929 7.678 0 10.607-1.464 1.464-3.384 2.196-5.303 2.196z"/></g></g></svg>