<svg id="Capa_1" enable-background="new 0 0 512 512" height="512" viewBox="0 0 512 512" width="512" xmlns="http://www.w3.org/2000/svg"><g><g><g><path d="m503.49 256c0 137.243-110.257 247.5-247.5 247.5-4.331 0-8.636.889-12.913.67-131.241-6.718-235.587-115.258-235.587-248.17 0-132.86 104.265-241.368 235.434-248.162 4.327-.224 8.683.662 13.066.662 137.243 0 247.5 110.257 247.5 247.5z" fill="#8aaadc"/><path d="m457.133 256c0 111.641-89.503 201.143-201.143 201.143-4.98 0-9.918.82-14.808.466-104.727-7.582-187.335-94.949-187.335-201.609 0-106.703 82.675-194.097 187.462-201.618 4.849-.348 9.744.475 14.682.475 111.64 0 201.142 89.502 201.142 201.143z" fill="#f8f7f7"/><path d="m458.13 256c0 111.64-90.5 202.14-202.14 202.14-5.05 0-10.05-.18-15-.55 104.64-7.67 187.14-95 187.14-201.59s-82.5-193.92-187.14-201.59c4.95-.37 9.95-.55 15-.55 111.64 0 202.14 90.5 202.14 202.14z" fill="#e1e1e1"/><path d="m504.49 256c0 137.24-111.26 248.5-248.5 248.5-4.53 0-9.03-.12-13.5-.36 130.96-7.01 235-115.43 235-248.14s-104.04-241.13-235-248.14c4.47-.24 8.97-.36 13.5-.36 137.24 0 248.5 111.26 248.5 248.5z" fill="#7398d4"/><path d="m282.866 260.588c0 46.532-37.722 74.254-84.254 74.254-2.707 0-5.384 9.872-8.026 9.623-42.768-4.041-76.228-40.051-76.228-83.877 0-34.985 21.323-64.99 51.682-77.727 5.828-2.445 11.988 5.746 18.395 4.661 4.609-.781 9.345-11.187 14.176-11.187 46.533 0 84.255 37.721 84.255 84.253z" fill="#f47c7c"/><path d="m244.928 260.588c0 25.579-20.736 36.316-46.316 36.316-5.549 0-10.869 9.024-15.8 7.235-17.8-6.459-30.516-23.52-30.516-43.551 0-15.348 7.465-28.953 18.963-37.38 4.707-3.45 10.089 3.968 15.911 2.489 3.659-.93 7.492-11.424 11.441-11.424 25.58 0 46.317 20.736 46.317 46.315z" fill="#e94444"/><path d="m212.68 308.87c0 11.85 2.44 23.12 6.86 33.35-6.69 1.71-13.7 2.62-20.93 2.62-2.72 0-5.41-.13-8.06-.38-5.05-10.81-7.87-22.87-7.87-35.59 0-1.58.044-3.149.129-4.707.916-16.641 16.662-31.99 25.861-44.673-12.159-9.278-31.717-21.79-37.39-36.253-3.738-9.528-5.79-19.903-5.79-30.757 0-3.25.18-6.46.55-9.62 9.56-4.01 20.02-6.31 31-6.51-1.02 5.22-1.55 10.61-1.55 16.13 0 27.33 13.01 51.62 33.18 67.01-10.06 13.87-15.99 30.93-15.99 49.38z" fill="#ee6161"/><path d="m244.93 260.59c0 20.64-13.5 38.12-32.15 44.1.83-16.85 6.59-32.38 15.89-45.2-14.61-11.15-25.46-26.96-30.33-45.22h.27c25.58 0 46.32 20.74 46.32 46.32z" fill="#e94444"/><path d="m228.67 259.49c-9.3 12.82-15.06 28.35-15.89 45.2-4.46 1.44-9.23 2.21-14.17 2.21-5.55 0-10.87-.97-15.8-2.76.92-16.63 6.67-31.97 15.86-44.65-12.17-9.28-21.73-21.81-27.39-36.29 7.59-5.56 16.94-8.87 27.06-8.93 4.87 18.26 15.72 34.07 30.33 45.22z" fill="#d83131"/><path d="m362.994 192.484c0 46.532-36.722 84.254-83.254 84.254s-84.254-37.722-84.254-84.254c0-41.498 30.001-75.989 69.498-82.966 4.791-.846 9.722-.288 14.756-.288 46.532 0 83.254 36.722 83.254 83.254z" fill="#f47c7c"/><path d="m325.056 192.484c0 25.579-19.736 46.316-45.316 46.316s-46.316-20.736-46.316-46.316c0-20.331 13.099-37.602 31.318-43.834 4.704-1.609 9.749-1.482 14.997-1.482 25.581 0 45.317 19.736 45.317 45.316z" fill="#e94444"/><path d="m363.99 192.48c0 46.54-37.72 84.26-84.25 84.26-5.12 0-10.13-.46-15-1.34 39.37-7.06 69.25-41.5 69.25-82.92 0-41.41-29.88-75.85-69.25-82.91 4.87-.88 9.88-1.34 15-1.34 46.53 0 84.25 37.72 84.25 84.25z" fill="#ee6161"/><path d="m326.06 192.48c0 25.58-20.74 46.32-46.32 46.32-5.25 0-10.29-.87-15-2.48 18.22-6.23 31.32-23.51 31.32-43.84s-13.1-37.6-31.32-43.83c4.71-1.61 9.75-2.48 15-2.48 25.58 0 46.32 20.73 46.32 46.31z" fill="#d83131"/><path d="m380.192 308.871c0 46.532-36.722 83.254-83.254 83.254-4.795 0-9.496.599-14.073-.17-39.833-6.698-70.181-41.347-70.181-83.084s30.347-76.385 70.18-83.084c4.577-.77 9.279-.17 14.074-.17 46.532.001 83.254 36.722 83.254 83.254z" fill="#f47c7c"/><path d="m342.254 308.871c0 25.579-19.736 45.316-45.316 45.316-5.249 0-10.294.127-14.998-1.482-18.219-6.232-31.318-23.503-31.318-43.833s13.099-37.601 31.317-43.833c4.704-1.609 9.749-1.483 14.999-1.483 25.58 0 45.316 19.736 45.316 45.315z" fill="#e94444"/><path d="m381.19 308.87c0 46.53-37.72 84.26-84.25 84.26-5.12 0-10.13-.46-15-1.34 39.37-7.07 69.25-41.51 69.25-82.92s-29.88-75.85-69.25-82.91c4.87-.88 9.88-1.34 15-1.34 46.53 0 84.25 37.72 84.25 84.25z" fill="#ee6161"/><path d="m343.25 308.87c0 25.58-20.73 46.32-46.31 46.32-5.25 0-10.29-.87-15-2.49 18.21-6.22 31.31-23.5 31.31-43.83s-13.1-37.6-31.31-43.83c4.71-1.61 9.75-2.48 15-2.48 25.58 0 46.31 20.73 46.31 46.31z" fill="#d83131"/></g></g><g><path d="m418.713 58.354c-3.196-2.634-7.923-2.179-10.558 1.018-2.634 3.196-2.179 7.923 1.018 10.558 55.815 46.001 87.827 113.821 87.827 186.07 0 64.374-25.068 124.894-70.587 170.413s-106.039 70.587-170.413 70.587c-50.975 0-99.692-15.715-140.886-45.447-3.359-2.425-8.047-1.666-10.471 1.692s-1.666 8.046 1.692 10.471c43.766 31.588 95.519 48.284 149.665 48.284 68.38 0 132.667-26.628 181.02-74.98 48.352-48.352 74.98-112.64 74.98-181.02 0-76.746-34.001-148.785-93.287-197.646z"/><path d="m35.308 352.984c-13.475-30.617-20.308-63.248-20.308-96.984 0-64.373 25.068-124.894 70.587-170.413s106.039-70.587 170.413-70.587c45.197 0 89.25 12.582 127.398 36.386 3.513 2.193 8.14 1.122 10.333-2.393 2.193-3.514 1.122-8.14-2.393-10.333-40.531-25.291-87.331-38.66-135.338-38.66-68.38 0-132.667 26.629-181.019 74.981-48.353 48.352-74.981 112.639-74.981 181.019 0 35.83 7.26 70.493 21.578 103.026 13.83 31.423 33.545 59.364 58.6 83.046 1.45 1.37 3.302 2.049 5.15 2.049 1.99 0 3.977-.788 5.452-2.348 2.846-3.01 2.712-7.757-.298-10.603-23.592-22.299-42.156-48.605-55.174-78.186z"/><path d="m46.357 256c0 115.598 94.045 209.643 209.643 209.643s209.643-94.045 209.643-209.643-94.045-209.643-209.643-209.643-209.643 94.045-209.643 209.643zm404.286 0c0 107.327-87.316 194.643-194.643 194.643s-194.643-87.316-194.643-194.643 87.316-194.643 194.643-194.643 194.643 87.316 194.643 194.643z"/><path d="m243.132 308.872c0 29.674 24.142 53.815 53.816 53.815s53.815-24.142 53.815-53.815c0-29.674-24.142-53.816-53.815-53.816-29.674 0-53.816 24.141-53.816 53.816zm92.632 0c0 21.403-17.413 38.815-38.815 38.815-21.403 0-38.816-17.413-38.816-38.815 0-21.403 17.413-38.816 38.816-38.816 21.402 0 38.815 17.412 38.815 38.816z"/><path d="m191.001 169.169c-21.913 1.796-42.265 11.279-57.821 27.106-16.967 17.264-26.312 40.104-26.312 64.313 0 50.593 41.161 91.754 91.754 91.754 5.631 0 11.235-.518 16.734-1.531 15.255 29.557 46.102 49.814 81.593 49.814 24.012 0 46.718-9.213 63.936-25.943 2.971-2.886 3.039-7.635.152-10.605-2.886-2.97-7.634-3.039-10.605-.152-14.402 13.994-33.396 21.701-53.482 21.701-42.322 0-76.754-34.432-76.754-76.754s34.432-76.754 76.754-76.754 76.753 34.432 76.753 76.754c0 10.615-2.124 20.889-6.312 30.537-1.65 3.799.093 8.217 3.892 9.866s8.217-.093 9.866-3.893c5.012-11.544 7.554-23.828 7.554-36.511 0-27.174-11.878-51.623-30.711-68.438 8.859-14.401 13.513-30.838 13.513-47.95 0-50.593-41.161-91.753-91.754-91.753-42.541 0-78.408 29.101-88.75 68.439zm14.755 129.577c-2.34.434-4.726.658-7.134.658-21.403 0-38.815-17.413-38.815-38.815 0-19.408 14.403-35.594 33.079-38.384 5.037 14.808 13.844 28.137 25.826 38.782-6.897 11.226-11.443 24.042-12.956 37.759zm-7.134 38.596c-42.322 0-76.754-34.432-76.754-76.754 0-20.251 7.817-39.357 22.01-53.798 12.086-12.296 27.631-20.011 44.466-22.255-.226 2.621-.348 5.27-.348 7.949 0 5.127.424 10.181 1.237 15.128-25.191 4.47-44.427 26.57-44.427 52.977 0 29.674 24.142 53.815 53.815 53.815 2.256 0 4.497-.146 6.717-.423.432 7.83 1.85 15.401 4.132 22.591-3.581.506-7.207.77-10.848.77zm60.436-112.029c-11.254-7.083-18.124-19.353-18.124-32.829 0-21.403 17.413-38.815 38.815-38.815s38.815 17.413 38.815 38.815c0 9.48-3.353 18.383-9.5 25.436-3.966-.526-8.01-.801-12.118-.801-13.501-.001-26.332 2.933-37.888 8.194zm20.692-109.583c42.322 0 76.754 34.432 76.754 76.753 0 13.821-3.638 27.11-10.555 38.849-6.461-4.098-13.467-7.408-20.882-9.801 5.528-8.576 8.498-18.555 8.498-29.047 0-29.674-24.142-53.815-53.815-53.815s-53.815 24.142-53.815 53.815c0 16.039 7.009 30.856 18.862 40.941-6.349 4.402-12.122 9.579-17.172 15.402-10.676-9.844-18.2-22.289-21.935-36.047-.059-.293-.137-.579-.229-.858-1.62-6.256-2.464-12.774-2.464-19.438-.001-42.322 34.431-76.754 76.753-76.754z"/></g></g></svg>