<svg id="Capa_1" enable-background="new 0 0 512 512" height="512" viewBox="0 0 512 512" width="512" xmlns="http://www.w3.org/2000/svg"><g><g><path d="m236.263 499.501c0 2.761 2.239 5 5 5h145.41l29.884-1c2.925 0 4.225-1.5 3.983-4.415l-12.959-155.599c-.132-1.587 1.488-4.124 2.658-5.202 39.554-36.014 62.908-87.432 61.295-145.499-2.907-104.709-87.885-185.869-192.623-184.262-3.791.058-7.556-.773-11.29-.497-98.501 7.29-176.195 89.405-176.438 189.709v2.092c0 1.241-.454 2.44-1.276 3.37l-45.954 51.973c-10.307 11.65-2.035 30.015 13.522 30.015h28.621c2.81 0 5.087 2.278 5.087 5.087v60.966c0 39.61 32.111 71.721 71.721 71.721h73.359z" fill="#fed2a4"/><path d="m421.538 499.091c.24 2.91-2.06 5.41-4.98 5.41h-30c2.92 0 5.22-2.5 4.98-5.41l-12.96-155.6c-.13-1.59.49-3.13 1.66-4.21 39.56-36.01 63.91-88.43 62.3-146.49-2.74-98.65-79.21-177.28-175.64-184.71 3.97-.31 7.98-.5 12.01-.56 104.74-1.6 190.72 80.56 193.63 185.27 1.61 58.06-22.74 110.48-62.3 146.49-1.17 1.08-1.79 2.62-1.66 4.21z" fill="#ffbd86"/></g><g><path d="m141.894 76.218c2.017 0 4.029-.809 5.507-2.406 34.365-37.136 81.114-58.015 131.635-58.79 43.079-.679 85.142 13.798 118.378 40.714 3.218 2.607 7.941 2.111 10.548-1.108s2.111-7.941-1.108-10.548c-35.961-29.125-81.42-44.768-128.048-44.056-27.523.422-54.096 6.384-78.98 17.72-24.062 10.961-45.404 26.397-63.434 45.881-2.813 3.04-2.629 7.785.411 10.599 1.442 1.334 3.268 1.994 5.091 1.994z"/><path d="m162.913 415.46c-35.412 0-64.221-28.81-64.221-64.221v-60.966c0-6.941-5.646-12.587-12.587-12.587h-28.622c-4.271 0-7.868-2.325-9.622-6.219s-1.112-8.128 1.719-11.328l45.954-51.973c2.036-2.302 3.158-5.264 3.158-8.338v-2.075c.085-35.322 10.245-69.587 29.378-99.09 2.254-3.476 1.264-8.12-2.211-10.373-3.473-2.253-8.119-1.264-10.374 2.211-20.707 31.929-31.701 69.003-31.793 107.234v1.179l-45.348 51.286c-6.75 7.629-8.343 18.138-4.159 27.426 4.184 9.289 13.111 15.059 23.298 15.059h26.208v58.554c0 43.683 35.539 79.221 79.221 79.221h65.859v69.04c0 6.893 5.607 12.5 12.5 12.5h175.294c3.485 0 6.838-1.471 9.198-4.036s3.548-6.028 3.259-9.502l-4.585-55.05c-.344-4.128-3.961-7.189-8.097-6.852-4.128.344-7.195 3.969-6.852 8.097l4.361 52.343h-170.077v-66.845c32.562-3.153 58.104-30.669 58.104-64.044v-32.719c0-4.142-3.358-7.5-7.5-7.5s-7.5 3.358-7.5 7.5v32.719c0 27.213-22.14 49.353-49.353 49.353z"/><path d="m405.166 333.769c-2.899 2.671-4.375 6.44-4.05 10.34l5.66 67.964c.326 3.916 3.605 6.878 7.466 6.878.208 0 .419-.009.631-.026 4.128-.344 7.195-3.969 6.852-8.097l-5.563-66.79c42.204-38.884 65.474-94.02 63.879-151.461-1.279-46.06-18.563-90.407-48.665-124.872-2.725-3.12-7.463-3.44-10.582-.715-3.12 2.725-3.44 7.462-.715 10.582 27.816 31.847 43.787 72.837 44.969 115.421 1.483 53.463-20.331 104.763-59.882 140.776z"/></g></g></svg>