<svg id="Capa_1" enable-background="new 0 0 512 512" height="512" viewBox="0 0 512 512" width="512" xmlns="http://www.w3.org/2000/svg"><g><g><g><path d="m369.819 291.519c-12.286 0-23.722-9.993-25.537-22.145l-31.696-212.241c-4.26-28.524-27.756-48.633-56.596-48.633-5.171 0-10.202-.321-15.002.957-21.971 5.851-39.098 24.267-42.594 47.676l-31.696 212.241c-1.815 12.152-12.251 21.145-24.537 21.145-47.859 0-86.655 38.797-86.655 86.656 0 47.858 38.797 86.655 86.655 86.655h20.508l1.451-10c5.189 0 10.263 9.518 15.201 8.644 16.655 26.097 45.523 42.026 76.667 42.026 31.144 0 60.013-15.93 76.667-42.026 4.938.874 10.012-8.644 15.201-8.644l1.446 9.934 20.514-.934c47.859 0 85.655-37.797 85.655-85.655.003-47.859-37.794-85.656-85.652-85.656z" fill="#fed2a4"/><path d="m456.47 377.17c0 47.86-38.79 86.66-86.65 86.66h-21.96c-1.33 0-2.65-.03-3.97-.1 45.97-2.12 82.58-40.06 82.58-86.56 0-23.93-9.7-45.59-25.38-61.27s-37.34-25.38-61.27-25.38c-12.29 0-22.72-8.99-24.54-21.15l-31.69-212.24c-3.5-23.41-20.63-41.82-42.6-47.67 4.8-1.28 9.83-1.96 15-1.96 28.84 0 53.34 21.11 57.6 49.63l31.69 212.24c1.82 12.16 12.25 21.15 24.54 21.15 23.93 0 45.59 9.7 61.27 25.38s25.38 37.34 25.38 61.27z" fill="#ffbd86"/></g></g><g><path d="m369.828 283.019c-8.503 0-15.862-6.342-17.118-14.753l-9.382-62.822c-.612-4.098-4.443-6.915-8.525-6.31-4.097.612-6.922 4.429-6.31 8.526l9.382 62.822c2.345 15.699 16.082 27.538 31.955 27.538 43.647 0 79.155 35.509 79.155 79.155 0 6.076-.689 12.127-2.051 17.984-.938 4.035 1.574 8.065 5.608 9.003.571.132 1.142.196 1.704.196 3.409 0 6.494-2.341 7.299-5.805 1.618-6.969 2.439-14.162 2.439-21.378 0-51.918-42.238-94.156-94.156-94.156z"/><path d="m445.021 420.925c-3.387-2.388-8.066-1.577-10.452 1.807-14.834 21.038-39.035 33.598-64.739 33.598h-21.96c-.942 0-1.891-.029-2.841-.065l22.507-38.983c2.071-3.587.842-8.174-2.745-10.245-3.589-2.072-8.175-.842-10.245 2.745l-26.261 45.485c-14.797 25.641-42.688 41.733-72.285 41.733-29.598 0-57.485-16.097-72.285-41.734l-26.26-45.484c-2.071-3.588-6.658-4.817-10.245-2.745-3.587 2.071-4.816 6.658-2.745 10.245l22.507 38.983c-.95.035-1.899.065-2.84.065h-21.96c-43.646 0-79.156-35.509-79.156-79.156s35.509-79.155 79.156-79.155c15.872 0 29.61-11.838 31.955-27.537l19.971-133.726c.611-4.097-2.213-7.914-6.31-8.526-4.096-.604-7.914 2.213-8.526 6.31l-19.97 133.726c-1.256 8.411-8.616 14.753-17.12 14.753-51.917 0-94.156 42.238-94.156 94.155s42.238 94.156 94.156 94.156h21.96c3.837 0 7.732-.247 11.631-.734 18.461 26.018 48.098 41.404 80.237 41.404s61.776-15.386 80.237-41.404c3.899.488 7.794.734 11.632.734h21.96c30.573 0 59.358-14.936 76.999-39.954 2.387-3.385 1.577-8.065-1.807-10.451z"/><path d="m190.4 110.731c4.096.609 7.914-2.213 8.526-6.31l6.896-46.18c3.682-24.652 25.254-43.241 50.178-43.241 24.925 0 46.496 18.589 50.178 43.241l17.486 117.091c.556 3.721 3.756 6.393 7.408 6.393.369 0 .742-.027 1.117-.084 4.097-.611 6.922-4.429 6.31-8.525l-17.485-117.091c-2.326-15.572-10.175-29.808-22.103-40.086-11.927-10.279-27.166-15.939-42.911-15.939s-30.984 5.661-42.911 15.939-19.776 24.515-22.102 40.086l-6.896 46.18c-.612 4.096 2.213 7.914 6.309 8.526z"/></g></g></svg>