<svg id="Capa_1" enable-background="new 0 0 512 512" height="512" viewBox="0 0 512 512" width="512" xmlns="http://www.w3.org/2000/svg"><g><g><g><path d="m27.49 30h427l30 1c11.046 0 19 7.954 19 19v101.22c0 24.169-18.593 42.762-42.762 42.762l-27.969 1h-381.507c-24.169 0-43.762-19.593-43.762-43.762v-101.22c0-11.046 8.954-20 20-20z" fill="#f47c7c"/><path d="m504.49 50v101.22c0 24.17-19.59 43.76-43.76 43.76h-30c24.17 0 43.76-19.59 43.76-43.76v-101.22c0-11.05-8.95-20-20-20h30c11.05 0 20 8.95 20 20z" fill="#ee6161"/><path d="m484.49 481-30 1h-427c-11.046 0-20-8.954-20-20v-101.22c0-24.169 19.593-43.762 43.762-43.762h381.905l27.571 1c24.169 0 42.762 18.593 42.762 42.762v101.22c0 11.046-7.954 19-19 19z" fill="#f47c7c"/><path d="m504.49 360.78v101.22c0 11.05-8.95 20-20 20h-30c11.05 0 20-8.95 20-20v-101.22c0-24.17-19.59-43.76-43.76-43.76h30c24.17 0 43.76 19.59 43.76 43.76z" fill="#ee6161"/><path d="m462.54 318.313c0 24.877-16.14 96.408-37.301 96.408-5.436 0-10.601-3.433-15.28-10.444-2.676-4.009-5.193-8.86-7.512-14.208-2.859-6.61-13.322-6.61-16.181 0-6.375 14.701-14.247 25.651-22.792 25.651-21.16 0-38.301-72.531-38.301-97.408 0-24.861 17.14-45.012 38.301-45.012 7.048 0 13.642 2.22 19.31 6.123 6.745 4.626 16.4 4.626 23.145 0 1.392-.958 2.839-1.815 4.335-2.562 4.598-2.297 9.657-2.56 14.975-2.56 21.16 0 37.301 19.151 37.301 44.012z" fill="#f8f7f7"/><path d="m463.54 318.31c0 24.88-17.14 97.41-38.3 97.41-5.44 0-10.6-4.43-15.28-11.43 13.85-21.44 23.58-67.23 23.58-85.98 0-18.61-9.6-34.58-23.31-41.43 4.6-2.31 9.68-3.58 15.01-3.58 21.16 0 38.3 20.15 38.3 45.01z" fill="#e1e1e1"/><path d="m324.173 318.313c0 24.877-16.14 96.408-37.301 96.408-5.436 0-10.601-3.433-15.28-10.444-2.676-4.009-5.193-8.86-7.512-14.208-2.859-6.61-13.322-6.61-16.181 0-6.375 14.701-14.247 25.651-22.792 25.651-21.16 0-38.301-72.531-38.301-97.408 0-24.861 17.14-45.012 38.301-45.012 7.048 0 13.641 2.22 19.31 6.123 6.745 4.626 16.4 4.626 23.145 0 1.392-.958 2.839-1.815 4.335-2.562 4.598-2.297 9.657-2.56 14.975-2.56 21.161 0 37.301 19.151 37.301 44.012z" fill="#f8f7f7"/><path d="m325.174 318.31c0 24.88-17.14 97.41-38.3 97.41-5.44 0-10.6-4.43-15.28-11.43 13.85-21.44 23.58-67.23 23.58-85.98 0-18.61-9.6-34.58-23.31-41.43 4.6-2.31 9.68-3.58 15.01-3.58 21.16 0 38.3 20.15 38.3 45.01z" fill="#e1e1e1"/><path d="m185.807 318.313c0 24.877-16.14 96.408-37.301 96.408-5.436 0-10.601-3.433-15.28-10.444-2.676-4.009-5.193-8.86-7.512-14.208-2.859-6.61-13.322-6.61-16.181 0-6.375 14.701-14.247 25.651-22.792 25.651-21.16 0-38.3-72.531-38.3-97.408 0-24.861 17.14-45.012 38.3-45.012 7.048 0 13.642 2.22 19.31 6.123 6.745 4.626 16.4 4.626 23.145 0 1.392-.958 2.839-1.815 4.335-2.562 4.598-2.297 9.657-2.56 14.975-2.56 21.161 0 37.301 19.151 37.301 44.012z" fill="#f8f7f7"/><path d="m186.807 318.31c0 24.88-17.14 97.41-38.3 97.41-5.44 0-10.6-4.43-15.28-11.43 13.85-21.44 23.58-67.23 23.58-85.98 0-18.61-9.6-34.58-23.31-41.43 4.6-2.31 9.68-3.58 15.01-3.58 21.16 0 38.3 20.15 38.3 45.01z" fill="#e1e1e1"/><g><path d="m325.173 193.687c0-24.877 17.14-97.408 38.3-97.408 8.545 0 16.417 10.95 22.792 25.651 2.859 6.61 13.322 6.61 16.181 0 2.319-5.347 4.835-10.198 7.51-14.206 4.68-7.012 9.845-10.445 15.281-10.445 21.16 0 37.301 71.531 37.301 96.408 0 24.861-16.14 44.012-37.301 44.012-5.437 0-10.604-.321-15.285-2.717-1.386-.71-2.73-1.514-4.025-2.405-6.745-4.626-16.4-4.626-23.145 0-5.668 3.902-12.262 6.123-19.31 6.123-21.158-.001-38.299-20.152-38.299-45.013z" fill="#f8f7f7"/><path d="m463.54 193.69c0 24.86-17.14 45.01-38.3 45.01-5.33 0-10.41-1.27-15.01-3.58 13.71-6.85 23.31-22.82 23.31-41.43 0-18.75-9.73-64.54-23.58-85.98 4.68-7 9.84-11.43 15.28-11.43 21.16 0 38.3 72.53 38.3 97.41z" fill="#e1e1e1"/></g><path d="m186.807 193.687c0-24.877 17.14-97.408 38.301-97.408 8.545 0 16.417 10.95 22.792 25.651 2.859 6.61 13.322 6.61 16.181 0 2.319-5.347 4.835-10.198 7.51-14.206 4.68-7.012 9.845-10.445 15.281-10.445 21.16 0 37.301 71.531 37.301 96.408 0 24.861-16.14 44.012-37.301 44.012-5.437 0-10.604-.321-15.285-2.717-1.386-.71-2.73-1.514-4.025-2.405-6.745-4.626-16.4-4.626-23.145 0-5.669 3.902-12.262 6.123-19.31 6.123-21.16-.001-38.3-20.152-38.3-45.013z" fill="#f8f7f7"/><path d="m325.174 193.69c0 24.86-17.14 45.01-38.3 45.01-5.33 0-10.41-1.27-15.01-3.58 13.71-6.85 23.31-22.82 23.31-41.43 0-18.75-9.73-64.54-23.58-85.98 4.68-7 9.84-11.43 15.28-11.43 21.16 0 38.3 72.53 38.3 97.41z" fill="#e1e1e1"/><path d="m48.44 193.687c0-24.877 17.14-97.408 38.3-97.408 8.545 0 16.417 10.95 22.792 25.651 2.859 6.61 13.322 6.61 16.181 0 2.319-5.347 4.835-10.198 7.51-14.206 4.68-7.012 9.844-10.445 15.281-10.445 21.16 0 37.301 71.531 37.301 96.408 0 24.861-16.14 44.012-37.301 44.012-5.437 0-10.604-.321-15.285-2.717-1.386-.71-2.73-1.514-4.025-2.405-6.745-4.626-16.4-4.626-23.145 0-5.668 3.902-12.262 6.123-19.31 6.123-21.158-.001-38.299-20.152-38.299-45.013z" fill="#f8f7f7"/><path d="m186.807 193.69c0 24.86-17.14 45.01-38.3 45.01-5.33 0-10.41-1.27-15.01-3.58 13.71-6.85 23.31-22.82 23.31-41.43 0-18.75-9.73-64.54-23.58-85.98 4.68-7 9.84-11.43 15.28-11.43 21.16 0 38.3 72.53 38.3 97.41z" fill="#e1e1e1"/></g></g><g><path d="m470.537 310.47c-3.312-25.248-22.358-44.669-45.288-44.669-8.341 0-16.489 2.574-23.552 7.437-4.181 2.866-10.483 2.866-14.65.008-7.074-4.871-15.223-7.445-23.563-7.445-16.004 0-30.109 9.467-38.301 23.767-8.192-14.299-22.296-23.767-38.3-23.767-8.341 0-16.489 2.574-23.552 7.437-4.181 2.865-10.483 2.866-14.65.008-7.074-4.871-15.222-7.445-23.563-7.445-16.004 0-30.109 9.467-38.3 23.767-8.192-14.299-22.296-23.767-38.301-23.767-8.34 0-16.488 2.574-23.552 7.437-4.18 2.866-10.483 2.866-14.65.008-7.074-4.871-15.222-7.445-23.563-7.445-22.93 0-41.975 19.421-45.288 44.669-23.713 4.601-41.464 25.549-41.464 50.31v101.22c0 15.164 12.336 27.5 27.5 27.5h65.051c4.142 0 7.5-3.358 7.5-7.5s-3.358-7.5-7.5-7.5h-65.051c-6.893 0-12.5-5.607-12.5-12.5v-101.22c0-16.454 11.078-30.527 26.321-34.872.793 9.284 2.834 21.28 5.719 33.242.972 4.027 5.027 6.505 9.049 5.533 4.027-.971 6.504-5.023 5.533-9.049-3.498-14.504-5.671-28.805-5.671-37.321 0-20.684 13.817-37.512 30.8-37.512 5.289 0 10.496 1.66 15.068 4.808 9.311 6.384 22.318 6.385 31.64-.008 4.561-3.141 9.768-4.8 15.057-4.8 16.983 0 30.801 16.828 30.801 37.512 0 10.89-3.801 34.115-10.845 55.707-9.153 28.057-17.509 34.201-19.956 34.201-2.505 0-8.676-4.451-15.908-21.129-2.491-5.759-8.369-9.48-14.975-9.48s-12.483 3.722-14.971 9.474c-7.235 16.684-13.406 21.135-15.911 21.135-2.25 0-8.421-4.692-15.675-22.448-1.566-3.834-5.943-5.673-9.779-4.107-3.834 1.566-5.673 5.945-4.106 9.779 8.734 21.381 18.404 31.775 29.561 31.775 11.164 0 20.87-9.868 29.676-30.174.104-.24.645-.436 1.207-.436s1.104.195 1.21.442c8.803 20.3 18.509 30.167 29.672 30.167 13.06 0 24.572-14.988 34.216-44.549 1.459-4.472 2.831-9.172 4.085-13.937 1.254 4.765 2.626 9.464 4.085 13.937 9.643 29.561 21.155 44.549 34.215 44.549 11.164 0 20.87-9.868 29.676-30.174.104-.24.645-.436 1.207-.436.561 0 1.103.195 1.21.442 8.803 20.3 18.509 30.167 29.673 30.167 13.06 0 24.571-14.988 34.215-44.549 1.459-4.472 2.831-9.172 4.085-13.937 1.254 4.764 2.626 9.464 4.085 13.937 9.645 29.561 21.156 44.549 34.216 44.549 11.164 0 20.87-9.868 29.676-30.174.104-.24.646-.436 1.207-.436s1.104.195 1.21.442c8.803 20.3 18.509 30.167 29.673 30.167 13.06 0 24.571-14.988 34.216-44.549 5.651-17.32 9.996-38.046 11.23-52.759 15.233 4.354 26.303 18.422 26.303 34.871v101.22c0 6.893-5.607 12.5-12.5 12.5h-359.263c-4.142 0-7.5 3.358-7.5 7.5s3.358 7.5 7.5 7.5h359.263c15.163 0 27.5-12.336 27.5-27.5v-101.22c0-24.761-17.75-45.708-41.463-50.31zm-163.699 63.55c-9.153 28.057-17.508 34.201-19.955 34.201-2.506 0-8.677-4.451-15.908-21.129-2.491-5.759-8.369-9.48-14.975-9.48s-12.483 3.721-14.972 9.474c-7.235 16.684-13.406 21.135-15.911 21.135-2.447 0-10.802-6.144-19.955-34.201-7.044-21.592-10.845-44.817-10.845-55.707 0-20.684 13.817-37.512 30.8-37.512 5.289 0 10.496 1.66 15.068 4.808 9.311 6.384 22.317 6.385 31.64-.008 4.561-3.141 9.769-4.8 15.058-4.8 16.983 0 30.8 16.828 30.8 37.512 0 10.889-3.801 34.114-10.845 55.707zm138.366 0c-9.153 28.057-17.508 34.201-19.955 34.201-2.506 0-8.677-4.451-15.908-21.129-2.491-5.759-8.369-9.48-14.975-9.48s-12.483 3.721-14.972 9.474c-7.234 16.684-13.405 21.135-15.911 21.135-2.447 0-10.802-6.144-19.955-34.201-7.045-21.593-10.846-44.817-10.846-55.707 0-20.684 13.817-37.512 30.801-37.512 5.289 0 10.496 1.66 15.069 4.808 9.311 6.384 22.316 6.384 31.639-.008 4.562-3.141 9.769-4.8 15.058-4.8 16.983 0 30.801 16.828 30.801 37.512 0 10.889-3.801 34.114-10.846 55.707z"/><path d="m484.5 22.5h-87.636c-4.143 0-7.5 3.358-7.5 7.5s3.357 7.5 7.5 7.5h87.636c6.893 0 12.5 5.607 12.5 12.5v101.22c0 16.449-11.071 30.517-26.305 34.867-1.234-14.714-5.579-35.439-11.23-52.759-9.645-29.561-21.156-44.549-34.216-44.549-11.164 0-20.87 9.868-29.676 30.174-.103.24-.646.436-1.207.436s-1.103-.195-1.21-.442c-8.803-20.3-18.509-30.167-29.673-30.167-13.06 0-24.571 14.988-34.215 44.549-1.459 4.472-2.831 9.172-4.085 13.937-1.254-4.764-2.626-9.464-4.085-13.937-9.645-29.561-21.156-44.549-34.216-44.549-11.164 0-20.87 9.868-29.676 30.174-.104.24-.646.436-1.207.436-.562 0-1.103-.195-1.21-.442-8.803-20.3-18.509-30.167-29.673-30.167-13.06 0-24.572 14.988-34.215 44.549-1.459 4.472-2.831 9.172-4.085 13.937-1.254-4.765-2.626-9.464-4.085-13.937-9.644-29.561-21.156-44.549-34.216-44.549-11.164 0-20.87 9.868-29.675 30.173-.104.241-.646.436-1.207.436-.562 0-1.103-.195-1.21-.442-8.803-20.3-18.509-30.167-29.673-30.167-13.06 0-24.572 14.988-34.215 44.549-5.651 17.32-9.996 38.045-11.23 52.759-15.234-4.351-26.305-18.42-26.305-34.869v-101.22c0-6.893 5.607-12.5 12.5-12.5h336.678c4.143 0 7.5-3.358 7.5-7.5s-3.357-7.5-7.5-7.5h-336.678c-15.164 0-27.5 12.336-27.5 27.5v101.22c0 24.76 17.751 45.708 41.463 50.31 3.312 25.248 22.358 44.669 45.288 44.669 8.341 0 16.489-2.575 23.552-7.437 4.179-2.866 10.482-2.867 14.65-.008 7.075 4.871 15.223 7.445 23.563 7.445 16.005 0 30.109-9.467 38.301-23.767 8.192 14.299 22.296 23.767 38.3 23.767 8.341 0 16.489-2.575 23.552-7.437 4.179-2.866 10.482-2.867 14.65-.008 7.074 4.871 15.223 7.445 23.563 7.445 16.004 0 30.109-9.467 38.301-23.767 8.192 14.299 22.296 23.767 38.3 23.767 8.341 0 16.489-2.574 23.552-7.437 4.181-2.866 10.483-2.867 14.65-.008 7.074 4.871 15.223 7.445 23.564 7.445 22.93 0 41.976-19.421 45.288-44.669 23.712-4.601 41.463-25.549 41.463-50.31v-101.22c0-15.164-12.337-27.5-27.5-27.5zm-335.984 208.699c-5.289 0-10.496-1.66-15.068-4.808-4.654-3.191-10.231-4.788-15.811-4.788-5.582 0-11.167 1.599-15.83 4.796-4.56 3.14-9.767 4.8-15.057 4.8-16.983 0-30.8-16.828-30.8-37.512 0-10.89 3.801-34.115 10.845-55.707 9.153-28.057 17.508-34.201 19.955-34.201 2.505 0 8.676 4.451 15.908 21.129 2.491 5.759 8.369 9.48 14.974 9.48 6.605 0 12.483-3.721 14.972-9.474 7.235-16.684 13.405-21.135 15.911-21.135 2.447 0 10.802 6.144 19.956 34.201 7.044 21.592 10.845 44.817 10.845 55.707.001 20.685-13.817 37.512-30.8 37.512zm138.367 0c-5.289 0-10.496-1.66-15.069-4.808-4.654-3.191-10.23-4.788-15.81-4.788-5.582 0-11.167 1.599-15.83 4.796-4.561 3.14-9.767 4.8-15.057 4.8-16.983 0-30.8-16.828-30.8-37.512 0-10.89 3.801-34.115 10.845-55.707 9.153-28.057 17.508-34.201 19.955-34.201 2.505 0 8.676 4.451 15.908 21.129 2.491 5.759 8.369 9.48 14.975 9.48s12.483-3.721 14.972-9.474c7.234-16.684 13.405-21.135 15.911-21.135 2.447 0 10.802 6.144 19.955 34.201 7.045 21.593 10.846 44.817 10.846 55.707 0 20.685-13.818 37.512-30.801 37.512zm138.366 0c-5.289 0-10.496-1.66-15.069-4.808-4.654-3.191-10.23-4.788-15.81-4.788-5.582 0-11.167 1.599-15.829 4.795-4.561 3.141-9.768 4.8-15.058 4.8-16.983 0-30.8-16.828-30.8-37.512 0-10.89 3.801-34.115 10.845-55.707 9.153-28.057 17.508-34.201 19.955-34.201 2.506 0 8.677 4.451 15.908 21.129 2.491 5.759 8.369 9.48 14.975 9.48s12.483-3.721 14.972-9.474c7.234-16.684 13.405-21.135 15.911-21.135 2.447 0 10.802 6.144 19.955 34.201 7.045 21.593 10.846 44.817 10.846 55.707 0 20.686-13.818 37.513-30.801 37.513z"/></g></g></svg>