<svg id="Capa_1" enable-background="new 0 0 512 512" height="512" viewBox="0 0 512 512" width="512" xmlns="http://www.w3.org/2000/svg"><g><g><g><path d="m503.5 359.516v139.233c0 2.761-1.239 4-4 4l-27.57 1h-459.43c-2.761 0-5-2.239-5-5v-139.233c0-2.332 1.612-4.354 3.885-4.874l134.222-30.704c21.71-4.966 37.105-24.281 37.105-46.552v-94.283h146.575l-1 94.283c0 22.271 16.395 42.586 38.105 47.552l134.222 30.704c2.274.52 2.886 1.542 2.886 3.874z" fill="#fed2a4"/><path d="m504.5 359.52v139.23c0 2.76-2.24 5-5 5h-30c2.76 0 5-2.24 5-5v-139.23c0-2.34-1.61-4.36-3.89-4.88l-134.22-30.7c-21.71-4.97-37.1-24.28-37.1-46.55v-94.29h30v94.29c0 22.27 15.39 41.58 37.1 46.55l134.22 30.7c2.28.52 3.89 2.54 3.89 4.88z" fill="#ffbd86"/><path d="m256 233.813c-5.073 0-10.078.71-15 .145-64.834-7.438-115.185-62.504-115.185-129.33v-92.866c0-1.939 1.571-3.51 3.51-3.51h223.962l29.387 1c1.939 0 2.51.571 2.51 2.51v92.867c.001 71.899-57.285 129.184-129.184 129.184z" fill="#fed2a4"/><path d="m386.18 11.76v92.87c0 71.9-58.28 130.18-130.18 130.18-5.07 0-10.08-.29-15-.86 64.83-7.43 115.18-62.49 115.18-129.32v-92.87c0-1.94-1.57-3.51-3.51-3.51h30c1.94 0 3.51 1.57 3.51 3.51z" fill="#ffbd86"/></g></g><g><path d="m347.057 496.248h-332.057v-57.302c0-4.143-3.358-7.5-7.5-7.5s-7.5 3.357-7.5 7.5v59.802c0 6.893 5.607 12.5 12.5 12.5h334.557c4.142 0 7.5-3.357 7.5-7.5s-3.358-7.5-7.5-7.5z"/><path d="m502.287 347.33-134.222-30.704c-18.416-4.212-31.278-20.349-31.278-39.24v-61.337c34.453-25.05 56.897-65.659 56.897-111.419v-92.868c0-6.071-4.939-11.01-11.01-11.01h-253.35c-6.071 0-11.01 4.938-11.01 11.01v92.867c0 17.243 3.15 34.065 9.361 49.998 1.505 3.858 5.855 5.771 9.712 4.263 3.859-1.504 5.768-5.853 4.264-9.712-5.532-14.188-8.337-29.177-8.337-44.549v-88.877h245.37v88.877c0 67.648-55.036 122.685-122.685 122.685-39.047 0-76.121-18.857-99.172-50.443-2.442-3.347-7.133-4.078-10.479-1.638-3.346 2.442-4.079 7.134-1.637 10.479 8.593 11.774 18.93 21.961 30.501 30.331v61.343c0 18.892-12.862 35.028-31.278 39.24l-134.22 30.704c-5.719 1.307-9.714 6.318-9.714 12.186v46.738c0 4.143 3.358 7.5 7.5 7.5s7.5-3.357 7.5-7.5v-44.745l132.279-30.26c25.278-5.782 42.933-27.932 42.933-53.863v-51.879c19.965 10.862 42.564 16.807 65.788 16.807 23.812 0 46.23-6.078 65.788-16.761v51.834c0 25.932 17.655 48.081 42.933 53.863l132.279 30.259v134.739h-117.247c-4.142 0-7.5 3.358-7.5 7.5 0 4.143 3.358 7.5 7.5 7.5h119.747c6.893 0 12.5-5.607 12.5-12.5v-139.232c0-5.868-3.995-10.879-9.713-12.186z"/><path d="m198.436 375.704-78.747-11.738c-4.104-.607-7.914 2.215-8.524 6.313-.611 4.097 2.215 7.913 6.312 8.523l78.747 11.738c21.78 3.247 38.204 22.301 38.204 44.321 0 4.143 3.358 7.5 7.5 7.5s7.5-3.357 7.5-7.5c0-14.329-5.152-28.197-14.507-39.051-9.356-10.853-22.313-17.994-36.485-20.106z"/><path d="m262.572 434.861c0 4.143 3.358 7.5 7.5 7.5s7.5-3.357 7.5-7.5c0-22.021 16.424-41.074 38.204-44.321l78.747-11.738c4.097-.61 6.923-4.427 6.312-8.523-.61-4.097-4.421-6.921-8.524-6.313l-78.747 11.738c-14.172 2.112-27.129 9.253-36.484 20.106-9.355 10.854-14.508 24.722-14.508 39.051z"/><path d="m277.329 275.374c-3.107-2.739-7.847-2.441-10.586.666-2.736 3.104-6.828 6.8-10.794 6.8-.006 0-.013 0-.019 0-3.937-.012-7.961-3.686-10.644-6.766-2.721-3.124-7.458-3.451-10.582-.729-3.124 2.721-3.45 7.458-.73 10.581 6.866 7.883 14.238 11.892 21.91 11.914h.066c7.677 0 15.094-3.997 22.044-11.88 2.74-3.107 2.442-7.847-.665-10.586z"/></g></g></svg>