<svg id="Capa_1" enable-background="new 0 0 512 512" height="512" viewBox="0 0 512 512" width="512" xmlns="http://www.w3.org/2000/svg"><g><g><g><path d="m461.76 172.87v320.66c0 6.06-3.57 9.97-9.21 9.97l-29.56 1h-10l-6.079-10-9.48 10h-128.231l-7.137-10-7.864 10h-139.648l-6.493-10-8.928 10h-39.7c-5.64 0-10.21-4.91-10.21-10.97v-320.66c0-45.55 31.91-82.48 71.28-82.48h39.67c22.94 0 41.54-21.52 41.54-48.07v-23.85c0-6.06 4.57-10.97 10.21-10.97h58.14l30 1c5.64 0 9.21 3.91 9.21 9.97v23.85c0 19.284 10.34 36.914 24.789 44.572 5.445 2.886 11.473 3.498 17.751 3.498h10.826l28.844 1c39.37 0 70.28 35.93 70.28 81.48z" fill="#fed2a4"/><g fill="#ffbd86"><path d="m351.811 90.39h-30c-22.94 0-41.54-21.52-41.54-48.07v-23.85c0-6.06-4.57-10.97-10.21-10.97h30c5.64 0 10.21 4.91 10.21 10.97v23.85c-.001 26.55 18.599 48.07 41.54 48.07z"/><path d="m462.76 172.87v320.66c0 6.06-4.57 10.97-10.21 10.97h-30c5.64 0 10.21-4.91 10.21-10.97v-320.66c0-45.55-31.91-82.48-71.28-82.48h30c39.37 0 71.28 36.93 71.28 82.48z"/></g></g></g><g><path d="m391.494 82.89h-39.677c-18.767 0-34.034-18.198-34.034-40.566v-23.851c0-10.186-7.944-18.473-17.709-18.473h-88.148c-9.765 0-17.709 8.287-17.709 18.473v23.851c0 22.368-15.268 40.566-34.034 40.566h-39.677c-43.437 0-78.775 40.367-78.775 89.984v264.696c0 4.143 3.358 7.5 7.5 7.5s7.5-3.357 7.5-7.5v-264.696c0-41.347 28.609-74.984 63.775-74.984h39.677c27.038 0 49.034-24.927 49.034-55.566v-23.851c0-1.883 1.241-3.473 2.709-3.473h88.148c1.469 0 2.709 1.59 2.709 3.473v23.851c0 30.64 21.997 55.566 49.034 55.566h39.677c35.165 0 63.774 33.638 63.774 74.984v178.591c0 4.143 3.357 7.5 7.5 7.5s7.5-3.357 7.5-7.5v-178.591c.001-49.617-35.337-89.984-78.774-89.984z"/><path d="m59.44 512c-9.765 0-17.709-8.287-17.709-18.473v-23.27c0-4.143 3.358-7.5 7.5-7.5s7.5 3.357 7.5 7.5v23.27c0 1.883 1.241 3.473 2.709 3.473h41.536l18.261-73.285c8.377-33.616 8.666-69.225.837-102.974l-20.544-88.563c-.936-4.034 1.576-8.064 5.611-9 4.035-.939 8.065 1.576 9.001 5.611l20.544 88.563c8.362 36.048 8.053 74.082-.895 109.989l-17.357 69.659h137.78v-127.734c0-4.143 3.357-7.5 7.5-7.5s7.5 3.357 7.5 7.5v127.734h126.352l-17.358-69.658c-8.947-35.907-9.256-73.941-.895-109.989l20.545-88.564c.935-4.034 4.968-6.55 9-5.61 4.035.936 6.548 4.966 5.611 9.001l-20.545 88.563c-7.827 33.748-7.538 69.356.838 102.973l18.263 73.284h41.535c1.469 0 2.709-1.59 2.709-3.473v-109.376c0-4.143 3.357-7.5 7.5-7.5s7.5 3.357 7.5 7.5v109.376c0 10.186-7.944 18.473-17.709 18.473z"/><path d="m261.714 344.078c4.143 0 7.5-3.357 7.5-7.5v-43.27c0-4.143-3.357-7.5-7.5-7.5s-7.5 3.357-7.5 7.5v43.27c0 4.143 3.357 7.5 7.5 7.5z"/><path d="m280.532 157.641c-4.12-.104-7.56 3.221-7.636 7.362-.487 26.752 12.654 45.443 38.006 54.056.8.271 1.612.4 2.413.4 3.123 0 6.04-1.968 7.101-5.09 1.332-3.922-.768-8.182-4.689-9.514-19.361-6.577-28.205-19.153-27.832-39.579.075-4.141-3.221-7.559-7.363-7.635z"/><path d="m196.274 204.855c-3.922 1.332-6.021 5.592-4.689 9.514 1.061 3.123 3.977 5.09 7.101 5.09.8 0 1.613-.129 2.413-.4 25.351-8.612 38.493-27.304 38.005-54.056-.075-4.142-3.52-7.45-7.635-7.362-4.142.076-7.438 3.494-7.362 7.636.372 20.425-8.473 33.001-27.833 39.578z"/></g></g></svg>