<svg id="Capa_1" enable-background="new 0 0 512 512" height="512" viewBox="0 0 512 512" width="512" xmlns="http://www.w3.org/2000/svg"><g><g><g><path d="m286.15 57.35v158.97h-61.32v-79.53l10-7.5-10-7.5v-25.97l10-5.343-10-9.657v-23.47c0-5.52 4.47-10 10-10h13.812l28.508 1c5.53 0 9 3.48 9 9z" fill="#f8f7f7"/><path d="m287.15 57.35v23.47l-10 5.313 10 9.687v25.969l-10 6.956 10 8.045v79.53h-30v-158.97c0-5.52-4.47-10-10-10h30c5.53 0 10 4.48 10 10z" fill="#e1e1e1"/><path d="m202.28 350.89c-3.25-.21-6.49-.58-9.65-1.33-23.88-5.66-39.61-20.5-43.51-44.02-2.06-12.42 3.22-26.05 12.13-34.95l.11-.11c16.32-16.31 25.41-37.84 25.41-62.73 0-24.9-9.09-46.42-25.41-62.74-16.31-16.31-38.84-26.4-63.73-26.4-5.096 0-10.094-.577-14.96.236-18.899 3.157-35.809 12.194-48.78 25.164-16.31 16.32-26.4 38.84-26.4 63.74 0 .83.01 1.66.03 2.48.61 22.35 10.65 43.34 27.03 58.55 43.53 40.41 76.2 82.83 88.75 128.99 1.28 4.71 2.06 9.54 2.48 14.4 2.305 26.859 23.172 48.495 49.685 51.987 2.469.325 4.988-.507 7.545-.507h14.66c31.11 0 56.83-24.43 57.31-55.54 0-.3.01-.61.01-.91 0-30.41-22.78-54.39-52.71-56.31zm-3.73 80.8h-15.54c-6.75 0-12.87-2.75-17.3-7.18-4.44-4.43-7.18-10.55-7.18-17.3 0-13.5 10.98-24.48 24.48-24.48h15.54c13.5 0 24.48 10.98 24.48 24.48s-10.98 24.48-24.48 24.48z" fill="#f8f7f7"/><path d="m202.28 349.89c-3.25-.21-6.49-.58-9.65-1.33-23.88-5.66-38.61-19.5-42.51-43.02-2.06-12.42 2.22-25.05 11.13-33.95l.11-.11c16.32-16.31 26.41-38.84 26.41-63.73 0-24.9-10.09-47.42-26.41-63.74-16.31-16.31-38.84-26.4-63.73-26.4-5.11 0-10.12.43-15 1.25 18.88 3.16 35.77 12.19 48.73 25.15 16.32 16.32 26.41 38.84 26.41 63.74 0 24.89-10.09 47.42-26.41 63.73l-.11.11c-8.91 8.9-13.19 21.53-11.13 33.95 3.9 23.52 18.63 37.36 42.51 43.02 3.16.75 6.4 1.12 9.65 1.33 29.93 1.92 53.71 26.9 53.71 57.31 0 .3-.01.61-.01.91-.44 28.53-22.94 52.28-50.66 56.02 2.51.35 5.08.52 7.69.52h14.66c31.11 0 57.83-25.43 58.31-56.54 0-.3.01-.61.01-.91 0-30.41-23.78-55.39-53.71-57.31z" fill="#e1e1e1"/><path d="m478.09 145.01c-16.31-16.31-38.85-26.4-63.74-26.4-4.964 0-9.835-.599-14.581.173-19.049 3.099-36.092 12.17-49.15 25.227-16.32 16.32-26.41 38.84-26.41 63.74 0 24.89 10.09 47.42 26.41 63.73l.11.11c8.91 8.9 13.19 21.53 11.13 33.95-3.9 23.52-18.63 37.36-42.51 43.02-3.16.75-6.4 1.12-9.65 1.33-29.93 1.92-53.71 26.9-53.71 57.31 0 .3.01.61.01.91.441 28.592 23.047 52.387 50.854 56.051 2.449.323 4.938-.511 7.456-.511h14.66c30.01 0 53.71-22.12 56.23-51.48.42-4.86 1.2-9.69 2.48-14.4 12.55-46.16 45.22-88.58 88.75-128.99 16.38-15.21 26.42-36.2 27.03-58.55.02-.82.03-1.65.03-2.48.001-24.9-9.089-46.42-25.399-62.74zm-149.12 286.68h-15.54c-13.5 0-24.48-10.98-24.48-24.48s10.98-24.48 24.48-24.48h15.54c6.75 0 12.87 2.75 17.3 7.18 4.44 4.43 7.18 10.55 7.18 17.3 0 13.5-10.98 24.48-24.48 24.48z" fill="#f8f7f7"/><path d="m216.069 298.783-46.506-36.887c-12.288-9.746-19.451-24.571-19.451-40.254 0-28.376 23.003-51.379 51.379-51.379h83.02l25.978 1c28.376 0 50.379 22.003 50.379 50.379 0 15.683-6.163 29.508-18.451 39.254l-46.506 36.887c-9.083 7.204-20.335 11.125-31.928 11.125h-15.986c-2.219 0-4.426.856-6.607.574-9.214-1.195-17.977-4.873-25.321-10.699z" fill="#7a6d79"/><path d="m478.09 144.01c-16.31-16.31-38.85-26.4-63.74-26.4-5.11 0-10.12.43-15 1.25 18.88 3.16 35.78 12.19 48.74 25.15 16.31 16.32 26.4 38.84 26.4 63.74 0 .83-.01 1.66-.03 2.48-.61 22.35-10.65 43.34-27.03 58.55-43.53 40.41-76.2 82.83-88.75 128.99-1.28 4.71-2.06 9.54-2.48 14.4-2.3 26.81-23.09 48.41-49.54 51.96 2.51.34 5.06.52 7.65.52h14.66c30.01 0 54.71-23.12 57.23-52.48.42-4.86 1.2-9.69 2.48-14.4 12.55-46.16 45.22-88.58 88.75-128.99 16.38-15.21 26.42-36.2 27.03-58.55.02-.82.03-1.65.03-2.48 0-24.9-10.09-47.42-26.4-63.74z" fill="#e1e1e1"/><path d="m361.87 221.64c0 7.84-1.79 15.47-5.12 22.36-3.33 6.88-8.19 13.02-14.33 17.9l-46.51 36.88c-9.08 7.21-20.33 11.13-31.93 11.13h-15.98c-2.36 0-4.7-.16-7.01-.48 9.07-1.25 17.68-4.9 24.92-10.65l46.51-36.88c6.14-4.88 11-11.02 14.33-17.9 3.33-6.89 5.12-14.52 5.12-22.36 0-28.37-23.01-51.38-51.38-51.38h30c28.37 0 51.38 23.01 51.38 51.38z" fill="#685e68"/></g></g><g><path d="m483.408 138.706c-18.438-18.438-42.958-28.593-69.046-28.593-26.081 0-50.599 10.154-69.035 28.592-7.744 7.743-14.012 16.579-18.747 26.308-5.115-1.455-10.506-2.251-16.081-2.251h-15.835v-105.413c0-9.649-7.851-17.5-17.5-17.5h-42.328c-9.649 0-17.5 7.851-17.5 17.5v105.414h-15.835c-5.576 0-10.966.796-16.081 2.251-4.734-9.728-11.002-18.563-18.746-26.307-18.438-18.438-42.955-28.593-69.036-28.593-26.088 0-50.608 10.154-69.047 28.594-18.438 18.446-28.591 42.966-28.591 69.043 0 .897.012 1.793.036 2.683.643 23.811 11.367 47.08 29.423 63.842 11.858 11.011 22.64 21.951 32.042 32.52 1.482 1.666 3.539 2.515 5.606 2.515 1.773 0 3.554-.625 4.982-1.897 3.095-2.754 3.371-7.494.618-10.589-9.719-10.923-20.837-22.208-33.044-33.541-15.12-14.037-24.099-33.447-24.634-53.256-.021-.757-.03-1.516-.03-2.276 0-22.071 8.595-42.826 24.199-58.44 15.604-15.604 36.357-24.198 58.439-24.198 22.074 0 42.825 8.594 58.429 24.199 6.387 6.387 11.587 13.647 15.556 21.624-17.34 10.257-29.001 29.14-29.001 50.705 0 15.544 6.019 30.142 16.704 41.074-1.057 1.185-2.141 2.347-3.26 3.465l-.104.104c-10.717 10.699-15.664 25.833-13.235 40.484 4.316 26.014 20.525 42.53 48.184 49.09 3.198.758 6.66 1.238 10.895 1.511 26.594 1.714 47.102 23.952 46.688 50.627-.412 26.645-23.681 49.154-50.811 49.154h-14.662c-25.705 0-47.562-20.042-49.758-45.626-.476-5.548-1.391-10.837-2.718-15.723-6.654-24.479-18.685-48.375-36.779-73.051-2.448-3.34-7.144-4.065-10.482-1.613-3.341 2.449-4.063 7.143-1.613 10.482 16.985 23.165 28.237 45.446 34.4 68.116 1.092 4.019 1.848 8.416 2.247 13.07 1.385 16.128 8.734 31.088 20.694 42.125 12.033 11.104 27.662 17.219 44.009 17.219h14.664c17.053 0 33.334-6.643 45.846-18.705 5.091-4.908 9.265-10.46 12.471-16.445 3.206 5.985 7.379 11.537 12.471 16.445 12.512 12.063 28.793 18.705 45.846 18.705h14.664c16.347 0 31.976-6.115 44.009-17.219 11.96-11.036 19.31-25.997 20.694-42.125.399-4.654 1.155-9.052 2.247-13.069 4.718-17.355 12.739-35.068 23.84-52.646 2.212-3.502 1.166-8.134-2.336-10.346-3.501-2.211-8.133-1.166-10.346 2.336-11.899 18.84-20.523 37.924-25.633 56.721-1.327 4.885-2.242 10.174-2.718 15.721-2.196 25.585-24.053 45.627-49.758 45.627h-14.664c-27.13 0-50.398-22.51-50.811-49.154-.413-26.675 20.095-48.913 46.688-50.627 4.234-.272 7.696-.753 10.896-1.511 27.657-6.56 43.867-23.076 48.183-49.091 2.429-14.65-2.519-29.784-13.23-40.479l-.11-.109c-1.119-1.118-2.2-2.28-3.258-3.465 10.685-10.932 16.704-25.529 16.704-41.073 0-21.565-11.661-40.448-29.001-50.705 3.97-7.978 9.169-15.238 15.556-21.625 15.604-15.604 36.354-24.198 58.429-24.198 22.081 0 42.835 8.594 58.438 24.197 15.605 15.614 24.2 36.369 24.2 58.441 0 .761-.01 1.519-.03 2.278-.535 19.807-9.514 39.217-24.634 53.254-18.006 16.718-32.958 32.591-45.71 48.526-2.588 3.233-2.064 7.953 1.171 10.542 1.383 1.106 3.037 1.643 4.681 1.643 2.199 0 4.38-.963 5.86-2.814 12.286-15.353 26.745-30.695 44.203-46.905 18.056-16.762 28.78-40.031 29.423-63.84.024-.892.036-1.787.036-2.684-.001-26.077-10.154-50.597-28.593-69.045zm-251.072-42.886h47.328v25.971h-47.328zm2.5-40.971h42.328c1.379 0 2.5 1.121 2.5 2.5v23.471h-47.328v-23.471c0-1.379 1.121-2.5 2.5-2.5zm-2.5 81.942h47.328v25.972h-47.328zm122.042 84.851c0 13.475-6.055 26.006-16.611 34.379l-6.216 4.93c-3.246 2.573-3.79 7.291-1.216 10.536 2.574 3.246 7.293 3.791 10.536 1.216l.359-.284c1.326 1.498 2.688 2.963 4.096 4.37l.113.112c7.296 7.284 10.674 17.532 9.035 27.414-3.278 19.761-15.33 31.847-36.845 36.949-2.358.559-5.027.92-8.4 1.138-23.315 1.502-43.018 15.14-53.229 34.487-10.212-19.348-29.915-32.985-53.23-34.487-3.373-.218-6.042-.579-8.399-1.138-21.516-5.103-33.568-17.189-36.845-36.948-1.64-9.883 1.738-20.131 9.039-27.419l.107-.108c1.409-1.408 2.772-2.871 4.098-4.368l40.647 32.24c10.365 8.222 23.359 12.749 36.589 12.749h15.986c13.229 0 26.224-4.527 36.59-12.749l14.534-11.528c3.245-2.574 3.789-7.292 1.215-10.537-2.573-3.244-7.291-3.788-10.537-1.215l-14.533 11.528c-7.726 6.127-17.409 9.501-27.268 9.501h-15.986c-9.859 0-19.543-3.374-27.268-9.501l-46.506-36.887c-10.557-8.373-16.611-20.904-16.611-34.379 0-24.195 19.684-43.879 43.879-43.879h108.998c24.195-.001 43.879 19.682 43.879 43.878z"/><path d="m198.557 439.192c17.636 0 31.983-14.348 31.983-31.983 0-17.636-14.348-31.983-31.983-31.983h-15.538c-17.636 0-31.983 14.348-31.983 31.983 0 17.636 14.348 31.983 31.983 31.983zm-32.522-31.984c0-9.364 7.619-16.982 16.983-16.982h15.538c9.364 0 16.983 7.619 16.983 16.983s-7.619 16.983-16.983 16.983h-15.538c-9.364 0-16.983-7.619-16.983-16.984z"/><path d="m328.981 375.226h-15.538c-17.636 0-31.983 14.348-31.983 31.983 0 17.636 14.348 31.983 31.983 31.983h15.538c17.636 0 31.983-14.348 31.983-31.984.001-17.635-14.347-31.982-31.983-31.982zm0 48.966h-15.538c-9.364 0-16.983-7.619-16.983-16.983s7.619-16.983 16.983-16.983h15.538c9.364 0 16.983 7.619 16.983 16.983.001 9.364-7.618 16.983-16.983 16.983z"/><path d="m213.352 201.324c-4.142 0-7.5 3.358-7.5 7.5 0 4.142 3.358 7.5 7.5 7.5s7.5-3.358 7.5-7.5c0-4.142-3.358-7.5-7.5-7.5z"/><path d="m213.352 232.41c-4.142 0-7.5 3.358-7.5 7.5 0 4.142 3.358 7.5 7.5 7.5s7.5-3.358 7.5-7.5c0-4.142-3.358-7.5-7.5-7.5z"/><path d="m298.648 201.324c-4.142 0-7.5 3.358-7.5 7.5 0 4.142 3.358 7.5 7.5 7.5s7.5-3.358 7.5-7.5c0-4.142-3.358-7.5-7.5-7.5z"/><path d="m298.648 232.41c-4.142 0-7.5 3.358-7.5 7.5 0 4.142 3.358 7.5 7.5 7.5s7.5-3.358 7.5-7.5c0-4.142-3.358-7.5-7.5-7.5z"/></g></g></svg>