<svg id="Capa_1" enable-background="new 0 0 511.998 511.998" height="512" viewBox="0 0 511.998 511.998" width="512" xmlns="http://www.w3.org/2000/svg"><g><g><g><path d="m150.533 504.499c-59.501.106-107.793-48.1-107.793-107.601v-272.219c0-10.646 4.293-20.284 11.247-27.259 6.955-6.976 16.549-11.29 27.152-11.29 8.807 0 16.921 2.975 23.401 7.977 3.303 2.55 6.18 15.626 8.508 19.103 3.88 5.796 6.233 2.706 6.48 10.149v-43.615c0-10.646 4.304-20.284 11.258-27.26s16.56-11.29 27.163-11.29c8.804 0 16.915 2.973 23.391 7.973 3.57 2.756 6.643 16.126 9.063 19.954 3.551 5.617 5.695 2.219 5.934 9.303v-32.379c0-10.646 4.293-20.284 11.247-27.26 7.212-7.223 17.257-11.602 28.322-11.269 8.393.25 16.062 3.253 22.231 8.115 9.173 7.231 14.031 18.574 14.031 31.1l1 42.585c.418-9.981 4.615-18.985 11.215-25.596 3.445-3.46 7.543-6.265 12.093-8.215 4.947-2.119 10.428-2.227 16.186-2.065 20.885.59 36.294 17.245 36.294 38.205v228.39l1 1.074 48.531-75.963c4.354-6.813 10.5-11.79 17.43-14.707 11.245-4.734 24.553-3.046 35.609 4.02 11.462 7.33 16.729 18.736 16.729 31.401 0 7.072-1.953 14.231-6.042 20.638l-83.171 159.829c-18.493 35.538-54.198 56.86-94.259 56.931l-7.091 1.013z" fill="#fed2a4"/><g fill="#ffbd86"><path d="m296.478 55.499c4.95-2.11 10.43-3.22 16.19-3.06 20.88.59 37.29 18.25 37.29 39.21v229.461l-30-.002v-229.459c0-16.04-9.61-30.15-23.48-36.15z"/><path d="m469.258 265.859c0 7.07-1.95 14.23-6.04 20.64l-83.17 159.83c-18.5 35.54-55.2 57.86-95.26 57.93l-7.36.01c30.74-7.65 57.82-29.51 72.62-57.94l83.17-159.83c4.09-6.41 6.04-13.57 6.04-20.64 0-12.66-6.27-25.07-17.73-32.4-1.83-1.17-3.73-2.17-5.67-2.99 11.26-4.77 24.59-4.09 35.67 2.99 11.46 7.33 17.73 19.74 17.73 32.4z"/></g></g></g><g><path d="m455.636 227.14c-21.326-13.631-49.767-7.364-63.398 13.968l-34.711 54.331v-130.973c0-4.143-3.357-7.5-7.5-7.5s-7.5 3.357-7.5 7.5v149.5c-42.969 3.816-76.797 40.022-76.797 83.948 0 4.143 3.357 7.5 7.5 7.5s7.5-3.357 7.5-7.5c0-38.155 31.041-69.244 69.195-69.302 2.519 0 5.062-1.336 6.422-3.465l48.53-75.962c9.178-14.36 28.325-18.579 42.678-9.407 15.479 9.9 16.99 28.106 9.074 43.258l-63.403 121.844c-1.912 3.674-.483 8.203 3.191 10.115 3.592 1.869 8.237.417 10.115-3.191l63.257-121.563c13.257-21.112 6.804-49.699-14.153-63.101z"/><path d="m265.707 227.878c0 4.143 3.357 7.5 7.5 7.5 4.142 0 7.5-3.357 7.5-7.5v-137.971c1.321-16.732 14.45-30.495 31.814-29.97 16.545.468 30.006 14.692 30.006 31.708v40.133c0 4.143 3.357 7.5 7.5 7.5s7.5-3.357 7.5-7.5v-40.133c0-25.057-19.999-46.007-44.583-46.702-12.019-.323-23.398 3.892-32.205 11.95v-10.162c0-25.024-19.98-45.979-44.537-46.713-25.435-.726-47.041 20.142-47.293 45.558-8.146-7.405-18.976-11.883-30.891-11.883-25.079 0-45.921 21.006-45.921 46.05v10.759c-8.145-7.398-18.975-11.873-30.89-11.873-25.081 0-45.899 21.011-45.899 46.05v157.919c0 4.143 3.357 7.5 7.5 7.5s7.5-3.357 7.5-7.5v-157.919c0-16.846 14.005-31.05 30.899-31.05 16.765 0 30.335 13.168 30.894 29.979.002.061.012.119.015.18-.003.085-.013.169-.013.256v103.835c0 4.143 3.358 7.5 7.5 7.5 4.143 0 7.5-3.357 7.5-7.5l-.006-148.135c0-16.852 14.028-31.05 30.921-31.05 16.74 0 30.299 13.145 30.89 29.934 0 .021-.003.04-.003.061v149.189c0 4.143 3.357 7.5 7.5 7.5s7.5-3.357 7.5-7.5l.002-181.834c0-17.222 14.593-31.541 31.846-31.031 16.534.493 29.986 14.723 29.986 31.719z"/><path d="m388.277 430.638c-3.67-1.909-8.202-.484-10.115 3.191l-4.703 9.037c-17.264 33.176-51.22 53.826-88.619 53.893l-134.252.239c-.062 0-.12 0-.183 0-26.702 0-51.812-10.387-70.715-29.257-18.947-18.913-29.382-44.073-29.382-70.845v-81.607c0-4.143-3.357-7.5-7.5-7.5s-7.5 3.357-7.5 7.5v81.607c0 30.783 11.998 59.713 33.784 81.461 21.737 21.699 50.606 33.641 81.313 33.641h.21l134.252-.239c43.003-.076 82.048-23.821 101.898-61.969l4.703-9.037c1.913-3.674.484-8.203-3.191-10.115z"/></g></g></svg>