<svg id="Capa_1" enable-background="new 0 0 512 512" height="512" viewBox="0 0 512 512" width="512" xmlns="http://www.w3.org/2000/svg"><g><g><g><path d="m375.451 161.704c7.671-13.277 21.508-22.055 36.831-22.641.608-.023 1.216-.035 1.823-.035 31.473 0 57.085 25.612 57.085 57.085 0 31.431-25.529 57.001-56.931 57.085-8.485.022-15.824 6.41-16.709 14.848-1.049 10.009 6.761 18.452 16.555 18.452 13.663 0 26.557-4.048 38.074-9.5 31.482-14.901 52.686-46.76 51.242-84.42-1.749-45.604-40.456-84.184-86.065-85.792-4.357-.154-8.649-.997-12.857-.551-12.906 1.369-25.015 5.465-35.73 11.706-6.992 4.072-14.917 6.264-23.009 6.264h-180.204c-7.986 0-15.818-2.128-22.741-6.109-20.255-11.647-45.436-15.681-71.556-8.15-29.393 8.475-52.321 31.88-60.352 61.397-16.448 60.457 28.755 115.309 86.595 115.543 8.622.035 16.133-6.44 16.944-15.024.939-9.932-6.837-17.275-16.573-17.275-31.473 0-58.085-26.612-58.085-58.085 0-27.913 21.134-51.204 47.635-56.126 3.389-.629 6.882-.958 10.45-.958.605 0 1.21.01 1.814.031 15.409.529 29.345 9.333 37.044 22.691l58.025 100.676c5.851 10.133 9.495 21.645 10.532 33.299l8.23 92.458c.894 10.085 9.21 17.696 19.333 17.696h10.751l12.388-10 12.386 10h10.571c10.123 0 18.439-7.611 19.333-17.696l8.23-92.458c1.037-11.655 4.681-23.167 10.532-33.299z" fill="#f47c7c"/><path d="m327.572 156.269c7.012 0 10.394 6.59 6.889 12.663l-11.435 19.808-33.804 58.541c-8.097 14.024-13.13 29.96-14.566 46.086l-7.278 112.904-9.159-1-5.839 1h-8.777l-7.278-112.904c-1.437-16.127-6.47-32.063-14.566-46.086l-33.842-58.617-11.394-19.73c-3.507-6.073.876-13.664 7.888-13.664h127.454z" fill="#e94444"/><path d="m335.459 168.929-11.43 19.81-33.81 58.54c-8.09 14.02-13.13 29.96-14.56 46.09l-7.28 112.9h-16l7.28-112.9c1.43-16.13 6.47-32.07 14.56-46.09l33.81-58.54 11.43-19.81c3.51-6.07-.88-13.66-7.89-13.66h16c7.01 0 11.4 7.59 7.89 13.66z" fill="#d83131"/><path d="m114.449 271.859c-.81 8.59-8.33 15.06-16.95 15.03-4.47-.02-8.86-.36-13.15-1.01 5.95-2.14 10.48-7.46 11.1-14.02.94-9.93-6.84-18.27-16.58-18.27-31.47 0-57.08-25.61-57.08-57.09s25.61-57.08 57.08-57.08c.61 0 1.21.01 1.82.03 2.42.08 4.81.37 7.14.85-26.7 4.76-47.04 28.15-47.04 56.2 0 31.48 25.61 57.09 57.08 57.09 9.74 0 17.52 8.34 16.58 18.27z" fill="#ee6161"/><path d="m414.109 286.499c-1.99 0-3.89-.35-5.66-.99 44.65-6.63 78.76-46.06 76.97-92.93-1.67-43.55-37.94-81.6-80.92-86.34 4.21-.45 8.5-.6 12.86-.45 45.61 1.6 85.31 41.18 87.06 86.79 1.97 51.44-39.31 93.92-90.31 93.92z" fill="#ee6161"/><path d="m424.555 318.219 20.134-11.056c18.182-9.984 23.828-31.817 13.844-49.999-2.223-4.048-4.083-7.525-7.387-10.373-11.535-9.944-28.479-12.232-42.613-4.471l-20.134 11.056c-11.995 6.587-18.969 18.766-19.46 31.513-.253 6.574 2.219 13.3 5.616 19.487 9.984 18.181 31.818 23.827 50 13.843z" fill="#f8f7f7"/><path d="m459.533 257.164c-2.223-4.049-5.087-7.522-8.391-10.37-.537 12.695-7.503 24.807-19.453 31.37l-20.134 11.056c-14.133 7.761-31.074 5.469-42.608-4.474-.28 6.62 1.187 13.398 4.609 19.63 9.984 18.182 32.817 24.828 50.999 14.844l20.134-11.056c18.182-9.985 24.828-32.818 14.844-51z" fill="#e1e1e1"/><path d="m87.613 319.219-20.134-11.056c-13.451-7.386-20.589-21.805-19.349-36.171.436-5.052 2.908-10.098 5.506-14.829 9.984-18.182 31.817-23.828 49.999-13.844l20.134 11.056c18.182 9.984 23.828 31.817 13.844 49.999-3.699 6.736-8.161 11.889-14.498 15.199-10.767 5.626-24.056 5.931-35.502-.354z" fill="#f8f7f7"/><path d="m123.768 253.376-20.134-11.056c-18.182-9.984-41.015-3.338-50.999 14.844-2.593 4.723-4.055 9.759-4.494 14.802 10.765-5.622 24.049-5.93 35.493.354l20.134 11.056c13.46 7.391 20.588 21.823 19.338 36.197 6.339-3.31 11.806-8.459 15.506-15.198 9.984-18.182 3.339-41.015-14.844-50.999z" fill="#e1e1e1"/></g></g><g><path d="m208.44 331.413c4.126-.367 7.173-4.01 6.806-8.136l-2.477-27.826c-1.133-12.728-5.112-25.309-11.505-36.38l-58.025-100.676c-9.051-15.704-25.637-25.836-43.288-26.442-.688-.023-1.378-.035-2.068-.035-35.612 0-64.585 28.973-64.585 64.585 0 17.894 7.449 34.848 20.3 46.973-2.929 2.956-5.47 6.33-7.528 10.078-.982 1.789-1.816 3.618-2.533 5.472-10.079-8.745-17.882-19.724-22.816-32.253-6.621-16.813-7.509-35.298-2.568-53.46 7.329-26.938 28.477-48.456 55.192-56.16 22.673-6.538 46.021-3.894 65.74 7.446 8.086 4.649 17.243 7.107 26.479 7.107h138.398c4.142 0 7.5-3.357 7.5-7.5s-3.358-7.5-7.5-7.5h-138.397c-6.617 0-13.188-1.768-19.002-5.11-23.277-13.386-50.756-16.532-77.373-8.854-31.714 9.145-56.816 34.678-65.51 66.635-5.796 21.304-4.729 43.052 3.085 62.895 6.9 17.52 18.532 32.48 33.767 43.508.214 15.707 8.622 30.875 23.347 38.961l20.134 11.056c6.74 3.701 14.142 5.584 21.624 5.584 4.229-.001 8.483-.603 12.656-1.816 11.556-3.364 21.111-11.026 26.904-21.575 11.958-21.778 3.97-49.226-17.808-61.184l-20.134-11.056c-10.549-5.792-22.722-7.129-34.28-3.768-2.354.685-4.619 1.558-6.792 2.588-11.262-9.397-17.883-23.308-17.883-38.064 0-27.341 22.244-49.585 49.585-49.585.521 0 1.04.01 1.557.026 12.514.431 24.317 7.689 30.803 18.941l58.028 100.681c5.312 9.199 8.617 19.646 9.557 30.215l2.477 27.826c.347 3.899 3.62 6.836 7.462 6.835.22-.003.445-.013.671-.032zm-122.831-86.244c4.99 0 9.929 1.256 14.425 3.725l20.134 11.056c14.528 7.978 19.858 26.288 11.879 40.815-3.864 7.038-10.238 12.149-17.947 14.394-7.708 2.245-15.83 1.352-22.868-2.514l-20.134-11.056c-14.528-7.978-19.857-26.288-11.879-40.815 3.864-7.038 10.238-12.149 17.947-14.394 2.784-.81 5.622-1.211 8.443-1.211z"/><path d="m511.926 192.29c-.918-23.954-11.319-47.01-29.285-64.919-17.965-17.908-41.053-28.236-65.011-29.081-18.517-.653-36.714 3.9-52.626 13.17-5.891 3.431-12.542 5.244-19.233 5.244h-9.067c-4.142 0-7.5 3.357-7.5 7.5s3.358 7.5 7.5 7.5h9.067c9.341 0 18.603-2.519 26.783-7.283 13.462-7.841 28.868-11.684 44.548-11.141 41.677 1.47 78.237 37.915 79.835 79.584.977 25.473-9.507 49.353-28.435 65.759-.686-1.717-1.474-3.412-2.385-5.071-2.149-3.912-4.803-7.371-7.829-10.358 12.924-12.128 20.412-29.116 20.412-47.082 0-35.612-28.973-64.585-64.585-64.585-.704 0-1.407.014-2.11.041-17.532.67-34.024 10.779-43.039 26.383l-58.41 101.114c-6.396 11.076-10.375 23.657-11.507 36.385l-8.23 92.461c-.549 6.19-5.649 10.859-11.862 10.859h-2.571l6.758-104.828c1.352-15.026 6.048-29.862 13.583-42.913l45.239-78.348c3.002-5.201 3.001-11.41-.001-16.609s-8.379-8.304-14.383-8.304h-143.163c-6.005 0-11.382 3.105-14.384 8.305s-3.001 11.409.002 16.61l45.235 78.346c7.535 13.051 12.231 27.887 13.583 42.913l6.757 104.828h-2.752c-6.213 0-11.314-4.669-11.863-10.862l-2.853-32.058c-.368-4.125-4.006-7.155-8.136-6.806-4.126.367-7.173 4.01-6.806 8.136l2.854 32.055c1.241 13.987 12.764 24.535 26.804 24.535h46.096c14.04 0 25.563-10.548 26.804-24.532l8.229-92.458c.94-10.568 4.245-21.016 9.556-30.213l58.409-101.112c6.46-11.182 18.194-18.423 30.625-18.898.512-.02 1.023-.029 1.535-.029 27.341 0 49.585 22.244 49.585 49.585 0 14.88-6.715 28.877-18.132 38.273-12.555-5.803-27.608-5.793-40.635 1.36l-20.134 11.056c-21.777 11.959-29.766 39.406-17.808 61.184 8.182 14.899 23.42 23.437 39.367 23.436 6.033 0 12.169-1.223 18.06-3.784 3.798-1.652 5.539-6.07 3.886-9.869-1.651-3.798-6.069-5.539-9.869-3.887-14.308 6.226-30.773.585-38.296-13.115-7.978-14.528-2.648-32.839 11.879-40.816l20.134-11.056c14.528-7.977 32.838-2.647 40.815 11.879 1.954 3.559 3.12 7.352 3.55 11.17.011.168.03.335.052.503.942 9.872-3.052 19.854-11.264 26.349-3.248 2.57-3.799 7.286-1.229 10.535 2.568 3.249 7.286 3.799 10.535 1.23 11.166-8.831 17.13-21.955 17.101-35.356 26.51-19.303 41.478-49.975 40.215-82.915zm-268.108 100.594c-.004-.062-.008-.122-.014-.184-1.534-17.215-6.908-34.218-15.541-49.171l-45.236-78.347c-.384-.666-.212-1.243 0-1.609.212-.367.625-.805 1.393-.805h143.162c.768 0 1.181.438 1.393.804.212.367.384.944 0 1.609l-45.239 78.348c-8.633 14.953-14.008 31.956-15.542 49.171-.006.061-.01.122-.014.184l-6.826 105.887h-10.711z"/></g></g></svg>