<svg id="Capa_1" enable-background="new 0 0 511.81 511.81" height="512" viewBox="0 0 511.81 511.81" width="512" xmlns="http://www.w3.org/2000/svg"><g><g><g><path d="m442.57 493.176-28.309 1h-150.961l-7.904-10-7.04 10h-179.136c-7.385 0-13.722-5.262-15.078-12.521l-11.042-59.075c-3.874-20.727-9.236-41.167-16.463-60.975-20.765-56.914-24.583-114.231-12.134-171.934 2.653-12.298 16.045-24.614 20.17-36.947 3.314-9.909-2.9-19.83 1.356-29.761l37.105-95.542c2.291-5.899 7.97-9.786 14.299-9.786h308.599l28.325 1c6.329 0 11.008 2.887 13.299 8.786l37.105 95.542c34.407 80.29 38.14 159.852 9.393 238.642-7.227 19.809-12.589 40.249-16.463 60.975l-11.042 59.074c-1.357 7.26-6.694 11.522-14.079 11.522z" fill="#fed2a4"/><path d="m485.155 361.605c-7.23 19.81-12.59 40.25-16.46 60.98l-11.05 59.07c-1.35 7.26-7.69 12.52-15.07 12.52h-30c7.38 0 13.72-5.26 15.07-12.52l11.05-59.07c3.87-20.73 9.23-41.17 16.46-60.98 28.75-78.79 25.01-158.35-9.39-238.64l-37.11-95.54c-2.29-5.9-7.97-9.79-14.3-9.79h30c6.33 0 12.01 3.89 14.3 9.79l37.11 95.54c4.249 9.916-1.971 19.821 1.339 29.715 4.036 12.065 17.372 24.113 20 36.145 12.671 57.988 8.921 115.587-11.949 172.78z" fill="#ffbd86"/><path d="m487.103 188.831-17.367 13.474-209.481 103.138c-2.776 1.366-6.027 1.371-8.807.013l-236.945-115.766c4.776-22.181 11.965-44.423 21.526-66.727h409.735l19.996 10c9.43 22.007 16.557 33.963 21.343 55.868z" fill="#f7e365"/><path d="m497.105 188.835-27.35 13.47c-4.6-26.36-12.62-52.81-23.99-79.34h30c9.42 22.01 16.55 43.96 21.34 65.87z" fill="#ecc52e"/></g></g><path d="m482.716 120.128-37.059-95.422c-3.438-8.852-11.794-14.571-21.29-14.571h-336.924c-9.496 0-17.853 5.72-21.29 14.571l-37.058 95.422c-35.301 82.449-38.495 164.558-9.495 244.048 6.751 18.503 12.18 38.617 16.137 59.782l11.042 59.074c2.02 10.803 11.461 18.643 22.451 18.643h373.35c10.99 0 20.432-7.841 22.451-18.643l5.495-29.398c.761-4.071-1.922-7.989-5.994-8.75-4.074-.761-7.989 1.922-8.75 5.994l-5.496 29.397c-.693 3.708-3.934 6.399-7.706 6.399h-179.175v-103.986c6.36 15.561 14.733 31.277 25.099 47.087 1.44 2.196 3.835 3.389 6.279 3.389 1.411 0 2.837-.397 4.105-1.229 3.464-2.271 4.431-6.921 2.16-10.385-24.663-37.615-37.299-74.359-37.625-109.313.051-.024.105-.04.155-.065l228.096-112.303c2.724 14.524 4.392 28.972 4.983 43.286 1.6 38.791-4.637 77.778-18.538 115.88-6.755 18.513-12.236 38.544-16.29 59.539-.786 4.066 1.875 8 5.941 8.786 4.061.784 8-1.875 8.786-5.942 3.904-20.215 9.171-39.475 15.654-57.242 29-79.49 25.806-161.599-9.494-244.048zm-225.763 178.586c-.699.345-1.503.345-2.203.004l-90.307-44.122c-3.722-1.82-8.212-.276-10.031 3.446-1.818 3.722-.275 8.212 3.446 10.03l90.307 44.122c.073.036.15.059.223.093-.338 34.939-12.973 71.665-37.625 109.262-2.272 3.464-1.304 8.113 2.16 10.385 1.268.831 2.694 1.229 4.105 1.229 2.443 0 4.839-1.192 6.279-3.389 10.366-15.809 18.738-31.525 25.099-47.086v103.988h-179.176c-3.773 0-7.013-2.691-7.706-6.399l-11.042-59.074c-4.108-21.976-9.757-42.892-16.79-62.167-13.901-38.102-20.138-77.089-18.538-115.88.579-14.037 2.203-28.203 4.834-42.443l108.496 53.008c1.06.519 2.182.764 3.287.764 2.775 0 5.444-1.548 6.744-4.21 1.818-3.722.275-8.212-3.446-10.03l-111.909-54.677c4.296-18.314 10.273-36.719 17.88-55.105h186.495c4.142 0 7.5-3.357 7.5-7.5s-3.358-7.5-7.5-7.5h-180.537l33.138-85.327c1.18-3.038 4.048-5.001 7.308-5.001h336.924c3.259 0 6.128 1.963 7.308 5.001l33.138 85.327h-204.592c-4.142 0-7.5 3.357-7.5 7.5s3.358 7.5 7.5 7.5h210.549c7.491 18.106 13.408 36.231 17.689 54.269z"/></g></svg>