<svg id="Capa_1" enable-background="new 0 0 512 512" height="512" viewBox="0 0 512 512" width="512" xmlns="http://www.w3.org/2000/svg"><g><g><g><path d="m461.926 484.9c3.11 9.69-3.11 18.6-13.28 18.6l-28.638 1h-54.892l-11.11-1-10.11 1h-175.04l-13.656-1-7.564 1h-84.3c-9.95 0-17.14-9.5-14.44-19.07l54.56-193.71c6.58-23.36 6.58-48.08 0-71.44l-54.56-193.71c-2.7-9.57 4.49-19.07 14.44-19.07h355.878l29.432 1c10.17 0 16.39 8.91 13.28 18.6l-60.7 188.52c-8.45 26.26-8.45 54.5 0 80.76z" fill="#fed2a4"/><path d="m462.926 484.9c3.11 9.69-4.11 19.6-14.28 19.6h-30c10.17 0 17.39-9.91 14.28-19.6l-60.7-188.52c-8.45-26.26-8.45-54.5 0-80.76l60.7-188.52c3.11-9.69-4.11-19.6-14.28-19.6h30c10.17 0 17.39 9.91 14.28 19.6l-60.7 188.52c-8.45 26.26-8.45 54.5 0 80.76z" fill="#ffbd86"/></g></g><g><path d="m391.644 15h57.008c2.425 0 4.635 1.124 6.063 3.084 1.427 1.959 1.82 4.406 1.076 6.715l-60.692 188.526c-8.987 27.918-8.987 57.432 0 85.35l24.929 77.435c1.023 3.179 3.969 5.203 7.138 5.203.762 0 1.536-.117 2.3-.362 3.943-1.27 6.11-5.495 4.842-9.438l-24.93-77.436c-8.02-24.91-8.02-51.244 0-76.155l60.692-188.526c2.229-6.924 1.052-14.266-3.232-20.145-4.284-5.879-10.912-9.251-18.186-9.251h-57.008c-4.143 0-7.5 3.357-7.5 7.5s3.358 7.5 7.5 7.5z"/><path d="m76.007 150.446c.932 3.308 3.94 5.469 7.215 5.469.673 0 1.357-.092 2.037-.283 3.987-1.123 6.309-5.266 5.186-9.252l-34.324-121.846c-.642-2.281-.191-4.673 1.24-6.562 1.431-1.89 3.61-2.973 5.979-2.973h295.615c4.143 0 7.5-3.357 7.5-7.5s-3.357-7.5-7.5-7.5h-295.614c-7.108 0-13.646 3.25-17.938 8.917s-5.647 12.841-3.72 19.684z"/><path d="m470.07 482.604-25.739-79.952c-1.27-3.944-5.497-6.111-9.438-4.841-3.943 1.269-6.11 5.494-4.842 9.436l25.74 79.954c.742 2.308.35 4.755-1.077 6.714-1.428 1.96-3.638 3.084-6.063 3.084h-76.034l32.619-32.619c2.929-2.93 2.929-7.678 0-10.607-2.93-2.928-7.678-2.928-10.608 0l-43.225 43.227h-190.035l-43.227-43.227c-2.93-2.928-7.678-2.928-10.607 0-2.929 2.93-2.929 7.678 0 10.607l32.619 32.62h-76.812c-2.369 0-4.549-1.083-5.979-2.973-1.431-1.889-1.882-4.28-1.24-6.562l54.566-193.709c6.959-24.7 6.959-50.813 0-75.514l-11.38-40.399c-1.123-3.987-5.265-6.31-9.252-5.186-3.987 1.123-6.309 5.266-5.186 9.252l11.38 40.399c6.209 22.041 6.209 45.34 0 67.381l-54.567 193.71c-1.928 6.843-.571 14.017 3.72 19.684 4.292 5.667 10.829 8.917 17.938 8.917h385.312c7.274 0 13.902-3.372 18.185-9.251s5.461-13.221 3.232-20.145z"/><path d="m290.758 199.209h11.308c23.089 0 41.873-18.784 41.873-41.873 0-4.143-3.357-7.5-7.5-7.5s-7.5 3.357-7.5 7.5c0 14.817-12.056 26.873-26.873 26.873h-11.308c-14.817 0-26.873-12.056-26.873-26.873v-34.374c0-4.143-3.357-7.5-7.5-7.5s-7.5 3.357-7.5 7.5v34.374c0 .089.006.177.007.266-.001.045-.007.089-.007.134 0 14.818-12.056 26.874-26.873 26.874h-11.308c-14.817 0-26.873-12.056-26.873-26.874 0-4.143-3.357-7.5-7.5-7.5s-7.5 3.357-7.5 7.5c0 23.09 18.784 41.874 41.873 41.874h11.308c10.221 0 19.595-3.687 26.873-9.793v46.93c0 .089.006.177.007.267-.001.045-.007.089-.007.134 0 14.817-12.056 26.873-26.873 26.873h-11.308c-14.817 0-26.873-12.056-26.873-26.873 0-4.143-3.357-7.5-7.5-7.5s-7.5 3.357-7.5 7.5c0 23.089 18.784 41.873 41.873 41.873h11.308c10.221 0 19.595-3.686 26.873-9.793v48.333c0 .089.006.177.007.266-.001.045-.007.089-.007.134 0 14.817-12.056 26.873-26.873 26.873h-11.308c-14.817 0-26.873-12.056-26.873-26.873 0-4.143-3.357-7.5-7.5-7.5s-7.5 3.357-7.5 7.5c0 23.089 18.784 41.873 41.873 41.873h11.308c14.309 0 26.96-7.219 34.515-18.202 7.586 10.756 20.097 17.801 34.23 17.801h11.308c23.089 0 41.873-18.784 41.873-41.873 0-4.143-3.357-7.5-7.5-7.5s-7.5 3.357-7.5 7.5c0 14.817-12.056 26.873-26.873 26.873h-11.308c-14.817 0-26.873-12.056-26.873-26.873v-48.734c7.278 6.107 16.651 9.793 26.873 9.793h11.308c23.089 0 41.873-18.784 41.873-41.873 0-4.143-3.357-7.5-7.5-7.5s-7.5 3.357-7.5 7.5c0 14.817-12.056 26.873-26.873 26.873h-11.308c-14.817 0-26.873-12.056-26.873-26.873v-47.33c7.279 6.107 16.653 9.793 26.874 9.793z"/></g></g></svg>