<svg id="Capa_1" enable-background="new 0 0 512 512" height="512" viewBox="0 0 512 512" width="512" xmlns="http://www.w3.org/2000/svg"><g><g><g><path d="m442.03 334.95c-7.19 43.42-40.93 74.4-82.37 80.06-9.95 1.35-18.77 7.23-23.74 15.95-24.7 43.32-71.32 72.54-124.76 72.54-5.04 0-10.022.735-14.933.22-72.267-7.592-129.111-69.61-128.587-143.78.57-78.78 64.61-142.46 143.52-142.46 13.906 0 27.355 1.978 40.07 5.659 2.775.803 5.516 11.688 8.218 12.651 2.012.717 4.003-8.523 5.972-7.72l44.83-122.45h-41.25v15.32c0 5.87-4.75 10.62-10.62 10.62h-22.4c-5.87 0-10.62-4.75-10.62-10.62v-15.32l10-9.303-10-5.696v-52.681c0-16.81 13.63-30.44 30.44-30.44h61.571l28.959 1c.55 0 1.1.01 1.65.04 1.77.06 3.56.24 5.36.54 17.45 2.88 29.65 15 33.47 31.2.05.13.08.26.1.38l54.16 257.17h-.01c2.63 11.86 3.07 24.41.97 37.12z" fill="#fed2a4"/><g fill="#ffbd86"><path d="m353.49 98.12c0 4.15-1.36 7.5-5.5 7.5h-122.63v-15h122.63c4.14 0 5.5 3.36 5.5 7.5z"/><path d="m443.03 334.95c-7.19 43.42-41.93 75.4-83.37 81.06-9.95 1.35-18.77 7.23-23.74 15.95-24.7 43.32-71.32 72.54-124.76 72.54-5.04 0-10.03-.26-14.94-.78 47.05-4.91 87.35-32.56 109.7-71.76 4.97-8.72 13.79-14.6 23.74-15.95 41.44-5.66 76.18-37.64 83.37-81.06 2.1-12.71 1.66-25.26-.97-37.12h.01l-54.16-257.17c-.02-.12-.05-.25-.1-.38-3.82-16.2-17.02-29.32-34.47-32.2-1.8-.3-3.59-.48-5.36-.54-.55-.03-1.1-.04-1.65-.04h30c.55 0 1.1.01 1.65.04 1.77.06 3.56.24 5.36.54 17.45 2.88 30.65 16 34.47 32.2.05.13.08.26.1.38l54.16 257.17h-.01c2.63 11.86 3.07 24.41.97 37.12z"/></g></g></g><g><path d="m176.535 229.424c11.237-2.948 22.887-4.443 34.626-4.443 15.367 0 30.368 2.524 44.697 7.502-10.426 32.174-7.026 67.21 9.57 96.853 1.374 2.455 3.924 3.837 6.551 3.837 1.24 0 2.498-.308 3.657-.957 3.614-2.023 4.903-6.594 2.88-10.208-15.871-28.35-17.099-61.182-6.052-91.358l43.027-117.524h22.496c9.649 0 17.5-7.851 17.5-17.5v-49.293c0-4.143-3.357-7.5-7.5-7.5s-7.5 3.357-7.5 7.5v49.291c0 1.379-1.121 2.5-2.5 2.5h-13.157v-51.791c0-4.143-3.357-7.5-7.5-7.5s-7.5 3.357-7.5 7.5v51.791h-15.656v-51.791c0-4.143-3.357-7.5-7.5-7.5s-7.5 3.357-7.5 7.5v51.791h-10.095c-.026 0-.051-.004-.077-.004s-.051.004-.077.004h-5.406v-51.791c0-4.143-3.357-7.5-7.5-7.5s-7.5 3.357-7.5 7.5v51.791h-15.656v-60.184c0-12.649 10.291-22.94 22.939-22.94h90.53c16.945 0 29.761 11.63 34.273 27.359l35.016 166.268c.744 3.532 3.86 5.956 7.331 5.956.513 0 1.032-.053 1.554-.163 4.053-.854 6.647-4.831 5.793-8.885l-35.03-166.327c-4.321-22.769-26.238-39.208-48.938-39.208h-90.531c-20.92 0-37.939 17.02-37.939 37.94v83c0 9.991 8.128 18.119 18.119 18.119h22.401c9.991 0 18.119-8.128 18.119-18.119v-7.816h23.016l-38.533 105.253c-15.974-5.575-32.697-8.396-49.822-8.396-13.023 0-25.954 1.66-38.433 4.934-4.007 1.052-6.402 5.152-5.351 9.158 1.051 4.007 5.151 6.407 9.158 5.351zm84.966-108.484c0 1.72-1.399 3.119-3.119 3.119h-22.402c-1.72 0-3.119-1.399-3.119-3.119v-7.816h28.64z"/><path d="m77.383 385.505c-1.549-8.365-2.304-16.948-2.243-25.51.363-50.139 28.156-95.86 72.534-119.324 3.661-1.936 5.06-6.474 3.124-10.136-1.936-3.661-6.47-5.064-10.136-3.124-49.264 26.047-80.118 76.809-80.522 132.477-.066 9.513.772 19.05 2.493 28.348.669 3.611 3.821 6.136 7.366 6.136.453 0 .913-.041 1.374-.126 4.074-.755 6.764-4.668 6.01-8.741z"/><path d="m449.471 296.61c-.019-.108-.038-.218-.062-.326l-12.377-58.769c-.854-4.054-4.835-6.651-8.885-5.793-4.053.854-6.647 4.831-5.793 8.885l12.295 58.377c.024.157.054.314.088.47 2.493 11.241 2.793 22.772.893 34.271-3.22 19.445-12.428 36.906-26.628 50.497-13.737 13.147-31.622 21.798-50.352 24.356-12.241 1.661-23.175 9.014-29.247 19.667-24.179 42.409-69.487 68.755-118.242 68.755-53.882 0-102.813-32.135-124.657-81.868-1.667-3.791-6.089-5.516-9.884-3.85-3.792 1.666-5.516 6.091-3.851 9.884 24.237 55.179 78.56 90.834 138.392 90.834 54.13 0 104.432-29.246 131.275-76.326 3.774-6.622 10.591-11.195 18.239-12.233 21.847-2.983 42.693-13.063 58.699-28.382 16.563-15.852 27.301-36.213 31.056-58.886 2.192-13.263 1.868-26.57-.959-39.563z"/><path d="m211.43 300.565c0 50.728-41.271 92-92.076 92-4.143 0-7.462 3.357-7.462 7.5 0 4.142 3.396 7.5 7.538 7.5 59 0 107-48 107-107 0-4.143-3.357-7.5-7.5-7.5-4.142 0-7.5 3.357-7.5 7.5z"/></g></g></svg>