<svg id="Capa_1" enable-background="new 0 0 512 512" height="512" viewBox="0 0 512 512" width="512" xmlns="http://www.w3.org/2000/svg"><g><g><g><path d="m472.777 337.21v47.845h-52.701v-47.845c0-42.576-28.587-78.605-67.589-89.868-2.86-.826-5.069 2.63-3.089 4.853 8.728 9.798 14.033 22.715 14.033 36.87 0 28.162-20.999 51.442-48.197 55.007l-11.626 7.577 8.302 7.911-29.384 136.909c-1.006 4.685-5.147 8.032-9.939 8.032h-170.652c-5.614 0-10.165-4.551-10.165-10.165v-120.553l10-8.054-10-7.51c-45.761-11.505-75.82-58.769-63.278-107.049l61.302-236.06c1.164-4.481 5.209-7.61 9.839-7.61h211.901l26.227 1c5.614 0 9.165 3.551 9.165 9.165v169.612c0 2.425 2.741 5.498 5.129 5.916 69.063 12.105 120.722 71.531 120.722 144.017z" fill="#fed2a4"/><path d="m473.781 337.21v47.84h-27v-47.84c0-72.49-52.66-132.91-121.73-145.02-2.39-.42-4.13-2.49-4.13-4.91v-169.62c0-5.61-4.55-10.16-10.16-10.16h27c5.61 0 10.16 4.55 10.16 10.16v169.62c0 2.42 1.74 4.49 4.13 4.91 69.07 12.11 121.73 72.53 121.73 145.02z" fill="#ffbd86"/><path d="m447.013 424.85c-5.574 0-10.877-.159-15.681-2.25-13.924-6.058-23.66-19.938-23.66-36.092v-8.896c0-3.526 2.859-6.385 6.385-6.385h35.11l30.802 1c3.527 0 5.385 1.859 5.385 5.385v8.896c0 21.728-16.613 38.342-38.341 38.342z" fill="#f47c7c"/><path d="m486.351 377.61v8.9c0 21.73-17.61 39.34-39.34 39.34-5.57 0-10.88-1.16-15.68-3.25 13.93-6.06 23.66-19.94 23.66-36.09v-8.9c0-3.52-2.86-6.38-6.39-6.38h31.37c3.52 0 6.38 2.86 6.38 6.38z" fill="#ee6161"/></g></g><g><path d="m57.015 141.373c.632.165 1.266.243 1.89.243 3.334 0 6.378-2.24 7.254-5.617l30.903-119.003c.305-1.176 1.366-1.996 2.58-1.996h238.128c1.47 0 2.665 1.195 2.665 2.665v78.244c0 4.143 3.357 7.5 7.5 7.5s7.5-3.357 7.5-7.5v-78.244c0-9.74-7.925-17.665-17.665-17.665h-238.128c-8.045 0-15.075 5.438-17.098 13.226l-30.903 119.004c-1.042 4.008 1.364 8.102 5.374 9.143z"/><path d="m84.28 419.413c0 4.143 3.357 7.5 7.5 7.5s7.5-3.357 7.5-7.5v-52.077c4.633.68 9.335 1.031 14.064 1.031h77.808c4.143 0 7.5-3.357 7.5-7.5s-3.357-7.5-7.5-7.5h-77.808c-6.706 0-13.342-.814-19.726-2.419-.003-.001-.006-.002-.009-.003-20.441-5.14-38.403-18.608-49.28-36.954-10.939-18.45-13.982-40.092-8.568-60.937l22.179-85.403c1.042-4.009-1.364-8.103-5.374-9.144-4.007-1.045-8.102 1.365-9.144 5.374l-22.179 85.402c-6.428 24.744-2.81 50.44 10.183 72.357 11.888 20.05 30.932 35.195 52.855 42.229v55.544z"/><path d="m481.286 363.794v-26.584c0-36.573-13.05-72.089-36.744-100.005-22.959-27.048-54.536-45.466-89.107-52.02v-56.587c0-4.143-3.357-7.5-7.5-7.5s-7.5 3.357-7.5 7.5v58.679c0 6.079 4.346 11.254 10.335 12.305 31.94 5.598 61.181 22.407 82.337 47.331 21.397 25.208 33.18 57.276 33.18 90.298v26.518h-38.701v-26.519c0-44.743-30.023-84.661-73.007-97.073-4.536-1.31-9.273.502-11.796 4.505-2.514 3.99-2.103 9.03 1.024 12.541 7.824 8.785 12.134 20.107 12.134 31.882 0 23.976-17.874 44.406-41.587 47.557-28.358 3.316-54.372-18.613-54.372-47.559 0-4.143-3.357-7.5-7.5-7.5s-7.5 3.357-7.5 7.5c0 34.027 27.131 61.819 60.893 62.924l-30.672 142.907c-.262 1.221-1.357 2.106-2.605 2.106h-170.653c-1.47 0-2.665-1.195-2.665-2.665v-42.234c0-4.143-3.357-7.5-7.5-7.5s-7.5 3.357-7.5 7.5v42.234c0 9.74 7.925 17.665 17.665 17.665h170.652c8.271 0 15.535-5.87 17.271-13.958l31.649-147.461c28.525-6.263 49.423-31.817 49.423-61.517 0-10.37-2.546-20.474-7.325-29.484 29.405 14.112 48.97 44.299 48.97 77.63v26.599c-6.962.742-12.404 6.648-12.404 13.803v8.896c0 25.829 21.013 46.842 46.842 46.842s46.842-21.013 46.842-46.842v-8.896c0-7.215-5.534-13.156-12.579-13.818zm-2.421 22.714c0 17.558-14.284 31.842-31.842 31.842s-31.842-14.284-31.842-31.842v-7.78h63.684z"/></g></g></svg>