<svg id="Capa_1" enable-background="new 0 0 512.001 512.001" height="512" viewBox="0 0 512.001 512.001" width="512" xmlns="http://www.w3.org/2000/svg"><g><g><g><path d="m503.309 265.373c-4.807 124.429-105.605 223.436-230.51 226.556-4.501.112-8.974 1.1-13.417.967-1.827-.055-3.629-.171-5.407-.347-55.116-5.442-86.049-67.707-56.249-115.738 22.444-36.175 35.4-78.816 35.4-124.473 0-43.81-11.928-84.845-32.725-120.051-27.716-46.917 2.718-105.545 54.781-112.587 3.261-.441 6.607.32 10.029.299.492-.003.985-.004 1.478-.004 134.454 0 241.842 110.203 236.62 245.378z" fill="#e94444"/><path d="m319.576 302.545c-2.704 12.494-6.387 24.622-10.997 36.298-12.257-2.542-20.702-7.066-27.95-10.943-9.284-4.954-15.984-8.541-31.408-8.541-15.413 0-22.123 3.587-31.397 8.541-10.825 5.795-24.31 13-49.169 13-24.87 0-38.355-7.206-49.18-13-9.284-4.954-15.984-8.541-31.408-8.541-15.413 0-22.123 3.587-31.397 8.541-6.894 3.687-14.857 7.945-26.143 10.555-11.785 2.725-23.037-6.273-23.037-18.369 0-8.699 5.936-16.359 14.414-18.31 6.47-1.489 11.234-4.034 16.994-7.115 10.825-5.795 24.31-13 49.169-13 24.87 0 38.355 7.206 49.18 13 9.274 4.965 15.984 8.541 31.408 8.541 15.413 0 22.123-3.576 31.397-8.541 10.825-5.795 24.31-13 49.169-13 24.87 0 38.344 7.206 49.18 13 6.925 3.705 12.418 6.646 21.175 7.884z" fill="#8aaadc"/><path d="m323.529 226.525c-20.939-1.088-33.023-7.55-42.9-12.839-9.284-4.955-15.984-8.541-31.408-8.541-15.413 0-22.123 3.587-31.397 8.541-10.825 5.795-24.31 13-49.169 13-24.87 0-38.355-7.206-49.18-13-9.284-4.955-15.984-8.541-31.408-8.541-15.413 0-22.123 3.587-31.397 8.541-6.894 3.687-14.856 7.945-26.141 10.555-11.787 2.725-23.039-6.274-23.039-18.371 0-8.698 5.934-16.358 14.409-18.31 6.472-1.491 11.238-4.038 16.999-7.113 10.825-5.795 24.31-13.001 49.169-13.001 24.87 0 38.355 7.206 49.18 13.001 9.274 4.955 15.984 8.541 31.408 8.541 15.413 0 22.123-3.587 31.397-8.541 10.825-5.795 24.31-13.001 49.169-13.001 24.87 0 38.344 7.206 49.18 13.001 5.924 3.167 10.793 5.773 17.567 7.238 3.565 12.559 6.117 25.538 7.561 38.84z" fill="#f47c7c"/><path d="m504.31 265.371c-4.81 124.43-106.61 224.44-231.51 227.56-4.5.11-8.98.1-13.42-.03-2.15-.06-4.26-.21-6.34-.45 120.18-8.15 216.59-106.07 221.27-227.08 4.98-128.91-93.38-236.03-219.13-245.67 3.26-.44 6.61-.68 10.03-.7.49 0 .99-.01 1.48-.01 134.45 0 242.84 111.21 237.62 246.38z" fill="#d83131"/></g></g><g><path d="m445.169 88.256c-2.847-3.008-7.593-3.14-10.603-.292-3.008 2.847-3.139 7.594-.292 10.603 42.739 45.162 64.954 104.299 62.55 166.518-2.177 56.358-25.202 109.822-64.832 150.544-2.889 2.968-2.824 7.717.144 10.605 1.458 1.419 3.345 2.125 5.23 2.125 1.953 0 3.905-.759 5.375-2.27 42.221-43.383 66.751-100.356 69.072-160.427 2.561-66.284-21.107-129.288-66.644-177.406z"/><path d="m420.29 65.344c-43.332-34.725-97.878-53.848-153.591-53.848l-1.524.004c-30.137.183-57.005 15.954-71.873 42.19-14.726 25.985-14.483 56.794.651 82.413 5.934 10.045 11.098 20.586 15.426 31.413-4.953 2.091-9.14 4.331-12.859 6.322-8.933 4.771-14.324 7.651-27.855 7.651-13.541 0-18.933-2.88-27.868-7.653-10.949-5.861-25.944-13.889-52.719-13.889-26.765 0-41.76 8.027-52.741 13.906-5.586 2.981-9.623 5.135-15.111 6.398-11.909 2.744-20.226 13.279-20.226 25.619 0 8.083 3.63 15.604 9.96 20.637 6.31 5.018 14.427 6.855 22.268 5.041 12.256-2.834 20.979-7.499 27.992-11.25 8.933-4.773 14.325-7.653 27.856-7.653 13.527 0 18.913 2.875 27.869 7.654 10.95 5.861 25.946 13.888 52.719 13.888 26.762 0 41.758-8.026 52.709-13.888.646-.345 1.27-.678 1.884-1.003 1.575 10.9 2.379 21.974 2.379 33.043 0 8.186-.444 16.409-1.307 24.521-12.232 2.857-20.842 7.46-27.808 11.189-8.912 4.772-14.292 7.653-27.857 7.653-13.575 0-18.955-2.881-27.868-7.653-10.948-5.86-25.942-13.888-52.719-13.888-26.767 0-41.761 8.027-52.706 13.887-5.593 2.991-9.635 5.152-15.139 6.419-11.912 2.741-20.232 13.276-20.232 25.619 0 8.082 3.63 15.603 9.958 20.636 6.31 5.016 14.426 6.853 22.268 5.041 12.252-2.833 20.975-7.497 27.994-11.251 8.933-4.772 14.325-7.653 27.856-7.653 13.527 0 18.913 2.875 27.868 7.654 7.948 4.255 17.839 9.549 32.642 12.202.448.081.893.119 1.332.119 3.562 0 6.723-2.548 7.374-6.178.731-4.077-1.982-7.975-6.059-8.706-12.464-2.233-20.829-6.712-28.255-10.687-9.456-5.047-17.622-9.405-34.901-9.405-17.288 0-25.461 4.367-34.939 9.432-6.551 3.503-13.976 7.474-24.29 9.858-3.362.775-6.843-.014-9.553-2.168-2.729-2.17-4.294-5.412-4.294-8.895 0-5.229 3.615-9.855 8.595-11.001 7.452-1.715 12.988-4.676 18.852-7.812 10.605-5.678 22.625-12.112 45.629-12.112 23.015 0 35.035 6.434 45.639 12.112 9.449 5.06 17.61 9.429 34.948 9.429 17.328 0 25.489-4.369 34.937-9.429 10.605-5.678 22.625-12.112 45.629-12.112 22.993 0 35.026 6.435 45.655 12.12 5.15 2.756 9.811 5.241 15.65 6.967-1.844 7.337-4.052 14.576-6.615 21.692-8.008-2.38-14.171-5.672-19.791-8.678-9.455-5.046-17.621-9.404-34.899-9.404-17.288 0-25.462 4.367-34.937 9.43-8.273 4.429-17.651 9.448-32.641 11.337-4.109.519-7.021 4.27-6.503 8.379.477 3.792 3.708 6.564 7.432 6.564.313 0 .629-.02.947-.06 9.85-1.241 17.661-3.633 24.198-6.335-4.619 10.951-10.083 21.561-16.364 31.684-16.007 25.801-16.992 57.17-2.635 83.912 14.182 26.416 40.514 42.724 70.438 43.624 2.493.074 5.01.112 7.53.112 2.102 0 4.206-.026 6.301-.078 52.852-1.32 102.869-19.245 144.64-51.837 3.266-2.548 3.847-7.261 1.299-10.526-2.548-3.266-7.261-3.85-10.527-1.3-39.218 30.6-86.172 47.428-135.787 48.667-4.331.11-8.707.098-13.005-.032-24.498-.736-46.059-14.092-57.673-35.725-11.79-21.961-10.981-47.721 2.165-68.909 9.648-15.549 17.498-32.168 23.409-49.427 5.947-2.845 11.522-4.48 21.713-4.48 13.526 0 18.913 2.875 27.913 7.678 5.669 3.032 12.406 6.629 21.21 9.387-4.471 10.237-9.697 20.171-15.671 29.714-2.198 3.511-1.134 8.139 2.378 10.337 1.237.774 2.613 1.144 3.972 1.144 2.499 0 4.941-1.248 6.364-3.522 24.235-38.713 37.045-83.41 37.045-129.258 0-43.417-11.566-86.061-33.448-123.322-2.099-3.572-6.695-4.769-10.265-2.669-3.572 2.097-4.767 6.693-2.669 10.265 7.171 12.211 13.157 25.041 17.917 38.303-.657-.348-1.33-.707-2.029-1.081-10.958-5.861-25.966-13.888-52.716-13.888-10.05 0-18.441 1.132-25.581 2.856-4.68-11.839-10.302-23.361-16.782-34.329-12.37-20.939-12.563-46.132-.516-67.389 12.188-21.507 34.211-34.436 58.912-34.585l1.434-.004c53.074 0 102.941 17.48 144.211 50.553 3.233 2.592 7.953 2.07 10.542-1.162 2.592-3.231 2.071-7.952-1.161-10.541zm-118.343 222.704c-10.958-5.86-25.964-13.887-52.716-13.887-3.384 0-6.578.129-9.601.365.664-7.362 1.006-14.79 1.006-22.187 0-12.968-1.037-25.946-3.066-38.68 3.232-.657 6.947-1.014 11.66-1.014 13.526 0 18.913 2.875 27.868 7.654 8.899 4.764 20.782 11.098 39.565 13.176.516 6.26.778 12.553.778 18.864 0 13.895-1.261 27.675-3.724 41.192-3.914-1.286-7.354-3.121-11.77-5.483zm-7.042-100.97c4.777 2.553 9.36 4.982 14.936 6.723 2.113 8.005 3.799 16.127 5.036 24.334-13.843-2.054-22.73-6.793-30.747-11.085-9.455-5.046-17.621-9.404-34.899-9.404-17.288 0-25.462 4.367-34.937 9.43-10.607 5.678-22.629 12.112-45.63 12.112-23.011 0-35.033-6.434-45.686-12.137-9.456-5.047-17.622-9.405-34.901-9.405-17.288 0-25.461 4.367-34.934 9.429-6.552 3.503-13.978 7.475-24.295 9.86-3.36.773-6.843-.013-9.553-2.168-2.73-2.17-4.295-5.412-4.295-8.895 0-5.228 3.614-9.855 8.592-11.002 7.427-1.71 12.954-4.659 18.855-7.809 10.606-5.678 22.627-12.113 45.629-12.113 23.013 0 35.034 6.436 45.654 12.121 9.463 5.055 17.636 9.421 34.933 9.421 17.287 0 25.459-4.366 34.937-9.429 10.606-5.678 22.627-12.113 45.629-12.113 22.993-.002 35.026 6.435 45.676 12.13z"/></g></g></svg>