<svg id="Capa_1" enable-background="new 0 0 512 512" height="512" viewBox="0 0 512 512" width="512" xmlns="http://www.w3.org/2000/svg"><g><g><g><circle cx="255.99" cy="256" fill="#e94444" r="223.973"/><path d="m479.96 256c0 123.7-100.27 223.97-223.97 223.97-62.32 0-118.69-25.45-159.29-66.53 35.29 28.97 80.45 46.35 129.67 46.35 112.98 0 204.57-91.59 204.57-204.57 0-112.99-91.59-204.58-204.57-204.58-45.31 0-87.17 14.73-121.07 39.66 39.78-36.2 92.66-58.27 150.69-58.27 123.7 0 223.97 100.27 223.97 223.97z" fill="#d83131"/><path d="m255.99 7.5c-137.02 0-248.5 111.48-248.5 248.5 0 133.898 106.458 243.407 239.175 248.327 3.095.115 6.203.173 9.325.173 2.141 0 4.276-1.027 6.404-1.081 134.073-3.409 241.096-112.54 241.096-247.419 0-113.553-75.878-208.566-179.857-238.122-21.488-6.108-44.176-10.378-67.643-10.378zm6.607 452.195c-117.623 3.74-214.109-92.79-210.298-210.428 3.426-105.738 94.518-195.309 200.297-197.039 68.078-1.113 128.79 31.344 166.618 81.871 3.205 4.282 2.432 10.353-1.729 13.714-7.887 6.37-15.552 10.292-22.526 12.848-11.13 4.07-24.98 9.14-41.68 26.74s-21.04 31.7-24.53 43.02c-3.02 9.83-5.41 17.59-16.46 29.23-10.51 11.08-17.93 14.15-26.93 17.46 2.06.92 3.99 2.22 5.68 3.91 3.71 3.71 5.56 8.57 5.56 13.43s-1.85 9.71-5.56 13.42l-8.41 8.41c4.39-2.5 8.64-4.06 13.37-5.79 11.12-4.08 24.98-9.15 41.68-26.75 16.69-17.59 21.03-31.69 24.52-43.02 3.03-9.82 5.42-17.58 16.47-29.23 11.05-11.64 18.67-14.43 28.32-17.97 7.238-2.647 15.634-5.717 25.214-12.385 5.388-3.75 12.862-1.482 15.129 4.678 7.876 21.398 12.256 44.467 12.45 68.514.898 111.018-86.219 201.839-197.185 205.367z" fill="#f47c7c"/><path d="m328.952 402.647c-3.813 3.816-8.811 6.727-13.811 6.733-5.009.005-10.02-1.902-13.843-5.722l-26.171-26.153c-3.353-3.351-8.788-3.347-12.137.008-35.292 29.433-87.758 24.703-117.202-10.567-20.491-24.539-24.434-57.402-13.05-85.045 3.411-8.283 1.939-17.734-4.028-24.416-11.681-13.083-18.587-30.527-17.97-49.585.466-14.414 5.31-27.801 13.241-38.85 12.287-17.117 31.986-27.622 54.305-28.641 40.689-1.858 73.245 29.577 73.245 69.844 0 24.238-11.161 44.637-29.717 57.427-.962.663-1.84 2.401-2.631 3.199-6.553 6.613-7.168 17.402-.911 24.792l1.419 1.676c6.876 8.121 19.282 8.834 26.836 1.341.049-.048.097-.096.146-.145l2.114-2.116 15.396-14.406c7.421-7.41 19.441-7.41 26.851 0 3.71 3.711 4.566 7.571 4.566 12.431s-1.855 9.71-5.566 13.42l-15.107 16.108 53.02 52.019c7.633 7.634 8.636 19.011 1.005 26.648z" fill="#fed2a4"/><path d="m158.78 157.93c-12.75.58-24.65 4.59-34.8 11.12 12.29-17.12 31.99-28.62 54.31-29.64 40.68-1.86 74.24 30.58 74.24 70.84 0 24.24-12.16 45.64-30.72 58.43-.97.67-1.86 1.42-2.65 2.23 8.72-11.78 13.87-26.36 13.87-42.14 0-40.26-33.56-72.7-74.25-70.84z" fill="#ffbd86"/><path d="m286.52 333.57-2.35 2.35c-5.65 5.65-11.89 10.51-18.59 14.5l-10.97-11.03c6.89-3.68 13.27-8.4 18.95-14.08l2.37-2.33z" fill="#ffbd86"/><path d="m255.99 7.5c-3.35 0-6.68.07-10 .2 132.4 5.27 238.5 114.63 238.5 248.3s-106.1 243.03-238.5 248.3c3.32.13 6.65.2 10 .2 137.02 0 248.5-111.48 248.5-248.5s-111.48-248.5-248.5-248.5z" fill="#ee6161"/><g fill="#ffbd86"><path d="m328.95 403.65c-3.81 3.81-8.81 5.72-13.81 5.73.28-5.34-1.62-10.78-5.7-14.86l-53.02-53.02 15.11-15.11c3.71-3.71 5.57-8.56 5.57-13.42s-1.86-9.72-5.57-13.43c-6.16-6.16-15.51-7.2-22.75-3.11l15.4-15.41c7.42-7.41 19.44-7.41 26.85 0 3.71 3.71 5.57 8.57 5.57 13.43s-1.86 9.71-5.57 13.42l-15.1 15.11 53.02 53.02c7.63 7.63 7.63 20.01 0 27.65z"/><path d="m286.52 333.57-2.35 2.35c-17.93 17.93-41.77 27.81-67.13 27.81-4.14 0-7.5-3.36-7.5-7.5 0-4.15 3.36-7.5 7.5-7.5 21.35 0 41.43-8.32 56.52-23.42l2.37-2.33z"/></g></g></g><g><path d="m226.08 274.855c21.265-14.658 33.96-38.809 33.96-64.603 0-21.626-8.613-41.767-24.254-56.709-15.632-14.936-36.165-22.617-57.833-21.627-40.573 1.853-73.385 35.121-74.7 75.739-.656 20.267 6.401 39.737 19.872 54.824 4.014 4.495 5.044 10.843 2.687 16.564-12.873 31.258-7.421 66.782 14.228 92.708 32.042 38.382 89.356 43.552 127.763 11.521.175-.147.344-.301.505-.462.261-.262.559-.316.763-.316s.502.055.764.315l26.171 26.153c5.11 5.105 11.901 7.917 19.125 7.917h.009c7.227-.003 14.02-2.819 19.128-7.932v.001c10.54-10.549 10.537-27.709-.007-38.254l-47.717-47.716.629-.629c3.606-1.952 7.249-3.293 11.464-4.835 11.229-4.119 26.607-9.762 44.493-28.612 17.896-18.86 22.721-34.525 26.253-45.99 2.952-9.569 4.903-15.892 14.736-26.258 9.834-10.358 16.044-12.637 25.473-16.097 7.367-2.695 16.536-6.049 26.906-13.267.921-.642 1.815-.5 2.265-.358.517.163 1.203.55 1.543 1.472 7.771 21.114 11.805 43.314 11.987 65.984.384 47.476-16.253 93.367-46.846 129.222-2.689 3.151-2.315 7.885.837 10.573 1.412 1.205 3.143 1.795 4.864 1.795 2.12 0 4.226-.893 5.709-2.632 32.936-38.602 50.849-87.994 50.436-139.079-.197-24.402-4.541-48.305-12.911-71.045-1.878-5.103-5.929-8.965-11.113-10.598-5.232-1.648-10.821-.789-15.339 2.354-8.777 6.108-16.595 8.968-23.535 11.507-10.143 3.722-18.903 6.937-31.156 19.843-12.25 12.915-15.003 21.833-18.199 32.193-3.429 11.13-7.315 23.745-22.79 40.056-10.866 11.452-20.209 17.099-28.608 20.841.307-1.621.468-3.281.468-4.967 0-5.51-1.679-10.76-4.784-15.18 5.74-3.021 11.564-7.236 18.414-14.458 12.272-12.929 15.015-21.855 18.195-32.208 3.43-11.123 7.316-23.73 22.796-40.044 15.495-16.329 27.885-20.86 38.821-24.859 8.938-3.277 17.002-7.874 24.655-14.055 7.347-5.933 8.674-16.494 3.021-24.044-37.058-49.497-93.487-80.266-154.82-84.417-4.127-.29-7.71 2.843-7.989 6.976-.28 4.133 2.843 7.71 6.976 7.989 56.969 3.856 109.391 32.447 143.826 78.442.779 1.041.583 2.559-.438 3.384-6.354 5.131-13.025 8.939-20.39 11.639-11.236 4.109-26.626 9.737-44.544 28.621-17.897 18.862-22.725 34.518-26.259 45.98-2.94 9.571-4.883 15.895-14.732 26.271-8.239 8.687-13.978 11.72-21.536 14.627-9.048-2.732-19.286-.534-26.435 6.603l-17.535 17.546-.098.098c-2.097 2.081-4.911 3.146-7.9 3.024-3.061-.133-5.951-1.55-7.93-3.888l-1.419-1.676c-2.019-2.385-2.904-5.404-2.492-8.502.408-3.065 2.03-5.716 4.567-7.465zm-13.522 25.662c5.119 6.241 11.899 10.498 20.145 10.856 7.121.306 14.088-2.374 19.14-7.386l17.649-17.659c4.483-4.476 11.773-4.48 16.249-.005 11.456 11.456-10.076 26.332-17.517 33.762-15.098 15.099-35.17 23.413-56.521 23.413-4.142 0-7.5 3.357-7.5 7.5s3.358 7.5 7.5 7.5c23.988 0 46.615-8.842 64.169-24.977l47.781 47.781c4.698 4.697 4.699 12.344.003 17.044-2.275 2.277-5.302 3.532-8.521 3.533-.002 0-.003 0-.004 0-3.219 0-6.245-1.253-8.521-3.527l-26.172-26.153c-3.037-3.034-7.072-4.705-11.365-4.705-.003 0-.007 0-.011 0-4.162.002-8.082 1.576-11.083 4.439-32.057 26.535-79.739 22.171-106.424-9.796-18.069-21.638-22.618-51.289-11.872-77.382 4.564-11.083 2.507-23.447-5.368-32.267-10.893-12.2-16.6-27.95-16.068-44.349 1.063-32.843 27.59-59.742 60.392-61.24 17.527-.79 34.146 5.411 46.787 17.488 12.65 12.085 19.617 28.373 19.617 45.863 0 20.86-10.271 40.395-27.474 52.253-5.981 4.122-9.962 10.623-10.923 17.837-.966 7.245 1.189 14.599 5.912 20.177z"/><path d="m256 0c-36.328 0-71.455 7.491-104.405 22.267-31.819 14.268-59.997 34.562-83.753 60.317-2.808 3.045-2.617 7.79.428 10.598 3.044 2.809 7.789 2.616 10.598-.428 22.373-24.257 48.907-43.367 78.864-56.8 31.007-13.904 64.07-20.954 98.268-20.954 132.888 0 241 108.112 241 241s-108.112 241-241 241-241-108.112-241-241c0-49.912 15.19-97.83 43.93-138.575 2.387-3.385 1.579-8.064-1.806-10.452-3.384-2.387-8.064-1.577-10.452 1.806-30.533 43.288-46.672 94.197-46.672 147.221 0 141.159 114.841 256 256 256s256-114.841 256-256-114.841-256-256-256z"/><path d="m236.477 45.639c-49.908 4.862-97.175 28.405-133.095 66.292-36.14 38.12-56.94 86.807-58.57 137.093-.964 29.768 4.168 58.733 15.254 86.092 10.678 26.35 26.337 49.962 46.545 70.182 20.207 20.22 43.811 35.895 70.154 46.588 25.229 10.241 51.822 15.417 79.157 15.417 2.301 0 4.611-.037 6.921-.11 48.392-1.539 93.344-18.793 129.998-49.896 3.158-2.68 3.546-7.413.866-10.571s-7.413-3.547-10.571-.866c-34.042 28.886-75.804 44.91-120.77 46.341-27.66.876-54.562-3.902-79.96-14.213-24.473-9.934-46.405-24.501-65.186-43.293-18.779-18.795-33.331-40.734-43.25-65.213-10.295-25.406-15.061-52.313-14.164-79.973 1.51-46.612 20.852-91.807 54.463-127.259 33.434-35.266 77.352-57.172 123.663-61.683 4.123-.401 7.139-4.069 6.738-8.192-.402-4.121-4.063-7.117-8.193-6.736z"/></g></g></svg>