<svg id="Capa_1" enable-background="new 0 0 511.996 511.996" height="512" viewBox="0 0 511.996 511.996" width="512" xmlns="http://www.w3.org/2000/svg"><g><g><path d="m452.926 288.883c10.26 14.39 16.413 31.927 16.721 50.873.811 49.99-39.268 90.767-89.264 90.766-5.139 0-10.186.571-15.095-.253-1.637-.275-3.259-.594-4.864-.955-2.231-.503-4.471.376-5.857 2.094-.335.415-1.62.88-1.844 1.385-10.219 23.136-27.139 40.481-49.084 51.418-14.476 7.223-30.707 11.208-47.642 11.208-5.073 0-10.083.642-15.001-.053-11.5-1.625-22.501-5.096-32.641-10.155-21.946-10.937-39.865-29.282-50.084-52.418-1.148-2.598-3.931-4.103-6.701-3.479-7.888 1.777-16.181 2.522-24.689 2.088-46.67-2.378-84.088-40.645-85.504-87.354-.624-20.585 5.66-39.693 16.69-55.164 1.999-2.804 1.251-6.677-1.638-8.55-24.797-16.073-41.19-44.012-41.19-75.765 0-23.55 9.024-45.005 23.798-61.079 2.403-2.615 14.958-5.087 17.652-7.402 2.693-2.315-4.475-4.475-1.52-6.463l-7.39-21.821h149.094c-11.327 13.623-18.034 31.226-17.718 50.405.105 6.4-8.993 12.619-7.39 18.562.936 3.47 12.111 6.846 13.506 10.109 11.516 26.933 38.03 46.138 68.877 46.863 32.616.766 60.754-18.784 72.652-46.886 1.427-3.369 12.62-6.862 13.559-10.457 1.626-6.224-7.508-12.755-7.508-19.488 0-18.675-6.658-35.792-17.728-49.108h149.094l-8.39 21.821c24.081 16.201 39.93 43.733 39.93 74.944 0 31.753-15.394 58.692-40.19 74.765-2.892 1.872-4.64 6.746-2.641 9.549z" fill="#685e68"/><g fill="#554e56"><path d="m470.646 339.756c.81 49.99-40.27 91.77-90.26 91.77-5.15 0-10.19-.43-15.1-1.26 42.99-7.3 76.09-45.59 75.36-90.51-.31-18.94-6.46-36.48-16.72-50.87-2-2.81-1.25-6.68 1.64-8.55 24.8-16.08 41.19-44.01 41.19-75.77 0-31.21-15.85-58.74-39.93-74.94l7.39-21.82h30l-7.39 21.82c24.08 16.2 39.93 43.73 39.93 74.94 0 31.76-16.39 59.69-41.19 75.77-2.89 1.87-3.64 5.74-1.64 8.55 10.26 14.39 16.41 31.93 16.72 50.87z"/><path d="m472.836 143.366c-2.67 3.22-5.52 6.35-8.54 9.37-37.21 37.2-90.48 48.58-137.5 34.12 2.47-5.84 4.24-12.04 5.2-18.51 45.12 11.94 95.14.53 130.9-34.25 3.55 2.829 6.87 5.93 9.94 9.27z"/><path d="m185.356 187.076c-47.07 14.52-100.41 3.16-137.65-34.08-3.07-3.06-5.96-6.24-8.67-9.51 3.07-3.34 6.38-6.44 9.92-9.28 35.77 34.91 85.89 46.37 131.09 34.39.99 6.45 2.8 12.65 5.31 18.48z"/></g><path d="m250.156 123.01c2.856-4.197 8.987-4.193 11.857-.006l10.85 12.349c22.766 21.57 51.112 33.853 80.233 36.849 39.678 4.083 80.795-10.075 111.201-40.472 28.459-28.459 40.807-65.303 39.044-102.579-.16-3.556-3.736-3.838-5.805-.953-6.385 8.917-14.457 15.54-23.751 21.403-13.062 8.241-28.538 13.007-45.132 13.007-25.749 0-48.817-11.483-64.35-29.625-.106-.108-.213-.216-.319-.324-26.958-23.75-68.112-22.743-93.861 3.02-3.104 3.104-5.851 6.433-8.235 9.932-2.895 4.248-9.041 4.252-11.955.017-2.346-3.41-5.035-6.656-8.066-9.687-25.734-25.749-66.842-26.769-93.815-3.061-.103.105-.206.21-.309.314-15.534 18.165-38.627 29.69-64.406 29.69-28.387 0-53.523-13.974-68.882-35.425-2.069-2.885-6.63-1.588-6.805 1.967-1.763 37.264 11.585 75.107 40.059 103.567 52.707 52.707 137.648 53.582 191.434 2.623z" fill="#7a6d79"/><path d="m464.296 132.736c-30.63 30.62-72.12 43.74-112.07 39.36 29.98-3.26 59.08-16.39 82.07-39.36 23.26-23.26 36.42-52.79 39.49-83.15 9.29-5.85 17.36-13.48 23.75-22.39 2.07-2.88 6.65-1.6 6.81 1.96 1.76 37.269-11.59 75.12-40.05 103.58z" fill="#685e68"/><path d="m350.386 431.526c1.4 0 2.79-.03 4.18-.1-.34.41-.62.87-.84 1.37-10.22 23.13-28.14 41.48-50.09 52.42-14.47 7.22-30.71 11.2-47.64 11.2-5.07 0-10.08-.36-15-1.06 11.5-1.61 22.5-5.08 32.64-10.14 21.95-10.94 39.87-29.29 50.09-52.42 1.14-2.6 3.93-4.11 6.7-3.48 6.42 1.44 13.1 2.21 19.96 2.21z" fill="#554e56"/></g><g><path d="m441.672 396.526c-15.793 17.474-38.132 27.495-61.287 27.495-6.185 0-12.346-.682-18.311-2.025-6.214-1.399-12.606 1.869-15.21 7.766-9.323 21.107-25.861 38.415-46.572 48.737-13.661 6.816-28.978 10.419-44.293 10.419s-30.632-3.603-44.296-10.421c-20.708-10.32-37.246-27.628-46.568-48.734-2.605-5.898-9.003-9.166-15.212-7.767-7.37 1.661-14.996 2.309-22.658 1.914-42.662-2.174-77.095-37.354-78.39-80.092-.554-18.276 4.737-35.768 15.302-50.584 2.132-2.991 2.961-6.771 2.275-10.371-.688-3.605-2.853-6.822-5.942-8.825-23.65-15.33-37.77-41.301-37.77-69.472 0-23.036 9.426-44.667 26.06-60.29 9.452 8.387 19.884 15.491 31.143 21.129 1.078.54 2.224.796 3.353.796 2.749 0 5.397-1.518 6.712-4.143 1.854-3.704.357-8.21-3.348-10.064-12.412-6.216-23.732-14.394-33.646-24.308-23.345-23.333-36.867-54.785-37.944-87.557 17.363 19.11 42.185 30.255 68.27 30.255 26.885 0 52.343-11.688 69.898-32.074 24.131-20.998 60.674-19.735 83.329 2.935 2.656 2.655 5.075 5.56 7.19 8.634 2.767 4.023 7.309 6.421 12.154 6.421h.033c4.852-.011 9.392-2.428 12.143-6.466 2.147-3.148 4.616-6.127 7.343-8.854 21.77-21.782 56.48-23.959 80.738-5.064 3.266 2.544 7.979 1.959 10.525-1.309 2.545-3.268 1.96-7.979-1.309-10.525-30.219-23.539-73.452-20.833-100.564 6.293-3.292 3.293-6.287 6.887-8.916 10.699-2.583-3.714-5.52-7.224-8.731-10.435-28.302-28.319-74.017-29.812-104.07-3.392-.139.121-.278.254-.407.385l-.279.284c-.129.13-.253.265-.372.404-14.708 17.2-36.105 27.064-58.706 27.064-24.836 0-48.307-12.071-62.788-32.297-2.837-3.954-7.683-5.623-12.354-4.246-4.645 1.369-7.799 5.379-8.037 10.23-1.825 38.562 11.945 76.358 37.92 104.689-19.376 18.42-30.341 43.796-30.341 70.806 0 32.769 16.171 63.015 43.339 81.221-11.894 17.233-17.835 37.421-17.196 58.486 1.529 50.488 42.212 92.049 92.618 94.617 8.575.436 17.112-.227 25.402-1.975 10.816 23.803 29.637 43.308 53.105 55.005 15.73 7.849 33.362 11.997 50.99 11.997s35.26-4.148 50.987-11.995c23.472-11.699 42.292-31.204 53.108-55.007 6.634 1.397 13.453 2.105 20.291 2.105 27.389 0 53.783-11.822 72.416-32.436 2.777-3.073 2.537-7.815-.535-10.594-3.07-2.774-7.813-2.537-10.592.536z"/><path d="m504.257 204.566c0-27.077-11.009-52.495-30.463-70.922 26.053-28.352 39.868-66.214 38.042-104.831-.218-4.837-3.358-8.854-8.002-10.231-4.606-1.368-9.589.338-12.392 4.25-14.473 20.211-37.943 32.277-62.785 32.277-13.518 0-26.813-3.54-38.448-10.236-3.589-2.066-8.175-.831-10.241 2.759s-.831 8.175 2.759 10.241c13.908 8.005 29.791 12.236 45.931 12.236 26.089 0 50.91-11.143 68.27-30.238-2.258 68.472-59.567 124.68-128.039 125.546-33.844.418-66.026-12.098-90.617-35.275-5.767-6.564-12.488-17.779-22.188-17.779-9.764 0-16.566 11.429-22.349 18.048-31.52 29.704-75.577 41.676-117.935 32.023-4.038-.924-8.058 1.608-8.979 5.646-.92 4.038 1.607 8.059 5.646 8.979 10.763 2.453 21.621 3.653 32.396 3.653 9.927 0 19.777-1.028 29.407-3.028 9.441 36.794 43.669 63.58 81.703 63.58 38.875 0 72.574-26.667 81.855-63.821 10.268 2.111 20.767 3.105 31.249 2.973 34.97-.443 68.012-13.255 93.998-36.253 16.712 15.631 26.183 37.303 26.183 60.405 0 28.171-14.119 54.142-37.77 69.472-3.09 2.003-5.256 5.22-5.942 8.826-.686 3.6.145 7.381 2.277 10.371 9.755 13.683 15.055 29.811 15.327 46.642.174 10.681-1.717 21.142-5.62 31.092-1.512 3.855.388 8.208 4.244 9.721.899.353 1.825.52 2.736.52 2.995 0 5.824-1.807 6.984-4.764 4.62-11.78 6.859-24.166 6.653-36.811-.314-19.369-6.265-37.952-17.229-53.847 27.169-18.209 43.339-48.456 43.339-81.224zm-248.288 21.696c-31.286 0-59.467-22.115-67.194-52.381 20.434-6.515 39.454-17.593 55.529-32.823 4.217-4 8.222-8.862 11.785-13.459 3.517 4.506 7.465 9.264 11.618 13.197 16.063 15.218 35.039 26.347 55.606 32.871-7.581 30.612-35.326 52.595-67.344 52.595z"/><path d="m146.654 330.503c-.129-4.06-3.459-7.263-7.491-7.263-.081 0-.162.001-.242.004-4.141.131-7.391 3.594-7.259 7.733.558 17.596 9.784 33.684 24.682 43.035 8.563 5.374 18.265 8.096 28.016 8.096 7.564 0 15.157-1.638 22.271-4.944 3.756-1.746 5.385-6.206 3.639-9.963-1.746-3.755-6.205-5.385-9.963-3.639-11.653 5.417-25.107 4.574-35.987-2.255-10.663-6.691-17.266-18.207-17.666-30.804z"/><path d="m114.18 207.302c-4.119-.465-7.828 2.5-8.291 6.615-1.968 17.494 4.859 34.737 18.263 46.125 9.687 8.229 21.756 12.567 34.084 12.567 5.083 0 10.211-.738 15.231-2.244 3.968-1.189 6.22-5.371 5.029-9.338-1.19-3.969-5.375-6.219-9.338-5.029-12.313 3.692-25.506.931-35.294-7.388-9.593-8.149-14.479-20.492-13.069-33.018.464-4.115-2.498-7.827-6.615-8.29z"/><path d="m333.849 383.69c-10.372 7.134-23.563 8.627-35.285 4.001-3.846-1.52-8.208.367-9.729 4.222-1.521 3.853.368 8.209 4.222 9.729 6.282 2.48 12.866 3.702 19.414 3.702 10.521-.001 20.947-3.151 29.879-9.295 14.79-10.174 23.326-26.963 22.835-44.912-.113-4.141-3.576-7.366-7.702-7.292-4.141.113-7.405 3.561-7.292 7.702.351 12.847-5.758 24.864-16.342 32.143z"/><path d="m300.18 288.028c-3.365-2.413-8.05-1.643-10.465 1.725-7.489 10.444-19.645 16.324-32.452 15.716-12.575-.591-23.984-7.376-30.521-18.151-2.147-3.542-6.76-4.67-10.302-2.522-3.541 2.147-4.671 6.76-2.523 10.302 9.13 15.052 25.07 24.53 42.641 25.356.841.039 1.679.059 2.515.059 16.991 0 32.859-8.109 42.832-22.018 2.414-3.369 1.642-8.054-1.725-10.467z"/><path d="m353.01 275.142c-4.118-.258-7.703 2.861-7.975 6.994-.271 4.134 2.861 7.704 6.994 7.975 1.162.075 2.321.113 3.477.113 16.3 0 31.708-7.51 41.746-20.51 10.973-14.206 13.967-32.802 8.011-49.742-1.373-3.907-5.658-5.967-9.563-4.588-3.908 1.374-5.962 5.655-4.588 9.563 4.263 12.125 2.12 25.434-5.733 35.6-7.693 9.962-19.806 15.419-32.369 14.595z"/></g></g></svg>