<svg id="Capa_1" enable-background="new 0 0 512 512" height="512" viewBox="0 0 512 512" width="512" xmlns="http://www.w3.org/2000/svg"><g><g><g><path d="m210.053 503.5c-1.834 0-3.671-.039-5.516-.119-3.194-.137-6.367.608-9.513.236-28.954-3.421-55.69-16.685-76.099-37.933-22.695-23.631-35.195-54.696-35.195-87.471 0-.003 0-.006 0-.009l.051-201.643c0-.256.003-.512.008-.768 1.02-45.18 19.385-87.491 51.712-119.138 28.884-28.275 66.051-45.219 105.907-48.548 4.824-.403 9.688.394 14.581.394 46 0 89.257 17.915 121.804 50.444 32.542 32.559 49.456 74.816 49.456 120.815v34.451c0 30.246-7.96 60.011-23.019 86.077-14.589 25.253-34.511 45.551-59.504 60.593-5.188 3.123-9.412 9.945-9.412 16.196 0 34.692-13.365 67.352-38.414 91.348-23.731 22.737-54.389 35.075-86.847 35.075z" fill="#fed2a4"/><path d="m428.25 179.76v34.45c0 30.25-7.96 60.01-23.02 86.08-14.59 25.25-35.51 46.55-60.5 61.59-5.19 3.12-8.41 8.95-8.41 15.2 0 34.69-14.37 68.35-39.42 92.34-23.73 22.74-54.39 35.08-86.85 35.08-1.83 0-3.67-.04-5.51-.12-3.19-.14-6.37-.39-9.51-.77 26.84-3.2 51.83-14.98 71.87-34.19 25.05-23.99 39.42-57.65 39.42-92.34 0-6.25 3.22-12.08 8.41-15.2 24.99-15.04 45.91-36.34 60.5-61.59 15.06-26.07 23.02-55.83 23.02-86.08v-34.45c0-46-17.91-89.26-50.46-121.82-28.98-28.97-66.46-46.34-106.8-49.8 4.96-.42 9.97-.64 15-.64 46 0 89.26 17.91 121.8 50.44 32.55 32.56 50.46 75.82 50.46 121.82z" fill="#ffbd86"/><path d="m358.34 179.76v34.45c0 18.16-4.76 36.01-13.78 51.61-8.76 15.18-20.34 26.98-35.37 36.02-25.77 15.51-42.78 44.96-42.78 75.24 0 16.23-5.46 30.36-17.18 41.59-11.38 10.9-26.21 16.54-41.74 15.87-4.307-.185-8.483.163-12.48-.907-24.551-6.572-42.361-28.9-42.37-55.413l.008-45.222c.001-5.522 4.478-9.998 10-9.998h12.342c8.56 0 16.31-3.47 21.92-9.08 5.768-5.768 9.274-13.798 9.072-22.645-.387-16.94-14.671-30.275-31.615-30.275h-11.695c-5.524 0-10.001-4.479-10-10.002l.018-74.008c.327-12.592 2.905-24.812 7.529-36.185 1.138-2.799 12.4-5.546 13.782-8.236 1.181-2.297-7.55-4.552-6.194-6.76 4.41-7.183 9.733-13.87 15.903-19.909 15.929-15.601 36.063-25.45 57.791-28.486 4.762-.666 9.601-.004 14.489-.004 27.6 0 53.56 10.75 73.08 30.26 19.52 19.53 29.27 44.49 29.27 72.09z" fill="#ffbd86"/><path d="m359.34 179.76v34.45c0 18.16-4.76 36.01-13.78 51.61-8.76 15.18-21.34 27.98-36.37 37.02-25.77 15.51-41.78 43.96-41.78 74.24 0 16.23-6.46 31.36-18.18 42.59-11.38 10.9-26.21 16.54-41.74 15.87-4.36-.19-8.59-.85-12.63-1.95 9-2.47 17.35-7.19 24.37-13.92 11.72-11.23 18.18-26.36 18.18-42.59 0-30.28 16.01-58.73 41.78-74.24 15.03-9.04 27.61-21.84 36.37-37.02 9.02-15.6 13.78-33.45 13.78-51.61v-34.45c0-27.6-10.75-53.56-30.27-73.09-15.94-15.93-36.17-26.02-58.08-29.18 4.92-.72 9.93-1.08 15-1.08 27.6 0 53.56 10.75 73.08 30.26 19.52 19.53 30.27 45.49 30.27 73.09z" fill="#f6a96c"/></g></g><g><path d="m428.404 216.798c-4.158-.251-7.684 2.914-7.926 7.049-1.494 25.53-9.009 50.666-21.732 72.688-13.956 24.157-33.97 44.53-57.878 58.92-7.429 4.472-12.043 12.757-12.043 21.621 0 32.658-13.523 64.344-37.103 86.933-22.205 21.275-51.205 32.991-81.658 32.991-1.717 0-3.465-.038-5.194-.112-30.643-1.314-59.24-14.24-80.524-36.399-21.348-22.227-33.105-51.447-33.105-82.283l.016-61.601c.001-4.142-3.356-7.501-7.498-7.502-.001 0-.001 0-.002 0-4.142 0-7.499 3.357-7.5 7.498l-.016 61.611c0 34.722 13.242 67.631 37.286 92.667 23.972 24.957 56.183 39.516 90.7 40.995 1.942.083 3.906.125 5.837.125 34.339 0 67.024-13.197 92.036-37.159 26.518-25.403 41.726-61.037 41.726-97.764 0-3.635 1.831-6.996 4.778-8.77 26.078-15.695 47.908-37.918 63.131-64.267 13.887-24.037 22.089-51.463 23.719-79.316.241-4.134-2.915-7.683-7.05-7.925z"/><path d="m383.105 52.64c-33.961-33.946-79.102-52.64-127.105-52.64-47.292 0-91.945 18.217-125.734 51.295-33.736 33.025-52.901 77.179-53.965 124.355-.006.304-.01.607-.01.909l-.027 107.356c-.001 4.142 3.356 7.501 7.498 7.502h.002c4.142 0 7.499-3.357 7.5-7.498l.027-107.358c0-.209.004-.417.007-.599.976-43.211 18.54-83.679 49.46-113.948 30.969-30.317 71.896-47.014 115.242-47.014 43.998 0 85.372 17.135 116.499 48.246 31.121 31.138 48.261 72.517 48.261 116.514v11.84c0 4.142 3.357 7.5 7.5 7.5s7.5-3.358 7.5-7.5v-11.84c0-48.003-18.699-93.147-52.655-127.12z"/><path d="m175 315.5h-12.342c-9.648 0-17.498 7.849-17.5 17.497l-.008 45.226c.011 34.85 27.257 63.318 62.026 64.811.94.04 1.878.061 2.813.061 16.563-.001 32.251-6.335 44.438-18.009 13.214-12.661 20.491-29.71 20.491-48.005 0-27.668 14.617-53.652 38.146-67.813 16.124-9.698 29.61-23.425 38.998-39.693 9.674-16.731 14.787-35.876 14.787-55.364v-34.45c0-29.605-11.53-57.445-32.469-78.395-20.938-20.929-48.775-32.456-78.38-32.456-29.168 0-56.701 11.234-77.526 31.63-20.704 20.265-32.52 47.346-33.271 76.255-.002.064-.003.129-.003.193l-.001 4.892c-.001 4.142 3.356 7.501 7.498 7.501h.002c4.142 0 7.499-3.357 7.5-7.499l.001-4.792c.342-12.693 3.164-24.973 8.197-36.284h50.911c37.05 0 67.192 30.143 67.192 67.192 0 4.142 3.357 7.5 7.5 7.5s7.5-3.358 7.5-7.5c0-45.321-36.871-82.192-82.192-82.192h-42.539c3.544-5.186 7.615-10.063 12.199-14.549 18.006-17.634 41.812-27.347 67.032-27.347 25.601 0 49.672 9.967 67.775 28.062 18.105 18.114 28.075 42.188 28.075 67.788v34.45c0 16.855-4.417 33.403-12.776 47.861-8.123 14.076-19.79 25.951-33.741 34.343-28.012 16.859-45.413 47.768-45.413 80.666 0 14.167-5.636 27.369-15.867 37.173-9.895 9.477-22.778 14.368-36.231 13.794-26.723-1.147-47.662-23.034-47.671-49.825l.007-45.222c0-1.378 1.122-2.5 2.5-2.5h12.342c10.284 0 19.952-4.005 27.223-11.276 7.508-7.507 11.509-17.493 11.268-28.12-.475-20.735-18.021-37.603-39.113-37.603h-11.694c-.901 0-1.495-.459-1.769-.732-.273-.273-.731-.867-.731-1.768l.009-36.429c.001-4.142-3.356-7.501-7.498-7.502-.001 0-.001 0-.002 0-4.142 0-7.499 3.357-7.5 7.498l-.009 36.429c-.002 4.675 1.818 9.071 5.124 12.378 3.305 3.306 7.7 5.127 12.376 5.127h11.694c13.009 0 23.827 10.294 24.117 22.945.148 6.491-2.295 12.589-6.878 17.171-4.439 4.438-10.34 6.882-16.617 6.882z"/></g></g></svg>