<svg id="Capa_1" enable-background="new 0 0 511.987 511.987" height="512" viewBox="0 0 511.987 511.987" width="512" xmlns="http://www.w3.org/2000/svg"><g><g><path d="m159.468 452.988c-12.621 2.364-24.876 6.074-36.57 11.042-1.267.535-2.524 1.097-3.782 1.659-18.74 8.482-35.927 20.247-50.635 34.955l-1.106 1.106c-2.462 2.462-4.665 2.471-7.135 0l-50.002-50.002c-2.471-2.471-2.462-4.674 0-7.136l1.606-1.605c15.609-15.609 27.044-34.893 35.624-54.979 4.87-11.399 8.527-23.333 10.899-35.642 31.601-163.912 129.188-261.839 292.752-293.77 12.746-2.489 25.135-6.315 36.935-11.39 5.387-2.319 11.604-3.933 16.813-6.681 14.565-7.644 27.356-17.919 39.049-29.612l.696-.696c2.462-2.462 4.665-2.471 7.135 0l50.002 50.002c2.471 2.471 2.462 4.674 0 7.136l-1.195 1.195c-13.29 13.29-24.511 28.293-32.681 45.097-1.525 3.131-2.988 6.306-4.362 9.499-5.013 11.524-8.786 23.61-11.274 36.052-16.755 83.633-50.207 149.784-100.126 198.685-48.827 47.832-112.519 80.05-192.643 95.085z" fill="#f47c7c"/><path d="m160.36 453.88c-12.626 2.368-24.895 6.076-36.594 11.045-20.202 8.58-39.593 20.028-55.285 35.72l-1.106 1.106c-2.462 2.462-4.665 2.471-7.135 0l-26.758-26.758c2.471 2.471 5.566 3.354 8.028.892l1.106-1.106c24.778-24.778 56.558-41.199 90.987-47.657 162.039-30.406 259.626-128.332 292.771-293.77 2.488-12.443 6.261-24.528 11.274-36.052 8.768-20.274 21.273-38.826 37.043-54.596l1.195-1.195c2.462-2.462 1.579-5.557-.892-8.028l26.758 26.758c2.471 2.471 2.462 4.674 0 7.136l-1.195 1.195c-7.558 7.558-14.365 15.754-20.371 24.473-6.526 9.474-11.214 20.457-15.779 31.015-5.013 11.524-8.786 23.61-11.274 36.052-33.147 165.437-130.734 263.363-292.773 293.77z" fill="#ee6161"/><path d="m123.79 464.922c-1.267.535-3.416.205-4.674.767-18.74 8.482-35.927 20.247-50.635 34.955l-1.106 1.106c-2.462 2.462-4.665 2.471-7.135 0l-27.231-25.447-23.664-23.663c-2.471-2.471-2.462-6.458 0-8.919l1.606-1.605c15.609-15.609 27.936-34.001 36.516-54.088 19.346.616 38.487 8.322 53.24 23.075 6.105 6.105 11 13.038 14.687 20.438 2.405 4.828-4.624 18.775-3.247 23.902 1.623 6.048 11.45 3.317 11.643 9.479z" fill="#f6f6f6"/><path d="m464.405 124.058c-6.524-.22-4.108-10.163-10.427-11.99-4.844-1.4-18.499 5.647-23.055 3.304-7.109-3.657-13.778-8.463-19.731-14.415-14.521-14.521-22.299-34.625-23.137-53.73 20.416-8.785 39.094-21.308 54.97-37.185l.696-.696c2.462-2.462 6.449-2.471 8.919 0l23.727 23.727 25.384 27.167c2.471 2.471 2.462 4.674 0 7.136l-1.195 1.195c-13.263 13.263-24.478 28.234-32.641 45.004-1.543 3.167-2.117 7.26-3.51 10.483z" fill="#f6f6f6"/><path d="m464.405 124.058c-11.515-.384-22.976-3.282-33.466-8.67 1.909-6.155 4.148-12.193 6.707-18.089 8.768-20.274 21.273-38.826 37.043-54.596l1.195-1.195c2.462-2.462 2.471-6.449 0-8.919l26.758 26.758c2.471 2.471 2.462 6.458 0 8.919l-1.195 1.195c-15.77 15.77-28.274 34.323-37.042 54.597z" fill="#e1e1e1"/><path d="m123.79 464.922c-1.267.535-3.416.205-4.674.767-18.74 8.482-35.927 20.247-50.635 34.955l-1.106 1.106c-2.462 2.462-4.665 2.471-7.135 0l-27.231-25.447-23.664-23.663c-2.471-2.471-2.462-6.458 0-8.919l1.606-1.605c15.609-15.609 27.936-34.001 36.516-54.088 19.346.616 38.487 8.322 53.24 23.075 6.105 6.105 11 13.038 14.687 20.438 2.405 4.828 4.185 9.966 5.561 15.093 1.624 6.048 2.642 12.126 2.835 18.288z" fill="#f6f6f6"/><path d="m123.79 464.922c-20.802 8.739-39.642 21.736-55.523 37.72-2.462 2.462-6.449 2.471-8.919 0l-26.758-26.758c2.471 2.471 6.458 2.462 8.919 0l1.106-1.106c20.336-20.336 45.4-35.053 72.773-43.232 5.245 10.524 8.045 21.995 8.402 33.376z" fill="#e1e1e1"/></g><path d="m507.95 54.047-50.01-50.007c-5.303-5.307-14.221-5.308-19.527-.002-24.086 24.23-55.212 40.673-88.731 47.217-28.385 5.541-55.199 13.163-79.696 22.655-3.863 1.496-5.78 5.841-4.284 9.703 1.152 2.972 3.989 4.792 6.996 4.792.901 0 1.817-.163 2.708-.509 23.674-9.173 49.632-16.548 77.152-21.919 9.903-1.934 19.646-4.658 29.078-8.125 1.402 8.752 4.057 17.242 7.847 25.109-31.626 22.438-87.357 59.809-139.625 84.013-37.59 17.407-65.475 45.293-82.882 82.882-24.176 52.208-61.488 107.87-83.913 139.486-7.839-3.862-16.251-6.496-24.973-7.831 3.26-8.998 5.824-18.279 7.641-27.705 11.665-60.501 32.762-112.463 62.708-154.439 29.844-41.836 69.391-75.014 117.541-98.612 3.719-1.822 5.257-6.315 3.434-10.035-1.824-3.719-6.316-5.257-10.036-3.434-50.41 24.706-91.844 59.484-123.15 103.369-31.206 43.744-53.15 97.681-65.225 160.311-6.426 33.336-22.955 63.543-46.964 87.447-5.383 5.384-5.383 14.144 0 19.527l50.01 50.009c5.304 5.305 14.22 5.308 19.526.002 24.021-24.086 54.704-40.423 88.169-46.7 10.72-2.012 21.316-4.35 31.493-6.95 4.013-1.025 6.436-5.11 5.41-9.123-1.025-4.014-5.109-6.433-9.123-5.41-9.866 2.521-20.143 4.789-30.546 6.741-9.753 1.83-19.35 4.444-28.645 7.792-1.269-8.517-3.753-16.717-7.366-24.376 31.545-22.394 87.457-59.919 139.882-84.197 34.97-16.193 61.582-41.484 79.097-75.171 1.911-3.676.48-8.203-3.194-10.114-3.676-1.911-8.204-.48-10.114 3.194-15.948 30.674-40.203 53.713-72.091 68.479-28.688 13.284-76.175 38.696-141.179 84.804-2.788-3.936-5.899-7.665-9.355-11.121-3.163-3.163-6.546-6.039-10.097-8.644 46.025-64.907 71.4-112.333 84.674-140.997 15.872-34.274 41.298-59.701 75.573-75.573 28.667-13.275 76.093-38.651 141-84.676 2.64 3.69 5.545 7.166 8.73 10.351 3.409 3.409 7.076 6.481 10.936 9.242-21.818 30.789-50.887 74.544-73.785 118.802-1.903 3.679-.464 8.204 3.215 10.107 1.102.57 2.279.841 3.44.841 2.714 0 5.334-1.479 6.668-4.056 22.762-43.994 51.813-87.605 73.421-118.036 7.541 3.604 15.594 6.094 23.938 7.389-3.361 9.09-6.027 18.498-7.945 28.086-14.006 69.909-40.068 128.217-77.463 173.304-37.296 44.969-87.038 78.173-147.844 98.689-3.925 1.324-6.033 5.579-4.708 9.504 1.056 3.13 3.976 5.104 7.105 5.104.795 0 1.604-.127 2.399-.396 63.481-21.42 115.494-56.184 154.593-103.326 39-47.022 66.125-107.56 80.626-179.936 6.683-33.416 23.336-64.002 47.465-88.006 5.379-5.381 5.379-14.141-.004-19.525zm-391.997 406.145c-19.428 8.925-36.862 21.028-51.875 36.041l-.266.267-48.324-48.323.764-.764c14.951-14.952 27.023-32.276 35.928-51.54 16.316 1.65 31.515 8.823 43.224 20.532 11.732 11.733 18.912 27.134 20.549 43.787zm380.199-396.034c-15.121 15.122-27.357 32.613-36.438 52.048-16.325-1.675-31.522-8.856-43.22-20.552-11.37-11.37-18.695-27.103-20.542-43.762 19.531-9.073 37.08-21.296 52.223-36.404l48.324 48.323z"/></g></svg>