<svg id="Capa_1" enable-background="new 0 0 512 512" height="512" viewBox="0 0 512 512" width="512" xmlns="http://www.w3.org/2000/svg"><g><g><g><path d="m196.059 66.219h109.894v399.125h-109.894z" fill="#7a6d79"/><path d="m285.956 66.22h30v399.12h-30z" fill="#685e68"/><g><path d="m366.768 80.352h-88.784c-12.138 0-21.978-9.84-21.978-21.978v-3.145c0-12.138 9.84-21.978 21.978-21.978h88.784c12.138 0 21.978 9.84 21.978 21.978v3.145c0 12.138-9.84 21.978-21.978 21.978z" fill="#cdcdcd"/><path d="m232.456 80.352-73.133-10-8.788 10h-3.717c-13.007 0-23.55-10.544-23.55-23.55 0-13.007 10.544-23.551 23.55-23.551h3.717l13.76 10 68.161-10c13.007 0 23.551 10.544 23.551 23.551-.001 13.006-10.545 23.55-23.551 23.55z" fill="#cdcdcd"/><path d="m309.358 105.133-27.933 1h-78.771c-18.225 0-33-14.775-33-33v-32.663c0-18.225 14.775-33 33-33h77.786l28.919 1c18.225 0 32 13.775 32 32v32.663c-.001 18.225-13.775 32-32.001 32z" fill="#f8f7f7"/><path d="m342.356 40.47v32.66c0 18.23-14.77 33-33 33h-30c18.23 0 33-14.77 33-33v-32.66c0-18.23-14.77-33-33-33h30c18.23 0 33 14.77 33 33z" fill="#e1e1e1"/><g fill="#7a6d79"><path d="m169.656 73.13c0 2.48.27 4.9.79 7.22h-20c-.52-2.32-.79-4.74-.79-7.22v-32.66c0-2.48.27-4.9.79-7.22h20c-.52 2.32-.79 4.74-.79 7.22z"/><path d="m388.746 56.8c0 6.51-2.64 12.39-6.9 16.65s-10.14 6.9-16.65 6.9h-20c6.51 0 12.39-2.64 16.65-6.9s6.9-10.14 6.9-16.65c0-13.01-10.54-23.55-23.55-23.55h20c13.01 0 23.55 10.54 23.55 23.55z"/></g></g><path d="m366.768 213.151h-88.784c-12.138 0-21.978-9.84-21.978-21.978v-3.145c0-12.138 9.84-21.978 21.978-21.978h88.784c12.138 0 21.978 9.84 21.978 21.978v3.145c0 12.138-9.84 21.978-21.978 21.978z" fill="#cdcdcd"/><path d="m232.456 213.151-73.133-10-8.788 10h-3.717c-13.007 0-23.55-10.544-23.55-23.551 0-13.007 10.544-23.551 23.55-23.551h3.717l13.76 10 68.161-10c13.007 0 23.551 10.544 23.551 23.551-.001 13.007-10.545 23.551-23.551 23.551z" fill="#cdcdcd"/><path d="m309.358 237.932-27.933 1h-78.771c-18.225 0-33-14.775-33-33v-32.663c0-18.225 14.775-33 33-33h77.786l28.919 1c18.225 0 32 13.775 32 32v32.663c-.001 18.225-13.775 32-32.001 32z" fill="#f8f7f7"/><path d="m342.356 173.269v32.66c0 18.23-14.77 33-33 33h-30c18.23 0 33-14.77 33-33v-32.66c0-18.23-14.77-33-33-33h30c18.23 0 33 14.77 33 33z" fill="#e1e1e1"/><path d="m169.656 205.929c0 2.48.27 4.9.79 7.22h-20c-.52-2.32-.79-4.74-.79-7.22v-32.66c0-2.48.27-4.9.79-7.22h20c-.52 2.32-.79 4.74-.79 7.22z" fill="#7a6d79"/><path d="m388.746 189.599c0 6.51-2.64 12.39-6.9 16.65s-10.14 6.9-16.65 6.9h-20c6.51 0 12.39-2.64 16.65-6.9s6.9-10.14 6.9-16.65c0-13.01-10.54-23.55-23.55-23.55h20c13.01 0 23.55 10.54 23.55 23.55z" fill="#7a6d79"/><path d="m366.768 345.95h-88.784c-12.138 0-21.978-9.84-21.978-21.978v-3.145c0-12.138 9.84-21.978 21.978-21.978h88.784c12.138 0 21.978 9.84 21.978 21.978v3.145c0 12.138-9.84 21.978-21.978 21.978z" fill="#cdcdcd"/><path d="m232.456 345.95-73.133-10-8.788 10h-3.717c-13.007 0-23.55-10.544-23.55-23.551 0-13.007 10.544-23.551 23.55-23.551h3.717l13.76 10 68.161-10c13.007 0 23.551 10.544 23.551 23.551-.001 13.007-10.545 23.551-23.551 23.551z" fill="#cdcdcd"/><path d="m309.358 370.731-27.933 1h-78.771c-18.225 0-33-14.775-33-33v-32.663c0-18.225 14.775-33 33-33h77.786l28.919 1c18.225 0 32 13.775 32 32v32.663c-.001 18.225-13.775 32-32.001 32z" fill="#f8f7f7"/><path d="m342.356 306.068v32.66c0 18.23-14.77 33-33 33h-30c18.23 0 33-14.77 33-33v-32.66c0-18.23-14.77-33-33-33h30c18.23 0 33 14.77 33 33z" fill="#e1e1e1"/><path d="m169.656 338.728c0 2.48.27 4.9.79 7.22h-20c-.52-2.32-.79-4.74-.79-7.22v-32.66c0-2.48.27-4.9.79-7.22h20c-.52 2.32-.79 4.74-.79 7.22z" fill="#7a6d79"/><path d="m388.746 322.398c0 6.51-2.64 12.39-6.9 16.65s-10.14 6.9-16.65 6.9h-20c6.51 0 12.39-2.64 16.65-6.9s6.9-10.14 6.9-16.65c0-13.01-10.54-23.55-23.55-23.55h20c13.01 0 23.55 10.54 23.55 23.55z" fill="#7a6d79"/><path d="m366.768 478.749h-88.784c-12.138 0-21.978-9.84-21.978-21.978v-3.145c0-12.138 9.84-21.978 21.978-21.978h88.784c12.138 0 21.978 9.84 21.978 21.978v3.145c0 12.138-9.84 21.978-21.978 21.978z" fill="#cdcdcd"/><path d="m232.456 478.749-73.133-10-8.788 10h-3.717c-13.007 0-23.55-10.544-23.55-23.551 0-13.007 10.544-23.551 23.55-23.551h3.717l13.76 10 68.161-10c13.007 0 23.551 10.544 23.551 23.551-.001 13.007-10.545 23.551-23.551 23.551z" fill="#cdcdcd"/><path d="m309.358 503.53-27.933 1h-78.771c-18.225 0-33-14.775-33-33v-32.663c0-18.225 14.775-33 33-33h77.786l28.919 1c18.225 0 32 13.775 32 32v32.663c-.001 18.225-13.775 32-32.001 32z" fill="#f8f7f7"/><path d="m342.356 438.867v32.66c0 18.23-14.77 33-33 33h-30c18.23 0 33-14.77 33-33v-32.66c0-18.23-14.77-33-33-33h30c18.23 0 33 14.77 33 33z" fill="#e1e1e1"/><g fill="#7a6d79"><path d="m169.656 471.527c0 2.48.27 4.9.79 7.22h-20c-.52-2.32-.79-4.74-.79-7.22v-32.66c0-2.48.27-4.9.79-7.22h20c-.52 2.32-.79 4.74-.79 7.22z"/><path d="m388.746 455.197c0 6.51-2.64 12.39-6.9 16.65s-10.14 6.9-16.65 6.9h-20c6.51 0 12.39-2.64 16.65-6.9s6.9-10.14 6.9-16.65c0-13.01-10.54-23.55-23.55-23.55h20c13.01 0 23.55 10.54 23.55 23.55z"/></g></g></g><path d="m347.059 220.656h18.117c17.12 0 31.047-13.928 31.047-31.048s-13.928-31.048-31.047-31.048h-18.117c-4.196-10.713-12.822-19.219-23.62-23.242v-24.202c10.799-4.023 19.425-12.53 23.621-23.244h18.115c17.12 0 31.047-13.928 31.047-31.048s-13.928-31.047-31.047-31.047h-18.115c-5.902-15.07-20.577-25.777-37.715-25.777h-106.691c-17.138 0-31.813 10.707-37.715 25.778h-18.115c-17.12 0-31.047 13.928-31.047 31.047s13.928 31.048 31.047 31.048h18.115c4.196 10.714 12.822 19.221 23.621 23.244v24.202c-10.798 4.023-19.423 12.529-23.62 23.242h-18.117c-17.12 0-31.047 13.928-31.047 31.048s13.928 31.048 31.047 31.048h18.117c4.197 10.713 12.822 19.219 23.62 23.242v24.201c-10.799 4.022-19.425 12.529-23.621 23.244h-18.115c-17.12 0-31.047 13.928-31.047 31.048s13.928 31.048 31.047 31.048h18.115c4.196 10.714 12.822 19.221 23.621 23.243v24.201c-10.799 4.022-19.425 12.529-23.621 23.244h-18.115c-17.12 0-31.047 13.928-31.047 31.048s13.928 31.047 31.047 31.047h18.115c5.902 15.07 20.577 25.777 37.715 25.777h73.055c4.142 0 7.5-3.358 7.5-7.5s-3.358-7.5-7.5-7.5h-73.055c-14.058 0-25.496-11.438-25.496-25.496v-32.659c0-14.059 11.438-25.496 25.496-25.496h106.691c14.059 0 25.496 11.438 25.496 25.496v32.659c0 14.059-11.438 25.496-25.496 25.496h-.952c-4.142 0-7.5 3.358-7.5 7.5s3.358 7.5 7.5 7.5h.952c17.138 0 31.813-10.707 37.715-25.778h18.115c17.12 0 31.047-13.928 31.047-31.048s-13.928-31.047-31.047-31.047h-18.115c-4.196-10.714-12.822-19.221-23.621-23.244v-24.201c10.799-4.022 19.425-12.529 23.621-23.243h18.115c17.12 0 31.047-13.928 31.047-31.048s-13.928-31.048-31.047-31.048h-18.115c-4.196-10.714-12.822-19.221-23.621-23.244v-24.202c10.799-4.022 19.424-12.528 23.62-23.241zm-216.282 234.518c0-8.849 7.199-16.047 16.047-16.047h15.334v32.095h-15.334c-8.849 0-16.047-7.199-16.047-16.048zm250.446.001c0 8.849-7.199 16.047-16.047 16.047h-15.334v-32.095h15.334c8.849 0 16.047 7.199 16.047 16.048zm0-265.567c0 8.849-7.199 16.048-16.047 16.048h-15.334v-32.096h15.334c8.849.001 16.047 7.2 16.047 16.048zm0-132.783c0 8.849-7.199 16.048-16.047 16.048h-15.334v-32.095h15.334c8.849 0 16.047 7.199 16.047 16.047zm-250.446 0c0-8.849 7.199-16.047 16.047-16.047h15.334v32.095h-15.334c-8.849 0-16.047-7.199-16.047-16.048zm46.381 16.33v-32.659c0-14.059 11.438-25.496 25.496-25.496h106.691c14.059 0 25.496 11.438 25.496 25.496v32.659c0 14.059-11.438 25.496-25.496 25.496h-54.179c-4.142 0-7.5 3.358-7.5 7.5s3.358 7.5 7.5 7.5h53.273v19.132h-104.879v-19.132h18.921c4.142 0 7.5-3.358 7.5-7.5s-3.358-7.5-7.5-7.5h-19.827c-14.058 0-25.496-11.438-25.496-25.496zm-46.381 116.453c0-8.849 7.199-16.048 16.047-16.048h15.334v32.096h-15.334c-8.849 0-16.047-7.199-16.047-16.048zm46.381 16.326v-32.65c0-14.061 11.439-25.5 25.5-25.5h106.683c14.06 0 25.5 11.439 25.5 25.5v32.65c0 14.061-11.44 25.5-25.5 25.5h-106.683c-14.06 0-25.5-11.44-25.5-25.5zm-46.381 116.458c0-8.849 7.199-16.048 16.047-16.048h15.334v32.096h-15.334c-8.849-.001-16.047-7.2-16.047-16.048zm177.663 56.825v19.132h-104.88v-19.132zm72.783-56.825c0 8.849-7.199 16.048-16.047 16.048h-15.334v-32.096h15.334c8.849 0 16.047 7.199 16.047 16.048zm-46.381-16.33v32.659c0 14.059-11.438 25.496-25.496 25.496h-106.692c-14.058 0-25.496-11.438-25.496-25.496v-32.659c0-14.059 11.438-25.496 25.496-25.496h12.127c4.142 0 7.5-3.358 7.5-7.5s-3.358-7.5-7.5-7.5h-11.221v-19.132h104.88v19.132h-60.975c-4.142 0-7.5 3.358-7.5 7.5s3.358 7.5 7.5 7.5h61.88c14.059 0 25.497 11.437 25.497 25.496z"/></g></svg>