<svg id="Capa_1" enable-background="new 0 0 512 512" height="512" viewBox="0 0 512 512" width="512" xmlns="http://www.w3.org/2000/svg"><g><g><g><path d="m130.74 271.304v211.437l-10.558-10-18.47 10h-84.222c-5.523 0-10-4.477-10-10v-201.437c0-29.14 20.063-53.594 47.129-60.303 4.802-1.19 9.825-.822 14.996-.822 34.311 0 61.125 26.814 61.125 61.125z" fill="#fed2a4"/><path d="m131.74 271.307 10 211.43h-40v-211.43c0-29.14-20.06-53.6-47.13-60.3 4.8-1.2 9.83-1.83 15-1.83h.01c34.31.001 62.12 27.82 62.12 62.13z" fill="#ffbd86"/><path d="m69.619 312.826c-5.407 0-10.507-.318-14.994-2.65-10.439-5.424-17.569-16.336-17.569-28.914v-97.864c0-4.979 4.036-9.015 9.015-9.015h17.588l29.51 1c4.979 0 8.015 3.036 8.015 8.015v97.864c-.001 17.985-13.581 31.564-31.565 31.564z" fill="#f8f7f7"/><path d="m102.18 183.398v97.86c0 17.99-14.58 32.57-32.56 32.57-5.41 0-10.51-1.32-15-3.65 10.43-5.43 17.56-16.34 17.56-28.92v-97.86c0-4.98-4.03-9.01-9.01-9.01h30c4.98-.001 9.01 4.029 9.01 9.01z" fill="#e1e1e1"/><path d="m254.99 173.894v308.847l-14.76-10-14.365 10h-94.125v-308.847c0-29.115 20.028-53.552 47.058-60.285 4.824-1.202 9.871-.84 15.067-.84 34.311 0 61.125 26.814 61.125 61.125z" fill="#fed2a4"/><path d="m255.99 173.898 10 308.84h-39.711v-308.84c0-29.14-20.349-53.6-47.409-60.3 4.8-1.2 9.82-1.83 14.99-1.83h.01c34.31 0 62.12 27.819 62.12 62.13z" fill="#ffbd86"/><path d="m193.869 215.417c-5.41 0-10.511-.319-15-2.653-10.436-5.425-17.564-16.336-17.564-28.911v-97.864c0-4.979 4.036-9.015 9.015-9.015h17.619l29.478 1c4.979 0 8.015 3.036 8.015 8.015v97.864c.001 17.984-13.579 31.564-31.563 31.564z" fill="#f8f7f7"/><path d="m226.43 85.988v97.87c0 17.98-14.58 32.56-32.56 32.56-5.41 0-10.51-1.32-15-3.66 10.43-5.42 17.56-16.33 17.56-28.9v-97.87c0-4.98-4.03-9.01-9.01-9.01h30c4.98 0 9.01 4.029 9.01 9.01z" fill="#e1e1e1"/><path d="m379.24 126.184v356.557l-17.527-10-11.286 10h-94.437v-356.557c0-29.12 20.035-53.561 47.074-60.289 4.819-1.199 9.861-.836 15.051-.836 34.311 0 61.125 26.814 61.125 61.125z" fill="#fed2a4"/><path d="m380.24 126.188 10 356.55h-40v-356.55c0-29.14-20.06-53.6-47.13-60.3 4.8-1.2 9.83-1.83 15-1.83h.01c34.31 0 62.12 27.82 62.12 62.13z" fill="#ffbd86"/><path d="m318.119 167.706c-5.414 0-10.519-.321-15.011-2.658-10.43-5.428-17.553-16.335-17.553-28.905v-97.865c0-4.979 4.036-9.015 9.015-9.015h18.087l29.01 1c4.979 0 8.015 3.036 8.015 8.015v97.864c.001 17.984-13.579 31.564-31.563 31.564z" fill="#f8f7f7"/><path d="m350.68 38.278v97.86c0 17.99-14.58 32.57-32.56 32.57-5.41 0-10.51-1.32-15-3.65 10.43-5.43 17.56-16.34 17.56-28.92v-97.86c0-4.98-4.03-9.01-9.01-9.01h30c4.98 0 9.01 4.03 9.01 9.01z" fill="#e1e1e1"/><path d="m503.49 156.184v316.557c0 5.523-3.477 9-9 9l-28.56 1h-85.69v-326.557c0-29.14 20.063-53.594 47.129-60.303 4.802-1.19 9.825-.822 14.996-.822 34.311 0 61.125 26.814 61.125 61.125z" fill="#fed2a4"/><path d="m504.49 156.188v316.55c0 5.53-4.48 10-10 10h-30c5.52 0 10-4.47 10-10v-316.55c0-29.14-20.06-53.6-47.12-60.3 4.8-1.2 9.82-1.83 14.99-1.83h.01c34.31 0 62.12 27.82 62.12 62.13z" fill="#ffbd86"/><path d="m442.369 197.706c-5.374 0-10.445-.302-14.913-2.607-10.484-5.41-17.651-16.346-17.651-28.956v-97.865c0-4.979 4.036-9.015 9.015-9.015h17.92l29.177 1c4.979 0 8.015 3.036 8.015 8.015v97.864c.001 17.984-13.579 31.564-31.563 31.564z" fill="#f8f7f7"/><path d="m474.93 68.278v97.86c0 17.99-14.58 32.57-32.56 32.57-5.41 0-10.51-1.32-15-3.65 10.43-5.43 17.56-16.34 17.56-28.92v-97.86c0-4.98-4.03-9.01-9.01-9.01h30c4.98 0 9.01 4.03 9.01 9.01z" fill="#e1e1e1"/></g></g><g><path d="m482.442 99.237v-30.959c0-9.106-7.409-16.515-16.515-16.515h-47.097c-9.107 0-16.516 7.409-16.516 16.515v30.955c-6.003 4.23-11.235 9.346-15.566 15.107-3.089-18.184-13.232-34.34-28.556-45.103v-30.959c0-9.106-7.409-16.515-16.515-16.515h-47.097c-9.107 0-16.516 7.409-16.516 16.515v30.954c-18.589 13.053-29.565 34.039-29.565 56.955v4.561c-4.126-5.226-9.012-9.889-14.558-13.797v-30.962c0-9.106-7.409-16.515-16.515-16.515h-47.096c-9.107 0-16.516 7.409-16.516 16.515v30.953c-18.589 13.053-29.564 34.039-29.564 56.956v54.158c-4.11-5.171-8.992-9.79-14.558-13.699v-30.958c0-9.107-7.409-16.516-16.515-16.516h-47.097c-9.107 0-16.516 7.409-16.516 16.516v30.953c-18.589 13.053-29.564 34.039-29.564 56.955v201.43c0 9.649 7.851 17.5 17.5 17.5h23.051c4.142 0 7.5-3.358 7.5-7.5s-3.358-7.5-7.5-7.5h-23.051c-1.378 0-2.5-1.122-2.5-2.5v-201.43c0-14.071 5.279-27.213 14.565-37.174v47.129c0 22.091 17.973 40.064 40.064 40.064s40.064-17.973 40.064-40.064v-47.122c9.281 9.96 14.558 23.099 14.558 37.167v203.93h-51.012c-4.142 0-7.5 3.358-7.5 7.5s3.358 7.5 7.5 7.5h421.261c9.649 0 17.5-7.85 17.5-17.5v-316.55c0-22.913-10.973-43.897-29.558-56.95zm-387.75 182.026c0 13.82-11.244 25.064-25.064 25.064s-25.064-11.244-25.064-25.064v-97.864c0-.836.68-1.516 1.516-1.516h47.097c.836 0 1.515.68 1.515 1.516zm322.623-212.985c0-.835.68-1.515 1.516-1.515h47.097c.836 0 1.515.68 1.515 1.515v97.864c0 13.82-11.244 25.064-25.064 25.064s-25.064-11.244-25.064-25.064zm-124.25-30c0-.835.68-1.515 1.516-1.515h47.097c.836 0 1.515.68 1.515 1.515v97.864c0 13.82-11.244 25.064-25.064 25.064s-25.064-11.244-25.064-25.064zm-124.251 47.711c0-.836.68-1.515 1.516-1.515h47.097c.835 0 1.515.68 1.515 1.515v97.864c0 13.82-11.244 25.064-25.064 25.064s-25.064-11.244-25.064-25.064zm328.186 386.749c0 1.378-1.122 2.5-2.5 2.5h-106.75v-60.825c0-4.142-3.358-7.5-7.5-7.5s-7.5 3.358-7.5 7.5v60.825h-109.25v-48.858c0-4.142-3.358-7.5-7.5-7.5s-7.5 3.358-7.5 7.5v48.858h-109.25v-203.93c0-.899-.022-1.795-.056-2.688.034-.289.056-.581.056-.879v-93.843c0-14.072 5.279-27.214 14.564-37.174v47.13c0 22.091 17.973 40.064 40.064 40.064s40.064-17.972 40.064-40.064v-47.044c8.445 9.132 13.66 20.972 14.45 33.623.018.292.058.577.108.858v222.401c0 4.142 3.358 7.5 7.5 7.5s7.5-3.358 7.5-7.5v-267.505c0-14.071 5.279-27.213 14.565-37.174v47.129c0 22.091 17.973 40.064 40.064 40.064s40.064-17.973 40.064-40.064v-47.121c9.281 9.96 14.558 23.099 14.558 37.167v255.537c0 4.142 3.358 7.5 7.5 7.5s7.5-3.358 7.5-7.5v-228.275c.055-.292.098-.589.118-.893.824-12.59 6.037-24.373 14.446-33.466v47.052c0 22.091 17.973 40.064 40.064 40.064s40.064-17.973 40.064-40.064v-47.121c9.281 9.96 14.558 23.099 14.558 37.167v316.549z"/><path d="m461.564 269.996h-35.128c-4.142 0-7.5 3.358-7.5 7.5s3.358 7.5 7.5 7.5h35.128c4.142 0 7.5-3.358 7.5-7.5s-3.358-7.5-7.5-7.5z"/><path d="m211.442 269.996h-35.128c-4.142 0-7.5 3.358-7.5 7.5s3.358 7.5 7.5 7.5h35.128c4.142 0 7.5-3.358 7.5-7.5s-3.357-7.5-7.5-7.5z"/><path d="m94.692 377.496c0-4.142-3.358-7.5-7.5-7.5h-35.128c-4.142 0-7.5 3.358-7.5 7.5s3.358 7.5 7.5 7.5h35.128c4.143 0 7.5-3.358 7.5-7.5z"/><path d="m335.692 239.996h-35.128c-4.142 0-7.5 3.358-7.5 7.5s3.358 7.5 7.5 7.5h35.128c4.142 0 7.5-3.358 7.5-7.5s-3.357-7.5-7.5-7.5z"/></g></g></svg>