<svg id="Capa_1" enable-background="new 0 0 512.001 512.001" height="512" viewBox="0 0 512.001 512.001" width="512" xmlns="http://www.w3.org/2000/svg"><g><g><g><path d="m449.161 324.191c4.92 9.41 7.69 20.12 7.69 31.48 0 37.16-29.7 66.38-66.66 67.2.74 4.03 1.14 9.17 1.14 13.42 0 37.97-30.03 67.7-68.11 67.2-4.859-.063-9.588.358-14.141-.685-29.556-6.769-51.651-33.064-53.089-64.285-.276 5.989-2.312 11.768-4.015 17.246-8.542 27.475-32.865 47.332-63.215 47.724-38.08.5-68.11-29.23-68.11-67.2 0-4.25.4-9.39 1.14-13.42-36.96-.82-66.66-30.04-66.66-67.2 0-11.36 2.77-22.07 7.69-31.48 1.32-2.53.28-5.63-2.3-6.85-23.05-10.94-38.98-34.43-38.98-61.63 0-27.13 15.83-50.55 38.76-61.54 2.55-1.22 3.58-4.29 2.29-6.8-4.77-9.32-7.46-19.87-7.46-31.04 0-37.16 29.7-67.37 66.66-68.19-.73-3.95-1.12-8-1.14-12.16-.13-36.38 27.78-65.8 64.12-67.41 30.08-1.33 55.089 16.2 65.477 42.021 2.728 6.782 5.379 14.135 5.743 21.869 1.462-31.061 23.681-56.686 53.1-63.299 5.795-1.303 11.87-.868 18.12-.591 36.34 1.61 64.25 31.03 64.12 67.41-.02 4.16-.41 9.21-1.14 13.16 36.96.82 66.66 30.03 66.66 67.19 0 11.17-2.69 21.72-7.46 31.04-1.29 2.51.74 6.58 3.29 7.8 22.93 10.99 37.76 33.41 37.76 60.54 0 27.2-14.93 49.69-37.98 60.63-2.58 1.22-4.62 5.32-3.3 7.85z" fill="#ee6161"/><path d="m256.071 75.721v208.46l-10 7.32 10 7.68v136.09c0 37.49-29.82 68.74-67.31 69.22-38.08.5-69.11-30.23-69.11-68.2 0-.227.001-.453.003-.679.04-4.012 1.436-8.926 2.137-12.741-3.306-.073-7.554.618-10.728.09-32.308-5.372-56.932-33.454-56.932-67.29 0-11.36 2.77-22.07 7.69-31.48 1.32-2.53.28-5.63-2.3-6.85-23.05-10.94-38.98-34.43-38.98-61.63 0-27.13 15.83-50.55 38.76-61.54 2.55-1.22 3.58-4.29 2.29-6.8-4.77-9.32-7.46-19.87-7.46-31.04 0-33.849 24.643-61.932 56.97-67.287 3.162-.524 7.397.17 10.69.097-.705-3.813-2.093-8.72-2.137-12.729-.002-.143-.003-.287-.003-.431-.13-36.38 28.78-66.8 65.12-68.41 39.08-1.73 71.3 29.45 71.3 68.15z" fill="#f47c7c"/><path d="m450.161 324.191c4.92 9.41 7.69 20.12 7.69 31.48 0 33.849-24.644 61.94-56.97 67.297-3.162.524-6.397.83-9.69.903.7 3.815 1.096 7.728 1.137 11.74.002.226.003.453.003.68 0 37.97-31.03 68.7-69.11 68.2-4.82-.06-9.52-.63-14.04-1.66 30.42-6.85 53.15-34.04 53.15-66.54 0-4.25-.4-8.39-1.14-12.42 36.96-.82 66.66-31.04 66.66-68.2 0-11.36-2.77-22.07-7.69-31.48-1.32-2.53-.28-5.63 2.3-6.85 23.05-10.94 38.98-34.43 38.98-61.63 0-27.13-15.83-50.55-38.76-61.54-2.55-1.22-3.58-4.29-2.29-6.8 4.77-9.32 7.46-19.87 7.46-31.04 0-37.16-29.7-67.37-66.66-68.19.73-3.95 1.12-8 1.14-12.16.12-32.31-22.68-59.93-53.25-66.82 5.8-1.3 11.88-1.87 18.13-1.59 36.34 1.61 65.25 32.03 65.12 68.41-.001.143-.002.287-.003.43-.044 4.009-1.432 8.916-2.137 12.73 3.316.074 7.573-.616 10.755-.086 32.294 5.382 56.905 33.45 56.905 67.276 0 11.17-2.69 21.72-7.46 31.04-1.29 2.51-.26 5.58 2.29 6.8 22.93 10.99 38.76 34.41 38.76 61.54 0 27.2-15.93 50.69-38.98 61.63-2.58 1.22-3.62 4.32-2.3 6.85z" fill="#e94444"/></g></g><g><path d="m263.584 150.903c0 4.142-3.358 7.5-7.5 7.5s-7.5-3.358-7.5-7.5v-75.18c0-16.73-6.66-32.315-18.752-43.885-12.081-11.558-27.956-17.513-44.722-16.775-15.623.691-30.23 7.383-41.133 18.843-10.9 11.458-16.87 26.39-16.812 42.046.011 2.879.235 5.761.653 8.6l13.845 13.845c9.937 9.937 23.149 15.41 37.202 15.41h12.993c4.142 0 7.5 3.358 7.5 7.5s-3.358 7.5-7.5 7.5h-12.993c-18.059 0-35.038-7.033-47.808-19.803l-13.207-13.207c-12.087.876-23.45 5.265-33.029 12.807-3.255 2.562-7.971 2.001-10.532-1.253-2.563-3.255-2.002-7.97 1.253-10.532 10.789-8.494 23.387-13.792 36.826-15.547-.128-1.751-.196-3.508-.203-5.263-.073-19.543 7.366-38.167 20.944-52.441 13.589-14.285 31.821-22.628 51.338-23.491 20.899-.925 40.688 6.507 55.754 20.922 6.637 6.35 11.958 13.672 15.839 21.658 12.856-26.303 40.502-43.961 71.512-42.58 19.518.863 37.75 9.205 51.338 23.49 13.579 14.274 21.017 32.898 20.944 52.44-.006 1.756-.074 3.514-.203 5.267 16.718 2.191 32.15 9.869 44.116 22.086 13.939 14.232 21.616 33.043 21.616 52.968 0 11.113-2.477 22.193-7.18 32.204 24.848 12.959 40.767 39.052 40.767 67.176 0 28.239-16.006 54.373-40.991 67.284 4.851 10.133 7.404 21.377 7.404 32.682 0 4.729-.44 9.464-1.307 14.074-.678 3.602-3.826 6.115-7.362 6.115-.46 0-.926-.043-1.395-.131-4.071-.766-6.75-4.687-5.984-8.757.696-3.698 1.048-7.5 1.048-11.3 0-9.891-2.301-19.317-6.839-28.017-1.565-3.002-1.848-6.561-.773-9.764 1.074-3.205 3.446-5.875 6.506-7.327 21.076-10.001 34.694-31.535 34.694-54.858 0-23.225-13.542-44.725-34.499-54.774-3.073-1.474-5.364-4.06-6.451-7.283-1.086-3.223-.829-6.668.725-9.702 4.404-8.602 6.638-17.895 6.638-27.621 0-15.977-6.155-31.06-17.332-42.472-10.427-10.646-24.133-16.989-38.876-18.065l-13.211 13.211c-12.77 12.77-29.749 19.803-47.809 19.803h-12.993c-4.142 0-7.5-3.358-7.5-7.5s3.358-7.5 7.5-7.5h12.993c14.053 0 27.265-5.473 37.202-15.41l13.845-13.845c.417-2.839.642-5.721.652-8.599.059-15.657-5.912-30.589-16.812-42.047-10.902-11.46-25.51-18.152-41.133-18.843-33.261-1.478-61.657 24.289-63.387 57.439z"/><path d="m447.018 393.346c-3.191-2.641-7.919-2.193-10.559.999-10.589 12.803-25.87 20.663-42.308 21.875l-13.193-13.192c-12.77-12.771-29.749-19.803-47.809-19.803h-12.992c-4.142 0-7.5 3.358-7.5 7.5s3.358 7.5 7.5 7.5h12.992c14.053 0 27.265 5.473 37.202 15.41l13.83 13.83c.428 2.913.654 5.871.654 8.828 0 16.365-6.414 31.71-18.06 43.207-11.645 11.495-27.055 17.701-43.453 17.497-31.496-.406-57.529-25.519-59.738-57.368v-211.784h9.546c35.202 0 63.84 28.639 63.84 63.84 0 4.142 3.358 7.5 7.5 7.5s7.5-3.358 7.5-7.5c0-43.473-35.368-78.84-78.84-78.84h-9.546v-29.255c0-4.142-3.358-7.5-7.5-7.5s-7.5 3.358-7.5 7.5v100.595h-9.713c-35.202 0-63.84-28.639-63.84-63.84 0-4.142-3.358-7.5-7.5-7.5s-7.5 3.358-7.5 7.5c0 43.473 35.368 78.84 78.84 78.84h9.713v136.09c0 33.606-26.874 61.294-59.905 61.721-16.398.229-31.809-6.002-43.454-17.497-11.646-11.498-18.06-26.842-18.06-43.207 0-2.956.226-5.914.654-8.828l13.83-13.83c9.937-9.937 23.149-15.41 37.202-15.41h12.992c4.142 0 7.5-3.358 7.5-7.5s-3.358-7.5-7.5-7.5h-12.992c-18.06 0-35.039 7.033-47.809 19.803l-13.195 13.195c-14.743-1.075-28.45-7.42-38.878-18.07-11.177-11.415-17.333-26.501-17.333-42.479 0-9.892 2.301-19.317 6.839-28.017 1.565-3.002 1.848-6.561.773-9.764-1.074-3.205-3.446-5.875-6.505-7.327-21.076-10.001-34.694-31.535-34.694-54.859 0-23.225 13.542-44.725 34.498-54.774 3.073-1.474 5.364-4.06 6.451-7.283 1.086-3.223.829-6.668-.724-9.7-4.405-8.603-6.638-17.896-6.638-27.622 0-8.497 1.719-16.712 5.108-24.417 1.668-3.791-.054-8.217-3.845-9.885s-8.217.053-9.885 3.845c-4.232 9.62-6.378 19.868-6.378 30.457 0 11.113 2.476 22.192 7.18 32.204-24.846 12.96-40.766 39.053-40.766 67.177 0 28.239 16.005 54.372 40.991 67.284-4.85 10.132-7.404 21.377-7.404 32.682 0 19.925 7.676 38.738 21.615 52.973 11.967 12.222 27.399 19.901 44.116 22.093-.135 1.847-.204 3.701-.204 5.552 0 20.408 7.999 39.544 22.523 53.882 14.283 14.1 33.131 21.828 53.177 21.828.334 0 .673-.002 1.008-.006 29.439-.38 54.944-18.07 67.111-43.375 12.173 25.412 37.747 42.996 67.146 43.375.336.004.672.006 1.008.006 20.044 0 38.894-7.729 53.176-21.828 14.524-14.338 22.523-33.473 22.523-53.882 0-1.854-.068-3.709-.204-5.559 18.824-2.494 36.129-12.007 48.386-26.828 2.64-3.192 2.192-7.919-1-10.559z"/></g></g></svg>