<svg id="Capa_1" enable-background="new 0 0 512 512" height="512" viewBox="0 0 512 512" width="512" xmlns="http://www.w3.org/2000/svg"><g><g><g><path d="m495.769 263.136h-25.975c-2.673 0-4.011 3.232-2.121 5.122l31.631 31.623c.938.938 1.465 2.21 1.465 3.536v36.311c0 4.454-5.385 6.685-8.535 3.536l-77.207-77.198c-1.875-1.875-4.419-2.929-7.071-2.929h-183.538c-5.495 0-10.95 4.455-10.95 9.95v221.413c0 5.523-3.477 9-9 9l-29.111 1h-16.643c-5.523 0-10-4.477-10-10v-331.998c0-5.495-4.455-9.95-9.95-9.95h-122.553c-2.761 0-5-2.239-5-5v-25.681c0-2.761 2.239-5 5-5h21.75c2.674 0 4.012-3.233 2.12-5.123l-27.403-27.37c-.939-.938-1.467-2.211-1.467-3.538v-36.265c0-4.453 5.383-6.685 8.534-3.537l72.979 72.908c1.875 1.873 4.417 2.925 7.068 2.925h38.973c5.495 0 9.95-4.455 9.95-9.95v-89.421c0-5.523 4.477-10 10-10h16.513l29.241 1c5.523 0 9 3.477 9 9v200.005c0 5.495 5.455 9.95 10.95 9.95h271.351c2.761 0 5 2.239 5 5v25.681c-.001 2.761-2.239 5-5.001 5z" fill="#f47c7c"/><path d="m194.42 263.14h30c-5.5 0-9.95 4.45-9.95 9.95v221.41c0 5.52-4.48 10-10 10h-30c5.52 0 10-4.48 10-10v-221.41c0-5.5 4.45-9.95 9.95-9.95z" fill="#ee6161"/><path d="m224.42 227.46h-30c-5.5 0-9.95-4.46-9.95-9.95v-200.01c0-5.52-4.48-10-10-10h30c5.52 0 10 4.48 10 10v200.01c0 5.49 4.45 9.95 9.95 9.95z" fill="#ee6161"/><path d="m361.206 408.836v-235.803c0-5.523 5.477-10 11-10h123.563c2.761 0 5-2.239 5-5v-25.681c0-2.762-2.239-5-5-5h-31.981c-2.673 0-4.011-3.231-2.121-5.121l37.638-37.638c.938-.938 1.465-2.21 1.465-3.536v-36.31c0-4.455-5.386-6.685-8.535-3.536l-83.211 83.211c-1.875 1.875-4.419 2.929-7.071 2.929h-29.745c-5.523 0-11-4.477-11-10v-99.851c0-5.523-3.477-9-9-9l-29.013-1h-16.741c-5.523 0-10 4.477-10 10v319.2c0 5.523-4.477 10-10 10h-269.988c-2.762 0-5 2.239-5 5v25.681c0 2.761 2.239 5 5 5h15.925c2.673 0 4.011 3.231 2.121 5.121l-21.836 21.837c-.938.938-1.465 2.21-1.465 3.535v36.3c0 4.454 5.386 6.685 8.536 3.536l67.4-67.4c1.875-1.875 4.419-2.929 7.071-2.929h192.234c5.523 0 10 4.477 10 10v102.119c0 5.523 4.477 10 10 10h16.333l29.422-1c5.523 0 9-3.477 9-9v-29.983c0-5.523 5.477-10 11-10h123.41c2.761 0 5-2.239 5-5v-25.681c0-2.761-2.239-5-5-5h-123.41c-5.524 0-11.001-4.477-11.001-10z" fill="#8aaadc"/><g fill="#7398d4"><path d="m322.21 7.5h30c5.52 0 10 4.48 10 10v99.85c0 5.44 4.33 9.86 9.74 10h-29.74c-5.53 0-10-4.47-10-10v-99.85c0-5.52-4.48-10-10-10z"/><path d="m342.21 454.52h30c-5.53 0-10 4.47-10 10v29.98c0 5.52-4.48 10-10 10h-30c5.52 0 10-4.48 10-10v-29.98c0-5.53 4.47-10 10-10z"/><path d="m362.21 173.03v235.81c0 5.52 4.47 10 10 10h-30c-5.53 0-10-4.48-10-10v-235.81c0-5.52 4.47-10 10-10h30c-5.53 0-10 4.48-10 10z"/></g></g></g><g><path d="m354.716 408.836c0 9.65 7.851 17.5 17.5 17.5h43.103c4.142 0 7.5-3.357 7.5-7.5s-3.358-7.5-7.5-7.5h-43.103c-1.378 0-2.5-1.121-2.5-2.5v-138.2h38.25c.668 0 1.295.26 1.768.732l77.207 77.197c2.397 2.397 5.58 3.668 8.827 3.668 1.612 0 3.24-.314 4.795-.957 4.688-1.941 7.717-6.475 7.717-11.549v-36.312c0-3.34-1.301-6.478-3.662-8.839l-23.947-23.941h15.109c6.893 0 12.5-5.607 12.5-12.5v-25.681c0-6.893-5.607-12.5-12.5-12.5h-126.064v-46.922c0-1.379 1.122-2.5 2.5-2.5h123.563c6.893 0 12.5-5.607 12.5-12.5v-25.681c0-6.892-5.607-12.5-12.5-12.5h-21.117l29.956-29.956c2.361-2.361 3.661-5.5 3.661-8.839v-36.31c0-5.074-3.029-9.607-7.716-11.549-4.69-1.942-10.035-.878-13.622 2.709l-83.211 83.212c-.473.473-1.101.732-1.769.732h-29.745c-1.378 0-2.5-1.121-2.5-2.5v-99.85c0-9.649-7.851-17.5-17.5-17.5h-45.754c-9.649 0-17.5 7.851-17.5 17.5v81.967c0 4.143 3.358 7.5 7.5 7.5s7.5-3.357 7.5-7.5v-81.967c0-1.379 1.122-2.5 2.5-2.5h45.754c1.378 0 2.5 1.121 2.5 2.5v99.853c0 9.649 7.851 17.5 17.5 17.5h29.745c4.674 0 9.068-1.82 12.374-5.125l78.943-78.944v29.238l-36.905 36.906c-3.014 3.014-3.907 7.506-2.276 11.443 1.631 3.938 5.438 6.481 9.701 6.481h29.48v20.681h-121.062c-9.649 0-17.5 7.851-17.5 17.5zm138.563-173.881v20.681h-23.475c-4.263 0-8.071 2.545-9.702 6.483-1.63 3.938-.736 8.43 2.278 11.442l30.898 30.891v29.239l-72.939-72.931c-3.306-3.305-7.7-5.125-12.374-5.125h-38.25v-20.681h123.564z"/><path d="m303.962 132.161c0-4.143-3.358-7.5-7.5-7.5s-7.5 3.357-7.5 7.5v87.794h-64.534c-1.351 0-2.45-1.099-2.45-2.449v-200.006c0-9.649-7.851-17.5-17.5-17.5h-45.754c-9.649 0-17.5 7.851-17.5 17.5v89.422c0 1.351-1.099 2.449-2.45 2.449h-38.973c-.668 0-1.295-.26-1.767-.73l-72.978-72.909c-3.589-3.586-8.936-4.648-13.621-2.704-4.686 1.942-7.714 6.475-7.714 11.547v36.266c0 3.341 1.301 6.482 3.666 8.845l19.71 19.686h-10.876c-6.893 0-12.5 5.607-12.5 12.5v25.681c0 6.893 5.607 12.5 12.5 12.5h122.553c1.351 0 2.45 1.1 2.45 2.45v70.277c0 4.143 3.358 7.5 7.5 7.5s7.5-3.357 7.5-7.5v-70.277c0-9.622-7.828-17.45-17.45-17.45h-120.053v-20.681h19.25c4.263 0 8.072-2.545 9.702-6.484s.735-8.431-2.282-11.444l-26.67-26.638v-29.2l68.711 68.646c3.305 3.302 7.697 5.119 12.368 5.119h38.973c9.622 0 17.45-7.828 17.45-17.449v-89.422c0-1.379 1.122-2.5 2.5-2.5h45.754c1.378 0 2.5 1.121 2.5 2.5v200.006c0 9.621 7.828 17.449 17.45 17.449h64.534v20.681h-64.534c-9.622 0-17.45 7.828-17.45 17.45v66.114h-50.754v-73.729c0-4.143-3.358-7.5-7.5-7.5s-7.5 3.357-7.5 7.5v73.729h-124.747c-6.893 0-12.5 5.607-12.5 12.5v25.681c0 6.893 5.607 12.5 12.5 12.5h5.061l-14.153 14.153c-2.362 2.36-3.663 5.5-3.663 8.84v36.3c0 5.074 3.029 9.607 7.717 11.549 4.687 1.942 10.034.878 13.622-2.709l67.399-67.4c.473-.473 1.101-.732 1.769-.732h46.996v104.618c0 9.649 7.851 17.5 17.5 17.5h45.754c9.649 0 17.5-7.851 17.5-17.5v-104.619h64.484c1.378 0 2.5 1.121 2.5 2.5v102.119c0 9.649 7.851 17.5 17.5 17.5h45.754c9.649 0 17.5-7.851 17.5-17.5v-29.983c0-1.379 1.122-2.5 2.5-2.5h123.41c6.893 0 12.5-5.607 12.5-12.5v-25.681c0-6.893-5.607-12.5-12.5-12.5h-47.622c-4.142 0-7.5 3.357-7.5 7.5s3.358 7.5 7.5 7.5h45.122v20.681h-120.91c-9.649 0-17.5 7.851-17.5 17.5v29.983c0 1.379-1.122 2.5-2.5 2.5h-45.754c-1.378 0-2.5-1.121-2.5-2.5v-102.119c0-9.649-7.851-17.5-17.5-17.5h-192.234c-4.674 0-9.068 1.82-12.374 5.125l-63.132 63.133v-29.229l21.104-21.104c3.014-3.014 3.907-7.506 2.276-11.443-1.631-3.938-5.438-6.481-9.701-6.481h-13.425v-20.682h267.486c9.649 0 17.5-7.851 17.5-17.5zm-81.984 140.925c0-1.35 1.099-2.45 2.45-2.45h64.534v66.064c0 1.379-1.122 2.5-2.5 2.5h-64.484zm-15 221.414c0 1.379-1.122 2.5-2.5 2.5h-45.754c-1.378 0-2.5-1.121-2.5-2.5v-104.619h50.754z"/></g></g></svg>