<svg id="Capa_1" enable-background="new 0 0 511.97 511.97" height="512" viewBox="0 0 511.97 511.97" width="512" xmlns="http://www.w3.org/2000/svg"><g><g><path d="m492.502 240.166-15.197 134.059-35.244-4.26 16.197-134.049c6.978-57.831-7.85-115.732-41.776-163.066l-43.225-57.357c-2.483-3.295-.132-8.009 3.993-8.009h11.934l19.997 1c1.57 0 3.048.737 3.993 1.991l30.786 41.178c.081.101.162.213.243.325 39.202 54.616 56.352 121.453 48.299 188.188z" fill="#f47c7c"/><path d="m493.505 240.165-16.2 134.06-19.71-2.38 15.91-131.68c8.05-66.73-9.1-133.57-48.3-188.19-.08-.11-.16-.22-.24-.32l-31.79-42.18c-.94-1.25-2.42-1.99-3.99-1.99h20c1.57 0 3.05.74 3.99 1.99l31.79 42.18c.08.1.16.21.24.32 39.2 54.62 56.35 121.46 48.3 188.19z" fill="#ee6161"/><path d="m18.468 240.166 16.197 134.059 35.244-4.26-17.197-134.048c-6.978-57.831 7.85-115.732 41.776-163.066l43.225-57.357c2.483-3.295 1.132-7.009-2.993-7.009l-19.572-1h-12.36c-1.57 0-3.048.737-3.993 1.991l-31.787 42.178c-.081.101-.162.213-.243.325-39.2 54.615-56.35 121.452-48.297 188.187z" fill="#f47c7c"/><path d="m138.715 15.495-43.23 57.36c-33.92 47.33-48.75 105.23-41.77 163.06l16.19 134.05-35.24 4.26-.29-2.38 15.53-1.88-16.19-134.05c-6.98-57.83 7.85-115.73 41.77-163.06l43.23-57.36c2.48-3.3.13-8.01-4-8.01h20c4.13 0 6.48 4.71 4 8.01z" fill="#ee6161"/><path d="m148.118 476.45c-5.111 0-10.124.576-15.004-.239-42.811-7.147-75.442-44.367-75.442-89.207v-58.46c0-45.169 33.111-82.605 76.385-89.359 4.582-.715 9.278-.086 14.061-.086 49.952 0 89.446 39.494 89.446 89.446v58.46c0 49.951-39.494 89.445-89.446 89.445z" fill="#f6f6f6"/><path d="m238.565 328.545v58.46c0 49.95-40.49 90.44-90.45 90.44-5.11 0-10.12-.42-15-1.24 42.82-7.14 75.45-44.36 75.45-89.2v-58.46c0-24.98-10.12-47.59-26.49-63.96-13.02-13.01-29.99-22.08-48.96-25.25 4.88-.82 9.89-1.24 15-1.24 24.98 0 47.59 10.13 63.96 26.49 16.37 16.37 26.49 38.98 26.49 63.96z" fill="#e1e1e1"/><path d="m147.118 471.114c0 23.292-22.414 38.596-44.093 30.08-1.049-.412-2.092.162-3.127-.278-44.319-18.832-75.478-62.802-75.478-113.912v-58.46c0-51.121 31.171-95.098 75.505-113.923 1.026-.436 2.06.142 3.1-.267 21.679-8.516 44.093 6.788 44.093 30.08 0 13.551-7.168 24.885-19.786 29.825-21.29 8.334-37.408 30.077-37.408 54.285v58.46c0 24.208 16.118 45.951 37.408 54.285 12.619 4.94 19.786 16.274 19.786 29.825z" fill="#f47c7c"/><path d="m148.115 471.115c0 23.29-23.41 39.6-45.09 31.08-1.07-.42-2.13-.85-3.18-1.31 10.61-5.41 18.27-16.45 18.27-29.77 0-13.55-8.16-25.89-20.78-30.83-21.29-8.33-36.41-29.07-36.41-53.28v-58.46c0-24.21 15.12-44.95 36.41-53.29 6.31-2.47 11.51-6.79 15.12-12.18 3.62-5.39 5.66-11.87 5.66-18.64 0-13.32-7.66-24.36-18.27-29.77 1.05-.46 2.11-.89 3.18-1.31 21.68-8.52 45.09 7.79 45.09 31.08 0 6.77-2.04 13.25-5.66 18.64-3.61 5.39-8.81 9.71-15.12 12.18-21.29 8.34-36.41 29.08-36.41 53.29v58.46c0 24.21 15.12 44.95 36.41 53.28 12.62 4.94 20.78 17.28 20.78 30.83z" fill="#ee6161"/><path d="m363.851 476.45c49.952 0 89.446-39.494 89.446-89.446v-58.46c0-49.952-39.494-89.446-89.446-89.446-10.127 0-19.866.664-28.957 3.735-35.75 12.074-61.488 45.887-61.488 85.711v58.46c0 39.811 25.722 73.615 61.454 85.699 9.101 3.078 18.851 3.747 28.991 3.747z" fill="#f6f6f6"/><path d="m363.851 471.114c0 13.323 7.661 24.36 18.277 29.773 7.942 4.05 17.538 3.951 26.816.307 45.974-18.06 77.605-61.886 77.605-114.19v-58.46c0-52.304-31.631-96.13-77.605-114.19-9.302-3.654-18.923-3.739-26.877.337-10.584 5.424-18.216 16.444-18.216 29.742 0 13.551 8.168 25.885 20.786 30.825 21.29 8.334 36.408 29.077 36.408 53.285v58.46c0 24.208-15.118 44.951-36.408 53.285-12.618 4.941-20.786 17.275-20.786 30.826z" fill="#f47c7c"/><path d="m421.045 328.545v58.46c0 24.21-15.12 44.95-36.41 53.28-12.62 4.94-20.78 17.28-20.78 30.83 0 2.17.2 4.28.59 6.32-.19.01-.39.01-.59.01-10.13 0-19.87-1.66-28.96-4.73-.03-.53-.04-1.06-.04-1.6 0-13.55 8.16-25.89 20.78-30.83 21.29-8.33 36.41-29.07 36.41-53.28v-58.46c0-24.21-15.12-44.95-36.41-53.29-6.31-2.47-11.51-6.79-15.12-12.18-3.62-5.39-5.66-11.87-5.66-18.64 0-.54.01-1.08.04-1.61 9.09-3.06 18.83-4.73 28.96-4.73.2 0 .4 0 .59.01-.39 2.04-.59 4.15-.59 6.33 0 6.77 2.04 13.25 5.66 18.64 3.61 5.39 8.81 9.71 15.12 12.18 21.29 8.34 36.41 29.08 36.41 53.29z" fill="#e1e1e1"/><path d="m487.545 328.545v58.46c0 52.3-32.63 97.13-78.6 115.19-9.28 3.65-18.88 2.74-26.82-1.31 44.29-18.84 75.42-62.8 75.42-113.88v-58.46c0-51.08-31.13-95.04-75.42-113.88 7.94-4.05 17.54-4.96 26.82-1.31 45.97 18.06 78.6 62.89 78.6 115.19z" fill="#ee6161"/></g><g><path d="m451.277 47.593c-.123-.17-.247-.338-.371-.497l-31.74-42.118c-2.349-3.117-6.08-4.978-9.983-4.978h-31.932c-4.772 0-9.058 2.653-11.187 6.923s-1.667 9.29 1.205 13.1l43.168 57.284c31.956 44.624 46.379 98.973 40.836 153.492-11.58-10.377-24.932-18.654-39.586-24.411-12.393-4.867-26.393-3.273-37.452 4.264-1.521 1.037-2.951 2.173-4.3 3.384-4.854-23.309-13.886-45.796-26.602-65.918l-8.352-13.099 2.45-6.699c6.791-18.565 8.953-40.624 6.253-63.793-2.604-22.341-9.727-43.98-20.057-60.931-2.156-3.538-6.771-4.657-10.308-2.502s-4.656 6.77-2.501 10.307c19.339 31.733 24.605 78.737 12.524 111.766l-8.415 23.008c-4.945 13.519-7.66 27.919-8.056 42.346-.083.093-.17.181-.249.279l-17.981 22.358c-16.611 20.656-23.831 47.529-19.807 73.729l1.996 12.993c-3.192 9.654-4.926 19.966-4.926 30.677v58.46c0 52.291 41.191 95.142 92.829 97.813 2.87 8.057 8.224 15.134 15.5 20.094 6.829 4.654 14.779 7.042 22.78 7.042 4.956 0 9.932-.916 14.672-2.779 25.327-9.949 46.672-27.261 61.727-50.063 2.282-3.457 1.33-8.109-2.126-10.391s-8.108-1.331-10.392 2.126c-13.344 20.21-32.257 35.552-54.693 44.366-7.886 3.099-16.458 2.115-23.52-2.697-7.096-4.836-11.332-12.837-11.332-21.402 0-10.509 6.438-20.09 16.021-23.841 24.628-9.64 41.174-33.86 41.174-60.269v-58.46c0-26.409-16.546-50.629-41.174-60.269-9.582-3.751-16.021-13.332-16.021-23.841 0-8.565 4.236-16.565 11.332-21.401 7.06-4.812 15.631-5.795 23.52-2.698 21.503 8.447 39.873 22.989 53.126 42.054 13.556 19.499 20.721 42.376 20.721 66.155v58.46c0 12.37-1.942 24.551-5.773 36.205-1.293 3.935.848 8.174 4.783 9.467 3.935 1.291 8.173-.848 9.467-4.783 4.328-13.168 6.523-26.925 6.523-40.889v-58.46c0-7.607-.672-15.127-1.951-22.507l7.85-64.973c8.28-68.606-9.353-137.311-49.67-193.483zm-93.704 183.229c-11.288.718-22.063 3.35-31.999 7.585l-3.271-35.488c-1.554-16.859.599-34.159 6.207-50.144l2.158 3.384c14.227 22.512 23.481 48.247 26.905 74.663zm-57.241-10.26 7.656-9.519 3.222 34.955c-11.229 7.185-20.901 16.597-28.392 27.607-.729-19.093 5.433-38.021 17.514-53.043zm81.573 61.697c18.925 7.409 31.641 26.016 31.641 46.301v58.46c0 20.286-12.716 38.892-31.641 46.301-14.818 5.8-24.922 20.259-25.525 36.292-42.247-3.792-75.474-39.376-75.474-82.593v-58.46c0-43.217 33.228-78.8 75.474-82.592.603 16.033 10.707 30.492 25.525 36.291zm89.74-28.416c-2.176-3.131-4.489-6.14-6.904-9.049l.963-7.963c7.203-59.7-8.113-119.482-43.127-168.333-.034-.049-.07-.097-.106-.145l-40.205-53.353h25.67l31.036 41.183c.041.056.047.063.09.117l.05.067c38.101 53.083 54.772 118.045 46.944 182.915l-3.931 32.531c-2.995-6.214-6.486-12.224-10.48-17.97z"/><path d="m243.134 284.89c4.024-26.199-3.195-53.072-19.807-73.728l-17.981-22.358c-.079-.098-.166-.186-.249-.279-.396-14.427-3.111-28.827-8.056-42.346l-8.415-23.008c-12.081-33.029-6.814-80.033 12.525-111.766 2.155-3.537 1.036-8.152-2.501-10.307-3.54-2.157-8.153-1.037-10.308 2.502-10.33 16.951-17.453 38.59-20.057 60.931-2.7 23.169-.538 45.228 6.253 63.793l2.45 6.699-8.367 13.124c-12.704 20.102-21.733 42.584-26.587 65.893-1.349-1.211-2.779-2.348-4.3-3.384-11.06-7.538-25.06-9.132-37.452-4.264-14.651 5.755-28 14.03-39.578 24.404-3.269-32.026.226-63.667 10.444-94.112 1.317-3.927-.797-8.179-4.725-9.497-3.924-1.316-8.178.798-9.496 4.724-11.382 33.917-14.969 69.218-10.662 104.922l.962 7.963c-2.414 2.909-4.727 5.917-6.903 9.048-3.994 5.745-7.484 11.755-10.481 17.97l-3.931-32.529c-7.828-64.871 8.844-129.832 46.924-182.887l.033-.048c.043-.054.086-.109.127-.165l31.036-41.183h25.67l-40.203 53.352c-.036.047-.071.096-.106.144-7.251 10.115-13.757 20.862-19.338 31.942-1.863 3.7-.375 8.209 3.324 10.072 3.697 1.861 8.209.375 10.072-3.324 5.22-10.363 11.303-20.414 18.081-29.879l43.169-57.284c2.872-3.811 3.334-8.831 1.205-13.101s-6.415-6.923-11.186-6.923h-31.932c-3.903 0-7.635 1.861-9.982 4.977l-31.743 42.12c-.124.159-.251.332-.391.524-40.297 56.143-57.93 124.848-49.651 193.46l7.851 64.97c-1.279 7.38-1.951 14.901-1.951 22.508v58.46c0 26.855 8.093 52.692 23.404 74.718 14.951 21.509 35.685 37.918 59.958 47.453 4.741 1.862 9.715 2.778 14.672 2.778 8 0 15.952-2.389 22.78-7.042 7.281-4.962 12.637-12.045 15.505-20.107 19.406-.99 37.784-7.592 53.426-19.271 3.319-2.479 4-7.178 1.522-10.497-2.478-3.318-7.178-4-10.497-1.522-12.396 9.256-26.826 14.745-42.102 16.097-.598-16.038-10.703-30.503-25.525-36.304-18.925-7.409-31.641-26.016-31.641-46.301v-58.46c0-20.286 12.716-38.893 31.641-46.301 14.818-5.8 24.922-20.259 25.525-36.291 42.247 3.791 75.474 39.376 75.474 82.592v58.46c0 15.807-4.46 31.175-12.899 44.444-2.223 3.496-1.19 8.131 2.305 10.353 1.248.793 2.641 1.172 4.018 1.172 2.48 0 4.906-1.229 6.336-3.476 9.971-15.68 15.241-33.831 15.241-52.494v-58.46c0-10.711-1.734-21.023-4.926-30.677zm-61.848-128.705 2.174-3.409c5.608 15.984 7.761 33.284 6.207 50.143l-3.271 35.488c-9.937-4.235-20.712-6.868-31.999-7.585 3.424-26.416 12.677-52.15 26.889-74.637zm-56.688 112.107c-24.628 9.64-41.174 33.86-41.174 60.269v58.46c0 26.409 16.546 50.629 41.174 60.269 9.582 3.751 16.021 13.332 16.021 23.841 0 8.565-4.236 16.565-11.332 21.401-7.061 4.813-15.634 5.794-23.52 2.698-21.503-8.447-39.873-22.989-53.126-42.054-13.556-19.5-20.721-42.376-20.721-66.156v-58.46c0-23.779 7.165-46.656 20.721-66.155 13.253-19.065 31.623-33.607 53.126-42.054 7.776-3.054 16.636-1.995 23.52 2.698 7.096 4.836 11.332 12.836 11.332 21.401 0 10.51-6.439 20.091-16.021 23.842zm76.163-22.294 3.222-34.955 7.656 9.519c12.08 15.021 18.243 33.95 17.515 53.043-7.492-11.01-17.164-20.422-28.393-27.607z"/></g></g></svg>