<svg id="Capa_1" enable-background="new 0 0 511.73 511.73" height="512" viewBox="0 0 511.73 511.73" width="512" xmlns="http://www.w3.org/2000/svg"><g><g><g><path d="m494.633 229.895c10.032 7.024 11.701 21.234 3.542 30.368-35.516 39.759-130.041 132.346-242.308 132.346-4.929 0-9.827.819-14.688.471-105.857-7.586-194.672-94.813-228.625-132.823-1.819-2.036-3.149-4.325-4.007-6.729-.846-2.37 8.767-4.853 8.823-7.319.06-2.641-9.373-5.262-8.316-7.704 1.446-3.342 3.808-6.35 7.037-8.612l143.296-100.401c25.494-17.863 60.253-14.206 81.473 8.571 8.104 8.699 21.892 8.681 29.974-.039 8.556-9.233 19.344-15.331 30.841-18.131 16.861-4.106 35.249-.121 50.371 10.466z" fill="#f47c7c"/><path d="m499.175 260.265c-35.52 39.76-131.04 133.34-243.31 133.34-5.04 0-10.04-.19-15-.55 105.72-7.74 194.38-94.81 228.31-132.79 8.16-9.14 6.49-23.35-3.54-30.37l-143.59-100.54c-6.41-4.48-13.39-7.6-20.61-9.4 4.91-1.22 9.95-1.83 15-1.83 12.38 0 24.82 3.68 35.61 11.23l143.59 100.54c3.23 2.261 5.593 5.267 7.04 8.61 1.017 2.348-8.419 4.863-8.324 7.401s9.721 5.101 8.861 7.545c-.857 2.436-2.197 4.754-4.037 6.814z" fill="#ee6161"/></g></g><g><path d="m374.417 350.691c-41.605 23.474-82.57 35.376-121.755 35.376-39.111 0-79.997-11.858-121.523-35.245-3.608-2.032-8.182-.755-10.216 2.855-2.032 3.609-.754 8.183 2.854 10.215 43.801 24.668 87.164 37.175 128.885 37.175 41.799 0 85.243-12.554 129.126-37.311 3.607-2.036 4.882-6.61 2.847-10.218-2.036-3.608-6.609-4.882-10.218-2.847z"/><path d="m145.147 253.462c19.146 0 37.729 5.548 53.741 16.044l4.655 3.051c15.549 10.193 33.221 15.273 50.874 15.273 18.529 0 37.037-5.598 53.045-16.757 16.527-11.522 35.912-17.611 56.06-17.611h131.377c-.387.613-.813 1.207-1.309 1.762-18.8 21.046-49.463 51.755-88.773 78.538-3.424 2.332-4.308 6.998-1.975 10.421 1.452 2.131 3.808 3.278 6.205 3.278 1.454 0 2.924-.422 4.216-1.303 40.565-27.637 72.156-59.271 91.515-80.941 10.986-12.298 8.647-32.07-4.832-41.508l-80.536-56.389c-3.393-2.376-8.069-1.55-10.445 1.842-2.376 3.393-1.551 8.07 1.842 10.445l80.536 56.389c1.011.708 1.885 1.544 2.637 2.465h-67.803c3.639-11.78 1.7-22.296-5.856-31.358-2.653-3.182-7.382-3.61-10.563-.958-3.182 2.652-3.61 7.382-.958 10.563 3.471 4.163 6.583 10.34 1.36 21.753h-46.635c-2.844 0-5.674.108-8.487.317 3.484-13.532-1.116-23.306-6.339-29.57-2.652-3.182-7.382-3.61-10.564-.958s-3.61 7.382-.958 10.564c3.534 4.239 6.724 10.591 1.005 22.507-14.002 3.21-27.302 9.086-39.296 17.447-26.205 18.269-60.4 18.756-87.118 1.243l-4.655-3.051c-10.253-6.721-21.422-11.675-33.108-14.759-6.306-12.484-3.052-19.045.568-23.387 2.652-3.182 2.224-7.911-.958-10.564-3.181-2.652-7.91-2.223-10.564.958-8.247 9.893-8.7 20.571-6.242 29.862-3.859-.398-7.749-.609-11.662-.609h-43.58c-3.091-6.628-4.71-14.445 1.384-21.753 2.652-3.181 2.224-7.911-.958-10.563-3.182-2.653-7.91-2.224-10.564.958-7.556 9.063-9.496 19.578-5.856 31.358h-67.808c.752-.923 1.626-1.759 2.638-2.468l143.295-100.401c22.304-15.626 53.119-12.384 71.682 7.541 5.27 5.658 12.725 8.901 20.457 8.901h.035c7.745-.01 15.206-3.274 20.471-8.954 18.462-19.922 49.159-23.197 71.409-7.618l36.186 25.336c3.395 2.376 8.07 1.551 10.445-1.842 2.376-3.394 1.551-8.07-1.842-10.446l-36.186-25.336c-28.355-19.855-67.485-15.682-91.015 9.709-2.475 2.672-5.846 4.146-9.488 4.15-.006 0-.011 0-.018 0-3.635 0-7.002-1.465-9.48-4.126-23.633-25.37-62.869-29.495-91.264-9.601l-143.294 100.403c-13.506 9.462-15.823 29.191-4.827 41.502 19.359 21.671 50.951 53.306 91.521 80.947 1.292.88 2.762 1.302 4.216 1.302 2.397 0 4.753-1.147 6.205-3.277 2.332-3.423 1.448-8.089-1.976-10.421-39.314-26.786-69.979-57.497-88.778-78.543-.495-.553-.92-1.146-1.306-1.757z"/></g></g></svg>