<svg id="Capa_1" enable-background="new 0 0 512 512" height="512" viewBox="0 0 512 512" width="512" xmlns="http://www.w3.org/2000/svg"><g><g><path d="m427.85 70.97v302.3h-139.93l-34.78 20.35c-19.45 33.18-62.11 44.31-95.29 24.86-17.46-10.23-28.81-26.89-32.82-45.21h-39.32v-302.3z" fill="#e94444"/><path d="m470.299 144.165c13.455 5.925 21.857 18.381 21.857 34.029v6.257c0 15.648-9.401 29.103-22.857 35.029-2.492 1.091-1.492 5.706 1 6.797 13.455 5.926 21.857 18.381 21.857 34.029v6.257c0 15.648-9.401 29.103-22.857 35.029-2.492 1.091-1.492 5.706 1 6.797 13.455 5.925 21.857 18.381 21.857 34.029v6.257c0 18.012-11.461 32.125-28.221 36.189-1.433.342-3.449 2.615-3.449 4.091v10.236c0 21.135-16.135 37.259-37.259 37.259h-6.257c-4.144 0-8.134.341-11.872-.876-10.385-3.384-18.818-11.089-23.167-20.991-1.091-2.492-4.706-2.492-5.808 0-5.915 13.466-19.381 22.867-35.029 22.867h-6.257c-21.13 0-38.259-17.129-38.259-38.259 0-1.306-1.313-2.196-2.533-1.731-27.321 10.409-46.785 36.894-46.785 67.831v28.515c0 5.907-4.789 10.696-10.696 10.696h-16.044c-5.907 0-10.696-4.789-10.696-10.696v-28.515c0-52.174 36.5-95.968 85.31-107.192.843-.194 1.443-.935 1.443-1.799v-3.229c0-21.13 17.129-38.259 38.259-38.259h6.257c10.995 0 20.9 4.642 27.884 12.054 1.54 1.636 4.236 1.23 5.198-.802 3.915-8.268 10.696-14.91 19.07-18.621 2.535-1.134 2.642-4.738.107-5.851-13.455-5.926-22.846-19.381-22.846-35.029v-6.257c0-15.648 9.391-29.103 22.846-35.029 2.492-1.091 2.492-4.706 0-5.797-13.455-5.925-22.846-19.381-22.846-35.029v-6.257c0-15.648 9.391-29.103 22.846-35.029 2.535-1.112 2.428-4.717-.107-5.851-8.332-3.701-15.092-10.289-19.006-18.493-.973-2.032-3.669-2.428-5.209-.792-6.974 7.455-16.921 12.118-27.937 12.118h-6.257c-15.573 0-28.975-9.305-34.943-22.664-1.155-2.578-4.738-2.578-5.893 0-5.968 13.359-19.37 22.664-34.943 22.664h-6.257c-15.648 0-29.103-9.391-35.029-22.846-1.091-2.492-4.706-2.492-5.797 0-5.925 13.455-19.381 22.846-35.029 22.846h-6.257c-10.953 0-20.835-4.61-27.809-11.979-1.529-1.615-4.214-1.219-5.177.792-1.779 3.678-4.128 7.029-6.933 9.936-3.403 3.526-8.477 6.401-13.02 8.418-2.535 1.134-1.642 5.738.893 6.851 13.455 5.925 21.846 18.381 21.846 34.029v6.257c0 15.648-9.391 29.103-22.846 35.029-2.492 1.091-1.492 5.706 1 6.797 13.455 5.926 21.846 18.381 21.846 34.029v6.257c0 15.648-9.391 29.103-22.846 35.029-2.492 1.091-1.492 5.706 1 6.797 13.455 5.925 21.846 18.381 21.846 34.029v6.257c0 21.13-16.129 37.259-37.259 37.259-1.223 0-3.214 1.991-3.214 3.214v1.979c0 33.499-20.648 61.035-50.682 71.357-7.208 2.475-14.59 1.3-19.402-3.56-3.299-3.332-5.391-7.927-5.391-13.152 0-7.926 4.941-15.102 12.439-17.637 15.445-5.209 26.6-19.83 26.6-37.007v-1.979c0-1.223-.991-2.214-2.214-2.214h-4.265c-21.13 0-38.259-17.129-38.259-38.259v-6.257c0-15.648 9.402-29.103 22.857-35.029 2.492-1.091 2.492-4.706 0-5.797-13.455-5.926-22.857-19.381-22.857-35.029v-6.257c0-15.648 9.402-29.103 22.857-35.029 2.492-1.091 2.492-4.706 0-5.797-13.455-5.925-22.857-19.381-22.857-35.029v-6.257c0-15.648 9.402-29.103 22.857-35.029 2.492-1.091 2.492-4.706 0-5.797-13.455-5.925-22.857-19.381-22.857-35.029v-6.257c0-18.012 12.461-33.125 29.221-37.189 1.433-.342 2.449-1.615 2.449-3.091v-10.044c.001-21.13 17.13-38.259 38.259-38.259h6.257c15.541 0 28.911 9.263 34.9 22.557 1.145 2.556 4.717 2.556 5.861 0 5.99-13.295 19.359-22.557 34.9-22.557h6.257c15.648 0 29.103 9.402 35.029 22.857 1.091 2.492 4.706 2.492 5.797 0 5.926-13.455 19.382-22.857 35.03-22.857h6.257c15.573 0 28.975 9.305 34.943 22.675 1.155 2.578 4.738 2.578 5.893 0 5.968-13.37 19.37-22.675 34.943-22.675h6.257c15.648 0 29.114 9.412 35.029 22.878 1.102 2.492 4.717 2.492 5.808 0 4.361-9.911 12.802-17.627 23.197-21.009 3.728-1.213 7.708-1.869 11.842-1.869l6.257 1c21.13 0 37.259 16.129 37.259 37.259v10.043c0 1.476 2.016 3.749 3.449 4.091 16.76 4.064 28.221 18.178 28.221 36.189v6.257c0 15.648-9.401 29.103-22.857 35.029-2.492 1.091-1.492 5.706 1 6.797z" fill="#f47c7c"/><g fill="#ee6161"><path d="m470.299 143.17c13.46 5.92 22.86 19.38 22.86 35.02v6.26c0 15.65-9.4 29.1-22.86 35.03-2.49 1.09-2.49 4.71 0 5.8 13.46 5.92 22.86 19.38 22.86 35.03v6.25c0 15.65-9.4 29.11-22.86 35.03-2.49 1.09-2.49 4.71 0 5.8 13.46 5.92 22.86 19.38 22.86 35.03v6.25c0 18.02-12.46 33.13-29.22 37.19-1.44.34-2.45 1.62-2.45 3.09v10.24c0 21.13-17.14 38.26-38.26 38.26h-6.26c-4.14 0-8.14-.66-11.87-1.88 15.32-5 26.39-19.4 26.39-36.38v-10.24c0-1.47 1.01-2.75 2.45-3.09 16.76-4.06 29.22-19.17 29.22-37.19v-6.25c0-15.65-9.4-29.11-22.86-35.03-2.49-1.09-2.49-4.71 0-5.8 13.46-5.92 22.86-19.38 22.86-35.03v-6.25c0-15.65-9.4-29.11-22.86-35.03-2.49-1.09-2.49-4.71 0-5.8 13.46-5.93 22.86-19.38 22.86-35.03v-6.26c0-15.64-9.4-29.1-22.86-35.02-2.49-1.1-2.49-4.71 0-5.8 13.46-5.93 22.86-19.38 22.86-35.03v-6.26c0-18.01-12.46-33.12-29.22-37.19-1.44-.34-2.45-1.61-2.45-3.09v-10.04c0-16.99-11.07-31.39-26.39-36.38 3.73-1.22 7.73-1.88 11.87-1.88h6.26c21.13 0 38.26 17.13 38.26 38.26v10.04c0 1.48 1.01 2.75 2.45 3.09 16.76 4.07 29.22 19.18 29.22 37.19v6.26c0 15.65-9.4 29.1-22.86 35.03-2.49 1.09-2.49 4.7 0 5.8z"/><path d="m141.489 178.19v6.26c0 15.65-9.39 29.1-22.84 35.03-2.5 1.09-2.5 4.71 0 5.8 13.45 5.92 22.84 19.38 22.84 35.03v6.25c0 15.65-9.39 29.11-22.84 35.03-2.5 1.09-2.5 4.71 0 5.8 13.45 5.92 22.84 19.38 22.84 35.03v6.25c0 21.13-17.13 38.26-38.26 38.26-.61 0-1.16.25-1.56.65s-.65.96-.65 1.57v1.97c0 33.5-21.65 62.04-51.68 72.36-7.21 2.47-14.59.3-19.41-4.56 24.4-12.79 41.09-38.38 41.09-67.8v-1.97c0-.61.25-1.17.65-1.57s.95-.65 1.56-.65c21.13 0 38.26-17.13 38.26-38.26v-6.25c0-15.65-9.39-29.11-22.84-35.03-2.5-1.09-2.5-4.71 0-5.8 13.45-5.92 22.84-19.38 22.84-35.03v-6.25c0-15.65-9.39-29.11-22.84-35.03-2.5-1.09-2.5-4.71 0-5.8 13.45-5.93 22.84-19.38 22.84-35.03v-6.26c0-15.64-9.39-29.1-22.84-35.02-2.54-1.12-2.43-4.72.1-5.86 8.29-3.67 15.02-10.21 18.95-18.35.97-2.01 3.65-2.41 5.18-.79 4.8 5.07 10.97 8.83 17.92 10.69-3.4 3.55-7.49 6.43-12.05 8.45-2.53 1.14-2.64 4.74-.1 5.86 13.45 5.92 22.84 19.38 22.84 35.02z"/></g></g><g><path d="m500.657 102.339v-6.257c0-20.043-12.851-37.487-31.67-43.552v-6.772c0-25.231-20.527-45.758-45.759-45.758h-6.257c-15.37 0-29.523 7.706-37.94 20.174-8.405-12.465-22.558-20.174-37.935-20.174h-6.257c-15.327 0-29.476 7.688-37.89 20.104-8.419-12.417-22.566-20.104-37.89-20.104h-6.257c-15.363 0-29.51 7.697-37.926 20.152-8.412-12.451-22.562-20.152-37.928-20.152h-6.257c-15.271 0-29.395 7.646-37.83 20.008-8.429-12.359-22.556-20.008-37.832-20.008h-6.257c-25.231 0-45.759 20.527-45.759 45.759v6.771c-18.81 6.052-31.67 23.502-31.67 43.553v6.257c0 15.362 7.697 29.51 20.153 37.926-12.451 8.412-20.153 22.563-20.153 37.929v6.257c0 15.361 7.698 29.509 20.153 37.926-12.452 8.412-20.153 22.563-20.153 37.929v6.257c0 15.362 7.697 29.509 20.153 37.926-12.451 8.412-20.153 22.563-20.153 37.929v6.257c0 24.834 19.885 45.111 44.569 45.744-1.271 12.171-9.521 22.627-21.331 26.61-10.49 3.546-17.537 13.489-17.537 24.742 0 8.58 4.005 16.36 10.988 21.346 4.543 3.244 9.795 4.91 15.145 4.91 2.869 0 5.766-.479 8.596-1.451 32.988-11.337 55.456-41.816 56.691-76.44 5.051-.578 9.853-1.985 14.272-4.076 6.533 14.543 17.404 26.736 31.322 34.891 12.028 7.051 25.434 10.628 38.942 10.628 4.484 0 8.98-.406 13.44-1.199-2.734 10.004-4.113 20.344-4.113 30.911v28.515c0 10.033 8.163 18.196 18.196 18.196h16.043c10.033 0 18.196-8.163 18.196-18.196v-28.517c0-24.29 13.831-46.631 35.085-57.732 3.943 21.248 22.619 37.39 44.992 37.39h6.257c15.38 0 29.535-7.708 37.934-20.158 8.405 12.455 22.56 20.158 37.942 20.158h6.257c25.232 0 45.759-20.527 45.759-45.759v-6.962c18.81-6.053 31.67-23.503 31.67-43.554v-6.257c0-15.361-7.698-29.509-20.152-37.926 12.451-8.412 20.152-22.563 20.152-37.928v-6.257c0-15.363-7.697-29.51-20.153-37.926 8.462-5.716 14.847-14.148 17.994-24.008 1.259-3.946-.918-8.166-4.865-9.425-3.945-1.261-8.165.919-9.425 4.865-2.678 8.392-8.849 15.246-16.915 18.799-3.865 1.691-6.362 5.526-6.362 9.769s2.497 8.078 6.347 9.762c11.165 4.917 18.379 15.972 18.379 28.165v6.257c0 12.192-7.214 23.248-18.364 28.158-3.865 1.691-6.362 5.526-6.362 9.769s2.497 8.078 6.347 9.762c11.165 4.917 18.379 15.972 18.379 28.165v6.257c0 14.251-9.659 26.547-23.462 29.895-4.832 1.154-8.208 5.425-8.208 10.386v10.236c0 16.96-13.798 30.759-30.759 30.759h-6.257c-12.209 0-23.267-7.216-28.169-18.376-1.688-3.857-5.516-6.353-9.75-6.361-.007 0-.013 0-.02 0-4.232 0-8.065 2.485-9.775 6.353-4.905 11.168-15.959 18.384-28.162 18.384h-6.257c-16.961 0-30.759-13.798-30.759-30.759 0-3.077-1.513-5.955-4.046-7.7-2.54-1.75-5.777-2.137-8.657-1.039-30.873 11.762-51.615 41.837-51.615 74.839v28.515c0 1.762-1.434 3.196-3.196 3.196h-16.043c-1.762 0-3.196-1.434-3.196-3.196v-28.516c0-14.753 3.079-28.995 9.152-42.331 1.717-3.77.052-8.217-3.717-9.934-3.77-1.717-8.217-.052-9.934 3.717-.1.219-.192.441-.29.661-16.987 5.613-35.368 3.708-50.894-5.394-12.044-7.056-21.256-17.862-26.342-30.74 8.441-8.306 13.69-19.846 13.69-32.596v-6.257c0-15.365-7.696-29.514-20.146-37.929 6.501-4.397 11.82-10.431 15.358-17.525 1.848-3.707.342-8.21-3.365-10.059-3.706-1.847-8.21-.342-10.059 3.365-3.207 6.431-8.589 11.565-15.141 14.451-3.865 1.691-6.362 5.526-6.362 9.769s2.497 8.078 6.347 9.762c11.158 4.914 18.369 15.969 18.369 28.165v6.257c0 16.96-13.798 30.759-30.759 30.759-5.356 0-9.714 4.358-9.714 9.714v1.979c0 29.453-18.735 55.681-46.618 65.263-3.465 1.191-7.167.652-10.153-1.48-2.99-2.134-4.704-5.465-4.704-9.138 0-4.815 2.95-9.048 7.336-10.53 18.962-6.395 31.703-24.124 31.703-44.114v-1.979c0-5.356-4.357-9.714-9.714-9.714h-4.268c-16.96 0-30.759-13.798-30.759-30.759v-6.257c0-12.192 7.214-23.248 18.364-28.158 3.865-1.691 6.362-5.526 6.362-9.769s-2.497-8.078-6.346-9.762c-11.166-4.918-18.38-15.973-18.38-28.165v-6.257c0-12.193 7.214-23.248 18.364-28.158 3.865-1.691 6.362-5.526 6.362-9.769s-2.497-8.078-6.346-9.762c-11.166-4.918-18.38-15.973-18.38-28.165v-6.257c0-12.193 7.214-23.248 18.364-28.158 3.864-1.691 6.361-5.525 6.362-9.768 0-4.243-2.497-8.078-6.347-9.764-11.165-4.917-18.379-15.972-18.379-28.165v-6.257c0-14.251 9.659-26.547 23.463-29.894 4.832-1.154 8.207-5.425 8.207-10.386v-10.043c0-16.961 13.799-30.759 30.759-30.759h6.257c12.083 0 23.098 7.12 28.055 18.123 1.728 3.859 5.565 6.352 9.776 6.352s8.048-2.493 9.769-6.336c4.963-11.019 15.978-18.139 28.061-18.139h6.257c12.192 0 23.247 7.214 28.158 18.365 1.692 3.864 5.526 6.361 9.769 6.361 4.242 0 8.077-2.497 9.762-6.347 4.918-11.165 15.973-18.379 28.166-18.379h6.257c12.122 0 23.15 7.157 28.099 18.242 1.733 3.868 5.576 6.367 9.791 6.367s8.058-2.499 9.795-6.376c4.945-11.076 15.972-18.233 28.094-18.233h6.257c12.2 0 23.253 7.22 28.169 18.412 1.703 3.851 5.535 6.336 9.768 6.336h.02c4.234-.008 8.062-2.504 9.745-6.349 4.918-11.177 15.977-18.399 28.174-18.399h6.257c16.961 0 30.759 13.798 30.759 30.759v10.043c0 4.961 3.375 9.232 8.182 10.379 13.83 3.354 23.488 15.649 23.488 29.901v6.257c0 12.192-7.214 23.247-18.365 28.158-3.864 1.692-6.361 5.527-6.361 9.77s2.497 8.077 6.347 9.761c7.253 3.194 12.935 8.976 16 16.281 1.603 3.821 6 5.617 9.817 4.014 3.82-1.602 5.617-5.998 4.014-9.817-3.486-8.309-9.249-15.292-16.598-20.243 12.449-8.412 20.146-22.56 20.146-37.924z"/><path d="m396.362 232.147c3.865-1.691 6.362-5.526 6.362-9.769s-2.497-8.078-6.346-9.762c-11.159-4.915-18.369-15.97-18.369-28.165v-6.257c0-12.195 7.21-23.251 18.36-28.161 3.833-1.682 6.32-5.479 6.334-9.672.015-4.266-2.494-8.149-6.411-9.901-6.7-2.976-12.126-8.256-15.286-14.878-1.522-3.179-4.508-5.399-7.986-5.94-3.493-.545-7.022.67-9.464 3.265-5.792 6.191-13.978 9.742-22.46 9.742h-6.257c-12.121 0-23.149-7.153-28.099-18.232-1.733-3.867-5.577-6.366-9.791-6.366s-8.058 2.499-9.794 6.374c-4.946 11.07-15.974 18.224-28.095 18.224h-6.257c-12.195 0-23.251-7.21-28.159-18.354-1.692-3.864-5.526-6.361-9.769-6.361s-8.077 2.497-9.763 6.347c-4.914 11.158-15.969 18.369-28.165 18.369h-6.257c-8.54 0-16.482-3.421-22.364-9.638-2.424-2.558-5.947-3.76-9.431-3.211-3.468.545-6.442 2.759-7.943 5.896-3.176 6.567-8.589 11.811-15.264 14.773-3.898 1.744-6.408 5.627-6.393 9.892.015 4.193 2.501 7.99 6.326 9.668 11.158 4.914 18.369 15.969 18.369 28.165v6.257c0 12.195-7.21 23.251-18.353 28.158-3.865 1.691-6.362 5.526-6.362 9.769s2.497 8.078 6.346 9.762c8.611 3.792 15.127 11.487 17.43 20.584 1.016 4.016 5.092 6.446 9.111 5.43 4.016-1.016 6.447-5.096 5.43-9.111-.433-1.712-.978-3.385-1.605-5.022 11.56-1.267 23.158 1.178 33.421 7.193 25.986 15.232 34.735 48.766 19.503 74.753-2.095 3.573-.896 8.169 2.678 10.263 1.192.699 2.497 1.031 3.786 1.031 2.574 0 5.081-1.327 6.477-3.709 11.834-20.189 12.293-43.944 3.361-63.819 15.498-25.211 48.49-33.554 74.142-18.519 21.024 12.324 31.302 37.491 25.261 60.825-14.779 7.314-25.073 22.37-25.523 39.839-22.119 5.978-41.819 18.202-57.193 35.54-2.748 3.099-2.463 7.839.636 10.587 1.428 1.267 3.204 1.889 4.973 1.889 2.071 0 4.132-.853 5.614-2.524 14.295-16.121 32.861-27.173 53.693-31.964 4.276-.983 7.262-4.729 7.262-9.108v-3.229c0-16.96 13.798-30.759 30.759-30.759h6.257c8.568 0 16.533 3.444 22.422 9.694 2.428 2.58 5.967 3.79 9.459 3.241 3.484-.549 6.467-2.782 7.98-5.974 3.161-6.676 8.605-11.994 15.354-14.984 3.898-1.744 6.408-5.627 6.393-9.893-.015-4.193-2.501-7.99-6.325-9.668-11.159-4.915-18.369-15.97-18.369-28.165v-6.257c.001-12.195 7.211-23.251 18.354-28.158zm-189.605 23.493c-5.275-6.808-11.89-12.752-19.763-17.367-15.085-8.842-32.433-11.636-49.361-8.089-2.584-2.951-5.535-5.583-8.797-7.798 5.073-3.426 9.34-7.816 12.637-12.843 17.981-3.278 34.087-13.558 44.607-28.598 2.374-3.394 1.547-8.07-1.848-10.444-3.393-2.372-8.069-1.547-10.444 1.848-6.338 9.062-15.269 15.905-25.46 19.766.426-2.507.663-5.065.663-7.663v-6.257c0-15.367-7.699-29.519-20.149-37.931 5.08-3.434 9.434-7.865 12.79-13.03 8.143 6.673 18.457 10.416 29.058 10.416h6.257c15.363 0 29.511-7.694 37.926-20.143 2.575 3.811 5.693 7.17 9.215 10.006-9.036 17.11-13.186 36.796-11.718 56.194 1.436 18.971 7.935 36.767 18.891 52.061-9.386 4.552-17.818 11.254-24.504 19.872zm157.902-7.447c-22.05-12.471-32.943-38.85-25.086-63.854 1.242-3.952-.956-8.162-4.907-9.404-3.954-1.241-8.162.956-9.404 4.907-10.676 33.977 5.813 69.95 37.746 84.306v2.413c0 15.367 7.696 29.516 20.146 37.929-5.164 3.49-9.573 8.009-12.944 13.281-8.156-6.703-18.49-10.462-29.115-10.462h-6.257c-1.38 0-2.743.071-4.092.191 1.478-11.251.21-22.829-3.804-33.569-5.577-14.924-16.232-27.588-30.001-35.659-15.944-9.347-34.113-11.591-50.841-7.73-10.958-13.818-17.435-30.3-18.772-47.97-1.246-16.461 2.231-33.161 9.828-47.703 4.932 1.796 10.209 2.777 15.645 2.777h6.257c15.324 0 29.474-7.686 37.89-20.097 2.288 3.373 5.01 6.382 8.052 8.997-11.994 14.622-18.402 33.234-17.764 52.303.135 4.054 3.465 7.249 7.491 7.249.085 0 .17-.001.255-.004 4.14-.138 7.383-3.606 7.245-7.747-.54-16.142 5.173-31.875 15.772-43.928 5.271 2.091 10.966 3.228 16.839 3.228h6.257c10.685 0 21.054-3.788 29.203-10.531 3.357 5.211 7.737 9.684 12.857 13.145-12.448 8.41-20.147 22.562-20.147 37.931v6.257c0 15.363 7.694 29.51 20.143 37.926-9.076 6.136-15.611 15.331-18.492 25.818z"/></g></g></svg>