<svg id="Capa_1" enable-background="new 0 0 512.002 512.002" height="512" viewBox="0 0 512.002 512.002" width="512" xmlns="http://www.w3.org/2000/svg"><g><g><path d="m393.018 444.501h-274.033v50c0 5.523 4.477 10 10 10h254.033c5.523 0 10-4.477 10-10z" fill="#eaf6ff"/><path d="m363.018 444.501v50c0 5.523-4.477 10-10 10h30c5.523 0 10-4.477 10-10v-50z" fill="#d8ecfe"/><path d="m391.001 459.501h-270c-16.569 0-30-13.431-30-30v-120l15-76-15-98v-98c0-16.569 13.431-30 30-30h270c16.569 0 30 13.431 30 30v98l-15 87 15 87v120c0 16.569-13.431 30-30 30z" fill="#8fd8fa"/><path d="m391.001 7.501h-30c16.569 0 30 13.431 30 30v392c0 16.568-13.431 30-30 30h30c16.569 0 30-13.432 30-30v-120l-15-91.269 15-82.731v-98c0-16.568-13.431-30-30-30z" fill="#6bcdfe"/><path d="m346.001 135.501h-180c-3.866 0-7-3.134-7-7v-49c0-3.866 3.134-7 7-7h180c3.866 0 7 3.134 7 7v49c0 3.866-3.134 7-7 7z" fill="#eaf6ff"/><path d="m346.001 72.501h-30c3.866 0 7 3.134 7 7v49c0 3.866-3.134 7-7 7h30c3.866 0 7-3.134 7-7v-49c0-3.866-3.134-7-7-7z" fill="#d8ecfe"/><path d="m421.001 309.501v-174h-15c-16.569 0-30 13.431-30 30v114c0 16.569 13.431 30 30 30z" fill="#eaf6ff"/><path d="m406.001 135.501c-5.466 0-10.586 1.469-15 4.023v165.953c4.414 2.554 9.534 4.023 15 4.023h15v-174h-15z" fill="#d8ecfe"/><path d="m91.001 309.501v-174h15c16.569 0 30 13.431 30 30v114c0 16.569-13.431 30-30 30z" fill="#eaf6ff"/></g><path d="m458.84 157.117c16.222 0 32.268-4.209 46.402-12.173l2.94-1.656c3.609-2.033 4.886-6.606 2.853-10.216-2.033-3.608-6.606-4.885-10.215-2.853l-2.94 1.656c-11.893 6.7-25.392 10.241-39.04 10.241-4.142 0-7.5 3.357-7.5 7.5s3.358 7.501 7.5 7.501zm-67.839-157.116h-270c-20.678 0-37.5 16.822-37.5 37.5v392c0 17.389 11.898 32.048 27.98 36.272v28.728c0 9.649 7.851 17.5 17.5 17.5h254.04c9.649 0 17.5-7.851 17.5-17.5v-28.728c16.082-4.224 27.98-18.883 27.98-36.272v-41.064c0-4.143-3.358-7.5-7.5-7.5s-7.5 3.357-7.5 7.5v41.064c0 12.406-10.093 22.5-22.5 22.5h-270c-12.407 0-22.5-10.094-22.5-22.5v-112.5h7.5c20.678 0 37.5-16.822 37.5-37.5v-114c0-20.678-16.822-37.5-37.5-37.5h-7.5v-90.5c0-12.406 10.093-22.5 22.5-22.5h270c12.407 0 22.5 10.094 22.5 22.5v90.5h-7.5c-20.678 0-37.5 16.822-37.5 37.5v114c0 20.678 16.822 37.5 37.5 37.5h7.5v36.436c0 4.143 3.358 7.5 7.5 7.5s7.5-3.357 7.5-7.5v-315.936c0-20.678-16.822-37.5-37.5-37.5zm-264.52 467h259.04v27.5c0 1.379-1.122 2.5-2.5 2.5h-254.04c-1.378 0-2.5-1.121-2.5-2.5zm-20.48-324c12.407 0 22.5 10.094 22.5 22.5v114c0 12.406-10.093 22.5-22.5 22.5h-7.5v-159zm307.5 159h-7.5c-12.407 0-22.5-10.094-22.5-22.5v-114c0-12.406 10.093-22.5 22.5-22.5h7.5zm-360.339-107.384c-13.648 0-27.147-3.541-39.04-10.241l-2.94-1.656c-3.609-2.034-8.183-.755-10.215 2.853-2.033 3.609-.756 8.183 2.853 10.216l2.939 1.656c14.135 7.964 30.181 12.173 46.403 12.173 4.142 0 7.5-3.357 7.5-7.5s-3.358-7.501-7.5-7.501zm0 85.768c-16.222 0-32.268 4.209-46.402 12.173l-2.94 1.656c-3.609 2.033-4.886 6.606-2.853 10.216 1.377 2.445 3.921 3.819 6.541 3.819 1.247 0 2.511-.312 3.674-.967l2.94-1.656c11.893-6.7 25.392-10.241 39.04-10.241 4.142 0 7.5-3.357 7.5-7.5s-3.358-7.5-7.5-7.5zm0-45c-16.222 0-32.268 4.209-46.402 12.173l-2.94 1.656c-3.609 2.033-4.886 6.606-2.853 10.216 1.377 2.445 3.921 3.819 6.541 3.819 1.247 0 2.511-.312 3.674-.967l2.94-1.656c11.893-6.7 25.392-10.241 39.04-10.241 4.142 0 7.5-3.357 7.5-7.5s-3.358-7.5-7.5-7.5zm0-85.768c-13.648 0-27.147-3.541-39.04-10.241l-2.94-1.656c-3.609-2.036-8.183-.755-10.215 2.853-2.033 3.609-.756 8.183 2.853 10.216l2.939 1.656c14.135 7.964 30.181 12.173 46.403 12.173 4.142 0 7.5-3.357 7.5-7.5s-3.358-7.501-7.5-7.501zm299.839 227.384h-194c-4.142 0-7.5 3.357-7.5 7.5s3.358 7.5 7.5 7.5h194c4.142 0 7.5-3.357 7.5-7.5s-3.358-7.5-7.5-7.5zm155.181-90.287-2.939-1.656c-14.135-7.964-30.181-12.173-46.403-12.173-4.142 0-7.5 3.357-7.5 7.5s3.358 7.5 7.5 7.5c13.648 0 27.147 3.541 39.04 10.241l2.94 1.656c3.545 2.004 8.162.792 10.215-2.853 2.034-3.608.756-8.182-2.853-10.215zm-147.681-207.213c0-7.995-6.505-14.5-14.5-14.5h-100.092c-4.142 0-7.5 3.357-7.5 7.5s3.358 7.5 7.5 7.5h99.592v48h-179v-48h44.408c4.142 0 7.5-3.357 7.5-7.5s-3.358-7.5-7.5-7.5h-44.908c-7.995 0-14.5 6.505-14.5 14.5v49c0 7.995 6.505 14.5 14.5 14.5h180c7.995 0 14.5-6.505 14.5-14.5zm140.319 95.719-2.94 1.656c-11.893 6.7-25.392 10.241-39.04 10.241-4.142 0-7.5 3.357-7.5 7.5s3.358 7.5 7.5 7.5c16.222 0 32.268-4.209 46.402-12.173l2.94-1.656c3.609-2.033 4.886-6.606 2.853-10.216-2.032-3.608-6.606-4.885-10.215-2.852zm7.362 66.494-2.939-1.656c-14.135-7.964-30.181-12.173-46.403-12.173-4.142 0-7.5 3.357-7.5 7.5s3.358 7.5 7.5 7.5c13.648 0 27.147 3.541 39.04 10.241l2.94 1.656c3.542 2.002 8.162.792 10.215-2.853 2.034-3.608.756-8.182-2.853-10.215zm-155.181 165.287h-194c-4.142 0-7.5 3.357-7.5 7.5s3.358 7.5 7.5 7.5h194c4.142 0 7.5-3.357 7.5-7.5s-3.358-7.5-7.5-7.5zm0-90h-194c-4.142 0-7.5 3.357-7.5 7.5s3.358 7.5 7.5 7.5h194c4.142 0 7.5-3.357 7.5-7.5s-3.358-7.5-7.5-7.5zm0 30h-194c-4.142 0-7.5 3.357-7.5 7.5s3.358 7.5 7.5 7.5h194c4.142 0 7.5-3.357 7.5-7.5s-3.358-7.5-7.5-7.5z"/></g></svg>