<svg id="Capa_1" enable-background="new 0 0 512 512" height="512" viewBox="0 0 512 512" width="512" xmlns="http://www.w3.org/2000/svg"><g><g><path d="m256.001 504.5c-46.127 0-83.52-37.393-83.52-83.52v-254.03c0-18.237-5.525-36.046-15.847-51.081l-29.153-42.466h257.039l-29.153 42.466c-10.322 15.035-15.847 32.844-15.847 51.081v254.03c.001 46.127-37.392 83.52-83.519 83.52z" fill="#aee69c"/><path d="m354.521 73.403-29.153 42.466c-10.322 15.035-15.847 32.844-15.847 51.081v254.03c0 41.003-29.556 75.08-68.52 82.15 4.869.884 9.876 1.37 15 1.37 46.127 0 83.52-37.393 83.52-83.52v-254.03c0-18.237 5.525-36.046 15.847-51.081l29.153-42.466z" fill="#89daa4"/><path d="m377.905 89.5h-243.808c-4.995 0-8.768-4.526-7.869-9.44l12.073-66c.695-3.8 4.006-6.56 7.869-6.56h219.661c3.863 0 7.174 2.76 7.869 6.56l12.073 66c.9 4.914-2.873 9.44-7.868 9.44z" fill="#eaf6ff"/><path d="m385.774 80.061-12.073-66c-.695-3.8-4.006-6.561-7.869-6.561h-30c3.863 0 7.174 2.76 7.869 6.561l12.073 66c.899 4.913-2.875 9.439-7.869 9.439h30c4.995 0 8.768-4.526 7.869-9.439z" fill="#d8ecfe"/><path d="m254.182 215.203c-11.444 0-18.902 3.451-18.902-7.993v-52.095c0-11.444 9.277-20.721 20.721-20.721 11.444 0 20.721 9.277 20.721 20.721v52.095c0 11.444-22.54 7.993-22.54 7.993z" fill="#89daa4"/><circle cx="256.001" cy="207.21" fill="#eaf6ff" r="20.721"/><path d="m256.001 459.5c-23.616 0-42.76-19.145-42.76-42.76v-101.154c0-23.616 19.144-42.76 42.76-42.76 23.616 0 42.76 19.144 42.76 42.76v101.154c0 23.615-19.144 42.76-42.76 42.76z" fill="#dbf1d0"/></g><path d="m393.152 78.711-12.073-66c-1.348-7.365-7.76-12.711-15.247-12.711h-219.662c-7.487 0-13.899 5.346-15.247 12.711l-12.073 66c-1.812 9.381 6.007 18.72 15.732 18.289l15.868 23.118c9.506 13.832 14.531 30.026 14.531 46.832v148.007c0 4.143 3.358 7.5 7.5 7.5s7.5-3.357 7.5-7.5v-148.007c0-19.854-5.937-38.985-17.167-55.324l-10.039-14.626h95.726v30.914c-11.931 3.294-20.721 14.237-20.721 27.201v52.095c0 12.964 8.79 23.907 20.721 27.201v31.476c-24.169 3.632-42.76 24.533-42.76 49.699v101.153c0 27.714 22.547 50.261 50.26 50.261s50.26-22.547 50.26-50.261v-101.153c0-25.165-18.592-46.067-42.76-49.699v-31.476c11.931-3.294 20.721-14.237 20.721-27.201v-52.095c0-12.964-8.79-23.907-20.721-27.201v-30.914h32.5c4.142 0 7.5-3.357 7.5-7.5s-3.358-7.5-7.5-7.5h-161.904c-.241.027-.561-.359-.492-.59l12.073-66c.043-.237.25-.41.492-.41h12.331v15.729c0 4.143 3.358 7.5 7.5 7.5s7.5-3.357 7.5-7.5v-15.729h15v15.729c0 4.143 3.358 7.5 7.5 7.5s7.5-3.357 7.5-7.5v-15.729h15v15.729c0 4.143 3.358 7.5 7.5 7.5s7.5-3.357 7.5-7.5v-15.729h15v15.729c0 4.143 3.358 7.5 7.5 7.5s7.5-3.357 7.5-7.5v-15.729h15v15.729c0 4.143 3.358 7.5 7.5 7.5s7.5-3.357 7.5-7.5v-15.729h15v15.729c0 4.143 3.358 7.5 7.5 7.5s7.5-3.357 7.5-7.5v-15.729h15v15.729c0 4.143 3.358 7.5 7.5 7.5s7.5-3.357 7.5-7.5v-15.729h12.331c.242 0 .449.173.492.41l12.073 65.999c.067.227-.251.618-.492.591h-46.904c-4.142 0-7.5 3.357-7.5 7.5s3.358 7.5 7.5 7.5h28.225l-10.036 14.622c-11.232 16.343-17.169 35.475-17.169 55.328v254.03c0 41.917-34.103 76.02-76.02 76.02s-76.02-34.103-76.02-76.02v-71.023c0-4.143-3.358-7.5-7.5-7.5s-7.5 3.357-7.5 7.5v71.023c0 50.188 40.832 91.02 91.02 91.02s91.02-40.831 91.02-91.02v-254.03c0-16.806 5.025-33 14.534-46.836l15.865-23.114c9.601.226 17.549-8.72 15.732-18.289zm-101.891 236.875v101.153c0 19.442-15.818 35.261-35.26 35.261s-35.26-15.818-35.26-35.261v-101.153c0-19.421 15.783-35.224 35.196-35.259.022 0 .043.003.064.003s.043-.003.064-.003c19.413.035 35.196 15.838 35.196 35.259zm-35.25-95.156c-.003 0-.006 0-.01 0s-.006 0-.01 0c-7.286-.005-13.212-5.933-13.212-13.22 0-7.29 5.931-13.221 13.221-13.221s13.221 5.931 13.221 13.221c.001 7.287-5.925 13.215-13.21 13.22zm13.211-65.315v27.173c-3.947-2.102-8.446-3.299-13.221-3.299s-9.274 1.196-13.221 3.299v-27.173c0-7.29 5.931-13.221 13.221-13.221s13.221 5.931 13.221 13.221z"/></g></svg>