<svg id="Capa_1" enable-background="new 0 0 512 512" height="512" viewBox="0 0 512 512" width="512" xmlns="http://www.w3.org/2000/svg"><g><g><g><g><g><g><path d="m259.277 27.502v301.881c0 15.451-6.136 30.27-17.059 41.199l-112.969 113.022c-27.848 27.861-73.012 27.861-100.86 0-27.507-27.52-27.901-72.003-.885-100.006l85.482-88.604c3.493-3.621 5.446-8.456 5.446-13.488v-254.004c0-11.046 8.954-20 20-20h100.846c11.045 0 19.999 8.955 19.999 20z" fill="#aee69c"/><path d="m239.277 7.502h-30c11.046 0 20 8.954 20 20v301.881c0 15.452-6.136 30.271-17.06 41.199l-112.968 113.022c-10.086 10.091-22.447 16.507-35.43 19.288 22.865 4.898 47.668-1.518 65.43-19.288l112.969-113.022c10.923-10.928 17.06-25.747 17.06-41.199v-301.881c-.001-11.045-8.955-20-20.001-20z" fill="#89daa4"/><path d="m239.277 7.502h-100.845c-11.046 0-20 8.954-20 20v95.965h140.845v-95.965c0-11.045-8.954-20-20-20z" fill="#ffe179"/><path d="m239.277 7.502h-30c11.046 0 20 8.954 20 20v95.965h30v-95.965c0-11.045-8.954-20-20-20z" fill="#fbd268"/><path d="m259.277 287.68c-3.215-.486-6.506-.741-9.856-.741-36.146 0-65.448 29.316-65.448 65.479 0 20.875 9.775 39.453 24.982 51.443l33.266-33.282c10.921-10.926 17.055-25.743 17.055-41.195v-41.704z" fill="#ffe179"/><path d="m229.277 290.113v39.27c0 15.452-6.136 30.271-17.06 41.199l-17.602 17.61c3.905 5.969 8.753 11.265 14.339 15.668l33.263-33.278c9.346-9.35 15.173-21.551 16.665-34.557.252-2.195.395-4.41.395-6.642v-41.703c-3.215-.486-6.506-.741-9.856-.741-7.031-.001-13.797 1.121-20.144 3.174z" fill="#fbd268"/><path d="m105.033 475.687c0-46.454-37.024-84.232-83.157-85.473-21.152 28.011-18.916 67.95 6.512 93.39 19.713 19.723 48.091 25.467 72.871 17.271 2.45-7.964 3.774-16.422 3.774-25.188z" fill="#ffe179"/><path d="m99.249 483.604c-10.086 10.091-22.447 16.507-35.43 19.288.001.001.003.004.004.005 12.386 2.648 25.34 1.979 37.437-2.023 2.291-7.451 3.537-15.219 3.732-23.012 0-.001 0-.003 0-.004z" fill="#fbd268"/></g></g></g><g><g><g><path d="m504.5 27.502v301.881c0 15.451-6.136 30.27-17.059 41.199l-112.969 113.022c-27.848 27.861-73.012 27.861-100.86 0-27.507-27.52-27.901-72.003-.885-100.006l85.482-88.604c3.493-3.621 5.446-8.456 5.446-13.488v-254.004c0-11.046 8.954-20 20-20h100.845c11.046 0 20 8.955 20 20z" fill="#aee69c"/><path d="m484.5 7.502h-30c11.046 0 20 8.954 20 20v301.881c0 15.452-6.136 30.271-17.06 41.199l-112.968 113.022c-10.086 10.091-22.447 16.507-35.43 19.288 22.865 4.898 47.668-1.518 65.43-19.288l112.968-113.022c10.923-10.928 17.06-25.747 17.06-41.199v-301.881c0-11.045-8.954-20-20-20z" fill="#89daa4"/><path d="m484.5 7.502h-100.845c-11.046 0-20 8.954-20 20v95.965h140.845v-95.965c0-11.045-8.954-20-20-20z" fill="#ffe179"/><path d="m484.5 7.502h-30c11.046 0 20 8.954 20 20v95.965h30v-95.965c0-11.045-8.954-20-20-20z" fill="#fbd268"/><path d="m504.5 287.68c-3.215-.486-6.506-.741-9.856-.741-36.146 0-65.448 29.316-65.448 65.479 0 20.875 9.775 39.453 24.982 51.443l33.266-33.282c10.921-10.926 17.055-25.743 17.055-41.195v-41.704z" fill="#ffe179"/><path d="m474.5 290.113v39.27c0 15.452-6.136 30.271-17.06 41.199l-17.602 17.61c3.905 5.969 8.753 11.265 14.339 15.668l33.263-33.278c9.346-9.35 15.173-21.551 16.665-34.557.252-2.195.395-4.41.395-6.642v-41.703c-3.215-.486-6.506-.741-9.856-.741-7.031-.001-13.797 1.121-20.144 3.174z" fill="#fbd268"/><path d="m350.256 475.687c0-46.454-37.024-84.232-83.157-85.473-21.152 28.011-18.916 67.95 6.512 93.39 19.713 19.723 48.091 25.467 72.871 17.271 2.45-7.964 3.774-16.422 3.774-25.188z" fill="#ffe179"/><path d="m344.472 483.604c-10.086 10.091-22.447 16.507-35.43 19.288.001.001.003.004.004.005 12.386 2.648 25.34 1.979 37.437-2.023 2.291-7.451 3.537-15.219 3.732-23.012 0-.001 0-.003 0-.004z" fill="#fbd268"/></g></g></g></g><path d="m132.284 167.352-2.687.855c-18.804 5.983-33.538 20.717-39.521 39.521l-.855 2.687c-1.309 4.115-7.132 4.115-8.441 0l-.855-2.687c-5.983-18.804-20.717-33.538-39.521-39.521l-2.687-.855c-4.115-1.309-4.115-7.132 0-8.441l2.687-.855c18.804-5.983 33.538-20.717 39.521-39.521l.855-2.687c1.309-4.115 7.132-4.115 8.441 0l.855 2.687c5.983 18.804 20.717 33.538 39.521 39.521l2.687.855c4.115 1.309 4.115 7.132 0 8.441z" fill="#eaf6ff"/><path d="m132.284 158.911-2.687-.855c-18.805-5.983-33.539-20.716-39.522-39.522l-.855-2.688c-1.309-4.115-7.132-4.115-8.441 0l-.855 2.688c-2.2 6.914-5.591 13.271-9.924 18.851 7.452 9.598 17.706 16.887 29.597 20.67 4.949 1.574 4.949 8.577 0 10.151-11.891 3.785-22.145 11.074-29.597 20.672 4.333 5.581 7.724 11.937 9.924 18.851l.855 2.688c1.309 4.115 7.132 4.115 8.441 0l.853-2.683c5.983-18.806 20.717-33.542 39.523-39.526l2.688-.855c4.116-1.31 4.115-7.133 0-8.442z" fill="#d8ecfe"/><path d="m374.732 230.614-2.265.721c-15.845 5.042-28.261 17.457-33.302 33.302l-.721 2.265c-1.103 3.467-6.01 3.467-7.113 0l-.721-2.265c-5.042-15.845-17.457-28.261-33.302-33.302l-2.265-.721c-3.467-1.103-3.467-6.01 0-7.113l2.265-.721c15.845-5.042 28.261-17.457 33.302-33.302l.721-2.265c1.103-3.467 6.01-3.467 7.113 0l.721 2.265c5.042 15.845 17.457 28.261 33.302 33.302l2.265.721c3.468 1.104 3.468 6.01 0 7.113z" fill="#eaf6ff"/><path d="m374.732 223.501-2.265-.721c-15.845-5.043-28.26-17.457-33.302-33.302l-.721-2.265c-1.103-3.467-6.009-3.467-7.113 0l-.721 2.265c-2.236 7.029-5.929 13.377-10.723 18.711 6.013 6.692 13.762 11.786 22.579 14.591 4.17 1.327 4.17 7.227 0 8.554-8.817 2.805-16.566 7.899-22.579 14.591 4.794 5.334 8.487 11.683 10.723 18.711l.721 2.265c1.103 3.467 6.009 3.467 7.113 0l.721-2.265c5.043-15.847 17.46-28.262 33.307-33.304l2.26-.719c3.468-1.102 3.468-6.008 0-7.112z" fill="#d8ecfe"/></g><path d="m266.78 329.382v-87.324c0-4.143-3.357-7.5-7.5-7.5s-7.5 3.357-7.5 7.5v37.425c-41.064-1.372-75.308 31.859-75.308 72.934 0 19.669 7.763 38.122 21.549 51.773l-74.077 74.109c-3.724 3.725-7.829 6.93-12.224 9.585.53-4.032.812-8.103.812-12.197 0-24.404-9.379-47.463-26.409-64.928-13.417-13.76-30.424-22.84-48.947-26.385l81.213-84.175c4.862-5.044 7.54-11.684 7.54-18.696v-103.856c1.922-.876 3.904-1.645 5.941-2.293l2.686-.854c4.973-1.581 8.313-6.149 8.313-11.367 0-5.219-3.341-9.787-8.312-11.367l-2.688-.855c-2.037-.648-4.02-1.417-5.941-2.293v-17.649h125.852v76.091c0 4.143 3.357 7.5 7.5 7.5s7.5-3.357 7.5-7.5v-179.558c0-15.163-12.337-27.5-27.5-27.5h-100.85c-15.163 0-27.5 12.337-27.5 27.5v110.848c-6.234-6.048-11.004-13.596-13.707-22.09l-.855-2.688c-1.582-4.972-6.15-8.312-11.367-8.312s-9.785 3.34-11.367 8.312l-.856 2.688c-5.235 16.458-18.188 29.41-34.647 34.648l-2.686.854c-4.973 1.581-8.313 6.149-8.313 11.368 0 5.218 3.341 9.786 8.312 11.366l2.688.855c16.46 5.238 29.412 18.19 34.648 34.649l.855 2.688c1.582 4.972 6.15 8.312 11.367 8.312s9.785-3.34 11.367-8.312l.856-2.688c2.702-8.494 7.472-16.042 13.706-22.089v93.589c0 3.109-1.186 6.052-3.337 8.283l-85.491 88.609c-14.18 14.705-22.103 34.076-22.103 54.75 0 21.072 8.199 40.876 23.085 55.763 14.887 14.892 34.681 23.093 55.735 23.093s40.848-8.201 55.734-23.094l112.971-113.021c12.417-12.427 19.255-28.942 19.255-46.501zm-136.768-169.177c-.001 0-.002.001-.002.001l-.006.001c.003 0 .005-.001.008-.002zm-4.082-132.703c0-6.893 5.607-12.5 12.5-12.5h100.85c6.893 0 12.5 5.607 12.5 12.5v88.465h-125.85zm-40.93 172.317c-6.924-16.549-20.137-29.763-36.687-36.688 16.551-6.924 29.764-20.137 36.687-36.687 6.952 16.629 20.223 29.755 36.687 36.688-16.154 6.755-29.928 20.538-36.687 36.687zm10.137 295.07c-5.261 1.382-10.732 2.108-16.317 2.108-17.047 0-33.073-6.641-45.127-18.699-12.054-12.053-18.693-28.09-18.693-45.156 0-12.685 3.712-24.853 10.595-35.226 18.898 1.448 36.453 9.638 49.79 23.315 14.282 14.647 22.148 33.987 22.148 54.456 0 6.506-.813 12.946-2.396 19.202zm113.491-101.309c-10.975-10.851-17.156-25.524-17.156-41.162 0-32.912 27.482-59.265 60.308-57.928v34.893c0 13.555-5.279 26.304-14.865 35.898zm275.872-393.578h-100.85c-15.163 0-27.5 12.337-27.5 27.5v176.39c-4.423-4.703-7.829-10.373-9.838-16.685l-.721-2.268c-1.489-4.682-5.791-7.826-10.703-7.826s-9.214 3.145-10.703 7.826l-.721 2.265c-4.298 13.504-14.926 24.132-28.43 28.43l-2.265.721c-4.682 1.489-7.826 5.791-7.826 10.703s3.145 9.214 7.826 10.703l2.266.722c13.504 4.296 24.131 14.924 28.429 28.429l.721 2.265c1.489 4.682 5.791 7.826 10.703 7.826s9.214-3.145 10.704-7.829l.719-2.262c2.009-6.313 5.416-11.985 9.839-16.688v31.279c0 3.108-1.187 6.051-3.338 8.283l-85.48 88.609c-13.879 14.403-22.112 34.749-22.112 54.758 0 21.064 8.199 40.864 23.086 55.752 14.887 14.892 34.68 23.093 55.734 23.093s40.848-8.201 55.734-23.094l28.753-28.765c2.928-2.929 2.927-7.678-.003-10.606-2.93-2.93-7.679-2.929-10.606.003l-28.753 28.764c-3.723 3.724-7.827 6.928-12.221 9.583.53-4.031.812-8.102.812-12.195 0-24.404-9.379-47.463-26.408-64.928-13.417-13.759-30.422-22.838-48.942-26.385l81.204-84.177c4.863-5.044 7.541-11.683 7.541-18.695v-41.68c1.175-.491 2.367-.951 3.592-1.34l2.265-.721c4.682-1.489 7.826-5.791 7.826-10.703s-3.145-9.214-7.826-10.703l-2.265-.721c-1.225-.39-2.417-.849-3.592-1.34v-83.327h125.849v148.516c-41.059-1.373-75.305 31.866-75.305 72.934 0 19.668 7.763 38.121 21.548 51.772l-20.513 20.522c-2.928 2.929-2.927 7.678.003 10.606 2.929 2.928 7.679 2.927 10.606-.003 14.725-14.735 44.81-44.823 59.406-59.432 12.417-12.426 19.255-28.941 19.255-46.501v-301.88c0-15.163-12.337-27.5-27.5-27.5zm-163.893 421.229c14.283 14.647 22.148 33.987 22.148 54.456 0 6.506-.813 12.946-2.396 19.201-5.262 1.383-10.734 2.109-16.32 2.109-17.047 0-33.072-6.641-45.126-18.699-12.056-12.055-18.694-28.088-18.694-45.146 0-12.687 3.716-24.858 10.604-35.236 18.896 1.45 36.45 9.639 49.784 23.315zm14.282-166.158c-5.812-12.281-15.734-22.204-28.015-28.015 12.28-5.812 22.203-15.734 28.015-28.015 5.815 12.296 15.781 22.198 28.015 28.015-12.231 5.826-22.201 15.719-28.015 28.015zm162.111 74.309c0 13.556-5.279 26.305-14.864 35.898l-28.286 28.298c-10.974-10.851-17.155-25.523-17.155-41.161 0-32.912 27.473-59.274 60.305-57.928zm0-213.415h-125.85v-88.465c0-6.893 5.607-12.5 12.5-12.5h100.85c6.893 0 12.5 5.607 12.5 12.5z"/></g></svg>