<svg id="Capa_1" enable-background="new 0 0 512 512" height="512" viewBox="0 0 512 512" width="512" xmlns="http://www.w3.org/2000/svg"><g><g><path d="m278.505 30v309.116h-45v-309.116c0-12.426 10.074-22.5 22.5-22.5 12.426 0 22.5 10.074 22.5 22.5z" fill="#e19974"/><path d="m256.005 7.5c-5.764 0-11.019 2.17-15 5.734 4.602 4.12 7.5 10.103 7.5 16.766v309.116h30v-309.116c0-12.426-10.074-22.5-22.5-22.5z" fill="#dc8758"/><path d="m292.98 385.863h-73.95v-99.772c0-20.421 16.554-36.975 36.975-36.975 20.421 0 36.975 16.554 36.975 36.975z" fill="#ecbba3"/><path d="m256.005 249.115c-5.342 0-10.414 1.142-15 3.18 12.944 5.754 21.975 18.716 21.975 33.795v99.772h30v-99.772c0-20.42-16.554-36.975-36.975-36.975z" fill="#e8ad8c"/><path d="m368.069 504.5h-224.128c-4.695 0-8.059-4.531-6.7-9.026l39.476-130.573c10.567-34.952 42.774-58.862 79.289-58.862 36.514 0 68.722 23.91 79.289 58.862l39.476 130.573c1.357 4.495-2.007 9.026-6.702 9.026z" fill="#fef0ae"/><path d="m374.769 495.474-39.476-130.573c-10.567-34.952-42.774-58.862-79.289-58.862-5.102 0-10.114.483-15 1.381 30.087 5.531 55.198 27.412 64.289 57.481l39.476 130.573c1.359 4.494-2.005 9.026-6.701 9.026h30c4.696 0 8.06-4.531 6.701-9.026z" fill="#fee97d"/></g><path d="m381.948 493.304-39.476-130.573c-5.654-18.702-16.935-34.744-32.622-46.39-3.017-2.24-6.145-4.272-9.365-6.101v-24.15c.015-12.563-5.229-24.363-14.48-32.828v-150.648c0-4.142-3.357-7.5-7.5-7.5s-7.5 3.358-7.5 7.5v141.586c-4.75-1.696-9.807-2.58-15-2.58-5.262 0-10.311.924-15 2.609v-214.229c0-8.271 6.729-15 15-15 8.133 0 15.045 6.833 15 15v37.614c0 4.142 3.357 7.5 7.5 7.5s7.5-3.358 7.5-7.5v-37.614c.077-16.392-13.729-30-30-30-16.542 0-30 13.458-30 30v223.289c-8.893 8.137-14.48 19.828-14.48 32.801v24.15c-3.22 1.829-6.348 3.861-9.365 6.101-15.688 11.646-26.968 27.688-32.622 46.39l-10.334 34.184c-1.199 3.965 1.044 8.151 5.009 9.35 3.967 1.199 8.15-1.044 9.349-5.009l10.334-34.184c4.716-15.597 14.123-28.974 27.206-38.687 13.085-9.714 28.15-14.846 44.904-14.846 16.292 0 31.92 5.207 44.904 14.846 13.083 9.712 22.49 23.09 27.206 38.687l39.279 129.928h-15.852l-13.371-43.46c-1.217-3.959-5.416-6.18-9.373-4.963-3.959 1.218-6.182 5.415-4.963 9.374l12.015 39.049h-28.346l-6.076-42.32c-.589-4.101-4.395-6.941-8.489-6.358-4.101.589-6.947 4.39-6.358 8.49l5.77 40.188h-28.846v-41.254c0-4.142-3.357-7.5-7.5-7.5s-7.5 3.358-7.5 7.5v41.254h-29.02l4.964-40.338c.506-4.111-2.417-7.854-6.528-8.36-4.12-.501-7.854 2.417-8.36 6.528l-5.19 42.17h-28.212l12.014-39.049c1.219-3.959-1.004-8.156-4.963-9.374-3.953-1.217-8.155 1.003-9.373 4.963l-13.372 43.46h-15.852l18.837-62.308c1.199-3.965-1.043-8.151-5.008-9.35-3.964-1.197-8.151 1.044-9.35 5.009l-19.033 62.953c-2.83 9.072 4.281 18.771 13.88 18.696h224.129c9.487.066 16.704-9.592 13.879-18.696zm-96.463-189.838c-9.39-3.243-19.308-4.927-29.48-4.927s-20.09 1.684-29.48 4.927v-17.376c0-16.25 13.225-29.47 29.48-29.47 15.909 0 29.553 13.477 29.48 29.47z"/></g></svg>