<svg id="Capa_1" enable-background="new 0 0 512 512" height="512" viewBox="0 0 512 512" width="512" xmlns="http://www.w3.org/2000/svg"><g><g><path d="m215.403 505v-129.303h81.194v129.303c0 3.866-3.134 7-7 7h-67.194c-3.866 0-7-3.134-7-7z" fill="#eaf6ff"/><path d="m266.597 375.697v129.303c0 3.866-3.134 7-7 7h30c3.866 0 7-3.134 7-7v-129.303z" fill="#d8ecfe"/><path d="m401.28 405.5h-290.56c-14.357 0-26.701-10.172-29.446-24.264l-25.274-129.736h400l-25.273 129.736c-2.745 14.092-15.09 24.264-29.447 24.264z" fill="#8fd8fa"/><path d="m426 251.5-25.273 129.736c-2.745 14.092-15.09 24.264-29.446 24.264h30c14.357 0 26.701-10.172 29.446-24.264l25.273-129.736z" fill="#6bcdfe"/><g><path d="m300.982 202.5h-89.965v-185c0-5.523 4.477-10 10-10h69.965c5.523 0 10 4.477 10 10z" fill="#eaf6ff"/><path d="m290.982 7.5h-30c5.523 0 10 4.477 10 10v185h30v-185c0-5.523-4.477-10-10-10z" fill="#d8ecfe"/><path d="m213.023 11.511 26.889 53.778c.678 1.355 2.063 2.211 3.578 2.211h25.021c1.515 0 2.9-.856 3.578-2.211l26.889-53.778c-1.824-2.431-4.721-4.011-7.995-4.011h-69.965c-3.274 0-6.171 1.58-7.995 4.011z" fill="#d8ecfe"/><path d="m290.982 7.5h-30c3.273 0 6.17 1.58 7.995 4.011l-26.889 53.778c-.265.53-.641.98-1.088 1.337.696.554 1.567.875 2.49.875h25.021c1.515 0 2.9-.856 3.578-2.211l26.889-53.778c-1.825-2.432-4.722-4.012-7.996-4.012z" fill="#c4e2ff"/></g><g><path d="m497.5 158.335h-123.47v-31.06h123.47c3.866 0 7 3.134 7 7v17.06c0 3.866-3.134 7-7 7z" fill="#eaf6ff"/><path d="m409.918 202.5h-64.594v-87.594c0-3.866 3.134-7 7-7h50.594c3.866 0 7 3.134 7 7z" fill="#eaf6ff"/><path d="m402.918 107.906h-30c3.866 0 7 3.134 7 7v87.594h30v-87.594c0-3.866-3.134-7-7-7z" fill="#d8ecfe"/></g><g><path d="m14.5 158.335h123.47v-31.06h-123.47c-3.866 0-7 3.134-7 7v17.06c0 3.866 3.134 7 7 7z" fill="#d8ecfe"/><path d="m102.082 202.5h64.594v-87.594c0-3.866-3.134-7-7-7h-50.594c-3.866 0-7 3.134-7 7z" fill="#eaf6ff"/><path d="m159.675 107.906h-30c3.866 0 7 3.134 7 7v87.594h30v-87.594c0-3.866-3.133-7-7-7z" fill="#d8ecfe"/></g><path d="m468.5 251.5h-425c-5.523 0-10-4.477-10-10v-29c0-5.523 4.477-10 10-10h425c5.523 0 10 4.477 10 10v29c0 5.523-4.477 10-10 10z" fill="#b4e5f9"/><path d="m468.5 202.5h-30c5.523 0 10 4.477 10 10v29c0 5.523-4.477 10-10 10h30c5.523 0 10-4.477 10-10v-29c0-5.523-4.477-10-10-10z" fill="#8fd8fa"/></g><path d="m497.5 119.774h-80.082v-4.868c0-7.995-6.505-14.5-14.5-14.5h-50.594c-7.995 0-14.5 6.505-14.5 14.5v80.094h-29.342v-177.5c-.019-9.55-7.82-17.505-17.5-17.5h-69.965c-9.644.002-17.512 7.965-17.5 17.5v89.199c0 4.142 3.358 7.5 7.5 7.5s7.5-3.358 7.5-7.5v-67.429l14.686 29.372c1.96 3.922 5.901 6.358 10.286 6.358h25.021c4.385 0 8.326-2.436 10.286-6.357l14.687-29.373v155.73h-74.965v-53.301c0-4.142-3.358-7.5-7.5-7.5s-7.5 3.358-7.5 7.5v53.301h-29.342v-80.094c0-7.995-6.505-14.5-14.5-14.5h-50.594c-7.995 0-14.5 6.505-14.5 14.5v4.868h-80.082c-7.995 0-14.5 6.505-14.5 14.5v17.061c0 7.995 6.505 14.5 14.5 14.5h80.082v29.165h-51.082c-9.649 0-17.5 7.851-17.5 17.5v29c0 9.649 7.851 17.5 17.5 17.5h6.32l24.092 123.67c3.423 17.575 18.903 30.33 36.808 30.33h97.183v91.5c0 4.142 3.358 7.5 7.5 7.5s7.5-3.358 7.5-7.5v-91.5h66.194v91.5c0 4.142 3.358 7.5 7.5 7.5s7.5-3.358 7.5-7.5v-91.5h33.925c4.142 0 7.5-3.358 7.5-7.5s-3.358-7.5-7.5-7.5h-227.302c-10.743 0-20.031-7.653-22.084-18.198l-23.534-120.802h381.796l-23.533 120.802c-2.054 10.545-11.342 18.198-22.085 18.198h-28.258c-4.142 0-7.5 3.358-7.5 7.5s3.358 7.5 7.5 7.5h28.258c17.904 0 33.384-12.755 36.808-30.33l24.092-123.67h6.32c9.649 0 17.5-7.851 17.5-17.5v-29c0-9.649-7.851-17.5-17.5-17.5h-51.082v-29.165h80.082c7.995 0 14.5-6.505 14.5-14.5v-17.061c0-7.995-6.505-14.5-14.5-14.5zm-231.153-59.774h-20.694l-22.5-45h65.695zm86.478 55.406h49.594v79.594h-49.594zm-243.243 0h49.594v79.594h-49.594zm-94.582 35.429v-16.061h79.582v16.061zm453.5 59.165c1.378 0 2.5 1.122 2.5 2.5v29c0 1.378-1.122 2.5-2.5 2.5h-425c-1.378 0-2.5-1.122-2.5-2.5v-29c0-1.378 1.122-2.5 2.5-2.5zm28.5-59.165h-79.582v-16.061h79.582z"/></g></svg>