<svg id="Capa_1" enable-background="new 0 0 512 512" height="512" viewBox="0 0 512 512" width="512" xmlns="http://www.w3.org/2000/svg"><g><g><g><path d="m362.921 504.5h-213.842c-10.906 0-20.455-7.319-23.288-17.851l-63.561-236.231c-2.433-9.042.588-18.674 7.748-24.708l88.85-74.874c4.349-3.665 9.853-5.675 15.541-5.675h163.262c5.687 0 11.192 2.01 15.541 5.675l88.85 74.874c7.16 6.034 10.18 15.666 7.748 24.708l-63.56 236.231c-2.834 10.532-12.383 17.851-23.289 17.851z" fill="#ffe179"/><path d="m442.022 225.71-88.85-74.874c-4.349-3.665-9.854-5.675-15.541-5.675h-30c5.687 0 11.192 2.01 15.541 5.675l88.85 74.874c7.16 6.033 10.18 15.666 7.748 24.708l-63.56 236.231c-2.834 10.531-12.382 17.851-23.288 17.851h30c10.906 0 20.455-7.319 23.288-17.851l63.56-236.231c2.432-9.042-.588-18.674-7.748-24.708z" fill="#fbd268"/><path d="m321.457 145.162h-130.914v-37.948c0-6.66 5.399-12.058 12.058-12.058h106.797c6.66 0 12.058 5.399 12.058 12.058v37.948z" fill="#fef0ae"/><path d="m309.398 95.155h-30c6.66 0 12.058 5.399 12.058 12.058v37.948h30v-37.948c.001-6.659-5.398-12.058-12.058-12.058z" fill="#fee97d"/><path d="m341.022 365.571h-170.045c-4.662 0-8.441-3.779-8.441-8.441v-64.599c0-4.662 3.779-8.441 8.441-8.441h170.045c4.662 0 8.441 3.779 8.441 8.441v64.599c0 4.662-3.779 8.441-8.441 8.441z" fill="#fef0ae"/></g><path d="m280.895 95.155h-49.791c-2.922 0-5.698-1.278-7.598-3.499l-28.944-33.828c-3.202-3.743-3.202-9.26 0-13.003l28.944-33.828c1.9-2.22 4.676-3.499 7.598-3.499h49.791c2.922 0 5.698 1.278 7.598 3.499l28.944 33.828c3.202 3.743 3.202 9.26 0 13.003l-28.944 33.828c-1.899 2.221-4.675 3.499-7.598 3.499z" fill="#eaf6ff"/><path d="m317.437 44.826-28.944-33.828c-1.9-2.22-4.676-3.499-7.598-3.499h-30c2.922 0 5.698 1.278 7.598 3.499l28.944 33.828c3.202 3.743 3.202 9.26 0 13.002l-28.944 33.828c-1.9 2.22-4.676 3.499-7.598 3.499h30c2.922 0 5.698-1.278 7.598-3.499l28.944-33.828c3.203-3.742 3.203-9.259 0-13.002z" fill="#d8ecfe"/></g><path d="m349.463 411.215h-186.926c-4.142 0-7.5 3.357-7.5 7.5s3.358 7.5 7.5 7.5h186.927c4.142 0 7.5-3.357 7.5-7.5s-3.359-7.5-7.501-7.5zm7.5-118.684c0-8.79-7.151-15.94-15.941-15.94h-96.89c-4.142 0-7.5 3.357-7.5 7.5s3.358 7.5 7.5 7.5h96.89c.519 0 .941.422.941.94v64.599c0 .52-.422.941-.941.941h-170.045c-.519 0-.941-.422-.941-.941v-64.599c0-.519.422-.94.941-.94h38.155c4.142 0 7.5-3.357 7.5-7.5s-3.358-7.5-7.5-7.5h-38.155c-8.79 0-15.941 7.15-15.941 15.94v64.599c0 8.79 7.151 15.941 15.941 15.941h170.045c8.79 0 15.941-7.151 15.941-15.941zm89.892-72.556-88.85-74.873c-5.694-4.798-12.929-7.44-20.374-7.44h-8.674v-30.447c0-10.784-8.774-19.559-19.558-19.559h-7.611l21.349-24.951c5.639-6.592 5.639-16.161 0-22.754l-28.945-33.828c-3.329-3.892-8.176-6.123-13.297-6.123h-49.791c-5.121 0-9.968 2.231-13.297 6.123l-28.944 33.828c-5.639 6.592-5.639 16.161 0 22.754l21.348 24.95h-7.611c-10.784 0-19.558 8.774-19.558 19.559v30.447h-8.674c-7.445 0-14.68 2.643-20.374 7.44l-88.851 74.873c-9.345 7.876-13.332 20.591-10.156 32.392l63.56 236.231c3.708 13.78 16.263 23.403 30.532 23.403h213.843c14.269 0 26.823-9.623 30.531-23.402l24.097-89.563c1.077-3.999-1.293-8.114-5.293-9.19-3.999-1.077-8.115 1.293-9.191 5.294l-24.097 89.563c-1.951 7.24-8.549 12.298-16.048 12.298h-213.842c-7.499 0-14.097-5.058-16.046-12.299l-63.56-236.231c-1.669-6.203.427-12.886 5.338-17.024l88.85-74.873c2.993-2.522 6.795-3.911 10.708-3.911h163.262c3.913 0 7.715 1.389 10.708 3.911l88.85 74.872c4.912 4.14 7.007 10.822 5.339 17.025l-30.344 112.779c-1.077 4 1.293 8.114 5.293 9.19 3.999 1.077 8.115-1.293 9.191-5.294l30.344-112.779c3.175-11.801-.812-24.515-10.157-32.391zm-217.65-204.1c.476-.557 1.168-.875 1.899-.875h49.791c.731 0 1.424.318 1.899.875l23.917 27.952h-101.423zm-23.918 42.952h101.426l-23.918 27.953c-.476.557-1.168.875-1.899.875h-49.791c-.731 0-1.424-.318-1.899-.875zm108.669 78.834h-115.913v-30.447c0-2.514 2.045-4.559 4.558-4.559h106.797c2.513 0 4.558 2.045 4.558 4.559zm35.507 309.729h-186.926c-4.142 0-7.5 3.357-7.5 7.5s3.358 7.5 7.5 7.5h186.927c4.142 0 7.5-3.357 7.5-7.5s-3.359-7.5-7.501-7.5z"/></g></svg>