<svg id="Capa_1" enable-background="new 0 0 512.003 512.003" height="512" viewBox="0 0 512.003 512.003" width="512" xmlns="http://www.w3.org/2000/svg"><g><g><path d="m81.949 104.579 174.061 45 174.061-45 68.531 345.869c3.281 16.557-7.735 32.54-24.369 35.404-61.26 10.545-133.899 18.477-215.591 18.645-83.929.172-158.406-7.892-220.919-18.656-16.608-2.86-27.58-18.861-24.304-35.393z" fill="#eaf6ff"/><g><path d="m474.233 485.853c16.634-2.863 27.65-18.847 24.369-35.404l-68.531-345.87-28.538 7.378 71.889 362.822c.723 3.644.995 7.363.811 11.074z" fill="#d8ecfe"/></g><g><path d="m449.771 117.806c1.67 4.174-.429 8.902-4.639 10.478-121.861 45.621-256.382 45.621-378.243 0-4.211-1.576-6.311-6.299-4.641-10.474 2.452-6.129 5.844-14.608 7.985-19.961 1.612-4.03 6.146-6.041 10.212-4.52 113.133 42.307 237.994 42.308 351.127.001 4.067-1.521 8.602.488 10.215 4.519z" fill="#8fd8fa"/></g><path d="m241.059 162.287c69.059 1.912 138.404-9.419 204.072-34.003 4.211-1.576 6.309-6.304 4.639-10.478l-7.984-19.956c-1.614-4.033-6.151-6.039-10.22-4.518-6.275 2.347-12.588 4.555-18.931 6.641.024.079.048.159.071.238 4.104 13.697-3.079 28.211-16.438 33.31-10.176 3.884-21.018 7.587-32.513 10.966-46.992 13.815-89.388 17.662-122.696 17.8z" fill="#6bcdfe"/></g><path d="m505.957 448.992-61.885-312.327c1.23-.45 2.461-.897 3.688-1.357 8.012-3 12.182-12.386 8.974-20.289l-2.027-5.066c11.153-9.676 16.812-20.222 16.812-31.414 0-22.443-23.651-42.806-66.596-57.336-40.413-13.673-93.995-21.203-150.873-21.203s-110.46 7.53-150.874 21.204c-42.945 14.53-66.596 34.893-66.596 57.336 0 12.164 6.655 23.527 19.76 33.847l-1.055 2.638c-3.225 7.921.938 17.273 8.975 20.283 1.228.46 2.46.907 3.691 1.358l-34.908 176.168c-.805 4.063 1.836 8.01 5.899 8.815 3.965.786 8.011-1.797 8.814-5.899l34.49-174.066c56.383 18.896 115.063 28.345 173.763 28.343 58.686-.002 117.389-9.453 173.765-28.344l61.468 310.224c2.47 12.165-6.001 24.435-18.286 26.551-70.57 12.154-142.683 18.393-214.333 18.542-73.412.182-147.313-6.093-219.632-18.552-12.305-2.12-20.696-14.365-18.215-26.54l20.144-101.663c.805-4.063-1.836-8.01-5.899-8.815-4.058-.793-8.009 1.837-8.814 5.899l-20.143 101.661c-4.139 20.214 9.861 40.707 30.383 44.241 73.166 12.599 147.92 18.923 222.209 18.769 72.491-.15 145.449-6.462 216.845-18.759 20.352-3.505 34.564-24.06 30.456-44.249zm-63.455-327.731c-60.13 22.511-123.311 33.766-186.492 33.766s-126.362-11.256-186.492-33.767c-.189-.071-.413-.468-.307-.663l7.986-19.961c.099-.247.379-.37.622-.282 57.072 21.343 117.629 32.186 178.375 32.184 25.543 0 51.132-1.919 76.49-5.78 4.095-.623 6.909-4.448 6.286-8.543s-4.45-6.903-8.543-6.286c-24.675 3.759-49.561 5.621-74.416 5.612-58.891-.021-117.609-10.545-172.938-31.235-7.818-2.925-16.701 1.007-19.802 8.759l-1.062 2.654c-5.763-5.259-10.629-11.863-10.629-19.179 0-15.055 21.085-31.178 56.404-43.127 38.905-13.164 90.779-20.413 146.066-20.413s107.161 7.249 146.066 20.413c35.318 11.949 56.404 28.072 56.404 43.127 0 5.445-2.63 10.949-7.81 16.435-3.135-7.692-11.976-11.581-19.764-8.67-20.979 7.846-42.696 14.314-64.549 19.227-4.041.908-6.581 4.921-5.672 8.962.909 4.042 4.92 6.579 8.962 5.673 22.518-5.062 44.896-11.728 66.512-19.811.25-.097.525.028.625.28l7.984 19.955c.098.181-.114.598-.306.67zm-265.702 155.374c-3.588-2.071-8.174-.843-10.245 2.745l-74.081 128.312c-2.071 3.587-.842 8.174 2.745 10.245 3.527 2.036 8.154.879 10.245-2.745l74.081-128.312c2.072-3.587.843-8.174-2.745-10.245zm-21.581 111.303c3.527 2.036 8.154.879 10.245-2.745l74.081-128.312c2.071-3.587.842-8.174-2.745-10.245-3.588-2.07-8.174-.844-10.245 2.745l-74.081 128.312c-2.071 3.586-.842 8.173 2.745 10.245z"/></g></svg>