<svg id="Capa_1" enable-background="new 0 0 512 512" height="512" viewBox="0 0 512 512" width="512" xmlns="http://www.w3.org/2000/svg"><g><g><path d="m256.003 7.5c-31.311 0-55.636 27.273-52.071 58.38l23.308 203.324h57.526l23.308-203.324c3.566-31.107-20.76-58.38-52.071-58.38zm0 71c-10.493 0-19-8.507-19-19s8.507-19 19-19 19 8.507 19 19-8.506 19-19 19z" fill="#f58a97"/><path d="m256.003 7.5c-5.23 0-10.258.776-15 2.189 23.652 7.044 40.041 30.28 37.071 56.192l-23.308 203.324h30l23.308-203.325c3.566-31.107-20.76-58.38-52.071-58.38z" fill="#f07281"/><g><g><path d="m300.729 252.5h-89.453v-35.335c0-5.523 4.477-10 10-10h69.453c5.523 0 10 4.477 10 10z" fill="#eaf6ff"/><path d="m290.729 207.165h-30c5.523 0 10 4.477 10 10v35.335h30v-35.335c0-5.523-4.477-10-10-10z" fill="#d8ecfe"/><g><path d="m420.756 504.5h-22.752l-137.274-15-146.726 15h-22.753c-4.485 0-7.813-4.159-6.83-8.535l51.064-227.235c4.103-18.257 20.314-31.23 39.027-31.23h162.982c18.712 0 34.924 12.973 39.027 31.23l51.064 227.235c.984 4.376-2.344 8.535-6.829 8.535z" fill="#f58a97"/><path d="m427.585 495.965-51.064-227.235c-4.103-18.257-20.314-31.23-39.027-31.23h-30c18.712 0 34.924 12.973 39.027 31.23l51.064 227.235c.983 4.376-2.344 8.535-6.83 8.535h30c4.486 0 7.814-4.159 6.83-8.535z" fill="#f07281"/><path d="m114.003 504.5 50.753-229.192c1.032-4.597 5.045-7.808 9.756-7.808h162.982c4.711 0 8.724 3.21 9.756 7.807l50.753 229.193z" fill="#eaf6ff"/><path d="m347.25 275.307c-1.032-4.597-5.045-7.807-9.756-7.807h-30c4.711 0 8.724 3.21 9.756 7.807l50.753 229.193h30z" fill="#d8ecfe"/></g></g></g></g><path d="m434.903 494.321-51.064-227.235c-4.907-21.836-23.965-37.086-46.345-37.086h-29.264v-12.835c0-6.253-3.308-11.735-8.254-14.831l15.551-135.616c3.994-35.616-23.771-66.718-59.524-66.718-17.062 0-33.36 7.303-44.716 20.036-11.354 12.731-16.75 29.752-14.806 46.699l3.938 34.333c.472 4.115 4.191 7.065 8.306 6.597 4.115-.472 7.068-4.19 6.597-8.306l-3.938-34.334c-1.458-12.704 2.588-25.462 11.099-35.005 8.513-9.545 20.73-15.02 33.521-15.02 26.749 0 47.674 23.521 44.619 50.025l-15.439 134.64h-58.36l-7.478-65.212c-.472-4.115-4.193-7.065-8.306-6.597-4.115.472-7.068 4.19-6.597 8.306l7.587 66.172c-4.947 3.095-8.254 8.577-8.254 14.831v12.835h-29.265c-22.38 0-41.438 15.25-46.344 37.085l-51.063 227.236c-2.064 8.85 5.003 17.745 14.147 17.679h329.504c9.065.057 16.201-8.815 14.148-17.679zm-216.126-277.156c0-1.378 1.121-2.5 2.5-2.5h69.453c1.379 0 2.5 1.122 2.5 2.5v12.835h-74.453zm185.247 279.835-20.692-93.442c-.896-4.044-4.904-6.597-8.943-5.701-4.045.896-6.597 4.9-5.701 8.944l19.972 90.199h-265.314l48.728-220.049c.263-1.167 1.242-1.951 2.438-1.951h162.982c1.196 0 2.176.784 2.434 1.929l21.19 95.693c.896 4.044 4.898 6.592 8.943 5.701 4.045-.896 6.597-4.9 5.701-8.944l-21.195-95.714c-1.806-8.046-8.827-13.665-17.073-13.665h-162.982c-8.246 0-15.268 5.619-17.078 13.686l-49.451 223.314h-16.108l50.928-226.625c3.357-14.941 16.396-25.375 31.709-25.375h162.982c15.312 0 28.352 10.434 31.709 25.375l50.928 226.625zm-121.521-437.5c0-14.612-11.888-26.5-26.5-26.5s-26.5 11.888-26.5 26.5 11.888 26.5 26.5 26.5 26.5-11.888 26.5-26.5zm-38 0c0-6.341 5.159-11.5 11.5-11.5s11.5 5.159 11.5 11.5-5.159 11.5-11.5 11.5-11.5-5.159-11.5-11.5z"/></g></svg>