<svg id="Capa_1" enable-background="new 0 0 511.993 511.993" height="512" viewBox="0 0 511.993 511.993" width="512" xmlns="http://www.w3.org/2000/svg"><g><g><g><path d="m168.781 7.493c21.106 5.881 50.133 11.673 84.896 11.924 36.995.268 67.733-5.831 89.604-11.924l-4.768 120.386-197.573-16.761z" fill="#c4e2ff"/><g><path d="m374.774 164.03 52.578 39.681c4.086 3.084 9.919 2.143 12.828-2.07l48.377-70.06c2.302-3.333 2.093-7.794-.51-10.897l-66.353-79.117-17.15 6.193z" fill="#c4e2ff"/><path d="m488.046 120.684-66.353-79.117-17.15-8.807-4.307 18.993 27.397 32.667c20.568 24.525 22.218 59.769 4.03 86.108l-16.54 23.953 12.229 9.229c4.086 3.084 9.919 2.143 12.828-2.07l48.377-70.06c2.301-3.332 2.092-7.792-.511-10.896z" fill="#b3dafe"/><path d="m137.22 164.03-52.578 39.681c-4.086 3.084-9.919 2.143-12.828-2.07l-48.377-70.06c-2.302-3.333-2.093-7.794.51-10.897l66.353-79.117 17.15 6.193z" fill="#c4e2ff"/><path d="m122.289 484.493v-300.373c0-3.686-.446-7.359-1.328-10.938l-31.217-126.646c-.829-3.363.926-6.826 4.127-8.146l74.142-30.582c2.076 1.174 2.959 1.673 5.035 2.848 6.916 41.895 43.909 72.417 85.48 71.188 39.816-1.177 73.96-31.188 80.493-71.295 2.05-1.128 2.951-1.623 5.001-2.751l74.168 30.592c3.202 1.321 4.956 4.784 4.127 8.146l-31.216 126.646c-.882 3.579-1.328 7.252-1.328 10.939v300.373c0 11.046-8.954 20-20 20h-227.484c-11.046-.001-20-8.955-20-20.001z" fill="#eaf6ff"/><g><path d="m418.191 38.39-74.168-30.593c-2.058 1.146-2.949 1.641-5.007 2.787-.383 2.347-.869 4.656-1.437 6.929 32.297 13.322 49.998 48.258 41.637 82.18l-18.114 73.488c-.882 3.58-1.328 7.253-1.328 10.94v300.372c0 11.046-8.954 20-20 20h30c11.046 0 20-8.954 20-20v-300.372c0-3.687.446-7.36 1.328-10.94l31.216-126.646c.829-3.362-.925-6.825-4.127-8.145z" fill="#d8ecfe"/></g></g></g><path d="m137.853 295.65-2.687.855c-18.804 5.983-33.538 20.717-39.521 39.521l-.855 2.688c-1.309 4.115-7.132 4.115-8.441 0l-.855-2.688c-5.983-18.804-20.717-33.538-39.521-39.521l-2.687-.855c-4.115-1.309-4.115-7.132 0-8.441l2.687-.855c18.804-5.983 33.538-20.717 39.521-39.521l.855-2.687c1.309-4.115 7.132-4.115 8.441 0l.855 2.687c5.983 18.805 20.717 33.538 39.521 39.521l2.687.855c4.115 1.309 4.115 7.131 0 8.441z" fill="#ffe179"/><path d="m137.854 287.208-2.688-.855c-18.804-5.984-33.537-20.717-39.521-39.521l-.855-2.688c-1.309-4.115-7.132-4.115-8.441 0l-.855 2.687c-2.2 6.914-5.591 13.271-9.924 18.851 7.452 9.598 17.706 16.887 29.597 20.67 4.948 1.575 4.948 8.577 0 10.152-11.891 3.783-22.145 11.073-29.597 20.67 4.333 5.581 7.724 11.937 9.924 18.851l.855 2.688c1.309 4.115 7.132 4.115 8.441 0l.855-2.688c5.984-18.804 20.717-33.537 39.521-39.521l2.688-.855c4.114-1.309 4.114-7.131 0-8.441z" fill="#fbd268"/><path d="m478.275 388.511-3.169 1.008c-22.172 7.055-39.544 24.427-46.599 46.599l-1.008 3.169c-1.544 4.852-8.409 4.852-9.953 0l-1.008-3.169c-7.055-22.172-24.427-39.544-46.599-46.599l-3.169-1.008c-4.852-1.544-4.852-8.409 0-9.953l3.169-1.008c22.172-7.055 39.544-24.427 46.599-46.599l1.008-3.169c1.544-4.852 8.409-4.852 9.953 0l1.008 3.169c7.055 22.172 24.427 39.544 46.599 46.599l3.169 1.008c4.852 1.543 4.852 8.409 0 9.953z" fill="#ffe179"/><path d="m478.275 378.558-3.169-1.008c-22.172-7.055-39.544-24.427-46.599-46.599l-1.008-3.169c-1.544-4.852-8.409-4.852-9.953 0l-1.008 3.169c-2.121 6.665-5.18 12.892-9.015 18.54 8.924 13.14 22.077 23.125 37.584 28.059 5.835 1.857 5.835 10.113 0 11.969-15.507 4.934-28.66 14.919-37.584 28.059 3.835 5.648 6.895 11.875 9.015 18.54l1.008 3.168c1.544 4.852 8.409 4.852 9.953 0l1.008-3.169c7.055-22.172 24.427-39.544 46.599-46.599l3.169-1.008c4.852-1.543 4.852-8.409 0-9.952z" fill="#fbd268"/></g><path d="m422.84 209.704c7.331 5.571 18.315 3.815 23.513-3.8l48.366-70.055c4.222-6.103 3.835-14.326-.931-19.985l-66.078-78.796c-1.558-2.445-3.838-4.444-6.658-5.606l-74.17-30.602c-1.784-.749-3.583-1.156-5.613-.591-28.513 7.944-57.949 11.867-87.537 11.648-28.018-.202-55.922-4.121-82.937-11.648-2.067-.576-3.832-.157-5.644.602 0 0-73.201 30.204-74.138 30.59-2.664 1.098-4.841 2.948-6.389 5.21-.022.026-.047.048-.069.074l-66.341 79.108c-4.775 5.672-5.162 13.895-.945 19.991l48.373 70.064c5.174 7.591 16.165 9.382 23.517 3.792l25.633-19.339v74.546c-5.396-5.734-9.55-12.65-12-20.349l-.855-2.687c-1.582-4.973-6.15-8.312-11.367-8.312-5.218 0-9.786 3.34-11.367 8.312l-.856 2.688c-5.237 16.458-18.19 29.411-34.647 34.647l-2.689.855c-4.972 1.582-8.312 6.15-8.312 11.367s3.34 9.785 8.312 11.367l2.688.855c16.459 5.237 29.412 18.19 34.648 34.65l.855 2.685c1.582 4.973 6.15 8.312 11.368 8.312 5.217 0 9.786-3.34 11.367-8.311l.856-2.688c2.449-7.699 6.604-14.614 12-20.348v57.385c0 4.143 3.358 7.5 7.5 7.5s7.5-3.357 7.5-7.5v-68.553c2.451-1.226 4.999-2.29 7.649-3.133l2.688-.855c4.972-1.582 8.312-6.15 8.312-11.367s-3.34-9.785-8.313-11.368l-2.686-.854c-2.65-.843-5.198-1.907-7.648-3.133v-91.951c-.005-4.234-.537-8.61-1.548-12.734l-31.119-126.224 69.412-28.64c9.378 43.168 48.327 74.117 92.213 72.816 15.152-.449 30.13-4.812 43.312-12.619 3.564-2.11 4.742-6.71 2.632-10.274s-6.714-4.74-10.274-2.632c-11.004 6.516-23.492 10.158-36.113 10.531-34.965 1.053-65.964-22.345-75.725-55.637 23.307 5.278 47.133 8.036 71.038 8.209.806.006 1.608.009 2.414.009 24.721 0 49.348-2.763 73.444-8.221-2.476 8.416-6.369 16.425-11.493 23.542-2.42 3.361-1.656 8.049 1.705 10.469 3.362 2.419 8.048 1.658 10.469-1.705 7.399-10.278 12.659-22.116 15.355-34.487l69.418 28.64-31.115 126.228c-1.014 4.146-1.542 8.526-1.548 12.731v179.486c-4.522 2.837-9.415 5.141-14.608 6.793l-3.168 1.009c-5.302 1.687-8.864 6.559-8.864 12.123s3.562 10.437 8.865 12.124l3.168 1.007c5.193 1.652 10.085 3.957 14.607 6.793v81.035c0 6.893-5.607 12.5-12.5 12.5h-227.48c-6.893 0-12.5-5.607-12.5-12.5v-74.156c0-4.143-3.358-7.5-7.5-7.5s-7.5 3.357-7.5 7.5v74.156c0 15.163 12.336 27.5 27.5 27.5h227.48c15.163 0 27.5-12.337 27.5-27.5v-67.99c5.363 6.359 9.533 13.759 12.119 21.888l1.009 3.17c1.687 5.302 6.559 8.865 12.123 8.865s10.437-3.563 12.124-8.866l1.007-3.168c6.307-19.821 21.906-35.42 41.727-41.726l3.169-1.008.001-.001c5.302-1.687 8.864-6.559 8.864-12.123s-3.562-10.437-8.863-12.123l-3.17-1.01c-19.821-6.306-35.421-21.904-41.727-41.725l-1.009-3.17c-1.687-5.302-6.559-8.864-12.123-8.864s-10.437 3.562-12.124 8.865l-1.007 3.168c-2.587 8.129-6.757 15.53-12.12 21.889v-160.154zm-295.584 81.725c-16.225 6.784-29.877 20.427-36.687 36.688-6.924-16.549-20.137-29.764-36.686-36.688 16.549-6.925 29.763-20.138 36.687-36.687 6.96 16.688 20.127 29.744 36.686 36.687zm-14.11-118.617-33.016 24.91c-.77.546-1.59.419-2.146-.339l-48.374-70.066c-.382-.552-.35-1.293.088-1.813l55.478-66.155zm313.725-113.399 55.434 66.102c.428.509.46 1.249.074 1.808l-48.368 70.058c-.556.758-1.373.891-2.142.347l-32.962-24.873zm-4.348 277.198c8.011 21.717 25.208 38.913 46.925 46.924-21.718 8.011-38.913 25.205-46.925 46.923-7.975-21.536-25.582-39.056-46.925-46.923 21.594-7.972 38.905-25.166 46.925-46.924z"/></g></svg>