<svg id="Capa_1" enable-background="new 0 0 512 512" height="512" viewBox="0 0 512 512" width="512" xmlns="http://www.w3.org/2000/svg"><g><g><path d="m380.757 199.461-23.954-7.865c-4.639-1.523-7.506-6.174-6.776-11.001 2.178-14.408 4.984-28.745 8.419-42.97 16.01-66.308-34.233-130.125-102.446-130.125-68.213 0-118.456 63.817-102.446 130.125 3.435 14.225 6.241 28.562 8.419 42.97.73 4.828-2.137 9.478-6.776 11.001l-23.954 7.865c-8.211 2.696-13.761 10.36-13.761 19.002v75.074c0 8.642 5.551 16.306 13.761 19.002l23.954 7.865c4.639 1.523 7.506 6.174 6.776 11.001-2.178 14.408-4.984 28.745-8.419 42.97-16.01 66.308 34.233 130.125 102.446 130.125 68.213 0 118.456-63.817 102.446-130.125-3.435-14.225-6.241-28.562-8.419-42.97-.73-4.828 2.137-9.478 6.776-11.001l23.954-7.865c8.211-2.696 13.761-10.36 13.761-19.002v-75.074c0-8.642-5.551-16.306-13.761-19.002z" fill="#8fd8fa"/><path d="m380.757 199.461-23.954-7.865c-4.639-1.523-7.506-6.174-6.776-11.001 2.178-14.408 4.984-28.745 8.419-42.97 16.01-66.308-34.233-130.125-102.446-130.125-5.108 0-10.114.365-15 1.055 60.364 8.524 102.257 67.728 87.446 129.07-3.435 14.225-6.24 28.562-8.419 42.97-.73 4.828 2.137 9.478 6.776 11.001l23.954 7.865c8.211 2.696 13.761 10.36 13.761 19.002v75.074c0 8.642-5.551 16.306-13.761 19.002l-23.954 7.865c-4.639 1.523-7.506 6.174-6.776 11.001 2.178 14.408 4.984 28.745 8.419 42.97 14.811 61.342-27.082 120.545-87.446 129.07 4.886.69 9.892 1.055 15 1.055 68.213 0 118.456-63.817 102.446-130.125-3.435-14.225-6.24-28.562-8.419-42.97-.73-4.828 2.137-9.478 6.776-11.001l23.954-7.865c8.211-2.696 13.761-10.36 13.761-19.002v-75.074c0-8.642-5.55-16.306-13.761-19.002z" fill="#6bcdfe"/><g><path d="m256 482c-25.571 0-49.31-11.523-65.127-31.615-15.818-20.092-21.448-45.872-15.446-70.729 19.531-80.896 19.531-166.416 0-247.312-6.002-24.857-.372-50.637 15.446-70.729 15.817-20.092 39.556-31.615 65.127-31.615s49.31 11.523 65.127 31.615c15.818 20.092 21.448 45.872 15.446 70.729-19.531 80.896-19.531 166.416 0 247.312 6.002 24.857.372 50.637-15.446 70.729-15.817 20.092-39.556 31.615-65.127 31.615zm0-437c-20.944 0-40.386 9.438-53.342 25.894-12.955 16.457-17.566 37.571-12.651 57.93 20.088 83.199 20.088 171.153 0 254.353-4.915 20.358-.304 41.473 12.651 57.93 12.956 16.455 32.398 25.893 53.342 25.893s40.386-9.438 53.342-25.894c12.955-16.457 17.566-37.571 12.651-57.93-20.088-83.199-20.088-171.153 0-254.353 4.915-20.358.304-41.473-12.651-57.93-12.956-16.455-32.398-25.893-53.342-25.893z" fill="#eaf6ff"/></g><path d="m256 444.5c-14.003 0-27.001-6.31-35.663-17.312s-11.745-25.119-8.458-38.73c20.922-86.655 20.922-178.261 0-264.915-3.287-13.612-.204-27.729 8.458-38.731s21.66-17.312 35.663-17.312 27.001 6.31 35.663 17.312 11.745 25.119 8.458 38.73c-20.922 86.655-20.922 178.261 0 264.915 3.287 13.612.204 27.729-8.458 38.731s-21.66 17.312-35.663 17.312z" fill="#eaf6ff"/><path d="m300.121 123.542c3.287-13.611.204-27.728-8.458-38.73s-21.66-17.312-35.663-17.312c-5.196 0-10.251.873-15 2.527 8.05 2.805 15.215 7.865 20.663 14.785 8.662 11.002 11.745 25.119 8.458 38.73-20.922 86.655-20.922 178.261 0 264.915 3.287 13.612.204 27.729-8.458 38.731-5.448 6.92-12.613 11.979-20.663 14.785 4.749 1.655 9.804 2.527 15 2.527 14.003 0 27.001-6.31 35.663-17.312s11.745-25.119 8.458-38.731c-20.922-86.654-20.922-178.26 0-264.915z" fill="#d8ecfe"/></g><path d="m256 60c-16.316 0-31.463 7.353-41.556 20.172-10.094 12.821-13.687 29.271-9.855 45.131 2.513 10.41 4.752 21.046 6.655 31.615.732 4.077 4.634 6.785 8.71 6.052 4.076-.734 6.786-4.634 6.052-8.71-1.954-10.856-4.255-21.783-6.837-32.478-2.743-11.362-.17-23.146 7.061-32.331 7.231-9.183 18.082-14.451 29.77-14.451s22.539 5.268 29.771 14.451c7.23 9.185 9.804 20.969 7.061 32.331-21.2 87.807-21.2 180.63 0 268.436 2.743 11.362.17 23.146-7.061 32.331-7.232 9.183-18.083 14.451-29.771 14.451s-22.539-5.268-29.771-14.451c-7.23-9.185-9.804-20.969-7.061-32.331 15.86-65.69 19.911-133.262 12.038-200.838-.479-4.115-4.206-7.057-8.317-6.582-4.114.479-7.061 4.203-6.581 8.317 7.666 65.814 3.724 131.617-11.72 195.582-3.831 15.86-.238 32.31 9.855 45.13 10.094 12.82 25.241 20.173 41.557 20.173s31.463-7.353 41.556-20.172c10.094-12.821 13.687-29.271 9.855-45.131-20.644-85.502-20.644-175.891 0-261.394 3.831-15.86.238-32.31-9.855-45.13s-25.24-20.173-41.556-20.173zm127.097 132.335-23.954-7.865c-1.169-.383-1.884-1.542-1.7-2.754 2.143-14.171 4.933-28.414 8.293-42.332 8.175-33.854.507-68.963-21.036-96.327s-53.874-43.057-88.7-43.057-67.155 15.694-88.699 43.058c-21.543 27.364-29.211 62.474-21.036 96.328 3.359 13.917 6.15 28.159 8.293 42.33.184 1.213-.531 2.372-1.7 2.755l-23.954 7.865c-11.317 3.716-18.921 14.216-18.921 26.128v75.074c0 11.912 7.604 22.412 18.921 26.128l23.954 7.865c1.169.383 1.884 1.542 1.7 2.754-2.143 14.171-4.933 28.414-8.293 42.332-8.175 33.854-.507 68.963 21.036 96.327s53.873 43.056 88.699 43.056c36.632 0 71.124-17.885 92.268-47.842 2.388-3.384 1.581-8.064-1.804-10.452-3.384-2.389-8.064-1.58-10.452 1.803-18.611 26.368-47.774 41.491-80.012 41.491-30.199 0-58.232-13.608-76.913-37.336s-25.329-54.173-18.242-83.528c3.462-14.337 6.337-29.009 8.545-43.609 1.281-8.478-3.704-16.572-11.853-19.248l-23.954-7.865c-5.145-1.688-8.601-6.461-8.601-11.876v-75.074c0-5.415 3.456-10.188 8.601-11.876l23.954-7.864c8.148-2.676 13.134-10.771 11.853-19.249-2.208-14.599-5.083-29.271-8.545-43.609-7.087-29.355-.438-59.8 18.242-83.528 18.681-23.73 46.714-37.338 76.913-37.338s58.232 13.608 76.913 37.336 25.329 54.173 18.242 83.528c-3.462 14.337-6.337 29.009-8.545 43.609-1.281 8.478 3.704 16.572 11.853 19.248l23.954 7.865c5.145 1.688 8.601 6.461 8.601 11.876v75.074c0 5.415-3.456 10.188-8.601 11.876l-23.954 7.864c-8.148 2.676-13.134 10.771-11.853 19.249 2.208 14.599 5.083 29.271 8.545 43.609 4.019 16.646 3.646 34.012-1.076 50.223-1.158 3.977 1.127 8.14 5.104 9.298 3.975 1.158 8.14-1.126 9.298-5.103 5.454-18.719 5.888-38.754 1.255-57.939-3.359-13.917-6.15-28.159-8.293-42.33-.184-1.213.531-2.372 1.7-2.755l23.954-7.865c11.317-3.716 18.921-14.216 18.921-26.128v-75.074c0-11.91-7.604-22.41-18.921-26.126zm-61.97-130.72c-15.817-20.092-39.556-31.615-65.127-31.615s-49.31 11.523-65.127 31.615c-15.818 20.092-21.448 45.872-15.446 70.729 19.531 80.896 19.531 166.416 0 247.312-6.002 24.856-.372 50.636 15.446 70.729 15.817 20.092 39.556 31.615 65.127 31.615s49.31-11.523 65.127-31.615c15.818-20.092 21.448-45.872 15.446-70.729-19.531-80.896-19.531-166.416 0-247.312 6.002-24.857.372-50.636-15.446-70.729zm.866 67.208c-20.088 83.2-20.088 171.154 0 254.353 4.915 20.359.304 41.474-12.651 57.93-12.956 16.456-32.398 25.894-53.342 25.894s-40.386-9.438-53.342-25.894c-12.955-16.457-17.566-37.571-12.651-57.93 20.088-83.2 20.088-171.154 0-254.353-4.915-20.359-.304-41.474 12.651-57.93 12.956-16.455 32.398-25.893 53.342-25.893s40.386 9.438 53.342 25.894c12.955 16.456 17.566 37.571 12.651 57.929z"/></g></svg>