<svg id="Capa_1" enable-background="new 0 0 512 512" height="512" viewBox="0 0 512 512" width="512" xmlns="http://www.w3.org/2000/svg"><g><g><g><path d="m504.5 220.808c0 3.298-1.075 6.405-2.938 8.927-1.864 2.522-16.512 1.576-19.668 2.531-24.544 7.432-49.828 12.993-82.441 35.468-53.859 37.117-78.14 85.79-93.855 114.604-1.135 2.081-3.209 10.827-5.091 12.129-2.467 1.707-5.436 2.664-8.543 2.664h-71.985c-2.737 0-5.361-.747-7.633-2.094-2.271-1.346-2.576-8.573-3.901-10.968-13.744-24.837-33.889-64.717-73.465-97.604-41.6-34.568-82.088-45.384-110.198-54.2-2.773-.87-11.915.481-13.707-1.625-2.253-2.648-3.575-6.063-3.575-9.718v-96.06c0-5.977 5.199-10.618 11.136-9.931 70.87 8.199 150.453 13.683 237.364 13.683 71.129 0 150.833-3.673 237.354-13.68 5.935-.686 11.146 3.955 11.146 9.93z" fill="#f58a97"/><path d="m471.198 117.361c-.022.002-.049.005-.07.007-.005 0-.009.001-.014.001 2.066 1.822 3.387 4.489 3.387 7.495v116.833c6.832-2.55 13.326-4.712 19.389-6.548 6.312-1.911 10.61-7.745 10.611-14.34v-95.945c0-5.602-4.58-10.031-10.043-9.998-.364.002-.732.024-1.103.067-1.373.159-3.905.441-6.796.759-5.146.579-10.266 1.135-15.361 1.669z" fill="#f07281"/><g><path d="m226 128.614c4.951 0 9.954-.022 14.987-.059-81.077-.59-155.584-5.9-222.351-13.623-2.953-.342-5.722.637-7.761 2.44 65.156 6.823 137.182 11.242 215.125 11.242z" fill="#f07281"/></g><path d="m163.37 255.777c-41.64-36.14-100.61-45.76-152.29-25.14l4.146 3.39c.878.488 1.809.902 2.795 1.211 28.11 8.816 69.898 26.098 111.498 60.666 39.576 32.886 63.568 68.611 77.312 93.447 1.241 2.242 2.722 3.636 4.665 5.142.001.001.003.002.004.003 9.44-51.659-8.79-104.579-48.13-138.719z" fill="#f6b2bb"/><path d="m348.63 255.777c-39.33 34.13-57.56 87.04-48.14 138.69l.015-.002c1.882-1.302 3.473-3.038 4.608-5.119 15.715-28.813 46.167-74.431 100.026-111.548 32.612-22.475 64.206-35.217 88.75-42.649 2.777-.841 5.164-2.443 6.967-4.533-51.669-20.588-110.607-10.968-152.226 25.161z" fill="#f6b2bb"/><path d="m500.536 230.962c.106-.116.218-.228.32-.347-8.62-3.435-17.445-6.009-26.356-7.78v18.861c5.123-1.913 10.057-3.606 14.76-5.108.003-.001.007-.002.01-.003 1.565-.5 3.106-.979 4.619-1.437 2.515-.76 4.448-1.791 6.647-4.186z" fill="#f8a6af"/><path d="m7.5 158.614c73.267 9.784 157.506 16.631 250.746 16.519 91.414-.109 174.12-6.886 246.254-16.519v-33.75c0-5.975-5.21-10.617-11.146-9.93-86.521 10.007-166.225 13.68-237.354 13.68-86.911 0-166.494-5.485-237.364-13.681-5.937-.687-11.136 3.955-11.136 9.931v33.75z" fill="#f07281"/><path d="m504.442 123.793c-.457-4.335-4.115-8.494-8.936-8.876-.701-.07-1.421-.067-2.152.017-1.373.159-3.905.441-6.796.759-.004 0-.007.001-.011.001-5.14.577-10.257 1.133-15.348 1.667h-.001c-.022.002-.049.005-.07.007-.005 0-.009.001-.014.001 2.066 1.822 3.387 4.489 3.387 7.495v37.508c10.19-1.194 20.196-2.448 30-3.758-.095-1.211.055-33.737-.059-34.821z" fill="#eb5569"/></g></g><path d="m492.493 107.484c-20.399 2.358-41.117 4.439-61.579 6.186-4.127.352-7.187 3.983-6.835 8.11s3.975 7.18 8.11 6.835c20.611-1.758 41.479-3.854 62.027-6.23 1.696-.196 2.712.794 2.784 2.48v27.158c-78.929 10.255-159.218 15.516-238.763 15.611-81.043.096-162.839-5.167-243.237-15.612v-27.158c.068-1.68 1.102-2.675 2.774-2.481 78.783 9.111 158.933 13.731 238.226 13.731 46.768 0 94.147-1.611 140.823-4.789 4.133-.281 7.255-3.859 6.974-7.992s-3.864-7.249-7.992-6.973c-46.338 3.154-93.375 4.754-139.805 4.754-78.719 0-158.29-4.587-236.502-13.632-10.262-1.186-19.549 7.082-19.498 17.383v96.06c0 9.883 6.34 18.511 15.776 21.47 40.089 12.573 76.745 32.518 108.949 59.279 30.73 25.535 56.146 56.257 75.543 91.31 3.941 7.122 11.533 11.668 19.71 11.648h71.985c8.238 0 15.799-4.48 19.734-11.694 16.597-30.432 47.02-74.038 97.697-108.963 26.453-18.23 55.612-32.242 86.668-41.647 9.533-2.886 15.937-11.533 15.937-21.519v-95.943c.057-10.31-9.324-18.559-19.506-17.382zm-91.61 164.138c-38.159 26.298-70.842 61.245-95.189 101.646-1.674-42.434 15.741-83.961 47.852-111.827 19.352-16.8 43.09-27.904 68.648-32.113 19.283-3.178 38.967-2.321 57.833 2.423-28.184 9.685-54.759 23.067-79.144 39.871zm96.117-50.814c0 .129-.024.252-.03.379-24.779-8.605-51.319-10.928-77.212-6.66-28.299 4.66-54.595 16.966-76.043 35.586-39.536 34.308-58.968 87.274-51.59 139.507-.054.001-.107.011-.161.011h-71.985c-.036 0-.071-.007-.107-.007 3.53-24.933 1.048-50.445-7.288-74.175-1.373-3.908-5.654-5.962-9.562-4.59-3.908 1.373-5.963 5.654-4.59 9.562 5.987 17.042 8.629 35.104 7.87 53.114-19.272-31.656-43.432-59.67-71.988-83.399-30.667-25.483-65.197-45.039-102.769-58.275 18.984-4.835 38.807-5.734 58.229-2.538 25.569 4.207 49.319 15.313 68.682 32.12 9.745 8.455 18.26 18.25 25.31 29.111 2.276 3.507 6.941 4.436 10.375 2.208 3.474-2.255 4.462-6.9 2.208-10.374-7.814-12.04-17.256-22.898-28.061-32.274-21.46-18.626-47.768-30.934-76.079-35.592-25.889-4.258-52.419-1.936-77.187 6.665-.003-.089-.021-.174-.021-.263v-53.778c80.423 10.363 162.205 15.584 243.255 15.487 79.534-.095 159.806-5.314 238.745-15.487v53.662z"/></g></svg>