<svg id="Capa_1" enable-background="new 0 0 511.998 511.998" height="512" viewBox="0 0 511.998 511.998" width="512" xmlns="http://www.w3.org/2000/svg"><g><g><path d="m357.554 491.911-56.724-119.643c-14.64-30.879-60.024-30.879-74.664 0l-56.723 119.643c-7.715 16.272-31.387 16.914-40.033 1.085l-11.362-20.8c-31.698-58.032-37.515-126.151-16.168-188.448l.381-1.113c4.754-13.873 4.677-28.448-.06-41.988l-35.922-102.689c-26.488-75.722 46.253-148.883 125.567-126.293l52.418 14.93c12.557 3.576 25.914 3.576 38.471 0l52.418-14.93c79.314-22.59 152.055 50.571 125.566 126.293l-35.922 102.689c-4.736 13.54-4.784 28.202-.134 41.77 21.659 63.208 15.723 132.222-16.438 191.103l-10.638 19.476c-8.646 15.828-32.318 15.187-40.033-1.085z" fill="#eaf6ff"/><g fill="#d8ecfe"><path d="m196.167 372.268-56.723 119.643c-1.336 2.819-3.159 5.157-5.292 7.033 10.579 9.338 28.721 6.827 35.292-7.033l56.723-119.643c4.831-10.189 13.016-16.993 22.332-20.458-18.918-7.037-42.523-.232-52.332 20.458z"/><path d="m460.718 137.958c24.883-71.132-37.8-139.998-111.239-129.359 59.271 8.696 102.638 68.186 81.239 129.359l-35.922 102.689c-4.736 13.54-4.784 28.202-.134 41.77 21.659 63.208 15.723 132.222-16.438 191.103l-10.638 19.476c-1.282 2.347-2.899 4.322-4.741 5.947 10.18 8.956 27.593 7.14 34.741-5.947l10.638-19.476c32.161-58.882 38.097-127.895 16.438-191.103-4.649-13.568-4.602-28.23.134-41.77z"/></g><path d="m478.537 68.727-3.014.959c-21.09 6.71-37.614 23.235-44.325 44.325l-.959 3.014c-1.468 4.615-7.999 4.615-9.467 0l-.959-3.014c-6.71-21.09-23.235-37.614-44.325-44.325l-3.014-.959c-4.615-1.468-4.615-7.999 0-9.467l3.014-.959c21.09-6.71 37.614-23.235 44.325-44.325l.959-3.014c1.468-4.615 7.999-4.615 9.467 0l.959 3.014c6.71 21.09 23.235 37.614 44.325 44.325l3.014.959c4.616 1.468 4.616 7.998 0 9.467z" fill="#ffe179"/><path d="m478.537 59.259-3.014-.959c-21.09-6.71-37.613-23.234-44.324-44.323l-.96-3.016c-1.469-4.615-7.999-4.615-9.467 0l-.959 3.014c-2.151 6.759-5.314 13.046-9.307 18.694 8.468 11.976 20.686 21.071 35.018 25.631 5.55 1.766 5.55 9.619 0 11.385-14.331 4.56-26.55 13.655-35.018 25.631 3.994 5.648 7.157 11.935 9.307 18.694l.959 3.014c1.469 4.615 7.999 4.615 9.467 0l.96-3.016c6.711-21.089 23.235-37.613 44.324-44.323l3.014-.959c4.616-1.468 4.616-7.998 0-9.467z" fill="#fbd268"/><path d="m125.233 174.494-2.621.834c-18.338 5.835-32.707 20.203-38.541 38.542l-.834 2.621c-1.277 4.013-6.955 4.013-8.232 0l-.834-2.621c-5.835-18.338-20.203-32.707-38.542-38.542l-2.621-.834c-4.013-1.277-4.013-6.955 0-8.232l2.621-.834c18.338-5.835 32.707-20.203 38.542-38.541l.834-2.621c1.277-4.013 6.955-4.013 8.232 0l.834 2.621c5.835 18.338 20.203 32.707 38.541 38.541l2.621.834c4.013 1.277 4.013 6.955 0 8.232z" fill="#ffe179"/><path d="m125.233 166.262-2.622-.834c-18.338-5.835-32.706-20.203-38.54-38.541l-.834-2.621c-1.277-4.013-6.955-4.013-8.232 0l-.834 2.621c-2.209 6.941-5.644 13.31-10.05 18.866 7.235 9.123 17.094 16.049 28.491 19.675 4.826 1.536 4.826 8.364 0 9.9-11.397 3.626-21.257 10.552-28.491 19.675 4.406 5.556 7.842 11.925 10.05 18.866l.834 2.621c1.277 4.013 6.955 4.013 8.232 0l.833-2.62c5.835-18.339 20.203-32.708 38.542-38.543l2.621-.834c4.013-1.276 4.013-6.954 0-8.231z" fill="#fbd268"/></g><path d="m480.811 52.112-3.014-.959c-18.74-5.963-33.489-20.711-39.452-39.452l-.959-3.015c-1.653-5.195-6.428-8.686-11.881-8.686s-10.227 3.492-11.88 8.688l-.78 2.451c-24.611-12.008-52.601-14.412-79.75-6.682l-52.412 14.92c-11.241 3.206-23.126 3.205-34.371 0l-52.408-14.92c-21.284-6.064-43.406-5.909-63.976.447-3.958 1.223-6.174 5.422-4.951 9.38s5.424 6.176 9.38 4.951c17.785-5.496 36.954-5.618 55.438-.352l52.408 14.919c6.967 1.986 14.131 2.979 21.296 2.978 7.164 0 14.329-.993 21.293-2.978l52.41-14.92c23.695-6.748 48.097-4.612 69.481 5.941-7.539 12.386-19.374 21.844-33.47 26.329l-3.015.959c-5.196 1.654-8.687 6.429-8.687 11.881 0 5.453 3.491 10.227 8.687 11.88l3.014.959c18.741 5.963 33.489 20.711 39.452 39.452l.959 3.014c1.653 5.196 6.427 8.687 11.88 8.687 5.453 0 10.227-3.491 11.881-8.687l.959-3.014c3.496-10.988 10.029-20.585 18.6-27.862 3.224 15.454 2.124 31.535-3.306 47.061l-35.917 102.69c-5.264 15.036-5.319 31.614-.156 46.681 8.251 24.062 12.435 49.12 12.435 74.478 0 38.39-9.804 76.633-28.352 110.595l-10.639 19.477c-2.69 4.921-7.791 7.763-13.612 7.589-5.797-.167-10.679-3.268-13.061-8.294l-21.724-45.814c-1.775-3.743-6.248-5.338-9.99-3.563s-5.338 6.248-3.563 9.99l21.724 45.813c4.773 10.072 14.805 16.533 26.181 16.862 11.324.328 21.847-5.555 27.208-15.389l10.641-19.48c19.749-36.16 30.188-76.89 30.188-117.785 0-27.017-4.457-53.712-13.245-79.342-4.077-11.896-4.033-24.987.125-36.862l35.92-102.691c6.995-20.001 7.817-40.828 2.494-60.631 2.42-1.144 4.92-2.149 7.505-2.972l3.014-.959c5.196-1.653 8.687-6.427 8.688-11.88s-3.493-10.229-8.69-11.883zm-55.305 55.476c-7.681-20.025-23.57-35.914-43.595-43.596 19.682-7.543 36.019-23.825 43.595-43.595 7.682 20.024 23.57 35.914 43.595 43.595-19.658 7.531-36.027 23.88-43.595 43.596zm-97.846 303.763-20.055-42.294c-8.026-16.93-24.927-27.447-44.107-27.447s-36.081 10.517-44.107 27.446l-56.73 119.642c-2.381 5.025-7.263 8.125-13.06 8.292-5.845.183-10.921-2.668-13.61-7.586l-11.36-20.8c-30.528-55.895-36.235-122.386-15.649-182.446 5.42-15.814 5.776-32.336.297-47.985l-12.092-34.562c6.456-9.909 16.186-17.472 27.7-21.136l2.621-.834c4.926-1.567 8.235-6.094 8.235-11.263s-3.309-9.696-8.235-11.263l-2.621-.834c-15.993-5.089-28.58-17.675-33.668-33.668l-.834-2.621c-1.567-4.926-6.094-8.235-11.263-8.235-4.053 0-7.704 2.04-9.85 5.294-4.933-32.376 8.387-64.571 36.407-85.296 3.33-2.463 4.033-7.16 1.57-10.49-2.464-3.33-7.16-4.034-10.49-1.57-17.88 13.225-31.038 31.024-38.052 51.475-7.413 21.613-7.285 44.712.351 66.832-6.392 8.502-15.32 14.977-25.702 18.28l-2.62.834c-4.926 1.567-8.236 6.094-8.236 11.263s3.31 9.695 8.235 11.263l2.621.834c15.993 5.089 28.58 17.675 33.668 33.669l.834 2.62c1.567 4.925 6.093 8.235 11.262 8.235 3.521 0 6.74-1.537 8.933-4.072l7.067 20.2c4.377 12.465 3.989 25.57-.336 38.19-21.94 64.011-15.859 134.895 16.683 194.477l11.362 20.803c5.227 9.56 15.243 15.4 26.297 15.399 11.651-.001 22.202-6.525 27.09-16.874l56.73-119.641c5.519-11.641 17.227-18.873 30.553-18.873s25.034 7.231 30.553 18.873l20.055 42.294c1.774 3.742 6.246 5.337 9.99 3.563 3.743-1.773 5.338-6.245 3.563-9.988zm-248.54-205.673c-6.759-15.858-19.441-28.541-35.299-35.3 15.515-6.647 28.697-19.725 35.3-35.299 6.759 15.858 19.441 28.541 35.299 35.3-15.565 6.615-28.661 19.735-35.3 35.299z"/></g></svg>