<svg id="Capa_1" enable-background="new 0 0 512 512" height="512" viewBox="0 0 512 512" width="512" xmlns="http://www.w3.org/2000/svg"><g><g><g><path d="m281 32.5v282.629h-50v-282.629c0-13.807 11.193-25 25-25 13.807 0 25 11.193 25 25z" fill="#e19974"/><path d="m256 7.5c-5.628 0-10.822 1.861-15 5 6.072 4.561 10 11.822 10 20v282.629h30v-282.629c0-13.807-11.193-25-25-25z" fill="#dc8758"/><circle cx="256" cy="345.344" fill="#b4e5f9" r="49.275"/><path d="m256 296.07c-5.231 0-10.27.822-15 2.333 19.877 6.347 34.274 24.96 34.274 46.942s-14.397 40.594-34.274 46.941c4.73 1.51 9.769 2.333 15 2.333 27.214 0 49.274-22.061 49.274-49.275s-22.06-49.274-49.274-49.274z" fill="#8fd8fa"/><path d="m374 504.5h-236c-12.979 0-23.5-10.521-23.5-23.5 0-12.979 10.521-23.5 23.5-23.5h236c12.979 0 23.5 10.521 23.5 23.5 0 12.979-10.521 23.5-23.5 23.5z" fill="#b4e5f9"/><path d="m374 457.5h-30c12.979 0 23.5 10.521 23.5 23.5s-10.521 23.5-23.5 23.5h30c12.979 0 23.5-10.521 23.5-23.5s-10.521-23.5-23.5-23.5z" fill="#8fd8fa"/><path d="m367.5 457.5h-223v-10.5c0-61.58 49.92-111.5 111.5-111.5 61.58 0 111.5 49.92 111.5 111.5z" fill="#8fd8fa"/><path d="m256 335.5c-5.088 0-10.093.348-15 1.008 54.485 7.327 96.5 54 96.5 110.492v10.5h30v-10.5c0-61.58-49.92-111.5-111.5-111.5z" fill="#6bcdfe"/></g><path d="m231 141.5h50v35h-50z" fill="#f4d7c8"/><path d="m251 141.5h30v35h-30z" fill="#ecbba3"/></g><path d="m375 450.025c1.15-46.113-24.316-86.973-62.307-107.632-.925-18.007-10.288-33.812-24.193-43.559v-266.334c0-8.685-3.38-16.847-9.517-22.983-6.136-6.137-14.298-9.517-22.983-9.517-17.92 0-32.5 14.58-32.5 32.5v37.435c0 4.142 3.358 7.5 7.5 7.5s7.5-3.358 7.5-7.5v-37.435c0-9.649 7.851-17.5 17.5-17.5 4.678 0 9.073 1.819 12.377 5.124 3.304 3.303 5.123 7.699 5.123 12.376v101.5h-35v-29.065c0-4.142-3.358-7.5-7.5-7.5s-7.5 3.358-7.5 7.5v193.899c-13.906 9.747-23.269 25.552-24.194 43.559-37.935 20.607-63.473 61.604-62.306 107.632-16.631.531-30 14.217-30 30.975 0 17.093 13.907 31 31 31h236c17.094 0 31-13.907 31-31 0-16.758-13.368-30.444-30-30.975zm-136.5-301.025h35v20h-35zm0 35h35v107.342c-5.516-1.792-11.394-2.773-17.5-2.773s-11.984.98-17.5 2.773zm17.5 119.57c19.5 0 35.917 13.432 40.495 31.529-12.646-4.591-26.283-7.099-40.495-7.099s-27.849 2.508-40.496 7.099c4.579-18.097 20.996-31.529 40.496-31.529zm118 193.43h-236c-8.822 0-16-7.178-16-16s7.178-16 16-16h161.25c4.143 0 7.5-3.358 7.5-7.5s-3.357-7.5-7.5-7.5h-147.25c-1.686-58.485 45.595-107 104-107 58.402 0 105.674 48.57 104 107h-25.75c-4.143 0-7.5 3.358-7.5 7.5s3.357 7.5 7.5 7.5h39.75c8.822 0 16 7.178 16 16s-7.178 16-16 16z"/></g></svg>