<svg id="Capa_1" enable-background="new 0 0 512 512" height="512" viewBox="0 0 512 512" width="512" xmlns="http://www.w3.org/2000/svg"><g><g><g><path d="m270.923 16.708 3.331 85.726-22.765 32.298-82.776-56.314z" fill="#c4e2ff"/><path d="m89.156 59.855c-.814-2.909.323-6.022 2.837-7.696 25.024-16.661 62.782-36.32 111.381-42.537 26.705-3.416 64.51-3.774 67.549 7.086 4.351 15.544-73.346 40.164-69.353 67.863 1.298 9.005 10.646 14.479 14.771 16.894 42.779 25.05 148.082-36.385 192.051-64.245 5.457-3.458 12.281 1.703 10.453 7.899-18.194 61.652-36.388 123.303-54.582 184.955-75.682.542-151.364 1.084-227.045 1.626-16.021-57.282-32.041-114.563-48.062-171.845z" fill="#eaf6ff"/><g><path d="m408.392 37.22c-5.978 3.788-13.097 8.199-21.031 12.927-17.699 59.976-35.398 119.952-53.098 179.927-65.702.47-131.404.941-197.105 1.411.02.071.04.143.06.214 75.682-.542 151.363-1.084 227.045-1.626 18.194-61.652 36.387-123.304 54.582-184.955 1.828-6.195-4.996-11.356-10.453-7.898z" fill="#d8ecfe"/></g><path d="m201.57 84.572c-3.993-27.7 73.704-52.32 69.353-67.863-3.04-10.859-40.844-10.501-67.549-7.086-48.598 6.216-86.357 25.876-111.38 42.537-2.515 1.674-3.651 4.787-2.837 7.696 15.238 54.484 30.476 108.968 45.714 163.452h81.015z" fill="#d8ecfe"/></g><path d="m482 223.307h-452c-12.426 0-22.5 10.074-22.5 22.5 0 12.426 10.074 22.5 22.5 22.5h452c12.426 0 22.5-10.074 22.5-22.5 0-12.426-10.074-22.5-22.5-22.5z" fill="#f8a6af"/><path d="m482 223.307h-30c12.426 0 22.5 10.074 22.5 22.5 0 12.426-10.074 22.5-22.5 22.5h30c12.426 0 22.5-10.074 22.5-22.5 0-12.426-10.074-22.5-22.5-22.5z" fill="#f58a97"/><g><path d="m444.5 504.5h-377c-16.569 0-30-13.431-30-30v-206.193h437v206.193c0 16.569-13.431 30-30 30z" fill="#f58a97"/><path d="m444.5 268.307v206.193c0 16.569-13.431 30-30 30h30c16.569 0 30-13.431 30-30v-206.193z" fill="#f07281"/><path d="m67.5 470.5v-168.192c0-2.209 1.791-4 4-4h369c2.209 0 4 1.791 4 4v168.192c0 2.209-1.791 4-4 4h-369c-2.209 0-4-1.791-4-4z" fill="#eaf6ff"/><path d="m440.5 298.308h-30c2.209 0 4 1.791 4 4v168.192c0 2.209-1.791 4-4 4h30c2.209 0 4-1.791 4-4v-168.192c0-2.21-1.791-4-4-4z" fill="#d8ecfe"/></g><circle cx="256" cy="386.404" fill="#f58a97" r="46"/><path d="m256 340.404c-5.254 0-10.297.893-15 2.515 18.037 6.221 31 23.334 31 43.485s-12.963 37.264-31 43.485c4.703 1.622 9.746 2.515 15 2.515 25.405 0 46-20.595 46-46s-20.595-46-46-46z" fill="#f07281"/></g><path d="m202.5 386.404c0 29.5 24 53.5 53.5 53.5s53.5-24 53.5-53.5-24-53.5-53.5-53.5-53.5 24-53.5 53.5zm92 0c0 21.229-17.271 38.5-38.5 38.5s-38.5-17.271-38.5-38.5 17.271-38.5 38.5-38.5 38.5 17.271 38.5 38.5zm187.5-170.596h-105.715c11.181-37.871 22.356-75.739 33.531-113.607l16.218-54.957c1.728-5.854-.303-12.012-5.173-15.687-4.867-3.671-11.337-3.933-16.485-.671-47.918 30.362-90.106 51.302-123.003 61.583l-2.826-72.761c1.803-15.614-19.268-18.562-32.047-19.378-12.526-.8-28.595-.125-44.081 1.852-40.154 5.14-78.706 19.855-114.582 43.735-5.238 3.485-7.606 9.906-5.898 15.964l13.778 49.258c1.115 3.989 5.247 6.32 9.243 5.203 3.989-1.116 6.318-5.254 5.202-9.243l-13.683-48.917c33.843-22.458 70.126-36.294 107.842-41.123 29.768-3.8 52.88-1.754 58.671 1.54-3.185 4.142-15.371 11.682-23.693 16.832-22.383 13.85-47.718 29.538-45.195 49.775.004.045.002.089.007.134l13.461 130.467h-67.012l-20.89-74.711c-1.116-3.988-5.255-6.321-9.242-5.203-3.989 1.115-6.319 5.253-5.203 9.243l19.76 70.671h-94.985c-16.542 0-30 13.458-30 30s13.458 30 30 30v198.693c0 20.678 16.822 37.5 37.5 37.5h377c20.678 0 37.5-16.822 37.5-37.5v-198.692c16.542 0 30-13.458 30-30s-13.458-30-30-30zm-205.11-106.357c43.852-11.768 101.729-44.41 134.381-65.178l-15.842 53.682c-11.592 39.284-23.184 78.566-34.785 117.853h-62.352l9.963-55.287c.735-4.076-1.975-7.977-6.051-8.711-4.079-.732-7.977 1.975-8.711 6.051l-10.443 57.947h-60.4l-11.196-108.513c14.604 8.774 37.973 9.526 65.436 2.156zm-29.7-61.264c6.375-3.945 12.18-7.539 17.023-11.004l2.305 59.349c-20.491 4.724-36.349 4.345-46.415-1.549-3.091-1.816-10.33-6.068-11.11-11.483-1.544-10.722 22.372-25.521 38.197-35.313zm219.81 426.313c0 12.407-10.094 22.5-22.5 22.5h-377c-12.406 0-22.5-10.093-22.5-22.5v-198.692h422zm15-213.692h-452c-8.271 0-15-6.729-15-15s6.729-15 15-15h452c8.271 0 15 6.729 15 15s-6.729 15-15 15zm-410.5 221.192h282.116c4.143 0 7.5-3.358 7.5-7.5s-3.357-7.5-7.5-7.5h-278.616v-161.192h362v161.192h-48.384c-4.143 0-7.5 3.358-7.5 7.5s3.357 7.5 7.5 7.5h51.884c6.341 0 11.5-5.159 11.5-11.5v-168.192c0-6.341-5.159-11.5-11.5-11.5h-369c-6.341 0-11.5 5.159-11.5 11.5v168.192c0 6.341 5.159 11.5 11.5 11.5z"/></g></svg>