<svg id="Capa_1" enable-background="new 0 0 512 512" height="512" viewBox="0 0 512 512" width="512" xmlns="http://www.w3.org/2000/svg"><g><g><circle cx="256" cy="179" fill="#eaf6ff" r="171.5"/><path d="m256 7.5c-5.055 0-10.056.232-15 .66 87.691 7.6 156.5 81.178 156.5 170.84s-68.809 163.24-156.5 170.84c4.944.428 9.945.66 15 .66 94.717 0 171.5-76.783 171.5-171.5s-76.783-171.5-171.5-171.5z" fill="#d8ecfe"/><circle cx="256" cy="179" fill="#c4e2ff" r="106.045"/><path d="m256 72.955c-5.093 0-10.099.367-15 1.061 51.462 7.288 91.045 51.51 91.045 104.984s-39.583 97.696-91.045 104.984c4.901.694 9.907 1.061 15 1.061 58.567 0 106.045-47.478 106.045-106.045s-47.478-106.045-106.045-106.045z" fill="#b3dafe"/><path d="m454.5 504.5h-397c-27.614 0-50-22.386-50-50v-9.662c0-2.209 1.791-4 4-4h489c2.209 0 4 1.791 4 4v9.662c0 27.614-22.386 50-50 50z" fill="#c4e2ff"/><path d="m500.5 440.838h-30c2.209 0 4 1.791 4 4v9.662c0 27.614-22.386 50-50 50h30c27.614 0 50-22.386 50-50v-9.662c0-2.209-1.791-4-4-4z" fill="#b3dafe"/><path d="m454.5 440.838h-397c-27.614 0-50-22.386-50-50v-9.662c0-2.209 1.791-4 4-4h489c2.209 0 4 1.791 4 4v9.662c0 27.615-22.386 50-50 50z" fill="#eaf6ff"/><path d="m500.5 377.177h-30c2.209 0 4 1.791 4 4v9.662c0 27.614-22.386 50-50 50h30c27.614 0 50-22.386 50-50v-9.662c0-2.209-1.791-4-4-4z" fill="#d8ecfe"/><path d="m454.5 377.177h-397c-27.614 0-50-22.386-50-50v-9.662c0-2.209 1.791-4 4-4h489c2.209 0 4 1.791 4 4v9.662c0 27.614-22.386 50-50 50z" fill="#c4e2ff"/><path d="m500.5 313.515h-30c2.209 0 4 1.791 4 4v9.662c0 27.614-22.386 50-50 50h30c27.614 0 50-22.386 50-50v-9.662c0-2.209-1.791-4-4-4z" fill="#b3dafe"/><path d="m466.643 80.935-3.447 1.097c-24.117 7.674-43.013 26.57-50.687 50.687l-1.097 3.447c-1.679 5.277-9.147 5.277-10.826 0l-1.097-3.447c-7.674-24.117-26.57-43.013-50.687-50.687l-3.447-1.097c-5.277-1.679-5.277-9.147 0-10.826l3.447-1.097c24.117-7.674 43.013-26.57 50.687-50.687l1.097-3.447c1.679-5.277 9.147-5.277 10.826 0l1.097 3.447c7.674 24.117 26.57 43.013 50.687 50.687l3.447 1.097c5.278 1.679 5.278 9.147 0 10.826z" fill="#ffe179"/><path d="m466.643 70.109-3.447-1.097c-24.117-7.673-43.013-26.57-50.687-50.687l-1.097-3.447c-1.679-5.278-9.147-5.278-10.826 0l-1.097 3.447c-2.059 6.47-4.932 12.56-8.49 18.163 9.705 15.281 24.55 26.909 42.197 32.524 6.347 2.019 6.347 11 0 13.02-17.646 5.615-32.491 17.243-42.196 32.524 3.558 5.603 6.432 11.692 8.49 18.162l1.097 3.447c1.679 5.278 9.147 5.278 10.826 0l1.097-3.447c7.673-24.117 26.57-43.013 50.687-50.687l3.447-1.097c5.277-1.678 5.277-9.146-.001-10.825z" fill="#fbd268"/></g><path d="m512 327.177v-9.661c0-6.341-5.159-11.5-11.5-11.5h-118.351c33.804-33.475 52.851-78.761 52.851-127.016 0-19.712-3.177-39.03-9.44-57.479 8.685-15.252 22.877-26.923 39.912-32.343l3.446-1.097c5.494-1.748 9.185-6.796 9.184-12.562 0-5.764-3.692-10.811-9.184-12.558l-3.447-1.097c-21.763-6.925-38.889-24.052-45.814-45.815l-1.097-3.446c-1.748-5.493-6.795-9.184-12.56-9.184s-10.812 3.69-12.56 9.184l-1.097 3.446c-3.522 11.07-9.688 20.936-17.757 28.875-32.755-29.015-74.59-44.924-118.586-44.924-98.701 0-179 80.299-179 179 0 48.255 19.047 93.541 52.851 127.016h-118.351c-6.341 0-11.5 5.159-11.5 11.5v9.661c0 16.821 7.261 31.976 18.811 42.5h-7.311c-6.341 0-11.5 5.159-11.5 11.5v9.662c0 16.821 7.261 31.976 18.811 42.5h-7.311c-6.341 0-11.5 5.159-11.5 11.5v9.661c0 31.706 25.794 57.5 57.5 57.5h397c31.706 0 57.5-25.794 57.5-57.5v-9.661c0-6.341-5.159-11.5-11.5-11.5h-7.311c11.551-10.524 18.811-25.679 18.811-42.5v-9.662c0-6.341-5.159-11.5-11.5-11.5h-7.311c11.55-10.524 18.811-25.68 18.811-42.5zm-106-304.655c8.559 24.839 28.161 44.441 53 53-24.838 8.558-44.441 28.16-53 52.999-8.559-24.839-28.162-44.441-53-52.999 24.706-8.537 44.445-28.134 53-53zm-314 156.478c0-90.43 73.57-164 164-164 39.407 0 76.92 13.929 106.619 39.389-4.977 3.127-10.371 5.657-16.09 7.477l-3.445 1.096c-5.493 1.748-9.185 6.795-9.185 12.559 0 5.766 3.69 10.813 9.184 12.562l3.447 1.098c21.763 6.923 38.889 24.05 45.814 45.813l1.097 3.446c1.748 5.493 6.795 9.184 12.56 9.184 3.964 0 7.588-1.745 10.034-4.62 2.631 11.74 3.965 23.783 3.965 35.996 0 49.564-21.941 95.701-60.273 127.016h-207.454c-38.332-31.315-60.273-77.452-60.273-127.016zm405 269.339v6.161c0 23.435-19.065 42.5-42.5 42.5h-397c-23.435 0-42.5-19.065-42.5-42.5v-6.161zm-88.812-63.662h88.812v6.162c0 23.435-19.065 42.5-42.5 42.5h-397c-23.435 0-42.5-19.065-42.5-42.5v-6.162h358.188c4.142 0 7.5-3.357 7.5-7.5s-3.358-7.5-7.5-7.5h-315.688c-23.435 0-42.5-19.065-42.5-42.5v-6.161h482v6.161c0 23.435-19.065 42.5-42.5 42.5h-46.312c-4.142 0-7.5 3.357-7.5 7.5s3.357 7.5 7.5 7.5zm-152.188-92.132c62.609 0 113.545-50.937 113.545-113.545 0-25.73-8.393-49.994-24.272-70.17-2.562-3.254-7.278-3.816-10.532-1.255-3.255 2.562-3.817 7.277-1.255 10.532 13.777 17.505 21.059 38.561 21.059 60.893 0 54.338-44.207 98.545-98.545 98.545s-98.545-44.207-98.545-98.545 44.207-98.545 98.545-98.545c19.024 0 37.486 5.429 53.39 15.7 3.477 2.246 8.121 1.247 10.369-2.23 2.247-3.479 1.249-8.122-2.231-10.369-18.334-11.842-39.61-18.101-61.528-18.101-62.609 0-113.545 50.937-113.545 113.545s50.936 113.545 113.545 113.545z"/></g></svg>