<svg id="Capa_1" enable-background="new 0 0 512 512" height="512" viewBox="0 0 512 512" width="512" xmlns="http://www.w3.org/2000/svg"><g><g><path d="m110.344 389.669c-4.57 11.019-1.526 22.963 2.243 34.281 4.712 14.15 4.352 26.435 16.788 37.767 28.457 25.929 74.574 42.783 126.625 42.783 15.164 0 29.824-1.43 43.691-4.099 17.986-3.461 30.584-13.609 45.268-20.816 13.262-6.509 28.971-9.772 38.556-18.686 11.98-11.141 20.724-23.918 25.323-37.728 3.769-11.318 3.21-23.634-1.36-34.653-35.185-84.841-35.185-180.193 0-265.034 4.57-11.019 5.129-23.335 1.36-34.653-15.01-45.077-74.188-79.151-145.886-81.229-2.304-.067-10.027 9.794-12.357 9.794-30.999 0-54.488-3.917-78.801 6.396-34.353 14.571-59.558 37.795-68.63 65.039-3.769 11.318-3.21 23.634 1.36 34.653 33.765 81.417 35.128 172.512 4.089 254.71-1.307 3.457 1.731 11.475 1.731 11.475z" fill="#ffe179"/><path d="m407.477 388.517c-35.185-84.841-35.185-180.193 0-265.034 4.57-11.019 5.128-23.335 1.359-34.653-15.492-46.526-78.036-81.33-152.836-81.33-5.061 0-10.062.165-15 .476 68.045 4.292 123.393 37.475 137.837 80.853 3.769 11.318 3.21 23.634-1.359 34.653-35.185 84.841-35.185 180.193 0 265.034 4.57 11.019 5.128 23.335 1.359 34.653-14.444 43.378-69.792 76.561-137.837 80.853 4.938.311 9.939.476 15 .476 15.164 0 29.824-1.43 43.691-4.099 17.087-3.288 31.133-11.586 45.267-18.273 14.182-6.71 28.44-11.821 38.556-21.229 11.98-11.141 20.724-23.918 25.323-37.728 3.769-11.317 3.21-23.632-1.36-34.652z" fill="#fbd268"/><path d="m262.951 7.601c-2.305-.067-4.622-.101-6.951-.101-30.865 0-59.638 5.93-83.885 16.16-.005.281-.021.558-.021.84 0 25.957 21.042 47 47 47s47-21.043 47-47c0-5.959-1.12-11.653-3.143-16.899z" fill="#fef0ae"/><path d="m262.951 7.601c-9.863-.287-20.023.054-29.646.984 1.792 4.973 2.789 10.325 2.789 15.916 0 20.71-13.401 38.279-32 44.541 4.712 1.587 9.753 2.459 15 2.459 25.958 0 47-21.043 47-47 0-5.96-1.12-11.654-3.143-16.9z" fill="#fee97d"/><path d="m108.591 378.185c-1.306 3.458-2.648 6.906-4.068 10.332-4.57 11.019-5.128 23.335-1.36 34.653 4.711 14.149 13.781 27.21 26.217 38.542 11.124-8.595 18.295-22.058 18.295-37.204-.001-23.258-16.898-42.557-39.084-46.323z" fill="#fef0ae"/><path d="m108.591 378.185c-1.256 3.325-2.548 6.64-3.909 9.936 10.54 8.615 17.273 21.711 17.273 36.387 0 8.249-2.14 15.99-5.874 22.726 3.849 5.077 8.296 9.919 13.298 14.478 11.124-8.595 18.295-22.058 18.295-37.204 0-23.258-16.897-42.557-39.083-46.323z" fill="#fee97d"/><path d="m344.958 440.764c-25.957 0-47 21.043-47 47 0 4.38.612 8.614 1.732 12.636 34.231-6.587 63.625-20.718 83.823-39.502-8.493-12.167-22.59-20.134-38.555-20.134z" fill="#fef0ae"/><path d="m366.759 446.13c-14.709 20.003-38.824 36.401-68.527 46.668.281 2.603.774 5.143 1.459 7.602 34.23-6.587 63.624-20.718 83.822-39.5 0 0 .001-.001.001-.001-4.306-6.169-10.056-11.25-16.755-14.769z" fill="#fee97d"/><circle cx="190.595" cy="153.253" fill="#fef0ae" r="27.119"/><path d="m190.595 126.134c-5.547 0-10.703 1.669-15 4.527 7.303 4.859 12.119 13.162 12.119 22.592s-4.816 17.733-12.119 22.592c4.297 2.859 9.453 4.527 15 4.527 14.977 0 27.119-12.142 27.119-27.119 0-14.978-12.142-27.119-27.119-27.119z" fill="#fee97d"/><circle cx="195.515" cy="293.505" fill="#fef0ae" r="27.119"/><path d="m195.515 266.386c-5.548 0-10.703 1.669-15 4.527 7.304 4.859 12.119 13.162 12.119 22.592s-4.815 17.733-12.119 22.592c4.297 2.859 9.452 4.527 15 4.527 14.977 0 27.119-12.142 27.119-27.119s-12.142-27.119-27.119-27.119z" fill="#fee97d"/><circle cx="231.213" cy="433.758" fill="#fef0ae" r="27.119"/><path d="m231.213 406.639c-5.547 0-10.704 1.669-15 4.527 7.303 4.859 12.119 13.162 12.119 22.592s-4.815 17.733-12.119 22.592c4.296 2.859 9.453 4.527 15 4.527 14.977 0 27.119-12.142 27.119-27.119s-12.141-27.119-27.119-27.119z" fill="#fee97d"/><circle cx="344.959" cy="92.689" fill="#fef0ae" r="27.119"/><path d="m344.958 65.57c-5.547 0-10.703 1.669-15 4.527 7.304 4.859 12.119 13.162 12.119 22.592s-4.815 17.733-12.119 22.592c4.297 2.859 9.453 4.527 15 4.527 14.978 0 27.119-12.142 27.119-27.119s-12.141-27.119-27.119-27.119z" fill="#fee97d"/><circle cx="297.959" cy="237.364" fill="#fef0ae" r="35.864"/><path d="m297.958 201.5c-5.357 0-10.435 1.183-15 3.289 12.313 5.68 20.864 18.125 20.864 32.576s-8.551 26.896-20.864 32.576c4.565 2.106 9.643 3.289 15 3.289 19.807 0 35.864-16.057 35.864-35.864.001-19.809-16.056-35.866-35.864-35.866z" fill="#fee97d"/><circle cx="309.094" cy="358.864" fill="#fef0ae" r="35.864"/><path d="m309.094 323c-5.357 0-10.435 1.183-15 3.289 12.313 5.68 20.864 18.125 20.864 32.576s-8.551 26.896-20.864 32.576c4.565 2.106 9.643 3.289 15 3.289 19.807 0 35.864-16.057 35.864-35.864 0-19.809-16.056-35.866-35.864-35.866z" fill="#fee97d"/></g><path d="m379.578 92.689c0-19.089-15.53-34.619-34.619-34.619s-34.619 15.53-34.619 34.619 15.53 34.619 34.619 34.619 34.619-15.53 34.619-34.619zm-34.62 19.619c-10.818 0-19.619-8.801-19.619-19.619s8.801-19.619 19.619-19.619 19.619 8.801 19.619 19.619-8.8 19.619-19.619 19.619zm43.63 143.692c0-44.718 8.687-88.337 25.816-129.644 5.306-12.792 5.855-26.96 1.549-39.896-19.789-59.441-97.698-86.46-159.953-86.46-61.046 0-140.15 26.982-159.953 86.46-4.307 12.935-3.757 27.104 1.549 39.896 6.813 16.431 12.367 33.525 16.508 50.81.965 4.028 5.013 6.514 9.041 5.546 4.028-.965 6.512-5.013 5.547-9.041-4.324-18.051-10.125-35.903-17.24-53.062-3.922-9.457-4.338-19.902-1.172-29.411 7.642-22.951 27.875-42.627 55.334-56.235 4.894 25.062 27.008 44.037 53.48 44.037 30.052 0 54.5-24.449 54.5-54.5 0-2.989-.256-5.949-.737-8.869 62.554 4.676 115.36 35.013 128.864 75.567 3.166 9.509 2.75 19.954-1.172 29.411-17.89 43.138-26.961 88.689-26.961 135.39s9.071 92.252 26.961 135.39c3.922 9.457 4.338 19.902 1.172 29.411-11.063 33.224-48.504 59.59-96.072 70.609-.113-1.213-.191-2.428-.191-3.645 0-21.78 17.72-39.5 39.5-39.5 3.178 0 6.336.377 9.387 1.122 4.029.98 8.083-1.486 9.063-5.51.981-4.024-1.485-8.082-5.509-9.063-4.214-1.027-8.568-1.548-12.941-1.548-30.052 0-54.5 24.449-54.5 54.5 0 2.179.139 4.356.401 6.52-11.245 1.776-22.928 2.715-34.859 2.715-45.593 0-87.572-13.701-115.284-35.527 9.272-9.994 14.458-23.049 14.458-36.965 0-23.647-14.995-44.078-36.703-51.513 18.387-52.441 24.21-108.713 16.81-163.943-.551-4.106-4.331-6.989-8.43-6.438-4.105.55-6.987 4.324-6.438 8.43 7.925 59.177.015 119.549-22.818 174.6-5.306 12.792-5.855 26.96-1.549 39.896 19.64 58.989 98.102 86.46 159.954 86.46 62.388 0 140.007-26.548 159.954-86.46 4.307-12.935 3.757-27.104-1.549-39.896-17.13-41.307-25.817-84.926-25.817-129.644zm-169.494-192c-20.356 0-37.161-15.479-39.272-35.283 22.525-8.736 48.693-13.717 76.178-13.717.478 0 .954.007 1.432.01.768 3.095 1.163 6.27 1.163 9.49-.001 21.78-17.72 39.5-39.501 39.5zm-89.543 387.443c-8.956-9.241-15.583-19.56-19.272-30.641-3.166-9.509-2.75-19.954 1.172-29.411.598-1.442 1.179-2.891 1.758-4.34 15.929 5.279 26.966 20.184 26.966 37.458-.001 10.15-3.815 19.669-10.624 26.934zm61.044-332.809c-19.089 0-34.619 15.53-34.619 34.619s15.53 34.619 34.619 34.619 34.619-15.53 34.619-34.619-15.53-34.619-34.619-34.619zm0 54.238c-10.818 0-19.619-8.801-19.619-19.619s8.801-19.619 19.619-19.619 19.619 8.801 19.619 19.619-8.8 19.619-19.619 19.619zm118.499 142.628c-23.911 0-43.364 19.453-43.364 43.364s19.453 43.364 43.364 43.364 43.364-19.453 43.364-43.364-19.453-43.364-43.364-43.364zm0 71.729c-15.64 0-28.364-12.724-28.364-28.364s12.725-28.364 28.364-28.364 28.364 12.724 28.364 28.364-12.724 28.364-28.364 28.364zm-113.579-128.343c-19.089 0-34.619 15.53-34.619 34.619s15.53 34.619 34.619 34.619 34.619-15.53 34.619-34.619-15.53-34.619-34.619-34.619zm0 54.239c-10.818 0-19.619-8.801-19.619-19.619s8.801-19.619 19.619-19.619 19.619 8.801 19.619 19.619-8.801 19.619-19.619 19.619zm1.079 120.633c0 19.089 15.53 34.619 34.619 34.619s34.619-15.53 34.619-34.619-15.53-34.619-34.619-34.619-34.619 15.53-34.619 34.619zm54.239 0c0 10.818-8.801 19.619-19.619 19.619s-19.619-8.801-19.619-19.619 8.801-19.619 19.619-19.619 19.619 8.801 19.619 19.619zm3.761-196.394c0 23.911 19.453 43.364 43.364 43.364s43.364-19.453 43.364-43.364-19.452-43.364-43.364-43.364-43.364 19.453-43.364 43.364zm71.729 0c0 15.64-12.725 28.364-28.364 28.364s-28.364-12.724-28.364-28.364 12.724-28.364 28.363-28.364 28.365 12.724 28.365 28.364z"/></g></svg>