<svg id="Capa_1" enable-background="new 0 0 512 512" height="512" viewBox="0 0 512 512" width="512" xmlns="http://www.w3.org/2000/svg"><g><g><path d="m358.455 108h-204.91v-70.5c0-16.569 13.431-30 30-30h144.911c16.569 0 30 13.431 30 30v70.5z" fill="#dbf1d0"/><path d="m328.456 7.5h-30c16.568 0 30 13.432 30 30v70.5h30v-70.5c0-16.568-13.432-30-30-30z" fill="#c1e9af"/><path d="m358.997 504.5h-205.994c-9.136 0-17.775-4.163-23.467-11.31-22.545-28.307-29.79-65.864-19.392-100.525l16.498-54.993c7.763-25.878 7.763-53.465 0-79.343l-16.498-54.993c-10.398-34.662-3.154-72.219 19.392-100.525 5.692-7.147 14.33-11.31 23.467-11.31h205.993c9.136 0 17.775 4.163 23.467 11.31 22.545 28.307 29.79 65.864 19.392 100.525l-16.498 54.993c-7.763 25.878-7.763 53.465 0 79.343l16.498 54.993c10.398 34.662 3.154 72.219-19.392 100.525-5.692 7.147-14.33 11.31-23.466 11.31z" fill="#aee69c"/><path d="m385.357 337.671c-7.763-25.878-7.763-53.465 0-79.343l16.498-54.993c10.398-34.662 3.154-72.219-19.392-100.525-5.692-7.146-14.33-11.31-23.467-11.31h-30c9.136 0 17.775 4.163 23.467 11.31 22.545 28.307 29.79 65.864 19.392 100.525l-16.498 54.993c-7.763 25.878-7.763 53.465 0 79.343l16.498 54.993c10.398 34.662 3.154 72.219-19.392 100.525-5.692 7.147-14.33 11.31-23.467 11.31h30c9.136 0 17.775-4.163 23.467-11.31 22.545-28.307 29.79-65.864 19.392-100.525z" fill="#89daa4"/><path d="m284.851 42.5h-57.703c-7.538 0-13.649-6.111-13.649-13.649v-21.351h85v21.351c.001 7.538-6.11 13.649-13.648 13.649z" fill="#aee69c"/><g><path d="m337.88 172.602h-163.76c-5.523 0-10-4.477-10-10v-21.102c0-5.523 4.477-10 10-10h163.76c5.523 0 10 4.477 10 10v21.102c0 5.523-4.477 10-10 10z" fill="#dbf1d0"/></g><g><circle cx="256" cy="303.551" fill="#dbf1d0" r="91.5"/><path d="m302.5 283.051h-20.5c-3.866 0-7-3.134-7-7v-20.5c0-3.866-3.134-7-7-7h-24c-3.866 0-7 3.134-7 7v20.5c0 3.866-3.134 7-7 7h-20.5c-3.866 0-7 3.134-7 7v24c0 3.866 3.134 7 7 7h20.5c3.866 0 7 3.134 7 7v20.5c0 3.866 3.134 7 7 7h24c3.866 0 7-3.134 7-7v-20.5c0-3.866 3.134-7 7-7h20.5c3.866 0 7-3.134 7-7v-24c0-3.866-3.134-7-7-7z" fill="#89daa4"/></g></g><path d="m412.515 405.656c-.657-4.089-4.498-6.872-8.597-6.212-4.09.658-6.871 4.507-6.212 8.597 4.594 28.532-3.1 57.865-21.11 80.478-4.293 5.39-10.707 8.481-17.599 8.481h-205.994c-6.892 0-13.306-3.092-17.6-8.482-21.006-26.374-27.763-61.401-18.074-93.697l16.498-54.993c8.208-27.363 8.208-56.291 0-83.654l-16.498-54.993c-9.688-32.296-2.932-67.323 18.075-93.698 4.293-5.39 10.707-8.481 17.599-8.481h205.994c6.892 0 13.306 3.092 17.6 8.482 21.006 26.374 27.763 61.401 18.074 93.697l-16.498 54.993c-8.208 27.363-8.208 56.291 0 83.654l10.459 34.86c1.19 3.969 5.373 6.223 9.339 5.028 3.968-1.19 6.219-5.371 5.028-9.339l-10.459-34.86c-7.362-24.544-7.362-50.489 0-75.033l16.498-54.993c11.102-37.003 3.359-77.136-20.708-107.353-5.683-7.136-13.6-11.843-22.37-13.483v-47.155c0-20.678-16.822-37.5-37.5-37.5h-144.92c-20.678 0-37.5 16.822-37.5 37.5v47.155c-8.771 1.64-16.687 6.347-22.369 13.482-24.068 30.218-31.811 70.351-20.709 107.354l16.498 54.993c7.362 24.544 7.362 50.489 0 75.033l-16.498 54.993c-11.102 37.003-3.359 77.136 20.708 107.353 7.155 8.984 17.847 14.138 29.333 14.138h205.994c11.486 0 22.178-5.153 29.332-14.137 20.635-25.908 29.45-59.516 24.186-92.208zm-191.515-390.656h70v13.852c0 3.391-2.758 6.148-6.148 6.148h-57.703c-3.391 0-6.148-2.758-6.148-6.148v-13.852zm-59.96 22.5c0-12.406 10.094-22.5 22.5-22.5h22.46v13.852c0 11.661 9.487 21.148 21.148 21.148h57.703c11.662 0 21.149-9.487 21.149-21.148v-13.852h22.46c12.406 0 22.5 10.094 22.5 22.5v46.5h-189.92zm186.84 389.5h-183.76c-4.143 0-7.5 3.357-7.5 7.5s3.357 7.5 7.5 7.5h183.76c4.143 0 7.5-3.357 7.5-7.5s-3.358-7.5-7.5-7.5zm7.5-285.5c0-9.649-7.851-17.5-17.5-17.5h-98.033c-4.143 0-7.5 3.357-7.5 7.5s3.357 7.5 7.5 7.5h98.033c1.379 0 2.5 1.121 2.5 2.5v21.102c0 1.379-1.121 2.5-2.5 2.5h-163.76c-1.379 0-2.5-1.121-2.5-2.5v-21.102c0-1.379 1.121-2.5 2.5-2.5h30.727c4.143 0 7.5-3.357 7.5-7.5s-3.357-7.5-7.5-7.5h-30.727c-9.649 0-17.5 7.851-17.5 17.5v21.102c0 9.649 7.851 17.5 17.5 17.5h163.76c9.649 0 17.5-7.851 17.5-17.5zm-99.38 261.051c54.589 0 99-44.411 99-99s-44.411-99-99-99-99 44.411-99 99 44.411 99 99 99zm0-183c46.317 0 84 37.683 84 84s-37.683 84-84 84-84-37.683-84-84 37.683-84 84-84zm-46.5 109h20v20c0 7.995 6.505 14.5 14.5 14.5h24c7.995 0 14.5-6.505 14.5-14.5v-20h20c7.995 0 14.5-6.505 14.5-14.5v-24c0-7.995-6.505-14.5-14.5-14.5h-20v-20c0-7.995-6.505-14.5-14.5-14.5h-24c-7.995 0-14.5 6.505-14.5 14.5v20h-20c-7.995 0-14.5 6.505-14.5 14.5v24c0 7.995 6.505 14.5 14.5 14.5zm.5-38h20c7.995 0 14.5-6.505 14.5-14.5v-20h23v20c0 7.995 6.505 14.5 14.5 14.5h20v23h-20c-7.995 0-14.5 6.505-14.5 14.5v20h-23v-20c0-7.995-6.505-14.5-14.5-14.5h-20zm137.88 166.449h-183.76c-4.143 0-7.5 3.357-7.5 7.5s3.357 7.5 7.5 7.5h183.76c4.143 0 7.5-3.357 7.5-7.5s-3.358-7.5-7.5-7.5z"/></g></svg>