<svg id="Capa_1" enable-background="new 0 0 512 512" height="512" viewBox="0 0 512 512" width="512" xmlns="http://www.w3.org/2000/svg"><g><g><g><path d="m225.904 37.5h66.233v62.896h-66.233z" fill="#c4e2ff"/><path d="m262.137 37.5h30v62.896h-30z" fill="#b3dafe"/><path d="m225.904 505v-93.396h66.232v93.396c0 3.866-3.134 7-7 7h-52.232c-3.866 0-7-3.134-7-7z" fill="#c4e2ff"/><path d="m262.137 411.604v90.396c0 5.523-4.477 10-10 10h33c3.866 0 7-3.134 7-7v-93.396z" fill="#b3dafe"/><path d="m303.575 7.5h-89.108c-8.284 0-15 6.716-15 15 0 8.284 6.716 15 15 15h89.108c8.284 0 15-6.716 15-15 0-8.284-6.716-15-15-15z" fill="#b3dafe"/><g><path d="m410.888 314.045c0 83.874-67.993 151.868-151.868 151.868s-151.868-67.993-151.868-151.868 67.995-237.958 151.869-237.958 151.867 154.084 151.867 237.958z" fill="#eaf6ff"/><path d="m259.021 76.087c-5.062 0-10.065.574-15 1.647 76.832 16.709 136.868 157.499 136.868 236.311s-60.035 143.597-136.868 151.13c4.935.484 9.938.737 15 .737 83.874 0 151.868-67.993 151.868-151.867s-67.994-237.958-151.868-237.958z" fill="#d8ecfe"/><path d="m360.919 299.882c0 56.277-45.621 101.898-101.898 101.898s-101.898-45.622-101.898-101.898 45.621-159.662 101.898-159.662 101.898 103.385 101.898 159.662z" fill="#c4e2ff"/><path d="m259.021 140.22c-5.097 0-10.104.859-15 2.443 49.164 15.907 86.898 106.039 86.898 157.22s-37.734 93.543-86.898 100.797c4.896.722 9.903 1.102 15 1.102 56.277 0 101.898-45.622 101.898-101.898s-45.621-159.664-101.898-159.664z" fill="#b3dafe"/><path d="m352.331 340.828c-18.095-7.955-49.946-19.205-91.017-19.612-43.526-.43-77.19 11.518-95.603 19.612l.016.082c15.786 35.843 51.614 60.871 93.294 60.871 41.694 0 77.532-25.044 93.31-60.907z" fill="#b3dafe"/><path d="m326.025 331.12c-11.71 36.386-43.309 63.849-82.003 69.559.003 0 .219.029.222.029.12.016.236.031.356.047 4.712.668 9.523 1.026 14.42 1.026 41.694 0 77.532-25.044 93.31-60.907v-.045c-8.42-3.708-17.346-7-26.305-9.709z" fill="#8ac9fe"/></g></g><path d="m226.354 120.004-3.447 1.097c-24.117 7.674-43.013 26.57-50.687 50.687l-1.097 3.447c-1.679 5.277-9.147 5.277-10.826 0l-1.097-3.447c-7.674-24.117-26.57-43.013-50.687-50.687l-3.447-1.097c-5.277-1.679-5.277-9.147 0-10.826l3.447-1.097c24.117-7.674 43.013-26.57 50.687-50.687l1.097-3.447c1.679-5.277 9.147-5.277 10.826 0l1.097 3.447c7.674 24.117 26.57 43.013 50.687 50.687l3.447 1.097c5.278 1.679 5.278 9.147 0 10.826z" fill="#ffe179"/><path d="m226.354 109.178-3.448-1.097c-24.117-7.674-43.012-26.57-50.686-50.686l-1.097-3.447c-1.679-5.277-9.147-5.278-10.826 0l-1.097 3.447c-2.059 6.47-4.932 12.56-8.49 18.162 9.705 15.281 24.55 26.909 42.197 32.524 6.347 2.019 6.347 11 0 13.019-17.647 5.615-32.492 17.243-42.197 32.524 3.558 5.603 6.432 11.692 8.49 18.162l1.097 3.447c1.679 5.277 9.147 5.277 10.826 0l1.097-3.447c7.674-24.117 26.57-43.013 50.687-50.687l3.447-1.097c5.278-1.677 5.278-9.145 0-10.824z" fill="#fbd268"/></g><path d="m182.107 207.841c-3.752-1.752-8.216-.13-9.969 3.622-14.099 30.192-22.516 63.246-22.516 88.418 0 59.028 48.903 109.398 109.398 109.398 60.897 0 109.398-50.274 109.398-109.398 0-57.223-46.198-167.162-109.398-167.162-24.287 0-48.222 16.369-69.216 47.336-2.324 3.428-1.429 8.092 2 10.417 3.429 2.323 8.091 1.429 10.417-2 10.318-15.22 31.418-40.753 56.8-40.753 22.068 0 45.946 20.009 65.512 54.896 17.278 30.809 28.887 69.897 28.887 97.266 0 10.882-1.857 21.337-5.26 31.072-27.7-11.136-56.849-16.941-86.771-17.237-31.097-.32-62.552 5.646-91.503 17.242-3.404-9.737-5.262-20.193-5.262-31.077 0-22.743 8.087-54.191 21.106-82.072 1.752-3.752.13-8.215-3.623-9.968zm79.132 120.875c27.873.276 55.031 5.654 80.853 15.968-15.979 29.509-47.223 49.597-83.071 49.597-35.846 0-67.088-20.085-83.068-49.59 27.005-10.742 56.31-16.253 85.286-15.975zm111.709-168.77c-21.899-39.047-47.059-66.452-73.308-80.504v-34.442c13.395.952 26.434-7.909 26.434-22.5 0-12.407-10.093-22.5-22.5-22.5h-89.107c-12.407 0-22.5 10.093-22.5 22.5 0 13.537 12.701 24.523 26.434 22.5v34.443c-5.129 2.754-10.229 6.023-15.293 9.812-11.017-8.632-19.391-20.468-23.74-34.136l-1.097-3.446c-1.748-5.494-6.795-9.185-12.56-9.185s-10.812 3.691-12.56 9.184l-1.097 3.447c-6.924 21.762-24.051 38.889-45.813 45.814l-3.447 1.097c-5.494 1.748-9.185 6.795-9.185 12.56s3.691 10.812 9.185 12.56l3.447 1.097c16.574 5.274 30.452 16.469 39.19 31.118-27.474 48.805-45.78 110.426-45.78 154.685 0 73.839 50.485 136.101 118.75 154.107v36.343c0 4.142 3.358 7.5 7.5 7.5s7.5-3.358 7.5-7.5v-33.159c8.344 1.354 16.9 2.069 25.62 2.069 8.677 0 17.235-.694 25.62-2.035v33.125c0 4.142 3.358 7.5 7.5 7.5s7.5-3.358 7.5-7.5v-36.267c28.107-7.334 53.716-22.306 74.428-43.906 2.867-2.99 2.767-7.737-.223-10.604s-7.737-2.767-10.604.223c-27.618 28.789-64.828 44.466-104.221 44.466-79.606 0-144.37-64.76-144.37-144.36 0-38.901 15.107-92.27 38.322-137.101l.178.559c1.748 5.494 6.795 9.185 12.56 9.185s10.812-3.691 12.56-9.184l1.097-3.447c6.925-21.763 24.051-38.889 45.814-45.814l3.447-1.097c5.493-1.748 9.184-6.795 9.184-12.56s-3.691-10.812-9.184-12.56l-3.447-1.097c-2.799-.891-5.519-1.953-8.152-3.169 14.026-9.406 28.112-14.176 41.992-14.176 44.331 0 78.737 44.275 100.845 83.694 26.034 46.419 43.525 105.4 43.525 146.766 0 25.857-6.916 51.221-19.999 73.351-2.108 3.565-.926 8.165 2.639 10.273 3.506 2.073 8.143.963 10.273-2.639 14.449-24.439 22.086-52.443 22.086-80.984 0-44.395-17.838-104.885-45.443-154.106zm-154.238-45.355c-24.838 8.559-44.441 28.161-53 53-8.558-24.838-28.16-44.441-52.999-53 24.838-8.559 44.441-28.162 52.999-53 8.559 24.839 28.162 44.441 53 53zm65.931-41.676c-8.495-2.854-17.058-4.325-25.62-4.325-8.563 0-17.116 1.456-25.62 4.312v-27.902h51.24zm-70.174-42.915c-4.136 0-7.5-3.364-7.5-7.5s3.364-7.5 7.5-7.5h89.107c4.136 0 7.5 3.364 7.5 7.5s-3.364 7.5-7.5 7.5z"/></g></svg>