<svg id="Capa_1" enable-background="new 0 0 512 512" height="512" viewBox="0 0 512 512" width="512" xmlns="http://www.w3.org/2000/svg"><g><g><g><path d="m470.551 502v-53.844c0-31.217-20.03-58.911-49.678-68.685l-94.524-31.162-18.769-1.243c-9.882-3.258-16.559-12.489-16.559-22.895v-45.376h-70.044v45.376c0 10.406-6.677 19.637-16.559 22.895l-18.769 1.242-94.524 31.162c-29.647 9.774-49.678 37.468-49.678 68.685v53.845c0 5.523 4.477 10 10 10h409.104c5.523 0 10-4.477 10-10z" fill="#8fd8fa"/><g><path d="m420.874 379.471-94.524-31.162-18.769-1.243c-9.883-3.258-16.559-12.489-16.559-22.895v-45.376l-15 15v45.376c0 10.406 6.677 19.637 16.559 22.895l3.769 1.243 94.524 31.162c29.647 9.774 49.678 37.468 49.678 68.685v48.844h20c5.523 0 10-4.477 10-10v-53.844c-.001-31.217-20.031-58.911-49.678-68.685z" fill="#6bcdfe"/></g><path d="m390.122 319.666c.528 7.201-4.14 13.771-11.126 15.6-31.19 8.166-72.188 15.58-120.447 15.834-50.552.265-93.35-7.409-125.485-15.817-7.009-1.834-11.718-8.39-11.189-15.616 4.7-64.162 9.4-128.323 14.1-192.485h240.047z" fill="#eaf6ff"/><path d="m349.284 342.057c10.696-2.094 20.621-4.41 29.713-6.791 6.985-1.829 11.653-8.398 11.125-15.6l-14.1-192.484h-30l14.1 192.484c.396 5.401-2.131 10.447-6.366 13.403-2.871 2.005-4.631 5.239-4.483 8.738z" fill="#d8ecfe"/><path d="m185.649 348.31c17.36 19.16 42.45 31.19 70.35 31.19s52.99-12.03 70.35-31.19l-18.769-1.243c-9.883-3.258-16.559-12.489-16.559-22.895v-45.376h-70.044v45.376c0 10.406-6.677 19.637-16.559 22.895z" fill="#ffcebf"/><path d="m276.021 293.796v45.376c0 10.406 6.677 19.637 16.559 22.895l3.769 1.243 8.356 2.755c8.069-4.833 15.365-10.824 21.644-17.754l-3.769-1.243c-9.883-3.258-16.559-12.489-16.559-22.895v-45.376z" fill="#ffb09e"/><path d="m306.021 324.172v-45.376h-100.044v45.376c0 10.017-6.197 18.929-15.475 22.489 20.618 2.809 43.408 4.568 68.047 4.439 22.676-.119 43.749-1.82 62.954-4.436-9.282-3.558-15.482-12.472-15.482-22.492z" fill="#ffe8e3"/><path d="m276.021 339.172c0 4.07 1.033 7.954 2.869 11.377 15.039-.711 29.286-2.07 42.614-3.885-8.045-3-15.544-12.097-15.483-22.492v-45.376l-30 15z" fill="#f4d9d4"/><g><path d="m350.875 114.955h-189.958v-51.394c0-30.961 25.099-56.061 56.061-56.061h77.837c30.961 0 56.061 25.099 56.061 56.061v51.394z" fill="#e19974"/><path d="m294.814 7.5h-30c30.961 0 56.061 25.099 56.061 56.061v51.395h30v-51.395c0-30.962-25.1-56.061-56.061-56.061z" fill="#dc8758"/><path d="m350.875 127.182v93.401c0 52.583-42.914 80.165-95.699 79.774-52.37-.387-94.259-28.704-94.259-80.964v-92.211c15.989 2.292 43.905 4.086 76.12-5.87 18.551-5.733 33.305-13.748 44.108-20.88 2.73-1.802 6.342-1.463 8.689.815 5.434 5.274 13.378 11.684 24.115 16.861 15.174 7.316 28.948 8.808 36.926 9.074z" fill="#ffe8e3"/><path d="m311.512 295.117-40.18 23.242c-9.547 5.522-21.326 5.522-30.873 0l-40.18-23.242c-24.364-14.093-39.362-40.068-39.362-68.17v-9.817c10.894-8.22 27.139-18.592 48.64-26.34 18.303-6.596 34.724-9.239 47.145-10.286 12.923 1.104 31.011 4.058 51.203 12.117 18.782 7.496 33.107 16.904 42.97 24.509v9.817c0 28.102-14.999 54.077-39.363 68.17z" fill="#f5fbff"/></g></g><path d="m380.999 127.182h-250c-8.284 0-15-6.716-15-15 0-8.284 6.716-15 15-15h250c8.284 0 15 6.716 15 15 0 8.284-6.716 15-15 15z" fill="#8fd8fa"/><path d="m380.999 97.182h-30c8.284 0 15 6.716 15 15 0 8.284-6.716 15-15 15h30c8.284 0 15-6.716 15-15 0-8.284-6.716-15-15-15z" fill="#6bcdfe"/></g><path d="m116.447 457.817c-4.143 0-7.5 3.357-7.5 7.5v39.183c0 4.143 3.357 7.5 7.5 7.5s7.5-3.357 7.5-7.5v-39.183c0-4.142-3.357-7.5-7.5-7.5zm361.602 7.462v-17.119c0-34.528-22.034-64.995-54.832-75.813l-70.684-23.299c9.512-1.899 18.972-4.067 28.362-6.526 10.475-2.741 17.5-12.584 16.706-23.403l-13.525-184.651c10.955-1.506 19.422-10.922 19.422-22.284 0-12.406-10.094-22.5-22.5-22.5h-22.62v-26.124c0-35.047-28.518-63.56-63.57-63.56h-77.829c-35.048 0-63.561 28.513-63.561 63.56v26.123h-22.42c-12.406 0-22.5 10.094-22.5 22.5 0 11.362 8.468 20.779 19.423 22.284l-6.268 85.568c-.303 4.131 2.801 7.726 6.932 8.027 4.078.298 7.731-2.783 8.027-6.932l6.333-86.448h10.471c-1.188 7.006-.001 85.43-.001 92.265 0 31.444 17.421 60.708 45.063 75.793v21.43c0 6.309-3.537 11.964-9.018 14.775-18.343-2.581-36.545-6.221-54.5-10.918-3.513-.919-5.871-4.204-5.607-7.812l4.701-64.157c.302-4.131-2.802-7.726-6.933-8.027-4.116-.3-7.726 2.801-8.027 6.932l-4.701 64.158c-.791 10.82 6.263 20.67 16.771 23.418 9.374 2.453 18.814 4.613 28.304 6.507l-70.69 23.302c-32.796 10.817-54.83 41.284-54.83 75.812v56.34c0 4.143 3.357 7.5 7.5 7.5s7.5-3.357 7.5-7.5v-56.34c0-28.04 17.895-52.782 44.527-61.567l90.021-29.674c19.143 19.173 45.29 30.081 72.503 30.081s53.36-10.908 72.501-30.081l90.019 29.673c26.635 8.786 44.529 33.528 44.529 61.568v56.34c0 4.143 3.357 7.5 7.5 7.5h.002c4.143 0 7.5-3.357 7.5-7.5v-39.183c.001-.013-.001-.025-.001-.038zm-347.05-345.596c-4.136 0-7.5-3.364-7.5-7.5s3.364-7.5 7.5-7.5h155c4.143 0 7.5-3.357 7.5-7.5s-3.357-7.5-7.5-7.5h-117.58v-26.123c0-26.775 21.784-48.56 48.561-48.56h77.829c26.782 0 48.57 21.784 48.57 48.56v26.123h-22.38c-4.143 0-7.5 3.357-7.5 7.5s3.357 7.5 7.5 7.5h60c4.136 0 7.5 3.364 7.5 7.5s-3.364 7.5-7.5 7.5zm212.376 15v67.962c-10.307-6.718-21.246-12.423-32.689-16.99-15.489-6.182-37.663-14.051-54.612-12.624-16.763 1.411-33.269 5.013-49.06 10.703-13.556 4.886-26.487 11.269-38.597 19.039l.002-68.09zm-87.376 237.317c-18.149 0-35.735-5.698-50.355-15.99 16.723 1.718 33.532 2.597 50.361 2.597 16.814 0 33.623-.873 50.341-2.591-14.619 10.289-32.201 15.984-50.347 15.984zm47.519-30.766c-15.786 1.579-31.652 2.367-47.517 2.365s-31.73-.794-47.514-2.374c3.186-4.967 4.993-10.842 4.993-17.055v-12.753l23.224 13.434c5.92 3.424 12.555 5.136 19.192 5.136 6.636 0 13.273-1.712 19.191-5.136l23.432-13.554v12.873c0 6.216 1.809 12.095 4.999 17.064zm-35.942-29.368c-7.205 4.168-16.155 4.168-23.362 0l-40.179-23.241c-24.011-13.867-37.341-40.223-35.619-67.71 13.435-9.705 28.112-17.458 43.684-23.07 14.358-5.174 29.359-8.475 44.598-9.812 16.641 1.482 32.93 5.368 48.428 11.554 13.607 5.431 26.458 12.582 38.25 21.28 1.451 27.193-11.528 53.98-35.619 67.759h.001zm54.942 27.07c-5.471-2.815-8.999-8.465-8.999-14.766v-21.549c27.473-15.243 44.881-44.216 44.856-75.673l.004-92.265h10.673l13.59 185.532c.265 3.606-2.067 6.885-5.545 7.795-17.972 4.706-36.204 8.343-54.579 10.926zm73.033 118.881c-4.143 0-7.5 3.357-7.5 7.5v39.183c0 4.143 3.357 7.5 7.5 7.5s7.5-3.357 7.5-7.5v-39.183c0-4.142-3.358-7.5-7.5-7.5zm-192.052-283.489c4.143 0 7.5-3.357 7.5-7.5v-15.357c0-4.143-3.357-7.5-7.5-7.5s-7.5 3.357-7.5 7.5v15.357c0 4.143 3.357 7.5 7.5 7.5zm105 0c4.143 0 7.5-3.357 7.5-7.5v-15.357c0-4.143-3.357-7.5-7.5-7.5s-7.5 3.357-7.5 7.5v15.357c0 4.143 3.357 7.5 7.5 7.5z"/></g></svg>