<svg id="Capa_1" enable-background="new 0 0 513.023 513.023" height="512" viewBox="0 0 513.023 513.023" width="512" xmlns="http://www.w3.org/2000/svg"><g><g><g><g><path d="m91.606 297.067c-4.881 4.851-11.21 8.092-18.063 8.914-13.848 1.662-29.469 9.472-42.611 22.533-23.371 23.227-30.047 54.25-14.912 69.292s46.351 8.407 69.722-14.82c13.142-13.061 21-28.585 22.673-42.348.828-6.81 4.089-13.101 8.97-17.951l207.179-205.901c4.881-4.851 11.21-8.092 18.063-8.914 13.848-1.662 29.469-9.472 42.611-22.533 23.371-23.227 30.047-54.25 14.912-69.292-15.135-15.042-46.351-8.407-69.722 14.82-13.142 13.061-21 28.585-22.673 42.348-.828 6.811-4.089 13.101-8.97 17.952z" fill="#ffe179"/><path d="m385.237 55.339c-13.142 13.061-28.763 20.871-42.611 22.533-6.853.822-13.182 4.063-18.063 8.914-73.991 73.733-147.981 147.466-221.972 221.199-3.071 21.35-12.791 33.912-17.563 39.23-19.15 21.341-54.585 32.967-69.008 20.591-2.94-2.523-4.478-5.589-5.302-7.682-4.905 14.844-3.48 28.954 5.302 37.682 15.135 15.042 46.351 8.407 69.722-14.82 13.142-13.061 21-28.585 22.672-42.348.828-6.81 4.089-13.101 8.97-17.951l207.179-205.901c4.881-4.851 11.21-8.092 18.063-8.914 13.848-1.662 29.469-9.472 42.611-22.533 19.903-19.78 27.687-45.207 20.214-61.61-3.548 10.739-10.404 21.86-20.214 31.61z" fill="#fbd268"/><path d="m385.237 85.339c23.371-23.227 30.047-54.25 14.912-69.292s-46.351-8.407-69.722 14.82c-13.142 13.061-21 28.585-22.673 42.348-.828 6.81-4.089 13.101-8.969 17.952l25.779 25.62c4.881-4.851 11.21-8.092 18.063-8.914 13.847-1.663 29.468-9.473 42.61-22.534z" fill="#eaf6ff"/><path d="m405.453 23.733c0-.001-.001-.002-.001-.003-3.549 10.739-10.404 21.86-20.214 31.61-13.143 13.06-28.764 20.87-42.612 22.532-6.853.822-13.182 4.063-18.063 8.914-5.024 5.007-10.049 10.013-15.073 15.02l15.073 14.98c4.881-4.851 11.21-8.092 18.063-8.914 13.848-1.662 29.469-9.472 42.611-22.533 13.342-13.259 29.902-37.758 20.216-61.606z" fill="#d8ecfe"/><path d="m91.606 297.067c-4.881 4.851-11.21 8.092-18.063 8.914-13.848 1.662-29.469 9.472-42.611 22.533-23.371 23.227-30.047 54.25-14.912 69.292s46.351 8.407 69.722-14.82c13.142-13.061 21-28.585 22.672-42.348.828-6.81 4.089-13.101 8.97-17.951z" fill="#eaf6ff"/><path d="m102.591 307.985c-3.071 21.35-12.791 33.912-17.563 39.23-19.15 21.341-54.585 32.967-69.008 20.591-2.94-2.523-4.478-5.589-5.302-7.682-1.824 5.52-2.769 10.937-2.789 16.015.092 6.022 1.282 15.11 8.092 21.666 15.135 15.042 46.351 8.407 69.722-14.82 13.142-13.061 21-28.585 22.672-42.348.828-6.81 4.089-13.101 8.97-17.951z" fill="#d8ecfe"/></g></g><g><g><path d="m188.267 396.199c-4.881 4.851-11.21 8.092-18.063 8.914-13.848 1.662-29.469 9.472-42.611 22.533-23.371 23.227-30.047 54.25-14.912 69.292s46.351 8.407 69.722-14.82c13.142-13.061 21-28.585 22.673-42.348.828-6.81 4.089-13.101 8.97-17.951l207.179-205.901c4.881-4.851 11.21-8.092 18.063-8.914 13.848-1.662 29.469-9.472 42.611-22.533 23.371-23.227 30.047-54.25 14.912-69.292s-46.351-8.407-69.722 14.82c-13.142 13.061-21 28.585-22.673 42.348-.828 6.811-4.089 13.101-8.97 17.952z" fill="#aee69c"/><path d="m481.898 154.471c-13.142 13.061-28.763 20.871-42.611 22.533-6.853.822-13.182 4.063-18.063 8.914-73.991 73.733-147.981 147.466-221.972 221.199-3.071 21.35-12.791 33.912-17.563 39.23-19.15 21.341-54.585 32.967-69.008 20.591-2.94-2.523-4.478-5.589-5.302-7.682-4.905 14.844-3.48 28.954 5.302 37.682 15.135 15.042 46.351 8.407 69.722-14.82 13.142-13.061 21-28.585 22.672-42.348.828-6.81 4.089-13.101 8.97-17.951l207.179-205.901c4.881-4.851 11.21-8.092 18.063-8.914 13.848-1.662 29.469-9.472 42.611-22.533 19.903-19.78 27.687-45.207 20.214-61.61-3.548 10.738-10.403 21.86-20.214 31.61z" fill="#89daa4"/><path d="m481.898 184.471c23.371-23.227 30.047-54.25 14.912-69.292s-46.351-8.407-69.722 14.82c-13.142 13.061-21 28.585-22.673 42.348-.828 6.81-4.089 13.101-8.969 17.952l25.779 25.62c4.881-4.851 11.21-8.092 18.063-8.914 13.848-1.664 29.468-9.473 42.61-22.534z" fill="#eaf6ff"/><path d="m502.114 122.864c0-.001-.001-.002-.001-.003-3.549 10.739-10.404 21.86-20.214 31.61-13.142 13.061-28.763 20.871-42.611 22.533-6.853.822-13.182 4.063-18.063 8.914-5.024 5.007-10.049 10.013-15.073 15.02l15.073 14.98c4.881-4.851 11.21-8.092 18.063-8.914 13.848-1.662 29.469-9.472 42.611-22.533 13.341-13.26 29.901-37.759 20.215-61.607z" fill="#d8ecfe"/><path d="m188.267 396.199c-4.881 4.851-11.21 8.092-18.063 8.914-13.848 1.662-29.469 9.472-42.611 22.533-23.371 23.227-30.047 54.25-14.912 69.292s46.351 8.407 69.722-14.82c13.142-13.061 21-28.585 22.672-42.348.828-6.81 4.089-13.101 8.97-17.951z" fill="#eaf6ff"/><path d="m199.252 407.116c-3.071 21.35-12.791 33.912-17.563 39.23-19.15 21.341-54.585 32.967-69.008 20.591-2.94-2.523-4.478-5.589-5.302-7.682-1.824 5.52-2.769 10.937-2.789 16.015.092 6.022 1.282 15.11 8.092 21.666 15.135 15.042 46.351 8.407 69.722-14.82 13.142-13.061 21-28.585 22.672-42.348.828-6.81 4.089-13.101 8.97-17.951z" fill="#d8ecfe"/></g></g></g><path d="m122.671 328.007 207.18-205.901c3.798-3.774 8.652-6.185 13.669-6.787 16.039-1.925 33.172-10.913 47.005-24.659 21.651-21.516 37.344-57.637 14.911-79.931-18.333-18.22-53.603-11.709-80.296 14.819-13.84 13.754-22.891 30.799-24.831 46.764-.603 4.962-3.021 9.77-6.812 13.536l-30.987 30.797c-2.938 2.92-2.952 7.669-.032 10.607s7.669 2.953 10.606.033l25.7-25.543 15.139 15.046-196.539 195.325-15.14-15.046 146.021-145.119c2.938-2.92 2.953-7.669.033-10.607-2.92-2.937-7.668-2.951-10.606-.033l-151.374 150.44c-3.798 3.774-8.652 6.185-13.669 6.787-16.04 1.925-33.172 10.913-47.004 24.66-21.601 21.468-36.939 58.04-14.912 79.931 21.035 20.906 58.096 7.243 80.296-14.819 13.841-13.755 22.891-30.8 24.831-46.763.603-4.964 3.022-9.771 6.811-13.537zm186.235-237.355c3.395-4.994 5.582-10.674 6.293-16.532 1.541-12.683 9.019-26.509 20.515-37.933 20.072-19.949 47.159-26.734 59.147-14.819 17.237 17.131.367 43.47-14.911 58.652-11.506 11.434-25.436 18.872-38.219 20.405-5.905.709-11.631 2.896-16.662 6.29zm-207.937 249.082c-1.541 12.682-9.018 26.508-20.514 37.933-20.073 19.947-47.159 26.735-59.148 14.819-14.964-14.872.333-44.163 14.912-58.652 11.505-11.435 25.435-18.872 38.218-20.406 5.906-.709 11.632-2.896 16.663-6.289l16.163 16.063c-3.395 4.993-5.582 10.673-6.294 16.532zm401.128-229.874c-18.332-18.22-53.603-11.71-80.296 14.819-13.84 13.755-22.891 30.799-24.831 46.763-.603 4.963-3.021 9.771-6.811 13.536l-207.179 205.901c-3.798 3.774-8.652 6.185-13.669 6.787-16.04 1.925-33.172 10.913-47.004 24.659-21.602 21.469-36.859 58.12-14.913 79.932 21 20.871 58.095 7.245 80.296-14.819 13.841-13.755 22.891-30.8 24.831-46.764.603-4.963 3.021-9.77 6.811-13.536l34.187-33.976c2.938-2.92 2.953-7.669.033-10.607-2.92-2.937-7.668-2.951-10.607-.033l-28.9 28.722-15.139-15.045 196.54-195.327 15.139 15.045-142.669 141.789c-2.938 2.92-2.952 7.669-.032 10.607s7.669 2.952 10.606.033l148.021-147.109c3.798-3.774 8.652-6.185 13.669-6.787 16.04-1.925 33.173-10.914 47.005-24.66 21.651-21.516 37.348-57.632 14.912-79.93zm-298.173 312.473c-3.394 4.994-5.581 10.674-6.293 16.532-1.541 12.682-9.018 26.508-20.514 37.933-20.073 19.947-47.16 26.735-59.148 14.819-15.101-15.009.749-44.578 14.912-58.652 11.505-11.434 25.435-18.872 38.218-20.405 5.905-.709 11.632-2.896 16.663-6.29zm272.687-243.182c-11.505 11.434-25.436 18.872-38.219 20.406-5.905.709-11.631 2.896-16.662 6.289l-16.162-16.063c3.394-4.994 5.581-10.674 6.292-16.532 1.541-12.682 9.019-26.508 20.515-37.933 20.072-19.949 47.16-26.735 59.147-14.819 17.253 17.149.367 43.468-14.911 58.652z"/></g></svg>