<svg id="Capa_1" enable-background="new 0 0 512 512" height="512" viewBox="0 0 512 512" width="512" xmlns="http://www.w3.org/2000/svg"><g><g><circle cx="87.587" cy="126.016" fill="#eaf6ff" r="32.881"/><path d="m87.587 93.135c-5.405 0-10.501 1.313-15 3.624 10.615 5.453 17.881 16.503 17.881 29.257s-7.267 23.804-17.881 29.257c4.499 2.311 9.595 3.624 15 3.624 18.16 0 32.881-14.721 32.881-32.881s-14.721-32.881-32.881-32.881z" fill="#d8ecfe"/><circle cx="207.587" cy="50.867" fill="#eaf6ff" r="43.367"/><path d="m207.587 7.5c-5.273 0-10.325.943-15 2.667 16.558 6.105 28.367 22.022 28.367 40.7s-11.809 34.595-28.367 40.7c4.675 1.724 9.727 2.667 15 2.667 23.951 0 43.367-19.416 43.367-43.367s-19.416-43.367-43.367-43.367z" fill="#d8ecfe"/><g><path d="m375.115 404.229h-269.651c-15.684 0-28.399-12.715-28.399-28.399v-130.177c0-15.684 12.715-28.399 28.399-28.399h269.651c15.684 0 28.399 12.715 28.399 28.399v130.177c0 15.685-12.715 28.399-28.399 28.399z" fill="#8fd8fa"/><path d="m375.115 217.254h-30c15.684 0 28.399 12.715 28.399 28.399v130.177c0 15.684-12.715 28.399-28.399 28.399h30c15.684 0 28.399-12.714 28.399-28.399v-130.177c0-15.685-12.715-28.399-28.399-28.399z" fill="#6bcdfe"/><ellipse cx="240.289" cy="310.741" fill="#eaf6ff" rx="90.272" ry="47.826"/><path d="m240.289 262.915c-5.111 0-10.121.229-15 .661 42.715 3.786 75.271 23.459 75.271 47.165s-32.556 43.38-75.271 47.165c4.879.432 9.889.661 15 .661 49.855 0 90.271-21.412 90.271-47.826s-40.415-47.826-90.271-47.826z" fill="#d8ecfe"/></g><path d="m204.338 189.535c-1.297-.858-2.28-2.099-2.812-3.56-4.717-12.947-17.128-22.196-31.706-22.196s-26.99 9.248-31.706 22.196c-.532 1.461-1.515 2.702-2.812 3.56-8.255 5.459-13.541 15.045-12.913 25.818.835 14.334 12.391 26.045 26.713 27.059 6.307.447 12.217-1.138 17.151-4.163 2.182-1.338 4.954-1.338 7.136 0 4.933 3.024 10.844 4.609 17.151 4.163 14.323-1.014 25.878-12.725 26.713-27.059.626-10.773-4.66-20.359-12.915-25.818z" fill="#eaf6ff"/><g><path d="m204.338 189.535c-1.297-.858-2.28-2.099-2.812-3.56-4.717-12.947-17.128-22.196-31.706-22.196-5.391 0-10.481 1.271-15 3.52 7.701 3.832 13.734 10.516 16.706 18.676.532 1.461 1.515 2.702 2.812 3.56 8.255 5.458 13.541 15.045 12.913 25.818-.562 9.649-5.986 18.103-13.836 22.912 4.928 3.014 10.828 4.593 17.123 4.147 14.323-1.014 25.878-12.725 26.713-27.059.628-10.773-4.658-20.359-12.913-25.818z" fill="#d8ecfe"/></g><path d="m459.263 291.371c-1.297-.858-2.28-2.099-2.812-3.56-4.717-12.947-17.128-22.196-31.706-22.196s-26.99 9.248-31.706 22.196c-.532 1.461-1.515 2.702-2.812 3.56-8.255 5.459-13.541 15.045-12.913 25.818.835 14.334 12.391 26.045 26.713 27.059 6.307.447 12.217-1.138 17.151-4.163 2.182-1.338 4.954-1.338 7.136 0 4.933 3.024 10.844 4.609 17.151 4.163 14.323-1.014 25.878-12.725 26.713-27.059.626-10.774-4.66-20.36-12.915-25.818z" fill="#eaf6ff"/><g><path d="m459.263 291.371c-1.297-.858-2.28-2.099-2.812-3.56-4.717-12.947-17.128-22.196-31.707-22.196-5.391 0-10.481 1.271-15 3.52 7.701 3.832 13.734 10.516 16.707 18.676.532 1.461 1.515 2.702 2.812 3.56 8.255 5.458 13.541 15.045 12.913 25.818-.562 9.649-5.986 18.103-13.836 22.912 4.928 3.014 10.828 4.593 17.123 4.147 14.323-1.014 25.878-12.725 26.713-27.059.628-10.774-4.658-20.36-12.913-25.818z" fill="#d8ecfe"/></g><g><path d="m366.155 504.5h-251.731c-27.614 0-50-22.386-50-50v-41.722h351.731v41.722c0 27.614-22.386 50-50 50z" fill="#aee69c"/><path d="m386.155 412.778v41.722c0 27.614-22.386 50-50 50h30c27.614 0 50-22.386 50-50v-41.722z" fill="#89daa4"/><path d="m421.947 427.049h-363.315c-10.415 0-18.858-8.443-18.858-18.858 0-10.415 8.443-18.858 18.858-18.858h363.315c10.415 0 18.858 8.443 18.858 18.858-.001 10.415-8.443 18.858-18.858 18.858z" fill="#dbf1d0"/><path d="m421.947 389.333h-30c10.415 0 18.858 8.443 18.858 18.857s-8.443 18.858-18.858 18.858h30c10.415 0 18.858-8.443 18.858-18.858s-8.443-18.857-18.858-18.857z" fill="#c1e9af"/></g></g><path d="m207.587 101.733c28.048 0 50.866-22.819 50.866-50.867s-22.818-50.866-50.866-50.866-50.866 22.818-50.866 50.866 22.818 50.867 50.866 50.867zm0-86.733c19.776 0 35.866 16.09 35.866 35.866 0 19.777-16.09 35.867-35.866 35.867s-35.866-16.09-35.866-35.867c0-19.776 16.09-35.866 35.866-35.866zm130.474 295.741c0-31.024-42.946-55.326-97.771-55.326s-97.771 24.302-97.771 55.326 42.946 55.326 97.771 55.326 97.771-24.301 97.771-55.326zm-180.543 0c0-29.68 56.479-40.326 82.771-40.326 29.619 0 82.771 9.942 82.771 40.326 0 28.126-55.464 40.326-82.771 40.326-26.408 0-82.771-10.334-82.771-40.326zm305.95-25.581c-5.936-16.18-21.485-27.045-38.724-27.045-4.764 0-9.397.833-13.735 2.375v-14.84c0-19.796-16.1-35.9-35.89-35.9h-150.553c-1.164-10.64-6.974-20.414-16.024-26.427-5.936-16.181-21.485-27.044-38.723-27.044s-32.787 10.865-38.722 27.044c-9.051 6.014-14.861 15.788-16.024 26.427h-9.613c-19.79 0-35.89 16.104-35.89 35.9v32.746c0 4.143 3.357 7.5 7.5 7.5s7.5-3.357 7.5-7.5v-32.746c0-11.524 9.371-20.9 20.89-20.9h11.122c4.446 13.819 16.956 24.079 31.99 25.145 7.428.526 14.852-1.208 21.248-5.038 6.405 3.829 13.749 5.57 21.248 5.037 15.033-1.064 27.543-11.323 31.99-25.144h152.062c11.519 0 20.89 9.376 20.89 20.9v24.164c-4.355 4.224-7.817 9.427-9.987 15.344-10.743 7.139-16.948 19.57-16.196 32.466.907 15.576 11.689 28.569 26.184 32.764v25.441c0 2.066-.301 4.072-.881 6.003h-309.68c-.58-1.931-.881-3.937-.881-6.003v-62.434c0-4.143-3.357-7.5-7.5-7.5s-7.5 3.357-7.5 7.5v62.434c0 2.015.185 4.022.522 6.003h-11.459c-14.533 0-26.357 11.824-26.357 26.358 0 13.957 10.907 25.409 24.645 26.296v20.014c0 31.706 25.794 57.5 57.5 57.5h251.74c31.706 0 57.5-25.794 57.5-57.5v-20.013c13.737-.886 24.645-12.338 24.645-26.296 0-14.534-11.824-26.358-26.357-26.358h-11.459c.337-1.98.522-3.988.522-6.003v-24.332c4.841-.65 9.494-2.271 13.735-4.806 6.403 3.828 13.732 5.574 21.249 5.038 18.137-1.285 32.612-15.946 33.671-34.105.748-12.896-5.456-25.327-16.198-32.465zm-253.704-70.243c-.621 10.656-9.114 19.261-19.757 20.014-4.507.322-8.897-.744-12.7-3.075-4.619-2.83-10.357-2.831-14.977 0-3.803 2.331-8.193 3.396-12.7 3.076-10.642-.754-19.135-9.358-19.756-20.015-.45-7.719 3.125-14.869 9.562-19.126 2.656-1.756 4.635-4.263 5.723-7.248 3.762-10.326 13.672-17.264 24.659-17.264s20.897 6.938 24.66 17.264c1.088 2.987 3.068 5.494 5.726 7.25 6.435 4.256 10.009 11.405 9.56 19.124zm212.183 181.916c6.263 0 11.357 5.096 11.357 11.358s-5.095 11.357-11.357 11.357h-45.134c-4.143 0-7.5 3.357-7.5 7.5s3.357 7.5 7.5 7.5h31.847v19.952c0 23.435-19.065 42.5-42.5 42.5h-251.74c-23.435 0-42.5-19.065-42.5-42.5v-19.951h269.894c4.143 0 7.5-3.357 7.5-7.5s-3.357-7.5-7.5-7.5h-283.182c-6.263 0-11.357-5.095-11.357-11.357s5.095-11.358 11.357-11.358h363.315zm42.743-80.081c-.621 10.656-9.115 19.261-19.756 20.015-4.507.316-8.897-.744-12.701-3.076-4.619-2.83-10.357-2.831-14.977 0-3.803 2.332-8.189 3.398-12.701 3.076-10.642-.753-19.134-9.357-19.755-20.015-.45-7.719 3.125-14.868 9.565-19.127 2.654-1.757 4.633-4.263 5.72-7.247 3.762-10.325 13.671-17.263 24.659-17.263 10.987 0 20.897 6.938 24.66 17.263 1.087 2.984 3.064 5.49 5.719 7.247.001.001.002.002.004.003 6.437 4.255 10.012 11.405 9.563 19.124zm-377.103-150.355c22.266 0 40.381-18.115 40.381-40.381s-18.115-40.381-40.381-40.381-40.381 18.115-40.381 40.381 18.116 40.381 40.381 40.381zm0-65.761c13.995 0 25.381 11.386 25.381 25.381s-11.386 25.381-25.381 25.381-25.381-11.386-25.381-25.381 11.386-25.381 25.381-25.381z"/></g></svg>