<svg id="Capa_1" enable-background="new 0 0 512 512" height="512" viewBox="0 0 512 512" width="512" xmlns="http://www.w3.org/2000/svg"><g><g><path d="m233.113 104.726h45.775v126.194h-45.775z" fill="#eaf6ff"/><path d="m256 104.726h22.887v126.194h-22.887z" fill="#d8ecfe"/><path d="m280.866 119.726h-49.733c-26.563 0-48.097-21.534-48.097-48.097h145.926c.001 26.563-21.533 48.097-48.096 48.097z" fill="#f58a97"/><path d="m298.963 71.629c0 26.563-21.534 48.097-48.097 48.097h30c26.563 0 48.097-21.534 48.097-48.097z" fill="#f07281"/><path d="m256.182 504.5h-.365c-17.809 0-32.246-14.437-32.246-32.246v-112.044l6.019-23.396-6.019-40.733v-64.038c0-8.904 7.218-16.123 16.123-16.123h32.61c8.904 0 16.123 7.218 16.123 16.123v128.167l-5.528 25.726 5.528 38.403v47.916c.001 17.808-14.436 32.245-32.245 32.245z" fill="#f58a97"/><path d="m272.305 215.919h-30c8.904 0 16.123 7.219 16.123 16.123v240.212c0 12.465-7.077 23.27-17.428 28.637 4.438 2.301 9.474 3.609 14.818 3.609h.365c17.809 0 32.246-14.437 32.246-32.246v-47.916l-8.319-34.774 8.319-29.355v-128.167c-.001-8.904-7.219-16.123-16.124-16.123z" fill="#f07281"/><path d="m288.428 360.21-64.856-64.129v64.129l64.856 64.129z" fill="#fdd1d5"/><path d="m288.428 424.339v-64.129l-30-29.664v64.129z" fill="#f6b2bb"/><path d="m375.157 7.5h-238.26c-1.705 0-3.355.613-4.628 1.747-4.493 4.002-14.088 14.395-14.088 30.317 0 1.906.295 18.659 14.151 30.427 1.256 1.066 2.864 1.638 4.511 1.638h238.26c1.705 0 3.355-.613 4.628-1.747 4.493-4.002 14.088-14.395 14.088-30.317 0-1.906-.295-18.659-14.151-30.427-1.255-1.067-2.863-1.638-4.511-1.638z" fill="#eaf6ff"/><path d="m379.668 9.138c-1.256-1.066-2.864-1.638-4.511-1.638h-30c1.647 0 3.255.571 4.511 1.638 13.855 11.768 14.151 28.521 14.151 30.427 0 15.922-9.595 26.315-14.088 30.317-1.273 1.134-2.923 1.747-4.628 1.747h30c1.705 0 3.355-.613 4.628-1.747 4.493-4.002 14.088-14.395 14.088-30.317 0-1.907-.295-18.66-14.151-30.427z" fill="#d8ecfe"/></g><path d="m384.523 3.421c-2.598-2.206-5.924-3.421-9.366-3.421h-151.717c-4.142 0-7.5 3.358-7.5 7.5s3.358 7.5 7.5 7.5h151.544c6.22 5.359 9.029 12.013 10.297 17.064h-258.655c2.184-8.648 7.647-14.521 10.462-17.064h51.352c4.142 0 7.5-3.358 7.5-7.5s-3.358-7.5-7.5-7.5h-51.543c-3.561 0-6.977 1.295-9.617 3.647-4.991 4.446-16.599 16.845-16.599 35.917 0 3.653.81 22.566 16.796 36.144 2.598 2.206 5.924 3.421 9.366 3.421h39.214c3.432 25.322 23.961 45.285 49.553 47.821v86.14c-5.784 4.31-9.538 11.201-9.538 18.952v167.649c0 4.142 3.358 7.5 7.5 7.5s7.5-3.358 7.5-7.5v-21.519l49.856 49.297v44.784c0 13.645-11.101 24.746-24.746 24.746h-.364c-13.645 0-24.746-11.101-24.746-24.746v-37.563c0-4.142-3.358-7.5-7.5-7.5s-7.5 3.358-7.5 7.5v37.563c0 21.916 17.83 39.746 39.746 39.746h.364c21.916 0 39.746-17.83 39.746-39.746v-240.211c0-7.752-3.754-14.642-9.538-18.952v-86.14c25.591-2.536 46.121-22.499 49.553-47.821h39.16c3.562 0 6.978-1.295 9.617-3.647 4.991-4.446 16.599-16.845 16.599-35.917 0-3.654-.809-22.566-16.796-36.144zm-103.595 402.955-49.856-49.298v-43.034l49.856 49.297zm0-64.13-49.856-49.297v-60.907c0-4.755 3.868-8.623 8.623-8.623h32.61c4.755 0 8.623 3.868 8.623 8.623zm-40.318-133.827v-81.194h30.78v81.194zm40.256-96.193h-49.732c-19.823 0-36.374-14.282-39.902-33.097h129.537c-3.529 18.814-20.08 33.097-39.903 33.097zm94.046-48.097h-237.896c-6.22-5.359-9.029-12.013-10.297-17.064h258.654c-2.182 8.646-7.644 14.518-10.461 17.064z"/></g></svg>