<svg id="Capa_1" enable-background="new 0 0 512 512" height="512" viewBox="0 0 512 512" width="512" xmlns="http://www.w3.org/2000/svg"><g><g><path d="m131.513 148.487v96.957h33.974v-96.957c0-59.102 47.911-107.013 107.013-107.013 59.102 0 107.013 47.911 107.013 107.013v306.957h33.974v-306.957c0-77.865-63.122-140.987-140.987-140.987-77.865 0-140.987 63.122-140.987 140.987z" fill="#d8ecfe"/><g fill="#d8ecfe"><path d="m98.487 504.5h-19.974c-3.866 0-7-3.134-7-7v-50.944h33.974v50.944c0 3.866-3.134 7-7 7z"/><path d="m218.487 504.5h-19.974c-3.866 0-7-3.134-7-7v-50.944h33.974v50.944c0 3.866-3.134 7-7 7z"/></g><path d="m470.5 504.5h-148c-2.209 0-4-1.791-4-4v-14c0-11.046 8.954-20 20-20h116c11.046 0 20 8.954 20 20v14c0 2.209-1.791 4-4 4z" fill="#8fd8fa"/><path d="m454.5 466.5h-30c11.046 0 20 8.954 20 20v14c0 2.209-1.791 4-4 4h30c2.209 0 4-1.791 4-4v-14c0-11.046-8.954-20-20-20z" fill="#6bcdfe"/><path d="m440.594 466.5h-88.189v-24.776c0-5.523 4.477-10 10-10h68.189c5.523 0 10 4.477 10 10z" fill="#c4e2ff"/><path d="m430.594 431.724h-30c5.523 0 10 4.477 10 10v24.776h30v-24.776c0-5.523-4.477-10-10-10z" fill="#b3dafe"/><path d="m219.5 474.5h-142c-22.091 0-40-17.909-40-40v-197c0-22.091 17.909-40 40-40h142c22.091 0 40 17.909 40 40v197c0 22.091-17.909 40-40 40z" fill="#8fd8fa"/><path d="m219.5 197.5h-30c22.091 0 40 17.909 40 40v197c0 22.091-17.909 40-40 40h30c22.091 0 40-17.909 40-40v-197c0-22.091-17.909-40-40-40z" fill="#6bcdfe"/><path d="m148.5 429.5c-32.466 0-58.784-26.318-58.784-58.784v-69.432c0-32.465 26.318-58.784 58.784-58.784 32.465 0 58.784 26.318 58.784 58.784v69.432c0 32.466-26.319 58.784-58.784 58.784z" fill="#eaf6ff"/><circle cx="148.5" cy="300" fill="#8fd8fa" r="21.5"/></g><path d="m127 368.313h43c4.142 0 7.5-3.357 7.5-7.5s-3.358-7.5-7.5-7.5h-43c-4.142 0-7.5 3.357-7.5 7.5s3.358 7.5 7.5 7.5zm87.784 2.403v-69.432c0-36.549-29.735-66.284-66.284-66.284s-66.284 29.735-66.284 66.284v69.432c0 36.549 29.735 66.284 66.284 66.284s66.284-29.735 66.284-66.284zm-117.568 0v-69.432c0-28.278 23.006-51.284 51.284-51.284s51.284 23.006 51.284 51.284v69.432c0 28.278-23.006 51.284-51.284 51.284s-51.284-23.006-51.284-51.284zm80.284 20.097c0-4.143-3.358-7.5-7.5-7.5h-43c-4.142 0-7.5 3.357-7.5 7.5s3.358 7.5 7.5 7.5h43c4.142 0 7.5-3.357 7.5-7.5zm277 68.187h-6.405v-17.276c0-9.649-7.851-17.5-17.5-17.5h-9.604v-275.734c-.001-81.878-66.613-148.49-148.491-148.49-39.658 0-76.949 15.443-105.004 43.487-28.042 28.054-43.486 65.344-43.486 105.003v41.51h-46.51c-26.191 0-47.5 21.309-47.5 47.5v107.357c0 4.143 3.358 7.5 7.5 7.5s7.5-3.357 7.5-7.5v-107.357c0-17.921 14.58-32.5 32.5-32.5h142c17.92 0 32.5 14.579 32.5 32.5v197c0 17.921-14.58 32.5-32.5 32.5h-142c-17.92 0-32.5-14.579-32.5-32.5v-54.643c0-4.143-3.358-7.5-7.5-7.5s-7.5 3.357-7.5 7.5v54.643c0 21.507 14.372 39.71 34.013 45.538v17.462c0 7.995 6.505 14.5 14.5 14.5h19.975c7.995 0 14.5-6.505 14.5-14.5v-15.5h71.025v15.5c0 7.995 6.505 14.5 14.5 14.5h19.975c7.995 0 14.5-6.505 14.5-14.5v-17.462c19.64-5.828 34.012-24.031 34.012-45.538v-197c0-26.191-21.309-47.5-47.5-47.5h-46.51v-41.51c0-54.876 44.64-99.521 99.51-99.521 21.967 0 42.791 7.016 60.222 20.289 3.295 2.511 8.001 1.871 10.511-1.423 2.51-3.296 1.872-8.002-1.423-10.511-20.066-15.278-44.033-23.354-69.31-23.354-63.141 0-114.51 51.374-114.51 114.521v41.509h-18.98v-41.51c0-35.653 13.884-69.178 39.092-94.396 25.221-25.21 58.745-39.094 94.398-39.094 73.606 0 133.49 59.884 133.49 133.49v275.73h-18.98v-275.73c0-22.854-6.713-44.921-19.414-63.815-2.311-3.438-6.972-4.351-10.408-2.041-3.438 2.311-4.352 6.971-2.041 10.408 11.032 16.413 16.863 35.587 16.863 55.448v275.733h-9.604c-9.649 0-17.5 7.851-17.5 17.5v17.277h-6.406c-15.163 0-27.5 12.337-27.5 27.5v14c0 6.341 5.159 11.5 11.5 11.5h148c6.341 0 11.5-5.159 11.5-11.5v-14c0-15.163-12.337-27.5-27.5-27.5zm-356.513 38h-18.974v-15h18.975v15zm120 0h-18.975v-15h18.975zm141.918-55.276c0-1.379 1.121-2.5 2.5-2.5h68.189c1.379 0 2.5 1.121 2.5 2.5v17.276h-73.189zm107.095 55.276h-141v-10.5c0-6.893 5.607-12.5 12.5-12.5h116c6.893 0 12.5 5.607 12.5 12.5zm-318.5-168c15.991 0 29-13.01 29-29s-13.009-29-29-29-29 13.01-29 29 13.009 29 29 29zm0-43c7.72 0 14 6.28 14 14s-6.28 14-14 14-14-6.28-14-14 6.28-14 14-14z"/></g></svg>