<svg id="Capa_1" enable-background="new 0 0 510.56 510.56" height="512" viewBox="0 0 510.56 510.56" width="512" xmlns="http://www.w3.org/2000/svg"><g><g><path d="m380.426 158.27c22.681 0 40.899-19.105 39.441-42.1-1.195-18.847-15.924-34.447-34.678-36.664-3.666-.433-7.243-.358-10.674.161-4.299.649-8.328-2.01-9.375-6.23-4.272-17.211-19.815-29.968-38.348-29.968-3.002 0-5.925.337-8.735.973-3.66.828-7.356-.892-9.079-4.225-10.045-19.432-30.315-32.718-53.698-32.718s-43.653 13.286-53.698 32.717c-1.723 3.333-5.42 5.054-9.079 4.225-2.81-.636-5.733-.973-8.735-.973-18.532 0-34.076 12.757-38.348 29.968-1.047 4.22-5.076 6.88-9.375 6.23-3.432-.518-7.009-.594-10.675-.161-18.754 2.217-33.483 17.817-34.678 36.664-1.458 22.995 16.761 42.1 39.441 42.1h250.293z" fill="#eaf6ff"/><g><path d="m419.867 116.171c-1.195-18.847-15.924-34.447-34.678-36.664-3.666-.433-7.243-.358-10.675.161-4.3.649-8.327-2.01-9.375-6.23-4.272-17.211-19.815-29.968-38.348-29.968-3.002 0-5.925.337-8.735.973-3.659.828-7.356-.892-9.079-4.225-10.044-19.433-30.314-32.719-53.697-32.719-15.793 0-30.161 6.067-40.923 15.989 3.543-.647 7.193-.989 10.923-.989 23.383 0 43.653 13.286 53.698 32.717 1.723 3.333 5.42 5.054 9.079 4.225 2.81-.636 5.733-.973 8.735-.973 18.532 0 34.076 12.757 38.348 29.968 1.048 4.22 5.075 6.88 9.375 6.23 3.432-.518 7.009-.594 10.675-.161 18.754 2.217 33.483 17.817 34.678 36.664.65 10.248-2.615 19.717-8.435 27.073 22.208-.555 39.871-19.419 38.434-42.071z" fill="#d8ecfe"/></g><path d="m358.657 503.06h-206.754c-15.611 0-28.612-11.972-29.898-27.529l-27.725-335.471h322l-27.725 335.471c-1.286 15.557-14.287 27.529-29.898 27.529z" fill="#f58a97"/><path d="m386.28 140.06-27.725 335.471c-1.286 15.557-14.288 27.529-29.898 27.529h30c15.611 0 28.612-11.972 29.898-27.529l27.725-335.471z" fill="#f07281"/><path d="m421.28 140.06h-332c-5.523 0-10 4.477-10 10v40c0 5.523 4.477 10 10 10h332c5.523 0 10-4.477 10-10v-40c0-5.523-4.477-10-10-10z" fill="#f8a6af"/><path d="m421.28 140.06h-30c5.523 0 10 4.477 10 10v40c0 5.523-4.477 10-10 10h30c5.523 0 10-4.477 10-10v-40c0-5.523-4.477-10-10-10z" fill="#f58a97"/><path d="m288.184 418.56h-65.808c-2.209 0-4-1.791-4-4v-27.739c0-2.209 1.791-4 4-4h65.808c2.209 0 4 1.791 4 4v27.739c0 2.209-1.791 4-4 4z" fill="#f6b2bb"/><path d="m288.184 382.821h-30c2.209 0 4 1.791 4 4v27.739c0 2.209-1.791 4-4 4h30c2.209 0 4-1.791 4-4v-27.739c0-2.209-1.791-4-4-4z" fill="#f8a6af"/></g><path d="m466.1 162.56h-27.32v-12.5c0-8.286-5.795-15.23-13.541-17.031 1.764-5.531 2.494-11.38 2.115-17.335-1.44-22.632-18.804-40.982-41.271-43.63-4.23-.506-8.5-.443-12.696.191-.478.07-.856-.173-.968-.621-5.211-20.998-23.975-35.664-45.63-35.664-3.474 0-6.962.387-10.389 1.155-.325.076-.604-.052-.759-.35-11.725-22.683-34.855-36.775-60.361-36.775s-48.636 14.092-60.364 36.779c-.152.296-.435.423-.775.343-3.408-.764-6.896-1.151-10.37-1.151-21.655 0-40.419 14.666-45.629 35.659-.113.452-.491.697-.971.625-4.194-.635-8.465-.698-12.679-.192-22.482 2.649-39.846 21-41.287 43.632-.378 5.955.351 11.804 2.116 17.335-7.746 1.801-13.541 8.745-13.541 17.031v12.5h-27.32c-10.868 0-19.71 8.842-19.71 19.71 0 61.582 23.979 119.475 67.517 163.013 4.011 4.011 8.149 7.851 12.399 11.529l9.86 119.338c1.6 19.295 18.017 34.41 37.375 34.41h206.76c19.358 0 35.775-15.115 37.375-34.412l9.859-119.335c4.25-3.679 8.388-7.519 12.399-11.53 43.538-43.539 67.517-101.431 67.517-163.013-.001-10.739-9.009-19.765-19.711-19.711zm-426.35 19.71c0-2.597 2.113-4.71 4.71-4.71h27.32v12.5c-.093 10.726 9.896 18.92 20.554 17.5l10.499 127.075c-40.68-40.701-63.083-94.809-63.083-152.365zm49.53 10.29c-1.379 0-2.5-1.122-2.5-2.5v-40c0-1.378 1.121-2.5 2.5-2.5h62.595c4.143 0 7.5-3.358 7.5-7.5s-3.357-7.5-7.5-7.5h-50.615c-2.363-4.913-3.439-10.337-3.086-15.914.965-15.152 13.034-27.915 28.089-29.689 2.89-.346 5.804-.304 8.663.128 8.146 1.235 15.786-3.854 17.772-11.839 3.547-14.293 16.323-24.276 31.071-24.276 2.371 0 4.756.265 7.07.784 6.969 1.576 14.125-1.748 17.401-8.09 9.143-17.681 27.167-28.664 47.04-28.664s37.897 10.983 47.036 28.662c3.278 6.345 10.432 9.674 17.385 8.097 2.333-.523 4.718-.788 7.089-.788 14.748 0 27.524 9.982 31.072 24.28 1.984 7.981 9.63 13.069 17.77 11.835 2.861-.432 5.778-.475 8.681-.127 15.039 1.773 27.108 14.536 28.072 29.687.354 5.577-.722 11.002-3.085 15.915h-222.425c-4.143 0-7.5 3.358-7.5 7.5s3.357 7.5 7.5 7.5h226.814c.005 0 .009.001.014.001s.01-.001.016-.001h7.561c1.379 0 2.5 1.122 2.5 2.5v40c0 1.378-1.121 2.5-2.5 2.5h-332zm291.806 282.351c-.96 11.579-10.811 20.649-22.426 20.649h-206.76c-11.615 0-21.466-9.07-22.426-20.647l-8.705-105.362c26.815 19.342 57.372 32.603 90.106 38.975v6.035c0 6.341 5.159 11.5 11.5 11.5h65.809c6.341 0 11.5-5.159 11.5-11.5v-6.035c32.734-6.373 63.291-19.633 90.106-38.975zm-155.21-63.851v-20.739h58.809v20.739zm181.851-76.425 3.48-42.124c.341-4.128-2.729-7.751-6.857-8.092-4.114-.333-7.75 2.728-8.092 6.857l-4.799 58.083c-26.697 21.842-57.955 36.811-91.774 43.87v-6.409c0-6.341-5.159-11.5-11.5-11.5h-65.809c-6.341 0-11.5 5.159-11.5 11.5v6.409c-33.819-7.059-65.078-22.029-91.775-43.871l-11.716-141.798h295.789l-4.027 48.742c-.341 4.128 2.729 7.751 6.857 8.092 4.068.336 7.755-2.705 8.092-6.857l4.13-49.978c10.39.819 20.657-6.222 20.554-17.5v-12.5h27.32c2.565-.015 4.71 2.154 4.71 4.71 0 57.557-22.403 111.666-63.083 152.366z"/></g></svg>