<svg id="Capa_1" enable-background="new 0 0 511.999 511.999" height="512" viewBox="0 0 511.999 511.999" width="512" xmlns="http://www.w3.org/2000/svg"><g><g><path d="m499.319 91.655-64.542-65.7c-25.43-25.886-67.509-24.106-90.661 3.836l-325.058 392.319c-17.686 21.345-14.803 53.069 6.437 70.858 21.24 17.789 52.796 14.906 70.482-6.438l115.671-139.605c6.775-8.177 18.276-10.553 27.716-5.728l39.413 20.151c7.424 3.795 16.469 1.926 21.797-4.504l1.253-1.512c6.306-7.611 5.278-18.923-2.295-25.266l-63.883-53.502c-9.63-8.065-10.937-22.449-2.918-32.127l146.637-176.982c8.019-9.678 22.326-10.985 31.956-2.919l63.883 53.502c7.574 6.343 18.825 5.315 25.132-2.296 5.877-7.093 5.436-17.515-1.02-24.087zm-429.226 374.248c-6.014 7.258-16.744 8.239-23.967 2.189-7.223-6.049-8.203-16.837-2.189-24.095s16.744-8.238 23.967-2.189 8.203 16.837 2.189 24.095z" fill="#aee69c"/><g fill="#89daa4"><path d="m209.363 341.198c-9.439-4.826-20.941-2.449-27.716 5.728l-115.67 139.604c-6.388 7.71-14.589 12.997-23.457 15.785 18.779 5.93 40.083.356 53.457-15.785l115.671-139.605c.925-1.116 1.945-2.114 3.029-3.011z"/><path d="m499.319 91.655-64.542-65.7c-15.925-16.211-38.378-21.569-58.625-16.45 10.477 2.642 20.419 8.097 28.625 16.45l64.542 65.7c6.133 6.243 6.826 15.956 1.842 22.994l4.046 3.389c7.574 6.343 18.825 5.315 25.132-2.296 5.877-7.093 5.436-17.515-1.02-24.087z"/><path d="m381.325 64.536c-9.63-8.065-23.938-6.759-31.956 2.919l-146.64 176.982c-8.019 9.678-6.712 24.061 2.918 32.127l63.883 53.502c7.574 6.343 8.601 17.655 2.295 25.266l-1.253 1.512c-.061.074-.13.139-.192.212l8.395 4.292c7.424 3.795 16.469 1.926 21.797-4.504l1.253-1.512c6.306-7.611 5.278-18.923-2.295-25.266l-63.883-53.502c-9.63-8.065-10.937-22.449-2.918-32.127l146.639-176.982c.76-.917 1.592-1.735 2.456-2.501z"/></g></g><path d="m133.383 441.383c-3.19-2.644-7.918-2.199-10.561.99l-32.621 39.371c-14.73 17.932-42.32 20.19-59.892 5.474-18.052-15.119-20.509-42.18-5.478-60.323l280.415-338.435c2.643-3.189 2.199-7.918-.99-10.561-3.19-2.643-7.918-2.199-10.561.99l-280.413 338.436c-20.28 24.479-16.962 60.992 7.397 81.394 23.877 19.997 61.194 16.907 81.073-7.403l32.621-39.371c2.643-3.191 2.2-7.919-.99-10.562zm-95.221-2.171c-8.629 10.414-7.217 25.949 3.148 34.63 10.227 8.565 26.031 7.137 34.559-3.154 8.629-10.414 7.216-25.949-3.149-34.63-10.282-8.61-26.02-7.15-34.558 3.154zm26.156 21.906c-3.309 3.993-9.412 4.544-13.377 1.225-4.058-3.397-4.608-9.48-1.229-13.56 3.309-3.993 9.386-4.566 13.376-1.225 4.058 3.399 4.61 9.481 1.23 13.56zm440.351-374.719-64.542-65.7c-13.605-13.85-32.504-21.311-51.853-20.505-19.347.819-37.548 9.862-49.935 24.812l-22.304 26.919c-2.643 3.189-2.199 7.918.99 10.561 3.188 2.641 7.917 2.2 10.561-.99l22.304-26.919c9.684-11.687 23.904-18.756 39.019-19.396 15.105-.643 29.881 5.203 40.517 16.029l64.542 65.7c3.783 3.852 4.039 9.891.597 14.047-3.595 4.34-10.257 4.954-14.542 1.331l-63.883-53.501c-12.619-10.672-32.092-8.853-42.547 3.884l-146.64 176.981c-10.63 12.83-8.891 31.969 3.879 42.662l63.882 53.502c4.408 3.691 5.008 10.3 1.337 14.729-3.526 4.255-8.668 6.819-13.861 4.125l-39.413-20.15c-12.648-6.469-27.826-3.336-36.905 7.62l-60.495 73.013c-2.643 3.189-2.199 7.918.99 10.561 1.399 1.159 3.096 1.725 4.781 1.725 2.156 0 4.296-.925 5.779-2.715l60.495-73.013c4.561-5.504 12.181-7.082 18.526-3.835l39.413 20.15c11.001 5.614 24.199 1.794 32.239-7.909 8.921-10.767 7.46-26.827-3.256-35.801l-63.882-53.502c-6.462-5.411-7.341-15.098-1.959-21.592l2.449-2.956 69.636 58.321c3.159 2.647 7.894 2.255 10.565-.935 2.659-3.176 2.241-7.905-.935-10.565l-69.696-58.372 12.449-15.025 69.636 58.321c3.159 2.647 7.894 2.255 10.565-.935 2.659-3.176 2.241-7.905-.935-10.565l-69.697-58.372 12.45-15.026 69.636 58.32c3.159 2.646 7.894 2.255 10.565-.935 2.659-3.176 2.241-7.905-.935-10.565l-69.696-58.371 12.45-15.026 69.636 58.321c3.159 2.646 7.894 2.255 10.565-.935 2.659-3.176 2.241-7.905-.935-10.565l-69.697-58.371 12.45-15.026 69.636 58.321c3.159 2.646 7.894 2.255 10.565-.935 2.659-3.176 2.241-7.905-.935-10.565l-69.697-58.372 12.45-15.026 69.636 58.32c3.159 2.646 7.894 2.255 10.565-.935 2.659-3.176 2.241-7.905-.935-10.565l-69.696-58.371 12.45-15.026 69.636 58.321c3.159 2.647 7.894 2.255 10.565-.935 2.659-3.176 2.241-7.905-.935-10.565l-69.697-58.371 2.499-3.016c5.25-6.415 15.029-7.316 21.365-1.954l63.883 53.502c10.5 8.88 26.898 7.391 35.723-3.261 8.375-10.099 7.754-24.772-1.438-34.128z"/></g></svg>