<svg id="Capa_1" enable-background="new 0 0 512.002 512.002" height="512" viewBox="0 0 512.002 512.002" width="512" xmlns="http://www.w3.org/2000/svg"><g><g><g><circle cx="448.663" cy="121.404" fill="#eaf6ff" r="25.918"/><path d="m448.663 95.486c-5.592 0-10.765 1.777-15 4.788 6.605 4.698 10.918 12.408 10.918 21.13s-4.313 16.432-10.918 21.13c4.234 3.011 9.408 4.788 15 4.788 14.314 0 25.918-11.604 25.918-25.918s-11.604-25.918-25.918-25.918z" fill="#d8ecfe"/><circle cx="118.583" cy="33.421" fill="#eaf6ff" r="25.918"/><path d="m118.583 7.503c-5.592 0-10.766 1.777-15 4.788 6.605 4.697 10.918 12.407 10.918 21.13s-4.313 16.432-10.918 21.13c4.234 3.011 9.408 4.788 15 4.788 14.314 0 25.918-11.604 25.918-25.918s-11.604-25.918-25.918-25.918z" fill="#d8ecfe"/><circle cx="54.139" cy="187.503" fill="#eaf6ff" r="19"/><path d="m54.139 168.503c-4.142 0-7.962 1.34-11.084 3.589 4.788 3.45 7.916 9.059 7.916 15.411s-3.129 11.961-7.916 15.411c3.122 2.249 6.942 3.589 11.084 3.589 10.493 0 19-8.507 19-19s-8.507-19-19-19z" fill="#d8ecfe"/></g><g><g><path d="" style="fill:#fff;stroke:#000;stroke-width:15;stroke-linecap:round;stroke-linejoin:round;stroke-miterlimit:10"/><path d="m109.169 504.503 47.656-80.636c4.189-7.088 10.223-12.906 17.458-16.833l74.647-40.517c7.781-4.224 14.269-10.48 18.773-18.102l31.794-53.808c5.777-9.777 2.534-22.385-7.242-28.162-9.777-5.777-22.385-2.534-28.162 7.242l-28.216 47.753 14.644-24.783 61.113-103.427c5.777-9.776 2.534-22.385-7.242-28.161-9.777-5.777-22.385-2.534-28.162 7.242l-38.858 65.763 49.067-83.041c5.672-9.599 3.038-22.184-6.353-28.193-9.859-6.309-22.897-3.142-28.801 6.849l-27.04 45.763 16.581-28.061c5.777-9.776 2.534-22.385-7.242-28.161-9.777-5.777-22.385-2.534-28.162 7.242l-20.501 34.696 9.771-16.536c5.55-9.393 3.212-21.713-5.795-27.871-5.149-3.52-11.245-4.376-16.755-2.948-5.1 1.301-9.697 4.555-12.584 9.441l-54.025 91.432c-4.693 7.942-8.033 16.608-9.885 25.644l-13.061 63.724c-1.932 9.428-5.418 18.47-10.314 26.757l-64.772 109.618-4.251 7.127c-1.764 2.958-.682 6.791 2.369 8.389l94.197 49.341c2.884 1.511 6.447.445 8.029-2.401z" fill="#ffa78f"/><g fill="#f89580"><path d="m271.438 140.034-49.067 83.041 38.858-65.763c5.637-9.54 17.772-12.833 27.44-7.621 2.28-8.519-.86-17.908-8.584-22.85-1.994-1.276-4.119-2.145-6.288-2.668 1.262 5.212.555 10.929-2.359 15.861z"/><path d="m304.391 165.07c-1.764-1.042-3.621-1.78-5.512-2.25 1.254 5.051.61 10.577-2.246 15.411l-47.54 80.456c5.774-9.771 18.373-13.015 28.147-7.249l34.393-58.207c5.777-9.776 2.534-22.384-7.242-28.161z"/></g><g><path d="m87.273 502.717 12.542 6.57c2.884 1.511 6.447.445 8.029-2.401l1.324-2.383 47.656-80.636c4.189-7.088 10.222-12.906 17.458-16.833l74.647-40.517c7.781-4.224 14.269-10.48 18.773-18.102l31.548-53.392c5.063-8.568 3.644-19.698-3.824-26.276-9.662-8.512-24.828-6.119-31.334 4.94l49.031-82.979c5.821-9.851 1.891-21.389-8.733-25.638-10.624-4.25-24.079.334-29.901 10.185l-33.494 56.685-35.232-59.621c-4.515-7.641-15.098-11.596-23.518-8.789l-.893.298c-13.037 4.346-17.984 17.581-10.992 29.412l61.117 103.425 14.644 24.782-28.218-47.752c-5.777-9.776-18.386-13.018-28.162-7.241-9.776 5.777-13.018 18.386-7.241 28.162l31.796 53.806.063.106c3.333 5.624 1.328 12.892-4.418 16.01l-50.659 27.497c-7.235 3.927-13.269 9.745-17.458 16.833z" fill="#f89580"/><g fill="#ffb09e"><path d="m285.213 131.604c-1.66 5.523-1.037 11.74 2.088 17.031l-10.73-18.158c-1.702-2.88-4.006-5.175-6.646-6.858-7.35-.329-14.636 3.296-18.64 10.072l-10.28 17.397c.058.102.102.207.162.309l-.172-.291-.17.287c.059-.1.103-.204.16-.304l-10.278-17.392c-4.007-6.78-11.3-10.406-18.654-10.071-2.634 1.682-4.933 3.974-6.632 6.848l-10.73 18.159c3.124-5.288 3.748-11.503 2.09-17.025-4.997 6.587-5.667 15.919-1.227 23.433l45.442 76.899 45.442-76.905c4.439-7.514 3.77-16.844-1.225-23.431z"/><path d="m240.997 130.8c-3.448 6.092-3.688 13.769-.002 20.269 3.687-6.5 3.448-14.177.002-20.269z"/></g></g><path d="m262.356 197.108c1.002-7.265 5.429-13.555 12.037-16.513l.451-.202c9.506-4.254 20.825-.777 26.145 8.329 10.822 18.523 32.179 29.229 54.186 25.232 27.74-5.038 46.516-32.022 41.906-60.273-1.618-9.916-5.845-18.708-11.832-25.808-1.855-2.2-1.857-5.465.027-7.618 6.591-7.535 9.788-17.985 7.789-28.689-2.329-12.468-11.11-22.067-22.167-25.905-2.962-1.028-4.693-4.199-3.787-7.228 1.712-5.726 1.95-12.016.336-18.332-4.185-16.377-19.341-27.051-35.9-25.295-3.986.423-7.703 1.533-11.07 3.187-1.924.945-4.205.808-5.948-.465-11.156-8.15-25.424-11.862-39.961-9.146-22.128 4.134-38.297 21.928-41.684 43.23-.462 2.905-2.932 5.04-5.834 4.947-2.33-.075-4.701.098-7.084.544-10.444 1.951-18.818 8.648-23.381 17.493-.838 1.624-2.383 2.728-4.165 3.044-28.243 4.994-47.305 32.533-41.888 61.534 4.077 21.825 20.835 38.013 41.061 42.175z" fill="#eaf6ff"/><g><path d="m397.082 153.682c-1.618-9.916-5.846-18.708-11.832-25.808-1.855-2.2-1.857-5.464.027-7.618 6.591-7.535 9.788-17.985 7.789-28.689-2.329-12.467-11.11-22.067-22.167-25.905-2.962-1.028-4.693-4.199-3.787-7.228 1.712-5.726 1.95-12.016.336-18.332-4.185-16.376-19.341-27.051-35.9-25.295-3.987.423-7.703 1.533-11.07 3.187-.151.074-.307.13-.462.19 8.398 4.255 14.909 12.048 17.431 21.918 1.614 6.316 1.377 12.607-.336 18.332-.906 3.029.825 6.2 3.787 7.228 11.057 3.838 19.838 13.438 22.167 25.905 2 10.703-1.197 21.154-7.789 28.689-1.884 2.153-1.881 5.418-.027 7.618 5.986 7.099 10.214 15.892 11.832 25.808 4.28 26.232-11.609 51.36-36.109 58.852 7.616 2.334 15.862 2.936 24.203 1.421 27.74-5.039 46.517-32.023 41.907-60.273z" fill="#d8ecfe"/></g></g></g><g><path d="" style="fill:#fff;stroke:#000;stroke-width:15;stroke-linecap:round;stroke-linejoin:round;stroke-miterlimit:10"/><path d="m413.208 508.873c-3.304 1.751-7.4.597-9.304-2.621l-48.727-82.384c-4.189-7.088-10.223-12.906-17.458-16.832l-74.649-40.514c-7.781-4.223-14.27-10.479-18.774-18.101l-31.796-53.807c-5.777-9.776-2.535-22.385 7.241-28.162 9.776-5.777 22.385-2.535 28.162 7.241l28.218 47.752-14.644-24.782-61.117-103.425c-5.777-9.776-2.535-22.385 7.241-28.162 9.776-5.777 22.385-2.535 28.162 7.241l50.656 85.723-60.865-103c-5.672-9.598-3.039-22.184 6.352-28.193 9.859-6.309 22.897-3.142 28.801 6.848l61.117 103.425-50.656-85.723c-5.777-9.776-2.535-22.385 7.241-28.162 9.776-5.777 22.385-2.535 28.162 7.241l50.656 85.723-39.925-67.564c-5.551-9.393-3.213-21.713 5.794-27.871 5.149-3.521 11.245-4.376 16.755-2.949 5.1 1.301 9.697 4.555 12.584 9.441l54.028 91.43c4.693 7.941 8.034 16.607 9.886 25.644l13.063 63.724c1.933 9.428 5.419 18.47 10.315 26.756l64.775 109.615 3.545 5.706c2.14 3.444.915 7.98-2.667 9.879z" fill="#ffcebf"/><path d="m321.823 237.12-50.656-85.723c-5.777-9.776-2.535-22.385 7.241-28.162 9.776-5.777 22.385-2.535 28.162 7.241l50.656 85.723z" fill="#ffcebf"/><path d="m355.817 213.814-49.247-83.338c-5.777-9.776-18.386-13.018-28.162-7.241-3.228 1.908-5.726 4.568-7.44 7.618 7.095-.062 14.031 3.536 17.901 10.084l49.246 83.338c2.889 4.888 9.193 6.509 14.081 3.621 4.889-2.89 6.51-9.194 3.621-14.082z" fill="#ffb09e"/><g><path d="m352.434 127.257c-2.887-4.886-7.485-8.14-12.584-9.441-5.509-1.428-11.605-.572-16.754 2.949-2.664 1.822-4.729 4.19-6.194 6.855 1.775-.008 3.539.215 5.247.657 5.1 1.301 9.697 4.555 12.584 9.441l54.028 91.43c4.693 7.941 8.034 16.607 9.886 25.644l13.063 63.724c1.933 9.428 5.418 18.47 10.315 26.756l64.774 109.615 3.545 5.706c1.46 2.35 1.351 5.208-.002 7.39l15.037-7.972c3.582-1.899 4.807-6.435 2.667-9.879l-3.545-5.706-64.775-109.615c-4.896-8.286-8.382-17.328-10.315-26.756l-13.063-63.724c-1.852-9.036-5.193-17.702-9.886-25.644z" fill="#ffb09e"/></g><path d="m260.707 133.695c-5.904-9.991-18.942-13.157-28.801-6.848-2.913 1.864-5.173 4.363-6.739 7.207 7.074-.04 13.98 3.572 17.838 10.102l59.698 101.024c2.889 4.888 9.193 6.509 14.081 3.621 4.888-2.889 6.509-9.193 3.621-14.081z" fill="#ffb09e"/><path d="m276.122 321.446-75.761-128.207c-5.777-9.776-2.535-22.385 7.241-28.162 9.776-5.777 22.385-2.535 28.162 7.241l75.761 128.207z" fill="#ffcebf"/><path d="m235.764 172.318c-5.777-9.776-18.386-13.018-28.162-7.241-3.228 1.908-5.726 4.568-7.44 7.617 7.095-.062 14.031 3.536 17.9 10.084l49.211 83.278c2.889 4.888 9.193 6.509 14.081 3.621 4.888-2.889 6.509-9.193 3.621-14.081z" fill="#ffb09e"/><path d="m240.718 342.367-28.218-47.753c-5.777-9.776-2.535-22.385 7.241-28.162 9.776-5.777 22.385-2.535 28.162 7.241l28.218 47.752z" fill="#ffcebf"/><path d="m219.742 266.452c-3.228 1.908-5.726 4.568-7.44 7.618 7.095-.061 14.031 3.536 17.9 10.084l26.83 45.403c2.889 4.888 9.193 6.509 14.081 3.621 4.888-2.889 6.509-9.193 3.621-14.081l-26.83-45.403c-5.777-9.777-18.386-13.019-28.162-7.242z" fill="#ffb09e"/></g></g><path d="m448.663 154.822c18.427 0 33.418-14.991 33.418-33.418s-14.991-33.418-33.418-33.418-33.418 14.991-33.418 33.418 14.991 33.418 33.418 33.418zm0-51.836c10.156 0 18.418 8.262 18.418 18.418s-8.262 18.418-18.418 18.418-18.418-8.262-18.418-18.418 8.262-18.418 18.418-18.418zm-336.676 119.513 10.648-18.017c2.107-3.566.925-8.165-2.641-10.272-3.565-2.108-8.165-.925-10.272 2.641l-10.651 18.021c-5.127 8.691-8.75 18.097-10.768 27.954l-13.07 63.723c-1.769 8.641-4.938 16.866-9.419 24.449l-64.77 109.62c-2.107 3.566-.924 8.166 2.642 10.272 3.519 2.079 8.142.965 10.272-2.642l64.77-109.619c5.33-9.018 9.098-18.799 11.201-29.07l13.07-63.723c1.684-8.23 4.71-16.084 8.988-23.337zm6.596-155.66c18.427 0 33.418-14.992 33.418-33.418s-14.991-33.418-33.418-33.418-33.418 14.991-33.418 33.418 14.991 33.418 33.418 33.418zm0-51.836c10.156 0 18.418 8.262 18.418 18.418s-8.262 18.418-18.418 18.418-18.418-8.263-18.418-18.418 8.262-18.418 18.418-18.418zm392.375 425.607-64.774-109.615c-4.484-7.588-7.655-15.813-9.425-24.447l-13.063-63.724c-2.024-9.872-5.649-19.277-10.776-27.953l-14.545-24.615c6.045-11.573 8.221-24.815 6.109-37.783-1.706-10.443-6.062-20.224-12.629-28.381 7.728-9.465 10.852-21.739 8.581-33.903-2.639-14.173-12.436-25.972-25.719-31.115 1.75-6.781 1.755-13.947.001-20.831-5.13-20.053-23.609-33.047-43.971-30.898-4.43.478-8.69 1.651-12.683 3.492-7.875-5.533-16.989-9.103-26.427-10.341-4.107-.539-7.873 2.354-8.412 6.461s2.354 7.873 6.461 8.412c7.309.958 14.371 3.801 20.423 8.221 3.971 2.898 9.213 3.331 13.678 1.134 2.668-1.311 5.551-2.14 8.551-2.464 12.867-1.357 24.578 6.926 27.844 19.693 1.212 4.756 1.123 9.712-.262 14.343-2.036 6.853 1.704 14.078 8.52 16.45 8.895 3.088 15.503 10.824 17.248 20.192 1.512 8.097-.693 16.252-6.053 22.375-4.297 4.912-4.345 12.393-.117 17.395 5.304 6.286 8.817 13.957 10.16 22.179 1.042 6.396.69 12.88-.951 19.044l-29.836-50.491c-8.105-13.879-26.851-17.878-40.029-8.868-3.421 2.339-6.158 5.34-8.154 8.734-8.545-10.709-24.296-13.513-36.116-6.529-4.083 2.413-7.417 5.74-9.788 9.697-8.79-10.979-25.076-13.54-36.942-5.945-11.282 7.22-15.605 21.812-10.777 34.191-4.639.155-9.192 1.472-13.299 3.899-5.97 3.528-10.148 8.941-12.24 15.036-31.005-7.496-44.357-44.233-26.354-70.227 6.798-9.816 16.932-16.351 28.557-18.405 4.136-.744 7.602-3.294 9.507-6.993 3.693-7.159 10.287-12.1 18.078-13.553 1.838-.34 3.675-.481 5.484-.418 6.611.188 12.403-4.63 13.48-11.271 2.052-12.929 9.51-24.274 20.463-31.126 3.512-2.197 4.578-6.824 2.381-10.336-2.197-3.511-6.825-4.577-10.336-2.381-14.243 8.91-24.058 23.477-27.086 40.1-2.357.016-4.745.245-7.125.685-12.112 2.259-22.37 9.772-28.273 20.673-15.242 2.905-28.522 11.577-37.462 24.485-9.214 13.304-12.666 29.434-9.737 45.445l-15.538 26.291c-2.107 3.566-.925 8.165 2.641 10.272 3.512 2.076 8.143.965 10.272-2.641l9.153-15.487c5.992 10.949 15.206 19.757 26.433 25.185l-1.535 21.821c-1.036 14.698-6.555 28.456-15.958 39.785l-8.98 10.81c-2.647 3.186-2.209 7.915.977 10.562 3.17 2.633 7.903 2.224 10.562-.977l8.982-10.812c11.421-13.76 18.123-30.467 19.38-48.314l1.238-17.598c.633 2.687 1.677 5.324 3.153 7.823l34.9 59.06c-4.493.219-8.895 1.528-12.877 3.881-6.453 3.813-11.035 9.912-12.901 17.171-1.867 7.259-.794 14.811 3.019 21.264l31.795 53.806c1.78 3.012 3.847 5.823 6.133 8.434l-73.273 39.773c-8.423 4.579-15.454 11.356-20.335 19.604l-47.65 80.64c-2.107 3.566-.924 8.165 2.642 10.272 3.515 2.077 8.143.965 10.272-2.642l47.647-80.636c3.499-5.913 8.543-10.775 14.583-14.058l74.647-40.518c1.193-.647 2.351-1.344 3.486-2.069 1.141.731 2.306 1.428 3.501 2.077l74.649 40.514c6.041 3.278 11.082 8.139 14.579 14.056l47.659 80.634c2.127 3.601 6.757 4.718 10.272 2.641 3.566-2.107 4.748-6.707 2.641-10.272l-47.659-80.634c-4.878-8.255-11.911-15.035-20.337-19.608l-74.648-40.514c-6.587-3.575-12.083-8.875-15.895-15.325l-31.795-53.806c-3.664-6.2-1.601-14.226 4.6-17.89 6.106-3.608 14.3-1.547 17.889 4.6l28.218 47.752c2.108 3.566 6.708 4.749 10.272 2.642 3.566-2.107 4.749-6.707 2.642-10.272l-28.218-47.752c-.001-.002-.002-.004-.004-.007l-47.539-80.448c-3.651-6.108-1.518-14.273 4.601-17.889 6.104-3.608 14.3-1.547 17.889 4.6l50.656 85.723c2.107 3.565 6.706 4.75 10.272 2.642 3.566-2.107 4.749-6.707 2.642-10.272l-60.866-103.001c-3.674-6.218-1.908-14.32 3.937-18.061 6.134-3.926 14.615-1.97 18.302 4.347l10.395 17.59c.021.037.044.074.065.111l50.656 85.723c2.108 3.566 6.707 4.749 10.272 2.642 3.566-2.107 4.749-6.707 2.642-10.272l-50.7-85.798c-3.603-6.19-1.531-14.166 4.644-17.815 6.105-3.607 14.3-1.548 17.889 4.6l10.703 18.112c.009.016.019.032.028.048l39.925 67.563c2.108 3.565 6.707 4.75 10.272 2.642 3.566-2.107 4.749-6.707 2.642-10.272l-39.95-67.605c-3.608-6.153-2.034-13.974 3.595-17.822 6.132-4.192 14.877-2.342 18.649 4.116l54.028 91.43c4.28 7.243 7.307 15.094 8.996 23.335l13.063 63.723c2.104 10.265 5.874 20.044 11.205 29.066l64.774 109.615c2.107 3.566 6.706 4.75 10.272 2.642 3.567-2.111 4.749-6.71 2.642-10.276zm-456.819-226.607c14.612 0 26.5-11.888 26.5-26.5s-11.888-26.5-26.5-26.5-26.5 11.888-26.5 26.5 11.888 26.5 26.5 26.5zm0-38c6.341 0 11.5 5.159 11.5 11.5s-5.159 11.5-11.5 11.5-11.5-5.159-11.5-11.5 5.159-11.5 11.5-11.5z"/></g></svg>