<svg id="Capa_1" enable-background="new 0 0 512 512" height="512" viewBox="0 0 512 512" width="512" xmlns="http://www.w3.org/2000/svg"><g><g><g><path d="m144.303 215.09h223.393v222.157h-223.393z" fill="#8fd8fa"/><path d="m337.697 215.09h30v222.156h-30z" fill="#6bcdfe"/><path d="m215.924 99.21h80.151v63.627h-80.151z" fill="#8fd8fa"/><path d="m266.076 99.21h30v63.627h-30z" fill="#6bcdfe"/><path d="m295.987 104.753h-79.973c-8.902 0-16.119-7.217-16.119-16.119v-65.015c0-8.902 7.217-16.119 16.119-16.119h79.973c8.902 0 16.119 7.217 16.119 16.119v65.015c0 8.903-7.217 16.119-16.119 16.119z" fill="#b4e5f9"/><path d="m295.987 7.5h-30c8.902 0 16.119 7.217 16.119 16.119v65.015c0 8.902-7.217 16.119-16.119 16.119h30c8.902 0 16.119-7.217 16.119-16.119v-65.015c0-8.902-7.217-16.119-16.119-16.119z" fill="#8fd8fa"/><path d="m372.257 215.09h-232.514c-11.046 0-20-8.954-20-20v-27.253c0-11.046 8.954-20 20-20h232.514c11.046 0 20 8.954 20 20v27.253c0 11.046-8.954 20-20 20z" fill="#b4e5f9"/><path d="m372.257 147.837h-30c11.046 0 20 8.954 20 20v27.253c0 11.046-8.954 20-20 20h30c11.046 0 20-8.954 20-20v-27.253c0-11.046-8.954-20-20-20z" fill="#8fd8fa"/><path d="m372.257 504.5h-232.514c-11.046 0-20-8.954-20-20v-27.253c0-11.046 8.954-20 20-20h232.514c11.046 0 20 8.954 20 20v27.253c0 11.046-8.954 20-20 20z" fill="#b4e5f9"/><path d="m372.257 437.247h-30c11.046 0 20 8.954 20 20v27.253c0 11.046-8.954 20-20 20h30c11.046 0 20-8.954 20-20v-27.253c0-11.046-8.954-20-20-20z" fill="#8fd8fa"/></g><g><path d="m279.728 395.085-15-35.041c-3.871-9.044-16.457-9.314-20.705-.445l-16.46 34.365c-2.239 4.674-8.807 4.719-11.108.076l-3.024-6.101c-8.437-17.022-9.634-36.815-3.334-54.757l.113-.321c1.403-3.996 1.471-8.224.24-12.179l-9.335-29.999c-6.884-22.121 13.735-42.908 35.592-35.883l14.445 4.643c3.46 1.112 7.164 1.192 10.668.229l14.627-4.018c22.133-6.079 41.858 15.575 34.051 37.381l-10.588 29.571c-1.396 3.899-1.499 8.152-.292 12.115 5.621 18.463 3.554 38.445-5.724 55.332l-3.069 5.586c-2.496 4.539-9.057 4.212-11.097-.554z" fill="#eaf6ff"/></g><g><path d="m310.496 293.035c7.808-21.805-11.918-43.46-34.051-37.381l-8.999 2.472c11.459 6.398 18.166 20.62 13.05 34.909l-10.588 29.571c-1.396 3.899-1.499 8.152-.292 12.115 3.863 12.69 4.094 26.098.849 38.725l9.263 21.639c2.04 4.766 8.601 5.093 11.095.553l3.069-5.586c9.278-16.887 11.345-36.869 5.724-55.332-1.207-3.963-1.104-8.216.292-12.115z" fill="#d8ecfe"/></g></g><path d="m367.696 371.012c4.143 0 7.5-3.358 7.5-7.5v-141.081c13.786-1.472 24.561-13.171 24.561-27.341v-27.253c0-15.164-12.337-27.5-27.5-27.5h-68.677v-29.343c9.308-3.17 16.025-11.992 16.025-22.359v-65.016c0-13.023-10.595-23.619-23.619-23.619h-79.973c-13.023 0-23.619 10.596-23.619 23.619v65.015c0 10.367 6.717 19.189 16.025 22.359v29.343h-68.677c-15.163 0-27.5 12.336-27.5 27.5v27.253c0 14.17 10.775 25.869 24.561 27.341v207.475c-13.786 1.472-24.561 13.171-24.561 27.341v27.254c0 15.164 12.337 27.5 27.5 27.5h232.514c15.163 0 27.5-12.336 27.5-27.5v-27.253c0-14.17-10.775-25.869-24.561-27.341v-31.394c0-4.142-3.357-7.5-7.5-7.5s-7.5 3.358-7.5 7.5v31.235h-208.391v-207.157h38.101c4.143 0 7.5-3.358 7.5-7.5s-3.357-7.5-7.5-7.5h-50.161c-6.893 0-12.5-5.607-12.5-12.5v-27.253c0-6.893 5.607-12.5 12.5-12.5h232.514c6.893 0 12.5 5.607 12.5 12.5v27.253c0 6.893-5.607 12.5-12.5 12.5h-147.354c-4.143 0-7.5 3.358-7.5 7.5s3.357 7.5 7.5 7.5h135.292v140.922c0 4.142 3.358 7.5 7.5 7.5zm4.561 73.735c6.893 0 12.5 5.607 12.5 12.5v27.253c0 6.893-5.607 12.5-12.5 12.5h-232.514c-6.893 0-12.5-5.607-12.5-12.5v-27.253c0-6.893 5.607-12.5 12.5-12.5zm-83.677-304.41h-65.16v-28.083h65.16zm7.406-43.084h-79.973c-4.753 0-8.619-3.867-8.619-8.619v-65.015c0-4.752 3.866-8.619 8.619-8.619h79.973c4.753 0 8.619 3.867 8.619 8.619v65.015c0 4.753-3.866 8.619-8.619 8.619zm21.571 198.31c4.595-12.831 1.709-26.994-7.53-36.961-9.229-9.958-22.528-13.765-35.567-10.18l-14.628 4.018c-2.101.577-4.31.53-6.387-.137l-14.445-4.643c-12.879-4.14-26.324-.909-35.967 8.644-9.652 9.563-13.132 23.59-9.081 36.608l9.336 29.999c.758 2.438.704 5.019-.156 7.47l-.111.317c-6.939 19.763-5.594 41.84 3.69 60.573l3.024 6.1c2.355 4.75 7.08 7.661 12.346 7.625 5.269-.035 9.961-3.021 12.246-7.792l16.46-34.365c.989-2.064 2.799-2.252 3.567-2.236.745.016 2.575.28 3.479 2.394l15 35.042c2.179 5.095 7.087 8.323 12.597 8.323 4.991 0 9.533-2.68 11.967-7.11l3.068-5.585c10.196-18.558 12.502-40.838 6.326-61.129-.732-2.406-.67-5.034.179-7.401zm-14.122-5.057-10.587 29.571c-1.928 5.382-2.072 11.358-.406 16.828 5.348 17.557 2.727 37.106-6.884 52.742l-13.936-32.554c-2.965-6.927-9.46-11.329-16.951-11.487-.14-.003-.278-.004-.416-.004-7.318 0-13.804 4.093-16.996 10.758l-15.289 31.92c-8.913-16.001-10.911-35.251-4.797-52.616l.111-.316c1.936-5.512 2.049-11.354.325-16.893l-9.336-30c-2.417-7.767-.43-15.803 5.315-21.495 5.59-5.537 13.375-7.414 20.82-5.02l14.446 4.644c4.86 1.562 10.03 1.673 14.949.32l14.627-4.018c7.547-2.071 15.242.139 20.595 5.913 5.503 5.936 7.152 14.051 4.41 21.707z"/></g></svg>