<svg id="Capa_1" enable-background="new 0 0 512 512" height="512" viewBox="0 0 512 512" width="512" xmlns="http://www.w3.org/2000/svg"><g><g><g><path d="m441.547 344.841v-166.308c0-11.116-9.221-20.127-20.596-20.127-11.375 0-20.596 9.011-20.596 20.127v166.308z" fill="#aee69c"/><path d="m359.163 332.48v-153.947c0-11.116-9.221-20.127-20.596-20.127-11.375 0-20.596 9.011-20.596 20.127v128.126c0 3.541-4.263 5.336-6.796 2.861l-44.02-43.017c-7.826-7.648-20.633-7.648-28.46 0-7.283 7.117-7.891 18.459-1.41 26.281l81.037 97.807c5.632 6.798 8.705 15.279 8.705 24.026v45.874h155.711v-111.692-121.308c0-11.116-9.221-20.127-20.596-20.127-11.375 0-20.596 9.011-20.596 20.127v104.989z" fill="#aee69c"/><path d="m420.951 158.406c3.756 0 7.266.998 10.298 2.715-6.15 3.482-10.298 9.967-10.298 17.412v151.18c0 5.687-4.611 10.298-10.298 10.298-5.687 0-10.298-4.611-10.298-10.298v-151.18c0-11.116 9.221-20.127 20.596-20.127z" fill="#89daa4"/><g fill="#89daa4"><path d="m463.536 227.491v101.525c0 6.072-4.922 10.995-10.995 10.995-6.072 0-10.995-4.922-10.995-10.995v-101.525c0-11.116 9.221-20.127 20.596-20.127 4.047 0 7.811 1.157 10.994 3.128-5.762 3.568-9.6 9.839-9.6 16.999z"/><path d="m339.961 178.533v113.673c0 11.323-11.595 18.944-21.989 14.452v-128.126c0-11.116 9.221-20.127 20.596-20.127 4.047 0 7.811 1.157 10.994 3.128-5.764 3.569-9.601 9.84-9.601 17z"/></g><g><path d="m238.696 266.502c7.827-7.648 20.633-7.648 28.46 0l.806.788c-6.564 7.144-6.927 17.949-.677 25.493l81.037 97.807c5.632 6.798 8.705 15.279 8.705 24.026v45.874h-30v-45.874c0-8.747-3.073-17.228-8.705-24.026l-81.037-97.807c-6.48-7.822-5.872-19.164 1.411-26.281z" fill="#89daa4"/></g><path d="m400.355 332.48v-186.586c0-11.116-9.221-20.127-20.596-20.127-11.375 0-20.596 9.011-20.596 20.127v186.586z" fill="#aee69c"/><path d="m379.759 125.768c3.756 0 7.266.998 10.298 2.715-6.15 3.482-10.298 9.967-10.298 17.412v183.818c0 5.687-4.611 10.298-10.298 10.298-5.687 0-10.298-4.611-10.298-10.298v-183.819c0-11.115 9.222-20.126 20.596-20.126z" fill="#89daa4"/><path d="m316.272 504.5h177.222c6.078 0 11.006-4.927 11.006-11.006v-21.999c0-6.078-4.927-11.006-11.006-11.006h-177.222c-6.078 0-11.006 4.927-11.006 11.006v21.999c.001 6.079 4.928 11.006 11.006 11.006z" fill="#dbf1d0"/><path d="m493.494 460.49h-30c6.078 0 11.006 4.927 11.006 11.006v21.999c0 6.078-4.927 11.006-11.006 11.006h30c6.078 0 11.006-4.927 11.006-11.006v-21.999c0-6.079-4.927-11.006-11.006-11.006z" fill="#c1e9af"/></g><g><path d="m70.453 226.573v-166.307c0-11.116 9.221-20.127 20.596-20.127 11.375 0 20.596 9.011 20.596 20.127v166.308h-41.192z" fill="#aee69c"/><path d="m152.837 214.212v-153.946c0-11.116 9.221-20.127 20.596-20.127 11.375 0 20.596 9.011 20.596 20.127v128.126c0 3.541 4.263 5.336 6.796 2.861l44.02-43.017c7.826-7.648 20.633-7.648 28.46 0 7.283 7.117 7.891 18.459 1.41 26.281l-81.037 97.807c-5.632 6.798-8.705 15.279-8.705 24.026v45.874h-155.712v-111.693-121.307c0-11.116 9.221-20.127 20.596-20.127 11.375 0 20.596 9.011 20.596 20.127v104.988z" fill="#aee69c"/><path d="m91.049 40.139c-3.756 0-7.266.998-10.298 2.715 6.15 3.482 10.298 9.967 10.298 17.412v151.18c0 5.687 4.611 10.298 10.298 10.298 5.687 0 10.298-4.611 10.298-10.298v-151.18c0-11.116-9.221-20.127-20.596-20.127z" fill="#89daa4"/><g fill="#89daa4"><path d="m48.464 109.224v101.525c0 6.072 4.922 10.994 10.994 10.994 6.072 0 10.994-4.922 10.994-10.994v-101.525c0-11.116-9.221-20.127-20.596-20.127-4.047 0-7.811 1.157-10.994 3.128 5.764 3.568 9.602 9.838 9.602 16.999z"/><path d="m172.039 60.266v113.673c0 11.323 11.595 18.944 21.989 14.452v-128.126c0-11.116-9.221-20.127-20.596-20.127-4.047 0-7.811 1.157-10.994 3.128 5.764 3.568 9.601 9.839 9.601 17z"/></g><g><path d="m273.304 148.235c-7.827-7.648-20.633-7.648-28.46 0l-.806.788c6.564 7.144 6.927 17.949.677 25.493l-81.037 97.807c-5.632 6.798-8.705 15.279-8.705 24.026v45.874h30v-45.874c0-8.747 3.073-17.228 8.705-24.026l81.037-97.807c6.48-7.823 5.872-19.164-1.411-26.281z" fill="#89daa4"/></g><path d="m111.645 214.212v-186.585c0-11.116 9.221-20.127 20.596-20.127 11.375 0 20.596 9.011 20.596 20.127v186.585z" fill="#aee69c"/><path d="m132.241 7.5c-3.756 0-7.266.998-10.298 2.715 6.15 3.482 10.298 9.967 10.298 17.412v183.818c0 5.687 4.611 10.298 10.298 10.298 5.687 0 10.298-4.611 10.298-10.298v-183.818c0-11.116-9.222-20.127-20.596-20.127z" fill="#89daa4"/><path d="m195.728 386.232h-177.222c-6.078 0-11.006-4.927-11.006-11.006v-21.999c0-6.078 4.927-11.006 11.006-11.006h177.222c6.078 0 11.006 4.927 11.006 11.006v21.999c-.001 6.079-4.928 11.006-11.006 11.006z" fill="#dbf1d0"/><path d="m195.728 342.222h-30c6.078 0 11.006 4.927 11.006 11.006v21.999c0 6.078-4.927 11.006-11.006 11.006h30c6.078 0 11.006-4.927 11.006-11.006v-21.999c-.001-6.078-4.928-11.006-11.006-11.006z" fill="#c1e9af"/></g></g><path d="m192.472 334.722v-38.374c0-6.975 2.479-13.808 6.981-19.241l81.037-97.807c9.013-10.878 8.177-26.54-1.944-36.43-10.737-10.492-28.208-10.492-38.943 0l-38.074 37.207v-119.811c0-15.233-12.604-27.627-28.096-27.627-4.727 0-9.183 1.159-13.096 3.196v-8.207c-.001-15.234-12.604-27.628-28.096-27.628s-28.096 12.394-28.096 27.627v8.207c-3.913-2.036-8.368-3.195-13.096-3.195-15.492 0-28.096 12.394-28.096 27.627v24.526c-3.913-2.036-8.368-3.195-13.096-3.195-15.492 0-28.096 12.394-28.096 27.627v50.476c0 4.142 3.358 7.5 7.5 7.5s7.5-3.358 7.5-7.5v-50.476c0-6.962 5.875-12.627 13.096-12.627s13.096 5.665 13.096 12.627v104.988c0 4.142 3.358 7.5 7.5 7.5s7.5-3.358 7.5-7.5v-153.946c0-6.962 5.875-12.627 13.096-12.627s13.096 5.665 13.096 12.627v153.946c0 4.142 3.358 7.5 7.5 7.5s7.5-3.358 7.5-7.5v-186.585c0-6.962 5.875-12.627 13.096-12.627s13.096 5.665 13.096 12.627v186.585c0 4.142 3.358 7.5 7.5 7.5s7.5-3.358 7.5-7.5v-153.946c0-6.962 5.875-12.627 13.096-12.627s13.096 5.665 13.096 12.627v128.125c0 4.639 2.763 8.799 7.038 10.599 4.276 1.801 9.183.868 12.5-2.374l44.021-43.018c4.871-4.76 13.104-4.761 17.976 0 4.487 4.384 4.864 11.319.876 16.131l-81.037 97.807c-6.726 8.118-10.43 18.35-10.43 28.811v38.374h-140.712v-140.021c0-4.142-3.358-7.5-7.5-7.5s-7.5 3.358-7.5 7.5v140.022c-11.421-1.281-21.756 6.832-21.761 18.506v21.999c0 10.204 8.302 18.505 18.506 18.505h177.222c10.204 0 18.506-8.301 18.506-18.505v-21.999c-.033-11.715-10.404-19.782-21.762-18.506zm6.761 40.505c0 1.933-1.573 3.505-3.506 3.505h-177.221c-1.933 0-3.506-1.573-3.506-3.505v-21.999c0-1.933 1.573-3.506 3.506-3.506h177.222c1.933 0 3.506 1.573 3.506 3.506v21.999zm294.261 77.763h-3.255v-225.499c0-15.233-12.604-27.627-28.096-27.627-4.727 0-9.182 1.159-13.096 3.195v-24.526c0-15.233-12.604-27.627-28.096-27.627-4.727 0-9.182 1.159-13.096 3.195v-8.208c0-15.233-12.604-27.626-28.096-27.626s-28.096 12.393-28.096 27.626v8.208c-3.913-2.037-8.369-3.196-13.096-3.196-15.492 0-28.096 12.394-28.096 27.627v119.812l-38.074-37.207c-10.737-10.493-28.208-10.494-38.944 0-10.121 9.891-10.957 25.552-1.944 36.43l27.172 32.795c2.644 3.19 7.371 3.632 10.561.99 3.189-2.643 3.633-7.371.99-10.561l-27.172-32.795c-3.987-4.812-3.61-11.747.876-16.132 4.873-4.761 13.105-4.76 17.977 0l44.02 43.017c3.318 3.242 8.222 4.174 12.5 2.375 4.275-1.8 7.038-5.96 7.038-10.599v-128.124c0-6.962 5.875-12.627 13.096-12.627s13.096 5.665 13.096 12.627v153.946c0 4.142 3.358 7.5 7.5 7.5s7.5-3.358 7.5-7.5v-186.585c0-6.962 5.875-12.626 13.096-12.626s13.096 5.664 13.096 12.626v186.585c0 4.142 3.358 7.5 7.5 7.5s7.5-3.358 7.5-7.5v-153.946c0-6.962 5.875-12.627 13.096-12.627s13.096 5.665 13.096 12.627v153.946c0 4.142 3.358 7.5 7.5 7.5s7.5-3.358 7.5-7.5v-104.988c0-6.962 5.875-12.627 13.096-12.627s13.096 5.665 13.096 12.627v225.499h-140.711v-38.374c0-10.461-3.704-20.693-10.43-28.811l-31.523-38.046c-2.644-3.19-7.371-3.632-10.561-.99-3.189 2.643-3.633 7.371-.99 10.561l31.523 38.046c4.502 5.433 6.981 12.266 6.981 19.241v38.374c-11.409-1.32-21.759 6.869-21.761 18.506v21.999c0 10.204 8.302 18.506 18.506 18.506h177.222c10.204 0 18.506-8.302 18.506-18.506v-21.999c-.001-10.205-8.303-18.507-18.507-18.507zm3.506 40.504c0 1.933-1.573 3.506-3.506 3.506h-177.222c-1.933 0-3.506-1.573-3.506-3.506v-21.999c0-1.933 1.573-3.506 3.506-3.506h177.222c1.933 0 3.506 1.573 3.506 3.506z"/></g></svg>