<svg id="Capa_1" enable-background="new 0 0 512 512" height="512" viewBox="0 0 512 512" width="512" xmlns="http://www.w3.org/2000/svg"><g><g><path d="m454.5 292.502h-397c-27.614 0-50-22.386-50-50v-119l15-30.167-15-30.167v-5.666c0-27.614 22.386-50 50-50h397c27.614 0 50 22.386 50 50v5.666l-15 29.97 15 30.365v119c0 27.613-22.386 49.999-50 49.999z" fill="#ffe179"/><path d="m454.5 7.502h-30c27.614 0 50 22.386 50 50v185c0 27.614-22.386 50-50 50h30c27.614 0 50-22.386 50-50v-185c0-27.614-22.386-50-50-50z" fill="#fbd268"/><path d="m321.281 292.502h-130.562v-79c0-16.569 13.431-30 30-30h70.561c16.569 0 30 13.431 30 30v79z" fill="#fbd268"/><path d="m388.087 357.621h-264.174c-16.569 0-30-13.431-30-30v-35.118h324.174v35.118c0 16.568-13.431 30-30 30z" fill="#fef0ae"/><path d="m388.087 292.502v35.118c0 16.569-13.431 30-30 30h30c16.569 0 30-13.431 30-30v-35.118z" fill="#fee97d"/><path d="m504.5 123.502h-497v-60.334h497l-15 26.75z" fill="#fef0ae"/><path d="m474.5 63.168h30v60.334h-30z" fill="#fee97d"/><circle cx="256" cy="238.002" fill="#ffe179" r="21.5"/></g><path d="m149.398 412.91c-4.143 0-7.5 3.357-7.5 7.5 0 26.22-6.803 52.153-19.673 74.996l-3.051 5.414c-2.033 3.608-.757 8.183 2.853 10.216 3.544 1.997 8.162.796 10.216-2.853l3.051-5.414c14.134-25.086 21.604-53.565 21.604-82.359 0-4.142-3.357-7.5-7.5-7.5zm106.602 0c-4.143 0-7.5 3.357-7.5 7.5v72.247c0 4.143 3.357 7.5 7.5 7.5s7.5-3.357 7.5-7.5v-72.247c0-4.142-3.357-7.5-7.5-7.5zm-59.223 0c-4.143 0-7.5 3.357-7.5 7.5v72.247c0 4.143 3.357 7.5 7.5 7.5s7.5-3.357 7.5-7.5v-72.247c0-4.142-3.357-7.5-7.5-7.5zm192.997 82.497c-12.87-22.843-19.673-48.776-19.673-74.996 0-4.143-3.357-7.5-7.5-7.5s-7.5 3.357-7.5 7.5c0 28.794 7.471 57.273 21.604 82.359l3.051 5.414c2.054 3.647 6.662 4.854 10.216 2.853 3.609-2.033 4.886-6.607 2.853-10.216zm64.726-495.405h-397c-31.706 0-57.5 25.794-57.5 57.5v121c0 4.143 3.357 7.5 7.5 7.5s7.5-3.357 7.5-7.5v-47.5h482v111.5c0 23.435-19.065 42.5-42.5 42.5h-125.72v-71.5c0-20.678-16.822-37.5-37.5-37.5h-70.56c-20.678 0-37.5 16.822-37.5 37.5v71.5h-125.72c-23.435 0-42.5-19.065-42.5-42.5v-29c0-4.143-3.357-7.5-7.5-7.5s-7.5 3.357-7.5 7.5v29c0 31.706 25.794 57.5 57.5 57.5h28.913v27.618c0 20.678 16.822 37.5 37.5 37.5h198.275c4.143 0 7.5-3.357 7.5-7.5s-3.357-7.5-7.5-7.5h-198.275c-12.406 0-22.5-10.094-22.5-22.5v-27.618h309.174v27.618c0 12.406-10.094 22.5-22.5 22.5h-30.898c-4.143 0-7.5 3.357-7.5 7.5s3.357 7.5 7.5 7.5h30.898c20.678 0 37.5-16.822 37.5-37.5v-27.618h28.913c31.706 0 57.5-25.794 57.5-57.5v-185c0-31.706-25.794-57.5-57.5-57.5zm-140.72 285h-115.56v-71.5c0-12.406 10.094-22.5 22.5-22.5h70.561c12.406 0 22.5 10.094 22.5 22.5v71.5zm-256.28-270h397c22.82 0 41.489 18.08 42.453 40.666h-481.906c.964-22.586 19.633-40.666 42.453-40.666zm439.5 101h-482v-45.334h482zm-181.777 296.908c-4.143 0-7.5 3.357-7.5 7.5v72.247c0 4.143 3.357 7.5 7.5 7.5s7.5-3.357 7.5-7.5v-72.247c0-4.142-3.358-7.5-7.5-7.5zm-59.223-203.908c-15.99 0-29 13.01-29 29s13.01 29 29 29 29-13.01 29-29-13.01-29-29-29zm0 43c-7.72 0-14-6.28-14-14s6.28-14 14-14 14 6.28 14 14-6.28 14-14 14z"/></g></svg>