<svg id="Capa_1" enable-background="new 0 0 512 512" height="512" viewBox="0 0 512 512" width="512" xmlns="http://www.w3.org/2000/svg"><g><g><g><g><path d="m391.693 306.477c26.854 0 48.623 21.769 48.623 48.623 0 26.854-21.769 48.623-48.623 48.623h-33.221v39.884h33.221c48.881 0 88.507-39.626 88.507-88.507 0-48.881-39.626-88.507-88.507-88.507h-33.221v39.884z" fill="#e5979d"/></g></g><g><path d="m358.472 266.593v39.884h33.221c5.627 0 11.026.967 16.053 2.725v-13.35c0-9.715-1.412-19.292-4.11-28.455-3.907-.527-7.892-.805-11.943-.805h-33.221z" fill="#e17f85"/></g><g><path d="m391.693 403.723h-33.221v39.884h33.221c5.482 0 10.847-.502 16.053-1.456v-41.153c-5.027 1.758-10.426 2.725-16.053 2.725z" fill="#e17f85"/></g><g><g><path d="m120.307 403.723c-26.854 0-48.623-21.769-48.623-48.623 0-26.854 21.769-48.623 48.623-48.623h33.221v-39.884h-33.221c-48.881 0-88.507 39.626-88.507 88.507 0 48.881 39.626 88.507 88.507 88.507h33.221v-39.884z" fill="#e5979d"/></g></g><g><path d="m104.254 309.203c5.027-1.758 10.426-2.725 16.053-2.725h33.221v-39.884h-33.221c-4.051 0-8.037.278-11.943.805-2.698 9.163-4.11 18.741-4.11 28.456z" fill="#e17f85"/></g><g><path d="m120.307 403.723c-5.627 0-11.026-.967-16.053-2.725v36.405c-32.741-12.985-55.894-44.939-55.894-82.303 0-48.881 39.626-88.507 88.507-88.507h-16.56c-48.881 0-88.507 39.626-88.507 88.507 0 48.881 39.626 88.507 88.507 88.507h33.221v-39.884z" fill="#e17f85"/></g><g><path d="m280.812 60.895 3.368-20.101c2.92-17.423-10.512-33.294-28.179-33.294-17.666 0-31.099 15.871-28.179 33.295l3.368 20.101c1.074 6.408-3.866 12.245-10.364 12.245h-6.783c-18.091 0-32.756 14.666-32.756 32.756v32.884h149.428v-32.884c0-18.091-14.666-32.756-32.756-32.756h-6.783c-6.497-.001-11.438-5.838-10.364-12.246z" fill="#ffdd40"/></g><g><path d="m232.329 73.14h6.783c6.497 0 11.437-5.837 10.364-12.245l-3.368-20.101c-2.389-14.255 6.171-27.465 19.037-31.8-2.86-.964-5.93-1.494-9.142-1.494-17.666 0-31.099 15.871-28.179 33.294l3.368 20.101c1.074 6.408-3.866 12.245-10.364 12.245h-6.783c-18.091 0-32.756 14.666-32.756 32.756v32.884h18.285v-32.884c-.002-18.09 14.664-32.756 32.755-32.756z" fill="#ffc043"/></g><g><path d="m382.746 306.48v-22.94c0-21.425-9.049-41.854-24.917-56.25l-27.884-25.298h-147.889l-27.884 25.298c-15.868 14.396-24.917 34.825-24.917 56.25v22.94z" fill="#b8f0ff"/></g><g><path d="m129.254 306.48v161.057c0 20.414 16.549 36.963 36.963 36.963h179.566c20.414 0 36.963-16.549 36.963-36.963v-161.057z" fill="#e9efff"/></g><g><path d="m152.774 467.537v-161.057h-23.52v161.057c0 20.414 16.549 36.963 36.963 36.963h23.52c-20.414 0-36.963-16.549-36.963-36.963z" fill="#d3dcfb"/></g><g><path d="m350.103 220.28-20.158-18.288h-147.889l-27.884 25.298c-15.868 14.396-24.917 34.825-24.917 56.25v22.94h23.52v-22.94c0-21.425 9.049-41.854 24.917-56.25 4.972-4.511 11.445-7.01 18.159-7.01z" fill="#8ddcff"/></g><g><path d="m359.35 142.06v49.932c0 5.523-4.477 10-10 10h-186.698c-5.523 0-10-4.477-10-10v-49.932c0-5.523 4.477-10 10-10h186.698c5.523 0 10 4.477 10 10z" fill="#42c3fc"/></g><g><path d="m176.172 191.992v-49.932c0-5.523 4.477-10 10-10h-23.52c-5.523 0-10 4.477-10 10v49.932c0 5.523 4.477 10 10 10h23.52c-5.523 0-10-4.477-10-10z" fill="#1aa9e8"/></g><g><circle cx="219.141" cy="422.302" fill="#d3dcfb" r="18.79"/></g><g><circle cx="286.821" cy="366.56" fill="#d3dcfb" r="23.16"/></g></g><g><path d="m469.241 298.489c-2.445-3.345-7.137-4.072-10.481-1.628-3.344 2.445-4.072 7.138-1.627 10.481 10.184 13.929 15.567 30.443 15.567 47.758 0 44.667-36.339 81.007-81.007 81.007h-1.447v-24.885h1.447c30.946 0 56.123-25.177 56.123-56.123s-25.177-56.122-56.123-56.122h-1.447v-15.437c0-3.168-.203-6.32-.563-9.446h2.011c15.367 0 30.318 4.319 43.238 12.49 3.502 2.215 8.134 1.171 10.347-2.33 2.214-3.5 1.171-8.133-2.33-10.348-15.321-9.69-33.045-14.812-51.255-14.812h-5.15c-4.154-13.501-11.684-25.909-22.004-35.8-2.99-2.865-7.738-2.766-10.604.226-2.866 2.99-2.766 7.738.225 10.604 13.4 12.842 21.085 30.854 21.085 49.416v15.44h-162.886c-4.142 0-7.5 3.357-7.5 7.5s3.358 7.5 7.5 7.5h162.886v31.659h-20.446c-4.142 0-7.5 3.357-7.5 7.5s3.358 7.5 7.5 7.5h20.446v31.391h-20.446c-4.142 0-7.5 3.357-7.5 7.5s3.358 7.5 7.5 7.5h20.446v31.39h-20.446c-4.142 0-7.5 3.357-7.5 7.5s3.358 7.5 7.5 7.5h20.446v14.117c0 16.246-13.217 29.463-29.463 29.463h-179.566c-16.246 0-29.463-13.217-29.463-29.463v-153.557h44.533c4.142 0 7.5-3.357 7.5-7.5s-3.358-7.5-7.5-7.5h-44.533v-15.44c0-19.271 8.185-37.748 22.457-50.695l25.74-23.353h23.532c4.142 0 7.5-3.357 7.5-7.5s-3.358-7.5-7.5-7.5h-45.831c-1.378 0-2.5-1.121-2.5-2.5v-49.932c0-1.379 1.122-2.5 2.5-2.5h23.209v22.16c0 4.143 3.358 7.5 7.5 7.5s7.5-3.357 7.5-7.5v-22.16h26.76v22.16c0 4.143 3.358 7.5 7.5 7.5s7.5-3.357 7.5-7.5v-22.16h26.76v22.16c0 4.143 3.358 7.5 7.5 7.5s7.5-3.357 7.5-7.5v-22.16h26.76v22.16c0 4.143 3.358 7.5 7.5 7.5s7.5-3.357 7.5-7.5v-22.16h23.209c1.378 0 2.5 1.121 2.5 2.5v49.933c0 1.379-1.122 2.5-2.5 2.5h-111.402c-4.142 0-7.5 3.357-7.5 7.5s3.358 7.5 7.5 7.5h111.402c9.649 0 17.5-7.851 17.5-17.5v-49.933c0-9.649-7.851-17.5-17.5-17.5h-11.135v-18.663c0-22.197-18.059-40.257-40.256-40.257h-6.783c-1.214 0-1.96-.667-2.296-1.064-.336-.398-.871-1.243-.67-2.44l3.369-20.101c1.757-10.484-1.174-21.151-8.042-29.266s-16.905-12.769-27.536-12.769-20.667 4.653-27.534 12.768-9.799 18.782-8.042 29.267l3.369 20.101c.201 1.197-.334 2.043-.67 2.44s-1.083 1.064-2.296 1.064h-6.783c-22.198 0-40.257 18.06-40.257 40.257v18.663h-11.135c-9.649 0-17.5 7.851-17.5 17.5v49.933c0 9.641 7.837 17.485 17.476 17.499l-13.497 12.244c-11.208 10.168-19.331 23.138-23.697 37.358h-5.127c-52.938 0-96.007 43.068-96.007 96.007s43.068 96.007 96.006 96.007h1.447v16.43c0 24.517 19.946 44.463 44.463 44.463h179.566c24.517 0 44.463-19.946 44.463-44.463v-16.43h1.447c52.938 0 96.007-43.069 96.007-96.008 0-20.519-6.383-40.094-18.459-56.611zm-280.454-192.593c0-13.927 11.33-25.257 25.257-25.257h6.783c5.307 0 10.317-2.323 13.746-6.374 3.428-4.051 4.892-9.376 4.015-14.609l-3.369-20.101c-1.026-6.125.686-12.356 4.698-17.097 4.012-4.74 9.875-7.459 16.084-7.459s12.073 2.719 16.084 7.459c4.012 4.74 5.724 10.972 4.698 17.097l-3.369 20.101c-.877 5.233.586 10.559 4.015 14.609 3.429 4.051 8.439 6.374 13.746 6.374h6.783c13.926 0 25.256 11.33 25.256 25.257v18.663h-134.427zm-67.033 290.327h-1.447c-22.675 0-41.123-18.447-41.123-41.122 0-22.676 18.448-41.123 41.123-41.123h1.447zm-1.447 39.884c-44.667 0-81.006-36.34-81.006-81.007s36.339-81.007 81.007-81.007h1.992c-.357 3.122-.545 6.275-.545 9.446v15.438h-1.447c-30.946 0-56.123 25.177-56.123 56.123s25.177 56.122 56.123 56.122h1.447v24.885zm271.386-122.129c22.675 0 41.123 18.447 41.123 41.123 0 22.675-18.448 41.122-41.123 41.122h-1.447v-82.245z"/><path d="m219.141 448.592c14.497 0 26.29-11.794 26.29-26.29s-11.793-26.289-26.29-26.289-26.29 11.793-26.29 26.289 11.794 26.29 26.29 26.29zm0-37.579c6.225 0 11.29 5.064 11.29 11.289 0 6.226-5.065 11.29-11.29 11.29s-11.29-5.064-11.29-11.29c0-6.225 5.065-11.289 11.29-11.289z"/><path d="m317.481 366.56c0-16.905-13.754-30.659-30.66-30.659s-30.66 13.754-30.66 30.659c0 16.906 13.754 30.66 30.66 30.66s30.66-13.754 30.66-30.66zm-46.32 0c0-8.635 7.025-15.659 15.66-15.659s15.66 7.024 15.66 15.659-7.025 15.66-15.66 15.66-15.66-7.026-15.66-15.66z"/></g></g></svg>