<svg id="Capa_1" enable-background="new 0 0 512 512" height="512" viewBox="0 0 512 512" width="512" xmlns="http://www.w3.org/2000/svg"><g><g><g><path d="m470.594 504.5h-210.918c-13.807 0-25-11.193-25-25v-223.538c0-13.807 11.193-25 25-25h210.919c13.807 0 25 11.193 25 25v223.538c-.001 13.807-11.194 25-25.001 25z" fill="#1c8ae5"/></g><g><path d="m259.676 230.961c-13.807 0-25 11.193-25 25v66.98 156.559c0 13.807 11.193 25 25 25h20.879c-13.807 0-25-11.193-25-25v-142.727c0-7.351 5.229-13.618 12.441-15.04 14.527-2.864 36.594-12.384 36.594-43.792v-46.98z" fill="#1e6ee2"/></g><g><path d="m177.565 336.292h-59.134c-5.523 0-10-4.477-10-10v-42.56h79.134v42.56c0 5.523-4.477 10-10 10z" fill="#bac5e2"/></g><g><path d="m127.151 326.292v-42.56h-18.72v42.56c0 5.523 4.477 10 10 10h18.72c-5.523 0-10-4.477-10-10z" fill="#a7b4d1"/></g><g><path d="m259.59 297.941h-223.185c-11.046 0-20-8.954-20-20v-250.441c0-11.046 8.954-20 20-20h223.185c11.046 0 20 8.954 20 20v250.441c0 11.046-8.954 20-20 20z" fill="#e9efff"/></g><g><path d="m35.206 277.941v-250.441c0-11.046 8.954-20 20-20h-18.8c-11.046 0-20 8.954-20 20v250.441c0 11.046 8.954 20 20 20h18.8c-11.046 0-20-8.954-20-20z" fill="#d3dcfb"/></g><g><path d="m179.398 263.634h-62.8c-5.523 0-10-4.477-10-10v-14.56c0-5.523 4.477-10 10-10h62.8c5.523 0 10 4.477 10 10v14.56c0 5.523-4.477 10-10 10z" fill="#bac5e2"/></g><g><path d="m125.318 253.634v-14.56c0-5.523 4.477-10 10-10h-18.72c-5.523 0-10 4.477-10 10v14.56c0 5.523 4.477 10 10 10h18.72c-5.523 0-10-4.478-10-10z" fill="#a7b4d1"/></g><g><path d="m238.108 197.754h-180.221c-3.314 0-6-2.686-6-6v-143.947c0-3.314 2.686-6 6-6h180.221c3.314 0 6 2.686 6 6v143.946c0 3.314-2.686 6.001-6 6.001z" fill="#42c3fc"/></g><g><path d="m70.687 191.754v-143.947c0-3.314 2.686-6 6-6h-18.8c-3.314 0-6 2.686-6 6v143.946c0 3.314 2.686 6 6 6h18.8c-3.313.001-6-2.686-6-5.999z" fill="#1aa9e8"/></g><g><path d="m121.291 77.21-1.077.737c-1.314.9-3.047.896-4.357-.01l-.949-.656c-8.26-5.71-19.544-3.954-25.678 3.997l-.023.03c-5.226 6.774-5.241 16.216-.038 23.008l20.734 27.062c4.099 5.35 12.158 5.35 16.257 0l20.774-27.113c5.185-6.767 5.19-16.17.012-22.942-6.096-7.977-17.37-9.784-25.655-4.113z" fill="#e5979d"/></g><g><path d="m369.14 165.269c28.498 0 51.6-23.102 51.6-51.6v-54.568c0-28.498-23.102-51.6-51.6-51.6-28.498 0-51.6 23.102-51.6 51.6v54.568c0 28.497 23.102 51.6 51.6 51.6z" fill="#bac5e2"/></g><g><path d="m336.26 113.668v-54.568c0-25.3 18.213-46.332 42.24-50.738-3.037-.557-6.162-.863-9.36-.863-28.498 0-51.6 23.102-51.6 51.6v54.568c0 28.498 23.102 51.6 51.6 51.6 3.198 0 6.323-.306 9.36-.863-24.026-4.404-42.24-25.436-42.24-50.736z" fill="#a7b4d1"/></g><g><path d="m398.118 156.366h-57.955v29.407c0 3.314 2.686 6 6 6h45.955c3.314 0 6-2.686 6-6z" fill="#e5979d"/></g><g><path d="m358.884 185.773v-29.407h-18.72v29.407c0 3.314 2.686 6 6 6h18.72c-3.314 0-6-2.686-6-6z" fill="#e17f85"/></g></g><g><path d="m470.594 223.462h-93.954v-24.188h15.479c7.444 0 13.5-6.056 13.5-13.5v-25.649c13.764-10.829 22.622-27.625 22.622-46.457v-54.567c0-32.588-26.513-59.101-59.101-59.101-15.786 0-30.628 6.147-41.79 17.311-11.163 11.162-17.311 26.004-17.31 41.79v54.567c0 18.83 8.861 35.618 22.623 46.445v25.66c0 7.444 6.056 13.5 13.5 13.5h15.477v24.188h-47.485c-4.143 0-7.5 3.357-7.5 7.5s3.357 7.5 7.5 7.5h156.439c9.649 0 17.5 7.851 17.5 17.5v223.539c0 9.649-7.851 17.5-17.5 17.5h-210.919c-9.649 0-17.5-7.851-17.5-17.5v-151.55c0-4.143-3.357-7.5-7.5-7.5s-7.5 3.357-7.5 7.5v72.061h-41.349c-15.163 0-27.5-12.337-27.5-27.5v-28.719h19.238c9.649 0 17.5-7.851 17.5-17.5v-20.851h64.525c15.163 0 27.5-12.336 27.5-27.5v-250.441c0-15.164-12.337-27.5-27.5-27.5h-223.183c-15.163 0-27.5 12.336-27.5 27.5v77.149c0 4.143 3.357 7.5 7.5 7.5s7.5-3.357 7.5-7.5v-77.149c0-6.893 5.607-12.5 12.5-12.5h223.184c6.893 0 12.5 5.607 12.5 12.5v250.441c0 6.893-5.607 12.5-12.5 12.5h-223.184c-6.893 0-12.5-5.607-12.5-12.5v-142.551c0-4.143-3.357-7.5-7.5-7.5s-7.5 3.357-7.5 7.5v142.552c0 15.164 12.337 27.5 27.5 27.5h64.524v20.851c0 9.649 7.851 17.5 17.5 17.5h24.896v28.719c0 23.435 19.065 42.5 42.5 42.5h41.349v64.488c0 17.921 14.579 32.5 32.5 32.5h210.919c17.921 0 32.5-14.579 32.5-32.5v-223.538c0-17.921-14.579-32.5-32.5-32.5zm-145.553-109.794v-54.567c0-11.779 4.587-22.854 12.916-31.184s19.404-12.917 31.183-12.917c24.317 0 44.101 19.783 44.101 44.101v54.567c0 14.369-6.915 27.144-17.585 35.198h-53.029c-10.67-8.055-17.586-20.829-17.586-35.198zm22.623 50.198h42.955v20.407h-42.955zm-231.734 162.426v-20.851h64.135v20.851c0 1.379-1.121 2.5-2.5 2.5h-59.135c-1.379 0-2.5-1.121-2.5-2.5z"/><path d="m251.608 191.754v-143.946c0-7.444-6.056-13.5-13.5-13.5h-180.221c-7.444 0-13.5 6.056-13.5 13.5v143.946c0 7.444 6.056 13.5 13.5 13.5h180.221c7.444 0 13.5-6.056 13.5-13.5zm-15-1.5h-177.221v-140.946h177.221z"/><path d="m116.598 221.573c-9.649 0-17.5 7.851-17.5 17.5v14.561c0 9.649 7.851 17.5 17.5 17.5h62.8c9.649 0 17.5-7.851 17.5-17.5v-14.561c0-9.649-7.851-17.5-17.5-17.5zm65.3 17.5v14.561c0 1.379-1.121 2.5-2.5 2.5h-62.8c-1.379 0-2.5-1.121-2.5-2.5v-14.561c0-1.379 1.121-2.5 2.5-2.5h62.8c1.379 0 2.5 1.121 2.5 2.5z"/><path d="m103.951 135.939c3.384 4.417 8.517 6.951 14.081 6.951 5.565 0 10.698-2.534 14.082-6.951l20.775-27.113c7.228-9.435 7.234-22.618.016-32.06-8.281-10.833-23.387-13.521-34.858-6.393-11.425-7.077-26.457-4.434-34.777 6.354-7.291 9.452-7.313 22.673-.053 32.15zm-8.782-50.08c2.234-2.896 5.601-4.43 9.014-4.43 2.234 0 4.488.657 6.457 2.019l.954.66c3.84 2.653 9.007 2.662 12.856.028l1.077-.737c0-.001 0-.001 0-.001 4.994-3.416 11.785-2.33 15.461 2.479 3.112 4.071 3.109 9.757-.007 13.825l-20.774 27.113c-.716.935-1.67 1.074-2.176 1.074-.505 0-1.459-.14-2.175-1.074l-20.732-27.059c-3.132-4.088-3.123-9.79.045-13.897z"/><path d="m166.798 142.89h43.92c4.143 0 7.5-3.357 7.5-7.5s-3.357-7.5-7.5-7.5h-43.92c-4.143 0-7.5 3.357-7.5 7.5s3.358 7.5 7.5 7.5z"/><path d="m85.278 173.151h125.44c4.143 0 7.5-3.357 7.5-7.5s-3.357-7.5-7.5-7.5h-125.44c-4.143 0-7.5 3.357-7.5 7.5s3.357 7.5 7.5 7.5z"/><path d="m177.289 112.628h33.43c4.143 0 7.5-3.357 7.5-7.5s-3.357-7.5-7.5-7.5h-33.43c-4.143 0-7.5 3.357-7.5 7.5s3.357 7.5 7.5 7.5z"/><path d="m432.234 288.667c4.143 0 7.5-3.357 7.5-7.5v-14.007c0-4.143-3.357-7.5-7.5-7.5s-7.5 3.357-7.5 7.5v14.007c0 4.143 3.357 7.5 7.5 7.5z"/><path d="m424.734 327.95c0 4.143 3.357 7.5 7.5 7.5s7.5-3.357 7.5-7.5v-14.007c0-4.143-3.357-7.5-7.5-7.5s-7.5 3.357-7.5 7.5z"/><path d="m424.734 374.734c0 4.143 3.357 7.5 7.5 7.5s7.5-3.357 7.5-7.5v-14.007c0-4.143-3.357-7.5-7.5-7.5s-7.5 3.357-7.5 7.5z"/><path d="m424.734 421.518c0 4.143 3.357 7.5 7.5 7.5s7.5-3.357 7.5-7.5v-14.007c0-4.143-3.357-7.5-7.5-7.5s-7.5 3.357-7.5 7.5z"/><path d="m424.734 468.302c0 4.143 3.357 7.5 7.5 7.5s7.5-3.357 7.5-7.5v-14.007c0-4.143-3.357-7.5-7.5-7.5s-7.5 3.357-7.5 7.5z"/></g></g></svg>