<svg id="Capa_1" enable-background="new 0 0 512 512" height="512" viewBox="0 0 512 512" width="512" xmlns="http://www.w3.org/2000/svg"><g><g><g><g><path d="m453.666 45.762 1.695-.256c7.843.28 15.149 5.729 15.666 15.818l.055 6.825c.115 8.729 3.525 18.193 10.854 22.936 5.934 3.84 13.106 1.025 13.106-6.043l.452-.584v-40.435c0-17.449-17.407-29.541-33.759-23.452l-3.106 1.157-10.268 6.208z" fill="#b57f5f"/><path d="m491.731 83.092c-7.329-4.743-11.8-12.836-11.915-21.565l-.132-10.014c-.082-6.213-5.228-11.749-11.261-13.925-3.179-1.147-5.73-3.57-6.791-6.779l-3.003-9.082-11.959 4.453 7.421 21.009 1.403-.19c7.843.28 14.086 6.666 14.19 14.513l.132 10.014c.115 8.729 4.586 16.822 11.915 21.565 5.934 3.84 13.763-.419 13.763-7.487v-1.147c-1.278-.155-2.559-.586-3.763-1.365z" fill="#9f6e50"/></g><g><path d="m386.319 33.5c8.17-24.968 32.532-25.564 32.532-25.564l6.143.374c17.395 3.803 30.5 20.574 30.5 40.69 0 10.872-3.828 20.768-10.093 28.168z" fill="#b57f5f"/><path d="m397.234 33.5c4.719-12.791 15.105-22.422 27.761-25.19-2.425-.53-4.932-.81-7.5-.81-15.969 0-29.638 10.758-35.261 26l6.085 3.117c1.82-2.15 8.915-3.117 8.915-3.117z" fill="#9f6e50"/></g><path d="m433.995 73.5v51h-30v-49z" fill="#f2bb88"/><path d="m444.447 75.574-19.014-30.867c-4.313-6.968-11.925-11.208-20.12-11.208h-22.819-.261c-1.767 4.789-2.739 10.02-2.739 15.5 0 40.5 9 41.5 38 41.5 11.031 0 20.965-5.133 27.907-13.332z" fill="#f2d1a5"/></g><g><path d="m313.681 197.043c-19.882 0-34.277-16.139-34.277-36.021l.09-1.021c0-2.761 2.239-5 5-5l7-2h53c2.761 0 5 2.239 5 5v6c0 8.288-2.804 15.918-7.51 22.003-6.584 8.512-16.708 11.039-28.303 11.039z" fill="#857e87"/><path d="m291.495 153h-9c-2.761 0-5 2.239-5 5v6c0 19.882 16.118 36 36 36 11.595 0 21.906-5.484 28.49-13.997l-17.49-.003c-18.226 0-33-14.774-33-33z" fill="#6f6571"/></g><g><path d="m431.187 460.5-4.208 11.372-36.19-.635-4.918-195.737h62c9.551 12.675 13.293 28.798 10.302 44.384z" fill="#f8f7f7"/><path d="m401.626 450.751-4.112-163.664-14.643-11.587 5 199 2.831 3.734h34.872l2.926-3.734 2.687-14h-19.564c-5.425 0-9.861-4.326-9.997-9.749z" fill="#e8e8e8"/></g><g><path d="m423.277 502.883-62.873.117c-1.657 0-3-3-3-3 0-16.064 15.038-23.56 15.038-23.56 3.109-1.249 6.503-1.94 10.058-1.94h46v15l-2.223 10.383c0 1.657-1.344 3-3 3z" fill="#bde4ff"/><path d="m375.979 489.5c-2.521 0-5.872-1.479-5.285-6.193 0 0 .499-3.758 1.749-6.867-9.929 3.989-16.942 13.704-16.942 25.06 0 1.657 1.343 3 3 3h67c1.657 0 3-1.343 3-3v-12z" fill="#99dbff"/></g><g><path d="m460.915 287.511-85.191.043v-115.618c0-10.819 2.359-22.661 9.702-30.606l13.64-15.497 4.929-5.333h30l10.782 10.605c12.614 12.407 19.718 29.36 19.718 47.053v97.342z" fill="#bde4ff"/><path d="m398.495 275.5c-5.523 0-10-4.477-10-10v-110.172c0-10.819 3.228-21.55 10.571-29.495l-14.149 15.309c-7.343 7.945-11.422 18.367-11.422 29.186v115.172c0 2.761 2.239 5 5 5h81c2.761 0 5-2.239 5-5v-10z" fill="#99dbff"/></g><g><path d="m353.766 225.383-42.72.617c-12.804 0-23.356-8.317-26.131-20.277-.727-3.132 1.872-3.234 1.872-3.234l8.058-2.489h52.65z" fill="#f2d1a5"/><path d="m318.495 214c-10.195 0-19.055-5.66-23.65-14h-7.772c-3.215 0-5.607 2.995-4.88 6.128 2.775 11.96 13.498 20.872 26.302 20.872h42v-13z" fill="#f2bb88"/></g><g><g><path d="m403.426 235.787h-47.234c-2.761 0-5-2.239-5-5l-.617-25.66 10.92-5.127h34.182c1.652 0 5.067-.954 5.073-2.607l.058-51.245c.045-8.929 4.02-22.208 12.11-24.738 1.918-.6 3.959-.922 6.076-.911 11.046.056 19.955 9.055 19.899 20.1l-.345 68.555c-.031 6.222-1.897 12.006-5.079 16.846-5.54 8.435-19.205 9.787-30.043 9.787z" fill="#f8f7f7"/></g><g fill="#e8e8e8"><path d="m412.64 189.046.278-67.635c-8.089 2.53-13.979 10.06-14.024 18.989l-.217 56.612c-.002.218-.032 1.229-.838 2.067-.863.898-1.966.92-2.162.921h5.964c6.057 0 10.974-4.897 10.999-10.954z"/><path d="m361.495 211v-11h-14v35c0 2.761 2.239 5 5 5h55.055c10.838 0 20.379-5.566 25.921-13.998l-56.976-.002c-8.285 0-15-6.715-15-15z"/></g></g><g><g><path d="m137.505 208.5-34 7v-51h34z" fill="#f2bb88"/><ellipse cx="119.005" cy="128.191" fill="#f2d1a5" rx="45.5" ry="49.691"/><g><path d="m95.005 135h-20c-8.837 0-14.175-4.901-14.175-13.738 0-10.092 10.173-15.747 10.173-15.747 1.28-.33 2.619-.515 4.002-.515h20c8.837 0 16 7.163 16 16 0 .678-.049 1.345-.131 2.001 0 0-4.289 11.999-15.869 11.999z" fill="#e8e8e8"/><path d="m71.005 110-.002-4.485c-6.897 1.779-11.998 8.032-11.998 15.485 0 8.837 7.163 16 16 16h20c8.158 0 14.883-6.109 15.869-13.999l-26.869-.001c-7.179 0-13-5.82-13-13z" fill="#d8d8d8"/></g></g><g><path d="m90.447 295.17-35.941 21.957v-69.627c0-7.947 4.182-18.451 11.999-18.967.331-.022.664-.033 1.001-.033 8.837 0 16 7.163 16 16z" fill="#6f6571"/><path d="m66.505 320.5-.001-91.967c-7.816.517-13.999 7.02-13.999 14.967v77.032z" fill="#635a63"/></g><g><path d="m224.915 470.234 66.59-.734c0-4.312 1.987-8.386.19-12.001-4.419-8.889-13.589-14.999-24.189-14.999h-6l-19.761-4-17.17 1.691z" fill="#f8f7f7"/><path d="m238.505 442.5-5.574-4-11.426 4v30l3.06 3.168 69.94-.168v-6c0-4.312-1.013-8.386-2.811-12.001l-38.189.001c-8.284 0-15-6.716-15-15z" fill="#e8e8e8"/></g><g><path d="m262.798 427.5-41.293 3.84-13.335-95.426 16.934-9.415h19.153c14.654 0 26.166 12.547 24.908 27.147z" fill="#c38c66"/><path d="m262.798 427.5c-9.59 0-17.174-8.26-16.193-17.8.429-4.175.65-8.411.65-12.7 0-25.962-6.042-50.635-19.75-70.5l-2.692-1.591-22.046-2.661 2.738 39.316v70.874 10.062h33.075 22.925z" fill="#b57f5f"/></g><circle cx="124.005" cy="397" fill="#f8f7f7" r="77.5"/><g><path d="m124.005 289.5c-25.051 0-48.038 8.65-66.379 22.936-37.121 28.914-37.121 65.458-37.121 84.564 0 59.371 44.129 103.5 103.5 103.5 48.058 0 78.381-29.934 78.381-29.934 18.056-19.231 29.119-45.106 29.119-73.566 0-59.371-48.129-107.5-107.5-107.5zm0 185c-42.802 0-77.5-34.698-77.5-77.5s34.698-77.5 77.5-77.5 77.5 34.698 77.5 77.5-34.698 77.5-77.5 77.5z" fill="#857e87"/><g><path d="m136.005 493.5c-59.371 0-107.5-48.129-107.5-107.5 0-23.312 5.211-46.269 18.852-64.475-19.223 19.121-30.852 46.141-30.852 75.475 0 59.371 48.129 107.5 107.5 107.5 30.91 0 58.771-13.048 78.381-33.934-18.277 14.367-41.329 22.934-66.381 22.934z" fill="#6f6571"/></g></g><g><path d="m149.505 397c0-14.083-11.417-25.5-25.5-25.5-3.942 0-7.675.895-11.007 2.492-8.572 4.109-11.493 12.867-11.493 23.008 0 14.083 8.417 22.5 22.5 22.5 10.141 0 18.899-2.92 23.008-11.493 1.597-3.332 2.492-7.065 2.492-11.007z" fill="#857e87"/><path d="m136.005 410.5c-14.083 0-25.5-11.417-25.5-25.5 0-3.942.895-7.675 2.493-11.008-8.572 4.109-14.493 12.867-14.493 23.008 0 14.083 11.417 25.5 25.5 25.5 10.141 0 18.899-5.92 23.008-14.493-3.332 1.598-7.065 2.493-11.008 2.493z" fill="#6f6571"/></g><g><path d="m174.505 323.5v-25l15-3h7c11.679 0 21.846 6.459 27.132 15.999l.868 12.001z" fill="#f2d1a5"/><path d="m189.505 295.5h-20v31h58c0-5.442-1.405-10.556-3.868-15.001l-18.132.001c-8.836 0-16-7.163-16-16z" fill="#f2bb88"/></g><g><path d="m163.505 291.5h-76v-43c0-15.738 3.41-30.557 16-40h34c16.612 15.973 26 38.024 26 61.069z" fill="#afefa5"/><g><g><path d="m116.499 323.5 54.799-.585 3.216-11.415v-18.833c0-2.761-2.239-5-5-5h-42.902c-1.651 0-2.992-1.334-3-2.985l-.283-56.366c-.055-10.999-9.017-19.872-20.016-19.816-1.664.008-3.276.232-4.819.624-8.657 2.2-12.044 17.056-11.997 26.392l.002 57.984c.001 16.569 13.432 30 30 30z" fill="#8ce1a4"/></g><path d="m123.499 311.5c-13.807 0-25-11.193-25-24.999l-.005-77.376c-8.656 2.201-15.044 10.058-14.997 19.392l.002 67.984c0 16.568 13.432 29.999 30 29.999h61.015v-15z" fill="#7ad396"/></g></g><g><path d="m291.468 494.66-61.894-.16c-2.761 0-5-2.239-5-5v-13.057l9.931-3.943h62.5c6.904 0 12.5 5.596 12.5 12.5 0 .168-.011.334-.018.5-.262 6.672-11.283 9.16-18.019 9.16z" fill="#857e87"/><path d="m239.505 485.5c-2.761 0-5-2.239-5-5v-8h-13v20c0 2.761 2.239 5 5 5h70.5c6.735 0 12.218-5.33 12.482-12z" fill="#6f6571"/></g></g></g><g><path d="m489.026 17.312c-8.747-6.077-19.93-7.485-29.907-3.769l-7.688 2.863c-8.339-10.058-20.46-16.406-33.936-16.406-25.089 0-45.5 21.981-45.5 49 0 19.159 1.802 33.549 10.595 41.5 3.837 3.47 8.547 5.323 13.905 6.325v20.74l-17.087 18.486c-8.649 9.359-13.413 21.533-13.413 34.277v22.172c-1.718 0-17.548 0-19.678 0 6.643-7.64 10.678-17.604 10.678-28.5v-11c0-4.143-3.357-7.5-7.5-7.5h-49.682l-15.832-27.266c-2.081-3.582-6.671-4.798-10.252-2.721-3.582 2.08-4.8 6.67-2.721 10.252l11.459 19.734h-4.972c-4.143 0-7.5 3.357-7.5 7.5v11c0 10.915 4.05 20.896 10.714 28.542-3.773.393-6.714 3.581-6.714 7.458 0 19.023 15.477 34.5 34.5 34.5h31.5v5.5c0 4.143 3.357 7.5 7.5 7.5h18.5v43c0 4.143 3.357 7.5 7.5 7.5h2.438l2.038 81.125c.103 4.077 3.439 7.312 7.494 7.312.063 0 .128-.001.192-.002 4.141-.104 7.413-3.546 7.31-7.687l-2.028-80.747h59.383c1.597 6.696 1.788 13.683.486 20.47l-28.505 148.53h-27.118l-1.338-53.272c-.103-4.077-3.439-7.312-7.494-7.312-.063 0-.128.001-.192.002-4.141.104-7.413 3.546-7.31 7.687l1.331 52.982c-17.946 1.197-32.182 16.169-32.182 34.413 0 5.79 4.71 10.5 10.5 10.5h67c5.79 0 10.5-4.71 10.5-10.5v-26.288l29.539-153.915c1.485-7.739 1.504-15.681.103-23.394 3.597-.553 6.353-3.652 6.353-7.403v-42c0-4.143-3.357-7.5-7.5-7.5s-7.5 3.357-7.5 7.5v34.5h-76v-35.5h26.555c21.172 0 37.842-16.826 37.95-38.344v-65.788c7.376 10.007 11.495 22.274 11.495 34.79v35.342c0 4.143 3.357 7.5 7.5 7.5s7.5-3.357 7.5-7.5v-35.342c0-19.574-8.004-38.673-21.959-52.399l-8.541-8.402v-26.754c10.197-6.847 17.701-17.916 20.398-30.92.397.038.391 11.364.424 11.944.147 11.264 5.882 21.643 15.339 27.764 2.709 1.753 5.811 2.636 8.92 2.636 2.693 0 5.393-.663 7.847-1.997 5.287-2.877 8.572-8.403 8.572-14.423v-41.584c0-10.649-5.222-20.635-13.969-26.711zm-125.502 479.688c2.036-8.591 9.771-15 18.976-15h38.5v15zm53.971-482c16.817 0 30.5 15.252 30.5 34 0 4.876-.933 9.512-2.598 13.708l-13.587-21.947c-5.722-9.243-15.627-14.761-26.497-14.761h-10.256c5.578-6.757 13.571-11 22.438-11zm-30.5 34c0-2.756.303-5.433.861-8h17.458c5.638 0 10.774 2.862 13.742 7.656l16.934 27.354c-5.135 4.38-11.545 6.99-18.495 6.99-12.964 0-21.105-.244-24.845-3.625-3.911-3.537-5.655-12.905-5.655-30.375zm-6 121.328c-.113-8.462 3.87-18.678 10.505-25.26v47.432h-10.505zm-39-6.328c0 15.715-12.785 28.5-28.5 28.5s-28.5-12.785-28.5-28.5v-3.5h57zm-33.5 55.5c-8.097 0-15.056-4.959-18-12h49.5v12zm122.005-10.382c-.066 13.111-10.146 23.382-22.95 23.382h-52.555v-25h44.005c4.143 0 7.5-3.357 7.5-7.5v-59.562c.034-6.872 5.589-12.438 12.395-12.438h.062c6.616.033 11.579 5.435 11.543 12.601zm-4.005-96.118c-3.718 0-10.987 0-15 0v-15.025c1.958.022 3.956.025 6 .025 3.081 0 6.09-.335 9-.967zm61.5-27.395c0 .56-.249.979-.74 1.246-.492.269-.978.249-1.448-.056-5.235-3.388-8.409-9.132-8.491-15.367l-.132-10.015c-.126-9.559-6.265-17.656-14.846-20.664-.621-3.925-1.672-7.692-3.107-11.242l5.124-1.908c5.456-2.03 11.331-1.294 16.115 2.031 4.783 3.322 7.526 8.568 7.526 14.393v41.582z"/><path d="m301.778 465.6c-1.864-16.485-15.388-29.482-32.105-30.525l6.964-80.783c.779-9.047-2.294-18.073-8.433-24.764-6.138-6.691-14.866-10.528-23.946-10.528h-9.992c-3.5-17.65-19.099-31-37.761-31h-14.491c.14-3.275-2.674-7.548-7.5-7.833h-3.509v-10.598c0-23.865-9.442-47.064-26-64.171v-21.62c5.71-1.202 10.719-3.302 14.802-6.994 8.778-7.938 12.198-21.562 12.198-48.594 0-31.535-23.775-57.19-53-57.19-18.274 0-35.054 10.057-44.74 26.519-12.616.393-22.76 10.771-22.76 23.481 0 10.483 6.9 19.382 16.396 22.4 4.12 16.22 14.57 29.293 28.104 36.324v22.292c-8.376 2.216-17.47 10.426-19.437 20.804-2.791-1.171-5.852-1.82-9.063-1.82-12.406 0-22.5 10.094-22.5 22.5v69.833c-22.6 21.291-36 51.257-36 83.667 0 10.466 1.407 20.839 4.183 30.832.987 3.345 4.551 6.543 9.233 5.22 3.991-1.108 6.328-5.242 5.22-9.233-2.412-8.687-3.636-17.709-3.636-26.818 0-37.729 20.882-71.644 53.89-88.751 1.605 4.85 4.172 9.263 7.478 13.013-28.177 14.332-46.368 43.353-46.368 75.737 0 46.869 38.131 85 85 85s85-38.131 85-85c0-24.293-10.501-47.111-27.989-63h20.646c9.224 11.365 15.914 24.735 19.414 38.869.79 2.817 4.487 6.661 9.084 5.477 4.021-.996 6.473-5.062 5.477-9.084-3.094-12.492-8.359-24.458-15.435-35.262h24.056c4.961 0 9.541 2.014 12.895 5.669s4.967 8.392 4.54 13.334l-7.069 81.997h-22.043c3.206-9.172 5.255-18.787 6.049-28.647.333-4.129-2.744-7.746-6.873-8.078-4.132-.335-7.746 2.745-8.078 6.873-4.15 51.505-47.932 91.852-99.674 91.852-33.202 0-64.166-16.43-82.828-43.949-2.324-3.43-6.989-4.326-10.416-1.998-3.429 2.324-4.323 6.988-1.998 10.416 21.456 31.641 57.06 50.531 95.242 50.531 29.086 0 56.845-10.884 78.163-30.646 4.293-3.979 8.241-8.249 11.837-12.76v28.906c0 4.143 3.357 7.5 7.5 7.5h75.5c11.028 0 20-8.972 20-20 0-9.381-6.5-17.251-15.227-19.4zm-105.273-162.6c10.337 0 19.136 6.708 22.273 16h-36.765v-16zm-17.795 137.598-26.493-26.494c1.785-2.933 3.115-6.168 3.917-9.604h37.463c-1.451 13.562-6.798 25.968-14.887 36.098zm-124.298-36.098h37.463c.858 3.678 2.332 7.12 4.309 10.214l-26.444 26.444c-8.339-10.229-13.85-22.848-15.328-36.658zm15.28-51.706 26.492 26.493c-1.977 3.094-3.45 6.536-4.309 10.214h-37.46c1.46-13.698 6.878-26.382 15.277-36.707zm43.807-18.794h3.506v30.754c-3.623.786-7.029 2.162-10.104 4.034l-26.554-26.555c5.719-4.555 12.216-8.255 19.327-10.885 4.281 1.704 8.943 2.652 13.825 2.652zm41.032 0c4.93 2.394 9.504 5.324 13.652 8.715l-26.463 26.465c-2.954-1.888-6.223-3.321-9.715-4.194v-30.986zm-30.526 81c-9.925 0-18-8.075-18-18s8.075-18 18-18 18 8.075 18 18-8.075 18-18 18zm-17.104 10.212c3.075 1.871 6.481 3.247 10.104 4.033v37.404c-13.757-1.372-26.343-6.755-36.597-14.944zm25.104 3.802c3.491-.873 6.76-2.306 9.714-4.193l26.443 26.444c-10.105 8.239-22.544 13.708-36.158 15.264v-37.515zm24.13-39.514c-.802-3.436-2.133-6.671-3.918-9.604l26.5-26.501c8.173 10.279 13.433 22.783 14.88 36.105zm-.13-109.333h-24.915l-.261-51.888c-.021-4.341-1.052-8.52-2.966-12.279h6.537c13.765 14.308 21.604 33.664 21.604 53.569v10.598zm-81-167.667h20c4.687 0 8.5 3.813 8.5 8.5s-3.813 8.5-8.5 8.5h-20c-4.687 0-8.5-3.813-8.5-8.5s3.813-8.5 8.5-8.5zm8.946 32h11.054c12.958 0 23.5-10.542 23.5-23.5s-10.542-23.5-23.5-23.5h-2.043c6.951-7.269 16.211-11.5 26.043-11.5 20.953 0 38 18.927 38 42.19 0 21.662-2.171 32.867-7.259 37.468-4.872 4.405-14.864 4.724-30.741 4.724-15.555 0-29.249-10.481-35.054-25.882zm35.054 40.882c3.797 0 7.469-.005 11-.105v15.723h-19v-16.281c2.616.429 5.285.663 8 .663zm-24.416 34.299c1.568-1.552 4.724-3.463 8.824-3.681 6.818 0 12.382 5.529 12.416 12.354l.298 59.351c.021 4.127 3.372 7.462 7.5 7.462h43.387c-.025.276 0 23.22-.009 23.833h-53.506c-12.406 0-22.499-10.093-22.5-22.499 0-11.731-.001-57.806-.002-68.022-.017-3.317 1.259-6.441 3.592-8.798zm-34.584 23.819c0-4.136 3.364-7.5 7.5-7.5 4.637 0 8.414 3.736 8.493 8.355l.001 48.121c-5.622 2.58-10.959 5.579-15.994 8.939zm207.5 206.5c9.204 0 16.939 6.409 18.976 15h-57.476v-15zm29.5 40h-68v-10h68c2.757 0 5 2.243 5 5s-2.243 5-5 5z"/></g></g></svg>