<svg id="Capa_1" enable-background="new 0 0 512.002 512.002" height="512" viewBox="0 0 512.002 512.002" width="512" xmlns="http://www.w3.org/2000/svg"><g><g><path d="m398.768 371.51-30.174 24.481c-23.19 36.23-65.588 60.44-111.798 60.44-46.22 0-90.104-24.531-113.284-60.771l-26.964-25.271 28.34-4.785 19.39-11.376.9 2.41c2.39 6.36 6.761 10.83 10.371 16.48 17.23 26.94 46.089 42.192 80.44 42.192 42.27 0 78.24-22.852 91.53-60.582l.18-.5 4.713 4.66 9.477.141z" fill="#e8e8e8"/><path d="m399.718 371.83-96.121 132.67h-95.197l-101.372-130.87c.37-.14.75-.27 1.13-.4l8.39-2.84 29.44 22.34c23.18 36.24 63.79 60.27 110.01 60.27 46.21 0 86.81-24.02 110-60.25l32.77-21.24z" fill="#f8f7f7"/><path d="m482.948 482.34v14.16c0 4.42-3.59 8-8 8h-131.351l56.122-132.67 4.12 1.4c45.97 15.56 78.01 57.97 79.08 106.49.019.87.029 1.75.029 2.62z" fill="#7bb1ff"/><path d="m168.4 504.5h-124.352l-4.364-1.243c-4.41 0-8-3.58-8-8v-14.16c0-.87.01-1.75.03-2.62 1.06-48.12 33.015-88.094 78.385-103.954z" fill="#7bb1ff"/><path d="m347.698 354.23-.18.5c-13.29 37.73-49.25 64.77-91.52 64.77-34.35 0-64.54-17.86-81.77-44.8-3.61-5.65-6.66-11.7-9.05-18.06l-.9-2.41 3.03-1.02h177.38z" fill="#e3a76f"/><path d="m114.978 386.75c-.374.139-1.522.492-3 1.04-39.71 13.88-66.99 50.96-67.9 92.27-.02.75-.03 1.52-.03 2.28v22.16h-7c-4.41 0-8-3.58-8-8v-14.16c0-.87.01-1.75.03-2.62 1.06-48.12 32.58-90.23 77.95-106.09z" fill="#62a5f4"/><path d="m407.733 209.968 4.652-9.871c15.933-33.811 10.871-74.015-13.545-102.315-5.558-6.442-11.332-11.445-16.942-13.545-4.125-1.544-6.666-5.595-6.499-9.996.017-.436.025-.879.025-1.328 0-29.399-35.409-54.268-84.143-62.511 0 0-23.001-2.175-35.283-2.175-65.381 0-115.428 25.671-115.428 66.131 0 .479.009.95.028 1.414.177 4.362-2.36 8.372-6.453 9.891-5.581 2.071-11.273 7.022-16.725 13.41-24.111 28.249-28.865 66.771-13.033 100.367 1.31 2.777 5.424 11.543 6.593 13.909l295.411-.929z" fill="#e8e8e8"/><path d="m292.338 10.59c-6.61-.65-13.41-.98-20.34-.98-65.38 0-119.43 25.66-119.43 67.28 0 .49.01.98.03 1.46.18 4.48-2.36 8.61-6.45 10.17-5.58 2.13-11.27 7.22-16.73 13.79-24.11 29.06-28.95 70.17-13.12 104.73l2.87 6.27-12.28.04c-1.138-2.298-5.556-11.72-6.59-13.91-15.83-33.6-10.99-73.56 13.12-101.81 5.46-6.39 11.15-11.34 16.73-13.41 4.09-1.52 6.63-5.53 6.45-9.89-.02-.47-.03-.94-.03-1.42 0-40.46 54.05-65.41 119.43-65.41 12.67 0 24.88 1.08 36.34 3.09z" fill="#d8d8d8"/><path d="m384.51 210.077h16.642c14.202 0 24.281 13.842 19.921 27.358l-4.769 14.782c-3.797 11.77-14.752 19.747-27.119 19.747h-6.202l-253.068.053h-6.202c-12.367 0-23.322-7.977-27.119-19.747l-4.769-14.782c-4.36-13.516 5.719-27.358 19.921-27.358h16.478z" fill="#d6995c"/><g fill="#d8d8d8"><path d="m174.503 362.744-10.225-8.513-47.73 16.16 14.43 10.95 32.965-11.158c1.039-.352 2.169-.262 3.141.247.958.502 2.71 1.362 6.344 2.991z"/><path d="m347.698 354.23-7.342 5.596-1.598 13.294c8.35-3.59 16.19-8.36 23.13-14.09z"/></g><path d="m347.698 354.23-.18.5c-2.28 6.48-5.23 12.64-8.76 18.4-8.108 3.515-16.681 5.924-25.338 7.047-.946.123-1.757.697-2.217 1.533-8.594 15.613-29.664 26.02-55.205 26.02-25.579 0-46.669-10.435-55.236-26.086-.459-.838-1.27-1.415-2.217-1.538-8.659-1.123-17.397-3.445-25.117-6.696-2.956-4.695-6.819-12.526-9.15-19.18l3.03-1.02h177.38z" fill="#d6995c"/><path d="m367.661 141.521c-9-22.765-35.99-32.919-57.566-21.356-15.346 8.224-32.084 10.893-54.097 10.893-21.324 0-40.696-4.336-55.029-11.401-21.518-10.607-47.735-.587-56.574 21.713-8.41 21.219-12.818 47.86-12.818 63.854l.208 11.27v71.226c0 17.039 5.57 33.609 15.861 47.184 7.377 9.742 16.819 17.478 27.47 22.779 10.357 5.266 23.556 8.138 34.635 8.202 1.034.006 1.885.773 1.999 1.801 1.376 12.464 16.789 22.599 36.748 24.658l7.5-3.123 7.5 3.123c19.95-2.058 35.359-12.187 36.746-24.643.115-1.03.971-1.797 2.007-1.795 23.487.036 48.142-12.146 62.101-31.002 5.141-6.788 9.114-14.324 11.789-22.29 2.675-7.975 4.073-16.38 4.073-24.895v-71.226l.206-11.27c.942-3.574-.276-32.128-12.759-63.702z" fill="#e3a76f"/><path d="m230.323 317.902 4.18 8.401c7.83 20.659 35.56 21.045 43.39.386l3.839-8.891c.107-.283.386-.643.441-.927.573-2.999-1.721-5.921-4.917-5.921h-42.516c-3.196 0-5.489 2.922-4.917 5.921.001 0 .393.748.5 1.031z" fill="#f8f7f7"/><path d="m282.168 316.87c-.05.28-.13.57-.24.85l-3.49 9.21c-7.83 20.66-37.05 20.66-44.88 0l-3.49-9.21c-.11-.28-.195-.569-.245-.849 11.6 15.41 40.745 15.409 52.345-.001z" fill="#e8e8e8"/><path d="m343.597 504.5 96.502-116.622c8.399-11.378.405-27.089-13.435-28.13l-24.205-1.821c-8.65-.651-16.937 3.526-21.619 10.829-36.323 56.652-77.243 135.744-77.243 135.744z" fill="#bde4ff"/><path d="m168.4 504.5-84.239-101.802-10.956-15.583c-8.399-11.378.197-25.629 14.037-26.67l22.294-1.486c8.65-.651 16.249 2.977 20.931 10.28 2.159 3.368 5.025 6.333 7.208 9.838 34.525 55.455 70.725 125.423 70.725 125.423z" fill="#bde4ff"/><path d="m137.668 379.08c-5.166 1.762-20.215 6.798-25.69 8.71-10.17 3.55-19.52 8.63-27.82 14.91l-9.59-11.6-2.67-3.22c-8.4-11.38-.41-27.09 13.43-28.13l24.21-1.82c7.54-.57 14.81 2.53 19.65 8.18.71.83 1.37 1.71 1.97 2.65 2.16 3.37 4.33 6.81 6.51 10.32z" fill="#99dbff"/><g fill="#f8f7f7"><path d="m319.308 504.5-4.55 7.5"/><path d="m190.898 512-4.55-7.5"/></g></g><g><path d="m224.454 308.848c-2.334 3.38-2.858 7.691-1.403 11.532 0 0 0 0 .001.001l3.491 9.211c4.682 12.354 16.244 20.336 29.455 20.336s24.773-7.983 29.456-20.336l3.491-9.212c1.455-3.841.931-8.152-1.403-11.532s-6.179-5.397-10.286-5.397h-42.516c-4.107-.001-7.952 2.017-10.286 5.397zm49.181 9.602-2.207 5.825c-2.978 7.854-9.923 10.653-15.43 10.653s-12.452-2.799-15.43-10.653l-2.207-5.825z"/><path d="m255.998 287c11.274 0 21.631-5.081 28.414-13.94 2.518-3.289 1.894-7.997-1.396-10.515-3.289-2.519-7.997-1.892-10.515 1.396-3.922 5.122-9.937 8.06-16.504 8.06s-12.582-2.938-16.504-8.06c-2.518-3.288-7.225-3.915-10.515-1.396-3.289 2.518-3.913 7.226-1.396 10.515 6.785 8.859 17.142 13.94 28.416 13.94z"/><path d="m304.305 244.594c4.143 0 7.5-3.358 7.5-7.5v-15c0-4.142-3.357-7.5-7.5-7.5s-7.5 3.358-7.5 7.5v15c0 4.142 3.357 7.5 7.5 7.5z"/><path d="m207.693 244.594c4.143 0 7.5-3.358 7.5-7.5v-15c0-4.142-3.357-7.5-7.5-7.5s-7.5 3.358-7.5 7.5v15c0 4.142 3.358 7.5 7.5 7.5z"/><path d="m329.539 209.798c2.785 0 5.46-1.558 6.755-4.231 1.807-3.728.249-8.214-3.479-10.02l-9.001-4.361c-12.058-5.841-25.905-5.885-37.997-.122-3.739 1.782-5.326 6.258-3.544 9.997s6.259 5.324 9.997 3.544c7.958-3.792 17.07-3.764 25.003.08l9.001 4.361c1.054.51 2.168.752 3.265.752z"/><path d="m188.182 191.186-9.001 4.361c-3.728 1.806-5.285 6.292-3.479 10.02 1.295 2.674 3.97 4.231 6.755 4.231 1.097 0 2.211-.242 3.265-.752l9.001-4.361c7.931-3.844 17.044-3.874 25.002-.081 3.735 1.779 8.214.196 9.997-3.544 1.782-3.739.195-8.215-3.544-9.997-12.091-5.763-25.941-5.719-37.996.123z"/><path d="m490.414 479.553c-.767-34.678-16.218-66.991-42.656-89.728 3.972-6.933 4.377-15.183.973-22.608-3.905-8.516-12.146-14.244-21.505-14.948l-24.205-1.821c-8.145-.611-16.039 2.022-22.144 7.095l-20.633-6.984c3.685-3.391 7.071-7.11 10.086-11.129 10.708-14.067 17.419-32.734 17.383-51.712v-8.254c15.496.738 30.897-9.663 35.729-24.944l4.769-14.783c2.822-8.751 1.337-18.033-4.075-25.465-1.96-2.692-4.313-4.961-6.95-6.77l1.983-4.208c17.299-36.707 11.548-80.046-14.65-110.412-7.021-8.137-13.56-13.262-19.991-15.669-1.04-.39-1.682-1.444-1.635-2.687.788-22.281-15.778-43.668-45.104-57.651-3.736-1.789-8.216-.209-10.003 3.527-1.789 3.736-.21 8.215 3.526 10.003 23.174 11.075 37.113 27.078 36.593 43.552-.293 7.696 4.275 14.65 11.365 17.304 2.721 1.019 7.34 3.827 13.892 11.42 22.331 25.883 27.214 62.866 12.439 94.219l-2.7 5.729-14.771-.053c.248-11.284-3.091-37.565-13.555-63.97-5.223-13.176-15.917-23.494-29.341-28.307-12.818-4.596-26.258-3.604-37.834 2.793-13.45 7.434-28.342 10.465-51.401 10.465-19.443 0-37.81-3.774-51.713-10.628-21.691-10.69-48.289-3.704-61.874 16.256-2.331 3.424-1.444 8.089 1.98 10.42 3.426 2.332 8.09 1.444 10.42-1.98 9.402-13.814 27.82-18.646 42.842-11.242 15.926 7.851 36.646 12.174 58.345 12.174 25.468 0 43.01-3.689 58.657-12.336 7.749-4.284 16.811-4.924 25.516-1.802 9.367 3.358 16.823 10.544 20.458 19.713 11.323 28.568 13.041 54.993 12.472 59.448-.784 7.639-.228 75.07-.387 84.137.024 14.259-4.774 30.161-14.36 42.683-11.918 15.884-30.787 26.114-50.507 27.751v-3.423c0-4.142-3.357-7.5-7.5-7.5s-7.5 3.358-7.5 7.5v11.137c0 8.06-11.729 16.927-29.349 18.936v-7.301c0-4.142-3.357-7.5-7.5-7.5s-7.5 3.358-7.5 7.5v7.302c-17.62-2.009-29.349-10.876-29.349-18.936v-11.136c0-4.142-3.357-7.5-7.5-7.5s-7.5 3.358-7.5 7.5v3.361c-8.901-.829-18.374-3.403-25.691-7.123-9.702-4.828-18.288-11.948-24.835-20.595-9.246-12.196-14.338-27.344-14.338-42.653-.026-7.146.121-78.357-.208-82.563.008-9.991 1.844-23.797 4.912-36.951.941-4.034-1.565-8.067-5.6-9.008-4.033-.941-8.066 1.566-9.008 5.6-3.07 13.158-4.993 27.056-5.267 37.833-3.713.034-10.952-.072-13.999.047l-3.032-6.434c-14.688-31.168-9.961-67.966 12.043-93.746 6.391-7.487 10.939-10.249 13.63-11.248 7.093-2.632 11.648-9.555 11.338-17.223-.847-34.359 46.458-58.946 111.903-59.027 15.254 0 30.058 1.603 43.998 4.765 4.039.912 8.057-1.616 8.974-5.656.916-4.04-1.616-8.057-5.655-8.973-15.029-3.408-30.948-5.136-47.317-5.136-56.567-.11-126.785 20.047-126.892 74.63.048 1.164-.583 2.191-1.568 2.557-6.43 2.386-12.913 7.48-19.82 15.572-25.824 30.256-31.399 73.386-14.202 109.878l2.287 4.854c-2.673 1.818-5.057 4.111-7.04 6.834-5.412 7.433-6.897 16.714-4.075 25.466l4.769 14.782c4.554 14.581 19.102 25.213 34.829 24.944v8.201c.01 23.271 9.841 46.48 27.475 62.839l-20.642 6.987c-6.105-5.071-13.998-7.703-22.144-7.096l-24.205 1.822c-9.359.704-17.6 6.432-21.505 14.948-3.404 7.424-2.999 15.674.973 22.607-26.437 22.738-41.889 55.059-42.656 89.736-.053.483-.023 24.294-.03 24.94 0 4.142 3.357 7.5 7.5 7.5s7.5-3.358 7.5-7.5c.021-7.385-.042-18.127.026-24.615.667-30.169 14.05-58.322 36.958-78.262l21.043 25.43c2.643 3.193 7.371 3.638 10.56.997 3.191-2.641 3.638-7.369.997-10.56l-28.312-34.214c-2.977-4.169-1.644-8.239-.924-9.808 1.654-3.609 5.017-5.943 8.994-6.242l24.205-1.821c5.886-.444 11.532 2.392 14.743 7.398 4.282 6.654 10.306 16.403 15.313 24.701 31.116 51.671 61.232 109.764 61.583 110.44 1.333 2.577 3.953 4.055 6.667 4.055 1.161 0 2.339-.27 3.44-.84 3.679-1.903 5.118-6.429 3.215-10.107-.242-.468-14.634-28.23-33.804-62.475 21.906 14.124 47.695 21.921 74.741 21.921s52.836-7.797 74.742-21.922c-19.17 34.245-33.562 62.007-33.805 62.476-1.903 3.679-.464 8.204 3.215 10.107 1.102.57 2.279.84 3.44.84 2.714 0 5.334-1.478 6.667-4.055.351-.676 30.457-58.752 61.574-110.427 4.355-7.209 10.207-16.758 15.321-24.714 3.211-5.007 8.854-7.841 14.743-7.398l24.205 1.821c3.978.299 7.34 2.632 8.994 6.242.72 1.569 2.053 5.639-.925 9.808l-96.353 116.442c-2.641 3.191-2.194 7.919.997 10.56 3.192 2.641 7.918 2.195 10.56-.997l89.084-107.658c22.91 19.94 36.291 48.086 36.959 78.255.047.018.019 24.119.026 24.622 0 4.142 3.357 7.5 7.5 7.5s7.5-3.358 7.5-7.5c-.02-8.263.052-17.278-.027-24.948zm-102.7-261.976h13.438c4.343 0 8.301 2.014 10.857 5.525 2.558 3.512 3.259 7.897 1.926 12.031l-4.769 14.782c-2.644 8.557-11.829 15.139-21.453 14.55v-46.888zm-263.429 46.941c-9.851.15-17.746-5.847-20.554-14.55l-4.769-14.782c-1.333-4.134-.632-8.519 1.926-12.031 2.557-3.512 6.515-5.525 10.858-5.525h12.538v46.888zm234.865 124.987c-22.826 35.077-61.309 55.995-103.152 55.995-41.849 0-80.331-20.921-103.157-56.004-3.989-6.621-7.995-13.139-11.959-19.422l19.113-6.47c2.456 5.567 5.322 11.082 7.906 15.123.002.004.004.008.007.012 19.33 30.219 52.261 48.26 88.09 48.26 6.329 0 12.669-.571 18.845-1.696 4.075-.743 6.776-4.648 6.034-8.723-.743-4.075-4.658-6.78-8.724-6.034-5.29.964-10.726 1.453-16.155 1.453-31.329.044-61.529-16.814-77.386-44.587 8.309 3.193 17.754 5.258 26.694 5.817 4.958 15.612 25.445 26.996 50.692 26.996 25.228 0 45.702-11.366 50.68-26.961 9.176-.499 18.237-2.536 26.767-5.919-7.523 12.955-18.241 23.961-31.213 31.804-3.544 2.143-4.681 6.754-2.537 10.298 1.409 2.332 3.886 3.621 6.425 3.621 1.321 0 2.66-.349 3.874-1.083 18.76-11.343 33.49-28.354 42.07-48.359l19.05 6.448c-3.965 6.286-7.973 12.807-11.964 19.431z"/><path d="m290.11 157.778c-22.316-6.376-45.908-6.376-68.225 0-3.982 1.138-6.289 5.289-5.151 9.271 1.139 3.983 5.287 6.292 9.272 5.151 19.619-5.605 40.363-5.605 59.982 0 .688.197 1.382.291 2.064.291 3.264 0 6.267-2.147 7.208-5.442 1.14-3.982-1.167-8.134-5.15-9.271z"/><path d="m295.627 286.852.241 1.317c1.894 10.326 5.967 19.784 11.78 27.353 1.478 1.923 3.703 2.932 5.954 2.932 1.594 0 3.201-.506 4.562-1.553 3.285-2.523 3.902-7.231 1.38-10.517-4.371-5.69-7.457-12.924-8.923-20.919l-.241-1.316c-.747-4.074-4.648-6.775-8.729-6.025-4.073.746-6.771 4.654-6.024 8.728z"/><path d="m193.831 316.901c1.361 1.046 2.969 1.553 4.562 1.553 2.251 0 4.477-1.009 5.954-2.932 5.813-7.569 9.887-17.027 11.78-27.354l.241-1.316c.747-4.074-1.951-7.982-6.025-8.729-4.067-.749-7.982 1.951-8.729 6.025l-.241 1.315c-1.466 7.996-4.552 15.23-8.923 20.92-2.521 3.287-1.904 7.995 1.381 10.518z"/><path d="m128.442 444.448c-2.642-3.191-7.37-3.637-10.56-.997-3.191 2.641-3.638 7.369-.997 10.56l45.735 55.271c1.483 1.792 3.624 2.719 5.782 2.719 1.685 0 3.379-.564 4.777-1.722 3.191-2.641 3.638-7.369.997-10.56z"/></g></g></svg>