<svg id="Capa_1" enable-background="new 0 0 512 512" height="512" viewBox="0 0 512 512" width="512" xmlns="http://www.w3.org/2000/svg"><g><g><path d="m435 414.5v30h-358l5.532-13.755-5.532-16.245z" fill="#857e87"/><path d="m435 37.5v30l-17.66 179.245 17.66 167.755h-350v-377l168-8.968z" fill="#7bb1ff"/><path d="m300 444.5v-367c0-5.523 4.477-10 10-10h12.5l7.5 2.904 7.5-2.904h8.181 6.819l7.138 2.904 7.862-2.904h15l6.33 3.755 8.67-3.755h37.5v377l-70 9.053z" fill="#ff8086"/><path d="m435 444.5v44l-2.96 8c0 2.761-2.239 5-5 5h-342.04c-2.761 0-5-2.239-5-5l-3-52z" fill="#f8f7f7"/><path d="m435 12.5v25h-358l1.362-23.521c0-2.761 2.239-5 5-5l9.638-1.479h337c2.761 0 5 2.239 5 5z" fill="#f8f7f7"/><path d="m93 414.5v30l-8 2.074-8-2.074v-30l8-4.011z" fill="#6f6571"/><path d="m93 37.5v377h-16v-109l6.553-10.585-6.553-15.415v-40.5l4.596-6.936-4.596-8.064v-15l4.596-7.5-4.596-7.5v-119l3.83-7.5-3.83-7.5v-22.5l7.319-4.117z" fill="#62a5f4"/><path d="m435 488.5v11c0 2.76-2.24 5-5 5h-147l-28.809-4.606-31.191 4.606h-34.5l-31.33-4.606-28.67 4.606h-46.5c-2.76 0-5-2.24-5-5v-55h16v31c0 7.18 5.82 13 13 13z" fill="#e8e8e8"/><path d="m93 7.5v30h-16v-25c0-2.76 2.24-5 5-5z" fill="#e8e8e8"/><g><path d="m266 474.5-13 7.649-13-7.649v-154c0-8.284-6.716-15-15-15h-148l10.468-12.287-10.468-13.713h149c22.091 0 40 17.909 40 40z" fill="#e8e8e8"/></g><g><path d="m77 279.5h16v26h-16z" fill="#d8d8d8"/></g><path d="m171.5 474.5-13 10.968-13-10.968v-169h26z" fill="#e8e8e8"/><path d="m188.5 504.5-31.585-4.479-28.415 4.479v-15c0-8.284 6.716-15 15-15h30c8.284 0 15 6.716 15 15z" fill="#857e87"/><path d="m283 504.5-30-3-30 3v-15c0-8.284 6.716-15 15-15h30c8.284 0 15 6.716 15 15z" fill="#857e87"/><path d="m188.5 489.5v15h-60v-15c0-.34.01-.67.04-1h59.92c.03.33.04.66.04 1z" fill="#6f6571"/><path d="m283 489.5v15h-60v-15c0-.34.01-.67.04-1h59.92c.03.33.04.66.04 1z" fill="#6f6571"/><path d="m246.277 124.191-98.777.404c-1.105 0-2-.895-2-2l-.266-5.096c0-8.933 12.704-19.065 12.704-19.065 1.912-.607 3.948-.935 6.062-.935h65c9.319 0 17.15 6.374 19.37 15 0 0-.902 3.273-.902 5l.809 4.691c0 1.106-.896 2.001-2 2.001z" fill="#f8f7f7"/><path d="m249 117.5v6c0 1.1-.9 2-2 2h-101c-1.1 0-2-.9-2-2v-6c0-8.94 5.848-16.505 13.938-19.065-.61 1.91-.938 3.955-.938 6.065v4c0 2.21 1.79 4 4 4h87.37c.41 1.6.63 3.28.63 5z" fill="#e8e8e8"/></g><g><path d="m435 0h-217.83c-4.142 0-7.5 3.358-7.5 7.5s3.358 7.5 7.5 7.5h210.33v15h-343v-15h97.67c4.142 0 7.5-3.358 7.5-7.5s-3.358-7.5-7.5-7.5h-105.17c-4.142 0-7.5 3.358-7.5 7.5v497c0 4.142 3.358 7.5 7.5 7.5h358c4.142 0 7.5-3.358 7.5-7.5v-135.458c0-4.142-3.358-7.5-7.5-7.5s-7.5 3.358-7.5 7.5v67.958h-30v-362h30v259.042c0 4.142 3.358 7.5 7.5 7.5s7.5-3.358 7.5-7.5v-326.542c0-4.142-3.358-7.5-7.5-7.5zm-52.5 60v-15h15v15zm-75 377v-359.5c0-1.378 1.122-2.5 2.5-2.5h12.5v362zm-34 0v-15h19v15zm2 60h-45v-7.5c0-4.136 3.364-7.5 7.5-7.5h30c4.136 0 7.5 3.364 7.5 7.5zm-156-273h-35v-15h26.5c4.687 0 8.5 3.813 8.5 8.5zm44.5 89v154h-11v-154zm61 0c4.136 0 7.5 3.364 7.5 7.5v86.5h-53.5v-94zm-46 109h53.5v15h-53.5zm-41-15h-53.5v-94h53.5zm-53.5 15h53.5v15h-53.5zm59 60h30c4.136 0 7.5 3.364 7.5 7.5v7.5h-45v-7.5c0-4.136 3.364-7.5 7.5-7.5zm35.5-14.317v-15.683h53.5v15.683c-9.756 2.461-17 11.308-17 21.817v7.5h-19.5v-7.5c0-10.51-7.244-19.357-17-21.817zm143.5-407.683v-15h15v15zm30 0v-15h15v15zm-45-15v15.2c-8.466 1.22-15 8.502-15 17.3v329.5h-19v-87.5c0-26.191-21.309-47.5-47.5-47.5h-61.415c-4.142 0-7.5 3.358-7.5 7.5s3.358 7.5 7.5 7.5h61.415c17.92 0 32.5 14.58 32.5 32.5v147.5h-11v-146.5c0-12.407-10.093-22.5-22.5-22.5h-140.5v-11h45.085c4.142 0 7.5-3.358 7.5-7.5s-3.358-7.5-7.5-7.5h-45.085v-33h35v7.5c0 4.142 3.358 7.5 7.5 7.5s7.5-3.358 7.5-7.5v-15-14c0-12.958-10.542-23.5-23.5-23.5h-26.5v-119h102c1.378 0 2.5 1.122 2.5 2.5v12.5h-25c-15.164 0-27.5 12.336-27.5 27.5v8c0 4.142 3.358 7.5 7.5 7.5h105c4.142 0 7.5-3.358 7.5-7.5v-8c0-15.164-12.336-27.5-27.5-27.5h-25v-12.5c0-9.649-7.851-17.5-17.5-17.5h-102v-15zm-78.5 60c6.893 0 12.5 5.607 12.5 12.5v.5h-90v-.5c0-6.893 5.607-12.5 12.5-12.5zm-144.5 347h53.5v15.683c-9.756 2.461-17 11.308-17 21.817v7.5h-36.5zm343 45h-137v-7.5c0-10.51-7.244-19.357-17-21.817v-15.683h154zm-45-60h-15v-236.319c0-4.142-3.358-7.5-7.5-7.5s-7.5 3.358-7.5 7.5v236.319h-15v-362h15v90.681c0 4.142 3.358 7.5 7.5 7.5s7.5-3.358 7.5-7.5v-90.681h15zm30-377v-15h15v15z"/><path d="m147.5 148.181c-4.142 0-7.5 3.358-7.5 7.5v20c0 4.142 3.358 7.5 7.5 7.5s7.5-3.358 7.5-7.5v-20c0-4.142-3.358-7.5-7.5-7.5z"/><path d="m180.167 148.181c-4.142 0-7.5 3.358-7.5 7.5v20c0 4.142 3.358 7.5 7.5 7.5s7.5-3.358 7.5-7.5v-20c0-4.142-3.358-7.5-7.5-7.5z"/><path d="m212.833 148.181c-4.142 0-7.5 3.358-7.5 7.5v20c0 4.142 3.358 7.5 7.5 7.5s7.5-3.358 7.5-7.5v-20c0-4.142-3.357-7.5-7.5-7.5z"/><path d="m245.5 148.181c-4.142 0-7.5 3.358-7.5 7.5v20c0 4.142 3.358 7.5 7.5 7.5s7.5-3.358 7.5-7.5v-20c0-4.142-3.358-7.5-7.5-7.5z"/><path d="m164.167 198.181c-4.142 0-7.5 3.358-7.5 7.5v20c0 4.142 3.358 7.5 7.5 7.5s7.5-3.358 7.5-7.5v-20c0-4.142-3.358-7.5-7.5-7.5z"/><path d="m196.833 198.181c-4.142 0-7.5 3.358-7.5 7.5v20c0 4.142 3.358 7.5 7.5 7.5s7.5-3.358 7.5-7.5v-20c0-4.142-3.357-7.5-7.5-7.5z"/><path d="m229.5 198.181c-4.142 0-7.5 3.358-7.5 7.5v20c0 4.142 3.358 7.5 7.5 7.5s7.5-3.358 7.5-7.5v-20c0-4.142-3.358-7.5-7.5-7.5z"/></g></g></svg>