<svg id="Capa_1" enable-background="new 0 0 512 512" height="512" viewBox="0 0 512 512" width="512" xmlns="http://www.w3.org/2000/svg"><g><g><g><path d="m425.082 385.03-16.763-1.434-7.87 1.434h-285.4l-6.816-1.881-11.588 1.881v-31.06l13.822 2.434 7.392-2.434h278.91l6.486 1.987 21.827-1.987z" fill="#7bb1ff"/></g><g fill="#62a5f4"><path d="m425.079 353.97v31.06h-24.63v-6.59c0-8.37-1.23-16.57-3.68-24.47z"/><path d="m117.859 353.97-2.81 31.06h-18.4v-31.06z"/></g><g><path d="m363.756 204.839-23.884-2.775-8.933 2.775h-199.55l-6.73-2.435-23.468 2.435v-31.06l27 1.136 6.008-1.136h182.89l6.442 1.732 40.225-1.732z" fill="#e8e8e8"/></g><path d="m363.759 173.78v31.06h-32.82l-13.85-31.06z" fill="#d8d8d8"/><path d="m446.513 422.21h-24.06v-43.768c0-13.879-2.866-27.343-8.519-40.021l-133.205-298.714 21.366-12.65 10.712 29.22 5.721 7.633 116.772 261.862c7.439 16.685 11.212 34.406 11.212 52.67v43.768z" fill="#f8f7f7"/><path d="m422.929 338.42-119.898-268.881c-1.18-2.646.757-5.629 3.653-5.629h11.845l-16.43-36.85-28.37 12.65 10.79 24.2h.001l122.409 274.51c5.66 12.68 8.52 26.14 8.52 40.02v43.77h16v-43.77c0-13.88-2.86-27.34-8.52-40.02z" fill="#e8e8e8"/><path d="m134.199 173.78-2.81 31.06h-30.2v-31.06z" fill="#d8d8d8"/><path d="m96.482 423.613-25.866-2.805 29.277-313.463c2.381-26.254 15.465-50.286 36.528-66.598 16.892-13.082 37.845-19.817 59.21-19.817l65.758-3.078h78.014c8.577 0 15.53 6.953 15.53 15.53 0 8.577-6.953 15.53-15.53 15.53h-78.014l-72.529-7.827c-33.293 0-64.726 31.44-67.733 64.596l.766 9.064 1.939 7.266z" fill="#f8f7f7"/><path d="m196.319 162.61h-26.654c-4.003 0-7.247 3.245-7.247 7.247v38.902c0 4.003 3.245 7.247 7.247 7.247h26.654c4.003 0 7.247-3.245 7.247-7.247v-38.902c0-4.002-3.245-7.247-7.247-7.247z" fill="#857e87"/><path d="m205.989 17.85h-15.988c-21.362 0-42.314 6.731-59.206 19.808-21.069 16.31-34.155 40.346-36.546 66.612l-28.7 316.54 16.43 1.49 26.371-296.666c.245-2.754 2.679-4.787 5.433-4.537l10.046.913 1.36-14.94c3-33.15 30.38-58.16 63.67-58.16h72.53v-31.06z" fill="#e8e8e8"/><path d="m93.377 103.447c-4.853-.441-6.875-5.161-6.016-9.957 4.578-25.563 18.162-45.17 38.872-61.213 18.305-14.174 40.628-22.085 64.596-22.085l45.787-1.617c4.574 0 8.283 3.708 8.283 8.283l1.488 5.643v28.484c0 4.574-3.708 8.283-8.283 8.283h-49.24c-25.488 0-46.838 17.486-52.267 41.694-.903 4.025-4.699 6.723-8.807 6.35l-29.481-2.676z" fill="#7bb1ff"/><path d="m246.389 15.78-.002 6.72h-56.398c-20.65 0-40.67 6.69-56.36 18.84-15.84 12.27-27.07 29.3-32.14 48.52l-3.18 14.774-5.75-.524c-4.86-.44-8.27-4.95-7.41-9.75 4.58-25.56 18.59-48.84 39.3-64.88 18.3-14.17 41.58-21.98 65.54-21.98h48.12c4.57 0 8.28 3.71 8.28 8.28z" fill="#62a5f4"/><g><path d="m475.595 459.887c0 8.998-2.664 17.374-7.246 24.383 0 0-2.79 2.713-4.116 4.241-8.18 9.425-19.791 14.447-33.251 14.447-24.639 0-42.707-18.431-42.707-43.07 0-11.125 3.138-20.563 9.872-28.376 2.739-3.177 8.47-9.002 8.47-9.002 7.004-4.575 15.374-7.234 24.364-7.234 24.641-.002 44.614 19.972 44.614 44.611z" fill="#857e87"/><path d="m468.349 484.27c-7.96 12.18-21.73 20.23-37.37 20.23-24.64 0-44.61-19.97-44.61-44.61 0-15.65 8.05-29.42 20.25-37.38-4.59 7.01-7.25 15.38-7.25 24.38 0 24.64 19.97 44.61 44.61 44.61 8.99 0 17.37-2.66 24.37-7.23z" fill="#6f6571"/><path d="m430.983 474.19c-7.887 0-14.303-6.417-14.303-14.303 0-7.887 6.417-14.302 14.303-14.302s14.302 6.415 14.302 14.302c0 7.886-6.415 14.303-14.302 14.303z" fill="#f8f7f7"/></g><g><path d="m125.629 459.887c0 8.998-2.664 17.374-7.246 24.383 0 0-2.79 2.713-4.116 4.241-8.18 9.425-19.791 14.447-33.251 14.447-24.639 0-42.707-18.431-42.707-43.07 0-11.125 3.138-20.563 9.872-28.376 2.739-3.177 8.47-9.002 8.47-9.002 7.004-4.575 15.374-7.234 24.364-7.234 24.64-.002 44.614 19.972 44.614 44.611z" fill="#857e87"/><path d="m118.383 484.27c-7.96 12.18-21.73 20.23-37.37 20.23-24.64 0-44.61-19.97-44.61-44.61 0-15.65 8.05-29.42 20.25-37.38-4.59 7.01-7.25 15.38-7.25 24.38 0 24.64 19.97 44.61 44.61 44.61 8.99 0 17.37-2.66 24.37-7.23z" fill="#6f6571"/><path d="m81.016 474.19c-7.887 0-14.303-6.417-14.303-14.303 0-7.887 6.417-14.302 14.303-14.302s14.303 6.415 14.303 14.302c0 7.886-6.416 14.303-14.303 14.303z" fill="#f8f7f7"/></g></g><g><path d="m476.575 460.517c-4.082-.741-7.979 1.967-8.718 6.042-3.197 17.638-18.555 30.441-36.516 30.441-20.464 0-37.113-16.649-37.113-37.113s16.649-37.112 37.113-37.112c11.894 0 22.778 5.493 29.861 15.071 2.466 3.33 7.161 4.033 10.49 1.57 3.33-2.463 4.033-7.159 1.57-10.49-4.994-6.751-11.519-12.106-18.892-15.743v-34.74c0-19.323-3.991-38.071-11.862-55.725l-118.753-266.308h16.003c11.326.193 23.195-9.915 23.029-23.03 0-12.699-10.331-23.03-23.029-23.03h-86.497c-2.221-6.03-8.007-10.35-14.798-10.35h-48.111c-5.572 0-11.191.4-16.702 1.189-4.1.587-6.948 4.387-6.36 8.487.587 4.102 4.404 6.948 8.487 6.36 4.808-.688 9.712-1.037 14.575-1.037h48.111c.432 0 .782.351.782.782v35.201c0 .432-.351.783-.782.783h-49.24c-28.805 0-53.307 19.555-59.586 47.554-.072.321-.443.556-.811.521l-2.519-.229c-.028-.003-.054-.009-.082-.012-.027-.002-.053-.001-.08-.003l-30.754-2.792c-.015-.001-.03-.002-.045-.004l-1.755-.159c-.083-.007-.338-.03-.545-.302-.146-.192-.199-.413-.155-.655 4.29-23.958 17.255-45.364 36.506-60.275 4.677-3.623 9.776-6.843 15.156-9.57 3.694-1.873 5.171-6.387 3.298-10.081s-6.387-5.17-10.081-3.298c-6.225 3.156-12.132 6.888-17.559 11.09-22.191 17.192-37.137 41.871-42.085 69.492-.78 4.36.312 8.878 2.994 12.396 1.458 1.912 3.334 3.43 5.443 4.495l-16.049 177.01c-.374 4.125 2.667 7.772 6.792 8.146.23.021.46.03.687.03 3.836 0 7.107-2.928 7.461-6.823l15.946-175.882 16 1.452-26.734 294.755c-3.017-.546-6.119-.846-9.292-.846-2.304 0-4.569.166-6.795.458l7.611-83.952c.374-4.125-2.667-7.772-6.793-8.146-4.113-.379-7.772 2.667-8.146 6.793l-8.146 89.857c-17.624 8.366-29.843 26.332-29.843 47.103 0 28.734 23.378 52.112 52.112 52.112 28.735 0 52.113-23.378 52.113-52.113 0-20.122-11.471-37.604-28.211-46.284l1.911-21.073h301.124v20.625c-17.214 8.518-29.084 26.261-29.084 46.731 0 28.735 23.378 52.113 52.113 52.113 25.219 0 46.783-17.985 51.275-42.766.74-4.075-1.965-7.977-6.04-8.716zm-358.087-.63c0 20.464-16.649 37.113-37.113 37.113s-37.112-16.649-37.112-37.113 16.648-37.112 37.112-37.112 37.113 16.648 37.113 37.112zm229.299-426.507c-.075 3.301-2.601 7.743-8.029 8.03h-85.513v-16.06h85.513c4.428 0 8.029 3.602 8.029 8.03zm-203.513 69.223c4.731-21.1 23.215-35.836 44.949-35.836h49.24c6.793 0 12.581-4.323 14.801-10.356h20.06l48.994 109.87h-111.35c-1.605-6.406-7.395-11.17-14.291-11.17h-26.654c-6.896 0-12.685 4.764-14.29 11.17h-28.024l4.702-51.845c5.775-1.323 10.516-5.828 11.863-11.833zm138.201 109.737h60.382l57.585 129.136c.736 1.65 1.415 3.316 2.048 4.994h-291.124l12.166-134.13h32.202c1.606 6.404 7.394 11.167 14.289 11.167h26.654c6.895 0 12.684-4.763 14.29-11.167h36.423c4.143 0 7.5-3.357 7.5-7.5s-3.357-7.5-7.5-7.5h-35.965v-16.06h117.582l7.161 16.06h-53.693c-4.143 0-7.5 3.357-7.5 7.5s3.357 7.5 7.5 7.5zm-112.199-7.462c0-.013.002-.025.002-.039s-.002-.026-.002-.039v-30.982c0-.013.002-.025.002-.039s-.002-.026-.002-.039v-3.631h26.149v38.396h-26.149zm-15-7.538h-30.384l1.457-16.06h28.927zm-45.271 164.13h296.714c1.001 5.266 1.528 10.628 1.582 16.061h-299.753zm304.137-26.103-124.395-278.957h17.584l121.479 272.417c7.008 15.717 10.562 32.41 10.562 49.615v29.983c-2.642-.417-5.323-.651-8.03-.651-2.73 0-5.411.213-8.029.62v-29.952c-.001-14.935-3.086-29.427-9.171-43.075z"/><path d="m409.538 459.887c0 12.022 9.78 21.803 21.803 21.803s21.803-9.78 21.803-21.803c0-12.021-9.78-21.802-21.803-21.802s-21.803 9.78-21.803 21.802zm28.606 0c0 3.751-3.052 6.803-6.803 6.803s-6.803-3.052-6.803-6.803 3.052-6.802 6.803-6.802 6.803 3.051 6.803 6.802z"/><path d="m59.572 459.887c0 12.022 9.781 21.804 21.804 21.804 12.021 0 21.802-9.781 21.802-21.804 0-12.021-9.78-21.802-21.802-21.802-12.023 0-21.804 9.78-21.804 21.802zm21.803-6.802c3.751 0 6.802 3.051 6.802 6.802 0 3.752-3.051 6.804-6.802 6.804-3.752 0-6.804-3.052-6.804-6.804.001-3.751 3.052-6.802 6.804-6.802z"/></g></g></svg>