<svg id="Capa_1" enable-background="new 0 0 512 512" height="512" viewBox="0 0 512 512" width="512" xmlns="http://www.w3.org/2000/svg"><g><g><g><path d="m71.214 153.827h119.687v35.249h-119.687z" fill="#bac5e2"/></g><g><path d="m114.076 461.37v-99.547c0-8.78-3.488-17.201-9.696-23.41l-29.891-29.893c-12.7-12.701-19.835-29.928-19.835-47.889v-165.037h36.85v167.264c0 6.765 2.687 13.253 7.471 18.037l24.209 24.209c4.349 4.349 11.399 4.349 15.747 0l24.209-24.209c4.784-4.784 7.471-11.272 7.471-18.037v-167.264h36.85v165.036c0 17.962-7.135 35.188-19.835 47.889l-29.891 29.893c-6.208 6.209-9.696 14.63-9.696 23.41v99.547h-33.963z" fill="#e9efff"/></g><g><path d="m120.939 338.413-29.89-29.893c-12.7-12.701-19.835-29.928-19.835-47.889v-165.037h-16.56v165.036c0 17.962 7.135 35.188 19.835 47.889l29.891 29.893c6.208 6.209 9.696 14.63 9.696 23.41v99.547h16.56v-99.547c0-8.779-3.488-17.2-9.697-23.409z" fill="#d3dcfb"/></g><g><path d="m139.744 305.104c4.349 4.349 11.399 4.348 15.747 0l24.209-24.209c4.784-4.784 7.471-11.272 7.471-18.037v-167.264h-16.56v167.264c0 6.765-2.688 13.253-7.471 18.037l-23.802 23.802z" fill="#d3dcfb"/></g><g><path d="m148.039 461.37h-33.963l-5.655 8.393c-3.119 4.63-4.786 10.086-4.786 15.668v9.068c0 5.523 4.477 10 10 10h34.844c5.523 0 10-4.477 10-10v-9.068c0-5.583-1.666-11.038-4.786-15.668z" fill="#bac5e2"/></g><g><path d="m119.235 494.5v-9.068c0-5.583 1.666-11.038 4.786-15.668l5.655-8.393h-15.6l-5.655 8.393c-3.119 4.63-4.786 10.086-4.786 15.668v9.068c0 5.523 4.477 10 10 10h15.6c-5.523 0-10-4.477-10-10z" fill="#a7b4d1"/></g><g><path d="m54.654 55.065h152.807v40.529h-152.807z" fill="#e5979d"/></g><g><path d="m54.654 55.065h16.56v40.529h-16.56z" fill="#e17f85"/></g><g><path d="m218.101 62.217h-174.088c-11.046 0-20-8.954-20-20v-14.717c0-11.046 8.954-20 20-20h174.089c11.046 0 20 8.954 20 20v14.717c-.001 11.046-8.955 20-20.001 20z" fill="#42c3fc"/></g><g><path d="m40.573 42.217v-14.717c0-11.046 8.954-20 20-20h-16.56c-11.046 0-20 8.954-20 20v14.717c0 11.046 8.954 20 20 20h16.56c-11.046 0-20-8.954-20-20z" fill="#1aa9e8"/></g><g><path d="m321.1 153.827h119.687v35.249h-119.687z" fill="#bac5e2"/></g><g><path d="m363.962 461.37v-99.547c0-8.78-3.488-17.201-9.696-23.41l-29.891-29.893c-12.7-12.701-19.835-29.928-19.835-47.889v-165.037h36.85v167.264c0 6.765 2.688 13.253 7.471 18.037l24.209 24.209c4.349 4.349 11.399 4.349 15.747 0l24.209-24.209c4.784-4.784 7.471-11.272 7.471-18.037v-167.264h36.85v165.036c0 17.962-7.135 35.188-19.835 47.889l-29.891 29.893c-6.208 6.209-9.696 14.63-9.696 23.41v99.547h-33.963z" fill="#e9efff"/></g><g><path d="m370.825 338.413-29.891-29.893c-12.7-12.701-19.835-29.928-19.835-47.889v-165.037h-16.56v165.036c0 17.962 7.135 35.188 19.835 47.889l29.891 29.893c6.208 6.209 9.696 14.63 9.696 23.41v99.547h16.56v-99.547c.001-8.779-3.487-17.2-9.696-23.409z" fill="#d3dcfb"/></g><g><path d="m389.629 305.104c4.349 4.349 11.399 4.348 15.747 0l24.209-24.209c4.784-4.784 7.471-11.272 7.471-18.037v-167.264h-16.56v167.264c0 6.765-2.688 13.253-7.471 18.037l-23.802 23.802z" fill="#d3dcfb"/></g><g><path d="m397.925 461.37h-33.963l-5.655 8.393c-3.119 4.63-4.786 10.086-4.786 15.668v9.068c0 5.523 4.477 10 10 10h34.844c5.523 0 10-4.477 10-10v-9.068c0-5.583-1.666-11.038-4.786-15.668z" fill="#bac5e2"/></g><g><path d="m369.121 494.5v-9.068c0-5.583 1.666-11.038 4.786-15.668l5.655-8.393h-15.6l-5.655 8.393c-3.119 4.63-4.786 10.086-4.786 15.668v9.068c0 5.523 4.477 10 10 10h15.6c-5.523 0-10-4.477-10-10z" fill="#a7b4d1"/></g><g><path d="m304.54 55.065h152.807v40.529h-152.807z" fill="#e5979d"/></g><g><path d="m304.54 55.065h16.56v40.529h-16.56z" fill="#e17f85"/></g><g><path d="m467.987 62.217h-174.088c-11.046 0-20-8.954-20-20v-14.717c0-11.046 8.954-20 20-20h174.089c11.046 0 20 8.954 20 20v14.717c-.001 11.046-8.955 20-20.001 20z" fill="#42c3fc"/></g><g><path d="m290.459 42.217v-14.717c0-11.046 8.954-20 20-20h-16.56c-11.046 0-20 8.954-20 20v14.717c0 11.046 8.954 20 20 20h16.56c-11.046 0-20-8.954-20-20z" fill="#1aa9e8"/></g></g><g><path d="m218.101 0h-174.088c-15.163 0-27.5 12.336-27.5 27.5v14.717c0 15.164 12.337 27.5 27.5 27.5h3.141v25.877c0 1.054.219 2.056.612 2.966h-.612v162.07c0 20.093 7.824 38.984 22.031 53.193l29.891 29.893c4.837 4.836 7.5 11.267 7.5 18.106v33.737c0 4.142 3.357 7.5 7.5 7.5s7.5-3.358 7.5-7.5v-33.737c0-10.846-4.224-21.043-11.893-28.713l-29.891-29.893c-11.374-11.375-17.639-26.5-17.639-42.586v-157.536h21.85v159.764c0 8.817 3.434 17.106 9.668 23.341l24.208 24.208c7.268 7.267 19.088 7.266 26.355 0l24.208-24.208c6.234-6.235 9.668-14.524 9.668-23.341v-159.764h21.85v157.536c0 16.087-6.265 31.211-17.639 42.586l-29.891 29.893c-7.669 7.67-11.893 17.867-11.893 28.713v92.047h-18.963v-30.23c0-4.142-3.357-7.5-7.5-7.5s-7.5 3.358-7.5 7.5v35.44l-4.374 6.492c-3.969 5.89-6.066 12.757-6.066 19.859v9.068c0 9.649 7.851 17.5 17.5 17.5h34.844c9.649 0 17.5-7.851 17.5-17.5v-9.068c0-7.102-2.098-13.969-6.065-19.859l-4.375-6.493v-97.257c0-6.839 2.663-13.27 7.5-18.106l29.891-29.894c14.207-14.208 22.031-33.1 22.031-53.192v-162.069h-.612c.392-.91.612-1.912.612-2.966v-25.877h3.141c15.163 0 27.5-12.336 27.5-27.5v-14.717c0-15.164-12.337-27.5-27.5-27.5zm-67.122 494.5c0 1.378-1.121 2.5-2.5 2.5h-34.844c-1.379 0-2.5-1.122-2.5-2.5v-9.068c0-4.105 1.212-8.074 3.506-11.478l3.425-5.083h25.982l3.425 5.083c2.294 3.405 3.506 7.374 3.506 11.479zm12.132-231.642c0 4.81-1.873 9.333-5.275 12.734l-24.208 24.208c-1.416 1.417-3.725 1.417-5.141 0l-24.208-24.208c-3.402-3.402-5.275-7.924-5.275-12.734v-66.282h64.107zm0-81.282h-64.108v-20.249h64.107v20.249zm0-35.249h-64.108v-43.233h64.107v43.233zm67.49-104.11c0 6.893-5.607 12.5-12.5 12.5h-104.028c-4.143 0-7.5 3.358-7.5 7.5s3.357 7.5 7.5 7.5h85.888v18.377h-137.807v-18.377h22.857c4.143 0 7.5-3.358 7.5-7.5s-3.357-7.5-7.5-7.5h-40.998c-6.893 0-12.5-5.607-12.5-12.5v-14.717c0-6.893 5.607-12.5 12.5-12.5h174.088c6.893 0 12.5 5.607 12.5 12.5z"/><path d="m467.987 0h-174.088c-15.163 0-27.5 12.336-27.5 27.5v14.717c0 15.164 12.337 27.5 27.5 27.5h3.141v25.877c0 1.054.22 2.056.612 2.966h-.612v162.07c0 20.093 7.824 38.984 22.031 53.193l29.891 29.893c4.837 4.836 7.5 11.267 7.5 18.106v33.737c0 4.142 3.357 7.5 7.5 7.5s7.5-3.358 7.5-7.5v-33.737c0-10.846-4.224-21.043-11.893-28.713l-29.891-29.893c-11.374-11.375-17.639-26.5-17.639-42.586v-157.536h21.85v159.764c0 8.817 3.434 17.106 9.668 23.341l24.208 24.208c7.268 7.267 19.088 7.266 26.355 0l24.208-24.208c6.234-6.235 9.668-14.524 9.668-23.341v-159.764h21.85v157.536c0 16.087-6.265 31.211-17.639 42.586l-29.891 29.893c-7.669 7.67-11.893 17.867-11.893 28.713v92.047h-18.963v-30.23c0-4.142-3.357-7.5-7.5-7.5s-7.5 3.358-7.5 7.5v35.44l-4.374 6.492c-3.969 5.89-6.066 12.757-6.066 19.859v9.068c0 9.649 7.851 17.5 17.5 17.5h34.844c9.649 0 17.5-7.851 17.5-17.5v-9.068c0-7.102-2.098-13.969-6.065-19.859l-4.375-6.493v-97.257c0-6.839 2.663-13.27 7.5-18.106l29.891-29.894c14.207-14.208 22.031-33.1 22.031-53.192v-162.069h-.612c.393-.91.612-1.912.612-2.966v-25.877h3.141c15.163 0 27.5-12.336 27.5-27.5v-14.717c0-15.164-12.337-27.5-27.5-27.5zm-67.122 494.5c0 1.378-1.121 2.5-2.5 2.5h-34.844c-1.379 0-2.5-1.122-2.5-2.5v-9.068c0-4.105 1.212-8.074 3.506-11.478l3.425-5.083h25.982l3.425 5.083c2.294 3.405 3.506 7.374 3.506 11.479zm12.132-231.642c0 4.81-1.873 9.333-5.275 12.734l-24.208 24.208c-1.416 1.417-3.725 1.417-5.141 0l-24.208-24.208c-3.402-3.402-5.275-7.924-5.275-12.734v-66.282h64.107zm0-81.282h-64.107v-20.249h64.107zm0-35.249h-64.107v-43.233h64.107zm67.49-104.11c0 6.893-5.607 12.5-12.5 12.5h-104.029c-4.143 0-7.5 3.358-7.5 7.5s3.357 7.5 7.5 7.5h85.888v18.377h-137.806v-18.377h22.857c4.143 0 7.5-3.358 7.5-7.5s-3.357-7.5-7.5-7.5h-40.998c-6.893 0-12.5-5.607-12.5-12.5v-14.717c0-6.893 5.607-12.5 12.5-12.5h174.088c6.893 0 12.5 5.607 12.5 12.5z"/></g></g></svg>