<svg id="Capa_1" enable-background="new 0 0 512 512" height="512" viewBox="0 0 512 512" width="512" xmlns="http://www.w3.org/2000/svg"><g><g><g><g><path d="m336.163 420.786c-7.044 0-13.439-4.793-15.178-11.941-2.042-8.39 3.104-16.846 11.493-18.888l81.763-19.901c34.732-8.455 58.99-39.326 58.99-75.072v-174.469c0-11.714-9.531-21.245-21.246-21.245-9.908 0-18.637 7.025-20.755 16.704l-15.047 68.772c-1.846 8.435-10.179 13.784-18.615 11.931-8.435-1.846-13.777-10.179-11.932-18.615l15.047-68.772c5.235-23.925 26.81-41.29 51.302-41.29 28.957 0 52.515 23.558 52.515 52.514v174.469c0 50.213-34.075 93.577-82.864 105.453l-81.763 19.901c-1.241.304-2.486.449-3.71.449z" fill="#42c3fc"/></g></g><g><g><path d="m175.837 420.786c7.044 0 13.439-4.793 15.178-11.941 2.042-8.39-3.104-16.846-11.493-18.888l-81.763-19.901c-34.732-8.455-58.99-39.326-58.99-75.072v-174.469c0-11.714 9.531-21.245 21.246-21.245 9.908 0 18.638 7.025 20.755 16.704l15.047 68.772c1.846 8.435 10.179 13.784 18.615 11.931 8.435-1.846 13.777-10.179 11.931-18.615l-15.047-68.772c-5.235-23.925-26.81-41.29-51.302-41.29-28.956.001-52.514 23.558-52.514 52.515v174.469c0 50.213 34.075 93.577 82.864 105.453l81.763 19.901c1.242.303 2.487.448 3.71.448z" fill="#42c3fc"/></g></g><g><path d="m414.241 370.056-81.763 19.901c-8.39 2.042-13.536 10.499-11.494 18.889 1.74 7.147 8.135 11.94 15.178 11.94 1.223 0 2.468-.145 3.71-.448l81.763-19.901c.742-.181 1.47-.391 2.205-.587 10.805-14.58 19.334-30.938 25.073-48.548-9.481 8.906-21.295 15.498-34.672 18.754z" fill="#1aa9e8"/></g><g><path d="m172.127 420.339c1.241.302 2.486.448 3.71.448 7.044 0 13.439-4.793 15.178-11.94 2.042-8.39-3.104-16.846-11.494-18.889l-81.763-19.901c-13.377-3.256-25.191-9.848-34.673-18.753 5.739 17.609 14.268 33.968 25.073 48.548.735.195 1.463.406 2.205.587z" fill="#1aa9e8"/></g><g><path d="m397.569 196.677c8.436 1.853 16.77-3.496 18.615-11.931l7.03-32.13c-.85-.342-1.708-.671-2.581-.971l-27.168-9.358-7.827 35.776c-1.846 8.435 3.495 16.769 11.931 18.614z" fill="#1aa9e8"/></g><g><path d="m88.787 152.616 7.03 32.13c1.846 8.435 10.18 13.784 18.615 11.931 8.435-1.845 13.777-10.179 11.932-18.615l-7.827-35.776-27.168 9.358c-.875.301-1.732.63-2.582.972z" fill="#1aa9e8"/></g><g><path d="m79.741 298.629v-95.63c0-12.51 7.939-23.642 19.768-27.717l35.565-12.25c10.072-3.469 19.658-8.217 28.521-14.126l23.328-15.552c41.829-27.886 96.323-27.886 138.152 0l23.328 15.552c8.864 5.909 18.449 10.657 28.521 14.126l35.565 12.25c11.828 4.074 19.768 15.206 19.768 27.717v95.63c0 80.286-65.085 145.371-145.371 145.371h-61.776c-80.284-.001-145.369-65.085-145.369-145.371z" fill="#e9efff"/></g><g><path d="m108.541 298.628v-122.215c0-1.476.119-2.93.334-4.358l-9.366 3.226c-11.828 4.074-19.768 15.206-19.768 27.716v95.63c0 80.286 65.085 145.371 145.371 145.371h28.8c-80.286.001-145.371-65.083-145.371-145.37z" fill="#d3dcfb"/></g><g><path d="m334.173 266.067h-156.345c-8.519 0-15.425 6.906-15.425 15.425 0 8.519 6.906 15.425 15.425 15.425h156.345c8.519 0 15.425-6.906 15.425-15.425 0-8.518-6.906-15.425-15.425-15.425z" fill="#bac5e2"/></g><g><path d="m334.173 204.344h-156.345c-8.519 0-15.425 6.906-15.425 15.425 0 8.519 6.906 15.425 15.425 15.425h156.345c8.519 0 15.425-6.906 15.425-15.425 0-8.519-6.906-15.425-15.425-15.425z" fill="#bac5e2"/></g><g><path d="m334.173 327.791h-156.345c-8.519 0-15.425 6.906-15.425 15.425 0 8.519 6.906 15.425 15.425 15.425h156.345c8.519 0 15.425-6.906 15.425-15.425 0-8.519-6.906-15.425-15.425-15.425z" fill="#bac5e2"/></g></g><g><path d="m504.5 233.27c4.143 0 7.5-3.357 7.5-7.5v-105.254c0-33.092-26.923-60.015-60.015-60.015-27.988 0-52.646 19.845-58.629 47.187l-10.798 49.352-3.19-1.099c-9.458-3.258-18.476-7.724-26.804-13.275l-23.328-15.552c-44.49-29.66-101.982-29.66-146.473 0l-23.328 15.552c-8.328 5.552-17.346 10.018-26.804 13.275l-3.191 1.099-10.798-49.352c-5.982-27.342-30.64-47.187-58.629-47.187-33.09 0-60.013 26.923-60.013 60.015v174.469c0 53.684 36.43 100.044 88.591 112.74l40.675 9.901c26.237 21.174 59.584 33.874 95.846 33.874h61.775c36.262 0 69.609-12.7 95.846-33.874l40.675-9.901c52.162-12.697 88.592-59.057 88.592-112.741v-37.104c0-4.143-3.357-7.5-7.5-7.5s-7.5 3.357-7.5 7.5v37.104c0 46.743-31.721 87.11-77.138 98.166l-16.124 3.925c5.362-6.354 10.216-13.148 14.499-20.322 36.908-10.032 62.494-43.322 62.494-81.768v-174.469c0-15.851-12.896-28.746-28.746-28.746-13.407 0-25.217 9.505-28.082 22.601l-6.469 29.569c-.886 4.047 1.677 8.045 5.723 8.931 4.061.889 8.045-1.678 8.931-5.724l6.47-29.57c1.369-6.262 7.017-10.807 13.428-10.807 7.58 0 13.746 6.166 13.746 13.746v174.469c0 26.535-14.811 50.083-37.503 61.866 7.424-17.955 11.531-37.616 11.531-58.221v-95.631c0-15.705-9.977-29.693-24.825-34.808l-18.096-6.233 11.172-51.064c4.488-20.508 22.982-35.393 43.976-35.393 24.821 0 45.015 20.193 45.015 45.015v105.254c-.002 4.142 3.355 7.5 7.498 7.5zm-79.741-30.272v95.631c0 76.021-61.849 137.87-137.871 137.87h-61.775c-76.022 0-137.871-61.849-137.871-137.87v-38.229c0-4.143-3.357-7.5-7.5-7.5s-7.5 3.357-7.5 7.5v38.229c0 20.599 4.105 40.255 11.524 58.206-22.687-11.784-37.496-35.32-37.496-61.85v-174.469c0-7.58 6.166-13.746 13.745-13.746 6.411 0 12.059 4.545 13.428 10.808l6.754 30.868c.887 4.045 4.884 6.603 8.931 5.724 4.046-.886 6.608-4.884 5.724-8.931l-6.754-30.867c-2.867-13.098-14.676-22.602-28.083-22.602-15.851 0-28.745 12.896-28.745 28.746v174.469c0 38.446 25.585 71.734 62.492 81.768 4.283 7.174 9.137 13.968 14.499 20.322l-16.123-3.924c-45.417-11.056-77.138-51.423-77.138-98.167v-174.468c0-24.821 20.193-45.015 45.015-45.015 20.994 0 39.488 14.885 43.975 35.392l11.173 51.065-18.094 6.232c-14.85 5.114-24.826 19.103-24.826 34.808v27.162c0 4.143 3.357 7.5 7.5 7.5s7.5-3.357 7.5-7.5v-27.162c0-9.307 5.912-17.595 14.711-20.626l35.564-12.25c10.67-3.674 20.844-8.713 30.239-14.977l23.328-15.552c39.436-26.289 90.396-26.289 129.832 0l23.328 15.552c9.396 6.264 19.569 11.303 30.239 14.977l35.565 12.25c8.799 3.031 14.71 11.32 14.71 20.626z"/><path d="m334.173 258.567h-156.345c-12.642 0-22.926 10.284-22.926 22.926 0 12.641 10.284 22.925 22.926 22.925h156.345c12.641 0 22.925-10.284 22.925-22.925s-10.285-22.926-22.925-22.926zm0 30.851h-156.345c-4.37 0-7.926-3.555-7.926-7.925s3.556-7.926 7.926-7.926h156.345c4.37 0 7.925 3.556 7.925 7.926s-3.555 7.925-7.925 7.925z"/><path d="m334.173 196.844h-156.345c-12.642 0-22.926 10.284-22.926 22.926 0 12.641 10.284 22.925 22.926 22.925h156.345c12.641 0 22.925-10.284 22.925-22.925 0-12.642-10.285-22.926-22.925-22.926zm0 30.85h-156.345c-4.37 0-7.926-3.555-7.926-7.925s3.556-7.926 7.926-7.926h156.345c4.37 0 7.925 3.556 7.925 7.926s-3.555 7.925-7.925 7.925z"/><path d="m334.173 320.291h-156.345c-12.642 0-22.926 10.284-22.926 22.925 0 12.642 10.284 22.926 22.926 22.926h156.345c12.641 0 22.925-10.284 22.925-22.926 0-12.641-10.285-22.925-22.925-22.925zm0 30.851h-156.345c-4.37 0-7.926-3.556-7.926-7.926s3.556-7.925 7.926-7.925h156.345c4.37 0 7.925 3.555 7.925 7.925s-3.555 7.926-7.925 7.926z"/></g></g></svg>