<svg id="Capa_1" enable-background="new 0 0 511.999 511.999" height="512" viewBox="0 0 511.999 511.999" width="512" xmlns="http://www.w3.org/2000/svg"><g><g><path d="m377.647 15.871-3.757-1.872h-235.79l-4.32 1.211c-2.761 0-5 2.239-5 5l-1.28 4.389v145.79l1.353 3.656c0 2.761 2.239 5 5 5l4.257 1.954h235.78l3.835-1.624c2.761 0 5-2.239 5-5l1.775-3.986v-145.78l-1.853-3.738c0-2.761-2.239-5-5-5z" fill="#c38c66"/><g><path d="m354.5 49.999v24l-35.33 20.06-39.89-15.95c-1.75-.7-3.73-.54-5.34.44l-30.8 18.74-19.97-9.08c-1.69-.76-3.63-.71-5.27.15l-60.4 27.64 1.463-64.596c0-3.31 2.69-6 6-6l4.537-1.404h179c3.31 0 6 2.69 6 6z" fill="#bde4ff"/><path d="m354.5 143.909-1.5.962c0 3.31-6.048 4.294-9.358 4.294l-177.142-1.101c-3.31 0-6-2.69-6-6l-3-26.064 60.4-31.64c1.64-.86 3.58-.91 5.27-.15l19.97 9.08 38.015 12.719z" fill="#ffe07d"/><path d="m354.5 73.999v56.73l-2.381 9.298-71.449-31.078 6.826-10.206 31.674-8.684z" fill="#ffe07d"/><path d="m354.5 130.729v13.18l-76.9-34.96 4.633-4.971 9.867-1.619z" fill="#ffd064"/><path d="m169.5 43.999v65.71l-6.573 7.628-5.427-1.338v-66c0-3.31 2.69-6 6-6z" fill="#99dbff"/><path d="m316.05 90.376-38.45 18.574-31.059-15.711 8.997-7.492 18.402-11.197c1.61-.98 3.59-1.14 5.34-.44l24.469 9.784z" fill="#ffd064"/><path d="m303.75 83.889-24.496 11.13c-1.051.478-2.258.478-3.309 0l-20.405-9.27-12.4 7.54 34.46 15.66 41.57-18.89z" fill="#edc258"/><path d="m354.5 143.909v1.09c0 3.314-2.686 6-6 6h-185c-3.314 0-6-2.686-6-6v-29l12-6.29v22.29c0 3.866 3.134 7 7 7h167.2l5.887-1.174z" fill="#ffd064"/></g><g><path d="m52.5 345.109 2.536-57.615-2.536-4.995v-10c0-5.523 4.477-10 10-10h387c5.523 0 10 4.477 10 10v10l-1.914 5.931 1.914 56.679z" fill="#ffd064"/><path d="m112.501 345.109h-60v-62.61c28.09 0 51.73 19.4 58.23 45.5z" fill="#edc258"/><path d="m459.501 282.499v62.61h-60l1.77-17.11c6.5-26.1 30.14-45.5 58.23-45.5z" fill="#edc258"/><path d="m256 376.091 4.412-62.287-4.412-51.805c0-12.15-9.85-22-22-22h-114.5c-2.08 0-4.093.289-6 .828-9.234 2.612-14.07 14.414-14.07 24.484l-1.93 77.688-4.427 14.5 4.427 40.5z" fill="#f8f7f7"/><path d="m414.5 397.999 5.105-42.743-5.105-12.257v-81c0-12.15-9.85-22-22-22h-114.5c-2.08 0-4.093.289-6 .828-9.234 2.612-14.34 15.074-14.34 25.144l-1.66 110.12z" fill="#f8f7f7"/><path d="m419.054 444.155h-321.554l-9.161 29.946 9.161 23.898h34l7.921-8.723 17.079 8.723h50l10.794-8.723 14.206 8.723h50l11.665-8.723 13.335 8.723h50l13.784-8.723 11.216 8.723h37.554z" fill="#ffd064"/><g fill="#edc258"><path d="m131.5 444.155h25v53.844h-25z"/><path d="m206.5 444.155h25v53.844h-25z"/><path d="m281.5 444.155h25v53.844h-25z"/><path d="m356.5 444.155h25v53.844h-25z"/></g><path d="m256.001 352.999-135.504-.079c-3.864-.002-6.996-3.136-6.996-7v-105.091c-9.23 2.61-16 11.1-16 21.17v81l-6.85 19.413 6.85 35.587 16-2.21v-.002l142.5-19.697 6.613-15.982z" fill="#e8e8e8"/><path d="m389.501 352.999h-110.5c-3.866 0-7-3.134-7-7v-105.17c-9.23 2.61-16 11.1-16 21.17v91 23.09.002l158.5 21.908 5.104-19.404-5.104-16.796c-6.86-5.51-15.55-8.8-25-8.8z" fill="#e8e8e8"/><path d="m389.5 367.999h-8.5l-13.559 3.44-11.441-3.44h-50l-14.357 3.44-10.643-3.44h-50l-13.889 3.44-11.111-3.44h-50l-11.44 3.44-13.56-3.44h-8.5c-13.807 0-25 11.193-25 25l-9.161 14 9.161 11 153.774 7.495 163.226-7.495 6.866-11.33-6.866-13.67c0-13.807-11.193-25-25-25z" fill="#ffd064"/><g fill="#edc258"><path d="m131 367.999h25v53.862h-25z"/><path d="m206 367.999h25v53.862h-25z"/><path d="m281 367.999h25v53.862h-25z"/><path d="m356 367.999h25v53.862h-25z"/></g><path d="m95.258 416.499h326.109v30h-326.109z" fill="#f8f7f7"/><path d="m97.5 342.499c0-25.446-21.12-45.958-46.786-44.965-5.971.231-11.66 1.649-16.834 4.023 0 0-4.649 3.036-6.917 4.639-10.998 7.774-16.278 19.852-16.954 34.087-.891 18.752 9.046 32.662 24.694 40.243 3.432 1.662 5.595 5.155 5.595 8.968l-.619 89.615c0 7.606 4.483 17.78 11.821 18.758.654.087 1.322.132 2 .132h44v-155h-.013c.002-.167.013-.332.013-.5z" fill="#ffe07d"/><path d="m51.501 382.979v114.88c-7.34-.97-13-7.26-13-14.86v-91.02c0-3.82-2.16-7.31-5.6-8.97-15.64-7.58-26.24-23.95-25.35-42.7.82-17.17 11.45-31.92 26.33-38.75-7.77 7.69-12.78 18.17-13.33 29.75-.89 18.75 9.71 35.12 25.35 42.7 3.44 1.66 5.6 5.15 5.6 8.97z" fill="#ffd064"/><circle cx="52.5" cy="342.499" fill="#ffd064" r="15"/><path d="m504.448 340.305c-1.007-21.2-16.968-38.703-37.439-42.177-1.873-.318-4.015.232-5.955.157-25.666-.993-43.884 20.348-43.884 45.794 0 .168.011.333.013.5h-.013l1.582 152.624 10.749.798h28.999c8.284 0 15-6.716 15-15v-91.023c0-3.813 2.163-7.306 5.595-8.968 15.649-7.583 26.244-23.954 25.353-42.705z" fill="#ffe07d"/><g fill="#ffd064"><path d="m429.501 342.499c0 .17.01.33.01.5h-.01v155h-15v-155h.01c0-.17-.01-.33-.01-.5 0-25.45 21.12-45.96 46.79-44.97 1.94.08 3.85.28 5.72.59-21.29 3.57-37.51 22.08-37.51 44.38z"/><circle cx="459.5" cy="342.499" r="15"/></g></g></g><g><path d="m511.939 339.949c-1.193-25.112-20.493-45.854-44.939-49.404v-18.046c0-9.649-7.851-17.5-17.5-17.5h-28.346c-3.152-12.897-14.799-22.5-28.654-22.5h-60.904c-4.143 0-7.5 3.358-7.5 7.5s3.357 7.5 7.5 7.5h60.904c7.995 0 14.5 6.505 14.5 14.5v103.635c-5.056-3.245-11.059-5.135-17.5-5.135h-126v-98.5c0-7.995 6.505-14.5 14.5-14.5h18.596c4.143 0 7.5-3.358 7.5-7.5s-3.357-7.5-7.5-7.5h-18.596c-8.736 0-16.594 3.821-22 9.875-5.406-6.054-13.264-9.875-22-9.875h-114.5c-13.855 0-25.502 9.603-28.654 22.5h-28.347c-9.649 0-17.5 7.851-17.5 17.5v18.046c-24.446 3.55-43.746 24.292-44.939 49.404-1.001 21.069 10.607 40.621 29.574 49.809.829.402 1.365 1.272 1.365 2.219v41.023c0 4.142 3.357 7.5 7.5 7.5s7.5-3.358 7.5-7.5v-41.023c0-6.657-3.856-12.826-9.825-15.718-13.552-6.566-21.847-20.539-21.132-35.598.914-19.236 16.71-34.887 35.961-35.632 10.314-.399 20.076 3.309 27.491 10.443 7.419 7.138 11.505 16.736 11.503 27.037.005 34.039 0 113.521.002 147.991h-36.5c-4.136 0-7.5-3.364-7.5-7.5v-15c0-4.142-3.357-7.5-7.5-7.5s-7.5 3.358-7.5 7.5v15c0 12.407 10.094 22.5 22.5 22.5h405c12.406 0 22.5-10.093 22.5-22.5v-91.023c0-.946.536-1.817 1.364-2.219 18.968-9.189 30.577-28.74 29.576-49.809zm-89.94-69.95h27.5c1.379 0 2.5 1.122 2.5 2.5v18.042c-10.376 1.417-22.028 6.926-30 15.237zm-148.5 105.5v35h-35v-35zm133.5 65h-302v-15h302zm-43.5-30v-35h10v35zm-15 0h-35v-35h35zm-50 0h-10v-35h10zm-75 0h-10v-35h10zm-25 0h-35v-35h35zm-50 0h-10v-35h10zm-25 0h-18.5c0-3.672 0-14.094 0-17.5 0-9.649 7.851-17.5 17.5-17.5h1zm-18.5 45h19v35h-19zm34 0h10v35h-10zm25 0h35v35h-35zm50 0h10v35h-10zm25 0h35v35h-35zm50 0h10v35h-10zm25 0h35v35h-35zm50 0h10v35h-10zm25 0h18v35h-18zm18-62.5v17.5h-18.5v-35h1c9.65 0 17.5 7.851 17.5 17.5zm-302-131c0-7.995 6.505-14.5 14.5-14.5h114.5c7.995 0 14.5 6.505 14.5 14.5v98.5h-126c-6.441 0-12.444 1.891-17.5 5.135 0-15.198 0-87.222 0-103.635zm-16.105 42.662c-8.051-7.745-18.067-12.587-28.895-14.12v-18.042c0-1.378 1.121-2.5 2.5-2.5h27.5v35.78c-.366-.374-.726-.753-1.105-1.118zm386.93 71.598c-5.968 2.892-9.824 9.061-9.824 15.718v91.023c0 4.136-3.364 7.5-7.5 7.5h-36.5c0-34.98.001-114.009 0-148 0-10.292 4.086-19.89 11.505-27.028 7.416-7.133 17.177-10.847 27.491-10.443 19.251.745 35.047 16.396 35.961 35.632.714 15.059-7.581 29.032-21.133 35.598z"/><path d="m74.999 342.499c0-12.407-10.094-22.5-22.5-22.5s-22.5 10.093-22.5 22.5 10.094 22.5 22.5 22.5 22.5-10.093 22.5-22.5zm-22.5 7.5c-4.136 0-7.5-3.364-7.5-7.5s3.364-7.5 7.5-7.5 7.5 3.364 7.5 7.5-3.364 7.5-7.5 7.5z"/><path d="m459.499 319.999c-12.406 0-22.5 10.093-22.5 22.5s10.094 22.5 22.5 22.5 22.5-10.093 22.5-22.5-10.093-22.5-22.5-22.5zm0 30c-4.136 0-7.5-3.364-7.5-7.5s3.364-7.5 7.5-7.5 7.5 3.364 7.5 7.5-3.364 7.5-7.5 7.5z"/><path d="m132.499 188.499h247c6.893 0 12.5-5.607 12.5-12.5v-61.697c0-4.142-3.357-7.5-7.5-7.5s-7.5 3.358-7.5 7.5v48.59l-15-15v-100.786l15-15v47.196c0 4.142 3.357 7.5 7.5 7.5s7.5-3.358 7.5-7.5v-60.303c0-6.893-5.607-12.5-12.5-12.5h-159.606c-4.143 0-7.5 3.358-7.5 7.5s3.357 7.5 7.5 7.5h146.5l-15 15h-190.787l-15-15h39.287c4.143 0 7.5-3.358 7.5-7.5s-3.357-7.5-7.5-7.5h-52.394c-6.893 0-12.5 5.607-12.5 12.5v157c0 6.893 5.608 12.5 12.5 12.5zm126.608-96.189 18.08-10.958 22.79 9.115-22.388 10.243zm35.289 32.517c2.72 1.398 7.638.51 9.932-3.724 1.714-3.771.046-8.217-3.725-9.931l-4.928-2.24 51.325-23.482v58.05h-182v-22.962l55.733-29.194s73.655 33.442 73.663 33.483zm-133.79 33.672h190.786l15 15h-220.786zm186.393-89.545-28.183 12.894-39.531-15.812c-2.186-.875-4.656-.672-6.673.549l-30.042 18.208-18.966-8.621c-2.105-.957-4.536-.889-6.584.184l-52.02 27.248v-52.105h182v17.455zm-197 78.938-15 15v-130.786l15 15z"/></g></g></svg>