<svg id="Capa_1" enable-background="new 0 0 511.902 511.902" height="512" viewBox="0 0 511.902 511.902" width="512" xmlns="http://www.w3.org/2000/svg"><g><g><path d="m394.987 39.07-344.686 197.029-12.258-21.209 344.253-198.513c4.248-2.45 8.98-3.94 13.865-4.366l19.203-1.674c1.321-.115 2.399.6 2.923 1.606 0 0-.37 2.063-1.072 3.063l-11.501 14.24c-2.814 4.019-6.476 7.372-10.727 9.824z" fill="#f8f7f7"/><path d="m418.062 15.042-11.04 15.77c-2.82 4.02-6.48 7.37-10.73 9.82l-344.25 198.51-6.92-11.98 373.149-215.22c.48.931.501 2.1-.209 3.1z" fill="#e8e8e8"/><g><path d="m49.452 224.47c3.526 6.101 3.867 13.167 1.538 19.275 0 0-.75 1.085-1.043 1.686-1.9 3.903-4.819 6.507-8.864 8.84-10.777 6.216-23.268 3.009-29.489-7.755-6.221-10.765-3.405-23.369 7.372-29.585 1.046-.604 2.922-2.23 2.922-2.23 10.168-3.899 21.947.05 27.564 9.769z" fill="#f8f7f7"/><path d="m50.99 243.745c-1.77 4.67-5.118 8.777-9.788 11.467-10.78 6.22-24.56 2.53-30.78-8.23-6.22-10.77-2.53-24.53 8.25-30.75 1.05-.6 2.126-1.12 3.216-1.53-2.34 6.11-1.986 13.18 1.534 19.28 5.62 9.71 17.398 13.673 27.568 9.763z" fill="#e8e8e8"/></g><g><path d="m109.642 331.722v.81c-1.32-.33-2.76.03-3.79 1.06l2.83-2.83z" fill="#7ad396"/></g><g><path d="m260.717 486.176c.034-.574.739-14.119-8.096-21.057-9.34-7.334-22.387-2.847-22.514-2.797-4.058 1.633-8.491 5.733-13.624 10.481-.328.303-.66.61-.996.921 0 0-4.71 3.863-7.328 6.06-4.92 4.128-11.576 7.261-18.404 10.649-31.732 15.748-77.99 7.557-97.447-27.277-7.371-13.198-9.381-27.494-6.511-43.787 2.811-15.96 7.164-31.853 18.648-44.539 5.571-6.155 15.079-6.63 21.234-1.056 6.155 5.572 6.628 15.079 1.056 21.234-15.093 16.673-19.58 39.157-10.911 54.678 11.618 20.8 44.865 23.531 61.608 15.221 7.138-3.542 12.722-8.707 18.634-14.175 6.701-6.199 13.63-12.608 22.826-16.305 9.91-3.985 33.593-7.644 52.301 7.047 20.292 15.935 19.837 41.53 19.54 46.499-.478 7.983-7.102 14.136-14.994 14.136-.302.001-.606-.009-.911-.026-8.29-.499-14.607-7.619-14.111-15.907" fill="#afefa5"/></g><g><path d="m215.672 473.552c-6.4 5.91-14.31 13.04-24.88 18.29-31.73 15.74-81.76 7.34-101.22-27.5-7.37-13.19-9.85-29.43-6.98-45.73 2.81-15.96 10.37-31.1 21.85-43.78 2.12-2.34 4.8-3.86 7.65-4.53-8.49 11.23-14.15 23.98-16.5 37.31-2.87 16.3-.39 32.54 6.98 45.73 19.46 34.84 69.49 43.24 101.22 27.5 4.39-2.18 8.32-4.68 11.88-7.29z" fill="#8ce1a4"/></g><g><path d="m123.714 174.811c0-7.98-6.217-14.508-14.072-15.003-.32-.02-.64-.035-.96-.035 0 0-8.76 3.234-11.493 7.021-1.783 2.472-1.734 5.041-1.734 8.319l-.255 134.079h28.514z" fill="#8ce1a4"/><g><path d="m108.68 327.878 25.432 28.313 23.311 23.311c6.437 6.437 6.437 16.874 0 23.311-6.437 6.437-16.874 6.437-23.311 0l-22.604-22.604c-.781-.781-1.803-1.171-2.826-1.172-.945-.402-2.078-.09-2.86.691l-23.133 21.255c-6.437 6.437-14.499 6.948-20.936.511-6.437-6.437-6.352-14.414.085-20.851l21.412-24.453z" fill="#8ce1a4"/></g><g><path d="m123.563 299.02 33.86 33.86c6.437 6.437 6.437 16.874 0 23.311-6.437 6.437-16.874 6.437-23.311 0l-22.604-22.604c-.781-.781-1.803-1.171-2.826-1.172-.912-.268-2.049-.207-2.83.574l-23.588 21.527c-6.437 6.437-14.244 6.097-20.681-.34-6.437-6.437-5.841-15.562.596-21.999l32.34-31.363c1.59-1.59 2.943-4.19 4.84-5.165 3.009-1.546 9.323-2.794 9.323-2.794.32 0 .64.007.96.022 5.062.23 10.056 2.278 13.921 6.143z" fill="#afefa5"/></g><path d="m108.682 159.772v133.09l-7.089 4.974-7.951 1.346v-124.37c0-8.3 6.74-15.04 15.04-15.04z" fill="#7ad396"/><g><path d="m108.682 332.416v46.622c-1.03 0-2.05.394-2.83 1.174l-22.6 22.6c-6.44 6.44-16.88 6.44-23.31 0-3.22-3.22-4.83-7.44-4.83-11.65 0-4.22 1.61-8.44 4.83-11.66l45.609-46.379c.78-.79 2.196-1.085 3.131-.707z" fill="#7ad396"/></g><g><path d="m108.682 292.855v39.56c-1.03 0-2.05.386-2.83 1.176l-22.6 22.6c-6.44 6.44-16.88 6.44-23.31 0-3.22-3.22-4.83-7.44-4.83-11.66s1.61-8.43 4.83-11.65l33.86-33.86c4.11-4.119 9.5-6.166 14.88-6.166z" fill="#8ce1a4"/></g></g><g><path d="m221.195 114.456c0-7.98-6.217-14.508-14.072-15.003-.32-.02-.64-.035-.96-.035 0 0-8.76 3.234-11.493 7.021-1.783 2.472-1.734 5.041-1.734 8.319l-.255 171.125h28.514z" fill="#8ce1a4"/><g><path d="m206.161 304.569 25.432 28.313 23.311 23.311c6.437 6.437 6.437 16.874 0 23.311-6.437 6.437-16.874 6.437-23.311 0l-22.604-22.604c-.781-.781-1.803-1.171-2.826-1.172-.945-.402-2.078-.09-2.86.691l-23.133 21.255c-6.437 6.437-14.499 6.948-20.936.511-6.437-6.437-6.352-14.414.085-20.851l21.411-24.454z" fill="#8ce1a4"/></g><g><path d="m221.044 275.71 33.86 33.86c6.437 6.437 6.437 16.874 0 23.311-6.437 6.437-16.874 6.437-23.311 0l-22.604-22.604c-.781-.781-1.803-1.171-2.826-1.172-.912-.268-2.049-.207-2.83.574l-23.588 21.527c-6.437 6.437-14.244 6.097-20.681-.34-6.437-6.437-5.841-15.562.596-21.999l32.34-31.362c1.59-1.59 2.943-4.19 4.84-5.165 3.009-1.546 9.323-2.794 9.323-2.794.32 0 .64.007.96.022 5.062.23 10.056 2.277 13.921 6.142z" fill="#afefa5"/></g><path d="m206.163 99.418v170.135l-7.089 4.974-7.952 1.346v-161.415c.001-8.3 6.741-15.04 15.041-15.04z" fill="#7ad396"/><g><path d="m206.163 309.106v46.622c-1.03 0-2.05.394-2.83 1.174l-22.6 22.6c-6.44 6.44-16.88 6.44-23.31 0-3.22-3.22-4.83-7.44-4.83-11.65 0-4.22 1.61-8.44 4.83-11.66l45.609-46.379c.78-.79 2.196-1.085 3.131-.707z" fill="#7ad396"/></g><g><path d="m206.163 269.546v39.56c-1.03 0-2.05.386-2.83 1.176l-22.6 22.6c-6.44 6.44-16.88 6.44-23.31 0-3.22-3.22-4.83-7.44-4.83-11.66s1.61-8.43 4.83-11.65l33.86-33.86c4.11-4.12 9.5-6.166 14.88-6.166z" fill="#8ce1a4"/></g></g><g><path d="m97.03 59.942 364.276 208.602 12.471-21.58-364.758-210.386c-4.248-2.45-8.98-3.94-13.865-4.366l-19.203-1.674c-1.395-.122-2.518.682-3.005 1.777-.4.898.51 1.986 1.169 2.926l12.187 14.878c2.815 4.018 6.477 7.372 10.728 9.823z" fill="#f8f7f7"/></g><g><path d="m466.582 259.412-6.82 11.81-364.76-210.39c-4.25-2.45-7.91-5.8-10.72-9.82l-11.05-15.77c-.66-.94-.687-2.028-.287-2.928z" fill="#e8e8e8"/></g><g><path d="m501.381 256.547c3.526 6.101 3.867 13.167 1.538 19.275 0 0-.75 1.085-1.043 1.686-1.9 3.903-4.819 6.507-8.864 8.84-10.777 6.216-23.268 3.009-29.489-7.755s-3.405-23.369 7.372-29.585c1.046-.604 2.922-2.23 2.922-2.23 10.168-3.9 21.947.049 27.564 9.769z" fill="#f8f7f7"/><path d="m502.92 275.822c-1.77 4.67-5.118 8.777-9.788 11.467-10.78 6.22-24.56 2.53-30.78-8.23-6.22-10.77-2.53-24.53 8.25-30.75 1.05-.6 2.126-1.12 3.216-1.53-2.34 6.11-1.986 13.18 1.534 19.28 5.619 9.71 17.397 13.673 27.568 9.763z" fill="#e8e8e8"/></g><g><path d="m318.67 147.913c0-7.98-6.217-14.508-14.072-15.003-.32-.02-.64-.035-.96-.035 0 0-8.76 3.234-11.493 7.021-1.783 2.472-1.734 5.041-1.734 8.319l-.255 160.978h28.514z" fill="#8ce1a4"/><g><path d="m303.637 327.878 25.432 28.313 23.311 23.311c6.437 6.437 6.437 16.874 0 23.311-6.437 6.437-16.874 6.437-23.311 0l-22.604-22.604c-.781-.781-1.803-1.171-2.826-1.172-.945-.402-2.078-.09-2.86.691l-23.133 21.255c-6.437 6.437-14.499 6.948-20.936.511-6.437-6.437-6.352-14.414.085-20.851l21.411-24.454z" fill="#8ce1a4"/></g><g><path d="m318.519 299.02 33.86 33.86c6.437 6.437 6.437 16.874 0 23.311-6.437 6.437-16.874 6.437-23.311 0l-22.604-22.604c-.781-.781-1.803-1.171-2.826-1.172-.912-.268-2.048-.207-2.83.574l-23.588 21.527c-6.437 6.437-14.244 6.097-20.681-.34-6.437-6.437-5.841-15.562.596-21.999l32.34-31.363c1.59-1.59 2.943-4.19 4.84-5.165 3.009-1.546 9.323-2.794 9.323-2.794.32 0 .64.007.96.022 5.062.23 10.056 2.278 13.921 6.143z" fill="#afefa5"/></g><path d="m303.639 132.874v159.988l-7.089 4.974-7.952 1.346v-151.268c.001-8.3 6.741-15.04 15.041-15.04z" fill="#7ad396"/><g><path d="m303.639 332.416v46.622c-1.03 0-2.05.394-2.83 1.174l-22.6 22.6c-6.44 6.44-16.88 6.44-23.31 0-3.22-3.22-4.83-7.44-4.83-11.65 0-4.22 1.61-8.44 4.83-11.66l45.609-46.379c.78-.79 2.196-1.085 3.131-.707z" fill="#7ad396"/></g><g><path d="m303.639 292.855v39.56c-1.03 0-2.05.386-2.83 1.176l-22.6 22.6c-6.44 6.44-16.88 6.44-23.31 0-3.22-3.22-4.83-7.44-4.83-11.66s1.61-8.43 4.83-11.65l33.86-33.86c4.11-4.119 9.5-6.166 14.88-6.166z" fill="#8ce1a4"/></g></g><g><path d="m416.157 203.874c0-7.98-6.217-14.508-14.072-15.003-.32-.02-.64-.035-.96-.035 0 0-8.76 3.234-11.493 7.021-1.783 2.472-1.734 5.041-1.734 8.319l-.255 81.707h28.514z" fill="#8ce1a4"/><g><path d="m401.123 304.569 25.432 28.313 23.311 23.311c6.437 6.437 6.437 16.874 0 23.311-6.437 6.437-16.874 6.437-23.311 0l-22.604-22.604c-.781-.781-1.803-1.171-2.826-1.172-.945-.402-2.078-.09-2.86.691l-23.133 21.255c-6.437 6.437-14.499 6.948-20.936.511-6.437-6.437-6.352-14.414.085-20.851l21.411-24.454z" fill="#8ce1a4"/></g><g><path d="m416.005 275.71 33.86 33.86c6.437 6.437 6.437 16.874 0 23.311-6.437 6.437-16.874 6.437-23.311 0l-22.604-22.604c-.781-.781-1.803-1.171-2.826-1.172-.912-.268-2.048-.207-2.83.574l-23.588 21.527c-6.437 6.437-14.244 6.097-20.681-.34-6.437-6.437-5.841-15.562.596-21.999l32.34-31.363c1.59-1.59 2.943-4.19 4.84-5.165 3.009-1.546 9.323-2.794 9.323-2.794.32 0 .64.007.96.022 5.062.231 10.056 2.278 13.921 6.143z" fill="#afefa5"/></g><path d="m401.125 188.836v80.717l-7.089 4.974-7.952 1.346v-71.997c.001-8.3 6.741-15.04 15.041-15.04z" fill="#7ad396"/><g><path d="m401.125 309.106v46.622c-1.03 0-2.05.394-2.83 1.174l-22.6 22.6c-6.44 6.44-16.88 6.44-23.31 0-3.22-3.22-4.83-7.44-4.83-11.65 0-4.22 1.61-8.44 4.83-11.66l45.609-46.379c.78-.79 2.196-1.085 3.131-.707z" fill="#7ad396"/></g><g><path d="m401.125 269.546v39.56c-1.03 0-2.05.386-2.83 1.176l-22.6 22.6c-6.44 6.44-16.88 6.44-23.31 0-3.22-3.22-4.83-7.44-4.83-11.66s1.61-8.43 4.83-11.65l33.86-33.86c4.11-4.12 9.5-6.166 14.88-6.166z" fill="#8ce1a4"/></g></g></g><path d="m510.865 260.031c-2.077-7.737-7.048-14.204-13.996-18.209-7.035-4.055-15.049-4.929-22.366-3.081l-50.859-29.317v-5.522c0-12.417-10.108-22.519-22.533-22.519-5.975 0-11.41 2.341-15.447 6.147l-59.494-34.295v-5.258c0-12.418-10.108-22.52-22.533-22.52-5.89 0-11.257 2.273-15.275 5.984l-17.192-9.91 53.751-30.977c3.588-2.068 4.819-6.651 2.75-10.237-2.07-3.586-6.657-4.817-10.244-2.748l-61.269 35.309-13.024-7.507 142.889-82.347c3.277-1.889 7.001-3.061 10.769-3.389l9.59-.835-5.508 7.856c-2.172 3.099-5.054 5.736-8.332 7.625l-44.832 25.837c-3.589 2.068-4.82 6.651-2.751 10.237s6.655 4.815 10.244 2.748l44.832-25.837c5.164-2.977 9.702-7.129 13.123-12.009l14.736-21.021c1.673-2.386 1.81-5.524.354-8.047-1.457-2.524-4.237-3.97-7.147-3.721l-25.611 2.232c-5.934.517-11.799 2.363-16.96 5.337l-150.408 86.682-50.504-29.112c-3.589-2.068-8.175-.837-10.244 2.748s-.838 8.169 2.75 10.237l111.22 64.111c-.156 1.07-.241 2.162-.241 3.275v11.601l-182.344-105.108c-3.279-1.891-6.161-4.528-8.333-7.627l-5.507-7.855 9.589.835c3.768.328 7.492 1.5 10.769 3.389l34.418 19.84c3.588 2.066 8.174.836 10.244-2.748 2.069-3.586.838-8.169-2.75-10.237l-34.418-19.84c-5.161-2.975-11.026-4.82-16.96-5.337l-25.61-2.232c-2.904-.248-5.691 1.197-7.147 3.721-1.457 2.523-1.319 5.66.354 8.047l14.735 21.02c3.421 4.879 7.958 9.031 13.123 12.01l93.821 54.057-62.216 35.863c-3.875-3.143-8.807-5.031-14.175-5.031-12.425 0-22.533 10.102-22.533 22.52v3.665l-48.857 28.157c-7.317-1.848-15.332-.975-22.369 3.082-13.437 7.477-19.531 26.389-10.997 40.969 8.205 13.991 26.295 19.217 41.018 10.972 6.828-3.936 11.739-10.252 13.878-17.811l27.326-15.748v67.888l-31.512 31.49c-9.349 9.345-9.349 24.55.001 33.896 2.247 2.245 4.836 3.936 7.597 5.102l-7.598 7.594c-9.349 9.345-9.349 24.549.001 33.896 4.676 4.672 10.816 7.007 16.957 7.007 1.373 0 2.745-.135 4.102-.369-3.847 17.234-1.191 38.467 7.32 53.209 10.087 18.047 28.136 30.95 50.822 36.331 7.425 1.761 14.983 2.629 22.427 2.628 13.502 0 26.624-2.857 37.852-8.425 16.33-7.625 26.039-20.845 38.562-29.172 1.735-.658 9.716-2.726 15.294 1.65 4.757 3.733 5.396 11.871 5.242 14.701-.741 12.394 8.746 23.082 21.164 23.824 11.591.886 23.181-8.864 23.821-21.137.336-5.62.836-34.579-22.394-52.81-21.4-16.794-48.428-12.643-59.727-8.102-17.034 6.608-26.564 22.21-41.997 30.702-4.951 2.457-11.982 3.75-19.344 3.569-4.129-.103-7.583 3.161-7.689 7.3-.107 4.138 3.163 7.578 7.304 7.684 9.826.253 19.223-1.566 26.397-5.126 15.063-7.204 24.925-23.248 40.922-30.221 6.851-2.753 28.269-7.046 44.869 5.982 17.349 13.617 16.943 35.816 16.685 40.126-.125 2.871-3.207 7.079-7.969 7.068-4.147-.248-7.319-3.822-7.072-7.967v-.001c.11-1.837.734-18.214-10.951-27.383-12.889-10.115-29.718-3.944-29.943-3.855-13.384 6.471-23.313 21.895-39.844 29.738-28.714 14.241-73.876 6.828-91.338-24.416-6.532-11.689-8.713-26.16-6.14-40.747 1.17-6.641 3.266-13.166 6.213-19.418l12.496-12.489 7.775 7.77c-13.311 18.257-16.383 41.093-7.189 57.543 2 3.576 4.585 6.84 7.684 9.705 1.443 1.333 3.268 1.992 5.09 1.992 2.018 0 4.031-.809 5.509-2.407 2.812-3.04 2.626-7.782-.415-10.592-1.939-1.792-3.546-3.814-4.773-6.01-6.076-10.872-3.971-26.288 4.861-39.472 8.49 10.164 25.642 11.614 35.504 1.585 4.514-4.512 6.827-10.391 6.982-16.316 5.925-.158 11.803-2.469 16.315-6.977l20.127-20.116 20.128 20.116c4.506 4.504 10.374 6.813 16.291 6.976.159 6.164 2.629 11.939 7.009 16.317 9.351 9.345 24.566 9.342 33.917 0l20.127-20.116 20.128 20.116c4.676 4.673 10.816 7.008 16.957 7.008s12.284-2.337 16.959-7.008c4.38-4.378 6.85-10.153 7.009-16.318 5.918-.163 11.786-2.474 16.293-6.976l20.127-20.116 20.128 20.116c4.676 4.673 10.816 7.008 16.957 7.008s12.284-2.337 16.959-7.008c8.483-8.194 9.781-24.365 0-33.896l-7.599-7.594c2.761-1.166 5.352-2.857 7.599-5.102 4.529-4.527 7.024-10.547 7.024-16.948 0-6.402-2.495-12.422-7.024-16.948l-31.512-31.492v-13.696l29.326 16.905c2.139 7.559 7.051 13.875 13.878 17.81 4.717 2.719 9.873 4.011 14.964 4.011 10.384 0 20.498-5.377 26.054-14.983 4.016-6.933 5.082-15.015 3.004-22.755zm-109.755-63.656c4.154 0 7.534 3.377 7.534 7.528v59.147c-2.426-.659-4.952-1.007-7.534-1.007-2.581 0-5.107.348-7.533 1.007v-59.147c0-4.152 3.379-7.528 7.533-7.528zm-53.99 154.4c-2.602 2.655-8.576 3.827-12.76.042l-25.422-25.406c-1.407-1.405-3.314-2.195-5.304-2.195-1.989 0-3.896.79-5.303 2.195l-25.429 25.415c-3.488 3.484-9.148 3.497-12.654.045-2.663-2.719-4.19-8.699.213-13.004l33.596-33.575c2.559-2.557 5.96-3.965 9.578-3.965 3.619 0 7.02 1.408 9.579 3.966l33.637 33.615c2.839 2.654 4.027 8.566.269 12.867zm-171.689-23.243c-3.477 3.473-9.114 3.496-12.62.076-2.682-2.743-4.165-8.186-.084-12.771l33.859-33.839c2.559-2.557 5.96-3.965 9.579-3.965 3.618 0 7.019 1.408 9.578 3.966l33.86 33.838c1.696 1.695 2.631 3.95 2.631 6.347 0 2.331-.89 4.522-2.497 6.201-2.64 2.79-8.601 3.926-12.847.138l-25.422-25.406c-1.407-1.405-3.314-2.195-5.304-2.195s-3.896.79-5.304 2.195zm-44.203-31.494v-93.858l52.403-30.2v100.765l-31.511 31.492c-2.21 2.208-3.932 4.774-5.12 7.564zm210.717 15.767-15.776-15.766v-93.177l52.408 30.21v39.672l-31.511 31.493c-2.211 2.21-3.933 4.776-5.121 7.568zm36.842-110.932c-.134.992-.21 2.002-.21 3.03v11.864l-52.408-30.21v-15.015zm-75.151-60.424c4.154 0 7.534 3.378 7.534 7.529v138.365c-2.426-.659-4.952-1.007-7.534-1.007-2.581 0-5.107.348-7.533 1.007v-138.365c0-4.151 3.379-7.529 7.533-7.529zm-22.533 155.59-15.775 15.764c-1.188-2.791-2.91-5.357-5.12-7.566l-31.512-31.491v-41.39c0-4.14-3.357-7.495-7.5-7.495-4.142 0-7.5 3.355-7.5 7.495v31.694c-2.425-.659-4.952-1.007-7.533-1.007-2.582 0-5.108.348-7.534 1.007v-133.705l15.067 8.685v58.279c0 4.14 3.357 7.495 7.5 7.495 4.142 0 7.5-3.355 7.5-7.495v-49.632l52.406 30.209v119.153zm-97.472-141.363-52.403 30.2v-10.012c0-1.617-.175-3.193-.5-4.714l52.904-30.488v15.014zm-74.936 12.659c4.154 0 7.534 3.378 7.534 7.529v111.479c-2.426-.659-4.952-1.007-7.534-1.007-2.581 0-5.108.348-7.534 1.007v-111.479c0-4.152 3.379-7.529 7.534-7.529zm-71.232 81.389c-7.181 4.143-16.393 1.68-20.536-5.488-3.389-5.584-2.344-16.179 5.503-20.483 5.712-3.572 16.2-2.175 20.537 5.488 3.387 5.585 2.342 16.18-5.504 20.483zm21.131-21.99c-.655-2.064-1.531-4.074-2.641-5.994-1.117-1.931-2.423-3.685-3.873-5.265l34.081-19.641v15.014zm6.663 124.093c-3.503-3.501-3.503-9.197 0-12.697l33.859-33.837c2.559-2.558 5.961-3.966 9.579-3.966s7.02 1.408 9.58 3.966l33.514 33.493c3.012 2.675 4.176 8.83.274 13.105-3.507 3.43-9.144 3.411-12.625-.055l-25.44-25.424c-2.93-2.926-7.677-2.926-10.607 0l-25.44 25.424c-3.503 3.488-9.195 3.486-12.694-.009zm86.876 46.591c-3.503 3.497-9.202 3.501-12.705 0l-25.431-25.415c-2.93-2.926-7.677-2.926-10.607 0l-25.43 25.415c-3.503 3.499-9.202 3.5-12.705.001-3.503-3.501-3.503-9.196 0-12.696l43.438-43.412 43.132 43.107c2.937 2.685 4.14 8.646.308 13zm59.333-48.709c-2.928-2.926-7.676-2.926-10.606 0l-25.43 25.415c-3.478 3.474-9.119 3.495-12.625.071-2.707-2.737-4.16-8.363.016-12.861l43.342-43.317 43.355 43.328c2.663 2.669 4.183 8.417.001 12.854-3.51 3.42-9.146 3.398-12.621-.075zm135.609 48.709c-3.504 3.5-9.203 3.5-12.705 0l-25.432-25.415c-2.928-2.926-7.676-2.926-10.606 0l-25.43 25.415c-3.504 3.5-9.202 3.5-12.704 0-2.638-2.693-4.077-8.581.244-12.939l43.193-43.168 43.215 43.189c2.768 2.721 4.369 8.274.225 12.918zm97.474-23.294c-3.504 3.5-9.203 3.5-12.705 0l-25.432-25.415c-2.928-2.926-7.676-2.926-10.606 0l-25.43 25.415c-3.481 3.477-9.129 3.496-12.634.063-2.672-2.719-4.152-8.287-.016-12.811l43.383-43.359 43.439 43.412c2.544 2.674 4.092 8.076.001 12.695zm2.63-52.939c0 2.398-.935 4.652-2.631 6.347-3.504 3.5-9.202 3.5-12.704 0-.003-.003-.007-.006-.01-.009l-25.422-25.406c-1.407-1.405-3.314-2.195-5.304-2.195-1.989 0-3.896.79-5.304 2.195l-25.429 25.415c-3.487 3.483-9.148 3.497-12.652.047-2.636-2.72-4.128-8.179-.052-12.743l33.858-33.837c2.559-2.558 5.961-3.966 9.579-3.966s7.02 1.408 9.579 3.966l33.86 33.838c1.698 1.696 2.632 3.95 2.632 6.348zm-23.536-94.455 36.082 20.799c-1.451 1.58-2.757 3.335-3.875 5.266h.001c-1.11 1.92-1.986 3.929-2.641 5.993l-29.568-17.044v-15.014zm71.235 48.561c-4.142 7.165-13.355 9.628-20.536 5.488-6.293-3.699-9.788-12.255-5.503-20.483 4.203-6.445 12.264-9.864 20.536-5.488 6.294 3.696 9.787 12.256 5.503 20.483z"/></g></svg>