<svg id="Capa_1" enable-background="new 0 0 511.986 511.986" height="512" viewBox="0 0 511.986 511.986" width="512" xmlns="http://www.w3.org/2000/svg"><g><g><g><path d="m371.878 292.333c-24.179 0-43.779 19.601-43.779 43.779v93.704c0 19.421-15.744 35.165-35.165 35.165h-65.879c-19.421 0-35.165-15.744-35.165-35.165v-31.045c0-7.86 1.76-15.621 5.152-22.712l44.241-92.504-31.827-15.222-31.769 66.427c-2.23 4.663-8.868 4.663-11.098 0l-31.77-66.427-31.827 15.222 44.241 92.504c3.391 7.091 5.152 14.852 5.152 22.712v33.403c0 39.937 32.375 72.312 72.312 72.312h70.595c39.937 0 72.312-32.375 72.312-72.312v-90.842c0-5.244 4.251-9.494 9.494-9.494h63.946v-39.505z" fill="#1c8ae5"/></g><g><path d="m241.283 283.555-18.35-8.776-13.477-6.446-29.038 60.716 2.731 5.711c2.23 4.663 8.868 4.663 11.097 0l10.97-22.937c1.858-3.885 5.781-6.357 10.087-6.357h15.501z" fill="#1e6ee2"/></g><g><path d="m344.659 429.816v-93.704c0-24.179 19.601-43.779 43.779-43.779h-16.56c-24.179 0-43.779 19.601-43.779 43.779v93.704c0 19.421-15.744 35.165-35.165 35.165h16.56c19.421 0 35.165-15.744 35.165-35.165z" fill="#1e6ee2"/></g><g><path d="m168.945 432.174v-33.403c0-7.86-1.76-15.621-5.152-22.712l-26.107-54.588c-3.549-7.421 1.861-16.006 10.087-16.006h4.805l-14.677-30.688-3.083-6.446-31.827 15.222 44.241 92.505c3.392 7.091 5.152 14.852 5.152 22.712v33.403c0 39.937 32.375 72.312 72.312 72.312h16.56c-39.936.001-72.311-32.374-72.311-72.311z" fill="#1e6ee2"/></g><g><path d="m121.508 63.393-22.45-7.623v-40l22.45-7.623c7.945-2.698 16.19 3.21 16.19 11.6v32.045c-.001 8.392-8.245 14.299-16.19 11.601z" fill="#b3e59f"/></g><g><path d="m222.767 8.146 22.45 7.623v40l-22.45 7.623c-7.945 2.698-16.19-3.21-16.19-11.6v-32.045c0-8.391 8.244-14.298 16.19-11.601z" fill="#b3e59f"/></g><g><path d="m31.046 175.597h42.537l-21.604-59.717c-5.086-14.059-2.983-29.717 5.633-41.936l3.95-5.602c5.558-7.883 14.602-12.572 24.247-12.572h13.248v-40h-10.405c-24.432 0-47.339 11.877-61.418 31.844l-.001.001c-17.596 24.955-21.891 56.932-11.503 85.646z" fill="#e9efff"/></g><g><path d="m282.712 68.342 3.95 5.602c8.616 12.219 10.719 27.876 5.633 41.935l-21.603 59.717h42.537l15.316-42.337c10.387-28.713 6.092-60.69-11.503-85.644-14.079-19.968-36.987-31.845-61.419-31.845h-10.405v40h13.247c9.646 0 18.689 4.689 24.247 12.572z" fill="#e9efff"/></g><g><path d="m247.127 240.735c-2.15 5.943-7.792 9.902-14.112 9.902h-121.755c-6.32 0-11.962-3.959-14.112-9.902l-23.565-65.138h-42.537l32.937 91.043c5.21 14.402 18.885 23.997 34.2 23.997h147.91c15.315 0 28.99-9.595 34.2-23.997l32.936-91.043h-42.537z" fill="#42c3fc"/></g><g><path d="m45.234 47.615c12.609-17.883 32.3-29.268 53.824-31.453v-.392h-10.405c-24.432 0-47.339 11.877-61.418 31.844l-.001.001c-17.597 24.955-21.892 56.932-11.504 85.646l15.316 42.336h18l-15.316-42.336c-10.388-28.714-6.093-60.691 11.504-85.646z" fill="#d3dcfb"/></g><g><path d="m304.663 73.945-3.95-5.602c-5.558-7.883-14.602-12.572-24.248-12.572h-13.247v-39.609c-2.51-.255-5.044-.392-7.595-.392h-10.405v40h13.247c9.646 0 18.689 4.689 24.248 12.572l3.95 5.602c8.616 12.219 10.719 27.876 5.633 41.935l-21.603 59.717h18l21.603-59.717c5.086-14.058 2.983-29.716-5.633-41.934z" fill="#d3dcfb"/></g><g><path d="m265.127 240.735 23.565-65.138h-18l-23.565 65.138c-2.15 5.943-7.792 9.902-14.112 9.902h18c6.32 0 11.962-3.959 14.112-9.902z" fill="#1aa9e8"/></g><g><path d="m81.982 266.64-32.937-91.043h-18l32.937 91.043c5.21 14.402 18.885 23.997 34.2 23.997h18c-15.315 0-28.989-9.595-34.2-23.997z" fill="#1aa9e8"/></g><g><circle cx="451.824" cy="312.086" fill="#bac5e2" r="50"/></g><g><path d="m419.464 312.086c0-24.603 17.775-45.041 41.18-49.209-2.865-.51-5.809-.791-8.82-.791-27.614 0-50 22.386-50 50s22.386 50 50 50c3.011 0 5.955-.281 8.82-.791-23.405-4.169-41.18-24.607-41.18-49.209z" fill="#a7b4d1"/></g><g><circle cx="451.824" cy="312.086" fill="#e9efff" r="19.339"/></g></g><g><path d="m498.167 278.043c-2.454-3.336-7.15-4.051-10.485-1.597-3.337 2.455-4.052 7.149-1.597 10.486 5.39 7.327 8.238 16.025 8.238 25.153 0 23.435-19.065 42.5-42.5 42.5s-42.5-19.065-42.5-42.5 19.065-42.5 42.5-42.5c4.925 0 9.748.833 14.335 2.476 3.897 1.395 8.193-.632 9.59-4.531 1.396-3.9-.632-8.193-4.531-9.59-6.215-2.226-12.739-3.355-19.394-3.355-31.706 0-57.5 25.794-57.5 57.5 0 4.205.466 8.302 1.327 12.253h-18.553c-9.37 0-16.994 7.624-16.994 16.994v90.842c0 35.737-29.075 64.812-64.812 64.812h-70.595c-35.737 0-64.812-29.075-64.812-64.812v-33.403c0-8.925-2.035-17.898-5.886-25.948l-35.72-74.687h22.481l19.063 39.86c2.29 4.788 7.009 7.761 12.316 7.761 5.306 0 10.024-2.975 12.312-7.761l19.063-39.859h22.481l-35.72 74.687c-3.851 8.05-5.886 17.023-5.886 25.948v31.045c0 23.525 19.14 42.665 42.665 42.665h65.879c23.525 0 42.665-19.14 42.665-42.665v-93.704c0-20.004 16.274-36.279 36.279-36.279h4.605c4.143 0 7.5-3.358 7.5-7.5s-3.357-7.5-7.5-7.5h-4.605c-28.275 0-51.279 23.004-51.279 51.279v93.704c0 15.254-12.41 27.665-27.665 27.665h-65.879c-15.255 0-27.665-12.411-27.665-27.665v-31.045c0-6.699 1.527-13.434 4.417-19.477l38.815-81.158h3.47c18.412 0 34.99-11.632 41.253-28.946l48.253-133.38c11.212-30.994 6.566-65.58-12.427-92.517-15.461-21.931-40.713-35.024-67.547-35.024h-9.165l-21.28-7.226c-6.013-2.043-12.689-1.053-17.854 2.647-5.164 3.701-8.247 9.702-8.247 16.055v32.045c0 6.353 3.083 12.354 8.247 16.054 3.393 2.431 7.437 3.692 11.519 3.692 2.131 0 4.272-.344 6.336-1.044l21.275-7.224h12.012c7.197 0 13.97 3.512 18.117 9.394l3.951 5.603c7.198 10.208 8.958 23.315 4.709 35.062l-45.168 124.855c-1.072 2.962-3.909 4.953-7.06 4.953h-121.754c-3.15 0-5.987-1.991-7.06-4.953l-45.168-124.854c-4.25-11.746-2.489-24.854 4.71-35.062l3.949-5.602c4.148-5.882 10.921-9.394 18.118-9.394h12.01l21.277 7.225c2.063.701 4.204 1.045 6.336 1.045 4.081 0 8.126-1.261 11.519-3.692 5.164-3.7 8.247-9.702 8.247-16.055v-32.046c0-6.353-3.083-12.354-8.247-16.055-5.164-3.701-11.839-4.69-17.854-2.647l-21.278 7.224h-9.167c-26.833 0-52.085 13.093-67.548 35.022-18.994 26.938-23.64 61.525-12.427 92.52l48.253 133.379c6.263 17.313 22.841 28.945 41.252 28.945h3.47l38.815 81.158c2.89 6.042 4.417 12.777 4.417 19.477v33.403c0 44.008 35.804 79.812 79.812 79.812h70.595c44.009 0 79.812-35.804 79.812-79.812v-90.842c0-1.1.895-1.994 1.994-1.994h24.108c9.727 17.994 28.767 30.247 50.618 30.247 31.706 0 57.5-25.794 57.5-57.5.001-12.349-3.857-24.12-11.156-34.042zm-326.03 50.936-14.751-30.843h29.502zm65.58-278.584-17.361 5.895c-2.091.708-3.699-.209-4.296-.637-.596-.427-1.983-1.659-1.983-3.861v-32.045c0-2.203 1.388-3.435 1.983-3.862.44-.315 1.433-.897 2.76-.897.473 0 .988.074 1.536.26l17.361 5.896zm61.631 68.036c5.915-16.352 3.465-34.598-6.556-48.808l-3.951-5.603c-6.954-9.862-18.31-15.75-30.376-15.75h-5.748v-25h2.905c21.964 0 42.633 10.717 55.289 28.667 16.172 22.935 20.127 52.382 10.581 78.771l-13.526 37.388h-26.586zm-175.43-103.182c2.085-.709 3.698.21 4.295.637s1.984 1.659 1.984 3.862v32.045c0 2.203-1.388 3.435-1.984 3.862-.596.428-2.208 1.344-4.295.637l-17.361-5.896v-29.252zm-90.553 36.687c12.656-17.949 33.324-28.666 55.288-28.666h2.904v25h-5.748c-12.066 0-23.422 5.888-30.377 15.75l-3.949 5.602c-10.021 14.211-12.473 32.458-6.557 48.81l17.967 49.665h-26.585l-13.525-37.387c-9.547-26.391-5.592-55.839 10.582-78.774zm37.671 212.153-29.301-80.992h26.585l21.775 60.19c3.214 8.882 11.72 14.85 21.165 14.85h121.755c9.445 0 17.951-5.968 21.165-14.85l21.774-60.189h26.585l-29.3 80.992c-4.121 11.394-15.031 19.048-27.147 19.048h-147.91c-12.115-.001-23.025-7.656-27.146-19.049z"/><path d="m451.824 285.246c-14.799 0-26.839 12.04-26.839 26.839s12.04 26.839 26.839 26.839c14.8 0 26.84-12.04 26.84-26.839-.001-14.798-12.041-26.839-26.84-26.839zm0 38.679c-6.528 0-11.839-5.311-11.839-11.839s5.311-11.839 11.839-11.839 11.84 5.311 11.84 11.839c-.001 6.528-5.312 11.839-11.84 11.839z"/></g></g></svg>