<svg id="Capa_1" enable-background="new 0 0 512 512" height="512" viewBox="0 0 512 512" width="512" xmlns="http://www.w3.org/2000/svg"><g><g><g><path d="m120.224 420.36v-155.72c0-31.111 10.565-61.3 29.966-85.622 13.059-16.372 20.172-36.694 20.172-57.637v-49.563h63.752v49.564c0 20.943 7.112 41.265 20.172 57.637 19.4 24.322 29.966 54.51 29.966 85.622v155.72h-164.028z" fill="#e9efff"/></g><g><path d="m237.287 366.591c-14.235 14.702-23.359 33.507-26.115 53.769h73.078v-155.72c0-29.89-9.757-58.925-27.727-82.727-6.374 9.526-10.099 20.967-10.099 33.263v129.007c0 8.377-3.31 16.39-9.137 22.408z" fill="#d3dcfb"/></g><g><path d="m284.25 420.36v28.593c0 30.678-24.869 55.547-55.547 55.547h-52.932c-30.678 0-55.547-24.869-55.547-55.547v-28.593z" fill="#e5979d"/></g><g><path d="m284.25 448.953v-28.593h-73.078c-.799 5.874-1.069 11.868-.766 17.923 1.208 24.139 11.438 46.788 28.804 63.773.414.405.846.785 1.266 1.182 25.021-5.401 43.774-27.648 43.774-54.285z" fill="#e17f85"/></g><g><path d="m195.432 504.5h-19.662c-30.678 0-55.547-24.869-55.547-55.547v-28.593h19.662v28.593c0 30.678 24.87 55.547 55.547 55.547z" fill="#e17f85"/></g><g><path d="m170.361 39.376v32.442h63.752v-32.442c0-17.605-14.271-31.876-31.876-31.876-17.605 0-31.876 14.271-31.876 31.876z" fill="#bac5e2"/></g><g><path d="m190.041 39.376v32.442h-19.68v-32.442c0-17.604 14.271-31.876 31.876-31.876 3.435 0 6.74.55 9.84 1.555-12.788 4.148-22.036 16.151-22.036 30.321z" fill="#a7b4d1"/></g><g><path d="m169.869 179.018c-19.4 24.322-29.966 54.51-29.966 85.622v155.72h-19.68v-155.72c0-31.111 10.565-61.3 29.966-85.622 13.059-16.372 20.172-36.694 20.172-57.637v-49.563h19.68v49.564c0 20.942-7.112 41.264-20.172 57.636z" fill="#d3dcfb"/></g><g><path d="m215.177 216.13h-25.88c-8.251 0-14.94 6.689-14.94 14.94v67.14c0 8.251 6.689 14.94 14.94 14.94h25.88c8.251 0 14.94-6.689 14.94-14.94v-67.14c0-8.251-6.689-14.94-14.94-14.94z" fill="#42c3fc"/></g><g><path d="m202.237 389.04c-11.83 0-21.42-9.59-21.42-21.42 0-11.83 9.59-21.42 21.42-21.42 11.83 0 21.42 9.59 21.42 21.42 0 11.83-9.59 21.42-21.42 21.42z" fill="#ffdd40"/></g><g><path d="m188.397 231.07v67.14c0 8.251 6.689 14.94 14.94 14.94h-14.04c-8.251 0-14.94-6.689-14.94-14.94v-67.14c0-8.251 6.689-14.94 14.94-14.94h14.04c-8.251 0-14.94 6.689-14.94 14.94z" fill="#1aa9e8"/></g><g><path d="m341.377 362.664v-147.488c0-19.317-15.659-34.976-34.976-34.976-19.317 0-34.976 15.659-34.976 34.976v147.484c0 5.225-2.548 10.094-6.775 13.165-18.702 13.585-30.534 36.047-29.275 61.208 1.845 36.879 32.021 66.375 68.931 67.436 40.234 1.157 73.214-31.114 73.214-71.088 0-23.65-11.553-44.592-29.315-57.519-4.244-3.086-6.828-7.951-6.828-13.198z" fill="#b8f0ff"/></g><g><path d="m253.232 437.034c-1.259-25.161 10.574-47.623 29.275-61.208 4.228-3.071 6.775-7.94 6.775-13.165v-147.485c0-16.23 11.057-29.875 26.047-33.822-2.851-.751-5.842-1.155-8.929-1.155-19.317 0-34.976 15.659-34.976 34.976v147.484c0 5.225-2.548 10.094-6.775 13.165-18.702 13.585-30.534 36.047-29.275 61.208 1.845 36.879 32.021 66.375 68.931 67.436 3.744.108 7.425-.076 11.023-.527-33.736-4.247-60.366-32.332-62.096-66.907z" fill="#8ddcff"/></g><g><path d="m306.401 451.234c-10.836 0-19.62-8.784-19.62-19.62 0-10.836 8.784-19.62 19.62-19.62 10.836 0 19.62 8.784 19.62 19.62 0 10.836-8.784 19.62-19.62 19.62z" fill="#42c3fc"/></g></g><g><path d="m202.237 338.7c-15.946 0-28.92 12.974-28.92 28.92s12.974 28.92 28.92 28.92 28.92-12.974 28.92-28.92-12.974-28.92-28.92-28.92zm0 42.84c-7.675 0-13.92-6.245-13.92-13.92s6.245-13.92 13.92-13.92 13.92 6.245 13.92 13.92-6.245 13.92-13.92 13.92z"/><path d="m237.617 231.07c0-12.374-10.066-22.44-22.44-22.44h-25.88c-12.374 0-22.44 10.066-22.44 22.44v67.14c0 12.374 10.066 22.44 22.44 22.44h25.88c12.374 0 22.44-10.066 22.44-22.44zm-15 67.14c0 4.103-3.337 7.44-7.44 7.44h-25.88c-4.103 0-7.44-3.337-7.44-7.44v-67.14c0-4.103 3.337-7.44 7.44-7.44h25.88c4.103 0 7.44 3.337 7.44 7.44z"/><path d="m352.617 369.799c-2.342-1.705-3.74-4.372-3.74-7.135v-147.488c0-23.421-19.055-42.476-42.476-42.476s-42.476 19.055-42.476 42.476v21.904c0 4.142 3.358 7.5 7.5 7.5s7.5-3.358 7.5-7.5v-21.904c0-15.15 12.326-27.476 27.476-27.476s27.476 12.326 27.476 27.476v147.488c0 7.544 3.706 14.745 9.914 19.263 16.423 11.953 26.229 31.188 26.229 51.455 0 17.339-6.85 33.544-19.289 45.631-12.433 12.081-28.834 18.475-46.21 17.96-32.928-.946-60.011-27.439-61.655-60.314-1.081-21.593 8.711-42.066 26.193-54.765 6.178-4.489 9.867-11.678 9.867-19.233v-94.021c0-4.142-3.358-7.5-7.5-7.5s-7.5 3.358-7.5 7.5v94.021c0 2.769-1.377 5.422-3.683 7.097-14.79 10.743-25.122 25.991-29.738 43.102h-102.78v-148.22c0-29.296 10.061-58.043 28.329-80.945 14.063-17.631 21.808-39.761 21.808-62.313v-42.064h48.752v42.063c0 22.553 7.745 44.683 21.808 62.313 2.583 3.238 7.301 3.769 10.54 1.187 3.238-2.583 3.77-7.302 1.187-10.54-11.952-14.984-18.535-33.792-18.535-52.96v-82.005c-.001-21.712-17.665-39.376-39.377-39.376s-39.376 17.664-39.376 39.376v82.005c0 19.167-6.583 37.976-18.535 52.96-20.379 25.549-31.603 57.618-31.603 90.299v184.313c0 34.764 28.283 63.047 63.047 63.047h52.932c4.142 0 7.5-3.358 7.5-7.5s-3.358-7.5-7.5-7.5h-52.932c-26.493 0-48.047-21.554-48.047-48.047v-21.093h100.259c-.221 3.154-.26 6.341-.099 9.549 2.033 40.638 35.507 73.388 76.206 74.558.781.022 1.559.034 2.337.034 20.583-.001 39.951-7.844 54.756-22.23 15.371-14.935 23.836-34.961 23.836-56.389.001-25.048-12.112-48.818-32.401-63.583zm-174.756-330.423c0-13.441 10.935-24.376 24.376-24.376s24.376 10.935 24.376 24.376v24.942h-48.752z"/><path d="m306.401 252.62c-4.142 0-7.5 3.358-7.5 7.5v145.437c-11.316 3.263-19.62 13.705-19.62 26.057 0 14.954 12.166 27.12 27.12 27.12s27.12-12.166 27.12-27.12c0-12.352-8.304-22.794-19.62-26.057v-145.437c0-4.142-3.358-7.5-7.5-7.5zm12.12 178.994c0 6.683-5.437 12.12-12.12 12.12s-12.12-5.437-12.12-12.12 5.437-12.12 12.12-12.12 12.12 5.437 12.12 12.12z"/><path d="m373.777 223.63h18c4.142 0 7.5-3.358 7.5-7.5s-3.358-7.5-7.5-7.5h-18c-4.142 0-7.5 3.358-7.5 7.5s3.358 7.5 7.5 7.5z"/><path d="m391.777 241.95h-18c-4.142 0-7.5 3.358-7.5 7.5s3.358 7.5 7.5 7.5h18c4.142 0 7.5-3.358 7.5-7.5s-3.358-7.5-7.5-7.5z"/><path d="m391.777 275.27h-18c-4.142 0-7.5 3.358-7.5 7.5s3.358 7.5 7.5 7.5h18c4.142 0 7.5-3.358 7.5-7.5s-3.358-7.5-7.5-7.5z"/><path d="m391.777 308.59h-18c-4.142 0-7.5 3.358-7.5 7.5s3.358 7.5 7.5 7.5h18c4.142 0 7.5-3.358 7.5-7.5s-3.358-7.5-7.5-7.5z"/><path d="m391.777 341.91h-18c-4.142 0-7.5 3.358-7.5 7.5s3.358 7.5 7.5 7.5h18c4.142 0 7.5-3.358 7.5-7.5s-3.358-7.5-7.5-7.5z"/></g></g></svg>