<svg id="Capa_1" enable-background="new 0 0 512 512" height="512" viewBox="0 0 512 512" width="512" xmlns="http://www.w3.org/2000/svg"><g><g><g><path d="m350.987 457.929h35.976l8.38 12.668c3.419 5.168 5.242 11.228 5.242 17.425v5.374c0 6.132-4.971 11.104-11.104 11.104h-41.013c-6.132 0-11.104-4.971-11.104-11.104v-5.374c0-6.197 1.823-12.257 5.242-17.425z" fill="#1c8ae5"/></g><g><path d="m353.925 493.396v-5.374c0-6.197 1.823-12.257 5.242-17.425l8.38-12.668h-16.56l-8.38 12.668c-3.419 5.168-5.242 11.228-5.242 17.425v5.374c0 6.132 4.971 11.104 11.104 11.104h16.56c-6.133 0-11.104-4.971-11.104-11.104z" fill="#1e6ee2"/></g><g><path d="m161.013 457.929h-35.976l-8.38 12.668c-3.419 5.168-5.242 11.228-5.242 17.425v5.374c0 6.132 4.971 11.104 11.104 11.104h41.013c6.132 0 11.104-4.971 11.104-11.104v-5.374c0-6.197-1.823-12.257-5.242-17.425z" fill="#1c8ae5"/></g><g><path d="m127.975 493.396v-5.374c0-6.197 1.823-12.257 5.242-17.425l8.38-12.668h-16.56l-8.38 12.668c-3.419 5.168-5.242 11.228-5.242 17.425v5.374c0 6.132 4.971 11.104 11.104 11.104h16.56c-6.133 0-11.104-4.971-11.104-11.104z" fill="#1e6ee2"/></g><g><path d="m157.868 7.5h68.208v35.976h-68.208c-9.934 0-17.988-8.053-17.988-17.988 0-9.935 8.053-17.988 17.988-17.988z" fill="#ffdd40"/></g><g><path d="m226.075 7.5v35.976h72.257c8.805 0 15.942 7.138 15.942 15.942v27.904c0 7.589-3.015 14.868-8.381 20.234l-51.663 51.663c-11.955 11.955-18.672 28.17-18.672 45.078v131.317h35.976v-122.081c0-13.28 5.275-26.016 14.666-35.406l49.369-49.369c9.388-9.388 14.663-22.121 14.666-35.398l.006-35.779c.006-27.657-22.414-50.081-50.072-50.081z" fill="#e9efff"/></g><g><path d="m158.24 25.488c0-9.934 8.053-17.988 17.988-17.988h-18.36c-9.934 0-17.988 8.053-17.988 17.988 0 9.934 8.053 17.988 17.988 17.988h18.36c-9.935 0-17.988-8.054-17.988-17.988z" fill="#ffc043"/></g><g><path d="m272.591 159.219 51.663-51.663c5.366-5.366 8.381-12.645 8.381-20.234v-27.904c0-8.805-7.138-15.942-15.942-15.942h-18.36c8.805 0 15.942 7.138 15.942 15.942v27.904c0 7.589-3.015 14.868-8.381 20.234l-51.663 51.663c-11.955 11.955-18.672 28.17-18.672 45.078v131.317h18.36v-131.318c0-16.907 6.716-33.122 18.672-45.077z" fill="#d3dcfb"/></g><g><path d="m315.505 366.259h-123.917v-22.01c0-12.128 9.832-21.96 21.96-21.96h79.997c12.128 0 21.96 9.832 21.96 21.96z" fill="#bac5e2"/></g><g><path d="m234.068 322.289h-20.52c-12.128 0-21.96 9.832-21.96 21.96v22.01h20.52v-22.01c0-12.128 9.832-21.96 21.96-21.96z" fill="#a7b4d1"/></g><g><path d="m235.559 457.929h35.976l8.38 12.668c3.419 5.168 5.242 11.228 5.242 17.425v5.374c0 6.132-4.971 11.104-11.104 11.104h-41.013c-6.132 0-11.104-4.971-11.104-11.104v-5.374c0-6.197 1.823-12.257 5.242-17.425z" fill="#1c8ae5"/></g><g><path d="m238.496 493.396v-5.374c0-6.197 1.823-12.257 5.242-17.425l8.38-12.668h-16.56l-8.38 12.668c-3.419 5.168-5.242 11.228-5.242 17.425v5.374c0 6.132 4.971 11.104 11.104 11.104h16.56c-6.132 0-11.104-4.971-11.104-11.104z" fill="#1e6ee2"/></g><g><path d="m346.133 366.259h-180.265c-22.55 0-40.831 18.281-40.831 40.831v50.839h35.976v-46.508c0-5.073 4.113-9.186 9.186-9.186h57.007c4.614 0 8.354 3.74 8.354 8.354v47.34h35.976v-47.34c0-4.614 3.74-8.354 8.354-8.354h61.912c5.073 0 9.186 4.113 9.186 9.186v46.508h35.976v-50.839c0-22.55-18.28-40.831-40.831-40.831z" fill="#e9efff"/></g><g><g><path d="m183.856 366.259h-17.988c-22.55 0-40.831 18.281-40.831 40.831v50.839h17.988v-50.839c0-22.55 18.281-40.831 40.831-40.831z" fill="#d3dcfb"/></g><g><path d="m245.194 402.235h-17.988c4.614 0 8.354 3.74 8.354 8.354v47.34h17.988v-47.34c0-4.613-3.74-8.354-8.354-8.354z" fill="#d3dcfb"/></g><g><path d="m359.791 402.235h-17.988c5.073 0 9.186 4.113 9.186 9.186v46.508h17.988v-46.508c0-5.073-4.113-9.186-9.186-9.186z" fill="#d3dcfb"/></g></g></g><g><path d="m157.868 50.976h140.465c4.654 0 8.441 3.787 8.441 8.442v27.903c0 5.641-2.196 10.943-6.185 14.931l-51.663 51.663c-13.457 13.458-20.868 31.35-20.868 50.381v33.104c0 4.143 3.357 7.5 7.5 7.5s7.5-3.357 7.5-7.5v-33.104c0-15.024 5.851-29.149 16.476-39.773l51.663-51.663c6.82-6.821 10.577-15.891 10.577-25.538v-27.904c0-12.926-10.516-23.442-23.441-23.442h-64.758v-20.976h16.705c4.143 0 7.5-3.357 7.5-7.5s-3.357-7.5-7.5-7.5h-92.412c-14.055 0-25.488 11.434-25.488 25.488s11.433 25.488 25.488 25.488zm0-35.976h60.707v20.976h-60.707c-5.783 0-10.488-4.705-10.488-10.487 0-5.784 4.705-10.489 10.488-10.489z"/><path d="m401.598 466.459-7.133-10.782v-48.586c0-26.649-21.682-48.331-48.332-48.331h-23.128v-14.511c0-16.244-13.216-29.46-29.46-29.46h-14.51v-101.257c0-11.371 4.428-22.062 12.469-30.103l49.369-49.368c10.87-10.871 16.858-25.325 16.862-40.701l.006-35.778c.003-15.38-5.984-29.84-16.858-40.716-10.875-10.876-25.334-16.866-40.714-16.866h-20.129c-4.143 0-7.5 3.357-7.5 7.5s3.357 7.5 7.5 7.5h20.129c11.373 0 22.064 4.43 30.106 12.472 8.041 8.043 12.468 18.735 12.466 30.108l-.006 35.777c-.003 11.37-4.431 22.059-12.47 30.097l-49.369 49.369c-10.873 10.874-16.861 25.332-16.861 40.709v101.257h-20.977v-45.709c0-4.143-3.357-7.5-7.5-7.5s-7.5 3.357-7.5 7.5v45.709h-14.51c-16.245 0-29.461 13.216-29.461 29.46v14.511h-18.22c-26.649 0-48.331 21.682-48.331 48.331v48.582l-7.135 10.785c-4.244 6.413-6.487 13.87-6.487 21.564v5.374c0 10.258 8.346 18.604 18.604 18.604h41.013c10.259 0 18.604-8.346 18.604-18.604v-5.374c0-7.692-2.243-15.149-6.487-21.564l-7.136-10.785v-44.252c0-.93.757-1.686 1.687-1.686h57.007c.471 0 .854.384.854.854v45.081l-7.137 10.789c-4.244 6.414-6.487 13.871-6.487 21.563v5.374c0 10.258 8.346 18.604 18.604 18.604h41.014c10.258 0 18.604-8.346 18.604-18.604v-5.374c0-7.692-2.243-15.149-6.487-21.563l-7.134-10.784v-45.085c0-.471.384-.854.854-.854h61.912c.93 0 1.686.756 1.686 1.686v44.25l-7.137 10.788c-4.244 6.414-6.487 13.871-6.487 21.563v5.374c0 10.258 8.346 18.604 18.604 18.604h41.013c10.258 0 18.604-8.346 18.604-18.604v-5.374c-.001-7.695-2.244-15.152-6.488-21.564zm-202.51-122.21c0-7.974 6.487-14.46 14.461-14.46h79.996c7.974 0 14.46 6.486 14.46 14.46v14.511h-108.917zm-31.952 149.147c0 1.987-1.617 3.604-3.604 3.604h-41.013c-1.987 0-3.604-1.616-3.604-3.604v-5.374c0-4.741 1.382-9.336 3.997-13.288l6.156-9.306h27.913l6.157 9.306c2.615 3.953 3.997 8.548 3.997 13.288v5.374zm110.521 0c0 1.987-1.616 3.604-3.604 3.604h-41.013c-1.987 0-3.604-1.616-3.604-3.604v-5.374c0-4.74 1.382-9.335 3.997-13.288l6.156-9.306h27.914l6.156 9.306c2.615 3.953 3.997 8.548 3.997 13.288v5.374zm64.146-98.661h-61.912c-8.742 0-15.854 7.112-15.854 15.854v39.839h-20.976v-39.838c0-8.742-7.112-15.854-15.854-15.854h-57.007c-9.201 0-16.687 7.485-16.687 16.686v39.008h-20.976v-43.338c0-18.379 14.952-33.331 33.331-33.331h180.265c18.379 0 33.332 14.952 33.332 33.331v43.338h-20.977v-39.008c0-9.201-7.485-16.687-16.685-16.687zm51.282 98.661c0 1.987-1.616 3.604-3.604 3.604h-41.013c-1.987 0-3.604-1.616-3.604-3.604v-5.374c0-4.74 1.382-9.335 3.997-13.287l6.157-9.307h27.913l6.156 9.307c2.615 3.951 3.997 8.546 3.997 13.287v5.374z"/></g></g></svg>