<svg id="Capa_1" enable-background="new 0 0 512 512" height="512" viewBox="0 0 512 512" width="512" xmlns="http://www.w3.org/2000/svg"><g><g><path d="m41.055 121.328.092 372.232c0 2.761 2.239 5 5 5l421.826 3.889c2.761 0 5-2.239 5-5l2.505-9.95v-361.639l-219.478-99.39z" fill="#f8f7f7"/><path d="m475.48 487.5v12c0 2.761-2.239 5-5 5h-51.01l-64.56-8.6-72.5 8.6h-69.48l-60.91-7.11-55.66 7.11h-54.84c-2.761 0-5-2.239-5-5v-373.64l17-7.7v358.34c0 6.075 4.925 11 11 11z" fill="#e8e8e8"/><path d="m288.852 495.839 12.328-104.918c1.323-13.16 4.046-25.225 12.332-35.534l15.347-6.367 61.518-.003 1.542 1.957c8.286 10.309 13.402 22.802 14.725 35.962l10.975 100.564-16.289 8.56z" fill="#e8e8e8"/><path d="m419.47 504.5h-137.06l12.82-117.56c1.33-13.16 6.44-25.66 14.73-35.97l1.57-1.95h17.33l-.74 1.11c-4.95 7.43-15.16 30.45-15.97 38.51l-9.943 91.1c-.452 4.142 2.792 7.759 6.959 7.759h108.454z" fill="#d8d8d8"/><path d="m206.839 395.808h11.601c11.046 0 20-8.954 20-20v-13.968l-31.18-3.602z" fill="#f2d1a5"/><path d="m110.972 499.944h99.591v-117.203l-5.05-10.762h-94.541z" fill="#857e87"/><path d="m504.5 123.285v24.196l-.841 5.773c0 3.634-3.753 6.054-7.063 4.555l-238.33-109.818c-1.573-.713-3.378-.713-4.951 0l-237.104 109.541c-3.31 1.499-7.063-.921-7.063-4.555l-1.648-5.257v-24.436c0-1.963 1.149-3.745 2.937-4.555l239.785-108.611c3.672-1.664 7.883-1.664 11.555 0l239.786 108.612c1.788.81 2.937 2.591 2.937 4.555z" fill="#c38c66"/><path d="m504.5 147.48v7.79c0 3.63-3.75 6.05-7.06 4.55l-238.96-108.23c-1.58-.71-3.38-.71-4.96 0l-238.96 108.23c-3.31 1.5-7.06-.92-7.06-4.55v-7.55l240.25-108.88c2.61-1.18 5.38-1.78 8.25-1.78s5.64.6 8.25 1.78z" fill="#b57f5f"/><path d="m202.817 218.716c-27.195-7.689-48.272-6.473-72.434 1.284-22.468 7.236-38.305 28.191-38.073 54.47v91.35l3.854-.864 39.564 17.785h59.835l15-20.901h30.747c2.209 0 4-1.791 4-4v-83.37c0-21.299-11.098-40.006-27.827-50.654 0 0-9.931-3.536-14.666-5.1z" fill="#afefa5"/><g><path d="m390.261 247.258c23.589 12.991 38.681 38.051 38.681 65.907v12.341c0 13.674-11.085 24.759-24.759 24.759h-45.713l-7.074-6.957-7.926 6.957h-46.773c-3.855 0-7.504-.881-10.757-2.453 0 0-11.343-15.103-11.343-24.922l-.385-9.688c0-28.201 15.264-52.822 39.358-65.67 4.539-2.421 71.898-2.914 76.691-.274z" fill="#c38c66"/></g><g><path d="m323.31 245.53c-3.494 2.119-7.454 3.472-10.56 6.2-16.771 14.734-26.81 38.691-26.81 61.43v34.65c-8.29-4-14-12.48-14-22.3v-12.35c0-28.2 15.47-53.53 39.56-66.38 1.04-.55 5.5-.97 11.81-1.25z" fill="#b57f5f"/></g><path d="m389.367 246.872-.303 5.119-14.624 57.829h-47l-14.688-58.09-.146-4.996c4.54-2.42 8.294-6.071 13.404-7.541 16.54-4.53 34.069-4.505 50.119.165 5.44 1.56 8.448 4.874 13.238 7.514z" fill="#f8f7f7"/><path d="m326.9 349.02h-.44c.03-.03.05-.07.07-.1z" fill="#857e87"/><path d="m164.725 502.175v-3.007c0-4.499.684-5.852 2.642-9.575 1.19-2.262 3.707-6.718 3.707-6.718 4.875-5.049 11.715-8.19 19.288-8.19 11.903 0 21.951 7.94 25.137 18.813 0 0-.414 3.457-.414 6.018 0 2.003-1.624 3.626-3.626 3.626z" fill="#6f6571"/><path d="m216.55 500.87c0 1.01-.41 1.91-1.06 2.57s-1.56 1.06-2.56 1.06h-49.38v-3.01c0-7.23 2.86-13.79 7.53-18.61-.72 2.41-1.1 4.97-1.1 7.61 0 1.662 1.348 3.01 3.01 3.01h42.5c.69 2.34 1.06 4.81 1.06 7.37z" fill="#635a63"/><path d="m115.999 484.423c1.564-1.882 3.458-2.129 5.57-3.551 2.184-1.47 7.163-4.915 7.163-4.915 2.57-.821 5.276-1.272 8.013-1.272 12.022 0 22.196 7.913 25.597 18.815 0 0-1.195 5.209-1.195 7.993v1.893l-51.578-.936z" fill="#6f6571"/><path d="m163.55 501.49v3.01h-47.039l-.511-20.08c3.18-3.83 7.692-6.853 12.732-8.463-2.72 4.18-4.292 9.173-4.292 14.533 0 1.662 1.348 3.01 3.01 3.01h34.89c.79 2.52 1.21 5.21 1.21 7.99z" fill="#635a63"/><path d="m189.754 296.231c-1.595-.969-3.598-.969-5.193 0l-16.024 9.738c-1.595.969-3.598.969-5.193 0l-16.023-9.737c-1.595-.969-3.598-.969-5.193 0l-5.035 3.06-14.697 7.195v29.395l14.697-1.59 5.035-3.06c1.595-.969 3.598-.969 5.193 0l16.023 9.737c1.595.969 3.598.969 5.193 0l16.024-9.738c1.595-.969 3.598-.969 5.193 0l5.136 3.121 11.949-3.251 2.969-17.347-14.917-14.401z" fill="#8ce1a4"/><path d="m204.14 217.48c-2.156-.609-4.3-1.152-6.437-1.664.009-.002.018-.004.027-.006-24.392-5.656-53.358-7.052-79.634 6.796-17.215 10.236-30.017 30.038-29.826 51.864v87.969c0 1.818 1.557 3.246 3.369 3.088l5.717-.497c.528-.046 1.058.044 1.541.261l.001.001c2.051.923 4.372-.577 4.372-2.827v-88.125c-.14-16.267 9.881-32.291 24.144-39.807.962-.507 2.101-.462 3.051.067.545.303 1.179.546 2.019.766.637.167 1.204.534 1.625 1.04 7.629 9.176 19.234 14.744 31.68 14.744 12.695 0 24.326-5.558 31.829-14.727.442-.54 1.047-.917 1.725-1.079 6.954-1.659 11.957-4.984 15.524-8.563 1.474-1.479 1.108-3.935-.721-4.942-3.169-1.746-6.514-3.21-10.006-4.359z" fill="#8ce1a4"/><path d="m204.142 148.5c-7.843-13.064-22.092-21.816-38.352-21.491-15.442-.309-29.071 7.57-37.121 19.554-6.472 10.646-7.652 21.937-7.652 32.59v17.137c0 12.301 4.042 24.579 20.037 25.157.731.026 1.38.441 1.72 1.089 4.409 8.407 13.323 13.615 23.017 13.615 9.677 0 18.853-5.19 23.028-13.572.334-.671.992-1.106 1.741-1.133 16.069-.59 20.003-12.862 20.003-25.156v-14.714c0-11.793 0-23.6-6.421-33.076z" fill="#f2d1a5"/><g><path d="m215.44 148.5h-4.89l-4.788.918c-8.422 0-13.165 4.815-13.165 13.238 0 7.268 3.477 14.29 9.843 16.044 1.016.245 2.095.3 3.25.3h9.75c3.866 0 7-3.134 7-7v-16.5c0-3.866-3.134-7-7-7z" fill="#e8e8e8"/><path d="m210.55 148.5c-4.82 2.49-8.11 7.52-8.11 13.32v16.88c-6.85-1.39-12-7.45-12-14.7v-.5c0-8.28 6.72-15 15-15z" fill="#d8d8d8"/><g><path d="m127.552 148.5c7.504.955 13.888 7.486 13.888 15.25 0 8.422-6.828 15.25-15.25 15.25h-5.173l-7.305-17.226 7.008-10.605c-.001.001 6.58-2.701 6.832-2.669z" fill="#e8e8e8"/><path d="m127.552 148.5c-4.039 2.702-6.532 8.185-6.532 13.45v17.05h-4.58c-3.87 0-7-3.13-7-7v-16.5c0-3.87 3.13-7 7-7z" fill="#d8d8d8"/></g></g><path d="m96.36 372.741h20.152v131.759h-20.152z" fill="#c38c66"/><path d="m118.431 382.009-23.603-.319c-4.414 0-7.993-3.579-7.993-7.993l.165-2.201c0-8.017 6.499-14.517 14.517-14.517l1.753-.548h9.089c7.611 0 13.854 5.857 14.467 13.31.033.398-1.019 1.018-1.019 1.425l-.826 3.248c.001 4.414-2.135 7.595-6.55 7.595z" fill="#f2d1a5"/><path d="m126.88 370.95v3.8c0 4.41-3.58 7.99-8 7.99h-24.89c-4.42 0-8-3.58-8-7.99v-3.8c0-8.02 6.5-14.52 14.52-14.52h2.76l-.016 5.32c0 4.41 3.316 7.99 7.736 7.99h15.84c.03.4.05.8.05 1.21z" fill="#f2bb88"/><path d="m390.26 247.26-1.2 4.73c-2.33 1.07-4.85 1.88-7.56 2.42-.57.12-1.1.4-1.52.81-7.89 7.73-17.99 11.93-29.01 11.93-11.34 0-21.72-4.45-29.7-12.63-2.91-.56-5.79-1.47-8.52-2.79l-1.25-4.95c4.54-2.42 9.38-4.4 14.49-5.87 16.54-4.53 32.84-4.67 48.89 0 5.44 1.56 10.59 3.71 15.38 6.35z" fill="#e8e8e8"/><path d="m358.47 240.77v25.7c-2.44.45-4.95.68-7.5.68s-5.06-.23-7.5-.67v-25.71z" fill="#d8d8d8"/><path d="m393.11 194.926v21.585c0 11.524-3.672 23.028-18.64 23.672-.84.036-1.63.447-2.145 1.112-5.083 6.563-12.332 10.856-21.355 10.856-9.013 0-16.271-4.294-21.355-10.857-.515-.665-1.304-1.075-2.144-1.112-14.875-.647-18.641-12.15-18.641-23.671v-20.95c15.023-26.91 68.931-25.701 84.28-.635z" fill="#f2d1a5"/><path d="m377 161.567c.63-2.326.966-4.772.966-7.297 0-15.373-12.462-27.835-27.835-27.835s-27.835 12.462-27.835 27.835c0 2.749.398 5.405 1.141 7.913z" fill="#d8d8d8"/><path d="m393.11 193.366v1.56c-14.554 5.053-31.623 1.944-41.478-13.008-.781-1.185-2.55-1.175-3.332.01-6.387 9.681-15.793 14.394-25.581 15.141 0 0-8.035-1.266-12.564-2.586l-.083-2.271c0-9.134 3.008-15.18 7.954-22.128 1.911-2.684 5.253-8.612 5.253-8.612 7.409-6.491 17.097-10.375 27.69-10.165 23.261-.461 42.141 18.799 42.141 42.059z" fill="#e8e8e8"/><path d="m323.28 161.47c-.37 3.18-.56 6.55-.56 10.12v25.48c-4.64.35-9.36-.19-13.89-1.51v-2.2c0-12.66 5.6-24.14 14.45-31.89z" fill="#d8d8d8"/></g><path d="m504.657 111.898-245.562-111.229c-1.967-.892-4.223-.892-6.19 0l-136.213 61.7c-3.773 1.709-5.447 6.153-3.738 9.926s6.154 5.445 9.926 3.738l133.12-60.299 241 109.163v26.493l-237.905-107.752c-1.967-.891-4.222-.891-6.189 0l-237.906 107.752v-26.494l75.698-34.286c3.773-1.709 5.447-6.153 3.738-9.926-1.709-3.774-6.156-5.448-9.926-3.738l-77.168 34.952c-4.46 2.021-7.342 6.49-7.342 11.386v31.982c0 4.266 2.14 8.193 5.726 10.505 2.059 1.328 4.406 2.002 6.767 2.001 1.751 0 3.51-.371 5.165-1.12l11.366-5.148v199.819c0 4.142 3.358 7.5 7.5 7.5s7.5-3.358 7.5-7.5v-206.611l211.976-96.009 211.978 96.009v342.288h-41.778l-4.392-40.256c-.45-4.118-4.151-7.094-8.27-6.642-4.118.449-7.092 4.151-6.643 8.269l4.216 38.629h-120.343l11.927-109.314c1.094-10.868 5.062-21.155 11.508-29.922h73.472c6.446 8.765 10.415 19.058 11.515 29.985l3.852 35.305c.419 3.841 3.669 6.687 7.447 6.687.271 0 .546-.015.822-.045 4.117-.449 7.092-4.151 6.643-8.269l-3.846-35.242c-1.01-10.04-3.986-19.683-8.728-28.451 17.234-.633 31.062-14.843 31.062-32.228v-12.341c0-18.104-5.685-35.292-16.439-49.705-7.325-9.817-16.536-17.702-27.121-23.323 5.034-5.327 7.732-13.335 7.732-23.622v-23.157c0-13.328-5.456-26.32-14.97-35.645-.221-.217-.451-.419-.676-.631.318-1.915.497-3.857.497-5.812 0-19.484-15.852-35.335-35.335-35.335s-35.335 15.851-35.335 35.335c0 2.437.259 4.853.751 7.219-9.041 9.263-14.217 21.902-14.217 34.869v23.157c0 10.05 2.589 17.909 7.402 23.234-10.894 5.643-20.36 13.667-27.855 23.711-10.755 14.412-16.439 31.6-16.439 49.705v12.341c0 17.717 14.358 32.139 32.047 32.253-4.733 8.757-7.703 18.377-8.707 28.363l-12.098 110.878h-51.857c-.647-5.626-2.684-10.832-5.76-15.27v-78.422h.377c15.164 0 27.5-12.336 27.5-27.5v-7.45c4.04-1.786 6.87-5.825 6.87-10.518v-30.516c0-4.142-3.358-7.5-7.5-7.5s-7.5 3.358-7.5 7.5v27.016h-19.747v-70.357c0-4.142-3.358-7.5-7.5-7.5s-7.5 3.358-7.5 7.5v11.558l-12.01-7.298c-2.393-1.454-5.396-1.454-7.79 0l-17.322 10.527-17.321-10.526c-2.394-1.455-5.397-1.455-7.79 0l-12.601 7.657v-11.919c0-4.142-3.358-7.5-7.5-7.5s-7.5 3.358-7.5 7.5v65.284c-1.237-.217-2.507-.336-3.805-.336h-11.848c-1.298 0-2.568.119-3.805.336v-74.796c0-21.8 13.399-41.199 33.572-48.983 3.011 1.667 6.479 2.753 10.374 3.22 6.048 9.204 16.617 14.945 28.074 14.945 11.535 0 22.298-5.854 28.159-14.955 3.859-.472 7.299-1.553 10.287-3.207 20.185 7.782 33.574 27.144 33.574 48.981v17.854c0 4.142 3.358 7.5 7.5 7.5s7.5-3.358 7.5-7.5v-17.855c0-26.174-14.968-49.581-38.028-60.739 2.152-4.794 3.281-10.64 3.281-17.441v-10.04c6.746-1.239 11.877-7.152 11.877-14.25v-16.5c0-7.995-6.505-14.5-14.5-14.5h-7.274c-9.829-13.64-25.723-21.78-42.376-21.493-16.764-.289-32.456 7.722-42.357 21.493h-6.993c-7.995 0-14.5 6.505-14.5 14.5v16.5c0 6.994 4.978 12.847 11.577 14.204v10.086c0 6.801 1.129 12.646 3.281 17.44-23.049 11.165-38.028 34.61-38.028 60.74v85.039c-2.036 3.336-3.211 7.252-3.211 11.438v3.801c0 5.801 3.209 10.86 7.941 13.515v108.737h-39.477v-100.676c0-4.142-3.358-7.5-7.5-7.5s-7.5 3.358-7.5 7.5v108.176c0 4.142 3.358 7.5 7.5 7.5h438.955c4.143 0 7.5-3.358 7.5-7.5v-342.994l11.365 5.148c3.885 1.759 8.345 1.431 11.932-.881 3.585-2.312 5.726-6.239 5.726-10.505v-31.982c-.001-4.899-2.884-9.368-7.344-11.388zm-83.214 201.267v12.341c0 9.517-7.743 17.259-17.26 17.259h-45.71v-25.44h35.354c4.143 0 7.5-3.358 7.5-7.5s-3.357-7.5-7.5-7.5h-9.754l10.906-43.135c16.412 12.444 26.464 32.078 26.464 53.975zm-88.163-10.841-13.007-51.443c1.896-.803 3.846-1.517 5.84-2.155 4.854 5.175 10.785 8.621 17.361 10.099v43.499zm-16.95-98.096c13.053 1.903 24.848-2.356 33.641-12.113 7.423 8.239 16.986 12.56 27.643 12.56 2.606 0 5.279-.266 8.001-.789v12.629c0 14.236-5.999 16.198-12.481 16.198-2.425 0-4.699 1.172-6.106 3.146-2.86 4.011-7.966 8.792-16.054 8.792-8.089 0-13.194-4.781-16.055-8.792-1.407-1.974-3.682-3.146-6.106-3.146-6.482 0-12.481-1.962-12.481-16.198v-12.287zm10.47-35.802c5.722-5.784 15.484-9.949 24.322-9.622 7.774-.269 17.598 3.224 24.022 9.622 5.599 5.488 9.103 12.517 10.14 20.151-9.12 2.496-20.674 1.667-28.738-13.031-1.316-2.4-3.837-3.893-6.575-3.893-2.737 0-5.259 1.492-6.575 3.892-7.501 13.671-18.023 15.345-26.794 13.503.953-7.816 4.484-15.022 10.198-20.622zm31.673 90.399c6.467-1.454 12.313-4.806 17.121-9.84 2.024.676 3.992 1.448 5.912 2.294l-12.906 51.045h-10.127zm-8.342-127.89c9.893 0 18.149 7.105 19.957 16.478-5.987-2.467-12.453-3.714-19.115-3.61-7.307-.105-14.422 1.412-20.921 4.405 1.484-9.761 9.909-17.273 20.079-17.273zm-70.693 194.571v-12.341c0-22.266 10.4-42.186 27.307-54.592l11.062 43.752h-11.463c-4.143 0-7.5 3.358-7.5 7.5s3.357 7.5 7.5 7.5h37.129v25.44h-46.776c-9.517-.001-17.259-7.743-17.259-17.259zm-64.498-154.006h-9.5c-3.194.047-7.639-3.189-7.5-8 0-4.136 3.364-7.5 7.5-7.5h9.5zm-49-36.992c9.889-.203 19.352 3.815 26.276 10.805-5.617 4.095-9.276 10.72-9.276 18.188-.389 11.111 8.742 21.703 20.123 22.873v9.916c0 15.537-6.598 17.678-13.729 17.678-2.994 0-5.702 1.781-6.887 4.531-2.618 6.072-9.312 10.152-16.657 10.152-7.253 0-13.824-4.06-16.742-10.342-1.229-2.647-3.883-4.341-6.802-4.341-4.456 0-13.729 0-13.729-17.678v-9.889c11.006-.89 20.676-11.082 20.423-22.9 0-7.553-3.744-14.243-9.47-18.326 6.927-6.961 16.294-10.863 26.17-10.667.099.002.2.002.3 0zm-49 21.492h9.5c4.136 0 7.5 3.364 7.5 7.5.204 3.348-2.606 7.699-7.5 8h-9.5zm11.288 203.508v-16.054l16.496-10.024 17.321 10.526c2.393 1.455 5.396 1.454 7.79 0l17.323-10.527 15.905 9.664v32.148h-71.648c.005-.165.025-.327.025-.493v-3.801c0-4.186-1.175-8.103-3.212-11.439zm62.134 107.676c-5.646-.107-13.404 1.707-19.309 5.676v-82.619h32.009v79.436c-3.922-1.602-8.208-2.493-12.7-2.493zm-34.309 5.676c-5.352-3.582-11.78-5.676-18.689-5.676-3.652-.05-8.784.649-13.865 2.716v-79.659h32.554zm-32.554 14.838c2.689-2.727 8.236-5.683 13.865-5.513 8.977 0 16.491 6.364 18.28 14.816h-32.145zm66.244-5.514c8.293-.436 17.134 6.226 18.899 14.816h-37.18c1.79-8.452 9.304-14.816 18.281-14.816zm41.197-112.844v6.468c0 6.893-5.607 12.5-12.5 12.5h-.377v-18.968zm-86.216-65.911 17.321 10.526c2.393 1.455 5.396 1.454 7.79 0l17.323-10.527 15.905 9.664v12.448l-12.01-7.298c-2.393-1.454-5.396-1.454-7.79 0l-17.323 10.528-17.321-10.526c-2.394-1.456-5.397-1.455-7.79 0l-12.601 7.657v-12.448zm-35.301 60.501c3.869 0 7.017 3.147 7.017 7.017v3.801c0 .272-.221.493-.493.493h-24.896c-.271 0-.493-.221-.493-.493v-3.801c0-3.869 3.147-7.017 7.017-7.017zm-10.924 133.07v-106.759h10v106.759z"/></g></svg>