<svg id="Capa_1" enable-background="new 0 0 512 512" height="512" viewBox="0 0 512 512" width="512" xmlns="http://www.w3.org/2000/svg"><g><g><g><path d="m451.979 409.54 4.021-14.01v-16.03l-5.17-28.883 5.17-31.117v-67.309l-393 .308v156.711z" fill="#ff8086"/></g><g><path d="m456 395.53v21.6l-400-.35v-37.28l8.489-28.245-8.489-31.755v-66.99l14-.01v132.718c0 5.52 4.472 9.995 9.992 10z" fill="#e5646e"/></g><g><path d="m61.766 319.5h394.234v60h-394.234z" fill="#f8f7f7"/></g><g><path d="m56 319.5h14v60h-14z" fill="#e8e8e8"/></g><g><path d="m288.5 434.489v44.979h-65v-44.895z" fill="#d8d8d8"/></g><g><path d="m278.167 42.333c0-12.598-13.502-26.749-19.431-32.355-1.539-1.455-3.938-1.458-5.48-.007-.998.939-2.211 2.12-3.537 3.494 0 0-14.592 18.313-14.592 28.869 0 12.242 8.63 20.475 20.872 20.475 9.146 0 16.421-3.998 19.809-11.904.438-1.021 1.659-3.025 1.659-3.025.457-1.773.7-3.632.7-5.547z" fill="#ffe07d"/><path d="m277.469 47.873c-2.46 9.56-11.139 16.627-21.469 16.627-12.24 0-22.17-9.92-22.17-22.17 0-10.56 9.339-22.076 15.889-28.866-2.85 4.78-4.889 9.926-4.889 14.866 0 12.25 9.93 22.17 22.17 22.17 3.79 0 7.349-.957 10.469-2.627z" fill="#ffd064"/></g><g><path d="m395.171 42.333c0-12.598-13.502-26.749-19.431-32.355-1.539-1.455-3.938-1.458-5.48-.007-.998.939-2.211 2.12-3.537 3.494 0 0-14.592 18.313-14.592 28.869 0 12.242 8.63 20.475 20.872 20.475 9.146 0 16.421-3.998 19.809-11.904.438-1.021 1.659-3.025 1.659-3.025.457-1.773.7-3.632.7-5.547z" fill="#ffe07d"/><path d="m394.473 47.873c-2.46 9.56-11.139 16.627-21.469 16.627-12.24 0-22.17-9.92-22.17-22.17 0-10.56 9.339-22.076 15.889-28.866-2.85 4.78-4.889 9.926-4.889 14.866 0 12.25 9.93 22.17 22.17 22.17 3.79 0 7.349-.957 10.469-2.627z" fill="#ffd064"/></g><g><path d="m161.165 42.333c0-12.598-13.502-26.749-19.431-32.355-1.539-1.455-3.938-1.458-5.48-.007-.998.939-2.211 2.12-3.537 3.494 0 0-14.592 18.313-14.592 28.869 0 12.242 8.63 20.475 20.872 20.475 9.146 0 16.421-3.998 19.809-11.904.438-1.021 1.659-3.025 1.659-3.025.457-1.773.7-3.632.7-5.547z" fill="#ffe07d"/><path d="m160.468 47.873c-2.46 9.56-11.139 16.627-21.469 16.627-12.24 0-22.17-9.92-22.17-22.17 0-10.56 9.339-22.076 15.889-28.866-2.85 4.78-4.889 9.926-4.889 14.866 0 12.25 9.93 22.17 22.17 22.17 3.79 0 7.349-.957 10.469-2.627z" fill="#ffd064"/></g><g fill="#bde4ff"><path d="m415.308 225.5v-26.232c0-1.668-1.352-3.021-3.021-3.021h-19.13c-1.668 0-3.021-1.352-3.021-3.021v-97.706c0-1.668-1.352-3.021-3.021-3.021h-30.407c-1.133 0-2.171.634-2.688 1.642l-17.055 33.256c-1.024 1.996.426 4.369 2.669 4.369h13.227c1.105 0 2 .895 2 2v59.459c0 1.668-1.352 3.021-3.021 3.021h-18.124c-1.668 0-3.021 1.352-3.021 3.021v26.233l41.956 11.543z"/><path d="m181.302 225.5v-26.232c0-1.668-1.352-3.021-3.021-3.021h-19.13c-1.668 0-3.021-1.352-3.021-3.021v-97.706c0-1.668-1.352-3.021-3.021-3.021h-30.407c-1.133 0-2.171.634-2.688 1.642l-17.055 33.256c-1.024 1.996.426 4.369 2.669 4.369h13.227c1.105 0 2 .895 2 2v59.459c0 1.668-1.352 3.021-3.021 3.021h-18.121c-1.668 0-3.021 1.352-3.021 3.021v26.233l38.095 11.543z"/><path d="m256 225.5c-27.42 0-49.729-22.308-49.729-49.729v-33.543c0-27.42 22.308-49.729 49.729-49.729s49.728 22.308 49.728 49.729v33.543c0 27.421-22.307 49.729-49.728 49.729zm0-97.892c-8.134 0-14.728 6.594-14.728 14.728v33.327c0 8.134 6.594 14.728 14.728 14.728 8.134 0 14.728-6.594 14.728-14.728v-33.327c0-8.134-6.594-14.728-14.728-14.728z"/></g><path d="m479.5 409.5c8.284 0 15 6.716 15 15 0 .336-.011.67-.033 1 0 0-9.817 12.138-17.765 12.138l-443.872-.085c-8.284 0-13.66-4.769-13.66-13.053 0-7.962 12.369-14.97 12.369-14.97.318-.02.638-.03.961-.03z" fill="#f8f7f7"/><path d="m494.467 425.5c-.24 3.74-1.867 7.109-4.367 9.599-2.71 2.72-6.46 4.4-10.6 4.4h-447c-8.28 0-15-6.72-15-15 0-4.14 1.68-7.89 4.4-10.6 2.5-2.51 5.879-4.14 9.639-4.37-.03.32-.039.65-.039.97 0 8.28 6.72 15 15 15z" fill="#e8e8e8"/><path d="m341.723 503.298-170.957-.17c-2.761 0-5-2.239-5-5v-.957c0-9.601 14.523-22.226 14.523-22.226 1.358-.291 2.767-.444 4.211-.444h143c9.665 0 17.729 6.856 19.594 15.969 0 0-.051 2.65-.051 4.031l-.319 3.798c-.001 2.76-2.239 4.999-5.001 4.999z" fill="#f8f7f7"/><path d="m347.5 494.5v5c0 2.76-2.24 5-5 5h-173c-2.76 0-5-2.24-5-5v-5c0-9.6 6.76-17.62 15.79-19.55-.52 1.76-.79 3.63-.79 5.55v3c0 3.87 3.13 7 7 7l160.594-.031c.26 1.29.406 2.661.406 4.031z" fill="#e8e8e8"/><path d="m62.968 226.005c-11.598 0-20.649 8.652-20.649 20.25 0 5.523 3.647 9.745 9.17 9.745l2.511.5h16.5c.383 0 .763.015 1.139.046 7.199.58 13.616 3.999 13.616 11.348l.34 7.574c0 7.732 5.172 13.745 12.904 13.745 2.347 0 6.501-1.081 6.501-1.081 4.458-2.342 7.499-7.017 7.499-12.402v-5.23c0-7.732 6.268-14 14-14h61.501c.416 0 .827.018 1.234.054 2.57.224 5.57.256 7.553 1.68 3.537 2.541 6.894 7.589 6.894 12.277l-.255 64.596c0 7.732 4.842 13.915 12.574 13.915 2.347 0 6.501-.889 6.501-.889 4.458-2.342 7.499-7.017 7.499-12.402v-65.231c0-7.732 6.268-14 14-14h141.5c.73 0 1.447.056 2.147.164 6.416.081 12.884 4.22 12.884 11.222v5.23c0 7.732 5.236 15.821 12.968 15.821 2.347 0 6.501-.804 6.501-.804 4.458-2.342 7.499-7.017 7.499-12.402v-5.23c0-7.732 6.268-14 14-14h19.501c5.523 0 10-4.477 10-10 0-11.598-9.402-21-21-21h-376.548z" fill="#ffe07d"/><g fill="#ffd064"><path d="m75 225.5c-11.6 0-21 9.4-21 21v10h-3c-2.76 0-5.26-1.12-7.07-2.93s-2.93-4.31-2.93-7.07c0-11.6 9.4-21 21-21z"/><path d="m105.001 288.132c-1.94 1.02-4.161 1.598-6.501 1.598-7.73 0-14-6.27-14-14v-5.23c0-7.73-6.27-14-14-14h13c7.73 0 14 6.27 14 14v5.23c0 5.38 3.041 10.062 7.501 12.402z"/><path d="m222.501 348.132c-1.94 1.02-4.161 1.598-6.501 1.598-7.73 0-14-6.27-14-14v-65.23c0-7.73-6.27-14-14-14h13c7.73 0 14 6.27 14 14v65.23c0 5.38 3.041 10.062 7.501 12.402z"/><path d="m420 288.13c-1.94 1.02-4.16 1.6-6.5 1.6-7.73 0-14-6.27-14-14v-5.23c0-7.73-6.27-14-14-14h13c7.73 0 14 6.27 14 14v5.23c0 5.38 3.04 10.06 7.5 12.4z"/></g></g><g><path d="m479.5 402h-16c0-32.087 0-105.776 0-138.2 8.466-1.22 15-8.502 15-17.3v-11c0-9.649-7.851-17.5-17.5-17.5h-38.192v-18.732c0-5.801-4.72-10.521-10.521-10.521h-14.651v-30.991c0-4.142-3.357-7.5-7.5-7.5s-7.5 3.358-7.5 7.5v35.47c0 5.801 4.72 10.521 10.521 10.521h14.651v14.253h-69.609v-14.252h13.644c5.801 0 10.521-4.72 10.521-10.521v-61.459c0-4.142-3.357-7.5-7.5-7.5h-7.864l12.445-24.268h23.19v22.757c0 4.142 3.357 7.5 7.5 7.5s7.5-3.358 7.5-7.5v-27.237c0-5.801-4.72-10.521-10.521-10.521h-6.612v-13.962c12.739-3.331 22.167-14.936 22.167-28.704 0-19.078-22.291-38.424-24.832-40.567-2.786-2.349-6.856-2.355-9.65-.016-2.544 2.13-24.852 21.367-24.852 40.583 0 13.768 9.428 25.373 22.167 28.704v13.963h-8.795c-3.966 0-7.553 2.192-9.361 5.72l-19.295 37.625c-1.192 2.325-1.089 5.103.273 7.333 1.363 2.23 3.787 3.59 6.4 3.59h12.637v49.48h-13.644c-5.801 0-10.521 4.719-10.521 10.521v18.731h-28.616c11.452-10.472 18.648-25.524 18.648-42.229v-33.543c0-29.013-21.707-53.035-49.729-56.721v-14.47c12.739-3.331 22.167-14.936 22.167-28.704 0-19.078-22.291-38.424-24.832-40.567-2.786-2.349-6.857-2.355-9.65-.016-2.543 2.13-24.851 21.367-24.851 40.583 0 13.768 9.428 25.373 22.167 28.704v14.47c-28.022 3.687-49.728 27.709-49.728 56.721v33.543c0 16.704 7.196 31.757 18.648 42.229h-28.618v-18.732c0-5.801-4.72-10.521-10.521-10.521h-14.651v-93.227c0-5.801-4.719-10.521-10.521-10.521h-6.613v-13.962c12.739-3.331 22.167-14.936 22.167-28.704 0-19.078-22.291-38.424-24.832-40.567-2.786-2.349-6.857-2.354-9.65-.016-2.543 2.13-24.851 21.367-24.851 40.583 0 13.768 9.428 25.373 22.166 28.704v13.963h-8.794c-3.964 0-7.551 2.191-9.362 5.72l-19.295 37.625c-1.192 2.325-1.088 5.103.274 7.333s3.787 3.59 6.4 3.59h12.637v49.48h-13.643c-5.801 0-10.521 4.719-10.521 10.521v18.731h-38.192c-9.649 0-17.5 7.851-17.5 17.5v11c0 8.798 6.534 16.081 15 17.3v138.2h-16c-12.407 0-22.5 10.093-22.5 22.5s10.093 22.5 22.5 22.5h68.5c4.142 0 7.5-3.358 7.5-7.5s-3.358-7.5-7.5-7.5h-68.5c-4.136 0-7.5-3.364-7.5-7.5s3.364-7.5 7.5-7.5h447c4.136 0 7.5 3.364 7.5 7.5s-3.364 7.5-7.5 7.5h-343.5c-4.142 0-7.5 3.358-7.5 7.5s3.358 7.5 7.5 7.5h80v20h-31.5c-15.164 0-27.5 12.336-27.5 27.5v5c0 6.893 5.607 12.5 12.5 12.5h173c6.893 0 12.5-5.607 12.5-12.5v-5c0-15.164-12.337-27.5-27.5-27.5h-31.5v-20h183.5c12.406 0 22.5-10.093 22.5-22.5s-10.094-22.5-22.5-22.5zm-121.164-359.667c0-7.433 7.716-17.608 14.653-24.605 6.95 7.035 14.681 17.234 14.681 24.605 0 8.087-6.58 14.667-14.667 14.667s-14.667-6.58-14.667-14.667zm-234.006 0c0-7.433 7.716-17.608 14.653-24.605 6.95 7.035 14.68 17.234 14.68 24.605 0 8.087-6.58 14.667-14.667 14.667-8.086 0-14.666-6.58-14.666-14.667zm-60.83 284.667h131v8.729c0 11.855 9.645 21.5 21.5 21.5s21.5-9.645 21.5-21.5v-8.729h73.032c4.143 0 7.5-3.358 7.5-7.5s-3.357-7.5-7.5-7.5h-73.032v-41.5c0-3.584 2.916-6.5 6.5-6.5h141.5c3.584 0 6.5 2.916 6.5 6.5v5.229c0 11.855 9.645 21.5 21.5 21.5s21.5-9.645 21.5-21.5v-5.229c0-3.584 2.916-6.5 6.5-6.5h7v48h-102.968c-4.143 0-7.5 3.358-7.5 7.5s3.357 7.5 7.5 7.5h102.968v45h-385zm177.833-284.667c0-7.433 7.716-17.608 14.653-24.605 6.951 7.035 14.68 17.234 14.68 24.605.001 8.087-6.579 14.667-14.666 14.667s-14.667-6.58-14.667-14.667zm-27.561 133.438v-33.543c0-23.284 18.944-42.228 42.228-42.228s42.228 18.944 42.228 42.229v33.543c0 23.284-18.943 42.228-42.228 42.228s-42.228-18.944-42.228-42.229zm-109.58 27.976h13.644c5.801 0 10.521-4.72 10.521-10.521v-61.459c0-4.142-3.358-7.5-7.5-7.5h-7.862l12.444-24.267h23.191v93.227c0 5.801 4.72 10.521 10.521 10.521h14.651v14.252h-69.61zm-55.692 31.753c0-1.378 1.122-2.5 2.5-2.5h410c1.379 0 2.5 1.122 2.5 2.5v11c0 1.378-1.121 2.5-2.5 2.5h-19.5c-11.855 0-21.5 9.645-21.5 21.5v5.229c0 3.584-2.916 6.5-6.5 6.5s-6.5-2.916-6.5-6.5v-5.229c0-11.855-9.645-21.5-21.5-21.5h-141.5c-11.855 0-21.5 9.645-21.5 21.5v65.229c0 3.584-2.916 6.5-6.5 6.5s-6.5-2.916-6.5-6.5v-65.229c0-11.855-9.645-21.5-21.5-21.5h-14.085c-4.142 0-7.5 3.358-7.5 7.5s3.358 7.5 7.5 7.5h14.085c3.584 0 6.5 2.916 6.5 6.5v41.5h-131v-48h7c3.584 0 6.5 2.916 6.5 6.5v5.229c0 11.855 9.645 21.5 21.5 21.5s21.5-9.645 21.5-21.5v-5.229c0-3.584 2.916-6.5 6.5-6.5h12.415c4.142 0 7.5-3.358 7.5-7.5s-3.358-7.5-7.5-7.5h-12.415c-11.855 0-21.5 9.645-21.5 21.5v5.229c0 3.584-2.916 6.5-6.5 6.5s-6.5-2.916-6.5-6.5v-5.229c0-11.855-9.645-21.5-21.5-21.5h-19.5c-1.378 0-2.5-1.122-2.5-2.5zm15 151.5h385v15h-385zm276.5 107.5v2.5h-168v-2.5c0-6.893 5.607-12.5 12.5-12.5h143c6.892 0 12.5 5.607 12.5 12.5zm-59-27.5h-50v-20h50z"/><path d="m256 120.108c-12.257 0-22.229 9.972-22.229 22.228v33.327c0 12.256 9.972 22.228 22.229 22.228s22.229-9.972 22.229-22.228v-33.327c-.001-12.256-9.972-22.228-22.229-22.228zm7.228 55.555c0 3.985-3.243 7.228-7.229 7.228s-7.229-3.243-7.229-7.228v-33.327c0-3.985 3.243-7.228 7.229-7.228 3.985 0 7.229 3.243 7.229 7.228z"/><path d="m296.019 342h-.01c-4.142 0-7.495 3.358-7.495 7.5s3.363 7.5 7.505 7.5c4.143 0 7.5-3.358 7.5-7.5s-3.357-7.5-7.5-7.5z"/><path d="m336.019 342h-.01c-4.142 0-7.495 3.358-7.495 7.5s3.363 7.5 7.505 7.5c4.143 0 7.5-3.358 7.5-7.5s-3.357-7.5-7.5-7.5z"/><path d="m376.019 342h-.01c-4.142 0-7.495 3.358-7.495 7.5s3.363 7.5 7.505 7.5c4.143 0 7.5-3.358 7.5-7.5s-3.357-7.5-7.5-7.5z"/><path d="m416.019 342h-.01c-4.142 0-7.495 3.358-7.495 7.5s3.363 7.5 7.505 7.5c4.143 0 7.5-3.358 7.5-7.5s-3.357-7.5-7.5-7.5z"/><path d="m256.02 342h-.01c-4.142 0-7.495 3.358-7.495 7.5s3.363 7.5 7.505 7.5 7.5-3.358 7.5-7.5-3.358-7.5-7.5-7.5z"/><path d="m176.02 342h-.01c-4.142 0-7.495 3.358-7.495 7.5s3.363 7.5 7.505 7.5 7.5-3.358 7.5-7.5-3.358-7.5-7.5-7.5z"/><path d="m136.02 342h-.01c-4.142 0-7.495 3.358-7.495 7.5s3.363 7.5 7.505 7.5 7.5-3.358 7.5-7.5-3.358-7.5-7.5-7.5z"/><path d="m96.02 342h-.01c-4.142 0-7.495 3.358-7.495 7.5s3.363 7.5 7.505 7.5 7.5-3.358 7.5-7.5-3.358-7.5-7.5-7.5z"/></g></g></svg>