<svg id="Capa_1" enable-background="new 0 0 512 512" height="512" viewBox="0 0 512 512" width="512" xmlns="http://www.w3.org/2000/svg"><g><g><g><path d="m184.5 238h-135v-10.84c0-20.926 17.209-34.734 17.209-34.734 7.414-4.228 16.26-6.14 25.474-4.805l55.7 8.072c15.766 2.285 28.48 12.992 33.852 27.164.017.045.034.099.051.143 0 0-.285 9.74-.285 15z" fill="#f8f7f7"/><path d="m72.34 223c-5.987 0-10.84-4.853-10.84-10.84 0-7.221 1.908-13.94 5.209-19.734-11.973 6.827-20.209 19.699-20.209 34.734v13.84h138v-3c0-5.257-.958-10.316-2.715-15z" fill="#e8e8e8"/></g><g><circle cx="46.5" cy="377" fill="#857e87" r="20"/><g><path d="m46.5 404.5c-15.163 0-27.5-12.336-27.5-27.5s12.337-27.5 27.5-27.5 27.5 12.336 27.5 27.5-12.337 27.5-27.5 27.5zm0-40c-6.893 0-12.5 5.607-12.5 12.5s5.607 12.5 12.5 12.5 12.5-5.607 12.5-12.5-5.607-12.5-12.5-12.5z" fill="#6f6571"/></g></g><g><circle cx="465.5" cy="377" fill="#857e87" r="20"/><g><path d="m465.5 404.5c-15.163 0-27.5-12.336-27.5-27.5s12.337-27.5 27.5-27.5 27.5 12.336 27.5 27.5-12.337 27.5-27.5 27.5zm0-40c-6.893 0-12.5 5.607-12.5 12.5s5.607 12.5 12.5 12.5 12.5-5.607 12.5-12.5-5.607-12.5-12.5-12.5z" fill="#6f6571"/></g></g><g><path d="m276.5 238h192v60.5h-192z" fill="#bde4ff"/><path d="m276.5 283.5h192v18h-192z" fill="#99dbff"/></g><g><path d="m228.5 238h-167l-22 3v57.5h189z" fill="#bde4ff"/><path d="m61.5 273.5v-35.5h-25v63.5h199v-18h-164c-5.523 0-10-4.477-10-10z" fill="#99dbff"/></g><g><path d="m277.5 298.5h-61v-63.5c0-6.627 5.373-12 12-12l1-2h38c6.627 0 12 5.373 12 12v50.5z" fill="#f8f7f7"/><path d="m229.5 273.5v-52.5h-3c-6.627 0-12 5.373-12 12v68.5h65v-18h-40c-5.523 0-10-4.477-10-10z" fill="#e8e8e8"/></g><g><path d="m468.5 298h-407l-15 3v25h421z" fill="#b57f5f"/><path d="m61.5 303v-5h-18l3 30h419l3-15h-397c-5.523 0-10-4.477-10-10z" fill="#9f6e50"/></g><g><path d="m497.5 326h-30v-204c0-2.761 2.239-5 5-5l8-2h19c2.761 0 5 2.239 5 5v193l-2 8c0 2.761-2.239 5-5 5z" fill="#c38c66"/><path d="m480.5 303v-188h-10c-2.761 0-5 2.239-5 5v208h34c2.761 0 5-2.239 5-5v-10h-14c-5.523 0-10-4.477-10-10z" fill="#b57f5f"/></g><g><path d="m44.5 326h-30c-2.761 0-5-2.239-5-5v-199c0-2.761 2.239-5 5-5l8-2h19c2.761 0 5 2.239 5 5v193z" fill="#c38c66"/><path d="m32.5 313c-5.523 0-10-4.477-10-10v-188h-10c-2.761 0-5 2.239-5 5v203c0 2.761 2.239 5 5 5h34v-15z" fill="#b57f5f"/></g></g><g><path d="m499.5 107.5h-29c-6.893 0-12.5 5.607-12.5 12.5v110.5h-52v-76.5c0-16.818-13.683-30.5-30.5-30.5h-239c-16.817 0-30.5 13.682-30.5 30.5v28.035l-12.742-1.837c-13.473-2.001-28.863 2.457-39.258 12.36v-72.558c0-6.893-5.607-12.5-12.5-12.5h-29c-6.893 0-12.5 5.607-12.5 12.5v32.2c0 4.142 3.357 7.5 7.5 7.5s7.5-3.358 7.5-7.5v-29.7h24v198h-24v-133.3c0-4.142-3.357-7.5-7.5-7.5s-7.5 3.358-7.5 7.5v135.8c0 6.893 5.607 12.5 12.5 12.5h6.5v41.5c0 15.164 12.337 27.5 27.5 27.5s27.5-12.336 27.5-27.5-12.337-27.5-27.5-27.5c-4.5 0-8.747 1.093-12.5 3.018v-17.018h70.319c4.143 0 7.5-3.358 7.5-7.5s-3.357-7.5-7.5-7.5h-50.319v-14.5h300.417c4.143 0 7.5-3.358 7.5-7.5s-3.357-7.5-7.5-7.5h-67.417v-45.5h171v45.5h-68.583c-4.143 0-7.5 3.358-7.5 7.5s3.357 7.5 7.5 7.5h68.583v14.5h-318.681c-4.143 0-7.5 3.358-7.5 7.5s3.357 7.5 7.5 7.5h338.681v17.018c-3.753-1.924-8-3.018-12.5-3.018-15.163 0-27.5 12.336-27.5 27.5s12.337 27.5 27.5 27.5 27.5-12.336 27.5-27.5v-41.5h6.5c6.893 0 12.5-5.607 12.5-12.5v-203c0-6.893-5.607-12.5-12.5-12.5zm-453 257c6.893 0 12.5 5.607 12.5 12.5s-5.607 12.5-12.5 12.5-12.5-5.607-12.5-12.5 5.607-12.5 12.5-12.5zm344.5-210.5v76.5h-56.5v-22.5c0-4.142-3.357-7.5-7.5-7.5s-7.5 3.358-7.5 7.5v22.5h-32.679c-1.234-9.573-9.418-17-19.321-17h-4v-75h56v34.5c0 4.142 3.357 7.5 7.5 7.5s7.5-3.358 7.5-7.5v-34.5h41c8.547 0 15.5 6.953 15.5 15.5zm-164.5 59.5c-9.903 0-18.088 7.427-19.321 17h-14.679v-92h56v75zm-105.5-59.5c0-8.547 6.953-15.5 15.5-15.5h41v63.826c-7.429-7.354-17.141-12.456-28.051-14.028l-28.449-4.101zm-55.786 48.622c7.127-6.168 16.561-8.933 25.898-7.578l56.196 8.101c14.674 2.115 26.265 13.321 29.366 27.355h-122.674v-3.34c0-9.426 4.088-18.369 11.214-24.538zm-11.214 42.878h153v45.5h-153zm168 45.5v-58c0-2.481 2.019-4.5 4.5-4.5h41c2.481 0 4.5 2.019 4.5 4.5v58zm243.5 98.5c-6.893 0-12.5-5.607-12.5-12.5s5.607-12.5 12.5-12.5 12.5 5.607 12.5 12.5-5.607 12.5-12.5 12.5zm31.5-69h-24v-198h24z"/></g></g></svg>