<svg id="Capa_1" enable-background="new 0 0 512 512" height="512" viewBox="0 0 512 512" width="512" xmlns="http://www.w3.org/2000/svg"><g><g><g><path d="m427.5 502.5h-343c-8.284 0-15-6.716-15-15v-463c0-8.284 4.716-17 13-17h347c8.284 0 15 6.716 15 15v467c0 8.284-8.716 13-17 13z" fill="#857e87"/><path d="m82.5 7.5c-8.284 0-15 6.716-15 15v467c0 8.284 6.716 15 15 15h347c8.284 0 15-6.716 15-15h-342c-11.046 0-20-8.954-20-20z" fill="#6f6571"/></g><g><path d="m351 350c0-52.467-42.533-95-95-95-23.433 0-44.883 8.487-61.448 22.551 0 0-31.552 28.683-31.552 72.449 0 52.467 40.533 93 93 93 44.66 0 72.449-31.552 72.449-31.552 14.064-16.565 22.551-38.015 22.551-61.448z" fill="#6f6571"/><path d="m267 434c-52.467 0-95-42.533-95-95 0-23.433 8.487-44.883 22.552-61.449-20.525 17.426-33.552 43.415-33.552 72.449 0 52.467 42.533 95 95 95 29.034 0 55.023-13.027 72.449-33.552-16.566 14.065-38.016 22.552-61.449 22.552z" fill="#635a63"/></g><g><path d="m321 350c0-35.898-29.102-65-65-65-14.634 0-28.137 4.837-39.001 12.998 0 0-23.999 25.172-23.999 52.002 0 35.898 27.101 63 63 63 29.851 0 52.002-23.999 52.002-23.999 8.161-10.864 12.998-24.367 12.998-39.001z" fill="#ff8086"/><path d="m269 402c-35.898 0-65-29.102-65-65 0-14.634 4.838-28.138 12.999-39.002-15.787 11.859-25.999 30.737-25.999 52.002 0 35.898 29.102 65 65 65 21.265 0 40.143-10.212 52.002-25.999-10.864 8.161-24.368 12.999-39.002 12.999z" fill="#e5646e"/></g><g><path d="m127.5 52.5c0-8.284-6.716-15-15-15-1.227 0-2.418.156-3.56.434 0 0-9.44 4.385-9.44 14.566 0 8.284 4.716 13 13 13 11.606 0 14.566-9.44 14.566-9.44.278-1.142.434-2.333.434-3.56z" fill="#6f6571"/><path d="m123.5 56.5c-8.284 0-15-6.716-15-15 0-1.228.162-2.424.44-3.566-6.564 1.6-11.44 7.51-11.44 14.566 0 8.284 6.716 15 15 15 7.056 0 12.966-4.876 14.566-11.44-1.142.278-2.338.44-3.566.44z" fill="#635a63"/></g><g><path d="m414.5 52.5c0-8.284-6.716-15-15-15-1.227 0-2.418.156-3.56.434 0 0-9.44 4.385-9.44 14.566 0 8.284 4.716 13 13 13 11.606 0 14.566-9.44 14.566-9.44.278-1.142.434-2.333.434-3.56z" fill="#6f6571"/><path d="m410.5 56.5c-8.284 0-15-6.716-15-15 0-1.228.162-2.424.44-3.566-6.564 1.6-11.44 7.51-11.44 14.566 0 8.284 6.716 15 15 15 7.056 0 12.966-4.876 14.566-11.44-1.142.278-2.338.44-3.566.44z" fill="#635a63"/></g><g><path d="m127.5 459.5c0-8.284-6.716-15-15-15-1.227 0-2.418.156-3.56.434 0 0-9.44 4.385-9.44 14.566 0 8.284 4.716 13 13 13 11.606 0 14.566-9.44 14.566-9.44.278-1.142.434-2.333.434-3.56z" fill="#6f6571"/><path d="m123.5 463.5c-8.284 0-15-6.716-15-15 0-1.228.162-2.424.44-3.566-6.564 1.6-11.44 7.51-11.44 14.566 0 8.284 6.716 15 15 15 7.056 0 12.966-4.876 14.566-11.44-1.142.278-2.338.44-3.566.44z" fill="#635a63"/></g><g><path d="m414.5 459.5c0-8.284-6.716-15-15-15-1.227 0-2.418.156-3.56.434 0 0-9.44 4.385-9.44 14.566 0 8.284 4.716 13 13 13 11.606 0 14.566-9.44 14.566-9.44.278-1.142.434-2.333.434-3.56z" fill="#6f6571"/><path d="m410.5 463.5c-8.284 0-15-6.716-15-15 0-1.228.162-2.424.44-3.566-6.564 1.6-11.44 7.51-11.44 14.566 0 8.284 6.716 15 15 15 7.056 0 12.966-4.876 14.566-11.44-1.142.278-2.338.44-3.566.44z" fill="#635a63"/></g><g><g><path d="m181 209.5c0 1.514-.227 2.976-.644 4.354 0 0-4.611 9.646-14.356 9.646-8.284 0-14-5.716-14-14 0-9.202 9.593-14.339 9.593-14.339 1.409-.438 2.854-.661 4.407-.661 8.284 0 15 6.716 15 15z" fill="#afefa5"/><path d="m176 214.5c-8.284 0-15-6.716-15-15 0-1.515.176-2.961.593-4.339-6.16 1.866-10.593 7.569-10.593 14.339 0 8.284 6.716 15 15 15 6.77 0 12.489-4.486 14.356-10.646-1.379.417-2.841.646-4.356.646z" fill="#8ce1a4"/></g><g><path d="m241 209.5c0 1.514-.227 2.976-.644 4.354 0 0-4.611 9.646-14.356 9.646-8.284 0-14-5.716-14-14 0-9.202 9.593-14.339 9.593-14.339 1.409-.438 2.854-.661 4.407-.661 8.284 0 15 6.716 15 15z" fill="#afefa5"/><path d="m236 214.5c-8.284 0-15-6.716-15-15 0-1.515.176-2.961.593-4.339-6.16 1.866-10.593 7.569-10.593 14.339 0 8.284 6.716 15 15 15 6.77 0 12.489-4.486 14.356-10.646-1.379.417-2.841.646-4.356.646z" fill="#8ce1a4"/></g><g><path d="m301 209.5c0 1.514-.227 2.976-.644 4.354 0 0-4.611 9.646-14.356 9.646-8.284 0-14-5.716-14-14 0-9.202 9.593-14.339 9.593-14.339 1.409-.438 2.854-.661 4.407-.661 8.284 0 15 6.716 15 15z" fill="#ff8086"/><path d="m296 214.5c-8.284 0-15-6.716-15-15 0-1.515.176-2.961.593-4.339-6.16 1.866-10.593 7.569-10.593 14.339 0 8.284 6.716 15 15 15 6.77 0 12.49-4.486 14.356-10.646-1.379.417-2.841.646-4.356.646z" fill="#e5646e"/></g><g><path d="m361 209.5c0 1.514-.227 2.976-.644 4.354 0 0-4.611 9.646-14.356 9.646-8.284 0-14-5.716-14-14 0-9.202 9.593-14.339 9.593-14.339 1.409-.438 2.854-.661 4.407-.661 8.284 0 15 6.716 15 15z" fill="#afefa5"/><path d="m356 214.5c-8.284 0-15-6.716-15-15 0-1.515.176-2.961.593-4.339-6.16 1.866-10.593 7.569-10.593 14.339 0 8.284 6.716 15 15 15 6.77 0 12.49-4.486 14.356-10.646-1.379.417-2.841.646-4.356.646z" fill="#8ce1a4"/></g></g></g><g><path d="m266 497h-183.5c-4.136 0-7.5-3.364-7.5-7.5v-325c0-4.142-3.357-7.5-7.5-7.5s-7.5 3.358-7.5 7.5v325c0 12.407 10.094 22.5 22.5 22.5h183.5c4.143 0 7.5-3.358 7.5-7.5s-3.357-7.5-7.5-7.5z"/><path d="m429.5 0h-347c-12.406 0-22.5 10.093-22.5 22.5v107c0 4.142 3.357 7.5 7.5 7.5s7.5-3.358 7.5-7.5v-107c0-4.136 3.364-7.5 7.5-7.5h347c4.136 0 7.5 3.364 7.5 7.5v467c0 4.136-3.364 7.5-7.5 7.5h-128.5c-4.143 0-7.5 3.358-7.5 7.5s3.357 7.5 7.5 7.5h128.5c12.406 0 22.5-10.093 22.5-22.5v-467c0-12.407-10.094-22.5-22.5-22.5z"/><path d="m153.5 350c0 56.519 45.981 102.5 102.5 102.5s102.5-45.981 102.5-102.5-45.981-102.5-102.5-102.5-102.5 45.981-102.5 102.5zm102.5-87.5c48.248 0 87.5 39.252 87.5 87.5s-39.252 87.5-87.5 87.5-87.5-39.252-87.5-87.5 39.252-87.5 87.5-87.5z"/><path d="m256 422.5c39.977 0 72.5-32.523 72.5-72.5 0-10.653-2.26-20.919-6.717-30.513-1.745-3.756-6.204-5.387-9.962-3.642-3.756 1.745-5.387 6.205-3.642 9.961 3.53 7.6 5.32 15.739 5.32 24.193 0 31.706-25.794 57.5-57.5 57.5s-57.5-25.794-57.5-57.5 25.794-57.5 57.5-57.5c11.613 0 22.801 3.443 32.353 9.958 3.422 2.333 8.088 1.452 10.422-1.971 2.334-3.422 1.451-8.088-1.971-10.422-12.052-8.219-26.161-12.564-40.803-12.564-39.977 0-72.5 32.523-72.5 72.5s32.523 72.5 72.5 72.5z"/><path d="m112.5 75c12.406 0 22.5-10.093 22.5-22.5s-10.094-22.5-22.5-22.5-22.5 10.093-22.5 22.5 10.094 22.5 22.5 22.5zm0-30c4.136 0 7.5 3.364 7.5 7.5s-3.364 7.5-7.5 7.5-7.5-3.364-7.5-7.5 3.364-7.5 7.5-7.5z"/><path d="m399.5 75c12.406 0 22.5-10.093 22.5-22.5s-10.094-22.5-22.5-22.5-22.5 10.093-22.5 22.5 10.094 22.5 22.5 22.5zm0-30c4.136 0 7.5 3.364 7.5 7.5s-3.364 7.5-7.5 7.5-7.5-3.364-7.5-7.5 3.364-7.5 7.5-7.5z"/><path d="m112.5 482c12.406 0 22.5-10.093 22.5-22.5s-10.094-22.5-22.5-22.5-22.5 10.093-22.5 22.5 10.094 22.5 22.5 22.5zm0-30c4.136 0 7.5 3.364 7.5 7.5s-3.364 7.5-7.5 7.5-7.5-3.364-7.5-7.5 3.364-7.5 7.5-7.5z"/><path d="m399.5 482c12.406 0 22.5-10.093 22.5-22.5s-10.094-22.5-22.5-22.5-22.5 10.093-22.5 22.5 10.094 22.5 22.5 22.5zm0-30c4.136 0 7.5 3.364 7.5 7.5s-3.364 7.5-7.5 7.5-7.5-3.364-7.5-7.5 3.364-7.5 7.5-7.5z"/><path d="m308.5 209.5c0-12.407-10.094-22.5-22.5-22.5s-22.5 10.093-22.5 22.5 10.094 22.5 22.5 22.5 22.5-10.093 22.5-22.5zm-30 0c0-4.136 3.364-7.5 7.5-7.5s7.5 3.364 7.5 7.5-3.364 7.5-7.5 7.5-7.5-3.364-7.5-7.5z"/><path d="m368.5 209.5c0-12.407-10.094-22.5-22.5-22.5s-22.5 10.093-22.5 22.5 10.094 22.5 22.5 22.5 22.5-10.093 22.5-22.5zm-22.5 7.5c-4.136 0-7.5-3.364-7.5-7.5s3.364-7.5 7.5-7.5 7.5 3.364 7.5 7.5-3.364 7.5-7.5 7.5z"/><path d="m248.5 209.5c0-12.407-10.094-22.5-22.5-22.5s-22.5 10.093-22.5 22.5 10.094 22.5 22.5 22.5 22.5-10.093 22.5-22.5zm-30 0c0-4.136 3.364-7.5 7.5-7.5s7.5 3.364 7.5 7.5-3.364 7.5-7.5 7.5-7.5-3.364-7.5-7.5z"/><path d="m166 232c12.406 0 22.5-10.093 22.5-22.5s-10.094-22.5-22.5-22.5-22.5 10.093-22.5 22.5 10.094 22.5 22.5 22.5zm0-30c4.136 0 7.5 3.364 7.5 7.5s-3.364 7.5-7.5 7.5-7.5-3.364-7.5-7.5 3.364-7.5 7.5-7.5z"/><path d="m149 164.5c0 4.142 3.357 7.5 7.5 7.5h20c4.143 0 7.5-3.358 7.5-7.5s-3.357-7.5-7.5-7.5h-20c-4.143 0-7.5 3.358-7.5 7.5z"/><path d="m209 164.5c0 4.142 3.357 7.5 7.5 7.5h20c4.143 0 7.5-3.358 7.5-7.5s-3.357-7.5-7.5-7.5h-20c-4.143 0-7.5 3.358-7.5 7.5z"/><path d="m276.5 157c-4.143 0-7.5 3.358-7.5 7.5s3.357 7.5 7.5 7.5h20c4.143 0 7.5-3.358 7.5-7.5s-3.357-7.5-7.5-7.5z"/><path d="m356.5 157h-20c-4.143 0-7.5 3.358-7.5 7.5s3.357 7.5 7.5 7.5h20c4.143 0 7.5-3.358 7.5-7.5s-3.357-7.5-7.5-7.5z"/><path d="m186.309 116c-5.293 0-10.381-2.127-13.609-5.689-2.782-3.07-7.524-3.301-10.595-.521-3.068 2.782-3.302 7.525-.521 10.594 6.115 6.746 15.127 10.616 24.725 10.616 11.894 0 21.886-7.613 23.759-18.102 1.414-7.917-2.149-18.25-16.388-23.501-6.648-2.453-12.845-5.121-14.859-6.001-1.187-1.004-1.143-2.375-1.061-2.954.123-.852.751-2.937 3.937-3.897 7.409-2.23 14.346 3.213 14.561 3.386 3.172 2.625 7.871 2.206 10.524-.951 2.665-3.171 2.255-7.902-.915-10.567-.53-.445-13.154-10.853-28.496-6.23-7.828 2.358-13.368 8.538-14.458 16.128-1.024 7.137 2.07 14.002 8.076 17.917 1.167.735 8.323 3.772 17.5 7.242 1.767.651 7.478 3.067 6.812 6.792-.504 2.821-4.005 5.738-8.992 5.738z"/><path d="m328.309 116c-5.293 0-10.381-2.127-13.609-5.689-2.782-3.07-7.524-3.301-10.595-.521-3.068 2.782-3.302 7.525-.521 10.594 6.115 6.746 15.127 10.616 24.725 10.616 11.894 0 21.886-7.613 23.759-18.102 1.414-7.917-2.149-18.25-16.388-23.501-6.648-2.453-12.845-5.121-14.859-6.001-1.187-1.004-1.143-2.375-1.061-2.954.123-.852.751-2.937 3.937-3.897 7.408-2.23 14.345 3.213 14.561 3.386 3.172 2.625 7.871 2.206 10.524-.951 2.665-3.171 2.255-7.902-.915-10.567-.53-.445-13.154-10.853-28.496-6.23-7.828 2.358-13.368 8.538-14.458 16.128-1.024 7.137 2.07 14.002 8.076 17.917 1.167.735 8.323 3.772 17.5 7.242 1.767.651 7.478 3.067 6.812 6.792-.504 2.821-4.005 5.738-8.992 5.738z"/><path d="m256 61c-19.299 0-35 15.701-35 35s15.701 35 35 35 35-15.701 35-35-15.701-35-35-35zm0 55c-11.028 0-20-8.972-20-20s8.972-20 20-20 20 8.972 20 20-8.972 20-20 20z"/></g></g></svg>