<svg id="Capa_1" enable-background="new 0 0 511.993 511.993" height="512" viewBox="0 0 511.993 511.993" width="512" xmlns="http://www.w3.org/2000/svg"><g><g><path d="m442.814 7.5c17.552 0 31.781 14.182 31.781 31.676v119.622c0 17.494-14.229 31.676-31.781 31.676h-74.891c-4.337 0-8.557 1.41-12.023 4.018l-54.909 41.307-9.254 2.908c-2.636 1.983-6.405.102-6.405-3.196l.191-37.181c0-4.901-5.06-6.834-9.713-7.69-.591-.109-1.199-.165-1.821-.165h-12.253l-14.255-1.176c-17.552 0-29.128-14.421-29.128-31.915l-.489-113.681c0-12.175 14.731-32.575 14.731-32.575 4.416-2.316 9.445-3.627 14.781-3.627h195.438z" fill="#ff8086"/><path d="m300.992 200.47-.001 35.329-10.599 7.971c-2.63 1.98-6.4.1-6.4-3.2v-40.1c0-5.52-4.48-10-10-10h17c5.52 0 10 4.48 10 10z" fill="#e5646e"/><path d="m264.372 190.47h-17c-17.55 0-31.78-14.18-31.78-31.67v-119.62c0-12.18 6.894-22.743 17.004-28.053l-.004 147.673c0 17.49 14.23 31.67 31.78 31.67z" fill="#e5646e"/><g><path d="m400.525 408.165-.462-1.714-46.683-46.684c-7.115-7.115-17.908-9.034-27.041-4.796l-40.272 18.647c-9.134 4.217-19.926 2.299-27.041-4.816l.199.199c-.067-.066-.14-.127-.206-.194l-85.945-85.945c-7.115-7.114-9.034-17.912-4.808-27.043l18.645-40.283c4.226-9.131 2.307-19.929-4.808-27.043l-47.535-47.536c-9.37-9.37-24.561-9.37-33.931 0l-49.2 49.199.001.001-.008.008.034.017.005.004c-1.186 1.186-2.303 2.428-3.349 3.72-11.393 14.069-10.729 34.971-2.253 52.288 56.101 114.521 136.929 194.798 251.45 250.899 16.948 8.313 34.868 6.319 48.881-4.459 1.62-1.246 4.645-4.082 4.651-4.094.006-.006 47.973-48.585 47.973-48.585 9.366-9.371 11.073-22.42 1.703-31.79z" fill="#f8f7f7"/><path d="m400.924 407.31-.86-.86s-46.21 45.517-67.69 66.176c-6.138 5.903-15.335 7.269-22.932 3.423-110.25-55.806-192.435-138.84-247.168-250.839-.47-.96-9.34-20.58-14.15-31.3-11.4 14.07-14.32 33.98-5.85 51.3 56.1 114.52 139.88 198.28 254.4 254.38.772.255-.116.202 3.156 1.282-.035.029-.071.059-.106.088 16.19 6.6 34.19 3.7 47.37-6.44 1.62-1.25 3.16-2.6 4.63-4.06.01-.01.01-.02.02-.04 0 0 .01-.01.02-.01l49.16-49.17c9.37-9.37 9.37-24.56 0-33.93z" fill="#e8e8e8"/></g><path d="m403.595 75.549h-31.062c-2.209 0-4-1.791-4-4v-31.062c0-2.209-1.791-4-4-4h-38.875c-2.209 0-4 1.791-4 4v31.062c0 2.209-1.791 4-4 4h-31.062c-2.209 0-4 1.791-4 4v38.875c0 2.209 1.791 4 4 4h31.062c2.209 0 4 1.791 4 4v31.063c0 2.209 1.791 4 4 4h38.875c2.209 0 4-1.791 4-4v-31.063c0-2.209 1.791-4 4-4h31.062c2.209 0 4-1.791 4-4v-38.875c0-2.209-1.79-4-4-4z" fill="#f8f7f7"/></g><g><path d="m392.415 388.194c-2.929-2.929-7.678-2.93-10.606-.001-2.93 2.929-2.93 7.678-.001 10.606l13.813 13.814c6.43 6.431 6.43 16.895 0 23.324l-49.163 49.163c-.053.053-.109.112-.163.169-.023.024-.046.049-.069.074-12.248 12.064-30.792 15.09-46.245 7.51-90.529-44.346-160.412-105.032-213.642-185.523-2.284-3.455-6.937-4.404-10.393-2.119-3.455 2.285-4.404 6.938-2.119 10.393 27.109 40.994 59.276 77.775 95.606 109.32 36.27 31.491 77.971 58.879 123.943 81.399 7.778 3.815 16.126 5.67 24.411 5.67 14.39 0 28.586-5.597 39.237-16.233.081-.082.161-.166.239-.252l48.963-48.963c12.277-12.278 12.277-32.258 0-44.536z"/><path d="m49.012 241.909c-7.598-15.525-4.479-34.181 7.76-46.421.598-.782 48.505-48.502 49.168-49.229 6.43-6.43 16.893-6.432 23.324 0l47.535 47.536c4.87 4.869 6.198 12.34 3.306 18.589l-18.646 40.282c-5.523 11.935-2.987 26.199 6.311 35.498l85.945 85.945c8.94 8.765 22.96 11.945 35.504 6.313l40.276-18.648c6.246-2.898 13.714-1.573 18.582 3.295l8.962 8.963c2.93 2.93 7.679 2.929 10.606.001 2.93-2.929 2.93-7.678.001-10.606l-8.962-8.964c-9.303-9.301-23.568-11.833-35.497-6.298l-40.265 18.644c-5.225 2.535-13.894 1.601-18.852-3.557l-85.694-85.695c-4.87-4.869-6.198-12.34-3.305-18.59l18.646-40.282c5.522-11.934 2.986-26.199-6.312-35.497l-47.535-47.536c-.006-.006-.013-.011-.02-.018-12.279-12.259-32.245-12.253-44.518.018-1.091 1.165-48.745 48.606-49.774 49.847-16.268 16.777-20.309 41.982-10.019 63.008 5.983 12.214 12.367 24.244 18.973 35.757 2.062 3.593 6.645 4.837 10.237 2.772 3.593-2.061 4.834-6.645 2.772-10.237-6.441-11.232-12.67-22.971-18.509-34.89z"/><path d="m368.533 28.987h-46.875c-4.143 0-7.5 3.357-7.5 7.5v31.563h-31.562c-4.143 0-7.5 3.357-7.5 7.5v46.875c0 4.143 3.357 7.5 7.5 7.5h31.562v31.562c0 4.143 3.357 7.5 7.5 7.5h46.875c4.143 0 7.5-3.357 7.5-7.5v-31.562h31.562c4.143 0 7.5-3.357 7.5-7.5v-46.875c0-4.143-3.357-7.5-7.5-7.5h-31.562v-31.563c0-4.142-3.358-7.5-7.5-7.5zm31.562 54.063v31.875h-31.562c-4.143 0-7.5 3.357-7.5 7.5v31.562h-31.875v-31.562c0-4.143-3.357-7.5-7.5-7.5h-31.562v-31.875h31.562c4.143 0 7.5-3.357 7.5-7.5v-31.563h31.875v31.563c0 4.143 3.357 7.5 7.5 7.5z"/><path d="m442.814 0h-129.134c-4.143 0-7.5 3.357-7.5 7.5s3.357 7.5 7.5 7.5h129.134c13.389 0 24.281 10.845 24.281 24.176v62.448c0 4.143 3.357 7.5 7.5 7.5s7.5-3.357 7.5-7.5v-62.448c0-21.602-17.621-39.176-39.281-39.176z"/><path d="m474.595 129.573c-4.143 0-7.5 3.357-7.5 7.5v21.725c0 13.33-10.893 24.176-24.281 24.176h-74.891c-5.926 0-11.797 1.962-16.532 5.524l-59.902 45.063v-33.088c0-9.649-7.851-17.5-17.5-17.5h-26.612c-13.389 0-24.281-10.846-24.281-24.176v-119.621c0-13.331 10.893-24.176 24.281-24.176h31.304c4.143 0 7.5-3.357 7.5-7.5s-3.357-7.5-7.5-7.5h-31.304c-21.66 0-39.281 17.574-39.281 39.176v119.622c0 21.602 17.621 39.176 39.281 39.176h26.612c1.379 0 2.5 1.121 2.5 2.5v40.101c0 4.388 2.438 8.33 6.364 10.289 1.64.818 3.398 1.222 5.147 1.222 2.44 0 4.859-.784 6.902-2.321l65.506-49.279c2.152-1.619 4.821-2.511 7.515-2.511h74.891c21.66 0 39.281-17.574 39.281-39.176v-21.725c0-4.143-3.357-7.501-7.5-7.501z"/></g></g></svg>