<svg id="Capa_1" enable-background="new 0 0 512 512" height="512" viewBox="0 0 512 512" width="512" xmlns="http://www.w3.org/2000/svg"><g><g><g><path d="m283.77 392.2h-55.54c-8.599 0-15.57-6.971-15.57-15.57v-29.125h86.68v29.125c0 8.599-6.971 15.57-15.57 15.57z" fill="#bac5e2"/></g><g><path d="m233.3 376.63v-29.125h-20.64v29.125c0 8.599 6.971 15.57 15.57 15.57h20.64c-8.599 0-15.57-6.971-15.57-15.57z" fill="#a7b4d1"/></g><g><path d="m485.5 352.812h-459c-10.493 0-19-8.507-19-19v-307.312c0-10.493 8.507-19 19-19h448c16.569 0 30 13.431 30 30v296.312c0 10.493-8.506 19-19 19z" fill="#e9efff"/></g><g><path d="m52.5 297.812v-235.312c0-5.523 4.477-10 10-10h387c5.523 0 10 4.477 10 10v235.312c0 5.523-4.477 10-10 10h-387c-5.522 0-10-4.478-10-10z" fill="#42c3fc"/></g><g><path d="m32.7 333.812v-307.312c0-10.493 8.507-19 19-19h-25.2c-10.493 0-19 8.507-19 19v307.312c0 10.493 8.507 19 19 19h25.2c-10.493 0-19-8.507-19-19z" fill="#d3dcfb"/></g><g><path d="m77.7 297.812v-235.312c0-5.523 4.477-10 10-10h-25.2c-5.523 0-10 4.477-10 10v235.312c0 5.523 4.477 10 10 10h25.2c-5.522 0-10-4.478-10-10z" fill="#1aa9e8"/></g><g><path d="m459.5 251.885v45.927c0 5.523-4.477 10-10 10h-120.018v42.464c0 .851.027 1.695.068 2.536h155.95c3.934 0 7.589-1.196 10.621-3.244v-42.913c0-24.665-15.145-45.852-36.621-54.77z" fill="#d3dcfb"/></g><g><path d="m459.5 297.812v-45.927c-6.985-2.901-14.637-4.511-22.659-4.511h-48.078c-32.688 0-59.281 26.594-59.281 59.281v1.156h120.018c5.523.001 10-4.477 10-9.999z" fill="#1aa9e8"/></g><g><path d="m367.247 226.558-45.005 15.446c-42.932 14.735-89.551 14.735-132.483 0l-45.005-15.446c-7.588-2.604-11.15-11.292-7.573-18.474l46.549-93.469c3.164-6.353 10.765-9.093 17.255-6.221 35.039 15.505 74.993 15.505 110.032 0 6.49-2.872 14.091-.131 17.255 6.221l46.549 93.469c3.575 7.182.014 15.87-7.574 18.474z" fill="#1c8ae5"/></g><g><path d="m156.947 217.247 47.903-96.391c2.013-4.042 5.824-6.613 10-7.215-4.69-1.49-9.32-3.234-13.865-5.246-6.49-2.872-14.091-.131-17.255 6.221l-46.549 93.469c-3.576 7.181-.015 15.869 7.573 18.474l13.529 4.644c-2.938-3.869-3.688-9.233-1.336-13.956z" fill="#1e6ee2"/></g><g><path d="m388.763 272.374h48.078c18.933 0 34.281 15.348 34.281 34.281v14.64h-116.64v-14.64c0-18.933 15.348-34.281 34.281-34.281z" fill="#ffdd40"/></g><g><path d="m406.403 272.374h-17.64c-18.933 0-34.281 15.348-34.281 34.281v14.64h17.64v-14.64c0-18.933 15.348-34.281 34.281-34.281z" fill="#ffc043"/></g><g><path d="m354.482 321.295v28.98c0 14.812 12.008 26.82 26.82 26.82 4.473 0 8.1 3.626 8.1 8.1v67.558c0 12.923 10.477 23.4 23.4 23.4 12.923 0 23.4-10.477 23.4-23.4v-67.558c0-4.473 3.626-8.1 8.1-8.1 14.812 0 26.82-12.008 26.82-26.82v-28.98z" fill="#e5979d"/></g><g><path d="m407.162 452.754v-67.558c0-4.473-3.626-8.1-8.1-8.1-14.812 0-26.82-12.008-26.82-26.82v-28.98h-17.76v28.98c0 14.812 12.008 26.82 26.82 26.82 4.474 0 8.1 3.626 8.1 8.1v67.558c0 12.923 10.477 23.4 23.4 23.4 3.144 0 6.141-.624 8.88-1.749-8.519-3.498-14.52-11.872-14.52-21.651z" fill="#e17f85"/></g><g><path d="m291.666 149.607c-13.724-.852-25.652 7.345-30.387 19.194-2.779 6.953-9.705 11.354-17.193 11.354h-37.102c-8.452 0-15.305 6.852-15.305 15.305 0 8.452 6.852 15.305 15.305 15.305h82.729c17.552 0 31.653-14.773 30.548-32.562-.946-15.243-13.352-27.649-28.595-28.596z" fill="#b8f0ff"/></g></g><g><path d="m459.5 248.74c4.143 0 7.5-3.357 7.5-7.5v-178.74c0-9.649-7.851-17.5-17.5-17.5h-387c-9.649 0-17.5 7.851-17.5 17.5v235.312c0 9.649 7.851 17.5 17.5 17.5h259.46c4.143 0 7.5-3.357 7.5-7.5s-3.357-7.5-7.5-7.5h-259.46c-1.379 0-2.5-1.121-2.5-2.5v-235.312c0-1.379 1.121-2.5 2.5-2.5h387c1.379 0 2.5 1.121 2.5 2.5v178.74c0 4.143 3.357 7.5 7.5 7.5z"/><path d="m474.5 0h-448c-14.612 0-26.5 11.888-26.5 26.5v60.642c0 4.143 3.357 7.5 7.5 7.5s7.5-3.357 7.5-7.5v-60.642c0-6.341 5.159-11.5 11.5-11.5h448c12.406 0 22.5 10.094 22.5 22.5v296.312c0 6.341-5.159 11.5-11.5 11.5h-6.878v-38.656c0-23.038-18.743-41.781-41.781-41.781h-48.078c-23.038 0-41.781 18.743-41.781 41.781v38.656h-320.482c-6.341 0-11.5-5.159-11.5-11.5v-211.372c0-4.143-3.357-7.5-7.5-7.5s-7.5 3.357-7.5 7.5v211.371c0 14.612 11.888 26.5 26.5 26.5h178.66v16.318c0 12.721 10.35 23.07 23.07 23.07h20.27v81.069c0 17.221 14.01 31.23 31.23 31.23h117.98c12.338 0 22.437-10.038 22.511-22.376l.041-6.887c13.445-3.347 23.439-15.518 23.439-29.983v-67.559c0-.331.269-.6.6-.6 15.433 0 28.517-10.242 32.82-24.284h8.378c14.612 0 26.5-11.888 26.5-26.5v-296.309c.001-20.678-16.821-37.5-37.499-37.5zm-85.737 279.874h48.078c14.768 0 26.781 12.014 26.781 26.781v7.141h-101.641v-7.141c0-14.767 12.014-26.781 26.782-26.781zm-168.603 96.756v-16.318h71.681v16.318c0 4.45-3.62 8.07-8.07 8.07h-55.54c-4.451 0-8.071-3.62-8.071-8.07zm177.551 120.37h-117.981c-8.949 0-16.23-7.281-16.23-16.23v-81.07h20.271c12.721 0 23.07-10.35 23.07-23.07v-16.318h41.641c4.303 14.042 17.387 24.284 32.82 24.284.331 0 .601.269.601.6v67.559c0 14.438 9.955 26.591 23.36 29.965l-.041 6.815c-.025 4.115-3.395 7.465-7.511 7.465zm46.591-127.404c-8.602 0-15.6 6.998-15.6 15.6v67.559c0 8.767-7.133 15.899-15.9 15.899s-15.899-7.133-15.899-15.899v-67.559c0-8.602-6.998-15.6-15.601-15.6-10.653 0-19.32-8.667-19.32-19.32v-21.479h101.641v21.479c-.001 10.653-8.668 19.32-19.321 19.32z"/><path d="m142.319 233.652 45.005 15.445c22.146 7.602 45.406 11.4 68.676 11.4 23.264 0 46.536-3.801 68.677-11.4l45.005-15.445c5.66-1.942 10.208-6.232 12.479-11.77 2.27-5.537 2.041-11.785-.626-17.142l-46.549-93.469c-4.962-9.963-16.82-14.241-27.004-9.736-33.034 14.617-70.926 14.617-103.962 0-10.179-4.504-22.041-.228-27.004 9.736l-46.549 93.469c-2.667 5.356-2.896 11.604-.626 17.142s6.818 9.828 12.478 11.77zm1.576-22.223 46.549-93.469c1.008-2.024 3.04-3.204 5.165-3.204.783 0 1.579.16 2.341.497 36.894 16.325 79.211 16.323 116.103 0 2.827-1.251 6.127-.063 7.506 2.707l46.549 93.469c1.016 2.038.545 3.859.174 4.765-.37.904-1.314 2.532-3.468 3.271l-45.005 15.445c-41.146 14.123-86.467 14.124-127.614 0l-45.005-15.445c-2.153-.739-3.098-2.367-3.468-3.271-.372-.906-.843-2.727.173-4.765z"/><path d="m94.163 79.642c-4.143 0-7.5 3.357-7.5 7.5s3.357 7.5 7.5 7.5h11.402c4.143 0 7.5-3.357 7.5-7.5s-3.357-7.5-7.5-7.5z"/><path d="m146.287 94.642c4.143 0 7.5-3.357 7.5-7.5s-3.357-7.5-7.5-7.5h-11.403c-4.143 0-7.5 3.357-7.5 7.5s3.357 7.5 7.5 7.5z"/><path d="m206.983 218.265h82.729c10.475 0 20.597-4.379 27.773-12.015 7.277-7.743 10.921-17.869 10.26-28.513-1.187-19.117-16.498-34.429-35.615-35.615-16.489-1.015-31.694 8.578-37.817 23.896-1.586 3.97-5.696 6.637-10.228 6.637h-37.103c-12.574 0-22.805 10.23-22.805 22.805s10.232 22.805 22.806 22.805zm0-30.61h37.103c10.607 0 20.315-6.458 24.156-16.07 3.713-9.29 12.953-15.116 22.959-14.492 11.391.707 20.867 10.184 21.574 21.574.401 6.468-1.808 12.616-6.22 17.311-4.416 4.699-10.397 7.287-16.843 7.287h-82.729c-4.304 0-7.805-3.501-7.805-7.805s3.502-7.805 7.805-7.805z"/></g></g></svg>