<svg id="Capa_1" enable-background="new 0 0 512 512" height="512" viewBox="0 0 512 512" width="512" xmlns="http://www.w3.org/2000/svg"><g><g><g><path d="m213.861 267.894v-38.731h-49.33v38.731c0 5.108-3.187 9.674-7.982 11.435l-23.237 8.536v76.23h111.766v-76.23l-23.237-8.536c-4.793-1.762-7.98-6.327-7.98-11.435z" fill="#f6a96c"/></g><g><path d="m213.861 267.894v-38.731h-49.33v38.731c0 5.108-3.187 9.674-7.982 11.435l-23.236 8.536v25.535h13.786v-11.363l23.237-8.536c4.795-1.761 7.982-6.327 7.982-11.435 0-3.836 3.11-6.946 6.946-6.946h30.982c-1.511-2.049-2.385-4.561-2.385-7.226z" fill="#ea9b58"/></g><g><path d="m327.406 425.836-16.161-93.619c-2.223-12.876-11.098-23.612-23.326-28.218l-42.84-16.135s-33.854 28.633-48.863 41.328c-4.053 3.428-9.989 3.428-14.042-.001l-48.862-41.327-42.84 16.135c-12.228 4.605-21.103 15.342-23.326 28.218l-16.161 93.619c-1.89 10.949 6.54 20.959 17.651 20.959h241.118c11.112 0 19.542-10.011 17.652-20.959z" fill="#e9efff"/></g><g><path d="m295.224 142.271v62.138c0 13.579-9.287 25.397-22.482 28.606l-35.412 8.615c-31.628 7.694-64.64 7.694-96.268 0l-35.412-8.615c-13.194-3.21-22.482-15.027-22.482-28.606v-62.138z" fill="#ffdd40"/></g><g><path d="m159.013 241.63-35.412-8.615c-13.194-3.21-22.482-15.027-22.482-28.606v-62.138h-17.951v62.138c0 13.579 9.287 25.397 22.482 28.606l35.412 8.615c18.743 4.56 37.971 6.395 57.11 5.55-13.158-.58-26.274-2.415-39.159-5.55z" fill="#ffc043"/></g><g><path d="m322.115 395.183-10.87-62.966c-2.223-12.876-11.098-23.612-23.326-28.218l-23.031-8.674v54.858c0 24.813 20.187 45 45 45z" fill="#d3dcfb"/></g><g><path d="m70.786 437.794 16.161-93.619c2.223-12.876 11.098-23.612 23.326-28.218l38.923-14.659-15.883-13.434-42.84 16.135c-12.228 4.605-21.103 15.342-23.326 28.218l-16.161 93.619c-1.89 10.949 6.54 20.959 17.651 20.959h2.903c-.984-2.779-1.298-5.85-.754-9.001z" fill="#d3dcfb"/></g><g><path d="m205.801 257.696h-33.211c-29.024 0-52.553-23.529-52.553-52.553v-94.524c0-4.51 3.656-8.167 8.167-8.167h121.984c4.51 0 8.167 3.656 8.167 8.167v94.524c0 29.024-23.529 52.553-52.554 52.553z" fill="#fed2a4"/></g><g><path d="m136.957 205.143v-94.524c0-4.51 3.656-8.167 8.167-8.167h-16.92c-4.51 0-8.167 3.656-8.167 8.167v94.524c0 29.024 23.529 52.553 52.553 52.553h16.92c-29.024 0-52.553-23.529-52.553-52.553z" fill="#ffbd86"/></g><g><path d="m295.224 141.223v3.998h-67.569c-14.129 0-27.807-4.971-38.638-14.043l-23.095-19.343c-2.655-2.223-6.654-1.634-8.555 1.26l-3.27 4.98c-11.125 16.942-30.032 27.146-50.3 27.146h-20.629v-3.998c0-40.109 32.515-72.625 72.625-72.625h66.806c40.109 0 72.625 32.515 72.625 72.625z" fill="#ffdd40"/></g><g><path d="m279.279 95.84c-13.31-16.601-33.747-27.242-56.68-27.242h-66.806c-40.109 0-72.625 32.515-72.625 72.625v3.998h17.951v-3.998c0-13.168 3.512-25.511 9.644-36.158 3.295-5.721 9.419-9.225 16.021-9.225z" fill="#ffc043"/></g><g><path d="m260.959 79.531 14.115-24.491c4.253-7.38 2.174-16.757-4.76-21.702-14.726-10.502-42.791-25.838-81.118-25.838-38.324 0-66.387 15.333-81.114 25.836-6.937 4.947-9.014 14.327-4.757 21.708l14.126 24.488h143.508z" fill="#e9efff"/></g><g><path d="m128.481 33.336c13.387-9.547 37.797-23.082 70.914-25.467-3.314-.239-6.713-.369-10.2-.369-38.324 0-66.387 15.333-81.114 25.836-6.937 4.947-9.014 14.327-4.757 21.708l14.126 24.488h20.4l-14.126-24.488c-4.257-7.381-2.179-16.762 4.757-21.708z" fill="#d3dcfb"/></g><g><path d="m158.034 376.431h-49.443c-3.314 0-6-2.686-6-6v-17.74c0-3.314 2.686-6 6-6h49.443c3.314 0 6 2.686 6 6v17.74c0 3.314-2.686 6-6 6z" fill="#b3e59f"/></g><g><path d="m457.9 504.5h-403.8c-11.046 0-20-8.954-20-20v-44.463h443.8v44.463c0 11.046-8.954 20-20 20z" fill="#42c3fc"/></g><g><path d="m477.9 461.96v-21.923h-443.8v44.463c0 11.046 8.954 20 20 20h19.92c-11.046 0-20-8.954-20-20v-22.54z" fill="#1aa9e8"/></g><g><path d="m457.9 370.183h-148.012c-11.046 0-20-8.954-20-20v-82.782c0-11.046 8.954-20 20-20h148.012c11.046 0 20 8.954 20 20v82.782c0 11.046-8.954 20-20 20z" fill="#bac5e2"/></g><g><path d="m308.788 350.183v-82.782c0-11.046 8.954-20 20-20h-18.9c-11.046 0-20 8.954-20 20v82.782c0 11.046 8.954 20 20 20h18.9c-11.046 0-20-8.954-20-20z" fill="#a7b4d1"/></g><g><path d="m407.321 410.397h-46.853v-81.369c0-4.971 4.029-9 9-9h28.853c4.971 0 9 4.029 9 9z" fill="#b3e59f"/></g><g><path d="m388.367 320.028h-18.9c-4.971 0-9 4.029-9 9v81.369h18.9v-81.369c0-4.971 4.03-9 9-9z" fill="#95d6a4"/></g><g><path d="m494.5 445.037h-477c-5.523 0-10-4.477-10-10v-14.64c0-5.523 4.477-10 10-10h477c5.523 0 10 4.477 10 10v14.64c0 5.523-4.477 10-10 10z" fill="#1c8ae5"/></g><g><path d="m27.42 435.037v-14.64c0-5.523 4.477-10 10-10h-19.92c-5.523 0-10 4.477-10 10v14.64c0 5.523 4.477 10 10 10h19.92c-5.523 0-10-4.477-10-10z" fill="#1e6ee2"/></g></g><g><path d="m103.877 240.303c.596.145 1.191.214 1.778.214 3.379 0 6.447-2.3 7.281-5.729.979-4.025-1.489-8.081-5.515-9.061-9.864-2.4-16.754-11.167-16.754-21.319v-59.188-2.95-1.048c0-22.584 11.563-42.507 29.073-54.191h138.911c17.509 11.684 29.073 31.608 29.073 54.191v1.048 2.95 59.188c0 10.152-6.89 18.919-16.754 21.319-4.025.979-6.494 5.036-5.515 9.061.834 3.429 3.901 5.729 7.281 5.729.587 0 1.184-.07 1.778-.214 16.609-4.041 28.209-18.801 28.209-35.894v-59.188-2.95-1.048c0-26.062-12.516-49.243-31.846-63.88l10.695-18.556c6.201-10.759 3.234-24.325-6.903-31.555-14.261-10.17-44.328-27.232-85.474-27.232-41.143 0-71.209 17.06-85.469 27.229-10.141 7.232-13.106 20.8-6.899 31.562l10.702 18.553c-19.334 14.639-31.861 37.814-31.861 63.879v1.048 2.95 59.188c0 17.093 11.6 31.853 28.209 35.894zm8.559-200.861c12.8-9.129 39.793-24.442 76.759-24.442 36.968 0 63.963 15.315 76.765 24.444 3.816 2.723 4.941 7.817 2.616 11.852l-11.951 20.735h-134.843l-11.961-20.736c-2.328-4.034-1.204-9.13 2.615-11.853z"/><path d="m178.233 51.016h3.462v3.462c0 4.142 3.357 7.5 7.5 7.5s7.5-3.358 7.5-7.5v-3.462h3.463c4.143 0 7.5-3.358 7.5-7.5s-3.357-7.5-7.5-7.5h-3.463v-3.462c0-4.142-3.357-7.5-7.5-7.5s-7.5 3.358-7.5 7.5v3.462h-3.462c-4.143 0-7.5 3.358-7.5 7.5s3.358 7.5 7.5 7.5z"/><path d="m133.312 325.872c-4.143 0-7.5 3.358-7.5 7.5v5.82h-17.222c-7.444 0-13.5 6.056-13.5 13.5v17.739c0 7.444 6.056 13.5 13.5 13.5h49.443c7.444 0 13.5-6.056 13.5-13.5v-17.739c0-7.444-6.056-13.5-13.5-13.5h-17.222v-5.82c.001-4.143-3.356-7.5-7.499-7.5zm23.222 43.059h-46.443v-14.739h46.443z"/><path d="m494.5 402.896h-79.68v-25.213h43.08c15.163 0 27.5-12.336 27.5-27.5v-82.782c0-15.164-12.337-27.5-27.5-27.5h-148.012c-15.163 0-27.5 12.336-27.5 27.5v26.501l-34.665-13.056c-.008-.003-.016-.004-.025-.007-.011-.004-.022-.01-.033-.014l-23.236-8.536c-1.835-.674-3.068-2.44-3.068-4.395v-4.753c25.594-6.873 44.494-30.265 44.494-57.998v-52.433c4.042-.115 7.285-3.42 7.285-7.489 0-4.142-3.357-7.5-7.5-7.5h-37.985c-12.346 0-24.357-4.366-33.822-12.293l-23.095-19.343c-2.904-2.434-6.722-3.509-10.47-2.959-3.748.553-7.091 2.686-9.17 5.853l-3.271 4.98c-8.826 13.441-23.066 22.017-39.068 23.528-4.124.39-7.151 4.048-6.762 8.172.39 4.125 4.067 7.146 8.172 6.762.795-.075 1.58-.189 2.368-.291v53.013c0 27.733 18.901 51.124 44.494 57.997v4.753c0 1.955-1.233 3.721-3.068 4.395l-23.236 8.536c-.011.004-.022.01-.033.014-.008.003-.017.004-.025.007l-42.84 16.135c-14.652 5.519-25.41 18.531-28.073 33.96l-8.816 51.073c-.705 4.082 2.033 7.962 6.115 8.667.432.075.86.111 1.284.111 3.582 0 6.752-2.576 7.382-6.226l8.816-51.073c1.763-10.211 8.882-18.823 18.579-22.475l38.717-14.582 45.498 38.482c6.873 5.814 16.853 5.815 23.729.001l45.498-38.483 35.829 13.494v40.253c0 15.164 12.337 27.5 27.5 27.5h1.595l4.353 25.213h-298.335c-9.649 0-17.5 7.851-17.5 17.5v14.641c0 9.649 7.851 17.5 17.5 17.5h9.1v31.964c0 15.164 12.337 27.5 27.5 27.5h403.8c15.163 0 27.5-12.336 27.5-27.5v-14.06c0-4.142-3.357-7.5-7.5-7.5s-7.5 3.358-7.5 7.5v14.06c0 6.893-5.607 12.5-12.5 12.5h-403.8c-6.893 0-12.5-5.607-12.5-12.5v-31.963h452.9c9.649 0 17.5-7.851 17.5-17.5v-14.641c0-9.649-7.851-17.5-17.5-17.5zm-366.963-197.753v-56.719c13.312-4.962 24.813-14.025 32.829-26.232l2.215-3.373 21.62 18.107c12.159 10.185 27.592 15.794 43.453 15.794h23.2v52.422c0 24.842-20.211 45.053-45.053 45.053h-33.211c-24.842.001-45.053-20.21-45.053-45.052zm63.837 118.323c-1.262 1.067-3.094 1.067-4.355 0l-39.022-33.005 11.139-4.092c7.714-2.833 12.896-10.258 12.896-18.475v-2.711c.187.002.372.014.56.014h33.211c.187 0 .372-.012.559-.014v2.711c0 8.217 5.183 15.642 12.896 18.475l11.139 4.092zm176.593 79.43v-73.606c0-.972.791-1.763 1.764-1.763h28.327c.972 0 1.763.791 1.763 1.763v73.606zm-70.579-52.713v-82.782c0-6.893 5.607-12.5 12.5-12.5h148.012c6.893 0 12.5 5.607 12.5 12.5v82.782c0 6.893-5.607 12.5-12.5 12.5h-43.08v-33.393c0-9.243-7.52-16.763-16.763-16.763h-28.327c-9.243 0-16.764 7.52-16.764 16.763v33.393h-43.079c-6.892 0-12.499-5.607-12.499-12.5zm29.317 27.5h26.262v25.213h-21.909zm170.295 57.354c0 1.378-1.121 2.5-2.5 2.5h-477c-1.379 0-2.5-1.122-2.5-2.5v-14.641c0-1.378 1.121-2.5 2.5-2.5h477c1.379 0 2.5 1.122 2.5 2.5z"/><path d="m161.129 163.326h-6.285c-4.143 0-7.5 3.358-7.5 7.5s3.357 7.5 7.5 7.5h6.285c4.143 0 7.5-3.358 7.5-7.5s-3.358-7.5-7.5-7.5z"/><path d="m217.892 178.326h6.286c4.143 0 7.5-3.358 7.5-7.5s-3.357-7.5-7.5-7.5h-6.286c-4.143 0-7.5 3.358-7.5 7.5s3.357 7.5 7.5 7.5z"/><path d="m189.51 232.326c5.569 0 11.141-1.375 16.219-4.125l1.313-.712c3.642-1.974 4.993-6.526 3.02-10.167-1.975-3.642-6.526-4.994-10.168-3.02l-1.311.71c-5.682 3.076-12.464 3.076-18.144 0l-1.314-.712c-3.646-1.974-8.195-.62-10.167 3.023-1.973 3.642-.619 8.194 3.022 10.167l1.315.712c5.077 2.749 10.645 4.124 16.215 4.124z"/></g></g></svg>