<svg id="Capa_1" enable-background="new 0 0 512 512" height="512" viewBox="0 0 512 512" width="512" xmlns="http://www.w3.org/2000/svg"><g><g><g><path d="m406.587 504.5h-300.007c-13.807 0-25-11.193-25-25v-447c0-13.807 11.193-25 25-25h275.007c13.807 0 25 11.193 25 25z" fill="#e9efff"/></g><g><path d="m406.587 392.054c-26.927 0-48.833 21.906-48.833 48.833v39.779c0 8.651 2.271 16.779 6.234 23.833h42.599z" fill="#d3dcfb"/></g><g><path d="m107.02 479.5v-447c0-13.807 11.193-25 25-25h-25.44c-13.807 0-25 11.193-25 25v447c0 13.807 11.193 25 25 25h25.44c-13.807 0-25-11.193-25-25z" fill="#d3dcfb"/></g><g><g><g><path d="m120.542 88.282c0 13.163 10.671 23.833 23.833 23.833h19.89v-47.667h-19.89c-13.163.001-23.833 10.671-23.833 23.834z" fill="#e5979d"/></g></g></g><g><path d="m136.335 88.282c0-13.163 10.671-23.833 23.833-23.833h-15.793c-13.163 0-23.833 10.671-23.833 23.833 0 13.163 10.671 23.833 23.833 23.833h15.793c-13.163 0-23.833-10.67-23.833-23.833z" fill="#e17f85"/></g><g><g><g><path d="m164.265 64.449v47.667h19.89c13.163 0 23.833-10.671 23.833-23.833 0-13.163-10.671-23.833-23.833-23.833z" fill="#b3e59f"/></g></g></g><g><path d="m120.542 198.56c0 13.163 10.671 23.833 23.833 23.833h19.89v-47.667h-19.89c-13.163.001-23.833 10.671-23.833 23.834z" fill="#e5979d"/></g><g><path d="m136.335 198.56c0-13.163 10.671-23.833 23.833-23.833h-15.793c-13.163 0-23.833 10.67-23.833 23.833 0 13.163 10.671 23.833 23.833 23.833h15.793c-13.163 0-23.833-10.67-23.833-23.833z" fill="#e17f85"/></g><g><path d="m164.265 174.727v47.667h19.89c13.163 0 23.833-10.671 23.833-23.833 0-13.163-10.671-23.833-23.833-23.833z" fill="#b3e59f"/></g><g><path d="m120.542 313.44c0 13.163 10.671 23.833 23.833 23.833h19.89v-47.667h-19.89c-13.163.001-23.833 10.671-23.833 23.834z" fill="#e5979d"/></g><g><path d="m160.168 337.273c-13.163 0-23.833-10.671-23.833-23.833 0-13.162 10.67-23.832 23.831-23.833h-15.791c-13.163 0-23.833 10.671-23.833 23.833 0 13.163 10.671 23.833 23.833 23.833z" fill="#e17f85"/></g><g><path d="m164.265 289.607v47.667h19.89c13.163 0 23.833-10.671 23.833-23.833 0-13.163-10.671-23.833-23.833-23.833z" fill="#b3e59f"/></g><g><g><g><path d="m120.542 423.718c0 13.163 10.671 23.833 23.833 23.833h19.89v-47.667h-19.89c-13.163.001-23.833 10.671-23.833 23.834z" fill="#e5979d"/></g></g></g><g><path d="m136.335 423.718c0-13.163 10.671-23.833 23.833-23.833h-15.793c-13.163 0-23.833 10.671-23.833 23.833s10.671 23.833 23.833 23.833h15.793c-13.163 0-23.833-10.67-23.833-23.833z" fill="#e17f85"/></g><g><g><g><path d="m164.265 399.885v47.667h19.89c13.163 0 23.833-10.671 23.833-23.833 0-13.163-10.671-23.833-23.833-23.833h-19.89z" fill="#b3e59f"/></g></g></g><g><path d="m280.179 88.282c0 13.163 10.671 23.833 23.833 23.833h19.89v-47.667h-19.89c-13.163.001-23.833 10.671-23.833 23.834z" fill="#e5979d"/></g><g><path d="m295.972 88.282c0-13.163 10.671-23.833 23.833-23.833h-15.793c-13.163 0-23.833 10.671-23.833 23.833 0 13.163 10.671 23.833 23.833 23.833h15.793c-13.163 0-23.833-10.67-23.833-23.833z" fill="#e17f85"/></g><g><path d="m323.902 64.449v47.667h19.89c13.163 0 23.833-10.671 23.833-23.833 0-13.163-10.671-23.833-23.833-23.833z" fill="#b3e59f"/></g><g><path d="m280.179 198.56c0 13.163 10.671 23.833 23.833 23.833h19.89v-47.667h-19.89c-13.163.001-23.833 10.671-23.833 23.834z" fill="#e5979d"/></g><g><path d="m295.972 198.56c0-13.163 10.671-23.833 23.833-23.833h-15.793c-13.163 0-23.833 10.67-23.833 23.833 0 13.163 10.671 23.833 23.833 23.833h15.793c-13.163 0-23.833-10.67-23.833-23.833z" fill="#e17f85"/></g><g><path d="m323.902 174.727v47.667h19.89c13.163 0 23.833-10.671 23.833-23.833 0-13.163-10.671-23.833-23.833-23.833z" fill="#b3e59f"/></g><g><g><g><path d="m280.179 313.44c0 13.163 10.671 23.833 23.833 23.833h19.89v-47.667h-19.89c-13.163.001-23.833 10.671-23.833 23.834z" fill="#e5979d"/></g></g></g><g><path d="m319.805 337.273c-13.163 0-23.833-10.671-23.833-23.833 0-13.162 10.67-23.832 23.831-23.833h-15.791c-13.163 0-23.833 10.671-23.833 23.833 0 13.163 10.671 23.833 23.833 23.833z" fill="#e17f85"/></g><g><g><g><path d="m323.902 289.607v47.667h19.89c13.163 0 23.833-10.671 23.833-23.833 0-13.163-10.671-23.833-23.833-23.833z" fill="#b3e59f"/></g></g></g><g><path d="m367.625 423.718c0 13.163-10.671 23.833-23.833 23.833h-39.779c-13.163 0-23.833-10.671-23.833-23.833s10.671-23.833 23.833-23.833h39.779c13.162 0 23.833 10.67 23.833 23.833z" fill="#bac5e2"/></g><g><path d="m406.587 504.5c13.163 0 23.833-10.671 23.833-23.833v-19.89h-47.667v19.89c0 13.162 10.671 23.833 23.834 23.833z" fill="#b3e59f"/></g><g><path d="m382.753 460.777h47.667v-19.89c0-13.163-10.671-23.833-23.833-23.833-13.163 0-23.833 10.671-23.833 23.833z" fill="#e5979d"/></g><g><path d="m397.333 480.667v-19.89h-14.58v19.89c0 13.163 10.671 23.833 23.833 23.833 2.543 0 4.992-.402 7.29-1.14-9.595-3.081-16.543-12.074-16.543-22.693z" fill="#95d6a4"/></g><g><path d="m397.333 460.777v-19.89c0-10.619 6.947-19.613 16.543-22.693-2.298-.738-4.747-1.14-7.29-1.14-13.163 0-23.833 10.671-23.833 23.833v19.89h47.667z" fill="#e17f85"/></g></g><g><path d="m236.583 64.449v383.103c0 4.142 3.357 7.5 7.5 7.5s7.5-3.358 7.5-7.5v-383.103c0-4.142-3.357-7.5-7.5-7.5s-7.5 3.358-7.5 7.5z"/><path d="m361.777 497h-255.197c-9.649 0-17.5-7.851-17.5-17.5v-324.26c0-4.142-3.357-7.5-7.5-7.5s-7.5 3.358-7.5 7.5v324.26c0 17.92 14.579 32.5 32.5 32.5h255.197c4.143 0 7.5-3.358 7.5-7.5s-3.358-7.5-7.5-7.5z"/><path d="m81.58 128.9c4.143 0 7.5-3.358 7.5-7.5v-88.9c0-9.649 7.851-17.5 17.5-17.5h275.007c9.649 0 17.5 7.851 17.5 17.5v357.7c0 4.142 3.357 7.5 7.5 7.5s7.5-3.358 7.5-7.5v-357.7c0-17.92-14.579-32.5-32.5-32.5h-275.007c-17.921 0-32.5 14.58-32.5 32.5v88.9c0 4.142 3.357 7.5 7.5 7.5z"/><path d="m184.155 56.949h-39.779c-17.277 0-31.334 14.056-31.334 31.333s14.057 31.333 31.334 31.333h39.779c17.277 0 31.333-14.056 31.333-31.333s-14.056-31.333-31.333-31.333zm-56.113 31.333c0-9.006 7.327-16.333 16.334-16.333h12.39v32.667h-12.39c-9.007-.001-16.334-7.328-16.334-16.334zm56.113 16.333h-12.39v-32.666h12.39c9.006 0 16.333 7.327 16.333 16.333s-7.327 16.333-16.333 16.333z"/><path d="m184.155 167.227h-39.779c-17.277 0-31.334 14.056-31.334 31.333s14.057 31.333 31.334 31.333h39.779c17.277 0 31.333-14.056 31.333-31.333s-14.056-31.333-31.333-31.333zm-56.113 31.333c0-9.006 7.327-16.333 16.334-16.333h12.39v32.667h-12.39c-9.007 0-16.334-7.328-16.334-16.334zm56.113 16.334h-12.39v-32.667h12.39c9.006 0 16.333 7.327 16.333 16.333s-7.327 16.334-16.333 16.334z"/><path d="m184.155 282.107h-39.779c-17.277 0-31.334 14.056-31.334 31.333s14.057 31.333 31.334 31.333h39.779c17.277 0 31.333-14.056 31.333-31.333s-14.056-31.333-31.333-31.333zm-56.113 31.333c0-9.006 7.327-16.333 16.334-16.333h12.39v32.667h-12.39c-9.007-.001-16.334-7.328-16.334-16.334zm56.113 16.333h-12.39v-32.667h12.39c9.006 0 16.333 7.327 16.333 16.333 0 9.007-7.327 16.334-16.333 16.334z"/><path d="m184.155 392.385h-39.779c-17.277 0-31.334 14.056-31.334 31.333s14.057 31.333 31.334 31.333h39.779c17.277 0 31.333-14.056 31.333-31.333s-14.056-31.333-31.333-31.333zm-56.113 31.333c0-9.006 7.327-16.333 16.334-16.333h12.39v32.667h-12.39c-9.007-.001-16.334-7.328-16.334-16.334zm56.113 16.333h-12.39v-32.667h12.39c9.006 0 16.333 7.327 16.333 16.333 0 9.007-7.327 16.334-16.333 16.334z"/><path d="m343.792 56.949h-39.779c-17.277 0-31.334 14.056-31.334 31.333s14.057 31.333 31.334 31.333h39.779c17.277 0 31.333-14.056 31.333-31.333s-14.056-31.333-31.333-31.333zm-56.114 31.333c0-9.006 7.327-16.333 16.334-16.333h12.39v32.667h-12.39c-9.007-.001-16.334-7.328-16.334-16.334zm56.114 16.333h-12.39v-32.666h12.39c9.006 0 16.333 7.327 16.333 16.333s-7.328 16.333-16.333 16.333z"/><path d="m343.792 167.227h-39.779c-17.277 0-31.334 14.056-31.334 31.333s14.057 31.333 31.334 31.333h39.779c17.277 0 31.333-14.056 31.333-31.333s-14.056-31.333-31.333-31.333zm-56.114 31.333c0-9.006 7.327-16.333 16.334-16.333h12.39v32.667h-12.39c-9.007 0-16.334-7.328-16.334-16.334zm56.114 16.334h-12.39v-32.667h12.39c9.006 0 16.333 7.327 16.333 16.333s-7.328 16.334-16.333 16.334z"/><path d="m343.792 282.107h-39.779c-17.277 0-31.334 14.056-31.334 31.333s14.057 31.333 31.334 31.333h39.779c17.277 0 31.333-14.056 31.333-31.333s-14.056-31.333-31.333-31.333zm-56.114 31.333c0-9.006 7.327-16.333 16.334-16.333h12.39v32.667h-12.39c-9.007-.001-16.334-7.328-16.334-16.334zm56.114 16.333h-12.39v-32.667h12.39c9.006 0 16.333 7.327 16.333 16.333 0 9.007-7.328 16.334-16.333 16.334z"/><path d="m343.792 392.385h-39.779c-17.277 0-31.334 14.056-31.334 31.333s14.057 31.333 31.334 31.333h39.779c5.075 0 10.117-1.243 14.583-3.595 3.665-1.93 5.071-6.466 3.141-10.131-1.93-3.664-6.464-5.072-10.131-3.141-2.352 1.239-4.906 1.867-7.593 1.867h-39.779c-9.007 0-16.334-7.327-16.334-16.333s7.327-16.333 16.334-16.333h39.779c5.819 0 11.245 3.136 14.159 8.184 2.07 3.588 6.657 4.817 10.245 2.745 3.587-2.071 4.816-6.658 2.745-10.245-5.585-9.674-15.988-15.684-27.149-15.684z"/><path d="m406.586 409.554c-17.277 0-31.333 14.056-31.333 31.333v39.779c0 17.277 14.056 31.333 31.333 31.333s31.334-14.056 31.334-31.333v-39.779c0-17.277-14.056-31.333-31.334-31.333zm0 15c9.007 0 16.334 7.327 16.334 16.333v12.39h-32.667v-12.39c0-9.006 7.328-16.333 16.333-16.333zm0 72.446c-9.006 0-16.333-7.327-16.333-16.333v-12.39h32.667v12.39c0 9.006-7.327 16.333-16.334 16.333z"/></g></g></svg>