<svg id="Capa_1" enable-background="new 0 0 512 512" height="512" viewBox="0 0 512 512" width="512" xmlns="http://www.w3.org/2000/svg"><g><g><g><g><path d="m340.981 468h-29.064l-.165-149.917c0-8.284 5.945-18.083 14.229-18.083 8.284 0 15 6.716 15 15v5l2.532 44.211z" fill="#e8e8e8"/></g><g><path d="m325.981 300v168h-15l-4.128-114.138 4.128-33.862v-5c0-8.28 6.72-15 15-15z" fill="#d8d8d8"/></g><path d="m395.981 177.5-22.082-2.977-5.918 2.977h-84l-5.862-2.647-22.138 2.647v-37l22.469 2.317 5.531-2.317h84l6.744 2.812 21.256-2.812z" fill="#6f6571"/><path d="m367.981 140.5h28v37h-28z" fill="#635a63"/><path d="m410.981 47.5-14.184-2.995-13.722 2.995.131 169.954c0 6.046-1.219 12.031-3.583 17.596l-36.33 84.794-.881 88.656 15.165 3.821 13.404-3.821v-75.896c0-6.234 1.295-12.401 3.804-18.108l29.855-67.92c4.181-9.512 6.34-19.79 6.34-30.18v-168.896z" fill="#e8e8e8"/><path d="m255.981 140.5h28v37h-28z" fill="#635a63"/><path d="m244.145 215.352c0 10.391 2.159 20.668 6.34 30.18l29.389 69.11c2.509 5.707 3.804 11.874 3.804 18.108l-.325 75.75 13.646 2.115 13.982-2.115v-88.5l-36.417-85.718c-2.364-5.565-3.583-11.55-3.583-17.596z" fill="#e8e8e8"/><path d="m395.981 47.5v169.19c0 6.04-1.22 12.03-3.58 17.59l-34.827 81.972c-1.051 2.473-1.592 5.133-1.592 7.821v87.038h-15v-91.111l36.42-85.72c2.36-5.56 3.58-11.55 3.58-17.59v-169.19l6.459-3.986z" fill="#d8d8d8"/><path d="m340.993 467.5h-29.077l-9.302 14.729c-1.577 2.431-2.416 5.266-2.416 8.163l-.392 9.424c0 2.209 1.791 4 4 4l10.174.683h35c2.209 0 4-1.791 4-4v-10.061c0-2.897-.839-5.732-2.416-8.163z" fill="#6f6571"/><path d="m325.981 467.5-9.58 14.78c-1.58 2.43-2.42 5.26-2.42 8.16v14.06h-11c-2.21 0-4-1.79-4-4v-10.06c0-2.9.84-5.73 2.42-8.16l9.562-14.78z" fill="#635a63"/><path d="m360.981 438.5h-65l-3.789-1.234c-5.523 0-10-4.477-10-10l.743-18.766h88.046v20c0 5.523-4.478 10-10 10z" fill="#6f6571"/><path d="m255.981 216.4c0 10.39 2.16 20.66 6.34 30.18l29.86 67.92c2.5 5.7 3.8 11.87 3.8 18.1v75.9l-8.174 2.61-6.826-2.61v-75.9c0-6.23-1.3-12.4-3.8-18.1l-29.86-67.92z" fill="#d8d8d8"/><path d="m295.981 408.5v30h-5c-5.52 0-10-4.48-10-10v-20z" fill="#635a63"/><path d="m409.017 46.046-168.037-.22c-11.046 0-18.569-7.28-18.569-18.326 0-9.795 14.908-19.666 14.908-19.666 1.187-.22 2.411-.334 3.661-.334h170c11.046 0 20 8.954 20 20 0 1.37-.138 2.708-.4 4 .001 0-11.887 14.546-21.563 14.546z" fill="#6f6571"/><path d="m430.581 31.5c-.8 3.92-2.74 7.42-5.46 10.14-3.62 3.62-8.62 5.86-14.14 5.86h-170c-11.05 0-20-8.95-20-20 0-5.52 2.24-10.52 5.86-14.14 2.8-2.8 6.419-4.776 10.479-5.526-.22 1.18-.339 2.416-.339 3.666 0 11.05 8.95 20 20 20z" fill="#635a63"/></g><g><g><path d="m201 468h-29.064l-.165-149.917c0-8.284 5.945-18.083 14.229-18.083 8.284 0 15 6.716 15 15v5l2.532 44.211z" fill="#f8f7f7"/></g><g><path d="m186 300v168h-15l-4.128-114.138 4.128-33.862v-5c0-8.28 6.72-15 15-15z" fill="#e8e8e8"/></g><path d="m256 177.5-21.862-1.656-6.138 1.656h-84l-6.743-1.986-21.257 1.986v-37l21.367 1.546 6.633-1.546h84l6.028 1.986 21.972-1.986z" fill="#857e87"/><path d="m228 140.5h28v37h-28z" fill="#6f6571"/><path d="m271 47.5-14.183-2.995-13.723 2.995.131 169.954c0 6.046-1.219 12.031-3.583 17.596l-36.33 84.794-.881 88.656 15.165 3.821 13.404-3.821v-75.896c0-6.234 1.295-12.401 3.804-18.108l29.855-67.92c4.181-9.512 6.34-19.79 6.34-30.18v-168.896z" fill="#f8f7f7"/><path d="m116 140.5h28v37h-28z" fill="#6f6571"/><path d="m131 216.686v-169.186l-14.385-4.509-14.202 4.509 1.751 167.852c0 10.391 2.159 20.668 6.34 30.18l29.389 69.11c2.509 5.707 3.804 11.874 3.804 18.108l-.325 75.75 13.646 2.115 13.982-2.115v-88.5l-36.417-85.718c-2.364-5.565-3.583-11.55-3.583-17.596z" fill="#f8f7f7"/><path d="m256 47.5v169.19c0 6.04-1.22 12.03-3.58 17.59l-34.827 81.972c-1.051 2.473-1.593 5.133-1.593 7.821v87.038h-15v-91.111l36.42-85.72c2.36-5.56 3.58-11.55 3.58-17.59v-169.19l6.459-3.986z" fill="#e8e8e8"/><path d="m201.012 467.5h-29.077l-9.302 14.729c-1.577 2.431-2.416 5.266-2.416 8.163l-.392 9.424c0 2.209 1.791 4 4 4l10.175.684h35c2.209 0 4-1.791 4-4v-10.061c0-2.897-.839-5.732-2.416-8.163z" fill="#857e87"/><path d="m186 467.5-9.58 14.78c-1.58 2.43-2.42 5.26-2.42 8.16v14.06h-11c-2.21 0-4-1.79-4-4v-10.06c0-2.9.84-5.73 2.42-8.16l9.562-14.78z" fill="#6f6571"/><path d="m221 438.5h-65l-3.789-1.234c-5.523 0-10-4.477-10-10l.743-18.766h88.046v20c0 5.523-4.477 10-10 10z" fill="#857e87"/><path d="m156 332.6v75.9l-8.174 2.61-6.826-2.61v-75.9c0-6.23-1.3-12.4-3.8-18.1l-29.86-67.92c-4.18-9.52-6.34-19.79-6.34-30.18v-168.9l8.431-3.436 6.569 3.436v168.9c0 10.39 2.16 20.66 6.34 30.18l29.86 67.92c2.5 5.7 3.8 11.87 3.8 18.1z" fill="#e8e8e8"/><path d="m156 408.5v30h-5c-5.52 0-10-4.48-10-10v-20z" fill="#6f6571"/><path d="m269.037 46.046-168.037-.22c-11.046 0-18.569-7.28-18.569-18.326 0-9.795 14.908-19.666 14.908-19.666 1.187-.219 2.411-.334 3.661-.334h170c11.046 0 20 8.954 20 20 0 1.37-.138 2.708-.4 4 0 0-11.887 14.546-21.563 14.546z" fill="#857e87"/><path d="m290.6 31.5c-.8 3.92-2.74 7.42-5.46 10.14-3.62 3.62-8.62 5.86-14.14 5.86h-170c-11.05 0-20-8.95-20-20 0-5.52 2.24-10.52 5.86-14.14 2.8-2.8 6.419-4.776 10.479-5.526-.22 1.18-.339 2.416-.339 3.666 0 11.05 8.95 20 20 20z" fill="#6f6571"/></g></g><path d="m438.5 27.5c0-15.163-12.337-27.5-27.5-27.5-50.72 0-170.16 0-219.425 0-4.142 0-7.5 3.357-7.5 7.5s3.358 7.5 7.5 7.5h79.425c6.893 0 12.5 5.607 12.5 12.5s-5.607 12.5-12.5 12.5h-170c-6.893 0-12.5-5.607-12.5-12.5s5.607-12.5 12.5-12.5h55.575c4.142 0 7.5-3.357 7.5-7.5s-3.358-7.5-7.5-7.5h-55.575c-15.164 0-27.5 12.337-27.5 27.5 0 12.563 8.472 23.178 20 26.452v162.444c0 11.501 2.347 22.67 6.975 33.197l29.855 67.923c2.104 4.785 3.17 9.861 3.17 15.09v95.895c0 9.649 7.851 17.5 17.5 17.5h12.5v19.281l-8.376 12.915c-2.371 3.654-3.624 7.888-3.624 12.243v14.06c0 4.143 3.358 7.5 7.5 7.5h54c4.142 0 7.5-3.357 7.5-7.5v-14.062c0-4.355-1.253-8.589-3.623-12.243l-8.377-12.915v-19.28h12.5c9.649 0 17.5-7.851 17.5-17.5 0-13.804 0-80.974 0-95.896 0-5.228 1.066-10.304 3.17-15.09l14.33-32.6 14.33 32.601c2.104 4.786 3.17 9.864 3.17 15.091v95.895c0 9.649 7.851 17.5 17.5 17.5h12.5v19.281l-8.376 12.913c-2.371 3.654-3.624 7.888-3.624 12.244v14.061c0 4.143 3.357 7.5 7.5 7.5h54c4.143 0 7.5-3.357 7.5-7.5v-14.062c0-4.356-1.253-8.59-3.624-12.243l-8.376-12.914v-19.281h12.5c9.649 0 17.5-7.851 17.5-17.5 0-13.804 0-80.974 0-95.896 0-5.227 1.066-10.304 3.171-15.09l29.854-67.92c4.628-10.527 6.975-21.697 6.975-33.198v-92.447c0-4.143-3.357-7.5-7.5-7.5s-7.5 3.357-7.5 7.5v92.447c0 9.41-1.92 18.548-5.707 27.162l-29.854 67.92c-2.945 6.7-4.438 13.809-4.438 21.126v68.396h-15v-79.472l35.82-84.313c2.773-6.529 4.18-13.437 4.18-20.529v-161.686h15v33.948c0 4.143 3.357 7.5 7.5 7.5s7.5-3.357 7.5-7.5v-34.996c11.527-3.274 19.999-13.889 19.999-26.452zm-236.719 271.482c-4.064-4.005-9.638-6.482-15.781-6.482s-11.716 2.477-15.781 6.482l-28.733-67.632c-1.981-4.664-2.986-9.598-2.986-14.664v-31.686h95v31.686c0 5.066-1.004 10-2.986 14.664zm31.719-128.982h-95v-22h95zm0-37h-95v-78h95zm-119.294 110.557c-3.786-8.613-5.706-17.752-5.706-27.161v-161.396h15v161.686c0 7.093 1.406 14 4.18 20.529l35.82 84.312v22.778c0 4.143 3.358 7.5 7.5 7.5s7.5-3.357 7.5-7.5c0-3.723 0-26.51 0-29.305 0-4.136 3.364-7.5 7.5-7.5s7.5 3.364 7.5 7.5v86h-15v-21.695c0-4.143-3.358-7.5-7.5-7.5s-7.5 3.357-7.5 7.5v21.695h-15v-68.395c0-7.319-1.493-14.427-4.438-21.126zm91.294 253.443h-39v-6.562c0-1.451.417-2.862 1.208-4.081l7.042-10.857h22.499l7.043 10.857c.79 1.219 1.208 2.63 1.208 4.081zm-12-36.5h-15v-14.5h15zm30-32c0 1.379-1.122 2.5-2.5 2.5h-70c-1.378 0-2.5-1.121-2.5-2.5v-12.5h75zm4.438-117.022c-2.945 6.7-4.438 13.808-4.438 21.126v68.396h-15v-79.473l35.82-84.312c2.774-6.529 4.18-13.437 4.18-20.529v-161.686h15v161.396c0 9.41-1.92 18.548-5.707 27.162zm36.254-45.202c2.096-4.864 6.478-14.541 8.076-18.497l31.232 73.744v79.477h-15v-68.395c0-7.317-1.493-14.425-4.438-21.126zm81.308 230.724h-39v-6.562c0-1.451.418-2.862 1.208-4.081l7.042-10.857h22.5l7.042 10.858c.79 1.218 1.208 2.629 1.208 4.08zm-12-36.5h-15v-14.5h15zm30-32c0 1.379-1.121 2.5-2.5 2.5h-70c-1.379 0-2.5-1.121-2.5-2.5v-12.5h75zm-45-27.5c0-.055 0-77.217 0-86 0-4.136 3.364-7.5 7.5-7.5s7.5 3.364 7.5 7.5v86zm52.014-169.65-28.733 67.632c-4.064-4.005-9.638-6.481-15.781-6.481-6.134 0-11.701 2.47-15.764 6.465l-32.047-75.67c.19-2.286.311-4.584.311-6.9v-31.396h24.5c4.143 0 7.5-3.357 7.5-7.5s-3.357-7.5-7.5-7.5h-24.5v-22h95v22h-35.5c-4.143 0-7.5 3.357-7.5 7.5s3.357 7.5 7.5 7.5h35.5v31.686c0 5.066-1.005 10-2.986 14.664zm2.986-98.35h-95v-78h95zm37.5-93h-115.518c3.42-6.517 4.327-16.871 0-25h115.518c6.893 0 12.5 5.607 12.5 12.5s-5.607 12.5-12.5 12.5z"/></g></svg>