<svg id="Capa_1" enable-background="new 0 0 512 512" height="512" viewBox="0 0 512 512" width="512" xmlns="http://www.w3.org/2000/svg"><g><g><g><path d="m447.543 504.5h-383.087c-16.569 0-30-13.431-30-30v-274.986h443.088v274.986c-.001 16.569-13.432 30-30.001 30z" fill="#e5979d"/></g><g><path d="m34.456 272.28v202.22c0 16.569 13.431 30 30 30h35.082c-19.16 0-34.692-15.532-34.692-34.692v-88.58c0-11.173 9.149-20.035 20.322-20h.215 341.234c20.332 0 38.55-9.001 50.927-23.22v-65.728z" fill="#e17f85"/></g><g><path d="m127.778 61.828v76.714h49.124v-73.384c0-4.713 3.821-8.534 8.534-8.534h141.128c4.713 0 8.534 3.821 8.534 8.534v73.383h49.124v-76.713c0-30.004-24.323-54.328-54.328-54.328h-147.788c-30.005 0-54.328 24.323-54.328 54.328z" fill="#e5979d"/></g><g><path d="m202.745 7.5h-20.64c-30.004 0-54.328 24.323-54.328 54.328v76.714h20.64v-76.714c.001-30.005 24.324-54.328 54.328-54.328z" fill="#e17f85"/></g><g><path d="m347.203 56.624h-20.64c4.713 0 8.534 3.821 8.534 8.534v73.383h20.64v-73.383c.001-4.713-3.82-8.534-8.534-8.534z" fill="#e17f85"/></g><g><path d="m464.126 110.886h-416.253c-16.569 0-30 13.431-30 30v126.342c0 37.285 30.225 67.51 67.51 67.51h341.234c37.285 0 67.51-30.225 67.51-67.51v-126.342c-.001-16.568-13.432-30-30.001-30z" fill="#e9efff"/></g><g><path d="m82.955 110.886h-35.082c-16.569 0-30 13.431-30 30v126.342c0 37.285 30.225 67.51 67.51 67.51h40.949c-43.116 0-78.068-34.952-78.068-78.068v-111.092c-.001-19.16 15.531-34.692 34.691-34.692z" fill="#d3dcfb"/></g><g><path d="m166.902 378.329h-29.124c-5.523 0-10-4.477-10-10v-67.182c0-5.523 4.477-10 10-10h29.124c5.523 0 10 4.477 10 10v67.182c0 5.523-4.477 10-10 10z" fill="#ffdd40"/></g><g><path d="m159.046 291.147h-21.268c-5.523 0-10 4.477-10 10v67.182c0 5.523 4.477 10 10 10h21.268c-6.386-.001-11.563-5.178-11.563-11.564v-64.054c0-6.386 5.177-11.563 11.563-11.564z" fill="#ffc043"/></g><g><path d="m374.222 378.329h-29.124c-5.523 0-10-4.477-10-10v-67.182c0-5.523 4.477-10 10-10h29.124c5.523 0 10 4.477 10 10v67.182c0 5.523-4.477 10-10 10z" fill="#ffdd40"/></g><g><path d="m366.366 291.147h-21.268c-5.523 0-10 4.477-10 10v67.182c0 5.523 4.477 10 10 10h21.268c-6.386-.001-11.563-5.178-11.563-11.564v-64.054c0-6.386 5.177-11.563 11.563-11.564z" fill="#ffc043"/></g><g><circle cx="256" cy="219.812" fill="#b3e59f" r="70.564"/></g><g><path d="m207.036 219.812c0-35.299 25.919-64.543 59.764-69.741-3.521-.541-7.128-.823-10.8-.823-38.971 0-70.564 31.592-70.564 70.564 0 38.971 31.592 70.564 70.564 70.564 3.672 0 7.279-.282 10.8-.823-33.845-5.198-59.764-34.442-59.764-69.741z" fill="#95d6a4"/></g><g><path d="m284.2 207.001h-11.435c-2.184 0-3.954-1.77-3.954-3.954v-11.435c0-5.567-4.513-10.08-10.08-10.08h-5.463c-5.567 0-10.08 4.513-10.08 10.08v11.435c0 2.184-1.77 3.954-3.954 3.954h-11.435c-5.567 0-10.08 4.513-10.08 10.08v5.463c0 5.567 4.513 10.08 10.08 10.08h11.435c2.184 0 3.954 1.77 3.954 3.954v11.435c0 5.567 4.513 10.08 10.08 10.08h5.463c5.567 0 10.08-4.513 10.08-10.08v-11.435c0-2.184 1.77-3.954 3.954-3.954h11.435c5.567 0 10.08-4.513 10.08-10.08v-5.463c0-5.567-4.513-10.08-10.08-10.08z" fill="#deecf1"/></g></g><g><path d="m494.126 177.141c4.143 0 7.5-3.358 7.5-7.5v-28.754c0-20.678-16.822-37.5-37.5-37.5h-72.405v-41.559c0-34.092-27.735-61.828-61.827-61.828h-147.788c-34.092 0-61.828 27.736-61.828 61.828v41.558h-72.404c-20.678 0-37.5 16.822-37.5 37.5v126.342c0 17.766 6.221 34.099 16.582 46.964v64.137c0 4.142 3.357 7.5 7.5 7.5s7.5-3.358 7.5-7.5v-49.999c12.266 8.743 27.25 13.908 43.427 13.908h34.896v26.091c0 9.649 7.851 17.5 17.5 17.5h29.124c9.649 0 17.5-7.851 17.5-17.5v-26.091h143.195v26.091c0 9.649 7.851 17.5 17.5 17.5h29.124c9.649 0 17.5-7.851 17.5-17.5v-26.091h34.896c16.177 0 31.161-5.165 43.427-13.908v146.17c0 12.407-10.094 22.5-22.5 22.5h-383.089c-12.406 0-22.5-10.093-22.5-22.5v-66.372c0-4.142-3.357-7.5-7.5-7.5s-7.5 3.358-7.5 7.5v66.372c0 20.678 16.822 37.5 37.5 37.5h383.088c20.678 0 37.5-16.822 37.5-37.5v-160.307c10.362-12.865 16.583-29.198 16.583-46.964v-65.029c0-4.142-3.357-7.5-7.5-7.5s-7.5 3.358-7.5 7.5v65.028c0 33.089-26.92 60.01-60.01 60.01h-34.896v-26.091c0-9.649-7.851-17.5-17.5-17.5h-29.124c-9.649 0-17.5 7.851-17.5 17.5v26.091h-143.195v-26.091c0-9.649-7.851-17.5-17.5-17.5h-29.124c-9.649 0-17.5 7.851-17.5 17.5v26.091h-34.896c-33.089 0-60.009-26.92-60.009-60.01v-126.342c0-12.407 10.094-22.5 22.5-22.5h416.253c12.406 0 22.5 10.093 22.5 22.5v28.754c0 4.143 3.358 7.501 7.5 7.501zm-151.529 124.006c0-1.378 1.121-2.5 2.5-2.5h29.124c1.379 0 2.5 1.122 2.5 2.5v67.182c0 1.378-1.121 2.5-2.5 2.5h-29.124c-1.379 0-2.5-1.122-2.5-2.5zm-207.319 0c0-1.378 1.121-2.5 2.5-2.5h29.124c1.379 0 2.5 1.122 2.5 2.5v67.182c0 1.378-1.121 2.5-2.5 2.5h-29.124c-1.379 0-2.5-1.122-2.5-2.5zm0-239.319c0-25.821 21.007-46.828 46.828-46.828h147.788c25.82 0 46.827 21.007 46.827 46.828v41.558h-34.123v-38.228c0-8.841-7.193-16.034-16.035-16.034h-141.127c-8.841 0-16.034 7.193-16.034 16.034v38.228h-34.124zm192.32 41.558h-143.196v-38.228c0-.57.464-1.034 1.034-1.034h141.127c.57 0 1.035.464 1.035 1.034z"/><path d="m253.268 265.592h5.463c9.693 0 17.58-7.886 17.58-17.58v-7.889h7.889c9.693 0 17.58-7.886 17.58-17.58v-5.463c0-9.693-7.887-17.58-17.58-17.58h-7.889v-7.889c0-9.693-7.887-17.58-17.58-17.58h-5.463c-9.693 0-17.58 7.886-17.58 17.58v7.889h-7.889c-9.693 0-17.58 7.886-17.58 17.58v5.463c0 9.694 7.887 17.58 17.58 17.58h7.889v7.889c0 9.694 7.887 17.58 17.58 17.58zm-25.469-40.468c-1.423 0-2.58-1.157-2.58-2.58v-5.463c0-1.422 1.157-2.58 2.58-2.58h11.435c6.315 0 11.454-5.138 11.454-11.454v-11.435c0-1.422 1.157-2.58 2.58-2.58h5.463c1.423 0 2.58 1.157 2.58 2.58v11.435c0 6.316 5.139 11.454 11.454 11.454h11.435c1.423 0 2.58 1.157 2.58 2.58v5.463c0 1.423-1.157 2.58-2.58 2.58h-11.435c-6.315 0-11.454 5.138-11.454 11.454v11.435c0 1.423-1.157 2.58-2.58 2.58h-5.463c-1.423 0-2.58-1.157-2.58-2.58v-11.435c0-6.316-5.139-11.454-11.454-11.454z"/><path d="m286.387 147.886c-9.629-4.072-19.854-6.137-30.388-6.137-43.044 0-78.063 35.019-78.063 78.063s35.02 78.064 78.063 78.064 78.063-35.02 78.063-78.064c0-20.384-7.81-39.672-21.989-54.31-2.88-2.975-7.628-3.052-10.605-.168-2.975 2.882-3.05 7.63-.168 10.605 11.454 11.825 17.763 27.406 17.763 43.874 0 34.773-28.29 63.064-63.063 63.064s-63.063-28.291-63.063-63.064 28.29-63.063 63.063-63.063c8.517 0 16.774 1.667 24.546 4.953 3.812 1.614 8.215-.171 9.828-3.986 1.614-3.817-.171-8.218-3.987-9.831z"/></g></g></svg>