<svg id="Capa_1" enable-background="new 0 0 512 512" height="512" viewBox="0 0 512 512" width="512" xmlns="http://www.w3.org/2000/svg"><g><g><g fill="#bde4ff"><path d="m77.5 504.5-24.647-2.674c-23.748 0-43-19.252-43-43l.394-335.385c0-11.017 3.488-25.845 13.248-30.739.517-.259 1.044-.504 1.581-.734l31.515-13.506c9.898-4.243 20.909 3.017 20.909 13.786l14.5 186.835z"/><path d="m341.679 503.422-24.179-.1-18.633-212.456 18.633-198.618c0-10.769 11.011-18.029 20.909-13.787l31.515 13.506c10.663 4.57 17.576 15.054 17.576 26.655v342.878c0 10.228-3.571 19.623-9.535 27.004-7.883 9.757-22.766 14.918-36.286 14.918z"/></g><g><path d="m499.372 486.695-25.307.403c-22.091 0-40-17.909-40-40l.525-233.598c0-5.523-4.477-10-10-10l-77.089 1.078-2.821-12.55 2.82-15.028h74c22.091 0 40 17.909 40 40v231.5c0 5.523 4.477 10 10 10h29c2.209 0 4 1.791 4 4v12l-1.128 8.195c0 2.209-1.791 4-4 4z" fill="#f8f7f7"/></g><g><path d="m504.5 474.5v10c0 2.21-1.79 4-4 4h-29c-22.09 0-40-17.91-40-40v-231.5c0-5.52-4.48-10-10-10h-74l-3.895-7.459 3.895-6.541h74c13.23 0 24 10.77 24 24v231.5c0 14.34 11.66 26 26 26z" fill="#e8e8e8"/></g><path d="m328.578 222.468-11.078-.22-4.775-29.248 4.775-34h12c9.941 0 18 8.059 18 18v16l-.922 11.468c0 9.941-8.059 18-18 18z" fill="#7bb1ff"/><path d="m347.5 193v13c0 .33-.01.67-.03 1-.51 9.47-8.36 17-17.97 17h-12l-3.619-15.5 3.619-15.5z" fill="#62a5f4"/><path d="m294.7 27.19c-4.32-11.82-15.58-19.69-28.17-19.69h-138.06c-.294 0-.587.004-.88.013 0 0-23.178 12.292-27.397 23.836l-18.331 58.151-1.266 410.234 110.752-.55 126.152 5.316v-415zm-28.35 62.31h-137.7c-10.48 0-17.73-10.46-14.05-20.27l10.68-28.49c.74-1.95 2.6-3.24 4.69-3.24h135.06c2.09 0 3.95 1.29 4.69 3.24l10.68 28.49c3.68 9.81-3.57 20.27-14.05 20.27z" fill="#f8f7f7"/><path d="m257.5 281.5-60 6.858-60-6.858v-85c0-2.761 2.239-5 5-5h110c2.761 0 5 2.239 5 5z" fill="#7bb1ff"/><path d="m221.5 317.5h-48c-19.882 0-36-16.118-36-36h120c0 19.882-16.118 36-36 36z" fill="#bde4ff"/><circle cx="197.5" cy="140.5" fill="#bde4ff" r="21"/><g fill="#99dbff"><path d="m77.5 488.5 5.518 8.922-5.518 7.078h-27c-23.75 0-43-19.25-43-43v-342.88c0-11.02 6.226-21.029 15.996-25.919l.004 345.799c0 27.61 22.39 50 50 50z"/><path d="m377.96 488.5c-7.88 9.76-19.94 16-33.46 16h-27l-6.427-8 6.427-8z"/></g><path d="m94.5 477.5v-384.116c0-2.565.493-5.106 1.453-7.485l31.637-78.386c-12.23.36-23.07 8.137-27.29 19.677l-22.8 62.31v415h240v-16h-212c-6.075 0-11-4.925-11-11z" fill="#e8e8e8"/></g><g><path d="m128.645 97h27.546c4.142 0 7.5-3.357 7.5-7.5s-3.358-7.5-7.5-7.5h-27.546c-2.496 0-4.743-1.177-6.165-3.229-1.421-2.051-1.734-4.567-.858-6.904l10.075-26.867h131.605l10.075 26.867c.876 2.337.563 4.854-.858 6.904-1.422 2.052-3.668 3.229-6.165 3.229h-75.164c-4.142 0-7.5 3.357-7.5 7.5s3.358 7.5 7.5 7.5h75.164c7.377 0 14.291-3.62 18.493-9.685 4.203-6.063 5.165-13.808 2.574-20.716l-10.682-28.489c-1.819-4.852-6.523-8.11-11.704-8.11h-135.07c-5.181 0-9.884 3.259-11.704 8.11l-10.683 28.49c-2.59 6.908-1.628 14.652 2.574 20.716s11.116 9.684 18.493 9.684z"/><path d="m182 229h31c4.142 0 7.5-3.357 7.5-7.5s-3.358-7.5-7.5-7.5h-31c-4.142 0-7.5 3.357-7.5 7.5s3.358 7.5 7.5 7.5z"/><path d="m230 251.5c0-4.143-3.358-7.5-7.5-7.5h-50c-4.142 0-7.5 3.357-7.5 7.5s3.358 7.5 7.5 7.5h50c4.142 0 7.5-3.357 7.5-7.5z"/><path d="m265 281.5v-85c0-6.893-5.607-12.5-12.5-12.5h-110c-6.893 0-12.5 5.607-12.5 12.5v85c0 23.986 19.514 43.5 43.5 43.5h48c23.986 0 43.5-19.514 43.5-43.5zm-43.5 28.5h-48c-13.119 0-24.19-8.913-27.491-21h45.225c4.142 0 7.5-3.357 7.5-7.5s-3.358-7.5-7.5-7.5h-46.234v-75h105v75h-23.766c-4.142 0-7.5 3.357-7.5 7.5s3.358 7.5 7.5 7.5h22.758c-3.302 12.087-14.373 21-27.492 21z"/><path d="m260.717 466.5h-12.456c2.621-3.725 6.033-8.588 10.47-14.928 3.519-5.403 6.96-11.172 7.242-17.835 0-11.602-9.439-21.041-21.041-21.041-10.031 0-18.714 7.137-20.646 16.971-.798 4.064 1.849 8.006 5.914 8.805 4.065.797 8.007-1.85 8.805-5.914.553-2.816 3.046-4.861 5.927-4.861 3.202 0 5.831 2.505 6.028 5.658-.296 2.426-1.168 4.366-4.52 9.617-16.297 23.285-18.615 26.426-18.693 26.53-1.704 2.273-1.977 5.313-.706 7.854 1.271 2.54 3.867 4.145 6.708 4.145h26.966c4.142 0 7.5-3.357 7.5-7.5s-3.356-7.501-7.498-7.501z"/><path d="m173.519 340.5c-25.771 0-46.736 25.009-46.736 55.748 0 30.728 20.966 55.727 46.736 55.727s46.736-24.999 46.736-55.727c0-30.739-20.966-55.748-46.736-55.748zm0 96.475c-17.5 0-31.736-18.27-31.736-40.727 0-22.469 14.237-40.748 31.736-40.748s31.736 18.279 31.736 40.748c0 22.457-14.237 40.727-31.736 40.727z"/><path d="m226 140.5c0-15.715-12.785-28.5-28.5-28.5s-28.5 12.785-28.5 28.5 12.785 28.5 28.5 28.5 28.5-12.785 28.5-28.5zm-42 0c0-7.444 6.056-13.5 13.5-13.5s13.5 6.056 13.5 13.5-6.056 13.5-13.5 13.5-13.5-6.056-13.5-13.5z"/><path d="m424 372.305c0 4.143 3.358 7.5 7.5 7.5s7.5-3.357 7.5-7.5v-155.305c0-9.649-7.851-17.5-17.5-17.5h-66.5v-15h66.5c17.92 0 32.5 14.579 32.5 32.5v231.5c0 9.649 7.851 17.5 17.5 17.5h33c4.142 0 7.5-3.357 7.5-7.5s-3.358-7.5-7.5-7.5h-33c-1.378 0-2.5-1.121-2.5-2.5v-231.5c0-26.191-21.309-47.5-47.5-47.5h-26.5v-50.878c0-14.62-8.683-27.789-22.122-33.549l-31.515-13.506c-5.809-2.604-15.261-2.354-21.642 2.174l-17.973-49.126c-5.387-14.722-19.539-24.615-35.217-24.615h-138.062c-15.678 0-29.831 9.893-35.217 24.615l-17.973 49.126c-5.197-3.729-14.292-5.324-21.642-2.174l-31.515 13.506c-13.439 5.76-22.122 18.929-22.122 33.549v127.878c0 4.143 3.358 7.5 7.5 7.5s7.5-3.357 7.5-7.5v-127.878c0-8.612 5.115-16.369 13.03-19.762l31.516-13.506c2.36-1.012 4.94-.779 7.083.632 2.142 1.413 3.371 3.696 3.371 6.262v404.752h-19.5c-19.575 0-35.5-15.925-35.5-35.5v-180c0-4.143-3.358-7.5-7.5-7.5s-7.5 3.357-7.5 7.5v180c0 27.846 22.654 50.5 50.5 50.5h294c27.846 0 50.5-22.654 50.5-50.5v-247h26.5c1.378 0 2.5 1.121 2.5 2.5zm-99-205.805h4.5c5.79 0 10.5 4.71 10.5 10.5v29c0 5.79-4.71 10.5-10.5 10.5h-4.5zm3.372-80.514c2.143-1.412 4.724-1.643 7.083-.632l31.515 13.506c7.915 3.393 13.03 11.15 13.03 19.762v50.878h-26.127c-3.21-10.412-12.922-18-24.373-18h-4.5v-59.252c0-2.566 1.229-4.849 3.372-6.262zm-221.033-56.216c3.232-8.834 11.724-14.77 21.13-14.77h138.062c9.407 0 17.898 5.936 21.13 14.77l22.38 61.171-.041 406.059h-225c-.041-2.583-.041-406.06-.041-406.06zm272.661 431.73c0 19.575-15.925 35.5-35.5 35.5h-19.5v-265.5h4.5c11.081 0 20.529-7.107 24.038-17h26.462z"/><path d="m504.5 481h-33c-17.92 0-32.5-14.579-32.5-32.5v-41.195c0-4.143-3.358-7.5-7.5-7.5s-7.5 3.357-7.5 7.5v41.195c0 26.191 21.309 47.5 47.5 47.5h33c4.142 0 7.5-3.357 7.5-7.5s-3.358-7.5-7.5-7.5z"/></g></g></svg>