<svg id="Capa_1" enable-background="new 0 0 512 512" height="512" viewBox="0 0 512 512" width="512" xmlns="http://www.w3.org/2000/svg"><g><g><g><path d="m323.737 504.5h-135.474c-91.633 0-165.917-74.284-165.917-165.917v-265.634h467.307v265.634c.001 91.633-74.283 165.917-165.916 165.917z" fill="#e9efff"/></g><g><path d="m489.654 43.358v39.994h-467.308v-39.994c0-19.804 16.055-35.858 35.859-35.858h395.591c19.803 0 35.858 16.054 35.858 35.858z" fill="#42c3fc"/></g><g><path d="m22.346 72.949h34.56v236.691h-34.56z" fill="#d3dcfb"/></g><g><path d="m92.765 7.5h-34.56c-19.804 0-35.859 16.054-35.859 35.858v39.994h34.56v-39.994c0-19.804 16.055-35.858 35.859-35.858z" fill="#1aa9e8"/></g><g><path d="m90.406 299.549h-68.06v39.044c.006 91.629 74.287 165.907 165.917 165.907h11.655v-95.439c0-60.482-49.03-109.512-109.512-109.512z" fill="#bac5e2"/></g><g><path d="m90.406 299.549h-68.06v31.069h57.743c51.313 0 92.911 41.598 92.911 92.911v80.266c5.027.459 10.116.706 15.263.706h11.655v-95.439c0-60.483-49.03-109.513-109.512-109.513z" fill="#a7b4d1"/></g><g><path d="m489.654 338.593v-39.044h-68.06c-60.482 0-109.512 49.03-109.512 109.512v95.439h11.655c91.63 0 165.911-74.278 165.917-165.907z" fill="#bac5e2"/></g><g><path d="m421.594 299.549h68.06v31.069h-57.743c-51.313 0-92.911 41.598-92.911 92.911v80.266c-5.027.459-10.116.706-15.263.706h-11.655v-95.439c0-60.483 49.03-109.513 109.512-109.513z" fill="#a7b4d1"/></g><g><path d="m22.346 147.024h75.414v58.104h-75.414z" fill="#ffdd40"/></g><g><path d="m22.346 147.024h34.56v58.104h-34.56z" fill="#ffc043"/></g><g><path d="m97.76 205.128h39.616c13.467 0 24.384-10.917 24.384-24.384v-9.336c0-13.467-10.917-24.384-24.384-24.384h-39.616z" fill="#42c3fc"/></g><g><path d="m414.24 147.024h75.414v58.104h-75.414z" fill="#ffdd40"/></g><g><path d="m414.24 147.024h-39.616c-13.467 0-24.384 10.917-24.384 24.384v9.336c0 13.467 10.917 24.384 24.384 24.384h39.616z" fill="#42c3fc"/></g></g><path d="m453.795 0h-395.59c-23.909 0-43.359 19.45-43.359 43.358v187.843c0 4.143 3.357 7.5 7.5 7.5s7.5-3.357 7.5-7.5v-18.573h107.53c17.581 0 31.884-14.303 31.884-31.884v-9.336c0-17.581-14.303-31.884-31.884-31.884l-107.53-.001v-48.67h307.314c4.143 0 7.5-3.357 7.5-7.5s-3.357-7.5-7.5-7.5h-307.314v-32.495c0-15.636 12.722-28.358 28.359-28.358h17.495v27.52c0 4.143 3.357 7.5 7.5 7.5s7.5-3.357 7.5-7.5v-27.52h42.6v27.52c0 4.143 3.357 7.5 7.5 7.5s7.5-3.357 7.5-7.5v-27.52h42.6v27.52c0 4.143 3.357 7.5 7.5 7.5s7.5-3.357 7.5-7.5v-27.52h42.6v27.52c0 4.143 3.357 7.5 7.5 7.5s7.5-3.357 7.5-7.5v-27.52h42.6v27.52c0 4.143 3.357 7.5 7.5 7.5s7.5-3.357 7.5-7.5v-27.52h42.6v27.52c0 4.143 3.357 7.5 7.5 7.5s7.5-3.357 7.5-7.5v-27.52h42.6v27.52c0 4.143 3.357 7.5 7.5 7.5s7.5-3.357 7.5-7.5v-27.52h17.495c15.637 0 28.358 12.722 28.358 28.358v32.494h-107.553c-4.143 0-7.5 3.357-7.5 7.5s3.357 7.5 7.5 7.5h107.554v48.671l-107.529.001c-17.581 0-31.885 14.303-31.885 31.884v9.336c0 17.581 14.304 31.884 31.885 31.884h107.529v79.421h-60.561c-64.521 0-117.012 52.491-117.012 117.012v26.579c0 4.143 3.357 7.5 7.5 7.5s7.5-3.357 7.5-7.5v-26.579c0-56.249 45.763-102.012 102.012-102.012h60.561v31.534c0 87.352-71.065 158.417-158.417 158.417h-4.155v-28.24c0-4.143-3.357-7.5-7.5-7.5s-7.5 3.357-7.5 7.5v28.24h-97.163v-87.939c0-64.521-52.491-117.012-117.013-117.012h-60.56v-25.609c0-4.143-3.357-7.5-7.5-7.5s-7.5 3.357-7.5 7.5v72.143c0 95.622 77.795 173.417 173.417 173.417h135.474c95.622 0 173.417-77.795 173.417-173.417v-295.225c0-23.908-19.45-43.358-43.359-43.358zm-299.535 171.408v9.336c0 9.31-7.574 16.884-16.884 16.884h-32.116v-43.104h32.116c9.31 0 16.884 7.575 16.884 16.884zm-64-16.885v43.104h-60.414v-43.104zm-60.414 184.06v-31.534h60.56c56.25 0 102.013 45.763 102.013 102.012v87.939h-4.155c-87.352 0-158.418-71.065-158.418-158.417zm327.894-157.839v-9.336c0-9.31 7.574-16.884 16.885-16.884h32.115v43.104h-32.115c-9.311 0-16.885-7.574-16.885-16.884zm64 16.884v-43.104h60.414v43.104z"/></g></svg>