<svg id="Capa_1" enable-background="new 0 0 512.001 512.001" height="512" viewBox="0 0 512.001 512.001" width="512" xmlns="http://www.w3.org/2000/svg"><g><g><g><path d="m316.321 316.92-.28-1.44-10.651-34.401-5.489-2.023c-6.448-2.369-10.733-8.508-10.733-15.377v-52.083h-66.335v52.083c0 6.869-4.285 13.009-10.733 15.377l-17.979 32.073-.938 5.792h123.138z" fill="#f6a96c"/></g><g><path d="m222.833 237.826v25.852c0 6.869-4.285 13.009-10.733 15.377l-5.491 2.017-5.289 11.128v11.008l32.755-12.674c6.448-2.369 10.733-8.508 10.733-15.377v-37.331z" fill="#ea9b58"/></g><g><g><path d="m383.166 310.371-77.776-29.292-17.427 12.817c-19.012 13.982-44.905 13.983-63.918.003l-17.434-12.82-77.776 29.292c-19.909 7.498-34.359 24.979-37.978 45.943l-21.541 124.784c-2.11 12.225 7.303 23.402 19.709 23.402h333.953c12.406 0 21.819-11.177 19.708-23.402l-21.541-124.783c-3.62-20.965-18.069-38.445-37.979-45.944z" fill="#b3e59f"/></g></g><g><g><path d="m87.076 495.39 21.541-124.783c3.619-20.964 18.069-38.445 37.978-45.943l77.951-30.412c-.166-.119-.336-.231-.501-.353l-17.434-12.82-77.776 29.292c-19.909 7.498-34.359 24.979-37.978 45.943l-21.541 124.784c-2.028 11.75 6.591 22.527 18.279 23.347-.837-2.835-1.062-5.909-.519-9.055z" fill="#95d6a4"/></g></g><g><path d="m256 337.56c48.336 0 74.441-23.912 87.338-42.189l-37.949-14.292-17.427 12.817c-19.012 13.982-44.905 13.983-63.918.003l-17.434-12.82-37.949 14.292c12.899 18.277 39.003 42.189 87.339 42.189z" fill="#e5979d"/></g><g><path d="m224.045 293.899-17.434-12.82-37.949 14.292c3.475 4.924 7.919 10.256 13.488 15.421l42.395-16.54c-.165-.12-.335-.232-.5-.353z" fill="#e17f85"/></g><g><path d="m175.844 146.946h-24.636c-13.807 0-25-11.193-25-25v-10.333c0-13.807 11.193-25 25-25h24.636z" fill="#f6a96c"/></g><g><path d="m336.156 86.613h24.636c13.807 0 25 11.193 25 25v10.333c0 13.807-11.193 25-25 25h-24.636z" fill="#f6a96c"/></g><g><path d="m265.753 250.214h-19.506c-45.976 0-83.247-37.271-83.247-83.247v-103.045c0-31.161 25.261-56.422 56.422-56.422h73.156c31.161 0 56.422 25.261 56.422 56.422v103.045c0 45.976-37.271 83.247-83.247 83.247z" fill="#fed2a4"/></g><g><path d="m183.56 166.967v-103.045c0-31.161 25.261-56.422 56.422-56.422h-20.56c-31.161 0-56.422 25.261-56.422 56.422v103.045c0 45.976 37.271 83.247 83.247 83.247h19.506c.177 0 .351-.012.527-.013-45.732-.286-82.72-37.435-82.72-83.234z" fill="#ffbd86"/></g><g><path d="m306.963 177.765-8.613-12.82c-5.562-8.279-14.881-13.245-24.855-13.245h-34.99c-9.974 0-19.293 4.966-24.855 13.245l-8.613 12.82c-5.379 8.006.358 18.773 10.004 18.773h81.919c9.645 0 15.382-10.766 10.003-18.773z" fill="#e9efff"/></g><g><path d="m223.037 177.765 8.613-12.82c5.562-8.279 14.881-13.245 24.855-13.245h-18c-9.974 0-19.293 4.966-24.855 13.245l-8.613 12.82c-5.379 8.006.358 18.773 10.004 18.773h18c-9.646 0-15.383-10.766-10.004-18.773z" fill="#d3dcfb"/></g><g><path d="m270.363 206.178 10.038-9.763s-6.547-4.429-12.858-8.699c-6.972-4.717-16.112-4.716-23.084 0l-12.858 8.699s4.737 4.608 10.037 9.763c7.995 7.777 20.729 7.777 28.725 0z" fill="#f6a96c"/></g><g><path d="m186.728 17.93s6.613 8.834 17.208 17.671c6.778 5.652 7.17 15.935.75 21.991-8.261 7.793-17.154 19.767-19.026 36.174-.413 3.622-3.494 6.35-7.139 6.35h-15.521l-14.395-20.272c-18.938-26.669.876-64.076 33.543-62.41 1.545.079 3.073.241 4.58.496z" fill="#e9efff"/></g><g><path d="m165.623 79.844c-16.505-23.243-3.574-54.637 21.645-61.219-.344-.437-.54-.695-.54-.695-1.507-.255-3.036-.417-4.58-.496-32.667-1.667-52.481 35.74-33.543 62.41l14.395 20.271h15.52c.478 0 .945-.049 1.399-.139z" fill="#d3dcfb"/></g><g><path d="m325.276 17.93s-6.612 8.834-17.208 17.671c-6.778 5.652-7.169 15.935-.75 21.991 8.261 7.793 17.154 19.767 19.026 36.174.413 3.622 3.494 6.35 7.139 6.35h15.52l14.395-20.272c18.938-26.669-.876-64.076-33.543-62.41-1.544.079-3.072.241-4.579.496z" fill="#e9efff"/></g><g><path d="m343.362 93.766c-1.872-16.407-10.765-28.381-19.026-36.174-6.42-6.056-6.028-16.339.75-21.991 8.857-7.386 14.913-14.751 16.668-16.975-3.718-.97-7.701-1.405-11.898-1.191-1.544.079-3.073.241-4.58.496 0 0-6.612 8.834-17.208 17.671-6.778 5.652-7.169 15.935-.75 21.991 8.261 7.793 17.154 19.767 19.026 36.174.413 3.622 3.494 6.35 7.139 6.35h15.52l.099-.139c-3.007-.596-5.381-3.065-5.74-6.212z" fill="#d3dcfb"/></g><g><path d="m314.044 449.16h-10.646c-9.634 0-17.444-7.81-17.444-17.444v-42.356c0-2.761 2.239-5 5-5h35.533c2.761 0 5 2.239 5 5v42.356c.001 9.634-7.809 17.444-17.443 17.444z" fill="#e9efff"/></g></g><g><path d="m450.076 479.822-11.106-64.338c-.705-4.082-4.593-6.818-8.666-6.115-4.082.704-6.82 4.585-6.115 8.666l11.106 64.339c.629 3.642-.376 7.352-2.757 10.178-2.381 2.827-5.865 4.448-9.561 4.448h-43.852l-8.427-44.573c-.77-4.07-4.695-6.741-8.763-5.976-4.069.77-6.745 4.692-5.976 8.763l7.9 41.786h-215.718l7.9-41.786c.77-4.07-1.906-7.993-5.976-8.763-4.067-.765-7.994 1.905-8.763 5.976l-8.426 44.573h-43.852c-3.695 0-7.18-1.621-9.561-4.448-2.381-2.826-3.386-6.536-2.757-10.178l4.709-27.277c.705-4.082-2.033-7.962-6.115-8.667-4.08-.703-7.961 2.033-8.666 6.114l-4.709 27.278c-1.383 8.012.827 16.173 6.064 22.393 5.238 6.219 12.905 9.785 21.035 9.785h50.054c.007 0 .014.001.021.001s.015-.001.022-.001h233.759c.007 0 .015.001.022.001s.014-.001.021-.001h50.054c8.13 0 15.797-3.566 21.034-9.785 5.238-6.22 7.447-14.381 6.065-22.393z"/><path d="m78.166 429.835c.432.074.86.11 1.284.11 3.582 0 6.752-2.575 7.382-6.225l11.416-66.131c3.152-18.263 15.886-33.667 33.23-40.2l34.557-13.015c15.42 19.555 42.955 40.686 89.965 40.686 13.908 0 27.025-1.911 38.985-5.681 3.951-1.245 6.145-5.457 4.899-9.407-1.244-3.951-5.459-6.145-9.407-4.899-10.501 3.31-22.101 4.987-34.478 4.987-38.056 0-61.327-15.609-75.105-31.282l24.551-9.246 14.156 10.408c21.772 16.012 51.029 16.011 72.804-.002l14.149-10.406 24.528 9.238c-5.511 6.267-11.794 11.698-18.796 16.175-3.489 2.231-4.51 6.869-2.279 10.359 1.432 2.238 3.853 3.461 6.326 3.461 1.383 0 2.781-.382 4.033-1.182 9.765-6.243 18.347-14.041 25.588-23.212l34.568 13.019c17.345 6.533 30.078 21.938 33.23 40.201l4.842 28.046c.704 4.081 4.586 6.816 8.667 6.114 4.081-.705 6.819-4.585 6.114-8.667l-4.842-28.045c-4.053-23.481-20.424-43.287-42.725-51.687l-83.323-31.337c-3.48-1.278-5.818-4.629-5.818-8.337v-11.391c34.862-12.672 59.831-46.134 59.831-85.321v-12.521h4.292c17.921 0 32.5-14.579 32.5-32.5v-10.333c0-14.131-9.069-26.173-21.69-30.637 8.577-14.367 8.938-32.033.734-46.976-8.646-15.745-25.053-24.958-42.858-24.056-.817.041-1.629.111-2.436.193-9.948-6.404-21.772-10.136-34.461-10.136h-73.156c-12.694 0-24.527 3.726-34.479 10.136-.8-.081-1.604-.151-2.414-.192-17.79-.912-34.215 8.31-42.861 24.056-8.204 14.943-7.843 32.609.734 46.976-12.623 4.463-21.694 16.505-21.694 30.637v10.333c0 17.921 14.579 32.5 32.5 32.5h4.292v12.521c0 39.187 24.969 72.65 59.832 85.322v11.39c0 3.708-2.339 7.059-5.82 8.337l-83.321 31.337c-22.301 8.399-38.672 28.205-42.725 51.687l-11.416 66.13c-.706 4.08 2.032 7.961 6.115 8.665zm300.126-318.222v10.333c0 9.649-7.851 17.5-17.5 17.5h-4.292v-36.933l5.907-8.318c8.894.819 15.885 8.314 15.885 17.418zm-19.105-70.393c6.036 10.993 5.307 24.129-1.903 34.281l-12.154 17.114h-11.369c-1.791-15.029-9.15-29.021-21.297-40.479-1.499-1.413-2.289-3.327-2.227-5.39.064-2.11 1-4.023 2.634-5.386 7.754-6.467 13.49-12.915 16.359-16.369.334-.027.67-.05 1.007-.066 12.188-.629 23.006 5.47 28.95 16.295zm-206.37 0c5.944-10.825 16.759-16.906 28.952-16.295.336.018.671.039 1.004.066 2.869 3.454 8.605 9.902 16.359 16.369 1.634 1.362 2.569 3.275 2.634 5.386.062 2.062-.728 3.977-2.227 5.391-12.147 11.459-19.506 25.451-21.296 40.479h-11.37l-12.153-17.115c-7.21-10.152-7.939-23.288-1.903-34.281zm-1.609 98.226c-9.649 0-17.5-7.851-17.5-17.5v-10.333c0-9.105 6.993-16.601 15.889-17.418l5.903 8.313v36.938zm19.292 27.521v-59.352h8.021c7.472 0 13.744-5.588 14.592-13 1.339-11.744 6.964-22.365 16.72-31.567 4.595-4.334 7.119-10.443 6.927-16.76-.194-6.364-3.117-12.359-8.02-16.447-4.241-3.536-7.815-7.093-10.504-9.987 6.414-3.103 13.596-4.854 21.186-4.854h73.156c7.591 0 14.775 1.751 21.19 4.853-2.689 2.895-6.263 6.451-10.504 9.988-4.902 4.088-7.825 10.083-8.02 16.447-.192 6.316 2.332 12.426 6.927 16.759 9.755 9.203 15.381 19.824 16.721 31.568.846 7.411 7.118 13 14.591 13h8.017v59.352c0 41.767-33.979 75.747-75.746 75.747h-19.506c-41.767 0-75.748-33.981-75.748-75.747zm75.748 90.747h19.506c5.428 0 10.746-.481 15.915-1.399v7.364c0 7.439 3.503 14.34 9.168 18.794l-7.317 5.382c-16.46 12.104-38.574 12.103-55.03.002l-7.323-5.385c5.664-4.454 9.167-11.354 9.167-18.793v-7.364c5.167.918 10.485 1.399 15.914 1.399z"/><path d="m212.488 121.641h7.472c4.143 0 7.5-3.357 7.5-7.5s-3.357-7.5-7.5-7.5h-7.472c-4.143 0-7.5 3.357-7.5 7.5s3.357 7.5 7.5 7.5z"/><path d="m292.042 121.641h7.471c4.143 0 7.5-3.357 7.5-7.5s-3.357-7.5-7.5-7.5h-7.471c-4.143 0-7.5 3.357-7.5 7.5s3.357 7.5 7.5 7.5z"/><path d="m256 219.568c7.049 0 14.099-2.671 19.591-8.013.001 0 .001-.001.001-.001l7.728-7.517h13.639c7.239 0 13.851-3.969 17.255-10.357s3.012-14.089-1.025-20.098l-8.613-12.82c-6.969-10.371-18.588-16.562-31.081-16.562h-34.989c-12.493 0-24.112 6.191-31.081 16.562l-8.613 12.82c-4.037 6.009-4.43 13.71-1.025 20.098 3.404 6.389 10.016 10.357 17.255 10.357h13.64l7.728 7.516c5.492 5.344 12.541 8.015 19.59 8.015zm9.133-18.765c-5.122 4.981-13.146 4.979-18.267-.001l-3.432-3.338 5.227-3.536c4.456-3.015 10.22-3.017 14.678 0l5.227 3.536zm-54.11-14.176c-.386-.725-1.136-2.632.239-4.679l8.613-12.82c4.177-6.217 11.142-9.928 18.63-9.928h34.989c7.488 0 14.453 3.711 18.63 9.928l8.613 12.82c1.375 2.047.625 3.954.239 4.679-.387.725-1.552 2.411-4.018 2.411h-14.079l-11.136-7.534c-9.565-6.472-21.927-6.47-31.488 0l-11.136 7.534h-14.08c-2.464 0-3.629-1.686-4.016-2.411z"/><path d="m290.955 376.86c-6.893 0-12.5 5.607-12.5 12.5v42.356c0 13.754 11.189 24.943 24.943 24.943h10.646c13.754 0 24.943-11.189 24.943-24.943v-42.356c0-6.893-5.607-12.5-12.5-12.5zm33.033 54.857c0 5.482-4.461 9.943-9.943 9.943h-10.646c-5.482 0-9.943-4.461-9.943-9.943v-39.857h30.533v39.857z"/></g></g></svg>