<svg id="Capa_1" enable-background="new 0 0 512 512" height="512" viewBox="0 0 512 512" width="512" xmlns="http://www.w3.org/2000/svg"><g><g><path d="m425.255 501.447-342.383-1.34c-8.284 0-13.362-4.737-13.362-13.021l-.713-462c0-8.006 12.872-17.563 12.872-17.563.276-.015.553-.023.831-.023h242.529c2.885 0 5.706.623 8.283 1.796 0 0 2.956 3.313 4.667 5.023l96.638 101.021c1.71 1.71 8.087 3.348 8.087 3.348 1.172 2.577 1.796 5.398 1.796 8.283v362.529c0 .336-.011.67-.033 1 0 0-11.264 10.947-19.212 10.947z" fill="#f8f7f7"/><g><path d="m444.467 490.5c-.51 7.82-7.027 14-14.967 14h-347c-8.28 0-15-6.72-15-15v-467c0-8 6.27-14.548 14.17-14.977-.1 8.42-.17 14.827-.17 14.977v448c0 11.05 8.95 20 20 20z" fill="#e8e8e8"/></g><path d="m374.438 197.812h-39.563-39.563v-40.552h-39.562v40.552h-39.562-39.563v-39.563-39.562h-39.563v39.562 39.563 39.562 39.563 39.562h-39.562v39.563h39.562v39.562h39.563v-39.562h39.563 39.562v-39.563h-39.562-39.563v-39.562-39.563h39.563 39.562v39.563h39.562v-39.563h39.563 39.563 39.562v-39.562z" fill="#e8e8e8"/><path d="m339.979 88.687h-232.479c-5.523 0-10-4.477-10-10v-31.187c0-5.523 4.477-10 10-10h232.479z" fill="#ff8086"/><path d="m442.7 118.69h-88.58c-11.49 0-20.81-9.32-20.81-20.81v-88.58c2.16.98 4.16 2.35 5.86 4.06l99.47 99.47c1.71 1.7 3.08 3.7 4.06 5.86z" fill="#e8e8e8"/></g><g><path d="m443.946 107.526-99.471-99.471c-5.195-5.195-12.101-8.055-19.446-8.055h-242.529c-12.406 0-22.5 10.093-22.5 22.5v322.499c0 4.142 3.357 7.5 7.5 7.5s7.5-3.358 7.5-7.5v-322.499c0-4.135 3.364-7.5 7.5-7.5 1.549.039 241.875-.074 243.313.038v14.962h-218.313c-9.649 0-17.5 7.851-17.5 17.5v31.187c0 9.649 7.851 17.5 17.5 17.5h156.245c4.143 0 7.5-3.358 7.5-7.5s-3.357-7.5-7.5-7.5h-156.245c-1.379 0-2.5-1.122-2.5-2.5v-31.187c0-1.378 1.121-2.5 2.5-2.5h218.313v10.593h-101.366c-4.143 0-7.5 3.358-7.5 7.5s3.357 7.5 7.5 7.5h101.366v10.594h-27.068c-4.143 0-7.5 3.358-7.5 7.5s3.357 7.5 7.5 7.5h27.068c-.973 15.608 12.113 30.074 28.305 30h82.844c.114 1.054-.002 64.424.038 65.441 0 4.142 3.357 7.5 7.5 7.5s7.5-3.358 7.5-7.5v-64.657c0-7.345-2.86-14.251-8.054-19.445zm-103.133-9.644v-72.275l85.581 85.58h-72.276c-7.336 0-13.305-5.969-13.305-13.305z"/><path d="m444.5 219.128c-4.143 0-7.5 3.358-7.5 7.5v262.872c0 4.136-3.364 7.5-7.5 7.5h-347c-4.136 0-7.5-3.364-7.5-7.5v-109.501c0-4.142-3.357-7.5-7.5-7.5s-7.5 3.358-7.5 7.5v109.501c0 12.407 10.094 22.5 22.5 22.5h347c12.406 0 22.5-10.093 22.5-22.5v-262.872c0-4.142-3.357-7.5-7.5-7.5z"/><path d="m184.125 118.687c0-4.142-3.357-7.5-7.5-7.5h-39.562c-4.143 0-7.5 3.358-7.5 7.5v190.312h-32.063c-4.143 0-7.5 3.358-7.5 7.5v39.562c0 4.142 3.357 7.5 7.5 7.5h32.062v32.062c0 4.142 3.357 7.5 7.5 7.5h39.562c4.143 0 7.5-3.358 7.5-7.5v-32.062h71.625c4.143 0 7.5-3.358 7.5-7.5v-39.561c0-4.142-3.357-7.5-7.5-7.5-17.789 0-54.282 0-71.625 0 0-16.07 0-48.359 0-64.125h64.125v32.062c0 4.142 3.357 7.5 7.5 7.5h39.562c4.143 0 7.5-3.358 7.5-7.5v-32.062h111.188c4.143 0 7.5-3.358 7.5-7.5v-39.562c0-4.142-3.357-7.5-7.5-7.5-32.915 0-78.323 0-111.188 0v-33.053c0-4.142-3.357-7.5-7.5-7.5h-39.561c-4.143 0-7.5 3.358-7.5 7.5v33.052c-16.07 0-48.359 0-64.125 0 0-17.627 0-54.127 0-71.625zm-15 71.625h-24.562v-24.562h24.562zm0 79.125h-24.562v-24.562h24.562zm-24.563 54.563h24.562v24.562h-24.562zm0-15v-24.562h24.562v24.562zm0-79.125v-24.562h24.562v24.562zm24.563-103.688v24.562h-24.562v-24.562zm-64.125 197.813h24.562v24.562h-24.562zm39.562 64.125v-24.562h24.562v24.562zm103.688-39.563h-24.562v-24.562h24.562zm-39.562 0h-24.562v-24.562h24.562zm-24.563-143.25h24.562v24.562h-24.562zm39.563 0h24.562v24.562h-24.562zm103.687 24.563h-24.562v-24.562h24.562zm-39.563 0h-24.562v-24.562h24.562zm-24.562 39.562v-24.562h24.562v24.562zm143.25-39.562h-24.562v-24.562h24.562zm-39.562 0h-24.562v-24.562h24.562zm-79.126-65.115v25.552h-24.562v-25.552z"/><path d="m414 309h-98.25c-4.143 0-7.5 3.358-7.5 7.5s3.357 7.5 7.5 7.5h98.25c4.143 0 7.5-3.358 7.5-7.5s-3.357-7.5-7.5-7.5z"/><path d="m414 339h-98.25c-4.143 0-7.5 3.358-7.5 7.5s3.357 7.5 7.5 7.5h98.25c4.143 0 7.5-3.358 7.5-7.5s-3.357-7.5-7.5-7.5z"/><path d="m414 369h-26.149c-4.143 0-7.5 3.358-7.5 7.5s3.357 7.5 7.5 7.5h26.149c4.143 0 7.5-3.358 7.5-7.5s-3.357-7.5-7.5-7.5z"/><path d="m315.75 384h42.101c4.143 0 7.5-3.358 7.5-7.5s-3.357-7.5-7.5-7.5h-42.101c-4.143 0-7.5 3.358-7.5 7.5s3.357 7.5 7.5 7.5z"/><path d="m414 399h-98.25c-4.143 0-7.5 3.358-7.5 7.5s3.357 7.5 7.5 7.5h98.25c4.143 0 7.5-3.358 7.5-7.5s-3.357-7.5-7.5-7.5z"/><path d="m421.5 436.5c0-4.142-3.357-7.5-7.5-7.5h-167.812c-4.143 0-7.5 3.358-7.5 7.5s3.357 7.5 7.5 7.5h167.812c4.143 0 7.5-3.358 7.5-7.5z"/><path d="m127.5 444h88.688c4.143 0 7.5-3.358 7.5-7.5s-3.357-7.5-7.5-7.5h-88.688c-4.143 0-7.5 3.358-7.5 7.5s3.357 7.5 7.5 7.5z"/><path d="m127.5 474h236.5c4.143 0 7.5-3.358 7.5-7.5s-3.357-7.5-7.5-7.5h-236.5c-4.143 0-7.5 3.358-7.5 7.5s3.357 7.5 7.5 7.5z"/><path d="m285.77 324c4.143 0 7.5-3.358 7.5-7.5s-3.357-7.5-7.5-7.5h-.01c-4.142 0-7.495 3.358-7.495 7.5s3.363 7.5 7.505 7.5z"/><path d="m285.77 354c4.143 0 7.5-3.358 7.5-7.5s-3.357-7.5-7.5-7.5h-.01c-4.142 0-7.495 3.358-7.495 7.5s3.363 7.5 7.505 7.5z"/><path d="m285.77 384c4.143 0 7.5-3.358 7.5-7.5s-3.357-7.5-7.5-7.5h-.01c-4.142 0-7.495 3.358-7.495 7.5s3.363 7.5 7.505 7.5z"/><path d="m285.77 414c4.143 0 7.5-3.358 7.5-7.5s-3.357-7.5-7.5-7.5h-.01c-4.142 0-7.495 3.358-7.495 7.5s3.363 7.5 7.505 7.5z"/><path d="m97.52 429h-.01c-4.142 0-7.495 3.358-7.495 7.5s3.363 7.5 7.505 7.5c4.143 0 7.5-3.358 7.5-7.5s-3.358-7.5-7.5-7.5z"/><path d="m97.52 459h-.01c-4.142 0-7.495 3.358-7.495 7.5s3.363 7.5 7.505 7.5c4.143 0 7.5-3.358 7.5-7.5s-3.358-7.5-7.5-7.5z"/><path d="m138.5 55.593c-4.143 0-7.5 3.358-7.5 7.5s3.357 7.5 7.5 7.5h55.947c4.143 0 7.5-3.358 7.5-7.5s-3.357-7.5-7.5-7.5z"/></g></g></svg>