<svg id="Capa_1" enable-background="new 0 0 512 512" height="512" viewBox="0 0 512 512" width="512" xmlns="http://www.w3.org/2000/svg"><g><g><g><path d="m415.296 432.323h-367.68c-16.569 0-30-13.431-30-30v-286.706h427.68v286.706c0 16.568-13.432 30-30 30z" fill="#e9efff"/></g><g><path d="m445.296 402.323v-117c-16.648-7.729-34.92-11.809-53.822-11.809-20.224 0-40.352 4.843-58.276 14.013l-19.499-10.741c-5.146-2.835-10.917-4.333-16.689-4.333-12.115 0-23.51 6.547-29.735 17.085-6.239 10.562-6.408 23.321-.452 34.133l10.739 19.493c-12.195 23.841-16.625 51.527-12.476 78.097.584 3.742 1.339 7.428 2.235 11.063h147.976c16.567-.001 29.999-13.433 29.999-30.001z" fill="#d3dcfb"/></g><g><path d="m48.336 402.323v-286.706h-30.72v286.706c0 16.569 13.431 30 30 30h30.72c-16.569 0-30-13.432-30-30z" fill="#d3dcfb"/></g><g><path d="m415.296 38.411h-367.68c-16.569 0-30 13.431-30 30v47.205h427.68v-47.205c0-16.568-13.432-30-30-30z" fill="#e5979d"/></g><g><path d="m78.336 38.411h-30.72c-16.569 0-30 13.432-30 30v47.206h30.72v-47.206c0-16.568 13.431-30 30-30z" fill="#e17f85"/></g><g><path d="m464.239 328.654c-32.58-32.579-81.564-38.745-120.359-18.507-6.852 3.574-15.023 3.531-21.792-.198-6.436-3.546-13.612-7.499-20.451-11.267-8.348-4.599-17.518 4.575-12.919 12.923l11.262 20.442c3.714 6.742 3.807 14.897.241 21.719-20.635 39.473-13.917 89.519 20.165 122.099 40.916 39.112 104.979 38.011 144.597-2.415 39.447-40.249 39.199-104.854-.744-144.796z" fill="#b3e59f"/></g><g><path d="m341.508 475.866c-34.082-32.579-40.8-82.626-20.165-122.099 3.566-6.822 3.473-14.976-.241-21.719l-11.262-20.442c-1.64-2.978-1.523-6.057-.322-8.583-2.636-1.452-5.282-2.91-7.879-4.341-8.348-4.599-17.518 4.575-12.919 12.923l11.262 20.442c3.714 6.742 3.807 14.897.241 21.719-20.635 39.473-13.917 89.519 20.165 122.099 22.764 21.76 52.691 31.066 81.588 28.085-21.891-2.27-43.233-11.609-60.468-28.084z" fill="#95d6a4"/></g><g><path d="m428.792 385.378h-18.321c-1.633 0-2.956-1.324-2.956-2.956v-18.321c0-5.871-4.76-10.631-10.631-10.631h-10.839c-5.871 0-10.631 4.76-10.631 10.631v18.321c0 1.633-1.324 2.956-2.956 2.956h-18.321c-5.871 0-10.631 4.76-10.631 10.631v10.839c0 5.871 4.76 10.631 10.631 10.631h18.321c1.633 0 2.956 1.324 2.956 2.956v18.321c0 5.871 4.76 10.631 10.631 10.631h10.839c5.871 0 10.631-4.76 10.631-10.631v-18.321c0-1.633 1.324-2.956 2.956-2.956h18.321c5.871 0 10.631-4.76 10.631-10.631v-10.839c0-5.871-4.76-10.631-10.631-10.631z" fill="#e9efff"/></g></g><g><path d="m100.686 166.794h-18.624c-4.143 0-7.5 3.357-7.5 7.5s3.357 7.5 7.5 7.5h18.624c4.143 0 7.5-3.357 7.5-7.5s-3.357-7.5-7.5-7.5z"/><path d="m170.727 166.794h-18.624c-4.143 0-7.5 3.357-7.5 7.5s3.357 7.5 7.5 7.5h18.624c4.143 0 7.5-3.357 7.5-7.5s-3.357-7.5-7.5-7.5z"/><path d="m240.767 166.794h-18.623c-4.143 0-7.5 3.357-7.5 7.5s3.357 7.5 7.5 7.5h18.623c4.143 0 7.5-3.357 7.5-7.5s-3.357-7.5-7.5-7.5z"/><path d="m310.808 166.794h-18.624c-4.143 0-7.5 3.357-7.5 7.5s3.357 7.5 7.5 7.5h18.624c4.143 0 7.5-3.357 7.5-7.5s-3.357-7.5-7.5-7.5z"/><path d="m380.849 166.794h-18.624c-4.143 0-7.5 3.357-7.5 7.5s3.357 7.5 7.5 7.5h18.624c4.143 0 7.5-3.357 7.5-7.5s-3.357-7.5-7.5-7.5z"/><path d="m100.686 233.244h-18.624c-4.143 0-7.5 3.357-7.5 7.5s3.357 7.5 7.5 7.5h18.624c4.143 0 7.5-3.357 7.5-7.5s-3.357-7.5-7.5-7.5z"/><path d="m170.727 233.244h-18.624c-4.143 0-7.5 3.357-7.5 7.5s3.357 7.5 7.5 7.5h18.624c4.143 0 7.5-3.357 7.5-7.5s-3.357-7.5-7.5-7.5z"/><path d="m240.767 233.244h-18.623c-4.143 0-7.5 3.357-7.5 7.5s3.357 7.5 7.5 7.5h18.623c4.143 0 7.5-3.357 7.5-7.5s-3.357-7.5-7.5-7.5z"/><path d="m310.808 233.244h-18.624c-4.143 0-7.5 3.357-7.5 7.5s3.357 7.5 7.5 7.5h18.624c4.143 0 7.5-3.357 7.5-7.5s-3.357-7.5-7.5-7.5z"/><path d="m380.849 233.244h-18.624c-4.143 0-7.5 3.357-7.5 7.5s3.357 7.5 7.5 7.5h18.624c4.143 0 7.5-3.357 7.5-7.5s-3.357-7.5-7.5-7.5z"/><path d="m100.686 299.695h-18.624c-4.143 0-7.5 3.357-7.5 7.5s3.357 7.5 7.5 7.5h18.624c4.143 0 7.5-3.357 7.5-7.5s-3.357-7.5-7.5-7.5z"/><path d="m170.727 299.695h-18.624c-4.143 0-7.5 3.357-7.5 7.5s3.357 7.5 7.5 7.5h18.624c4.143 0 7.5-3.357 7.5-7.5s-3.357-7.5-7.5-7.5z"/><path d="m240.767 299.695h-18.623c-4.143 0-7.5 3.357-7.5 7.5s3.357 7.5 7.5 7.5h18.623c4.143 0 7.5-3.357 7.5-7.5s-3.357-7.5-7.5-7.5z"/><path d="m100.686 366.146h-18.624c-4.143 0-7.5 3.357-7.5 7.5s3.357 7.5 7.5 7.5h18.624c4.143 0 7.5-3.357 7.5-7.5s-3.357-7.5-7.5-7.5z"/><path d="m170.727 366.146h-18.624c-4.143 0-7.5 3.357-7.5 7.5s3.357 7.5 7.5 7.5h18.624c4.143 0 7.5-3.357 7.5-7.5s-3.357-7.5-7.5-7.5z"/><path d="m240.767 366.146h-18.623c-4.143 0-7.5 3.357-7.5 7.5s3.357 7.5 7.5 7.5h18.623c4.143 0 7.5-3.357 7.5-7.5s-3.357-7.5-7.5-7.5z"/><path d="m262.472 424.822h-214.856c-12.406 0-22.5-10.094-22.5-22.5v-279.206h37.617c4.143 0 7.5-3.357 7.5-7.5s-3.357-7.5-7.5-7.5h-37.617v-39.705c0-12.406 10.094-22.5 22.5-22.5h17.6c3.499 17.601 19.058 30.911 37.671 30.911 4.143 0 7.5-3.357 7.5-7.5s-3.357-7.5-7.5-7.5c-10.286 0-19.038-6.671-22.172-15.911h70.214c3.499 17.601 19.058 30.911 37.671 30.911 4.143 0 7.5-3.357 7.5-7.5s-3.357-7.5-7.5-7.5c-10.286 0-19.038-6.671-22.172-15.911h70.214c3.499 17.601 19.058 30.911 37.671 30.911 4.143 0 7.5-3.357 7.5-7.5s-3.357-7.5-7.5-7.5c-10.286 0-19.038-6.671-22.172-15.911h70.214c3.499 17.601 19.058 30.911 37.671 30.911 4.143 0 7.5-3.357 7.5-7.5s-3.357-7.5-7.5-7.5c-10.286 0-19.038-6.671-22.172-15.911h77.442c12.406 0 22.5 10.094 22.5 22.5v39.705h-336.404c-4.143 0-7.5 3.357-7.5 7.5s3.357 7.5 7.5 7.5h336.403v150.854c0 4.143 3.357 7.5 7.5 7.5s7.5-3.357 7.5-7.5v-205.559c0-20.678-16.822-37.5-37.5-37.5h-17.615c-3.498-17.599-19.043-30.911-37.655-30.911-18.613 0-34.172 13.31-37.671 30.911h-10.371c-3.498-17.601-19.057-30.911-37.671-30.911s-34.172 13.31-37.671 30.911h-10.371c-3.498-17.601-19.057-30.911-37.671-30.911s-34.172 13.31-37.671 30.911h-10.371c-3.498-17.601-19.057-30.911-37.67-30.911s-34.173 13.31-37.671 30.911h-17.6c-20.678 0-37.5 16.822-37.5 37.5v333.911c0 20.678 16.822 37.5 37.5 37.5h214.855c4.143 0 7.5-3.357 7.5-7.5s-3.357-7.5-7.499-7.5zm97.553-409.822c10.286 0 19.036 6.67 22.168 15.911h-44.34c3.135-9.24 11.886-15.911 22.172-15.911zm-85.713 0c10.286 0 19.038 6.671 22.172 15.911h-44.344c3.135-9.24 11.886-15.911 22.172-15.911zm-85.713 0c10.286 0 19.038 6.671 22.172 15.911h-44.344c3.135-9.24 11.886-15.911 22.172-15.911zm-85.712 0c10.286 0 19.038 6.671 22.172 15.911h-44.344c3.134-9.24 11.885-15.911 22.172-15.911z"/><path d="m428.792 377.878h-13.777v-13.777c0-9.997-8.134-18.131-18.131-18.131h-10.84c-9.997 0-18.131 8.134-18.131 18.131v13.777h-13.777c-9.997 0-18.131 8.134-18.131 18.132v10.839c0 9.997 8.134 18.131 18.131 18.131h13.777v13.778c0 9.997 8.134 18.131 18.131 18.131h10.84c9.997 0 18.131-8.134 18.131-18.131v-13.778h13.777c9.997 0 18.131-8.134 18.131-18.131v-10.839c0-9.998-8.134-18.132-18.131-18.132zm3.131 28.971c0 1.727-1.404 3.131-3.131 3.131h-18.321c-5.766 0-10.456 4.691-10.456 10.457v18.321c0 1.727-1.404 3.131-3.131 3.131h-10.84c-1.727 0-3.131-1.404-3.131-3.131v-18.321c0-5.766-4.69-10.457-10.456-10.457h-18.321c-1.727 0-3.131-1.404-3.131-3.131v-10.839c0-1.727 1.404-3.132 3.131-3.132h18.321c5.766 0 10.456-4.69 10.456-10.456v-18.321c0-1.727 1.404-3.131 3.131-3.131h10.84c1.727 0 3.131 1.404 3.131 3.131v18.321c0 5.766 4.69 10.456 10.456 10.456h18.321c1.727 0 3.131 1.405 3.131 3.132z"/><path d="m469.543 323.35c-16.95-16.95-38.414-27.731-62.071-31.178-22.863-3.33-46.676.692-67.061 11.326-4.662 2.43-10.156 2.386-14.703-.117 0-.001 0-.001-.001-.001l-20.451-11.267c-6.694-3.688-14.827-2.535-20.235 2.871-5.407 5.408-6.561 13.543-2.87 20.241l11.262 20.442c2.51 4.554 2.57 10.021.164 14.625-10.854 20.764-14.832 45.008-11.2 68.267 3.765 24.105 15.117 45.797 32.829 62.729 20.766 19.849 47.761 30.713 76.209 30.712.627 0 1.258-.005 1.886-.016 29.128-.491 56.488-12.312 77.042-33.284 20.479-20.896 31.68-48.525 31.541-77.799-.141-29.294-11.626-56.836-32.341-77.551zm-9.914 144.851c-36.995 37.751-95.881 38.736-134.059 2.243-30.575-29.227-38.266-75.777-18.701-113.202 4.742-9.072 4.623-19.843-.318-28.812l-11.262-20.442c-.485-.88-.371-1.687.339-2.396.422-.422.877-.633 1.362-.633.33 0 .673.098 1.028.294l20.452 11.267c8.956 4.934 19.752 5.038 28.878.278 37.119-19.363 81.961-12.467 111.587 17.16 36.831 36.829 37.142 97.052.694 134.243z"/></g></g></svg>