<svg id="Capa_1" enable-background="new 0 0 512 512" height="512" viewBox="0 0 512 512" width="512" xmlns="http://www.w3.org/2000/svg"><g><g><g><path d="m293.135 490.353v-120.08h140.205v120.08c0 7.813-6.334 14.147-14.147 14.147h-111.912c-7.813 0-14.146-6.334-14.146-14.147z" fill="#fed2a4"/></g><g><path d="m433.34 397.817v-27.544h-140.205v120.08c0 7.813 6.334 14.147 14.147 14.147h18.627c-7.813 0-14.147-6.334-14.147-14.147v-72.186c0-11.239 9.111-20.35 20.351-20.35z" fill="#ffbd86"/></g><g><path d="m433.34 262.695c0-13.362 5.308-26.176 14.756-35.625l50.304-50.304c8.132-8.132 8.132-21.317 0-29.449-8.132-8.132-21.317-8.132-29.449 0l-13.335 13.335c-2.69 2.69-7.29.785-7.29-3.02v-10.837-100.032c0-10.519-8.179-19.478-18.692-19.851-11.036-.392-20.106 8.438-20.106 19.386v-19.399c0-10.714-8.685-19.399-19.399-19.399-10.714 0-19.399 8.685-19.399 19.399v19.399c0-10.714-8.685-19.399-19.399-19.399-10.714 0-19.399 8.685-19.399 19.399v18.351c0-10.949-9.07-19.779-20.106-19.386-10.512.374-18.692 9.333-18.692 19.851v291.166h140.206z" fill="#e9efff"/></g><g><path d="m309.49 65.086c0-7.855 4.574-14.809 11.254-17.992-2.641-1.237-5.595-1.918-8.723-1.837-10.585.273-18.887 9.24-18.887 19.829v291.194h16.356z" fill="#d3dcfb"/></g><g><path d="m446.166 378.811h-163.414c-6.627 0-12-5.373-12-12v-12.913c0-6.627 5.373-12 12-12h163.414c6.627 0 12 5.373 12 12v12.913c0 6.627-5.372 12-12 12z" fill="#bac5e2"/></g><g><path d="m289.379 367.453v-14.197c0-6.273 5.085-11.358 11.358-11.358h-18.627c-6.273 0-11.358 5.085-11.358 11.358v14.197c0 6.273 5.085 11.358 11.358 11.358h18.627c-6.272 0-11.358-5.085-11.358-11.358z" fill="#a7b4d1"/></g><g><path d="m218.865 490.353v-120.08h-140.206v120.08c0 7.813 6.334 14.147 14.147 14.147h111.912c7.813 0 14.147-6.334 14.147-14.147z" fill="#fed2a4"/></g><g><path d="m218.865 397.817v-27.544h-140.206v120.08c0 7.813 6.334 14.147 14.147 14.147h18.627c-7.813 0-14.147-6.334-14.147-14.147v-72.186c0-11.239 9.111-20.35 20.351-20.35z" fill="#ffbd86"/></g><g><path d="m78.659 262.695c0-13.362-5.308-26.176-14.756-35.625l-50.304-50.304c-8.132-8.132-8.132-21.317 0-29.449 8.132-8.132 21.317-8.132 29.449 0l13.335 13.335c2.69 2.69 7.29.785 7.29-3.02v-10.837-100.032c0-10.519 8.179-19.478 18.692-19.851 11.036-.392 20.106 8.438 20.106 19.386v-19.399c0-10.714 8.685-19.399 19.399-19.399 10.714 0 19.399 8.685 19.399 19.399v19.399c0-10.714 8.685-19.399 19.399-19.399 10.714 0 19.399 8.685 19.399 19.399v18.351c0-10.949 9.07-19.779 20.106-19.386 10.512.374 18.692 9.333 18.692 19.851v291.166h-140.206z" fill="#e9efff"/></g><g><path d="m78.783 227.07-50.304-50.304c-8.132-8.132-8.132-21.317 0-29.448 2.138-2.139 4.631-3.699 7.284-4.713-7.437-2.841-16.171-1.281-22.164 4.713-8.132 8.132-8.132 21.316 0 29.448l50.304 50.304c9.448 9.448 14.756 22.263 14.756 35.625v93.586h14.88v-93.586c0-13.362-5.308-26.177-14.756-35.625z" fill="#d3dcfb"/></g><g><path d="m71.263 160.653c2.69 2.69 7.291.785 7.291-3.02v-10.837-100.032c0-8.145 4.914-15.335 12.008-18.348-2.51-1.053-5.28-1.608-8.196-1.504-10.512.374-18.692 9.333-18.692 19.852v100.032 6.268z" fill="#d3dcfb"/></g><g><path d="m65.833 378.811h163.414c6.627 0 12-5.373 12-12v-12.913c0-6.627-5.373-12-12-12h-163.414c-6.627 0-12 5.373-12 12v12.913c0 6.627 5.373 12 12 12z" fill="#bac5e2"/></g><g><path d="m72.46 367.453v-14.197c0-6.273 5.085-11.358 11.358-11.358h-18.627c-6.273 0-11.358 5.085-11.358 11.358v14.197c0 6.273 5.085 11.358 11.358 11.358h18.627c-6.272 0-11.358-5.085-11.358-11.358z" fill="#a7b4d1"/></g></g><g><path d="m453.401 232.374 50.304-50.305c11.043-11.044 11.043-29.012 0-40.056-11.043-11.041-29.012-11.042-40.055 0l-7.823 7.822v-103.072c0-14.818-11.388-26.83-25.925-27.346-4.686-.162-9.218.854-13.258 2.934-2.167-12.675-13.232-22.351-26.515-22.351-13.289 0-24.358 9.686-26.518 22.37-3.684-1.898-7.858-2.971-12.28-2.971-12.946 0-23.786 9.194-26.333 21.396-4.084-2.144-8.679-3.205-13.438-3.027-14.537.517-25.925 12.529-25.925 27.347v269.284h-2.883c-10.752 0-19.5 8.748-19.5 19.5v12.912c0 10.752 8.748 19.5 19.5 19.5h2.882v104.043c0 11.936 9.711 21.646 21.647 21.646h111.912c11.936 0 21.646-9.711 21.646-21.646v-104.043h5.326c10.752 0 19.5-8.748 19.5-19.5v-12.912c0-10.752-8.748-19.5-19.5-19.5h-5.326v-71.704c.001-11.454 4.462-22.222 12.562-30.321zm-2.734 121.524v12.912c0 2.481-2.019 4.5-4.5 4.5h-47.35c-4.143 0-7.5 3.357-7.5 7.5s3.357 7.5 7.5 7.5h27.023v104.043c0 3.665-2.981 6.646-6.646 6.646h-111.912c-3.665 0-6.647-2.981-6.647-6.646v-104.042h62.604c4.143 0 7.5-3.357 7.5-7.5s-3.357-7.5-7.5-7.5h-80.485c-2.481 0-4.5-2.019-4.5-4.5v-12.912c0-2.481 2.019-4.5 4.5-4.5h163.414c2.48-.001 4.499 2.018 4.499 4.499zm-150.032-19.5v-269.284c0-6.589 5.14-12.132 11.458-12.356 3.273-.114 6.359 1.065 8.702 3.327 2.346 2.265 3.638 5.306 3.638 8.563v63.615c0 4.143 3.357 7.5 7.5 7.5s7.5-3.357 7.5-7.5v-63.615-18.35c0-6.561 5.338-11.898 11.898-11.898 6.562 0 11.899 5.338 11.899 11.898v81.966c0 4.143 3.357 7.5 7.5 7.5s7.5-3.357 7.5-7.5v-81.966-19.4c0-6.561 5.338-11.898 11.898-11.898 6.562 0 11.899 5.338 11.899 11.899v19.398 81.966c0 4.143 3.357 7.5 7.5 7.5s7.5-3.357 7.5-7.5v-81.965c0-3.258 1.292-6.3 3.638-8.562 2.344-2.264 5.433-3.445 8.703-3.328 6.317.225 11.457 5.767 11.457 12.355v109.558l-10.12 1.683c-21.348 3.552-39.048 18.447-46.193 38.874l-10.781 30.819c-1.368 3.91.692 8.188 4.603 9.556.819.287 1.655.423 2.477.423 3.099 0 5.998-1.936 7.079-5.026 8.189-23.409 13.859-51.779 41.446-59.07 6.026-1.593 12.311-1.91 18.437-3.06 12.065-2.264 18.176-9.592 26.484-17.899 5.191-5.195 13.646-5.197 18.841 0 5.195 5.194 5.195 13.646 0 18.841l-50.304 50.305c-10.933 10.933-16.953 25.468-16.953 40.928v71.704h-125.206z"/><path d="m229.248 334.398h-2.883v-104.224c0-4.143-3.357-7.5-7.5-7.5s-7.5 3.357-7.5 7.5v104.225h-70.096c-4.143 0-7.5 3.357-7.5 7.5s3.357 7.5 7.5 7.5h87.979c2.481 0 4.5 2.019 4.5 4.5v12.912c0 2.481-2.019 4.5-4.5 4.5h-163.415c-2.481 0-4.5-2.019-4.5-4.5v-12.912c0-2.481 2.019-4.5 4.5-4.5h43.887c4.143 0 7.5-3.357 7.5-7.5s-3.357-7.5-7.5-7.5h-23.561v-71.704c0-15.46-6.021-29.995-16.952-40.928l-50.304-50.305c-5.195-5.194-5.195-13.646 0-18.841 5.191-5.195 13.646-5.197 18.841 0 0 0 13.33 13.33 13.335 13.335 3.467 3.467 8.631 3.656 13.191 4.423 14.126 2.378 27.334 4.045 38.047 14.708 7.037 7.005 11.678 16.038 14.132 25.602 1.901 7.411 5.11 14.674 7.66 21.961 1.081 3.09 3.98 5.025 7.079 5.025.821 0 1.657-.136 2.477-.423 3.909-1.367 5.971-5.646 4.603-9.556l-10.78-30.819c-7.146-20.427-24.846-35.323-46.194-38.874l-10.119-1.683v-109.557c0-6.589 5.14-12.131 11.458-12.355 3.282-.099 6.358 1.065 8.702 3.328 2.346 2.263 3.638 5.305 3.638 8.562v81.966c0 4.143 3.357 7.5 7.5 7.5s7.5-3.357 7.5-7.5v-81.966-19.399c0-6.562 5.338-11.899 11.898-11.899 6.562 0 11.899 5.338 11.899 11.898v19.399 81.966c0 4.143 3.357 7.5 7.5 7.5s7.5-3.357 7.5-7.5v-81.965c0-6.561 5.338-11.898 11.899-11.898s11.898 5.338 11.898 11.898v18.351 63.615c0 4.143 3.357 7.5 7.5 7.5s7.5-3.357 7.5-7.5v-63.616c0-3.258 1.292-6.299 3.638-8.563 2.343-2.262 5.435-3.45 8.702-3.327 6.318.225 11.458 5.768 11.458 12.356v135.651c0 4.143 3.357 7.5 7.5 7.5s7.5-3.357 7.5-7.5v-135.651c0-14.817-11.388-26.829-25.925-27.347-4.755-.163-9.354.885-13.438 3.027-2.548-12.201-13.388-21.396-26.334-21.396-4.421 0-8.597 1.072-12.28 2.97-2.16-12.681-13.229-22.368-26.518-22.368-13.282 0-24.347 9.676-26.514 22.35-4.04-2.08-8.578-3.104-13.257-2.933-14.538.516-25.926 12.527-25.926 27.346v103.074l-7.822-7.823c-11.045-11.043-29.011-11.041-40.056 0-11.043 11.044-11.043 29.012 0 40.056l50.304 50.305c8.1 8.099 12.56 18.866 12.56 30.32v71.704h-5.325c-10.752 0-19.5 8.748-19.5 19.5v12.912c0 10.752 8.748 19.5 19.5 19.5h5.325v104.043c0 11.936 9.711 21.646 21.647 21.646h111.912c11.936 0 21.646-9.711 21.646-21.646v-104.043h2.883c10.752 0 19.5-8.748 19.5-19.5v-12.912c.001-10.753-8.747-19.501-19.499-19.501zm-17.883 155.956c0 3.665-2.981 6.646-6.646 6.646h-111.913c-3.665 0-6.647-2.981-6.647-6.646v-104.043h125.206z"/></g></g></svg>