<svg id="Capa_1" enable-background="new 0 0 512 512" height="512" viewBox="0 0 512 512" width="512" xmlns="http://www.w3.org/2000/svg"><g><g><path d="m213 385.5-4.851-4h-159.83l-4.319 4c0 11.795-6.161 22.734-16.249 28.848l-1.344.815c-1.195.724-2.332 1.52-3.407 2.38l-9 20.394c0 17.665 14.32 33.564 31.984 33.564h165.031c11.423 0 24.443-2.99 30.101-11.998 3.092-4.922 4.883-10.745 4.883-16.987 0-11.184-5.842-21.556-15.407-27.353l-1.344-.815c-10.087-6.114-16.248-17.053-16.248-28.848z" fill="#f8f7f7"/><path d="m23 429.5v-11.958c-7.527 6.022-12 15.186-12 24.973 0 17.665 14.32 31.985 31.984 31.985l4.313 4h161.363l5.356-4c11.422 0 21.443-5.99 27.101-14.998l-188.117-.002c-16.569 0-30-13.431-30-30z" fill="#e8e8e8"/><path d="m52.525 355.48c26.253-21.509 39.475-53.658 39.475-87.597v-24.383h79v23.573c0 27.141 9.737 53.119 27.038 73.429 0 0 5.793 10.462 11.462 14.997z" fill="#f8f7f7"/><path d="m213.5 355.508c-5.669-4.535-10.835-9.573-15.462-15.005l-103.84-.003c-7.637 0-12.449-8.211-8.72-14.876 9.665-17.278 14.522-37.18 14.522-57.741v-23.383h-15v23.427c0 33.926-15.223 66.062-41.475 87.553l-.025.028 4.138 1.993 161.862.048z" fill="#e8e8e8"/><path d="m193.5 125.5c-10.785 13.323-16.768 29.88-16.997 47-.005.339-2.003.679-2.003 1.018v13.982h-92v-15.239c0-16.711-5.485-32.959-15.612-46.251l-.388-.51 3.943-3.168 117.281.168z" fill="#f8f7f7"/><path d="m103.916 172.5c-5.052 0-9.343-3.764-9.921-8.783-1.569-13.63-6.762-26.754-15.107-37.708l-.388-.509-7.202-3.011-7.813 3.004.405.518c10.126 13.292 15.61 29.539 15.61 46.249v18.24h97l.003-18z" fill="#e8e8e8"/><path d="m128.5 58.5c-5.604 0-11.088.814-16.313 2.35 0 0-22.506 8.916-31.593 28l-3.594 6.65h103l-3.595-6.65c-1.604-2.967-.447-5.757-2.495-8.351-10.859-13.751-27.529-21.999-45.41-21.999z" fill="#f8f7f7"/><path d="m173.91 80.499-55.387.001c-10.362 0-14.893-13.241-6.598-19.452.088-.066.174-.134.263-.199-14.591 4.289-27.151 14.233-34.593 28l-3.595 6.651 3.255 2 101.959.072 3.786-2.072-3.595-6.65c-1.604-2.968-3.446-5.757-5.495-8.351z" fill="#e8e8e8"/><path d="m154 33c0 4.207-1.022 8.174-2.826 11.672 0 0-7.961 11.828-22.674 11.828-14.083 0-23.5-9.417-23.5-23.5 0-15.191 11.828-22.674 11.828-22.674 3.498-1.804 7.465-2.826 11.672-2.826 14.083 0 25.5 11.417 25.5 25.5z" fill="#e8e8e8"/><path d="m139.5 47.5c-14.083 0-25.5-11.417-25.5-25.5 0-4.207 1.024-8.176 2.828-11.674-8.211 4.236-13.828 12.798-13.828 22.674 0 14.083 11.417 25.5 25.5 25.5 9.876 0 18.438-5.617 22.674-13.828-3.498 1.804-7.467 2.828-11.674 2.828z" fill="#d8d8d8"/><path d="m236.5 474.5h-206l-8 2c-2.761 0-5 2.239-5 5v16c0 2.761 2.239 5 5 5h212c2.761 0 5-2.239 5-5l2-8v-10c0-2.761-2.239-5-5-5z" fill="#f8f7f7"/><path d="m40.5 489.5c-5.523 0-10-4.477-10-10v-5h-10c-2.761 0-5 2.239-5 5v20c0 2.761 2.239 5 5 5h216c2.761 0 5-2.239 5-5v-10z" fill="#e8e8e8"/><path d="m213 355.5h-169c-.167 0-.334.002-.5.007-1.571.046-3.088.31-4.5.801-5.831 2.029-7 14.086-7 14.086 0 8.284 3.716 12.105 12 12.105h166c8.284 0 18-3.716 18-12 0-8.117-6.447-14.728-14.5-14.992-.166-.004-.333-.007-.5-.007z" fill="#f8f7f7"/><path d="m39 356.308c-5.814 1.992-10 7.597-10 14.086 0 8.401 6.81 15.105 15.211 15.105h168.789c8.284 0 15-6.716 15-15h-174.808c-7.838.001-14.192-6.353-14.192-14.191z" fill="#e8e8e8"/><path d="m193.5 95.5h-130c-1.755 0-3.436.312-5.002.866-5.823 2.061-7.998 14.134-7.998 14.134 0 8.284 6.716 13 15 13h125c8.284 0 18-9.947 18-13 0-8.284-6.716-15-15-15z" fill="#f8f7f7"/><path d="m58.498 96.366c-5.9 2.089-10.11 7.755-9.996 14.397.139 8.104 6.923 14.501 14.983 14.73.149.004.298.006.448.006h129.567c8.284 0 15-6.716 15-15h-135.872c-7.803.001-14.13-6.33-14.13-14.133z" fill="#e8e8e8"/><path d="m177 187.5h-97c-1.755 0-3.436.312-5.002.866-5.823 2.061-6.998 10.605-6.998 17.134 0 0 5.716 10 14 10h92c8.284 0 18-8.585 18-13 0-8.284-6.716-15-15-15z" fill="#f8f7f7"/><path d="m74.998 188.366c-5.9 2.089-10.11 7.755-9.996 14.397.142 8.253 7.176 14.737 15.43 14.737l17.418 3 64.499.5 14.65-3.5c8.284 0 15-6.716 15-15h-102.871c-7.803 0-14.13-6.331-14.13-14.134z" fill="#e8e8e8"/><path d="m185.052 217.5h-113.104c-1.736 0-3.399.304-4.95.848-5.821 2.044-7.998 14.204-7.998 14.204 0 8.255 4.692 12.948 12.948 12.948h108.104c8.255 0 19.948-4.732 19.948-12.987 0-8.255-6.692-15.013-14.948-15.013z" fill="#f8f7f7"/><path d="m81.076 232.5c-7.774 0-14.078-6.302-14.078-14.076v-.076c-5.82 2.044-9.998 7.581-9.998 14.1v.104c0 8.255 6.692 14.948 14.948 14.948h113.104c8.255 0 14.948-6.732 14.948-14.987z" fill="#e8e8e8"/><g><g><path d="m321.525 375.48c26.253-21.509 41.475-53.658 41.475-87.597v-6.383h63v5.573c0 27.141 9.737 53.119 27.038 73.429 0 0 4.793 10.462 10.462 14.997z" fill="#857e87"/><path d="m453.038 360.503-83.84-.003c-7.637 0-12.449-8.211-8.72-14.876 9.665-17.278 14.522-37.18 14.522-57.741v-6.383h-15v6.427c0 33.926-15.223 66.089-41.475 87.58l3.98 1.988c-.001.001 143.516.569 143.516.569l2.479-2.556c-5.669-4.535-10.835-9.573-15.462-15.005z" fill="#6f6571"/></g><g><path d="m473.697 416.324-5.697-10.824-3.255-4h-143.22l-2.525 4-5.697 10.824c-2.704 5.137-7.033 9.221-12.3 11.638-.159.073-12.004 16.57-12.004 16.57 0 13.343 11.817 26.968 25.16 26.968l158.681 1c10.1 0 22.751-4.199 26.36-12.999 1.159-2.825 1.8-5.918 1.8-9.161 0-9.619-5.706-18.321-14.527-22.156-5.484-2.384-9.991-6.568-12.776-11.86z" fill="#857e87"/><g><path d="m326.612 459.5c-14.145 0-25.612-11.467-25.612-25.612l.004-5.927c-.144.066-.286.135-.43.201-8.599 3.935-14.574 11.97-14.574 21.426v.752c0 13.343 10.817 24.16 24.16 24.16l4.202 4h157.787l4.691-4c10.1 0 18.75-6.199 22.36-14.999z" fill="#6f6571"/></g></g><g><path d="m448.787 248.287-25.787-25.776-59.322.303-19.678 19.686-5.786 8.787c-3.978 3.978-3.213 6.374-3.213 12 0 11.716 9.497 19.213 21.213 19.213h74.574c9.553 0 20.63-4.316 23.286-12.999.601-1.965.927-4.052.927-6.214-.001-5.626-2.236-11.022-6.214-15z" fill="#857e87"/><path d="m344 252.303v-9.804l-5.44 5.441c-3.762 3.762-6.201 8.726-6.52 14.036-.74 12.309 9.024 22.523 21.174 22.523h80.574c9.553 0 17.629-6.316 20.286-14.999l-92.876-.001c-9.499.001-17.198-7.698-17.198-17.196z" fill="#6f6571"/></g><g><path d="m459 166c0-36.175-29.325-65.5-65.5-65.5-14.772 0-28.401 4.892-39.358 13.142 0 0-24.142 20.167-24.142 52.358 0 36.175 27.325 63.5 63.5 63.5 32.862 0 52.358-24.142 52.358-24.142 8.25-10.957 13.142-24.586 13.142-39.358z" fill="#6f6571"/><path d="m406.5 218.5c-36.175 0-65.5-29.325-65.5-65.5 0-14.772 4.892-28.401 13.142-39.358-15.875 11.952-26.142 30.955-26.142 52.358 0 36.175 29.325 65.5 65.5 65.5 21.403 0 40.406-10.267 52.358-26.142-10.957 8.25-24.586 13.142-39.358 13.142z" fill="#635a63"/></g><g><path d="m468 375.5h-149c-.159 0-.317.002-.475.007-1.575.045-3.112.313-4.525.801-5.844 2.022-8 12.086-8 12.086 0 8.284 4.716 15.105 13 15.105h146c8.284 0 18-4.716 18-13 0-8.117-6.447-14.728-14.5-14.992-.166-.004-.333-.007-.5-.007z" fill="#857e87"/><path d="m314 376.308c-5.814 1.992-10 7.597-10 14.086 0 8.401 6.81 15.105 15.211 15.105h148.789c8.284 0 15-6.716 15-15h-154.808c-7.838.001-14.192-6.353-14.192-14.191z" fill="#6f6571"/></g><g><path d="m491.5 474.5h-186l-8 2c-2.761 0-5 2.239-5 5v16c0 2.761 2.239 5 5 5h192c2.761 0 5-2.239 5-5l2-8v-10c0-2.761-2.239-5-5-5z" fill="#857e87"/><path d="m315.5 489.5c-5.523 0-10-4.477-10-10v-5h-10c-2.761 0-5 2.239-5 5v20c0 2.761 2.239 5 5 5h196c2.761 0 5-2.239 5-5v-10z" fill="#6f6571"/></g></g></g><g><path d="m234.48 408.749c-5.671-2.965-11.564-9.861-13.275-17.305 8.359-3.287 14.294-11.432 14.294-20.944 0-11.207-8.236-20.524-18.973-22.221-24.191-20.155-38.027-49.624-38.027-81.205v-12.074h6.5c12.407 0 22.5-10.093 22.5-22.5 0-8.112-4.316-15.234-10.772-19.193 1.765-3.209 2.772-6.892 2.772-10.807 0-9.963-6.511-18.429-15.5-21.379-1.008-16.397 3.086-34.76 13.458-48.476 10.526-1.877 18.543-11.089 18.543-22.145 0-12.407-10.093-22.5-22.5-22.5h-6.029c-6.828-14.201-20.178-26.751-34.934-32.426 5.552-5.907 8.963-13.847 8.963-22.574 0-18.196-14.804-33-33-33s-33 14.804-33 33c0 8.727 3.411 16.667 8.962 22.574-14.457 5.527-27.693 17.684-34.933 32.426h-6.029c-12.407 0-22.5 10.093-22.5 22.5 0 11.018 7.962 20.204 18.432 22.125 9.864 13.218 13.563 32.114 12.568 48.85-8.468 3.233-14.5 11.436-14.5 21.025 0 3.914 1.007 7.597 2.772 10.807-6.456 3.959-10.772 11.081-10.772 19.193 0 12.407 10.093 22.5 22.5 22.5h5.5v12.883c0 31.092-13.485 60.263-37.079 80.405-10.711 1.719-18.921 11.023-18.921 22.212 0 9.511 5.935 17.657 14.294 20.944-1.38 6.268-6.578 13.731-13.275 17.305-11.732 7.11-19.02 20.049-19.02 33.767 0 10.185 3.877 19.48 10.232 26.491-3.443 2.228-5.731 6.095-5.731 10.493v20c0 6.893 5.607 12.5 12.5 12.5h216c6.893 0 12.5-5.607 12.5-12.5v-20c0-4.398-2.288-8.265-5.732-10.493 6.354-7.01 10.232-16.306 10.232-26.491 0-13.718-7.288-26.657-19.02-33.767zm-57.48-198.749h-97c-4.136 0-7.5-3.364-7.5-7.5s3.364-7.5 7.5-7.5h97c4.136 0 7.5 3.364 7.5 7.5s-3.364 7.5-7.5 7.5zm-66.5-177c0-9.925 8.075-18 18-18s18 8.075 18 18-8.075 18-18 18-18-8.075-18-18zm18 33c16.786 0 32.304 8.313 41.621 22h-83.242c9.317-13.687 24.835-22 41.621-22zm-65 37h130c4.136 0 7.5 3.364 7.5 7.5s-3.364 7.5-7.5 7.5h-41c-4.142 0-7.5 3.358-7.5 7.5s3.358 7.5 7.5 7.5h26.964c-7.631 13.252-11.199 31.079-10.464 47h-82c.751-15.412-2.081-32.803-9.781-47h40.281c4.142 0 7.5-3.358 7.5-7.5s-3.358-7.5-7.5-7.5h-54c-4.136 0-7.5-3.364-7.5-7.5s3.364-7.5 7.5-7.5zm1 129.5c0-4.136 3.364-7.5 7.5-7.5h113c4.136 0 7.5 3.364 7.5 7.5s-3.364 7.5-7.5 7.5h-113c-4.136 0-7.5-3.364-7.5-7.5zm28 35.383v-12.883h71v12.074c0 30.305 11.161 58.906 31.117 80.926h-52.34c-4.142 0-7.5 3.358-7.5 7.5s3.358 7.5 7.5 7.5h70.723c4.136 0 7.5 3.364 7.5 7.5s-3.364 7.5-7.5 7.5h-169c-4.136 0-7.5-3.364-7.5-7.5s3.364-7.5 7.5-7.5h63.276c4.142 0 7.5-3.358 7.5-7.5s-3.358-7.5-7.5-7.5h-45.177c19.496-21.926 30.401-50.245 30.401-80.117zm-62.206 153.694c10.002-5.417 18.419-16.905 20.495-28.577h155.422c1.967 11.185 9.889 22.683 20.495 28.577 7.275 4.409 11.794 12.433 11.794 20.939 0 13.5-10.984 24.484-24.484 24.484h-171.032c-13.5 0-24.484-10.984-24.484-24.484 0-8.507 4.519-16.53 11.794-20.939zm203.706 75.423h-211v-15h211z"/><path d="m508.5 450.34c0-12.61-7.472-24.006-19.036-29.034-3.761-1.551-8.355-6-10.537-11.147 6.896-3.849 11.573-11.216 11.573-19.659 0-11.207-8.236-20.523-18.973-22.221-22.929-19.103-36.546-46.574-37.905-76.279h.165c15.832 0 28.713-12.881 28.713-28.713 0-7.668-2.986-14.879-8.409-20.303l-17.855-17.855c18.317-13.276 30.264-34.828 30.264-59.129 0-11.245-2.49-22.033-7.402-32.065-1.822-3.72-6.316-5.26-10.034-3.438-3.721 1.822-5.26 6.314-3.438 10.034 3.898 7.961 5.875 16.53 5.875 25.469 0 31.981-26.019 58-58 58s-58-26.019-58-58 26.019-58 58-58c11.316 0 22.279 3.258 31.702 9.421 3.467 2.268 8.116 1.296 10.382-2.171 2.268-3.466 1.296-8.115-2.171-10.382-11.871-7.764-25.673-11.868-39.914-11.868-40.252 0-73 32.748-73 73 0 24.301 11.947 45.853 30.264 59.129l-17.855 17.855c-5.423 5.424-8.409 12.634-8.409 20.303 0 15.564 12.45 28.266 27.912 28.693-1.129 29.525-14.419 57.015-36.993 76.308-10.71 1.72-18.919 11.024-18.919 22.212 0 8.443 4.677 15.81 11.573 19.659-1.77 4.037-5.219 8.667-10.537 11.147-11.564 5.028-19.036 16.424-19.036 29.034 0 7.933 2.94 15.188 7.779 20.75-2.029 2.223-3.279 5.17-3.279 8.41v20c0 6.893 5.607 12.5 12.5 12.5h196c6.893 0 12.5-5.607 12.5-12.5v-20c0-3.24-1.25-6.187-3.279-8.41 4.839-5.561 7.779-12.816 7.779-20.75zm-189.5-52.34c-4.136 0-7.5-3.364-7.5-7.5s3.364-7.5 7.5-7.5h149c4.136 0 7.5 3.364 7.5 7.5s-3.364 7.5-7.5 7.5zm130.617-30h-112.518c18.598-20.915 29.371-47.649 30.324-76h51.187c1.141 28.469 12.136 55.177 31.007 76zm-110.117-104.713c0-3.663 1.427-7.106 4.017-9.697l20.729-20.728c8.962 3.937 18.854 6.138 29.254 6.138s20.292-2.201 29.255-6.138l20.729 20.728c2.59 2.591 4.017 6.035 4.017 9.697 0 7.562-6.151 13.713-13.713 13.713h-80.574c-7.563 0-13.714-6.152-13.714-13.713zm149.5 233.713h-191v-15h41.106c4.143 0 7.5-3.358 7.5-7.5s-3.357-7.5-7.5-7.5h-28.946c-9.187 0-16.66-7.474-16.66-16.66 0-6.636 3.932-12.632 10.017-15.278 8.809-3.31 16.053-13.079 20.011-22.062h139.944c3.93 8.72 10.197 17.94 20.011 22.062 6.085 2.646 10.017 8.643 10.017 15.278 0 9.186-7.474 16.66-16.66 16.66h-102.734c-4.143 0-7.5 3.358-7.5 7.5s3.357 7.5 7.5 7.5h114.894z"/></g></g></svg>