<svg id="Capa_1" enable-background="new 0 0 511.974 511.974" height="512" viewBox="0 0 511.974 511.974" width="512" xmlns="http://www.w3.org/2000/svg"><g><g><g><path d="m131.462 490.706h-67.837c-5.523 0-10-4.477-10-10v-42.087h87.837v42.087c0 5.523-4.478 10-10 10z" fill="#bac5e2"/></g><g><path d="m391.322 490.706h-67.837c-5.523 0-10-4.477-10-10v-42.087h87.837v42.087c0 5.523-4.477 10-10 10z" fill="#bac5e2"/></g><g><path d="m77.025 480.706v-42.087h-23.4v42.087c0 5.523 4.477 10 10 10h23.4c-5.523 0-10-4.477-10-10z" fill="#a7b4d1"/></g><g><path d="m336.886 480.706v-42.087h-23.4v42.087c0 5.523 4.477 10 10 10h23.4c-5.523 0-10-4.477-10-10z" fill="#a7b4d1"/></g><g><path d="m427.447 442.969h-399.947c-11.046 0-20-8.954-20-20v-381.701c0-11.046 8.954-20 20-20h399.947c11.046 0 20 8.954 20 20v381.701c0 11.045-8.954 20-20 20z" fill="#e9efff"/></g><g><path d="m30.9 422.969v-381.701c0-11.046 8.954-20 20-20h-23.4c-11.046 0-20 8.954-20 20v381.701c0 11.046 8.954 20 20 20h23.4c-11.046 0-20-8.955-20-20z" fill="#d3dcfb"/></g><g><path d="m393.322 327.126h-331.697c-4.418 0-8-3.582-8-8v-242.927c0-4.418 3.582-8 8-8h331.697c4.418 0 8 3.582 8 8v242.927c0 4.418-3.581 8-8 8z" fill="#42c3fc"/></g><g><path d="m333.723 138.901-.093.12c-19.705 25.546-19.764 61.273-.143 86.883l50.836 66.349c4.642 6.058 10.455 10.849 16.999 14.188v-194.363c-3.67-.58-7.401-.875-11.168-.875-22.284 0-42.866 10.112-56.431 27.698z" fill="#1aa9e8"/></g><g><path d="m416.434 116.223c-4.865-1.937-9.927-3.326-15.112-4.145v194.362c6.934 3.537 14.689 5.444 22.774 5.444 8.311 0 16.272-2.019 23.35-5.749v-194.171c-5.388.819-10.648 2.251-15.695 4.273-4.905 1.966-10.406 1.941-15.317-.014z" fill="#d3dcfb"/></g><g><path d="m77.025 319.126v-242.927c0-4.418 3.582-8 8-8h-23.4c-4.418 0-8 3.582-8 8v242.927c0 4.418 3.582 8 8 8h23.4c-4.418 0-8-3.582-8-8z" fill="#1aa9e8"/></g><g><path d="m95.386 401.724h-36.761c-2.761 0-5-2.239-5-5v-25.644c0-2.761 2.239-5 5-5h36.761c2.761 0 5 2.239 5 5v25.644c0 2.761-2.238 5-5 5z" fill="#ffdd40"/></g><g><path d="m177.876 401.724h-36.761c-2.761 0-5-2.239-5-5v-25.644c0-2.761 2.239-5 5-5h36.761c2.761 0 5 2.239 5 5v25.644c0 2.761-2.238 5-5 5z" fill="#ffdd40"/></g><g><path d="m432.086 144.242-2.639 1.807c-3.222 2.206-7.471 2.196-10.683-.025l-2.326-1.608c-20.251-14-47.918-9.694-62.955 9.8l-.057.074c-12.812 16.609-12.85 39.758-.093 56.409l50.835 66.348c10.049 13.116 29.809 13.116 39.858 0l50.932-66.475c12.712-16.591 12.724-39.644.03-56.249-14.95-19.554-42.591-23.984-62.902-10.081z" fill="#e5979d"/></g><g><path d="m427.469 277.047-50.835-66.348c-12.757-16.651-12.719-39.8.093-56.409l.057-.074c6.509-8.437 15.385-14.023 25.001-16.517-17.472-4.547-36.667 1.434-48.303 16.517l-.057.074c-12.812 16.609-12.85 39.758-.093 56.409l50.835 66.348c7.729 10.088 21.198 12.407 31.58 6.978-3.116-1.63-5.957-3.95-8.278-6.978z" fill="#e17f85"/></g></g><g><path d="m7.5 289.767c4.143 0 7.5-3.358 7.5-7.5v-240.999c0-6.893 5.607-12.5 12.5-12.5h399.947c6.893 0 12.5 5.607 12.5 12.5v65.399c0 4.142 3.357 7.5 7.5 7.5s7.5-3.358 7.5-7.5v-65.399c0-15.164-12.336-27.5-27.5-27.5h-399.947c-15.164 0-27.5 12.336-27.5 27.5v240.999c0 4.142 3.357 7.5 7.5 7.5z"/><path d="m447.447 309.167c-4.143 0-7.5 3.358-7.5 7.5v106.302c0 6.893-5.607 12.5-12.5 12.5h-399.947c-6.893 0-12.5-5.607-12.5-12.5v-108.702c0-4.142-3.357-7.5-7.5-7.5s-7.5 3.358-7.5 7.5v108.702c0 15.164 12.336 27.5 27.5 27.5h18.625v30.237c0 9.649 7.851 17.5 17.5 17.5h67.837c9.649 0 17.5-7.851 17.5-17.5v-30.237h157.023v30.237c0 9.649 7.851 17.5 17.5 17.5h67.837c9.649 0 17.5-7.851 17.5-17.5v-30.237h18.625c15.164 0 27.5-12.336 27.5-27.5v-106.302c0-4.142-3.357-7.5-7.5-7.5zm-313.485 171.539c0 1.378-1.121 2.5-2.5 2.5h-67.837c-1.379 0-2.5-1.122-2.5-2.5v-30.237h72.837zm259.86 0c0 1.378-1.121 2.5-2.5 2.5h-67.837c-1.379 0-2.5-1.122-2.5-2.5v-30.237h72.837z"/><path d="m58.625 409.224h36.761c6.893 0 12.5-5.607 12.5-12.5v-25.644c0-6.893-5.607-12.5-12.5-12.5h-36.761c-6.893 0-12.5 5.607-12.5 12.5v25.644c0 6.892 5.607 12.5 12.5 12.5zm2.5-35.644h31.761v20.644h-31.761z"/><path d="m177.876 409.224c6.893 0 12.5-5.607 12.5-12.5v-25.644c0-6.893-5.607-12.5-12.5-12.5h-36.761c-6.893 0-12.5 5.607-12.5 12.5v25.644c0 6.893 5.607 12.5 12.5 12.5zm-34.261-35.644h31.761v20.644h-31.761z"/><path d="m390.629 373.58h10.693c4.143 0 7.5-3.358 7.5-7.5s-3.357-7.5-7.5-7.5h-10.693c-4.143 0-7.5 3.358-7.5 7.5s3.357 7.5 7.5 7.5z"/><path d="m390.629 409.224h10.693c4.143 0 7.5-3.358 7.5-7.5s-3.357-7.5-7.5-7.5h-10.693c-4.143 0-7.5 3.358-7.5 7.5s3.357 7.5 7.5 7.5z"/><path d="m234.814 373.58h123.736c4.143 0 7.5-3.358 7.5-7.5s-3.357-7.5-7.5-7.5h-123.736c-4.143 0-7.5 3.358-7.5 7.5s3.358 7.5 7.5 7.5z"/><path d="m234.814 409.224h123.736c4.143 0 7.5-3.358 7.5-7.5s-3.357-7.5-7.5-7.5h-123.736c-4.143 0-7.5 3.358-7.5 7.5s3.358 7.5 7.5 7.5z"/><path d="m99.733 114.167h9.965c4.143 0 7.5-3.358 7.5-7.5s-3.357-7.5-7.5-7.5h-9.965c-4.143 0-7.5 3.358-7.5 7.5s3.358 7.5 7.5 7.5z"/><path d="m142.453 114.167h9.965c4.143 0 7.5-3.358 7.5-7.5s-3.357-7.5-7.5-7.5h-9.965c-4.143 0-7.5 3.358-7.5 7.5s3.358 7.5 7.5 7.5z"/><path d="m500.945 149.768c-17.376-22.729-49.484-27.877-73.096-11.714l-2.64 1.807c-.652.447-1.529.445-2.182-.006l-2.326-1.608c-3.771-2.607-7.764-4.661-11.88-6.191v-55.857c0-8.547-6.953-15.5-15.5-15.5h-331.696c-8.547 0-15.5 6.953-15.5 15.5v242.927c0 8.547 6.953 15.5 15.5 15.5h331.697c8.547 0 15.5-6.953 15.5-15.5v-28.525c4.626 2.454 9.836 3.783 15.275 3.783 10.228 0 19.661-4.657 25.881-12.775l50.933-66.475c14.737-19.236 14.752-46.115.034-65.366zm-439.32-74.069h331.697c.275 0 .5.224.5.5v52.632c-17.359-1.189-34.906 6.062-46.249 20.768-.01.013-.077.099-.087.111-11.615 15.058-14.183 34.805-7.69 51.938h-33.676c-7.17 0-13.538 4.295-16.226 10.943l-2.272 5.624-14.646-51.608c-1.366-4.816-5.648-8.08-10.655-8.12-.031 0-.062 0-.094 0-4.967 0-9.256 3.184-10.69 7.947l-10.076 33.436c-.321 1.064-1.283 1.78-2.395 1.78h-27.829c-6.873 0-13.137 4.049-15.958 10.315l-17.554 38.986-30.664-95.035c-1.528-4.739-5.902-7.852-10.876-7.738-4.979.11-9.208 3.411-10.526 8.214l-12.553 45.789c-.297 1.083-1.288 1.838-2.41 1.838h-49.57v-127.82c-.001-.276.224-.5.499-.5zm331.697 243.927h-331.697c-.275 0-.5-.224-.5-.5v-100.109h49.57c7.859 0 14.8-5.294 16.877-12.874l9.157-33.402 29.774 92.279c1.43 4.433 5.359 7.464 10.01 7.723.214.012.427.018.64.018 4.396 0 8.341-2.532 10.165-6.584l21.638-48.057c.403-.895 1.298-1.473 2.28-1.473h27.829c7.777 0 14.511-5.003 16.756-12.451l6.299-20.901 14.123 49.763c1.303 4.59 5.38 7.847 10.145 8.104 4.742.253 9.167-2.543 10.956-6.968l6.458-15.983c.385-.95 1.294-1.563 2.318-1.563h42.321l45.381 59.23v43.249c0 .275-.224.499-.5.499zm95.683-113.616-50.933 66.475c-3.359 4.384-8.453 6.898-13.976 6.898-5.522 0-10.617-2.514-13.977-6.898l-50.835-66.348c-10.674-13.932-10.642-33.369.049-47.229.01-.012.077-.099.087-.111 7.616-9.874 19.09-15.098 30.724-15.098 7.62 0 15.311 2.242 22.028 6.886l2.325 1.607c5.729 3.96 13.438 3.98 19.185.044l2.64-1.807c17.023-11.653 40.176-7.944 52.707 8.447 10.613 13.883 10.602 33.265-.024 47.134z"/></g></g></svg>