<svg id="Capa_1" enable-background="new 0 0 512 512" height="512" viewBox="0 0 512 512" width="512" xmlns="http://www.w3.org/2000/svg"><g><g><g><path d="m293.92 116.383v-58.823h-121.912v58.823c0 8.794-2.711 17.375-7.764 24.572l-36.234 51.613c-11.936 17.002-18.34 37.27-18.34 58.043v224.125c0 16.438 13.326 29.764 29.764 29.764h187.06c16.438 0 29.764-13.326 29.764-29.764v-224.125c0-20.773-6.404-41.041-18.34-58.043l-36.234-51.613c-5.052-7.198-7.764-15.778-7.764-24.572z" fill="#ffdd40"/></g><g><path d="m284.519 260.84h71.739v-10.229c0-20.773-6.404-41.041-18.34-58.043l-16.297-23.214-27.508 46.406c-8.291 13.988-11.495 29.724-9.594 45.08z" fill="#ffc043"/></g><g><path d="m293.92 57.56h-121.912v58.823c0 8.794-2.711 17.374-7.764 24.572l-36.234 51.613c-11.936 17.002-18.34 37.27-18.34 58.043v224.125c0 16.438 13.326 29.764 29.764 29.764h29.28c-16.438 0-29.764-13.326-29.764-29.764v-224.125c0-20.773 6.404-41.041 18.34-58.043l36.234-51.613c5.053-7.198 7.764-15.778 7.764-24.572 0-11.014 8.929-19.943 19.943-19.943h72.69v-38.88z" fill="#ffc043"/></g><g><path d="m109.67 260.84h246.588v185.548h-246.588z" fill="#e9efff"/></g><g><path d="m284.519 260.84c1.144 9.236 4.134 18.335 8.975 26.834 12.892 22.628 36.136 36.138 62.179 36.138.196 0 .39-.008.585-.01v-62.962z" fill="#d3dcfb"/></g><g><path d="m109.67 260.84h29.28v185.548h-29.28z" fill="#d3dcfb"/></g><g><path d="m308.284 73.02h-150.64c-5.523 0-10-4.477-10-10v-45.52c0-5.523 4.477-10 10-10h150.64c5.523 0 10 4.477 10 10v45.52c0 5.523-4.477 10-10 10z" fill="#bac5e2"/></g><g><path d="m176.924 63.02v-45.52c0-5.523 4.477-10 10-10h-29.28c-5.523 0-10 4.477-10 10v45.52c0 5.523 4.477 10 10 10h29.28c-5.523 0-10-4.477-10-10z" fill="#a7b4d1"/></g><g><path d="m270.293 337.563h-18.321c-1.633 0-2.956-1.324-2.956-2.956v-18.321c0-5.871-4.76-10.631-10.631-10.631h-10.839c-5.871 0-10.631 4.76-10.631 10.631v18.321c0 1.633-1.324 2.956-2.956 2.956h-18.321c-5.871 0-10.631 4.76-10.631 10.631v10.839c0 5.871 4.76 10.631 10.631 10.631h18.321c1.633 0 2.956 1.324 2.956 2.956v18.321c0 5.871 4.76 10.631 10.631 10.631h10.839c5.871 0 10.631-4.76 10.631-10.631v-18.321c0-1.633 1.324-2.956 2.956-2.956h18.321c5.871 0 10.631-4.76 10.631-10.631v-10.839c0-5.871-4.76-10.631-10.631-10.631z" fill="#b3e59f"/></g><g><path d="m395.728 228.507-30.766-51.904c-4.182-7.055-14.394-7.055-18.576 0l-30.766 51.904c-18.398 31.038 3.973 70.304 40.054 70.304 36.081 0 58.452-39.265 40.054-70.304z" fill="#b3e59f"/></g><g><path d="m334.705 228.507 30.512-51.474-.255-.43c-4.182-7.055-14.394-7.055-18.576 0l-30.766 51.904c-18.398 31.038 3.973 70.304 40.054 70.304 3.303 0 6.49-.332 9.543-.954-30.292-6.169-47.226-41.153-30.512-69.35z" fill="#95d6a4"/></g></g><g><path d="m356.258 326.06c-4.143 0-7.5 3.357-7.5 7.5v105.329h-231.587v-108.089c0-4.143-3.357-7.5-7.5-7.5s-7.5 3.357-7.5 7.5v143.937c0 20.547 16.717 37.264 37.264 37.264h187.06c20.547 0 37.264-16.717 37.264-37.264v-141.177c-.001-4.143-3.359-7.5-7.501-7.5zm-7.5 148.676c0 12.276-9.987 22.264-22.264 22.264h-187.06c-12.276 0-22.264-9.987-22.264-22.264v-20.848h231.587v20.848z"/><path d="m109.671 306.312c4.143 0 7.5-3.357 7.5-7.5v-30.472h158.073c4.143 0 7.5-3.357 7.5-7.5s-3.357-7.5-7.5-7.5h-158.073v-2.729c0-19.332 5.871-37.913 16.979-53.733l36.233-51.613c5.97-8.504 9.125-18.491 9.125-28.882v-35.863h106.913v35.863c0 10.39 3.155 20.377 9.125 28.882l16.6 23.646c2.381 3.39 7.057 4.21 10.448 1.829 3.39-2.38 4.209-7.058 1.829-10.448l-16.6-23.645c-4.188-5.968-6.402-12.975-6.402-20.264v-35.863h6.863c9.649 0 17.5-7.851 17.5-17.5v-45.52c0-9.649-7.851-17.5-17.5-17.5h-150.64c-9.649 0-17.5 7.851-17.5 17.5v45.52c0 9.649 7.851 17.5 17.5 17.5h6.863v35.863c0 7.29-2.214 14.297-6.402 20.263l-36.233 51.613c-12.889 18.358-19.701 39.92-19.701 62.353v48.2c0 4.142 3.357 7.5 7.5 7.5zm47.973-240.792c-1.379 0-2.5-1.121-2.5-2.5v-45.52c0-1.379 1.121-2.5 2.5-2.5h25.54v16.64c0 4.143 3.357 7.5 7.5 7.5s7.5-3.357 7.5-7.5v-16.64h27.28v16.64c0 4.143 3.357 7.5 7.5 7.5s7.5-3.357 7.5-7.5v-16.64h27.279v16.64c0 4.143 3.357 7.5 7.5 7.5s7.5-3.357 7.5-7.5v-16.64h25.54c1.379 0 2.5 1.121 2.5 2.5v45.52c0 1.379-1.121 2.5-2.5 2.5z"/><path d="m227.545 409.073h10.839c9.998 0 18.132-8.134 18.132-18.131v-13.777h13.777c9.997 0 18.131-8.134 18.131-18.131v-10.84c0-9.997-8.134-18.131-18.131-18.131h-13.777v-13.777c0-9.997-8.134-18.131-18.132-18.131h-10.839c-9.997 0-18.131 8.134-18.131 18.131v13.777h-13.778c-9.997 0-18.131 8.134-18.131 18.131v10.84c0 9.997 8.134 18.131 18.131 18.131h13.778v13.777c0 9.997 8.134 18.131 18.131 18.131zm-31.909-46.908c-1.727 0-3.131-1.404-3.131-3.131v-10.84c0-1.727 1.404-3.131 3.131-3.131h18.321c5.766 0 10.457-4.69 10.457-10.456v-18.321c0-1.727 1.404-3.131 3.131-3.131h10.839c1.727 0 3.132 1.404 3.132 3.131v18.321c0 5.766 4.69 10.456 10.456 10.456h18.321c1.727 0 3.131 1.404 3.131 3.131v10.84c0 1.727-1.404 3.131-3.131 3.131h-18.321c-5.766 0-10.456 4.69-10.456 10.456v18.321c0 1.727-1.405 3.131-3.132 3.131h-10.839c-1.727 0-3.131-1.404-3.131-3.131v-18.321c0-5.766-4.691-10.456-10.457-10.456z"/><path d="m402.18 224.684-30.767-51.906c-3.328-5.614-9.212-8.966-15.739-8.966s-12.411 3.352-15.74 8.967l-30.767 51.905c-10.031 16.924-10.206 37.233-.467 54.328 9.739 17.094 27.3 27.3 46.974 27.3s37.234-10.206 46.974-27.301c9.739-17.094 9.563-37.404-.468-54.327zm-12.566 46.902c-7.037 12.352-19.725 19.726-33.94 19.726s-26.903-7.374-33.94-19.726-6.911-27.025.338-39.254l30.766-51.904c.834-1.406 2.136-1.616 2.837-1.616s2.003.21 2.836 1.615l30.766 51.905c7.247 12.229 7.373 26.902.337 39.254z"/></g></g></svg>