<svg id="Capa_1" enable-background="new 0 0 512 512" height="512" viewBox="0 0 512 512" width="512" xmlns="http://www.w3.org/2000/svg"><g><g><path d="m474.5 7.5h-437c-5.058 0-9.824 1.252-14.004 3.462 0 0-13.262 20.102-13.262 31.612l.681 426.926c0 16.569 13.431 30 30 30l431.574 1.628c5.595 0 11.091.369 15.574-2.298 4.74-2.82 12.974-10.326 12.974-10.326 2.211-4.18 3.462-8.946 3.462-14.004v-437c.001-16.569-13.43-30-29.999-30z" fill="#7bb1ff"/><path d="m501.038 488.504c-5.02 9.52-15.028 15.996-26.538 15.996h-437c-16.57 0-30-13.43-30-30v-437c0-11.51 6.476-21.518 15.996-26.538l.004 452.538c0 13.81 11.19 25 25 25z" fill="#62a5f4"/><path d="m40.787 460.319-.298-410.34c0-5.523 4.477-10 10-10l3.011-2.479h411c5.523 0 10 4.477 10 10v411l-3.585 4.543c0 5.523-4.477 10-10 10l-410.128-2.723c-5.523-.001-10-4.478-10-10.001z" fill="#f8f7f7"/><path d="m474.5 458.5v6c0 5.523-4.477 10-10 10h-417c-5.523 0-10-4.477-10-10v-417c0-5.523 4.477-10 10-10h6v408c0 7.18 5.82 13 13 13z" fill="#e8e8e8"/><g fill="#ffe07d"><path d="m107.853 66.778 5.539 11.224c.291.59.854.999 1.506 1.094l12.386 1.8c1.64.238 2.295 2.254 1.108 3.411l-8.963 8.736c-.471.459-.686 1.121-.575 1.77l2.116 12.336c.28 1.634-1.435 2.88-2.902 2.108l-11.079-5.824c-.583-.306-1.279-.306-1.861 0l-11.079 5.824c-1.467.771-3.182-.475-2.902-2.108l2.116-12.336c.111-.649-.104-1.311-.575-1.77l-8.963-8.736c-1.187-1.157-.532-3.173 1.108-3.411l12.386-1.8c.651-.095 1.215-.504 1.506-1.094l5.539-11.224c.736-1.487 2.856-1.487 3.589 0z"/><path d="m407.734 66.778 5.539 11.224c.291.59.854.999 1.506 1.094l12.386 1.8c1.64.238 2.295 2.254 1.108 3.411l-8.963 8.736c-.471.459-.686 1.121-.575 1.77l2.116 12.336c.28 1.634-1.435 2.88-2.902 2.108l-11.079-5.824c-.583-.306-1.279-.306-1.861 0l-11.079 5.824c-1.467.771-3.182-.475-2.902-2.108l2.116-12.336c.111-.649-.104-1.311-.575-1.77l-8.963-8.736c-1.187-1.157-.532-3.173 1.108-3.411l12.386-1.8c.651-.095 1.215-.504 1.506-1.094l5.539-11.224c.735-1.487 2.855-1.487 3.589 0z"/></g><path d="m330.856 101.398h-149.712c-7.87 0-14.25-6.38-14.25-14.25v-.008c0-7.87 6.38-14.25 14.25-14.25h149.713c7.87 0 14.25 6.38 14.25 14.25v.008c-.001 7.87-6.381 14.25-14.251 14.25z" fill="#afefa5"/><g><circle cx="430.8" cy="179.29" fill="#afefa5" r="17.021"/><circle cx="343.4" cy="179.29" fill="#ffd064" r="17.021"/><circle cx="343.4" cy="264.287" fill="#7bb1ff" r="17.021"/><circle cx="343.4" cy="438.435" fill="#ffd064" r="17.021"/><circle cx="168.6" cy="349.29" fill="#afefa5" r="17.021"/></g></g><g><path d="m474.5 0h-437c-20.678 0-37.5 16.822-37.5 37.5v298.145c0 4.143 3.357 7.5 7.5 7.5s7.5-3.357 7.5-7.5v-298.145c0-12.406 10.094-22.5 22.5-22.5h437c12.406 0 22.5 10.094 22.5 22.5v437c0 12.406-10.094 22.5-22.5 22.5h-437c-12.406 0-22.5-10.094-22.5-22.5v-103.855c0-4.143-3.357-7.5-7.5-7.5s-7.5 3.357-7.5 7.5v103.855c0 20.678 16.822 37.5 37.5 37.5h437c20.678 0 37.5-16.822 37.5-37.5v-437c0-20.678-16.822-37.5-37.5-37.5z"/><path d="m474.5 425.936c4.143 0 7.5-3.357 7.5-7.5v-380.936c0-4.143-3.357-7.5-7.5-7.5h-437c-4.143 0-7.5 3.357-7.5 7.5v437c0 4.143 3.357 7.5 7.5 7.5h437c4.143 0 7.5-3.357 7.5-7.5v-21.064c0-4.143-3.357-7.5-7.5-7.5s-7.5 3.357-7.5 7.5v13.564h-72.4v-67.713h72.4v19.148c0 4.143 3.357 7.501 7.5 7.501zm-182.3-281.649v70h-72.4v-70zm87.4 0v70h-72.4v-70zm87.4 0v70h-72.4v-70zm-422 180.259 25.443 24.744-25.443 24.744zm60.403-110.259h-48.406l24.203-23.538zm-13.445-34 25.443-24.744v49.488zm-46.958 24.744v-49.488l25.443 24.744zm0 24.256h72.4v70h-72.4zm10.966 85h50.468l-25.234 24.541zm61.434 10.259v49.488l-25.442-24.744zm15-10.259h72.4v70h-72.4zm98.366 0h50.468l-25.234 24.541zm14.477 35.003-25.443 24.744v-49.488zm10.757 10.462 25.228 24.535h-50.456zm10.757-10.462 25.443-24.744v49.488zm-46.957-50.003v-70h72.4v70zm-15-85h-20.406c-4.143 0-7.5 3.357-7.5 7.5s3.357 7.5 7.5 7.5h20.406v70h-72.4v-70h16.993c4.143 0 7.5-3.357 7.5-7.5s-3.357-7.5-7.5-7.5h-16.993v-70h72.4zm-123.6-44.462-26.259-25.538h52.519zm0 189.927 25.228 24.535h-50.456zm51.2 39.535h72.4v67.713h-72.4zm87.4 0h72.4v67.713h-72.4zm87.4-85h72.4v70h-72.4zm0-15v-70h72.4v70zm87.4-70h72.4v70h-72.4zm72.4-184.287v84.287h-422v-84.287zm-422 354.287h72.4v67.713h-72.4zm334.6 67.713h-72.4v-67.713h72.4zm15-82.713v-70h72.4v70z"/><path d="m85.384 96.396-2.312 13.48c-.483 2.813.674 5.657 2.983 7.335 1.307.949 2.854 1.433 4.409 1.433 1.193 0 2.392-.284 3.489-.861l12.105-6.364 12.106 6.364c2.528 1.329 5.589 1.106 7.898-.571s3.467-4.521 2.983-7.335l-2.312-13.48 9.794-9.548c2.044-1.992 2.779-4.973 1.897-7.688s-3.229-4.693-6.055-5.104l-13.535-1.967-6.053-12.265c-1.264-2.56-3.871-4.181-6.726-4.181s-5.462 1.621-6.726 4.181l-6.053 12.265-13.535 1.967c-2.825.41-5.173 2.389-6.055 5.104s-.146 5.695 1.897 7.688zm13.956-10.03c2.443-.354 4.555-1.889 5.647-4.103l1.072-2.173 1.072 2.173c1.093 2.214 3.204 3.748 5.647 4.103l2.398.349-1.735 1.692c-1.768 1.723-2.574 4.205-2.156 6.638l.409 2.389-2.146-1.128c-1.093-.574-2.291-.861-3.49-.861s-2.397.287-3.49.861l-2.145 1.128.409-2.389c.418-2.433-.389-4.915-2.156-6.639l-1.736-1.691z"/><path d="m385.264 96.396-2.312 13.48c-.483 2.813.674 5.657 2.983 7.335s5.37 1.9 7.898.571l12.106-6.364 12.105 6.364c1.098.577 2.296.861 3.489.861 1.555 0 3.103-.483 4.409-1.433 2.31-1.678 3.467-4.521 2.983-7.335l-2.312-13.48 9.795-9.547c2.044-1.993 2.779-4.974 1.897-7.688-.882-2.716-3.229-4.694-6.055-5.104l-13.535-1.967-6.053-12.265c-1.264-2.56-3.871-4.181-6.726-4.181s-5.462 1.621-6.726 4.181l-6.053 12.265-13.535 1.967c-2.825.41-5.173 2.389-6.055 5.104-.882 2.716-.146 5.696 1.897 7.688zm13.957-10.03c2.443-.354 4.555-1.889 5.647-4.103l1.072-2.173 1.072 2.173c1.093 2.214 3.204 3.748 5.647 4.103l2.398.349-1.736 1.691c-1.768 1.724-2.574 4.206-2.156 6.639l.409 2.389-2.145-1.128c-2.186-1.147-4.795-1.149-6.98 0l-2.146 1.128.409-2.389c.418-2.433-.389-4.915-2.156-6.638l-1.735-1.692z"/><path d="m181.144 108.897h149.713c11.993 0 21.75-9.757 21.75-21.758 0-11.993-9.757-21.75-21.75-21.75h-31.157c-4.143 0-7.5 3.357-7.5 7.5s3.357 7.5 7.5 7.5h31.156c3.722 0 6.75 3.028 6.75 6.758 0 3.722-3.028 6.75-6.75 6.75h-149.712c-3.722 0-6.75-3.028-6.75-6.758 0-3.722 3.028-6.75 6.75-6.75h83.556c4.143 0 7.5-3.357 7.5-7.5s-3.357-7.5-7.5-7.5h-83.557c-11.993 0-21.75 9.757-21.75 21.758.001 11.994 9.757 21.75 21.751 21.75z"/><path d="m430.8 203.812c13.521 0 24.521-11 24.521-24.521s-11-24.521-24.521-24.521-24.521 11-24.521 24.521 10.999 24.521 24.521 24.521zm0-34.043c5.25 0 9.521 4.271 9.521 9.521s-4.271 9.521-9.521 9.521-9.521-4.271-9.521-9.521 4.271-9.521 9.521-9.521z"/><path d="m343.4 203.812c13.521 0 24.521-11 24.521-24.521s-11-24.521-24.521-24.521-24.521 11-24.521 24.521 11 24.521 24.521 24.521zm0-34.043c5.25 0 9.521 4.271 9.521 9.521s-4.271 9.521-9.521 9.521-9.521-4.271-9.521-9.521 4.271-9.521 9.521-9.521z"/><path d="m343.4 239.766c-13.521 0-24.521 11-24.521 24.521s11 24.521 24.521 24.521 24.521-11 24.521-24.521-11-24.521-24.521-24.521zm0 34.043c-5.25 0-9.521-4.271-9.521-9.521s4.271-9.521 9.521-9.521 9.521 4.271 9.521 9.521-4.271 9.521-9.521 9.521z"/><path d="m343.4 462.957c13.521 0 24.521-11 24.521-24.521s-11-24.521-24.521-24.521-24.521 11-24.521 24.521 11 24.521 24.521 24.521zm0-34.043c5.25 0 9.521 4.271 9.521 9.521s-4.271 9.521-9.521 9.521-9.521-4.271-9.521-9.521 4.271-9.521 9.521-9.521z"/><path d="m168.6 324.769c-13.521 0-24.521 11-24.521 24.521s11 24.521 24.521 24.521 24.521-11 24.521-24.521-11-24.521-24.521-24.521zm0 34.043c-5.25 0-9.521-4.271-9.521-9.521s4.271-9.521 9.521-9.521 9.521 4.271 9.521 9.521-4.271 9.521-9.521 9.521z"/></g></g></svg>