<svg id="Capa_1" enable-background="new 0 0 512 512" height="512" viewBox="0 0 512 512" width="512" xmlns="http://www.w3.org/2000/svg"><g><g><g fill="#f8f7f7"><circle cx="430.566" cy="23.547" r="16.047"/><circle cx="84.166" cy="23.547" r="16.047"/><path d="m201.468 99.681c0-8.072 1.965-13.458 7.362-18.638 2.913-2.796 9.557-8.241 9.557-8.241 2.943-1.029 6.106-1.589 9.4-1.589h56.426c10.632 0 19.903 5.829 24.792 14.465 0 0-.813 8.913-.813 14.003z"/></g><path d="m312.68 99.68-60.68 6.98-52.68-6.98c0-7.86 3.18-14.98 8.34-20.13 2.99-2.99 6.647-5.329 10.727-6.749-.858 1.685-1.548 3.474-2.056 5.328-1.043 3.802 1.861 7.55 5.804 7.55l86.87-.002c2.349 4.131 3.675 8.913 3.675 14.003z" fill="#e8e8e8"/><g><path d="m403.151 472.319h-74.387l15.617 25.319c1.799 3.047 5.073 4.916 8.611 4.916l7.17 1.946h18.28c3.538 0 6.812-1.869 8.611-4.916l9.011-15.263.891-5.981z" fill="#b57f5f"/><path d="m396.064 484.321-37.304-.001c-4.644 0-7.528 5.05-5.167 9.05l6.569 11.13h-8.2c-3.542 0-6.821-1.872-8.622-4.923l-16.088-27.257 36.49-9.831 39.41 9.831z" fill="#9f6e50"/></g><g><path d="m184.749 472.319h-74.387l15.617 25.319c1.799 3.047 5.073 4.916 8.611 4.916l7.17 1.946h18.28c3.538 0 6.812-1.869 8.611-4.916l9.011-15.263.891-5.981z" fill="#b57f5f"/><path d="m177.662 484.321-37.304-.001c-4.644 0-7.528 5.05-5.167 9.05l6.569 11.13h-8.2c-3.542 0-6.821-1.872-8.622-4.923l-16.088-27.257 36.49-9.831 39.41 9.831z" fill="#9f6e50"/></g><path d="m414.628 470.426-314.521-1.468c-22.091 0-40-17.909-40-40l-1.489-284.085c0-13.085 13.433-37.192 13.433-37.192 6.686-5.023 14.997-7.999 24.003-7.999h319.894c22.091 0 40 17.909 40 40v292.638c0 9.005-2.976 17.315-7.997 24.001 0 0-8.774 5.824-12.737 8.393-6.258 4.056-12.574 5.712-20.586 5.712z" fill="#c38c66"/><path d="m447.949 456.32c-7.3 9.72-18.919 16-31.999 16h-319.9c-22.09 0-40-17.91-40-40v-292.64c0-13.08 6.28-24.7 16-32v310.64c0 20.99 17.02 38 38 38z" fill="#b57f5f"/><circle cx="401.176" cy="411.319" fill="#f8f7f7" r="24.771"/><circle cx="113.394" cy="411.319" fill="#f8f7f7" r="24.771"/><g><path d="m199.45 129.68 10.061 111.938-10.061 104.105h-56.7l-9.495-102.167 9.495-113.876z" fill="#ffe07d"/><path d="m312.85 129.68 9.682 106.543-9.682 109.5h-56.7l-10.554-108.021 10.554-108.022z" fill="#bde4ff"/><path d="m425.95 169.68v140.64c0 9.005-2.976 17.315-7.999 24.001 0 0-4.667 3.504-6.802 5.36-7.022 6.103-15.165 7.574-25.199 7.574h-16.4l-14.678-107.255 14.678-110.32h16.4c22.09 0 40 17.91 40 40z" fill="#ff8086"/><path d="m142.75 129.68v216.554h-16.7c-22.09 0-36.029-18.251-36.029-40.34l-.34-130.043c0-13.085 12.368-38.172 12.368-38.172 6.686-5.022 14.996-7.999 24.001-7.999z" fill="#f8f7f7"/><path d="m199.45 129.68h56.7v216.043h-56.7z" fill="#afefa5"/><path d="m312.85 129.68h56.7v213.405h-56.7z" fill="#7bb1ff"/><path d="m199.45 334.32 5.72 9.105-5.72 6.895h-56.7l-7.367-8 7.367-8.07c.76.05 1.53.07 2.3.07z" fill="#ffd064"/><path d="m312.85 334.32 6.022 6.297-6.022 9.703h-56.7l-5.533-7.235 5.533-8.765z" fill="#99dbff"/><path d="m417.95 334.32c-7.3 9.72-18.92 16-32 16h-16.4l-6.593-7.15 6.593-8.85z" fill="#e5646e"/><path d="m142.75 334.25v16.07h-16.7c-22.09 0-40-17.91-40-40v-140.64c0-13.08 6.28-24.7 16-32v153.64c0 22.98 18.02 41.74 40.7 42.93z" fill="#e8e8e8"/><path d="m199.45 334.32h56.7v16h-56.7z" fill="#8ce1a4"/><path d="m312.85 334.32h56.7v16h-56.7z" fill="#62a5f4"/></g></g><g><path d="m455.947 322.55c-4.142 0-7.5 3.357-7.5 7.5v102.27c0 17.921-14.58 32.5-32.5 32.5h-319.894c-17.92 0-32.5-14.579-32.5-32.5v-292.639c0-17.921 14.58-32.5 32.5-32.5h30.361c4.142 0 7.5-3.357 7.5-7.5s-3.358-7.5-7.5-7.5h-30.361c-26.191 0-47.5 21.309-47.5 47.5v292.639c0 26.191 21.309 47.5 47.5 47.5h8.512l13.92 23.577c3.132 5.307 8.907 8.604 15.07 8.604h26.484c6.163 0 11.937-3.297 15.07-8.603l13.921-23.578h133.94l13.921 23.577c3.133 5.307 8.907 8.604 15.07 8.604h26.484c6.163 0 11.938-3.297 15.069-8.603l13.921-23.578h8.512c26.191 0 47.5-21.309 47.5-47.5v-102.27c0-4.143-3.358-7.5-7.5-7.5zm-293.755 173.221c-.447.758-1.272 1.229-2.153 1.229h-26.484c-.88 0-1.705-.471-2.152-1.229l-9.418-15.951h49.625zm218.404 0c-.447.758-1.271 1.229-2.152 1.229h-26.484c-.88 0-1.706-.471-2.153-1.229l-9.418-15.951h49.625z"/><path d="m415.947 92.181h-96.558c-2.374-11.144-9.923-20.39-20.004-25.1l111.628-30.429c4.231 6.293 11.416 10.443 19.553 10.443 12.983 0 23.546-10.563 23.546-23.547s-10.563-23.548-23.546-23.548c-12.525 0-22.793 9.831-23.504 22.18l-151.048 41.175-148.336-41.079c-.663-12.395-10.955-22.276-23.511-22.276-12.984 0-23.547 10.563-23.547 23.547s10.563 23.547 23.547 23.547c8.103 0 15.263-4.115 19.501-10.365l109.195 30.24c-10.204 4.674-17.858 13.978-20.251 25.212h-31.197c-4.142 0-7.5 3.357-7.5 7.5s3.358 7.5 7.5 7.5h254.532c17.92 0 32.5 14.579 32.5 32.5v155.369c0 4.143 3.358 7.5 7.5 7.5s7.5-3.357 7.5-7.5v-155.369c0-26.192-21.309-47.5-47.5-47.5zm14.619-77.181c4.712 0 8.546 3.834 8.546 8.547s-3.834 8.547-8.546 8.547c-4.713 0-8.547-3.834-8.547-8.547s3.834-8.547 8.547-8.547zm-346.399 17.094c-4.713 0-8.547-3.834-8.547-8.547s3.834-8.547 8.547-8.547c4.712 0 8.546 3.834 8.546 8.547s-3.834 8.547-8.546 8.547zm143.62 46.619h56.426c8.917 0 16.531 5.604 19.557 13.468h-95.54c3.027-7.864 10.641-13.468 19.557-13.468z"/><path d="m433.447 169.681c0-26.191-21.309-47.5-47.5-47.5h-259.894c-26.191 0-47.5 21.309-47.5 47.5v140.639c0 26.191 21.309 47.5 47.5 47.5h259.894c26.191 0 47.5-21.309 47.5-47.5zm-169.794-32.5h41.7v205.639h-41.7zm-15 205.638h-41.7v-205.638h41.7zm71.7-205.638h41.7v205.639h-41.7zm-226.8 173.138v-140.638c0-17.921 14.58-32.5 32.5-32.5h9.2v93.648c0 4.143 3.358 7.5 7.5 7.5s7.5-3.357 7.5-7.5v-93.648h41.7v205.639h-41.7v-76.99c0-4.143-3.358-7.5-7.5-7.5s-7.5 3.357-7.5 7.5v76.99h-9.2c-17.92-.001-32.5-14.58-32.5-32.501zm324.894 0c0 17.921-14.58 32.5-32.5 32.5h-8.894v-205.638h8.894c17.92 0 32.5 14.579 32.5 32.5z"/><path d="m368.904 411.319c0 17.795 14.477 32.271 32.271 32.271s32.271-14.477 32.271-32.271-14.477-32.271-32.271-32.271-32.271 14.476-32.271 32.271zm32.271 17.272c-6.834 0-12.735-4-15.534-9.771h31.068c-2.798 5.771-8.7 9.771-15.534 9.771zm15.534-24.772h-31.068c2.799-5.772 8.7-9.771 15.534-9.771s12.736 3.999 15.534 9.771z"/><path d="m81.123 411.319c0 17.795 14.477 32.271 32.271 32.271s32.271-14.477 32.271-32.271-14.477-32.271-32.271-32.271-32.271 14.476-32.271 32.271zm32.271-17.271c1.993 0 3.901.357 5.683.981l-21.974 21.974c-.624-1.783-.981-3.69-.981-5.684.001-9.523 7.749-17.271 17.272-17.271zm0 34.543c-1.993 0-3.901-.357-5.684-.981l21.974-21.974c.624 1.783.981 3.69.981 5.684 0 9.523-7.748 17.271-17.271 17.271z"/><path d="m346.005 375.819h-180.01c-4.142 0-7.5 3.357-7.5 7.5s3.358 7.5 7.5 7.5h180.011c4.142 0 7.5-3.357 7.5-7.5s-3.359-7.5-7.501-7.5z"/><path d="m346.005 403.819h-45.418c-4.142 0-7.5 3.357-7.5 7.5s3.358 7.5 7.5 7.5h45.418c4.142 0 7.5-3.357 7.5-7.5s-3.358-7.5-7.5-7.5z"/><path d="m165.995 418.819h99.592c4.142 0 7.5-3.357 7.5-7.5s-3.358-7.5-7.5-7.5h-99.592c-4.142 0-7.5 3.357-7.5 7.5s3.358 7.5 7.5 7.5z"/><path d="m165.995 446.819h180.011c4.142 0 7.5-3.357 7.5-7.5s-3.358-7.5-7.5-7.5h-180.011c-4.142 0-7.5 3.357-7.5 7.5s3.358 7.5 7.5 7.5z"/></g></g></svg>