<svg id="Capa_1" enable-background="new 0 0 511.96 511.96" height="512" viewBox="0 0 511.96 511.96" width="512" xmlns="http://www.w3.org/2000/svg"><g><g><g><path d="m426.391 132.863-47.294-47.294 32.29-23.45c4.332-3.146 10.309-2.675 14.094 1.111l23.248 23.248c3.786 3.786 4.257 9.762 1.111 14.094z" fill="#bac5e2"/></g><g><path d="m375.504 71.815c-11.688-11.688-30.637-11.688-42.324 0l-111.005 111.005h213.931l4.039-4.039c11.688-11.687 11.688-30.637 0-42.324z" fill="#e9efff"/></g><g><path d="m222.175 182.82-82.561 82.56 106.966 106.966 189.526-189.526z" fill="#42c3fc"/></g><g><path d="m375.504 71.815c-11.688-11.688-30.637-11.688-42.324 0l-111.005 111.005h39.311l91.349-91.349c11.688-11.688 30.637-11.688 42.324 0z" fill="#d3dcfb"/></g><g><path d="m159.27 285.036 102.216-102.216h-39.311l-82.561 82.56z" fill="#1aa9e8"/></g><g><path d="m70.319 337.544h132.258v75.936h-132.258z" fill="#e9efff" transform="matrix(.707 -.707 .707 .707 -225.562 206.468)"/></g><g><path d="m156.361 301.904-93.521 93.521 12.586 12.586 49.001-49.001c5.421-5.421 14.21-5.421 19.631 0l31.293 31.293 34.704-34.704z" fill="#d3dcfb"/></g><g><path d="m144.868 465.843-98.75-98.75c-6.889-6.889-18.058-6.889-24.947 0l-8.516 8.516c-6.889 6.889-6.889 18.058 0 24.947l98.75 98.75c6.889 6.889 18.058 6.889 24.947 0l8.516-8.516c6.888-6.89 6.888-18.059 0-24.947z" fill="#bac5e2"/></g><g><path d="m37.036 393.53 2.056-2.056c8.673-8.673 22.734-8.673 31.406 0l-24.429-24.429c-6.862-6.862-17.988-6.862-24.85 0l-8.612 8.612c-6.862 6.862-6.862 17.988 0 24.85l24.429 24.429c-8.673-8.673-8.673-22.734 0-31.406z" fill="#a7b4d1"/></g><g><path d="m277.305 385.835-151.18-151.18c-7.992-7.992-20.951-7.992-28.943 0l-9.88 9.88c-7.992 7.992-7.992 20.951 0 28.943l151.18 151.18c7.992 7.992 20.951 7.992 28.943 0l9.88-9.88c7.993-7.992 7.993-20.95 0-28.943z" fill="#bac5e2"/></g><g><path d="m112.2 261.939 2.386-2.386c10.061-10.061 26.373-10.062 36.435-.002l-24.952-24.952c-7.962-7.962-20.87-7.962-28.831 0l-9.992 9.992c-7.962 7.962-7.962 20.87 0 28.831l24.954 24.954c-10.062-10.061-10.062-26.375 0-36.437z" fill="#a7b4d1"/></g></g><path d="m509.763 2.197c-2.929-2.929-7.678-2.929-10.606 0l-62.051 62.051-6.321-6.321c-6.433-6.433-16.444-7.223-23.805-1.875l-21.222 15.412-4.951-4.951c-14.594-14.594-38.338-14.594-52.931 0l-42.475 42.475c-2.929 2.929-2.929 7.678 0 10.606 2.929 2.929 7.678 2.929 10.606 0l42.475-42.475c8.744-8.744 22.973-8.745 31.718 0l64.641 64.641c8.745 8.745 8.745 22.973 0 31.718l-1.843 1.843h-42.758c-4.142 0-7.5 3.358-7.5 7.5s3.358 7.5 7.5 7.5h27.759l-74.292 74.292-17.414-17.414c-2.929-2.929-7.678-2.929-10.606 0-2.929 2.929-2.929 7.678 0 10.606l17.414 17.414-19.678 19.678-17.414-17.414c-2.929-2.929-7.678-2.929-10.606 0-2.929 2.929-2.929 7.678 0 10.606l17.414 17.414-19.678 19.678-17.414-17.414c-2.929-2.93-7.678-2.929-10.606 0-2.929 2.929-2.929 7.678 0 10.606l17.414 17.414-17.333 17.333-96.359-96.359 66.442-66.442h134.717c4.142 0 7.5-3.358 7.5-7.5s-3.358-7.5-7.5-7.5h-119.719l36.978-36.978c2.929-2.929 2.929-7.678 0-10.606-2.929-2.929-7.678-2.929-10.606 0l-118.42 118.42-16.804-16.804c-10.904-10.903-28.646-10.903-39.55 0l-9.88 9.88c-5.282 5.282-8.191 12.305-8.191 19.775s2.909 14.493 8.191 19.775l70.287 70.287-56.793 56.793-16.241-16.241 42.3-42.301c2.929-2.929 2.929-7.678 0-10.606-2.929-2.929-7.678-2.929-10.606 0l-42.3 42.301-17.225-17.225c-9.802-9.802-25.751-9.802-35.553 0l-8.516 8.516c-9.802 9.802-9.802 25.751 0 35.553l98.75 98.751c4.901 4.9 11.339 7.351 17.777 7.351s12.875-2.451 17.776-7.352l8.516-8.516c9.802-9.802 9.802-25.751 0-35.553l-17.225-17.225 56.793-56.793 43.439 43.439c5.282 5.282 12.305 8.191 19.775 8.191s14.493-2.909 19.775-8.191l9.88-9.88c10.903-10.904 10.903-28.646 0-39.55l-16.804-16.804 179.644-179.644c7.069-7.069 10.962-16.468 10.962-26.465s-3.893-19.396-10.962-26.465l-4.951-4.951 15.412-21.222c5.346-7.361 4.557-17.373-1.875-23.805l-6.321-6.321 62.051-62.051c2.929-2.927 2.929-7.677-.001-10.605zm-370.198 483.289-8.516 8.516c-3.953 3.953-10.386 3.953-14.34 0l-98.75-98.75c-3.954-3.954-3.954-10.386 0-14.34l8.516-8.516c1.977-1.977 4.573-2.965 7.17-2.965 2.596 0 5.193.988 7.17 2.965l98.75 98.75c3.953 3.954 3.953 10.386 0 14.34zm-17.225-52.778-16.241-16.241 56.793-56.793 16.241 16.241zm149.662-23.233-9.88 9.88c-2.449 2.449-5.705 3.798-9.168 3.798s-6.719-1.349-9.168-3.798l-151.181-151.181c-2.449-2.449-3.798-5.705-3.798-9.168s1.349-6.719 3.798-9.168l9.88-9.88c2.528-2.528 5.848-3.791 9.168-3.791s6.641 1.264 9.168 3.791l151.18 151.18c5.056 5.056 5.056 13.281.001 18.337zm171.771-313.31-14.014 19.298-33.261-33.261 19.298-14.014c1.356-.985 3.199-.839 4.383.345l23.249 23.249c1.184 1.184 1.329 3.028.345 4.383z"/></g></svg>