<svg id="Capa_1" enable-background="new 0 0 512 512" height="512" viewBox="0 0 512 512" width="512" xmlns="http://www.w3.org/2000/svg"><g><g><path d="m423.809 500.872-333.277-2.979c-4.971 0-9-4.029-9-9l-3.958-470.361c0-4.971 4.029-9 9-9l5.426-2.032h335c4.971 0 9 4.029 9 9v472l-3.191 3.372c0 4.971-4.03 9-9 9z" fill="#f8f7f7"/><path d="m436 488.5v7c0 4.971-4.029 9-9 9h-342c-4.971 0-9-4.029-9-9v-479c0-4.971 4.029-9 9-9h7v462c0 10.493 8.507 19 19 19z" fill="#e8e8e8"/><path d="m255.5 37.5c-9.038 0-17.313 3.224-23.71 8.57-7.954 6.647-10.45 21.838-10.45 32.93l-.17 49h68.596l2.447-13v-41.262c0-20.014-16.437-36.238-36.713-36.238z" fill="#6f6571"/><path d="m292.21 115v13l-36.71 4.149-36.71-4.149v-54.26c0-11.1 5.05-21.02 13-27.67v61.93c0 3.866 3.134 7 7 7z" fill="#635a63"/><path d="m387 422c0-29.547-23.953-53.5-53.5-53.5-11.711 0-22.543 3.763-31.353 10.145 0 0-4.088 4.395-6.168 6.504-9.529 9.66-12.681 22.019-12.681 36.66 0 29.547 20.655 51.83 50.202 51.83 11.176 0 20.908-2.98 29.489-8.84 5.081-3.47 13.794-11.346 13.794-11.346 6.426-8.829 10.217-19.698 10.217-31.453z" fill="#ff8086"/><path d="m376.85 453.35c-9.71 13.42-25.51 22.15-43.35 22.15-29.55 0-53.5-23.95-53.5-53.5 0-17.84 8.73-33.64 22.15-43.35-6.39 8.8-10.15 19.63-10.15 31.35 0 29.55 23.95 53.5 53.5 53.5 11.72 0 22.55-3.76 31.35-10.15z" fill="#e5646e"/><path d="m301.5 128h-82.7l-8.226 1.17c-2.209 0-4 1.791-4 4l-.255 19.83c0 2.209 1.791 4 4 4l8.481 1h82.7c2.209 0 4-1.791 4-4v-22c0-2.209-1.791-4-4-4z" fill="#857e87"/><path d="m218.8 128v30h-9.3c-2.21 0-4-1.79-4-4v-22c0-2.21 1.79-4 4-4z" fill="#6f6571"/></g><g><path d="m255.5 30c-24.379 0-44.213 19.62-44.213 43.737v46.763h-5.787c-4.143 0-7.5 3.357-7.5 7.5v30c0 4.143 3.357 7.5 7.5 7.5h38c4.143 0 7.5-3.357 7.5-7.5s-3.357-7.5-7.5-7.5h-30.5v-15h85v15h-19.5c-4.143 0-7.5 3.357-7.5 7.5s3.357 7.5 7.5 7.5h27c4.143 0 7.5-3.357 7.5-7.5v-30c0-4.143-3.357-7.5-7.5-7.5h-5.787v-46.763c0-24.117-19.834-43.737-44.213-43.737zm-29.213 43.737c0-15.845 13.105-28.737 29.213-28.737s29.213 12.892 29.213 28.737v46.763h-58.426z"/><path d="m266.5 70h-3.5v-4c0-4.143-3.357-7.5-7.5-7.5s-7.5 3.357-7.5 7.5v4h-3.5c-4.143 0-7.5 3.357-7.5 7.5s3.357 7.5 7.5 7.5h3.5v13c0 4.143 3.357 7.5 7.5 7.5s7.5-3.357 7.5-7.5v-13h3.5c4.143 0 7.5-3.357 7.5-7.5s-3.357-7.5-7.5-7.5z"/><path d="m306 180h-100c-4.143 0-7.5 3.357-7.5 7.5s3.357 7.5 7.5 7.5h100c4.143 0 7.5-3.357 7.5-7.5s-3.357-7.5-7.5-7.5z"/><path d="m387 240h-156.5c-4.143 0-7.5 3.357-7.5 7.5s3.357 7.5 7.5 7.5h156.5c4.143 0 7.5-3.357 7.5-7.5s-3.357-7.5-7.5-7.5z"/><path d="m117.5 247.5c0 4.143 3.357 7.5 7.5 7.5h75.5c4.143 0 7.5-3.357 7.5-7.5s-3.357-7.5-7.5-7.5h-75.5c-4.143 0-7.5 3.357-7.5 7.5z"/><path d="m387 270h-262c-4.143 0-7.5 3.357-7.5 7.5s3.357 7.5 7.5 7.5h262c4.143 0 7.5-3.357 7.5-7.5s-3.357-7.5-7.5-7.5z"/><path d="m387 300h-56.585c-4.143 0-7.5 3.357-7.5 7.5s3.357 7.5 7.5 7.5h56.585c4.143 0 7.5-3.357 7.5-7.5s-3.357-7.5-7.5-7.5z"/><path d="m307.915 307.5c0-4.143-3.357-7.5-7.5-7.5h-175.415c-4.143 0-7.5 3.357-7.5 7.5s3.357 7.5 7.5 7.5h175.415c4.143 0 7.5-3.357 7.5-7.5z"/><path d="m224.5 337.5c0-4.143-3.357-7.5-7.5-7.5h-92c-4.143 0-7.5 3.357-7.5 7.5s3.357 7.5 7.5 7.5h92c4.143 0 7.5-3.357 7.5-7.5z"/><path d="m125 412h45.5c4.143 0 7.5-3.357 7.5-7.5s-3.357-7.5-7.5-7.5h-45.5c-4.143 0-7.5 3.357-7.5 7.5s3.357 7.5 7.5 7.5z"/><path d="m125 442h75.5c4.143 0 7.5-3.357 7.5-7.5s-3.357-7.5-7.5-7.5h-75.5c-4.143 0-7.5 3.357-7.5 7.5s3.357 7.5 7.5 7.5z"/><path d="m229 225h54c4.143 0 7.5-3.357 7.5-7.5s-3.357-7.5-7.5-7.5h-54c-4.143 0-7.5 3.357-7.5 7.5s3.357 7.5 7.5 7.5z"/><path d="m333.5 483c33.636 0 61-27.364 61-61s-27.364-61-61-61c-20.413 0-39.382 10.143-50.74 27.132-2.303 3.443-1.378 8.102 2.065 10.403 3.446 2.304 8.103 1.377 10.403-2.065 8.57-12.817 22.877-20.47 38.271-20.47 25.364 0 46 20.636 46 46s-20.636 46-46 46c-24.153 0-44.315-18.855-45.899-42.926-.271-4.134-3.875-7.27-7.976-6.991-4.134.271-7.264 3.843-6.991 7.976 2.101 31.929 28.838 56.941 60.867 56.941z"/><path d="m333.5 391c-17.094 0-31 13.906-31 31 0 4.143 3.357 7.5 7.5 7.5s7.5-3.357 7.5-7.5c0-8.822 7.178-16 16-16 4.143 0 7.5-3.357 7.5-7.5s-3.357-7.5-7.5-7.5z"/><path d="m326 445.5c0 4.143 3.357 7.5 7.5 7.5 17.094 0 31-13.906 31-31 0-4.143-3.357-7.5-7.5-7.5s-7.5 3.357-7.5 7.5c0 8.822-7.178 16-16 16-4.143 0-7.5 3.357-7.5 7.5z"/><path d="m436 275c-4.143 0-7.5 3.357-7.5 7.5v214.5h-345v-482h57.5c4.143 0 7.5-3.357 7.5-7.5s-3.357-7.5-7.5-7.5h-65c-4.143 0-7.5 3.357-7.5 7.5v497c0 4.143 3.357 7.5 7.5 7.5h360c4.143 0 7.5-3.357 7.5-7.5v-222c0-4.143-3.357-7.5-7.5-7.5z"/><path d="m436 0h-260c-4.143 0-7.5 3.357-7.5 7.5s3.357 7.5 7.5 7.5h252.5v232.5c0 4.143 3.357 7.5 7.5 7.5s7.5-3.357 7.5-7.5v-240c0-4.143-3.357-7.5-7.5-7.5z"/></g></g></svg>