<svg id="Capa_1" enable-background="new 0 0 512 512" height="512" viewBox="0 0 512 512" width="512" xmlns="http://www.w3.org/2000/svg"><g><g><g><path d="m311.537 93.224h-27.719v-12.568c0-25.809-20.923-46.732-46.732-46.732h-21.24c-25.809 0-46.732 20.923-46.732 46.732v12.568h-27.719c-21.575 0-39.066 17.49-39.066 39.066v50.602h248.273v-50.602c.001-21.576-17.489-39.066-39.065-39.066z" fill="#b8f0ff"/></g><g><path d="m311.537 93.224h-27.719v-12.568c0-25.809-20.923-46.732-46.732-46.732h-21.24c-25.809 0-46.732 20.923-46.732 46.732v12.568h-27.719c-21.575 0-39.066 17.49-39.066 39.066v50.602h248.273v-50.602c.001-21.576-17.489-39.066-39.065-39.066z" fill="#b8f0ff"/></g><g><path d="m189.274 80.656c0-25.809 20.923-46.732 46.732-46.732h-20.16c-25.809 0-46.732 20.923-46.732 46.732v12.568h20.16z" fill="#8ddcff"/></g><g><path d="m102.33 161.494v223.937c0 21.575 17.49 39.066 39.066 39.066h9.754v19.873c0 11.701 9.485 21.186 21.186 21.186 11.701 0 21.186-9.485 21.186-21.186v-19.873h65.891v19.873c0 11.701 9.485 21.186 21.186 21.186 11.701 0 21.186-9.485 21.186-21.186v-19.873h9.754c21.575 0 39.066-17.49 39.066-39.066v-223.937z" fill="#e5979d"/></g><g><path d="m311.537 93.224h-170.142c-21.575 0-39.066 17.49-39.066 39.066v50.602h20.16v-50.602c0-1.959.145-3.884.425-5.765 1.033-6.95 6.956-12.121 13.982-12.121h148.056c6.591 0 12.577 3.635 15.831 9.367.018.031.035.062.053.092 10.802 18.959 28.873 31.511 49.767 35.084v-26.657c0-21.575-17.49-39.066-39.066-39.066z" fill="#8ddcff"/></g><g><path d="m171.31 444.37v-13.476c0-3.533-2.864-6.397-6.397-6.397h-3.357c-21.575 0-39.066-17.49-39.066-39.066v-223.937h-20.16v223.937c0 21.575 17.49 39.066 39.066 39.066h9.754v19.873c0 11.701 9.485 21.186 21.186 21.186 3.649 0 7.082-.923 10.08-2.548-6.615-3.585-11.106-10.587-11.106-18.638z" fill="#e17f85"/></g><g><path d="m279.572 444.37v-13.476c0-3.533-2.864-6.397-6.397-6.397h-13.763v19.873c0 11.701 9.485 21.186 21.186 21.186 3.649 0 7.082-.923 10.08-2.548-6.614-3.585-11.106-10.587-11.106-18.638z" fill="#e17f85"/></g><g><path d="m287.746 348.161h-122.56c-5.523 0-10-4.477-10-10v-90.33c0-5.523 4.477-10 10-10h122.56c5.523 0 10 4.477 10 10v90.33c0 5.523-4.477 10-10 10z" fill="#e9efff"/></g><g><path d="m173.426 338.161v-90.33c0-5.523 4.477-10 10-10h-18.24c-5.523 0-10 4.477-10 10v90.33c0 5.523 4.477 10 10 10h18.24c-5.522 0-10-4.477-10-10z" fill="#d3dcfb"/></g><g><path d="m403.069 64.696-30.766-51.904c-4.182-7.055-14.394-7.055-18.576 0l-30.767 51.904c-18.397 31.038 3.973 70.304 40.055 70.304 36.081 0 58.452-39.266 40.054-70.304z" fill="#e5979d"/></g><g><path d="m342.046 64.696 30.512-51.474-.255-.43c-4.182-7.055-14.394-7.055-18.576 0l-30.767 51.904c-18.397 31.038 3.973 70.304 40.055 70.304 3.303 0 6.49-.332 9.543-.954-30.292-6.17-47.226-41.153-30.512-69.35z" fill="#e17f85"/></g></g><g><path d="m220.138 56.074c-4.143 0-7.5 3.358-7.5 7.5s3.357 7.5 7.5 7.5h12.656c4.143 0 7.5-3.358 7.5-7.5s-3.357-7.5-7.5-7.5z"/><path d="m165.186 355.661h122.561c9.649 0 17.5-7.851 17.5-17.5v-90.33c0-9.649-7.851-17.5-17.5-17.5h-122.561c-9.649 0-17.5 7.851-17.5 17.5v90.33c0 9.649 7.851 17.5 17.5 17.5zm-2.5-107.83c0-1.378 1.121-2.5 2.5-2.5h122.561c1.379 0 2.5 1.122 2.5 2.5v90.33c0 1.378-1.121 2.5-2.5 2.5h-122.561c-1.379 0-2.5-1.122-2.5-2.5z"/><path d="m187.106 300.496h8.843c4.143 0 7.5-3.358 7.5-7.5s-3.357-7.5-7.5-7.5h-8.843c-4.143 0-7.5 3.358-7.5 7.5s3.357 7.5 7.5 7.5z"/><path d="m222.045 300.496h8.842c4.143 0 7.5-3.358 7.5-7.5s-3.357-7.5-7.5-7.5h-8.842c-4.143 0-7.5 3.358-7.5 7.5s3.358 7.5 7.5 7.5z"/><path d="m256.984 300.496h8.843c4.143 0 7.5-3.358 7.5-7.5s-3.357-7.5-7.5-7.5h-8.843c-4.143 0-7.5 3.358-7.5 7.5s3.357 7.5 7.5 7.5z"/><path d="m409.521 60.872-30.767-51.905c-3.328-5.614-9.211-8.967-15.739-8.967s-12.412 3.353-15.74 8.967l-30.767 51.904c-10.031 16.924-10.206 37.234-.468 54.328 6.279 11.021 15.812 19.172 27.062 23.578v15.217h-233.272v-21.704c0-17.405 14.16-31.566 31.565-31.566h140.465c4.143 0 7.5-3.358 7.5-7.5s-3.357-7.5-7.5-7.5h-105.245v-5.068c0-21.632 17.6-39.232 39.231-39.232h21.24c17.246 0 32.715 11.533 37.617 28.046 1.179 3.972 5.35 6.235 9.324 5.056 3.971-1.179 6.233-5.354 5.055-9.324-6.777-22.832-28.159-38.778-51.996-38.778h-21.24c-29.903 0-54.231 24.328-54.231 54.232v5.068h-20.22c-25.676 0-46.565 20.889-46.565 46.566v68.733c0 4.142 3.357 7.5 7.5 7.5s7.5-3.358 7.5-7.5v-32.029h233.273v216.438c0 17.405-14.16 31.565-31.565 31.565h-9.755c-4.143 0-7.5 3.358-7.5 7.5v19.873c0 7.546-6.14 13.686-13.686 13.686s-13.686-6.139-13.686-13.686v-19.873c0-4.142-3.357-7.5-7.5-7.5h-65.891c-4.143 0-7.5 3.358-7.5 7.5v19.873c0 7.546-6.14 13.686-13.686 13.686s-13.686-6.139-13.686-13.686v-19.873c0-4.142-3.357-7.5-7.5-7.5h-9.755c-17.405 0-31.565-14.16-31.565-31.565v-152.595c0-4.142-3.357-7.5-7.5-7.5s-7.5 3.358-7.5 7.5v152.594c0 25.676 20.89 46.565 46.565 46.565h2.255v12.373c0 15.817 12.868 28.686 28.686 28.686s28.686-12.868 28.686-28.686v-12.373h17.945v72.504c0 4.142 3.357 7.5 7.5 7.5s7.5-3.358 7.5-7.5v-72.503h17.945v12.373c0 15.817 12.868 28.686 28.686 28.686s28.686-12.868 28.686-28.686v-12.373h2.255c25.676 0 46.565-20.889 46.565-46.565v-243.153c1.62.142 3.258.221 4.911.221 19.674 0 37.234-10.206 46.974-27.299 9.74-17.095 9.565-37.405-.466-54.329zm-12.566 46.903c-7.037 12.351-19.725 19.725-33.94 19.725s-26.903-7.374-33.94-19.726c-7.036-12.351-6.91-27.026.339-39.254l30.767-51.904c.833-1.406 2.134-1.616 2.836-1.616.701 0 2.002.21 2.835 1.616l30.767 51.904c7.247 12.229 7.373 26.904.336 39.255z"/></g></g></svg>