<svg id="Capa_1" enable-background="new 0 0 512 512" height="512" viewBox="0 0 512 512" width="512" xmlns="http://www.w3.org/2000/svg"><g><g><path d="m478.234 502.872-443.191-1.915c-5.523 0-10-4.477-10-10l-1.703-471.212c0-5.523 4.477-10 10-10l4.66-2.245h442c5.523 0 10 4.477 10 10v471l-1.766 4.372c0 5.523-4.477 10-10 10z" fill="#857e87"/><path d="m490 488.5v6c0 5.523-4.477 10-10 10h-110l-151.979-6.862-156.021 6.862h-30c-5.523 0-10-4.477-10-10v-477c0-5.523 4.477-10 10-10h6v469c0 6.627 5.373 12 12 12z" fill="#6f6571"/><path d="m370 496.5h-308v-394c0-8.284 6.716-15 15-15h278c8.284 0 15 6.716 15 15z" fill="#6f6571"/><path d="m370 488.5v16h-30l-124-10.181-124 10.181h-30v-16z" fill="#635a63"/><path d="m340 499.085h-239.681l-6.128-376.255c0-2.209 1.791-4 4-4l9.809-1.33h101l7 11.202 8-11.202h112c2.209 0 4 1.791 4 4z" fill="#f8f7f7"/><path d="m108 477.5v-360h-12c-2.209 0-4 1.791-4 4v383h117l7.5-3.926 7.5 3.926h116v-16h-221c-6.075 0-11-4.925-11-11z" fill="#e8e8e8"/><path d="m450 258v35c0 2.76-2.24 5-5 5h-30c-2.76 0-5-2.24-5-5v-35l20-6.489z" fill="#e8e8e8"/><path d="m450 223v35h-40v-35c0-2.76 2.24-5 5-5h30c2.76 0 5 2.24 5 5z" fill="#f8f7f7"/></g><g><path d="m156.349 62.028c1.44 1.32 3.255 1.972 5.066 1.972 2.029 0 4.051-.818 5.531-2.432l11.887-12.968 11.888 12.969c2.799 3.053 7.544 3.26 10.597.46 3.053-2.799 3.26-7.543.461-10.597l-17.417-19c-1.421-1.549-3.426-2.432-5.529-2.432-2.102 0-4.108.883-5.529 2.432l-17.417 19c-2.798 3.053-2.592 7.797.462 10.596z"/><path d="m253.167 64c2.102 0 4.108-.883 5.529-2.432l17.417-19c2.799-3.054 2.593-7.798-.461-10.597-3.054-2.8-7.797-2.594-10.597.46l-11.888 12.969-11.888-12.969c-2.799-3.053-7.544-3.26-10.597-.46-3.053 2.799-3.26 7.543-.461 10.597l17.417 19c1.421 1.549 3.426 2.432 5.529 2.432z"/><path d="m490 0h-298c-4.142 0-7.5 3.357-7.5 7.5s3.358 7.5 7.5 7.5h290.5v482h-105v-190.83c0-4.143-3.358-7.5-7.5-7.5s-7.5 3.357-7.5 7.5v190.83h-15v-379.5c0-4.143-3.358-7.5-7.5-7.5h-171.745c-4.142 0-7.5 3.357-7.5 7.5s3.358 7.5 7.5 7.5h40.745v372h-109.5v-66.511c0-4.143-3.358-7.5-7.5-7.5s-7.5 3.357-7.5 7.5v66.511h-15v-394.5c0-4.136 3.364-7.5 7.5-7.5h278c4.136 0 7.5 3.364 7.5 7.5v168.67c0 4.143 3.358 7.5 7.5 7.5s7.5-3.357 7.5-7.5v-168.67c0-12.406-10.093-22.5-22.5-22.5h-278c-12.407 0-22.5 10.094-22.5 22.5v394.5h-25v-482h127.5c4.142 0 7.5-3.357 7.5-7.5s-3.358-7.5-7.5-7.5h-135c-4.142 0-7.5 3.357-7.5 7.5v497c0 4.143 3.358 7.5 7.5 7.5h468c4.142 0 7.5-3.357 7.5-7.5v-497c0-4.143-3.358-7.5-7.5-7.5zm-266 125h108.5v372h-108.5z"/><path d="m92 110c-4.142 0-7.5 3.357-7.5 7.5v277.989c0 4.143 3.358 7.5 7.5 7.5s7.5-3.357 7.5-7.5v-270.489h33.755c4.142 0 7.5-3.357 7.5-7.5s-3.358-7.5-7.5-7.5z"/><path d="m445 305.5c6.893 0 12.5-5.607 12.5-12.5v-70c0-6.893-5.607-12.5-12.5-12.5h-30c-6.893 0-12.5 5.607-12.5 12.5v70c0 6.893 5.607 12.5 12.5 12.5zm-27.5-15v-25h25v25zm25-65v25h-25v-25z"/></g></g></svg>