<svg id="Capa_1" enable-background="new 0 0 511.83 511.83" height="512" viewBox="0 0 511.83 511.83" width="512" xmlns="http://www.w3.org/2000/svg"><g><g><g><path d="m438.442 497.127h-365.011c-35.899 0-65-29.102-65-65v-86.58c0-35.899 29.101-65 65-65h365.011c35.898 0 65 29.101 65 65v86.58c0 35.899-29.102 65-65 65z" fill="#f93"/></g><g><path d="m32.813 432.387v-48.012c0-7.144 8.61-10.717 13.69-5.693 16.556 16.373 39.221 26.091 63.162 26.091 13.381 0 26.326-2.932 38.475-8.714l242.727-115.513h-317.436c-35.899 0-65 29.102-65 65v86.58c0 35.898 29.101 65 65 65h24.122c-35.755.001-64.74-28.984-64.74-64.739z" fill="#f4821c"/></g><g><path d="m329.301 439.175h-146.73c-5.523 0-10-4.477-10-10v-80.676c0-5.523 4.477-10 10-10h146.73c5.523 0 10 4.477 10 10v80.676c0 5.523-4.477 10-10 10z" fill="#e9efff"/></g><g><path d="m269.092 338.499h-86.52c-5.523 0-10 4.477-10 10v80.675c0 5.523 4.477 10 10 10h24.342c-5.501 0-9.96-4.459-9.96-9.96v-41.124c0-9.322 5.363-17.813 13.78-21.819z" fill="#d3dcfb"/></g><g><path d="m467.266 216.613-329.592 156.851c-32.415 15.426-71.198 1.654-86.624-30.761l-37.205-78.179c-15.426-32.415-1.654-71.198 30.761-86.624l329.592-156.851c32.415-15.426 71.198-1.654 86.624 30.761l37.205 78.179c15.427 32.415 1.654 71.198-30.761 86.624z" fill="#ffdd40"/></g><g><path d="m343.813 211.183-132.492 63.052c-4.987 2.373-10.954.254-13.327-4.732l-34.668-72.847c-2.373-4.987-.254-10.954 4.732-13.327l132.492-63.052c4.987-2.373 10.954-.254 13.327 4.732l34.668 72.847c2.374 4.988.255 10.954-4.732 13.327z" fill="#e9efff"/></g><g><path d="m211.321 274.236 21.979-10.46c-4.967 2.363-10.909.253-13.273-4.714l-34.702-72.919c-2.364-4.967-.254-10.91 4.714-13.273l-21.98 10.46c-4.987 2.373-7.106 8.34-4.732 13.327l34.667 72.847c2.374 4.986 8.34 7.105 13.327 4.732z" fill="#d3dcfb"/></g></g><path d="m72.193 337.578-28.746-59.27c-15.426-32.415-1.654-71.198 30.761-86.624l313.873-149.372c25.833-12.294 55.696-6.028 74.573 13.423l-1.853-3.894c-15.426-32.415-54.209-46.187-86.624-30.761l-329.592 156.852c-32.415 15.426-46.187 54.209-30.761 86.624l37.205 78.179c15.076 31.679 52.456 45.535 84.402 31.75-25.878 1.806-51.417-12.066-63.238-36.907z" fill="#ffc043"/><g><path d="m438.702 273.047h-47.836c-4.143 0-7.5 3.358-7.5 7.5s3.357 7.5 7.5 7.5h47.836c31.562 0 57.24 25.678 57.24 57.24v87.101c0 31.562-25.678 57.24-57.24 57.24h-365.531c-31.562 0-57.24-25.678-57.24-57.24v-87.101c0-3.198.266-6.405.789-9.532.685-4.085-2.072-7.952-6.157-8.636-4.096-.686-7.952 2.074-8.636 6.158-.661 3.944-.996 7.985-.996 12.011v87.101c0 39.833 32.407 72.24 72.24 72.24h365.531c39.833 0 72.24-32.407 72.24-72.24v-87.101c0-39.834-32.407-72.241-72.24-72.241z"/><path d="m172.571 381.337c-4.143 0-7.5 3.358-7.5 7.5v40.378c0 9.627 7.832 17.46 17.46 17.46h146.811c9.628 0 17.46-7.833 17.46-17.46v-80.756c0-9.627-7.832-17.46-17.46-17.46h-60.25c-4.143 0-7.5 3.358-7.5 7.5s3.357 7.5 7.5 7.5h60.25c1.356 0 2.46 1.104 2.46 2.46v80.756c0 1.356-1.104 2.46-2.46 2.46h-146.811c-1.356 0-2.46-1.104-2.46-2.46v-40.378c0-4.142-3.357-7.5-7.5-7.5z"/><path d="m376.77 330.999h-6.095c-4.143 0-7.5 3.358-7.5 7.5s3.357 7.5 7.5 7.5h6.095c4.143 0 7.5-3.358 7.5-7.5s-3.357-7.5-7.5-7.5z"/><path d="m406.173 345.999h6.096c4.143 0 7.5-3.358 7.5-7.5s-3.357-7.5-7.5-7.5h-6.096c-4.143 0-7.5 3.358-7.5 7.5s3.357 7.5 7.5 7.5z"/><path d="m441.67 345.999h6.096c4.143 0 7.5-3.358 7.5-7.5s-3.357-7.5-7.5-7.5h-6.096c-4.143 0-7.5 3.358-7.5 7.5s3.357 7.5 7.5 7.5z"/><path d="m376.77 364.558h-6.095c-4.143 0-7.5 3.358-7.5 7.5s3.357 7.5 7.5 7.5h6.095c4.143 0 7.5-3.358 7.5-7.5s-3.357-7.5-7.5-7.5z"/><path d="m406.173 379.558h6.096c4.143 0 7.5-3.358 7.5-7.5s-3.357-7.5-7.5-7.5h-6.096c-4.143 0-7.5 3.358-7.5 7.5s3.357 7.5 7.5 7.5z"/><path d="m441.67 379.558h6.096c4.143 0 7.5-3.358 7.5-7.5s-3.357-7.5-7.5-7.5h-6.096c-4.143 0-7.5 3.358-7.5 7.5s3.357 7.5 7.5 7.5z"/><path d="m376.77 398.116h-6.095c-4.143 0-7.5 3.358-7.5 7.5s3.357 7.5 7.5 7.5h6.095c4.143 0 7.5-3.358 7.5-7.5s-3.357-7.5-7.5-7.5z"/><path d="m406.173 413.116h6.096c4.143 0 7.5-3.358 7.5-7.5s-3.357-7.5-7.5-7.5h-6.096c-4.143 0-7.5 3.358-7.5 7.5s3.357 7.5 7.5 7.5z"/><path d="m441.67 413.116h6.096c4.143 0 7.5-3.358 7.5-7.5s-3.357-7.5-7.5-7.5h-6.096c-4.143 0-7.5 3.358-7.5 7.5s3.357 7.5 7.5 7.5z"/><path d="m376.77 431.675h-6.095c-4.143 0-7.5 3.358-7.5 7.5s3.357 7.5 7.5 7.5h6.095c4.143 0 7.5-3.358 7.5-7.5s-3.357-7.5-7.5-7.5z"/><path d="m406.173 446.675h6.096c4.143 0 7.5-3.358 7.5-7.5s-3.357-7.5-7.5-7.5h-6.096c-4.143 0-7.5 3.358-7.5 7.5s3.357 7.5 7.5 7.5z"/><path d="m441.67 446.675h6.096c4.143 0 7.5-3.358 7.5-7.5s-3.357-7.5-7.5-7.5h-6.096c-4.143 0-7.5 3.358-7.5 7.5s3.357 7.5 7.5 7.5z"/><path d="m70.203 398.116h-6.096c-4.143 0-7.5 3.358-7.5 7.5s3.357 7.5 7.5 7.5h6.096c4.143 0 7.5-3.358 7.5-7.5s-3.357-7.5-7.5-7.5z"/><path d="m105.7 398.116h-6.096c-4.143 0-7.5 3.358-7.5 7.5s3.357 7.5 7.5 7.5h6.096c4.143 0 7.5-3.358 7.5-7.5s-3.357-7.5-7.5-7.5z"/><path d="m141.197 398.116h-6.096c-4.143 0-7.5 3.358-7.5 7.5s3.357 7.5 7.5 7.5h6.096c4.143 0 7.5-3.358 7.5-7.5s-3.357-7.5-7.5-7.5z"/><path d="m70.203 431.675h-6.096c-4.143 0-7.5 3.358-7.5 7.5s3.357 7.5 7.5 7.5h6.096c4.143 0 7.5-3.358 7.5-7.5s-3.357-7.5-7.5-7.5z"/><path d="m105.7 431.675h-6.096c-4.143 0-7.5 3.358-7.5 7.5s3.357 7.5 7.5 7.5h6.096c4.143 0 7.5-3.358 7.5-7.5s-3.357-7.5-7.5-7.5z"/><path d="m141.197 431.675h-6.096c-4.143 0-7.5 3.358-7.5 7.5s3.357 7.5 7.5 7.5h6.096c4.143 0 7.5-3.358 7.5-7.5s-3.357-7.5-7.5-7.5z"/><path d="m310.704 112.816c-4.403-1.563-9.153-1.32-13.375.689l-132.492 63.052c-8.713 4.146-12.428 14.608-8.282 23.322l34.668 72.848c2.995 6.292 9.284 9.978 15.83 9.978 2.517 0 5.072-.545 7.491-1.697l132.492-63.052c8.713-4.146 12.429-14.608 8.282-23.321l-34.668-72.847c-2.008-4.222-5.541-7.408-9.946-8.972zm29.887 91.595-132.492 63.052c-1.245.593-2.74.062-3.332-1.183l-34.667-72.846c-.593-1.245-.062-2.74 1.183-3.332l132.492-63.053c.384-.182.749-.243 1.066-.243.356 0 .651.077.845.145.364.129 1.033.468 1.42 1.282l34.668 72.847c.592 1.244.061 2.738-1.183 3.331z"/><path d="m340.192 93.106-5.505 2.62c-3.74 1.78-5.329 6.255-3.55 9.995 1.285 2.7 3.974 4.279 6.777 4.279 1.08 0 2.178-.235 3.218-.729l5.505-2.62c3.74-1.78 5.329-6.255 3.55-9.995-1.781-3.74-6.255-5.328-9.995-3.55z"/><path d="m372.245 77.853-5.504 2.619c-3.74 1.78-5.329 6.255-3.55 9.995 1.285 2.7 3.974 4.279 6.777 4.279 1.08 0 2.178-.235 3.218-.729l5.504-2.619c3.74-1.78 5.329-6.255 3.55-9.995-1.78-3.741-6.255-5.329-9.995-3.55z"/><path d="m404.298 62.599-5.504 2.619c-3.74 1.78-5.329 6.255-3.55 9.995 1.285 2.7 3.974 4.279 6.777 4.279 1.08 0 2.178-.235 3.218-.729l5.504-2.619c3.74-1.78 5.329-6.255 3.55-9.995-1.78-3.741-6.254-5.33-9.995-3.55z"/><path d="m354.612 123.408-5.504 2.619c-3.74 1.78-5.329 6.255-3.55 9.995 1.285 2.7 3.974 4.279 6.777 4.279 1.08 0 2.178-.235 3.218-.729l5.504-2.619c3.74-1.78 5.329-6.255 3.55-9.995-1.78-3.74-6.254-5.329-9.995-3.55z"/><path d="m386.664 108.155-5.504 2.62c-3.739 1.78-5.328 6.255-3.549 9.995 1.285 2.7 3.975 4.279 6.777 4.279 1.08 0 2.178-.235 3.219-.73l5.504-2.62c3.739-1.78 5.328-6.255 3.549-9.995-1.78-3.74-6.251-5.328-9.996-3.549z"/><path d="m418.719 92.901-5.505 2.62c-3.74 1.78-5.329 6.255-3.55 9.995 1.285 2.7 3.974 4.279 6.777 4.279 1.08 0 2.178-.235 3.218-.729l5.505-2.62c3.74-1.78 5.329-6.255 3.55-9.995-1.78-3.741-6.257-5.328-9.995-3.55z"/><path d="m379.028 157.26c-1.78-3.741-6.256-5.328-9.995-3.55l-5.504 2.619c-3.74 1.78-5.329 6.255-3.55 9.995 1.285 2.7 3.974 4.279 6.777 4.279 1.08 0 2.178-.235 3.218-.729l5.504-2.619c3.741-1.78 5.33-6.254 3.55-9.995z"/><path d="m402.027 154.621 5.504-2.619c3.74-1.78 5.329-6.255 3.55-9.995-1.781-3.741-6.256-5.329-9.995-3.55l-5.504 2.619c-3.74 1.78-5.329 6.255-3.55 9.995 1.285 2.7 3.974 4.279 6.777 4.279 1.081 0 2.178-.235 3.218-.729z"/><path d="m433.138 123.203-5.504 2.62c-3.739 1.78-5.328 6.255-3.549 9.995 1.285 2.7 3.975 4.279 6.777 4.279 1.08 0 2.178-.235 3.219-.73l5.504-2.62c3.739-1.78 5.328-6.255 3.549-9.995-1.78-3.74-6.254-5.328-9.996-3.549z"/><path d="m381.178 200.906c1.08 0 2.178-.235 3.219-.73l5.504-2.62c3.739-1.78 5.328-6.255 3.549-9.995-1.78-3.74-6.252-5.327-9.996-3.549l-5.504 2.62c-3.739 1.78-5.328 6.255-3.549 9.995 1.285 2.7 3.974 4.279 6.777 4.279z"/><path d="m413.23 185.652c1.08 0 2.178-.235 3.218-.729l5.504-2.619c3.74-1.78 5.329-6.255 3.55-9.995-1.78-3.74-6.255-5.328-9.995-3.55l-5.504 2.619c-3.74 1.78-5.329 6.255-3.55 9.995 1.285 2.7 3.974 4.279 6.777 4.279z"/><path d="m438.506 166.119c1.285 2.7 3.974 4.279 6.777 4.279 1.08 0 2.178-.235 3.218-.729l5.504-2.619c3.74-1.78 5.329-6.255 3.55-9.995-1.78-3.741-6.254-5.328-9.995-3.55l-5.504 2.619c-3.741 1.78-5.329 6.255-3.55 9.995z"/><path d="m73.367 228.393c-1.779-3.74-6.253-5.327-9.996-3.549l-5.504 2.62c-3.739 1.78-5.328 6.255-3.549 9.995 1.285 2.7 3.975 4.279 6.777 4.279 1.08 0 2.178-.235 3.219-.73l5.504-2.62c3.74-1.78 5.328-6.255 3.549-9.995z"/><path d="m95.425 209.59-5.504 2.619c-3.74 1.78-5.329 6.255-3.55 9.995 1.285 2.7 3.974 4.279 6.777 4.279 1.08 0 2.178-.235 3.218-.729l5.504-2.619c3.74-1.78 5.329-6.255 3.55-9.995-1.78-3.74-6.255-5.328-9.995-3.55z"/><path d="m127.478 194.336-5.504 2.619c-3.74 1.78-5.329 6.255-3.55 9.995 1.285 2.7 3.974 4.279 6.777 4.279 1.08 0 2.178-.235 3.218-.729l5.504-2.619c3.74-1.78 5.329-6.255 3.55-9.995-1.781-3.741-6.254-5.328-9.995-3.55z"/><path d="m75.516 272.04c1.08 0 2.178-.235 3.218-.729l5.505-2.62c3.74-1.78 5.329-6.255 3.55-9.995-1.78-3.74-6.255-5.328-9.995-3.55l-5.505 2.62c-3.74 1.78-5.329 6.255-3.55 9.995 1.284 2.7 3.973 4.279 6.777 4.279z"/><path d="m109.845 239.892-5.504 2.62c-3.739 1.78-5.328 6.255-3.549 9.995 1.285 2.7 3.975 4.279 6.777 4.279 1.08 0 2.178-.235 3.219-.73l5.504-2.62c3.739-1.78 5.328-6.255 3.549-9.995-1.78-3.74-6.252-5.327-9.996-3.549z"/><path d="m132.845 237.253c1.285 2.7 3.974 4.279 6.777 4.279 1.08 0 2.178-.235 3.218-.729l5.504-2.619c3.74-1.78 5.329-6.255 3.55-9.995-1.78-3.74-6.257-5.329-9.995-3.55l-5.504 2.619c-3.741 1.78-5.33 6.254-3.55 9.995z"/><path d="m89.936 302.341c1.08 0 2.178-.235 3.218-.729l5.504-2.619c3.74-1.78 5.329-6.255 3.55-9.995s-6.256-5.329-9.995-3.55l-5.504 2.619c-3.74 1.78-5.329 6.255-3.55 9.995 1.285 2.7 3.974 4.279 6.777 4.279z"/><path d="m125.208 286.358 5.504-2.62c3.739-1.78 5.328-6.255 3.549-9.995s-6.254-5.329-9.996-3.549l-5.504 2.62c-3.739 1.78-5.328 6.255-3.549 9.995 1.285 2.7 3.975 4.279 6.777 4.279 1.08 0 2.178-.235 3.219-.73z"/><path d="m157.26 271.105 5.505-2.62c3.74-1.78 5.329-6.255 3.55-9.995-1.781-3.74-6.256-5.328-9.995-3.55l-5.505 2.62c-3.74 1.78-5.329 6.255-3.55 9.995 1.285 2.7 3.974 4.279 6.777 4.279 1.08 0 2.178-.235 3.218-.729z"/><path d="m104.357 332.644c1.08 0 2.178-.235 3.218-.729l5.504-2.619c3.74-1.78 5.329-6.255 3.55-9.995-1.78-3.741-6.255-5.328-9.995-3.55l-5.504 2.619c-3.74 1.78-5.329 6.255-3.55 9.995 1.285 2.7 3.974 4.279 6.777 4.279z"/><path d="m136.41 317.39c1.08 0 2.178-.235 3.218-.729l5.504-2.619c3.74-1.78 5.329-6.255 3.55-9.995-1.78-3.74-6.254-5.329-9.995-3.55l-5.504 2.619c-3.74 1.78-5.329 6.255-3.55 9.995 1.285 2.7 3.973 4.279 6.777 4.279z"/><path d="m168.463 302.136c1.08 0 2.178-.235 3.218-.729l5.504-2.619c3.74-1.78 5.329-6.255 3.55-9.995-1.78-3.74-6.257-5.329-9.995-3.55l-5.504 2.619c-3.74 1.78-5.329 6.255-3.55 9.995 1.285 2.7 3.973 4.279 6.777 4.279z"/><path d="m44.277 345.926c12.408 26.073 38.46 41.343 65.579 41.341 10.427-.001 21.017-2.26 31.041-7.03l329.592-156.851c36.098-17.179 51.488-60.522 34.311-96.62l-37.205-78.179c-8.321-17.486-22.955-30.686-41.204-37.166-18.25-6.481-37.931-5.466-55.415 2.855l-72.808 34.649c-3.74 1.78-5.329 6.255-3.55 9.995 1.781 3.741 6.259 5.329 9.995 3.55l72.808-34.649c13.868-6.6 29.478-7.403 43.95-2.265 14.474 5.14 26.079 15.608 32.679 29.476l37.205 78.179c13.624 28.629 1.417 63.005-27.211 76.63l-329.592 156.851c-28.627 13.625-63.005 1.418-76.63-27.212l-37.204-78.179c-6.601-13.868-7.404-29.477-2.266-43.95 5.14-14.474 15.608-26.079 29.477-32.679l229.865-109.392c3.74-1.78 5.329-6.255 3.55-9.995-1.78-3.74-6.256-5.328-9.995-3.549l-229.865 109.392c-17.486 8.322-30.686 22.955-37.166 41.204s-5.466 37.929 2.855 55.415z"/></g></g></svg>