<svg id="Capa_1" enable-background="new 0 0 512 512" height="512" viewBox="0 0 512 512" width="512" xmlns="http://www.w3.org/2000/svg"><g><g><path d="m443.165 291.378c-7.3 65.66-35.606 131.984-79.486 176.854l-9.769 2.22-18.412-25.892c-11.87-12.35-13.14-31.53-2.81-45.19 28.79-38.09 43.659-83.848 44.009-135.088l37.608-5.004c17.25-.01 30.77 14.96 28.86 32.1z" fill="#f8f7f7"/><path d="m439.586 61.332 24.304-13.458c6.399-3.695 14.582-1.502 18.276 4.897l2.254 1.84 11.438 19.811c3.695 6.399 1.502 14.582-4.897 18.276l-10.143 5.809-8.093.394-6.613 8.029z" fill="#7bb1ff"/><path d="m484.42 54.612-1.94-3.36c-3.7-6.4-11.88-8.59-18.28-4.9l-25 14.32 26.91 46.26 14.708-8.424c-4.703-9.605-9.843-19.02-15.4-28.24-1.16-1.925-.53-4.423 1.418-5.543z" fill="#62a5f4"/><path d="m178.512 21.29c-93.343 0-169.012 67.669-169.012 161.012v33.331c0 28.987 23.499 52.486 52.486 52.486 32.312 0 58.507 26.194 58.507 58.507v65.007l37.004 3v-65.007c0-53.854-43.657-97.511-97.511-97.511-7.446 0-13.482-6.036-13.482-13.482v-33.331c0-71.801 58.206-130.007 130.007-130.007 45.005 0 88.273 13.863 124.493 39.494 7.949 5.625 15.559 11.818 22.773 18.554l28.623-23.506c-47.335-44.203-109.089-68.547-173.888-68.547z" fill="#f8f7f7"/><path d="m350.4 84.842-10.87 11.63-12.11-10.47c-42.54-34.75-95.54-53.71-150.91-53.71-84.37 0-153.01 68.64-153.01 153.01v33.33c0 20.12 16.37 36.49 36.49 36.49 41.08 0 74.5 33.42 74.5 74.5v65.01h-16v-65.01c0-16.15-6.55-30.78-17.13-41.37-10.59-10.58-25.22-17.13-41.37-17.13-28.99 0-52.49-23.5-52.49-52.49v-33.33c0-93.34 75.67-169.01 169.01-169.01 64.8 0 126.56 24.34 173.89 68.55z" fill="#e8e8e8"/><path d="m504.5 262.662c0 78.47-24.92 153.11-71.02 214.88-6.713 8.996-16.028 14.707-26.019 17.005 0 0-15.993-1.58-22.92-3.305-7.88-1.963-13.638-4.855-19.761-11.229l-9.468-10.459 2.998-3.571c43.88-44.87 73.29-103.95 80.59-169.61 1.91-17.14-11.61-32.11-28.86-32.1l-18.01.005-15.911-2.687c.01-.54.01-1.08.01-1.62 0-66.18-23.457-123.649-68.377-165.609l6.978-11.738 45.809-40.601c22.27-19.73 56.76-16.24 74.4 7.72 45.161 61.389 69.561 135.279 69.561 212.919z" fill="#7bb1ff"/><path d="m342.04 411.772c-5 6.6-4.4 15.8 1.42 21.85l23.86 22.72c-2.93 3.28 1.19 9.521-1.88 12.661l-11.53 1.449-23.42-24.35c-11.87-12.35-13.14-31.53-2.81-45.19 28.79-38.09 46-85.39 46.35-136.63l9.135-5.004 8.865 5.004v.21c-.39 53.59-17.67 104.51-49.99 147.28z" fill="#e8e8e8"/><path d="m207.495 411.793c0-38.384-31.116-69.5-69.5-69.5-16.672 0-31.972 5.87-43.947 15.656 0 0-7.962 9.164-11.502 14.049-8.296 11.447-10.5 24.576-10.5 39.795 0 38.384 27.566 66.457 65.95 66.457 16.848 0 31.946-4.009 43.977-13.982 4.804-3.983 12.999-12.666 12.999-12.666 7.892-11.275 12.523-25.001 12.523-39.809z" fill="#e8e8e8"/><path d="m194.97 451.602c-12.56 17.95-33.4 29.69-56.97 29.69-38.39 0-69.5-31.11-69.5-69.5 0-21.71 9.96-41.1 25.55-53.84-7.91 11.28-12.55 25.02-12.55 39.84 0 38.39 31.11 69.5 69.5 69.5 16.68 0 31.99-5.88 43.97-15.69z" fill="#d8d8d8"/><circle cx="137.995" cy="411.793" fill="#f8f7f7" r="37.423"/><g fill="#62a5f4"><circle cx="397.812" cy="112.335" r="16.724"/><circle cx="433.03" cy="198.414" r="16.724"/><path d="m407.461 494.546c-14.78 3.41-31.051-.675-42.561-12.655l-10.99-11.44 4.4-4.47c3.07-3.14 6.08-6.36 9.01-9.64z"/><path d="m392.04 262.662c0 .54 0 1.08-.01 1.62h-18c.01-.54.01-1.08.01-1.62 0-66.18-28.12-125.91-73.04-167.87l13.73-12.17 12.42 13.05c41.45 45.45 64.89 105.27 64.89 166.99z"/></g></g><g><path d="m478.415 108.605 16.296-9.408c4.83-2.789 8.285-7.291 9.729-12.678 1.443-5.387.702-11.014-2.087-15.843l-13.379-23.173c-2.788-4.83-7.291-8.285-12.678-9.728-5.387-1.442-11.013-.703-15.843 2.086l-16.524 9.54c-.978-1.368-1.953-2.739-2.952-4.096-9.607-13.057-24.389-21.529-40.554-23.243-16.269-1.725-32.616 3.507-44.856 14.354l-25.121 22.264c-44.925-32.656-98.019-49.887-153.934-49.887-34.598 0-68.1 10.008-96.886 28.943-3.46 2.276-4.42 6.927-2.144 10.388 2.275 3.46 6.926 4.419 10.388 2.145 26.33-17.321 56.982-26.476 88.642-26.476 51.602 0 100.648 15.567 142.417 45.092l-18.514 16.408c-36.708-24.544-79.424-37.496-123.903-37.496-75.821 0-137.507 61.686-137.507 137.507v33.331c0 11.569 9.412 20.982 20.981 20.982 49.633 0 90.012 40.379 90.012 90.011v6.108c-3.913-.615-7.92-.941-12.003-.941-4.073 0-8.079.339-12.002.958v-6.125c0-36.396-29.61-66.007-66.007-66.007-24.805.001-44.986-20.18-44.986-44.985v-33.331c0-42.893 16.634-83.285 46.838-113.736 2.917-2.941 2.897-7.69-.044-10.606-2.938-2.917-7.688-2.897-10.606.043-33.009 33.279-51.188 77.423-51.188 124.299v33.331c0 33.077 26.91 59.986 59.986 59.986 28.125 0 51.007 22.881 51.007 51.007v10.076c-24.463 9.189-43.367 30.514-48.58 57.311-.791 4.066 1.864 8.003 5.931 8.794 4.068.792 8.003-1.864 8.794-5.93 5.646-29.021 31.239-50.085 60.857-50.085 34.187 0 62 27.813 62 62s-27.813 62-62 62c-27.062 0-50.792-17.297-59.05-43.042-1.265-3.944-5.487-6.117-9.433-4.851-3.944 1.265-6.116 5.488-4.851 9.433 10.257 31.976 39.728 53.46 73.333 53.46 42.458 0 77-34.542 77-77 0-32.96-20.821-61.138-49.997-72.101v-10.066c0-57.903-47.108-105.011-105.012-105.011-3.298 0-5.981-2.684-5.981-5.982v-33.331c0-67.551 54.956-122.507 122.507-122.507 43.167 0 85.001 10.437 119.689 37.786 21.139 17.63 36.654 41.336 48.63 66.309 1.791 3.737 6.274 5.31 10.006 3.52 3.734-1.791 5.311-6.271 3.52-10.005-11.666-24.329-27.228-46.285-46.317-65.372l53.479-47.395c9.094-8.059 21.243-11.944 33.325-10.664 12.16 1.29 22.834 7.404 30.054 17.217 44.073 59.716 68.239 132.857 68.103 208.469 0 76.692-24.045 149.448-69.535 210.4-6.633 8.888-16.775 14.38-27.824 15.069-11.005.685-21.697-3.479-29.337-11.429l-5.948-6.188c20.997-21.613 38.52-46.141 52.079-72.928 1.871-3.696.392-8.208-3.305-10.079-3.695-1.87-8.207-.392-10.078 3.304-12.797 25.281-29.317 48.445-49.098 68.88l-18.056-18.786c-9.421-9.801-10.361-24.717-2.236-35.468 29.482-39.011 45.877-85.045 47.702-133.647l28.685-.017h.013c6.12 0 11.972 2.616 16.057 7.177 4.115 4.595 6.007 10.49 5.328 16.598-2.428 21.836-7.436 43.362-14.884 63.98-1.407 3.896.609 8.195 4.506 9.602.842.304 1.701.448 2.548.448 3.069 0 5.95-1.9 7.054-4.954 7.85-21.728 13.126-44.411 15.685-67.419 1.141-10.256-2.163-20.558-9.062-28.262-6.928-7.735-16.852-12.17-27.231-12.17-.008 0-.015 0-.022 0l-28.58.017c-.522-21.322-3.876-42.375-10.009-62.666-1.199-3.965-5.385-6.209-9.35-5.009-3.965 1.198-6.208 5.384-5.01 9.349 6.271 20.742 9.449 42.341 9.449 64.197 0 48.667-15.507 94.911-44.845 133.732-12.597 16.668-11.172 39.759 3.389 54.906l34.406 35.796c9.938 10.339 23.562 16.108 37.799 16.107 15.182.199 32.782-7.935 42.198-21.17 47.437-63.562 72.512-139.42 72.512-219.37 0-54.036-11.483-106.251-33.585-154.057zm-10.462-55.755c1.36-.786 2.943-.994 4.461-.587 1.517.406 2.784 1.379 3.569 2.739l13.379 23.174c.785 1.36.994 2.944.588 4.461s-1.379 2.785-2.739 3.57l-15.384 8.882c-5.846-11.38-12.322-22.481-19.396-33.277z"/><path d="m137.995 456.719c24.771 0 44.923-20.152 44.923-44.923s-20.152-44.923-44.923-44.923-44.923 20.152-44.923 44.923c0 24.77 20.153 44.923 44.923 44.923zm0-74.847c16.5 0 29.923 13.423 29.923 29.923s-13.423 29.923-29.923 29.923-29.923-13.423-29.923-29.923c0-16.499 13.423-29.923 29.923-29.923z"/><path d="m397.812 88.114c-13.357 0-24.225 10.867-24.225 24.224s10.867 24.224 24.225 24.224 24.224-10.867 24.224-24.224-10.866-24.224-24.224-24.224zm0 33.447c-5.087 0-9.225-4.138-9.225-9.224s4.138-9.224 9.225-9.224c5.086 0 9.224 4.138 9.224 9.224s-4.138 9.224-9.224 9.224z"/><path d="m433.03 222.641c13.357 0 24.224-10.867 24.224-24.224s-10.866-24.224-24.224-24.224-24.224 10.867-24.224 24.224c.001 13.357 10.867 24.224 24.224 24.224zm0-33.448c5.086 0 9.224 4.138 9.224 9.224s-4.138 9.224-9.224 9.224-9.224-4.138-9.224-9.224c.001-5.087 4.138-9.224 9.224-9.224z"/><path d="m409.02 317.294c0-4.142-3.357-7.5-7.5-7.5h-.01c-4.142 0-7.495 3.358-7.495 7.5s3.363 7.5 7.505 7.5 7.5-3.358 7.5-7.5z"/><path d="m400.52 346.794c0-4.142-3.357-7.5-7.5-7.5h-.01c-4.142 0-7.495 3.358-7.495 7.5s3.363 7.5 7.505 7.5 7.5-3.358 7.5-7.5z"/><path d="m382.02 382.294c4.143 0 7.5-3.358 7.5-7.5s-3.357-7.5-7.5-7.5h-.01c-4.142 0-7.495 3.358-7.495 7.5s3.363 7.5 7.505 7.5z"/><path d="m367.02 394.294h-.01c-4.142 0-7.495 3.358-7.495 7.5s3.363 7.5 7.505 7.5c4.143 0 7.5-3.358 7.5-7.5s-3.358-7.5-7.5-7.5z"/><path d="m137.998 404.296h-.01c-4.142 0-7.495 3.358-7.495 7.5s3.363 7.5 7.505 7.5c4.143 0 7.5-3.358 7.5-7.5s-3.358-7.5-7.5-7.5z"/></g></g></svg>