<svg id="Capa_1" enable-background="new 0 0 512 512" height="512" viewBox="0 0 512 512" width="512" xmlns="http://www.w3.org/2000/svg"><g><g><g><path d="m113.25 49h-40l-1.755 1.046c-5.523 0-10 4.477-10 10v16.954h60.385l1.369-13v-5c.001-5.523-4.476-10-9.999-10z" fill="#f8f7f7"/><path d="m123.25 64v13l-30.323 2.917-32.677-2.917v-18c0-5.523 4.477-10 10-10h3v10c0 2.761 2.239 5 5 5z" fill="#e8e8e8"/></g><g><path d="m441.75 49h-40l-1.755 1.046c-5.523 0-10 4.477-10 10v16.954h60.385l1.369-13v-5c.001-5.523-4.476-10-9.999-10z" fill="#f8f7f7"/><path d="m451.75 64v13l-30.323 2.917-32.677-2.917v-18c0-5.523 4.477-10 10-10h3v10c0 2.761 2.239 5 5 5z" fill="#e8e8e8"/></g><path d="m336 118.174-16 2.826h-128l-16-2.826v-24.935l16-2.239h128l16 2.239z" fill="#8ce1a4"/><path d="m172.083 91h19.917v30h-19.917z" fill="#7ad396"/><path d="m320 91h27.459v30h-27.459z" fill="#7ad396"/><path d="m336 89v50c0 6.627-5.373 12-12 12h-136c-6.627 0-12-5.373-12-12v-50c0-6.627-5.373-12-12-12h-138.5l-4.353 2c-6.627 0-12 5.373-12 12l2.917 354.312c0 6.627 5.373 12 12 12l465.495 3.605c6.627 0 12-5.373 12-12l2.941-3.917v-356c0-6.627-5.373-12-12-12h-144.5c-6.627 0-12 5.373-12 12z" fill="#afefa5"/><path d="m334 259c0-43.078-34.922-78-78-78-17.715 0-34.051 5.906-47.146 15.855 0 0-9.747 11.386-14.396 18.007-8.897 12.671-11.807 27.479-11.807 44.138 0 43.078 30.27 73.523 73.349 73.523 13.519 0 25.713-1.104 36.798-7.156 9.547-5.212 25.006-18.776 25.006-18.776 10.156-13.169 16.196-29.675 16.196-47.591z" fill="#8ce1a4"/><path d="m318.14 306.152c-14.25 18.75-36.78 30.848-62.14 30.848-43.08 0-78-34.92-78-78 0-25.36 12.1-47.9 30.85-62.15-9.94 13.09-15.85 29.43-15.85 47.15 0 43.08 34.92 78 78 78 17.72 0 34.05-5.908 47.14-15.848z" fill="#7ad396"/><path d="m504.5 445v6c0 6.627-5.373 12-12 12h-473c-6.627 0-12-5.373-12-12v-362c0-6.627 5.373-12 12-12h6v348c0 11.046 8.954 20 20 20z" fill="#8ce1a4"/><g fill="#f8f7f7"><path d="m298 244.789h-24.789c-1.657 0-3-1.343-3-3v-24.789c0-1.657-1.343-3-3-3h-22.421c-1.657 0-3 1.343-3 3v24.789c0 1.657-1.343 3-3 3h-24.79c-1.657 0-3 1.343-3 3v22.421c0 1.657 1.343 3 3 3h24.789c1.657 0 3 1.343 3 3v24.79c0 1.657 1.343 3 3 3h22.421c1.657 0 3-1.343 3-3v-24.789c0-1.657 1.343-3 3-3h24.79c1.657 0 3-1.343 3-3v-22.421c0-1.657-1.343-3.001-3-3.001z"/><path d="m368.5 403h-225c-2.761 0-5-2.239-5-5v-25c0-2.761 2.239-5 5-5h225c2.761 0 5 2.239 5 5v25c0 2.761-2.239 5-5 5z"/></g></g><g><path d="m492.5 69.5h-33.25v-10.5c0-9.649-7.851-17.5-17.5-17.5h-43c-9.649 0-17.5 7.851-17.5 17.5v10.5h-33.25c-8.841 0-16.315 5.919-18.697 14h-146.606c-2.382-8.081-9.856-14-18.697-14h-33.25v-10.5c0-9.649-7.851-17.5-17.5-17.5h-43c-9.649 0-17.5 7.851-17.5 17.5v10.5h-33.25c-10.752 0-19.5 8.748-19.5 19.5v151c0 4.142 3.357 7.5 7.5 7.5s7.5-3.358 7.5-7.5v-151c0-2.481 2.019-4.5 4.5-4.5h144.5c2.481 0 4.5 2.019 4.5 4.5v50c0 10.752 8.748 19.5 19.5 19.5h136c10.752 0 19.5-8.748 19.5-19.5v-50c0-2.481 2.019-4.5 4.5-4.5h144.5c2.481 0 4.5 2.019 4.5 4.5v362c0 2.481-2.019 4.5-4.5 4.5h-473c-2.481 0-4.5-2.019-4.5-4.5v-176c0-4.142-3.357-7.5-7.5-7.5s-7.5 3.358-7.5 7.5v176c0 10.752 8.748 19.5 19.5 19.5h473c10.752 0 19.5-8.748 19.5-19.5v-362c0-10.752-8.748-19.5-19.5-19.5zm-424.75-10.5c0-1.378 1.121-2.5 2.5-2.5h43c1.379 0 2.5 1.122 2.5 2.5v10.5h-48zm256.25 84.5h-136c-2.481 0-4.5-2.019-4.5-4.5v-10.5h27.691c4.143 0 7.5-3.358 7.5-7.5s-3.357-7.5-7.5-7.5h-27.691v-15h145v15h-82.309c-4.143 0-7.5 3.358-7.5 7.5s3.357 7.5 7.5 7.5h82.309v10.5c0 2.481-2.019 4.5-4.5 4.5zm72.25-84.5c0-1.378 1.121-2.5 2.5-2.5h43c1.379 0 2.5 1.122 2.5 2.5v10.5h-48z"/><path d="m241.789 311.5h28.422c4.143 0 7.5-3.358 7.5-7.5v-23.29h23.289c4.143 0 7.5-3.358 7.5-7.5v-28.42c0-4.142-3.357-7.5-7.5-7.5h-23.289v-23.29c0-4.142-3.357-7.5-7.5-7.5h-28.422c-4.143 0-7.5 3.358-7.5 7.5v23.29h-23.289c-4.143 0-7.5 3.358-7.5 7.5v28.421c0 4.142 3.357 7.5 7.5 7.5h23.289v23.289c0 4.142 3.357 7.5 7.5 7.5zm-23.289-45.79v-13.42h23.289c4.143 0 7.5-3.358 7.5-7.5v-23.29h13.422v23.29c0 4.142 3.357 7.5 7.5 7.5h23.289v13.421h-23.289c-4.143 0-7.5 3.358-7.5 7.5v23.29h-13.422v-23.29c0-4.142-3.357-7.5-7.5-7.5h-23.289z"/><path d="m332.188 240.588c3.914-1.354 5.99-5.625 4.637-9.539-11.902-34.422-44.384-57.549-80.825-57.549-47.145 0-85.5 38.355-85.5 85.5s38.355 85.5 85.5 85.5c43.479 0 79.996-32.53 84.94-75.667.472-4.115-2.481-7.833-6.597-8.305-4.112-.472-7.833 2.481-8.306 6.597-4.075 35.56-34.184 62.375-70.037 62.375-38.874 0-70.5-31.626-70.5-70.5s31.626-70.5 70.5-70.5c30.051 0 56.835 19.069 66.648 47.451 1.353 3.914 5.623 5.991 9.54 4.637z"/><path d="m131 368v35c0 4.142 3.357 7.5 7.5 7.5h39.713c4.143 0 7.5-3.358 7.5-7.5s-3.357-7.5-7.5-7.5h-32.213v-20h220v20h-152.787c-4.143 0-7.5 3.358-7.5 7.5s3.357 7.5 7.5 7.5h160.287c4.143 0 7.5-3.358 7.5-7.5v-35c0-4.142-3.357-7.5-7.5-7.5h-235c-4.143 0-7.5 3.358-7.5 7.5z"/><path d="m138.5 440.5h235c4.143 0 7.5-3.358 7.5-7.5s-3.357-7.5-7.5-7.5h-235c-4.143 0-7.5 3.358-7.5 7.5s3.357 7.5 7.5 7.5z"/></g></g></svg>