<svg id="Capa_1" enable-background="new 0 0 512 512" height="512" viewBox="0 0 512 512" width="512" xmlns="http://www.w3.org/2000/svg"><g><g><g><path d="m417.5 502.5h-323c-5.523 0-10-4.477-10-10v-473c0-5.523 4.477-10 10-10l3-2h322c5.523 0 10 4.477 10 10v472l-2 3c0 5.523-4.477 10-10 10z" fill="#f8f7f7"/><path d="m111.5 489.5c-7.732 0-14-6.268-14-14v-468h-5c-5.523 0-10 4.477-10 10v477c0 5.523 4.477 10 10 10h327c5.523 0 10-4.477 10-10v-5z" fill="#e8e8e8"/></g><path d="m395.5 333.5h-279v-118.926l-4-7.074v-70l4.127-3.053-.127-92.947 84.584.198 4.416-4.198h191c1.657 0 3 1.343 3 3v67l-4.071 4.098z" fill="#d8d8d8"/><g><g><path d="m395.5 310.5h-30v-76l34 3v55z" fill="#b57f5f"/><path d="m365.5 310.5 34-3v-15h-34z" fill="#9f6e50"/></g><g><path d="m365.5 310.5h-25l-3-18v-58h31v58z" fill="#c38c66"/><path d="m337.5 292.5h31v18h-31z" fill="#b57f5f"/></g><g><g><path d="m176.5 310h-35v-17.5-57.5h35v57.5z" fill="#b57f5f"/><path d="m141.5 292.5h35v18h-35z" fill="#9f6e50"/></g><g><path d="m238.5 310h-35v-17.5-57.5h35v57.5z" fill="#b57f5f"/><path d="m203.5 292.5h35v18h-35z" fill="#9f6e50"/></g><g><path d="m140.5 310h-25v-75h28v57.5z" fill="#c38c66"/><path d="m127.5 282.5v-48l-15 3v70l31 3v-18h-6c-5.523 0-10-4.477-10-10z" fill="#b57f5f"/></g><g><path d="m202.5 310h-25l-3-17.5v-57.5h31v57.5z" fill="#c38c66"/><path d="m174.5 292.5h31v18h-31z" fill="#b57f5f"/></g><g><path d="m264.5 310h-25l-3-17.5v-57.5h31v57.5z" fill="#c38c66"/><path d="m236.5 292.5h31v18h-31z" fill="#b57f5f"/></g></g><g><g><path d="m306.5 204.5h-29l-2-12v-55l15.5-2 15.5 2 2 34z" fill="#ffe07d"/><path d="m275.5 207.5 14.862 2 16.138-2 3-15h-34z" fill="#ffd064"/></g><g><path d="m368.5 204.5h-31l-2-33 2-34 15.5-2 15.5 2 2 34z" fill="#ffe07d"/><path d="m337.5 207.5 15.5 2 15.5-2 3-15h-37z" fill="#ffd064"/></g><g><path d="m397.5 205.5h-27l-2-13v-55l15.5-2 15.5 2v55z" fill="#ffd064"/><path d="m368.5 207.5 15.5 2 15.5-2v-15h-31z" fill="#edc258"/></g><g><path d="m335.5 205.5h-27l-2-13v-55l15.5-2 15.5 2v55z" fill="#ffd064"/><path d="m306.5 207.5 15.5 2 15.5-2v-15h-31z" fill="#edc258"/></g></g><g><g><path d="m201.5 103.5h-31v-63.053l4-2.947h31v55z" fill="#ffe07d"/><path d="m174.5 107.5 14 3 17-3v-15h-31l-3 7.5z" fill="#ffd064"/></g><g><path d="m146.5 105.5h-32v-63c0-1.657 1.343-3 3-3l10-2h16l3 2.947z" fill="#ffe07d"/><path d="m127.5 82.5v-45h-12c-1.657 0-3 1.343-3 3v52 15l15 3 16-3 3-7.5-3-7.5h-6c-5.523 0-10-4.477-10-10z" fill="#ffd064"/></g><g><path d="m172.5 105.5h-27l-2-13v-55h31v55z" fill="#c38c66"/><path d="m143.5 107.5 15.5 3 15.5-3v-15h-31z" fill="#b57f5f"/></g></g></g><g><g><path d="m160.5 188v-15.5c0-1.657 1.343-3 3-3l10-2h13c1.657 0 3 1.343 3 3v21.5c0 3.882-1.432 7.426-3.79 10.145-2.842 3.278-11.71 2.355-11.71 2.355-8.56 0-13.5-7.94-13.5-16.5z" fill="#f8f7f7"/><path d="m173.5 187v-19.5h-12c-1.657 0-3 1.343-3 3v21.5c0 8.56 6.94 15.5 15.5 15.5 4.678 0 8.868-2.077 11.71-5.355-6.976-1.511-12.21-7.716-12.21-15.145z" fill="#e8e8e8"/></g><g><path d="m264.5 84.169v-2.669c0-1.657 1.343-3 3-3l10-2h28c1.657 0 3 1.343 3 3v7.669c0 3.699-.996 7.163-2.722 10.151 0 0-5.501 8.18-19.608 8.18h-1.339c-11.229 0-20.331-10.102-20.331-21.331z" fill="#f8f7f7"/><path d="m303.169 97.5h-4.669c-11.598 0-21-9.402-21-21h-12c-1.657 0-3 1.343-3 3v7.669c0 11.228 9.102 20.331 20.331 20.331l2.51 2.053 2.829-2.053c7.529 0 14.094-4.098 17.608-10.18-.854.109-1.726.18-2.609.18z" fill="#e8e8e8"/></g><g><path d="m340.5 87v-14.5c0-1.657 1.343-3 3-3l10-2h13c1.657 0 3 1.343 3 3v21.5c0 3.882-1.432 7.426-3.79 10.145-2.842 3.278-11.71 3.355-11.71 3.355-11.553 0-13.5-13.053-13.5-18.5z" fill="#f8f7f7"/><path d="m353.5 87v-19.5h-12c-1.657 0-3 1.343-3 3v21.5c0 8.56 6.94 15.5 15.5 15.5 4.678 0 8.868-2.077 11.71-5.355-6.976-1.511-12.21-7.716-12.21-15.145z" fill="#e8e8e8"/></g></g><g><path d="m256 471.5h-135.5c-2.761 0-5-2.239-5-5v-126l7.606-6h132.894l4 7.5v127.447z" fill="#ffe07d"/><path d="m132.5 461.5c-2.761 0-7-4.239-7-7l2-5.606v-85.787l-2-19.213-11-4.394-2 8.606v115.787l2 3.606c0 2.761 2.239 5 5 5l3.606 2h122.223l-2.967-9.117-12.248-5.883h-92.007z" fill="#ffd064"/></g><g><path d="m399.5 471.5h-135.5c-2.761 0-5-2.239-5-5v-126l7.606-6h122.226l10.667 13.548v115.908 7.544z" fill="#ffe07d"/><path d="m276 461.5c-2.761 0-7-4.239-7-7l2-5.606v-85.787l-2-19.213-11-4.394-2 8.606v115.787l2 3.606c0 2.761 2.239 5 5 5l3.606 2h122.223l-2.967-9.117-12.248-5.883h-92.007z" fill="#ffd064"/></g><g><path d="m357.5 442.5h-59c-5.523 0-10-4.477-10-10v-53c0-5.523 4.477-10 10-10l3-2h58c5.523 0 10 4.477 10 10v52l-2 3c0 5.523-4.477 10-10 10z" fill="#ffd064"/><path d="m311.5 429.5c-5.523 0-10-4.477-10-10v-52h-5c-5.523 0-10 4.477-10 10v20.5l3 8-3 7v21.5c0 5.523 4.477 10 10 10h63c5.523 0 10-4.477 10-10v-5z" fill="#edc258"/></g><g><path d="m154.5 442.5h59c5.523 0 10-4.477 10-10l2-3v-16.5l-2-7 2-8v-20.5c0-5.523-4.477-10-10-10h-58l-3 2c-5.523 0-10 4.477-10 10v53c0 5.523 4.477 10 10 10z" fill="#ffd064"/><path d="m167.5 429.5c-5.523 0-10-4.477-10-10v-52h-5c-5.523 0-10 4.477-10 10v57c0 5.523 4.477 10 10 10h63c5.523 0 10-4.477 10-10v-5z" fill="#edc258"/></g><g fill="#f8f7f7"><path d="m107.936 107.5h296.128v30h-296.128z"/><path d="m107.936 207.5h296.128v30h-296.128z"/><path d="m107.936 307.5h296.128v30h-296.128z"/></g></g><g><path d="m419.5 0h-327c-9.649 0-17.5 7.851-17.5 17.5v349.394c0 4.142 3.358 7.5 7.5 7.5s7.5-3.358 7.5-7.5v-349.394c0-1.378 1.122-2.5 2.5-2.5h327c1.378 0 2.5 1.122 2.5 2.5v70c0 4.142 3.358 7.5 7.5 7.5s7.5-3.358 7.5-7.5v-70c0-9.649-7.851-17.5-17.5-17.5z"/><path d="m429.5 115c-4.142 0-7.5 3.358-7.5 7.5v372c0 1.378-1.122 2.5-2.5 2.5h-327c-1.378 0-2.5-1.122-2.5-2.5v-92.606c0-4.142-3.358-7.5-7.5-7.5s-7.5 3.358-7.5 7.5v92.606c0 9.649 7.851 17.5 17.5 17.5h327c9.649 0 17.5-7.851 17.5-17.5v-372c0-4.142-3.358-7.5-7.5-7.5z"/><path d="m105.037 475.241c.304 3.326 3.225 6.775 7.463 6.759h287c3.558.044 7.555-2.978 7.5-7.503v-436.997c0-4.142-3.358-7.5-7.5-7.5h-287c-4.142 0-7.5 3.358-7.5 7.5v436.997c0 .249.013.497.037.744zm76.963-375.241v-55h16v55zm-15 0h-16v-55h16zm225 15v15h-167.5c-4.142 0-7.5 3.358-7.5 7.5s3.358 7.5 7.5 7.5h43.5v55h-72.437c.928-2.493 1.437-5.188 1.437-8v-24.5c0-4.142-3.358-7.5-7.5-7.5h-31c-4.142 0-7.5 3.358-7.5 7.5v24.5c0 2.812.51 5.507 1.437 8h-32.437v-55h69.5c4.142 0 7.5-3.358 7.5-7.5s-3.358-7.5-7.5-7.5h-69.5v-15zm-122-27.831v-3.169h31v3.169c0 7.075-5.756 12.831-12.831 12.831h-5.339c-7.074 0-12.83-5.756-12.83-12.831zm76 4.831v-17h16v17c0 4.411-3.589 8-8 8s-8-3.589-8-8zm-180 100v-17h16v17c0 4.411-3.589 8-8 8s-8-3.589-8-8zm226 23v15h-272v-15zm-93-70v55h-16v-55zm93 0v55h-16v-55zm-31 55h-16v-55h16zm-31 0h-16v-55h16zm-163 45v55h-16v-55zm15 0h16v55h-16zm31 0h16v55h-16zm31 0h16v55h-16zm31 0h55v55h-55zm70 0h16v55h-16zm31 0h16v55h-16zm-240 0v55h-16v-55zm256 70v15h-48.922c-4.142 0-7.5 3.358-7.5 7.5s3.358 7.5 7.5 7.5h38.315l-15 15h-76.823l-15.25-15h33.758c4.142 0 7.5-3.358 7.5-7.5s-3.358-7.5-7.5-7.5h-188.078v-15zm-242 122v-62h68v23h-12.5c-4.142 0-7.5 3.358-7.5 7.5s3.358 7.5 7.5 7.5h12.5v24zm83-66.357 15.5-15.246v101.205l-15.5-15.245zm30.5-15.246 15.5 15.246v70.714l-15.5 15.246zm30.5 57.603h12.5c4.142 0 7.5-3.358 7.5-7.5s-3.358-7.5-7.5-7.5h-12.5v-23h68v62h-68zm-56.321-68-15.25 15h-76.823l-15-15zm-92.073 107h76.823l15.25 15h-107.073zm143.965 0h76.823l15 15h-107.073zm87.429-10.606v-70.787l15-15v100.787zm-242-70.788v70.787l-15 15v-100.787zm257-270.606h-16.437c.928-2.493 1.437-5.188 1.437-8v-24.5c0-4.142-3.358-7.5-7.5-7.5h-31c-4.142 0-7.5 3.358-7.5 7.5v24.5c0 2.812.51 5.507 1.437 8h-19.584c2.005-3.842 3.146-8.205 3.146-12.831v-10.669c0-4.142-3.358-7.5-7.5-7.5h-46c-4.142 0-7.5 3.358-7.5 7.5v10.669c0 4.626 1.141 8.988 3.146 12.831h-45.145v-55h179zm-256-55v55h-16v-55z"/></g></g></svg>