<?xml version="1.0" encoding="iso-8859-1"?>
<!-- Uploaded to: SVG Repo, www.svgrepo.com, Generator: SVG Repo Mixer Tools -->
<svg height="800px" width="800px" version="1.1" id="Layer_1" xmlns="http://www.w3.org/2000/svg" xmlns:xlink="http://www.w3.org/1999/xlink" 
	 viewBox="0 0 508.152 508.152" xml:space="preserve">
<g transform="translate(0 -1)">
	<g>
		<path style="fill:#DA141F;" d="M204.09,509.152c-41.724,0-80.948-16.254-110.453-45.75c-60.902-60.911-60.902-160.004,0-220.906
			c29.505-29.505,68.729-45.75,110.453-45.75s80.948,16.245,110.453,45.75c10.214,10.223,18.944,21.73,25.938,34.217
			c2.334,4.183,0.842,9.476-3.341,11.811c-4.183,2.352-9.476,0.85-11.811-3.332c-6.213-11.09-13.972-21.33-23.066-30.425
			c-26.225-26.225-61.093-40.665-98.174-40.665s-71.949,14.44-98.174,40.665c-54.142,54.133-54.142,142.223,0,196.356
			c26.225,26.225,61.093,40.674,98.174,40.674s71.949-14.449,98.174-40.674c18.102-18.094,30.824-40.743,36.803-65.493
			c1.128-4.66,5.814-7.515,10.466-6.404c4.66,1.128,7.524,5.814,6.396,10.474c-6.717,27.856-21.035,53.343-41.385,73.702
			C285.038,492.898,245.814,509.152,204.09,509.152"/>
		<path style="fill:#DA141F;" d="M98.59,256.746c-2.222,0-4.443-0.85-6.135-2.543l-69.424-69.424c-3.393-3.393-3.393-8.878,0-12.271
			c3.393-3.393,8.878-3.393,12.271,0l69.424,69.424c3.393,3.393,3.393,8.878,0,12.271
			C103.033,255.895,100.811,256.746,98.59,256.746"/>
		<path style="fill:#DA141F;" d="M20.488,239.39c-2.222,0-4.443-0.85-6.135-2.543c-3.393-3.393-3.393-8.878,0-12.271l60.746-60.746
			c3.393-3.393,8.878-3.393,12.271,0c3.393,3.393,3.393,8.878,0,12.271l-60.746,60.746C24.931,238.539,22.71,239.39,20.488,239.39"
			/>
	</g>
	<g>
		<path style="fill:#0F81FF;" d="M309.717,343.834c-41.724,0-80.948-16.254-110.462-45.75c-10.83-10.83-19.959-23.101-27.162-36.482
			c-2.274-4.217-0.686-9.476,3.532-11.75c4.209-2.291,9.485-0.703,11.75,3.523c6.404,11.889,14.527,22.806,24.159,32.43
			c26.225,26.225,61.102,40.674,98.183,40.674s71.949-14.449,98.174-40.674c54.142-54.133,54.142-142.223,0-196.356
			c-26.225-26.225-61.093-40.665-98.174-40.665s-71.958,14.44-98.183,40.665c-20.289,20.298-33.627,45.915-38.574,74.084
			c-0.833,4.721-5.337,7.871-10.049,7.047c-4.721-0.833-7.871-5.328-7.047-10.049c5.563-31.701,20.567-60.52,43.39-83.352
			c29.514-29.505,68.738-45.75,110.462-45.75s80.948,16.245,110.453,45.75c60.902,60.902,60.902,159.996,0,220.906
			C390.665,327.581,351.44,343.834,309.717,343.834"/>
		<path style="fill:#0F81FF;" d="M414.599,90.809c-2.222,0-4.443-0.85-6.135-2.543c-3.393-3.393-3.393-8.878,0-12.271l69.424-69.424
			c3.393-3.393,8.878-3.393,12.271,0s3.393,8.878,0,12.271l-69.424,69.424C419.042,89.959,416.82,90.809,414.599,90.809"/>
		<path style="fill:#0F81FF;" d="M487.666,18.356h-60.746c-4.799,0-8.678-3.888-8.678-8.678S422.122,1,426.921,1h60.746
			c4.799,0,8.678,3.888,8.678,8.678S492.465,18.356,487.666,18.356"/>
		<path style="fill:#0F81FF;" d="M487.666,79.102c-4.799,0-8.678-3.888-8.678-8.678V9.678c0-4.79,3.879-8.678,8.678-8.678
			s8.678,3.888,8.678,8.678v60.746C496.344,75.214,492.465,79.102,487.666,79.102"/>
	</g>
</g>
</svg>